<?xml version="1.0"?>
<!--Icons from directory ""-->
<svg xmlns="http://www.w3.org/2000/svg" width="101" height="1221" viewBox="0 0 101 1221"><svg xmlns:rdf="http://www.w3.org/1999/02/22-rdf-syntax-ns#" xmlns:cc="http://creativecommons.org/ns#" xmlns:xlink="http://www.w3.org/1999/xlink" xmlns:dc="http://purl.org/dc/elements/1.1/" id="i1a" version="1.1" viewBox="0 0 100 87.16" width="100" height="100" y="0"><defs id="i1a-defs35299"><linearGradient id="i1a-i24a-linearGradient19435-5-8" y2=".422" gradientUnits="userSpaceOnUse" y1="-.419" gradientTransform="matrix(30.74,-19.96,19.96,30.74,326.8,90.8)" x2=".227" x1=".7731"><stop id="i1a-stop35285" stop-color="#696969" offset="0"/><stop id="i1a-stop35287" stop-color="#c7c7c9" offset=".17"/><stop id="i1a-stop35289" stop-color="#f9f9ff" offset=".36"/><stop id="i1a-stop35291" stop-color="#ccccce" offset=".73"/><stop id="i1a-stop35293" stop-color="#696969" offset="1"/></linearGradient><linearGradient id="i1a-linearGradient12806" y2="56.58" xlink:href="#i1a-i24a-linearGradient19435-5-8" gradientUnits="userSpaceOnUse" y1="56.58" gradientTransform="translate(165.1 11.85)" x2="-116.1" x1="-159.7"/><linearGradient id="i1a-linearGradient12814" y2="105.9" xlink:href="#i1a-i24a-linearGradient19435-5-8" gradientUnits="userSpaceOnUse" y1="97.79" gradientTransform="translate(150.5 -68.85)" x2="-59.73" x1="-63.79"/><linearGradient id="i1a-linearGradient35861" y2="88.116" xlink:href="#i1a-i24a-linearGradient19435-5-8" gradientUnits="userSpaceOnUse" x2="-301" gradientTransform="translate(341.4 4.282)" y1="-6.6537" x1="-301"/></defs><path id="i1a-path35301" fill="#290a43" d="m2.128 11.25-0.2676 66.36 48.7 1.873 15.79 6.422 32.91-55.39c-7.333-9.287-30.04-19.43-45.49-29.16l-6.689 8.295z"/><g id="i1a-text35305" aria-label="PASSPORT" stroke-width="1.194" fill="url(#i1a-linearGradient12806)"><path id="i1a-path35866" d="m6.6238 69.332v2.513h-1.2122v-6.826q1.2122-0.052 1.4174-0.052 1.6179 0 2.3639 0.499 0.7507 0.494 0.7507 1.548 0 2.35-2.7696 2.35-0.2051 0-0.5502-0.032zm0-3.264v2.186q0.3078 0.033 0.485 0.033 0.8299 0 1.2122-0.275 0.3824-0.28 0.3824-0.905 0-1.063-1.7112-1.063-0.1912 0-0.3684 0.024z"/><path id="i1a-path35868" d="m14.303 71.845-0.499-1.385h-2.34l-0.476 1.385h-1.3475l2.7225-6.924h0.532l2.746 6.924zm-1.674-4.835-0.82 2.522h1.641z"/><path id="i1a-path35870" d="m16.033 71.467 0.448-1.086q0.718 0.503 1.412 0.503 1.068 0 1.068-0.746 0-0.35-0.252-0.667-0.251-0.317-1.039-0.708-0.784-0.397-1.059-0.648-0.27-0.257-0.42-0.607-0.144-0.349-0.144-0.774 0-0.792 0.578-1.314 0.583-0.523 1.492-0.523 1.184 0 1.739 0.443l-0.368 1.045q-0.639-0.457-1.348-0.457-0.419 0-0.652 0.224-0.229 0.219-0.229 0.573 0 0.588 1.301 1.222 0.685 0.335 0.989 0.62 0.303 0.28 0.461 0.657 0.159 0.373 0.159 0.835 0 0.83-0.658 1.366-0.653 0.536-1.753 0.536-0.956 0-1.725-0.494z"/><path id="i1a-path35872" d="m20.919 71.467 0.448-1.086q0.718 0.503 1.413 0.503 1.067 0 1.067-0.746 0-0.35-0.251-0.667-0.252-0.317-1.04-0.708-0.783-0.397-1.058-0.648-0.271-0.257-0.42-0.607-0.145-0.349-0.145-0.774 0-0.792 0.579-1.314 0.582-0.523 1.492-0.523 1.184 0 1.739 0.443l-0.369 1.045q-0.638-0.457-1.347-0.457-0.42 0-0.653 0.224-0.228 0.219-0.228 0.573 0 0.588 1.3 1.222 0.686 0.335 0.989 0.62 0.303 0.28 0.462 0.657 0.158 0.373 0.158 0.835 0 0.83-0.657 1.366-0.653 0.536-1.753 0.536-0.956 0-1.726-0.494z"/><path id="i1a-path35874" d="m27.344 69.332v2.513h-1.212v-6.826q1.212-0.052 1.418-0.052 1.618 0 2.364 0.499 0.75 0.494 0.75 1.548 0 2.35-2.769 2.35-0.206 0-0.551-0.032zm0-3.264v2.186q0.308 0.033 0.485 0.033 0.83 0 1.213-0.275 0.382-0.28 0.382-0.905 0-1.063-1.711-1.063-0.191 0-0.369 0.024z"/><path id="i1a-path35876" d="m31.42 68.371q0-1.459 0.797-2.466 0.802-1.012 2.14-1.012 1.473 0 2.252 0.914 0.779 0.913 0.779 2.564t-0.816 2.62q-0.812 0.97-2.308 0.97-1.376 0-2.112-0.96-0.732-0.961-0.732-2.63zm1.258 0q0 1.198 0.406 1.856 0.406 0.657 1.18 0.657 0.909 0 1.385-0.643 0.48-0.644 0.48-1.87 0-2.401-1.772-2.401-0.811 0-1.245 0.653-0.434 0.648-0.434 1.748z"/><path id="i1a-path35878" d="m42.311 71.845-1.823-2.821q-0.275-0.005-0.769-0.033v2.854h-1.259v-6.831q0.103 0 0.788-0.033 0.685-0.037 1.105-0.037 2.602 0 2.602 2.014 0 0.606-0.359 1.105t-0.905 0.704l2.019 3.078zm-2.592-5.777v1.897q0.336 0.028 0.513 0.028 0.76 0 1.11-0.214 0.354-0.215 0.354-0.835 0-0.503-0.378-0.704-0.377-0.2-1.189-0.2-0.196 0-0.41 0.028z"/><path id="i1a-path35880" d="m46.685 66.091v5.754h-1.212v-5.754h-2.173v-1.077h5.656v1.077z"/></g><g id="i1a-text35309" aria-label="T" transform="rotate(28.69)" stroke-width=".74380" fill="url(#i1a-linearGradient12814)"><path id="i1a-path35863" stroke-width=".74380" fill="url(#i1a-linearGradient12814)" d="m88.453 31.151v5.976h-1.26v-5.976h-2.256v-1.119h5.874v1.119z"/></g><path id="i1a-passports" style="color:#000000" d="m53.13 0.0492c-0.3273 0.1324-0.6081 0.3775-0.7813 0.6838v0.09812c-0.7735 0.2745-1.711 0.2206-2.149 0.9765l-4.004 6.837h-42.388c-2.007 0-3.809 1.576-3.809 3.614v64.66c0 2.038 1.803 3.614 3.809 3.614h46.294l3.907 2.246 5.372 3.126c4.475 2.583 10.21 1.056 12.79-3.418l26.57-46.1c2.583-4.475 1.056-10.21-3.418-12.79l-5.372-3.126-18.95-10.94-5.274-2.93-10.45-6.055c-0.4463-0.2598-0.9183-0.4167-1.367-0.4902-0.2551-0.06376-0.5265-0.06376-0.7815 0zm0.2929 3.028 0.2929 0.09812 10.45 6.055 5.274 3.028 4.981 2.93c0.1206 0.08338 0.2517 0.147 0.3907 0.196l13.58 7.814 0.1954 0.09812c2.879 1.787 3.761 5.438 2.051 8.4l-26.57 46.1c-1.745 3.023-5.475 3.991-8.497 2.247l-1.074-0.5863c1.913-1.046 3.387-2.742 4.2-4.786 0.2672-0.6726 0.4809-1.411 0.586-2.149 0.07408-0.4314 0.09675-0.9015 0.09675-1.367v-13.284c7.285 0.2794 14.47-3.32 18.36-10.06 5.6-9.7 2.276-22.24-7.423-27.84-3.465-2-7.301-2.803-11.04-2.637-0.3644-4.837-4.35-8.693-9.279-8.693h-0.09676l3.028-5.274c0.09449-0.1667 0.4882-0.2941 0.4882-0.2941zm-49.62 8.693h39.946c3.49 0 6.251 2.761 6.251 6.251v53.13c0 3.49-2.761 6.251-6.251 6.251h-39.946c-0.4332 0-0.6836-0.2353-0.6836-0.4902v-64.66c0-0.25 0.251-0.4902 0.6836-0.4902zm46.98 0.09812c0.5838 0.07355 1.14 0.1716 1.66 0.3922 0.3753 0.1569 0.7423 0.3628 1.075 0.5858 1.329 0.8927 2.308 2.269 2.637 3.907 0.08277 0.4118 0.09827 0.8333 0.09827 1.27v53.13c0 0.4363-0.0189 0.8603-0.09827 1.27-0.07635 0.3922-0.2449 0.7147-0.3907 1.074-0.01512 0.04906 0.01512 0.06867 0 0.09812-0.1387 0.3284-0.2967 0.6814-0.4883 0.977-0.02267 0.04906-0.07408 0.06376-0.09675 0.09812-0.1882 0.2745-0.3553 0.5412-0.586 0.7814-0.05896 0.06376-0.1334 0.1324-0.195 0.1961-0.4852 0.4608-1.038 0.8863-1.66 1.172-0.09449 0.04906-0.1958 0.05888-0.2929 0.09812-0.513 0.2059-1.085 0.3187-1.66 0.3922 1.446-1.65 2.344-3.794 2.344-6.153v-53.13c0-2.386-0.869-4.496-2.344-6.153zm-24.22 6.153c-11.2 0-20.32 9.115-20.32 20.32 0 11.2 9.116 20.32 20.32 20.32 11.2 0 20.32-9.115 20.32-20.32 0-11.2-9.116-20.32-20.32-20.32zm37.11 2.93c1.231 0.2843 2.432 0.6289 3.614 1.172l-3.028 5.177-4.688-2.735c1.272-1.238 2.643-2.44 4.102-3.614zm-38.68 0.4902v5.958h-5.469c0.4829-1.667 1.093-3.375 1.758-5.078 1.192-0.3873 2.41-0.7574 3.711-0.8794zm3.125 0c1.257 0.1176 2.469 0.4118 3.614 0.7814 0.6795 1.733 1.267 3.481 1.758 5.177h-5.372zm41.8 2.344c1.046 0.7422 1.908 1.635 2.735 2.54-0.2759 1.811-0.559 3.59-0.9768 5.274l-4.688-2.735zm-34.28 0.2941c1.417 0.9196 2.703 2.014 3.809 3.321h-2.832c-0.2956-1.099-0.6064-2.218-0.9766-3.321zm-18.46 0.09812c-0.3545 1.064-0.594 2.163-0.8789 3.223h-2.735c1.058-1.251 2.255-2.326 3.614-3.223zm77.26 2.637c2.48 1.881 3.17 5.226 1.563 8.009l-26.57 46.1c-1.599 2.77-4.855 3.826-7.716 2.637 2.072-0.7039 3.901-2.159 5.079-4.2l26.57-46.1c1.184-2.051 1.505-4.29 1.074-6.446zm-35.06 1.27 3.321 1.953-3.125 5.47-0.195-0.09812zm15.82 1.758c0.7855 1.506 1.359 3.094 1.66 4.786l-2.442-1.465c0.291-1.086 0.5518-2.196 0.7814-3.321zm-63.78 0.6838h4.102c-0.4192 2.077-0.66 4.171-0.7814 6.251h-5.079c0.2094-2.24 0.7756-4.346 1.758-6.251zm7.325 0h6.251v6.251h-7.13c0.1296-2.095 0.4164-4.142 0.879-6.251zm9.376 0h6.153c0.4621 2.109 0.7491 4.156 0.8789 6.251h-7.032zm9.279 0h4.2c0.9942 1.915 1.645 3.996 1.856 6.251h-5.274c-0.1206-2.08-0.3621-4.174-0.7815-6.251zm28.03 1.075 5.372 3.126c-0.6559 2.043-1.506 3.997-2.442 5.86l-6.056-3.516zm8.009 4.59 3.711 2.149c-0.09335 2.183-0.599 4.362-1.563 6.446l-4.59-2.637c0.9566-1.895 1.754-3.912 2.442-5.958zm-12.7 3.614 6.153 3.516c-1.071 1.753-2.317 3.376-3.711 4.981l-3.809-2.149v-4.004zm-51.08 0.09812h4.981c0.03779 2.089 0.3152 4.135 0.6836 6.251h-3.907c-0.978-1.901-1.549-4.017-1.758-6.251zm8.107 0h7.228v6.251h-6.642c-0.3947-2.082-0.5435-4.202-0.586-6.251zm10.35 0h7.13c-0.04535 2.049-0.1916 4.169-0.586 6.251h-6.544zm10.16 0h5.176c-0.209 2.23-0.7828 4.352-1.758 6.251h-4.102c0.3689-2.116 0.6474-4.162 0.6839-6.251zm31.25 4.883 4.395 2.539c-1.325 1.857-2.946 3.334-4.786 4.493l-3.223-1.855c1.373-1.649 2.54-3.386 3.614-5.177zm-56.06 4.493h2.539c0.268 1.063 0.5212 2.149 0.8789 3.223-1.298-0.8716-2.407-2.01-3.418-3.223zm5.763 0h5.762v5.958c-1.408-0.1324-2.724-0.4461-4.005-0.8789-0.7127-1.741-1.293-3.387-1.758-5.079zm8.888 0h5.665c-0.473 1.721-1.029 3.405-1.758 5.177-1.244 0.4167-2.531 0.6525-3.907 0.7814zm8.791 0h2.637c-1.042 1.247-2.188 2.434-3.516 3.321 0.3696-1.103 0.6036-2.229 0.8791-3.321zm22.46 0.4902 1.563 0.8789c-0.5228 0.5123-0.9994 1.065-1.563 1.563zm4.395 2.539 1.856 1.075c-1.373 0.4657-2.773 0.9304-4.2 1.172 0.8245-0.7368 1.598-1.476 2.344-2.247z" overflow="visible" fill="url(#i1a-linearGradient35861)"/></svg><svg xmlns:rdf="http://www.w3.org/1999/02/22-rdf-syntax-ns#" xmlns:cc="http://creativecommons.org/ns#" xmlns:xlink="http://www.w3.org/1999/xlink" xmlns:dc="http://purl.org/dc/elements/1.1/" id="i23a" style="enable-background:new" height="77" width="100" version="1.1" viewBox="0 0 100 77.00814" y="100"><defs id="i23a-defs7"><linearGradient id="i23a-linearGradient30235" y2="81.054" gradientUnits="userSpaceOnUse" x2="45.703" gradientTransform="matrix(.96951 0 0 .96951 1.5243 .96951)" y1="-2.6965" x1="45.703"><stop id="i23a-reslogo-stop4422" stop-color="#696969" offset="0"/><stop id="i23a-reslogo-stop4424" stop-color="#c7c7c9" offset="0.144"/><stop id="i23a-reslogo-stop4426" stop-color="#f9f9ff" offset=".36"/><stop id="i23a-reslogo-stop4428" stop-color="#ccccce" offset="0.808"/><stop id="i23a-reslogo-stop4430" stop-color="#696969" offset="1"/></linearGradient></defs><path id="i23a-path29641" style="color-rendering:auto;color:#000000;isolation:auto;mix-blend-mode:normal;shape-rendering:auto;solid-color:#000000" d="m36.033 0-36.033 77.008h100l-36.023-77.008h-0.618zm1.233 1.939h11.051l-0.05 0.7234-0.532 7.5236-0.007 0.096-0.057 0.805-0.631 8.921h-0.002l-0.062 0.899-0.918 12.945h7.888l-0.973-13.748-0.008-0.096-0.687-9.726-0.008-0.096-0.583-8.247h11.057l34.207 73.13h-93.902zm12.736 3.666 0.193 2.7381h-0.386zm-0.462 6.52h0.924l0.428 6.04h-1.778zm-0.695 9.822h2.314l0.706 9.966h-3.724zm-2.772 13.281-0.07 0.894-1.066 13.446h10.132l-1.136-14.34zm1.793 1.939h4.276l0.827 10.462h-5.934zm-2.907 14.514-1.812 23.17h13.712l-1.813-23.17zm1.794 1.94h6.5l1.509 19.291h-9.519zm-2.557 20.262 1.661-21.233h8.293l1.661 21.233zm1.79-25.285 0.983-12.4h6.068l0.982 12.4zm1.113-15.716 0.843-11.906h4.121l0.843 11.906zm0.974-13.748 0.565-7.979h2.729l0.565 7.979zm0.695-9.8209 0.466-6.583h1.537l0.466 6.583z" fill="url(#i23a-linearGradient30235)"/><path id="i23a-b_w_road" d="m63.36 0.96951h-26.71l-35.126 75.069h96.952zm-14.126 1.7606h1.537l0.466 6.583h-2.469zm-0.596 8.4249h2.729l0.565 7.979h-3.859zm-0.696 9.821h4.121l0.843 11.906h-5.807zm-0.973 15.222h6.068l0.982 12.4h-8.033zm3.034 37.685h-5.807l1.661-21.233h8.293l1.661 21.233z" stroke-width=".96951" fill="#290a42"/></svg><svg xmlns:rdf="http://www.w3.org/1999/02/22-rdf-syntax-ns#" xmlns:cc="http://creativecommons.org/ns#" xmlns:xlink="http://www.w3.org/1999/xlink" xmlns:dc="http://purl.org/dc/elements/1.1/" id="i23b" style="enable-background:new" height="77" width="100" version="1.1" viewBox="0 0 100 77.00814" y="177"><defs id="i23b-defs7"><linearGradient id="i23b-linearGradient30235" y2="81.054" gradientUnits="userSpaceOnUse" x2="45.703" gradientTransform="matrix(.96951 0 0 .96951 1.5243 .96951)" y1="-2.6965" x1="45.703"><stop id="i23b-reslogo-stop4422" stop-color="#696969" offset="0"/><stop id="i23b-reslogo-stop4424" stop-color="#c7c7c9" offset="0.144"/><stop id="i23b-reslogo-stop4426" stop-color="#f9f9ff" offset=".36"/><stop id="i23b-reslogo-stop4428" stop-color="#ccccce" offset="0.808"/><stop id="i23b-reslogo-stop4430" stop-color="#696969" offset="1"/></linearGradient></defs><path id="i23b-path29641" style="color-rendering:auto;color:#000000;isolation:auto;mix-blend-mode:normal;shape-rendering:auto;solid-color:#000000" d="m36.033 0-36.033 77.008h100l-36.023-77.008h-0.618zm1.233 1.939h11.051l-0.05 0.7234-0.532 7.5236-0.007 0.096-0.057 0.805-0.631 8.921h-0.002l-0.062 0.899-0.918 12.945h7.888l-0.973-13.748-0.008-0.096-0.687-9.726-0.008-0.096-0.583-8.247h11.057l34.207 73.13h-93.902zm12.736 3.666 0.193 2.7381h-0.386zm-0.462 6.52h0.924l0.428 6.04h-1.778zm-0.695 9.822h2.314l0.706 9.966h-3.724zm-2.772 13.281-0.07 0.894-1.066 13.446h10.132l-1.136-14.34zm1.793 1.939h4.276l0.827 10.462h-5.934zm-2.907 14.514-1.812 23.17h13.712l-1.813-23.17zm1.794 1.94h6.5l1.509 19.291h-9.519zm-2.557 20.262 1.661-21.233h8.293l1.661 21.233zm1.79-25.285 0.983-12.4h6.068l0.982 12.4zm1.113-15.716 0.843-11.906h4.121l0.843 11.906zm0.974-13.748 0.565-7.979h2.729l0.565 7.979zm0.695-9.8209 0.466-6.583h1.537l0.466 6.583z" fill="url(#i23b-linearGradient30235)"/><path id="i23b-b_w_road" d="m63.36 0.96951h-26.71l-35.126 75.069h96.952zm-14.126 1.7606h1.537l0.466 6.583h-2.469zm-0.596 8.4249h2.729l0.565 7.979h-3.859zm-0.696 9.821h4.121l0.843 11.906h-5.807zm-0.973 15.222h6.068l0.982 12.4h-8.033zm3.034 37.685h-5.807l1.661-21.233h8.293l1.661 21.233z" stroke-width=".96951"/></svg><svg xmlns:rdf="http://www.w3.org/1999/02/22-rdf-syntax-ns#" xmlns:cc="http://creativecommons.org/ns#" xmlns:xlink="http://www.w3.org/1999/xlink" xmlns:dc="http://purl.org/dc/elements/1.1/" id="i24a" height="101" width="101" version="1.1" viewBox="0 0 100.61255 100.77" y="254"><defs id="i24a-defs9082"><linearGradient id="i24a-linearGradient19435-5-8" y2=".42195" gradientUnits="userSpaceOnUse" y1="-.41901" gradientTransform="matrix(30.74,-19.96,19.96,30.74,326.8,90.8)" x2=".22703" x1=".77308"><stop id="i24a-stop9053" stop-color="#696969" offset="0"/><stop id="i24a-stop9055" stop-color="#c7c7c9" offset=".17"/><stop id="i24a-stop9057" stop-color="#f9f9ff" offset=".36"/><stop id="i24a-stop9059" stop-color="#ccccce" offset=".73"/><stop id="i24a-stop9061" stop-color="#696969" offset="1"/></linearGradient><radialGradient id="i24a-radialGradient7443-9" gradientUnits="userSpaceOnUse" cy="79.31" cx="344.3" gradientTransform="matrix(2.625 0 0 2.6801 -848.02 -166.19)" r="12.73"><stop id="i24a-stop9073" stop-color="#fbfbfb" offset="0"/><stop id="i24a-stop9075" stop-color="#f9f9ff" offset=".2717"/><stop id="i24a-stop9077" stop-color="#ccccce" offset=".5976"/><stop id="i24a-stop9079" stop-color="#696969" offset="1"/></radialGradient><radialGradient id="i24a-radialGradient9643" gradientUnits="userSpaceOnUse" cy="78.356" cx="344.07" gradientTransform="matrix(2.5079 0 0 2.5385 -807.14 -154.88)" r="14.6"><stop id="i24a-stop9064" stop-color="#1c072d" offset="0"/><stop id="i24a-stop9066" stop-color="#5700aa" offset=".40802"/><stop id="i24a-stop9068" stop-color="#290a43" offset=".67231"/><stop id="i24a-stop9070" stop-color="#140521" offset="1"/></radialGradient><linearGradient id="i24a-linearGradient9651" y2="80.82" xlink:href="#i24a-linearGradient19435-5-8" gradientUnits="userSpaceOnUse" x2="362.73" gradientTransform="matrix(2.625 0 0 2.625 -848.02 -161.77)" y1="80.82" x1="320.42"/><linearGradient id="i24a-linearGradient35962" y2=".45153" xlink:href="#i24a-linearGradient19435-5-8" gradientUnits="userSpaceOnUse" x2=".20782" gradientTransform="matrix(80.692 -52.395 52.395 80.692 9.8262 76.582)" y1="-.44859" x1=".79229"/></defs><g stroke-width="1.3508"><path id="i24a-path9084" d="m15.601 15.63c-9.6283 9.689-15.319 21.932-15.301 34.755 0.21057 26.111 23.89 49.905 50.006 50.085 26.116-0.17 49.794-23.972 50.004-50.085-0.21-26.111-23.89-49.901-50.004-50.085h-0.061c-12.807 0-25.003 5.6805-34.65 15.322m-5.126 34.755c0-10.379 4.381-20.223 11.998-27.877 7.629-7.634 17.462-12.028 27.825-12.02 21.229 0.095 39.717 18.658 39.822 39.9-0.107 21.233-18.604 39.795-39.822 39.9-21.225-0.096-39.716-18.656-39.821-39.9" fill="url(#i24a-linearGradient9651)"/><path id="i24a-path9086" d="m50.251 2.2688c-12.852 0-24.935 5.0058-34.02 14.093-9.0876 9.088-14.094 21.171-14.094 34.02 0.0005 26.539 21.586 48.117 48.117 48.117 26.539 0 48.116-21.586 48.116-48.117 0-26.538-21.585-48.116-48.116-48.116zm-38.325 48.116c0-10.235 3.985-19.855 11.222-27.09 7.237-7.237 16.858-11.222 27.09-11.222 21.129 0 38.325 17.189 38.325 38.325 0 21.126-17.188 38.325-38.325 38.325-21.126 0-38.325-17.188-38.325-38.325" fill="url(#i24a-linearGradient35962)"/><path id="i24a-path9088" d="m11.926 50.385c0 21.163 17.155 38.325 38.325 38.325 21.163 0 38.325-17.157 38.325-38.325 0-21.165-17.157-38.325-38.325-38.325-21.163 0-38.325 17.154-38.325 38.325" fill="url(#i24a-radialGradient9643)"/></g><path id="i24a-path9090" d="m31.614 22.429c0.172-0.039 0.36 0 0.669 0.057 0.836 0.192 1.535 0.253 2.089 0.445 0.557 0.187 0.279 0.503 1.459 0.566 1.181 0.065 1.535 0.187 1.879 0 0.345-0.188 1.251-0.249 0.211-0.379-1.043-0.127-1.184 0.065-1.463-0.249-0.28-0.314-0.485-0.065-0.345-0.507 0.138-0.441 0.276-0.318 0.138-0.632s0.696-0.375-0.138-0.314c-0.836 0.061-0.699 0.123-1.116 0.188s-1.178 0.564-0.83 0.065c0.344-0.507 0.069-0.507 0.763-0.761 0.693-0.249 0.767-0.249 1.46-0.314 0.696-0.065 1.667-0.065 1.041 0.253s-1.113 0.506-0.694 0.57c0.416 0.061-0.558 0.187 0.763 0.061 1.32-0.126 1.392-0.126 1.947-0.126 0.558 0 0.207 0 0.766-0.065 0.557-0.062 1.389-0.379 0.971-0.062-0.414 0.314-1.04 0.062-0.971 0.504 0.069 0.44-0.28 0.506 0.345 0.632s0.764 0.379 0.275 0.379c-0.485 0-0.275-0.123-0.902 0-0.241 0.05-0.438 0.038-0.596-0.002-0.253-0.038-0.402-0.08-0.446 0.196-0.072 0.437-0.414 0.566 0.349 0.632 0.766 0.057 0.552 0.122 1.249-0.065 0.276-0.073 0.368-0.039 0.406 0 0.057 0.069-0.002 0.138 0.291-0.203 0.486-0.572 0.837-0.949 0.766-0.634-0.069 0.314-0.138 0.379-0.28 0.57-0.138 0.188-0.207 0.566 0.211 0.318 0.412-0.253 0.902-0.065 0.902-0.632 0-0.569-0.28-0.634 0.069-0.761 0.348-0.126 0.631-0.375 0.279-0.375-0.348 0-0.625 0.126-0.972 0.061-0.345-0.061-0.624-0.061-0.415-0.314 0.207-0.253 0.207-0.379 0.828-0.439 0.63-0.065 0.211 0 0.63-0.065 0.417-0.061 0.279-0.445 0.417-0.061 0.138 0.379-0.279 0.379 0.138 0.379 0.419 0 0.554 0 0.904-0.192 0.352-0.187 0.417-0.187 0.693-0.318 0.141-0.065 0.229 0.066 0.333 0.188 0.103 0.13 0.226 0.253 0.435 0.192 0.415-0.127 1.318-0.253 1.876-0.253 0.554 0 0.28 0 1.116 0.253 0.83 0.252 1.387 0.191 1.733 0.567 0.349 0.375 0.763 0.375 0.763 0.76 0 0.379-0.556 0.565 0.073 0.693 0.233 0.046 0.406 0.038 0.546 0.038 0.233 0 0.363-0.038 0.493 0.215 0.207 0.383 0.559 0.567 0.207 0.697-0.345 0.122-0.415 0.122-0.765 0.122-0.344 0-1.247-0.565-0.97-0.122 0.284 0.441 0.834 0.441 0.766 0.693-0.065 0.256 0 0.505-0.419 0.505-0.422 0-0.624-0.065-0.835-0.127-0.207-0.061-0.069-0.565-0.207-0.061s0.552 0.375-0.138 0.504c-0.699 0.126-0.699 0.188-0.977-0.065-0.272-0.253-0.272-0.318-0.556-0.44-0.28-0.131 0.072-0.192-0.623-0.192-0.7 0-0.974 0.314-1.048 0-0.066-0.314 0.072-0.501 0.627-0.565 0.196-0.038 0.299 0.003 0.376 0.038 0.138 0.046 0.195 0.092 0.597-0.16 0.628-0.376 1.255-0.188 0.975-0.693-0.275-0.504-0.416-0.692-0.904-0.819-0.486-0.126-0.622-0.126-1.18-0.126-0.555 0-0.835-0.123-0.835 0.191s0.072 0.566-0.138 0.695c-0.207 0.122-0.142 0.314-0.489 0.375-0.345 0.065-0.272 0.065-0.695 0.065-0.414 0-0.902 0.444-0.694 0 0.214-0.44 0-0.383 0.422-0.635 0.415-0.249 0.622-0.057 0.694-0.5 0.038-0.207 0.038-0.207 0-0.207s-0.077 0.002-0.153-0.302c-0.138-0.569 0-0.127-0.138-0.569-0.142-0.44 0.551-0.691-0.142-0.44-0.694 0.252-0.694 0.126-1.039 0.375-0.349 0.253-0.489 0.192-0.349 0.632 0.134 0.442 0.069 0.507 0.414 0.507 0.348 0 0.833 0.061 0.419 0.379-0.419 0.318-0.556 0.318-0.486 0.631 0.066 0.314 0.486 0.314-0.141 0.57-0.623 0.253-0.903 0.626-1.806 0.944-0.904 0.318-1.182 0.188-1.876 0.63-0.697 0.444-0.839 0.256-1.044 0.757-0.21 0.51-0.416 0.443-0.138 0.821 0.28 0.383 0.487 0.506 0.904 0.632 0.419 0.13 0.696 0.506 1.32 0.571 0.191 0.039 0.375 0 0.536 0 0.356 0 0.581-0.038 0.439 0.241-0.207 0.376-0.696 1.069-0.416 1.388 0.275 0.314 0.836 0.69 1.179 0 0.349-0.699 0.138-1.012 0.626-1.327 0.18-0.114 0.348-0.111 0.508-0.107 0.275 0 0.524 0 0.744-0.59 0.349-0.944-0.138-0.82 0.349-1.324 0.485-0.506 0.551-0.755 0.832-1.133 0.279-0.383 0.489-0.253 1.318-0.127 0.839 0.127 1.464 0.693 1.254 1.138-0.21 0.441-0.625 0.564-0.21 0.627 0.42 0.065 0.556 0.13 1.042-0.311 0.491-0.446 0.696-0.76 0.907-0.446 0.203 0.321 0.417 0.379 0.341 0.888-0.069 0.502-0.414 0.376-0.138 0.819 0.283 0.439 1.117 0.439 1.327 0.82 0.207 0.375 0.693 0.698 0.207 0.885-0.487 0.191-0.349 0.817-0.349 1.073 0 0.253 0.28 0.253 0.557 0.568 0.279 0.318 0.486 0.755 0.141 0.819-0.348 0.065-0.141-0.127-0.834-0.127-0.697 0-1.53 0.127-1.462-0.13 0.069-0.249 0.138-0.314 0.552-0.631 0.423-0.317 0.702-0.379 0.702-0.759 0-0.371 0-0.627-0.417-0.371-0.422 0.245-0.283 0.498-0.837 0.498-0.555 0-0.625-0.065-1.251-0.065-0.621 0-0.83-0.253-1.32 0s-1.11 0.508-1.183 0.696c-0.065 0.191 0.344 0.191 0.693 0.065 0.352-0.126 1.395-0.126 1.044 0.126-0.345 0.253-0.692 0.314-0.554 0.63 0.142 0.318 0.971 0.57 1.252 0.318 0.276-0.253 1.181-0.127 0.835 0.126-0.352 0.253-0.558 0.57-1.116 0.758-0.295 0.103-0.492 0.057-0.684 0-0.172-0.038-0.34-0.077-0.566 0-0.486 0.126-0.905 0.126-1.183 0.065-0.279-0.065-0.207-0.192-0.621-0.126-0.422 0.061-0.561 0.44-1.181 0.819-0.627 0.379-0.769 0.443-1.253 0.819-0.493 0.379-0.561 0.635-0.976 0.948-0.42 0.318-0.065 0.383-0.42 0.318-0.341-0.065-0.484-0.379-0.552-0.065-0.069 0.318-0.069 0.379 0 0.628 0.069 0.257 0.211 0.38 0.069 0.697-0.138 0.314-0.417 0.383-0.902 0.634-0.487 0.249-0.487 0.314-1.114 0.692-0.624 0.383-0.833 0.318-0.971 0.882-0.138 0.57-0.069 0.83-0.069 1.457 0 0.63 0.349 1.069-0.069 1.261-0.42 0.188-0.905-0.13-0.905-0.885 0-0.754-0.073-1.134-0.073-1.134s-0.487-0.131-0.902-0.192c-0.419-0.061-0.699-0.122-1.185-0.122-0.484 0-0.694-0.066-0.694 0.122v0.511s0 0.249-0.345 0.183c-0.349-0.057-0.484-0.122-0.837-0.252-0.345-0.119 0.283-0.503-0.831-0.119-1.112 0.371-1.462 0.371-1.667 1.004-0.211 0.632-0.073 0.756-0.349 1.197-0.28 0.446-0.628 0.762-0.489 1.453 0.142 0.699 0.283 1.517 0.696 1.642 0.417 0.13 0.832 0.13 1.464 0.061 0.622-0.061 0.76-0.314 1.043-0.689 0.275-0.383 0.621-0.635 1.177-0.635 0.56 0 0.697 0.065 0.283 0.635-0.417 0.563-1.117 1.073-0.907 1.574 0.21 0.507 0.418 0.318 1.042 0.257 0.626-0.069 1.116 0.061 1.182 0.314 0.073 0.249 0.349 0.628 0.138 0.878-0.207 0.252 0.073 1.14 0.073 1.14s0 0.13 0.207 0.567c0.206 0.441 0.279 0.566 0.555 0.503 0.279-0.062 0.418-0.626 0.767-0.626 0.348 0 0.207 0 0.557 0.245 0.344 0.253 0.624 0.253 0.624 0.253s0 0.039-0.038 0.058c0.436-0.793 1.458-0.923 1.458-0.923s0.357-0.321 0.849-0.575c0.5-0.257 0 0.122 0.215 0.511 0.214 0.387 0 0 0.638-0.256 0.639-0.253 0 0 0.704 0.069 0.711 0.061 0 0 0.428 0.447 0.284 0.299 0.284 0.257 0.5 0.215 0.111-0.039 0.276-0.043 0.561-0.039 0.851 0.062 1.063 0.134 2.058 0.518 0.99 0.383 0.353 0.126 1.27 1.024 0.72 0.709 0.661 0.703 0.906 0.701 0.069-0.001 0.16-0.003 0.302 0 0.638 0.065 1.628 0.448 2.053 0.904 0.427 0.443 0.284 0.574 0.427 1.021 0.138 0.452 0.496 0.452 1.062 0.97 0.566 0.516 0.708 0.184 1.42 0.58 0.705 0.383 0.492 0.191 1.485 0.448s0.567 0.192 1.418 0.643c0.849 0.453 0.637 0.383 1.555 0.705 0.924 0.322 0.211 0.58 0.142 1.29-0.073 0.707-1.345 1.8-1.699 2.509-0.352 0.707-0.072 1.025-0.072 1.608 0 0.581 0 0.644-0.284 1.286-0.287 0.647-0.356 0.647-0.567 0.967-0.214 0.322-0.638 0.835-1.064 0.835-0.424 0-0.57 0-1.347 0.583-0.777 0.576-0.707 0.829-0.639 1.408 0.073 0.578 0 0.261-0.069 0.519-0.069 0.253 0 0-0.356 0.322-0.357 0.318 0 0.256-0.069 0.509-0.069 0.26-0.211 0.385-0.288 0.58-0.069 0.195-0.348 0.448-0.493 0.647-0.137 0.187-0.497 0.771-1.06 0.895-0.565 0.134-0.993-0.061-1.136 0.265-0.138 0.321 0 0 0.214 0.321 0.215 0.326 0.069 0.192 0.142 0.706 0.073 0.516 0 0.257-0.567 0.773-0.564 0.515-0.564 0-0.993 0-0.426 0-0.349 0.257-0.349 0.451 0 0.192 0 0.261-0.214 0.322-0.211 0.065-0.284 0.065-0.493 0.388-0.115 0.168-0.108 0.161-0.046 0.149 0.053 0 0.157 0 0.256 0.107 0.211 0.261 0.211 0.123 0.211 0.516 0 0.384-0.069 0.261-0.142 0.642-0.073 0.389 0 0-0.427 0.455-0.237 0.253-0.207 0.219-0.138 0.192 0.058-0.038 0.138-0.046 0.138 0.061 0 0.257 0.073 0.195 0.287 0.512 0.211 0.322 0.352 0.26 0.423 0.516 0.069 0.256 0 0-0.073 0.644-0.042 0.379-0.038 0.314-0.05 0.245 0-0.046-0.038-0.092-0.091 0-0.142 0.257-0.211 0.192-0.211 0.452 0 0.256 0 0 0.142 0.448 0.08 0.265 0.069 0.218-0.039 0.176-0.069-0.038-0.18-0.061-0.325 0-0.349 0.196 0 0.261 0 0.261l0.283 0.126c0.284 0.13 0 0 0.284-0.126 0.287-0.13 0.214 0.256 0.497 0.384 0.28 0.13 0.211 0.191 0.426 0.321 0.21 0.13 0.21 0.13 0.425 0.257 0.211 0.126 0.138 0.191-0.069 0.256-0.214 0.061-0.214 0-0.92 0h-0.498c-0.498 0-0.142-0.065-0.142-0.065s-0.283-0.126-0.847-0.383c-0.256-0.119-0.28-0.13-0.272-0.126-0.038 0-0.069-0.039-0.153-0.073-0.427-0.191-0.215-0.126-0.36-0.451-0.073-0.168-0.073-0.161-0.058-0.149 0 0 0.039 0 0-0.104-0.072-0.256-0.145-0.195-0.145-0.195l-0.424-0.249s-0.142-0.069-0.498-0.455c-0.184-0.203-0.177-0.192-0.146-0.184 0.038 0 0.073 0 0-0.138-0.142-0.322-0.069-0.195-0.352-0.772-0.169-0.349-0.134-0.28-0.096-0.207 0.038 0.046 0.05 0.092 0.038 0-0.069-0.192 0.215-0.257 0.215-0.516 0-0.146 0-0.123-0.065-0.104-0.05 0-0.134 0.039-0.284-0.038-0.352-0.13 0 0-0.069-0.199-0.076-0.188-0.283-0.957-0.283-0.957s-0.073-0.199-0.219-0.645c-0.141-0.454 0 0 0.219 0 0.21 0 0.283 0.575 0.352 0.252 0.065-0.317-0.069-0.317-0.287-0.706-0.211-0.383-0.211-0.188-0.284-0.706-0.069-0.512-0.141-0.512-0.279-1.348-0.138-0.839 0.138-1.035 0.21-1.739 0.069-0.71-0.348-1.029-0.348-1.991 0-0.966 0-1.159 0.065-1.997 0.072-0.837-0.142-2.248-0.211-2.895-0.073-0.642-0.565-0.772-1.628-1.35-1.061-0.581-1.136-0.643-1.487-1.094-0.36-0.45-1.278-2.442-1.774-3.281-0.498-0.838-1.06-1.292-0.847-1.801 0.211-0.515 0.28-0.773 0.211-1.223-0.069-0.452-0.069-0.513 0.495-0.775 0.565-0.26 0.495-0.446 0.916-1.348 0.432-0.897 0.077-1.028 0.272-2.3-0.138 0.442-0.207 0.633-0.207 0.633s-0.206-0.318-0.487-0.567c-0.276-0.253-0.558-0.571-0.697-0.253-0.134 0.314 0.072 0.629-0.207 0.502-0.284-0.122-0.069-0.122-0.491-0.375-0.414-0.253-0.275-0.192-0.553-0.508-0.28-0.318 0.486-0.318-0.28-0.318-0.768 0-0.832 0.192-0.904-0.249s0.134-0.76-0.207-0.882c-0.145-0.053-0.229-0.038-0.31 0-0.111 0.038-0.21 0.061-0.455-0.122-0.417-0.318-0.142-0.188-0.833-0.507-0.697-0.314-0.767-0.188-1.463-0.757-0.695-0.565-1.046-0.694-1.251-0.565-0.207 0.131-1.459 0.444-2.571-0.444-1.111-0.886-1.323-0.696-1.323-1.202 0-0.5 0.624-0.249 0.138-1.072-0.486-0.821-1.043-1.577-1.46-2.273-0.419-0.693-0.767-0.753-0.767-1.326 0-0.567 0.141-0.753-0.207-0.884-0.349-0.127-0.625-0.63-0.696-0.127-0.065 0.508-0.142 0.631 0.069 1.009 0.207 0.383 0.207 0.573 0.415 0.949 0.21 0.375 0.072 0.505 0.279 0.821 0.207 0.318 0.625 0.564 0.484 0.951-0.138 0.375-0.207 0.314-0.416 0.057-0.207-0.252-0.349-0.187-0.485-0.502-0.142-0.314 0.279 0 0.138-0.314-0.138-0.318 0.141-0.253-0.276-0.506-0.176-0.107-0.241-0.076-0.272-0.046-0.042 0.042-0.038 0.084-0.142-0.207-0.21-0.506 0.069-0.252 0.069-0.629 0-0.379-0.137-0.314-0.344-0.628-0.211-0.322-0.073-0.512-0.142-1.082-0.069-0.563-0.069-0.504-0.551-1.005-0.488-0.507-0.696-1.201-0.561-3.158 0.142-1.958 1.183-2.462 1.532-2.843 0.345-0.376 0.557-0.757 0.145-1.135-0.421-0.383-0.703-0.383-0.632-0.634 0.069-0.252 0.696-0.252 0.904 0.065 0.211 0.314 0.142 0.823 0.488 0.823 0.348 0 0.694-0.314 0.348-0.635-0.348-0.314-0.764-0.371-0.905-0.881-0.046-0.176-0.103-0.291-0.149-0.39-4.232 5.686-6.741 12.734-6.741 20.365 0 18.844 15.277 34.125 34.125 34.125 13.159 0 24.567-7.45 30.266-18.357v-0.448c0-0.758-0.623-0.379-0.834-2.022-0.203-1.644 0.349-2.331 0.768-2.843 0.419-0.504-0.138-0.821-0.28-1.323-0.138-0.503-0.349-0.76-0.349-1.577 0-0.824-1.391-1.329-1.669-1.895-0.284-0.569-0.069-0.569 0.142-1.39 0.21-0.823 0.625-1.069 0-1.514-0.36-0.253-0.654-0.196-0.957-0.134-0.222 0.046-0.448 0.088-0.712 0-0.627-0.188-0.489-1.07-1.461-1.011-0.973 0.061-0.832 0.439-1.528 0.755-0.411 0.188-0.82 0.088-1.261 0-0.306-0.069-0.624-0.138-0.967-0.111-0.828 0.061-0.555 0.253-1.247 0.253-0.697 0-0.907-0.446-1.254-1.076-0.348-0.629-1.321-1.012-1.599-1.454-0.28-0.437-1.117-1.705-1.178-2.205-0.072-0.509 0.061-0.884 0.341-1.899 0.28-1.005-0.142-0.502-0.341-0.819-0.214-0.314 0.061-0.818 0.413-1.387 0.349-0.57 0.623-1.075 1.251-1.832 0.622-0.755 0.483-0.507 1.254-0.818 0.762-0.314 0.341-1.14 0.552-1.644 0.211-0.501 0.211-0.314 0.768-0.635 0.555-0.31 0.555-0.563 1.112-1.002 0.553-0.442 0.627 0 1.321 0.057 0.697 0.065 0.624-0.057 1.254-0.314 0.62-0.253 0.973-0.318 1.738-0.57 0.479-0.157 0.821-0.141 1.289-0.122 0.272 0 0.589 0.038 1.002 0 1.118-0.058 0.557 0.445 0.488 1.14-0.069 0.696-0.142 0.569 0.203 0.881 0.352 0.318 1.325 0.318 1.881 0.383 0.554 0.065 0.415 0.188 0.972 0.501 0.559 0.318 0.628 0.384 1.186 0.569 0.065 0.038 0.119 0.038 0.157 0.038-0.466-1.576-1.042-3.103-1.725-4.578 0 0.1 0.038 0.219 0.038 0.376 0 0.379-0.349 0.444-0.769 0.693-0.415 0.252-0.344 0-0.767-0.249-0.413-0.253 0.073-0.253 0.701-0.253 0.622 0 0.419-0.257 0.486-0.633 0.07-0.379-0.21-0.438-0.625-0.63-0.415-0.191-0.488-0.191-1.185-0.504-0.694-0.314-0.414-0.445-0.902-0.76-0.485-0.314-0.418-0.379-0.977-0.127-0.551 0.253-0.411 0.192-1.11 0.253-0.694 0.069-0.345 0-0.694 0.257-0.353 0.256-0.211 0.314-0.488 0.693-0.28 0.383-0.42 0.191-0.9 0.635-0.49 0.438 0 0-0.076 0.692-0.065 0.697-0.203 0.253-0.902 0.697-0.429 0.276-0.567 0.23-0.69 0.192-0.077-0.038-0.149-0.054-0.279-0.004-0.349 0.123-0.421 0.257-0.836 0.069-0.418-0.195-0.279-0.253-0.559-0.322-0.272-0.057-0.486-0.249-0.626-0.693-0.137-0.441 0.073-0.441 0.28-0.944 0.21-0.505-0.069-0.505-0.069-0.82 0-0.317 0.142-0.447 0.345-0.447 0.21 0 0.971 0.069 1.389 0.069h1.045s0.42-0.191 0.42-0.654c0-0.462 0.233-0.673-0.234-0.925-0.465-0.253-0.465-0.165-0.743-0.379-0.275-0.211-0.463-0.337-0.046-0.503 0.419-0.168 0.649-0.13 1.022-0.337 0.363-0.214 0.877-0.379 0.598-0.46-0.279-0.088-0.279-0.088-0.598-0.088-0.33 0-0.28 0-0.697 0.126-0.419 0.13-0.604 0.632-0.604 0.13 0-0.507-0.042-0.21 0.05-0.674 0.091-0.465-0.326-0.13 0.091-0.465 0.419-0.333 0.65-0.21 0.512-0.502-0.141-0.295 0.276 0-0.141-0.295-0.42-0.299-0.092-0.423-0.42-0.299-0.039 0-0.066 0.039-0.092 0.039 0-0.039-0.039-0.069-0.092-0.161-0.23-0.379-0.421-0.215-0.326-0.592 0.096-0.375-0.415-0.291 0.28-0.547 0.696-0.253 0.836-0.417 1.018-0.207 0.188 0.207 0.465 0.299 0.28 0.548-0.191 0.249-0.329 0.464-0.142 0.713 0.184 0.252 0.326 0.337 0.561 0.548 0.23 0.211-0.046 0.337 0.318 0.463 0.375 0.127 0.697 0.211 0.605 0.459-0.092 0.257-0.419 0.717-0.046 0.55 0.371-0.168 0.414-0.383 0.878-0.716 0.463-0.333 0.646-0.295 1.16-0.502 0.245-0.1 0.415-0.107 0.511-0.13-2.641-3.397-5.911-6.285-9.639-8.482-0.053 0.088-0.134 0.199-0.401 0.591-0.561 0.834-0.211 0.256-0.846 0.903-0.64 0.641-0.36 0.384-1.771 0.512-1.417 0.131-1.206 0.384-1.983 0.77-0.781 0.392-1.063 0.392-2.483 0.773-1.416 0.387-1.066 0.965-1.628 1.61-0.566 0.646-0.424 0.512-1.489 0.192-1.06-0.318-1.272-1.155-1.272-2.442 0-0.887 0.272-0.887 0.67-0.885 0.18 0 0.384 0 0.602-0.081 0.71-0.256-0.069-0.448-0.279-0.768-0.215-0.326-0.425-0.326-0.215-0.777 0.215-0.449 0-0.321-0.42-0.898-0.298-0.404-0.631-0.368-1.478-0.333-0.367 0-0.828 0.038-1.425 0-1.986-0.069-0.636-0.195-0.497-0.708 0.096-0.352 0.689-0.314 1.344-0.272 0.306 0 0.628 0.038 0.92 0 0.921-0.065 0.424-0.318-0.142-0.581-0.565-0.252-0.919 0-1.772 0.199-0.849 0.188-1.199 0.383-1.77 0.512-0.564 0.13-0.848 0.261-1.769 0.642-0.924 0.39-0.57 0.322-1.204 0.581-0.642 0.26-0.424 0.13-1.131 0.13-0.712 0-0.712-0.061-1.417-0.061-0.711 0-0.424-0.069-0.641-0.52-0.21-0.448 0.356 0 0.921 0.069 0.567 0.065 0.498-0.069 1.207-0.257 0.707-0.191 0.85-0.385 1.628-0.903 0.778-0.512-0.427-0.318-0.922-0.318-0.498 0-0.425 0.13-0.993 0.318-0.564 0.191-0.637 0.13-1.13-0.066-0.494-0.191 0.284-0.447 0.566-0.703 0.284-0.257 0.92 0 1.344 0.061 0 0 0.848-0.126 1.492-0.192 0.633-0.065 0.775-0.195 2.118-0.325 0.766-0.069 1.259-0.061 1.76-0.05h1.286c1.207-0.061 0.994 0 1.844 0.065 0.853 0.069 0.569 0.261-0.069 0.326s-0.356 0.191-0.069 0.385c0.28 0.195 0.778-0.196 1.273-0.196 0.494 0 0.709-0.126 1.914-0.447 0.256-0.069 0.515-0.123 0.772-0.161-3.09-0.921-6.363-1.421-9.752-1.421-7.219 0-13.913 2.246-19.422 6.071m9.702-2.244c0.356 0 0.709 0.069 0.636 0.453-0.069 0.387-0.849 0-1.276 0-0.424 0-0.635 0.191-1.202 0.321-0.569 0.131-0.855-0.13-0.989-0.447-0.145-0.325 1.201-0.325 1.201-0.325s0.356 0.134 0.85 0.134 0.427-0.134 0.779-0.134m2.901 4.698c0.352-0.26 0.426-0.513 0.923-0.321 0.498 0.195 1.206 0.711 0.848 0.773-0.349 0.065-0.211-0.062-0.636-0.131-0.426-0.061-0.494 0-0.781 0.131-0.279 0.13-0.279 0.195-0.493 0.195 0 0-0.21-0.387 0.138-0.646m26.775 5.938c-0.046-0.337 0.18-0.337 0.18-0.67 0-0.337-0.138-0.337-0.042-0.553 0.092-0.206-0.138-0.164 0.233-0.333 0.364-0.168 0.414-0.206 0.692-0.206 0.276 0 0.184 0.164 0.509 0.038 0.18-0.073 0.333 0 0.389 0.038-0.229 0.073-0.302 0.046-0.344 0.341-0.046 0.341 0.183 0.464-0.046 0.799-0.234 0.337-0.142 0.383-0.643 0.427-0.372 0.039-0.668 0.253-0.82 0.253-0.061 0-0.096-0.038-0.111-0.13m-34.624 13.742c0.142-0.253 0.92-0.383 0.92-0.383s0.64 0 1.139 0.13c0.491 0.126 0.491 0.253 0.99 0.576 0.497 0.321 0.563 0.13 0.922 0.26 0.349 0.123 0.349 0.318 0 0.445-0.36 0.13-0.36 0-0.922-0.192-0.569-0.191-0.569-0.388-0.919-0.575-0.36-0.196-0.643-0.326-1.49-0.134-0.337 0.076-0.53 0.111-0.631 0.111-0.157 0-0.096-0.085 0-0.245m4.749 1.741c0.142-0.454-0.356-0.26 0.142-0.454 0.494-0.187 1.057-0.383 1.484-0.187 0.424 0.187 1.347 0.321 0.782 0.577-0.571 0.26-0.918 0.13-1.275 0.26-0.352 0.13-0.426 0.195-1.065 0.195-0.637 0-0.847-0.13-0.706-0.325 0 0 0.199 0.157 0.379 0.157 0.107 0 0.207-0.054 0.256-0.219m2.764 0.322c-0.214-0.065-0.069-0.26-0.069-0.26s0.28-0.131 0.565-0.131c0.279 0 0.137 0.192 0 0.389-0.05 0.062-0.119 0.081-0.192 0.081-0.145 0-0.302-0.081-0.302-0.081m-5.032-0.13c-0.422-0.191 0.495-0.26 0.495-0.26 0.211 0.065 0.426 0.191 0.211 0.389-0.073 0.065-0.13 0.092-0.192 0.092-0.115 0-0.241-0.096-0.514-0.222m7.392 34.545c0.038 0 0 0 0 0" stroke-width="1.3508" fill="url(#i24a-radialGradient7443-9)"/></svg><svg xmlns:rdf="http://www.w3.org/1999/02/22-rdf-syntax-ns#" xmlns:cc="http://creativecommons.org/ns#" xmlns:xlink="http://www.w3.org/1999/xlink" xmlns:dc="http://purl.org/dc/elements/1.1/" id="i25a" height="100" width="47" version="1.1" viewBox="0 0 46.58321 100.0052" y="355"><defs id="i25a-defs11"><linearGradient id="i25a-reslogo-linearGradient5862" y2="1808.8" xlink:href="#i25a-reslogo-linearGradientSlvr" gradientUnits="userSpaceOnUse" y1="1781.8" gradientTransform="matrix(3.7829 0 0 3.817 5531.4 -6803.2)" x2="-1462.9" x1="-1462.9"/><linearGradient id="i25a-reslogo-linearGradientSlvr" x1="-1869" gradientUnits="userSpaceOnUse" y1="794.4" gradientTransform="matrix(1.301,0,0,1.301,1365,-35.3)" x2="-1869" y2="828"><stop id="i25a-reslogo-stop4422" stop-color="#696969" offset="0"/><stop id="i25a-reslogo-stop4424" stop-color="#c7c7c9" offset=".17"/><stop id="i25a-reslogo-stop4426" stop-color="#f9f9ff" offset=".36"/><stop id="i25a-reslogo-stop4428" stop-color="#ccccce" offset=".73"/><stop id="i25a-reslogo-stop4430" stop-color="#696969" offset="1"/></linearGradient><linearGradient id="i25a-linearGradient30935" y2="100.98" xlink:href="#i25a-reslogo-linearGradientSlvr" gradientUnits="userSpaceOnUse" x2="44.703" y1="-.76080" x1="44.703"/></defs><path id="i25a-path30365" d="m23.281 0c-10.641 2.9606e-16 -21.281 0.97541-22.377 2.9258-2.0352 3.5976 0.0003 12.504 0.0003 12.504l2.8145 14.804c1.0335 3.957 2.9376 5.308 8.0392 5.754 5.873 0.514 17.193 0.514 23.066 0 5.101-0.446 7.007-1.798 8.039-5.754l2.815-14.804s2.035-8.9081 0-12.504l-0.008-0.0002c-1.104-1.9504-11.747-2.9258-22.389-2.9258zm-8.91 7.7402c2.886 0 5.225 2.3368 5.225 5.2228 0 2.883-2.339 5.225-5.225 5.225-2.883 0-5.2226-2.34-5.2226-5.225 0-2.884 2.3376-5.2228 5.2226-5.2228zm-2.01 30.59s0.002 2.312 0.034 6.033c0.993 0.23 3.357 2.63 3.441 5.602 0.088 3.136-1.043 4.721-1.758 5.832-0.499 0.774-0.497 2.459 0.068 3.203 0.784 1.034 2.015 2.461 2.104 5.621 0.088 3.145-1.056 4.712-1.768 5.834-0.742 1.171-0.587 3.589 0.196 4.672 0.743 1.028 1.94 2.529 2.027 5.613 0.077 2.707 0.304 4.185-0.137 5.385-1.456 3.953 1.145 7.233 2.403 10.889 0.408 1.185 3.631 2.996 3.631 2.996s4.103-1.791 4.375-2.996c0.554-2.454 4.202-6.77 2.746-10.723-0.442-1.198-0.573-2.842-0.496-5.551 0.086-3.082 1.284-4.584 2.027-5.613 0.784-1.084 0.938-3.502 0.195-4.672-0.711-1.121-1.856-2.689-1.767-5.834 0.088-3.159 1.32-4.588 2.105-5.621 0.565-0.744 0.565-2.429 0.067-3.203-0.716-1.108-1.847-2.695-1.758-5.832 0.083-2.972 3.063-5.371 4.056-5.602 0.032-3.722 0.032-6.033 0.032-6.033h-8.166v44.877c0 1.102-1.228 1.996-2.745 1.996-1.516 0-2.746-0.894-2.746-1.996v-44.877h-8.166z" stroke="url(#i25a-linearGradient30935)" stroke-width="2" fill="url(#i25a-reslogo-linearGradient5862)"/><path id="i25a-path2" d="m23.281 0c-10.641 2.9606e-16 -21.281 0.97541-22.377 2.9258-2.0352 3.5976 0.0003 12.504 0.0003 12.504l2.8145 14.804c1.0335 3.957 2.9376 5.308 8.0392 5.754 5.873 0.514 17.193 0.514 23.066 0 5.101-0.446 7.007-1.798 8.039-5.754l2.815-14.804s2.035-8.9081 0-12.504l-0.008-0.0002c-1.104-1.9504-11.747-2.9258-22.389-2.9258zm-8.91 7.7402c2.886 0 5.225 2.3368 5.225 5.2228 0 2.883-2.339 5.225-5.225 5.225-2.883 0-5.2226-2.34-5.2226-5.225 0-2.884 2.3376-5.2228 5.2226-5.2228zm-2.01 30.59s0.002 2.312 0.034 6.033c0.993 0.23 3.357 2.63 3.441 5.602 0.088 3.136-1.043 4.721-1.758 5.832-0.499 0.774-0.497 2.459 0.068 3.203 0.784 1.034 2.015 2.461 2.104 5.621 0.088 3.145-1.056 4.712-1.768 5.834-0.742 1.171-0.587 3.589 0.196 4.672 0.743 1.028 1.94 2.529 2.027 5.613 0.077 2.707 0.304 4.185-0.137 5.385-1.456 3.953 1.145 7.233 2.403 10.889 0.408 1.185 3.631 2.996 3.631 2.996s4.103-1.791 4.375-2.996c0.554-2.454 4.202-6.77 2.746-10.723-0.442-1.198-0.573-2.842-0.496-5.551 0.086-3.082 1.284-4.584 2.027-5.613 0.784-1.084 0.938-3.502 0.195-4.672-0.711-1.121-1.856-2.689-1.767-5.834 0.088-3.159 1.32-4.588 2.105-5.621 0.565-0.744 0.565-2.429 0.067-3.203-0.716-1.108-1.847-2.695-1.758-5.832 0.083-2.972 3.063-5.371 4.056-5.602 0.032-3.722 0.032-6.033 0.032-6.033h-8.166v44.877c0 1.102-1.228 1.996-2.745 1.996-1.516 0-2.746-0.894-2.746-1.996v-44.877h-8.166z" stroke-width=".37150" fill="#290a43"/></svg><svg xmlns:rdf="http://www.w3.org/1999/02/22-rdf-syntax-ns#" xmlns:cc="http://creativecommons.org/ns#" xmlns:xlink="http://www.w3.org/1999/xlink" xmlns:dc="http://purl.org/dc/elements/1.1/" id="i25b" height="100" width="47" version="1.1" viewBox="0 0 46.58321 100.0052" y="455"><defs id="i25b-defs11"><linearGradient id="i25b-reslogo-linearGradient5862" y2="1808.8" xlink:href="#i25b-reslogo-linearGradientSlvr" gradientUnits="userSpaceOnUse" y1="1781.8" gradientTransform="matrix(3.7829 0 0 3.817 5531.4 -6803.2)" x2="-1462.9" x1="-1462.9"/><linearGradient id="i25b-reslogo-linearGradientSlvr" x1="-1869" gradientUnits="userSpaceOnUse" y1="794.4" gradientTransform="matrix(1.301,0,0,1.301,1365,-35.3)" x2="-1869" y2="828"><stop id="i25b-reslogo-stop4422" stop-color="#696969" offset="0"/><stop id="i25b-reslogo-stop4424" stop-color="#c7c7c9" offset=".17"/><stop id="i25b-reslogo-stop4426" stop-color="#f9f9ff" offset=".36"/><stop id="i25b-reslogo-stop4428" stop-color="#ccccce" offset=".73"/><stop id="i25b-reslogo-stop4430" stop-color="#696969" offset="1"/></linearGradient><linearGradient id="i25b-linearGradient30935" y2="100.98" xlink:href="#i25b-reslogo-linearGradientSlvr" gradientUnits="userSpaceOnUse" x2="44.703" y1="-.76080" x1="44.703"/><linearGradient id="i25b-reslogo-linearGradient4674" x1="-1864.9" gradientUnits="userSpaceOnUse" y1="1398.4" gradientTransform="matrix(2.961 0 0 4.8705 5519.2 -6810.3)" x2="-1864.9" y2="1418.6"><stop id="i25b-reslogo-stop4435" stop-color="#1c072d" offset="0"/><stop id="i25b-reslogo-stop4437" stop-color="#5700aa" offset=".29"/><stop id="i25b-reslogo-stop4439" stop-color="#4b127b" offset=".64"/><stop id="i25b-reslogo-stop4441" stop-color="#290a43" offset="1"/></linearGradient></defs><path id="i25b-path30365" d="m23.281 0c-10.641 2.9606e-16 -21.281 0.97541-22.377 2.9258-2.0352 3.5976 0.0003 12.504 0.0003 12.504l2.8145 14.804c1.0335 3.957 2.9376 5.308 8.0392 5.754 5.873 0.514 17.193 0.514 23.066 0 5.101-0.446 7.007-1.798 8.039-5.754l2.815-14.804s2.035-8.9081 0-12.504l-0.008-0.0002c-1.104-1.9504-11.747-2.9258-22.389-2.9258zm-8.91 7.7402c2.886 0 5.225 2.3368 5.225 5.2228 0 2.883-2.339 5.225-5.225 5.225-2.883 0-5.2226-2.34-5.2226-5.225 0-2.884 2.3376-5.2228 5.2226-5.2228zm-2.01 30.59s0.002 2.312 0.034 6.033c0.993 0.23 3.357 2.63 3.441 5.602 0.088 3.136-1.043 4.721-1.758 5.832-0.499 0.774-0.497 2.459 0.068 3.203 0.784 1.034 2.015 2.461 2.104 5.621 0.088 3.145-1.056 4.712-1.768 5.834-0.742 1.171-0.587 3.589 0.196 4.672 0.743 1.028 1.94 2.529 2.027 5.613 0.077 2.707 0.304 4.185-0.137 5.385-1.456 3.953 1.145 7.233 2.403 10.889 0.408 1.185 3.631 2.996 3.631 2.996s4.103-1.791 4.375-2.996c0.554-2.454 4.202-6.77 2.746-10.723-0.442-1.198-0.573-2.842-0.496-5.551 0.086-3.082 1.284-4.584 2.027-5.613 0.784-1.084 0.938-3.502 0.195-4.672-0.711-1.121-1.856-2.689-1.767-5.834 0.088-3.159 1.32-4.588 2.105-5.621 0.565-0.744 0.565-2.429 0.067-3.203-0.716-1.108-1.847-2.695-1.758-5.832 0.083-2.972 3.063-5.371 4.056-5.602 0.032-3.722 0.032-6.033 0.032-6.033h-8.166v44.877c0 1.102-1.228 1.996-2.745 1.996-1.516 0-2.746-0.894-2.746-1.996v-44.877h-8.166z" stroke="url(#i25b-linearGradient30935)" stroke-width="2" fill="url(#i25b-reslogo-linearGradient5862)"/><path id="i25b-path2" d="m23.281 0c-10.641 2.9606e-16 -21.281 0.97541-22.377 2.9258-2.0352 3.5976 0.0003 12.504 0.0003 12.504l2.8145 14.804c1.0335 3.957 2.9376 5.308 8.0392 5.754 5.873 0.514 17.193 0.514 23.066 0 5.101-0.446 7.007-1.798 8.039-5.754l2.815-14.804s2.035-8.9081 0-12.504l-0.008-0.0002c-1.104-1.9504-11.747-2.9258-22.389-2.9258zm-8.91 7.7402c2.886 0 5.225 2.3368 5.225 5.2228 0 2.883-2.339 5.225-5.225 5.225-2.883 0-5.2226-2.34-5.2226-5.225 0-2.884 2.3376-5.2228 5.2226-5.2228zm-2.01 30.59s0.002 2.312 0.034 6.033c0.993 0.23 3.357 2.63 3.441 5.602 0.088 3.136-1.043 4.721-1.758 5.832-0.499 0.774-0.497 2.459 0.068 3.203 0.784 1.034 2.015 2.461 2.104 5.621 0.088 3.145-1.056 4.712-1.768 5.834-0.742 1.171-0.587 3.589 0.196 4.672 0.743 1.028 1.94 2.529 2.027 5.613 0.077 2.707 0.304 4.185-0.137 5.385-1.456 3.953 1.145 7.233 2.403 10.889 0.408 1.185 3.631 2.996 3.631 2.996s4.103-1.791 4.375-2.996c0.554-2.454 4.202-6.77 2.746-10.723-0.442-1.198-0.573-2.842-0.496-5.551 0.086-3.082 1.284-4.584 2.027-5.613 0.784-1.084 0.938-3.502 0.195-4.672-0.711-1.121-1.856-2.689-1.767-5.834 0.088-3.159 1.32-4.588 2.105-5.621 0.565-0.744 0.565-2.429 0.067-3.203-0.716-1.108-1.847-2.695-1.758-5.832 0.083-2.972 3.063-5.371 4.056-5.602 0.032-3.722 0.032-6.033 0.032-6.033h-8.166v44.877c0 1.102-1.228 1.996-2.745 1.996-1.516 0-2.746-0.894-2.746-1.996v-44.877h-8.166z" fill="url(#i25b-reslogo-linearGradient4674)"/></svg><svg xmlns:rdf="http://www.w3.org/1999/02/22-rdf-syntax-ns#" xmlns:cc="http://creativecommons.org/ns#" xmlns:xlink="http://www.w3.org/1999/xlink" xmlns:dc="http://purl.org/dc/elements/1.1/" id="i29a" version="1.1" viewBox="0 0 99.99 99.99" width="100" height="100" y="555"><defs id="i29a-defs31135"><linearGradient id="i29a-reslogo-linearGradient5862" y2="1889.6" xlink:href="#i29a-reslogo-linearGradientSlvr" gradientUnits="userSpaceOnUse" y1="1777.6" gradientTransform="matrix(3.7829 0 0 3.817 5531.4 -6803.2)" x2="-1520.9" x1="-1520.9"/><linearGradient id="i29a-reslogo-linearGradientSlvr" x1="-1869" gradientUnits="userSpaceOnUse" y1="794.4" gradientTransform="matrix(1.301,0,0,1.301,1365,-35.3)" x2="-1869" y2="828"><stop id="i29a-reslogo-stop4422" stop-color="#696969" offset="0"/><stop id="i29a-reslogo-stop4424" stop-color="#c7c7c9" offset=".17"/><stop id="i29a-reslogo-stop4426" stop-color="#f9f9ff" offset=".36"/><stop id="i29a-reslogo-stop4428" stop-color="#ccccce" offset=".73"/><stop id="i29a-reslogo-stop4430" stop-color="#696969" offset="1"/></linearGradient><linearGradient id="i29a-linearGradient33369" y2="86.988" xlink:href="#i29a-reslogo-linearGradientSlvr" gradientUnits="userSpaceOnUse" x2="85.139" y1="13.738" x1="13.906"/><linearGradient id="i29a-linearGradient33377" y2="47.576" xlink:href="#i29a-reslogo-linearGradientSlvr" gradientUnits="userSpaceOnUse" x2="64.563" y1="47.576" x1="35.38"/><linearGradient id="i29a-reslogo-linearGradient7732" x1="-1040" gradientUnits="userSpaceOnUse" y1="884.3" gradientTransform="matrix(.5122 0 0 .5116 -456 447.2)" x2="-1040" y2="1076"><stop id="i29a-reslogo-stop4444" stop-color="#141414" offset="0"/><stop id="i29a-reslogo-stop4446" stop-color="#0a0a0a" offset=".15"/><stop id="i29a-reslogo-stop4448" stop-color="#6d6d6d" offset=".3"/><stop id="i29a-reslogo-stop4450" offset=".44"/><stop id="i29a-reslogo-stop4452" stop-color="#141414" offset=".62"/><stop id="i29a-reslogo-stop4454" stop-color="#262626" offset=".75"/><stop id="i29a-reslogo-stop4456" stop-color="#040404" offset="1"/></linearGradient><linearGradient id="i29a-linearGradient33452" y2="1416.4" xlink:href="#i29a-reslogo-linearGradient7732" gradientUnits="userSpaceOnUse" x2="-1867.6" gradientTransform="matrix(2.961 0 0 4.8705 5519.2 -6810.3)" y1="1405.6" x1="-1867.3"/><linearGradient id="i29a-linearGradient33460" y2="49.989" xlink:href="#i29a-reslogo-linearGradient7732" gradientUnits="userSpaceOnUse" x2="99.968" y1="49.989" x1="-.0254"/></defs><g><path id="i29a-path32783" d="m49.972-0.00828c-27.613 0-49.997 22.384-49.997 49.997-0.0004 27.612 22.384 49.997 49.997 49.997 27.612 0 49.996-22.385 49.996-49.997 0-27.613-22.384-49.997-49.996-49.997zm0 90.728c-22.497 0-40.732-18.235-40.732-40.731-0.0001-22.497 18.235-40.732 40.732-40.732 22.496 0 40.731 18.235 40.731 40.732 0 22.496-18.235 40.731-40.731 40.731z" stroke="url(#i29a-linearGradient33369)" stroke-width="2" fill="url(#i29a-reslogo-linearGradient5862)"/><path id="i29a-path31124" d="m49.972-0.00828c-27.613 0-49.997 22.384-49.997 49.997-0.0004 27.612 22.384 49.997 49.997 49.997 27.612 0 49.996-22.385 49.996-49.997 0-27.613-22.384-49.997-49.996-49.997zm0 90.728c-22.497 0-40.732-18.235-40.732-40.731-0.0001-22.497 18.235-40.732 40.732-40.732 22.496 0 40.731 18.235 40.731 40.732 0 22.496-18.235 40.731-40.731 40.731z" stroke-width=".44760" fill="url(#i29a-linearGradient33460)"/><path id="i29a-path31126" d="m49.972 41.26c-8.599 0-14.592 3.329-14.592 6.316s5.993 6.316 14.592 6.316c8.598 0 14.591-3.328 14.591-6.316 0-2.986-5.993-6.316-14.591-6.316z" stroke-width=".44760" fill="url(#i29a-linearGradient33377)"/><path id="i29a-path31128" d="m82.781 44.528s-17.716-9.91-32.778-9.91c-15.313 0-32.778 9.91-32.778 9.91l-13.338 0.382c-0.0004 0 0.381 14.099 4.9546 12.958 4.5744-1.144 17.438-3.756 22.867-1.907 3.65 1.243 11.817 9.91 11.817 9.91v24.775h12.958v-24.775s8.164-8.665 11.817-9.91c5.429-1.849 18.293 0.763 22.868 1.907 4.574 1.143 4.955-12.958 4.955-12.958zm-32.778 12.099c-9.713 0-17.322-3.973-17.322-9.046 0-5.072 7.609-9.046 17.322-9.046s17.322 3.972 17.322 9.046c0 5.071-7.609 9.046-17.322 9.046z" fill="url(#i29a-linearGradient33452)"/></g></svg><svg xmlns:rdf="http://www.w3.org/1999/02/22-rdf-syntax-ns#" xmlns:cc="http://creativecommons.org/ns#" xmlns:xlink="http://www.w3.org/1999/xlink" xmlns:dc="http://purl.org/dc/elements/1.1/" id="i35a" height="134" width="101" version="1.1" viewBox="0 0 100.6 134.20684" y="655"><defs id="i35a-defs31402"><linearGradient id="i35a-reslogo-linearGradient5862" y2="1804" xlink:href="#i35a-reslogo-linearGradientSlvr" gradientUnits="userSpaceOnUse" y1="1797.3" gradientTransform="matrix(3.7876 0 0 3.8217 5539.5 -6811.7)" x2="-1444.4" x1="-1444.4"/><linearGradient id="i35a-reslogo-linearGradientSlvr" x1="-1869" gradientUnits="userSpaceOnUse" y1="794.4" gradientTransform="matrix(1.301,0,0,1.301,1365,-35.3)" x2="-1869" y2="828"><stop id="i35a-reslogo-stop4422" stop-color="#696969" offset="0"/><stop id="i35a-reslogo-stop4424" stop-color="#c7c7c9" offset=".17"/><stop id="i35a-reslogo-stop4426" stop-color="#f9f9ff" offset=".36"/><stop id="i35a-reslogo-stop4428" stop-color="#ccccce" offset=".73"/><stop id="i35a-reslogo-stop4430" stop-color="#696969" offset="1"/></linearGradient><linearGradient id="i35a-linearGradient32672" y2="18.413" xlink:href="#i35a-reslogo-linearGradientSlvr" gradientUnits="userSpaceOnUse" x2="60.46" gradientTransform="matrix(1.0012 0 0 1.0012 1.2856 -.12435)" y1="22.208" x1="20.896"/><linearGradient id="i35a-linearGradient32680" y2="126.47" xlink:href="#i35a-reslogo-linearGradientSlvr" gradientUnits="userSpaceOnUse" x2="84.677" gradientTransform="matrix(1.0012 0 0 1.0012 1.2856 -.12435)" y1="126.47" x1="26.341"/><linearGradient id="i35a-reslogo-linearGradient4674" x1="-1835.9" gradientUnits="userSpaceOnUse" y1="1401.7" gradientTransform="matrix(3.0366 0 0 4.995 5660.5 -6986.3)" x2="-1855" y2="1413.7"><stop id="i35a-reslogo-stop4435" stop-color="#1c072d" offset="0"/><stop id="i35a-reslogo-stop4437" stop-color="#5700aa" offset=".29"/><stop id="i35a-reslogo-stop4439" stop-color="#4b127b" offset=".64"/><stop id="i35a-reslogo-stop4441" stop-color="#290a43" offset="1"/></linearGradient><linearGradient id="i35a-reslogo-linearGradient4678" x1="-539.02" gradientUnits="userSpaceOnUse" y1="871.86" gradientTransform="matrix(1.9381 0 0 1.9455 1026.6 -1710.9)" x2="-539.02" y2="947.74"><stop id="i35a-reslogo-stop4444" stop-color="#141414" offset="0"/><stop id="i35a-reslogo-stop4446" stop-color="#0a0a0a" offset=".15"/><stop id="i35a-reslogo-stop4448" stop-color="#6d6d6d" offset=".3"/><stop id="i35a-reslogo-stop4450" offset=".48213"/><stop id="i35a-reslogo-stop4452" stop-color="#141414" offset=".63964"/><stop id="i35a-reslogo-stop4454" stop-color="#6d6d6d" offset=".79389"/><stop id="i35a-reslogo-stop4456" stop-color="#040404" offset="1"/></linearGradient></defs><g><path id="i35a-path32683" d="m98.131 44.411a41.707 41.707 0 0 1 -41.707 41.707 41.707 41.707 0 0 1 -41.707 -41.707 41.707 41.707 0 0 1 41.707 -41.708 41.707 41.707 0 0 1 41.707 41.708z" fill="url(#i35a-reslogo-linearGradient4674)"/><path id="i35a-path31375" d="m58.746 85.789c-1.944-2.66-4.109-7.655 0.08-13.891 6.33-9.438 9.681-2.982 12.908-9.928 1.72-3.713 4.109-5.298 6.435-5.298 2.039 0 4.031 1.221 5.48 3.306 1.766 2.544 4.174 4.349 6.909 4.349 1.344 0 2.768-0.438 4.231-1.439-6.702 13.266-20.276 22.448-36.048 22.893" fill="url(#i35a-reslogo-linearGradient5862)"/><path id="i35a-path31377" d="m40.944 48.227c-6.859 0-12.402-1.93-6.218-11.076 4.114-6.07-5.134-13.141-11.824-13.141-1.388 0-2.667 0.302-3.694 0.99 6.936-13.422 20.935-22.608 37.081-22.608 1.317 0.0001 2.617 0.0731 3.904 0.1877-9.581 6.5493 2.496 12.431 1.349 16.696-1.158 4.297-10.612 6.936-8.935 15.883 1.93 10.303-3.475 12.409-7.943 12.911-1.24 0.094-2.496 0.146-3.71 0.146" stroke-width="1.7802" fill="url(#i35a-linearGradient32672)"/><path id="i35a-path31379" d="m81.888 131.72h-50.058c-2.295 0-4.171-1.88-4.171-4.17 0-3.44 2.816-6.26 6.257-6.26h45.893c3.441 0 6.257 2.82 6.257 6.26 0 2.29-1.876 4.17-4.171 4.17" stroke-width="1.7802" fill="url(#i35a-linearGradient32680)"/><path id="i35a-path31381" d="m14.231 0.3c-0.534 0-1.069 0.20601-1.476 0.61794-0.815 0.81356-0.815 2.1256 0 2.9392l2.321 2.3212c-9.1616 10.012-14.778 23.344-14.776 37.99 0 30.635 24.436 55.525 54.886 56.292v18.85h-20.971c-4.604 0.01-8.336 3.74-8.343 8.34 0 3.46 2.801 6.26 6.256 6.26h50.059c3.456 0 6.249-2.8 6.258-6.26 0-4.6-3.737-8.33-8.336-8.34h-20.75v-18.88c13.297-0.641 25.38-5.911 34.689-14.205l2.692 2.693c0.815 0.814 2.134 0.814 2.949 0 0.811-0.813 0.811-2.137 0-2.951l-3.672-3.672c-0.089-0.167-0.193-0.329-0.331-0.471-0.158-0.166-0.34-0.29-0.532-0.392l-7.171-7.17c2.701-2.85 5.026-6.057 6.888-9.553 0.018-0.012 0.036-0.023 0.055-0.035 0.631-0.437 0.942-1.153 0.895-1.864 2.672-5.665 4.173-11.994 4.173-18.677 0-22.143-16.438-40.442-37.759-43.385-0.486-0.28284-1.068-0.35778-1.615-0.20356-1.453-0.14572-2.927-0.22097-4.418-0.22097-11.405 0-21.787 4.3621-29.581 11.507l-10.915-10.912c-0.408-0.41199-0.941-0.618-1.475-0.618zm41.966 4.2063c0.055 0 0.11 0.0037 0.166 0.0039-0.658 1.1278-0.992 2.3478-0.986 3.4945 0 1.4705 0.458 2.7623 1.029 3.8993 0.864 1.7 2.02 3.13 2.872 4.349 0.428 0.605 0.778 1.149 0.988 1.576 0.215 0.428 0.265 0.719 0.26 0.802v0.063c-0.053 0.198-0.172 0.459-0.395 0.772-0.385 0.563-1.091 1.271-1.961 2.053-1.302 1.189-2.958 2.555-4.353 4.39-0.696 0.929-1.326 1.971-1.778 3.161-0.452 1.199-0.72 2.535-0.72 3.995 0 0.782 0.077 1.595 0.235 2.44 0.257 1.366 0.368 2.544 0.368 3.557 0 1.513-0.247 2.617-0.601 3.452-0.267 0.615-0.593 1.096-0.973 1.492-0.571 0.584-1.289 1.021-2.138 1.333-0.823 0.305-1.763 0.498-2.702 0.605-1.204 0.094-2.411 0.146-3.557 0.146-2.243 0.011-4.268-0.25-5.425-0.751-0.585-0.25-0.923-0.52-1.101-0.76-0.173-0.24-0.277-0.459-0.287-0.97 0-0.449 0.119-1.126 0.483-2.024 0.36-0.897 0.957-2.014 1.84-3.307 0.921-1.356 1.382-2.879 1.376-4.349 0-1.784-0.633-3.43-1.57-4.859-1.416-2.138-3.526-3.879-5.872-5.141-2.354-1.252-4.951-2.043-7.484-2.054-0.173 0-0.345 0.022-0.518 0.03 1.118-1.646 2.359-3.201 3.705-4.66 0.503-0.022 1-0.217 1.385-0.601 0.387-0.387 0.583-0.89 0.602-1.398 7.094-6.6601 16.615-10.74 27.112-10.74zm5.338 0.3677c8.809 1.1857 16.695 5.252 22.682 11.238 7.176 7.185 11.606 17.073 11.606 28.021 0 6.328-1.487 12.301-4.122 17.603-0.811 0.409-1.527 0.56-2.188 0.56-0.9 0-1.773-0.292-2.67-0.876-0.888-0.584-1.765-1.481-2.526-2.576-0.871-1.251-1.933-2.294-3.15-3.035-1.217-0.73-2.602-1.167-4.043-1.167-1.642-0.011-3.307 0.583-4.728 1.699-1.427 1.116-2.633 2.721-3.6 4.797-0.348 0.751-0.671 1.262-0.947 1.596-0.243 0.302-0.443 0.47-0.637 0.606-0.333 0.219-0.712 0.343-1.381 0.489-0.975 0.219-2.545 0.428-4.288 1.408-1.748 0.98-3.56 2.66-5.495 5.55-1.969 2.919-2.763 5.777-2.755 8.311 0 1.719 0.358 3.271 0.872 4.611-10.139-0.512-19.262-4.828-25.989-11.555-7.176-7.176-11.606-17.073-11.606-28.021 0-6.138 1.394-11.939 3.882-17.119 0.315-0.037 0.628-0.137 0.911-0.326 0.589-0.397 1.447-0.638 2.538-0.638 1.082 0 2.357 0.251 3.63 0.71 1.91 0.699 3.804 1.887 5.123 3.233 0.661 0.677 1.177 1.377 1.512 2.055 0.336 0.678 0.49 1.304 0.49 1.887 0 0.646-0.17 1.272-0.659 2.002-1.004 1.492-1.746 2.827-2.254 4.087-0.506 1.262-0.784 2.44-0.786 3.587-0.018 1.293 0.404 2.565 1.155 3.514 0.556 0.73 1.259 1.273 2.011 1.68 1.13 0.615 2.378 0.958 3.694 1.177 1.316 0.209 2.709 0.281 4.128 0.281 1.285 0 2.589-0.062 3.866-0.156l0.074-0.01c1.055-0.114 2.198-0.312 3.346-0.698 1.714-0.563 3.494-1.565 4.805-3.307 0.652-0.865 1.173-1.896 1.521-3.064 0.349-1.178 0.53-2.493 0.53-3.964 0-1.314-0.142-2.743-0.438-4.327-0.114-0.605-0.163-1.157-0.164-1.668 0-1.45 0.377-2.576 0.995-3.649 0.923-1.606 2.494-3.026 4.087-4.455 0.795-0.709 1.591-1.429 2.302-2.243 0.704-0.814 1.353-1.752 1.678-2.941 0.103-0.386 0.15-0.771 0.15-1.146 0-0.678-0.144-1.293-0.346-1.846-0.357-0.97-0.88-1.796-1.428-2.599-0.823-1.199-1.728-2.334-2.377-3.42-0.326-0.532-0.583-1.0443-0.751-1.5137-0.168-0.459-0.247-0.8761-0.247-1.2516 0-0.4902 0.111-0.9372 0.497-1.5526 0.29-0.4528 0.761-0.9883 1.49-1.5781zm-43.5 4.2649 5.647 5.6531c-7.009 7.768-11.283 18.055-11.291 29.341 0 24.193 19.619 43.809 43.811 43.809 0.41 0 0.814-0.02 1.221-0.031 0.21 0.029 0.422 0.02 0.633-0.016 10.291-0.428 19.657-4.405 26.918-10.741l6.119 6.117c-9.197 8.122-21.25 13.049-34.476 13.049-14.407 0-27.432-5.83-36.867-15.269-9.439-9.449-15.271-22.465-15.273-36.885 0-13.493 5.143-25.761 13.558-35.027zm59.093 49.674c0.6 0 1.227 0.177 1.88 0.573 0.648 0.386 1.307 1.002 1.887 1.836 1.005 1.45 2.214 2.732 3.655 3.68 1.284 0.85 2.781 1.429 4.396 1.541-1.399 2.048-2.981 3.962-4.729 5.711-6.61 6.608-15.526 10.878-25.445 11.514-0.26-0.442-0.505-0.917-0.708-1.442-0.361-0.928-0.598-1.97-0.598-3.128 0-1.679 0.484-3.64 2.047-5.986 1.477-2.201 2.688-3.338 3.653-3.974 0.729-0.48 1.333-0.71 1.991-0.888 0.491-0.125 1.016-0.218 1.621-0.354 0.451-0.104 0.95-0.229 1.48-0.438 0.794-0.302 1.645-0.813 2.378-1.574 0.738-0.761 1.367-1.742 1.948-2.982 0.753-1.627 1.602-2.67 2.382-3.276 0.786-0.604 1.478-0.803 2.162-0.813zm-42.913 64.667h45.894c1.142 0 2.173 0.47 2.937 1.23 0.762 0.76 1.225 1.79 1.226 2.94-0.001 0.57-0.23 1.08-0.614 1.47-0.388 0.39-0.899 0.61-1.471 0.61h-50.059c-0.573 0-1.083-0.22-1.471-0.61-0.384-0.39-0.614-0.9-0.614-1.47 0-1.15 0.463-2.18 1.227-2.94 0.765-0.76 1.798-1.23 2.945-1.23z" stroke-width="3.7932" fill="url(#i35a-reslogo-linearGradient4678)"/></g></svg><svg xmlns:rdf="http://www.w3.org/1999/02/22-rdf-syntax-ns#" xmlns:cc="http://creativecommons.org/ns#" xmlns:xlink="http://www.w3.org/1999/xlink" xmlns:dc="http://purl.org/dc/elements/1.1/" id="i4a" height="100" width="100" version="1.1" y="789"><defs id="i4a-defs4543"><linearGradient id="i4a-i24a-linearGradient19435-5-8" x1=".77308" gradientUnits="userSpaceOnUse" x2=".22703" gradientTransform="matrix(30.74,-19.96,19.96,30.74,326.8,90.8)" y1="-.41901" y2=".42195"><stop id="i4a-i24a-stop9053" stop-color="#696969" offset="0"/><stop id="i4a-i24a-stop9055" stop-color="#c7c7c9" offset=".17"/><stop id="i4a-i24a-stop9057" stop-color="#f9f9ff" offset=".36"/><stop id="i4a-i24a-stop9059" stop-color="#ccccce" offset=".73"/><stop id="i4a-i24a-stop9061" stop-color="#696969" offset="1"/></linearGradient><linearGradient id="i4a-linearGradient14104" y2="51.681" xlink:href="#i4a-i24a-linearGradient19435-5-8" gradientUnits="userSpaceOnUse" x2="-136.11" gradientTransform="translate(168.54 6.1896)" y1="51.681" x1="-141.37"/><linearGradient id="i4a-linearGradient14112" y2="69.216" xlink:href="#i4a-i24a-linearGradient19435-5-8" gradientUnits="userSpaceOnUse" x2="-104.54" gradientTransform="translate(168.54 6.1896)" y1="69.216" x1="-132.6"/><linearGradient id="i4a-linearGradient14120" y2="51.681" xlink:href="#i4a-i24a-linearGradient19435-5-8" gradientUnits="userSpaceOnUse" x2="-95.775" gradientTransform="translate(168.54 6.1896)" y1="51.681" x1="-101.04"/><linearGradient id="i4a-linearGradient14128" y2="34.146" xlink:href="#i4a-i24a-linearGradient19435-5-8" gradientUnits="userSpaceOnUse" x2="-111.56" gradientTransform="translate(168.54 6.1896)" y1="34.146" x1="-125.58"/><linearGradient id="i4a-linearGradient14136" y2="64.649" xlink:href="#i4a-i24a-linearGradient19435-5-8" gradientUnits="userSpaceOnUse" x2="-120.87" gradientTransform="translate(168.54 6.1896)" y1="39.021" x1="-120.87"/><linearGradient id="i4a-linearGradient14144" y2="71.223" xlink:href="#i4a-i24a-linearGradient19435-5-8" gradientUnits="userSpaceOnUse" x2="-139.13" gradientTransform="translate(168.54 6.1896)" y1="67.209" x1="-139.13"/><linearGradient id="i4a-linearGradient14152" y2="71.068" xlink:href="#i4a-i24a-linearGradient19435-5-8" gradientUnits="userSpaceOnUse" x2="-99.26" gradientTransform="translate(168.54 6.1896)" y1="66.977" x1="-99.26"/><linearGradient id="i4a-linearGradient14160" y2="84.997" xlink:href="#i4a-i24a-linearGradient19435-5-8" gradientUnits="userSpaceOnUse" x2="-136.98" gradientTransform="translate(168.54 6.1896)" y1="84.997" x1="-147.5"/><linearGradient id="i4a-linearGradient14168" y2="84.997" xlink:href="#i4a-i24a-linearGradient19435-5-8" gradientUnits="userSpaceOnUse" x2="-89.639" gradientTransform="translate(168.54 6.1896)" y1="84.997" x1="-100.16"/></defs><g><path id="i4a-path14090" d="m42.961 38.582v3.506h14.027v-3.506z" fill="url(#i4a-linearGradient14128)"/><path id="i4a-path14088" d="m28.932 45.596c-0.973 0-1.754 0.781-1.754 1.754v22.795h5.262v-24.549z" fill="url(#i4a-linearGradient14104)"/><path id="i4a-path14086" d="m35.945 45.596v24.549h28.057v-24.549z" fill="url(#i4a-linearGradient14136)"/><path id="i4a-path14084" d="m67.51 45.596v24.549h5.26v-22.795c0-0.973-0.782-1.754-1.754-1.754z" fill="url(#i4a-linearGradient14120)"/><path id="i4a-path14082" d="m27.178 73.652v3.506h5.262v-3.506z" fill="url(#i4a-linearGradient14144)"/><path id="i4a-path14080" d="m35.945 73.652v3.506h28.057v-3.506z" fill="url(#i4a-linearGradient14112)"/><path id="i4a-path14078" d="m67.51 73.652v3.506h5.26v-3.506z" fill="url(#i4a-linearGradient14152)"/><path id="i4a-path14072" d="m26.303 85.926c-2.926 0-5.262 2.336-5.262 5.262s2.336 5.259 5.262 5.259 5.26-2.333 5.26-5.259-2.334-5.262-5.26-5.262z" fill="url(#i4a-linearGradient14160)"/><path id="i4a-rect14066" d="m73.647 85.926c-2.927 0-5.26 2.336-5.26 5.262s2.333 5.259 5.26 5.259c2.926 0 5.259-2.333 5.259-5.259s-2.333-5.262-5.259-5.262z" fill="url(#i4a-linearGradient14168)"/></g><g id="i4a-luggage-cart-9" stroke-linejoin="round" transform="matrix(2.3267 0 0 2.3267 455.35 690.17)" stroke="#000" stroke-linecap="round" stroke-miterlimit="10" stroke-width="1.5073" fill="none"><line id="i4a-XMLID_1095_-6" y2="-262.7" y1="-262.7" x2="-153.49" x1="-194.94"/><circle id="i4a-XMLID_1094_-1" cy="-257.43" cx="-184.39" r="3.0146"/><circle id="i4a-XMLID_1093_-9" cy="-257.43" cx="-164.04" r="3.0146"/><path id="i4a-XMLID_1092_-4" d="m-158.77-262.7h-30.9v-18.85c0-6.63 5.43-12.05 12.06-12.05h6.79c6.63 0 12.05 5.42 12.05 12.05z"/><path id="i4a-XMLID_1090_-9" d="m-170.45-277.78h-7.53v-2.26c0-0.41 0.34-0.75 0.75-0.75h6.03c0.41 0 0.75 0.34 0.75 0.75z"/><path id="i4a-XMLID_1089_-3" d="m-165.17-277.78h-18.09c-0.83 0-1.51 0.68-1.51 1.51v12.81c0 0.42 0.34 0.76 0.76 0.76h19.59c0.42 0 0.76-0.34 0.76-0.76v-12.81c0-0.83-0.68-1.51-1.51-1.51z"/><line id="i4a-XMLID_1088_-6" y2="-291.34" y1="-295.86" x2="-174.22" x1="-174.22"/><line id="i4a-XMLID_1087_-2" y2="-262.7" y1="-277.78" x2="-181" x1="-181"/><line id="i4a-XMLID_1086_-9" y2="-262.7" y1="-277.78" x2="-167.43" x1="-167.43"/><line id="i4a-XMLID_1085_-0" y2="-265.72" y1="-265.72" x2="-163.66" x1="-184.77"/></g></svg><svg xmlns:rdf="http://www.w3.org/1999/02/22-rdf-syntax-ns#" xmlns:cc="http://creativecommons.org/ns#" xmlns:xlink="http://www.w3.org/1999/xlink" xmlns:dc="http://purl.org/dc/elements/1.1/" id="i4b" height="100" width="100" version="1.1" y="889"><defs id="i4b-defs4543"><linearGradient id="i4b-i24a-linearGradient19435-5-8" x1=".77308" gradientUnits="userSpaceOnUse" x2=".22703" gradientTransform="matrix(30.74,-19.96,19.96,30.74,326.8,90.8)" y1="-.41901" y2=".42195"><stop id="i4b-i24a-stop9053" stop-color="#696969" offset="0"/><stop id="i4b-i24a-stop9055" stop-color="#c7c7c9" offset=".17"/><stop id="i4b-i24a-stop9057" stop-color="#f9f9ff" offset=".36"/><stop id="i4b-i24a-stop9059" stop-color="#ccccce" offset=".73"/><stop id="i4b-i24a-stop9061" stop-color="#696969" offset="1"/></linearGradient><linearGradient id="i4b-linearGradient14104" y2="51.681" xlink:href="#i4b-reslogo-linearGradient7732" gradientUnits="userSpaceOnUse" x2="-136.11" gradientTransform="translate(168.54 6.1896)" y1="51.681" x1="-141.37"/><linearGradient id="i4b-linearGradient14112" y2="69.216" xlink:href="#i4b-reslogo-linearGradient7732" gradientUnits="userSpaceOnUse" x2="-104.54" gradientTransform="translate(168.54 6.1896)" y1="69.216" x1="-132.6"/><linearGradient id="i4b-linearGradient14120" y2="51.681" xlink:href="#i4b-reslogo-linearGradient7732" gradientUnits="userSpaceOnUse" x2="-95.775" gradientTransform="translate(168.54 6.1896)" y1="51.681" x1="-101.04"/><linearGradient id="i4b-linearGradient14128" y2="34.146" xlink:href="#i4b-i24a-linearGradient19435-5-8" gradientUnits="userSpaceOnUse" x2="-111.56" gradientTransform="translate(168.54 6.1896)" y1="34.146" x1="-125.58"/><linearGradient id="i4b-linearGradient14136" y2="64.649" xlink:href="#i4b-reslogo-linearGradient7732" gradientUnits="userSpaceOnUse" x2="-120.87" gradientTransform="translate(168.54 6.1896)" y1="39.021" x1="-120.87"/><linearGradient id="i4b-linearGradient14144" y2="71.223" xlink:href="#i4b-reslogo-linearGradient7732" gradientUnits="userSpaceOnUse" x2="-139.13" gradientTransform="translate(168.54 6.1896)" y1="67.209" x1="-139.13"/><linearGradient id="i4b-linearGradient14152" y2="71.068" xlink:href="#i4b-reslogo-linearGradient7732" gradientUnits="userSpaceOnUse" x2="-99.26" gradientTransform="translate(168.54 6.1896)" y1="66.977" x1="-99.26"/><linearGradient id="i4b-linearGradient14160" y2="84.997" xlink:href="#i4b-reslogo-linearGradient7732" gradientUnits="userSpaceOnUse" x2="-136.98" gradientTransform="translate(168.54 6.1896)" y1="84.997" x1="-147.5"/><linearGradient id="i4b-linearGradient20436" y2="-275.14" xlink:href="#i4b-i24a-linearGradient19435-5-8" gradientUnits="userSpaceOnUse" x2="-152.74" gradientTransform="matrix(2.3267 0 0 2.3267 455.35 690.17)" y1="-275.14" x1="-195.7"/><linearGradient id="i4b-reslogo-linearGradient4678" x1="-494.42" xlink:href="#i4b-reslogo-linearGradient7732" gradientUnits="userSpaceOnUse" y1="927.07" gradientTransform="matrix(1.9357 0 0 1.9431 1024.1 -1708.7)" x2="-488.24" y2="927.07"/><linearGradient id="i4b-reslogo-linearGradient7732" x1="-1040" gradientUnits="userSpaceOnUse" y1="884.3" gradientTransform="matrix(.5122 0 0 .5116 -456 447.2)" x2="-1040" y2="1076"><stop id="i4b-reslogo-stop4444" stop-color="#141414" offset="0"/><stop id="i4b-reslogo-stop4446" stop-color="#0a0a0a" offset=".15"/><stop id="i4b-reslogo-stop4448" stop-color="#6d6d6d" offset=".3"/><stop id="i4b-reslogo-stop4450" offset=".44"/><stop id="i4b-reslogo-stop4452" stop-color="#141414" offset=".62"/><stop id="i4b-reslogo-stop4454" stop-color="#262626" offset=".75"/><stop id="i4b-reslogo-stop4456" stop-color="#040404" offset="1"/></linearGradient></defs><g><path id="i4b-path14090" d="m42.961 38.582v3.506h14.027v-3.506z" fill="url(#i4b-linearGradient14128)"/><path id="i4b-path14088" d="m28.932 45.596c-0.973 0-1.754 0.781-1.754 1.754v22.795h5.262v-24.549z" fill="url(#i4b-linearGradient14104)"/><path id="i4b-path14086" d="m35.945 45.596v24.549h28.057v-24.549z" fill="url(#i4b-linearGradient14136)"/><path id="i4b-path14084" d="m67.51 45.596v24.549h5.26v-22.795c0-0.973-0.782-1.754-1.754-1.754z" fill="url(#i4b-linearGradient14120)"/><path id="i4b-path14082" d="m27.178 73.652v3.506h5.262v-3.506z" fill="url(#i4b-linearGradient14144)"/><path id="i4b-path14080" d="m35.945 73.652v3.506h28.057v-3.506z" fill="url(#i4b-linearGradient14112)"/><path id="i4b-path14078" d="m67.51 73.652v3.506h5.26v-3.506z" fill="url(#i4b-linearGradient14152)"/><path id="i4b-path14072" d="m26.303 85.926c-2.926 0-5.262 2.336-5.262 5.262s2.336 5.259 5.262 5.259 5.26-2.333 5.26-5.259-2.334-5.262-5.26-5.262z" fill="url(#i4b-linearGradient14160)"/><path id="i4b-rect14066" d="m73.647 85.926c-2.927 0-5.26 2.336-5.26 5.262s2.333 5.259 5.26 5.259c2.926 0 5.259-2.333 5.259-5.259s-2.333-5.262-5.259-5.262z" fill="url(#i4b-reslogo-linearGradient4678)"/><path id="i4b-XMLID_1085_-0" style="color-rendering:auto;color:#000000;isolation:auto;mix-blend-mode:normal;shape-rendering:auto;solid-color:#000000" d="m25.449 70.165a1.7541 1.7541 0 1 0 0 3.509h49.101a1.7541 1.7541 0 1 0 0 -3.509zm40.308-28.079a1.7537 1.7537 0 0 0 -1.727 1.777v35.068a1.7537 1.7537 0 1 0 3.504 0v-35.068a1.7537 1.7537 0 0 0 -1.777 -1.777zm-31.565 0a1.7537 1.7537 0 0 0 -1.727 1.777v35.068a1.7541 1.7541 0 1 0 3.508 0v-35.068a1.7537 1.7537 0 0 0 -1.781 -1.777zm15.782-42.085a1.7537 1.7537 0 0 0 -1.726 1.7769v10.52a1.7537 1.7537 0 1 0 3.503 0v-10.52a1.7537 1.7537 0 0 0 -1.777 -1.777zm-21.017 42.108c-2.885 0-5.258 2.377-5.258 5.262v29.806c0 1.921 1.583 3.509 3.504 3.509h45.593c1.921 0 3.508-1.588 3.508-3.509v-29.806c0-2.885-2.377-5.262-5.262-5.262zm0 3.508h42.085c0.972 0 1.754 0.782 1.754 1.754v29.806h-45.593v-29.806c0-0.972 0.782-1.754 1.754-1.754zm14.028-10.52c-1.921 0-3.508 1.583-3.508 3.504v5.262a1.7537 1.7537 0 0 0 1.754 1.754h17.537a1.7537 1.7537 0 0 0 1.754 -1.754v-5.262c0-1.921-1.587-3.504-3.508-3.504zm0 3.504h14.029v3.508h-14.029zm-0.877-33.315c-16.387 0-29.811 13.424-29.811 29.811v43.834a1.7537 1.7537 0 0 0 1.755 1.755h71.895a1.7537 1.7537 0 0 0 1.754 -1.755v-43.834c0-16.387-13.423-29.811-29.81-29.811zm0 3.5082h15.783c14.474 0 26.302 11.828 26.302 26.303v42.08h-68.387v-42.08c0-14.475 11.828-26.303 26.302-26.303zm31.565 73.646c-4.821 0-8.77 3.944-8.77 8.766 0 4.821 3.949 8.77 8.77 8.77 4.822 0 8.766-3.949 8.766-8.77 0-4.822-3.944-8.766-8.766-8.766zm0 3.508c2.926 0 5.258 2.332 5.258 5.258s-2.332 5.262-5.258 5.262-5.262-2.336-5.262-5.262 2.336-5.258 5.262-5.258zm-47.347-3.508c-4.822 0-8.766 3.944-8.766 8.766 0 4.821 3.944 8.77 8.766 8.77 4.821 0 8.77-3.949 8.77-8.77 0-4.822-3.949-8.766-8.77-8.766zm0 3.508c2.926 0 5.262 2.332 5.262 5.258s-2.336 5.262-5.262 5.262-5.258-2.336-5.258-5.262 2.332-5.258 5.258-5.258zm-24.549-8.771a1.7541 1.7541 0 1 0 0 3.509h96.445a1.7541 1.7541 0 1 0 0 -3.509z" fill="url(#i4b-linearGradient20436)"/></g></svg><svg xmlns:rdf="http://www.w3.org/1999/02/22-rdf-syntax-ns#" xmlns:cc="http://creativecommons.org/ns#" xmlns:xlink="http://www.w3.org/1999/xlink" xmlns:dc="http://purl.org/dc/elements/1.1/" id="i5a" height="70" width="100" version="1.1" y="989"><defs id="i5a-defs4543"><linearGradient id="i5a-reslogo-linearGradient5862" y2="1722.5" xlink:href="#i5a-reslogo-linearGradientSlvr" gradientUnits="userSpaceOnUse" y1="1719.4" gradientTransform="matrix(7.3886 0 0 7.4552 11192 -12776)" x2="-1506.9" x1="-1506.9"/><linearGradient id="i5a-reslogo-linearGradientSlvr" x1="-1869" gradientUnits="userSpaceOnUse" y1="794.4" gradientTransform="matrix(1.301,0,0,1.301,1365,-35.3)" x2="-1869" y2="828"><stop id="i5a-reslogo-stop4422" stop-color="#696969" offset="0"/><stop id="i5a-reslogo-stop4424" stop-color="#c7c7c9" offset=".17"/><stop id="i5a-reslogo-stop4426" stop-color="#f9f9ff" offset=".36"/><stop id="i5a-reslogo-stop4428" stop-color="#ccccce" offset=".73"/><stop id="i5a-reslogo-stop4430" stop-color="#696969" offset="1"/></linearGradient><linearGradient id="i5a-linearGradient32000" y2="-251.43" xlink:href="#i5a-reslogo-linearGradientSlvr" gradientUnits="userSpaceOnUse" x2="-174.64" gradientTransform="matrix(1.9531 0 0 1.9531 388.04 512.01)" y1="-251.43" x1="-190.65"/><linearGradient id="i5a-linearGradient32008" y2="-255.41" xlink:href="#i5a-reslogo-linearGradientSlvr" gradientUnits="userSpaceOnUse" x2="-150.76" gradientTransform="matrix(1.9531 0 0 1.9531 388.04 512.01)" y1="-246.67" x1="-165.27"/><linearGradient id="i5a-reslogo-linearGradient4674" x1="-1864.1" gradientUnits="userSpaceOnUse" y1="1398.9" gradientTransform="matrix(2.6328 0 0 4.6355 4912.1 -6484.5)" x2="-1864.1" y2="1413.9"><stop id="i5a-reslogo-stop4435" stop-color="#1c072d" offset="0"/><stop id="i5a-reslogo-stop4437" stop-color="#5700aa" offset=".29"/><stop id="i5a-reslogo-stop4439" stop-color="#4b127b" offset=".64"/><stop id="i5a-reslogo-stop4441" stop-color="#290a43" offset="1"/></linearGradient></defs><g><rect id="i5a-rect32056" ry="21.158" height="70.06" width="100" y="0" x="0" fill="url(#i5a-reslogo-linearGradient4674)"/><path id="i5a-XMLID_1118_" d="m80.133 41.494 4.119-2.373 2.535-17.361 5.248-3.026c0.985-0.567 3.356-4.105 2.516-5.555s-5.095-1.173-6.08-0.605l-5.248 3.026-16.331-6.4896-4.119 2.3726 12.868 8.485-6.412 3.696-4.597-1.539-3.761 2.166 6.106 4.777 1.092 7.666 3.761-2.166 0.964-4.744 6.412-3.695z" stroke-width=".73599" fill="url(#i5a-linearGradient32008)"/><path id="i5a-XMLID_1117_" d="m46.888 16.47c0.859-3.189-8.218-6.8687-0.735-11.776l-0.112-0.592c-0.934-0.0854-1.876-0.1436-2.832-0.1436-12.012 0-22.416 6.8566-27.533 16.865l0.301 0.063c4.171-3.557 14.822 3.244 11.04 8.832-5.397 7.973 1.252 8.551 7.36 8.096 3.312-0.368 7.318-1.928 5.888-9.568-1.243-6.636 5.765-8.587 6.623-11.776z" stroke-width=".73599" fill="url(#i5a-linearGradient32000)"/><path id="i5a-XMLID_1116_" d="m71.103 48.191c-3.465 3.756-6.475 1.744-8.759-1.545-2.3-3.312-6.44-3.68-8.832 1.472s-4.876 0.368-9.567 7.36c-4.513 6.724-0.347 10.044-0.023 10.287 11.997-0.273 22.302-7.374 27.181-17.574z" fill="url(#i5a-reslogo-linearGradient5862)"/><path id="i5a-XMLID_1110_" style="color-rendering:auto;color:#000000;isolation:auto;mix-blend-mode:normal;shape-rendering:auto;solid-color:#000000" d="m57.839 42.743c-2.254 0.192-4.322 1.871-5.661 4.753-0.52 1.121-0.917 1.488-1.266 1.698-0.349 0.209-0.824 0.301-1.629 0.473-1.609 0.343-4.062 1.264-6.561 4.989-2.533 3.774-2.666 6.941-1.93 9.075 0.735 2.135 2.304 3.254 2.304 3.254a1.4727 1.4727 0 1 0 1.697 -2.407s-0.779-0.538-1.217-1.808c-0.437-1.269-0.569-3.255 1.591-6.473 2.192-3.268 3.326-3.45 4.73-3.75 0.702-0.15 1.593-0.267 2.529-0.828 0.937-0.562 1.747-1.528 2.423-2.983 1.053-2.27 2.25-2.979 3.238-3.063 0.989-0.085 2.12 0.474 3.048 1.812 1.243 1.789 2.728 3.402 4.761 4.001s4.395-0.196 6.371-2.38a1.4721 1.4721 0 1 0 -2.182 -1.976c-1.52 1.68-2.423 1.805-3.357 1.529-0.934-0.275-2.117-1.331-3.174-2.853-1.372-1.975-3.46-3.255-5.715-3.063zm-11.707-39.532a1.4721 1.4721 0 0 0 -0.786 0.2518c-2.055 1.3478-3.241 2.8018-3.559 4.406-0.317 1.6041 0.3 3.0332 1.007 4.1462 0.707 1.114 1.551 2.047 2.087 2.808s0.614 1.163 0.587 1.263c-0.093 0.348-0.483 0.909-1.175 1.579-0.691 0.67-1.626 1.437-2.548 2.365-1.844 1.857-3.644 4.652-2.926 8.488 0.667 3.558 0.05 5.281-0.82 6.26-0.865 0.973-2.279 1.396-3.765 1.564-2.955 0.215-6-0.001-7.076-0.668-0.541-0.335-0.681-0.501-0.656-1.213 0.024-0.712 0.469-2.047 1.735-3.918 1.203-1.777 1.282-3.87 0.611-5.596-0.671-1.725-1.975-3.162-3.51-4.268-1.535-1.107-3.321-1.889-5.131-2.156-1.809-0.266-3.73 0.004-5.184 1.244a1.4721 1.4721 0 1 0 1.907 2.239c0.632-0.538 1.607-0.751 2.85-0.568s2.662 0.781 3.838 1.629c1.176 0.847 2.09 1.938 2.483 2.948s0.387 1.86-0.301 2.877c-1.433 2.116-2.184 3.842-2.24 5.466-0.055 1.624 0.839 3.069 2.049 3.819 2.421 1.498 5.738 1.34 8.877 1.106a1.4721 1.4721 0 0 0 0.053 -0.008c1.818-0.202 4.058-0.737 5.661-2.54 1.604-1.804 2.275-4.677 1.511-8.759-0.524-2.8 0.557-4.3 2.121-5.875 0.782-0.787 1.685-1.523 2.51-2.323 0.825-0.799 1.633-1.679 1.968-2.926 0.403-1.494-0.332-2.747-1.022-3.727-0.69-0.979-1.491-1.87-2.01-2.689-0.52-0.8186-0.715-1.4295-0.603-1.995 0.112-0.5656 0.599-1.4083 2.285-2.5139a1.4721 1.4721 0 0 0 -0.828 -2.7161zm-33.909 24.975a1.4721 1.4721 0 0 0 -0.789 0.24c-3.0069 1.909-5.4431 3.85-7.1187 5.905-1.6757 2.056-2.6268 4.348-2.2278 6.676 0.4574 2.669 2.8336 4.538 6.073 5.581 3.2395 1.044 7.5455 1.398 12.748 0.973 10.408-0.85 24.394-4.877 39.949-13.615a1.4723 1.4723 0 1 0 -1.442 -2.567c-15.234 8.557-28.882 12.442-38.746 13.248-4.932 0.403-8.922 0.023-11.608-0.843-2.6867-0.865-3.8694-2.081-4.0744-3.277-0.2148-1.253 0.2525-2.649 1.6099-4.314 1.3573-1.665 3.5715-3.474 6.4165-5.28a1.4721 1.4721 0 0 0 -0.79 -2.727zm54.638-20.546a1.4721 1.4721 0 0 0 -0.705 0.1945l-4.117 2.3726a1.4721 1.4721 0 0 0 -0.076 2.506l10.876 7.172-3.773 2.174-3.967-1.331a1.4721 1.4721 0 0 0 -1.202 0.122l-3.761 2.167a1.4721 1.4721 0 0 0 -0.172 2.434l5.638 4.41 1.011 7.08a1.4721 1.4721 0 0 0 2.19 1.068l3.761-2.167a1.4721 1.4721 0 0 0 0.71 -0.98l0.831-4.094 3.777-2.174 0.782 12.989a1.4721 1.4721 0 0 0 2.205 1.187l4.116-2.373a1.4721 1.4721 0 0 0 0.725 -1.065l2.43-16.655 4.631-2.666c0.598-0.345 0.93-0.749 1.339-1.259 0.408-0.51 0.812-1.113 1.163-1.766s0.654-1.349 0.817-2.091c0.162-0.741 0.227-1.605-0.264-2.452-0.49-0.847-1.271-1.224-1.995-1.454s-1.478-0.316-2.22-0.339c-0.742-0.024-1.467 0.02-2.113 0.118-0.647 0.098-1.164 0.185-1.763 0.53l-4.631 2.67-15.667-6.2251a1.4721 1.4721 0 0 0 -0.576 -0.103zm0.149 3.1011 15.671 6.226a1.4721 1.4721 0 0 0 1.278 -0.092l5.249-3.025c-0.106 0.061 0.274-0.099 0.728-0.168 0.455-0.068 1.033-0.109 1.584-0.091 0.55 0.017 1.078 0.098 1.419 0.206 0.34 0.108 0.41 0.24 0.339 0.118s0.011 0-0.065 0.347-0.274 0.844-0.534 1.328c-0.26 0.483-0.579 0.961-0.866 1.32-0.287 0.358-0.617 0.61-0.511 0.549l-5.249 3.025a1.4721 1.4721 0 0 0 -0.721 1.064l-2.434 16.655-1.442 0.828-0.782-12.993a1.4721 1.4721 0 0 0 -2.205 -1.186l-6.412 3.696a1.4721 1.4721 0 0 0 -0.706 0.985l-0.831 4.093-1.301 0.747-0.786-5.512a1.4721 1.4721 0 0 0 -0.549 -0.954l-4.387-3.433 1.297-0.744 3.967 1.328a1.4721 1.4721 0 0 0 1.202 -0.118l6.412-3.697a1.4721 1.4721 0 0 0 0.076 -2.502l-10.875-7.172zm-23.8-8.2548c-17.867 0-32.383 14.516-32.383 32.383 0 17.868 14.516 32.383 32.383 32.383 16.03 0 29.364-11.67 31.933-26.989a1.4721 1.4721 0 1 0 -2.903 -0.484c-2.335 13.922-14.427 24.532-29.03 24.532-16.276 0-29.442-13.165-29.442-29.442 0-16.276 13.166-29.438 29.442-29.438 5.051 0.0002 9.793 1.2663 13.943 3.5021a1.4721 1.4721 0 1 0 1.396 -2.5902c-4.566-2.4599-9.794-3.8567-15.339-3.8567z"/></g></svg><svg xmlns:rdf="http://www.w3.org/1999/02/22-rdf-syntax-ns#" xmlns:cc="http://creativecommons.org/ns#" xmlns:xlink="http://www.w3.org/1999/xlink" xmlns:dc="http://purl.org/dc/elements/1.1/" id="i6a" height="61" width="100" version="1.1" y="1059"><defs id="i6a-defs4543"><linearGradient id="i6a-linearGradient14136" y2="374.78" gradientUnits="userSpaceOnUse" x2="198.97" gradientTransform="matrix(.76434 0 0 .76963 171.86 46.247)" y1="331.63" x1="198.97"><stop id="i6a-i24a-stop9053" stop-color="#696969" offset="0"/><stop id="i6a-i24a-stop9055" stop-color="#c7c7c9" offset=".17"/><stop id="i6a-i24a-stop9057" stop-color="#f9f9ff" offset=".36"/><stop id="i6a-i24a-stop9059" stop-color="#ccccce" offset=".73"/><stop id="i6a-i24a-stop9061" stop-color="#696969" offset="1"/></linearGradient></defs><g id="i6a-car-frnt2" transform="matrix(1.9325 0 0 1.9325 -576.06 -584.44)"><ellipse id="i6a-path19761" rx="25.873" ry="15.858" cy="318.29" cx="323.97" fill="url(#i6a-linearGradient14136)"/><g><path id="i6a-path36712-0-9" d="m313.35 319.88c0.41-0.11-0.76-1-0.76-1-0.77-0.41-6.67-2.24-6.89-2.17-0.83 0.29 0.87 2 1.42 2.31s5.82 0.97 6.23 0.86"/><path id="i6a-path36716-6-0" d="m343.86 311.96-2.84 1.12c-0.32-0.24-0.61-0.45-0.83-0.61 0.42-0.58 0.39-1.63 0.33-2.21 0.37-0.03 1.02-0.07 1.68-0.07 0.38 0 0.73 0.01 1.02 0.04 0.18 0.02 0.32 0.1 0.43 0.24 0.28 0.37 0.26 1.09 0.21 1.49m-1.83 3.3-7.83 3.01-0.01 0.01c-0.03 0-0.05 0.02-0.07 0.03-0.15 0.14-0.3 0.29-0.44 0.44-0.15 0.15-0.29 0.3-0.42 0.47-0.12 0.17-0.25 0.35-0.32 0.6-0.02 0.07-0.03 0.14-0.02 0.23 0.01 0.08 0.06 0.18 0.12 0.24 0.04 0.03 0.07 0.05 0.1 0.07 0.02 0.01 0.03 0.02 0.06 0.03l0.04 0.01c0.08 0.03 0.13 0.03 0.19 0.04 0.22 0.03 0.42 0.02 0.63 0.02 0.2-0.01 0.4-0.02 0.61-0.04 0.4-0.03 0.8-0.07 1.21-0.12 0.8-0.1 1.59-0.23 2.39-0.39 0.39-0.07 0.79-0.16 1.18-0.26 0.2-0.05 0.39-0.1 0.58-0.16 0.2-0.06 0.39-0.12 0.57-0.21-0.19 0.08-0.38 0.13-0.58 0.18-0.19 0.05-0.39 0.1-0.58 0.13-0.4 0.08-0.8 0.15-1.19 0.21-0.8 0.11-1.6 0.2-2.4 0.26-0.4 0.03-0.8 0.05-1.2 0.06-0.2 0.01-0.4 0.01-0.59 0.01-0.2-0.01-0.4-0.01-0.58-0.05l-0.06-0.01-0.03-0.01h-0.02s-0.02-0.01-0.03-0.02c0.01 0.01-0.01 0-0.01 0-0.01-0.01-0.02-0.01-0.02-0.02-0.01-0.01-0.01-0.01-0.01-0.02 0-0.02 0-0.05 0.01-0.08 0.05-0.13 0.16-0.29 0.28-0.44 0.13-0.14 0.26-0.28 0.4-0.41 0.13-0.13 0.27-0.25 0.41-0.36l8.19-2.69c0.21 1.14 0.09 4.64-0.17 7.77-1.32 0.16-2.68 0.29-4.06 0.4h-27.18c-2.9-0.17-5.08-0.33-6.15-0.42-0.26-3.13-0.38-6.62-0.17-7.75l8.19 2.69c0.14 0.11 0.28 0.23 0.41 0.36 0.14 0.13 0.28 0.27 0.4 0.41 0.12 0.15 0.24 0.31 0.28 0.44 0.01 0.03 0.01 0.06 0.01 0.08 0 0.01 0 0.01-0.01 0.02 0 0.01-0.01 0.01-0.02 0.02 0 0-0.01 0.01-0.01 0-0.01 0.01-0.02 0.02-0.03 0.02h-0.02l-0.02 0.01-0.07 0.01c-0.18 0.04-0.38 0.04-0.57 0.05-0.2 0-0.4 0-0.6-0.01-0.4-0.01-0.8-0.03-1.2-0.06-0.8-0.06-1.6-0.15-2.39-0.26-0.4-0.06-0.8-0.13-1.19-0.21-0.2-0.03-0.4-0.08-0.59-0.13-0.2-0.05-0.39-0.1-0.57-0.18 0.18 0.09 0.37 0.15 0.56 0.21s0.39 0.11 0.58 0.16c0.4 0.1 0.79 0.19 1.19 0.26 0.79 0.16 1.59 0.29 2.39 0.39 0.4 0.05 0.8 0.09 1.21 0.12 0.2 0.02 0.4 0.03 0.61 0.04 0.2 0 0.41 0.01 0.63-0.02 0.06-0.01 0.1-0.01 0.18-0.04l0.04-0.01c0.03-0.01 0.04-0.02 0.06-0.03 0.03-0.02 0.07-0.04 0.1-0.07 0.06-0.06 0.11-0.16 0.12-0.24 0.01-0.09 0-0.16-0.01-0.23-0.07-0.25-0.2-0.43-0.33-0.6s-0.27-0.32-0.41-0.47c-0.15-0.15-0.29-0.3-0.45-0.44-0.02-0.01-0.04-0.03-0.06-0.03l-0.02-0.01-7.82-3.01c0.83-0.73 2.26-1.75 2.85-2.17 0.05-0.03 0.09-0.07 0.13-0.12 2.04-0.07 10.28-0.36 15.32-0.36s13.27 0.29 15.31 0.36c0.04 0.05 0.08 0.09 0.13 0.12 0.59 0.42 2.03 1.44 2.86 2.17m-38.44-3.3c-0.05-0.4-0.06-1.12 0.22-1.49 0.1-0.14 0.24-0.22 0.43-0.24 0.29-0.03 0.63-0.04 1.01-0.04 0.67 0 1.31 0.04 1.69 0.07-0.06 0.58-0.1 1.63 0.33 2.21-0.23 0.16-0.52 0.37-0.84 0.61zm9.66-5.75c0.82-0.18 6.69-0.48 10.48-0.63 3.78 0.15 9.65 0.45 10.47 0.63 0.6 0.26 2.69 3.26 4.45 6.12-2.52-0.09-9.84-0.33-14.61-0.35h-0.63c-4.77 0.02-12.09 0.26-14.61 0.35 1.76-2.86 3.86-5.86 4.45-6.12m30.9 3.88c-0.21-0.27-0.51-0.44-0.87-0.48-0.31-0.03-0.68-0.04-1.08-0.04-1.05 0-2.02 0.1-2.07 0.1-0.08 0.01-0.16 0.06-0.21 0.12-0.05 0.07-0.07 0.16-0.06 0.24 0.1 0.63 0.1 1.56-0.12 1.99-0.36-0.58-1.13-1.82-1.96-3.06-2.42-3.6-3.03-3.74-3.32-3.81-1.01-0.24-8.1-0.56-10.21-0.65v-0.04l-0.52 0.02-0.53-0.02v0.04c-2.11 0.09-9.2 0.41-10.21 0.65-0.29 0.07-0.9 0.21-3.31 3.81-0.84 1.24-1.61 2.48-1.97 3.06-0.22-0.43-0.21-1.36-0.12-1.99 0.02-0.08 0-0.17-0.06-0.24-0.05-0.06-0.13-0.11-0.21-0.12-0.04 0-1.02-0.1-2.07-0.1-0.4 0-0.76 0.01-1.08 0.04-0.35 0.04-0.65 0.21-0.86 0.48-0.55 0.73-0.33 2.01-0.31 2.15 0.02 0.11 0.1 0.19 0.19 0.23l2.65 1.05c-0.69 0.53-1.4 1.11-1.73 1.51-0.21 0.24-0.59 0.69-0.4 5.12 0.09 2.09 0.27 4.11 0.27 4.13l0.05 0.54 0.98-0.08c2.6 0.21 11.24 0.85 20.88 0.85 5.54 0 11.41-0.22 16.65-0.85l0.88 0.08 0.05-0.54c0-0.02 0.18-2.04 0.27-4.13 0.19-4.43-0.19-4.88-0.4-5.12-0.33-0.4-1.03-0.98-1.73-1.51l2.65-1.05c0.1-0.04 0.17-0.12 0.19-0.23 0.03-0.14 0.24-1.42-0.3-2.15"/><path id="i6a-path36720-2-1" d="m341.75 316.71c-0.22-0.07-6.11 1.76-6.89 2.17 0 0-1.17 0.89-0.75 1 0.41 0.11 5.68-0.55 6.23-0.86 0.54-0.31 2.25-2.02 1.41-2.31"/><path id="i6a-path36724-1-5" d="m334.97 316.95c-0.32 0.08-0.67 0.18-1.04 0.31-0.19 0.07-0.37 0.14-0.56 0.24-0.1 0.05-0.19 0.1-0.29 0.19-0.1 0.1-0.14 0.2-0.2 0.27-0.24 0.31-0.55 0.61-0.89 0.85-0.17 0.13-0.36 0.24-0.54 0.31-0.09 0.04-0.19 0.07-0.27 0.09h-0.01-0.01-0.04l-0.09 0.01h-0.17c-0.22 0.01-0.44 0-0.66 0-0.21 0-0.43-0.01-0.65-0.01-0.44-0.02-0.87-0.03-1.29-0.05-0.84-0.03-1.62-0.06-2.29-0.09-0.77-0.04-1.39-0.07-1.78-0.08v-0.05l-0.46 0.03-0.46-0.03v0.05c-0.39 0.01-1.02 0.04-1.79 0.08-0.67 0.03-1.45 0.06-2.29 0.09-0.42 0.02-0.85 0.03-1.29 0.05-0.22 0-0.43 0.01-0.65 0.01s-0.43 0.01-0.66 0h-0.17l-0.08-0.01h-0.05-0.01c-0.09-0.02-0.18-0.05-0.28-0.09-0.18-0.07-0.36-0.18-0.53-0.31-0.35-0.24-0.66-0.54-0.9-0.85-0.06-0.07-0.1-0.17-0.2-0.27-0.09-0.09-0.19-0.14-0.28-0.19-0.19-0.1-0.38-0.17-0.56-0.24-0.37-0.13-0.72-0.23-1.05-0.31-0.65-0.17-1.2-0.29-1.59-0.36-0.38-0.08-0.6-0.12-0.6-0.12s0.22 0.05 0.59 0.15c0.38 0.11 0.92 0.26 1.56 0.47 0.31 0.1 0.66 0.22 1.01 0.37 0.17 0.08 0.35 0.16 0.51 0.26 0.08 0.05 0.16 0.11 0.21 0.16s0.09 0.15 0.16 0.24c0.24 0.38 0.55 0.7 0.9 1 0.18 0.14 0.38 0.28 0.59 0.39 0.11 0.05 0.23 0.1 0.36 0.14h0.03l0.03 0.01h0.01 0.04l0.08 0.01 0.17 0.02c0.22 0.02 0.45 0.03 0.68 0.04s0.46 0.02 0.68 0.03c0.44 0.01 0.87 0.03 1.3 0.04 0.84 0.02 1.62 0.04 2.29 0.06 0.76 0.01 1.37 0.02 1.76 0.03v0.02l0.47-0.01h0.02l0.46 0.01v-0.02c0.4-0.01 1.01-0.02 1.76-0.03 0.67-0.02 1.46-0.04 2.3-0.06 0.42-0.01 0.86-0.03 1.3-0.04 0.22-0.01 0.45-0.02 0.68-0.03 0.22-0.01 0.46-0.02 0.68-0.04l0.16-0.02 0.09-0.01h0.04 0.01l0.02-0.01h0.01 0.02c0.13-0.04 0.25-0.09 0.36-0.14 0.22-0.11 0.41-0.25 0.59-0.39 0.36-0.3 0.66-0.62 0.91-1 0.06-0.09 0.11-0.19 0.15-0.24 0.05-0.05 0.13-0.11 0.21-0.16 0.17-0.1 0.34-0.18 0.52-0.26 0.35-0.15 0.69-0.27 1.01-0.37 0.63-0.21 1.17-0.36 1.55-0.47 0.38-0.1 0.6-0.15 0.6-0.15s-0.22 0.04-0.61 0.12c-0.38 0.07-0.93 0.19-1.58 0.36"/><path id="i6a-path36728-3-4" d="m305.16 325.44s-0.54 2.43 0 3.11 5.75 0.64 6.48 0c0.74-0.65 0.35-2.85 0.35-2.85-2.1 0-6.83-0.26-6.83-0.26"/><path id="i6a-path36732-8-4" d="m335.41 325.7s-0.39 2.2 0.34 2.85c0.73 0.64 5.97 0.68 6.51 0s0-3.11 0-3.11-4.75 0.26-6.85 0.26"/></g></g></svg><svg xmlns:rdf="http://www.w3.org/1999/02/22-rdf-syntax-ns#" xmlns:cc="http://creativecommons.org/ns#" xmlns:xlink="http://www.w3.org/1999/xlink" xmlns:dc="http://purl.org/dc/elements/1.1/" id="i71a" height="101" width="100" version="1.1" viewBox="0 0 100 101.34397" y="1120"><defs id="i71a-defs34430"><radialGradient id="i71a-i71-radialGradient37146" gradientUnits="userSpaceOnUse" cy="-276.77" cx="-325.76" gradientTransform="matrix(4.4316 .059679 -.058152 4.3183 1483.9 1258.5)" r="11.08"><stop id="i71a-i71-stop2" stop-color="#b1b1b1" offset="0"/><stop id="i71a-i71-stop4" stop-color="#f8f8f8" offset=".29941"/><stop id="i71a-i71-stop6" stop-color="#b5b5b5" offset=".66945"/><stop id="i71a-i71-stop8" stop-color="#ddddde" offset=".77501"/><stop id="i71a-i71-stop10" stop-color="#696969" offset="1"/></radialGradient><radialGradient id="i71a-radialGradient34529" gradientUnits="userSpaceOnUse" cy="-276.77" cx="-325.76" gradientTransform="matrix(4.053,0,0,4.053,1377,1166)" r="11.08"><stop id="i71a-stop34519" stop-color="#787878" offset="0"/><stop id="i71a-stop34521" stop-color="#c7c7c9" offset=".17"/><stop id="i71a-stop34523" stop-color="#f9f9ff" offset=".36"/><stop id="i71a-stop34525" stop-color="#ccccce" offset=".73"/><stop id="i71a-stop34527" stop-color="#696969" offset="1"/></radialGradient><linearGradient id="i71a-linearGradient35161" y2="13.866" xlink:href="#i71a-radialGradient34529" gradientUnits="userSpaceOnUse" x2="25.911" gradientTransform="matrix(3.7161 0 0 3.7161 .97983 .69030)" y1="13.866"/><linearGradient id="i71a-linearGradient35171" y2="18.356" xlink:href="#i71a-radialGradient34529" gradientUnits="userSpaceOnUse" x2="16.283" gradientTransform="matrix(3.7161 0 0 3.7161 .97983 .69030)" y1="18.356" x1=".84417"/><linearGradient id="i71a-linearGradient35181" y2="5.9591" xlink:href="#i71a-radialGradient34529" gradientUnits="userSpaceOnUse" x2="26.458" gradientTransform="matrix(3.7161 0 0 3.7161 .97983 .69030)" y1="5.9591" x1="14.768"/></defs><path id="i71a-path35153" style="color-rendering:auto;color:#000000;isolation:auto;mix-blend-mode:normal;shape-rendering:auto;solid-color:#000000" d="m49.093 3.0927c-27.075 0-49.093 22.042-49.093 49.136 0.000070186 11.779 4.1711 22.611 11.112 31.079l0.029 0.036 7.243 7.171 0.037 0.036c8.412 6.75 19.093 10.789 30.694 10.789 27.075 0 49.136-22.038 49.136-49.133 0-1.678-0.089-3.333-0.254-4.964v-0.007c-2.29-23.518-21.867-40.46-40.485-43.41l-0.022-0.0075c-2.728-0.473-5.535-0.7258-8.397-0.7258zm8.419 0.733 0.174 0.0436-0.116-0.0363zm-8.419 1.2339c2.73 0 5.409 0.241 8.013 0.6895l0.014 0.0073 0.087 0.0145c17.674 2.8005 36.64 19.13 38.831 41.661 0.159 1.57 0.246 3.164 0.246 4.775 0 26.029-21.16 47.17-47.169 47.17-11.144 0-21.382-3.883-29.46-10.364l-7.033-6.968c-6.6592-8.13-10.662-18.507-10.662-29.816-0.0003-26.029 21.124-47.169 47.133-47.169zm1.902 3.8467v14.726l0.972 0.014c5.081 0.077 10.532 0.449 16.236 1.249l1.604 0.225-0.537-1.525c-1.327-3.77-2.692-6.725-3.73-8.753-0.52-1.014-0.957-1.801-1.271-2.337-0.003-0.006-0.003-0.008-0.007-0.014l0.871-0.581-1.872-0.653c-3.551-1.233-7.312-2.0134-11.214-2.2791zm-4.863 0.0726c-0.096 0.0065-0.18 0.0509-0.276 0.0581-3.744 0.2794-7.372 0.998-10.793 2.17l-1.872 0.639 0.951 0.639c-0.009 0.015-0.013 0.02-0.022 0.036-0.318 0.543-0.759 1.337-1.285 2.366-1.051 2.058-2.43 5.059-3.767 8.884l-0.53 1.531 1.604-0.232c0.919-0.134 1.856-0.265 2.816-0.385 3.887-0.489 8.353-0.87 13.261-1.001l0.958-0.029v-13.696l-0.646 0.922zm-0.922 2.1701v10.64c-4.565 0.158-8.835 0.49-12.498 0.951-0.39 0.049-0.758 0.101-1.14 0.152 1.074-2.829 2.177-5.469 3.012-7.105 0.508-0.994 0.934-1.759 1.234-2.272 0.139-0.238 0.247-0.407 0.327-0.537 2.887-0.954 5.935-1.533 9.065-1.829zm7.751 0c3.231 0.305 6.374 0.896 9.342 1.902 0.075 0.122 0.151 0.249 0.268 0.45 0.296 0.505 0.718 1.256 1.219 2.235 0.835 1.629 1.935 4.251 3.012 7.084-4.818-0.609-9.475-0.965-13.841-1.06zm-23.864 2.49-2.7 1.669c-4.767 2.946-8.928 6.784-12.237 11.286l-1.662 2.257 2.715-0.726c2.364-0.635 5.229-1.324 8.528-1.966l0.573-0.109 0.174-0.566c1.086-3.537 2.256-6.533 3.325-8.942zm40.202 0.283 1.067 2.598c0.749 1.833 3.349 9.029 3.361 9.058l0.196 0.464 8.745 2.011 1.546 1.96v-3.622l-0.464-0.109c-3.285-4.136-6.893-8.147-11.998-10.996zm4.065 5.015c2.67 1.925 5.022 4.134 7.105 6.597l-5.102-1.175c-0.155-0.428-1.106-3.001-2.003-5.422zm-48.788 0.668c-0.595 1.537-1.184 2.908-1.764 4.746-1.709 0.341-3.038 0.69-4.5 1.038 1.88-2.151 3.981-4.059 6.264-5.784zm27.391 7.86-0.965 0.022v0.965c0 6.94-0.013 13.881 0.043 20.83l0.008 0.966 0.965 0.007c6.996 0.046 13.992 0.071 20.99 0.051l2.366-0.007-1.451-1.452c-0.217-5.557-0.967-12.586-2.925-18.893l-0.204-0.653-0.689-0.036c-5.533-0.261-11.062-1.922-18.138-1.8zm-4.783 0.015-1.016 0.029c-4.635 0.13-8.853 0.486-12.542 0.943-1.982 0.247-3.872 0.528-5.661 0.827l-0.624 0.109-0.167 0.61c-0.365 1.392-0.709 2.847-1.023 4.377-0.867 4.208-1.545 9.23-1.721 14.915l-0.014 0.312 0.174 0.261 0.298 0.443h0.522c6.915 0 13.863 0.115 20.816-0.08l0.958-0.022zm5.785 2.046c5.96 0.057 10.997 1.274 16.243 1.626 1.69 5.709 2.416 12.02 2.649 17.187-6.283 0.014-12.564-0.012-18.849-0.051-0.044-6.251-0.045-12.504-0.043-18.762zm-7.752 0.022v18.718c-6.217 0.15-12.459 0.076-18.711 0.066 0.223-5.09 0.789-9.738 1.575-13.558 0.262-1.276 0.557-2.474 0.857-3.651 1.578-0.257 3.201-0.504 4.928-0.719 3.335-0.413 7.218-0.705 11.351-0.856zm29.968 0.421 0.342 1.502c1.257 5.566 1.973 11.606 2.279 17.899l0.05 0.936h14.553l-0.08-1.053c-0.339-4.706-1.75-10.287-3.847-15.111l-0.907 0.392 0.283-0.951c-2.673-0.788-8.365-2.675-11.163-3.287zm-53.513 0.523c-5.482 1.202-9.443 2.447-11.373 3.106l-0.3991 0.138-0.1742 0.377c-2.1512 4.659-3.498 9.767-3.8613 15.133l-0.0653 1.053h14.785l0.029-0.958c0.178-6.127 0.921-11.523 1.865-16.026 0.073-0.35 0.156-0.694 0.232-1.038l0.153-0.036v-0.791l-1.8-0.204zm55.981 2.133c2.664 0.7 6.614 1.939 9.123 2.693 1.772 4.188 2.903 8.916 3.325 13.021h-10.445c-0.304-5.478-0.975-10.731-2.003-15.714zm-57.077 0.204c-0.006 0.029-0.015 0.057-0.021 0.087-0.91 4.338-1.567 9.614-1.8 15.416h-10.655c0.4342-4.58 1.4986-8.984 3.31-13.007 1.674-0.564 5.075-1.524 9.166-2.496zm30.426 21.193v22.318l1.001-0.014c5.804-0.091 12.113-0.579 18.726-1.677l0.646-0.109 0.145-0.646c1.465-6.403 2.109-12.321 2.337-17.818h0.124v-0.987l-1.938-0.029 0.958-0.951c-7.012 0-14.017 0.096-20.99-0.065zm-3.753 0.058-0.994 0.007c-6.946 0.023-13.887 0.034-20.83 0.022h-1.016l0.029 1.016c0.192 5.651 0.968 12.45 2.649 18.559l0.167 0.609 0.624 0.102c6.184 1 11.508 1.709 17.876 1.851l1.43 1.43v-2.374c0-6.749-0.015-13.482 0.058-20.22zm-41.102 0.036-0.2322 0.661-0.0654 0.188 0.0145 0.204c0.344 5.081 1.5663 9.933 3.5202 14.392l0.1742 0.392 0.4064 0.138c1.7578 0.613 5.7688 1.906 11.461 3.165l1.473 0.326-0.298-1.48c-1.228-6.078-1.83-11.776-1.988-17.028l-0.029-0.958zm72.63 0v1.967l-0.98-1.009c-0.159 5.311-0.77 11.076-2.025 17.224l-0.305 1.487 1.481-0.333c3.642-0.807 7.347-1.803 11.105-3.034l0.414-0.138 0.181-0.392c2.039-4.549 3.312-9.511 3.665-14.719l0.073-1.053h-12.593zm-25.809 1.895c6.314 0.124 12.623 0.073 18.914 0.065-0.218 5.152-0.871 10.722-2.192 16.701-5.883 0.938-11.488 1.375-16.722 1.495zm-7.694 0.043c-0.058 6.063-0.052 12.113-0.051 18.167-5.727-0.164-10.689-0.794-16.337-1.698-1.42-5.406-2.106-11.315-2.337-16.447 6.243 0.008 12.482-0.002 18.725-0.022zm-37.197 0.029h10.677c0.181 4.634 0.758 9.631 1.734 14.879-4.347-1.035-7.833-2.058-9.406-2.598-1.6306-3.825-2.5977-7.974-3.0049-12.281zm71.578 0h10.437c-0.419 4.429-1.426 8.686-3.135 12.6-3.067 0.989-6.088 1.783-9.08 2.482 1.002-5.321 1.595-10.384 1.778-15.082zm-67.39 18.748 1.299 2.155c2.842 4.737 6.852 8.277 11.809 11.475l1.517 0.98v-1.974l-0.058-0.16c-0.99-2.79-2.047-6.267-3.056-9.363l-0.181-0.551-0.574-0.109c-2.977-0.549-5.658-0.954-8.339-1.742zm72.289 0.653-1.241 0.334c-2.781 0.751-5.533 1.387-8.237 1.923l-0.603 0.123-0.152 0.588c-0.751 2.82-1.634 5.704-2.678 8.652l-0.988 2.794 2.461-1.647c4.38-2.93 8.191-6.626 11.25-10.909l0.188-0.261v-0.313zm-67.658 2.526c1.71 0.377 3.416 0.768 5.189 1.088 0.623 1.928 1.263 3.876 1.902 5.828-2.799-2.048-5.169-4.332-7.091-6.916zm63.471 0.515c-1.726 2.044-3.649 3.882-5.734 5.559 0.481-1.521 1.004-3.063 1.408-4.55 1.423-0.289 2.88-0.663 4.326-1.009zm-52.28 0.109 0.363 1.255c1.143 3.923 2.566 7.981 4.319 12.15l0.167 0.378 0.384 0.152c4.02 1.579 8.328 2.567 12.818 2.874l1.052 0.073v-15.373l-0.958-0.029c-4.911-0.144-11.099-0.651-16.686-1.473l-0.072-0.007h-0.073zm40.754 0.174c-5.929 0.863-11.594 1.263-16.86 1.343l-0.966 0.014v15.351l1.045-0.073c4.597-0.313 9.005-1.345 13.101-2.983l0.378-0.152 0.159-0.385c1.704-4.071 3.102-8.024 4.224-11.859l-0.704 0.667zm-38.01 1.916c4.906 0.659 10.026 1.11 14.392 1.27v11.25c-3.757-0.357-7.401-1.119-10.799-2.417-1.439-3.463-2.588-6.817-3.593-10.103zm36.718 0.16c-0.983 3.201-2.111 6.463-3.506 9.834-3.475 1.353-7.205 2.159-11.061 2.526v-11.206c4.588-0.101 9.487-0.481 14.567-1.154z" fill="url(#i71a-linearGradient35161)"/><circle id="i71a-i71-circle15" r="44.131" cy="51.782" cx="50.175" stroke-width="3.9829" fill="url(#i71a-i71-radialGradient37146)"/><path id="i71a-i71-path17" stroke-width="3.9829" d="m46.192 9.961v12.738c-4.943 0.133-9.443 0.522-13.359 1.014-0.968 0.121-1.909 0.25-2.834 0.384 2.641-7.555 5.433-11.84 5.473-11.9l-0.09-0.061c3.427-1.175 7.053-1.92 10.813-2.1761zm5.788 0c3.813 0.26 7.492 1.024 10.961 2.229l-0.012 0.008c0.04 0.057 2.792 4.277 5.413 11.725-5.748-0.806-11.244-1.178-16.362-1.256zm-25.068 6.181c-1.083 2.443-2.265 5.477-3.362 9.054-3.323 0.646-6.21 1.336-8.596 1.978 3.234-4.401 7.298-8.153 11.958-11.032zm-1.007 71.494c-4.883-3.15-8.755-6.58-11.498-11.153 2.762 0.812 5.476 1.223 8.435 1.768 1.005 3.082 2.062 6.56 3.063 9.384zm-0.495-38.316c0.174-5.624 0.851-10.586 1.707-14.744 0.311-1.512 0.651-2.95 1.011-4.326 1.776-0.298 3.649-0.575 5.616-0.82 3.661-0.454 7.854-0.81 12.455-0.94v20.756c-6.923 0.194-13.861 0.077-20.787 0.077zm47.596 0c-6.994 0.02-13.984 0-20.978-0.046-0.056-6.943-0.041-13.881-0.041-20.822 6.911-0.119 12.38 1.528 18.071 1.796 1.964 6.321 2.754 13.522 2.946 19.07zm14.573-14.788c2.05 4.716 3.442 10.224 3.77 14.788h-12.558c-0.308-6.336-1.029-12.427-2.303-18.063 2.651 0.58 8.372 2.472 11.088 3.273m-4.344-7.353-8.596-1.978c-0.012-0.029-2.576-7.13-3.362-9.054 5.055 2.821 8.635 6.823 11.958 11.033zm-25.909-22.392c-2.674-0.4635-5.425-0.7085-8.23-0.7085-26.542 0-48.113 21.593-48.113 48.154-0.0001 11.547 4.0863 22.153 10.889 30.453l7.169 7.099c8.245 6.615 18.704 10.578 30.076 10.578 26.542 0 48.153-21.588 48.153-48.149 0-1.647-0.088-3.274-0.25-4.876-2.238-23.026-21.511-39.662-39.658-42.537zm15.676 50.305c-0.182 5.675-0.905 11.904-2.434 18.588-6.56 1.089-12.817 1.572-18.577 1.663v-20.314c6.998 0.162 14.008 0.065 21.011 0.065zm-26.797 20.213c-6.508-0.114-11.845-0.86-18.166-1.882-1.652-6.002-2.423-12.741-2.613-18.329 6.946 0.012 13.887-0.001 20.834-0.024-0.073 6.748-0.053 13.49-0.053 20.237zm-24.32-43.852c-0.125 0.547-0.247 1.098-0.364 1.663-0.955 4.555-1.708 10.012-1.888 16.201h-12.781c0.3546-5.244 1.6674-10.235 3.769-14.787 1.899-0.649 5.824-1.882 11.264-3.075zm-15.035 23.651h12.785c0.16 5.304 0.762 11.06 2.002 17.194-5.647-1.249-9.622-2.531-11.347-3.133-1.9092-4.357-3.1049-9.093-3.4411-14.059zm71.931 0h12.558c-0.345 5.09-1.592 9.937-3.585 14.382-3.725 1.22-7.405 2.211-11.017 3.011 1.267-6.205 1.884-12.029 2.045-17.393zm4.792 21.666c-2.99 4.187-6.719 7.803-11.001 10.667 1.054-2.974 1.944-5.883 2.701-8.727 2.726-0.54 5.496-1.184 8.3-1.941zm-54.168 2.846c5.632 0.829 11.849 1.341 16.804 1.486v13.363c-4.39-0.301-8.6-1.266-12.526-2.808-1.739-4.135-3.15-8.154-4.282-12.041zm39.575 0.171c-1.113 3.801-2.493 7.724-4.183 11.761-4.002 1.601-8.304 2.611-12.797 2.917v-13.326c5.306-0.081 11.009-0.483 16.983-1.353z"/><path id="i71a-path35163" style="color-rendering:auto;color:#000000;isolation:auto;mix-blend-mode:normal;shape-rendering:auto;solid-color:#000000" d="m58.136 38.86-0.486 0.486-7.577 7.665 4.326 4.275 8.063-8.144zm0.008 1.945 2.366 2.344-6.126 6.192-2.366-2.345zm-9.472 7.614-0.486 0.486-7.578 7.664 4.326 4.275 8.071-8.143zm0.007 1.945 2.374 2.344-6.126 6.191-2.366-2.344zm-9.464 7.614-0.486 0.486-7.585 7.664 4.326 4.275 8.071-8.143zm0.007 1.945 2.366 2.344-6.126 6.191-2.366-2.344zm-9.472 7.613-0.486 0.487-7.577 7.664 4.326 4.275 8.063-8.143zm0.008 1.945 2.366 2.345-6.126 6.191-2.366-2.337zm-9.472 7.614-0.486 0.486-7.578 7.665 4.326 4.282 8.064-8.151zm0.007 1.945 2.374 2.345-6.126 6.191-2.373-2.345zm-9.079 7.476-0.487 0.486-7.5843 7.657 4.3258 4.29 8.0635-8.151zm0.007 1.945 2.366 2.344-6.1258 6.191-2.3734-2.344z" fill="url(#i71a-linearGradient35171)"/><path id="i71a-i71-path19" stroke-width="3.9829" fill="#290a43" d="m58.141 39.833-7.097 7.169 3.346 3.312 7.097-7.17zm-9.463 9.559-7.094 7.169 3.347 3.312 7.097-7.17zm-9.46 9.559-7.097 7.169 3.346 3.312 7.097-7.169zm-9.463 9.559-7.098 7.17 3.349 3.311 7.094-7.169zm-9.464 9.559-7.093 7.169 3.346 3.314 7.097-7.169zm-9.076 9.42-7.0982 7.169 3.3461 3.314 7.0981-7.169z"/><path id="i71a-path35173" style="color-rendering:auto;color:#000000;isolation:auto;mix-blend-mode:normal;shape-rendering:auto;solid-color:#000000" d="m58.695 0.0007919c-0.243 0.00664-0.551 0.049147-0.827 0.29758s-0.383 0.68007-0.334 1.0233c0.049 0.3434 0.198 0.6696 0.428 1.067 0.461 0.7947 1.302 1.8649 2.78 3.4402l0.022 0.0218 15.169 13.79c-2.673 2.616-7.79 7.707-11.344 11.598l-7.846-2.983-0.036-0.007s-0.167-0.045-0.371-0.058c-0.203-0.013-0.514-0.06-0.871 0.261-0.178 0.161-0.295 0.439-0.297 0.675-0.003 0.236 0.067 0.427 0.16 0.617 0.185 0.381 0.5 0.787 1.037 1.35l0.022 0.022 4.885 4.13c-0.068 0.109-0.166 0.237-0.218 0.341-0.067 0.134-0.12 0.262-0.152 0.435-0.033 0.174-0.053 0.466 0.174 0.726l0.007 0.007 0.087 0.102v0.007c-0.333 0.315-0.363 0.856-0.065 1.205l0.014 0.022 0.022 0.014c0.328 0.333 0.831 0.366 1.198 0.051h0.014c0.231 0.268 0.539 0.296 0.719 0.283 0.179-0.013 0.314-0.056 0.457-0.109 0.113-0.042 0.256-0.13 0.378-0.189l3.679 5.444 0.022 0.029c0.503 0.594 0.875 0.951 1.234 1.176 0.179 0.112 0.36 0.195 0.595 0.218 0.235 0.022 0.525-0.065 0.704-0.225 0.358-0.321 0.34-0.631 0.349-0.835 0.008-0.204-0.015-0.37-0.015-0.37l-0.007-0.037-2.17-8.303c4.258-3.119 9.832-7.623 12.701-9.987l12.179 16.679 0.022 0.022c1.407 1.638 2.38 2.592 3.121 3.135 0.37 0.272 0.679 0.453 1.016 0.537 0.336 0.085 0.776 0.024 1.052-0.225 0.276-0.248 0.352-0.542 0.385-0.783 0.033-0.242 0.015-0.463-0.007-0.661-0.044-0.396-0.138-0.726-0.138-0.726l-0.683 0.196 0.668-0.254-9.682-24.895 6.67-5.995c0.358-0.32 0.727-0.829 1.212-1.531s1.036-1.5616 1.539-2.4388c0.502-0.8773 0.957-1.7682 1.263-2.5476 0.153-0.3897 0.272-0.7521 0.334-1.0959 0.06-0.3439 0.1-0.6845-0.095-1.067l-0.072-0.1379-0.131-0.0943c-0.353-0.2662-0.708-0.2751-1.06-0.2613-0.351 0.0138-0.723 0.0795-1.132 0.1815-0.818 0.2038-1.769 0.5512-2.714 0.9435-0.946 0.3923-1.882 0.8275-2.649 1.2266-0.768 0.3991-1.323 0.7083-1.692 1.0379l-6.713 6.0313-23.589-12.208 0.378 0.60981s-0.744-0.77013-1.132-0.85644c-0.195-0.043152-0.411-0.079218-0.654-0.072578zm0.334 1.4153c0.006 0.0012 0.009-0.0013 0.015 0 0.24 0.0533 0.445 0.1374 0.464 0.1452 0.001 0.0003 0.022 0.0072 0.022 0.0072l24.372 12.622 7.425-6.6699c0.089-0.0795 0.68-0.4633 1.408-0.842s1.635-0.8001 2.541-1.1758c0.905-0.3756 1.813-0.7025 2.518-0.8782 0.32-0.0796 0.578-0.1165 0.777-0.1306-0.041 0.1988-0.111 0.4591-0.233 0.7693-0.264 0.6736-0.701 1.5185-1.183 2.3589-0.481 0.8403-1.012 1.6771-1.473 2.3443-0.461 0.667-0.904 1.204-1.002 1.292l-7.374 6.626 10.002 25.73s0.066 0.237 0.094 0.494c0.001 0.008-0.001 0.013 0 0.021-0.092-0.049-0.127-0.048-0.268-0.152-0.577-0.423-1.517-1.32-2.889-2.918l-12.985-17.782-0.566 0.465c-2.776 2.295-9.163 7.469-13.579 10.676l-0.385 0.276 2.155 8.252c-0.095-0.102-0.111-0.091-0.225-0.225l-4.311-6.387-0.551 0.327c-0.284 0.166-0.493 0.262-0.646 0.326l-0.029-0.029-0.683-0.747-0.094-0.109c0.079-0.143 0.194-0.329 0.385-0.588l0.384-0.515-5.755-4.856-0.007-0.007c-0.121-0.127-0.105-0.148-0.196-0.254l7.802 2.968 0.319-0.348c3.656-4.035 9.534-9.865 12.128-12.397l0.523-0.515-16.178-14.705c-1.442-1.5363-2.239-2.5666-2.598-3.1858-0.089-0.1525-0.085-0.1866-0.124-0.2831z" fill="url(#i71a-linearGradient35181)"/><path id="i71a-i71-path21" d="m97.97 43.417-9.853-25.335 7.025-6.313c0.911-0.817 4.687-6.703 4.097-7.8542-1.027-0.7746-7.458 2.2755-8.374 3.0936l-7.065 6.3486-24.01-12.426c0-0.00054-4.385-1.7957 1.456 4.4285l15.68 14.25c-2.601 2.537-8.48 8.369-12.16 12.431l-8.233-3.127s-1.72-0.444 0.328 1.702l5.317 4.493c-0.465 0.632-0.693 1.06-0.58 1.19l0.549 0.608-0.507 0.454c-0.072 0.068-0.081 0.183-0.012 0.264 0.067 0.068 0.185 0.077 0.261 0.012l0.505-0.455 0.482 0.527c0.114 0.133 0.578-0.053 1.266-0.455l3.994 5.915c1.919 2.266 1.658 0.507 1.658 0.507l-2.278-8.699c4.446-3.228 10.835-8.404 13.619-10.705l12.585 17.234c5.558 6.472 4.246 1.916 4.246 1.916" stroke-width="3.9829" fill="#290a43"/></svg></svg>
