<?xml version="1.0" encoding="UTF-8" standalone="no"?>
<!-- Created with Inkscape (http://www.inkscape.org/) -->

<svg
   xmlns:dc="http://purl.org/dc/elements/1.1/"
   xmlns:cc="http://creativecommons.org/ns#"
   xmlns:rdf="http://www.w3.org/1999/02/22-rdf-syntax-ns#"
   xmlns:svg="http://www.w3.org/2000/svg"
   xmlns="http://www.w3.org/2000/svg"
   xmlns:sodipodi="http://sodipodi.sourceforge.net/DTD/sodipodi-0.dtd"
   xmlns:inkscape="http://www.inkscape.org/namespaces/inkscape"
   width="99.999962"
   height="87.157959"
   viewBox="0 0 26.458322 23.060543"
   version="1.1"
   id="svg1186"
   inkscape:version="0.92.2 (5c3e80d, 2017-08-06)"
   sodipodi:docname="i1.svg">
  <defs
     id="defs1180" />
  <sodipodi:namedview
     id="base"
     pagecolor="#ffffff"
     bordercolor="#666666"
     borderopacity="1.0"
     inkscape:pageopacity="0.0"
     inkscape:pageshadow="2"
     inkscape:zoom="0.35"
     inkscape:cx="823.22262"
     inkscape:cy="-249.28747"
     inkscape:document-units="px"
     inkscape:current-layer="layer1"
     showgrid="false"
     fit-margin-top="0"
     fit-margin-left="0"
     fit-margin-right="0"
     fit-margin-bottom="0"
     units="px"
     inkscape:window-width="2560"
     inkscape:window-height="1018"
     inkscape:window-x="-8"
     inkscape:window-y="-8"
     inkscape:window-maximized="1" />
  <metadata
     id="metadata1183">
    <rdf:RDF>
      <cc:Work
         rdf:about="">
        <dc:format>image/svg+xml</dc:format>
        <dc:type
           rdf:resource="http://purl.org/dc/dcmitype/StillImage" />
        <dc:title></dc:title>
      </cc:Work>
    </rdf:RDF>
  </metadata>
  <g
     inkscape:label="Layer 1"
     inkscape:groupmode="layer"
     id="layer1"
     transform="translate(341.4092,-59.815479)">
    <path
       id="passports"
       style="color:#000000;display:inline;overflow:visible;visibility:visible;fill:#000000;fill-opacity:1;stroke:none;stroke-width:0.82693851"
       d="m -327.35123,59.828498 c -0.0866,0.03502 -0.16089,0.09987 -0.20672,0.18093 0,0.01298 0,0.01687 0,0.02596 -0.20465,0.07263 -0.45258,0.05837 -0.56853,0.25836 l -1.0595,1.809041 h -0.6461 -5.78854 -1.60219 -3.17855 c -0.53089,0 -1.00784,0.416852 -1.00784,0.956141 v 17.107272 c 0,0.53916 0.47708,0.956141 1.00784,0.956141 h 3.17855 1.60219 5.78854 1.6539 0.0256 l 1.0337,0.59428 1.42127,0.826961 c 1.18396,0.683511 2.70172,0.279502 3.38528,-0.90439 l 7.02902,-12.197396 c 0.68352,-1.183892 0.27947,-2.701628 -0.90446,-3.385269 l -1.42129,-0.826961 -5.01332,-2.894229 -1.39546,-0.77534 -2.7651,-1.602172 c -0.11808,-0.06874 -0.24297,-0.110243 -0.36174,-0.129695 -0.0675,-0.01687 -0.1393,-0.01687 -0.20678,0 z m 0.0775,0.80115 0.0775,0.02596 2.76504,1.602171 1.39552,0.801151 1.31795,0.775207 c 0.0319,0.02206 0.0666,0.0389 0.10337,0.05187 l 3.59204,2.067402 0.0517,0.02596 c 0.76179,0.47288 0.99504,1.438877 0.54266,2.222388 l -7.02901,12.197265 c -0.4617,0.799724 -1.44868,1.05588 -2.24821,0.594411 l -0.28425,-0.15512 c 0.5062,-0.276776 0.89623,-0.725405 1.11119,-1.266248 0.0707,-0.177947 0.12724,-0.373273 0.15504,-0.56847 0.0196,-0.114131 0.0256,-0.238517 0.0256,-0.36173 v -0.180934 -3.333649 c 1.92749,0.07393 3.82868,-0.878452 4.85826,-2.661679 1.48175,-2.566351 0.60214,-5.883399 -1.96399,-7.364949 -0.91671,-0.529042 -1.93179,-0.741617 -2.9201,-0.69765 -0.0964,-1.279868 -1.15104,-2.299948 -2.45497,-2.299948 h -0.0256 l 0.80112,-1.395431 c 0.025,-0.0441 0.12916,-0.07782 0.12916,-0.07782 z m 1.57632,17.830867 0.3619,0.18093 -0.5427,0.930201 0.36176,0.20674 0.54264,-0.930201 0.33599,0.20661 0.15505,-0.28417 -1.03368,-0.59441 z M -340.40135,62.9296 h 3.17852 1.60222 5.78856 c 0.9233,0 1.65389,0.730463 1.65389,1.653788 v 14.058057 c 0,0.923325 -0.73059,1.653788 -1.65389,1.653788 h -5.78856 -1.60222 -3.17852 c -0.11461,0 -0.18088,-0.06226 -0.18088,-0.129696 V 63.058261 c 0,-0.06615 0.0664,-0.129699 0.18088,-0.129699 z m 12.42992,0.02596 c 0.15447,0.01946 0.30175,0.04539 0.43928,0.103759 0.0993,0.0415 0.1964,0.09598 0.28431,0.15499 0.35154,0.236183 0.61059,0.600377 0.6977,1.033701 0.0219,0.108951 0.026,0.220487 0.026,0.33592 v 14.057926 c 0,0.115435 -0.005,0.227622 -0.026,0.33605 -0.0202,0.103759 -0.0648,0.1891 -0.10337,0.28417 -0.004,0.01298 0.004,0.01817 0,0.02596 -0.0367,0.0869 -0.0785,0.180282 -0.1292,0.25849 -0.006,0.01298 -0.0196,0.01687 -0.0256,0.02596 -0.0498,0.07263 -0.094,0.143187 -0.15504,0.206737 -0.0156,0.01687 -0.0353,0.03502 -0.0516,0.05189 -0.12839,0.12192 -0.27475,0.234498 -0.43932,0.309981 -0.025,0.01298 -0.0518,0.01558 -0.0775,0.02596 -0.13573,0.05447 -0.28716,0.08431 -0.43933,0.103759 0.38251,-0.436565 0.62016,-1.003738 0.62016,-1.627978 V 64.58488 c 0,-0.631376 -0.22993,-1.1896 -0.62016,-1.628112 z m -6.40878,1.627978 c -2.96325,0 -5.3751,2.411751 -5.3751,5.375107 0,2.963359 2.41185,5.375111 5.3751,5.375111 2.96319,0 5.37511,-2.411752 5.37511,-5.375111 0,-2.963356 -2.41192,-5.375107 -5.37511,-5.375107 z m 9.81989,0.77521 c 0.32564,0.07523 0.64347,0.166404 0.95617,0.31011 l -0.8011,1.369618 -1.24043,-0.723587 c 0.33656,-0.32762 0.69922,-0.645641 1.08536,-0.956141 z m -10.23337,0.129699 v 1.576358 h -1.4471 c 0.12776,-0.441104 0.2891,-0.892846 0.46515,-1.343677 0.31533,-0.102467 0.63752,-0.200388 0.98195,-0.232681 z m 0.82693,0 c 0.33265,0.03112 0.65317,0.108951 0.95619,0.20674 0.17979,0.458615 0.33533,0.921121 0.46514,1.369618 h -1.42133 z m 11.06032,0.620221 c 0.27666,0.196361 0.50474,0.432674 0.7236,0.671967 -0.073,0.479107 -0.14789,0.949785 -0.25846,1.395431 l -1.24036,-0.723591 z m -9.07046,0.07781 c 0.37496,0.243316 0.71504,0.532934 1.00781,0.878711 h -0.74943 c -0.0782,-0.290783 -0.16045,-0.586756 -0.25838,-0.878711 z m -4.88414,0.02596 c -0.0938,0.281578 -0.15715,0.572364 -0.23255,0.85277 h -0.72356 c 0.2799,-0.330862 0.59657,-0.615551 0.95611,-0.85277 z m 20.44089,0.69778 c 0.6563,0.497656 0.83863,1.382719 0.41349,2.119022 l -7.02898,12.197395 c -0.42317,0.732929 -1.28447,1.01217 -2.04152,0.697651 0.54811,-0.186248 1.03205,-0.571326 1.34381,-1.111131 l 7.02893,-12.197395 c 0.31327,-0.542531 0.39832,-1.135125 0.28427,-1.705542 z m -9.27721,0.335921 0.87863,0.51685 -0.82695,1.447181 -0.0516,-0.02596 z m 4.18639,0.4651 c 0.20784,0.398435 0.35968,0.818658 0.43932,1.26638 l -0.64605,-0.387669 c 0.077,-0.287285 0.14599,-0.580923 0.20673,-0.878711 z m -16.87473,0.18093 h 1.08538 c -0.1109,0.549532 -0.17463,1.103607 -0.20675,1.653918 h -1.34375 c 0.0554,-0.592593 0.20521,-1.149909 0.46512,-1.653918 z m 1.93816,0 h 1.65387 v 1.653918 h -1.88643 c 0.0343,-0.554331 0.11018,-1.095823 0.23256,-1.653918 z m 2.48078,0 h 1.6281 c 0.12226,0.558095 0.19821,1.099587 0.23255,1.653918 h -1.86065 z m 2.455,0 h 1.11118 c 0.26304,0.506734 0.43525,1.057174 0.49102,1.653918 h -1.39544 c -0.0319,-0.550311 -0.0958,-1.104386 -0.20676,-1.653918 z m 7.41659,0.2843 1.42133,0.826961 c -0.17353,0.540453 -0.3985,1.057434 -0.64605,1.550418 l -1.6022,-0.930201 z m 2.11908,1.214498 0.98195,0.5686 c -0.0247,0.577549 -0.15848,1.154192 -0.41348,1.705542 l -1.21457,-0.697781 c 0.2531,-0.501286 0.4641,-1.035125 0.6461,-1.576361 z m -3.35945,0.956271 1.62802,0.9302 c -0.28343,0.463802 -0.61294,0.893107 -0.98197,1.318 l -1.00785,-0.568599 V 70.96733 Z m -13.51531,0.02596 h 1.31795 c 0.01,0.552647 0.0834,1.094009 0.18086,1.65379 h -1.03366 c -0.25877,-0.502973 -0.40986,-1.062751 -0.46515,-1.65379 z m 2.14488,0 h 1.91228 v 1.65379 h -1.75724 c -0.10444,-0.550832 -0.1438,-1.111779 -0.15504,-1.65379 z m 2.73921,0 h 1.88648 c -0.012,0.542011 -0.0507,1.102958 -0.15504,1.65379 h -1.73144 z m 2.68759,0 h 1.36961 c -0.0553,0.590001 -0.20711,1.151596 -0.46519,1.65379 h -1.08536 c 0.0976,-0.559781 0.17129,-1.101143 0.18094,-1.65379 z m 8.26938,1.292061 1.16285,0.67184 c -0.35056,0.491427 -0.77953,0.882211 -1.26623,1.188688 l -0.85276,-0.490911 c 0.36315,-0.436175 0.67202,-0.895829 0.95614,-1.369617 z m -14.83319,1.188688 h 0.67188 c 0.0709,0.281188 0.1379,0.568599 0.23254,0.85277 -0.3434,-0.230603 -0.63676,-0.531895 -0.90442,-0.85277 z m 1.52468,0 h 1.52463 v 1.57636 c -0.3724,-0.03502 -0.72077,-0.11802 -1.05953,-0.23255 -0.18856,-0.460691 -0.34207,-0.896088 -0.4651,-1.34381 z m 2.35154,0 h 1.49885 c -0.12516,0.455243 -0.27221,0.90089 -0.46515,1.36962 -0.32912,0.110243 -0.66961,0.172631 -1.0337,0.20674 z m 2.32583,0 h 0.69773 c -0.27567,0.329956 -0.57891,0.644086 -0.93033,0.87858 0.0978,-0.291821 0.15969,-0.589871 0.2326,-0.87858 z m 5.94359,0.129699 0.41346,0.23255 c -0.13833,0.135536 -0.26443,0.281708 -0.41346,0.41348 z m 1.16288,0.67184 0.491,0.284301 c -0.36331,0.123212 -0.73378,0.246167 -1.11122,0.31011 0.21815,-0.194937 0.42292,-0.390523 0.62022,-0.594411 z m -12.01647,3.514579 c -0.18779,0 -0.34524,0.0441 -0.46512,0.129699 -0.11915,0.08431 -0.18088,0.202591 -0.18088,0.335921 0,0.09987 0.0246,0.165236 0.0775,0.23255 0.0532,0.06615 0.13791,0.141759 0.25839,0.180929 0.0525,0.01687 0.0955,0.01427 0.15507,0.02596 0.0603,0.01298 0.12699,0.0389 0.1809,0.05187 0.0513,0.01298 0.10288,0.02852 0.12916,0.05188 0.0273,0.02206 0.026,0.04669 0.026,0.07781 0,0.03372 -0.008,0.06097 -0.026,0.07782 -0.0181,0.01687 -0.0493,0.01427 -0.0775,0.02596 -0.0227,0.01298 -0.0409,0.02077 -0.0775,0.02596 -0.0365,0 -0.081,0 -0.10337,0 -0.0871,0 -0.16355,0.01298 -0.25838,-0.02596 -0.0943,-0.03242 -0.18217,-0.09468 -0.25845,-0.155119 h -0.0517 v 0.33592 c 0.0769,0.03242 0.17055,0.083 0.25839,0.103759 0.0884,0.02077 0.1915,0.02596 0.3101,0.02596 0.20515,0 0.3718,-0.0415 0.49102,-0.1297 0.11983,-0.08819 0.18086,-0.220747 0.18086,-0.36173 0,-0.09857 -0.025,-0.17107 -0.0775,-0.232547 -0.0519,-0.06226 -0.14884,-0.119324 -0.25843,-0.15512 -0.0557,-0.01817 -0.10635,-0.01558 -0.15503,-0.02592 -0.048,-0.01298 -0.10241,-0.04021 -0.15507,-0.05187 -0.0802,-0.01687 -0.1262,-0.03112 -0.15507,-0.05187 -0.0288,-0.02077 -0.0517,-0.04021 -0.0517,-0.07782 0,-0.02466 0.008,-0.05837 0.026,-0.07782 0.0181,-0.01946 0.0525,-0.01687 0.0776,-0.02596 0.0282,-0.01298 0.0474,-0.02077 0.0775,-0.02595 0.031,0 0.0726,-0.02596 0.10337,-0.02596 0.0871,0 0.17505,0.02077 0.25838,0.05187 0.084,0.03112 0.14907,0.083 0.20673,0.129699 h 0.0516 v -0.33592 c -0.0674,-0.02725 -0.16606,-0.05966 -0.25839,-0.07782 -0.0918,-0.01817 -0.16413,-0.02596 -0.25839,-0.02596 z m 1.39547,0 c -0.1878,0 -0.34527,0.0441 -0.46515,0.129699 -0.11915,0.08431 -0.18093,0.202591 -0.18093,0.335921 0,0.09987 0.025,0.165236 0.0776,0.23255 0.0531,0.06615 0.13792,0.141759 0.25842,0.180929 0.0525,0.01687 0.12126,0.01427 0.1809,0.02596 0.0603,0.01298 0.10121,0.0389 0.15504,0.05187 0.0512,0.01298 0.10288,0.02852 0.12918,0.05188 0.0273,0.02206 0.0256,0.04669 0.0256,0.07781 0,0.03372 -0.008,0.06097 -0.0256,0.07782 -0.0181,0.01687 -0.0493,0.01427 -0.0775,0.02596 -0.0231,0.01298 -0.041,0.02077 -0.0775,0.02596 -0.0365,0 -0.0551,0 -0.0775,0 -0.0872,0 -0.18941,0.01298 -0.28428,-0.02596 -0.0943,-0.03242 -0.18213,-0.09468 -0.25838,-0.155119 h -0.0256 v 0.33592 c 0.0769,0.03242 0.14474,0.083 0.23259,0.103759 0.0884,0.02077 0.1915,0.02596 0.3101,0.02596 0.20514,0 0.37177,-0.0415 0.49101,-0.1297 0.11983,-0.08819 0.18086,-0.220747 0.18086,-0.36173 0,-0.09857 -0.0247,-0.17107 -0.0775,-0.232547 -0.0519,-0.06226 -0.12298,-0.119324 -0.2326,-0.15512 -0.0557,-0.01817 -0.13218,-0.01558 -0.1809,-0.02592 -0.048,-0.01298 -0.0767,-0.04021 -0.12917,-0.05187 -0.08,-0.01687 -0.15206,-0.03112 -0.18089,-0.05187 -0.0288,-0.02077 -0.0256,-0.04021 -0.0256,-0.07782 0,-0.02466 0.008,-0.05837 0.0256,-0.07782 0.0181,-0.01946 0.0266,-0.01687 0.0517,-0.02596 0.0282,-0.01298 0.0732,-0.02077 0.10336,-0.02595 0.031,0 0.0467,-0.02596 0.0775,-0.02596 0.0872,0 0.17513,0.02077 0.25844,0.05187 0.084,0.03112 0.14903,0.083 0.20669,0.129699 h 0.0517 v -0.33592 c -0.0672,-0.02725 -0.16613,-0.05966 -0.25843,-0.07782 -0.0916,-0.01817 -0.16421,-0.02596 -0.25841,-0.02596 z m 2.92014,0 c -0.23012,0 -0.41194,0.07263 -0.5427,0.20674 -0.13075,0.133201 -0.20669,0.312573 -0.20669,0.54266 0,0.228271 0.076,0.408034 0.20669,0.542661 0.13076,0.133979 0.31258,0.20674 0.5427,0.20674 0.23078,0 0.4119,-0.07263 0.54269,-0.20674 0.13076,-0.134627 0.18087,-0.31439 0.18087,-0.542661 0,-0.230087 -0.0494,-0.409459 -0.18087,-0.54266 -0.13145,-0.134108 -0.3132,-0.20674 -0.54269,-0.20674 z m -7.88176,0.02596 v 1.447051 h 0.38763 v -0.465113 h 0.23256 c 0.10444,0 0.18859,-0.02336 0.25844,-0.05187 0.0706,-0.02852 0.12386,-0.07263 0.18087,-0.129699 0.0416,-0.0415 0.081,-0.09468 0.10336,-0.15512 0.0221,-0.06095 0.026,-0.116727 0.026,-0.1808 0,-0.083 -0.0209,-0.147726 -0.0517,-0.20674 -0.03,-0.05837 -0.0715,-0.116727 -0.12918,-0.155121 -0.048,-0.03112 -0.0922,-0.06226 -0.15504,-0.07782 -0.0622,-0.01558 -0.14155,-0.02596 -0.23259,-0.02596 z m 1.80892,0 -0.51687,1.447051 h 0.3618 l 0.10337,-0.28417 h 0.54263 l 0.10337,0.28417 h 0.3618 l -0.51684,-1.447055 z m 3.97968,0 v 1.447051 h 0.36172 v -0.465113 h 0.2326 c 0.10456,0 0.18855,-0.02336 0.25841,-0.05187 0.0706,-0.02852 0.12385,-0.07263 0.1809,-0.129699 0.0416,-0.0415 0.0809,-0.09468 0.10336,-0.15512 0.0221,-0.06095 0.0256,-0.116727 0.0256,-0.1808 0,-0.083 0.005,-0.147726 -0.0256,-0.20674 -0.03,-0.05837 -0.0715,-0.116727 -0.12918,-0.155121 -0.048,-0.03112 -0.11796,-0.06226 -0.18086,-0.07782 -0.0622,-0.01558 -0.14156,-0.02596 -0.23256,-0.02596 z m 3.101,0 v 1.447051 h 0.38762 v -0.54266 h 0.15505 l 0.38762,0.54266 h 0.46518 l -0.49101,-0.620095 c 0.091,-0.0441 0.15802,-0.08819 0.20673,-0.15512 0.0494,-0.06615 0.0775,-0.152657 0.0775,-0.25836 0,-0.07652 -0.0196,-0.156028 -0.0517,-0.20674 -0.0313,-0.05187 -0.0754,-0.09727 -0.12918,-0.129699 -0.0531,-0.03242 -0.0942,-0.04281 -0.15507,-0.05187 -0.061,-0.01298 -0.14795,-0.02596 -0.23256,-0.02596 z m 1.39547,0 v 0.284171 h 0.46514 v 1.16288 h 0.36179 v -1.162893 h 0.43929 v -0.284171 z m -2.40331,0.25836 c 0.0462,0 0.0869,0.01298 0.12918,0.02596 0.0429,0.01687 0.0707,0.0389 0.10336,0.07782 0.0319,0.03761 0.0575,0.09468 0.0775,0.155121 0.02,0.06095 0.0517,0.120617 0.0517,0.20674 0,0.08041 -0.008,0.147076 -0.0256,0.20674 -0.0171,0.05836 -0.0416,0.111535 -0.0775,0.15499 -0.0319,0.0389 -0.0863,0.05836 -0.12917,0.07782 -0.043,0.01817 -0.0818,0.02596 -0.12918,0.02596 -0.0475,0 -0.0863,-0.01298 -0.12917,-0.02596 -0.043,-0.01817 -0.0971,-0.0389 -0.12918,-0.07782 -0.0319,-0.03761 -0.0577,-0.09598 -0.0776,-0.15499 -0.0193,-0.05966 -0.026,-0.121919 -0.026,-0.20674 0,-0.08301 0.007,-0.143966 0.026,-0.20674 0.0206,-0.06355 0.0456,-0.119324 0.0776,-0.155121 0.0346,-0.03892 0.0882,-0.06095 0.12918,-0.07782 0.0416,-0.01687 0.0824,-0.02596 0.12917,-0.02596 z m -7.49417,0.02596 h 0.0516 0.15507 c 0.0365,0 0.0648,0.01298 0.10336,0.02596 0.0288,0.01298 0.0557,0.02206 0.0775,0.05187 0.0219,0.02852 0.0256,0.06355 0.0256,0.103759 0,0.0415 0.0108,0.07523 0,0.103759 -0.0108,0.02852 -0.0282,0.05707 -0.0517,0.07782 -0.0279,0.02337 -0.0623,0.0441 -0.10336,0.05187 -0.0404,0.01298 -0.0922,0 -0.15507,0 h -0.10336 z m 5.76273,0 h 0.0777 0.12918 c 0.0364,0 0.0908,0.01298 0.12917,0.02596 0.0288,0.01298 0.0298,0.02206 0.0517,0.05187 0.0215,0.02852 0.0517,0.06355 0.0517,0.103759 0,0.0415 -0.0148,0.07523 -0.0256,0.103759 -0.0108,0.02852 -0.0282,0.05707 -0.0516,0.07782 -0.0279,0.02337 -0.0623,0.0441 -0.10337,0.05187 -0.0404,0.01298 -0.0922,0 -0.15503,0 h -0.10337 z m 3.1269,0 h 0.12918 0.10336 c 0.0334,0 0.0784,-0.01298 0.10337,0 0.0358,0.01558 0.0628,0.05188 0.0775,0.07782 0.0148,0.02596 0,0.0415 0,0.07782 0,0.04021 0.012,0.07912 0,0.103759 -0.012,0.02336 -0.026,0.05707 -0.0516,0.07782 -0.0273,0.02077 -0.0636,0.02077 -0.10336,0.02596 -0.0397,0 -0.0961,0.02596 -0.15504,0.02596 h -0.10336 z m -7.23574,0.07782 0.15507,0.516851 h -0.33593 z"
       marker="none"
       visibility="visible"
       display="inline"
       overflow="visible"
       inkscape:connector-curvature="0"
       inkscape:label="passports" />
  </g>
</svg>
