<?xml version="1.0" encoding="UTF-8" standalone="no"?>
<svg
   xmlns:dc="http://purl.org/dc/elements/1.1/"
   xmlns:cc="http://creativecommons.org/ns#"
   xmlns:rdf="http://www.w3.org/1999/02/22-rdf-syntax-ns#"
   xmlns:svg="http://www.w3.org/2000/svg"
   xmlns="http://www.w3.org/2000/svg"
   xmlns:sodipodi="http://sodipodi.sourceforge.net/DTD/sodipodi-0.dtd"
   xmlns:inkscape="http://www.inkscape.org/namespaces/inkscape"
   version="1.1"
   id="svg357"
   sodipodi:docname="i16.svg"
   width="100.00001"
   height="99.999954"
   inkscape:version="0.92.2 (5c3e80d, 2017-08-06)">
  <metadata
     id="metadata361">
    <rdf:RDF>
      <cc:Work
         rdf:about="">
        <dc:format>image/svg+xml</dc:format>
        <dc:type
           rdf:resource="http://purl.org/dc/dcmitype/StillImage" />
        <dc:title></dc:title>
      </cc:Work>
    </rdf:RDF>
  </metadata>
  <sodipodi:namedview
     pagecolor="#ffffff"
     bordercolor="#666666"
     borderopacity="1"
     objecttolerance="10"
     gridtolerance="10"
     guidetolerance="10"
     inkscape:pageopacity="0"
     inkscape:pageshadow="2"
     inkscape:window-width="1034"
     inkscape:window-height="480"
     id="namedview359"
     showgrid="false"
     fit-margin-top="0"
     fit-margin-left="0"
     fit-margin-right="0"
     fit-margin-bottom="0"
     inkscape:zoom="3.1466656"
     inkscape:cx="43.220331"
     inkscape:cy="37.499958"
     inkscape:window-x="0"
     inkscape:window-y="0"
     inkscape:window-maximized="0"
     inkscape:current-layer="svg357" />
  <defs
     id="defs4543" />
  <g
     transform="matrix(0.0464632,0,0,-0.0464632,-24.17011,240.96931)"
     id="green-white-line-globe"
     style="display:inline"
     inkscape:label="green-white-line-globe">
    <path
       inkscape:connector-curvature="0"
       id="path4635"
       style="fill:#a6d620;fill-opacity:1;fill-rule:nonzero;stroke:none"
       d="M 2672.44,4110.12 C 2672.44,3515.79 2190.65,3034 1596.32,3034 1002,3034 520.199,3515.79 520.199,4110.12 c 0,594.33 481.801,1076.12 1076.121,1076.12 594.33,0 1076.12,-481.79 1076.12,-1076.12" />
    <path
       inkscape:connector-curvature="0"
       id="path4639"
       style="fill:#6cc42e;fill-opacity:1;fill-rule:nonzero;stroke:none"
       d="m 1596.32,3034 v 0 c -19.96,0 -39.79,0.58 -59.48,1.66 v 5.4 h -16.29 v 16.28 h -16.28 v 16.28 h -16.28 v 16.29 h -16.28 v 16.28 h -16.28 v 16.28 h -16.28 v 16.28 h -16.29 v 16.29 h -16.28 v 16.28 h -16.28 v 16.28 h -16.28 v 16.28 h -16.28 v 16.28 h -16.29 v 16.28 h -16.28 v 16.29 h -16.28 v 16.28 h -16.28 v 16.28 h -16.29 v 16.28 h -16.28 v 16.29 h -16.28 v 16.28 h -16.28 v 16.28 h -16.28 v 126.42 h 284.72 c -3.63,2.6 -7.3,5.15 -10.88,7.83 l 2.7,2.7 c -6.42,4.41 -12.75,8.92 -18.98,13.58 l 2.7,2.7 c -6.42,4.41 -12.76,8.93 -18.98,13.58 l 2.7,2.7 c -6.42,4.41 -12.76,8.93 -18.98,13.59 l 2.69,2.7 c -6.41,4.41 -12.75,8.92 -18.98,13.58 l 2.7,2.7 c -6.41,4.41 -12.75,8.92 -18.98,13.58 l 2.7,2.7 c -6.41,4.41 -12.75,8.93 -18.98,13.58 l 2.7,2.7 c -6.42,4.41 -12.75,8.93 -18.98,13.59 l 2.69,2.7 c -6.41,4.41 -12.75,8.92 -18.97,13.58 l 2.69,2.7 c -6.41,4.41 -12.75,8.92 -18.98,13.58 l 2.7,2.7 c -6.41,4.41 -12.75,8.92 -18.98,13.58 l 2.7,2.7 c -6.42,4.41 -12.75,8.92 -18.98,13.58 l 2.7,2.7 c -6.42,4.41 -12.76,8.93 -18.98,13.59 l 2.7,2.69 c -6.42,4.41 -12.76,8.93 -18.99,13.59 l 2.7,2.7 c -6.41,4.41 -12.75,8.92 -18.98,13.58 l 2.7,2.7 c -6.41,4.41 -12.75,8.92 -18.98,13.58 l 2.7,2.7 c -6.42,4.41 -12.75,8.93 -18.98,13.58 l 2.7,2.7 c -6.42,4.41 -12.75,8.93 -18.98,13.59 l 48.04,48.08 c 12.62,-9.04 25.71,-17.47 39.13,-25.39 -2.58,2.59 -5.04,5.29 -7.56,7.94 -5.55,5.3 -10.97,10.72 -16.27,16.27 -5.56,5.3 -10.99,10.73 -16.3,16.29 -5.55,5.3 -10.97,10.73 -16.27,16.28 -5.56,5.3 -10.99,10.73 -16.29,16.28 -5.55,5.3 -10.98,10.73 -16.28,16.28 -94.37,90.1 -153.25,217.02 -153.25,357.82 0,273.38 221.54,494.91 494.91,494.91 27.08,0 53.62,-2.25 79.51,-6.44 v 5.37 c -5.41,0.58 -10.81,1.21 -16.28,1.62 v 14.66 c -5.41,0.58 -10.81,1.21 -16.28,1.62 v 67.51 c 32.91,-2.15 65.03,-7.59 96.29,-15.17 l 21.41,74.42 88.92,-25.5 -3.08,-10.73 19.36,-5.55 -3.08,-10.73 19.36,-5.55 -3.08,-10.73 19.36,-5.55 -3.07,-10.73 19.36,-5.55 -3.08,-10.74 19.36,-5.55 -3.08,-10.73 19.36,-5.55 -3.08,-10.73 19.36,-5.55 -3.08,-10.73 19.37,-5.55 -3.08,-10.73 19.36,-5.55 -3.08,-10.73 19.36,-5.56 -3.08,-10.73 19.36,-5.55 -3.08,-10.73 19.36,-5.55 -3.08,-10.73 19.37,-5.55 -3.08,-10.73 19.36,-5.56 -3.08,-10.73 19.36,-5.55 -3.08,-10.73 19.36,-5.55 -3.08,-10.73 19.36,-5.55 -3.08,-10.73 19.37,-5.55 -3.08,-10.73 19.36,-5.55 -3.08,-10.74 19.36,-5.55 -3.08,-10.73 19.36,-5.55 -3.08,-10.73 19.37,-5.55 -3.08,-10.73 19.36,-5.55 -3.08,-10.74 19.36,-5.55 -3.08,-10.73 19.36,-5.55 -3.08,-10.73 19.36,-5.55 -3.08,-10.73 19.36,-5.55 -3.07,-10.73 19.36,-5.55 -3.08,-10.73 19.36,-5.56 -3.08,-10.73 19.36,-5.55 -3.08,-10.73 19.36,-5.55 -3.08,-10.73 19.37,-5.55 -3.09,-10.73 19.37,-5.56 -3.08,-10.73 19.36,-5.55 -3.08,-10.73 19.36,-5.55 -3.08,-10.73 19.36,-5.55 -3.08,-10.73 19.36,-5.55 -3.07,-10.73 19.36,-5.55 -3.08,-10.73 19.36,-5.56 -3.08,-10.73 19.36,-5.55 -3.08,-10.73 19.36,-5.55 -3.08,-10.73 19.37,-5.55 -3.08,-10.73 19.36,-5.56 -3.08,-10.73 19.36,-5.55 -3.08,-10.73 19.36,-5.55 -3.08,-10.73 19.36,-5.55 -3.07,-10.73 19.36,-5.55 -3.08,-10.73 19.36,-5.55 -3.08,-10.74 19.36,-5.55 -3.08,-10.73 19.36,-5.55 -3.08,-10.73 19.37,-5.55 -3.09,-10.73 19.37,-5.55 -3.08,-10.74 19.36,-5.55 -3.08,-10.73 1.84,-0.52 C 2597.98,3466.7 2184.7,3072.51 1672.58,3036.66 h -0.02 c -0.53,-0.04 -1.03,-0.08 -1.55,-0.11 h -0.03 c -0.53,-0.04 -1.03,-0.07 -1.55,-0.11 h -0.03 c -2.1,-0.14 -4.16,-0.27 -6.26,-0.4 -0.04,-0.01 -0.01,0 -0.04,-0.01 -0.53,-0.03 -1.01,-0.06 -1.54,-0.09 -0.03,0 -0.02,0 -0.05,0 -0.53,-0.03 -0.98,-0.06 -1.51,-0.09 -0.03,0 -0.07,0 -0.11,-0.01 -2.07,-0.12 -4.17,-0.23 -6.25,-0.34 h -0.01 c -0.53,-0.03 -1.05,-0.06 -1.57,-0.08 l -0.01,-0.01 c -0.53,-0.02 -1.01,-0.05 -1.54,-0.07 -0.03,0 -0.05,-0.01 -0.09,-0.01 -0.53,-0.02 -0.98,-0.05 -1.51,-0.07 -0.03,0 -0.03,0 -0.07,0 -0.52,-0.03 -0.99,-0.05 -1.52,-0.08 h -0.06 c -1.02,-0.05 -2.04,-0.09 -3.06,-0.14 -0.04,0 -0.07,0 -0.1,0 -0.5,-0.02 -0.97,-0.04 -1.46,-0.06 -0.08,-0.01 -0.08,-0.01 -0.16,-0.01 -0.46,-0.02 -0.97,-0.04 -1.44,-0.06 -0.07,0 -0.1,0 -0.17,-0.01 -0.46,-0.02 -0.98,-0.04 -1.44,-0.06 -0.04,0 -0.1,0 -0.13,0 -0.5,-0.02 -1.01,-0.04 -1.51,-0.06 h -0.01 c -1.03,-0.04 -2.08,-0.08 -3.11,-0.11 -0.03,0 -0.05,0 -0.08,-0.01 -0.5,-0.01 -0.98,-0.03 -1.47,-0.05 -0.04,0 -0.12,0 -0.16,0 -0.46,-0.02 -0.97,-0.03 -1.43,-0.05 -0.07,0 -0.11,0 -0.18,0 -0.47,-0.02 -0.97,-0.03 -1.44,-0.05 -0.07,0 -0.09,0 -0.16,0 -0.5,-0.02 -0.96,-0.03 -1.46,-0.05 -0.04,0 -0.07,0 -0.11,0 -0.99,-0.03 -2.06,-0.06 -3.06,-0.09 h -0.07 c -0.5,-0.01 -0.98,-0.02 -1.48,-0.03 -0.03,-0.01 -0.12,-0.01 -0.15,-0.01 -0.47,-0.01 -0.94,-0.02 -1.41,-0.03 -0.1,-0.01 -0.13,-0.01 -0.24,-0.01 -0.47,-0.01 -0.92,-0.02 -1.39,-0.03 -0.07,0 -0.14,0 -0.21,0 -0.47,-0.01 -0.93,-0.02 -1.4,-0.03 -0.07,-0.01 -0.13,-0.01 -0.2,-0.01 -1,-0.02 -1.99,-0.04 -2.99,-0.05 -0.04,-0.01 -0.06,-0.01 -0.1,-0.01 -0.5,-0.01 -0.96,-0.01 -1.46,-0.02 -0.08,0 -0.09,0 -0.16,0 -0.47,-0.01 -0.95,-0.02 -1.41,-0.03 -0.07,0 -0.17,0 -0.24,0 -0.47,-0.01 -0.94,-0.01 -1.4,-0.02 -0.04,0 -0.15,0 -0.19,0 -0.46,-0.01 -0.95,-0.01 -1.42,-0.02 -0.07,0 -0.14,0 -0.21,0 -0.5,-0.01 -0.94,-0.01 -1.44,-0.02 h -0.09 c -0.5,0 -1.01,-0.01 -1.51,-0.01 -0.04,0 0,0 -0.03,0 -0.5,-0.01 -1.01,-0.01 -1.51,-0.01 -0.04,0 -0.09,0 -0.13,0 -0.5,-0.01 -0.94,-0.01 -1.44,-0.01 -0.07,0 -0.13,0 -0.2,-0.01 -0.47,0 -0.96,0 -1.43,0 -0.07,0 -0.1,0 -0.17,0 -0.47,-0.01 -0.97,-0.01 -1.44,-0.01 -0.07,0 -0.12,0 -0.2,0 -0.5,0 -0.94,0 -1.44,0 -0.03,0 -0.09,0 -0.12,0 -0.5,0 -1.02,0 -1.52,0 v 0" />
    <path
       inkscape:connector-curvature="0"
       id="path4641"
       style="fill:#fdfeff;fill-opacity:1;fill-rule:nonzero;stroke:none"
       d="m 1938.64,4045.86 h -135.75 c 12.22,45.47 20.07,97.12 22.35,154.5 h 154.18 c -4.06,-54.94 -18.28,-107.06 -40.78,-154.5 z m -252.35,-224.23 c 33.36,38.35 69.17,91.93 96.35,162.34 h 120.23 c -52.58,-75.09 -128.08,-132.61 -216.58,-162.34 z m -93.33,-5.77 c -5.3,-4.52 -9.98,-8 -13.88,-11.01 v 179.12 h 137.25 c -16.31,-37.31 -35.34,-68.28 -54.05,-93.8 -25.21,-34.45 -50.61,-58.88 -69.32,-74.31 z m -13.88,384.5 h 184.22 c -2.55,-58.73 -11.63,-110.07 -24.89,-154.5 h -159.33 z m 0,216.58 h 159.75 c 13.3,-44.38 22.08,-96.04 24.63,-154.65 h -184.38 z m 0,61.78 v 179.08 c 29,-21.73 92.4,-77.32 137.09,-179.08 z m 323.79,0 h -120.23 c -27.18,70.52 -62.99,124.14 -96.35,162.65 88.5,-29.92 164.16,-87.45 216.58,-162.65 z m 76.55,-216.43 h -154.18 c -2.28,57.53 -10.13,109.03 -22.35,154.65 h 135.75 c 22.5,-47.44 36.84,-99.52 40.78,-154.65 z m -462.28,216.43 h -137.28 c 16.31,37.31 35.18,68.39 53.93,93.91 25.36,34.45 50.72,58.77 69.32,74.31 5.41,4.41 9.97,8 14.03,11.02 z m 0,-216.43 h -184.41 c 2.59,58.88 11.63,110.27 24.93,154.65 h 159.48 z m 0,-216.43 H 1357.2 c -13.15,44.43 -22.04,95.92 -24.59,154.5 h 184.53 z m 0,-241.01 c -29.15,21.72 -92.59,77.32 -137.13,179.12 h 137.13 z m -323.79,179.12 h 120.2 c 27.22,-70.41 62.83,-123.99 96.23,-162.34 -88.5,29.73 -164.04,87.25 -216.43,162.34 z m -76.7,216.39 h 154.33 c 2.13,-57.38 10.13,-109.03 22.2,-154.65 h -135.63 c -22.65,47.59 -36.84,99.55 -40.9,154.65 z m 40.75,216.58 h 135.78 c -12.07,-45.62 -20.07,-97.12 -22.2,-154.65 h -154.33 c 4.06,55.13 18.25,107.21 40.75,154.65 z m 252.53,224.43 c -33.4,-38.51 -69.16,-92.13 -96.38,-162.65 H 1193.2 c 52.54,75.2 128.08,132.73 216.73,162.65 z m 138.18,84.86 c -273.38,0 -494.91,-221.53 -494.91,-494.91 0,-273.34 221.53,-494.75 494.91,-494.91 273.34,0.16 494.76,221.57 494.91,494.91 -0.15,273.38 -221.57,494.91 -494.91,494.91" />
    <path
       inkscape:connector-curvature="0"
       id="path4643"
       style="fill:#fdfeff;fill-opacity:1;fill-rule:nonzero;stroke:none"
       d="m 1692.19,3662.22 c 256.14,61.57 447.25,292 447.25,566.76 0,242.48 -148.97,449.9 -360.01,537.8 l 22.25,77.54 -88.92,25.5 -21.41,-74.42 c -31.27,7.58 -63.38,13.02 -96.29,15.17 v -67.51 c 266.37,-20.06 477.08,-242.65 477.08,-514.08 0,-284.62 -231.65,-516.23 -516.23,-516.23 -111.8,0 -215,36.2 -299.62,96.8 l -48.04,-48.08 c 93.3,-69.79 207.88,-112.1 332.32,-115.39 V 3476.84 H 1211.2 v -126.42 h 808.09 v 126.42 h -326.93 v 185.38 h -0.17" />
  </g>
</svg>
