<?xml version="1.0" encoding="UTF-8" standalone="no"?>
<svg
   xmlns:dc="http://purl.org/dc/elements/1.1/"
   xmlns:cc="http://creativecommons.org/ns#"
   xmlns:rdf="http://www.w3.org/1999/02/22-rdf-syntax-ns#"
   xmlns:svg="http://www.w3.org/2000/svg"
   xmlns="http://www.w3.org/2000/svg"
   xmlns:sodipodi="http://sodipodi.sourceforge.net/DTD/sodipodi-0.dtd"
   xmlns:inkscape="http://www.inkscape.org/namespaces/inkscape"
   version="1.1"
   id="svg355"
   sodipodi:docname="i17.svg"
   width="100"
   height="69.607872"
   inkscape:version="0.92.2 (5c3e80d, 2017-08-06)">
  <metadata
     id="metadata359">
    <rdf:RDF>
      <cc:Work
         rdf:about="">
        <dc:format>image/svg+xml</dc:format>
        <dc:type
           rdf:resource="http://purl.org/dc/dcmitype/StillImage" />
        <dc:title></dc:title>
      </cc:Work>
    </rdf:RDF>
  </metadata>
  <sodipodi:namedview
     pagecolor="#ffffff"
     bordercolor="#666666"
     borderopacity="1"
     objecttolerance="10"
     gridtolerance="10"
     guidetolerance="10"
     inkscape:pageopacity="0"
     inkscape:pageshadow="2"
     inkscape:window-width="1034"
     inkscape:window-height="480"
     id="namedview357"
     showgrid="false"
     fit-margin-top="0"
     fit-margin-left="0"
     fit-margin-right="0"
     fit-margin-bottom="0"
     inkscape:zoom="2.1903278"
     inkscape:cx="62.091214"
     inkscape:cy="37.499993"
     inkscape:window-x="0"
     inkscape:window-y="0"
     inkscape:window-maximized="0"
     inkscape:current-layer="svg355" />
  <defs
     id="defs4543" />
  <g
     transform="matrix(0.41929424,0,0,0.41929424,-224.31823,-286.28153)"
     id="b_w_gauges"
     inkscape:label="b&amp;w_gauges">
    <path
       d="m 600.005,765.775 c 0,-13.372 2.924,-26.058 8.133,-37.479 -3.968,-0.813 -8.076,-1.24 -12.284,-1.24 -33.615,0 -60.864,27.25 -60.864,60.863 0,33.612 27.249,60.862 60.864,60.862 14.125,0 27.116,-4.823 37.444,-12.899 -20.316,-16.59 -33.293,-41.829 -33.293,-70.107 z m -5.609,-32.026 h 1.821 v 5.466 h -1.821 z m -8.856,0.899 1.099,5.353 -1.783,0.368 -1.1,-5.355 z m -10.239,3.013 2.15,5.025 -1.675,0.717 -2.151,-5.023 z m -8.437,4.359 3.015,4.561 -1.522,1.006 -3.012,-4.562 z m -8.383,6.603 3.867,3.867 -1.289,1.288 -3.866,-3.866 z m -6.914,8.188 4.564,3.007 -1.002,1.524 -4.564,-3.008 z m -5.108,9.373 5.073,2.032 -0.678,1.691 -5.074,-2.037 z m -2.885,9.044 5.356,1.097 -0.366,1.783 -5.355,-1.094 z m -1.258,10.596 h 5.467 v 1.824 l -5.465,-0.003 z m 0.9,10.679 5.356,-1.097 0.366,1.783 -5.355,1.1 z m 3.014,10.24 5.025,-2.15 0.717,1.675 -5.026,2.151 z m 5.362,9.955 -1.005,-1.521 4.563,-3.01 1.003,1.521 z m 6.889,8.155 -1.288,-1.289 3.865,-3.866 1.287,1.289 z m 8.42,6.627 -1.521,-1.005 3.008,-4.562 1.521,1 z m 9.541,4.783 -1.691,-0.675 2.033,-5.074 1.691,0.675 z m 9.139,2.573 -1.785,-0.365 1.095,-5.358 1.785,0.368 z m 7.529,-44.13 c -3.574,0 -6.471,-2.896 -6.471,-6.472 0,-0.005 10e-4,-0.011 10e-4,-0.019 l -24.292,-22.032 1.341,-1.624 28,17.371 c 0.458,-0.103 0.93,-0.167 1.42,-0.167 3.573,0 6.471,2.899 6.471,6.471 10e-4,3.576 -2.897,6.472 -6.47,6.472 z"
       id="path32899"
       inkscape:connector-curvature="0"
       style="fill:#030302" />
    <path
       d="m 690.481,682.77 c -45.843,0 -83.006,37.164 -83.006,83.006 0,45.843 37.163,83.006 83.006,83.006 45.842,0 83.005,-37.163 83.005,-83.006 0,-45.842 -37.163,-83.006 -83.005,-83.006 z m 69.51,69.974 -7.146,1.467 -0.487,-2.383 7.145,-1.468 z m -4.021,-13.664 -6.706,2.866 -0.956,-2.231 6.705,-2.869 z m -66.705,-44.014 h 2.432 v 7.296 h -2.432 z m -11.816,1.201 1.467,7.144 -2.382,0.492 -1.468,-7.146 z m -13.665,4.023 2.87,6.703 -2.234,0.957 -2.87,-6.707 z m -31.67,25.55 6.09,4.018 -1.338,2.027 -6.09,-4.016 z m -6.818,12.505 6.771,2.713 -0.905,2.259 -6.77,-2.716 z m -3.848,12.07 7.146,1.462 -0.488,2.383 -7.146,-1.462 z m -1.677,14.145 h 7.293 v 2.432 h -7.293 z m 1.199,14.251 7.146,-1.471 0.488,2.384 -7.145,1.47 z m 4.022,13.664 6.706,-2.87 0.958,2.234 -6.707,2.87 z m 7.154,13.283 -1.34,-2.029 6.087,-4.021 1.34,2.028 z m 12.633,-83.966 -5.157,-5.158 1.717,-1.718 5.159,5.158 z m 7.749,-15.69 4.021,6.088 -2.029,1.338 -4.02,-6.088 z m 38.882,62.143 c -1.229,3.356 -4.945,5.08 -8.302,3.854 -0.005,-0.003 -0.011,-0.006 -0.016,-0.009 l -29.043,15.234 -1.063,-1.815 25.939,-20.322 c 0.061,-0.465 0.163,-0.932 0.331,-1.389 1.229,-3.356 4.945,-5.083 8.301,-3.854 3.358,1.23 5.082,4.946 3.853,8.301 z m 12.969,-64.356 -2.382,-0.486 1.462,-7.146 2.382,0.486 z m 10.82,3.474 -2.258,-0.905 2.713,-6.771 2.258,0.902 z m 11.202,6.137 -2.029,-1.338 4.016,-6.09 2.029,1.337 z m 9.782,8.292 -1.72,-1.718 5.158,-5.158 1.72,1.718 z m 12.633,4.002 1.34,2.029 -6.088,4.021 -1.34,-2.029 z m 0.031,79.92 -6.09,-4.018 1.339,-2.029 6.089,4.016 z m 6.819,-12.507 -6.771,-2.713 0.905,-2.257 6.77,2.713 z m 3.849,-12.07 -7.146,-1.462 0.487,-2.381 7.146,1.46 z m -5.618,-14.146 v -2.432 h 7.294 v 2.432 z"
       id="path32901"
       inkscape:connector-curvature="0"
       style="fill:#030302" />
  </g>
</svg>
