<?xml version="1.0" encoding="UTF-8" standalone="no"?>
<svg
   xmlns:dc="http://purl.org/dc/elements/1.1/"
   xmlns:cc="http://creativecommons.org/ns#"
   xmlns:rdf="http://www.w3.org/1999/02/22-rdf-syntax-ns#"
   xmlns:svg="http://www.w3.org/2000/svg"
   xmlns="http://www.w3.org/2000/svg"
   xmlns:sodipodi="http://sodipodi.sourceforge.net/DTD/sodipodi-0.dtd"
   xmlns:inkscape="http://www.inkscape.org/namespaces/inkscape"
   version="1.1"
   id="svg372"
   sodipodi:docname="i21.svg"
   width="100"
   height="100"
   inkscape:version="0.92.2 (5c3e80d, 2017-08-06)">
  <metadata
     id="metadata376">
    <rdf:RDF>
      <cc:Work
         rdf:about="">
        <dc:format>image/svg+xml</dc:format>
        <dc:type
           rdf:resource="http://purl.org/dc/dcmitype/StillImage" />
        <dc:title></dc:title>
      </cc:Work>
    </rdf:RDF>
  </metadata>
  <sodipodi:namedview
     pagecolor="#ffffff"
     bordercolor="#666666"
     borderopacity="1"
     objecttolerance="10"
     gridtolerance="10"
     guidetolerance="10"
     inkscape:pageopacity="0"
     inkscape:pageshadow="2"
     inkscape:window-width="1034"
     inkscape:window-height="480"
     id="namedview374"
     showgrid="false"
     fit-margin-top="0"
     fit-margin-left="0"
     fit-margin-right="0"
     fit-margin-bottom="0"
     inkscape:zoom="3.1466668"
     inkscape:cx="43.220331"
     inkscape:cy="37.499999"
     inkscape:window-x="0"
     inkscape:window-y="0"
     inkscape:window-maximized="0"
     inkscape:current-layer="svg372" />
  <defs
     id="defs4543" />
  <g
     transform="matrix(0.5,0,0,-0.5,-364,119.9956)"
     id="tower"
     inkscape:label="tower">
    <path
       d="M 908,239.9912 H 748 c -11,0 -20,-9 -20,-20 v -160 c 0,-11 9,-20 20,-20 h 160 c 11,0 20,9 20,20 v 160 c 0,11 -9,20 -20,20"
       style="fill:#ed1c24;fill-opacity:1;fill-rule:nonzero;stroke:none"
       id="path7374"
       inkscape:connector-curvature="0" />
    <path
       inkscape:connector-curvature="0"
       id="path7384"
       style="fill:#231f20;fill-opacity:1;fill-rule:nonzero;stroke:none"
       d="m 928,59.9912 v 82.095 l -43.623,43.623 -7.001,-7.001 -23.599,23.599 -19.912,-53.911 -35.802,35.802 -6.751,-4.443 5.282,-5.281 2.148,-13.252 -24.588,24.589 -2.559,-53.869 41.036,-41.035 -4.883,-13.221 37.695,-37.695 H 908 c 11,0 20,9 20,20" />
    <path
       d="m 845.0962,130.4951 h -34.291 l -3.045,-52.82 h 40.381 z"
       style="fill:#bcbec0;fill-opacity:1;fill-rule:nonzero;stroke:none"
       id="path7394"
       inkscape:connector-curvature="0" />
    <path
       inkscape:connector-curvature="0"
       id="path7396"
       style="fill:#d1d3d4;fill-opacity:1;fill-rule:nonzero;stroke:none"
       d="m 852.407,134.144 h -48.913 v -3.648 h 48.913 z" />
    <path
       inkscape:connector-curvature="0"
       id="path7398"
       style="fill:#bcbec0;fill-opacity:1;fill-rule:nonzero;stroke:none"
       d="m 858.5,134.144 h -61.098 v 7.304 H 858.5 Z" />
    <path
       inkscape:connector-curvature="0"
       id="path7400"
       style="fill:#bcbec0;fill-opacity:1;fill-rule:nonzero;stroke:none"
       d="m 864.592,179.758 h -73.283 v 6.694 h 73.283 z" />
    <path
       d="m 861.5464,179.7578 h -67.19 l 4.874,-38.311 h 57.442 z"
       style="fill:#d1d3d4;fill-opacity:1;fill-rule:nonzero;stroke:none"
       id="path7404"
       inkscape:connector-curvature="0" />
    <path
       inkscape:connector-curvature="0"
       id="path7406"
       style="fill:#d1d3d4;fill-opacity:1;fill-rule:nonzero;stroke:none"
       d="m 862.155,189.917 h -68.409 v -3.465 h 68.409 z" />
    <path
       inkscape:connector-curvature="0"
       id="path7408"
       style="fill:#bcbec0;fill-opacity:1;fill-rule:nonzero;stroke:none"
       d="m 853.778,202.307 h -4.722 v -12.39 h 4.722 z" />
    <path
       d="m 865.9854,148.1807 v 0 c -0.684,0.684 -0.684,1.792 0,2.475 2.313,2.313 3.587,5.389 3.587,8.661 0,3.272 -1.274,6.347 -3.587,8.661 -0.684,0.683 -0.684,1.791 0,2.474 0.683,0.684 1.791,0.684 2.475,0 2.974,-2.973 4.612,-6.928 4.612,-11.135 0,-4.207 -1.638,-8.162 -4.612,-11.136 -0.683,-0.684 -1.792,-0.684 -2.475,0"
       style="fill:#d1d3d4;fill-opacity:1;fill-rule:nonzero;stroke:none"
       id="path7412"
       inkscape:connector-curvature="0" />
    <path
       d="m 873.9048,139.7544 c -0.684,0.684 -0.684,1.792 0,2.475 9.14,9.144 9.141,24.02 10e-4,33.162 -0.683,0.684 -0.682,1.792 10e-4,2.475 0.684,0.683 1.791,0.683 2.475,0 10.504,-10.507 10.503,-27.604 -0.002,-38.112 -0.684,-0.683 -1.792,-0.683 -2.475,0"
       style="fill:#d1d3d4;fill-opacity:1;fill-rule:nonzero;stroke:none"
       id="path7416"
       inkscape:connector-curvature="0" />
    <path
       d="m 881.8228,131.8369 c -0.683,0.684 -0.684,1.792 0,2.475 13.509,13.509 13.51,35.489 0.003,48.999 -0.684,0.683 -0.683,1.791 0,2.474 0.684,0.684 1.791,0.684 2.475,0 14.872,-14.873 14.87,-39.074 -0.003,-53.948 -0.683,-0.683 -1.792,-0.683 -2.475,0"
       style="fill:#d1d3d4;fill-opacity:1;fill-rule:nonzero;stroke:none"
       id="path7420"
       inkscape:connector-curvature="0" />
    <path
       d="m 787.2578,147.8955 v 0 c -6.142,6.144 -6.141,16.136 0,22.275 0.684,0.684 1.792,0.684 2.475,0 0.684,-0.683 0.683,-1.791 0,-2.474 -4.777,-4.776 -4.777,-12.548 0,-17.326 0.684,-0.683 0.683,-1.791 0,-2.475 -0.684,-0.684 -1.792,-0.683 -2.475,0"
       style="fill:#d1d3d4;fill-opacity:1;fill-rule:nonzero;stroke:none"
       id="path7424"
       inkscape:connector-curvature="0" />
    <path
       d="m 779.6221,139.7539 v 0 c -5.09,5.091 -7.895,11.859 -7.895,19.058 -10e-4,7.199 2.804,13.967 7.895,19.057 0.684,0.683 1.792,0.683 2.475,-0.001 v 0 c 0.683,-0.683 0.683,-1.791 0,-2.475 -4.431,-4.428 -6.87,-10.317 -6.87,-16.581 0,-6.264 2.44,-12.154 6.87,-16.583 0.683,-0.684 0.683,-1.792 0,-2.475 -0.683,-0.684 -1.792,-0.684 -2.475,0"
       style="fill:#d1d3d4;fill-opacity:1;fill-rule:nonzero;stroke:none"
       id="path7428"
       inkscape:connector-curvature="0" />
    <path
       d="m 771.7026,131.835 v 0 c -7.206,7.207 -11.174,16.787 -11.175,26.977 0,10.191 3.968,19.771 11.175,26.975 0.684,0.684 1.792,0.683 2.475,0 v 0 c 0.683,-0.683 0.683,-1.791 0,-2.475 -6.546,-6.543 -10.15,-15.244 -10.15,-24.5 0,-9.255 3.605,-17.957 10.15,-24.502 0.683,-0.684 0.683,-1.791 0,-2.475 -0.683,-0.683 -1.792,-0.683 -2.475,0"
       style="fill:#d1d3d4;fill-opacity:1;fill-rule:nonzero;stroke:none"
       id="path7432"
       inkscape:connector-curvature="0" />
    <path
       inkscape:connector-curvature="0"
       id="path7434"
       style="fill:#ace1fa;fill-opacity:1;fill-rule:nonzero;stroke:none"
       d="m 842.649,176.958 h -13.45 v -32.711 h 13.45 z" />
    <path
       d="m 813.2539,144.2471 h 13.449 v 32.711 h -13.449 z"
       style="fill:#ace1fa;fill-opacity:1;fill-rule:nonzero;stroke:none"
       id="path7438"
       inkscape:connector-curvature="0" />
    <path
       d="m 810.7573,176.958 h -13.222 l 4.161,-32.711 h 9.061 z"
       style="fill:#ace1fa;fill-opacity:1;fill-rule:nonzero;stroke:none"
       id="path7442"
       inkscape:connector-curvature="0" />
    <path
       d="m 845.1455,176.958 v -32.711 h 9.06 l 4.163,32.711 z"
       style="fill:#ace1fa;fill-opacity:1;fill-rule:nonzero;stroke:none"
       id="path7446"
       inkscape:connector-curvature="0" />
  </g>
</svg>
