<?xml version="1.0" encoding="UTF-8" standalone="no"?>
<svg
   xmlns:dc="http://purl.org/dc/elements/1.1/"
   xmlns:cc="http://creativecommons.org/ns#"
   xmlns:rdf="http://www.w3.org/1999/02/22-rdf-syntax-ns#"
   xmlns:svg="http://www.w3.org/2000/svg"
   xmlns="http://www.w3.org/2000/svg"
   xmlns:xlink="http://www.w3.org/1999/xlink"
   xmlns:sodipodi="http://sodipodi.sourceforge.net/DTD/sodipodi-0.dtd"
   xmlns:inkscape="http://www.inkscape.org/namespaces/inkscape"
   version="1.1"
   id="svg386"
   sodipodi:docname="i3.svg"
   width="100"
   height="80.306602"
   inkscape:version="0.92.2 (5c3e80d, 2017-08-06)">
  <metadata
     id="metadata390">
    <rdf:RDF>
      <cc:Work
         rdf:about="">
        <dc:format>image/svg+xml</dc:format>
        <dc:type
           rdf:resource="http://purl.org/dc/dcmitype/StillImage" />
        <dc:title></dc:title>
      </cc:Work>
    </rdf:RDF>
  </metadata>
  <sodipodi:namedview
     pagecolor="#ffffff"
     bordercolor="#666666"
     borderopacity="1"
     objecttolerance="10"
     gridtolerance="10"
     guidetolerance="10"
     inkscape:pageopacity="0"
     inkscape:pageshadow="2"
     inkscape:window-width="1034"
     inkscape:window-height="480"
     id="namedview388"
     showgrid="false"
     fit-margin-top="0"
     fit-margin-left="0"
     fit-margin-right="0"
     fit-margin-bottom="0"
     inkscape:zoom="2.6018842"
     inkscape:cx="52.269817"
     inkscape:cy="36.420465"
     inkscape:window-x="0"
     inkscape:window-y="0"
     inkscape:window-maximized="0"
     inkscape:current-layer="svg386" />
  <defs
     id="defs4543">
    <linearGradient
       gradientUnits="userSpaceOnUse"
       gradientTransform="matrix(1.301,0,0,1.301,1365,-35.3)"
       y2="828"
       y1="794.40002"
       x2="-1869"
       x1="-1869"
       id="linearGradientSlvr">
      <stop
         id="stop4422"
         offset="0"
         style="stop-color:#696969" />
      <stop
         id="stop4424"
         offset=".17"
         style="stop-color:#c7c7c9" />
      <stop
         id="stop4426"
         offset=".36"
         style="stop-color:#f9f9ff" />
      <stop
         id="stop4428"
         offset=".73"
         style="stop-color:#ccccce" />
      <stop
         id="stop4430"
         offset="1"
         style="stop-color:#696969" />
    </linearGradient>
    <linearGradient
       inkscape:collect="always"
       xlink:href="#linearGradientSlvr"
       id="linearGradient6413"
       x1="-204.98221"
       y1="1223.9135"
       x2="-195.673"
       y2="1223.9135"
       gradientUnits="userSpaceOnUse" />
    <linearGradient
       inkscape:collect="always"
       xlink:href="#linearGradientSlvr"
       id="linearGradient6421"
       x1="-258.41422"
       y1="1225.201"
       x2="-249.10541"
       y2="1225.201"
       gradientUnits="userSpaceOnUse" />
    <linearGradient
       inkscape:collect="always"
       xlink:href="#linearGradientSlvr"
       id="linearGradient6429"
       x1="-232.35471"
       y1="1229.7675"
       x2="-220.53641"
       y2="1229.7675"
       gradientUnits="userSpaceOnUse" />
    <linearGradient
       inkscape:collect="always"
       xlink:href="#linearGradientSlvr"
       id="linearGradient6437"
       x1="-273.86191"
       y1="1224.4572"
       x2="-266.6142"
       y2="1224.4572"
       gradientUnits="userSpaceOnUse" />
    <linearGradient
       inkscape:collect="always"
       xlink:href="#linearGradientSlvr"
       id="linearGradient6439"
       x1="-261.6138"
       y1="1214.3041"
       x2="-257.67422"
       y2="1214.3041"
       gradientUnits="userSpaceOnUse" />
    <linearGradient
       inkscape:collect="always"
       xlink:href="#linearGradientSlvr"
       id="linearGradient6441"
       x1="-241.6656"
       y1="1230.2966"
       x2="-236.74541"
       y2="1230.2966"
       gradientUnits="userSpaceOnUse" />
    <linearGradient
       inkscape:collect="always"
       xlink:href="#linearGradientSlvr"
       id="linearGradient6443"
       x1="-242.63881"
       y1="1217.0538"
       x2="-235.39081"
       y2="1217.0538"
       gradientUnits="userSpaceOnUse" />
    <linearGradient
       inkscape:collect="always"
       xlink:href="#linearGradientSlvr"
       id="linearGradient6445"
       x1="-224.29071"
       y1="1216.4038"
       x2="-217.04311"
       y2="1216.4038"
       gradientUnits="userSpaceOnUse" />
    <linearGradient
       inkscape:collect="always"
       xlink:href="#linearGradientSlvr"
       id="linearGradient6447"
       x1="-208.82401"
       y1="1215.2616"
       x2="-204.88431"
       y2="1215.2616"
       gradientUnits="userSpaceOnUse" />
    <linearGradient
       inkscape:collect="always"
       xlink:href="#linearGradientSlvr"
       id="linearGradient6449"
       x1="-214.94041"
       y1="1227.5013"
       x2="-211.00021"
       y2="1227.5013"
       gradientUnits="userSpaceOnUse" />
  </defs>
  <g
     id="red-carpet"
     inkscape:label="g6484"
     transform="matrix(1.1024933,0,0,1.1024933,306.49414,-1336.4436)">
    <path
       inkscape:connector-curvature="0"
       id="path6405"
       d="m -238.66521,1218.1293 c 0.012,0 0.029,0 0.045,0 l 1.8534,2.0274 -1.2946,-2.3933 2.6706,0.59 -2.4159,-1.2215 c 0,-0.049 0.01,-0.098 0.01,-0.1475 l 2.4022,-1.1485 -2.5682,0.5077 c 0,0 0,0 0,0 l 1.3867,-2.2995 -1.8461,1.852 c -0.077,-0.041 -0.1594,-0.078 -0.2454,-0.1024 l -0.3176,-2.6208 -0.3171,2.6183 c -0.037,0 -0.077,0.041 -0.1135,0.041 l -1.6376,-1.8955 1.1309,2.2729 c -0.037,0.045 -0.068,0.094 -0.097,0.1434 l -2.561,-0.506 2.3942,1.144 c 5e-4,0.041 0,0.086 0,0.127 l -2.4526,1.0711 2.7001,-0.4552 c 0,0 0.016,0.041 0.025,0.041 l -1.3007,2.4044 1.8515,-2.0254 c 0,10e-4 0,0 0.012,0 l 0.2151,2.7777 0.4679,-2.7695 z"
       style="fill:url(#linearGradient6443);fill-opacity:1;fill-rule:evenodd;stroke:none;stroke-width:1.01914048" />
    <path
       inkscape:connector-curvature="0"
       id="path6403"
       d="m -253.31551,1226.6328 c 0.02,0 0.037,0 0.058,-0.041 l 2.3828,2.6064 -1.6643,-3.0764 3.4336,0.758 -3.1061,-1.5705 c 0,-0.061 0.012,-0.1271 0.012,-0.1885 l 3.0887,-1.4759 -3.302,0.6523 c 0,0 0,0 0,0 l 1.783,-2.9564 -2.3735,2.3811 c -0.099,-0.053 -0.2045,-0.098 -0.3155,-0.1311 l -0.4081,-3.3698 -0.4077,3.3669 c -0.049,0 -0.098,0.041 -0.1459,0.049 l -2.1055,-2.4376 1.454,2.9223 c -0.045,0.057 -0.087,0.1189 -0.1245,0.1844 l -3.2928,-0.6507 3.0783,1.4715 c 6e-4,0.053 0,0.1065 0.01,0.1598 l -3.1532,1.3767 3.4715,-0.5851 c 0.01,0 0.025,0.041 0.033,0.041 l -1.6723,3.0916 2.3804,-2.604 c 0,10e-4 0.01,0 0.012,0 l 0.277,3.571 z"
       style="fill:url(#linearGradient6421);fill-opacity:1;fill-rule:evenodd;stroke:none;stroke-width:1.01914048" />
    <path
       inkscape:connector-curvature="0"
       id="path6401"
       d="m -259.45221,1214.8881 c 0,0 0.016,0 0.025,0 l 1.006,1.1006 -0.7027,-1.2989 1.4497,0.3196 -1.3114,-0.6634 c 0,-0.041 0,-0.053 0,-0.078 l 1.3041,-0.6232 -1.3942,0.2746 c -7e-4,-10e-4 0,0 0,0 l 0.7528,-1.2481 -1.0021,1.0051 c -0.042,-0.041 -0.087,-0.041 -0.1332,-0.053 l -0.1725,-1.4223 -0.1721,1.4215 c -0.025,0 -0.041,0 -0.062,0.041 l -0.8889,-1.0293 0.6139,1.2337 c -0.021,0.041 -0.037,0.049 -0.052,0.078 l -1.3903,-0.2745 1.2997,0.6212 c 2e-4,0.041 0.001,0.045 0,0.07 l -1.3314,0.5814 1.4658,-0.2459 c 0,0 0.01,0 0.012,0 l -0.7061,1.3055 1.0051,-1.0998 c 0,9e-4 0,0 0,0 l 0.1167,1.5079 z"
       style="fill:url(#linearGradient6439);fill-opacity:1;fill-rule:evenodd;stroke:none;stroke-width:1.01914048" />
    <path
       inkscape:connector-curvature="0"
       id="path6399"
       d="m -249.88891,1249.8745 c 0.9959,0.086 1.7263,0.3729 1.7263,0.7089 0,0.4057 -1.0591,0.7359 -2.3655,0.7359 -1.3064,0 -2.3654,-0.3278 -2.3654,-0.7359 0,-0.3442 0.752,-0.6306 1.7704,-0.7126 v -13.2209 h 1.2342 z"
       style="fill:#000000;fill-rule:evenodd;stroke:none;stroke-width:1.01914048" />
    <path
       inkscape:connector-curvature="0"
       id="path6397"
       d="m -258.32951,1257.9245 c 1.64,0.1188 2.8623,0.5781 2.8623,1.1268 0,0.6384 -1.6577,1.1563 -3.7025,1.1563 -2.0447,0 -3.7024,-0.5179 -3.7024,-1.1563 0,-0.5524 1.2395,-1.0146 2.8971,-1.1293 v -20.3063 h 1.6455 z"
       style="fill:#000000;fill-rule:evenodd;stroke:none;stroke-width:1.01914048" />
    <path
       inkscape:connector-curvature="0"
       id="path6395"
       d="m -220.31751,1217.4851 c 0.012,0 0.029,0 0.045,0 l 1.8533,2.0275 -1.2945,-2.393 2.6706,0.5901 -2.4159,-1.2219 c 0,-0.049 0.01,-0.098 0.01,-0.1475 l 2.4023,-1.1481 -2.5682,0.5077 c 0,0 0,0 0,0 l 1.3868,-2.2996 -1.846,1.8521 c -0.077,-0.041 -0.1594,-0.078 -0.2455,-0.1024 l -0.3175,-2.6212 -0.3172,2.6187 c -0.037,0 -0.077,0.041 -0.1135,0.041 l -1.6375,-1.8955 1.131,2.2729 c -0.037,0.045 -0.068,0.094 -0.097,0.1434 l -2.5611,-0.5065 2.3942,1.1445 c 5e-4,0.041 0,0.086 0,0.1229 l -2.4525,1.0711 2.7,-0.4552 c 0,0 0.016,0.041 0.025,0.041 l -1.3006,2.4044 1.8515,-2.0254 c 0,10e-4 0,0 0.012,0 l 0.2151,2.7777 0.4679,-2.7695 z"
       style="fill:url(#linearGradient6445);fill-opacity:1;fill-rule:evenodd;stroke:none;stroke-width:1.01914048" />
    <path
       inkscape:connector-curvature="0"
       id="path6393"
       d="m -199.88191,1225.3449 c 0.021,0 0.037,0 0.057,-0.041 l 2.3827,2.6069 -1.6643,-3.0768 3.4335,0.7584 -3.1061,-1.5706 c 0,-0.062 0.012,-0.127 0.012,-0.1885 l 3.0886,-1.4763 -3.302,0.6528 c 0,0 0,0 0,0 l 1.783,-2.9568 -2.3735,2.3815 c -0.099,-0.053 -0.2044,-0.098 -0.3155,-0.1312 l -0.4081,-3.3697 -0.4077,3.3665 c -0.05,0 -0.098,0.041 -0.1459,0.049 l -2.1054,-2.4372 1.454,2.9223 c -0.046,0.057 -0.087,0.1188 -0.125,0.1844 l -3.2927,-0.6507 3.0783,1.4714 c 6e-4,0.053 0,0.1066 0.01,0.1598 l -3.1532,1.3768 3.4715,-0.5851 c 0.01,0 0.025,0.041 0.033,0.041 l -1.6723,3.0915 2.3805,-2.6043 c 0,0 0.01,0 0.012,0 l 0.277,3.5713 z"
       style="fill:url(#linearGradient6413);fill-opacity:1;fill-rule:evenodd;stroke:none;stroke-width:1.01914048" />
    <path
       inkscape:connector-curvature="0"
       id="path6391"
       d="m -206.66241,1215.8539 c 0,0 0.016,0 0.025,0 l 1.0061,1.1006 -0.7028,-1.2993 1.4498,0.3196 -1.3115,-0.663 c 0,-0.041 0,-0.053 0,-0.082 l 1.3041,-0.6232 -1.3942,0.2745 c 0,-10e-4 0,0 0,0 l 0.7527,-1.2485 -1.002,1.0056 c -0.042,-0.041 -0.086,-0.041 -0.1332,-0.053 l -0.1725,-1.4227 -0.1721,1.4214 c -0.025,0 -0.042,0 -0.061,0.041 l -0.8889,-1.0293 0.6138,1.2342 c -0.02,0.041 -0.037,0.049 -0.053,0.078 l -1.3902,-0.2745 1.2997,0.6211 c 3e-4,0.041 0,0.045 0,0.07 l -1.3314,0.5815 1.4657,-0.2459 c 0,0 0.01,0 0.012,0 l -0.706,1.3051 1.005,-1.0994 c 0,4e-4 0,10e-4 0,0 l 0.1172,1.5079 z"
       style="fill:url(#linearGradient6447);fill-opacity:1;fill-rule:evenodd;stroke:none;stroke-width:1.01914048" />
    <path
       inkscape:connector-curvature="0"
       id="path6389"
       d="m -212.77831,1228.0857 c 0,0 0.016,0 0.025,0 l 1.0061,1.1006 -0.7027,-1.2993 1.4497,0.3196 -1.3115,-0.663 c 0,-0.041 0,-0.053 0,-0.078 l 1.3041,-0.6232 -1.3941,0.2745 c 0,-10e-4 0,0 0,0 l 0.7528,-1.248 -1.0021,1.0051 c -0.042,-0.041 -0.086,-0.041 -0.1336,-0.053 l -0.1725,-1.4227 -0.1721,1.4214 c -0.025,0 -0.042,0 -0.061,0.041 l -0.889,-1.0288 0.6139,1.2337 c -0.02,0.041 -0.037,0.049 -0.053,0.078 l -1.3904,-0.2745 1.2997,0.6212 c 3e-4,0.041 0,0.045 0,0.07 l -1.3314,0.5814 1.4657,-0.2459 c 0,0 0.01,0 0.012,0 l -0.706,1.3051 1.005,-1.0994 c 0,4e-4 0,10e-4 0,0 l 0.1172,1.5079 z"
       style="fill:url(#linearGradient6449);fill-opacity:1;fill-rule:evenodd;stroke:none;stroke-width:1.01914048" />
    <path
       inkscape:connector-curvature="0"
       id="path6387"
       d="m -191.84141,1269.842 v -32.2263 h -2.4682 v 32.2288 c -2.5783,0.168 -4.5065,0.8387 -4.5065,1.6422 0,0.9289 2.5786,1.682 5.7594,1.682 3.1808,0 5.7593,-0.7531 5.7593,-1.682 0,-0.8072 -1.9468,-1.4816 -4.544,-1.6447 z"
       style="fill:#000000;fill-rule:evenodd;stroke:none;stroke-width:1.01914048" />
    <path
       inkscape:connector-curvature="0"
       id="path6385"
       d="m -214.64211,1249.8622 c 1.0772,0.07 1.8873,0.3647 1.8873,0.7212 0,0.4057 -1.059,0.7359 -2.3654,0.7359 -1.3064,0 -2.3655,-0.3278 -2.3655,-0.7359 0,-0.3237 0.6738,-0.5995 1.6095,-0.6978 v -13.2357 h 1.2341 z"
       style="fill:#000000;fill-rule:evenodd;stroke:none;stroke-width:1.01914048" />
    <path
       inkscape:connector-curvature="0"
       id="path6383"
       d="m -205.53961,1257.9245 c 1.6401,0.1188 2.8623,0.5781 2.8623,1.1268 0,0.6384 -1.6577,1.1563 -3.7024,1.1563 -2.0449,0 -3.7025,-0.5179 -3.7025,-1.1563 0,-0.5524 1.2395,-1.0146 2.897,-1.1293 v -20.3063 h 1.6456 z"
       style="fill:#000000;fill-rule:evenodd;stroke:none;stroke-width:1.01914048" />
    <path
       inkscape:connector-curvature="0"
       id="path6381"
       d="m -269.88851,1225.5326 c 0.012,0 0.029,0 0.045,0 l 1.8533,2.0274 -1.2945,-2.3929 2.6705,0.5896 -2.4158,-1.2214 c 0,-0.049 0.01,-0.098 0.01,-0.1475 l 2.4023,-1.1482 -2.5683,0.5073 c -10e-4,0 0,0 0,0 l 1.3868,-2.2995 -1.8461,1.8521 c -0.077,-0.041 -0.1594,-0.078 -0.2454,-0.1025 l -0.3176,-2.6207 -0.3171,2.6183 c -0.037,0 -0.077,0.041 -0.1135,0.041 l -1.6376,-1.8955 1.131,2.2729 c -0.037,0.045 -0.068,0.094 -0.097,0.1434 l -2.5611,-0.5061 2.3942,1.1445 c 5e-4,0.041 0,0.086 0,0.127 l -2.4525,1.0707 2.7001,-0.4553 c 0,0 0.016,0.041 0.025,0.041 l -1.3007,2.4048 1.8515,-2.0258 c 0,0 0,0 0.012,0 l 0.2151,2.7777 z"
       style="fill:url(#linearGradient6437);fill-opacity:1;fill-rule:evenodd;stroke:none;stroke-width:1.01914048" />
    <path
       inkscape:connector-curvature="0"
       id="path6379"
       d="m -266.18481,1240.9228 c 0.2942,0.062 0.8192,0.1475 1.3995,0.1229 1.2094,-0.3647 2.4402,-1.5894 2.6597,-1.8152 0.4986,-0.7732 0.8362,-1.521 0.8362,-1.521 0,0 0.4114,-0.209 0.6171,0 0.094,0.094 0.145,0.2786 0.1528,0.5118 0.091,-0.2172 0.1414,-0.4151 0.1414,-0.5716 v 1.0936 c 0,0 -0.061,-0.057 -0.1697,-0.086 -0.025,0.168 -0.067,0.3442 -0.1245,0.5224 -0.1172,0.3565 -0.4604,0.938 -0.8229,1.4719 -0.1208,0.1761 -0.4089,0.5675 -0.8227,0.8408 -0.5308,0.3523 -1.2139,0.5785 -1.4398,0.631 -0.3294,0.078 -0.8192,0.09 -1.2757,0.078 -0.1315,0.041 -0.2627,0.041 -0.3905,0.041 -0.1557,0 -0.3274,-0.041 -0.5093,-0.09 -0.1803,0 -0.293,-0.041 -0.293,-0.041 0,0 -1.4398,-0.209 -2.2625,-0.8412 -0.8228,-0.6306 -1.4399,-1.4719 -1.4399,-1.4719 0,0 -0.5211,-0.5326 -0.2864,-0.9452 -0.1582,-0.4176 -0.2803,-1.1592 -0.2557,-1.217 0,0 -0.2147,0.4376 0,0 0.1832,-0.3729 2.634,2.4437 4.2855,3.2735 z"
       style="fill:#290a43;fill-opacity:1;fill-rule:evenodd;stroke:none;stroke-width:1.01914048" />
    <path
       inkscape:connector-curvature="0"
       id="path6377"
       d="m -271.34811,1269.8248 c 2.7566,0.127 4.8659,0.8215 4.8659,1.6619 0,0.9289 -2.5785,1.682 -5.7593,1.682 -3.1808,0 -5.7594,-0.7531 -5.7594,-1.682 0,-0.7695 1.7693,-1.4185 4.1846,-1.6185 v -32.2525 h 2.4682 z"
       style="fill:#000000;fill-rule:evenodd;stroke:none;stroke-width:1.01914048" />
    <path
       inkscape:connector-curvature="0"
       id="path6375"
       d="m -238.96411,1231.0118 c 0.01,0 0.025,0 0.029,0 l 1.2566,1.3747 -0.8777,-1.6226 1.8108,0.4015 -1.6381,-0.8281 c 0,-0.041 0,-0.066 0,-0.098 l 1.6288,-0.7785 -1.7413,0.3442 c 0,0 0,0 0,0 l 0.9403,-1.5595 -1.2517,1.2559 c -0.052,-0.041 -0.1078,-0.053 -0.1664,-0.07 l -0.2151,-1.7771 -0.2151,1.7754 c -0.025,0 -0.052,0 -0.077,0.041 l -1.1104,-1.2854 0.7668,1.5415 c -0.025,0.041 -0.046,0.062 -0.065,0.098 l -1.7365,-0.3442 1.6234,0.7757 c 3e-4,0.041 0,0.057 0,0.086 l -1.6629,0.7261 1.8307,-0.3074 c 0,0 0.012,0 0.016,0.041 l -0.8819,1.6304 1.2553,-1.373 c 0,4e-4 0,10e-4 0,0 l 0.1459,1.8832 z"
       style="fill:url(#linearGradient6441);fill-opacity:1;fill-rule:evenodd;stroke:none;stroke-width:1.01914048" />
    <path
       inkscape:connector-curvature="0"
       id="path6373"
       d="m -244.06831,1244.3925 c 0.7054,0.062 1.2255,0.2622 1.2255,0.5085 0,0.2909 -0.7367,0.5257 -1.6455,0.5257 -0.9088,0 -1.6455,-0.2376 -1.6455,-0.5257 0,-0.2704 0.6326,-0.4909 1.4485,-0.522 v -8.0512 h 0.617 z"
       style="fill:#000000;fill-rule:evenodd;stroke:none;stroke-width:1.01914048" />
    <path
       inkscape:connector-curvature="0"
       id="path6371"
       d="m -225.88091,1231.5768 c 0.025,0 0.049,0 0.073,-0.041 l 3.0253,3.3095 -2.1131,-3.9061 4.3593,0.9625 -3.9435,-1.9938 c 0.01,-0.078 0.016,-0.1598 0.016,-0.2418 l 3.9213,-1.8742 -4.1922,0.8285 c 0,0 0,0 0,0 l 2.2637,-3.7537 -3.0134,3.0232 c -0.1258,-0.07 -0.2602,-0.1271 -0.4004,-0.1639 l -0.5182,-4.2782 -0.5178,4.2745 c -0.063,0 -0.1246,0.041 -0.1848,0.062 l -2.6732,-3.0944 1.8462,3.7102 c -0.058,0.074 -0.1111,0.1516 -0.1582,0.2336 l -4.1806,-0.8265 3.9082,1.8681 c 7e-4,0.07 0,0.1393 0.012,0.2048 l -4.0034,1.7484 4.4075,-0.7428 c 0.012,0 0.025,0.041 0.041,0.049 l -2.1231,3.9245 3.0223,-3.3058 c 0,0 0.012,0 0.021,0 l 0.3516,4.5339 0.7638,-4.5204 z"
       style="fill:url(#linearGradient6429);fill-opacity:1;fill-rule:evenodd;stroke:none;stroke-width:1.01914048" />
    <path
       inkscape:connector-curvature="0"
       id="path6369"
       d="m -221.05321,1244.3819 c 0.7858,0.041 1.3865,0.2581 1.3865,0.5191 0,0.2909 -0.7367,0.5257 -1.6455,0.5257 -0.9089,0 -1.6456,-0.2376 -1.6456,-0.5257 0,-0.2499 0.5509,-0.461 1.2876,-0.5134 v -8.0598 h 0.617 z"
       style="fill:#000000;fill-rule:evenodd;stroke:none;stroke-width:1.01914048" />
    <path
       inkscape:connector-curvature="0"
       id="path6367"
       d="m -221.83121,1235.0724 c 0,-0.2828 0.2385,-0.5147 0.5142,-0.5147 0.284,0 0.5143,0.2295 0.5143,0.5147 v 0.4421 c 0,0.2827 -0.2385,0.515 -0.5143,0.515 -0.2839,0 -0.5142,-0.2294 -0.5142,-0.515 z"
       style="fill:#000000;fill-rule:evenodd;stroke:none;stroke-width:1.01914048" />
    <path
       inkscape:connector-curvature="0"
       id="path6365"
       d="m -240.90581,1243.4095 h 15.8436 l 32.2881,41.6325 h -81.0422 z"
       style="fill:#d40000;fill-rule:evenodd;stroke:none;stroke-width:1.01914048" />
    <path
       inkscape:connector-curvature="0"
       id="path6363"
       d="m -220.65391,1236.3422 c 0.1143,-0.1967 1.5372,1.7484 2.2407,1.7988 0.6983,0.049 2.0618,-1.1358 2.0618,-1.1358 0.2221,-0.1803 0.386,-0.094 0.3672,0.1843 l 0.033,-0.5097 c -0.02,0.2827 -0.2118,0.6572 -0.4356,0.8367 0,0 -1.358,1.1862 -2.063,1.1358 -0.6967,-0.049 -1.9581,-1.5218 -2.0697,-1.6115 -0.1115,-0.09 0,0 0,0 -0.094,-0.1024 -0.1979,-0.4208 -0.1365,-0.6974 0,0 -0.1143,0.1967 0,0 z"
       style="fill:#290a43;fill-opacity:1;fill-rule:evenodd;stroke:none;stroke-width:1.01914048" />
    <path
       inkscape:connector-curvature="0"
       id="path6361"
       d="m -244.84621,1235.0724 c 0,-0.2828 0.2384,-0.5147 0.5141,-0.5147 0.284,0 0.5143,0.2295 0.5143,0.5147 v 0.4421 c 0,0.2827 -0.2385,0.515 -0.5143,0.515 -0.2839,0 -0.5141,-0.2294 -0.5141,-0.515 z"
       style="fill:#000000;fill-rule:evenodd;stroke:none;stroke-width:1.01914048" />
    <path
       inkscape:connector-curvature="0"
       id="path6359"
       d="m -249.64441,1236.7601 c 0.068,-0.2171 1.8825,1.3506 2.5792,1.2379 0.6912,-0.1107 1.7589,-1.5808 1.7589,-1.5808 0.1766,-0.2254 0.3557,-0.1803 0.3979,0.094 l -0.078,-0.5048 c 0.043,0.2786 -0.062,0.6892 -0.2405,0.9153 0,0 -1.0622,1.4682 -1.7603,1.5813 -0.6897,0.1106 -2.2426,-1.0326 -2.3712,-1.0945 -0.1286,-0.062 0,0 0,0 -0.1147,-0.078 -0.2856,-0.3647 -0.2864,-0.6478 0,0 -0.068,0.2172 0,0 z"
       style="fill:#290a43;fill-opacity:1;fill-rule:evenodd;stroke:none;stroke-width:1.01914048" />
    <path
       inkscape:connector-curvature="0"
       id="path6357"
       d="m -274.29921,1234.695 c 0,-0.9646 0.7761,-1.7468 1.7484,-1.7468 0.9656,0 1.7484,0.7908 1.7484,1.7468 v 0.7117 c 0,0.9646 -0.776,1.7468 -1.7484,1.7468 -0.9656,0 -1.7484,-0.7908 -1.7484,-1.7468 z"
       style="fill:#000000;fill-rule:evenodd;stroke:none;stroke-width:1.01914048" />
    <path
       inkscape:connector-curvature="0"
       id="path6355"
       d="m -207.50711,1235.3031 c 0,-0.6782 0.5479,-1.2285 1.2341,-1.2285 0.6817,0 1.2342,0.5495 1.2342,1.2285 v 0.6973 c 0,0.6782 -0.5477,1.2285 -1.2342,1.2285 -0.6816,0 -1.2341,-0.5495 -1.2341,-1.2285 z"
       style="fill:#000000;fill-rule:evenodd;stroke:none;stroke-width:1.01914048" />
    <path
       inkscape:connector-curvature="0"
       id="path6353"
       d="m -216.03711,1235.0654 c 0,-0.4589 0.365,-0.831 0.8227,-0.831 0.4544,0 0.8228,0.3647 0.8228,0.831 v 0.4409 c 0,0.4589 -0.3651,0.831 -0.8228,0.831 -0.4544,0 -0.8227,-0.3647 -0.8227,-0.831 z"
       style="fill:#000000;fill-rule:evenodd;stroke:none;stroke-width:1.01914048" />
    <path
       inkscape:connector-curvature="0"
       id="path6351"
       d="m -194.79251,1234.6925 c 0,-0.9645 0.7762,-1.7467 1.7484,-1.7467 0.9656,0 1.7484,0.7908 1.7484,1.7467 v 0.7118 c 0,0.9645 -0.7759,1.7467 -1.7484,1.7467 -0.9656,0 -1.7484,-0.7908 -1.7484,-1.7467 z"
       style="fill:#000000;fill-rule:evenodd;stroke:none;stroke-width:1.01914048" />
    <path
       inkscape:connector-curvature="0"
       id="path6349"
       d="m -205.12671,1238.2909 c 0.2147,-0.4372 3.537,3.4985 5.0463,3.4985 1.4979,0 3.3329,-1.9537 3.3329,-1.9537 0.9462,-0.8531 1.7134,-0.5101 1.7134,-0.4515 v -1.0933 c 0,0.604 -0.7517,1.8013 -1.7083,2.638 0,0 -1.8253,1.9541 -3.338,1.9541 -1.4945,0 -4.4021,-2.9502 -4.6536,-3.1243 -0.2516,-0.1762 0,0 0,0 -0.2168,-0.209 -0.4242,-1.3944 -0.3926,-1.4678 0,0 -0.2147,0.4372 0,0 z"
       style="fill:#290a43;fill-opacity:1;fill-rule:evenodd;stroke:none;stroke-width:1.01914048" />
    <path
       inkscape:connector-curvature="0"
       id="path6347"
       d="m -213.84971,1236.6634 c 0.1652,-0.2458 1.8351,2.4061 2.7413,2.536 0.8995,0.1311 2.8983,-1.3674 2.8983,-1.3674 0.2323,-0.1639 0.3884,-0.066 0.3491,0.2213 l 0.053,-0.3852 c -0.041,0.2868 -0.2589,0.6564 -0.4938,0.8212 0,0 -1.9883,1.4955 -2.8967,1.3648 -0.8974,-0.1311 -2.3998,-2.1507 -2.5364,-2.2774 -0.1369,-0.127 0,0 0,0 -0.1131,-0.1434 -0.2217,-0.4921 -0.1803,-0.7772 0,0 -0.1,0.1065 0.066,-0.1394 z"
       style="fill:#290a43;fill-opacity:1;fill-rule:evenodd;stroke:none;stroke-width:1.01914048" />
    <path
       inkscape:connector-curvature="0"
       id="path6345"
       d="m -260.39351,1235.301 c 0,-0.6785 0.5478,-1.2284 1.2342,-1.2284 0.6815,0 1.2341,0.549 1.2341,1.2284 v 0.697 c 0,0.6785 -0.5478,1.2284 -1.2341,1.2284 -0.6817,0 -1.2342,-0.5495 -1.2342,-1.2284 z"
       style="fill:#000000;fill-rule:evenodd;stroke:none;stroke-width:1.01914048" />
    <path
       inkscape:connector-curvature="0"
       id="path6343"
       d="m -251.28411,1235.0634 c 0,-0.459 0.3651,-0.831 0.8228,-0.831 0.4544,0 0.8228,0.3647 0.8228,0.831 v 0.4404 c 0,0.4589 -0.3651,0.831 -0.8228,0.831 -0.4544,0 -0.8228,-0.3647 -0.8228,-0.831 z"
       style="fill:#000000;fill-rule:evenodd;stroke:none;stroke-width:1.01914048" />
    <path
       inkscape:connector-curvature="0"
       id="path28940-9"
       d="m -257.67571,1237.4895 c 0.088,-0.2828 2.443,1.7521 3.3469,1.6058 0.8971,-0.1434 2.3806,-2.1737 2.3806,-2.1737 0.1754,-0.2254 0.3532,-0.1762 0.3974,0.1065 l -0.06,-0.3852 c 0.044,0.2869 -0.06,0.7052 -0.2376,0.9326 0,0 -1.4737,2.0246 -2.3796,2.1713 -0.8951,0.1434 -2.9103,-1.3399 -3.0771,-1.4198 -0.1667,-0.082 0,0 0,0 -0.1491,-0.1024 -0.3528,-0.4057 -0.3945,-0.6896 0,0 -0.065,0.1311 0.024,-0.1516 z"
       style="fill:#290a43;fill-opacity:1;fill-rule:evenodd;stroke:none;stroke-width:1.01914048" />
  </g>
</svg>
