<?xml version="1.0" encoding="UTF-8" standalone="no"?>
<svg
   xmlns:dc="http://purl.org/dc/elements/1.1/"
   xmlns:cc="http://creativecommons.org/ns#"
   xmlns:rdf="http://www.w3.org/1999/02/22-rdf-syntax-ns#"
   xmlns:svg="http://www.w3.org/2000/svg"
   xmlns="http://www.w3.org/2000/svg"
   xmlns:sodipodi="http://sodipodi.sourceforge.net/DTD/sodipodi-0.dtd"
   xmlns:inkscape="http://www.inkscape.org/namespaces/inkscape"
   version="1.1"
   id="svg4367"
   sodipodi:docname="i43.svg"
   width="82.571266"
   height="75"
   inkscape:version="0.92.2 (5c3e80d, 2017-08-06)">
  <metadata
     id="metadata4371">
    <rdf:RDF>
      <cc:Work
         rdf:about="">
        <dc:format>image/svg+xml</dc:format>
        <dc:type
           rdf:resource="http://purl.org/dc/dcmitype/StillImage" />
        <dc:title></dc:title>
      </cc:Work>
    </rdf:RDF>
  </metadata>
  <sodipodi:namedview
     pagecolor="#ffffff"
     bordercolor="#666666"
     borderopacity="1"
     objecttolerance="10"
     gridtolerance="10"
     guidetolerance="10"
     inkscape:pageopacity="0"
     inkscape:pageshadow="2"
     inkscape:window-width="2560"
     inkscape:window-height="1018"
     id="namedview4369"
     showgrid="false"
     fit-margin-top="0"
     fit-margin-left="0"
     fit-margin-right="0"
     fit-margin-bottom="0"
     inkscape:zoom="11.32"
     inkscape:cx="42.87574"
     inkscape:cy="37.5"
     inkscape:window-x="-8"
     inkscape:window-y="-8"
     inkscape:window-maximized="1"
     inkscape:current-layer="svg4367" />
  <defs
     id="defs4543" />
  <g
     id="open-case"
     transform="matrix(0.24532653,0,0,-0.24532653,-26.574015,211.68834)">
    <path
       inkscape:connector-curvature="0"
       id="path22033"
       style="fill:#000000;fill-opacity:1;fill-rule:nonzero;stroke:none;stroke-width:0.1"
       d="m 149.991,647.317 v -71.169 c 0,-10.481 8.498,-18.979 18.976,-18.979 h 225.628 c 10.478,0 18.976,8.498 18.976,18.979 v 71.169 h -263.58" />
    <path
       inkscape:connector-curvature="0"
       id="path22035"
       style="fill:#000000;fill-opacity:1;fill-rule:nonzero;stroke:none;stroke-width:0.1"
       d="m 139.675,862.884 h -11.757 c -10.825,0 -19.597,-8.772 -19.597,-19.597 V 666.915 c 0,-10.826 8.772,-19.598 19.597,-19.598 h 11.757 v 215.567" />
    <path
       inkscape:connector-curvature="0"
       id="path22037"
       style="fill:#000000;fill-opacity:1;fill-rule:nonzero;stroke:none;stroke-width:0.1"
       d="m 170.379,662.338 v -11.102 h 7.84 v 11.102 c 0,12.97 -10.549,23.519 -23.516,23.519 h -11.107 v -7.838 h 11.107 c 8.647,0 15.676,-7.034 15.676,-15.681" />
    <path
       inkscape:connector-curvature="0"
       id="path22039"
       style="fill:#fcebb2;fill-opacity:1;fill-rule:nonzero;stroke:none;stroke-width:0.1"
       d="m 165.753,633.272 c 0,-1.894 -1.534,-3.428 -3.431,-3.428 -1.894,0 -3.428,1.534 -3.428,3.428 0,1.895 1.534,3.432 3.428,3.432 1.897,0 3.431,-1.537 3.431,-3.432" />
    <path
       inkscape:connector-curvature="0"
       id="path22041"
       style="fill:#fcebb2;fill-opacity:1;fill-rule:nonzero;stroke:none;stroke-width:0.1"
       d="m 165.753,608.452 c 0,-1.894 -1.534,-3.431 -3.431,-3.431 -1.894,0 -3.428,1.537 -3.428,3.431 0,1.894 1.534,3.431 3.428,3.431 1.897,0 3.431,-1.537 3.431,-3.431" />
    <path
       inkscape:connector-curvature="0"
       id="path22043"
       style="fill:#fcebb2;fill-opacity:1;fill-rule:nonzero;stroke:none;stroke-width:0.1"
       d="m 165.753,583.631 c 0,-1.894 -1.534,-3.428 -3.431,-3.428 -1.894,0 -3.428,1.534 -3.428,3.428 0,1.894 1.534,3.429 3.428,3.429 1.897,0 3.431,-1.535 3.431,-3.429" />
    <path
       inkscape:connector-curvature="0"
       id="path22045"
       style="fill:#fcebb2;fill-opacity:1;fill-rule:nonzero;stroke:none;stroke-width:0.1"
       d="m 404.671,633.272 c 0,-1.894 -1.534,-3.428 -3.428,-3.428 -1.895,0 -3.429,1.534 -3.429,3.428 0,1.895 1.534,3.432 3.429,3.432 1.894,0 3.428,-1.537 3.428,-3.432" />
    <path
       inkscape:connector-curvature="0"
       id="path22047"
       style="fill:#fcebb2;fill-opacity:1;fill-rule:nonzero;stroke:none;stroke-width:0.1"
       d="m 404.671,608.452 c 0,-1.894 -1.534,-3.431 -3.428,-3.431 -1.895,0 -3.429,1.537 -3.429,3.431 0,1.894 1.534,3.431 3.429,3.431 1.894,0 3.428,-1.537 3.428,-3.431" />
    <path
       inkscape:connector-curvature="0"
       id="path22049"
       style="fill:#fcebb2;fill-opacity:1;fill-rule:nonzero;stroke:none;stroke-width:0.1"
       d="m 404.671,583.631 c 0,-1.894 -1.534,-3.428 -3.428,-3.428 -1.895,0 -3.429,1.534 -3.429,3.428 0,1.894 1.534,3.429 3.429,3.429 1.894,0 3.428,-1.535 3.428,-3.429" />
    <path
       inkscape:connector-curvature="0"
       id="path22051"
       style="fill:#000000;fill-opacity:1;fill-rule:nonzero;stroke:none;stroke-width:0.1"
       d="m 437.144,628.949 h -21.149 v -15.513 h 21.149 c 4.284,0 7.754,3.475 7.754,7.753 0,4.288 -3.47,7.76 -7.754,7.76" />
  </g>
</svg>
