<?xml version="1.0" encoding="UTF-8" standalone="no"?>
<svg
   xmlns:dc="http://purl.org/dc/elements/1.1/"
   xmlns:cc="http://creativecommons.org/ns#"
   xmlns:rdf="http://www.w3.org/1999/02/22-rdf-syntax-ns#"
   xmlns:svg="http://www.w3.org/2000/svg"
   xmlns="http://www.w3.org/2000/svg"
   xmlns:xlink="http://www.w3.org/1999/xlink"
   xmlns:sodipodi="http://sodipodi.sourceforge.net/DTD/sodipodi-0.dtd"
   xmlns:inkscape="http://www.inkscape.org/namespaces/inkscape"
   version="1.1"
   id="svg7041"
   sodipodi:docname="i57.svg"
   inkscape:version="0.92.2 (5c3e80d, 2017-08-06)">
  <metadata
     id="metadata7045">
    <rdf:RDF>
      <cc:Work
         rdf:about="">
        <dc:format>image/svg+xml</dc:format>
        <dc:type
           rdf:resource="http://purl.org/dc/dcmitype/StillImage" />
        <dc:title></dc:title>
      </cc:Work>
    </rdf:RDF>
  </metadata>
  <sodipodi:namedview
     pagecolor="#ffffff"
     bordercolor="#666666"
     borderopacity="1"
     objecttolerance="10"
     gridtolerance="10"
     guidetolerance="10"
     inkscape:pageopacity="0"
     inkscape:pageshadow="2"
     inkscape:window-width="2560"
     inkscape:window-height="1018"
     id="namedview7043"
     showgrid="false"
     inkscape:zoom="11.320127"
     inkscape:cx="-730.03247"
     inkscape:cy="-305.19991"
     inkscape:window-x="-8"
     inkscape:window-y="-8"
     inkscape:window-maximized="1"
     inkscape:current-layer="svg7041" />
  <defs
     id="defs4543">
    <linearGradient
       gradientUnits="userSpaceOnUse"
       gradientTransform="matrix(1.301,0,0,1.301,1365,-35.3)"
       y2="828"
       y1="794.4"
       x2="-1869"
       x1="-1869"
       id="linearGradientSlvr">
      <stop
         id="stop4422"
         offset="0"
         style="stop-color:#696969" />
      <stop
         id="stop4424"
         offset=".17"
         style="stop-color:#c7c7c9" />
      <stop
         id="stop4426"
         offset=".36"
         style="stop-color:#f9f9ff" />
      <stop
         id="stop4428"
         offset=".73"
         style="stop-color:#ccccce" />
      <stop
         id="stop4430"
         offset="1"
         style="stop-color:#696969" />
    </linearGradient>
    <linearGradient
       gradientUnits="userSpaceOnUse"
       gradientTransform="scale(.7835 1.276)"
       y2="781.4"
       y1="704.4"
       x2="-1405"
       x1="-1405"
       id="linearGradient7728">
      <stop
         id="stop4435"
         offset="0"
         style="stop-color:#1c072d" />
      <stop
         id="stop4437"
         offset=".29"
         style="stop-color:#5700aa" />
      <stop
         id="stop4439"
         offset=".64"
         style="stop-color:#4b127b" />
      <stop
         id="stop4441"
         offset="1"
         style="stop-color:#290a43" />
    </linearGradient>
    <linearGradient
       gradientUnits="userSpaceOnUse"
       gradientTransform="matrix(21.52154,-30.735573,30.735573,21.52154,140.24541,96.297925)"
       x2="1"
       id="linearGradient7597-8-5">
      <stop
         offset="0"
         stop-color="#d8d9dd"
         id="stop44080-2-1" />
      <stop
         offset=".52147"
         stop-color="#9a999e"
         id="stop44082-3-8" />
      <stop
         offset="1"
         stop-color="#c5c2c2"
         id="stop44084-0-8" />
    </linearGradient>
    <linearGradient
       x2="1"
       gradientTransform="matrix(16.747782,-23.918198,23.918198,16.747782,142.63847,92.885854)"
       gradientUnits="userSpaceOnUse"
       id="linearGradient19483-8"
       xlink:href="#linearGradient7728"
       inkscape:collect="always" />
    <radialGradient
       gradientUnits="userSpaceOnUse"
       gradientTransform="matrix(11.003421,0,0,11.003421,150.78515,79.767797)"
       r="1"
       cy="0"
       cx="0"
       id="radialGradient48886-9-2-2"
       xlink:href="#linearGradientSlvr">
      <stop
         offset="0"
         stop-color="#f4f3f2"
         id="stop48880-6-6-4"
         style="stop-color:#f9f9f9;stop-opacity:1" />
      <stop
         offset=".67364"
         stop-color="#f4f3f2"
         id="stop48882-7-3-4"
         style="stop-color:#c7c7c7;stop-opacity:1" />
      <stop
         offset="1"
         stop-color="#dad8d6"
         id="stop48884-7-8-4"
         style="stop-color:#696969;stop-opacity:0.94117647" />
    </radialGradient>
    <linearGradient
       inkscape:collect="always"
       xlink:href="#linearGradientSlvr"
       id="linearGradient7439"
       x1="132.68182"
       y1="80.929077"
       x2="169.34187"
       y2="80.929077"
       gradientUnits="userSpaceOnUse" />
  </defs>
  <g
     id="plane-btn5"
     transform="matrix(1.9655873,0,0,1.9655873,-1028.4485,246.12617)"
     inkscape:label="plane-btn">
    <path
       style="fill:url(#linearGradient7597-8-5);stroke-width:0.51463544"
       inkscape:connector-curvature="0"
       d="m 137.7906,67.68934 c -3.66832,3.690451 -5.83596,8.354592 -5.82927,13.240541 0.0803,9.946359 9.10184,19.012177 19.05026,19.077539 9.94893,-0.06588 18.96998,-9.130665 19.04974,-19.077539 -0.0798,-9.947389 -9.10081,-19.012178 -19.04974,-19.078566 0,5.15e-4 0,5.15e-4 -5.2e-4,0 h -0.0221 c -4.87925,0 -9.52641,2.163528 -13.19834,5.838025 m -1.95304,13.240541 c -0.003,-3.95343 1.66948,-7.704608 4.57048,-10.617959 2.90666,-2.908205 6.65166,-4.581799 10.60355,-4.578197 8.08595,0.03654 15.13337,7.106601 15.17351,15.196156 -0.0401,8.088011 -7.08756,15.159102 -15.17351,15.195641 -8.08647,-0.03603 -15.13337,-7.10763 -15.17403,-15.195641"
       id="path44088-4-4-1" />
    <path
       id="path45554-2-9-6"
       d="m 151.01159,62.59956 c -4.89573,0 -9.49863,1.90672 -12.96058,5.36816 -3.46195,3.462469 -5.36919,8.065369 -5.36919,12.961611 0,10.106926 8.22284,18.329257 18.33028,18.329257 10.10693,0 18.32977,-8.222331 18.32977,-18.329257 0,-10.107441 -8.22284,-18.329771 -18.32977,-18.329771 z m -14.59558,18.329771 c 0,-3.898879 1.51818,-7.564112 4.27508,-10.321014 2.7569,-2.756907 6.42265,-4.275077 10.32101,-4.275077 8.04787,0 14.59609,6.547707 14.59609,14.596091 0,8.047355 -6.54822,14.596092 -14.59609,14.596092 -8.04838,0 -14.59609,-6.548737 -14.59609,-14.596092"
       inkscape:connector-curvature="0"
       style="fill:url(#linearGradient7439);fill-opacity:1;stroke-width:0.51463544" />
    <path
       style="fill:url(#linearGradient19483-8);fill-opacity:1;stroke-width:0.51463544"
       inkscape:connector-curvature="0"
       d="m 136.41138,80.930875 c 0,8.061765 6.53537,14.597634 14.59764,14.597634 8.06176,0 14.59814,-6.535869 14.59814,-14.597634 0,-8.062794 -6.53638,-14.598145 -14.59814,-14.598145 -8.06227,0 -14.59764,6.535351 -14.59764,14.598145"
       id="path45576-3-4-7" />
    <path
       id="path48888-1-8-8"
       d="m 149.47283,69.84048 v 6.957357 l -9.53774,5.814866 v 2.554651 l 9.63038,-3.16964 v 5.165911 l -2.20522,1.740497 v 2.019429 l 3.43572,-1.067867 3.43518,1.067867 v -2.019429 l -2.22836,-1.740497 v -5.165911 l 9.62933,3.16964 v -2.554651 l -9.67566,-5.814866 v -6.911039 c 5.1e-4,-0.852751 -0.62836,-1.276296 -1.25314,-1.275782 -0.61653,0 -1.22895,0.411709 -1.23049,1.229464"
       inkscape:connector-curvature="0"
       style="fill:url(#radialGradient48886-9-2-2);fill-opacity:1;stroke-width:0.51463544" />
  </g>
</svg>
