<?xml version="1.0" encoding="UTF-8" standalone="no"?>
<svg
   xmlns:dc="http://purl.org/dc/elements/1.1/"
   xmlns:cc="http://creativecommons.org/ns#"
   xmlns:rdf="http://www.w3.org/1999/02/22-rdf-syntax-ns#"
   xmlns:svg="http://www.w3.org/2000/svg"
   xmlns="http://www.w3.org/2000/svg"
   xmlns:sodipodi="http://sodipodi.sourceforge.net/DTD/sodipodi-0.dtd"
   xmlns:inkscape="http://www.inkscape.org/namespaces/inkscape"
   version="1.1"
   id="svg360"
   sodipodi:docname="i6.svg"
   width="100"
   height="59.131687"
   inkscape:version="0.92.2 (5c3e80d, 2017-08-06)">
  <metadata
     id="metadata364">
    <rdf:RDF>
      <cc:Work
         rdf:about="">
        <dc:format>image/svg+xml</dc:format>
        <dc:type
           rdf:resource="http://purl.org/dc/dcmitype/StillImage" />
        <dc:title></dc:title>
      </cc:Work>
    </rdf:RDF>
  </metadata>
  <sodipodi:namedview
     pagecolor="#ffffff"
     bordercolor="#666666"
     borderopacity="1"
     objecttolerance="10"
     gridtolerance="10"
     guidetolerance="10"
     inkscape:pageopacity="0"
     inkscape:pageshadow="2"
     inkscape:window-width="1034"
     inkscape:window-height="480"
     id="namedview362"
     showgrid="false"
     fit-margin-top="0"
     fit-margin-left="0"
     fit-margin-right="0"
     fit-margin-bottom="0"
     inkscape:zoom="1.054791"
     inkscape:cx="128.93551"
     inkscape:cy="32.309505"
     inkscape:window-x="50"
     inkscape:window-y="350"
     inkscape:window-maximized="0"
     inkscape:current-layer="svg360" />
  <defs
     id="defs4543" />
  <g
     transform="matrix(1.9324845,0,0,1.9324845,-587.71368,-574.33323)"
     id="car-frnt2"
     inkscape:label="car-frnt">
    <path
       d="m 317.07841,316.39023 c 0.51259,-0.14323 -0.93909,-1.2386 -0.93909,-1.2386 -0.96732,-0.51188 -8.30051,-2.79718 -8.5778,-2.70228 -1.03893,0.35595 1.08127,2.48885 1.76389,2.87408 0.68263,0.38347 7.24112,1.20862 7.753,1.0668"
       style="fill:#000000;fill-opacity:1;fill-rule:nonzero;stroke:none;stroke-width:0.35277778"
       id="path36712-0-9"
       inkscape:connector-curvature="0" />
    <path
       d="m 355.05818,306.53073 -3.53166,1.39453 c -0.40005,-0.29598 -0.76623,-0.55633 -1.04387,-0.75389 0.53129,-0.72143 0.48754,-2.03517 0.41346,-2.74919 0.46249,-0.0385 1.26894,-0.0938 2.09373,-0.0938 0.47767,0 0.90382,0.019 1.26365,0.0554 0.2346,0.0233 0.40535,0.11607 0.53693,0.2921 0.34819,0.4625 0.32597,1.36208 0.26776,1.85491 m -2.28388,4.10845 -9.74337,3.74826 -0.0166,0.006 c -0.0268,0.0106 -0.0522,0.0258 -0.0751,0.0469 -0.19721,0.17604 -0.37854,0.35207 -0.5581,0.53869 -0.17815,0.18697 -0.35207,0.3803 -0.51364,0.59055 -0.15664,0.2159 -0.31786,0.42969 -0.4064,0.74648 -0.0201,0.0811 -0.0325,0.17498 -0.018,0.2794 0.0141,0.10689 0.0699,0.22437 0.1517,0.29951 0.0392,0.0399 0.0822,0.0681 0.12418,0.0928 0.0243,0.013 0.0342,0.0187 0.0705,0.0339 l 0.0487,0.0176 c 0.1016,0.0332 0.15733,0.0378 0.23212,0.0494 0.27376,0.0317 0.52811,0.0282 0.78458,0.0212 0.25541,-0.007 0.50765,-0.0222 0.75988,-0.0423 0.50448,-0.0399 1.00507,-0.0938 1.5039,-0.15734 0.99765,-0.127 1.99037,-0.2854 2.97638,-0.47766 0.49319,-0.0963 0.98425,-0.20179 1.47179,-0.32421 0.24342,-0.0621 0.48507,-0.12664 0.72567,-0.20179 0.23953,-0.0751 0.47801,-0.15592 0.70343,-0.26634 -0.23071,0.0988 -0.47237,0.16792 -0.71402,0.23001 -0.24236,0.0621 -0.48683,0.11642 -0.73236,0.16404 -0.49001,0.0991 -0.98425,0.17851 -1.47991,0.25153 -0.98989,0.14217 -1.98508,0.24977 -2.98097,0.32632 -0.49742,0.0388 -0.9966,0.0684 -1.49366,0.0822 -0.24836,0.006 -0.49671,0.01 -0.74189,0.005 -0.24483,-0.006 -0.49319,-0.0166 -0.71544,-0.055 l -0.0783,-0.0166 -0.0356,-0.009 -0.0205,-0.007 c -0.006,-10e-4 -0.0272,-0.0106 -0.0395,-0.0166 0.008,0.004 -0.01,-0.006 -0.0127,-0.007 -0.0113,-0.008 -0.0212,-0.0162 -0.0247,-0.0212 -0.01,-0.0116 -0.008,-0.0152 -0.01,-0.0328 -7e-4,-0.0187 0.001,-0.0515 0.0145,-0.0914 0.0533,-0.16792 0.1979,-0.36759 0.34642,-0.54469 0.1524,-0.17991 0.3228,-0.35207 0.49954,-0.51893 0.16192,-0.15381 0.33337,-0.30269 0.50341,-0.44274 l 10.19775,-3.34539 c 0.26247,1.4097 0.11324,5.76509 -0.21731,9.66928 -1.63866,0.19509 -3.3267,0.35807 -5.04649,0.49213 h -33.82821 c -3.61033,-0.20461 -6.32425,-0.41204 -7.65493,-0.52141 -0.32879,-3.89643 -0.4766,-8.23383 -0.21449,-9.64 l 10.19775,3.34539 c 0.16969,0.14005 0.34149,0.28893 0.50377,0.44274 0.17639,0.16686 0.34678,0.33902 0.49953,0.51893 0.14852,0.1771 0.29281,0.37677 0.34572,0.54469 0.0127,0.0399 0.0159,0.0727 0.0152,0.0914 -0.002,0.0176 -10e-4,0.0212 -0.0106,0.0328 -0.004,0.005 -0.013,0.0131 -0.024,0.0212 -0.004,10e-4 -0.0205,0.0106 -0.0134,0.007 -0.0127,0.006 -0.0325,0.0152 -0.0385,0.0166 l -0.0208,0.007 -0.036,0.009 -0.078,0.0166 c -0.2226,0.0385 -0.47096,0.0494 -0.71543,0.055 -0.24624,0.005 -0.49424,0.001 -0.7426,-0.005 -0.49671,-0.0138 -0.99483,-0.0434 -1.49331,-0.0822 -0.99624,-0.0765 -1.99143,-0.18415 -2.98168,-0.32632 -0.49459,-0.073 -0.98848,-0.1524 -1.47955,-0.25153 -0.24553,-0.0476 -0.48965,-0.10195 -0.73201,-0.16404 -0.242,-0.0621 -0.48366,-0.13123 -0.71402,-0.23001 0.22578,0.11042 0.46461,0.1912 0.70414,0.26634 0.23919,0.0752 0.48225,0.1397 0.72531,0.20179 0.48719,0.12242 0.97861,0.2279 1.47144,0.32421 0.98601,0.19226 1.97873,0.35066 2.97639,0.47766 0.49882,0.0635 0.99977,0.11747 1.50389,0.15734 0.25188,0.0201 0.50412,0.0353 0.76023,0.0423 0.25647,0.007 0.51047,0.0106 0.78458,-0.0212 0.0751,-0.0116 0.13018,-0.0162 0.23142,-0.0494 l 0.049,-0.0176 c 0.0363,-0.0152 0.0459,-0.0208 0.0706,-0.0339 0.042,-0.0247 0.085,-0.0529 0.12488,-0.0928 0.0811,-0.0751 0.13758,-0.19262 0.15099,-0.29951 0.0148,-0.10442 0.002,-0.19826 -0.0176,-0.2794 -0.0885,-0.31679 -0.25012,-0.53058 -0.40746,-0.74648 -0.16157,-0.21025 -0.33373,-0.40358 -0.51294,-0.59055 -0.17956,-0.18662 -0.36054,-0.36265 -0.55809,-0.53869 -0.0212,-0.0201 -0.0476,-0.0363 -0.0759,-0.0469 l -0.0159,-0.006 -9.74337,-3.74826 c 1.03258,-0.90382 2.81622,-2.18228 3.55811,-2.69522 0.0607,-0.0409 0.11113,-0.0953 0.15452,-0.15381 2.53894,-0.0924 12.79137,-0.4505 19.06446,-0.4505 6.27239,0 16.52517,0.35807 19.06411,0.4505 0.0441,0.0586 0.0942,0.11289 0.15452,0.15381 0.74189,0.51294 2.52624,1.7914 3.55812,2.69522 m -47.83773,-4.10845 c -0.0593,-0.49212 -0.0822,-1.38889 0.26741,-1.85385 0.13123,-0.17603 0.30268,-0.26987 0.53763,-0.29316 0.36019,-0.0363 0.78528,-0.0554 1.26436,-0.0554 0.82338,0 1.63054,0.0554 2.09303,0.0938 -0.0741,0.71402 -0.11818,2.02776 0.4131,2.74919 -0.27764,0.19756 -0.64347,0.45791 -1.04352,0.75389 z m 12.02514,-7.15504 c 1.016,-0.22789 8.32802,-0.59513 13.03584,-0.78881 4.70817,0.19368 12.01985,0.56092 13.03585,0.78881 0.74295,0.31821 3.34892,4.05836 5.53649,7.61965 -3.13302,-0.11254 -12.24703,-0.41875 -18.18428,-0.43286 h -0.38806 -0.38841 c -5.9376,0.0141 -15.05126,0.32032 -18.18428,0.43286 2.18722,-3.56023 4.79355,-7.30144 5.53685,-7.61965 m 38.45101,4.83553 c -0.26,-0.34784 -0.63394,-0.55528 -1.08126,-0.60008 -0.38629,-0.0388 -0.8382,-0.0586 -1.34162,-0.0586 -1.30069,0 -2.51989,0.12771 -2.57139,0.1337 -0.10513,0.0106 -0.20285,0.0656 -0.2667,0.15029 -0.0653,0.0836 -0.0921,0.1912 -0.0759,0.29562 0.12241,0.77858 0.13229,1.94522 -0.15064,2.47615 -0.44309,-0.72213 -1.40052,-2.26342 -2.44228,-3.81564 -3.00461,-4.47323 -3.76131,-4.65173 -4.12467,-4.73746 -1.26119,-0.29703 -10.08028,-0.69038 -12.70741,-0.80186 l -0.002,-0.054 -0.65123,0.0268 -0.65122,-0.0268 -0.002,0.054 c -2.62784,0.11148 -11.44728,0.50483 -12.70811,0.80186 -0.36407,0.0857 -1.12042,0.26423 -4.12503,4.73746 -1.0414,1.55222 -1.99919,3.09351 -2.44228,3.81564 -0.28258,-0.53093 -0.27235,-1.69757 -0.15029,-2.47615 0.0162,-0.10442 -0.0113,-0.21202 -0.0758,-0.29562 -0.0646,-0.0847 -0.16122,-0.1397 -0.26635,-0.15029 -0.0519,-0.006 -1.27,-0.1337 -2.57069,-0.1337 -0.50518,0 -0.95638,0.0198 -1.34338,0.0586 -0.44591,0.0448 -0.82021,0.25224 -1.08091,0.60008 -0.68016,0.90734 -0.41099,2.49061 -0.37747,2.66911 0.0243,0.13159 0.115,0.24095 0.23883,0.28999 l 3.29635,1.3021 c -0.86571,0.66181 -1.74131,1.38148 -2.1597,1.87572 -0.25506,0.30162 -0.72849,0.86183 -0.49425,6.37187 0.11007,2.6095 0.33373,5.12057 0.3362,5.14668 l 0.0603,0.67592 1.2199,-0.10795 c 3.2385,0.26388 13.98799,1.05868 25.98244,1.05868 6.90068,0 14.2046,-0.26881 20.73345,-1.04845 l 1.09503,0.0977 0.0603,-0.67592 c 0.002,-0.0261 0.22578,-2.53718 0.33655,-5.14668 0.23424,-5.51004 -0.24024,-6.07025 -0.49424,-6.37187 -0.4184,-0.49424 -1.29434,-1.21391 -2.15935,-1.87572 l 3.29494,-1.3021 c 0.12453,-0.049 0.21484,-0.1584 0.23954,-0.28999 0.0328,-0.1785 0.30233,-1.76177 -0.37783,-2.66911"
       style="fill:#000000;fill-opacity:1;fill-rule:nonzero;stroke:none;stroke-width:0.35277778"
       id="path36716-6-0"
       inkscape:connector-curvature="0" />
    <path
       d="m 352.43386,312.44938 c -0.27834,-0.0953 -7.61118,2.1904 -8.57885,2.70228 0,0 -1.45097,1.09537 -0.93874,1.2386 0.51258,0.14182 7.07037,-0.68333 7.75264,-1.06715 0.68333,-0.38488 2.80317,-2.51778 1.76495,-2.87373"
       style="fill:#000000;fill-opacity:1;fill-rule:nonzero;stroke:none;stroke-width:0.35277778"
       id="path36720-2-1"
       inkscape:connector-curvature="0" />
    <path
       d="m 343.99701,312.7405 c -0.40605,0.10689 -0.84455,0.22789 -1.30246,0.39088 -0.2293,0.0822 -0.46284,0.17145 -0.6985,0.29457 -0.11712,0.0624 -0.236,0.13052 -0.35136,0.23706 -0.13229,0.127 -0.17745,0.24589 -0.25506,0.33832 -0.29316,0.38982 -0.68545,0.75741 -1.10984,1.06221 -0.21308,0.15064 -0.43956,0.28752 -0.67028,0.38523 -0.1143,0.049 -0.23071,0.0882 -0.33796,0.10584 l -0.0138,0.003 h -0.0102 l -0.0522,0.002 -0.10407,0.004 -0.20955,0.007 c -0.28222,0.0166 -0.54892,-7e-4 -0.82126,-0.002 -0.27094,-0.006 -0.53517,-0.007 -0.8121,-0.0176 -0.54716,-0.018 -1.0855,-0.0356 -1.60725,-0.0533 -1.04352,-0.042 -2.01719,-0.0818 -2.85186,-0.11606 -0.9585,-0.0448 -1.73284,-0.0808 -2.21862,-0.10337 l -0.001,-0.054 -0.5715,0.0272 -0.57291,-0.0272 -10e-4,0.054 c -0.48613,0.0226 -1.25977,0.0586 -2.21827,0.10337 -0.83502,0.0342 -1.80834,0.0741 -2.85185,0.11606 -0.52141,0.0176 -1.0601,0.0353 -1.60761,0.0533 -0.27693,0.0102 -0.54046,0.0116 -0.81245,0.0176 -0.27128,0.001 -0.53798,0.0183 -0.82056,0.002 l -0.20884,-0.007 -0.10443,-0.004 -0.0529,-0.002 h -0.0102 l -0.0134,-0.003 c -0.10724,-0.0176 -0.22331,-0.0568 -0.33866,-0.10584 -0.23002,-0.0977 -0.4565,-0.23459 -0.66958,-0.38523 -0.42439,-0.3048 -0.81703,-0.67239 -1.10984,-1.06221 -0.0783,-0.0924 -0.12347,-0.21132 -0.2547,-0.33832 -0.11571,-0.10654 -0.23354,-0.17462 -0.35172,-0.23706 -0.2346,-0.12312 -0.46884,-0.21238 -0.69779,-0.29457 -0.45862,-0.16299 -0.89677,-0.28399 -1.30317,-0.39088 -0.81209,-0.21131 -1.49542,-0.35313 -1.97379,-0.4505 -0.47836,-0.0967 -0.75318,-0.14464 -0.75318,-0.14464 0,0 0.27129,0.0656 0.74189,0.19227 0.47026,0.12947 1.1423,0.31503 1.93358,0.57644 0.39476,0.13158 0.82162,0.28187 1.25518,0.46849 0.21625,0.0942 0.43639,0.19614 0.63924,0.32067 0.10195,0.0607 0.19967,0.13053 0.26775,0.2032 0.055,0.0515 0.10936,0.18168 0.18909,0.29669 0.30586,0.46743 0.68721,0.86995 1.12995,1.23719 0.22366,0.17991 0.46179,0.3489 0.73413,0.48718 0.13688,0.0684 0.28116,0.13053 0.44626,0.1704 l 0.0303,0.008 0.008,0.002 0.0275,0.004 0.0127,10e-4 0.0519,0.004 0.10442,0.0116 0.20779,0.0201 c 0.27305,0.0342 0.56479,0.0378 0.84737,0.055 0.28363,0.0131 0.57291,0.0296 0.8442,0.0381 0.54998,0.0176 1.09114,0.0349 1.61537,0.0515 1.04598,0.0268 2.02282,0.0504 2.85961,0.0713 0.93663,0.0166 1.69863,0.0307 2.18828,0.0402 v 0.0222 l 0.58279,-0.0106 h 0.01 0.01 l 0.58279,0.0106 v -0.0222 c 0.48931,-0.01 1.25095,-0.0236 2.18758,-0.0402 0.83749,-0.0208 1.81398,-0.0445 2.86067,-0.0713 0.52353,-0.0166 1.06469,-0.0339 1.61396,-0.0515 0.27199,-0.008 0.56127,-0.025 0.8449,-0.0381 0.28293,-0.0173 0.57397,-0.0208 0.84808,-0.055 l 0.20779,-0.0201 0.10336,-0.0116 0.0522,-0.004 0.0127,-10e-4 0.0282,-0.004 0.007,-0.002 0.0307,-0.008 c 0.16404,-0.0399 0.30939,-0.10196 0.44591,-0.1704 0.27235,-0.13828 0.51118,-0.30727 0.73413,-0.48718 0.44274,-0.36724 0.82445,-0.76976 1.12995,-1.23719 0.0794,-0.11501 0.13441,-0.24518 0.1898,-0.29669 0.0674,-0.0727 0.16615,-0.14252 0.26634,-0.2032 0.2032,-0.12453 0.42334,-0.22648 0.63924,-0.32067 0.43427,-0.18662 0.86042,-0.33691 1.25589,-0.46849 0.79198,-0.26141 1.46261,-0.44697 1.93357,-0.57644 0.47061,-0.12665 0.74189,-0.19227 0.74189,-0.19227 0,0 -0.27481,0.048 -0.75353,0.14464 -0.47802,0.0974 -1.16099,0.23919 -1.97344,0.4505"
       style="fill:#000000;fill-opacity:1;fill-rule:nonzero;stroke:none;stroke-width:0.35277778"
       id="path36724-1-5"
       inkscape:connector-curvature="0" />
    <path
       d="m 306.88835,323.30901 c 0,0 -0.66675,3.02084 0,3.86927 0.66675,0.84984 7.16068,0.80292 8.07156,0 0.90981,-0.80187 0.42509,-3.53907 0.42509,-3.53907 -2.60949,0 -8.49665,-0.3302 -8.49665,-0.3302"
       style="fill:#000000;fill-opacity:1;fill-rule:nonzero;stroke:none;stroke-width:0.35277778"
       id="path36728-3-4"
       inkscape:connector-curvature="0" />
    <path
       d="m 344.53651,323.63907 c 0,0 -0.48719,2.73756 0.42616,3.53907 0.91298,0.80327 7.4295,0.84984 8.09871,0 0.66922,-0.84843 0,-3.86927 0,-3.86927 0,0 -5.90726,0.3302 -8.52487,0.3302"
       style="fill:#000000;fill-opacity:1;fill-rule:nonzero;stroke:none;stroke-width:0.35277778"
       id="path36732-8-4"
       inkscape:connector-curvature="0" />
  </g>
</svg>
