<?xml version="1.0" encoding="UTF-8" standalone="no"?>
<svg
   xmlns:dc="http://purl.org/dc/elements/1.1/"
   xmlns:cc="http://creativecommons.org/ns#"
   xmlns:rdf="http://www.w3.org/1999/02/22-rdf-syntax-ns#"
   xmlns:svg="http://www.w3.org/2000/svg"
   xmlns="http://www.w3.org/2000/svg"
   xmlns:sodipodi="http://sodipodi.sourceforge.net/DTD/sodipodi-0.dtd"
   xmlns:inkscape="http://www.inkscape.org/namespaces/inkscape"
   version="1.1"
   id="svg357"
   sodipodi:docname="i8.svg"
   width="100"
   height="100.52083"
   inkscape:version="0.92.2 (5c3e80d, 2017-08-06)">
  <metadata
     id="metadata361">
    <rdf:RDF>
      <cc:Work
         rdf:about="">
        <dc:format>image/svg+xml</dc:format>
        <dc:type
           rdf:resource="http://purl.org/dc/dcmitype/StillImage" />
        <dc:title></dc:title>
      </cc:Work>
    </rdf:RDF>
  </metadata>
  <sodipodi:namedview
     pagecolor="#ffffff"
     bordercolor="#666666"
     borderopacity="1"
     objecttolerance="10"
     gridtolerance="10"
     guidetolerance="10"
     inkscape:pageopacity="0"
     inkscape:pageshadow="2"
     inkscape:window-width="1034"
     inkscape:window-height="480"
     id="namedview359"
     showgrid="false"
     fit-margin-top="0"
     fit-margin-left="0"
     fit-margin-right="0"
     fit-margin-bottom="0"
     inkscape:zoom="3.1630554"
     inkscape:cx="42.996413"
     inkscape:cy="37.500008"
     inkscape:window-x="0"
     inkscape:window-y="0"
     inkscape:window-maximized="0"
     inkscape:current-layer="svg357" />
  <defs
     id="defs4543" />
  <g
     id="phone-btn"
     transform="matrix(3.9370079,0,0,3.9370079,1793.4364,1126.1028)"
     inkscape:export-xdpi="96"
     inkscape:export-ydpi="96"
     inkscape:label="phone-btn">
    <path
       style="fill:#ff9311;stroke-width:0.25400001"
       id="path7379"
       d="m -455.53285,-273.19783 a 12.7,12.7 0 1 0 25.4,0 12.7,12.7 0 1 0 -25.4,0"
       inkscape:connector-curvature="0" />
    <path
       id="path7391"
       d="m -433.86042,-282.31029 -17.96059,17.96034 c 4.9596,4.9596 13.00099,4.9596 17.96059,0 4.95986,-4.95935 4.95986,-13.00074 0,-17.96034 z"
       inkscape:connector-curvature="0"
       style="opacity:0.1;stroke-width:0.25400001" />
    <path
       id="path7393"
       d="m -442.84059,-286.03012 v 25.4 c 7.01396,0 12.7,-5.68604 12.7,-12.7 0,-7.01396 -5.68604,-12.7 -12.7,-12.7 z"
       inkscape:connector-curvature="0"
       style="opacity:0.1;stroke-width:0.25400001" />
    <path
       inkscape:connector-curvature="0"
       id="use10005"
       d="m -436.7356,-269.13388 c 0,0.3579 -0.1829,0.54079 -0.32729,0.6881 l -0.762,0.762 c -0.5334,0.53089 -0.8385,0.5768 -1.18362,0.5819 h -0.0181 c -0.43702,0 -3.2842,-0.63241 -6.2738,-3.62999 -2.9998,-2.98951 -3.6297,-5.83882 -3.6297,-6.27601 0,-0.3482 0.0409,-0.65531 0.58192,-1.1966 l 0.76199,-0.76201 c 0.1479,-0.14407 0.32999,-0.32729 0.68811,-0.32729 0.31718,0 0.55118,0.11996 0.71629,0.36549 0.76199,1.143 1.05157,1.56972 1.1963,1.7831 0.1479,0.21683 0.1479,0.21683 0.33234,0.50801 0.24385,0.38121 0.21587,0.76199 -0.0769,1.07211 -0.62226,0.6652 -0.51306,1.30328 -0.41926,1.4907 0.23876,0.47518 0.56641,1.0566 1.478,1.966 0.7315,0.7343 1.2065,0.97028 1.71221,1.2242 0.0861,0.0409 0.61215,0.2519 1.5037,-0.47712 0.31719,-0.26199 0.683,-0.26939 1.06399,-0.0181 l 2.28601,1.52659 c 0.24682,0.16515 0.366,0.39898 0.366,0.7165 z"
       style="fill:#681f03;fill-opacity:1;stroke-width:0.25399995" />
  </g>
</svg>
