<svg xmlns:dc="http://purl.org/dc/elements/1.1/" xmlns:cc="http://creativecommons.org/ns#" xmlns:rdf="http://www.w3.org/1999/02/22-rdf-syntax-ns#" xmlns:svg="http://www.w3.org/2000/svg" xmlns="http://www.w3.org/2000/svg" xmlns:sodipodi="http://sodipodi.sourceforge.net/DTD/sodipodi-0.dtd" xmlns:inkscape="http://www.inkscape.org/namespaces/inkscape"  viewBox="0 0 100 87.15799" version="1.1" id="svg1186" inkscape:version="0.92.2 (5c3e80d, 2017-08-06)" sodipodi:docname="i1.svg">
  <defs id="defs1180" />
  <sodipodi:namedview id="base" pagecolor="#ffffff" bordercolor="#666666" borderopacity="1.0" inkscape:pageopacity="0.0" inkscape:pageshadow="2" inkscape:zoom="0.35" inkscape:cx="-236.77738" inkscape:cy="-313.38488" inkscape:document-units="px" inkscape:current-layer="layer1" showgrid="false" fit-margin-top="0" fit-margin-left="0" fit-margin-right="0" fit-margin-bottom="0" units="px" inkscape:window-width="2560" inkscape:window-height="1001" inkscape:window-x="-9" inkscape:window-y="41" inkscape:window-maximized="1" />
  <metadata id="metadata1183">
    <rdf:RDF>
      <cc:Work rdf:about="">
        <dc:format>image/svg+xml</dc:format>
        <dc:type rdf:resource="http://purl.org/dc/dcmitype/StillImage" />
        <dc:title></dc:title>
      </cc:Work>
    </rdf:RDF>
  </metadata>
  <g inkscape:label="Layer 1" inkscape:groupmode="layer" id="layer1" transform="translate(341.4092,4.281969)">
    <path id="passports" style="color:#000000;display:inline;visibility:visible;fill:#000000;fill-opacity:1;stroke:none;stroke-width:3.12543797" d="M -288.2767,-4.2327652 C -288.604,-4.1004061 -288.88478,-3.8553037 -289.058,-3.5489351 -289.058,-3.4998768 -289.058,-3.4851744 -289.058,-3.4508185 -289.83148,-3.1763113 -290.76854,-3.2302074 -291.20678,-2.4743394 L -295.21119,4.3629834 H -297.65314 -319.53109 -325.58662 -337.60004 C -339.60655,4.3629834 -341.4092,5.9384876 -341.4092,7.976746 V 72.634176 C -341.4092,74.671947 -339.60606,76.247938 -337.60004,76.247938 H -325.58662 -319.53109 -297.65314 -291.40218 -291.30542 L -287.39852,78.494037 -282.02679,81.61956 C -277.55198,84.20291 -271.81556,82.675946 -269.23203,78.201392 L -242.66564,32.10098 C -240.08226,27.626426 -241.60938,21.890099 -246.08408,19.306258 L -251.45588,16.180735 -270.40387,5.2419129 -275.67805,2.3114929 -286.12883,-3.7439625 C -286.57511,-4.0037674 -287.04714,-4.1606291 -287.49603,-4.2341485 -287.75115,-4.2979092 -288.02252,-4.2979092 -288.27756,-4.2341485 Z M -287.98378,-1.2047956 -287.69087,-1.106679 -277.24032,4.9487726 -271.96591,7.976746 -266.98468,10.906663 C -266.86411,10.99004 -266.73296,11.053687 -266.59399,11.102708 L -253.01777,18.916513 -252.82237,19.01463 C -249.94316,20.801893 -249.06159,24.452907 -250.77137,27.41421 L -277.33772,73.514126 C -279.08273,76.536706 -282.81305,77.504855 -285.83489,75.760719 L -286.90922,75.174439 C -284.99603,74.128356 -283.5219,72.43275 -282.70945,70.388618 -282.44224,69.716062 -282.22854,68.977822 -282.12347,68.240069 -282.04939,67.808708 -282.02672,67.338587 -282.02672,66.8729 V 66.189055 53.589432 C -274.74171,53.868852 -267.55611,50.269297 -263.66478,43.529539 -258.06446,33.829941 -261.38898,21.293062 -271.08774,15.693501 -274.55247,13.693971 -278.38899,12.890538 -282.12434,13.056713 -282.48869,8.2194145 -286.47473,4.3639926 -291.40297,4.3639926 H -291.49973 L -288.47187,-0.91007929 C -288.37738,-1.0767565 -287.98371,-1.2042022 -287.98371,-1.2042022 Z M -282.02603,66.187482 -280.65822,66.871313 -282.70937,70.387034 -281.34209,71.168414 -279.29117,67.652692 -278.02128,68.433581 -277.43527,67.359552 -281.34209,65.112962 Z M -337.6,7.4879396 H -325.58669 -319.53106 -297.65303 C -294.16339,7.4879396 -291.4021,10.248746 -291.4021,13.738479 V 66.871313 C -291.4021,70.361046 -294.16339,73.121852 -297.65303,73.121852 H -319.53106 -325.58669 -337.6 C -338.03317,73.121852 -338.28364,72.886539 -338.28364,72.631662 V 7.9742175 C -338.28364,7.7242017 -338.03268,7.4840164 -337.6,7.4840164 Z M -290.62076,7.5860561 C -290.03694,7.6596058 -289.48029,7.7576089 -288.96049,7.9782163 -288.58518,8.1350667 -288.21819,8.3409755 -287.88593,8.5640055 -286.55727,9.456666 -285.57819,10.833148 -285.24895,12.470908 -285.16618,12.882692 -285.15068,13.304245 -285.15068,13.740528 V 66.872866 C -285.15068,67.309156 -285.16958,67.73317 -285.24895,68.142977 -285.3253,68.535137 -285.49387,68.857686 -285.63964,69.217005 -285.65476,69.266064 -285.62452,69.285679 -285.63964,69.315122 -285.77835,69.643563 -285.93634,69.996503 -286.12796,70.292092 -286.15063,70.341151 -286.20204,70.355853 -286.22471,70.390209 -286.41293,70.664716 -286.57999,70.931388 -286.81069,71.171578 -286.86965,71.235338 -286.94411,71.303937 -287.00572,71.367697 -287.49097,71.828497 -288.04414,72.253989 -288.66614,72.539279 -288.76063,72.588338 -288.86192,72.598164 -288.95905,72.637396 -289.47205,72.843267 -290.04438,72.956048 -290.61951,73.029556 -289.1738,71.379546 -288.2756,69.235899 -288.2756,66.876566 V 13.744118 C -288.2756,11.357814 -289.14463,9.2479906 -290.61951,7.5906218 Z M -314.84293,13.739046 C -326.04262,13.739046 -335.15827,22.854329 -335.15827,34.054419 -335.15827,45.25452 -326.04262,54.369806 -314.84293,54.369806 -303.64347,54.369806 -294.52754,45.25452 -294.52754,34.054419 -294.52754,22.854329 -303.64347,13.739046 -314.84293,13.739046 Z M -277.72837,16.668975 C -276.4976,16.953309 -275.29636,17.297903 -274.1145,17.841044 L -277.14228,23.017555 -281.83052,20.282737 C -280.55848,19.044488 -279.1878,17.842518 -277.72837,16.668975 Z M -316.40569,17.159176 V 23.117067 H -321.87504 C -321.39217,21.449901 -320.78238,19.742529 -320.117,18.0386 -318.9252,17.651323 -317.70747,17.281228 -316.40569,17.159176 Z M -313.28028,17.159176 C -312.02302,17.276795 -310.81161,17.570959 -309.66633,17.940556 -308.98681,19.673904 -308.39895,21.421959 -307.90832,23.117067 H -313.28028 Z M -271.47748,19.503319 C -270.43184,20.245471 -269.5698,21.138623 -268.74262,22.043038 -269.01852,23.853837 -269.30157,25.632778 -269.71947,27.31711 L -274.40745,24.582277 Z M -305.75955,19.797404 C -304.34238,20.717024 -303.05703,21.811644 -301.9505,23.118518 H -304.78299 C -305.07855,22.019495 -305.38942,20.900857 -305.75955,19.797404 Z M -324.2193,19.895521 C -324.57382,20.959753 -324.81325,22.058787 -325.09823,23.11859 H -327.83294 C -326.77505,21.868087 -325.57819,20.792097 -324.2193,19.895521 Z M -246.96236,22.532801 C -244.48186,24.413706 -243.79274,27.758827 -245.39956,30.541706 L -271.9658,76.642113 C -273.56518,79.412239 -276.82049,80.467639 -279.68178,79.278905 -277.61018,78.574976 -275.78112,77.119562 -274.60281,75.079353 L -248.03677,28.978946 C -246.85276,26.928434 -246.53131,24.688708 -246.96236,22.532801 Z M -282.02585,23.802424 -278.70504,25.755873 -281.83052,31.225536 -282.02554,31.127419 Z M -266.20326,25.560283 C -265.41773,27.066179 -264.84384,28.654424 -264.54284,30.346602 L -266.98461,28.881396 C -266.69358,27.795594 -266.43283,26.685781 -266.20326,25.560283 Z M -329.98179,26.244113 H -325.87957 C -326.29872,28.321085 -326.53959,30.415227 -326.66099,32.495144 H -331.73973 C -331.53034,30.255421 -330.96413,28.149029 -329.98179,26.244113 Z M -322.65646,26.244113 H -316.40561 V 32.495144 H -323.53543 C -323.40579,30.400034 -323.119,28.353449 -322.65646,26.244113 Z M -313.28028,26.244113 H -307.12683 C -306.66475,28.353449 -306.37769,30.400034 -306.2479,32.495144 H -313.28028 Z M -304.00154,26.244113 H -299.8018 C -298.80763,28.159329 -298.15676,30.239733 -297.94598,32.495144 H -303.22008 C -303.34065,30.415227 -303.58216,28.321085 -304.00154,26.244113 Z M -275.97032,27.318633 -270.59836,30.444156 C -271.25423,32.486814 -272.10451,34.440758 -273.04013,36.304006 L -279.09569,32.788284 Z M -267.9612,31.908863 -264.24989,34.057903 C -264.34324,36.240767 -264.84887,38.420205 -265.81265,40.504049 L -270.40315,37.866765 C -269.44655,35.97214 -268.64907,33.95448 -267.9612,31.908863 Z M -280.65834,35.523117 -274.50519,39.038835 C -275.57642,40.791788 -276.82181,42.414359 -278.21657,44.020254 L -282.02577,41.871218 V 37.866773 Z M -331.73984,35.621234 H -326.75861 C -326.72082,37.709979 -326.4434,39.756072 -326.07505,41.871781 H -329.98179 C -330.95982,39.97078 -331.53087,37.855083 -331.73984,35.621234 Z M -323.63321,35.621234 H -316.40569 V 41.871781 H -323.04723 C -323.44196,39.789895 -323.59072,37.66978 -323.63321,35.621234 Z M -313.28028,35.621234 H -306.15028 C -306.19563,37.66978 -306.3419,39.789895 -306.73625,41.871781 H -313.28028 Z M -303.12246,35.621234 H -297.94598 C -298.15499,37.85116 -298.72876,39.973724 -299.70418,41.871781 H -303.80633 C -303.43744,39.756072 -303.15893,37.709979 -303.12246,35.621234 Z M -271.8681,40.504616 -267.47307,43.043854 C -268.79802,44.901217 -270.41933,46.378196 -272.25882,47.536535 L -275.48186,45.681123 C -274.10932,44.032587 -272.94194,42.295311 -271.8681,40.504616 Z M -327.93057,44.997296 H -325.39118 C -325.12321,46.060055 -324.86998,47.146333 -324.51229,48.220365 -325.81018,47.348795 -326.91894,46.210053 -327.93057,44.997296 Z M -322.168,44.997296 H -316.40561 V 50.955195 C -317.81311,50.822836 -319.12978,50.509135 -320.41014,50.076265 -321.12281,48.33507 -321.703,46.689475 -322.168,44.997296 Z M -313.28028,44.997296 H -307.61534 C -308.08838,46.7179 -308.64416,48.402236 -309.37338,50.173815 -310.6173,50.590481 -311.90419,50.826279 -313.28028,50.955195 Z M -304.48974,44.997296 H -301.85265 C -302.89455,46.244375 -304.04066,47.431638 -305.36886,48.317915 -304.99922,47.214969 -304.76531,46.08848 -304.48974,44.997296 Z M -282.02577,45.487497 -280.46309,46.366427 C -280.98591,46.878689 -281.46251,47.43115 -282.02577,47.929187 Z M -277.63063,48.026736 -275.77488,49.10126 C -277.14802,49.566943 -278.54823,50.031655 -279.97477,50.27333 -279.15027,49.53656 -278.37633,48.797337 -277.63063,48.026736 Z M -323.04723,61.310189 C -323.75699,61.310189 -324.35207,61.476867 -324.80516,61.80039 -325.25549,62.119043 -325.4888,62.566089 -325.4888,63.070014 -325.4888,63.447475 -325.39583,63.694528 -325.19589,63.948943 -324.99482,64.198959 -324.67466,64.484725 -324.2193,64.632769 -324.02087,64.69653 -323.85835,64.686703 -323.63321,64.730886 -323.4053,64.779944 -323.15324,64.87791 -322.94949,64.92693 -322.7556,64.975988 -322.56065,65.034722 -322.46133,65.123012 -322.35814,65.206389 -322.36306,65.299478 -322.36306,65.417097 -322.36306,65.544543 -322.39329,65.647535 -322.46133,65.71122 -322.52973,65.774981 -322.64766,65.765154 -322.75424,65.809337 -322.84003,65.858395 -322.90882,65.887838 -323.04715,65.907453 -323.18511,65.907453 -323.35329,65.907453 -323.43784,65.907453 -323.76704,65.907453 -324.05598,65.956512 -324.4144,65.809337 -324.77081,65.686804 -325.10291,65.451491 -325.39122,65.22306 H -325.58662 V 66.492679 C -325.29597,66.615212 -324.94202,66.80638 -324.61003,66.88484 -324.27591,66.96334 -323.88625,66.982956 -323.43799,66.982956 -322.66262,66.982956 -322.03276,66.826106 -321.58217,66.492751 -321.12927,66.159435 -320.8986,65.658432 -320.8986,65.125582 -320.8986,64.753034 -320.99309,64.479018 -321.19152,64.246664 -321.38767,64.011351 -321.75406,63.795676 -322.16826,63.660384 -322.37878,63.59171 -322.57021,63.601498 -322.7542,63.562418 -322.93562,63.51336 -323.14126,63.410443 -323.34029,63.366374 -323.64341,63.302613 -323.81727,63.248755 -323.92638,63.17033 -324.03523,63.091829 -324.12179,63.018355 -324.12179,62.876207 -324.12179,62.783004 -324.09155,62.655596 -324.02352,62.582084 -323.95511,62.508534 -323.82509,62.518323 -323.73023,62.483967 -323.62364,62.434909 -323.55108,62.405467 -323.43731,62.385889 -323.32015,62.385889 -323.16292,62.287772 -323.04662,62.287772 -322.71743,62.287772 -322.38502,62.366273 -322.07007,62.483816 -321.75259,62.601435 -321.50665,62.797517 -321.28873,62.974017 H -321.0937 V 61.704398 C -321.34844,61.601406 -321.72133,61.478911 -322.0703,61.410275 -322.41726,61.341601 -322.69063,61.312158 -323.04689,61.312158 Z M -317.77301,61.310189 C -318.4828,61.310189 -319.07797,61.476867 -319.53106,61.80039 -319.98139,62.119043 -320.21489,62.566089 -320.21489,63.070014 -320.21489,63.447475 -320.1204,63.694528 -319.9216,63.948943 -319.7209,64.198959 -319.40032,64.484725 -318.94489,64.632769 -318.74646,64.69653 -318.48658,64.686703 -318.26117,64.730886 -318.03327,64.779944 -317.87865,64.87791 -317.67519,64.92693 -317.48168,64.975988 -317.28636,65.034722 -317.18695,65.123012 -317.08377,65.206389 -317.0902,65.299478 -317.0902,65.417097 -317.0902,65.544543 -317.12044,65.647535 -317.18695,65.71122 -317.25536,65.774981 -317.37329,65.765154 -317.47987,65.809337 -317.56718,65.858395 -317.63483,65.887838 -317.77278,65.907453 -317.91073,65.907453 -317.98103,65.907453 -318.0657,65.907453 -318.39527,65.907453 -318.78158,65.956512 -319.14014,65.809337 -319.49655,65.686804 -319.82851,65.451491 -320.11669,65.22306 H -320.21345 V 66.492679 C -319.9228,66.615212 -319.6664,66.80638 -319.33437,66.88484 -319.00026,66.96334 -318.61059,66.982956 -318.16234,66.982956 -317.38701,66.982956 -316.75722,66.826106 -316.30655,66.492751 -315.85365,66.159435 -315.62299,65.658432 -315.62299,65.125582 -315.62299,64.753034 -315.71634,64.479018 -315.9159,64.246664 -316.11206,64.011351 -316.38071,63.795676 -316.79502,63.660384 -317.00554,63.59171 -317.2946,63.601498 -317.47873,63.562418 -317.66015,63.51336 -317.76862,63.410443 -317.96694,63.366374 -318.2693,63.302613 -318.54165,63.248755 -318.65062,63.17033 -318.75947,63.091829 -318.74737,63.018355 -318.74737,62.876207 -318.74737,62.783004 -318.71713,62.655596 -318.65062,62.582084 -318.58221,62.508534 -318.55008,62.518323 -318.45521,62.483967 -318.34863,62.434909 -318.17855,62.405467 -318.06456,62.385889 -317.9474,62.385889 -317.88806,62.287772 -317.77165,62.287772 -317.44207,62.287772 -317.10974,62.366273 -316.79487,62.483816 -316.47739,62.601435 -316.2316,62.797517 -316.01368,62.974017 H -315.81827 V 61.704398 C -316.07226,61.601406 -316.44617,61.478911 -316.79502,61.410275 -317.14122,61.341601 -317.41565,61.312158 -317.77169,61.312158 Z M -306.73625,61.310189 C -307.606,61.310189 -308.29319,61.584696 -308.78741,62.091569 -309.28158,62.595006 -309.5686,63.272948 -309.5686,64.142568 -309.5686,65.005325 -309.28135,65.684745 -308.78741,66.193571 -308.29319,66.699949 -307.606,66.974951 -306.73625,66.974951 -305.86402,66.974951 -305.17947,66.700444 -304.68514,66.193571 -304.19093,65.684745 -304.00154,65.005325 -304.00154,64.142568 -304.00154,63.272948 -304.18825,62.595006 -304.68514,62.091569 -305.18196,61.584704 -305.86889,61.310189 -306.73625,61.310189 Z M -336.5256,61.408306 V 66.877477 H -335.06054 V 65.119569 H -334.18157 C -333.78683,65.119569 -333.46879,65.031279 -333.20479,64.923525 -332.93795,64.815733 -332.73666,64.649018 -332.52118,64.433324 -332.36396,64.276473 -332.21504,64.075478 -332.13053,63.847043 -332.047,63.616681 -332.03226,63.40587 -332.03226,63.163704 -332.03226,62.850003 -332.11126,62.60537 -332.22767,62.382325 -332.34105,62.161713 -332.4979,61.941151 -332.71591,61.79604 -332.89732,61.678421 -333.06438,61.560727 -333.30188,61.501917 -333.53697,61.443032 -333.83688,61.403801 -334.18096,61.403801 Z M -329.68873,61.408306 -331.64225,66.877477 H -330.27482 L -329.88413,65.803448 H -327.83325 L -327.44256,66.877477 H -326.07512 L -328.02853,61.408291 Z M -314.64741,61.408306 V 66.877477 H -313.28028 V 65.119569 H -312.40116 C -312.00598,65.119569 -311.68853,65.031279 -311.4245,64.923525 -311.15766,64.815733 -310.9564,64.649018 -310.74078,64.433324 -310.58355,64.276473 -310.43502,64.075478 -310.35013,63.847043 -310.2666,63.616681 -310.25337,63.40587 -310.25337,63.163704 -310.25337,62.850003 -310.23447,62.60537 -310.35013,62.382325 -310.46351,62.161713 -310.62036,61.941151 -310.83837,61.79604 -311.01978,61.678421 -311.2842,61.560727 -311.52193,61.501917 -311.75702,61.443032 -312.05696,61.403801 -312.4009,61.403801 Z M -302.92709,61.408306 V 66.877477 H -301.46207 V 64.826478 H -300.87606 L -299.41104,66.877477 H -297.65288 L -299.50866,64.53381 C -299.16472,64.367133 -298.91142,64.200493 -298.72732,63.947529 -298.54061,63.697514 -298.43441,63.370558 -298.43441,62.97105 -298.43441,62.681841 -298.50848,62.381338 -298.62981,62.189671 -298.74811,61.993626 -298.91478,61.822036 -299.11805,61.699469 -299.31874,61.576937 -299.47408,61.537668 -299.70414,61.503425 -299.93469,61.454367 -300.26332,61.405309 -300.58311,61.405309 Z M -297.65288,61.408306 V 62.482338 H -295.89487 V 66.877477 H -294.52747 V 62.482289 H -292.86716 V 61.408257 Z M -306.73625,62.384785 C -306.56164,62.384785 -306.40781,62.433843 -306.24802,62.482902 -306.08587,62.546662 -305.9808,62.629925 -305.85736,62.777024 -305.7368,62.919173 -305.64004,63.13487 -305.56445,63.363309 -305.48886,63.593671 -305.36905,63.819184 -305.36905,64.144689 -305.36905,64.448601 -305.39928,64.700567 -305.4658,64.926068 -305.53043,65.146642 -305.62303,65.347618 -305.75872,65.511858 -305.87928,65.658881 -306.08489,65.732431 -306.24692,65.805981 -306.40944,65.874655 -306.55608,65.904097 -306.73516,65.904097 -306.91469,65.904097 -307.06133,65.855039 -307.22336,65.805981 -307.38588,65.737307 -307.59035,65.658957 -307.7116,65.511858 -307.83217,65.36971 -307.92968,65.149098 -308.00489,64.926068 -308.07784,64.700582 -308.10316,64.465272 -308.10316,64.144689 -308.10316,63.83095 -308.0767,63.600565 -308.00489,63.363309 -307.92703,63.12312 -307.83255,62.91232 -307.7116,62.777024 -307.58083,62.629925 -307.37825,62.546662 -307.22336,62.482902 -307.06613,62.419141 -306.91193,62.384785 -306.73516,62.384785 Z M -335.06069,62.482902 H -334.86566 -334.27957 C -334.14162,62.482902 -334.03466,62.53196 -333.88892,62.581018 -333.78007,62.630076 -333.6784,62.664395 -333.59601,62.777062 -333.51323,62.884854 -333.49925,63.017251 -333.49925,63.169222 -333.49925,63.326073 -333.45843,63.453556 -333.49925,63.561383 -333.54007,63.669175 -333.60583,63.77708 -333.69465,63.855506 -333.8001,63.943833 -333.93012,64.022183 -334.0853,64.05155 -334.238,64.100608 -334.43378,64.05155 -334.6714,64.05155 H -335.06205 Z M -313.28028,62.482902 H -312.98661 -312.49837 C -312.3608,62.482902 -312.15519,62.53196 -312.01017,62.581018 -311.90132,62.630076 -311.89754,62.664395 -311.81477,62.777062 -311.73351,62.884854 -311.61937,63.017251 -311.61937,63.169222 -311.61937,63.326073 -311.67531,63.453556 -311.71612,63.561383 -311.75694,63.669175 -311.82271,63.77708 -311.91115,63.855506 -312.0166,63.943833 -312.14661,64.022183 -312.30184,64.05155 -312.45453,64.100608 -312.65031,64.05155 -312.88778,64.05155 H -313.27847 Z M -301.46207,62.482902 H -300.97383 -300.58318 C -300.45695,62.482902 -300.28687,62.433843 -300.19249,62.482902 -300.05718,62.541787 -299.95514,62.678984 -299.89958,62.777024 -299.84364,62.875141 -299.89958,62.933875 -299.89958,63.071147 -299.89958,63.223122 -299.85422,63.370184 -299.89958,63.463308 -299.94493,63.551597 -299.99785,63.679005 -300.0946,63.757431 -300.19778,63.835931 -300.33498,63.835931 -300.48525,63.855547 -300.6353,63.855547 -300.84847,63.953664 -301.07123,63.953664 H -301.46188 Z M -328.80976,62.777024 -328.22367,64.730478 H -329.49333 Z" marker="none" visibility="visible" display="inline" overflow="visible" inkscape:connector-curvature="0" inkscape:label="passports" />
  </g>
</svg>
