<svg version="1.1" viewBox="0 0 75 65.37" xmlns="http://www.w3.org/2000/svg">
 <path id="passports" d="m39.85 0.0369c-0.2455 0.09927-0.4561 0.2831-0.586 0.5129v0.07359c-0.5801 0.2059-1.283 0.1655-1.612 0.7324l-3.003 5.128h-1.831-16.41-4.542-9.01c-1.505 0-2.857 1.182-2.857 2.71v48.49c0 1.528 1.352 2.71 2.857 2.71h9.01 4.542 16.41 4.688 0.07257l2.93 1.685 4.029 2.344c3.356 1.938 7.658 0.7923 9.596-2.564l19.92-34.58c1.938-3.356 0.7922-7.658-2.564-9.596l-4.029-2.344-14.21-8.204-3.956-2.198-7.838-4.542c-0.3347-0.1949-0.6887-0.3125-1.025-0.3676-0.1913-0.04782-0.3949-0.04782-0.5862 0zm0.2197 2.271 0.2197 0.07359 7.838 4.542 3.956 2.271 3.736 2.197c0.09043 0.06253 0.1888 0.1103 0.293 0.147l10.18 5.86 0.1466 0.07359c2.159 1.34 2.821 4.079 1.538 6.3l-19.92 34.57c-1.309 2.267-4.106 2.993-6.373 1.685l-0.8057-0.4397c1.435-0.7846 2.54-2.056 3.15-3.589 0.2004-0.5044 0.3607-1.058 0.4395-1.611 0.05556-0.3235 0.07256-0.6761 0.07256-1.025v-0.5129-9.45c5.464 0.2096 10.85-2.49 13.77-7.545 4.2-7.275 1.707-16.68-5.567-20.88-2.599-1.5-5.476-2.102-8.277-1.978-0.2733-3.628-3.263-6.52-6.959-6.52h-0.07257l2.271-3.956c0.07087-0.125 0.3661-0.2206 0.3661-0.2206zm4.468 50.54 1.026 0.5129-1.538 2.637 1.025 0.586 1.538-2.637 0.9524 0.5857 0.4395-0.8055-2.93-1.685zm-41.68-44.02h9.01 4.542 16.41c2.617 0 4.688 2.071 4.688 4.688v39.85c0 2.617-2.071 4.688-4.688 4.688h-16.41-4.542-9.01c-0.3249 0-0.5127-0.1765-0.5127-0.3676v-48.49c0-0.1875 0.1882-0.3677 0.5127-0.3677zm35.23 0.07359c0.4379 0.05516 0.8554 0.1287 1.245 0.2941 0.2815 0.1176 0.5567 0.2721 0.8059 0.4393 0.9965 0.6695 1.731 1.702 1.978 2.93 0.06208 0.3088 0.0737 0.625 0.0737 0.9522v39.85c0 0.3272-0.01417 0.6452-0.0737 0.9526-0.05726 0.2941-0.1837 0.536-0.293 0.8055-0.01134 0.03679 0.01134 0.0515 0 0.07359-0.104 0.2463-0.2225 0.511-0.3662 0.7327-0.017 0.03679-0.05556 0.04782-0.07256 0.07359-0.1412 0.2059-0.2665 0.4059-0.4395 0.586-0.04422 0.04782-0.1001 0.09927-0.1463 0.1471-0.3639 0.3456-0.7788 0.6647-1.245 0.8787-0.07087 0.03679-0.1468 0.04416-0.2197 0.07359-0.3848 0.1544-0.814 0.239-1.245 0.2941 1.084-1.238 1.758-2.845 1.758-4.615v-39.85c0-1.79-0.6518-3.372-1.758-4.615zm-18.17 4.615c-8.4 0-15.24 6.836-15.24 15.24 0 8.4 6.837 15.24 15.24 15.24 8.4 0 15.24-6.836 15.24-15.24 0-8.4-6.837-15.24-15.24-15.24zm27.84 2.197c0.9231 0.2132 1.824 0.4717 2.71 0.8791l-2.271 3.882-3.516-2.051c0.954-0.9287 1.982-1.83 3.077-2.71zm-29.01 0.3677v4.468h-4.102c0.3622-1.25 0.8195-2.531 1.319-3.809 0.8938-0.2905 1.807-0.568 2.783-0.6596zm2.344 0c0.943 0.08821 1.852 0.3088 2.71 0.586 0.5096 1.3 0.9505 2.611 1.319 3.882h-4.029zm31.35 1.758c0.7842 0.5566 1.431 1.226 2.051 1.905-0.2069 1.358-0.4192 2.692-0.7326 3.956l-3.516-2.051zm-25.71 0.2206c1.063 0.6897 2.027 1.511 2.857 2.491h-2.124c-0.2217-0.8243-0.4548-1.663-0.7324-2.491zm-13.84 0.07359c-0.2659 0.7982-0.4455 1.622-0.6592 2.417h-2.051c0.7934-0.9379 1.691-1.745 2.71-2.417zm57.94 1.978c1.86 1.411 2.377 3.92 1.172 6.007l-19.92 34.58c-1.2 2.078-3.641 2.869-5.787 1.978 1.554-0.5279 2.925-1.62 3.809-3.15l19.92-34.58c0.888-1.538 1.129-3.218 0.8058-4.835zm-26.3 0.9522 2.491 1.465-2.344 4.102-0.1463-0.07359zm11.87 1.318c0.5891 1.129 1.02 2.321 1.245 3.59l-1.831-1.099c0.2183-0.8144 0.4138-1.647 0.586-2.491zm-47.83 0.5129h3.077c-0.3144 1.558-0.495 3.128-0.5861 4.688h-3.809c0.157-1.68 0.5817-3.26 1.318-4.688zm5.494 0h4.688v4.688h-5.347c0.09723-1.571 0.3123-3.106 0.6592-4.688zm7.032 0h4.615c0.3466 1.582 0.5618 3.117 0.6592 4.688h-5.274zm6.959 0h3.15c0.7456 1.436 1.234 2.997 1.392 4.688h-3.956c-0.09043-1.56-0.2716-3.131-0.5861-4.688zm21.02 0.8059 4.029 2.344c-0.4919 1.532-1.13 2.997-1.831 4.395l-4.542-2.637zm6.007 3.443 2.783 1.612c-0.07001 1.637-0.4492 3.272-1.172 4.835l-3.443-1.978c0.7174-1.421 1.316-2.934 1.831-4.468zm-9.523 2.711 4.615 2.637c-0.8034 1.315-1.737 2.532-2.784 3.736l-2.857-1.612v-3.003zm-38.31 0.07359h3.736c0.02835 1.567 0.2364 3.101 0.5127 4.688h-2.93c-0.7335-1.426-1.162-3.013-1.319-4.688zm6.08 0h5.421v4.688h-4.981c-0.296-1.561-0.4076-3.152-0.4395-4.688zm7.765 0h5.348c-0.03401 1.536-0.1437 3.126-0.4395 4.688h-4.908zm7.618 0h3.882c-0.1568 1.672-0.5871 3.264-1.319 4.688h-3.077c0.2767-1.587 0.4856-3.121 0.5129-4.688zm23.44 3.663 3.296 1.904c-0.9937 1.393-2.21 2.501-3.589 3.37l-2.417-1.392c1.029-1.236 1.905-2.539 2.71-3.882zm-42.05 3.37h1.905c0.201 0.7971 0.3909 1.612 0.6592 2.417-0.9734-0.6537-1.805-1.508-2.564-2.417zm4.322 0h4.322v4.468c-1.056-0.09927-2.043-0.3345-3.003-0.6592-0.5345-1.306-0.9696-2.54-1.318-3.809zm6.666 0h4.249c-0.3548 1.29-0.7716 2.554-1.319 3.882-0.9329 0.3125-1.898 0.4893-2.93 0.586zm6.593 0h1.978c-0.7814 0.9353-1.641 1.826-2.637 2.49 0.2772-0.8272 0.4527-1.672 0.6593-2.49zm16.85 0.3676 1.172 0.6592c-0.3921 0.3842-0.7496 0.7985-1.172 1.172zm3.296 1.904 1.392 0.8059c-1.03 0.3493-2.08 0.6978-3.15 0.8791 0.6184-0.5526 1.199-1.107 1.758-1.685zm-34.06 9.963c-0.5323 0-0.9786 0.125-1.318 0.3677-0.3378 0.239-0.5127 0.5743-0.5127 0.9522 0 0.2831 0.06973 0.4684 0.2197 0.6592 0.1508 0.1875 0.3909 0.4018 0.7324 0.5129 0.1488 0.04782 0.2707 0.04045 0.4396 0.07359 0.1709 0.03679 0.36 0.1103 0.5128 0.147 0.1454 0.03679 0.2916 0.08084 0.3661 0.1471 0.0774 0.06253 0.07371 0.1323 0.07371 0.2206 0 0.09558-0.02268 0.1728-0.07371 0.2206-0.0513 0.04782-0.1397 0.04045-0.2197 0.07359-0.06434 0.03679-0.1159 0.05888-0.2197 0.07359h-0.293c-0.2469 0-0.4636 0.03679-0.7324-0.07359-0.2673-0.0919-0.5164-0.2684-0.7326-0.4397h-0.1466v0.9522c0.218 0.0919 0.4834 0.2353 0.7324 0.2941 0.2506 0.05888 0.5428 0.07359 0.879 0.07359 0.5815 0 1.054-0.1176 1.392-0.3677 0.3397-0.25 0.5127-0.6257 0.5127-1.025 0-0.2794-0.07087-0.4849-0.2197-0.6592-0.1471-0.1765-0.4219-0.3382-0.7326-0.4397-0.1579-0.05151-0.3015-0.04416-0.4395-0.07348-0.1361-0.03679-0.2903-0.114-0.4396-0.147-0.2273-0.04782-0.3577-0.08821-0.4396-0.147-0.08164-0.05888-0.1466-0.114-0.1466-0.2206 0-0.0699 0.02268-0.1655 0.0737-0.2206 0.05131-0.05516 0.1488-0.04782 0.22-0.07359 0.07994-0.03679 0.1344-0.05888 0.2197-0.07356 0.08787 0 0.2058-0.07359 0.293-0.07359 0.2469 0 0.4962 0.05888 0.7324 0.147 0.2381 0.08821 0.4226 0.2353 0.586 0.3676h0.1463v-0.9522c-0.1911-0.07724-0.4707-0.1691-0.7324-0.2206-0.2602-0.05151-0.4652-0.07359-0.7324-0.07359zm3.956 0c-0.5323 0-0.9787 0.125-1.319 0.3677-0.3378 0.239-0.5129 0.5743-0.5129 0.9522 0 0.2831 0.07087 0.4684 0.22 0.6592 0.1505 0.1875 0.391 0.4018 0.7325 0.5129 0.1488 0.04782 0.3437 0.04045 0.5128 0.07359 0.1709 0.03679 0.2869 0.1103 0.4395 0.147 0.1451 0.03679 0.2916 0.08084 0.3662 0.1471 0.07738 0.06253 0.07256 0.1323 0.07256 0.2206 0 0.09558-0.02268 0.1728-0.07256 0.2206-0.05131 0.04782-0.1398 0.04045-0.2197 0.07359-0.06548 0.03679-0.1162 0.05888-0.2197 0.07359h-0.2197c-0.2472 0-0.5369 0.03679-0.8058-0.07359-0.2673-0.0919-0.5163-0.2684-0.7324-0.4397h-0.07257v0.9522c0.218 0.0919 0.4103 0.2353 0.6593 0.2941 0.2506 0.05888 0.5428 0.07359 0.879 0.07359 0.5815 0 1.054-0.1176 1.392-0.3677 0.3397-0.25 0.5127-0.6257 0.5127-1.025 0-0.2794-0.07001-0.4849-0.2197-0.6592-0.1471-0.1765-0.3486-0.3382-0.6593-0.4397-0.1579-0.05151-0.3747-0.04416-0.5128-0.07348-0.1361-0.03679-0.2174-0.114-0.3662-0.147-0.2268-0.04782-0.431-0.08821-0.5128-0.147-0.08164-0.05888-0.07257-0.114-0.07257-0.2206 0-0.0699 0.02268-0.1655 0.07257-0.2206 0.0513-0.05516 0.0754-0.04782 0.1466-0.07359 0.07994-0.03679 0.2075-0.05888 0.293-0.07356 0.08787 0 0.1324-0.07359 0.2197-0.07359 0.2472 0 0.4964 0.05888 0.7326 0.147 0.2381 0.08821 0.4224 0.2353 0.5859 0.3676h0.1466v-0.9522c-0.1905-0.07724-0.4709-0.1691-0.7326-0.2206-0.2596-0.05151-0.4655-0.07359-0.7325-0.07359zm8.278 0c-0.6523 0-1.168 0.2059-1.538 0.586-0.3706 0.3776-0.5859 0.886-0.5859 1.538 0 0.6471 0.2154 1.157 0.5859 1.538 0.3707 0.3798 0.8861 0.586 1.538 0.586 0.6542 0 1.168-0.2059 1.538-0.586 0.3706-0.3816 0.5127-0.8912 0.5127-1.538 0-0.6522-0.14-1.161-0.5127-1.538-0.3726-0.3801-0.8878-0.586-1.538-0.586zm-22.34 0.07359v4.102h1.099v-1.318h0.6592c0.2961 0 0.5346-0.06622 0.7326-0.147 0.2001-0.08084 0.3511-0.2059 0.5127-0.3677 0.1179-0.1176 0.2296-0.2684 0.293-0.4397 0.06265-0.1728 0.07371-0.3309 0.07371-0.5125 0-0.2353-0.05925-0.4188-0.1466-0.586-0.08504-0.1655-0.2027-0.3309-0.3662-0.4397-0.1361-0.08822-0.2614-0.1765-0.4395-0.2206-0.1763-0.04416-0.4012-0.07359-0.6593-0.07359zm5.128 0-1.465 4.102h1.026l0.293-0.8055h1.538l0.293 0.8055h1.026l-1.465-4.102zm11.28 0v4.102h1.025v-1.318h0.6593c0.2964 0 0.5345-0.06622 0.7325-0.147 0.2001-0.08084 0.3511-0.2059 0.5128-0.3677 0.1179-0.1176 0.2293-0.2684 0.293-0.4397 0.06265-0.1728 0.07257-0.3309 0.07257-0.5125 0-0.2353 0.01418-0.4188-0.07257-0.586-0.08503-0.1655-0.2027-0.3309-0.3662-0.4397-0.136-0.08822-0.3344-0.1765-0.5127-0.2206-0.1763-0.04416-0.4013-0.07359-0.6592-0.07359zm8.79 0v4.102h1.099v-1.538h0.4395l1.099 1.538h1.319l-1.392-1.758c0.258-0.125 0.4479-0.25 0.586-0.4397 0.14-0.1875 0.2197-0.4327 0.2197-0.7324 0-0.2169-0.05555-0.4423-0.1466-0.586-0.08872-0.147-0.2137-0.2757-0.3662-0.3677-0.1505-0.0919-0.267-0.1214-0.4396-0.147-0.1729-0.03679-0.4194-0.07359-0.6592-0.07359zm3.956 0v0.8055h1.319v3.296h1.026v-3.296h1.245v-0.8055zm-6.813 0.7324c0.131 0 0.2463 0.03679 0.3662 0.07359 0.1216 0.04782 0.2004 0.1103 0.293 0.2206 0.09042 0.1066 0.163 0.2684 0.2197 0.4397 0.0567 0.1728 0.1466 0.3419 0.1466 0.586 0 0.2279-0.02267 0.4169-0.07256 0.586-0.04847 0.1654-0.1179 0.3162-0.2197 0.4393-0.09042 0.1103-0.2446 0.1654-0.3662 0.2206-0.1219 0.0515-0.2319 0.07359-0.3662 0.07359-0.1346 0-0.2446-0.03679-0.3662-0.07359-0.1219-0.05151-0.2752-0.1103-0.3662-0.2206-0.09043-0.1066-0.1636-0.2721-0.22-0.4393-0.05471-0.1691-0.0737-0.3456-0.0737-0.586 0-0.2353 0.01985-0.4081 0.0737-0.586 0.0584-0.1801 0.1293-0.3382 0.22-0.4397 0.09808-0.1103 0.25-0.1728 0.3662-0.2206 0.1179-0.04782 0.2336-0.07359 0.3662-0.07359zm-21.24 0.07359h0.1463 0.4396c0.1035 0 0.1837 0.03679 0.293 0.07359 0.08164 0.03679 0.1579 0.06253 0.2197 0.147 0.06209 0.08084 0.07257 0.1801 0.07257 0.2941 0 0.1176 0.03062 0.2133 0 0.2941-0.03061 0.08084-0.07993 0.1618-0.1466 0.2206-0.07908 0.06625-0.1766 0.125-0.293 0.147-0.1145 0.03679-0.2614 0-0.4396 0h-0.293zm16.34 0h0.2202 0.3662c0.1032 0 0.2574 0.03679 0.3662 0.07359 0.08164 0.03679 0.08448 0.06253 0.1466 0.147 0.06095 0.08084 0.1466 0.1801 0.1466 0.2941 0 0.1176-0.04195 0.2133-0.07256 0.2941-0.03061 0.08084-0.07994 0.1618-0.1463 0.2206-0.07909 0.06625-0.1766 0.125-0.293 0.147-0.1145 0.03679-0.2614 0-0.4394 0h-0.293zm8.864 0h0.3662 0.293c0.09467 0 0.2222-0.03679 0.293 0 0.1015 0.04416 0.178 0.1471 0.2197 0.2206 0.04195 0.07359 0 0.1176 0 0.2206 0 0.114 0.03402 0.2243 0 0.2941-0.03402 0.06622-0.07371 0.1618-0.1463 0.2206-0.07738 0.05888-0.1803 0.05888-0.293 0.07359-0.1125 0-0.2724 0.07359-0.4395 0.07359h-0.293zm-20.51 0.2206 0.4396 1.465h-0.9522z" overflow="visible" style="color:#000000;fill:#000000"/>
</svg>
