<?xml version="1.0" encoding="UTF-8" standalone="no"?>
<svg
   xmlns:dc="http://purl.org/dc/elements/1.1/"
   xmlns:cc="http://creativecommons.org/ns#"
   xmlns:rdf="http://www.w3.org/1999/02/22-rdf-syntax-ns#"
   xmlns:svg="http://www.w3.org/2000/svg"
   xmlns="http://www.w3.org/2000/svg"
   xmlns:xlink="http://www.w3.org/1999/xlink"
   xmlns:sodipodi="http://sodipodi.sourceforge.net/DTD/sodipodi-0.dtd"
   xmlns:inkscape="http://www.inkscape.org/namespaces/inkscape"
   version="1.1"
   id="svg356"
   sodipodi:docname="i10.svg"
   width="100"
   height="73.91304"
   inkscape:version="0.92.2 (5c3e80d, 2017-08-06)">
  <metadata
     id="metadata360">
    <rdf:RDF>
      <cc:Work
         rdf:about="">
        <dc:format>image/svg+xml</dc:format>
        <dc:type
           rdf:resource="http://purl.org/dc/dcmitype/StillImage" />
        <dc:title></dc:title>
      </cc:Work>
    </rdf:RDF>
  </metadata>
  <sodipodi:namedview
     pagecolor="#ffffff"
     bordercolor="#666666"
     borderopacity="1"
     objecttolerance="10"
     gridtolerance="10"
     guidetolerance="10"
     inkscape:pageopacity="0"
     inkscape:pageshadow="2"
     inkscape:window-width="1034"
     inkscape:window-height="480"
     id="namedview358"
     showgrid="false"
     fit-margin-top="0"
     fit-margin-left="0"
     fit-margin-right="0"
     fit-margin-bottom="0"
     inkscape:zoom="3.3889206"
     inkscape:cx="40.13079"
     inkscape:cy="25.736019"
     inkscape:window-x="0"
     inkscape:window-y="0"
     inkscape:window-maximized="0"
     inkscape:current-layer="svg356" />
  <defs
     id="defs4543">
    <linearGradient
       gradientUnits="userSpaceOnUse"
       y2="-273.73932"
       x2="-458.9198"
       y1="-273.73932"
       x1="-461.36719"
       id="linearGradient26446"
       xlink:href="#linearGradient4252"
       inkscape:collect="always" />
    <linearGradient
       id="linearGradient4252"
       inkscape:collect="always">
      <stop
         id="stop4254"
         offset="0"
         style="stop-color:#aaaaaa;stop-opacity:1" />
      <stop
         style="stop-color:#ededed;stop-opacity:1"
         offset="0.47033885"
         id="stop4286" />
      <stop
         style="stop-color:#dfdfdf;stop-opacity:1"
         offset="0.79661"
         id="stop4260" />
      <stop
         id="stop4256"
         offset="1"
         style="stop-color:#bfbfbf;stop-opacity:1" />
    </linearGradient>
    <linearGradient
       gradientUnits="userSpaceOnUse"
       y2="-273.54089"
       x2="-471.48752"
       y1="-273.54089"
       x1="-473.93491"
       id="linearGradient26438"
       xlink:href="#linearGradient4252"
       inkscape:collect="always" />
  </defs>
  <g
     id="g9517"
     transform="matrix(4.2401071,0,0,4.2401071,2027.2136,1203.4827)"
     inkscape:label="suitcase">
    <rect
       style="opacity:1;fill:url(#linearGradient26446);fill-opacity:1;stroke:none;stroke-width:0.26458332;stroke-opacity:1"
       id="rect26348"
       width="2.1828125"
       height="12.898438"
       x="-461.23489"
       y="-280.18854" />
    <rect
       y="-279.99011"
       x="-473.80261"
       height="12.898438"
       width="2.1828125"
       id="rect26346"
       style="opacity:1;fill:url(#linearGradient26438);fill-opacity:1;stroke:none;stroke-width:0.26458332;stroke-opacity:1" />
    <path
       style="fill:#663399;fill-opacity:1;stroke-width:0.51270264"
       inkscape:connector-curvature="0"
       d="m -456.05815,-280.75684 h -5.6397 v -1.53812 c 0,-0.84803 -0.6388,-1.53812 -1.42376,-1.53812 h -6.38115 c -0.7849,0 -1.42376,0.69009 -1.42376,1.53812 v 1.53812 h -5.6397 c -0.84803,0 -1.53812,0.6901 -1.53812,1.53806 v 11.27946 c 0,0.84803 0.69009,1.53812 1.53812,1.53812 h 20.50807 c 0.84748,0 1.53812,-0.69009 1.53812,-1.53812 v -11.27946 c 0,-0.84796 -0.69064,-1.53806 -1.53812,-1.53806 z m -13.84298,-1.53812 c 0,-0.27745 0.18204,-0.51294 0.39857,-0.51294 h 6.38061 c 0.21654,0 0.39857,0.23549 0.39857,0.51294 v 1.53812 h -7.17788 z m -4.6143,14.86837 h -2.05079 c -0.28218,0 -0.51293,-0.23008 -0.51293,-0.51294 v -11.27945 c 0,-0.28218 0.23008,-0.51294 0.51293,-0.51294 h 2.05079 z m 2.56351,0 h -1.53811 v -12.30485 h 1.53811 z m 10.25407,0 h -9.22867 v -12.30485 h 9.22867 z m 2.56352,0 h -1.53812 v -12.30485 h 1.53812 z m 3.58891,-0.51294 c 0,0.28286 -0.2294,0.51294 -0.51293,0.51294 h -2.05079 v -12.30485 h 2.05079 c 0.28285,0 0.51293,0.23007 0.51293,0.51293 z"
       id="use10146-8" />
  </g>
</svg>
