<svg version="1.1" viewBox="0 0 75 55.43" xmlns="http://www.w3.org/2000/svg" xmlns:xlink="http://www.w3.org/1999/xlink">
 <defs>
  <linearGradient id="linearGradient26446" x1="-461.4" x2="-458.9" y1="-273.7" y2="-273.7" gradientTransform="matrix(3.18 0 0 3.18 1520 902.6)" gradientUnits="userSpaceOnUse" xlink:href="#linearGradient4252"/>
  <linearGradient id="linearGradient4252">
   <stop style="stop-color:#aaaaaa" offset="0"/>
   <stop style="stop-color:#ededed" offset=".4703"/>
   <stop style="stop-color:#dfdfdf" offset=".7966"/>
   <stop style="stop-color:#bfbfbf" offset="1"/>
  </linearGradient>
  <linearGradient id="linearGradient26438" x1="-473.9" x2="-471.5" y1="-273.5" y2="-273.5" gradientTransform="matrix(3.18 0 0 3.18 1520 902.6)" gradientUnits="userSpaceOnUse" xlink:href="#linearGradient4252"/>
 </defs>
 <rect x="53.65" y="11.59" width="6.942" height="41.02" style="fill:url(#linearGradient26446)"/>
 <rect x="13.68" y="12.22" width="6.942" height="41.02" style="fill:url(#linearGradient26438)"/>
 <path d="m70.11 9.783h-17.93v-4.891c0-2.697-2.031-4.891-4.528-4.891h-20.29c-2.496 0-4.528 2.195-4.528 4.891v4.891h-17.93c-2.697 0-4.891 2.195-4.891 4.891v35.87c0 2.697 2.195 4.891 4.891 4.891h65.22c2.695 0 4.891-2.195 4.891-4.891v-35.87c0-2.697-2.196-4.891-4.891-4.891zm-44.02-4.891c0-0.8823 0.5789-1.631 1.267-1.631h20.29c0.6886 0 1.267 0.7489 1.267 1.631v4.891h-22.83zm-14.67 47.28h-6.522c-0.8974 0-1.631-0.7317-1.631-1.631v-35.87c0-0.8974 0.7317-1.631 1.631-1.631h6.522zm8.152 0h-4.891v-39.13h4.891zm32.61 0h-29.35v-39.13h29.35zm8.152 0h-4.891v-39.13h4.891zm11.41-1.631c0 0.8995-0.7295 1.631-1.631 1.631h-6.522v-39.13h6.522c0.8995 0 1.631 0.7316 1.631 1.631z" style="fill:#663399;stroke-width:1.63"/>
</svg>
