<svg version="1.1" viewBox="0 0 75 75" xmlns="http://www.w3.org/2000/svg" xmlns:xlink="http://www.w3.org/1999/xlink">
 <defs>
  <linearGradient id="linearGradient26379" x1="-608.9" x2="-589.4" y1="-275.1" y2="-275.1" gradientTransform="matrix(3.691 0 0 3.691 2249 1053)" gradientUnits="userSpaceOnUse">
   <stop style="stop-color:#aaaaaa" offset="0"/>
   <stop style="stop-color:#ededed" offset=".4703"/>
   <stop style="stop-color:#dfdfdf" offset=".7966"/>
   <stop style="stop-color:#bfbfbf" offset="1"/>
  </linearGradient>
 </defs>
 <path d="m1.482 13.57 11.72-12.21 13.18 17.58-5.615 10.01 7.08 13.92 15.87 11.23 11.23-4.883c11.46 7.413 17.35 6.655 18.57 14.73l-10.27 9.682s-13.11-2.776-18.8-6.104c-13.57-7.942-34.67-31.98-34.67-31.98z" style="fill:url(#linearGradient26379)"/>
 <path d="m72.75 58.1-14.06-9.397c-2.341-1.566-4.595-1.511-6.545 0.09225-5.475 4.489-8.722 3.202-9.25 2.936-3.097-1.55-6.022-3.013-10.53-7.52-5.6-5.603-7.622-9.18-9.081-12.09-0.5828-1.166-1.255-5.084 2.578-9.17 1.792-1.908 1.958-4.252 0.4671-6.595-1.149-1.806-1.149-1.806-2.052-3.134-0.8905-1.313-2.67-3.934-7.364-10.96-1.014-1.516-2.455-2.255-4.403-2.255-2.209 0-3.328 1.12-4.23 2.02l-4.688 4.688c-3.319 3.317-3.583 5.219-3.583 7.355 0 2.689 3.883 20.22 22.33 38.6 18.39 18.45 35.9 22.34 38.59 22.34h0.1025c2.117-0.0295 3.998-0.3108 7.269-3.583l4.688-4.688c0.9015-0.9 2.022-2.02 2.022-4.23 0-1.95-0.7391-3.391-2.255-4.403zm-1.975 6.423-4.688 4.688c-2.631 2.631-3.775 2.648-5.164 2.667-0.1923-0.00375-17.02-1.989-36.38-21.42-19.2-19.14-21.41-36.24-21.42-36.39 0-1.386 0-2.478 2.666-5.145l4.688-4.688c0.8235-0.8203 1.152-1.105 2.022-1.105 1.02 0 1.448 0.3329 1.806 0.8672 4.702 7.038 6.484 9.666 7.377 10.98 0.8798 1.294 0.8798 1.294 2 3.058 0.8875 1.395 0.4718 2.161-0.1088 2.78-4.877 5.194-4.156 10.58-3.095 12.7 1.567 3.134 3.734 6.974 9.667 12.91 4.867 4.867 8.161 6.513 11.34 8.106 0.8766 0.4359 2.02 0.6781 3.224 0.6781 2.072 0 5.383-0.6922 9.406-3.992 0.5703-0.4703 0.9766-0.525 1.233-0.525 0.4484 0 0.9859 0.2078 1.595 0.6172l14.06 9.394c0.5328 0.3547 0.8656 0.7828 0.8656 1.805 0 0.8703-0.2845 1.2-1.105 2.02z" style="fill:#663399;stroke-width:1.563"/>
</svg>
