<?xml version="1.0" encoding="UTF-8" standalone="no"?>
<svg
   xmlns:dc="http://purl.org/dc/elements/1.1/"
   xmlns:cc="http://creativecommons.org/ns#"
   xmlns:rdf="http://www.w3.org/1999/02/22-rdf-syntax-ns#"
   xmlns:svg="http://www.w3.org/2000/svg"
   xmlns="http://www.w3.org/2000/svg"
   xmlns:xlink="http://www.w3.org/1999/xlink"
   xmlns:sodipodi="http://sodipodi.sourceforge.net/DTD/sodipodi-0.dtd"
   xmlns:inkscape="http://www.inkscape.org/namespaces/inkscape"
   version="1.1"
   id="svg355"
   sodipodi:docname="i11.svg"
   width="100"
   height="100.00076"
   inkscape:version="0.92.2 (5c3e80d, 2017-08-06)">
  <metadata
     id="metadata359">
    <rdf:RDF>
      <cc:Work
         rdf:about="">
        <dc:format>image/svg+xml</dc:format>
        <dc:type
           rdf:resource="http://purl.org/dc/dcmitype/StillImage" />
        <dc:title></dc:title>
      </cc:Work>
    </rdf:RDF>
  </metadata>
  <sodipodi:namedview
     pagecolor="#ffffff"
     bordercolor="#666666"
     borderopacity="1"
     objecttolerance="10"
     gridtolerance="10"
     guidetolerance="10"
     inkscape:pageopacity="0"
     inkscape:pageshadow="2"
     inkscape:window-width="1034"
     inkscape:window-height="480"
     id="namedview357"
     showgrid="false"
     fit-margin-top="0"
     fit-margin-left="0"
     fit-margin-right="0"
     fit-margin-bottom="0"
     inkscape:zoom="3.9333661"
     inkscape:cx="34.576027"
     inkscape:cy="29.999993"
     inkscape:window-x="0"
     inkscape:window-y="0"
     inkscape:window-maximized="0"
     inkscape:current-layer="svg355" />
  <defs
     id="defs4543">
    <linearGradient
       id="linearGradient4252"
       inkscape:collect="always">
      <stop
         id="stop4254"
         offset="0"
         style="stop-color:#aaaaaa;stop-opacity:1" />
      <stop
         style="stop-color:#ededed;stop-opacity:1"
         offset="0.47033885"
         id="stop4286" />
      <stop
         style="stop-color:#dfdfdf;stop-opacity:1"
         offset="0.79661"
         id="stop4260" />
      <stop
         id="stop4256"
         offset="1"
         style="stop-color:#bfbfbf;stop-opacity:1" />
    </linearGradient>
    <linearGradient
       gradientUnits="userSpaceOnUse"
       y2="-275.09531"
       x2="-589.35577"
       y1="-275.09531"
       x1="-608.87238"
       id="linearGradient26379"
       xlink:href="#linearGradient4252"
       inkscape:collect="always"
       gradientTransform="matrix(2.9527551,0,0,2.9527551,63.836789,1169.7124)" />
  </defs>
  <g
     id="phone"
     inkscape:label="phone"
     transform="matrix(1.6666806,0,0,1.6666806,2892.0243,-545.71015)">
    <path
       sodipodi:nodetypes="cccccccccacc"
       inkscape:connector-curvature="0"
       id="path26371"
       d="m -1734.0142,338.2827 9.375,-9.76562 10.5468,14.06249 -4.4921,8.00782 5.664,11.1328 12.6953,8.98438 8.9844,-3.90626 c 9.1716,5.93058 13.8802,5.32373 14.8542,11.7861 l -8.2136,7.74516 c 0,0 -10.4903,-2.22047 -15.0391,-4.88282 -10.8552,-6.35347 -27.7343,-25.58592 -27.7343,-25.58592 z"
       style="opacity:1;fill:url(#linearGradient26379);fill-opacity:1;stroke:none;stroke-width:0.78124976px;stroke-linecap:butt;stroke-linejoin:miter;stroke-opacity:1" />
    <path
       style="fill:#663399;fill-opacity:1;stroke-width:1.24999928"
       inkscape:connector-curvature="0"
       d="m -1677.0039,373.90077 -11.25,-7.51751 c -1.8725,-1.2525 -3.6762,-1.20874 -5.2362,0.0738 -4.38,3.59126 -6.9775,2.56125 -7.4,2.34874 -2.4775,-1.23998 -4.8175,-2.40998 -8.4263,-6.01624 -4.48,-4.48249 -6.0975,-7.34374 -7.265,-9.675 -0.4662,-0.93248 -1.0037,-4.06748 2.0626,-7.33623 1.4337,-1.52625 1.5662,-3.40122 0.3737,-5.27622 -0.9188,-1.44502 -0.9188,-1.44502 -1.6413,-2.50751 -0.7124,-1.05 -2.1362,-3.14749 -5.8912,-8.7675 -0.8113,-1.21249 -1.9637,-1.80375 -3.5225,-1.80375 -1.7675,0 -2.6625,0.89625 -3.3837,1.61625 l -3.7501,3.75003 c -2.6549,2.65373 -2.8662,4.17499 -2.8662,5.88372 0,2.15126 3.1063,16.17371 17.865,30.88121 14.7113,14.76124 28.72,17.86874 30.87,17.86874 h 0.082 c 1.6937,-0.0236 3.1987,-0.24862 5.815,-2.86624 l 3.75,-3.74999 c 0.7212,-0.72 1.6175,-1.61625 1.6175,-3.38377 0,-1.55997 -0.5913,-2.71249 -1.8038,-3.52249 z m -1.58,5.13874 -3.75,3.75 c -2.105,2.10502 -3.02,2.11875 -4.1312,2.13375 -0.1538,-0.003 -13.6137,-1.59124 -29.1025,-17.13623 -15.3637,-15.31001 -17.13,-28.99372 -17.1325,-29.11372 0,-1.10873 0,-1.98251 2.1325,-4.11623 l 3.75,-3.75003 c 0.6588,-0.65625 0.9213,-0.88376 1.6175,-0.88376 0.8163,0 1.1587,0.26634 1.445,0.69375 3.7612,5.63002 5.1875,7.7325 5.9012,8.78126 0.7038,1.035 0.7038,1.035 1.6001,2.44624 0.71,1.11626 0.3774,1.72875 -0.087,2.22375 -3.9013,4.155 -3.3251,8.46371 -2.4763,10.16373 1.2538,2.50748 2.9875,5.57876 7.7337,10.32499 3.8938,3.89377 6.5288,5.21002 9.075,6.48502 0.7013,0.34875 1.6163,0.54248 2.5788,0.54248 1.6575,0 4.3062,-0.55376 7.525,-3.19373 0.4562,-0.37627 0.7813,-0.42 0.9863,-0.42 0.3587,0 0.7887,0.16624 1.2762,0.49373 l 11.25,7.515 c 0.4262,0.28376 0.6925,0.62625 0.6925,1.44375 0,0.69626 -0.2276,0.96 -0.8837,1.61625 z"
       id="use10172-1" />
  </g>
</svg>
