<?xml version="1.0" encoding="UTF-8" standalone="no"?>
<svg
   xmlns:dc="http://purl.org/dc/elements/1.1/"
   xmlns:cc="http://creativecommons.org/ns#"
   xmlns:rdf="http://www.w3.org/1999/02/22-rdf-syntax-ns#"
   xmlns:svg="http://www.w3.org/2000/svg"
   xmlns="http://www.w3.org/2000/svg"
   xmlns:xlink="http://www.w3.org/1999/xlink"
   xmlns:sodipodi="http://sodipodi.sourceforge.net/DTD/sodipodi-0.dtd"
   xmlns:inkscape="http://www.inkscape.org/namespaces/inkscape"
   version="1.1"
   id="svg361"
   sodipodi:docname="i12.svg"
   width="100"
   height="77.503746"
   inkscape:version="0.92.2 (5c3e80d, 2017-08-06)">
  <metadata
     id="metadata365">
    <rdf:RDF>
      <cc:Work
         rdf:about="">
        <dc:format>image/svg+xml</dc:format>
        <dc:type
           rdf:resource="http://purl.org/dc/dcmitype/StillImage" />
        <dc:title></dc:title>
      </cc:Work>
    </rdf:RDF>
  </metadata>
  <sodipodi:namedview
     pagecolor="#ffffff"
     bordercolor="#666666"
     borderopacity="1"
     objecttolerance="10"
     gridtolerance="10"
     guidetolerance="10"
     inkscape:pageopacity="0"
     inkscape:pageshadow="2"
     inkscape:window-width="1034"
     inkscape:window-height="480"
     id="namedview363"
     showgrid="false"
     fit-margin-top="0"
     fit-margin-left="0"
     fit-margin-right="0"
     fit-margin-bottom="0"
     inkscape:zoom="3.1856577"
     inkscape:cx="42.691363"
     inkscape:cy="28.70819"
     inkscape:window-x="0"
     inkscape:window-y="0"
     inkscape:window-maximized="0"
     inkscape:current-layer="svg361" />
  <defs
     id="defs4543">
    <linearGradient
       id="linearGradient4252"
       inkscape:collect="always">
      <stop
         id="stop4254"
         offset="0"
         style="stop-color:#aaaaaa;stop-opacity:1" />
      <stop
         style="stop-color:#ededed;stop-opacity:1"
         offset="0.47033885"
         id="stop4286" />
      <stop
         style="stop-color:#dfdfdf;stop-opacity:1"
         offset="0.79661"
         id="stop4260" />
      <stop
         id="stop4256"
         offset="1"
         style="stop-color:#bfbfbf;stop-opacity:1" />
    </linearGradient>
    <linearGradient
       gradientUnits="userSpaceOnUse"
       y2="-270.92783"
       x2="-385.01471"
       y1="-270.92783"
       x1="-409.47079"
       id="linearGradient26462"
       xlink:href="#linearGradient4252"
       inkscape:collect="always" />
    <linearGradient
       gradientUnits="userSpaceOnUse"
       y2="-274.23544"
       x2="-390.73856"
       y1="-274.23544"
       x1="-403.01144"
       id="linearGradient26454"
       xlink:href="#linearGradient4252"
       inkscape:collect="always" />
  </defs>
  <g
     id="car-frnt"
     transform="matrix(3.9857911,0,0,3.9857911,1632.6624,1135.3112)"
     inkscape:label="car-frnt">
    <path
       sodipodi:nodetypes="ccscsc"
       inkscape:connector-curvature="0"
       id="rect26354"
       d="m -409.37048,-272.25104 c 2.51909,0.0541 24.35576,0.35075 24.35576,0.35075 0,0 -0.55449,2.10451 -0.74226,2.10609 l -22.57673,0.18968 c 0,0 -1.53759,-2.65731 -1.03677,-2.64656 z"
       style="opacity:1;fill:url(#linearGradient26462);fill-opacity:1;stroke:none;stroke-width:0.26458332;stroke-opacity:1" />
    <rect
       y="-276.13855"
       x="-403.01144"
       height="3.8062031"
       width="12.27287"
       id="rect26352"
       style="opacity:1;fill:url(#linearGradient26454);fill-opacity:1;stroke:none;stroke-width:0.1625466;stroke-opacity:1" />
    <path
       d="m -405.86932,-275.8669 c 0.9687,0 1.7548,0.78564 1.7548,1.75372 0,0.96823 -0.7861,1.75263 -1.7548,1.75263 -0.96808,0 -1.75372,-0.7844 -1.75372,-1.75263 0,-0.96808 0.78564,-1.75372 1.75372,-1.75372 z m 0.21682,-3.61074 1.53148,-3.75491 c 0.0712,-0.31577 0.63542,-0.40761 0.63542,-0.40761 4.96938,-0.79106 11.60963,-0.0449 11.60963,-0.0449 0.82436,0.048 1.01392,0.47529 1.01392,0.47529 l 1.57686,3.82119 c 0.21186,0.45237 -0.47049,0.27211 -0.47049,0.27211 -4.87445,-0.54312 -15.68419,-0.1146 -15.68419,-0.1146 -0.37648,0.0232 -0.21263,-0.24748 -0.21263,-0.24748 z m 17.67842,3.61074 c 0.96761,0 1.75371,0.78564 1.75371,1.75372 0,0.96823 -0.7861,1.75263 -1.75371,1.75263 -0.96963,0 -1.75481,-0.7844 -1.75481,-1.75263 0,-0.96808 0.78518,-1.75372 1.75481,-1.75372 z m -3.22822,2.48314 c 0,0.39724 -0.32352,0.71952 -0.72121,0.71952 h -9.79366 c -0.39878,0 -0.72059,-0.32228 -0.72059,-0.71952 v -1.71113 c 0,-0.39878 0.32181,-0.72122 0.72059,-0.72122 h 9.79366 c 0.39769,0 0.72121,0.32244 0.72121,0.72122 z m -18.20233,1.5335 h 24.41035 l 0.46274,-4.18932 c 0,0 -0.0356,-0.5058 -0.0712,-0.59655 -0.67244,-1.74443 -3.62653,-2.33168 -3.62653,-2.33168 l -1.75371,-4.42317 c -0.35574,-0.81243 -0.99116,-0.91464 -0.99116,-0.91464 -5.31195,-1.06812 -12.9881,-0.20381 -12.9881,-0.20381 -0.89157,0.15332 -1.04288,0.71193 -1.04288,0.71193 l -1.77896,4.75365 c -2.07491,0.9704 -2.42615,1.82093 -2.57761,2.15312 -0.0573,0.13009 -0.12699,0.40482 -0.16432,0.57363 -0.2563,1.19325 0.0852,4.16206 0.1208,4.46684"
       style="display:inline;fill:#663399;fill-opacity:1;fill-rule:nonzero;stroke:none;stroke-width:0.05463377"
       id="path59568-9-7"
       inkscape:connector-curvature="0" />
    <path
       d="m -408.56215,-269.91891 c 0.10376,0.17422 0.26265,0.3994 0.60909,0.8129 0.66051,0.78734 3.83854,0.86431 3.83854,0.86431 h 14.28404 c 3.23053,0.3689 4.05164,-1.35648 4.17616,-1.67721 h -22.90783"
       style="display:inline;fill:#663399;fill-opacity:1;fill-rule:nonzero;stroke:none;stroke-width:0.05463377"
       id="path59570-5-8"
       inkscape:connector-curvature="0" />
    <path
       d="m -386.27225,-266.11521 c 0,0.39708 -0.32228,0.7206 -0.7206,0.7206 h -1.40464 c -0.39817,0 -0.72169,-0.32352 -0.72169,-0.7206 v -2.9826 c 0,-0.39707 0.32352,-0.71951 0.72169,-0.71951 h 1.40464 c 0.39832,0 0.7206,0.32244 0.7206,0.71951 v 2.9826"
       style="display:inline;fill:#663399;fill-opacity:1;fill-rule:nonzero;stroke:none;stroke-width:0.05463377"
       id="path59572-0-6"
       inkscape:connector-curvature="0" />
    <path
       d="m -405.13122,-266.11521 c 0,0.39708 -0.32336,0.7206 -0.72122,0.7206 h -1.40681 c -0.39662,0 -0.7189,-0.32352 -0.7189,-0.7206 v -2.9826 c 0,-0.39707 0.32228,-0.71951 0.7189,-0.71951 h 1.40681 c 0.39786,0 0.72122,0.32244 0.72122,0.71951 v 2.9826"
       style="display:inline;fill:#663399;fill-opacity:1;fill-rule:nonzero;stroke:none;stroke-width:0.05463377"
       id="path59574-4-7"
       inkscape:connector-curvature="0" />
    <path
       d="m -385.61112,-280.13706 c 0,0.67305 -0.54467,1.21943 -1.22004,1.21943 -0.67306,0 -1.22098,-0.54638 -1.22098,-1.21943 0,-0.67367 0.54792,-1.22051 1.22098,-1.22051 0.67537,0 1.22004,0.54684 1.22004,1.22051"
       style="display:inline;fill:#663399;fill-opacity:1;fill-rule:nonzero;stroke:none;stroke-width:0.05463377"
       id="path59576-1-0"
       inkscape:connector-curvature="0" />
    <path
       d="m -406.96207,-280.13706 c 0,0.67305 -0.54575,1.21943 -1.21988,1.21943 -0.67414,0 -1.22005,-0.54638 -1.22005,-1.21943 0,-0.67367 0.54591,-1.22051 1.22005,-1.22051 0.67413,0 1.21988,0.54684 1.21988,1.22051"
       style="display:inline;fill:#663399;fill-opacity:1;fill-rule:nonzero;stroke:none;stroke-width:0.05463377"
       id="path59578-4-3"
       inkscape:connector-curvature="0" />
  </g>
</svg>
