<svg version="1.1" viewBox="0 0 75 58.13" xmlns="http://www.w3.org/2000/svg" xmlns:xlink="http://www.w3.org/1999/xlink">
 <defs>
  <linearGradient id="linearGradient4252">
   <stop style="stop-color:#aaaaaa" offset="0"/>
   <stop style="stop-color:#ededed" offset=".4703"/>
   <stop style="stop-color:#dfdfdf" offset=".7966"/>
   <stop style="stop-color:#bfbfbf" offset="1"/>
  </linearGradient>
  <linearGradient id="linearGradient26462" x1="-409.5" x2="-385" y1="-270.9" y2="-270.9" gradientTransform="matrix(2.989 0 0 2.989 1224 851.5)" gradientUnits="userSpaceOnUse" xlink:href="#linearGradient4252"/>
  <linearGradient id="linearGradient26454" x1="-403" x2="-390.7" y1="-274.2" y2="-274.2" gradientTransform="matrix(2.989 0 0 2.989 1224 851.5)" gradientUnits="userSpaceOnUse" xlink:href="#linearGradient4252"/>
 </defs>
 <path d="m0.7479 37.63c7.53 0.1617 72.81 1.049 72.81 1.049s-1.658 6.291-2.219 6.296l-67.49 0.567s-4.596-7.944-3.099-7.911z" style="fill:url(#linearGradient26462)"/>
 <rect x="19.76" y="26.01" width="36.69" height="11.38" style="fill:url(#linearGradient26454)"/>
 <path d="m11.21 26.82c2.896 0 5.246 2.349 5.246 5.242 0 2.894-2.35 5.239-5.246 5.239-2.894 0-5.242-2.345-5.242-5.239 0-2.894 2.349-5.242 5.242-5.242zm0.6481-10.79 4.578-11.22c0.2128-0.9439 1.899-1.218 1.899-1.218 14.86-2.365 34.71-0.1342 34.71-0.1342 2.464 0.1435 3.031 1.421 3.031 1.421l4.714 11.42c0.6333 1.352-1.406 0.8134-1.406 0.8134-14.57-1.624-46.89-0.3426-46.89-0.3426-1.125 0.06935-0.6356-0.7398-0.6356-0.7398zm52.85 10.79c2.893 0 5.242 2.349 5.242 5.242 0 2.894-2.35 5.239-5.242 5.239-2.899 0-5.246-2.345-5.246-5.239 0-2.894 2.347-5.242 5.246-5.242zm-9.65 7.423c0 1.187-0.9671 2.151-2.156 2.151h-29.28c-1.192 0-2.154-0.9634-2.154-2.151v-5.115c0-1.192 0.962-2.156 2.154-2.156h29.28c1.189 0 2.156 0.9639 2.156 2.156zm-54.41 4.584h72.97l1.383-12.52s-0.1064-1.512-0.2128-1.783c-2.01-5.215-10.84-6.97-10.84-6.97l-5.242-13.22c-1.063-2.429-2.963-2.734-2.963-2.734-15.88-3.193-38.83-0.6093-38.83-0.6093-2.665 0.4583-3.118 2.128-3.118 2.128l-5.318 14.21c-6.203 2.901-7.253 5.443-7.705 6.436-0.1713 0.3889-0.3796 1.21-0.4912 1.715-0.7662 3.567 0.2547 12.44 0.3611 13.35" style="fill:#663399"/>
 <path d="m3.164 44.6c0.3102 0.5208 0.7852 1.194 1.821 2.43 1.974 2.354 11.47 2.584 11.47 2.584h42.7c9.657 1.103 12.11-4.055 12.48-5.014h-68.48" style="fill:#663399"/>
 <path d="m69.8 55.97c0 1.187-0.9634 2.154-2.154 2.154h-4.199c-1.19 0-2.157-0.9671-2.157-2.154v-8.916c0-1.187 0.9671-2.151 2.157-2.151h4.199c1.191 0 2.154 0.9639 2.154 2.151v8.916" style="fill:#663399"/>
 <path d="m13.42 55.97c0 1.187-0.9666 2.154-2.156 2.154h-4.205c-1.186 0-2.149-0.9671-2.149-2.154v-8.916c0-1.187 0.9634-2.151 2.149-2.151h4.205c1.189 0 2.156 0.9639 2.156 2.151v8.916" style="fill:#663399"/>
 <path d="m71.77 14.06c0 2.012-1.628 3.645-3.647 3.645-2.012 0-3.65-1.633-3.65-3.645 0-2.014 1.638-3.649 3.65-3.649 2.019 0 3.647 1.635 3.647 3.649" style="fill:#663399"/>
 <path d="m7.947 14.06c0 2.012-1.631 3.645-3.647 3.645-2.015 0-3.647-1.633-3.647-3.645 0-2.014 1.632-3.649 3.647-3.649 2.015 0 3.647 1.635 3.647 3.649" style="fill:#663399"/>
</svg>
