<svg version="1.1" viewBox="0 0 62.11 75" xmlns="http://www.w3.org/2000/svg" xmlns:xlink="http://www.w3.org/1999/xlink">
 <defs>
  <linearGradient id="linearGradient4252">
   <stop style="stop-color:#aaaaaa" offset="0"/>
   <stop style="stop-color:#ededed" offset=".4703"/>
   <stop style="stop-color:#dfdfdf" offset=".7966"/>
   <stop style="stop-color:#bfbfbf" offset="1"/>
  </linearGradient>
  <linearGradient id="linearGradient26406" x1="-536.8" x2="-527.9" y1="-278.9" y2="-278.9" gradientTransform="matrix(2.953 0 0 2.953 1606 849.8)" gradientUnits="userSpaceOnUse" xlink:href="#linearGradient4252"/>
  <linearGradient id="linearGradient26414" x1="-537.3" x2="-527.8" y1="-278.9" y2="-278.9" gradientTransform="matrix(2.953 0 0 2.953 1606 849.8)" gradientUnits="userSpaceOnUse" xlink:href="#linearGradient4252"/>
  <linearGradient id="linearGradient26430" x1="-528.4" x2="-525.8" y1="-269" y2="-269" gradientTransform="matrix(2.953 0 0 2.953 1606 849.8)" gradientUnits="userSpaceOnUse" xlink:href="#linearGradient4252"/>
  <linearGradient id="linearGradient26422" x1="-535.6" x2="-523.8" y1="-285.5" y2="-285.5" gradientTransform="matrix(2.953 0 0 2.953 1606 849.8)" gradientUnits="userSpaceOnUse" xlink:href="#linearGradient4252"/>
 </defs>
 <path d="m58.01 7.031 0.0873 4.207-26.45-7.723z" style="opacity:.1;stroke-width:.5859"/>
 <path d="m50.39 68.56-4.28 0.06968 7.796-25.85z" style="opacity:.1;stroke-width:.5859"/>
 <path d="m58.01 7.031 0.0873 4.207-26.45-7.723z" style="opacity:.1;stroke-width:.5859"/>
 <path d="m34.57 13.19c-7.276 0-13.18 5.907-13.18 13.18 0 7.276 5.907 13.18 13.18 13.18s13.18-5.901 13.18-13.18c0-7.276-5.907-13.18-13.18-13.18zm0 0.5882c6.959 0 12.6 5.636 12.6 12.6 0 6.959-5.636 12.6-12.6 12.6-6.959 0-12.6-5.636-12.6-12.6 0-6.959 5.636-12.6 12.6-12.6z" style="color-rendering:auto;color:#000000;fill:url(#linearGradient26406);isolation:auto;mix-blend-mode:normal;shape-rendering:auto;solid-color:#000000"/>
 <path d="m14.04 43.53-2.687 10.05 1.35 0.3627 1.002-3.745 1.35 0.3627c0.7274 0.1953 1.352 0.2708 1.875 0.2281 0.5243-0.04728 1.008-0.1964 1.451-0.4488 0.3565-0.2033 0.6614-0.4739 0.9171-0.8103 0.2614-0.3397 0.4523-0.7313 0.5714-1.177 0.1565-0.5848 0.1793-1.097 0.06793-1.537-0.1069-0.4385-0.3202-0.8383-0.6381-1.198-0.2696-0.3038-0.602-0.5626-0.9983-0.7751-0.3951-0.217-0.8974-0.4066-1.507-0.5701zm1.043 1.51 1.337 0.3579c0.4273 0.1146 0.7706 0.2409 1.031 0.3785 0.2663 0.1342 0.4899 0.3005 0.6708 0.4986 0.2068 0.2291 0.3377 0.4882 0.3918 0.7776 0.05433 0.2894 0.03449 0.6071-0.05823 0.9535-0.07941 0.2969-0.1959 0.5526-0.3506 0.7667-0.1501 0.2152-0.3606 0.4018-0.632 0.5604-0.2702 0.1535-0.5896 0.2347-0.9571 0.2426-0.3662 0.002953-0.8216-0.06826-1.367-0.2147l-1.139-0.3069zm6.364 3.343-0.3445 1.289 0.06793 0.01698c0.4855-0.04803 0.9463-0.05956 1.383-0.03396 0.4377 0.02126 0.8245 0.07705 1.161 0.1674 0.2773 0.07441 0.5387 0.1638 0.7836 0.2681 0.245 0.1043 0.4451 0.2334 0.5992 0.3858 0.1622 0.1592 0.2672 0.347 0.3166 0.5629 0.05413 0.217 0.043 0.469-0.03397 0.7569l-0.05216 0.1953c-0.7552-0.1642-1.467-0.2978-2.136-0.4003-0.6694-0.1026-1.263-0.1143-1.781-0.03639-0.5133 0.07917-0.9432 0.2625-1.288 0.5507-0.3394 0.285-0.5848 0.7133-0.7375 1.285-0.1864 0.6973-0.1011 1.335 0.256 1.913 0.3571 0.5781 0.8783 0.9597 1.565 1.144 0.3728 0.1006 0.7078 0.1521 1.004 0.1541 0.2953 0.00708 0.5629-0.01318 0.8043-0.05944 0.2035-0.03229 0.4195-0.08981 0.6466-0.1735 0.2328-0.08681 0.4155-0.1529 0.5495-0.1989l-0.2135 0.803 1.275 0.3421 1.367-5.114c0.1299-0.4859 0.1641-0.9135 0.1019-1.282-0.06222-0.3687-0.2093-0.6951-0.4403-0.9789-0.2344-0.2896-0.5398-0.5301-0.9171-0.723-0.3714-0.1962-0.8258-0.3666-1.362-0.5107-0.4592-0.1232-0.9357-0.2087-1.43-0.2547-0.4945-0.04598-0.8758-0.06825-1.144-0.06793zm9.595 2.409c-0.4235 0.01654-0.7903 0.09586-1.101 0.239-0.3214 0.1451-0.5845 0.3372-0.7897 0.5762-0.2008 0.2403-0.3429 0.5157-0.4258 0.8261-0.1323 0.4949-0.1058 0.9507 0.08006 1.367 0.1916 0.4131 0.599 0.7975 1.22 1.152 0.2241 0.1278 0.4743 0.2573 0.7509 0.3894 0.2811 0.1334 0.507 0.2444 0.6781 0.3336 0.4621 0.2398 0.7585 0.4594 0.8904 0.6587 0.1319 0.1994 0.1582 0.4479 0.07885 0.7448-0.1035 0.3869-0.3384 0.6273-0.7048 0.7218-0.3663 0.09449-0.8313 0.06646-1.395-0.08491-0.4546-0.1221-0.9063-0.3368-1.355-0.6454-0.4474-0.313-0.8332-0.6756-1.157-1.086l-0.06793-0.01699-0.3809 1.424c0.2761 0.2429 0.6304 0.4938 1.063 0.7545 0.4379 0.2574 0.9392 0.4624 1.503 0.6138 0.9956 0.2672 1.838 0.2568 2.529-0.03033 0.6953-0.2859 1.135-0.7722 1.319-1.461 0.1468-0.5488 0.1028-1.034-0.131-1.453-0.235-0.4151-0.6317-0.7702-1.191-1.065-0.1835-0.09754-0.4152-0.2125-0.6963-0.3457-0.2765-0.132-0.5265-0.2573-0.7485-0.3748-0.4009-0.2137-0.6761-0.4245-0.8249-0.6332-0.1531-0.2099-0.1872-0.4708-0.1043-0.7812 0.09384-0.3509 0.3254-0.5699 0.6951-0.6587 0.3709-0.0933 0.7897-0.07726 1.258 0.04852 0.4501 0.1208 0.8875 0.3277 1.311 0.6199 0.425 0.2877 0.7687 0.5944 1.032 0.9207l0.06914 0.01698 0.3627-1.356c-0.267-0.2405-0.6208-0.4772-1.06-0.7109-0.4337-0.237-0.8773-0.4166-1.332-0.5386-0.4864-0.1307-0.9452-0.1861-1.374-0.1662zm-8.707 1.815c0.332-0.002559 0.7683 0.04406 1.308 0.1407 0.544 0.09783 1.014 0.188 1.411 0.2705l-0.5604 2.099h-0.001214c-0.3832 0.1574-0.7836 0.274-1.203 0.3494-0.4185 0.07086-0.8528 0.04565-1.303-0.07521-0.541-0.1453-0.9149-0.361-1.121-0.6478-0.2047-0.2912-0.249-0.6526-0.1334-1.084 0.1023-0.3824 0.296-0.6518 0.5811-0.8067 0.2863-0.16 0.6267-0.2411 1.023-0.245zm15.99 0.1407c-0.4234 0.01654-0.7903 0.09586-1.101 0.239-0.3214 0.1451-0.5845 0.3372-0.7897 0.5762-0.2008 0.2403-0.3429 0.5157-0.4258 0.8261-0.1323 0.4949-0.1058 0.9508 0.08006 1.367 0.1916 0.4131 0.599 0.7975 1.22 1.152 0.2241 0.1278 0.4744 0.2573 0.7509 0.3894 0.281 0.1334 0.507 0.2444 0.6781 0.3336 0.4621 0.2398 0.7585 0.4593 0.8904 0.6587 0.1319 0.1994 0.1582 0.4479 0.07885 0.7448-0.1034 0.3869-0.3384 0.6273-0.7048 0.7218-0.3664 0.09448-0.8313 0.06646-1.395-0.08492-0.4546-0.122-0.9063-0.3368-1.355-0.6453-0.4474-0.313-0.8332-0.6756-1.157-1.086l-0.06793-0.01698-0.3809 1.424c0.2761 0.2429 0.6305 0.4938 1.063 0.7545 0.4379 0.2574 0.9392 0.4624 1.503 0.6138 0.9956 0.2672 1.839 0.2568 2.529-0.03032 0.6953-0.2859 1.135-0.7722 1.319-1.461 0.1467-0.5489 0.1027-1.034-0.131-1.453-0.235-0.4151-0.6317-0.7702-1.191-1.065-0.1834-0.09755-0.4152-0.2124-0.6963-0.3457-0.2765-0.132-0.5265-0.2573-0.7485-0.3748-0.4009-0.2137-0.6761-0.4245-0.8249-0.6332-0.1533-0.2099-0.1874-0.4708-0.1043-0.7812 0.09384-0.3509 0.3254-0.5699 0.6951-0.6587 0.3709-0.0933 0.7897-0.07726 1.258 0.04852 0.4501 0.1208 0.8875 0.3277 1.311 0.6199 0.425 0.2877 0.7687 0.5944 1.032 0.9207l0.06914 0.01698 0.3627-1.356c-0.267-0.2405-0.6208-0.4772-1.06-0.7108-0.4337-0.237-0.8773-0.4166-1.332-0.5386-0.4864-0.1307-0.9452-0.1861-1.374-0.1662z" style="fill:#663399;stroke-width:.5891"/>
 <path d="m46.87 26.37a12.89 12.89 0 0 1-12.89 12.89 12.89 12.89 0 0 1-12.89-12.89 12.89 12.89 0 0 1 12.89-12.89 12.89 12.89 0 0 1 12.89 12.89z" style="fill:url(#linearGradient26414)"/>
 <path d="m40.9 28.22a7.159 12.89 15 0 1-10.25 10.6 7.159 12.89 15 0 1-3.58-14.3 7.159 12.89 15 0 1 10.25-10.6 7.159 12.89 15 0 1 3.58 14.3z" style="fill:none;stroke-miterlimit:10;stroke-width:2.344;stroke:#663399"/>
 <path d="m33.98 12.31c-7.751 0-14.06 6.308-14.06 14.06s6.309 14.06 14.06 14.06c7.751 0 14.06-6.309 14.06-14.06 0-6.452-4.373-11.9-10.31-13.55-0.03685-0.01073-0.07192-0.0252-0.1092-0.03518-0.01894-0.005074-0.03807-0.007278-0.05701-0.01213-1.145-0.3023-2.346-0.4658-3.585-0.4658zm1.837 2.68-2.664 9.943-4.622-1.239c0.9038-2.773 2.276-5.094 3.759-6.627 1.214-1.255 2.431-1.932 3.526-2.078zm-4.788 0.04974c-0.1411 0.1331-0.2853 0.2601-0.4221 0.4015-1.817 1.878-3.345 4.527-4.339 7.647l-3.235-0.8661c1.331-3.526 4.303-6.226 7.996-7.183zm7.053 0.5556c0.8755 0.6732 1.588 1.869 2.012 3.564 0.5182 2.07 0.5469 4.766-0.05701 7.619l-4.621-1.239zm4.112 2.415c2.162 2.125 3.505 5.08 3.505 8.359 0 0.6421-0.06499 1.268-0.1638 1.881l-3.236-0.8661c0.6988-3.2 0.7026-6.258 0.06793-8.793-0.04974-0.1987-0.114-0.3879-0.1723-0.5811zm-19.76 6.474 3.23 0.8649c-0.6972 3.197-0.7008 6.258-0.06672 8.791 0.05046 0.2016 0.1154 0.3937 0.1747 0.5895-2.162-2.123-3.503-5.08-3.503-8.36 0-0.6438 0.06579-1.27 0.165-1.885zm5.494 1.471 4.621 1.239-2.664 9.941c-0.876-0.6739-1.591-1.869-2.015-3.563-0.5177-2.068-0.5442-4.765 0.05823-7.617zm6.885 1.845 4.619 1.239c-0.9041 2.771-2.276 5.093-3.758 6.624-1.215 1.256-2.431 1.934-3.525 2.079zm6.882 1.845 3.24 0.8685c-1.332 3.526-4.306 6.226-8.003 7.181 0.1422-0.134 0.2867-0.2615 0.4246-0.4039 1.815-1.876 3.343-4.529 4.338-7.646z" style="color-rendering:auto;color:#000000;fill:#663399;isolation:auto;mix-blend-mode:normal;shape-rendering:auto;solid-color:#000000"/>
 <path d="m50.39 68.56-4.28 0.06968 7.796-25.85z" style="fill:url(#linearGradient26430);stroke-width:.5859"/>
 <path d="m53.74 36.19-4.175 32.06c-0.0176 0.1346-0.1322 0.2268-0.2768 0.2076l-3.022-0.4037-0.3114 2.324 3.028 0.4037c1.406 0.1869 2.723-0.8183 2.907-2.226l4.175-32.06z" style="color-rendering:auto;color:#000000;fill:#663399;isolation:auto;mix-blend-mode:normal;shape-rendering:auto;solid-color:#000000"/>
 <path d="m58.09 11.82 0.3926-3.014c0.1001-0.7711-0.4512-1.486-1.225-1.589l-32.33-4.301" stroke-miterlimit="10" style="fill:url(#linearGradient26422)"/>
 <path d="m25.08 1.759-0.3081 2.324 32.33 4.3c0.1435 0.01912 0.2346 0.1419 0.2171 0.2766l-0.3918 3.013 2.324 0.3021 0.3918-3.013c0.1827-1.407-0.8275-2.714-2.232-2.902z" style="color-rendering:auto;color:#000000;fill:#663399;isolation:auto;mix-blend-mode:normal;shape-rendering:auto;solid-color:#000000"/>
 <path d="m18.89 0.08393c-1.313-0.3522-2.698 0.4368-3.051 1.753l-15.76 58.93c-0.3525 1.317 0.4453 2.693 1.759 3.045l41.38 11.11c1.313 0.3519 2.693-0.4368 3.045-1.753l15.76-58.93c0.3525-1.317-0.451-2.693-1.765-3.045zm-0.6113 2.266 41.38 11.11c0.08439 0.02265 0.124 0.09774 0.1038 0.173l-15.76 58.93c-0.02028 0.07588-0.09257 0.1154-0.1788 0.09226l-41.37-11.11c-0.08436-0.02262-0.1297-0.0977-0.1096-0.173l15.76-58.93c0.02031-0.07594 0.08796-0.1151 0.173-0.09227z" style="color-rendering:auto;color:#000000;fill:#663399;isolation:auto;mix-blend-mode:normal;shape-rendering:auto;solid-color:#000000"/>
</svg>
