<?xml version="1.0" encoding="UTF-8" standalone="no"?>
<svg xmlns:dc="http://purl.org/dc/elements/1.1/" xmlns:cc="http://creativecommons.org/ns#" xmlns:rdf="http://www.w3.org/1999/02/22-rdf-syntax-ns#" xmlns:svg="http://www.w3.org/2000/svg" xmlns="http://www.w3.org/2000/svg" xmlns:xlink="http://www.w3.org/1999/xlink" xmlns:sodipodi="http://sodipodi.sourceforge.net/DTD/sodipodi-0.dtd" xmlns:inkscape="http://www.inkscape.org/namespaces/inkscape" version="1.1" id="svg370" sodipodi:docname="i13.svg" width="100" height="120.75388" inkscape:version="0.92.2 (5c3e80d, 2017-08-06)">
  <metadata id="metadata374">
    <rdf:RDF>
      <cc:Work rdf:about="">
        <dc:format>image/svg+xml</dc:format>
        <dc:type rdf:resource="http://purl.org/dc/dcmitype/StillImage" />
        <dc:title></dc:title>
      </cc:Work>
    </rdf:RDF>
  </metadata>
  <sodipodi:namedview pagecolor="#ffffff" bordercolor="#666666" borderopacity="1" objecttolerance="10" gridtolerance="10" guidetolerance="10" inkscape:pageopacity="0" inkscape:pageshadow="2" inkscape:window-width="1703" inkscape:window-height="982" id="namedview372" showgrid="false" fit-margin-top="0" fit-margin-left="0" fit-margin-right="0" fit-margin-bottom="0" inkscape:zoom="7.5994446" inkscape:cx="79.209916" inkscape:cy="81.482959" inkscape:window-x="229" inkscape:window-y="47" inkscape:window-maximized="0" inkscape:current-layer="svg370" />
  <defs id="defs4543">
    <linearGradient id="linearGradient4252" inkscape:collect="always">
      <stop id="stop4254" offset="0" style="stop-color:#aaaaaa;stop-opacity:1" />
      <stop style="stop-color:#ededed;stop-opacity:1" offset="0.47033885" id="stop4286" />
      <stop style="stop-color:#dfdfdf;stop-opacity:1" offset="0.79661" id="stop4260" />
      <stop id="stop4256" offset="1" style="stop-color:#bfbfbf;stop-opacity:1" />
    </linearGradient>
    <linearGradient gradientUnits="userSpaceOnUse" y2="-278.8877" x2="-527.86523" y1="-278.8877" x1="-536.79492" id="linearGradient26406" xlink:href="#linearGradient4252" inkscape:collect="always" gradientTransform="matrix(4.7540887,0,0,4.7540887,2586.4059,1368.3082)" />
    <linearGradient gradientUnits="userSpaceOnUse" y2="-278.88757" x2="-527.76697" y1="-278.88757" x1="-537.29028" id="linearGradient26414" xlink:href="#linearGradient4252" inkscape:collect="always" gradientTransform="matrix(4.7540887,0,0,4.7540887,2586.4059,1368.3082)" />
    <linearGradient gradientUnits="userSpaceOnUse" y2="-268.95358" x2="-525.78156" y1="-268.95358" x1="-528.42181" id="linearGradient26430" xlink:href="#linearGradient4252" inkscape:collect="always" gradientTransform="matrix(4.7540887,0,0,4.7540887,2586.4059,1368.3082)" />
    <linearGradient gradientUnits="userSpaceOnUse" y2="-285.4917" x2="-523.8291" y1="-285.4917" x1="-535.64716" id="linearGradient26422" xlink:href="#linearGradient4252" inkscape:collect="always" gradientTransform="matrix(4.7540887,0,0,4.7540887,2586.4059,1368.3082)" />
  </defs>
  <path inkscape:connector-curvature="0" id="polygon26165-4" d="M 93.39775,11.319086 93.538319,18.092842 50.943846,5.6585657 Z" style="opacity:0.1;stroke-width:0.94342011" />
  <path inkscape:connector-curvature="0" style="opacity:0.1;stroke-width:0.94342005" d="M 81.133271,110.37818 74.241602,110.49038 86.793822,68.867621 Z" id="XMLID_1500_-6" />
  <path inkscape:connector-curvature="0" id="XMLID_1499_-6" d="M 93.39775,11.319086 93.538319,18.092842 50.943846,5.6585657 Z" style="opacity:0.1;stroke-width:0.94342011" />
  <path style="color:#000000;clip-rule:nonzero;display:inline;visibility:visible;opacity:1;isolation:auto;mix-blend-mode:normal;color-interpolation:sRGB;solid-color:#000000;solid-opacity:1;fill:url(#linearGradient26406);fill-opacity:1;fill-rule:nonzero;stroke:none;stroke-width:0.94342005;stroke-linecap:butt;stroke-linejoin:miter;stroke-miterlimit:4;stroke-dasharray:none;stroke-dashoffset:0;stroke-opacity:1;color-rendering:auto;shape-rendering:auto" d="M 55.661482,21.22975 C 43.946362,21.22975 34.435237,30.740875 34.435237,42.455996 34.435237,54.171116 43.946362,63.672971 55.661482,63.672971 67.376602,63.672971 76.887775,54.171116 76.887775,42.455996 76.887775,30.740875 67.376602,21.22975 55.661482,21.22975 Z M 55.661482,22.17686 C 66.866774,22.17686 75.940665,31.250751 75.940665,42.455996 75.940665,53.661288 66.866774,62.735179 55.661482,62.735179 44.456238,62.735179 35.382346,53.661288 35.382346,42.455996 35.382346,31.250751 44.456238,22.17686 55.661482,22.17686 Z" id="XMLID_1498_-5" inkscape:connector-curvature="0" />
  <path style="fill:#663399;fill-opacity:1;stroke-width:0.94845837" d="M 22.599609 70.083984 L 18.273438 86.261719 L 20.447266 86.845703 L 22.060547 80.816406 L 24.234375 81.400391 C 25.405561 81.714795 26.411736 81.836354 27.253906 81.767578 C 28.098042 81.691449 28.877079 81.451333 29.589844 81.044922 C 30.163789 80.717651 30.654829 80.281852 31.066406 79.740234 C 31.487238 79.193324 31.79458 78.56281 31.986328 77.845703 C 32.238295 76.904045 32.275091 76.079168 32.095703 75.371094 C 31.923605 74.665016 31.580153 74.021342 31.068359 73.441406 C 30.634311 72.952242 30.099126 72.535527 29.460938 72.193359 C 28.824777 71.843903 28.01602 71.538767 27.035156 71.275391 L 22.599609 70.083984 z M 24.279297 72.515625 L 26.431641 73.091797 C 27.119685 73.276383 27.672392 73.479632 28.091797 73.701172 C 28.520489 73.917198 28.880608 74.185034 29.171875 74.503906 C 29.50482 74.872792 29.715576 75.289927 29.802734 75.755859 C 29.89021 76.22176 29.858262 76.733266 29.708984 77.291016 C 29.581131 77.769087 29.393646 78.180783 29.144531 78.525391 C 28.902802 78.871805 28.563949 79.172281 28.126953 79.427734 C 27.69189 79.674947 27.177567 79.805682 26.585938 79.818359 C 25.996303 79.823113 25.263163 79.708459 24.384766 79.472656 L 22.550781 78.978516 L 24.279297 72.515625 z M 34.525391 77.898438 L 33.970703 79.974609 L 34.080078 80.001953 C 34.861745 79.92462 35.603701 79.906064 36.306641 79.947266 C 37.01145 79.981495 37.634101 80.071322 38.175781 80.216797 C 38.622285 80.3366 39.043069 80.48046 39.4375 80.648438 C 39.832026 80.81632 40.15418 81.02422 40.402344 81.269531 C 40.663438 81.525903 40.832558 81.828289 40.912109 82.175781 C 40.999268 82.525239 40.981345 82.930976 40.857422 83.394531 L 40.773438 83.708984 C 39.557532 83.444562 38.411736 83.229578 37.333984 83.064453 C 36.256232 82.899328 35.300601 82.880351 34.466797 83.005859 C 33.640346 83.133333 32.948172 83.428452 32.392578 83.892578 C 31.846175 84.351443 31.451023 85.041021 31.205078 85.960938 C 30.904969 87.083695 31.042291 88.110324 31.617188 89.041016 C 32.192084 89.971834 33.031361 90.586157 34.136719 90.882812 C 34.736938 91.044769 35.276406 91.12769 35.753906 91.130859 C 36.229442 91.142269 36.660197 91.109638 37.048828 91.035156 C 37.37648 90.983178 37.724286 90.890558 38.089844 90.755859 C 38.46472 90.616089 38.758774 90.50971 38.974609 90.435547 L 38.630859 91.728516 L 40.683594 92.279297 L 42.884766 84.044922 C 43.093946 83.262621 43.148981 82.574096 43.048828 81.980469 C 42.948643 81.386841 42.711898 80.861323 42.339844 80.404297 C 41.9624 79.938079 41.470663 79.550835 40.863281 79.240234 C 40.265249 78.924405 39.533677 78.649969 38.669922 78.417969 C 37.930566 78.219565 37.163307 78.081976 36.367188 78.007812 C 35.571067 77.933775 34.95703 77.89793 34.525391 77.898438 z M 49.974609 81.777344 C 49.292778 81.803966 48.702095 81.931695 48.201172 82.162109 C 47.683642 82.395789 47.260129 82.704984 46.929688 83.089844 C 46.606378 83.476668 46.377572 83.920109 46.244141 84.419922 C 46.031157 85.216675 46.073856 85.950704 46.373047 86.621094 C 46.681619 87.286222 47.337409 87.905185 48.337891 88.476562 C 48.698695 88.682256 49.101607 88.890849 49.546875 89.103516 C 49.9994 89.318368 50.363251 89.497052 50.638672 89.640625 C 51.382687 90.026752 51.859916 90.380239 52.072266 90.701172 C 52.284615 91.022168 52.326945 91.422351 52.199219 91.900391 C 52.032635 92.523367 51.65434 92.910369 51.064453 93.0625 C 50.474629 93.214631 49.726041 93.169508 48.818359 92.925781 C 48.086356 92.729247 47.359086 92.383426 46.636719 91.886719 C 45.916315 91.382754 45.295119 90.798888 44.773438 90.138672 L 44.664062 90.111328 L 44.050781 92.404297 C 44.495383 92.7954 45.065847 93.199418 45.761719 93.619141 C 46.466813 94.03357 47.273959 94.363695 48.181641 94.607422 C 49.784688 95.037635 51.141766 95.020818 52.253906 94.558594 C 53.373336 94.098335 54.080615 93.315273 54.376953 92.207031 C 54.613263 91.323341 54.542413 90.542775 54.166016 89.867188 C 53.787717 89.198889 53.148884 88.627119 52.248047 88.152344 C 51.95266 87.9953 51.57951 87.810271 51.126953 87.595703 C 50.681717 87.383132 50.279256 87.1814 49.921875 86.992188 C 49.276333 86.648118 48.833356 86.308739 48.59375 85.972656 C 48.347171 85.634641 48.29235 85.214657 48.425781 84.714844 C 48.576866 84.149836 48.949678 83.797236 49.544922 83.654297 C 50.142099 83.504068 50.816346 83.529898 51.570312 83.732422 C 52.294963 83.926991 52.999334 84.260036 53.681641 84.730469 C 54.365849 85.193675 54.919337 85.6875 55.34375 86.212891 L 55.455078 86.240234 L 56.039062 84.056641 C 55.609102 83.669404 55.039503 83.288316 54.332031 82.912109 C 53.633814 82.530514 52.919503 82.241424 52.1875 82.044922 C 51.40428 81.834474 50.665695 81.745332 49.974609 81.777344 z M 35.955078 84.699219 C 36.489628 84.695099 37.19207 84.770165 38.060547 84.925781 C 38.936377 85.0833 39.692892 85.22853 40.332031 85.361328 L 39.429688 88.740234 L 39.427734 88.740234 C 38.81078 88.993722 38.166012 89.181347 37.490234 89.302734 C 36.816358 89.416832 36.117228 89.376241 35.392578 89.181641 C 34.521502 88.947771 33.919473 88.600357 33.587891 88.138672 C 33.258274 87.669792 33.187004 87.087975 33.373047 86.392578 C 33.537697 85.776892 33.849634 85.343181 34.308594 85.09375 C 34.769486 84.836079 35.317618 84.705557 35.955078 84.699219 z M 61.701172 84.925781 C 61.019404 84.952405 60.42872 85.080132 59.927734 85.310547 C 59.410204 85.544226 58.986691 85.853422 58.65625 86.238281 C 58.33294 86.625106 58.104134 87.068578 57.970703 87.568359 C 57.75772 88.365145 57.800419 89.099141 58.099609 89.769531 C 58.408181 90.43466 59.063971 91.053622 60.064453 91.625 C 60.425288 91.830693 60.828201 92.039287 61.273438 92.251953 C 61.725932 92.466806 62.089814 92.645489 62.365234 92.789062 C 63.109281 93.175158 63.586479 93.528645 63.798828 93.849609 C 64.011177 94.170573 64.053508 94.570757 63.925781 95.048828 C 63.75923 95.671804 63.380871 96.058807 62.791016 96.210938 C 62.201128 96.363068 61.452605 96.317945 60.544922 96.074219 C 59.812951 95.877716 59.085649 95.531863 58.363281 95.035156 C 57.642911 94.531191 57.021714 93.947325 56.5 93.287109 L 56.390625 93.259766 L 55.777344 95.552734 C 56.221946 95.943838 56.792441 96.347856 57.488281 96.767578 C 58.193376 97.18204 59.000489 97.512133 59.908203 97.755859 C 61.51125 98.186073 62.868361 98.169255 63.980469 97.707031 C 65.099898 97.246772 65.807178 96.46371 66.103516 95.355469 C 66.339794 94.471747 66.268943 93.691149 65.892578 93.015625 C 65.514248 92.347295 64.875414 91.775525 63.974609 91.300781 C 63.679253 91.143706 63.306105 90.958708 62.853516 90.744141 C 62.40828 90.531601 62.00585 90.329838 61.648438 90.140625 C 61.002928 89.796492 60.559919 89.457144 60.320312 89.121094 C 60.073417 88.783078 60.018595 88.363095 60.152344 87.863281 C 60.303428 87.298274 60.676272 86.945674 61.271484 86.802734 C 61.868693 86.652505 62.542908 86.678335 63.296875 86.880859 C 64.021525 87.075428 64.725896 87.408473 65.408203 87.878906 C 66.092444 88.342113 66.645931 88.835938 67.070312 89.361328 L 67.181641 89.388672 L 67.765625 87.205078 C 67.335665 86.817842 66.766066 86.436754 66.058594 86.060547 C 65.360377 85.678952 64.646066 85.389861 63.914062 85.193359 C 63.130842 84.982911 62.392258 84.893771 61.701172 84.925781 z " id="path128552-5" />
  <path inkscape:connector-curvature="0" id="XMLID_1495_-4" d="M 75.468109,42.451955 A 20.750526,20.750526 0 0 1 54.717558,63.202459 20.750526,20.750526 0 0 1 33.967054,42.451955 20.750526,20.750526 0 0 1 54.717558,21.701404 20.750526,20.750526 0 0 1 75.468109,42.451955 Z" style="fill:url(#linearGradient26414);fill-opacity:1;stroke:none;stroke-width:3.77368021;stroke-miterlimit:10;stroke-opacity:1" />
  <path inkscape:connector-curvature="0" id="XMLID_1494_-5" d="M 65.85093,45.432615 A 11.527306,20.749905 14.999329 0 1 49.346102,62.492212 11.527306,20.749905 14.999329 0 1 43.581807,39.465901 11.527306,20.749905 14.999329 0 1 60.086576,22.406339 11.527306,20.749905 14.999329 0 1 65.85093,45.432615 Z" style="fill:none;stroke:#663399;stroke-width:3.77356768;stroke-miterlimit:10;stroke-opacity:1" />
  <path style="color:#000000;clip-rule:nonzero;display:inline;visibility:visible;opacity:1;isolation:auto;mix-blend-mode:normal;color-interpolation:sRGB;solid-color:#000000;solid-opacity:1;fill:#663399;fill-opacity:1;fill-rule:nonzero;stroke:none;stroke-width:3.77368021;stroke-linecap:butt;stroke-linejoin:miter;stroke-miterlimit:10;stroke-dasharray:none;stroke-dashoffset:0;stroke-opacity:1;color-rendering:auto;shape-rendering:auto" d="M 54.714844 19.818359 C 42.234934 19.818359 32.076172 29.975167 32.076172 42.455078 C 32.076172 54.934989 42.234934 65.09375 54.714844 65.09375 C 67.194803 65.09375 77.351562 54.934989 77.351562 42.455078 C 77.351562 32.066603 70.311331 23.295353 60.753906 20.644531 C 60.694576 20.627247 60.638109 20.603962 60.578125 20.587891 C 60.547634 20.579721 60.516831 20.576173 60.486328 20.568359 C 58.642765 20.081646 56.708952 19.818359 54.714844 19.818359 z M 57.671875 24.132812 L 53.382812 40.142578 L 45.941406 38.148438 C 47.396558 33.683878 49.605683 29.947237 51.994141 27.478516 C 53.949087 25.457874 55.907791 24.367278 57.671875 24.132812 z M 49.962891 24.212891 C 49.735688 24.427116 49.503475 24.631699 49.283203 24.859375 C 46.357941 27.883004 43.898263 32.14892 42.296875 37.171875 L 37.087891 35.777344 C 39.230453 30.100809 44.01547 25.752725 49.962891 24.212891 z M 61.318359 25.107422 C 62.727975 26.191253 63.875233 28.115974 64.558594 30.845703 C 65.39287 34.178312 65.439142 38.518672 64.466797 43.113281 L 57.027344 41.119141 L 61.318359 25.107422 z M 67.939453 28.996094 C 71.420643 32.41673 73.582031 37.174979 73.582031 42.455078 C 73.582031 43.4889 73.477392 44.496423 73.318359 45.484375 L 68.107422 44.089844 C 69.232545 38.938115 69.23863 34.013487 68.216797 29.931641 C 68.136717 29.611764 68.033239 29.307056 67.939453 28.996094 z M 36.121094 39.419922 L 41.322266 40.8125 C 40.199773 45.960726 40.193924 50.888603 41.214844 54.966797 C 41.296084 55.291334 41.400659 55.60064 41.496094 55.916016 C 38.014948 52.497455 35.855469 47.737188 35.855469 42.455078 C 35.855469 41.418502 35.961393 40.410532 36.121094 39.419922 z M 44.966797 41.789062 L 52.40625 43.783203 L 48.117188 59.789062 C 46.706819 58.703951 45.555755 56.779855 44.873047 54.052734 C 44.039567 50.723306 43.996891 46.380444 44.966797 41.789062 z M 56.052734 44.759766 L 63.490234 46.753906 C 62.034623 51.214989 59.825848 54.953333 57.439453 57.419922 C 55.483306 59.44184 53.526031 60.533379 51.763672 60.767578 L 56.052734 44.759766 z M 67.132812 47.730469 L 72.349609 49.128906 C 70.205633 54.806292 65.41632 59.153164 59.464844 60.691406 C 59.693723 60.475661 59.926513 60.270396 60.148438 60.041016 C 63.071366 57.019798 65.53093 52.749719 67.132812 47.730469 z " id="XMLID_1493_-5" />
  <path id="path26163-7" d="M 81.133271,110.37818 74.241602,110.49038 86.793822,68.867621 Z" style="opacity:1;fill:url(#linearGradient26430);fill-opacity:1;stroke-width:0.94342005" inkscape:connector-curvature="0" />
  <path inkscape:connector-curvature="0" id="XMLID_1490_-9" d="M 86.525929,58.259633 79.803362,109.87677 C 79.775028,110.09341 79.590474,110.24198 79.357667,110.21103 L 74.492142,109.5611 73.990728,113.30304 78.865523,113.95302 C 81.128993,114.25391 83.249031,112.63543 83.545353,110.36891 L 90.26792,58.742458 Z" style="color:#000000;clip-rule:nonzero;display:inline;visibility:visible;opacity:1;isolation:auto;mix-blend-mode:normal;color-interpolation:sRGB;solid-color:#000000;solid-opacity:1;fill:#663399;fill-opacity:1;fill-rule:nonzero;stroke:none;stroke-width:3.77368021;stroke-linecap:butt;stroke-linejoin:miter;stroke-miterlimit:10;stroke-dasharray:none;stroke-dashoffset:0;stroke-opacity:1;color-rendering:auto;shape-rendering:auto" />
  <path d="M 93.538305,19.036261 94.170409,14.184239 C 94.331572,12.942708 93.443984,11.791743 92.197747,11.625683 L 40.140714,4.7009726" stroke-miterlimit="10" id="XMLID_1491_-8" inkscape:connector-curvature="0" style="fill:url(#linearGradient26422);fill-opacity:1;stroke:none;stroke-width:3.77368021;stroke-miterlimit:10;stroke-opacity:1" />
  <path style="color:#000000;clip-rule:nonzero;display:inline;visibility:visible;opacity:1;isolation:auto;mix-blend-mode:normal;color-interpolation:sRGB;solid-color:#000000;solid-opacity:1;fill:#663399;fill-opacity:1;fill-rule:nonzero;stroke:none;stroke-width:3.77368021;stroke-linecap:butt;stroke-linejoin:miter;stroke-miterlimit:10;stroke-dasharray:none;stroke-dashoffset:0;stroke-opacity:1;color-rendering:auto;shape-rendering:auto" d="M 40.388672,2.8300781 39.892578,6.5722656 91.949219,13.496094 C 92.180259,13.52688 92.326981,13.724529 92.298828,13.941406 L 91.667969,18.792969 95.410156,19.279297 96.041016,14.427734 C 96.335189,12.16155 94.708699,10.057193 92.447266,9.7558594 Z" id="path4563" inkscape:connector-curvature="0" />
  <path inkscape:connector-curvature="0" id="XMLID_1489_-8" d="M 30.414704,0.13348187 C 28.300656,-0.43358583 26.06999,0.83680175 25.502732,2.956222 L 0.13519975,97.833713 C -0.4323909,99.954131 0.85211633,102.16901 2.9672579,102.73637 L 69.589488,120.61992 C 71.703584,121.18646 73.924884,119.91655 74.492142,117.79718 L 99.868945,22.919686 C 100.43649,20.799315 99.142805,18.584338 97.027616,18.017032 Z M 29.430417,3.7826253 96.052695,21.666128 C 96.188567,21.702592 96.252272,21.823489 96.219801,21.944718 L 70.852269,116.82221 C 70.819609,116.94439 70.703228,117.00795 70.564457,116.97077 L 3.9514969,99.087223 C 3.8156726,99.050807 3.7426023,98.929911 3.7750727,98.808681 L 29.151875,3.9311905 C 29.184583,3.8089154 29.2935,3.7458762 29.430417,3.7826253 Z" style="color:#000000;clip-rule:nonzero;display:inline;visibility:visible;opacity:1;isolation:auto;mix-blend-mode:normal;color-interpolation:sRGB;solid-color:#000000;solid-opacity:1;fill:#663399;fill-opacity:1;fill-rule:nonzero;stroke:none;stroke-width:3.77368021;stroke-linecap:butt;stroke-linejoin:miter;stroke-miterlimit:10;stroke-dasharray:none;stroke-dashoffset:0;stroke-opacity:1;color-rendering:auto;shape-rendering:auto" />
</svg>
