<svg version="1.1" viewBox="0 0 75 75" xmlns="http://www.w3.org/2000/svg">
 <path d="m75 37.5c0 20.71-16.79 37.5-37.5 37.5-20.71 0-37.5-16.79-37.5-37.5 0-20.71 16.79-37.5 37.5-37.5 20.71 0 37.5 16.79 37.5 37.5" style="fill:#8d198f"/>
 <path d="m41.11 74.83c-0.1171-0.1168-0.2359-0.2318-0.3509-0.3509-0.2101-0.2028-0.4164-0.4088-0.6189-0.6189-0.2101-0.2028-0.4164-0.4091-0.6192-0.6192-0.2101-0.2024-0.4164-0.409-0.6192-0.6192-0.2101-0.2024-0.4161-0.4088-0.6189-0.6188-0.2101-0.2026-0.4161-0.4088-0.6189-0.619-0.2101-0.2024-0.4164-0.4088-0.6189-0.619-0.2101-0.2028-0.4164-0.409-0.6192-0.6188-0.2098-0.2028-0.4161-0.4092-0.6185-0.6189-0.2101-0.2028-0.4168-0.4091-0.6192-0.6195-0.2101-0.2025-0.4164-0.4088-0.6189-0.6189-0.2105-0.2024-0.4164-0.4088-0.6192-0.619-0.2101-0.2024-0.4161-0.4087-0.6189-0.6188-0.2101-0.2024-0.4164-0.4088-0.6189-0.619-0.2101-0.2028-0.4164-0.4088-0.6189-0.6188-0.2101-0.2028-0.4168-0.4092-0.6192-0.6197-0.2101-0.2024-0.4164-0.4088-0.6189-0.6189-0.2101-0.2025-0.4164-0.4088-0.6192-0.6189-0.2101-0.2025-0.4161-0.4088-0.6189-0.6189-0.2101-0.2025-0.4164-0.4088-0.6189-0.6189-0.2101-0.2028-0.4164-0.4088-0.6189-0.6189-0.2101-0.2028-0.4164-0.4091-0.6192-0.6192-0.2101-0.2025-0.4164-0.4088-0.6192-0.6192-0.2101-0.2025-0.4161-0.4088-0.6185-0.6189-0.2105-0.2025-0.4164-0.4088-0.6192-0.6189-0.2101-0.2025-0.4164-0.4088-0.6189-0.6189-0.2101-0.2028-0.4164-0.4091-0.6192-0.6192-0.2098-0.2025-0.4161-0.4088-0.6185-0.6185-0.2101-0.2028-0.4168-0.4091-0.6192-0.6196-0.2105-0.2025-0.4164-0.4088-0.6189-0.6189-0.2105-0.2025-0.4164-0.4088-0.6192-0.6189-0.2101-0.2025-0.4161-0.4088-0.6189-0.6189-0.2101-0.2025-0.4164-0.4088-0.6189-0.6189-4.504-4.343-7.314-10.43-7.314-17.17 0-5.478 1.86-10.53 4.98-14.56 0.8231-1.064 1.735-2.061 2.726-2.976 4.251-3.92 9.93-6.321 16.16-6.321 6.173 0 11.81 2.358 16.05 6.22 0.3791 0.3412 0.7388 0.7008 1.093 1.064l0.0115 0.0122c0.2063 0.199 0.4091 0.4011 0.6077 0.6067l0.0115 0.0122c0.2059 0.199 0.4088 0.4011 0.6074 0.6067l0.0115 0.01254c0.2059 0.199 0.4091 0.4007 0.6074 0.6067l0.0115 0.01185c0.2059 0.1993 0.4091 0.4011 0.6077 0.607l0.01115 0.0122c0.2059 0.199 0.4091 0.4007 0.6077 0.6067l0.0115 0.0122c0.2059 0.1993 0.4091 0.4011 0.6074 0.6067l0.0115 0.0122c0.2059 0.1993 0.4091 0.4011 0.6074 0.607l0.01185 0.0122c0.2059 0.199 0.4088 0.4011 0.6074 0.6067l0.0115 0.0122c0.2059 0.1993 0.4088 0.4011 0.6074 0.607l0.0115 0.01185c0.2059 0.1993 0.4091 0.4011 0.6077 0.607l0.01115 0.01185c0.2059 0.1993 0.4091 0.4011 0.6077 0.607l0.0115 0.0122c0.2059 0.1993 0.4088 0.4011 0.6074 0.6067l0.0115 0.0122c0.2059 0.1993 0.4091 0.4011 0.6074 0.607l0.01185 0.0122c0.2059 0.199 0.4088 0.4011 0.6074 0.6067l0.0115 0.0122c0.2059 0.1993 0.4088 0.4011 0.6074 0.6067l0.01185 0.01254c0.2056 0.199 0.4088 0.4007 0.607 0.6067l0.0115 0.01185c0.2059 0.1993 0.4091 0.4011 0.6077 0.607l0.01115 0.01185c0.2059 0.1993 0.4091 0.4014 0.6077 0.607l0.0115 0.0122c0.2059 0.1993 0.4088 0.4011 0.6074 0.607l0.0115 0.0122c0.2063 0.199 0.4091 0.4011 0.6077 0.6067l0.0115 0.0122c0.2059 0.199 0.4088 0.4011 0.6074 0.6067l0.01185 0.01254c0.2056 0.199 0.4088 0.4007 0.607 0.6067l0.0115 0.01185c0.2059 0.1993 0.4091 0.4011 0.6077 0.607l0.01115 0.01185c0.2059 0.1993 0.4091 0.4014 0.6077 0.607l0.0115 0.0122c0.2059 0.1993 0.4088 0.4011 0.6074 0.607l0.0115 0.0122c0.2059 0.199 0.4091 0.4007 0.6074 0.6067l0.01185 0.0122c0.2059 0.199 0.4088 0.4011 0.6074 0.6067l0.0115 0.0122c0.2059 0.1993 0.4088 0.4011 0.6074 0.607l0.0115 0.01185c0.2059 0.1993 0.4091 0.4011 0.6074 0.607l0.0115 0.01185c0.2059 0.1993 0.4091 0.4011 0.6077 0.607l0.0115 0.0122c0.2059 0.199 0.4088 0.4011 0.6074 0.6067l0.0115 0.0122c0.2059 0.1993 0.4091 0.4011 0.6074 0.607l0.01185 0.0122c0.1234 0.1192 0.2429 0.2418 0.3638 0.3635-1.702 17.83-15.89 32.02-33.72 33.72" style="fill:#5d2591"/>
 <path d="m48.41 24.25 0.04774 0.3544-0.5325 0.1105-0.07109 0.7534h0.6367l0.8492-0.08224 0.4356-0.5178-0.4652-0.1816-0.254-0.292-0.3826-0.6182-0.1829-0.8726-0.7189 0.1436-0.2011 0.3115v0.345l0.3446 0.2342 0.4945 0.3119" style="fill:#fdfeff"/>
 <path d="m47.8 24.55 0.03798-0.475-0.422-0.1826-0.5889 0.1349-0.437 0.7043v0.4502h0.5081l0.9019-0.6318" style="fill:#fdfeff"/>
 <path d="m35.68 26.55-0.13 0.3314h-0.6269v0.3251h0.1485s0.008711 0.06726 0.01847 0.1582l0.3889-0.0331 0.2394-0.1484 0.06238-0.3018 0.3115-0.02474 0.1192-0.254-0.2823-0.0575-0.2492 0.004878" style="fill:#fdfeff"/>
 <path d="m34.06 27.14-0.02335 0.3216 0.4551-0.03938 0.04774-0.3202-0.2736-0.2157-0.2059 0.2537" style="fill:#fdfeff"/>
 <path d="m58.74 32.54 0.07109-0.07632c0.02927 0.1192 0.0575 0.2443 0.08712 0.3732zm-28.02-5.66 0.2011-0.2063 0.3352 0.2063-0.2676 0.2206zm0.6415 0.5837v0.4272h-0.6945l-0.1913-0.2774v-0.3938h0.05785zm-2.962-0.7224h0.7241l-0.9252 1.298-0.383-0.2063 0.0812-0.5461zm1.735 0.8722v0.4258l-0.3119 0.3115h-0.699l0.1101-0.475 0.3304-0.02823 0.06726-0.1631zm-0.2063-1.05v-0.5178l0.4516 0.4074zm0.3694 0.1781v0.4356l-0.3265 0.2108-0.4109 0.07597v-0.7224zm-0.5987-0.6283v0.4502h-1.313l-0.4896-0.1338 0.1251-0.3164 0.6269-0.2589h0.8586v0.2589zm-3.044-1.639 0.5705-0.2736 0.5178 0.1251-0.1767 0.6945-0.5607 0.1781zm31.73 6.964h-1.744l-1.064-0.7914-1.121 0.1056v0.6858h-0.3558l-0.3826-0.2736-1.936-0.4931v-1.257l-2.459 0.1927-0.7618 0.4112h-0.9778l-0.4798-0.05297-1.184 0.6624v1.236l-2.419 1.744 0.2011 0.7485h0.4934l-0.1289 0.7091-0.3446 0.1289-0.01986 1.855 2.089 2.386h0.9154l0.05262-0.1484h1.639l0.4697-0.4356h0.9301l0.5081 0.5077 1.385 0.1484-0.1826 1.836 1.539 2.713-0.8099 1.548 0.05262 0.7276 0.637 0.6332v1.754l0.8342 1.121v1.456h0.7238c-4.015 4.937-10.14 8.1-16.98 8.1-12.08 0-21.9-9.825-21.9-21.9 0-3.038 0.6219-5.938 1.743-8.569v-0.6858l0.7865-0.9482c0.2736-0.513 0.5607-1.016 0.8722-1.505l0.03833 0.3973-0.9106 1.108c-0.2823 0.5311-0.5457 1.073-0.7813 1.634v1.245l0.9064 0.4366v1.735l0.8726 1.486 0.714 0.1105 0.0906-0.5081-0.8391-1.294-0.1631-1.255h0.4896l0.2059 1.293 1.212 1.764-0.3168 0.5705 0.7719 1.179 1.913 0.4687v-0.3067l0.7618 0.1105-0.07248 0.5422 0.6036 0.1094 0.9252 0.2537 1.309 1.496 1.677 0.1251 0.1631 1.366-1.146 0.7997-0.05262 1.218-0.168 0.7475 1.659 2.074 0.13 0.7105s0.5987 0.1617 0.6698 0.1617c0.07248 0 1.347 0.9632 1.347 0.9632v3.753l0.4551 0.1251-0.3115 1.73 0.7666 1.021-0.1387 1.71 1.006 1.779 1.299 1.13 1.303 0.02474 0.1251-0.4171-0.9534-0.8099 0.05297-0.3976 0.1718-0.4945 0.03415-0.498-0.6478-0.01847-0.3251-0.4074 0.5363-0.5227 0.07248-0.3889-0.6001-0.1718 0.0345-0.3642 0.8576-0.13 1.303-0.622 0.4366-0.8011 1.366-1.75-0.3119-1.366 0.4171-0.7287 1.257 0.03938 0.8475-0.6663 0.2739-2.637 0.9336-1.192 0.168-0.7632-0.8576-0.2774-0.5656-0.9252-1.926-0.01952-1.529-0.5792-0.07248-1.093-0.513-0.8907-1.38-0.01952-0.8001-1.256-0.7102-0.3499-0.03833 0.384-1.289 0.07632-0.4736-0.6565-1.347-0.2722-1.111 1.278-1.745-0.292-0.13-1.969-1.275-0.2206 0.513-0.9632-0.1488-0.5558-1.672 1.121-1.054-0.13-0.3739-0.8245 0.2255-0.8478 0.584-1.074 1.337-0.676h2.583l-0.008712 0.7865 0.929 0.4356-0.07144-1.346 0.6663-0.676 1.351-0.8872 0.09583-0.6231 1.347-1.404 1.428-0.7914-0.1241-0.1056 0.9681-0.9102 0.3547 0.092 0.1631 0.2049 0.368-0.4074 0.092-0.04286-0.4035-0.05785-0.4112-0.1335v-0.3927l0.2199-0.1777h0.4746l0.2209 0.09548 0.1913 0.384 0.2296-0.03798v-0.03415l0.06726 0.02439 0.6712-0.1007 0.09583-0.331 0.384 0.09548v0.3596l-0.3558 0.2453 0.05262 0.3879 1.213 0.3739 0.004878 0.01359 0.2774-0.02335 0.01951-0.5276-0.9632-0.4356-0.05262-0.2537 0.7997-0.2739 0.03345-0.7666-0.8381-0.5081-0.05262-1.289-1.146 0.5607h-0.4171l0.1056-0.9827-1.557-0.368-0.6478 0.4882v1.491l-1.159 0.3642-0.4649 0.9729-0.5081 0.08119v-1.242l-1.088-0.1533-0.5457-0.3547-0.2209-0.805 1.951-1.141 0.9593-0.292 0.09583 0.6429 0.5311-0.02439 0.03798-0.3265 0.5572-0.07597 0.008364-0.1153-0.2391-0.1007-0.05297-0.3398 0.6858-0.0575 0.4122-0.4321 0.02335-0.02823h0.004878l0.1251-0.13 1.438-0.1816 0.6367 0.5412-1.667 0.8869 2.118 0.5032 0.2784-0.7091h0.9252l0.33-0.6185-0.6565-0.168v-0.7802l-2.056-0.9106-1.418 0.162-0.8001 0.422 0.05297 1.016-0.8395-0.1237-0.1286-0.5656 0.8046-0.729-1.457-0.07213-0.4161 0.13-0.1826 0.4882 0.5457 0.092-0.1091 0.5461-0.9301 0.0575-0.1436 0.3596-1.347 0.03798s-0.03345-0.7618-0.09095-0.7618c-0.05262 0 1.054-0.01986 1.054-0.01986l0.805-0.7851-0.4405-0.2161-0.5802 0.5659-0.9681-0.05785-0.5792-0.8001h-1.237l-1.294 0.9632h1.184l0.1105 0.3499-0.3067 0.2819 1.308 0.03938 0.2011 0.4736-1.476-0.0575-0.07109-0.3631-0.9252-0.2025-0.4945-0.2725-1.102 0.009758c3.613-2.632 8.056-4.189 12.86-4.189 5.541 0 10.6 2.07 14.46 5.468l-0.2589 0.4638-1.011 0.3987-0.4258 0.4603 0.09583 0.5408 0.5213 0.07248 0.3168 0.7851 0.8966-0.3642 0.1484 1.05h-0.2687l-0.7374-0.1101-0.8196 0.1383-0.791 1.121-1.136 0.1781-0.1631 0.9681 0.4798 0.1153-0.1387 0.6231-1.126-0.2258-1.031 0.2258-0.2157 0.5694 0.1777 1.209 0.6036 0.2819 1.016-0.004879 0.6858-0.06133 0.2098-0.5471 1.075-1.39 0.7043 0.1446 0.6942-0.628 0.1303 0.4882 1.71 1.156-0.2112 0.277-0.7715-0.03798 0.2979 0.4171 0.4736 0.1056 0.5558-0.2307-0.008712-0.6712 0.2443-0.1237-0.1962-0.2112-1.141-0.6332-0.3018-0.8475h0.9485l0.3018 0.3018 0.8196 0.7043 0.03415 0.8489 0.843 0.9005 0.3164-1.232 0.5854-0.3213 0.1091 1.012 0.5753 0.6269 1.141-0.01847c0.2206 0.5656 0.4171 1.145 0.5889 1.735zm-32.99-9.475s0.475-0.08119 0.5178-0.08119c0.03798 0 0 0.4785 0 0.4785l-1.079 0.0676-0.2059-0.2443zm-0.7666-1.064v-0.03798h0.4795l0.03798-0.1634h0.7855v0.3401l-0.2248 0.2969h-1.078zm28.78 2.65 0.004879-1.069c0.3729 0.3976 0.7374 0.8099 1.083 1.232l-0.4318 0.6415-1.501-0.01324-0.09548-0.3119zm3.45 4.165 0.1397-0.1586c0.1816 0.3547 0.3499 0.7144 0.513 1.074l-0.2258-0.004879-0.4269 0.05785zm4.491 9.536c-0.004878-0.699-0.04391-1.395-0.1105-2.074-0.2206-2.272-0.7618-4.452-1.576-6.499-0.06238-0.1485-0.1202-0.3067-0.1826-0.4551-1.083-2.564-2.612-4.899-4.476-6.916-0.1202-0.13-0.2453-0.2589-0.3694-0.3889-0.3544-0.3631-0.714-0.7227-1.093-1.064-4.241-3.862-9.877-6.22-16.05-6.22-6.225 0-11.9 2.401-16.16 6.321-0.9914 0.9151-1.903 1.913-2.726 2.976-3.12 4.035-4.98 9.086-4.98 14.56 0 13.16 10.71 23.86 23.86 23.86 9.259 0 17.29-5.3 21.25-13.02 0.8426-1.649 1.504-3.407 1.944-5.252 0.1153-0.4701 0.2112-0.9398 0.2983-1.418 0.2391-1.352 0.368-2.747 0.368-4.17 0-0.08085-0.003834-0.1631-0.003834-0.2443" style="fill:#fdfeff"/>
 <path d="m17.35 28.25v0.6858c0.2408-0.5607 0.5042-1.103 0.7865-1.634l-0.7865 0.9482" style="fill:#fdfeff"/>
</svg>
