<?xml version="1.0" encoding="UTF-8" standalone="no"?>
<svg
   xmlns:dc="http://purl.org/dc/elements/1.1/"
   xmlns:cc="http://creativecommons.org/ns#"
   xmlns:rdf="http://www.w3.org/1999/02/22-rdf-syntax-ns#"
   xmlns:svg="http://www.w3.org/2000/svg"
   xmlns="http://www.w3.org/2000/svg"
   xmlns:sodipodi="http://sodipodi.sourceforge.net/DTD/sodipodi-0.dtd"
   xmlns:inkscape="http://www.inkscape.org/namespaces/inkscape"
   version="1.1"
   id="svg361"
   sodipodi:docname="i14.svg"
   inkscape:version="0.92.2 (5c3e80d, 2017-08-06)">
  <metadata
     id="metadata365">
    <rdf:RDF>
      <cc:Work
         rdf:about="">
        <dc:format>image/svg+xml</dc:format>
        <dc:type
           rdf:resource="http://purl.org/dc/dcmitype/StillImage" />
        <dc:title></dc:title>
      </cc:Work>
    </rdf:RDF>
  </metadata>
  <sodipodi:namedview
     pagecolor="#ffffff"
     bordercolor="#666666"
     borderopacity="1"
     objecttolerance="10"
     gridtolerance="10"
     guidetolerance="10"
     inkscape:pageopacity="0"
     inkscape:pageshadow="2"
     inkscape:window-width="1034"
     inkscape:window-height="480"
     id="namedview363"
     showgrid="false"
     fit-margin-top="0"
     fit-margin-left="0"
     fit-margin-right="0"
     fit-margin-bottom="0"
     inkscape:zoom="3.1466638"
     inkscape:cx="43.220366"
     inkscape:cy="37.500001"
     inkscape:window-x="0"
     inkscape:window-y="0"
     inkscape:window-maximized="0"
     inkscape:current-layer="svg361" />
  <defs
     id="defs4543" />
  <g
     transform="matrix(0.0464632,0,0,-0.0464632,-24.17011,132.71563)"
     id="purple-white-line-earth"
     style="display:inline"
     inkscape:label="purple-white-line-earth">
    <path
       inkscape:connector-curvature="0"
       id="path4645"
       style="fill:#8d198f;fill-opacity:1;fill-rule:nonzero;stroke:none"
       d="m 2672.44,1780.24 c 0,-594.32 -481.79,-1076.119 -1076.12,-1076.119 -594.32,0 -1076.121,481.799 -1076.121,1076.119 0,594.33 481.801,1076.12 1076.121,1076.12 594.33,0 1076.12,-481.79 1076.12,-1076.12" />
    <path
       inkscape:connector-curvature="0"
       id="path4647"
       style="fill:#5d2591;fill-opacity:1;fill-rule:nonzero;stroke:none"
       d="m 1699.94,709.109 c -3.36,3.352 -6.77,6.653 -10.07,10.071 -6.03,5.82 -11.95,11.73 -17.76,17.761 -6.03,5.821 -11.95,11.739 -17.77,17.77 -6.03,5.809 -11.95,11.738 -17.77,17.769 -6.03,5.809 -11.94,11.731 -17.76,17.758 -6.03,5.813 -11.94,11.731 -17.76,17.762 -6.03,5.809 -11.95,11.73 -17.76,17.762 -6.03,5.82 -11.95,11.738 -17.77,17.758 -6.02,5.82 -11.94,11.742 -17.75,17.761 -6.03,5.821 -11.96,11.739 -17.77,17.778 -6.03,5.812 -11.95,11.73 -17.76,17.761 -6.04,5.809 -11.95,11.731 -17.77,17.762 -6.03,5.809 -11.94,11.727 -17.76,17.758 -6.03,5.808 -11.95,11.73 -17.76,17.762 -6.03,5.82 -11.95,11.73 -17.76,17.757 -6.03,5.821 -11.96,11.743 -17.77,17.782 -6.03,5.808 -11.95,11.73 -17.76,17.759 -6.03,5.81 -11.95,11.73 -17.77,17.76 -6.03,5.81 -11.94,11.73 -17.76,17.76 -6.03,5.81 -11.95,11.73 -17.76,17.76 -6.03,5.82 -11.95,11.73 -17.76,17.76 -6.03,5.82 -11.95,11.74 -17.77,17.77 -6.03,5.81 -11.95,11.73 -17.77,17.77 -6.03,5.81 -11.94,11.73 -17.75,17.76 -6.04,5.81 -11.95,11.73 -17.77,17.76 -6.03,5.81 -11.95,11.73 -17.76,17.76 -6.03,5.82 -11.95,11.74 -17.77,17.77 -6.02,5.81 -11.94,11.73 -17.75,17.75 -6.03,5.82 -11.96,11.74 -17.77,17.78 -6.04,5.81 -11.95,11.73 -17.76,17.76 -6.04,5.81 -11.95,11.73 -17.77,17.76 -6.03,5.81 -11.94,11.73 -17.76,17.76 -6.03,5.81 -11.95,11.73 -17.76,17.76 -129.235,124.62 -209.876,299.31 -209.876,492.64 0,157.2 53.375,302.15 142.906,417.95 23.62,30.52 49.78,59.15 78.23,85.41 121.99,112.49 284.97,181.39 463.61,181.39 177.13,0 338.87,-67.67 460.58,-178.5 10.88,-9.79 21.2,-20.11 31.37,-30.53 l 0.33,-0.35 c 5.92,-5.71 11.74,-11.51 17.44,-17.41 l 0.33,-0.35 c 5.91,-5.71 11.73,-11.51 17.43,-17.41 l 0.33,-0.36 c 5.91,-5.71 11.74,-11.5 17.43,-17.41 l 0.33,-0.34 c 5.91,-5.72 11.74,-11.51 17.44,-17.42 l 0.32,-0.35 c 5.91,-5.71 11.74,-11.5 17.44,-17.41 l 0.33,-0.35 c 5.91,-5.72 11.74,-11.51 17.43,-17.41 l 0.33,-0.35 c 5.91,-5.72 11.74,-11.51 17.43,-17.42 l 0.34,-0.35 c 5.91,-5.71 11.73,-11.51 17.43,-17.41 l 0.33,-0.35 c 5.91,-5.72 11.73,-11.51 17.43,-17.42 l 0.33,-0.34 c 5.91,-5.72 11.74,-11.51 17.44,-17.42 l 0.32,-0.34 c 5.91,-5.72 11.74,-11.51 17.44,-17.42 l 0.33,-0.35 c 5.91,-5.72 11.73,-11.51 17.43,-17.41 l 0.33,-0.35 c 5.91,-5.72 11.74,-11.51 17.43,-17.42 l 0.34,-0.35 c 5.91,-5.71 11.73,-11.51 17.43,-17.41 l 0.33,-0.35 c 5.91,-5.72 11.73,-11.51 17.43,-17.41 l 0.34,-0.36 c 5.9,-5.71 11.73,-11.5 17.42,-17.41 l 0.33,-0.34 c 5.91,-5.72 11.74,-11.51 17.44,-17.42 l 0.32,-0.34 c 5.91,-5.72 11.74,-11.52 17.44,-17.42 l 0.33,-0.35 c 5.91,-5.72 11.73,-11.51 17.43,-17.42 l 0.33,-0.35 c 5.92,-5.71 11.74,-11.51 17.44,-17.41 l 0.33,-0.35 c 5.91,-5.71 11.73,-11.51 17.43,-17.41 l 0.34,-0.36 c 5.9,-5.71 11.73,-11.5 17.42,-17.41 l 0.33,-0.34 c 5.91,-5.72 11.74,-11.51 17.44,-17.42 l 0.32,-0.34 c 5.91,-5.72 11.74,-11.52 17.44,-17.42 l 0.33,-0.35 c 5.91,-5.72 11.73,-11.51 17.43,-17.42 l 0.33,-0.35 c 5.91,-5.71 11.74,-11.5 17.43,-17.41 l 0.34,-0.35 c 5.91,-5.71 11.73,-11.51 17.43,-17.41 l 0.33,-0.35 c 5.91,-5.72 11.73,-11.51 17.43,-17.42 l 0.33,-0.34 c 5.91,-5.72 11.74,-11.51 17.43,-17.42 l 0.33,-0.34 c 5.91,-5.72 11.74,-11.51 17.44,-17.42 l 0.33,-0.35 c 5.91,-5.71 11.73,-11.51 17.43,-17.41 l 0.33,-0.35 c 5.91,-5.72 11.74,-11.51 17.43,-17.42 l 0.34,-0.35 c 3.54,-3.42 6.97,-6.94 10.44,-10.43 C 2618.64,1165.1 2211.58,758 1699.94,709.109" />
    <path
       inkscape:connector-curvature="0"
       id="path4649"
       style="fill:#fdfeff;fill-opacity:1;fill-rule:nonzero;stroke:none"
       d="m 1909.49,2160.37 1.37,-10.17 -15.28,-3.17 -2.04,-21.62 h 18.27 l 24.37,2.36 12.5,14.86 -13.35,5.21 -7.29,8.38 -10.98,17.74 -5.25,25.04 -20.63,-4.12 -5.77,-8.94 v -9.9 l 9.89,-6.72 14.19,-8.95" />
    <path
       inkscape:connector-curvature="0"
       id="path4651"
       style="fill:#fdfeff;fill-opacity:1;fill-rule:nonzero;stroke:none"
       d="m 1892.03,2151.96 1.09,13.63 -12.11,5.24 -16.9,-3.87 -12.54,-20.21 v -12.92 h 14.58 l 25.88,18.13" />
    <path
       inkscape:connector-curvature="0"
       id="path4653"
       style="fill:#fdfeff;fill-opacity:1;fill-rule:nonzero;stroke:none"
       d="m 1544.21,2094.36 -3.73,-9.51 h -17.99 v -9.33 h 4.26 c 0,0 0.25,-1.93 0.53,-4.54 l 11.16,0.95 6.87,4.26 1.79,8.66 8.94,0.71 3.42,7.29 -8.1,1.65 -7.15,-0.14" />
    <path
       inkscape:connector-curvature="0"
       id="path4655"
       style="fill:#fdfeff;fill-opacity:1;fill-rule:nonzero;stroke:none"
       d="m 1497.71,2077.57 -0.67,-9.23 13.06,1.13 1.37,9.19 -7.85,6.19 -5.91,-7.28" />
    <path
       inkscape:connector-curvature="0"
       id="path4657"
       style="fill:#fdfeff;fill-opacity:1;fill-rule:nonzero;stroke:none"
       d="m 2205.87,1922.44 2.04,2.19 c 0.84,-3.42 1.65,-7.01 2.5,-10.71 z m -804.14,162.41 5.77,5.92 9.62,-5.92 -7.68,-6.33 z m 18.41,-16.75 v -12.26 h -19.93 l -5.49,7.96 v 11.3 h 1.66 z m -84.99,20.73 h 20.78 l -26.55,-37.25 -10.99,5.92 2.33,15.67 z m 49.79,-25.03 v -12.22 l -8.95,-8.94 h -20.06 l 3.16,13.63 9.48,0.81 1.93,4.68 z m -5.92,30.14 v 14.86 l 12.96,-11.69 z m 10.6,-5.11 v -12.5 l -9.37,-6.05 -11.79,-2.18 v 20.73 z m -17.18,18.03 v -12.92 h -37.67 l -14.05,3.84 3.59,9.08 17.99,7.43 h 24.64 v -7.43 z m -87.35,47.04 16.37,7.85 14.86,-3.59 -5.07,-19.93 -16.09,-5.11 z m 910.6,-199.84 h -50.06 l -30.53,22.71 -32.18,-3.03 v -19.68 h -10.21 l -10.98,7.85 -55.56,14.15 v 36.06 l -70.56,-5.53 -21.86,-11.8 h -28.06 l -13.77,1.52 -33.97,-19.01 v -35.46 l -69.43,-50.06 5.77,-21.48 h 14.16 l -3.7,-20.35 -9.89,-3.7 -0.57,-53.23 59.96,-68.48 h 26.27 l 1.51,4.26 h 47.04 l 13.48,12.5 h 26.69 l 14.58,-14.57 39.74,-4.26 -5.24,-52.68 44.15,-77.84 -23.24,-44.43 1.51,-20.88 18.28,-18.17 v -50.34 l 23.94,-32.18 v -41.79 h 20.77 c -115.23,-141.68 -290.88,-232.44 -487.41,-232.44 -346.58,0 -628.343,281.94 -628.343,628.52 0,87.17 17.847,170.4 50.023,245.89 v 19.68 l 22.57,27.21 c 7.85,14.72 16.09,29.16 25.03,43.2 l 1.1,-11.4 -26.13,-31.8 c -8.1,-15.24 -15.66,-30.8 -22.42,-46.89 v -35.74 l 26.01,-12.53 v -49.78 l 25.04,-42.64 20.49,-3.17 2.6,14.58 -24.08,37.14 -4.68,36.02 h 14.05 l 5.91,-37.11 34.79,-50.63 -9.09,-16.37 22.15,-33.83 54.89,-13.45 v 8.8 l 21.86,-3.17 -2.08,-15.56 17.32,-3.14 26.55,-7.28 37.57,-42.92 48.13,-3.59 4.68,-39.19 -32.89,-22.95 -1.51,-34.96 -4.82,-21.45 47.6,-59.53 3.73,-20.39 c 0,0 17.18,-4.64 19.22,-4.64 2.08,0 38.66,-27.64 38.66,-27.64 v -107.7 l 13.06,-3.59 -8.94,-49.64 22,-29.3 -3.98,-49.08 28.88,-51.05 37.28,-32.42 37.39,-0.71 3.59,11.97 -27.36,23.24 1.52,11.41 4.93,14.19 0.98,14.29 -18.59,0.53 -9.33,11.69 15.39,15 2.08,11.16 -17.22,4.93 0.99,10.45 24.61,3.73 37.39,17.85 12.53,22.99 39.19,50.21 -8.95,39.19 11.97,20.91 36.06,-1.13 24.32,19.12 7.86,75.66 26.79,34.22 4.82,21.9 -24.61,7.96 -16.23,26.55 -55.27,0.56 -43.87,16.62 -2.08,31.37 -14.72,25.56 -39.6,0.56 -22.96,36.05 -20.38,10.04 -1.1,-11.02 -37,-2.19 -13.59,18.84 -38.66,7.81 -31.89,-36.68 -50.07,8.38 -3.73,56.51 -36.58,6.33 14.72,27.64 -4.27,15.95 -47.98,-32.18 -30.25,3.73 -10.73,23.66 6.47,24.33 16.76,30.81 38.38,19.4 h 74.11 l -0.25,-22.57 26.66,-12.5 -2.05,38.62 19.12,19.4 38.76,25.46 2.75,17.88 38.66,40.28 40.98,22.71 -3.56,3.03 27.78,26.12 10.18,-2.64 4.68,-5.88 10.56,11.69 2.64,1.23 -11.58,1.66 -11.8,3.83 v 11.27 l 6.31,5.1 h 13.62 l 6.34,-2.74 5.49,-11.02 6.59,1.09 v 0.98 l 1.93,-0.7 19.26,2.89 2.75,9.5 11.02,-2.74 v -10.32 l -10.21,-7.04 1.51,-11.13 34.82,-10.73 0.14,-0.39 7.96,0.67 0.56,15.14 -27.64,12.5 -1.51,7.28 22.95,7.86 0.96,22 -24.05,14.58 -1.51,37 -32.89,-16.09 h -11.97 l 3.03,28.2 -44.68,10.56 -18.59,-14.01 v -42.78 l -33.27,-10.45 -13.34,-27.92 -14.58,-2.33 v 35.63 l -31.23,4.4 -15.66,10.18 -6.34,23.1 55.98,32.74 27.53,8.38 2.75,-18.45 15.24,0.7 1.09,9.37 15.99,2.18 0.24,3.31 -6.86,2.89 -1.52,9.75 19.68,1.65 11.83,12.4 0.67,0.81 h 0.14 l 3.59,3.73 41.27,5.21 18.27,-15.53 -47.85,-25.45 60.77,-14.44 7.99,20.35 h 26.55 l 9.47,17.75 -18.84,4.82 v 22.39 l -59,26.13 -40.7,-4.65 -22.96,-12.11 1.52,-29.15 -24.09,3.55 -3.69,16.23 23.09,20.92 -41.82,2.07 -11.94,-3.73 -5.24,-14.01 15.66,-2.64 -3.13,-15.67 -26.69,-1.65 -4.12,-10.32 -38.65,-1.09 c 0,0 -0.96,21.86 -2.61,21.86 -1.51,0 30.24,0.57 30.24,0.57 l 23.1,22.53 -12.64,6.2 -16.65,-16.24 -27.78,1.66 -16.62,22.96 h -35.49 l -37.14,-27.64 h 33.97 l 3.17,-10.04 -8.8,-8.09 37.53,-1.13 5.77,-13.59 -42.35,1.65 -2.04,10.42 -26.55,5.81 -14.19,7.82 -31.61,-0.28 c 103.68,75.52 231.17,120.2 369.11,120.2 159,0 304.09,-59.4 414.92,-156.92 l -7.43,-13.31 -29.01,-11.44 -12.22,-13.21 2.75,-15.52 14.96,-2.08 9.09,-22.53 25.73,10.45 4.26,-30.13 h -7.71 l -21.16,3.16 -23.52,-3.97 -22.7,-32.18 -32.61,-5.11 -4.68,-27.78 13.77,-3.31 -3.98,-17.88 -32.32,6.48 -29.58,-6.48 -6.19,-16.34 5.1,-34.68 17.32,-8.09 29.16,0.14 19.68,1.76 6.02,15.7 30.84,39.89 20.21,-4.15 19.92,18.02 3.74,-14.01 49.08,-33.17 -6.06,-7.95 -22.14,1.09 8.55,-11.97 13.59,-3.03 15.95,6.62 -0.25,19.26 7.01,3.55 -5.63,6.06 -32.75,18.17 -8.66,24.32 h 27.22 l 8.66,-8.66 23.52,-20.21 0.98,-24.36 24.19,-25.84 9.08,35.35 16.8,9.22 3.13,-29.05 16.51,-17.99 32.75,0.53 c 6.33,-16.23 11.97,-32.85 16.9,-49.78 z m -946.62,271.9 c 0,0 13.63,2.33 14.86,2.33 1.09,0 0,-13.73 0,-13.73 l -30.95,-1.94 -5.91,7.01 z m -22,30.53 v 1.09 h 13.76 l 1.09,4.69 h 22.54 v -9.76 l -6.45,-8.52 h -30.94 z m 826,-76.05 0.14,30.67 c 10.7,-11.41 21.16,-23.24 31.08,-35.35 l -12.39,-18.41 -43.06,0.38 -2.74,8.95 z m 99,-119.53 4.01,4.55 c 5.21,-10.18 10.04,-20.5 14.72,-30.81 l -6.48,0.14 -12.25,-1.66 z m 128.89,-273.66 c -0.14,20.06 -1.26,40.03 -3.17,59.53 -6.33,65.21 -21.86,127.77 -45.24,186.5 -1.79,4.26 -3.45,8.8 -5.24,13.06 -31.09,73.58 -74.96,140.58 -128.44,198.46 -3.45,3.73 -7.04,7.43 -10.6,11.16 -10.17,10.42 -20.49,20.74 -31.37,30.53 -121.71,110.83 -283.45,178.5 -460.58,178.5 -178.64,0 -341.62,-68.9 -463.61,-181.39 -28.45,-26.26 -54.61,-54.89 -78.23,-85.41 -89.535,-115.8 -142.906,-260.75 -142.906,-417.95 0,-377.67 307.256,-684.75 684.746,-684.75 265.71,0 496.21,152.1 609.83,373.66 24.18,47.32 43.16,97.77 55.8,150.72 3.31,13.49 6.06,26.97 8.56,40.7 6.86,38.8 10.56,78.83 10.56,119.67 0,2.32 -0.11,4.68 -0.11,7.01" />
    <path
       inkscape:connector-curvature="0"
       id="path4659"
       style="fill:#fdfeff;fill-opacity:1;fill-rule:nonzero;stroke:none"
       d="m 1018,2045.81 v -19.68 c 6.91,16.09 14.47,31.65 22.57,46.89 L 1018,2045.81" />
  </g>
</svg>
