<?xml version="1.0" encoding="UTF-8" standalone="no"?>
<svg xmlns:dc="http://purl.org/dc/elements/1.1/" xmlns:cc="http://creativecommons.org/ns#" xmlns:rdf="http://www.w3.org/1999/02/22-rdf-syntax-ns#" xmlns:svg="http://www.w3.org/2000/svg" xmlns="http://www.w3.org/2000/svg" xmlns:sodipodi="http://sodipodi.sourceforge.net/DTD/sodipodi-0.dtd" xmlns:inkscape="http://www.inkscape.org/namespaces/inkscape" version="1.1" viewBox="0 0 100 99.999992" id="svg18" sodipodi:docname="i15.svg" inkscape:version="0.92.2 (5c3e80d, 2017-08-06)">
  <metadata id="metadata22">
    <rdf:RDF>
      <cc:Work rdf:about="">
        <dc:format>image/svg+xml</dc:format>
        <dc:type rdf:resource="http://purl.org/dc/dcmitype/StillImage" />
        <dc:title></dc:title>
      </cc:Work>
    </rdf:RDF>
  </metadata>
  <sodipodi:namedview pagecolor="#ffffff" bordercolor="#666666" borderopacity="1" objecttolerance="10" gridtolerance="10" guidetolerance="10" inkscape:pageopacity="0" inkscape:pageshadow="2" inkscape:window-width="1701" inkscape:window-height="489" id="namedview20" showgrid="false" scale-x="1" units="px" fit-margin-top="0" fit-margin-left="0" fit-margin-right="0" fit-margin-bottom="0" inkscape:zoom="2.3600001" inkscape:cx="80.9322" inkscape:cy="49.999997" inkscape:window-x="82" inkscape:window-y="134" inkscape:window-maximized="0" inkscape:current-layer="svg18" />
  <defs id="defs5">
    <clipPath id="clipPath4629">
      <path d="M 1830,5389 C 1829.1,5390.19 1828.22,5391.4 1827.29,5392.56 1826.41,5393.65 1825.59,5394.79 1824.72,5395.89 1821.98,5396.99 1819.78,5398.14 1818.46,5399.36 1814.52,5403 1811.64,5407.64 1808.32,5411.85 1807.56,5412.82 1806.84,5413.83 1806.08,5414.81 1803.14,5415.93 1800.78,5417.11 1799.43,5418.36 1795.5,5422.02 1792.66,5426.7 1789.37,5430.94 1788.55,5431.99 1787.78,5433.08 1786.97,5434.13 1784.05,5435.23 1781.72,5436.37 1780.42,5437.59 1776.49,5441.27 1773.7,5445.98 1770.43,5450.25 1769.64,5451.27 1768.9,5452.34 1768.12,5453.37 1765.1,5454.46 1762.7,5455.6 1761.41,5456.82 1757.5,5460.51 1754.74,5465.26 1751.5,5469.56 1750.74,5470.56 1750.03,5471.6 1749.28,5472.61 1746.16,5473.69 1743.7,5474.83 1742.42,5476.04 1738.52,5479.75 1735.8,5484.54 1732.59,5488.86 1731.85,5489.84 1731.17,5490.86 1730.44,5491.85 1727.22,5492.92 1724.71,5494.05 1723.44,5495.26 1719.55,5498.98 1716.88,5503.81 1713.68,5508.15 1712.97,5509.12 1712.31,5510.12 1711.61,5511.09 1708.3,5512.15 1705.73,5513.27 1704.48,5514.47 1700.59,5518.21 1697.96,5523.07 1694.8,5527.45 1694.08,5528.43 1693.42,5529.46 1692.71,5530.45 1689.48,5531.46 1686.98,5532.53 1685.8,5533.67 1681.92,5537.44 1679.33,5542.34 1676.19,5546.74 1675.39,5547.86 1674.64,5549.02 1673.85,5550.14 1671.26,5551.01 1669.29,5551.91 1668.31,5552.88 1664.43,5556.66 1661.89,5561.59 1658.77,5566.02 1658,5567.12 1657.28,5568.26 1656.51,5569.36 1653.83,5570.22 1651.79,5571.12 1650.81,5572.08 1646.95,5575.88 1644.45,5580.85 1641.36,5585.3 1640.61,5586.38 1639.91,5587.5 1639.17,5588.59 1636.39,5589.43 1634.29,5590.32 1633.33,5591.28 1629.47,5595.09 1627.01,5600.1 1623.95,5604.58 1623.22,5605.65 1622.54,5606.75 1621.82,5607.82 1618.95,5608.65 1616.79,5609.53 1615.84,5610.47 1611.99,5614.3 1609.57,5619.35 1606.54,5623.86 1605.83,5624.91 1605.17,5626 1604.47,5627.05 1601.51,5627.87 1599.29,5628.73 1598.36,5629.66 1594.51,5633.52 1592.14,5638.6 1589.13,5643.13 1588.44,5644.17 1587.8,5645.24 1587.12,5646.28 1584.06,5647.09 1581.78,5647.94 1580.87,5648.85 1577.04,5652.72 1574.7,5657.84 1571.72,5662.4 1570.94,5663.59 1570.22,5664.82 1569.46,5666.01 1566.55,5666.68 1564.35,5667.36 1563.39,5668.04 1560.3,5672.54 1557.27,5677.09 1554.31,5681.68 1553.56,5682.85 1552.86,5684.06 1552.11,5685.24 1549.11,5685.89 1546.85,5686.55 1545.91,5687.23 1542.84,5691.75 1539.84,5696.32 1536.9,5700.94 1536.17,5702.1 1535.49,5703.3 1534.76,5704.47 1531.66,5705.11 1529.34,5705.76 1528.42,5706.41 1525.38,5710.97 1522.4,5715.57 1519.5,5720.21 1518.78,5721.36 1518.11,5722.55 1517.4,5723.7 1514.2,5724.32 1511.84,5724.96 1510.93,5725.59 1507.92,5730.18 1504.97,5734.8 1502.09,5739.47 1501.38,5740.61 1500.73,5741.79 1500.04,5742.94 1496.75,5743.54 1494.32,5744.15 1493.45,5744.78 1490.61,5749.14 1487.85,5753.55 1485.14,5758 L 1482.97,5758.83 C 1459.22,5768.68 1435.48,5780.12 1412.29,5792.77 1405.94,5796 1399.67,5799.4 1393.4,5802.82 1387.03,5806.06 1380.75,5809.45 1374.47,5812.89 1368.07,5816.14 1361.75,5819.53 1355.45,5822.99 1349.02,5826.26 1342.67,5829.65 1336.35,5833.12 1329.83,5836.45 1323.37,5839.87 1316.96,5843.41 1310.68,5846.62 1304.44,5849.9 1298.27,5853.31 1236.35,5884.88 1179.97,5925.79 1131.27,5974.41 1012.17,6093.41 938.57,6257.91 938.57,6439.61 938.57,6621.31 1012.21,6785.81 1131.27,6904.91 1250.33,7024.01 1414.87,7097.61 1596.57,7097.61 1778.27,7097.61 1942.77,7023.97 2061.77,6904.91 2106.61,6860.06 2145,6808.75 2175.47,6752.51 2177.67,6748.75 2179.83,6744.97 2181.95,6741.16 2185.73,6734.89 2189.27,6728.48 2192.84,6722.08 2196.61,6715.82 2200.17,6709.43 2203.72,6703.03 2207.48,6696.77 2211.05,6690.39 2214.6,6683.99 2218.35,6677.74 2221.93,6671.38 2225.47,6664.98 2229.43,6658.39 2233.22,6651.68 2236.93,6644.92 2244.81,6631.71 2252.15,6618.13 2259,6604.23 2267.98,6587.02 2276.12,6569.27 2283.4,6551.03 L 2284.39,6549.96 C 2289.57,6544.6 2294.64,6539.12 2299.62,6533.56 2304.93,6528.05 2310.14,6522.43 2315.24,6516.71 2320.39,6511.35 2325.45,6505.9 2330.4,6500.34 2335.55,6494.99 2340.6,6489.54 2345.54,6483.98 2350.68,6478.63 2355.73,6473.19 2360.66,6467.64 2365.8,6462.3 2370.84,6456.86 2375.77,6451.31 2380.9,6445.97 2385.94,6440.53 2390.86,6434.99 2395.99,6429.65 2401.03,6424.22 2405.95,6418.68 2411.07,6413.34 2416.1,6407.91 2421.02,6402.37 2426.14,6397.03 2431.17,6391.6 2436.08,6386.07 2441.2,6380.74 2446.22,6375.31 2451.14,6369.78 2456.25,6364.45 2461.27,6359.02 2466.18,6353.49 2471.3,6348.16 2476.32,6342.74 2481.23,6337.21 2486.35,6331.87 2491.37,6326.45 2496.28,6320.92 2501.39,6315.59 2506.41,6310.17 2511.31,6304.65 2516.43,6299.31 2521.45,6293.89 2526.36,6288.36 2531.47,6283.03 2536.49,6277.61 2541.39,6272.08 L 2541.63,6271.82 C 2546.06,6267.56 2550.41,6263.21 2554.69,6258.8 2560.27,6253.51 2565.75,6248.12 2571.11,6242.61 2576.69,6237.32 2582.18,6231.92 2587.55,6226.4 2593.14,6221.11 2598.62,6215.7 2604,6210.19 2609.6,6204.89 2615.09,6199.49 2620.47,6193.97 2625.01,6189.67 2629.45,6185.27 2633.85,6180.83 2635.89,6178.92 2637.84,6176.91 2639.86,6174.98 2540.72,5782.88 2226.46,5476.58 1829.96,5388.98" id="path2" inkscape:connector-curvature="0" />
    </clipPath>
  </defs>
  <path d="M 99.999997,49.999998 C 99.999997,77.616168 77.611522,99.999994 49.999998,99.999994 22.383828,99.999994 0,77.611521 0,49.999998 0,22.383828 22.388475,0 49.999998,0 77.616169,0 99.999997,22.388475 99.999997,49.999998" style="fill:#ee3f56;stroke-width:0.0464684" id="path7" inkscape:connector-curvature="0" />
  <g clip-path="url(#clipPath4629)" id="g11" transform="matrix(0.0464684,0,0,-0.0464684,-24.163568,349.25649)">
    <path d="M 938.3,5389 H 2639.3 V 7098 H 938.3 Z" style="fill:#eb2037" id="path9" inkscape:connector-curvature="0" />
  </g>
  <path d="M 74.163566,61.477693 H 65.77602 C 66.531132,58.668678 67.015797,55.478622 67.156596,51.933083 H 76.682618 C 76.431689,55.327135 75.552972,58.545537 74.162637,61.477693 Z M 58.573418,75.329923 C 60.634756,72.960499 62.846652,69.651484 64.52602,65.302042 H 71.956317 C 68.707712,69.940982 64.042749,73.494421 58.573418,75.329923 Z M 52.80669,75.685871 C 52.479552,75.965146 52.190519,76.180295 51.949348,76.366633 V 65.29786 H 60.429831 C 59.421931,67.603157 58.246745,69.516261 57.090612,71.092469 55.532991,73.220722 53.963753,74.73048 52.807619,75.683547 Z M 51.949348,51.931225 H 63.329459 C 63.171466,55.559477 62.610128,58.729552 61.79089,61.475834 H 51.948883 Z M 51.949348,38.548326 H 61.819236 C 62.640797,41.290426 63.183083,44.48234 63.340611,48.102229 H 51.951207 Z M 51.949348,34.731411 V 23.667285 C 53.740705,25.010222 57.655667,28.444237 60.420537,34.731411 Z M 71.953994,34.731411 H 64.523697 C 62.844329,30.374534 60.632433,27.059478 58.571095,24.680296 64.040425,26.529274 68.715147,30.084571 71.953994,34.731411 Z M 76.684477,48.105017 H 67.158455 C 67.017656,44.550649 66.53299,41.367099 65.777879,38.551114 H 74.165425 C 75.55576,41.481876 76.441912,44.698883 76.685406,48.105017 Z M 48.124998,34.731411 H 39.644515 C 40.652415,32.426114 41.818307,30.505575 42.976764,28.927508 44.543679,26.799255 46.110593,25.296467 47.259757,24.33643 47.593865,24.064125 47.875928,23.842006 48.126857,23.655668 Z M 48.124998,48.105017 H 36.730947 C 36.890798,44.467006 37.449813,41.292749 38.271839,38.551114 H 48.12314 Z M 48.124998,61.478622 H 38.24117 C 37.428902,58.733734 36.879646,55.553901 36.722118,51.934013 H 48.125463 Z M 48.124998,76.367098 C 46.323883,75.024625 42.404738,71.590146 39.653809,65.298325 H 48.124998 Z M 28.120352,65.298325 H 35.546003 C 37.227694,69.648232 39.427973,72.960964 41.493958,75.326205 36.024627,73.48931 31.3592,69.935871 28.120352,65.298325 Z M 23.380575,51.929366 H 32.915891 C 33.047397,55.473976 33.54182,58.667284 34.286709,61.483269 H 25.908456 C 24.508828,58.542749 23.63197,55.330853 23.38104,51.929366 Z M 25.898233,38.546467 H 34.28578 C 33.540891,41.36524 33.046467,44.545537 32.914962,48.10037 H 23.379646 C 23.630575,44.694236 24.507434,41.473976 25.897304,38.546467 Z M 41.502322,24.680296 C 39.43866,27.059478 37.229088,30.372675 35.545073,34.731411 H 28.110129 C 31.356412,30.0855 36.023698,26.529739 41.502322,24.680296 Z M 50.038567,19.438661 C 33.147304,19.438661 19.46236,33.128251 19.46236,50.014868 19.46236,66.901484 33.147304,80.581781 50.038567,80.591075 66.925184,80.581781 80.605481,66.901484 80.614774,50.014868 80.605481,33.123604 66.925184,19.438661 50.038567,19.438661" style="fill:#fdfeff;stroke-width:0.0464684" id="path13" inkscape:connector-curvature="0" />
</svg>
