<svg version="1.1" viewBox="0 0 75 75" xmlns="http://www.w3.org/2000/svg">
 <defs>
  <clipPath id="clipPath842">
   <path d="m60.87 98.84c-0.04182-0.0553-0.08271-0.1115-0.1259-0.1654-0.04089-0.05065-0.079-0.1036-0.1194-0.1547-0.1273-0.05112-0.2296-0.1046-0.2909-0.1612-0.1831-0.1691-0.3169-0.3848-0.4712-0.5804-0.03532-0.04507-0.06877-0.09201-0.1041-0.1375-0.1366-0.05204-0.2463-0.1069-0.309-0.165-0.1826-0.1701-0.3146-0.3875-0.4675-0.5846-0.0381-0.04879-0.07388-0.09944-0.1115-0.1482-0.1357-0.05112-0.244-0.1041-0.3044-0.1608-0.1826-0.171-0.3123-0.3899-0.4642-0.5883-0.03671-0.0474-0.0711-0.09712-0.1073-0.145-0.1403-0.05065-0.2519-0.1036-0.3118-0.1603-0.1817-0.1715-0.3099-0.3922-0.4605-0.592-0.03532-0.04647-0.06831-0.0948-0.1032-0.1417-0.145-0.05018-0.2593-0.1032-0.3188-0.1594-0.1812-0.1724-0.3076-0.395-0.4568-0.5957-0.03439-0.04554-0.06598-0.09294-0.09991-0.1389-0.1496-0.04972-0.2663-0.1022-0.3253-0.1585-0.1808-0.1729-0.3048-0.3973-0.4535-0.599-0.03299-0.04508-0.06366-0.09154-0.09619-0.1366-0.1538-0.04926-0.2732-0.1013-0.3313-0.1571-0.1808-0.1738-0.303-0.3996-0.4498-0.6032-0.03346-0.04554-0.06413-0.0934-0.09712-0.1394-0.1501-0.04693-0.2663-0.09665-0.3211-0.1496-0.1803-0.1752-0.3007-0.4029-0.4466-0.6073-0.03717-0.05204-0.07203-0.1059-0.1087-0.158-0.1204-0.04043-0.2119-0.08225-0.2574-0.1273-0.1803-0.1757-0.2983-0.4047-0.4433-0.6106-0.03578-0.05112-0.06924-0.1041-0.105-0.1552-0.1245-0.03996-0.2193-0.08178-0.2649-0.1264-0.1794-0.1766-0.2955-0.4075-0.4391-0.6143-0.03485-0.05018-0.06738-0.1022-0.1018-0.1529-0.1292-0.03903-0.2268-0.08039-0.2714-0.125-0.1794-0.177-0.2937-0.4099-0.4359-0.618-0.03392-0.04972-0.06552-0.1008-0.09898-0.1506-0.1334-0.03857-0.2337-0.07946-0.2779-0.1231-0.1789-0.178-0.2914-0.4126-0.4322-0.6222-0.03299-0.04879-0.06366-0.09944-0.09619-0.1482-0.1375-0.0381-0.2407-0.07807-0.2839-0.1213-0.1789-0.1794-0.289-0.4154-0.4289-0.6259-0.03206-0.04833-0.0618-0.09805-0.0934-0.1464-0.1422-0.03764-0.2481-0.07714-0.2904-0.1194-0.178-0.1798-0.2867-0.4178-0.4252-0.6296-0.03625-0.0553-0.0697-0.1125-0.105-0.1678-0.1352-0.03113-0.2375-0.06273-0.2821-0.09433-0.1436-0.2091-0.2844-0.4205-0.4219-0.6338-0.03485-0.05437-0.06738-0.1106-0.1022-0.1654-0.1394-0.0302-0.2444-0.06087-0.2881-0.09247-0.1427-0.21-0.2821-0.4224-0.4187-0.6371-0.03392-0.0539-0.06552-0.1097-0.09944-0.164-0.1441-0.02974-0.2519-0.05994-0.2946-0.09015-0.1413-0.2119-0.2797-0.4257-0.4145-0.6413-0.03346-0.05344-0.06459-0.1087-0.09758-0.1622-0.1487-0.02881-0.2584-0.05855-0.3006-0.08782-0.1399-0.2133-0.277-0.428-0.4108-0.645-0.03299-0.05297-0.0632-0.1078-0.09526-0.1612-0.1529-0.02788-0.2658-0.05623-0.3062-0.0855-0.132-0.2026-0.2602-0.4075-0.3862-0.6143l-0.1008-0.03857c-1.104-0.4577-2.207-0.9893-3.284-1.577-0.2951-0.1501-0.5864-0.3081-0.8778-0.467-0.296-0.1506-0.5878-0.3081-0.8796-0.4679-0.2974-0.151-0.5911-0.3086-0.8838-0.4693-0.2988-0.152-0.5939-0.3095-0.8875-0.4707-0.303-0.1547-0.6032-0.3137-0.901-0.4782-0.2918-0.1492-0.5818-0.3016-0.8685-0.46-2.877-1.467-5.497-3.368-7.76-5.627-5.534-5.53-8.954-13.17-8.954-21.62 0-8.443 3.422-16.09 8.954-21.62 5.533-5.534 13.18-8.954 21.62-8.954 8.443 0 16.09 3.422 21.62 8.954 2.084 2.084 3.868 4.468 5.283 7.082 0.1022 0.1747 0.2026 0.3504 0.3011 0.5274 0.1757 0.2914 0.3401 0.5892 0.506 0.8866 0.1752 0.2909 0.3406 0.5878 0.5056 0.8852 0.1747 0.2909 0.3406 0.5874 0.5056 0.8848 0.1743 0.2904 0.3406 0.586 0.5051 0.8834 0.184 0.3062 0.3601 0.618 0.5325 0.9322 0.3662 0.6138 0.7072 1.245 1.026 1.891 0.4173 0.7997 0.7955 1.625 1.134 2.472l0.046 0.04972c0.2407 0.2491 0.4763 0.5037 0.7077 0.7621 0.2467 0.256 0.4888 0.5172 0.7258 0.783 0.2393 0.2491 0.4744 0.5023 0.7045 0.7607 0.2393 0.2486 0.474 0.5019 0.7035 0.7602 0.2388 0.2486 0.4735 0.5014 0.7026 0.7593 0.2388 0.2481 0.473 0.5009 0.7021 0.7588 0.2384 0.2481 0.4726 0.5009 0.7012 0.7584 0.2384 0.2481 0.4726 0.5005 0.7012 0.7579 0.2379 0.2481 0.4717 0.5005 0.7003 0.7579 0.2379 0.2481 0.4717 0.5005 0.6998 0.7574 0.2379 0.2477 0.4712 0.5 0.6998 0.757 0.2375 0.2477 0.4707 0.5 0.6989 0.757 0.2379 0.2477 0.4712 0.4995 0.6993 0.7565 0.2379 0.2481 0.4712 0.5 0.6994 0.757 0.2375 0.2477 0.4707 0.4995 0.6984 0.756 0.2379 0.2481 0.4712 0.5 0.6993 0.757 0.2375 0.2477 0.4707 0.4995 0.6984 0.7565l0.01115 0.01208c0.2059 0.198 0.408 0.4001 0.6069 0.605 0.2593 0.2458 0.5139 0.4963 0.763 0.7523 0.2593 0.2458 0.5144 0.4967 0.7639 0.7533 0.2598 0.2458 0.5144 0.4972 0.7644 0.7533 0.2602 0.2463 0.5153 0.4972 0.7653 0.7537 0.211 0.1998 0.4173 0.4043 0.6217 0.6106 0.0948 0.08876 0.1854 0.1822 0.2793 0.2718-4.607 18.22-19.21 32.45-37.63 36.52" style="stroke-width:.04647"/>
  </clipPath>
 </defs>
 <path d="m75 37.5c0 20.71-16.79 37.5-37.5 37.5-20.71 0-37.5-16.79-37.5-37.5 0-20.71 16.79-37.5 37.5-37.5 20.71 0 37.5 16.79 37.5 37.5" style="fill:#ee3f56;stroke-width:.03485"/>
 <path transform="scale(.75)" d="m19.44 98.84h79.04v-79.41h-79.04z" clip-path="url(#clipPath842)" style="fill:#eb2037;stroke-width:.04647"/>
 <path d="m55.62 46.11h-6.291c0.5663-2.107 0.9298-4.499 1.035-7.158h7.145c-0.1882 2.546-0.8472 4.959-1.89 7.158zm-11.69 10.39c1.546-1.777 3.205-4.259 4.464-7.521h5.573c-2.436 3.479-5.935 6.144-10.04 7.521zm-4.325 0.267c-0.2454 0.2095-0.4621 0.3708-0.643 0.5106v-8.302h6.36c-0.7559 1.729-1.637 3.164-2.504 4.346-1.168 1.596-2.345 2.729-3.212 3.443zm-0.643-17.82h8.535c-0.1185 2.721-0.5395 5.099-1.154 7.158h-7.382zm0-10.04h7.402c0.6162 2.057 1.023 4.451 1.141 7.165h-8.542zm0-2.863v-8.298c1.344 1.007 4.28 3.583 6.353 8.298zm15 0h-5.573c-1.26-3.268-2.918-5.754-4.464-7.538 4.102 1.387 7.608 4.053 10.04 7.538zm3.548 10.03h-7.145c-0.1056-2.666-0.4691-5.053-1.035-7.165h6.291c1.043 2.198 1.707 4.611 1.89 7.165zm-21.42-10.03h-6.36c0.7559-1.729 1.63-3.169 2.499-4.353 1.175-1.596 2.35-2.723 3.212-3.443 0.2506-0.2042 0.4621-0.3708 0.6503-0.5106zm0 10.03h-8.546c0.1199-2.729 0.5392-5.109 1.156-7.165h7.388zm0 10.03h-7.413c-0.6092-2.059-1.021-4.444-1.139-7.158h8.553zm0 11.17c-1.351-1.007-4.29-3.583-6.353-8.302h6.353zm-15-8.302h5.569c1.261 3.262 2.911 5.747 4.461 7.521-4.102-1.378-7.601-4.043-10.03-7.521zm-3.555-10.03h7.151c0.09863 2.658 0.4694 5.053 1.028 7.165h-6.284c-1.05-2.205-1.707-4.614-1.896-7.165zm1.888-10.04h6.291c-0.5587 2.114-0.9295 4.499-1.028 7.165h-7.151c0.1882-2.555 0.8458-4.97 1.888-7.165zm11.7-10.4c-1.548 1.784-3.205 4.269-4.468 7.538h-5.576c2.435-3.484 5.935-6.151 10.04-7.538zm6.402-3.931c-12.67 0-22.93 10.27-22.93 22.93s10.26 22.93 22.93 22.93c12.66-0.00697 22.93-10.27 22.93-22.93-0.006969-12.67-10.27-22.93-22.93-22.93" style="fill:#fdfeff;stroke-width:.03485"/>
</svg>
