<svg version="1.1" viewBox="0 0 75 75" xmlns="http://www.w3.org/2000/svg">
 <path d="m75 37.5c0 20.71-16.79 37.5-37.5 37.5-20.71 0-37.5-16.79-37.5-37.5s16.79-37.5 37.5-37.5c20.71 0 37.5 16.79 37.5 37.5" style="fill:#a6d620"/>
 <path d="m37.5 75c-0.6956 0-1.387-0.02021-2.073-0.05785v-0.1882h-0.5677v-0.5673h-0.5673v-0.5673h-0.5673v-0.5677h-0.5673v-0.5673h-0.5673v-0.5673h-0.5673v-0.5673h-0.5677v-0.5677h-0.5673v-0.5673h-0.5673v-0.5673h-0.5673v-0.5673h-0.5673v-0.5673h-0.5677v-0.5673h-0.5673v-0.5677h-0.5673v-0.5673h-0.5673v-0.5673h-0.5677v-0.5673h-0.5673v-0.5677h-0.5673v-0.5673h-0.5673v-0.5673h-0.5673v-4.405h9.922c-0.1265-0.0906-0.2544-0.1795-0.3791-0.2729l0.09409-0.09409c-0.2237-0.1537-0.4443-0.3108-0.6614-0.4732l0.09409-0.09409c-0.2237-0.1537-0.4447-0.3112-0.6614-0.4732l0.09409-0.09409c-0.2237-0.1537-0.4447-0.3112-0.6614-0.4736l0.09374-0.09409c-0.2234-0.1537-0.4443-0.3108-0.6614-0.4732l0.09409-0.09409c-0.2234-0.1537-0.4443-0.3108-0.6614-0.4732l0.09409-0.09409c-0.2234-0.1537-0.4443-0.3112-0.6614-0.4732l0.09409-0.09409c-0.2237-0.1537-0.4443-0.3112-0.6614-0.4736l0.09374-0.09409c-0.2234-0.1537-0.4443-0.3108-0.6611-0.4732l0.09374-0.09409c-0.2234-0.1537-0.4443-0.3108-0.6614-0.4732l0.09409-0.09409c-0.2234-0.1537-0.4443-0.3108-0.6614-0.4732l0.09409-0.09409c-0.2237-0.1537-0.4443-0.3108-0.6614-0.4732l0.09409-0.09409c-0.2237-0.1537-0.4447-0.3112-0.6614-0.4736l0.09409-0.09374c-0.2237-0.1537-0.4447-0.3112-0.6618-0.4736l0.09409-0.09409c-0.2234-0.1537-0.4443-0.3108-0.6614-0.4732l0.09409-0.09409c-0.2234-0.1537-0.4443-0.3108-0.6614-0.4732l0.09409-0.09409c-0.2237-0.1537-0.4443-0.3112-0.6614-0.4732l0.09409-0.09409c-0.2237-0.1537-0.4443-0.3112-0.6614-0.4736l1.674-1.675c0.4398 0.315 0.8959 0.6088 1.364 0.8848-0.08991-0.09026-0.1756-0.1843-0.2634-0.2767-0.1934-0.1847-0.3823-0.3736-0.567-0.567-0.1938-0.1847-0.383-0.3739-0.568-0.5677-0.1934-0.1847-0.3823-0.3739-0.567-0.5673-0.1938-0.1847-0.383-0.3739-0.5677-0.5673-0.1934-0.1847-0.3826-0.3739-0.5673-0.5673-3.289-3.14-5.34-7.563-5.34-12.47 0-9.527 7.72-17.25 17.25-17.25 0.9437 0 1.869 0.07841 2.771 0.2244v-0.1871c-0.1885-0.02021-0.3767-0.04217-0.5673-0.05645v-0.5109c-0.1885-0.02021-0.3767-0.04216-0.5673-0.05645v-2.353c1.147 0.07492 2.266 0.2645 3.355 0.5286l0.7461-2.593 3.099 0.8886-0.1073 0.3739 0.6746 0.1934-0.1073 0.3739 0.6746 0.1934-0.1073 0.3739 0.6746 0.1934-0.107 0.3739 0.6746 0.1934-0.1073 0.3743 0.6746 0.1934-0.1073 0.3739 0.6746 0.1934-0.1073 0.3739 0.6746 0.1934-0.1073 0.3739 0.675 0.1934-0.1073 0.3739 0.6746 0.1934-0.1073 0.3739 0.6746 0.1938-0.1073 0.3739 0.6746 0.1934-0.1073 0.3739 0.6746 0.1934-0.1073 0.3739 0.675 0.1934-0.1073 0.3739 0.6746 0.1938-0.1073 0.3739 0.6746 0.1934-0.1073 0.3739 0.6746 0.1934-0.1073 0.3739 0.6746 0.1934-0.1073 0.3739 0.675 0.1934-0.1073 0.3739 0.6746 0.1934-0.1073 0.3743 0.6746 0.1934-0.1073 0.3739 0.6746 0.1934-0.1073 0.3739 0.675 0.1934-0.1073 0.3739 0.6746 0.1934-0.1073 0.3743 0.6746 0.1934-0.1073 0.3739 0.6746 0.1934-0.1073 0.3739 0.6746 0.1934-0.1073 0.3739 0.6746 0.1934-0.107 0.3739 0.6746 0.1934-0.1073 0.3739 0.6746 0.1938-0.1073 0.3739 0.6746 0.1934-0.1073 0.3739 0.6746 0.1934-0.1073 0.3739 0.675 0.1934-0.1077 0.3739 0.675 0.1938-0.1073 0.3739 0.6746 0.1934-0.1073 0.3739 0.6746 0.1934-0.1073 0.3739 0.6746 0.1934-0.1073 0.3739 0.6746 0.1934-0.107 0.3739 0.6746 0.1934-0.1073 0.3739 0.6746 0.1938-0.1073 0.3739 0.6746 0.1934-0.1073 0.3739 0.6746 0.1934-0.1073 0.3739 0.675 0.1934-0.1073 0.3739 0.6746 0.1938-0.1073 0.3739 0.6746 0.1934-0.1073 0.3739 0.6746 0.1934-0.1073 0.3739 0.6746 0.1934-0.107 0.3739 0.6746 0.1934-0.1073 0.3739 0.6746 0.1934-0.1073 0.3743 0.6746 0.1934-0.1073 0.3739 0.6746 0.1934-0.1073 0.3739 0.675 0.1934-0.1077 0.3739 0.675 0.1934-0.1073 0.3743 0.6746 0.1934-0.1073 0.3739 0.06412 0.01812c-2.279 17.54-16.68 31.28-34.53 32.53h-6.97e-4c-0.01847 0.001394-0.03589 0.002788-0.05401 0.003833h-0.001046c-0.01847 0.001394-0.03589 0.002439-0.05401 0.003833h-0.001046c-0.07318 0.004879-0.145 0.009409-0.2181 0.01394-0.001393 3.49e-4 -3.48e-4 0-0.001393 3.49e-4 -0.01847 0.001045-0.0352 0.002091-0.05366 0.003136h-0.001743c-0.01847 0.001045-0.03415 0.002091-0.05262 0.003136-0.001046 0-0.002439 0-0.003834 3.49e-4 -0.07213 0.004181-0.1453 0.008014-0.2178 0.01185h-3.49e-4c-0.01847 0.001045-0.03659 0.002091-0.05471 0.002787l-3.48e-4 3.49e-4c-0.01847 6.97e-4 -0.0352 0.001742-0.05366 0.00244-0.001046 0-0.001743 3.48e-4 -0.003136 3.48e-4 -0.01847 6.97e-4 -0.03415 0.001742-0.05262 0.00244h-0.002439c-0.01812 0.001044-0.0345 0.001742-0.05297 0.002787h-0.002091c-0.03554 0.001743-0.07109 0.003136-0.1066 0.004878h-0.003484c-0.01742 6.98e-4 -0.0338 0.001395-0.05088 0.002091-0.002788 3.49e-4 -0.002788 3.49e-4 -0.005576 3.49e-4 -0.01603 6.97e-4 -0.0338 0.001394-0.05018 0.002091-0.00244 0-0.003485 0-0.005924 3.48e-4 -0.01603 6.98e-4 -0.03415 0.001394-0.05018 0.002091h-0.00453c-0.01742 6.97e-4 -0.0352 0.001394-0.05262 0.002091h-3.48e-4c-0.03589 0.001394-0.07248 0.002788-0.1084 0.003833-0.001046 0-0.001742 0-0.002788 3.48e-4 -0.01742 3.49e-4 -0.03415 0.001046-0.05123 0.001743h-0.005575c-0.01603 6.97e-4 -0.0338 0.001046-0.04983 0.001743h-0.006273c-0.01638 6.96e-4 -0.0338 0.001045-0.05018 0.001742h-0.005575c-0.01742 6.97e-4 -0.03345 0.001045-0.05088 0.001742h-0.003834c-0.0345 0.001046-0.07178 0.002091-0.1066 0.003137h-0.00244c-0.01742 3.48e-4 -0.03415 6.96e-4 -0.05157 0.001045-0.001045 3.48e-4 -0.004182 3.48e-4 -0.005227 3.48e-4 -0.01638 3.49e-4 -0.03276 6.98e-4 -0.04914 0.001046-0.003485 3.48e-4 -0.00453 3.48e-4 -0.008363 3.48e-4 -0.01638 3.49e-4 -0.03206 6.97e-4 -0.04844 0.001046h-0.007318c-0.01638 3.48e-4 -0.03241 6.97e-4 -0.04879 0.001045-0.002439 3.48e-4 -0.00453 3.48e-4 -0.006969 3.48e-4 -0.03485 6.98e-4 -0.06935 0.001395-0.1042 0.001743-0.001394 3.48e-4 -0.002091 3.48e-4 -0.003485 3.48e-4 -0.01742 3.49e-4 -0.03345 3.49e-4 -0.05088 6.97e-4h-0.005575c-0.01638 3.49e-4 -0.0331 6.98e-4 -0.04914 0.001046h-0.008363c-0.01638 3.48e-4 -0.03276 3.48e-4 -0.04879 6.97e-4h-0.006621c-0.01603 3.48e-4 -0.0331 3.48e-4 -0.04948 6.97e-4h-0.007317c-0.01742 3.48e-4 -0.03276 3.48e-4 -0.05018 6.97e-4h-0.003136c-0.01742 0-0.0352 3.48e-4 -0.05262 3.48e-4h-0.001046c-0.01742 3.48e-4 -0.0352 3.48e-4 -0.05262 3.48e-4h-0.004531c-0.01742 3.49e-4 -0.03276 3.49e-4 -0.05018 3.49e-4 -0.002439 0-0.00453 0-0.006969 3.49e-4h-0.04983-0.005924c-0.01638 3.48e-4 -0.0338 3.48e-4 -0.05018 3.48e-4h-0.00697-0.05018-0.004182-0.05297" style="fill:#6cc42e"/>
 <path d="m49.43 39.74h-4.731c0.4258-1.585 0.6994-3.384 0.7788-5.384h5.373c-0.1415 1.915-0.637 3.731-1.421 5.384zm-8.794 7.814c1.163-1.336 2.41-3.204 3.358-5.657h4.19c-1.832 2.617-4.463 4.621-7.547 5.657zm-3.252 0.2011c-0.1847 0.1575-0.3478 0.2788-0.4837 0.3837v-6.242h4.783c-0.5684 1.3-1.232 2.379-1.884 3.269-0.8785 1.2-1.764 2.052-2.416 2.59zm-0.4837-13.4h6.42c-0.08886 2.047-0.4053 3.836-0.8674 5.384h-5.552zm0-7.547h5.567c0.4635 1.547 0.7694 3.347 0.8583 5.389h-6.425zm0-2.153v-6.24c1.011 0.7572 3.22 2.694 4.777 6.24zm11.28 0h-4.19c-0.9472-2.457-2.195-4.326-3.358-5.668 3.084 1.043 5.721 3.047 7.547 5.668zm2.668 7.542h-5.373c-0.07945-2.005-0.353-3.799-0.7788-5.389h4.731c0.7841 1.653 1.284 3.468 1.421 5.389zm-16.11-7.542h-4.784c0.5684-1.3 1.226-2.383 1.879-3.273 0.8837-1.2 1.767-2.048 2.416-2.59 0.1885-0.1537 0.3474-0.2788 0.4889-0.384zm0 7.542h-6.426c0.09026-2.052 0.4053-3.843 0.8687-5.389h5.557zm0 7.542h-5.573c-0.4582-1.548-0.768-3.343-0.8569-5.384h6.43zm0 8.399c-1.016-0.7569-3.227-2.694-4.779-6.242h4.779zm-11.28-6.242h4.189c0.9485 2.454 2.189 4.321 3.353 5.657-3.084-1.036-5.716-3.04-7.542-5.657zm-2.673-7.541h5.378c0.07422 2 0.353 3.799 0.7736 5.389h-4.726c-0.7893-1.658-1.284-3.469-1.425-5.389zm1.42-7.547h4.732c-0.4206 1.59-0.6994 3.384-0.7736 5.389h-5.378c0.1415-1.921 0.636-3.736 1.42-5.389zm8.8-7.821c-1.164 1.342-2.41 3.21-3.359 5.668h-4.194c1.831-2.621 4.463-4.625 7.552-5.668zm4.815-2.957c-9.527 0-17.25 7.72-17.25 17.25 0 9.525 7.72 17.24 17.25 17.25 9.525-0.005576 17.24-7.721 17.25-17.25-0.005228-9.527-7.721-17.25-17.25-17.25" style="fill:#fdfeff"/>
 <path d="m40.84 53.11c8.926-2.146 15.59-10.18 15.59-19.75 0-8.45-5.191-15.68-12.55-18.74l0.7754-2.702-3.099-0.8886-0.7461 2.593c-1.09-0.2641-2.209-0.4537-3.355-0.5286v2.353c9.282 0.699 16.62 8.456 16.62 17.91 0 9.918-8.072 17.99-17.99 17.99-3.896 0-7.492-1.261-10.44-3.373l-1.674 1.675c3.251 2.432 7.244 3.906 11.58 4.021v5.898h-11.48v4.405h28.16v-4.405h-11.39v-6.46h-0.005924" style="fill:#fdfeff"/>
</svg>
