<svg version="1.1" viewBox="0 0 75 52.21" xmlns="http://www.w3.org/2000/svg">
 <path d="m20.45 26.1c0-4.205 0.9195-8.194 2.558-11.79-1.248-0.2557-2.54-0.3899-3.863-0.3899-10.57 0-19.14 8.569-19.14 19.14 0 10.57 8.569 19.14 19.14 19.14 4.442 0 8.527-1.517 11.78-4.056-6.389-5.217-10.47-13.15-10.47-22.05zm-1.764-10.07h0.5727v1.719h-0.5727zm-2.785 0.2827 0.3456 1.683-0.5607 0.1157-0.3459-1.684zm-3.22 0.9475 0.6761 1.58-0.5267 0.2255-0.6764-1.58zm-2.653 1.371 0.9481 1.434-0.4786 0.3164-0.9472-1.435zm-2.636 2.076 1.216 1.216-0.4054 0.405-1.216-1.216zm-2.174 2.575 1.435 0.9456-0.3151 0.4793-1.435-0.9459zm-1.606 2.948 1.595 0.639-0.2132 0.5318-1.596-0.6406zm-0.9072 2.844 1.684 0.345-0.1151 0.5607-1.684-0.344zm-0.3956 3.332h1.719v0.5736l-1.719-9.43e-4zm0.283 3.358 1.684-0.345 0.1151 0.5607-1.684 0.3459zm0.9478 3.22 1.58-0.6761 0.2255 0.5267-1.581 0.6764zm1.686 3.131-0.316-0.4783 1.435-0.9466 0.3154 0.4783zm2.166 2.565-0.405-0.4054 1.215-1.216 0.4047 0.4054zm2.648 2.084-0.4783-0.316 0.9459-1.435 0.4783 0.3145zm3 1.504-0.5318-0.2123 0.6393-1.596 0.5318 0.2123zm2.874 0.8091-0.5613-0.1148 0.3443-1.685 0.5613 0.1157zm2.368-13.88c-1.124 0-2.035-0.9107-2.035-2.035 0-0.001572 3.14e-4 -0.003459 3.14e-4 -0.005975l-7.639-6.928 0.4217-0.5107 8.805 5.463c0.144-0.03239 0.2925-0.05252 0.4465-0.05252 1.124 0 2.035 0.9117 2.035 2.035 3.15e-4 1.125-0.911 2.035-2.035 2.035z" style="fill:#030302;stroke-width:.3145"/>
 <path d="m48.9 0c-14.42 0-26.1 11.69-26.1 26.1 0 14.42 11.69 26.1 26.1 26.1 14.42 0 26.1-11.69 26.1-26.1 0-14.42-11.69-26.1-26.1-26.1zm21.86 22-2.247 0.4613-0.1531-0.7494 2.247-0.4616zm-1.264-4.297-2.109 0.9013-0.3006-0.7016 2.109-0.9022zm-20.98-13.84h0.7648v2.294h-0.7648zm-3.716 0.3777 0.4613 2.247-0.7491 0.1547-0.4616-2.247zm-4.297 1.265 0.9025 2.108-0.7025 0.3009-0.9025-2.109zm-9.959 8.035 1.915 1.264-0.4208 0.6374-1.915-1.263zm-2.144 3.932 2.129 0.8532-0.2846 0.7104-2.129-0.8541zm-1.21 3.796 2.247 0.4598-0.1535 0.7494-2.247-0.4598zm-0.5274 4.448h2.293v0.7648h-2.293zm0.377 4.482 2.247-0.4626 0.1535 0.7497-2.247 0.4623zm1.265 4.297 2.109-0.9025 0.3013 0.7025-2.109 0.9025zm2.25 4.177-0.4214-0.6381 1.914-1.264 0.4214 0.6377zm3.973-26.4-1.622-1.622 0.5399-0.5403 1.622 1.622zm2.437-4.934 1.264 1.914-0.6381 0.4208-1.264-1.914zm12.23 19.54c-0.3865 1.055-1.555 1.598-2.611 1.212-0.001573-9.43e-4 -0.00346-0.001886-0.005032-0.00283l-9.133 4.791-0.3343-0.5708 8.157-6.391c0.01918-0.1462 0.05126-0.2931 0.1041-0.4368 0.3865-1.055 1.555-1.598 2.61-1.212 1.056 0.3868 1.598 1.555 1.212 2.61zm4.078-20.24-0.7491-0.1528 0.4598-2.247 0.7491 0.1528zm3.403 1.092-0.7101-0.2846 0.8532-2.129 0.7101 0.2837zm3.523 1.93-0.6381-0.4208 1.263-1.915 0.6381 0.4204zm3.076 2.608-0.5409-0.5403 1.622-1.622 0.5409 0.5403zm3.973 1.259 0.4214 0.6381-1.914 1.264-0.4214-0.6381zm0.009748 25.13-1.915-1.264 0.4211-0.6381 1.915 1.263zm2.144-3.933-2.129-0.8532 0.2846-0.7098 2.129 0.8532zm1.21-3.796-2.247-0.4598 0.1531-0.7488 2.247 0.4591zm-1.767-4.449v-0.7648h2.294v0.7648z" style="fill:#030302;stroke-width:.3145"/>
</svg>
