<svg version="1.1" viewBox="0 0 75 52.65" xmlns="http://www.w3.org/2000/svg" xmlns:xlink="http://www.w3.org/1999/xlink">
 <defs>
  <linearGradient id="reslogo-linearGradient7732" x1="-1040" x2="-1040" y1="884.3" y2="1076" gradientTransform="matrix(.5122 0 0 .5116 -456 447.2)" gradientUnits="userSpaceOnUse">
   <stop stop-color="#141414" offset="0"/>
   <stop stop-color="#0a0a0a" offset=".15"/>
   <stop stop-color="#6d6d6d" offset=".3"/>
   <stop offset=".44"/>
   <stop stop-color="#141414" offset=".62"/>
   <stop stop-color="#262626" offset=".75"/>
   <stop stop-color="#040404" offset="1"/>
  </linearGradient>
  <linearGradient id="reslogo-linearGradientSlvr" x1="-1869" x2="-1869" y1="794.4" y2="828" gradientTransform="matrix(1.301,0,0,1.301,1365,-35.3)" gradientUnits="userSpaceOnUse">
   <stop stop-color="#696969" offset="0"/>
   <stop stop-color="#c7c7c9" offset=".17"/>
   <stop stop-color="#f9f9ff" offset=".36"/>
   <stop stop-color="#ccccce" offset=".73"/>
   <stop stop-color="#696969" offset="1"/>
  </linearGradient>
  <linearGradient id="linearGradient29067" x1="-4.542e-6" x2="41.22" y1="44.09" y2="44.09" gradientTransform="matrix(.7353 0 0 .7353 .7353 .7353)" gradientUnits="userSpaceOnUse" xlink:href="#reslogo-linearGradientSlvr"/>
  <linearGradient id="linearGradient29069" x1="30.39" x2="100" y1="34.8" y2="34.8" gradientTransform="matrix(.7353 0 0 .7353 .7353 .7353)" gradientUnits="userSpaceOnUse" xlink:href="#reslogo-linearGradientSlvr"/>
  <linearGradient id="linearGradient29073" x1="-254.2" x2="-127" y1="1273" y2="1273" gradientTransform="matrix(.5968 0 0 .5991 151.5 -736.6)" gradientUnits="userSpaceOnUse" xlink:href="#reslogo-linearGradient7732"/>
 </defs>
 <path d="m11.07 27.43 7.053 7.277c1.435-0.1876 1.787-0.4958 1.962-2.259zm26.88 4.738 9.079-7.554c1.061 0.637 2.303 1.22 1.84 2.314z" style="fill:#290a43"/>
 <path d="m20.78 26.33c0-4.123 0.9015-8.034 2.507-11.55-1.223-0.2507-2.49-0.3823-3.787-0.3823-10.36 0-18.76 8.401-18.76 18.76 0 10.36 8.401 18.76 18.76 18.76 4.355 0 8.36-1.487 11.54-3.977-6.264-5.115-10.26-12.9-10.26-21.61zm-1.729-9.874h0.5614v1.685h-0.5614zm-2.73 0.2772 0.3388 1.65-0.5497 0.1135-0.3391-1.651zm-3.157 0.9289 0.6629 1.549-0.5164 0.2211-0.6632-1.549zm-2.601 1.344 0.9295 1.406-0.4692 0.3102-0.9286-1.406zm-2.585 2.036 1.192 1.192-0.3974 0.3971-1.192-1.192zm-2.132 2.524 1.407 0.9271-0.3089 0.4699-1.407-0.9274zm-1.575 2.89 1.564 0.6265-0.209 0.5213-1.564-0.628zm-0.8895 2.788 1.651 0.3382-0.1128 0.5497-1.651-0.3373zm-0.3878 3.267h1.686v0.5623l-1.685-9.25e-4zm0.2775 3.292 1.651-0.3382 0.1128 0.5497-1.651 0.3391zm0.9292 3.157 1.549-0.6629 0.2211 0.5164-1.55 0.6632zm1.653 3.069-0.3098-0.4689 1.407-0.928 0.3092 0.4689zm2.124 2.514-0.3971-0.3974 1.192-1.192 0.3968 0.3974zm2.596 2.043-0.4689-0.3098 0.9274-1.406 0.4689 0.3083zm2.942 1.475-0.5213-0.2081 0.6268-1.564 0.5213 0.2081zm2.818 0.7933-0.5503-0.1125 0.3376-1.652 0.5503 0.1135zm2.321-13.61c-1.102 0-1.995-0.8928-1.995-1.995 0-0.001541 3.08e-4 -0.003392 3.08e-4 -0.005858l-7.489-6.793 0.4134-0.5007 8.633 5.356c0.1412-0.03176 0.2867-0.05149 0.4378-0.05149 1.102 0 1.995 0.8938 1.995 1.995 3.09e-4 1.102-0.8932 1.995-1.995 1.995z" style="fill:#290a43;stroke-width:1.471;stroke:url(#linearGradient29067)"/>
 <path d="m48.67 0.7353c-14.13 0-25.59 11.46-25.59 25.59 0 14.13 11.46 25.59 25.59 25.59 14.13 0 25.59-11.46 25.59-25.59 0-14.13-11.46-25.59-25.59-25.59zm21.43 21.57-2.203 0.4523-0.1501-0.7347 2.203-0.4526zm-1.24-4.213-2.067 0.8836-0.2947-0.6878 2.067-0.8845zm-20.57-13.57h0.7498v2.249h-0.7498zm-3.643 0.3703 0.4523 2.203-0.7344 0.1517-0.4526-2.203zm-4.213 1.24 0.8848 2.067-0.6888 0.295-0.8848-2.068zm-9.764 7.877 1.878 1.239-0.4125 0.6249-1.878-1.238zm-2.102 3.855 2.088 0.8364-0.279 0.6965-2.087-0.8374zm-1.186 3.721 2.203 0.4507-0.1505 0.7347-2.203-0.4507zm-0.517 4.361h2.248v0.7498h-2.248zm0.3697 4.394 2.203-0.4535 0.1505 0.735-2.203 0.4532zm1.24 4.213 2.067-0.8848 0.2954 0.6888-2.068 0.8848zm2.206 4.095-0.4131-0.6256 1.877-1.24 0.4131 0.6252zm3.895-25.89-1.59-1.59 0.5294-0.5297 1.591 1.59zm2.389-4.837 1.24 1.877-0.6256 0.4125-1.239-1.877zm11.99 19.16c-0.3789 1.035-1.525 1.566-2.56 1.188-0.001542-9.25e-4 -0.003392-0.00185-0.004934-0.002774l-8.954 4.697-0.3277-0.5596 7.997-6.265c0.01881-0.1434 0.05025-0.2873 0.102-0.4282 0.3789-1.035 1.525-1.567 2.559-1.188 1.035 0.3792 1.567 1.525 1.188 2.559zm3.998-19.84-0.7344-0.1498 0.4507-2.203 0.7344 0.1498zm3.336 1.071-0.6962-0.279 0.8364-2.088 0.6962 0.2781zm3.454 1.892-0.6256-0.4125 1.238-1.878 0.6256 0.4122zm3.016 2.556-0.5303-0.5297 1.59-1.59 0.5303 0.5297zm3.895 1.234 0.4131 0.6256-1.877 1.24-0.4131-0.6256zm0.009558 24.64-1.878-1.239 0.4128-0.6256 1.877 1.238zm2.102-3.856-2.088-0.8364 0.279-0.6958 2.087 0.8364zm1.187-3.721-2.203-0.4507 0.1501-0.7341 2.203 0.4501zm-1.732-4.361v-0.7498h2.249v0.7498z" style="fill:#290a43;stroke-width:1.471;stroke:url(#linearGradient29069)"/>
 <path d="m20.78 26.33c0-4.123 0.9015-8.034 2.507-11.55-1.223-0.2507-2.49-0.3823-3.787-0.3823-10.36 0-18.76 8.401-18.76 18.76 0 10.36 8.401 18.76 18.76 18.76 4.355 0 8.36-1.487 11.54-3.977-6.264-5.115-10.26-12.9-10.26-21.61zm-1.729-9.874h0.5614v1.685h-0.5614zm-2.73 0.2772 0.3388 1.65-0.5497 0.1135-0.3391-1.651zm-3.157 0.9289 0.6629 1.549-0.5164 0.2211-0.6632-1.549zm-2.601 1.344 0.9295 1.406-0.4692 0.3102-0.9286-1.406zm-2.585 2.036 1.192 1.192-0.3974 0.3971-1.192-1.192zm-2.132 2.524 1.407 0.9271-0.3089 0.4699-1.407-0.9274zm-1.575 2.89 1.564 0.6265-0.209 0.5213-1.564-0.628zm-0.8895 2.788 1.651 0.3382-0.1128 0.5497-1.651-0.3373zm-0.3878 3.267h1.686v0.5623l-1.685-9.25e-4zm0.2775 3.292 1.651-0.3382 0.1128 0.5497-1.651 0.3391zm0.9292 3.157 1.549-0.6629 0.2211 0.5164-1.55 0.6632zm1.653 3.069-0.3098-0.4689 1.407-0.928 0.3092 0.4689zm2.124 2.514-0.3971-0.3974 1.192-1.192 0.3968 0.3974zm2.596 2.043-0.4689-0.3098 0.9274-1.406 0.4689 0.3083zm2.942 1.475-0.5213-0.2081 0.6268-1.564 0.5213 0.2081zm2.818 0.7933-0.5503-0.1125 0.3376-1.652 0.5503 0.1135zm2.321-13.61c-1.102 0-1.995-0.8928-1.995-1.995 0-0.001542 3.08e-4 -0.003392 3.08e-4 -0.005859l-7.489-6.793 0.4134-0.5007 8.633 5.356c0.1412-0.03176 0.2867-0.05149 0.4378-0.05149 1.102 0 1.995 0.8938 1.995 1.995 3.09e-4 1.102-0.8932 1.995-1.995 1.995z" style="fill:url(#linearGradient29073);stroke-width:2.786"/>
 <path d="m48.67 0.7353c-14.13 0-25.59 11.46-25.59 25.59 0 14.13 11.46 25.59 25.59 25.59 14.13 0 25.59-11.46 25.59-25.59 0-14.13-11.46-25.59-25.59-25.59zm21.43 21.57-2.203 0.4523-0.1501-0.7347 2.203-0.4526zm-1.24-4.213-2.067 0.8836-0.2947-0.6878 2.067-0.8845zm-20.57-13.57h0.7498v2.249h-0.7498zm-3.643 0.3703 0.4523 2.203-0.7344 0.1517-0.4526-2.203zm-4.213 1.24 0.8848 2.067-0.6888 0.295-0.8848-2.068zm-9.764 7.877 1.878 1.239-0.4125 0.6249-1.878-1.238zm-2.102 3.855 2.088 0.8364-0.279 0.6965-2.087-0.8374zm-1.186 3.721 2.203 0.4507-0.1505 0.7347-2.203-0.4507zm-0.517 4.361h2.248v0.7498h-2.248zm0.3697 4.394 2.203-0.4535 0.1505 0.735-2.203 0.4532zm1.24 4.213 2.067-0.8848 0.2954 0.6888-2.068 0.8848zm2.206 4.095-0.4131-0.6256 1.877-1.24 0.4131 0.6252zm3.895-25.89-1.59-1.59 0.5294-0.5297 1.591 1.59zm2.389-4.837 1.24 1.877-0.6256 0.4125-1.239-1.877zm11.99 19.16c-0.3789 1.035-1.525 1.566-2.56 1.188-0.001542-9.25e-4 -0.003392-0.00185-0.004934-0.002775l-8.954 4.697-0.3277-0.5596 7.997-6.265c0.01881-0.1434 0.05025-0.2873 0.102-0.4282 0.3789-1.035 1.525-1.567 2.559-1.188 1.035 0.3792 1.567 1.525 1.188 2.559zm3.998-19.84-0.7344-0.1498 0.4507-2.203 0.7344 0.1498zm3.336 1.071-0.6962-0.279 0.8364-2.088 0.6962 0.2781zm3.454 1.892-0.6255-0.4125 1.238-1.878 0.6256 0.4122zm3.016 2.556-0.5303-0.5297 1.59-1.59 0.5303 0.5297zm3.895 1.234 0.4131 0.6256-1.877 1.24-0.4131-0.6256zm0.009557 24.64-1.878-1.239 0.4128-0.6255 1.877 1.238zm2.102-3.856-2.088-0.8364 0.279-0.6958 2.087 0.8364zm1.187-3.721-2.203-0.4507 0.1501-0.7341 2.203 0.4501zm-1.732-4.361v-0.7498h2.249v0.7498z" style="fill:url(#linearGradient29073);stroke-width:2.786"/>
</svg>
