<?xml version="1.0" encoding="UTF-8" standalone="no"?>
<svg xmlns:dc="http://purl.org/dc/elements/1.1/" xmlns:cc="http://creativecommons.org/ns#" xmlns:rdf="http://www.w3.org/1999/02/22-rdf-syntax-ns#" xmlns:svg="http://www.w3.org/2000/svg" xmlns="http://www.w3.org/2000/svg" xmlns:xlink="http://www.w3.org/1999/xlink" xmlns:sodipodi="http://sodipodi.sourceforge.net/DTD/sodipodi-0.dtd" xmlns:inkscape="http://www.inkscape.org/namespaces/inkscape" version="1.1" id="svg355" sodipodi:docname="i17a.svg" inkscape:version="0.92.2 (5c3e80d, 2017-08-06)">
  <metadata id="metadata359">
    <rdf:RDF>
      <cc:Work rdf:about="">
        <dc:format>image/svg+xml</dc:format>
        <dc:type rdf:resource="http://purl.org/dc/dcmitype/StillImage" />
        <dc:title></dc:title>
      </cc:Work>
    </rdf:RDF>
  </metadata>
  <sodipodi:namedview pagecolor="#ffffff" bordercolor="#666666" borderopacity="1" objecttolerance="10" gridtolerance="10" guidetolerance="10" inkscape:pageopacity="0" inkscape:pageshadow="2" inkscape:window-width="2560" inkscape:window-height="1001" id="namedview357" showgrid="false" fit-margin-top="0" fit-margin-left="0" fit-margin-right="0" fit-margin-bottom="0" inkscape:zoom="6.1951826" inkscape:cx="33.592074" inkscape:cy="23.727582" inkscape:window-x="-9" inkscape:window-y="41" inkscape:window-maximized="1" inkscape:current-layer="svg355" inkscape:snap-global="false" />
  <defs id="defs4543">
    <linearGradient id="reslogo-linearGradient4678" y2="1273.4827" xlink:href="#reslogo-linearGradient7732" gradientUnits="userSpaceOnUse" x2="-127.02927" gradientTransform="matrix(1.9356804,0,0,1.94308,1024.0551,-1708.6573)" y1="1273.4827" x1="-254.15889" />
    <linearGradient id="reslogo-linearGradient7732" y2="1076" gradientUnits="userSpaceOnUse" x2="-1040" gradientTransform="matrix(0.5122,0,0,0.5116,-456,447.2)" y1="884.29999" x1="-1040">
      <stop id="reslogo-stop4444" stop-color="#141414" offset="0" />
      <stop id="reslogo-stop4446" stop-color="#0a0a0a" offset=".15" />
      <stop id="reslogo-stop4448" stop-color="#6d6d6d" offset=".3" />
      <stop id="reslogo-stop4450" offset=".44" />
      <stop id="reslogo-stop4452" stop-color="#141414" offset=".62" />
      <stop id="reslogo-stop4454" stop-color="#262626" offset=".75" />
      <stop id="reslogo-stop4456" stop-color="#040404" offset="1" />
    </linearGradient>
    <linearGradient id="reslogo-linearGradient5862" x1="-1462.4771" xlink:href="#reslogo-linearGradientSlvr" gradientUnits="userSpaceOnUse" x2="-1462.4771" gradientTransform="matrix(3.7829288,0,0,3.8170356,5531.411,-6803.2231)" y1="1782.1689" y2="1801.3411" />
    <linearGradient id="reslogo-linearGradientSlvr" y2="828" gradientUnits="userSpaceOnUse" x2="-1869" gradientTransform="matrix(1.301,0,0,1.301,1365,-35.3)" y1="794.40002" x1="-1869">
      <stop id="reslogo-stop4422" stop-color="#696969" offset="0" />
      <stop id="reslogo-stop4424" stop-color="#c7c7c9" offset=".17" />
      <stop id="reslogo-stop4426" stop-color="#f9f9ff" offset=".36" />
      <stop id="reslogo-stop4428" stop-color="#ccccce" offset=".73" />
      <stop id="reslogo-stop4430" stop-color="#696969" offset="1" />
    </linearGradient>
    <linearGradient inkscape:collect="always" xlink:href="#reslogo-linearGradientSlvr" id="linearGradient29067" x1="-4.5423999e-006" y1="44.088158" x2="41.219975" y2="44.088158" gradientUnits="userSpaceOnUse" gradientTransform="matrix(0.98039216,0,0,0.98039216,0.98039657,0.98039386)" />
    <linearGradient inkscape:collect="always" xlink:href="#reslogo-linearGradientSlvr" id="linearGradient29069" x1="30.392538" y1="34.803936" x2="99.999992" y2="34.803936" gradientUnits="userSpaceOnUse" gradientTransform="matrix(0.98039216,0,0,0.98039216,0.98039657,0.98039386)" />
    <linearGradient inkscape:collect="always" xlink:href="#reslogo-linearGradient7732" id="linearGradient29073" gradientUnits="userSpaceOnUse" gradientTransform="matrix(1.9356804,0,0,1.94308,1024.0551,-1708.6573)" x1="-254.15889" y1="1273.4827" x2="-127.02927" y2="1273.4827" />
    <linearGradient inkscape:collect="always" xlink:href="#reslogo-linearGradient7732" id="linearGradient29075" gradientUnits="userSpaceOnUse" gradientTransform="matrix(1.9356804,0,0,1.94308,1024.0551,-1708.6573)" x1="-254.15889" y1="1273.4827" x2="-127.02927" y2="1273.4827" />
  </defs>
  <path style="fill:#290a43;fill-opacity:1;stroke:none;stroke-width:0.98039216px;stroke-linecap:butt;stroke-linejoin:miter;stroke-opacity:1" d="M 14.755905,36.579759 24.159815,46.282107 C 26.07251,46.03198 26.543093,45.621066 26.775267,43.270286 Z M 50.593092,42.897098 62.698181,32.825738 C 64.113366,33.675101 65.769192,34.452272 65.151068,35.911627 Z" id="path29071" inkscape:connector-curvature="0" sodipodi:nodetypes="cccccccc" />
  <path style="opacity:1;fill:#290a43;fill-opacity:1;stroke:url(#linearGradient29067);stroke-width:1.96078432;stroke-linecap:butt;stroke-linejoin:miter;stroke-miterlimit:4;stroke-dasharray:none;stroke-dashoffset:0;stroke-opacity:1" inkscape:connector-curvature="0" id="path32899" d="M 27.706289,35.101489 C 27.706289,29.604624 28.908267,24.389754 31.049545,19.694892 29.418408,19.36069 27.729721,19.185162 25.999926,19.185162 12.181715,19.185162 0.98039216,30.386895 0.98039216,44.204284 0.98039216,58.021263 12.181715,69.222996 25.999926,69.222996 31.806329,69.222996 37.146576,67.240392 41.392136,63.920569 33.040781,57.100871 27.706289,46.725805 27.706289,35.101489 Z M 25.400582,21.936472 H 26.149146 V 24.183396 H 25.400582 Z M 21.760122,22.306026 22.211891,24.506499 21.478948,24.657774 21.026768,22.456479 Z M 17.551148,23.544588 18.434954,25.610229 17.746407,25.904969 16.862189,23.84015 Z M 14.082926,25.336455 15.322311,27.211358 14.696658,27.624897 13.458507,25.749583 Z M 10.636903,28.050769 12.226522,29.640387 11.696649,30.169849 10.107441,28.580641 Z M 7.7947457,31.416632 9.6708819,32.652728 9.258987,33.279203 7.3828507,32.042696 Z M 5.6949859,35.269618 7.7803581,36.104918 7.5016508,36.800041 5.4158675,35.962686 Z M 4.5090409,38.98736 6.7107468,39.438307 6.5602941,40.171249 4.3589993,39.721536 Z M 3.9919114,43.343087 H 6.2392463 V 44.092884 L 3.9927334,44.091651 Z M 4.3618769,47.732933 6.5635826,47.281986 6.7140353,48.014929 4.5127406,48.46711 Z M 5.6008502,51.942319 7.666491,51.058512 7.9612301,51.747059 5.8951783,52.631276 Z M 7.8050225,56.034548 7.3918943,55.409307 9.2676194,54.171977 9.6799255,54.79722 Z M 10.636903,59.386847 10.107441,58.856974 11.696238,57.267767 12.225288,57.797639 Z M 14.098136,62.111026 13.472894,61.697898 14.709401,59.822584 15.334643,60.233657 Z M 18.020181,64.077187 17.325058,63.799713 18.160769,61.713929 18.855892,61.991404 Z M 21.776975,65.134877 21.043211,64.984836 21.493335,62.782308 22.227101,62.933582 Z M 24.871943,46.994235 C 23.402769,46.994235 22.211891,45.803769 22.211891,44.333773 22.211891,44.331718 22.212302,44.329251 22.212302,44.325962 L 12.226522,35.269207 12.777771,34.601625 24.287809,41.74237 C 24.476079,41.700029 24.670106,41.673721 24.871531,41.673721 26.340295,41.673721 27.531583,42.865421 27.531583,44.333773 27.531995,45.803769 26.340706,46.994235 24.871943,46.994235 Z" />
  <path style="opacity:1;fill:#290a43;fill-opacity:1;stroke:url(#linearGradient29069);stroke-width:1.96078432;stroke-linecap:butt;stroke-linejoin:miter;stroke-miterlimit:4;stroke-dasharray:none;stroke-dashoffset:0;stroke-opacity:1" inkscape:connector-curvature="0" id="path32901" d="M 64.898511,0.98039216 C 46.053701,0.98039216 30.777003,16.257501 30.777003,35.1019 30.777003,53.94671 46.053701,69.223408 64.898511,69.223408 83.74291,69.223408 99.019608,53.94671 99.019608,35.1019 99.019608,16.257501 83.74291,0.98039216 64.898511,0.98039216 Z M 93.47218,29.744799 90.534654,30.347843 90.334462,29.368257 93.271576,28.764802 Z M 91.819257,24.127901 89.062602,25.306035 88.669617,24.388932 91.42586,23.209565 Z M 64.398646,6.0349431 H 65.398375 V 9.03413 H 64.398646 Z M 59.541411,6.5286416 60.144454,9.465346 59.165278,9.667593 58.561824,6.7300673 Z M 53.924101,8.1823874 55.103879,10.937809 54.185543,11.331205 53.005764,8.5741397 Z M 40.905425,18.685297 43.408859,20.336987 42.858843,21.170232 40.355411,19.519364 Z M 38.102731,23.825763 40.886105,24.941003 40.514084,25.869617 37.731122,24.753142 Z M 36.520924,28.787411 39.458449,29.388399 39.257846,30.367985 36.32032,29.766997 Z M 35.831554,34.602035 H 38.829508 V 35.601765 H 35.831554 Z M 36.32443,40.460233 39.261957,39.855546 39.46256,40.835543 36.525445,41.439821 Z M 37.977766,46.077132 40.73442,44.897353 41.128227,45.81569 38.371162,46.995469 Z M 40.91858,51.537412 40.367742,50.703345 42.869942,49.050422 43.42078,49.884077 Z M 46.111663,17.021275 43.99176,14.900961 44.697573,14.194738 46.818297,16.315052 Z M 49.297066,10.571542 50.949989,13.074154 50.115923,13.624169 48.46341,11.121558 Z M 65.280397,36.116838 C 64.775189,37.496399 63.247642,38.205088 61.867672,37.701113 61.865616,37.69988 61.863149,37.698647 61.861094,37.697414 L 49.922307,43.959696 49.485337,43.213599 60.148154,34.859778 C 60.173229,34.668629 60.215159,34.476658 60.284219,34.288798 60.789427,32.909237 62.316974,32.199315 63.696534,32.704524 65.076917,33.210143 65.785606,34.737689 65.280397,36.116838 Z M 70.6116,9.661838 69.632425,9.462057 70.233414,6.5245309 71.212589,6.7243123 Z M 75.059408,11.089905 74.131206,10.717884 75.246446,7.9345105 76.174648,8.3052981 Z M 79.664245,13.612659 78.830178,13.062644 80.481047,10.55921 81.315114,11.108815 Z M 83.685359,17.021275 82.978314,16.315052 85.098627,14.194738 85.805673,14.900961 Z M 88.878442,18.666388 89.429279,19.500455 86.926669,21.153378 86.37583,20.319312 Z M 88.891185,51.519325 86.387752,49.867634 86.938178,49.033568 89.4412,50.684436 Z M 91.69429,46.378037 88.910917,45.262797 89.282937,44.335006 92.0659,45.450246 Z M 93.27651,41.416389 90.338983,40.815401 90.539175,39.836636 93.476702,40.436803 Z M 90.967103,35.601353 V 34.601625 H 93.965468 V 35.601353 Z" />
  <g inkscape:label="b&amp;w_gauges" id="g28450" transform="matrix(0.41107278,0,0,0.41107278,-218.93944,-279.68778)" style="display:inline;opacity:1;fill:url(#reslogo-linearGradient4678);fill-opacity:1;stroke-width:9.03562546;stroke-linecap:butt;stroke-linejoin:miter;stroke-miterlimit:4;stroke-dasharray:none;stroke-dashoffset:0;stroke-opacity:1">
    <path style="fill:url(#linearGradient29073);fill-opacity:1;stroke-width:9.03562546;stroke-linecap:butt;stroke-linejoin:miter;stroke-miterlimit:4;stroke-dasharray:none;stroke-dashoffset:0;stroke-opacity:1" inkscape:connector-curvature="0" id="path28446" d="M 600.005,765.775 C 600.005,752.403 602.929,739.717 608.138,728.296 604.17,727.483 600.062,727.056 595.854,727.056 562.239,727.056 534.99,754.306 534.99,787.919 534.99,821.531 562.239,848.781 595.854,848.781 609.979,848.781 622.97,843.958 633.298,835.882 612.982,819.292 600.005,794.053 600.005,765.775 Z M 594.396,733.749 H 596.217 V 739.215 H 594.396 Z M 585.54,734.648 586.639,740.001 584.856,740.369 583.756,735.014 Z M 575.301,737.661 577.451,742.686 575.776,743.403 573.625,738.38 Z M 566.864,742.02 569.879,746.581 568.357,747.587 565.345,743.025 Z M 558.481,748.623 562.348,752.49 561.059,753.778 557.193,749.912 Z M 551.567,756.811 556.131,759.818 555.129,761.342 550.565,758.334 Z M 546.459,766.184 551.532,768.216 550.854,769.907 545.78,767.87 Z M 543.574,775.228 548.93,776.325 548.564,778.108 543.209,777.014 Z M 542.316,785.824 H 547.783 V 787.648 L 542.318,787.645 Z M 543.216,796.503 548.572,795.406 548.938,797.189 543.583,798.289 Z M 546.23,806.743 551.255,804.593 551.972,806.268 546.946,808.419 Z M 551.592,816.698 550.587,815.177 555.15,812.167 556.153,813.688 Z M 558.481,824.853 557.193,823.564 561.058,819.698 562.345,820.987 Z M 566.901,831.48 565.38,830.475 568.388,825.913 569.909,826.913 Z M 576.442,836.263 574.751,835.588 576.784,830.514 578.475,831.189 Z M 585.581,838.836 583.796,838.471 584.891,833.113 586.676,833.481 Z M 593.11,794.706 C 589.536,794.706 586.639,791.81 586.639,788.234 586.639,788.229 586.64,788.223 586.64,788.215 L 562.348,766.183 563.689,764.559 591.689,781.93 C 592.147,781.827 592.619,781.763 593.109,781.763 596.682,781.763 599.58,784.662 599.58,788.234 599.581,791.81 596.683,794.706 593.11,794.706 Z" />
    <path style="fill:url(#linearGradient29075);fill-opacity:1;stroke-width:9.03562546;stroke-linecap:butt;stroke-linejoin:miter;stroke-miterlimit:4;stroke-dasharray:none;stroke-dashoffset:0;stroke-opacity:1" inkscape:connector-curvature="0" id="path28448" d="M 690.481,682.77 C 644.638,682.77 607.475,719.934 607.475,765.776 607.475,811.619 644.638,848.782 690.481,848.782 736.323,848.782 773.486,811.619 773.486,765.776 773.486,719.934 736.323,682.77 690.481,682.77 Z M 759.991,752.744 752.845,754.211 752.358,751.828 759.503,750.36 Z M 755.97,739.08 749.264,741.946 748.308,739.715 755.013,736.846 Z M 689.265,695.066 H 691.697 V 702.362 H 689.265 Z M 677.449,696.267 678.916,703.411 676.534,703.903 675.066,696.757 Z M 663.784,700.29 666.654,706.993 664.42,707.95 661.55,701.243 Z M 632.114,725.84 638.204,729.858 636.866,731.885 630.776,727.869 Z M 625.296,738.345 632.067,741.058 631.162,743.317 624.392,740.601 Z M 621.448,750.415 628.594,751.877 628.106,754.26 620.96,752.798 Z M 619.771,764.56 H 627.064 V 766.992 H 619.771 Z M 620.97,778.811 628.116,777.34 628.604,779.724 621.459,781.194 Z M 624.992,792.475 631.698,789.605 632.656,791.839 625.949,794.709 Z M 632.146,805.758 630.806,803.729 636.893,799.708 638.233,801.736 Z M 644.779,721.792 639.622,716.634 641.339,714.916 646.498,720.074 Z M 652.528,706.102 656.549,712.19 654.52,713.528 650.5,707.44 Z M 691.41,768.245 C 690.181,771.601 686.465,773.325 683.108,772.099 683.103,772.096 683.097,772.093 683.092,772.09 L 654.049,787.324 652.986,785.509 678.925,765.187 C 678.986,764.722 679.088,764.255 679.256,763.798 680.485,760.442 684.201,758.715 687.557,759.944 690.915,761.174 692.639,764.89 691.41,768.245 Z M 704.379,703.889 701.997,703.403 703.459,696.257 705.841,696.743 Z M 715.199,707.363 712.941,706.458 715.654,699.687 717.912,700.589 Z M 726.401,713.5 724.372,712.162 728.388,706.072 730.417,707.409 Z M 736.183,721.792 734.463,720.074 739.621,714.916 741.341,716.634 Z M 748.816,725.794 750.156,727.823 744.068,731.844 742.728,729.815 Z M 748.847,805.714 742.757,801.696 744.096,799.667 750.185,803.683 Z M 755.666,793.207 748.895,790.494 749.8,788.237 756.57,790.95 Z M 759.515,781.137 752.369,779.675 752.856,777.294 760.002,778.754 Z M 753.897,766.991 V 764.559 H 761.191 V 766.991 Z" />
  </g>
</svg>
