<svg version="1.1" viewBox="0 0 75 75" xmlns="http://www.w3.org/2000/svg">
 <path d="m67.5 0h-60c-4.125 0-7.5 3.375-7.5 7.5v60c0 4.125 3.375 7.5 7.5 7.5h60c4.125 0 7.5-3.375 7.5-7.5v-60c0-4.125-3.375-7.5-7.5-7.5" style="fill:#0071bc"/>
 <path d="m19.11 55.89 19.11 19.11h29.27c4.125 0 7.5-3.375 7.5-7.5v-29.27l-19.11-19.11s-19.15-15.66-35.54 0.7298-1.23 36.04-1.23 36.04" style="fill:#231f20;opacity:.2045"/>
 <path d="m55.21 51.98c-1.729-1.239-3.639-2.274-5.686-3.094 1.402-2.976 2.436-6.291 2.678-9.816h8.123c-0.3315 4.878-2.193 9.342-5.115 12.91m-13.41 8c1.878-1.999 4.241-4.846 6.246-8.293 1.802 0.6934 3.481 1.565 4.99 2.597-3.081 2.857-6.948 4.876-11.24 5.696m-2.743-10.17c2.022 0.1039 4.005 0.4065 5.9 0.8921-1.949 3.198-4.205 5.824-5.9 7.59zm0-10.74 9.998-3.75e-4c-0.2524 3.127-1.23 6.101-2.54 8.79-2.367-0.6682-4.873-1.067-7.458-1.183zm-3.75e-4 -10.74c2.587-0.1155 5.095-0.5156 7.464-1.184 1.308 2.687 2.283 5.662 2.534 8.792l-9.998 3.75e-4zm3.75e-4 -11.62c1.696 1.765 3.955 4.392 5.906 7.594-1.897 0.4864-3.881 0.7898-5.906 0.8932zm13.98 4.016c-1.509 1.032-3.189 1.904-4.99 2.597-2.005-3.447-4.369-6.295-6.246-8.293 4.288 0.8201 8.155 2.838 11.24 5.696m7.284 15.21h-8.123c-0.2422-3.525-1.276-6.84-2.678-9.817 2.048-0.8201 3.958-1.856 5.686-3.094 2.922 3.568 4.784 8.033 5.115 12.91m-24.39-10.74c-2.022-0.1031-4.004-0.4058-5.899-0.8918 1.949-3.198 4.205-5.824 5.899-7.59zm0 10.74h-9.998c0.2528-3.136 1.234-6.117 2.55-8.812 2.379 0.6742 4.888 1.082 7.447 1.202zm0 10.74c-2.587 0.1159-5.095 0.5152-7.464 1.185-1.308-2.687-2.283-5.661-2.534-8.792l9.998-3.75e-4zm0 11.62c-1.696-1.765-3.956-4.392-5.906-7.594 1.897-0.4871 3.882-0.7905 5.906-0.8944zm-13.98-4.016c1.509-1.032 3.188-1.904 4.989-2.598 2.005 3.447 4.369 6.294 6.246 8.292-4.288-0.8201-8.154-2.838-11.24-5.695m-7.284-15.21h8.123c0.2419 3.525 1.276 6.839 2.678 9.816-2.047 0.8209-3.957 1.857-5.686 3.095-2.922-3.568-4.784-8.032-5.115-12.91m5.116-16.04c1.716 1.223 3.634 2.254 5.694 3.076-1.407 2.982-2.445 6.304-2.688 9.837h-8.123c0.3311-4.879 2.194-9.344 5.116-12.91m13.4-7.997c-1.877 1.998-4.241 4.845-6.246 8.293-1.801-0.6938-3.481-1.566-4.989-2.597 3.082-2.857 6.948-4.875 11.24-5.696m4.308-3.541h-0.002625c-14.34 7.5e-4 -26.01 11.67-26.01 26.02s11.67 26.01 26.02 26.01 26.01-11.67 26.02-26.01c-3.75e-4 -14.34-11.67-26.01-26.01-26.02" style="fill:#ace1fa"/>
 <path d="m47.8 33.32c1.971 1.959 3.678 4.238 4.915 6.728 1.241 2.489 2.022 5.216 2.148 7.968 0.1369 2.748-0.4148 5.494-1.563 7.891-1.142 2.405-2.839 4.446-4.787 6.095 1.656-1.945 2.94-4.178 3.618-6.543 0.6855-2.362 0.7489-4.829 0.2482-7.137-0.4942-2.314-1.525-4.468-2.89-6.354-1.371-1.892-3.057-3.507-4.959-4.858z" style="fill:#dcddde"/>
 <path d="m48.32 19.86-1.378-0.9994c-0.1376-0.1001-0.3772-0.1241-0.5314-0.05325l-3.966 1.813c-0.3075-0.2719-0.6885-0.5588-0.7762-0.5509-0.3791 0.03225-1.034 0.81-1.002 1.188 0.00225 0.02625 0.03525 0.07462 0.0885 0.1354l-0.8498 0.3885c-0.3109-0.2782-0.7099-0.5805-0.8006-0.5726-0.3784 0.03188-1.034 0.8096-1.002 1.188 0.002626 0.02962 0.04388 0.08662 0.1088 0.1582l-2.051 0.9382c-0.6293-0.5542-1.266-1.104-1.905-1.642-2.828-2.383-5.2-2.896-6.104-1.824l18.79 15.83c0.171-0.2036 0.06975-0.6251-0.2535-1.213l2.326-1.801c0.1376-0.09975 0.1384-0.2629 3.75e-4 -0.3626l-1.024-0.7005c-0.1376-0.09975-0.3765-0.1238-0.5314-0.05288l-2.132 0.9829c-1.358-1.689-3.426-3.866-5.806-6.137l8.799-6.353c0.1376-0.099 0.138-0.2625 3.75e-4 -0.3622" style="fill:#bcbec0"/>
 <path d="m31.41 39.94-1.219-1.189c-0.1215-0.1189-0.1856-0.3506-0.1421-0.5145l1.114-4.216c-0.3202-0.2565-0.6675-0.5839-0.675-0.672-0.03262-0.3788 0.6229-1.157 1.001-1.189 0.02625-0.001875 0.0795 0.0225 0.1485 0.0645l0.2385-0.9034c-0.3266-0.2595-0.6922-0.6015-0.7005-0.6922-0.03188-0.3784 0.6232-1.156 1.002-1.188 0.02925-0.00225 0.09262 0.0285 0.1751 0.081l0.576-2.181c-0.6529-0.5258-1.302-1.06-1.941-1.599-2.828-2.382-3.736-4.634-2.833-5.706l18.79 15.83c-0.1718 0.2036-0.6038 0.1748-1.238-0.04425l-1.381 2.598c-0.07462 0.1526-0.2351 0.1804-0.357 0.0615l-0.864-0.8899c-0.1219-0.1189-0.186-0.3502-0.1421-0.5149l0.6068-2.267c-1.894-1.052-4.392-2.721-7.034-4.681l-4.768 9.748c-0.07462 0.153-0.2355 0.1808-0.3574 0.06225" style="fill:#a7a9ac"/>
</svg>
