<svg version="1.1" viewBox="0 0 75 75" xmlns="http://www.w3.org/2000/svg">
 <defs>
  <filter id="filter5315" x="-.02454" y="-.02349" width="1.049" height="1.047" style="color-interpolation-filters:sRGB">
   <feGaussianBlur stdDeviation="0.26068474"/>
  </filter>
  <filter id="filter5321" x="-.02178" y="-.02672" width="1.044" height="1.053" style="color-interpolation-filters:sRGB">
   <feGaussianBlur stdDeviation="0.25371695"/>
  </filter>
  <filter id="filter5327" x="-.04524" y="-.01633" width="1.09" height="1.033" style="color-interpolation-filters:sRGB">
   <feGaussianBlur stdDeviation="0.26023166"/>
  </filter>
 </defs>
 <path d="m67.5 0h-60c-4.125 0-7.5 3.375-7.5 7.5v60c0 4.125 3.375 7.5 7.5 7.5h60c4.125 0 7.5-3.375 7.5-7.5v-60c0-4.125-3.375-7.5-7.5-7.5" style="fill:#0071bc"/>
 <path d="m19.11 55.89 19.11 19.11h29.27c4.125 0 7.5-3.375 7.5-7.5v-29.27l-19.11-19.11s-19.15-15.66-35.54 0.7298-1.23 36.04-1.23 36.04" style="fill:#231f20;opacity:.2695"/>
 <path d="m55.59 52.43c-1.729-1.239-3.639-2.274-5.686-3.094 1.402-2.976 2.436-6.291 2.678-9.816h8.123c-0.3315 4.878-2.193 9.342-5.115 12.91m-13.41 8c1.878-1.999 4.241-4.846 6.246-8.293 1.802 0.6934 3.481 1.565 4.99 2.597-3.081 2.857-6.948 4.876-11.24 5.696m-2.743-10.17c2.022 0.1039 4.005 0.4065 5.9 0.8921-1.949 3.198-4.205 5.824-5.9 7.59zm0-10.74 9.998-3.75e-4c-0.2524 3.127-1.23 6.101-2.54 8.79-2.367-0.6682-4.873-1.067-7.458-1.183zm-3.75e-4 -10.74c2.587-0.1155 5.095-0.5156 7.464-1.184 1.308 2.687 2.283 5.662 2.534 8.792l-9.998 3.75e-4zm3.75e-4 -11.62c1.696 1.765 3.955 4.392 5.906 7.594-1.897 0.4864-3.881 0.7898-5.906 0.8932zm13.98 4.016c-1.509 1.032-3.189 1.904-4.99 2.597-2.005-3.447-4.369-6.295-6.246-8.293 4.288 0.8201 8.155 2.838 11.24 5.696m7.284 15.21h-8.123c-0.2422-3.525-1.276-6.84-2.678-9.817 2.048-0.8201 3.958-1.856 5.686-3.094 2.922 3.568 4.784 8.033 5.115 12.91m-24.39-10.74c-2.022-0.1031-4.004-0.4058-5.899-0.8918 1.949-3.198 4.205-5.824 5.899-7.59zm0 10.74h-9.998c0.2528-3.136 1.234-6.117 2.55-8.812 2.379 0.6742 4.888 1.082 7.447 1.202zm0 10.74c-2.587 0.1159-5.095 0.5152-7.464 1.185-1.308-2.687-2.283-5.661-2.534-8.792l9.998-3.75e-4zm0 11.62c-1.696-1.765-3.956-4.392-5.906-7.594 1.897-0.4871 3.882-0.7905 5.906-0.8944zm-13.98-4.016c1.509-1.032 3.188-1.904 4.989-2.598 2.005 3.447 4.369 6.294 6.246 8.292-4.288-0.8201-8.154-2.838-11.24-5.695m-7.284-15.21h8.123c0.2419 3.525 1.276 6.839 2.678 9.816-2.047 0.8209-3.957 1.857-5.686 3.095-2.922-3.568-4.784-8.032-5.115-12.91m5.116-16.04c1.716 1.223 3.634 2.254 5.694 3.076-1.407 2.982-2.445 6.304-2.688 9.837h-8.123c0.3311-4.879 2.194-9.344 5.116-12.91m13.4-7.997c-1.877 1.998-4.241 4.845-6.246 8.293-1.801-0.6938-3.481-1.566-4.989-2.597 3.082-2.857 6.948-4.875 11.24-5.696m4.308-3.541h-0.002625c-14.34 7.5e-4 -26.01 11.67-26.01 26.02s11.67 26.01 26.02 26.01 26.01-11.67 26.02-26.01c-3.75e-4 -14.34-11.67-26.01-26.01-26.02" style="fill:#000000;opacity:.65"/>
 <path d="m55.21 51.98c-1.729-1.239-3.639-2.274-5.686-3.094 1.402-2.976 2.436-6.291 2.678-9.816h8.123c-0.3315 4.878-2.193 9.342-5.115 12.91m-13.41 8c1.878-1.999 4.241-4.846 6.246-8.293 1.802 0.6934 3.481 1.565 4.99 2.597-3.081 2.857-6.948 4.876-11.24 5.696m-2.743-10.17c2.022 0.1039 4.005 0.4065 5.9 0.8921-1.949 3.198-4.205 5.824-5.9 7.59zm0-10.74 9.998-3.75e-4c-0.2524 3.127-1.23 6.101-2.54 8.79-2.367-0.6682-4.873-1.067-7.458-1.183zm-3.75e-4 -10.74c2.587-0.1155 5.095-0.5156 7.464-1.184 1.308 2.687 2.283 5.662 2.534 8.792l-9.998 3.75e-4zm3.75e-4 -11.62c1.696 1.765 3.955 4.392 5.906 7.594-1.897 0.4864-3.881 0.7898-5.906 0.8932zm13.98 4.016c-1.509 1.032-3.189 1.904-4.99 2.597-2.005-3.447-4.369-6.295-6.246-8.293 4.288 0.8201 8.155 2.838 11.24 5.696m7.284 15.21h-8.123c-0.2422-3.525-1.276-6.84-2.678-9.817 2.048-0.8201 3.958-1.856 5.686-3.094 2.922 3.568 4.784 8.033 5.115 12.91m-24.39-10.74c-2.022-0.1031-4.004-0.4058-5.899-0.8918 1.949-3.198 4.205-5.824 5.899-7.59zm0 10.74h-9.998c0.2528-3.136 1.234-6.117 2.55-8.812 2.379 0.6742 4.888 1.082 7.447 1.202zm0 10.74c-2.587 0.1159-5.095 0.5152-7.464 1.185-1.308-2.687-2.283-5.661-2.534-8.792l9.998-3.75e-4zm0 11.62c-1.696-1.765-3.956-4.392-5.906-7.594 1.897-0.4871 3.882-0.7905 5.906-0.8944zm-13.98-4.016c1.509-1.032 3.188-1.904 4.989-2.598 2.005 3.447 4.369 6.294 6.246 8.292-4.288-0.8201-8.154-2.838-11.24-5.695m-7.284-15.21h8.123c0.2419 3.525 1.276 6.839 2.678 9.816-2.047 0.8209-3.957 1.857-5.686 3.095-2.922-3.568-4.784-8.032-5.115-12.91m5.116-16.04c1.716 1.223 3.634 2.254 5.694 3.076-1.407 2.982-2.445 6.304-2.688 9.837h-8.123c0.3311-4.879 2.194-9.344 5.116-12.91m13.4-7.997c-1.877 1.998-4.241 4.845-6.246 8.293-1.801-0.6938-3.481-1.566-4.989-2.597 3.082-2.857 6.948-4.875 11.24-5.696m4.308-3.541h-0.002625c-14.34 7.5e-4 -26.01 11.67-26.01 26.02s11.67 26.01 26.02 26.01 26.01-11.67 26.02-26.01c-3.75e-4 -14.34-11.67-26.01-26.01-26.02" style="fill:#ace1fa"/>
 <path transform="scale(.75)" d="m64.04 44.72c2.628 2.612 4.904 5.65 6.553 8.97 1.654 3.318 2.696 6.954 2.864 10.62 0.1825 3.664-0.553 7.326-2.084 10.52-1.522 3.207-3.785 5.928-6.382 8.127 2.208-2.594 3.92-5.57 4.824-8.724 0.914-3.15 0.9985-6.438 0.331-9.516-0.659-3.086-2.034-5.958-3.854-8.472-1.828-2.523-4.076-4.676-6.612-6.477z" style="fill:#808080;filter:url(#filter5327)"/>
 <path d="m47.8 33.32c1.971 1.959 3.678 4.238 4.915 6.728 1.241 2.489 2.022 5.216 2.148 7.968 0.1369 2.748-0.4148 5.494-1.563 7.891-1.142 2.405-2.839 4.446-4.787 6.095 1.656-1.945 2.94-4.178 3.618-6.543 0.6855-2.362 0.7489-4.829 0.2482-7.137-0.4942-2.314-1.525-4.468-2.89-6.354-1.371-1.892-3.057-3.507-4.959-4.858z" style="fill:#dcddde"/>
 <path transform="scale(.75)" d="m42.07 53.55-1.625-1.585c-0.162-0.1585-0.2475-0.4675-0.1895-0.686l1.486-5.622c-0.427-0.342-0.89-0.7785-0.9-0.896-0.0435-0.505 0.8305-1.542 1.335-1.585 0.035-0.0025 0.106 0.03 0.198 0.086l0.318-1.204c-0.4355-0.346-0.923-0.802-0.934-0.923-0.0425-0.5045 0.831-1.542 1.336-1.584 0.039-3e-3 0.1235 0.038 0.2335 0.108l0.768-2.908c-0.8705-0.701-1.736-1.414-2.588-2.132-3.77-3.176-4.981-6.178-3.777-7.608l25.05 21.11c-0.229 0.2715-0.805 0.233-1.65-0.059l-1.841 3.464c-0.0995 0.2035-0.3135 0.2405-0.476 0.082l-1.152-1.186c-0.1625-0.1585-0.248-0.467-0.1895-0.6865l0.809-3.023c-2.526-1.402-5.856-3.628-9.378-6.241l-6.357 13c-0.0995 0.204-0.314 0.241-0.4765 0.083" style="fill:#000000;filter:url(#filter5315)"/>
 <path transform="scale(.75)" d="m64.62 26.79-1.838-1.332c-0.1835-0.1335-0.503-0.1655-0.7085-0.071l-5.288 2.418c-0.41-0.3625-0.918-0.745-1.035-0.7345-0.5055 0.043-1.379 1.08-1.336 1.584 3e-3 0.035 0.047 0.0995 0.118 0.1805l-1.133 0.518c-0.4145-0.371-0.9465-0.774-1.068-0.7635-0.5045 0.0425-1.378 1.08-1.336 1.584 0.0035 0.0395 0.0585 0.1155 0.145 0.211l-2.735 1.251c-0.839-0.739-1.688-1.472-2.54-2.19-3.77-3.177-6.934-3.861-8.138-2.432l25.05 21.11c0.228-0.2715 0.093-0.8335-0.338-1.617l3.101-2.402c0.1835-0.133 0.1845-0.3505 5e-4 -0.4835l-1.365-0.934c-0.1835-0.133-0.502-0.165-0.7085-0.0705l-2.842 1.31c-1.811-2.252-4.568-5.155-7.741-8.183l11.73-8.47c0.1835-0.132 0.184-0.35 5e-4 -0.483" style="fill:#000000;filter:url(#filter5321)"/>
 <path d="m48.32 19.86-1.378-0.9994c-0.1376-0.1001-0.3772-0.1241-0.5314-0.05325l-3.966 1.813c-0.3075-0.2719-0.6885-0.5588-0.7762-0.5509-0.3791 0.03225-1.034 0.81-1.002 1.188 0.00225 0.02625 0.03525 0.07462 0.0885 0.1354l-0.8498 0.3885c-0.3109-0.2782-0.7099-0.5805-0.8006-0.5726-0.3784 0.03188-1.034 0.8096-1.002 1.188 0.002626 0.02962 0.04388 0.08662 0.1088 0.1582l-2.051 0.9382c-0.6293-0.5542-1.266-1.104-1.905-1.642-2.828-2.383-5.2-2.896-6.104-1.824l18.79 15.83c0.171-0.2036 0.06975-0.6251-0.2535-1.213l2.326-1.801c0.1376-0.09975 0.1384-0.2629 3.75e-4 -0.3626l-1.024-0.7005c-0.1376-0.09975-0.3765-0.1238-0.5314-0.05288l-2.132 0.9829c-1.358-1.689-3.426-3.866-5.806-6.137l8.799-6.353c0.1376-0.099 0.138-0.2625 3.75e-4 -0.3622" style="fill:#bcbec0"/>
 <path d="m31.41 39.94-1.219-1.189c-0.1215-0.1189-0.1856-0.3506-0.1421-0.5145l1.114-4.216c-0.3202-0.2565-0.6675-0.5839-0.675-0.672-0.03262-0.3788 0.6229-1.157 1.001-1.189 0.02625-0.001875 0.0795 0.0225 0.1485 0.0645l0.2385-0.9034c-0.3266-0.2595-0.6922-0.6015-0.7005-0.6922-0.03188-0.3784 0.6232-1.156 1.002-1.188 0.02925-0.00225 0.09262 0.0285 0.1751 0.081l0.576-2.181c-0.6529-0.5258-1.302-1.06-1.941-1.599-2.828-2.382-3.736-4.634-2.833-5.706l18.79 15.83c-0.1718 0.2036-0.6038 0.1748-1.238-0.04425l-1.381 2.598c-0.07462 0.1526-0.2351 0.1804-0.357 0.0615l-0.864-0.8899c-0.1219-0.1189-0.186-0.3502-0.1421-0.5149l0.6068-2.267c-1.894-1.052-4.392-2.721-7.034-4.681l-4.768 9.748c-0.07462 0.153-0.2355 0.1808-0.3574 0.06225" style="fill:#a7a9ac"/>
</svg>
