<?xml version="1.0" encoding="UTF-8" standalone="no"?>
<svg xmlns:dc="http://purl.org/dc/elements/1.1/" xmlns:cc="http://creativecommons.org/ns#" xmlns:rdf="http://www.w3.org/1999/02/22-rdf-syntax-ns#" xmlns:svg="http://www.w3.org/2000/svg" xmlns="http://www.w3.org/2000/svg" xmlns:sodipodi="http://sodipodi.sourceforge.net/DTD/sodipodi-0.dtd" xmlns:inkscape="http://www.inkscape.org/namespaces/inkscape" version="1.1" id="svg359" sodipodi:docname="i18a.svg" width="100" height="100.0001" inkscape:version="0.92.2 (5c3e80d, 2017-08-06)">
  <metadata id="metadata363">
    <rdf:RDF>
      <cc:Work rdf:about="">
        <dc:format>image/svg+xml</dc:format>
        <dc:type rdf:resource="http://purl.org/dc/dcmitype/StillImage" />
        <dc:title></dc:title>
      </cc:Work>
    </rdf:RDF>
  </metadata>
  <sodipodi:namedview pagecolor="#ffffff" bordercolor="#666666" borderopacity="1" objecttolerance="10" gridtolerance="10" guidetolerance="10" inkscape:pageopacity="0" inkscape:pageshadow="2" inkscape:window-width="2560" inkscape:window-height="1001" id="namedview361" showgrid="false" fit-margin-top="0" fit-margin-left="0" fit-margin-right="0" fit-margin-bottom="0" inkscape:zoom="8.9001177" inkscape:cx="44.217084" inkscape:cy="44.374636" inkscape:window-x="-9" inkscape:window-y="41" inkscape:window-maximized="1" inkscape:current-layer="svg359" />
  <defs id="defs4543">
    <filter inkscape:collect="always" style="color-interpolation-filters:sRGB" id="filter5315" x="-0.024535049" width="1.0490701" y="-0.023487789" height="1.0469756">
      <feGaussianBlur inkscape:collect="always" stdDeviation="0.26068474" id="feGaussianBlur5317" />
    </filter>
    <filter inkscape:collect="always" style="color-interpolation-filters:sRGB" id="filter5321" x="-0.021783684" width="1.0435674" y="-0.026718383" height="1.0534368">
      <feGaussianBlur inkscape:collect="always" stdDeviation="0.25371695" id="feGaussianBlur5323" />
    </filter>
    <filter inkscape:collect="always" style="color-interpolation-filters:sRGB" id="filter5327" x="-0.045243477" width="1.090487" y="-0.016331677" height="1.0326634">
      <feGaussianBlur inkscape:collect="always" stdDeviation="0.26023166" id="feGaussianBlur5329" />
    </filter>
  </defs>
  <path inkscape:connector-curvature="0" id="path7338" style="fill:#0071bc;fill-opacity:1;fill-rule:nonzero;stroke:none;stroke-width:0.5" d="M 90,0 H 10 C 4.5,0 0,4.5 0,10 V 90 C 0,95.5 4.5,100 10,100 H 90 C 95.5,100 100,95.5 100,90 V 10 C 100,4.5 95.5,0 90,0" />
  <path d="M 25.4839,74.5161 50.9679,100.0001 H 89.9999 C 95.4999,100.0001 99.9999,95.5001 99.9999,90.0001 V 50.9686 L 74.5154,25.4846 C 74.5154,25.4846 48.9814,4.6001 27.1239,26.4576 5.2664,48.3151 25.4839,74.5161 25.4839,74.5161" style="opacity:0.26946106;fill:#231f20;fill-opacity:1;fill-rule:nonzero;stroke:none;stroke-width:0.5" id="path7348" inkscape:connector-curvature="0" />
  <path d="M 74.1165,69.900099 C 71.8115,68.248599 69.2645,66.868099 66.5345,65.774099 68.4035,61.805599 69.782,57.386599 70.105,52.686599 H 80.936 C 80.494,59.190599 78.012,65.142099 74.1165,69.900099 M 56.2425,80.566099 C 58.746,77.901099 61.8975,74.105099 64.571,69.508599 66.973,70.433099 69.212,71.595599 71.224,72.971599 67.1155,76.780599 61.96,79.472599 56.2425,80.566099 M 52.5855,67.009099 C 55.282,67.147599 57.925,67.551099 60.4515,68.198599 57.8525,72.462099 54.8445,75.964099 52.585,78.319099 Z M 52.5855,52.686599 65.916,52.686099 C 65.5795,56.855599 64.2765,60.821099 62.5295,64.406099 59.373,63.515099 56.0325,62.983099 52.585,62.828599 Z M 52.585,38.370599 C 56.0345,38.216599 59.378,37.683099 62.537,36.791599 64.2815,40.374599 65.5805,44.340599 65.916,48.514599 L 52.5855,48.515099 Z M 52.5855,22.873599 C 54.8465,25.226599 57.859,28.729599 60.46,32.999099 57.9305,33.647599 55.285,34.052099 52.5855,34.190099 Z M 71.2235,28.228599 C 69.2115,29.604099 66.972,30.766599 64.5705,31.691599 61.897,27.095099 58.7455,23.298599 56.242,20.634599 61.96,21.728099 67.115,24.419099 71.2235,28.228599 M 80.936,48.514599 H 70.105 C 69.782,43.814099 68.4035,39.395099 66.534,35.425599 69.264,34.332099 71.811,32.951599 74.116,31.300099 78.012,36.057599 80.494,42.010599 80.936,48.514599 M 48.414,34.190099 C 45.7175,34.052599 43.075,33.649099 40.5485,33.001099 43.1475,28.737599 46.1555,25.235599 48.414,22.880599 Z M 48.414,48.514599 H 35.084 C 35.421,44.333599 36.73,40.358099 38.4845,36.765599 41.656,37.664599 45.0025,38.208599 48.414,38.367599 Z M 48.414,62.829099 C 44.9645,62.983599 41.621,63.516099 38.4625,64.408599 36.718,60.825599 35.4185,56.860099 35.0835,52.686599 L 48.414,52.686099 Z M 48.414,78.327099 C 46.153,75.973599 43.14,72.470599 40.539,68.201599 43.068,67.552099 45.7145,67.147599 48.4135,67.009099 Z M 29.7765,72.973099 C 31.7885,71.597099 34.0275,70.434099 36.429,69.509599 39.1025,74.105599 42.254,77.901599 44.757,80.566099 39.04,79.472599 33.8855,76.781599 29.7765,72.973099 M 20.064,52.686599 H 30.895 C 31.2175,57.387099 32.596,61.805599 34.465,65.774599 31.7355,66.869099 29.189,68.250099 26.884,69.901599 22.9885,65.143599 20.5055,59.191599 20.064,52.686599 M 26.886,31.297099 C 29.1735,32.927599 31.732,34.302599 34.4785,35.398099 32.6025,39.374599 31.218,43.803099 30.8945,48.514599 H 20.064 C 20.5055,42.009099 22.989,36.055599 26.886,31.297099 M 44.757,20.634599 C 42.254,23.298599 39.1025,27.095099 36.4285,31.691599 34.027,30.766599 31.7875,29.604099 29.776,28.228599 33.885,24.419099 39.0395,21.728099 44.757,20.634599 M 50.5015,15.913099 H 50.498 C 31.3725,15.914099 15.813,31.474599 15.813,50.600599 15.813,69.726599 31.3735,85.287099 50.5,85.287099 69.6265,85.287099 85.1865,69.726599 85.187,50.600599 85.1865,31.474599 69.627,15.914099 50.5015,15.913099" style="opacity:0.65;fill:#000000;fill-opacity:1;fill-rule:nonzero;stroke:none;stroke-width:0.5" id="path5311" inkscape:connector-curvature="0" />
  <path inkscape:connector-curvature="0" id="path7358" style="fill:#ace1fa;fill-opacity:1;fill-rule:nonzero;stroke:none;stroke-width:0.5" d="M 73.6167,69.30005 C 71.3117,67.64855 68.7647,66.26805 66.0347,65.17405 67.9037,61.20555 69.2822,56.78655 69.6052,52.08655 H 80.4362 C 79.9942,58.59055 77.5122,64.54205 73.6167,69.30005 M 55.7427,79.96605 C 58.2462,77.30105 61.3977,73.50505 64.0712,68.90855 66.4732,69.83305 68.7122,70.99555 70.7242,72.37155 66.6157,76.18055 61.4602,78.87255 55.7427,79.96605 M 52.0857,66.40905 C 54.7822,66.54755 57.4252,66.95105 59.9517,67.59855 57.3527,71.86205 54.3447,75.36405 52.0852,77.71905 Z M 52.0857,52.08655 65.4162,52.08605 C 65.0797,56.25555 63.7767,60.22105 62.0297,63.80605 58.8732,62.91505 55.5327,62.38305 52.0852,62.22855 Z M 52.0852,37.77055 C 55.5347,37.61655 58.8782,37.08305 62.0372,36.19155 63.7817,39.77455 65.0807,43.74055 65.4162,47.91455 L 52.0857,47.91505 Z M 52.0857,22.27355 C 54.3467,24.62655 57.3592,28.12955 59.9602,32.39905 57.4307,33.04755 54.7852,33.45205 52.0857,33.59005 Z M 70.7237,27.62855 C 68.7117,29.00405 66.4722,30.16655 64.0707,31.09155 61.3972,26.49505 58.2457,22.69855 55.7422,20.03455 61.4602,21.12805 66.6152,23.81905 70.7237,27.62855 M 80.4362,47.91455 H 69.6052 C 69.2822,43.21405 67.9037,38.79505 66.0342,34.82555 68.7642,33.73205 71.3112,32.35155 73.6162,30.70005 77.5122,35.45755 79.9942,41.41055 80.4362,47.91455 M 47.9142,33.59005 C 45.2177,33.45255 42.5752,33.04905 40.0487,32.40105 42.6477,28.13755 45.6557,24.63555 47.9142,22.28055 Z M 47.9142,47.91455 H 34.5842 C 34.9212,43.73355 36.2302,39.75805 37.9847,36.16555 41.1562,37.06455 44.5027,37.60855 47.9142,37.76755 Z M 47.9142,62.22905 C 44.4647,62.38355 41.1212,62.91605 37.9627,63.80855 36.2182,60.22555 34.9187,56.26005 34.5837,52.08655 L 47.9142,52.08605 Z M 47.9142,77.72705 C 45.6532,75.37355 42.6402,71.87055 40.0392,67.60155 42.5682,66.95205 45.2147,66.54755 47.9137,66.40905 Z M 29.2767,72.37305 C 31.2887,70.99705 33.5277,69.83405 35.9292,68.90955 38.6027,73.50555 41.7542,77.30155 44.2572,79.96605 38.5402,78.87255 33.3857,76.18155 29.2767,72.37305 M 19.5642,52.08655 H 30.3952 C 30.7177,56.78705 32.0962,61.20555 33.9652,65.17455 31.2357,66.26905 28.6892,67.65005 26.3842,69.30155 22.4887,64.54355 20.0057,58.59155 19.5642,52.08655 M 26.3862,30.69705 C 28.6737,32.32755 31.2322,33.70255 33.9787,34.79805 32.1027,38.77455 30.7182,43.20305 30.3947,47.91455 H 19.5642 C 20.0057,41.40905 22.4892,35.45555 26.3862,30.69705 M 44.2572,20.03455 C 41.7542,22.69855 38.6027,26.49505 35.9287,31.09155 33.5272,30.16655 31.2877,29.00405 29.2762,27.62855 33.3852,23.81905 38.5397,21.12805 44.2572,20.03455 M 50.0017,15.31305 H 49.9982 C 30.8727,15.31405 15.3132,30.87455 15.3132,50.00055 15.3132,69.12655 30.8737,84.68705 50.0002,84.68705 69.1267,84.68705 84.6867,69.12655 84.6872,50.00055 84.6867,30.87455 69.1272,15.31405 50.0017,15.31305" />
  <path d="M 64.035056,44.722543 C 66.662556,47.334043 68.938556,50.373043 70.588056,53.693043 72.242056,57.011543 73.283556,60.647043 73.451556,64.316543 73.634056,67.981043 72.898556,71.642543 71.367056,74.837543 69.844556,78.044543 67.582056,80.765043 64.985056,82.964543 67.193056,80.371043 68.905556,77.394543 69.808556,74.241043 70.722556,71.091043 70.807056,67.802543 70.139556,64.724543 69.480556,61.639043 68.106056,58.767043 66.286056,56.253043 64.458056,53.730043 62.209556,51.577543 59.674556,49.776043 Z" style="fill:#808080;fill-opacity:1;fill-rule:nonzero;stroke:none;stroke-width:0.5;filter:url(#filter5327)" id="path5325" inkscape:connector-curvature="0" />
  <path inkscape:connector-curvature="0" id="path7362" style="fill:#dcddde;fill-opacity:1;fill-rule:nonzero;stroke:none;stroke-width:0.5" d="M 63.73535,44.4231 C 66.36285,47.0346 68.63885,50.0736 70.28835,53.3936 71.94235,56.7121 72.98385,60.3476 73.15185,64.0171 73.33435,67.6816 72.59885,71.3431 71.06735,74.5381 69.54485,77.7451 67.28235,80.4656 64.68535,82.6651 66.89335,80.0716 68.60585,77.0951 69.50885,73.9416 70.42285,70.7916 70.50735,67.5031 69.83985,64.4251 69.18085,61.3396 67.80635,58.4676 65.98635,55.9536 64.15835,53.4306 61.90985,51.2781 59.37485,49.4766 Z" />
  <path d="M 42.074307,53.549314 40.449307,51.964314 C 40.287307,51.805814 40.201807,51.496814 40.259807,51.278314 L 41.745307,45.656814 C 41.318307,45.314814 40.855307,44.878314 40.845307,44.760814 40.801807,44.255814 41.675807,43.218314 42.180307,43.175814 42.215307,43.173314 42.286307,43.205814 42.378307,43.261814 L 42.696307,42.057314 C 42.260807,41.711314 41.773307,41.255314 41.762307,41.134314 41.719807,40.629814 42.593307,39.592814 43.097807,39.549814 43.136807,39.546814 43.221307,39.587814 43.331307,39.657814 L 44.099307,36.749314 C 43.228807,36.048314 42.363307,35.335814 41.510807,34.617814 37.740807,31.441314 36.529807,28.439314 37.733807,27.010314 L 62.785807,48.118314 C 62.556807,48.389814 61.980807,48.351314 61.135307,48.059314 L 59.294307,51.523314 C 59.194807,51.726814 58.980807,51.763814 58.818307,51.605314 L 57.666307,50.418814 C 57.503807,50.260314 57.418307,49.951814 57.476807,49.732314 L 58.285807,46.709314 C 55.759807,45.306814 52.430307,43.081814 48.907807,40.468314 L 42.550807,53.466314 C 42.451307,53.670314 42.236807,53.707314 42.074307,53.549314" style="fill:#000000;fill-opacity:1;fill-rule:nonzero;stroke:none;stroke-width:0.5;filter:url(#filter5315)" id="path5313" inkscape:connector-curvature="0" />
  <path d="M 64.624921,26.785679 62.786921,25.453179 C 62.603421,25.319679 62.283921,25.287679 62.078421,25.382179 L 56.790421,27.799679 C 56.380421,27.437179 55.872421,27.054679 55.755421,27.065179 55.249921,27.108179 54.376421,28.145179 54.419921,28.649679 54.422921,28.684679 54.466921,28.749179 54.537921,28.830179 L 53.404921,29.348179 C 52.990421,28.977179 52.458421,28.574179 52.337421,28.584679 51.832921,28.627179 50.958921,29.664179 51.001921,30.169179 51.005421,30.208679 51.060421,30.284679 51.146921,30.380179 L 48.411921,31.631179 C 47.572921,30.892179 46.724421,30.159179 45.871921,29.441679 42.101421,26.264679 38.938421,25.580679 37.733921,27.010179 L 62.785921,48.118179 C 63.013921,47.846679 62.878921,47.284679 62.447921,46.501179 L 65.548921,44.099679 C 65.732421,43.966679 65.733421,43.749179 65.549421,43.616179 L 64.184421,42.682179 C 64.000921,42.549179 63.682421,42.517179 63.475921,42.611679 L 60.633921,43.922179 C 58.822921,41.670679 56.066421,38.767179 52.892921,35.739179 L 64.624421,27.268679 C 64.807921,27.136679 64.808421,26.918679 64.624921,26.785679" style="fill:#000000;fill-opacity:1;fill-rule:nonzero;stroke:none;stroke-width:0.5;filter:url(#filter5321)" id="path5319" inkscape:connector-curvature="0" />
  <path inkscape:connector-curvature="0" id="path7366" style="fill:#bcbec0;fill-opacity:1;fill-rule:nonzero;stroke:none;stroke-width:0.5" d="M 64.42455,26.48585 62.58655,25.15335 C 62.40305,25.01985 62.08355,24.98785 61.87805,25.08235 L 56.59005,27.49985 C 56.18005,27.13735 55.67205,26.75485 55.55505,26.76535 55.04955,26.80835 54.17605,27.84535 54.21955,28.34985 54.22255,28.38485 54.26655,28.44935 54.33755,28.53035 L 53.20455,29.04835 C 52.79005,28.67735 52.25805,28.27435 52.13705,28.28485 51.63255,28.32735 50.75855,29.36435 50.80155,29.86935 50.80505,29.90885 50.86005,29.98485 50.94655,30.08035 L 48.21155,31.33135 C 47.37255,30.59235 46.52405,29.85935 45.67155,29.14185 41.90105,25.96485 38.73805,25.28085 37.53355,26.71035 L 62.58555,47.81835 C 62.81355,47.54685 62.67855,46.98485 62.24755,46.20135 L 65.34855,43.79985 C 65.53205,43.66685 65.53305,43.44935 65.34905,43.31635 L 63.98405,42.38235 C 63.80055,42.24935 63.48205,42.21735 63.27555,42.31185 L 60.43355,43.62235 C 58.62255,41.37085 55.86605,38.46735 52.69255,35.43935 L 64.42405,26.96885 C 64.60755,26.83685 64.60805,26.61885 64.42455,26.48585" />
  <path inkscape:connector-curvature="0" id="path7370" style="fill:#a7a9ac;fill-opacity:1;fill-rule:nonzero;stroke:none;stroke-width:0.5" d="M 41.874,53.24925 40.249,51.66425 C 40.087,51.50575 40.0015,51.19675 40.0595,50.97825 L 41.545,45.35675 C 41.118,45.01475 40.655,44.57825 40.645,44.46075 40.6015,43.95575 41.4755,42.91825 41.98,42.87575 42.015,42.87325 42.086,42.90575 42.178,42.96175 L 42.496,41.75725 C 42.0605,41.41125 41.573,40.95525 41.562,40.83425 41.5195,40.32975 42.393,39.29275 42.8975,39.24975 42.9365,39.24675 43.021,39.28775 43.131,39.35775 L 43.899,36.44925 C 43.0285,35.74825 42.163,35.03575 41.3105,34.31775 37.5405,31.14125 36.3295,28.13925 37.5335,26.71025 L 62.5855,47.81825 C 62.3565,48.08975 61.7805,48.05125 60.935,47.75925 L 59.094,51.22325 C 58.9945,51.42675 58.7805,51.46375 58.618,51.30525 L 57.466,50.11875 C 57.3035,49.96025 57.218,49.65175 57.2765,49.43225 L 58.0855,46.40925 C 55.5595,45.00675 52.23,42.78175 48.7075,40.16825 L 42.3505,53.16625 C 42.251,53.37025 42.0365,53.40725 41.874,53.24925" />
</svg>
