<svg version="1.1" viewBox="0 0 75 75" xmlns="http://www.w3.org/2000/svg">
 <path d="m67.5 0h-60c-4.125 0-7.5 3.375-7.5 7.5v60c0 4.125 3.375 7.5 7.5 7.5h60c4.125 0 7.5-3.375 7.5-7.5v-60c0-4.125-3.375-7.5-7.5-7.5" style="fill:#ffde00"/>
 <path d="m55.85 27.81-11.15-11.15-13.99 0.2629-0.1492 5.592-19.01 36.13 16.35 16.35h39.59c4.125 0 7.5-3.375 7.5-7.5v-33.42l-11.55-11.55z" style="fill:#231f20;opacity:.206"/>
 <path d="m62.7 22.21h-50.4c-0.5775 0-1.05 0.4725-1.05 1.05v34.65c0 0.5775 0.4725 1.05 1.05 1.05l50.4 3.75e-4c0.5779 0 1.05-0.4725 1.05-1.05v-34.65c0-0.5775-0.4721-1.05-1.05-1.05" style="fill:#58595b"/>
 <path d="m50.26 58.96h3.237v-36.75h-3.237zm-28.76 0h3.237v-36.75h-3.237z" style="fill:#4c4d4f"/>
 <path d="m43.21 22.21 3e-3 -4.069h-11.42v4.069h-2.1v-4.069c0-1.158 0.942-2.1 2.1-2.1h11.42c1.158 0 2.1 0.942 2.1 2.1v4.069z" style="fill:#58595b"/>
 <path d="m32.41 21.55h-3.351v0.6562h3.351z" style="fill:#414142"/>
 <path d="m45.94 21.55h-3.376v0.6562h3.376z" style="fill:#414142"/>
</svg>
