<svg xmlns:dc="http://purl.org/dc/elements/1.1/" xmlns:cc="http://creativecommons.org/ns#" xmlns:rdf="http://www.w3.org/1999/02/22-rdf-syntax-ns#" xmlns:svg="http://www.w3.org/2000/svg" xmlns="http://www.w3.org/2000/svg" xmlns:xlink="http://www.w3.org/1999/xlink" xmlns:sodipodi="http://sodipodi.sourceforge.net/DTD/sodipodi-0.dtd" xmlns:inkscape="http://www.inkscape.org/namespaces/inkscape" version="1.1" viewBox="0 0 100 87.16" id="svg35312" sodipodi:docname="i1a.svg" inkscape:version="0.92.2 (5c3e80d, 2017-08-06)">
  <metadata id="metadata35316">
    <rdf:RDF>
      <cc:Work rdf:about="">
        <dc:format>image/svg+xml</dc:format>
        <dc:type rdf:resource="http://purl.org/dc/dcmitype/StillImage" />
      </cc:Work>
    </rdf:RDF>
  </metadata>
  <sodipodi:namedview pagecolor="#ffffff" bordercolor="#666666" borderopacity="1" objecttolerance="10" gridtolerance="10" guidetolerance="10" inkscape:pageopacity="0" inkscape:pageshadow="2" inkscape:window-width="2560" inkscape:window-height="1001" id="namedview35314" showgrid="false" inkscape:zoom="3.8292151" inkscape:cx="-55.527722" inkscape:cy="43.431527" inkscape:window-x="-9" inkscape:window-y="41" inkscape:window-maximized="1" inkscape:current-layer="svg35312" />
  <defs id="defs35299">
    <linearGradient id="i24a-linearGradient19435-5-8" x1=".7731" x2=".227" y1="-.419" y2=".422" gradientTransform="matrix(30.74,-19.96,19.96,30.74,326.8,90.8)" gradientUnits="userSpaceOnUse">
      <stop stop-color="#696969" offset="0" id="stop35285" />
      <stop stop-color="#c7c7c9" offset=".17" id="stop35287" />
      <stop stop-color="#f9f9ff" offset=".36" id="stop35289" />
      <stop stop-color="#ccccce" offset=".73" id="stop35291" />
      <stop stop-color="#696969" offset="1" id="stop35293" />
    </linearGradient>
    <linearGradient id="linearGradient12669" x1="-301" x2="-301" y1="-6.6536512" y2="88.116455" gradientTransform="translate(341.4 4.282)" gradientUnits="userSpaceOnUse" xlink:href="#i24a-linearGradient19435-5-8" />
    <linearGradient id="linearGradient12806" x1="-159.7" x2="-116.1" y1="56.58" y2="56.58" gradientTransform="translate(165.1 11.85)" gradientUnits="userSpaceOnUse" xlink:href="#i24a-linearGradient19435-5-8" />
    <linearGradient id="linearGradient12814" x1="-63.79" x2="-59.73" y1="97.79" y2="105.9" gradientTransform="translate(150.5 -68.85)" gradientUnits="userSpaceOnUse" xlink:href="#i24a-linearGradient19435-5-8" />
    <linearGradient inkscape:collect="always" xlink:href="#i24a-linearGradient19435-5-8" id="linearGradient35861" gradientUnits="userSpaceOnUse" gradientTransform="translate(341.4 4.282)" x1="-301" y1="-6.6536512" x2="-301" y2="88.116455" />
  </defs>
  <path d="m2.128 11.25-0.2676 66.36 48.7 1.873 15.79 6.422 32.91-55.39c-7.333-9.287-30.04-19.43-45.49-29.16l-6.689 8.295z" style="fill:#290a43" id="path35301" />
  <g aria-label="PASSPORT" style="font-size:50.93000031px;font-family:'Trebuchet MS';letter-spacing:0px;word-spacing:0px;fill:url(#linearGradient12806);stroke-width:1.19400001" id="text35305">
    <path d="M 6.6238413,69.331518 V 71.844658 H 5.411566 V 65.018615 Q 6.6238413,64.967327 6.8289956,64.967327 8.446917,64.967327 9.1929326,65.466224 9.9436108,65.96046 9.9436108,67.014207 9.9436108,69.364156 7.1740278,69.364156 6.9688735,69.364156 6.6238413,69.331518 Z M 6.6238413,66.0677 V 68.254458 Q 6.9315728,68.287096 7.1087515,68.287096 7.9386938,68.287096 8.3210268,68.012003 8.7033598,67.732247 8.7033598,67.107459 8.7033598,66.044387 6.9921865,66.044387 6.80102,66.044387 6.6238413,66.0677 Z" style="fill:url(#linearGradient12806);stroke-width:1.19400001" id="path35866" inkscape:connector-curvature="0" />
    <path d="M 14.30314,71.844658 13.804242,70.459866 H 11.463618 L 10.988033,71.844658 H 9.640542 L 12.363499,64.920701 H 12.895035 L 15.641305,71.844658 Z M 12.629267,67.009544 11.80865,69.53201 H 13.449884 Z" style="fill:url(#linearGradient12806);stroke-width:1.19400001" id="path35868" inkscape:connector-curvature="0" />
    <path d="M 16.032963,71.466987 16.480572,70.380602 Q 17.198612,70.884163 17.893339,70.884163 18.961074,70.884163 18.961074,70.138147 18.961074,69.788452 18.709294,69.471396 18.457514,69.154339 17.669535,68.762681 16.886218,68.36636 16.611125,68.11458 16.340694,67.858137 16.191491,67.508442 16.046951,67.158747 16.046951,66.734451 16.046951,65.941809 16.625113,65.419598 17.207937,64.897388 18.117144,64.897388 19.301444,64.897388 19.856293,65.340334 L 19.487948,66.384756 Q 18.849172,65.927822 18.140457,65.927822 17.720823,65.927822 17.487693,66.151626 17.259226,66.370768 17.259226,66.725126 17.259226,67.312613 18.560091,67.946726 19.245493,68.282433 19.548561,68.566852 19.85163,68.846608 20.010159,69.224278 20.168687,69.597286 20.168687,70.058883 20.168687,70.888825 19.511261,71.425024 18.858497,71.961223 17.758124,71.961223 16.802291,71.961223 16.032963,71.466987 Z" style="fill:url(#linearGradient12806);stroke-width:1.19400001" id="path35870" inkscape:connector-curvature="0" />
    <path d="M 20.919365,71.466987 21.366974,70.380602 Q 22.085014,70.884163 22.779741,70.884163 23.847476,70.884163 23.847476,70.138147 23.847476,69.788452 23.595696,69.471396 23.343916,69.154339 22.555937,68.762681 21.77262,68.36636 21.497527,68.11458 21.227096,67.858137 21.077893,67.508442 20.933353,67.158747 20.933353,66.734451 20.933353,65.941809 21.511515,65.419598 22.09434,64.897388 23.003546,64.897388 24.187846,64.897388 24.742695,65.340334 L 24.37435,66.384756 Q 23.735574,65.927822 23.026859,65.927822 22.607225,65.927822 22.374095,66.151626 22.145628,66.370768 22.145628,66.725126 22.145628,67.312613 23.446493,67.946726 24.131895,68.282433 24.434964,68.566852 24.738032,68.846608 24.896561,69.224278 25.055089,69.597286 25.055089,70.058883 25.055089,70.888825 24.397663,71.425024 23.744899,71.961223 22.644526,71.961223 21.688694,71.961223 20.919365,71.466987 Z" style="fill:url(#linearGradient12806);stroke-width:1.19400001" id="path35872" inkscape:connector-curvature="0" />
    <path d="M 27.344424,69.331518 V 71.844658 H 26.132149 V 65.018615 Q 27.344424,64.967327 27.549579,64.967327 29.1675,64.967327 29.913516,65.466224 30.664194,65.96046 30.664194,67.014207 30.664194,69.364156 27.894611,69.364156 27.689457,69.364156 27.344424,69.331518 Z M 27.344424,66.0677 V 68.254458 Q 27.652156,68.287096 27.829334,68.287096 28.659277,68.287096 29.04161,68.012003 29.423943,67.732247 29.423943,67.107459 29.423943,66.044387 27.712769,66.044387 27.521603,66.044387 27.344424,66.0677 Z" style="fill:url(#linearGradient12806);stroke-width:1.19400001" id="path35874" inkscape:connector-curvature="0" />
    <path d="M 31.419535,68.371023 Q 31.419535,66.91163 32.216839,65.904509 33.018806,64.892725 34.356971,64.892725 35.830352,64.892725 36.609006,65.806594 37.38766,66.720463 37.38766,68.371023 37.38766,70.021582 36.571705,70.991403 35.760413,71.961223 34.263719,71.961223 32.888253,71.961223 32.151563,71.000728 31.419535,70.040233 31.419535,68.371023 Z M 32.678436,68.371023 Q 32.678436,69.56931 33.084082,70.226737 33.489728,70.884163 34.263719,70.884163 35.172926,70.884163 35.648511,70.240724 36.128758,69.597286 36.128758,68.371023 36.128758,65.969785 34.356971,65.969785 33.545679,65.969785 33.112058,66.622549 32.678436,67.27065 32.678436,68.371023 Z" style="fill:url(#linearGradient12806);stroke-width:1.19400001" id="path35876" inkscape:connector-curvature="0" />
    <path d="M 42.311364,71.844658 40.488288,69.023786 Q 40.213195,69.019124 39.71896,68.991148 V 71.844658 H 38.460058 V 65.013952 Q 38.562636,65.013952 39.248037,64.981314 39.933439,64.944014 40.353073,64.944014 42.954802,64.944014 42.954802,66.958256 42.954802,67.564393 42.595782,68.063291 42.236762,68.562189 41.691238,68.767344 L 43.710143,71.844658 Z M 39.71896,66.0677 V 67.965377 Q 40.054667,67.993352 40.231845,67.993352 40.991849,67.993352 41.341544,67.778873 41.695901,67.564393 41.695901,66.944268 41.695901,66.440707 41.318231,66.240216 40.94056,66.039724 40.129268,66.039724 39.933439,66.039724 39.71896,66.0677 Z" style="fill:url(#linearGradient12806);stroke-width:1.19400001" id="path35878" inkscape:connector-curvature="0" />
    <path d="M 46.684878,66.091013 V 71.844658 H 45.472603 V 66.091013 H 43.299832 V 65.013952 H 48.955563 V 66.091013 Z" style="fill:url(#linearGradient12806);stroke-width:1.19400001" id="path35880" inkscape:connector-curvature="0" />
  </g>
  <g aria-label="T" transform="rotate(28.69)" style="font-size:31.73999977px;font-family:'Trebuchet MS';letter-spacing:0px;word-spacing:0px;fill:url(#linearGradient12814);stroke-width:0.74379998" id="text35309">
    <path d="M 88.452614,31.150765 V 37.126747 H 87.193493 V 31.150765 H 84.93676 V 30.032084 H 90.811045 V 31.150765 Z" style="fill:url(#linearGradient12814);stroke-width:0.74379998" id="path35863" inkscape:connector-curvature="0" />
  </g>
  <path id="passports" d="m53.13 0.0492c-0.3273 0.1324-0.6081 0.3775-0.7813 0.6838v0.09812c-0.7735 0.2745-1.711 0.2206-2.149 0.9765l-4.004 6.837h-2.442-21.88-6.056-12.01c-2.007 0-3.809 1.576-3.809 3.614v64.66c0 2.038 1.803 3.614 3.809 3.614h12.01 6.056 21.88 6.251 0.09676l3.907 2.246 5.372 3.126c4.475 2.583 10.21 1.056 12.79-3.418l26.57-46.1c2.583-4.475 1.056-10.21-3.418-12.79l-5.372-3.126-18.95-10.94-5.274-2.93-10.45-6.055c-0.4463-0.2598-0.9183-0.4167-1.367-0.4902-0.2551-0.06376-0.5265-0.06376-0.7815 0zm0.2929 3.028 0.2929 0.09812 10.45 6.055 5.274 3.028 4.981 2.93c0.1206 0.08338 0.2517 0.147 0.3907 0.196l13.58 7.814 0.1954 0.09812c2.879 1.787 3.761 5.438 2.051 8.4l-26.57 46.1c-1.745 3.023-5.475 3.991-8.497 2.247l-1.074-0.5863c1.913-1.046 3.387-2.742 4.2-4.786 0.2672-0.6726 0.4809-1.411 0.586-2.149 0.07408-0.4314 0.09675-0.9015 0.09675-1.367v-0.6838-12.6c7.285 0.2794 14.47-3.32 18.36-10.06 5.6-9.7 2.276-22.24-7.423-27.84-3.465-2-7.301-2.803-11.04-2.637-0.3644-4.837-4.35-8.693-9.279-8.693h-0.09676l3.028-5.274c0.09449-0.1667 0.4882-0.2941 0.4882-0.2941zm-49.62 8.693h12.01 6.056 21.88c3.49 0 6.251 2.761 6.251 6.251v53.13c0 3.49-2.761 6.251-6.251 6.251h-21.88-6.056-12.01c-0.4332 0-0.6836-0.2353-0.6836-0.4902v-64.66c0-0.25 0.251-0.4902 0.6836-0.4902zm46.98 0.09812c0.5838 0.07355 1.14 0.1716 1.66 0.3922 0.3753 0.1569 0.7423 0.3628 1.075 0.5858 1.329 0.8927 2.308 2.269 2.637 3.907 0.08277 0.4118 0.09827 0.8333 0.09827 1.27v53.13c0 0.4363-0.0189 0.8603-0.09827 1.27-0.07635 0.3922-0.2449 0.7147-0.3907 1.074-0.01512 0.04906 0.01512 0.06867 0 0.09812-0.1387 0.3284-0.2967 0.6814-0.4883 0.977-0.02267 0.04906-0.07408 0.06376-0.09675 0.09812-0.1882 0.2745-0.3553 0.5412-0.586 0.7814-0.05896 0.06376-0.1334 0.1324-0.195 0.1961-0.4852 0.4608-1.038 0.8863-1.66 1.172-0.09449 0.04906-0.1958 0.05888-0.2929 0.09812-0.513 0.2059-1.085 0.3187-1.66 0.3922 1.446-1.65 2.344-3.794 2.344-6.153v-53.13c0-2.386-0.869-4.496-2.344-6.153zm-24.22 6.153c-11.2 0-20.32 9.115-20.32 20.32 0 11.2 9.116 20.32 20.32 20.32 11.2 0 20.32-9.115 20.32-20.32 0-11.2-9.116-20.32-20.32-20.32zm37.11 2.93c1.231 0.2843 2.432 0.6289 3.614 1.172l-3.028 5.177-4.688-2.735c1.272-1.238 2.643-2.44 4.102-3.614zm-38.68 0.4902v5.958h-5.469c0.4829-1.667 1.093-3.375 1.758-5.078 1.192-0.3873 2.41-0.7574 3.711-0.8794zm3.125 0c1.257 0.1176 2.469 0.4118 3.614 0.7814 0.6795 1.733 1.267 3.481 1.758 5.177h-5.372zm41.8 2.344c1.046 0.7422 1.908 1.635 2.735 2.54-0.2759 1.811-0.559 3.59-0.9768 5.274l-4.688-2.735zm-34.28 0.2941c1.417 0.9196 2.703 2.014 3.809 3.321h-2.832c-0.2956-1.099-0.6064-2.218-0.9766-3.321zm-18.46 0.09812c-0.3545 1.064-0.594 2.163-0.8789 3.223h-2.735c1.058-1.251 2.255-2.326 3.614-3.223zm77.26 2.637c2.48 1.881 3.17 5.226 1.563 8.009l-26.57 46.1c-1.599 2.77-4.855 3.826-7.716 2.637 2.072-0.7039 3.901-2.159 5.079-4.2l26.57-46.1c1.184-2.051 1.505-4.29 1.074-6.446zm-35.06 1.27 3.321 1.953-3.125 5.47-0.195-0.09812zm15.82 1.758c0.7855 1.506 1.359 3.094 1.66 4.786l-2.442-1.465c0.291-1.086 0.5518-2.196 0.7814-3.321zm-63.78 0.6838h4.102c-0.4192 2.077-0.66 4.171-0.7814 6.251h-5.079c0.2094-2.24 0.7756-4.346 1.758-6.251zm7.325 0h6.251v6.251h-7.13c0.1296-2.095 0.4164-4.142 0.879-6.251zm9.376 0h6.153c0.4621 2.109 0.7491 4.156 0.8789 6.251h-7.032zm9.279 0h4.2c0.9942 1.915 1.645 3.996 1.856 6.251h-5.274c-0.1206-2.08-0.3621-4.174-0.7815-6.251zm28.03 1.075 5.372 3.126c-0.6559 2.043-1.506 3.997-2.442 5.86l-6.056-3.516zm8.009 4.59 3.711 2.149c-0.09335 2.183-0.599 4.362-1.563 6.446l-4.59-2.637c0.9566-1.895 1.754-3.912 2.442-5.958zm-12.7 3.614 6.153 3.516c-1.071 1.753-2.317 3.376-3.711 4.981l-3.809-2.149v-4.004zm-51.08 0.09812h4.981c0.03779 2.089 0.3152 4.135 0.6836 6.251h-3.907c-0.978-1.901-1.549-4.017-1.758-6.251zm8.107 0h7.228v6.251h-6.642c-0.3947-2.082-0.5435-4.202-0.586-6.251zm10.35 0h7.13c-0.04535 2.049-0.1916 4.169-0.586 6.251h-6.544zm10.16 0h5.176c-0.209 2.23-0.7828 4.352-1.758 6.251h-4.102c0.3689-2.116 0.6474-4.162 0.6839-6.251zm31.25 4.883 4.395 2.539c-1.325 1.857-2.946 3.334-4.786 4.493l-3.223-1.855c1.373-1.649 2.54-3.386 3.614-5.177zm-56.06 4.493h2.539c0.268 1.063 0.5212 2.149 0.8789 3.223-1.298-0.8716-2.407-2.01-3.418-3.223zm5.763 0h5.762v5.958c-1.408-0.1324-2.724-0.4461-4.005-0.8789-0.7127-1.741-1.293-3.387-1.758-5.079zm8.888 0h5.665c-0.473 1.721-1.029 3.405-1.758 5.177-1.244 0.4167-2.531 0.6525-3.907 0.7814zm8.791 0h2.637c-1.042 1.247-2.188 2.434-3.516 3.321 0.3696-1.103 0.6036-2.229 0.8791-3.321zm22.46 0.4902 1.563 0.8789c-0.5228 0.5123-0.9994 1.065-1.563 1.563zm4.395 2.539 1.856 1.075c-1.373 0.4657-2.773 0.9304-4.2 1.172 0.8245-0.7368 1.598-1.476 2.344-2.247z" overflow="visible" style="color:#000000;fill:url(#linearGradient35861);fill-opacity:1;stroke:none" />
</svg>
