<svg version="1.1" viewBox="0 0 75 65.37" xmlns="http://www.w3.org/2000/svg" xmlns:xlink="http://www.w3.org/1999/xlink">
 <defs>
  <linearGradient id="i24a-linearGradient19435-5-8" x1=".7731" x2=".227" y1="-.419" y2=".422" gradientTransform="matrix(30.74,-19.96,19.96,30.74,326.8,90.8)" gradientUnits="userSpaceOnUse">
   <stop stop-color="#696969" offset="0"/>
   <stop stop-color="#c7c7c9" offset=".17"/>
   <stop stop-color="#f9f9ff" offset=".36"/>
   <stop stop-color="#ccccce" offset=".73"/>
   <stop stop-color="#696969" offset="1"/>
  </linearGradient>
  <linearGradient id="linearGradient35861" x1="-301" x2="-301" y1="-6.654" y2="88.12" gradientTransform="matrix(.75 0 0 .75 256.1 3.206)" gradientUnits="userSpaceOnUse" xlink:href="#i24a-linearGradient19435-5-8"/>
  <linearGradient id="linearGradient837" x1="-63.79" x2="-59.73" y1="97.79" y2="105.9" gradientTransform="matrix(.6579 .3601 -.3601 .6579 123.8 8.884)" gradientUnits="userSpaceOnUse" xlink:href="#i24a-linearGradient19435-5-8"/>
  <linearGradient id="linearGradient841" x1="-159.7" x2="-116.1" y1="56.58" y2="56.58" gradientTransform="matrix(.75 0 0 .75 123.8 8.882)" gradientUnits="userSpaceOnUse" xlink:href="#i24a-linearGradient19435-5-8"/>
 </defs>
 <path d="m1.597 8.432-0.2007 49.77 36.53 1.405 11.84 4.817 24.68-41.54c-5.5-6.965-22.53-14.57-34.12-21.87l-5.017 6.221z" style="fill:#290a43;stroke-width:.75"/>
 <path d="m35.02 49.56v4.315h-0.9092v-4.315h-1.63v-0.8078h4.242v0.8078zm-3.28 4.315-1.367-2.116q-0.2063-0.003496-0.577-0.02448v2.14h-0.9442v-5.123q0.07694 0 0.591-0.02448 0.5141-0.02798 0.8288-0.02798 1.951 0 1.951 1.511 0 0.4546-0.2693 0.8288-0.2693 0.3742-0.6784 0.528l1.514 2.308zm-1.944-4.333v1.423q0.2518 0.02098 0.3847 0.02098 0.57 0 0.8323-0.1609 0.2658-0.1609 0.2658-0.626 0-0.3777-0.2833-0.528-0.2833-0.1504-0.8917-0.1504-0.1469 0-0.3077 0.02098zm-6.225 1.728q0-1.095 0.598-1.85 0.6015-0.7589 1.605-0.7589 1.105 0 1.689 0.6854 0.584 0.6854 0.584 1.923 0 1.238-0.612 1.965-0.6085 0.7274-1.731 0.7274-1.032 0-1.584-0.7204-0.549-0.7204-0.549-1.972zm0.9442 0q0 0.8987 0.3042 1.392 0.3042 0.4931 0.8847 0.4931 0.6819 0 1.039-0.4826 0.3602-0.4826 0.3602-1.402 0-1.801-1.329-1.801-0.6085 0-0.9337 0.4896-0.3252 0.4861-0.3252 1.311zm-4.001 0.7204v1.885h-0.9092v-5.12q0.9092-0.03847 1.063-0.03847 1.213 0 1.773 0.3742 0.563 0.3707 0.563 1.161 0 1.762-2.077 1.762-0.1539 0-0.4126-0.02448zm0-2.448v1.64q0.2308 0.02448 0.3637 0.02448 0.6225 0 0.9092-0.2063 0.2868-0.2098 0.2868-0.6784 0-0.7973-1.283-0.7973-0.1434 0-0.2763 0.01748zm-4.819 4.05 0.3357-0.8148q0.5385 0.3777 1.06 0.3777 0.8008 0 0.8008-0.5595 0-0.2623-0.1888-0.5001-0.1888-0.2378-0.7798-0.5315-0.5875-0.2972-0.7938-0.4861-0.2028-0.1923-0.3147-0.4546-0.1084-0.2623-0.1084-0.5805 0-0.5945 0.4336-0.9862 0.4371-0.3917 1.119-0.3917 0.8882 0 1.304 0.3322l-0.2763 0.7833q-0.4791-0.3427-1.011-0.3427-0.3147 0-0.4896 0.1679-0.1714 0.1644-0.1714 0.4301 0 0.4406 0.9757 0.9162 0.5141 0.2518 0.7414 0.4651 0.2273 0.2098 0.3462 0.4931 0.1189 0.2798 0.1189 0.626 0 0.6225-0.4931 1.025-0.4896 0.4022-1.315 0.4022-0.7169 0-1.294-0.3707zm-3.665 0 0.3357-0.8148q0.5385 0.3777 1.06 0.3777 0.8008 0 0.8008-0.5595 0-0.2623-0.1888-0.5001-0.1888-0.2378-0.7798-0.5315-0.5875-0.2972-0.7938-0.4861-0.2028-0.1923-0.3147-0.4546-0.1084-0.2623-0.1084-0.5805 0-0.5945 0.4336-0.9862 0.4371-0.3917 1.119-0.3917 0.8882 0 1.304 0.3322l-0.2763 0.7833q-0.4791-0.3427-1.011-0.3427-0.3147 0-0.4896 0.1679-0.1714 0.1644-0.1714 0.4301 0 0.4406 0.9757 0.9162 0.5141 0.2518 0.7414 0.4651 0.2273 0.2098 0.3462 0.4931 0.1189 0.2798 0.1189 0.626 0 0.6225-0.4931 1.025-0.4896 0.4022-1.315 0.4022-0.7169 0-1.294-0.3707zm-1.297 0.2833-0.3742-1.039h-1.756l-0.3567 1.039h-1.011l2.042-5.193h0.3987l2.06 5.193zm-1.255-3.626-0.6155 1.892h1.231zm-4.504 1.742v1.885h-0.9092v-5.12q0.9092-0.03847 1.063-0.03847 1.213 0 1.773 0.3742 0.563 0.3707 0.563 1.161 0 1.762-2.077 1.762-0.1539 0-0.4126-0.02448zm0-2.448v1.64q0.2308 0.02448 0.3637 0.02448 0.6225 0 0.9092-0.2063 0.2868-0.2098 0.2868-0.6784 0-0.7973-1.283-0.7973-0.1434 0-0.2763 0.01748z" style="fill:url(#linearGradient841);stroke-width:.8955"/>
 <path d="m46.98 52.34-2.152 3.932-0.8284-0.4534 2.152-3.932-1.485-0.8126 0.4028-0.736 3.865 2.115-0.4028 0.736z" style="fill:url(#linearGradient837);stroke-width:.5579"/>
 <path id="passports" d="m39.85 0.0312c-0.2455 0.0993-0.4561 0.2831-0.586 0.5129v0.07359c-0.5801 0.2059-1.283 0.1655-1.612 0.7324l-3.003 5.128h-31.79c-1.505 0-2.857 1.182-2.857 2.711v48.5c0 1.529 1.352 2.711 2.857 2.711h34.72l2.93 1.685 4.029 2.345c3.356 1.937 7.658 0.792 9.593-2.564l19.93-34.58c1.937-3.356 0.792-7.658-2.564-9.593l-4.029-2.345-14.21-8.205-3.956-2.198-7.838-4.541c-0.3347-0.1949-0.6887-0.3125-1.025-0.3677-0.1913-0.04782-0.3949-0.04782-0.5861 0zm0.2197 2.271 0.2197 0.07359 7.838 4.541 3.956 2.271 3.736 2.198c0.09045 0.06254 0.1888 0.1103 0.293 0.147l10.19 5.861 0.1466 0.07359c2.159 1.34 2.821 4.079 1.538 6.3l-19.93 34.58c-1.309 2.267-4.106 2.993-6.373 1.685l-0.8055-0.4397c1.435-0.7845 2.54-2.057 3.15-3.59 0.2004-0.5045 0.3607-1.058 0.4395-1.612 0.05556-0.3236 0.07256-0.6761 0.07256-1.025v-9.963c5.464 0.2096 10.85-2.49 13.77-7.545 4.2-7.275 1.707-16.68-5.567-20.88-2.599-1.5-5.476-2.102-8.28-1.978-0.2733-3.628-3.263-6.52-6.959-6.52h-0.07257l2.271-3.956c0.07087-0.125 0.3662-0.2206 0.3662-0.2206zm-37.22 6.52h29.96c2.618 0 4.688 2.071 4.688 4.688v39.85c0 2.618-2.071 4.688-4.688 4.688h-29.96c-0.3249 0-0.5127-0.1765-0.5127-0.3677v-48.5c0-0.1875 0.1883-0.3677 0.5127-0.3677zm35.24 0.07359c0.4379 0.05516 0.855 0.1287 1.245 0.2942 0.2815 0.1177 0.5567 0.2721 0.8063 0.4394 0.9968 0.6695 1.731 1.702 1.978 2.93 0.06208 0.3089 0.0737 0.625 0.0737 0.9525v39.85c0 0.3272-0.01418 0.6452-0.0737 0.9525-0.05726 0.2942-0.1837 0.536-0.293 0.8055-0.01134 0.0368 0.01134 0.0515 0 0.07359-0.104 0.2463-0.2225 0.5111-0.3662 0.7328-0.017 0.0368-0.05556 0.04782-0.07256 0.07359-0.1412 0.2059-0.2665 0.4059-0.4395 0.5861-0.04422 0.04782-0.1001 0.0993-0.1463 0.1471-0.3639 0.3456-0.7785 0.6647-1.245 0.879-0.07087 0.0368-0.1469 0.04416-0.2197 0.07359-0.3848 0.1544-0.8138 0.239-1.245 0.2942 1.085-1.238 1.758-2.846 1.758-4.615v-39.85c0-1.79-0.6518-3.372-1.758-4.615zm-18.17 4.615c-8.4 0-15.24 6.836-15.24 15.24 0 8.4 6.837 15.24 15.24 15.24 8.4 0 15.24-6.836 15.24-15.24 0-8.4-6.837-15.24-15.24-15.24zm27.83 2.198c0.9233 0.2132 1.824 0.4717 2.711 0.879l-2.271 3.883-3.516-2.051c0.954-0.9285 1.982-1.83 3.077-2.711zm-29.01 0.3677v4.469h-4.102c0.3622-1.25 0.8198-2.531 1.319-3.809 0.894-0.2905 1.808-0.5681 2.783-0.6596zm2.344 0c0.9428 0.0882 1.852 0.3089 2.711 0.5861 0.5096 1.3 0.9503 2.611 1.319 3.883h-4.029zm31.35 1.758c0.7845 0.5567 1.431 1.226 2.051 1.905-0.2069 1.358-0.4193 2.693-0.7326 3.956l-3.516-2.051zm-25.71 0.2206c1.063 0.6897 2.027 1.511 2.857 2.491h-2.124c-0.2217-0.8243-0.4548-1.664-0.7325-2.491zm-13.85 0.07359c-0.2659 0.798-0.4455 1.622-0.6592 2.417h-2.051c0.7935-0.9383 1.691-1.745 2.711-2.417zm57.95 1.978c1.86 1.411 2.378 3.92 1.172 6.007l-19.93 34.58c-1.199 2.078-3.641 2.87-5.787 1.978 1.554-0.5279 2.926-1.619 3.809-3.15l19.93-34.58c0.888-1.538 1.129-3.218 0.8055-4.835zm-26.3 0.9525 2.491 1.465-2.344 4.103-0.1463-0.07359zm11.87 1.319c0.5891 1.13 1.019 2.321 1.245 3.59l-1.832-1.099c0.2183-0.8145 0.4139-1.647 0.5861-2.491zm-47.84 0.5129h3.077c-0.3144 1.558-0.495 3.128-0.5861 4.688h-3.809c0.1571-1.68 0.5817-3.26 1.319-4.688zm5.494 0h4.688v4.688h-5.348c0.0972-1.571 0.3123-3.107 0.6593-4.688zm7.032 0h4.615c0.3466 1.582 0.5618 3.117 0.6592 4.688h-5.274zm6.959 0h3.15c0.7457 1.436 1.234 2.997 1.392 4.688h-3.956c-0.09045-1.56-0.2716-3.131-0.5861-4.688zm21.02 0.8063 4.029 2.345c-0.4919 1.532-1.13 2.998-1.832 4.395l-4.542-2.637zm6.007 3.443 2.783 1.612c-0.07001 1.637-0.4493 3.272-1.172 4.835l-3.443-1.978c0.7175-1.421 1.316-2.934 1.832-4.469zm-9.525 2.711 4.615 2.637c-0.8033 1.315-1.738 2.532-2.783 3.736l-2.857-1.612v-3.003zm-38.31 0.07359h3.736c0.02834 1.567 0.2364 3.101 0.5127 4.688h-2.93c-0.7335-1.426-1.162-3.013-1.319-4.688zm6.08 0h5.421v4.688h-4.982c-0.296-1.562-0.4076-3.152-0.4395-4.688zm7.763 0h5.348c-0.03401 1.537-0.1437 3.127-0.4395 4.688h-4.908zm7.62 0h3.882c-0.1568 1.673-0.5871 3.264-1.319 4.688h-3.077c0.2767-1.587 0.4856-3.122 0.5129-4.688zm23.44 3.662 3.296 1.904c-0.9938 1.393-2.21 2.501-3.59 3.37l-2.417-1.391c1.03-1.237 1.905-2.54 2.711-3.883zm-42.05 3.37h1.904c0.201 0.7973 0.3909 1.612 0.6592 2.417-0.9735-0.6537-1.805-1.508-2.564-2.417zm4.322 0h4.322v4.469c-1.056-0.0993-2.043-0.3346-3.004-0.6592-0.5345-1.306-0.9698-2.54-1.319-3.809zm6.666 0h4.249c-0.3548 1.291-0.7718 2.554-1.319 3.883-0.933 0.3125-1.898 0.4894-2.93 0.5861zm6.593 0h1.978c-0.7815 0.9353-1.641 1.826-2.637 2.491 0.2772-0.8273 0.4527-1.672 0.6593-2.491zm16.85 0.3677 1.172 0.6592c-0.3921 0.3842-0.7496 0.7988-1.172 1.172zm3.296 1.904 1.392 0.8063c-1.03 0.3493-2.08 0.6978-3.15 0.879 0.6184-0.5526 1.199-1.107 1.758-1.685z" overflow="visible" style="color:#000000;fill:url(#linearGradient35861)"/>
</svg>
