<?xml version="1.0" encoding="UTF-8" standalone="no"?>
<svg xmlns:dc="http://purl.org/dc/elements/1.1/" xmlns:cc="http://creativecommons.org/ns#" xmlns:rdf="http://www.w3.org/1999/02/22-rdf-syntax-ns#" xmlns:svg="http://www.w3.org/2000/svg" xmlns="http://www.w3.org/2000/svg" xmlns:xlink="http://www.w3.org/1999/xlink" xmlns:sodipodi="http://sodipodi.sourceforge.net/DTD/sodipodi-0.dtd" xmlns:inkscape="http://www.inkscape.org/namespaces/inkscape" version="1.1" id="svg360" sodipodi:docname="i2.svg" width="100" height="99.998344" inkscape:version="0.92.2 (5c3e80d, 2017-08-06)">
  <metadata id="metadata364">
    <rdf:RDF>
      <cc:Work rdf:about="">
        <dc:format>image/svg+xml</dc:format>
        <dc:type rdf:resource="http://purl.org/dc/dcmitype/StillImage" />
        <dc:title></dc:title>
      </cc:Work>
    </rdf:RDF>
  </metadata>
  <sodipodi:namedview pagecolor="#ffffff" bordercolor="#666666" borderopacity="1" objecttolerance="10" gridtolerance="10" guidetolerance="10" inkscape:pageopacity="0" inkscape:pageshadow="2" inkscape:window-width="2560" inkscape:window-height="1001" id="namedview362" showgrid="false" fit-margin-top="0" fit-margin-left="0" fit-margin-right="0" fit-margin-bottom="0" inkscape:zoom="11.320188" inkscape:cx="5.4438487" inkscape:cy="26.372875" inkscape:window-x="-9" inkscape:window-y="41" inkscape:window-maximized="1" inkscape:current-layer="svg360" />
  <defs id="defs4543">
    <linearGradient gradientUnits="userSpaceOnUse" y2="828" y1="794.40002" x2="0" x1="0" id="linearGradientSlvr">
      <stop id="stop4422" offset="0" style="stop-color:#696969" />
      <stop id="stop4424" offset=".17" style="stop-color:#c7c7c9" />
      <stop id="stop4426" offset=".36" style="stop-color:#f9f9ff" />
      <stop id="stop4428" offset=".73" style="stop-color:#ccccce" />
      <stop id="stop4430" offset="1" style="stop-color:#696969" />
    </linearGradient>
    <linearGradient gradientUnits="userSpaceOnUse" gradientTransform="matrix(0.5122,0,0,0.5116,-456,447.2)" y2="1076" y1="884.29999" x2="-1040" x1="-1040" id="linearGradient7732">
      <stop id="stop4444" offset="0" style="stop-color:#141414" />
      <stop id="stop4446" offset=".15" style="stop-color:#0a0a0a" />
      <stop id="stop4448" offset=".3" style="stop-color:#6d6d6d" />
      <stop id="stop4450" offset=".44" style="stop-color:#000000" />
      <stop id="stop4452" offset=".62" style="stop-color:#141414" />
      <stop id="stop4454" offset=".75" style="stop-color:#262626" />
      <stop id="stop4456" offset="1" style="stop-color:#040404" />
    </linearGradient>
    <linearGradient gradientUnits="userSpaceOnUse" y2="0" x2="0" y1="0" x1="-120.602" id="linearGradient36934" xlink:href="#linearGradientSlvr" inkscape:collect="always" gradientTransform="matrix(0.82917365,0,0,-0.82917365,100,49.999171)" />
    <linearGradient gradientUnits="userSpaceOnUse" y2="-31.556503" x2="-21.28636" y1="10.638584" x1="-21.28636" id="linearGradient36942" xlink:href="#linearGradient7732" inkscape:collect="always" gradientTransform="matrix(0.82917365,0,0,-0.82917365,64.903486,41.517554)" />
    <linearGradient gradientUnits="userSpaceOnUse" y2="-9.2548647" x2="-6.7111497" y1="-0.038569208" x1="-6.7111497" id="linearGradient36950" xlink:href="#linearGradient7732" inkscape:collect="always" gradientTransform="matrix(0.82917365,0,0,-0.82917365,34.629776,56.533391)" />
    <linearGradient gradientUnits="userSpaceOnUse" y2="3.6375" x2="13.105" y1="3.6375" x1="-5.1750002" id="linearGradient36981" xlink:href="#linearGradient7732" inkscape:collect="always" gradientTransform="matrix(0.82917365,0,0,-0.82917365,48.619594,41.741431)" />
    <linearGradient inkscape:collect="always" xlink:href="#linearGradientSlvr" id="linearGradient6292" x1="-2.1136882" y1="-2.2989371" x2="9.7550001" y2="-2.2989371" gradientUnits="userSpaceOnUse" gradientTransform="matrix(0.82917365,0,0,-0.82917365,75.563674,32.668281)" />
    <linearGradient inkscape:collect="always" xlink:href="#linearGradientSlvr" id="linearGradient6300" x1="-0.90154791" y1="1.4016734" x2="2.3563955" y2="1.4016734" gradientUnits="userSpaceOnUse" gradientTransform="matrix(0.82917365,0,0,-0.82917365,35.059288,60.309199)" />
    <linearGradient inkscape:collect="always" xlink:href="#linearGradientSlvr" id="linearGradient6308" x1="-22.079687" y1="23.500771" x2="37.406006" y2="-18.68577" gradientUnits="userSpaceOnUse" gradientTransform="matrix(0.82917365,0,0,-0.82917365,53.192984,47.401536)" />
  </defs>
  <path d="M 100,49.999171 C 100,77.61397 77.613971,99.998342 50.000001,99.998342 22.386031,99.998342 0,77.61397 0,49.999171 0,22.385201 22.386031,0 50.000001,0 77.613971,0 100,22.385201 100,49.999171" style="fill:url(#linearGradient36934);fill-opacity:1;fill-rule:nonzero;stroke:none;stroke-width:0.82917362" id="path65600-5" inkscape:connector-curvature="0" />
  <path d="M 53.192984,47.401536 C 53.20708,47.386611 53.224493,47.370857 53.238589,47.353444 53.251026,47.370857 53.265122,47.386611 53.279218,47.401536 Z M 74.236582,39.211788 C 73.999438,32.838759 68.764036,27.742658 62.331307,27.742658 60.915078,27.742658 59.561038,27.993068 58.299035,28.446626 55.751814,29.364522 53.603425,31.12237 52.197146,33.391818 50.532995,32.030315 48.406165,31.211091 46.087795,31.211091 40.75455,31.211091 36.431239,35.533574 36.431239,40.866818 36.431239,41.489528 36.492598,42.0998 36.606194,42.690171 32.418038,44.050016 29.388238,47.983616 29.388238,52.62533 29.388238,58.391404 34.063948,63.067943 39.832509,63.067943 40.331672,63.067943 40.822542,63.029801 41.302634,62.962638 H 58.299035 72.503609 C 72.928146,63.009901 73.356829,63.033118 73.792974,63.033118 80.374125,63.033118 85.7082,57.697385 85.7082,51.117892 85.7082,44.685992 80.608782,39.446444 74.236582,39.211788" style="display:inline;fill:url(#linearGradient6308);fill-opacity:1;fill-rule:nonzero;stroke:#000000;stroke-width:0.13333334;stroke-miterlimit:4;stroke-dasharray:none;stroke-opacity:0.45632797" id="path65604-4" inkscape:connector-curvature="0" />
  <path d="M 64.903486,41.517554 60.393611,43.204093 60.144029,40.636972 64.653905,38.952091 Z M 57.436777,44.307723 52.926073,45.991775 52.676491,43.426312 57.187196,41.741431 Z M 49.970069,47.097063 45.459364,48.781944 45.209783,46.216481 49.719658,44.529942 Z M 42.502531,49.885574 37.991826,51.570455 37.742245,49.004992 42.253779,47.319282 Z M 90.674203,37.142834 C 90.467739,36.27386 90.34585,34.725793 86.026685,34.496112 84.840137,34.461286 83.928875,34.538399 83.578135,34.616342 83.302849,34.677701 83.024247,34.74818 82.741499,34.853485 L 81.760586,35.220809 78.490325,36.442182 C 76.69931,37.111325 74.705148,36.201722 74.037663,34.411536 73.652097,33.379215 74.5219,32.955507 75.664502,32.6512 73.792228,32.729142 72.031063,33.021012 70.907532,33.441403 L 59.50059,37.700868 50.77105,35.710022 44.344955,38.110479 48.667437,41.748893 26.558351,50.006634 21.444837,47.837516 18.82299,46.725594 14.661367,44.959454 8.6755619,47.194906 9.2576418,47.921262 13.809806,52.520688 14.308139,53.022338 12.49059,56.898725 15.780751,55.669061 16.342102,55.07786 16.808098,55.548831 19.568417,58.334854 24.792211,63.697949 C 27.827815,63.012223 37.238107,59.646607 38.41968,59.049602 L 47.096153,55.808362 39.911363,67.912639 48.615199,64.66062 63.466528,49.694035 78.39497,44.117843 80.304557,43.403924 C 80.354308,43.384853 80.397425,43.353344 80.447175,43.333444 82.913138,42.360824 80.635398,43.279548 85.524206,41.115405 91.080498,38.885757 90.674203,37.142834 90.674203,37.142834" style="display:inline;fill:url(#linearGradient36942);fill-opacity:1;fill-rule:nonzero;stroke:none;stroke-width:0.82917362;stroke-opacity:1" id="path65608-3" inkscape:connector-curvature="0" />
  <path d="M 34.629776,56.533391 C 34.458966,57.260576 34.560955,58.287922 34.974712,59.393211 35.082505,59.682593 35.206881,59.947928 35.33789,60.199997 35.703556,60.910599 36.142189,61.456195 36.589113,61.780402 31.480574,63.581367 27.346315,64.216514 25.50472,63.874065 25.266747,63.82929 25.056137,63.771248 24.899423,63.695793 24.688813,63.595463 24.547854,63.466112 24.489811,63.309398 24.486495,63.300277 24.488982,63.288669 24.485666,63.281206 24.110879,62.075588 28.12408,59.101342 34.629776,56.533391" style="display:inline;fill:url(#linearGradient36950);fill-opacity:1;fill-rule:nonzero;stroke:none;stroke-width:0.82917362" id="path65612-4" inkscape:connector-curvature="0" />
  <path d="M 35.059288,60.309199 C 34.929937,60.06708 34.803073,59.805061 34.691135,59.506559 34.220164,58.245386 34.241723,57.21804 34.463941,56.760336 34.524471,56.63596 34.597438,56.54558 34.682843,56.514071 34.695281,56.509925 34.712693,56.512413 34.725131,56.509925 34.829607,56.490854 34.963104,56.521534 35.116501,56.610255 35.578351,56.873933 36.20106,57.614385 36.636376,58.780203 36.748315,59.078705 36.82377,59.358966 36.885128,59.627618 37.060913,60.407871 37.041842,61.042189 36.911662,61.416146 36.854449,61.583639 36.774848,61.695577 36.681981,61.747815 36.670372,61.754449 36.659593,61.770203 36.647156,61.775178 36.56258,61.805857 36.448983,61.785128 36.320461,61.731232 35.964746,61.577835 35.481337,61.092768 35.059288,60.309199" style="display:inline;fill:url(#linearGradient6300);fill-opacity:1;fill-rule:nonzero;stroke:none;stroke-width:0.82917362" id="path65616-4" inkscape:connector-curvature="0" />
  <path d="M 48.619594,41.741431 44.32862,38.11048 50.755545,35.709193 59.485915,37.700039" style="fill:url(#linearGradient36981);fill-opacity:1;fill-rule:nonzero;stroke:none;stroke-width:0.82917362" id="path65620-0" inkscape:connector-curvature="0" />
  <path d="M 75.563674,32.668281 C 74.401173,32.981709 73.519761,33.427804 73.901181,34.449346 74.563691,36.222948 76.638283,37.16489 78.464953,36.483309 L 81.764235,35.23789 82.711151,34.871395 C 82.999703,34.763603 83.372002,34.684002 83.652263,34.620156 83.652263,34.620156 80.532912,31.611085 75.563674,32.668281" style="fill:url(#linearGradient6292);fill-opacity:1;fill-rule:nonzero;stroke:none;stroke-width:0.82917362" id="path65624-5" inkscape:connector-curvature="0" />
</svg>
