<?xml version="1.0" encoding="UTF-8" standalone="no"?>
<svg xmlns:dc="http://purl.org/dc/elements/1.1/" xmlns:cc="http://creativecommons.org/ns#" xmlns:rdf="http://www.w3.org/1999/02/22-rdf-syntax-ns#" xmlns:svg="http://www.w3.org/2000/svg" xmlns="http://www.w3.org/2000/svg" xmlns:sodipodi="http://sodipodi.sourceforge.net/DTD/sodipodi-0.dtd" xmlns:inkscape="http://www.inkscape.org/namespaces/inkscape" version="1.1" id="svg377" sodipodi:docname="i20.svg" width="100" height="99.999947" inkscape:version="0.92.2 (5c3e80d, 2017-08-06)">
  <metadata id="metadata381">
    <rdf:RDF>
      <cc:Work rdf:about="">
        <dc:format>image/svg+xml</dc:format>
        <dc:type rdf:resource="http://purl.org/dc/dcmitype/StillImage" />
        <dc:title></dc:title>
      </cc:Work>
    </rdf:RDF>
  </metadata>
  <sodipodi:namedview pagecolor="#ffffff" bordercolor="#666666" borderopacity="1" objecttolerance="10" gridtolerance="10" guidetolerance="10" inkscape:pageopacity="0" inkscape:pageshadow="2" inkscape:window-width="2560" inkscape:window-height="1001" id="namedview379" showgrid="false" fit-margin-top="0" fit-margin-left="0" fit-margin-right="0" fit-margin-bottom="0" inkscape:zoom="3.1466652" inkscape:cx="-44.491542" inkscape:cy="37.499992" inkscape:window-x="-9" inkscape:window-y="41" inkscape:window-maximized="1" inkscape:current-layer="svg377" />
  <defs id="defs4543" />
  <path inkscape:connector-curvature="0" id="path7100" style="fill:#ed0872;fill-opacity:1;fill-rule:nonzero;stroke:none;stroke-width:0.49999976" d="M 89.999955,0 H 9.999995 C 4.4999978,0 0,4.4999978 0,9.999995 V 89.999955 C 0,95.499952 4.4999978,99.99995 9.999995,99.99995 H 89.999955 C 95.499952,99.99995 99.99995,95.499952 99.99995,89.999955 V 9.999995 C 99.99995,4.4999978 95.499952,0 89.999955,0" />
  <path d="M 74.341513,35.493382 78.319511,39.47188 78.317511,50.313375 64.430518,36.426382 58.899021,40.27788 50.770025,32.148884 40.44353,32.316384 40.43503,36.781382 26.651537,62.733369 32.787034,68.869366 16.275542,69.354865 20.75154,73.830863 16.254542,73.883863 42.371029,99.99985 H 90.000005 C 95.500002,99.99985 100,95.500352 100,89.999855 V 45.252377 L 82.291009,27.543886 Z" style="opacity:0.19552241;fill:#231f20;fill-opacity:1;fill-rule:nonzero;stroke:none;stroke-width:0.49999976" id="path7110" inkscape:connector-curvature="0" />
  <path inkscape:connector-curvature="0" id="path7120" style="fill:#58595b;fill-opacity:1;fill-rule:nonzero;stroke:none;stroke-width:0.49999976" d="M 63.884268,36.195782 H 27.187286 C 26.767287,36.195782 26.422787,36.539782 26.422787,36.960282 V 62.189269 C 26.422787,62.610269 26.767287,62.954269 27.187286,62.954269 H 63.884268 C 64.305268,62.954269 64.648768,62.610269 64.648768,62.189269 V 36.960282 C 64.648768,36.539782 64.305268,36.195782 63.884268,36.195782" />
  <path inkscape:connector-curvature="0" id="path7124" style="fill:#4c4d4f;fill-opacity:1;fill-rule:nonzero;stroke:none;stroke-width:0.49999976" d="M 54.826623,36.195782 V 62.954269 H 57.183621 V 36.195782 Z M 33.888133,62.954269 H 36.245132 V 36.195782 H 33.888133 Z" />
  <path inkscape:connector-curvature="0" id="path7128" style="fill:#58595b;fill-opacity:1;fill-rule:nonzero;stroke:none;stroke-width:0.49999976" d="M 49.690875,36.195782 49.692875,33.233283 H 41.378879 V 36.195782 H 39.84938 V 33.233283 C 39.84938,32.390784 40.53538,31.704784 41.378879,31.704784 H 49.692875 C 50.535875,31.704784 51.222374,32.390784 51.222374,33.233283 V 36.195782 Z" />
  <path inkscape:connector-curvature="0" id="path7132" style="fill:#414142;fill-opacity:1;fill-rule:nonzero;stroke:none;stroke-width:0.49999976" d="M 41.832029,35.718482 H 39.39203 V 36.195982 H 41.832029 Z" />
  <path inkscape:connector-curvature="0" id="path7136" style="fill:#414142;fill-opacity:1;fill-rule:nonzero;stroke:none;stroke-width:0.49999976" d="M 51.679674,35.718482 H 49.221175 V 36.195982 H 51.679674 Z" />
  <path inkscape:connector-curvature="0" id="path7140" style="fill:#58595b;fill-opacity:1;fill-rule:nonzero;stroke:none;stroke-width:0.49999976" d="M 74.309513,64.297818 H 16.762042 C 16.377042,64.297818 16.062042,64.612818 16.062042,64.997818 V 68.852316 C 16.062042,69.237315 16.377042,69.552815 16.762042,69.552815 H 74.309513 C 74.695013,69.552815 75.009512,69.237315 75.009512,68.852316 V 64.997818 C 75.009512,64.612818 74.695013,64.297818 74.309513,64.297818" />
  <path inkscape:connector-curvature="0" id="path7144" style="fill:#58595b;fill-opacity:1;fill-rule:nonzero;stroke:none;stroke-width:0.49999976" d="M 82.009709,70.948215 H 16.762242 C 16.376742,70.948215 16.061742,71.263214 16.061742,71.648714 V 73.402713 C 16.061742,73.787713 16.376742,74.102713 16.762242,74.102713 H 82.009709 C 82.395209,74.102713 82.709209,73.787713 82.709209,73.402713 V 71.648214 C 82.709209,71.263214 82.395209,70.948215 82.009709,70.948215" />
  <path d="M 73.490463,70.948365 H 17.580491 V 69.552865 H 73.490463 Z" style="fill:#4c4d4f;fill-opacity:1;fill-rule:nonzero;stroke:none;stroke-width:0.49999976" id="path7146" inkscape:connector-curvature="0" />
  <path inkscape:connector-curvature="0" id="path7150" style="fill:#58595b;fill-opacity:1;fill-rule:nonzero;stroke:none;stroke-width:0.49999976" d="M 79.16746,37.446781 H 77.465461 V 70.948265 H 79.16746 Z" />
  <path inkscape:connector-curvature="0" id="path7154" style="fill:#4c4d4f;fill-opacity:1;fill-rule:nonzero;stroke:none;stroke-width:0.49999976" d="M 80.04246,37.446781 H 76.589462 L 76.589962,36.552782 H 80.04246 Z" />
  <path inkscape:connector-curvature="0" id="path7158" style="fill:#58595b;fill-opacity:1;fill-rule:nonzero;stroke:none;stroke-width:0.49999976" d="M 83.937458,31.518784 C 83.937458,34.622783 81.420959,37.140281 78.316461,37.140281 75.211962,37.140281 72.694964,34.622783 72.694964,31.518784 72.694964,28.414286 75.211962,25.896787 78.316461,25.896787 81.420959,25.897287 83.937458,28.414286 83.937458,31.518784" />
  <path inkscape:connector-curvature="0" id="path7162" style="fill:#e7e8e9;fill-opacity:1;fill-rule:nonzero;stroke:none;stroke-width:0.49999976" d="M 83.081008,31.518534 C 83.081008,34.150033 80.94751,36.283532 78.316511,36.283532 75.684512,36.283532 73.551013,34.150033 73.551013,31.518534 73.551013,28.886536 75.684512,26.753537 78.316511,26.753537 80.94751,26.753537 83.081008,28.886536 83.081008,31.518534" />
  <path inkscape:connector-curvature="0" id="path7166" style="fill:#bcbec0;fill-opacity:1;fill-rule:nonzero;stroke:none;stroke-width:0.49999976" d="M 75.891562,33.662083 74.813063,34.740083 C 74.902563,34.838583 74.996563,34.932083 75.094062,35.022082 L 76.173062,33.943583 Z" />
  <path inkscape:connector-curvature="0" id="path7170" style="fill:#bcbec0;fill-opacity:1;fill-rule:nonzero;stroke:none;stroke-width:0.49999976" d="M 81.546859,31.717284 H 83.071358 C 83.073858,31.650784 83.080858,31.585784 83.080858,31.518784 83.080858,31.451284 83.073858,31.385784 83.071358,31.319284 H 81.546359 Z" />
  <path inkscape:connector-curvature="0" id="path7174" style="fill:#bcbec0;fill-opacity:1;fill-rule:nonzero;stroke:none;stroke-width:0.49999976" d="M 80.74141,33.661633 80.46041,33.943133 81.538409,35.022132 C 81.636409,34.931633 81.729909,34.838133 81.819909,34.740133 Z" />
  <path inkscape:connector-curvature="0" id="path7178" style="fill:#bcbec0;fill-opacity:1;fill-rule:nonzero;stroke:none;stroke-width:0.49999976" d="M 75.085412,31.319834 H 73.561413 C 73.558413,31.386334 73.551413,31.451334 73.551413,31.518334 73.551413,31.585834 73.558413,31.651334 73.561413,31.717834 H 75.085912 Z" />
  <path inkscape:connector-curvature="0" id="path7182" style="fill:#bcbec0;fill-opacity:1;fill-rule:nonzero;stroke:none;stroke-width:0.49999976" d="M 80.74116,29.374485 81.819159,28.296486 C 81.729659,28.198486 81.635659,28.104986 81.538159,28.014986 L 80.45966,29.093485 Z" />
  <path inkscape:connector-curvature="0" id="path7186" style="fill:#bcbec0;fill-opacity:1;fill-rule:nonzero;stroke:none;stroke-width:0.49999976" d="M 75.891062,29.374985 76.172562,29.093485 75.094062,28.014986 C 74.996563,28.104986 74.902563,28.198486 74.813063,28.296486 Z" />
  <path inkscape:connector-curvature="0" id="path7190" style="fill:#bcbec0;fill-opacity:1;fill-rule:nonzero;stroke:none;stroke-width:0.49999976" d="M 78.515611,36.273682 V 34.748683 L 78.117611,34.749183 V 36.273682 C 78.183611,36.276682 78.249111,36.283682 78.316611,36.283682 78.383611,36.283682 78.449111,36.276182 78.515611,36.273682" />
  <path inkscape:connector-curvature="0" id="path7194" style="fill:#bcbec0;fill-opacity:1;fill-rule:nonzero;stroke:none;stroke-width:0.49999976" d="M 78.515111,26.763687 C 78.448611,26.760687 78.383111,26.753187 78.316611,26.753187 78.249111,26.753687 78.183611,26.760687 78.117111,26.763687 V 28.288186 H 78.515111 Z" />
  <path inkscape:connector-curvature="0" id="path7198" style="fill:#d81920;fill-opacity:1;fill-rule:nonzero;stroke:none;stroke-width:0.49999976" d="M 78.012161,30.990735 81.728159,29.549235 78.621661,32.046234 Z" />
  <path inkscape:connector-curvature="0" id="path7202" style="fill:#4c4d4f;fill-opacity:1;fill-rule:nonzero;stroke:none;stroke-width:0.49999976" d="M 79.27631,31.518784 C 79.27631,32.048784 78.846311,32.478284 78.316811,32.478284 77.786311,32.478284 77.356311,32.048784 77.356311,31.518784 77.356311,30.988285 77.786311,30.558785 78.316311,30.558785 78.846311,30.558785 79.27631,30.988285 79.27631,31.518784" />
</svg>
