<svg version="1.1" viewBox="0 0 75 75" xmlns="http://www.w3.org/2000/svg">
 <path d="m67.5 0h-60c-4.125 0-7.5 3.375-7.5 7.5v60c0 4.125 3.375 7.5 7.5 7.5h60c4.125 0 7.5-3.375 7.5-7.5v-60c0-4.125-3.375-7.5-7.5-7.5" style="fill:#ed0872"/>
 <path d="m55.76 26.62 2.983 2.984-0.0015 8.131-10.42-10.42-4.149 2.889-6.097-6.097-7.745 0.1256-0.006375 3.349-10.34 19.46 4.602 4.602-12.38 0.3641 3.357 3.357-3.373 0.03975 19.59 19.59h35.72c4.125 0 7.5-3.375 7.5-7.5v-33.56l-13.28-13.28z" style="fill:#231f20;opacity:.1955"/>
 <path d="m47.91 27.15h-27.52c-0.315 0-0.5734 0.258-0.5734 0.5734v18.92c0 0.3158 0.2584 0.5738 0.5734 0.5738h27.52c0.3158 0 0.5734-0.258 0.5734-0.5738v-18.92c0-0.3154-0.2576-0.5734-0.5734-0.5734" style="fill:#58595b"/>
 <path d="m41.12 27.15v20.07h1.768v-20.07zm-15.7 20.07h1.768v-20.07h-1.768z" style="fill:#4c4d4f"/>
 <path d="m37.27 27.15 0.0015-2.222h-6.235v2.222h-1.147v-2.222c0-0.6319 0.5145-1.146 1.147-1.146h6.235c0.6322 0 1.147 0.5145 1.147 1.146v2.222z" style="fill:#58595b"/>
 <path d="m31.37 26.79h-1.83v0.3581h1.83z" style="fill:#414142"/>
 <path d="m38.76 26.79h-1.844v0.3581h1.844z" style="fill:#414142"/>
 <path d="m55.73 48.22h-43.16c-0.2888 0-0.525 0.2362-0.525 0.525v2.891c0 0.2887 0.2362 0.5254 0.525 0.5254h43.16c0.2891 0 0.525-0.2366 0.525-0.5254v-2.891c0-0.2888-0.2359-0.525-0.525-0.525" style="fill:#58595b"/>
 <path d="m61.51 53.21h-48.94c-0.2891 0-0.5254 0.2362-0.5254 0.5254v1.315c0 0.2888 0.2362 0.525 0.5254 0.525h48.94c0.2891 0 0.5246-0.2362 0.5246-0.525v-1.316c0-0.2888-0.2355-0.525-0.5246-0.525" style="fill:#58595b"/>
 <path d="m55.12 53.21h-41.93v-1.047h41.93z" style="fill:#4c4d4f"/>
 <path d="m59.38 28.09h-1.276v25.13h1.276z" style="fill:#58595b"/>
 <path d="m60.03 28.09h-2.59l3.75e-4 -0.6705h2.589z" style="fill:#4c4d4f"/>
 <path d="m62.95 23.64c0 2.328-1.887 4.216-4.216 4.216-2.328 0-4.216-1.888-4.216-4.216 0-2.328 1.888-4.216 4.216-4.216 2.328 3.75e-4 4.216 1.888 4.216 4.216" style="fill:#58595b"/>
 <path d="m62.31 23.64c0 1.974-1.6 3.574-3.573 3.574-1.974 0-3.574-1.6-3.574-3.574 0-1.974 1.6-3.574 3.574-3.574 1.973 0 3.573 1.6 3.573 3.574" style="fill:#e7e8e9"/>
 <path d="m56.92 25.25-0.8089 0.8085c0.06712 0.07388 0.1376 0.144 0.2107 0.2115l0.8092-0.8089z" style="fill:#bcbec0"/>
 <path d="m61.16 23.79h1.143c0.001874-0.04987 0.007125-0.09862 0.007125-0.1489 0-0.05062-0.005251-0.09975-0.007125-0.1496h-1.144z" style="fill:#bcbec0"/>
 <path d="m60.56 25.25-0.2108 0.2111 0.8085 0.8092c0.0735-0.06788 0.1436-0.138 0.2111-0.2115z" style="fill:#bcbec0"/>
 <path d="m56.31 23.49h-1.143c-0.00225 0.04988-0.0075 0.09862-0.0075 0.1489 0 0.05062 0.00525 0.09975 0.0075 0.1496h1.143z" style="fill:#bcbec0"/>
 <path d="m60.56 22.03 0.8085-0.8085c-0.06712-0.0735-0.1376-0.1436-0.2108-0.2111l-0.8089 0.8089z" style="fill:#bcbec0"/>
 <path d="m56.92 22.03 0.2111-0.2111-0.8089-0.8089c-0.07312 0.0675-0.1436 0.1376-0.2107 0.2111z" style="fill:#bcbec0"/>
 <path d="m58.89 27.21v-1.144l-0.2985 3.75e-4v1.143c0.0495 0.00225 0.09862 0.0075 0.1492 0.0075 0.05025 0 0.09938-0.005625 0.1492-0.0075" style="fill:#bcbec0"/>
 <path d="m58.89 20.07c-0.04988-0.00225-0.099-0.007875-0.1489-0.007875-0.05062 3.75e-4 -0.09975 0.005625-0.1496 0.007875v1.143h0.2985z" style="fill:#bcbec0"/>
 <path d="m58.51 23.24 2.787-1.081-2.33 1.873z" style="fill:#d81920"/>
 <path d="m59.46 23.64c0 0.3975-0.3225 0.7196-0.7196 0.7196-0.3979 0-0.7204-0.3221-0.7204-0.7196 0-0.3979 0.3225-0.72 0.72-0.72s0.72 0.3221 0.72 0.72" style="fill:#4c4d4f"/>
</svg>
