<svg version="1.1" viewBox="0 0 75 75" xmlns="http://www.w3.org/2000/svg">
 <path d="m67.5 0h-60c-4.125 0-7.5 3.375-7.5 7.5v60c0 4.125 3.375 7.5 7.5 7.5h60c4.125 0 7.5-3.375 7.5-7.5v-60c0-4.125-3.375-7.5-7.5-7.5" style="fill:#ed1c24"/>
 <path d="m75 67.5v-30.79l-16.36-16.36-2.625 2.625-8.85-8.85-7.467 20.22-13.43-13.43-2.532 1.666 1.981 1.98 0.8055 4.97-9.22-9.221-0.9596 20.2 15.39 15.39-1.831 4.958 14.14 14.14h23.46c4.125 0 7.5-3.375 7.5-7.5" style="fill:#231f20;opacity:.18"/>
 <path d="m43.91 41.06h-12.86l-1.142 19.81h15.14z" style="fill:#bcbec0"/>
 <path d="m46.65 39.69h-18.34v1.368h18.34z" style="fill:#d1d3d4"/>
 <path d="m48.94 39.69h-22.91v-2.739h22.91z" style="fill:#bcbec0"/>
 <path d="m51.22 22.59h-27.48v-2.51h27.48z" style="fill:#bcbec0"/>
 <path d="m50.08 22.59h-25.2l1.828 14.37h21.54z" style="fill:#d1d3d4"/>
 <path d="m50.31 18.78h-25.65v1.299h25.65z" style="fill:#d1d3d4"/>
 <path d="m47.17 14.13h-1.771v4.646h1.771z" style="fill:#bcbec0"/>
 <path d="m51.74 34.43c-0.2565-0.2565-0.2565-0.672 0-0.9281 0.8674-0.8674 1.345-2.021 1.345-3.248 0-1.227-0.4778-2.38-1.345-3.248-0.2565-0.2561-0.2565-0.6716 0-0.9277 0.2561-0.2565 0.6716-0.2565 0.9281 0 1.115 1.115 1.73 2.598 1.73 4.176 0 1.578-0.6142 3.061-1.73 4.176-0.2561 0.2565-0.672 0.2565-0.9281 0" style="fill:#d1d3d4"/>
 <path d="m54.71 37.59c-0.2565-0.2565-0.2565-0.672 0-0.9281 3.428-3.429 3.428-9.008 3.75e-4 -12.44-0.2561-0.2565-0.2558-0.672 3.75e-4 -0.9281 0.2565-0.2561 0.6716-0.2561 0.9281 0 3.939 3.94 3.939 10.35-7.5e-4 14.29-0.2565 0.2561-0.672 0.2561-0.9281 0" style="fill:#d1d3d4"/>
 <path d="m57.68 40.56c-0.2561-0.2565-0.2565-0.672 0-0.9281 5.066-5.066 5.066-13.31 0.001125-18.37-0.2565-0.2561-0.2561-0.6716 0-0.9278 0.2565-0.2565 0.6716-0.2565 0.9281 0 5.577 5.577 5.576 14.65-0.001125 20.23-0.2561 0.2561-0.672 0.2561-0.9281 0" style="fill:#d1d3d4"/>
 <path d="m22.22 34.54c-2.303-2.304-2.303-6.051 0-8.353 0.2565-0.2565 0.672-0.2565 0.9281 0 0.2565 0.2561 0.2561 0.6716 0 0.9277-1.791 1.791-1.791 4.706 0 6.497 0.2565 0.2561 0.2561 0.6716 0 0.9281-0.2565 0.2565-0.672 0.2561-0.9281 0" style="fill:#d1d3d4"/>
 <path d="m19.36 37.59c-1.909-1.909-2.961-4.447-2.961-7.147-3.75e-4 -2.7 1.052-5.238 2.961-7.146 0.2565-0.2561 0.672-0.2561 0.9281 3.76e-4 0.2561 0.2561 0.2561 0.6716 0 0.9281-1.662 1.661-2.576 3.869-2.576 6.218s0.915 4.558 2.576 6.219c0.2561 0.2565 0.2561 0.672 0 0.9281-0.2561 0.2565-0.672 0.2565-0.9281 0" style="fill:#d1d3d4"/>
 <path d="m16.39 40.56c-2.702-2.703-4.19-6.295-4.191-10.12 0-3.822 1.488-7.414 4.191-10.12 0.2565-0.2565 0.672-0.2561 0.9281 0s0.2561 0.6716 0 0.9281c-2.455 2.454-3.806 5.716-3.806 9.188 0 3.471 1.352 6.734 3.806 9.188 0.2561 0.2565 0.2561 0.6716 0 0.9281-0.2561 0.2561-0.672 0.2561-0.9281 0" style="fill:#d1d3d4"/>
 <path d="m42.99 23.64h-5.044v12.27h5.044z" style="fill:#ace1fa"/>
 <path d="m31.97 35.9h5.043v-12.27h-5.043z" style="fill:#ace1fa"/>
 <path d="m31.03 23.64h-4.958l1.56 12.27h3.398z" style="fill:#ace1fa"/>
 <path d="m43.93 23.64v12.27h3.397l1.561-12.27z" style="fill:#ace1fa"/>
</svg>
