<?xml version="1.0" encoding="UTF-8" standalone="no"?>
<svg xmlns:dc="http://purl.org/dc/elements/1.1/" xmlns:cc="http://creativecommons.org/ns#" xmlns:rdf="http://www.w3.org/1999/02/22-rdf-syntax-ns#" xmlns:svg="http://www.w3.org/2000/svg" xmlns="http://www.w3.org/2000/svg" xmlns:sodipodi="http://sodipodi.sourceforge.net/DTD/sodipodi-0.dtd" xmlns:inkscape="http://www.inkscape.org/namespaces/inkscape" version="1.1" id="svg372" sodipodi:docname="i21.svg" width="100" height="100" inkscape:version="0.92.2 (5c3e80d, 2017-08-06)">
  <metadata id="metadata376">
    <rdf:RDF>
      <cc:Work rdf:about="">
        <dc:format>image/svg+xml</dc:format>
        <dc:type rdf:resource="http://purl.org/dc/dcmitype/StillImage" />
        <dc:title></dc:title>
      </cc:Work>
    </rdf:RDF>
  </metadata>
  <sodipodi:namedview pagecolor="#ffffff" bordercolor="#666666" borderopacity="1" objecttolerance="10" gridtolerance="10" guidetolerance="10" inkscape:pageopacity="0" inkscape:pageshadow="2" inkscape:window-width="2560" inkscape:window-height="1001" id="namedview374" showgrid="false" fit-margin-top="0" fit-margin-left="0" fit-margin-right="0" fit-margin-bottom="0" inkscape:zoom="3.1466668" inkscape:cx="-67.690681" inkscape:cy="37.499999" inkscape:window-x="-9" inkscape:window-y="41" inkscape:window-maximized="1" inkscape:current-layer="svg372" />
  <defs id="defs4543" />
  <path inkscape:connector-curvature="0" id="path7374" style="fill:#ed1c24;fill-opacity:1;fill-rule:nonzero;stroke:none;stroke-width:0.5" d="M 90,0 H 10 C 4.5,0 0,4.5 0,10 V 90 C 0,95.5 4.5,100 10,100 H 90 C 95.5,100 100,95.5 100,90 V 10 C 100,4.5 95.5,0 90,0" />
  <path d="M 100,90 V 48.9525 L 78.1885,27.141 74.688,30.6415 62.8885,18.842 52.9325,45.7975 35.0315,27.8965 31.656,30.118 34.297,32.7585 35.371,39.3845 23.077,27.09 21.7975,54.0245 42.3155,74.542 39.874,81.1525 58.7215,100 H 90 C 95.5,100 100,95.5 100,90" style="opacity:0.17999998;fill:#231f20;fill-opacity:1;fill-rule:nonzero;stroke:none;stroke-width:0.5" id="path7384" inkscape:connector-curvature="0" />
  <path inkscape:connector-curvature="0" id="path7394" style="fill:#bcbec0;fill-opacity:1;fill-rule:nonzero;stroke:none;stroke-width:0.5" d="M 58.5481,54.74805 H 41.4026 L 39.8801,81.15805 H 60.0706 Z" />
  <path d="M 62.2035,52.9236 H 37.747 V 54.7476 H 62.2035 Z" style="fill:#d1d3d4;fill-opacity:1;fill-rule:nonzero;stroke:none;stroke-width:0.5" id="path7396" inkscape:connector-curvature="0" />
  <path d="M 65.25,52.9236 H 34.701 V 49.2716 H 65.25 Z" style="fill:#bcbec0;fill-opacity:1;fill-rule:nonzero;stroke:none;stroke-width:0.5" id="path7398" inkscape:connector-curvature="0" />
  <path d="M 68.296,30.1166 H 31.6545 V 26.7696 H 68.296 Z" style="fill:#bcbec0;fill-opacity:1;fill-rule:nonzero;stroke:none;stroke-width:0.5" id="path7400" inkscape:connector-curvature="0" />
  <path inkscape:connector-curvature="0" id="path7404" style="fill:#d1d3d4;fill-opacity:1;fill-rule:nonzero;stroke:none;stroke-width:0.5" d="M 66.7732,30.1167 H 33.1782 L 35.6152,49.2722 H 64.3362 Z" />
  <path d="M 67.0775,25.0371 H 32.873 V 26.7696 H 67.0775 Z" style="fill:#d1d3d4;fill-opacity:1;fill-rule:nonzero;stroke:none;stroke-width:0.5" id="path7406" inkscape:connector-curvature="0" />
  <path d="M 62.889,18.8421 H 60.528 V 25.0371 H 62.889 Z" style="fill:#bcbec0;fill-opacity:1;fill-rule:nonzero;stroke:none;stroke-width:0.5" id="path7408" inkscape:connector-curvature="0" />
  <path inkscape:connector-curvature="0" id="path7412" style="fill:#d1d3d4;fill-opacity:1;fill-rule:nonzero;stroke:none;stroke-width:0.5" d="M 68.9927,45.90525 V 45.90525 C 68.6507,45.56325 68.6507,45.00925 68.9927,44.66775 70.1492,43.51125 70.7862,41.97325 70.7862,40.33725 70.7862,38.70125 70.1492,37.16375 68.9927,36.00675 68.6507,35.66525 68.6507,35.11125 68.9927,34.76975 69.3342,34.42775 69.8882,34.42775 70.2302,34.76975 71.7172,36.25625 72.5362,38.23375 72.5362,40.33725 72.5362,42.44075 71.7172,44.41825 70.2302,45.90525 69.8887,46.24725 69.3342,46.24725 68.9927,45.90525" />
  <path inkscape:connector-curvature="0" id="path7416" style="fill:#d1d3d4;fill-opacity:1;fill-rule:nonzero;stroke:none;stroke-width:0.5" d="M 72.9524,50.1184 C 72.6104,49.7764 72.6104,49.2224 72.9524,48.8809 77.5224,44.3089 77.5229,36.8709 72.9529,32.2999 72.6114,31.9579 72.6119,31.4039 72.9534,31.0624 73.2954,30.7209 73.8489,30.7209 74.1909,31.0624 79.4429,36.3159 79.4424,44.8644 74.1899,50.1184 73.8479,50.4599 73.2939,50.4599 72.9524,50.1184" />
  <path inkscape:connector-curvature="0" id="path7420" style="fill:#d1d3d4;fill-opacity:1;fill-rule:nonzero;stroke:none;stroke-width:0.5" d="M 76.9114,54.07715 C 76.5699,53.73515 76.5694,53.18115 76.9114,52.83965 83.6659,46.08515 83.6664,35.09515 76.9129,28.34015 76.5709,27.99865 76.5714,27.44465 76.9129,27.10315 77.2549,26.76115 77.8084,26.76115 78.1504,27.10315 85.5864,34.53965 85.5854,46.64015 78.1489,54.07715 77.8074,54.41865 77.2529,54.41865 76.9114,54.07715" />
  <path inkscape:connector-curvature="0" id="path7424" style="fill:#d1d3d4;fill-opacity:1;fill-rule:nonzero;stroke:none;stroke-width:0.5" d="M 29.6289,46.04785 V 46.04785 C 26.5579,42.97585 26.5584,37.97985 29.6289,34.91035 29.9709,34.56835 30.5249,34.56835 30.8664,34.91035 31.2084,35.25185 31.2079,35.80585 30.8664,36.14735 28.4779,38.53535 28.4779,42.42135 30.8664,44.81035 31.2084,45.15185 31.2079,45.70585 30.8664,46.04785 30.5244,46.38985 29.9704,46.38935 29.6289,46.04785" />
  <path inkscape:connector-curvature="0" id="path7428" style="fill:#d1d3d4;fill-opacity:1;fill-rule:nonzero;stroke:none;stroke-width:0.5" d="M 25.81105,50.11865 V 50.11865 C 23.26605,47.57315 21.86355,44.18915 21.86355,40.58965 21.86305,36.99015 23.26555,33.60615 25.81105,31.06115 26.15305,30.71965 26.70705,30.71965 27.04855,31.06165 V 31.06165 C 27.39005,31.40315 27.39005,31.95715 27.04855,32.29915 24.83305,34.51315 23.61355,37.45765 23.61355,40.58965 23.61355,43.72165 24.83355,46.66665 27.04855,48.88115 27.39005,49.22315 27.39005,49.77715 27.04855,50.11865 26.70705,50.46065 26.15255,50.46065 25.81105,50.11865" />
  <path inkscape:connector-curvature="0" id="path7432" style="fill:#d1d3d4;fill-opacity:1;fill-rule:nonzero;stroke:none;stroke-width:0.5" d="M 21.8513,54.0781 V 54.0781 C 18.2483,50.4746 16.2643,45.6846 16.2638,40.5896 16.2638,35.4941 18.2478,30.7041 21.8513,27.1021 22.1933,26.7601 22.7473,26.7606 23.0888,27.1021 V 27.1021 C 23.4303,27.4436 23.4303,27.9976 23.0888,28.3396 19.8158,31.6111 18.0138,35.9616 18.0138,40.5896 18.0138,45.2171 19.8163,49.5681 23.0888,52.8406 23.4303,53.1826 23.4303,53.7361 23.0888,54.0781 22.7473,54.4196 22.1928,54.4196 21.8513,54.0781" />
  <path d="M 57.3245,31.5166 H 50.5995 V 47.8721 H 57.3245 Z" style="fill:#ace1fa;fill-opacity:1;fill-rule:nonzero;stroke:none;stroke-width:0.5" id="path7434" inkscape:connector-curvature="0" />
  <path inkscape:connector-curvature="0" id="path7438" style="fill:#ace1fa;fill-opacity:1;fill-rule:nonzero;stroke:none;stroke-width:0.5" d="M 42.62695,47.87205 H 49.35145 V 31.51655 H 42.62695 Z" />
  <path inkscape:connector-curvature="0" id="path7442" style="fill:#ace1fa;fill-opacity:1;fill-rule:nonzero;stroke:none;stroke-width:0.5" d="M 41.37865,31.5166 H 34.76765 L 36.84815,47.8721 H 41.37865 Z" />
  <path inkscape:connector-curvature="0" id="path7446" style="fill:#ace1fa;fill-opacity:1;fill-rule:nonzero;stroke:none;stroke-width:0.5" d="M 58.57275,31.5166 V 47.8721 H 63.10275 L 65.18425,31.5166 Z" />
</svg>
