<?xml version="1.0" encoding="UTF-8" standalone="no"?>
<svg xmlns:dc="http://purl.org/dc/elements/1.1/" xmlns:cc="http://creativecommons.org/ns#" xmlns:rdf="http://www.w3.org/1999/02/22-rdf-syntax-ns#" xmlns:svg="http://www.w3.org/2000/svg" xmlns="http://www.w3.org/2000/svg" xmlns:sodipodi="http://sodipodi.sourceforge.net/DTD/sodipodi-0.dtd" xmlns:inkscape="http://www.inkscape.org/namespaces/inkscape" version="1.1" id="svg365" sodipodi:docname="i22.svg" width="100" height="100" inkscape:version="0.92.2 (5c3e80d, 2017-08-06)">
  <metadata id="metadata369">
    <rdf:RDF>
      <cc:Work rdf:about="">
        <dc:format>image/svg+xml</dc:format>
        <dc:type rdf:resource="http://purl.org/dc/dcmitype/StillImage" />
        <dc:title></dc:title>
      </cc:Work>
    </rdf:RDF>
  </metadata>
  <sodipodi:namedview pagecolor="#ffffff" bordercolor="#666666" borderopacity="1" objecttolerance="10" gridtolerance="10" guidetolerance="10" inkscape:pageopacity="0" inkscape:pageshadow="2" inkscape:window-width="2560" inkscape:window-height="1001" id="namedview367" showgrid="false" fit-margin-top="0" fit-margin-left="0" fit-margin-right="0" fit-margin-bottom="0" inkscape:zoom="3.1466668" inkscape:cx="-67.690679" inkscape:cy="37.499999" inkscape:window-x="-9" inkscape:window-y="41" inkscape:window-maximized="1" inkscape:current-layer="svg365" />
  <defs id="defs4543" />
  <path inkscape:connector-curvature="0" id="path7450" style="fill:#8cc63f;fill-opacity:1;fill-rule:nonzero;stroke:none;stroke-width:0.5" d="M 90,0 H 10 C 4.5,0 0,4.5 0,10 V 90 C 0,95.5 4.5,100 10,100 H 90 C 95.5,100 100,95.5 100,90 V 10 C 100,4.5 95.5,0 90,0" />
  <path d="M 100,90 V 43.7205 L 72.361,16.0815 28.643,17.143 29.573,45.251 26.0805,41.758 15.055,37.3765 29.2365,51.558 28.902,52.068 26.1415,49.3075 13.5315,50.562 22.2215,59.2515 15.0495,63.737 28.9775,77.665 27.841,83.922 43.919,100 H 90 C 95.5,100 100,95.5 100,90" style="opacity:0.22000002;fill:#231f20;fill-opacity:1;fill-rule:nonzero;stroke:none;stroke-width:0.5" id="path7460" inkscape:connector-curvature="0" />
  <path inkscape:connector-curvature="0" id="path7470" style="fill:#58595b;fill-opacity:1;fill-rule:nonzero;stroke:none;stroke-width:0.5" d="M 27.8357,16.0835 V 83.9165 H 32.0357 V 23.0835 H 68.1622 V 83.9165 H 72.3627 V 16.0835 Z" />
  <path inkscape:connector-curvature="0" id="path7474" style="fill:#231f20;fill-opacity:1;fill-rule:nonzero;stroke:none;stroke-width:0.5" d="M 50.0989,41.10205 C 53.4284,41.10205 56.1274,38.40355 56.1274,35.07355 56.1274,31.74455 53.4284,29.04555 50.0989,29.04555 46.7699,29.04555 44.0709,31.74455 44.0709,35.07355 44.0709,38.40355 46.7699,41.10205 50.0989,41.10205 M 50.0989,42.71405 C 42.8619,42.71405 36.9954,48.58005 36.9954,55.81705 V 59.61205 C 36.9954,60.75505 37.9219,61.68105 39.0649,61.68105 40.2074,61.68105 41.1334,60.75505 41.1334,59.61205 V 55.81705 C 41.1334,53.49855 42.0219,51.39155 43.4669,49.80005 L 44.5819,61.24155 V 81.84755 C 44.5819,82.99005 45.5079,83.91655 46.6509,83.91655 47.7934,83.91655 48.7199,82.99005 48.7199,81.84755 V 66.85105 C 48.7199,66.09005 49.3374,65.47205 50.0989,65.47205 50.8604,65.47205 51.4784,66.09005 51.4784,66.85105 V 81.84755 C 51.4784,82.99005 52.4044,83.91655 53.5469,83.91655 54.6899,83.91655 55.6164,82.99005 55.6164,81.84755 V 61.24155 L 56.7314,49.80005 C 58.1764,51.39205 59.0644,53.49855 59.0644,55.81705 V 59.61205 C 59.0644,60.75505 59.9909,61.68105 61.1334,61.68105 62.2759,61.68105 63.2029,60.75505 63.2024,59.61205 V 55.81705 C 63.2029,48.58005 57.3354,42.71405 50.0989,42.71405" />
  <path inkscape:connector-curvature="0" id="path7478" style="fill:#8cc63f;fill-opacity:1;fill-rule:nonzero;stroke:none;stroke-width:0.5" d="M 42.9475,21.06885 C 42.245,21.06885 41.6765,20.49935 41.676,19.79785 41.676,19.09535 42.245,18.52635 42.9475,18.52635 L 47.396,18.52685 C 48.0985,18.52635 48.6675,19.09535 48.6675,19.79785 48.6675,20.49935 48.0985,21.06885 47.396,21.06885 Z" />
  <path inkscape:connector-curvature="0" id="path7482" style="fill:#d81920;fill-opacity:1;fill-rule:nonzero;stroke:none;stroke-width:0.5" d="M 52.802,21.06885 C 52.0995,21.06885 51.5305,20.49935 51.5305,19.79785 51.5305,19.09535 52.0995,18.52685 52.802,18.52635 H 57.2505 C 57.953,18.52685 58.522,19.09535 58.522,19.79785 58.522,20.49935 57.953,21.06885 57.2505,21.06885 Z" />
  <path inkscape:connector-curvature="0" id="path7486" style="fill:#d1d3d4;fill-opacity:1;fill-rule:nonzero;stroke:none;stroke-width:0.5" d="M 73.84375,50.55955 C 73.68575,50.40155 73.58775,50.18255 73.58775,49.94105 73.58725,49.45755 73.97925,49.06605 74.46225,49.06605 H 85.85125 C 86.33425,49.06555 86.72625,49.45755 86.72625,49.94105 86.72625,50.42405 86.33425,50.81605 85.85125,50.81555 L 74.46225,50.81605 C 74.22075,50.81605 74.00225,50.71805 73.84375,50.55955" />
  <path inkscape:connector-curvature="0" id="path7490" style="fill:#d1d3d4;fill-opacity:1;fill-rule:nonzero;stroke:none;stroke-width:0.5" d="M 73.844,43.07225 C 73.791,43.01925 73.744,42.95875 73.7045,42.89075 73.463,42.47225 73.6065,41.93675 74.025,41.69525 L 83.888,36.00075 C 84.3065,35.75975 84.841,35.90275 85.0835,36.32125 85.325,36.73975 85.1815,37.27475 84.763,37.51675 L 74.9,43.21075 C 74.5495,43.41325 74.117,43.34575 73.844,43.07225" />
  <path inkscape:connector-curvature="0" id="path7494" style="fill:#d1d3d4;fill-opacity:1;fill-rule:nonzero;stroke:none;stroke-width:0.5" d="M 73.8435,58.04785 C 73.5705,57.77485 73.5025,57.34235 73.705,56.99185 73.9465,56.57335 74.4815,56.42985 74.9,56.67135 L 84.763,62.36585 C 85.1825,62.60785 85.325,63.14235 85.0835,63.56085 84.842,63.97935 84.3065,64.12285 83.888,63.88135 L 74.025,58.18735 C 73.9575,58.14785 73.8965,58.10085 73.8435,58.04785" />
  <path inkscape:connector-curvature="0" id="path7498" style="fill:#d1d3d4;fill-opacity:1;fill-rule:nonzero;stroke:none;stroke-width:0.5" d="M 13.5298,50.55955 C 13.3718,50.40155 13.2738,50.18255 13.2738,49.94105 13.2733,49.45755 13.6653,49.06605 14.1483,49.06605 H 25.5378 C 26.0208,49.06605 26.4123,49.45755 26.4123,49.94105 26.4128,50.42405 26.0208,50.81605 25.5378,50.81605 H 14.1483 C 13.9068,50.81605 13.6878,50.71805 13.5298,50.55955" />
  <path inkscape:connector-curvature="0" id="path7502" style="fill:#d1d3d4;fill-opacity:1;fill-rule:nonzero;stroke:none;stroke-width:0.5" d="M 15.05565,63.7429 C 15.00265,63.6899 14.95565,63.6289 14.91665,63.5609 14.67465,63.1424 14.81815,62.6074 15.23665,62.3659 L 25.09965,56.6714 C 25.51815,56.4299 26.05265,56.5734 26.29515,56.9919 26.53665,57.4104 26.39315,57.9454 25.97465,58.1874 L 16.11165,63.8814 C 15.76115,64.0839 15.32915,64.0159 15.05565,63.7429" />
  <path inkscape:connector-curvature="0" id="path7506" style="fill:#d1d3d4;fill-opacity:1;fill-rule:nonzero;stroke:none;stroke-width:0.5" d="M 15.05495,37.3767 C 14.78145,37.1037 14.71395,36.6712 14.91645,36.3207 15.15795,35.9022 15.69295,35.7587 16.11145,36.0002 L 25.97445,41.6947 C 26.39295,41.9367 26.53645,42.4717 26.29495,42.8897 26.05345,43.3082 25.51795,43.4522 25.09945,43.2102 L 15.23645,37.5162 C 15.16895,37.4767 15.10795,37.4297 15.05495,37.3767" />
</svg>
