<svg version="1.1" viewBox="0 0 75 75" xmlns="http://www.w3.org/2000/svg">
 <path d="m67.5 0h-60c-4.125 0-7.5 3.375-7.5 7.5v60c0 4.125 3.375 7.5 7.5 7.5h60c4.125 0 7.5-3.375 7.5-7.5v-60c0-4.125-3.375-7.5-7.5-7.5" style="fill:#8cc63f"/>
 <path d="m75 67.5v-34.71l-20.73-20.73-32.79 0.7961 0.6975 21.08-2.619-2.62-8.269-3.286 10.64 10.64-0.2509 0.3825-2.07-2.07-9.458 0.9409 6.518 6.517-5.379 3.364 10.45 10.45-0.8524 4.693 12.06 12.06h34.56c4.125 0 7.5-3.375 7.5-7.5" style="fill:#231f20;opacity:.22"/>
 <path d="m20.88 12.06v50.87h3.15v-45.62h27.09v45.62h3.15v-50.87z" style="fill:#58595b"/>
 <path d="m37.57 30.83c2.497 0 4.521-2.024 4.521-4.521 0-2.497-2.024-4.521-4.521-4.521-2.497 0-4.521 2.024-4.521 4.521 0 2.498 2.024 4.521 4.521 4.521m0 1.209c-5.428 0-9.828 4.399-9.828 9.827v2.846c0 0.8573 0.6949 1.552 1.552 1.552 0.8569 0 1.551-0.6945 1.551-1.552v-2.846c0-1.739 0.6664-3.319 1.75-4.513l0.8362 8.581v15.45c0 0.8569 0.6945 1.552 1.552 1.552 0.8569 0 1.552-0.6949 1.552-1.552v-11.25c0-0.5708 0.4631-1.034 1.034-1.034s1.035 0.4635 1.035 1.034v11.25c0 0.8569 0.6945 1.552 1.551 1.552 0.8572 0 1.552-0.6949 1.552-1.552v-15.45l0.8362-8.581c1.084 1.194 1.75 2.774 1.75 4.513v2.846c0 0.8573 0.6949 1.552 1.552 1.552s1.552-0.6945 1.552-1.552v-2.846c3.75e-4 -5.428-4.4-9.827-9.828-9.827" style="fill:#231f20"/>
 <path d="m32.21 15.8c-0.5269 0-0.9532-0.4271-0.9536-0.9532 0-0.5269 0.4268-0.9536 0.9536-0.9536l3.336 3.76e-4c0.5269-3.76e-4 0.9536 0.4264 0.9536 0.9532 0 0.5261-0.4268 0.9532-0.9536 0.9532z" style="fill:#8cc63f"/>
 <path d="m39.6 15.8c-0.5269 0-0.9536-0.4271-0.9536-0.9532 0-0.5269 0.4268-0.9532 0.9536-0.9536h3.336c0.5269 3.76e-4 0.9536 0.4268 0.9536 0.9536 0 0.5261-0.4268 0.9532-0.9536 0.9532z" style="fill:#d81920"/>
 <path d="m55.38 37.92c-0.1185-0.1185-0.192-0.2828-0.192-0.4639-3.74e-4 -0.3626 0.2936-0.6562 0.6559-0.6562h8.542c0.3622-3.74e-4 0.6562 0.2936 0.6562 0.6562 0 0.3623-0.294 0.6562-0.6562 0.6559l-8.542 3.74e-4c-0.1811 0-0.345-0.0735-0.4639-0.1924" style="fill:#d1d3d4"/>
 <path d="m55.38 32.3c-0.03975-0.03975-0.075-0.08512-0.1046-0.1361-0.1811-0.3139-0.0735-0.7155 0.2404-0.8966l7.397-4.271c0.3139-0.1808 0.7148-0.0735 0.8966 0.2404 0.1811 0.3139 0.0735 0.7151-0.2404 0.8966l-7.397 4.27c-0.2629 0.1519-0.5872 0.1012-0.792-0.1039" style="fill:#d1d3d4"/>
 <path d="m55.38 43.54c-0.2048-0.2048-0.2558-0.5291-0.1039-0.792 0.1811-0.3139 0.5824-0.4215 0.8962-0.2404l7.397 4.271c0.3146 0.1815 0.4215 0.5824 0.2404 0.8962-0.1811 0.3139-0.5828 0.4215-0.8966 0.2404l-7.397-4.27c-0.05062-0.02962-0.09638-0.06488-0.1361-0.1046" style="fill:#d1d3d4"/>
 <path d="m10.15 37.92c-0.1185-0.1185-0.192-0.2828-0.192-0.4639-3.75e-4 -0.3626 0.2936-0.6562 0.6559-0.6562h8.542c0.3622 0 0.6559 0.2936 0.6559 0.6562 3.75e-4 0.3623-0.2936 0.6562-0.6559 0.6562h-8.542c-0.1811 0-0.3454-0.0735-0.4639-0.1924" style="fill:#d1d3d4"/>
 <path d="m11.29 47.81c-0.03975-0.03975-0.075-0.0855-0.1042-0.1365-0.1815-0.3139-0.07388-0.7151 0.24-0.8962l7.397-4.271c0.3139-0.1811 0.7148-0.0735 0.8966 0.2404 0.1811 0.3139 0.0735 0.7151-0.2404 0.8966l-7.397 4.27c-0.2629 0.1519-0.5869 0.1009-0.792-0.1039" style="fill:#d1d3d4"/>
 <path d="m11.29 28.03c-0.2051-0.2048-0.2558-0.5291-0.1039-0.792 0.1811-0.3139 0.5824-0.4215 0.8962-0.2404l7.397 4.271c0.3139 0.1815 0.4215 0.5828 0.2404 0.8962-0.1811 0.3139-0.5828 0.4219-0.8966 0.2404l-7.397-4.27c-0.05062-0.02962-0.09638-0.06488-0.1361-0.1046" style="fill:#d1d3d4"/>
</svg>
