<svg style="enable-background:new" version="1.1" viewBox="0 0 75 57.76" xmlns="http://www.w3.org/2000/svg" xmlns:xlink="http://www.w3.org/1999/xlink">
 <defs>
  <linearGradient id="linearGradient30235" x1="45.7" x2="45.7" y1="-2.696" y2="81.05" gradientTransform="matrix(.7271 0 0 .7271 1.143 .7271)" gradientUnits="userSpaceOnUse">
   <stop stop-color="#696969" offset="0"/>
   <stop stop-color="#c7c7c9" offset=".144"/>
   <stop stop-color="#f9f9ff" offset=".36"/>
   <stop stop-color="#ccccce" offset=".808"/>
   <stop stop-color="#696969" offset="1"/>
  </linearGradient>
 </defs>
 <path d="m27.02 0-27.02 57.76h75l-27.02-57.76h-0.463zm0.9245 1.454h8.288l-0.03692 0.5425-0.3991 5.642-0.00568 0.07243-0.04261 0.6036-0.4729 6.69h-0.00142l-0.04687 0.6746-0.6888 9.708h5.916l-0.73-10.31-0.005681-0.07243-0.5155-7.294-0.00568-0.07243-0.4374-6.185h8.292l25.66 54.85h-70.43zm9.552 2.749 0.1449 2.054h-0.2897zm-0.3465 4.89h0.693l0.321 4.53h-1.334zm-0.5212 7.367h1.735l0.5297 7.474h-2.794zm-2.079 9.961-0.05255 0.6703-0.7996 10.08h7.599l-0.8521-10.76zm1.345 1.454h3.207l0.6206 7.847h-4.451zm-2.18 10.89-1.359 17.38h10.28l-1.359-17.38zm1.345 1.454h4.875l1.132 14.47h-7.139zm-1.917 15.2 1.246-15.92h6.22l1.246 15.92zm1.342-18.96 0.7373-9.3h4.551l0.7366 9.3zm0.8347-11.79 0.6327-8.929h3.09l0.6325 8.929zm0.7306-10.31 0.4238-5.984h2.047l0.424 5.984zm0.5216-7.366 0.3495-4.937h1.153l0.3493 4.937z" style="color-rendering:auto;color:#000000;fill:url(#linearGradient30235);isolation:auto;mix-blend-mode:normal;shape-rendering:auto;solid-color:#000000"/>
 <path id="b_w_road" d="m47.52 0.7271h-20.03l-26.34 56.3h72.71zm-10.59 1.32h1.153l0.3493 4.937h-1.851zm-0.4472 6.319h2.047l0.424 5.984h-2.895zm-0.5217 7.366h3.09l0.6325 8.929h-4.356zm-0.73 11.42h4.551l0.7366 9.3h-6.025zm2.276 28.26h-4.356l1.246-15.92h6.22l1.246 15.92z" style="fill:#000000;stroke-width:.7271"/>
</svg>
