<?xml version="1.0" encoding="UTF-8" standalone="no"?>
<svg xmlns:dc="http://purl.org/dc/elements/1.1/" xmlns:cc="http://creativecommons.org/ns#" xmlns:rdf="http://www.w3.org/1999/02/22-rdf-syntax-ns#" xmlns:svg="http://www.w3.org/2000/svg" xmlns="http://www.w3.org/2000/svg" xmlns:xlink="http://www.w3.org/1999/xlink" xmlns:sodipodi="http://sodipodi.sourceforge.net/DTD/sodipodi-0.dtd" xmlns:inkscape="http://www.inkscape.org/namespaces/inkscape" version="1.1" viewBox="0 0 100 77.00814" id="svg3" sodipodi:docname="i23b.svg" width="100" height="77.008141" inkscape:version="0.92.2 (5c3e80d, 2017-08-06)" style="enable-background:new">
  <metadata id="metadata9">
    <rdf:RDF>
      <cc:Work rdf:about="">
        <dc:format>image/svg+xml</dc:format>
        <dc:type rdf:resource="http://purl.org/dc/dcmitype/StillImage" />
        <dc:title></dc:title>
      </cc:Work>
    </rdf:RDF>
  </metadata>
  <defs id="defs7">
    <linearGradient id="reslogo-linearGradient5862" x1="-1520.8899" xlink:href="#reslogo-linearGradientSlvr" gradientUnits="userSpaceOnUse" x2="-1520.8899" gradientTransform="matrix(3.7829288,0,0,3.8170356,5531.411,-6803.2231)" y1="1777.6238" y2="1889.6127" />
    <linearGradient id="reslogo-linearGradientSlvr" y2="828" gradientUnits="userSpaceOnUse" x2="-1869" gradientTransform="matrix(1.301,0,0,1.301,1365,-35.3)" y1="794.40002" x1="-1869">
      <stop id="reslogo-stop4422" stop-color="#696969" offset="0" />
      <stop id="reslogo-stop4424" stop-color="#c7c7c9" offset="0.14400001" />
      <stop id="reslogo-stop4426" stop-color="#f9f9ff" offset=".36" />
      <stop id="reslogo-stop4428" stop-color="#ccccce" offset="0.80799997" />
      <stop id="reslogo-stop4430" stop-color="#696969" offset="1" />
    </linearGradient>
    <linearGradient inkscape:collect="always" xlink:href="#reslogo-linearGradientSlvr" id="linearGradient30235" x1="45.703396" y1="-2.696454" x2="45.703396" y2="81.054443" gradientUnits="userSpaceOnUse" gradientTransform="matrix(0.96951331,0,0,0.96951331,1.5243324,0.9695133)" />
  </defs>
  <sodipodi:namedview pagecolor="#ffffff" bordercolor="#666666" borderopacity="1" objecttolerance="10" gridtolerance="10" guidetolerance="10" inkscape:pageopacity="0" inkscape:pageshadow="2" inkscape:window-width="2560" inkscape:window-height="1001" id="namedview5" showgrid="false" fit-margin-top="0" fit-margin-left="0" fit-margin-right="0" fit-margin-bottom="0" inkscape:zoom="4.3104016" inkscape:cx="95.333947" inkscape:cy="70.634421" inkscape:window-x="-9" inkscape:window-y="41" inkscape:window-maximized="1" inkscape:current-layer="svg3" />
  <path style="color:#000000;clip-rule:nonzero;display:inline;visibility:visible;opacity:1;isolation:auto;mix-blend-mode:normal;color-interpolation:sRGB;solid-color:#000000;solid-opacity:1;fill:url(#linearGradient30235);fill-opacity:1;fill-rule:nonzero;stroke:none;stroke-width:1.93902659;stroke-linecap:butt;stroke-linejoin:miter;stroke-miterlimit:4;stroke-dasharray:none;stroke-dashoffset:0;stroke-opacity:1;color-rendering:auto;shape-rendering:auto" d="M 36.032947,0 0,77.00814 H 100 L 63.976518,0 H 63.35921 Z M 37.265668,1.9390266 H 48.316605 L 48.267372,2.6623745 47.735275,10.185571 47.727701,10.282144 47.670894,11.086915 47.040332,20.007574 H 47.038438 L 46.97595,20.907025 46.057564,33.851543 H 53.94622 L 52.97292,20.104146 52.965346,20.007574 52.277975,10.282144 52.270402,10.185571 51.687178,1.9390266 H 62.743796 L 96.951331,75.069113 H 3.0486648 Z M 50.001892,5.6049988 50.195037,8.3431165 H 49.808746 Z M 49.539859,12.124597 H 50.463926 L 50.891875,18.16512 H 49.113803 Z M 48.844914,21.946601 H 51.158869 L 51.865175,31.912516 H 48.140502 Z M 46.072712,35.228176 46.002649,36.121945 44.936564,49.568262 H 55.069114 L 53.932966,35.228176 Z M 47.865933,37.167202 H 52.141638 L 52.969133,47.629235 H 47.034651 Z M 44.959286,51.681498 43.14713,74.851351 H 50.003785 56.858548 L 55.046391,51.681498 Z M 46.752508,53.620525 H 53.25317 L 54.762353,72.912324 H 50.003785 45.243324 Z M 44.196007,73.882732 45.856783,52.65039 H 54.15 L 55.810776,73.882732 Z M 45.985728,48.597824 46.968815,36.197749 H 53.036999 L 54.019116,48.597824 Z M 47.098633,32.882014 47.942206,20.97639 H 52.062638 L 52.906017,32.882014 Z M 48.072703,19.134315 48.637832,11.15522 H 51.367012 L 51.932335,19.134315 Z M 48.768135,9.3131446 49.234083,2.7301494 H 50.770761 L 51.236516,9.3131446 Z" id="path29641" inkscape:connector-curvature="0" />
  <path id="b_w_road" d="M 63.359892,0.9695133 H 36.6498 L 1.5243324,76.038929 H 98.475664 Z M 49.234083,2.7301494 H 50.770761 L 51.236516,9.3131446 H 48.768135 Z M 48.637832,11.15522 H 51.367012 L 51.932335,19.134315 H 48.072703 Z M 47.942206,20.97639 H 52.062638 L 52.906017,32.882014 H 47.098633 Z M 46.968815,36.197749 H 53.036999 L 54.019116,48.597824 H 45.985728 Z M 50.003392,73.882732 H 44.196007 L 45.856783,52.65039 H 54.15 L 55.810776,73.882732 Z" style="fill:#000000;fill-opacity:1;stroke-width:0.9695133" inkscape:connector-curvature="0" />
</svg>
