<svg version="1.1" viewBox="0 0 75 75.12" xmlns="http://www.w3.org/2000/svg" xmlns:xlink="http://www.w3.org/1999/xlink">
 <defs>
  <linearGradient id="linearGradientSlvr" x2="0" y1="794.4" y2="828" gradientUnits="userSpaceOnUse">
   <stop style="stop-color:#696969" offset="0"/>
   <stop style="stop-color:#c7c7c9" offset=".17"/>
   <stop style="stop-color:#f9f9ff" offset=".36"/>
   <stop style="stop-color:#ccccce" offset=".73"/>
   <stop style="stop-color:#696969" offset="1"/>
  </linearGradient>
  <linearGradient id="linearGradient19262-3-8" x1=".06168" x2=".9673" y1=".351" y2="-.2778" gradientTransform="matrix(42.36 -60.51 60.51 42.36 16.2 67.81)" gradientUnits="userSpaceOnUse" xlink:href="#linearGradientSlvr"/>
  <linearGradient id="linearGradient19435-5-7" x1=".08221" x2=".9427" y1="-.3054" y2=".2534" gradientTransform="matrix(60.51 -39.29 39.29 60.51 7.144 57.2)" gradientUnits="userSpaceOnUse" xlink:href="#linearGradientSlvr"/>
  <radialGradient id="radialGradient7443-7" cx="344.3" cy="79.31" r="12.73" fr="0" gradientTransform="matrix(1.969 0 0 2.01 -636.2 -124.9)" gradientUnits="userSpaceOnUse">
   <stop style="stop-color:#fbfbfb" offset="0"/>
   <stop style="stop-color:#f9f9ff" offset=".2717"/>
   <stop style="stop-color:#ccccce" offset=".5976"/>
   <stop style="stop-color:#696969" offset="1"/>
  </radialGradient>
  <radialGradient id="radialGradient40985" cx="53.32" cy="41.72" r="14.6" gradientTransform="matrix(-.3668 2.276 -2.183 -.3518 149.4 -74.5)" gradientUnits="userSpaceOnUse">
   <stop style="stop-color:#5b1694" offset="0"/>
   <stop style="stop-color:#44116f" offset=".3592"/>
   <stop style="stop-color:#61179f" offset=".6174"/>
   <stop style="stop-color:#1d072f" offset="1"/>
  </radialGradient>
  <filter id="filter40999" x="-.01213" y="-.01188" width="1.024" height="1.024" style="color-interpolation-filters:sRGB">
   <feGaussianBlur stdDeviation="0.12864323"/>
  </filter>
  <filter id="filter41021" x="-.012" y="-.012" width="1.024" height="1.024" style="color-interpolation-filters:sRGB">
   <feGaussianBlur stdDeviation="0.18329785"/>
  </filter>
 </defs>
 <path d="m8.719 37.56c0 15.87 12.86 28.74 28.74 28.74 15.87 0 28.74-12.87 28.74-28.74 0-15.87-12.87-28.74-28.74-28.74-15.87 0-28.74 12.86-28.74 28.74" style="fill:url(#radialGradient40985)"/>
 <path d="m11.47 11.5c-7.22 7.266-11.49 16.45-11.47 26.06 0.1579 19.58 17.92 37.42 37.5 37.56 19.58-0.1292 37.34-17.98 37.5-37.56-0.1579-19.58-17.92-37.42-37.5-37.56h-0.04587c-9.604 0-18.75 4.26-25.98 11.49m-3.844 26.06c0-7.783 3.285-15.17 8.998-20.91 5.72-5.724 13.09-9.02 20.87-9.014 15.92 0.07179 29.78 13.99 29.86 29.92-0.08032 15.92-13.95 29.84-29.86 29.92-15.92-0.07179-29.78-13.99-29.86-29.92" style="fill:url(#linearGradient19262-3-8);stroke-width:1.013"/>
 <path transform="matrix(1.969 0 0 1.969 -636.2 -121.5)" d="m342.6 62.9c-4.896 0-9.499 1.907-12.96 5.369-3.462 3.462-5.369 8.065-5.369 12.96 0 10.11 9.115 16.22 19.22 16.22 10.11 0 12.82-6.926 16.3-16.38 0-10.11-7.088-18.17-17.19-18.17zm-14.6 18.33c0-3.899 1.518-7.564 4.275-10.32 2.757-2.757 6.422-4.275 10.32-4.275 8.049 0 14.6 6.548 14.6 14.6 0 8.048-6.548 14.6-14.6 14.6-8.048 0-14.6-6.548-14.6-14.6" style="fill:#000000;filter:url(#filter41021);stroke-width:.5146"/>
 <path d="m37.46 1.476c-9.638 0-18.7 3.754-25.51 10.57-6.815 6.815-10.57 15.88-10.57 25.51 0 19.9 16.19 36.08 36.08 36.08 19.9 0 36.08-16.19 36.08-36.08 0-19.9-16.19-36.08-36.08-36.08zm-28.74 36.08c0-7.675 2.988-14.89 8.415-20.31 5.427-5.427 12.64-8.415 20.31-8.415 15.84 0 28.74 12.89 28.74 28.74 0 15.84-12.89 28.74-28.74 28.74-15.84 0-28.74-12.89-28.74-28.74" style="fill:url(#linearGradient19435-5-7);stroke-width:1.013"/>
 <path transform="matrix(1.969 0 0 1.969 -636.2 -121.5)" d="m335.4 70.48c0.0656-0.01459 0.1371 0 0.2551 0.02188 0.3182 0.07294 0.5847 0.09628 0.7956 0.1694 0.2121 0.07148 0.1065 0.1918 0.5558 0.2156 0.4499 0.0248 0.5847 0.07148 0.716 0s0.4764-0.09482 0.0802-0.1444c-0.3972-0.04814-0.4508 0.0248-0.5573-0.09482-0.1065-0.1196-0.1848-0.0248-0.1313-0.193 0.0525-0.1682 0.105-0.1211 0.0525-0.2408-0.0525-0.1196 0.2651-0.143-0.0525-0.1196-0.3184 0.02334-0.2665 0.04668-0.4251 0.07148-0.159 0.0248-0.4487 0.215-0.3164 0.0248 0.1313-0.193 0.0263-0.193 0.2907-0.2899 0.264-0.09482 0.2924-0.09482 0.5562-0.1196 0.2651-0.0248 0.6352-0.0248 0.3968 0.09628-0.2388 0.1211-0.4241 0.193-0.2645 0.2172 0.1586 0.02334-0.2126 0.07148 0.2907 0.02334 0.5028-0.04814 0.5301-0.04814 0.7416-0.04814 0.2126 0 0.0788 0 0.2918-0.0248 0.2121-0.02334 0.5291-0.1444 0.3701-0.02334-0.158 0.1196-0.3964 0.02334-0.3701 0.1918 0.0263 0.1678-0.1065 0.193 0.1313 0.2408 0.2384 0.04814 0.2913 0.1444 0.105 0.1444-0.1847 0-0.105-0.04668-0.3437 0-0.0919 0.01896-0.1667 0.01459-0.227-5.84e-4 -0.0963-0.01459-0.1533-0.03063-0.1698 0.0744-0.0277 0.1667-0.158 0.2156 0.1328 0.2408 0.2918 0.02188 0.2104 0.04668 0.476-0.0248 0.105-0.02772 0.14-0.01459 0.1543 0 0.0219 0.02626-4.4e-4 0.05252 0.1109-0.07732 0.1853-0.2177 0.319-0.3613 0.2918-0.2414-0.0263 0.1196-0.0525 0.1444-0.1065 0.2172-0.0525 0.07148-0.0788 0.2156 0.0802 0.1211 0.157-0.09628 0.3437-0.0248 0.3437-0.2408 0-0.2168-0.1065-0.2414 0.0263-0.2899 0.1328-0.04814 0.2403-0.143 0.1065-0.143-0.1328 0-0.2382 0.04814-0.3705 0.02334-0.1313-0.02334-0.2378-0.02334-0.158-0.1196 0.0788-0.09628 0.0788-0.1444 0.3155-0.1672 0.2398-0.0248 0.0802 0 0.2398-0.0248 0.159-0.02334 0.1065-0.1694 0.159-0.02334 0.0525 0.1444-0.1065 0.1444 0.0525 0.1444 0.1596 0 0.2109 0 0.3443-0.07294 0.1342-0.07148 0.159-0.07148 0.264-0.1211 0.054-0.0248 0.0875 0.0248 0.1269 0.07148 0.0394 0.0496 0.0861 0.09628 0.1657 0.07294 0.158-0.04814 0.5023-0.09628 0.7148-0.09628 0.2109 0 0.1065 0 0.4251 0.09628 0.316 0.09628 0.5285 0.07294 0.6602 0.216 0.1328 0.143 0.2907 0.143 0.2907 0.2897 0 0.1444-0.212 0.2152 0.0277 0.264 0.089 0.0175 0.1549 0.01459 0.2079 0.01459 0.089 0 0.1386-0.01459 0.1879 0.08169 0.0788 0.1459 0.2131 0.216 0.0788 0.2655-0.1313 0.04668-0.158 0.04668-0.2912 0.04668-0.1313 0-0.4751-0.2152-0.3695-0.04668 0.108 0.1683 0.3174 0.1683 0.2918 0.264-0.0248 0.09774 0 0.1924-0.1596 0.1924-0.161 0-0.2378-0.0248-0.3184-0.04814-0.0788-0.02334-0.0263-0.2152-0.0788-0.02334-0.0525 0.192 0.2105 0.143-0.0525 0.192-0.2661 0.04814-0.2661 0.07148-0.3721-0.0248-0.1036-0.09628-0.1036-0.1211-0.212-0.1678-0.1065-0.0496 0.0277-0.07294-0.2372-0.07294-0.2667 0-0.3711 0.1196-0.3994 0-0.0248-0.1196 0.0277-0.191 0.2392-0.2152 0.0744-0.01459 0.1138 1e-3 0.143 0.01459 0.0525 0.0175 0.0744 0.03501 0.2274-0.06127 0.2392-0.143 0.478-0.07148 0.3716-0.264-0.105-0.192-0.1586-0.2635-0.3443-0.3119-0.1853-0.04814-0.2372-0.04814-0.4497-0.04814-0.2115 0-0.3182-0.04668-0.3182 0.07294 0 0.1196 0.0277 0.2156-0.0525 0.2646-0.0788 0.04668-0.054 0.1196-0.1863 0.143-0.1313 0.0248-0.1036 0.0248-0.2646 0.0248-0.158 0-0.3437 0.1692-0.2645 0 0.0817-0.1678 0-0.1459 0.1606-0.2419 0.1584-0.09482 0.2372-0.02188 0.2645-0.1905 0.0146-0.07878 0.0146-0.07878 0-0.07878s-0.0292 5.84e-4 -0.0584-0.1152c-0.0525-0.2166 0-0.04814-0.0525-0.2166-0.054-0.1678 0.2101-0.2635-0.054-0.1678-0.2645 0.09628-0.2645 0.04814-0.3958 0.143-0.1328 0.09628-0.1863 0.07294-0.1328 0.2408 0.051 0.1683 0.0262 0.193 0.1574 0.193 0.1328 0 0.3176 0.02334 0.1596 0.1444-0.1596 0.1211-0.2115 0.1211-0.1848 0.2404 0.0248 0.1196 0.1848 0.1196-0.054 0.2171-0.2372 0.09628-0.3437 0.2384-0.688 0.3597-0.3443 0.1211-0.4503 0.07148-0.7144 0.2398-0.2655 0.1694-0.3196 0.09774-0.3978 0.2887-0.0802 0.194-0.1584 0.1688-0.0525 0.3125 0.1065 0.1459 0.1853 0.193 0.3443 0.2408 0.1596 0.0496 0.2651 0.193 0.5028 0.2177 0.0729 0.01459 0.143 0 0.2042 0 0.1357 0 0.2213-0.01459 0.1673 0.0919-0.0788 0.143-0.2651 0.4072-0.1586 0.5285 0.105 0.1196 0.3186 0.263 0.4493 0 0.1328-0.2661 0.0525-0.3854 0.2382-0.5053 0.0686-0.04376 0.1328-0.0423 0.1936-0.04085 0.105 0 0.1996 0 0.2836-0.2249 0.1328-0.3597-0.0525-0.3123 0.1328-0.5043 0.1848-0.1926 0.2101-0.2877 0.317-0.4318 0.1065-0.1459 0.1863-0.09628 0.5023-0.04814 0.3196 0.04814 0.5574 0.264 0.4776 0.4334-0.0802 0.1682-0.2382 0.215-0.0802 0.2388 0.16 0.0248 0.212 0.0496 0.3972-0.1182 0.1869-0.1702 0.2651-0.2897 0.3454-0.1702 0.0773 0.1225 0.159 0.1444 0.1298 0.3386-0.0263 0.191-0.1574 0.143-0.0525 0.3119 0.108 0.1672 0.4257 0.1672 0.5055 0.3123 0.0788 0.143 0.2639 0.2661 0.0788 0.3371-0.1853 0.07294-0.1328 0.3113-0.1328 0.409 0 0.09628 0.1065 0.09628 0.212 0.2162 0.1065 0.1211 0.1853 0.2877 0.054 0.3119-0.1328 0.0248-0.054-0.04814-0.318-0.04814-0.2655 0-0.5825 0.04814-0.5568-0.0496 0.0262-0.09482 0.0525-0.1196 0.2105-0.2403 0.161-0.1211 0.2671-0.1444 0.2671-0.2893 0-0.1415 0-0.2388-0.1586-0.1415-0.161 0.09336-0.108 0.1899-0.319 0.1899-0.2115 0-0.2382-0.0248-0.4766-0.0248-0.2366 0-0.316-0.09628-0.5027 0-0.1869 0.09628-0.423 0.1934-0.4509 0.2651-0.0248 0.07294 0.1313 0.07294 0.264 0.0248 0.1342-0.04814 0.5316-0.04814 0.3978 0.04814-0.1313 0.09628-0.2635 0.1196-0.211 0.2398 0.054 0.1211 0.37 0.2172 0.477 0.1211 0.105-0.09628 0.4498-0.04814 0.318 0.04814-0.1342 0.09628-0.2126 0.2172-0.4251 0.2887-0.1123 0.03939-0.1873 0.02188-0.2604 0-0.0657-0.01459-0.1298-0.02918-0.2156 0-0.1853 0.04814-0.3449 0.04814-0.4508 0.0248-0.1065-0.0248-0.0788-0.07294-0.2368-0.04814-0.1606 0.02334-0.2136 0.1678-0.4498 0.3123-0.2388 0.1444-0.2929 0.1688-0.4772 0.3119-0.1877 0.1444-0.2136 0.2419-0.372 0.3612-0.16 0.1211-0.0248 0.1459-0.16 0.1211-0.1298-0.0248-0.1842-0.1444-0.2101-0.0248-0.0263 0.1211-0.0263 0.1444 0 0.2394 0.0263 0.09774 0.0802 0.1444 0.0263 0.2655-0.0525 0.1196-0.159 0.1459-0.3438 0.2414-0.1853 0.09482-0.1853 0.1196-0.4241 0.2635-0.2378 0.1459-0.3174 0.1211-0.37 0.3361-0.0525 0.2171-0.0263 0.316-0.0263 0.5552 0 0.2398 0.1328 0.4072-0.0263 0.4802-0.16 0.07148-0.3449-0.0496-0.3449-0.3371 0-0.2872-0.0277-0.4322-0.0277-0.4322s-0.1857-0.0496-0.3437-0.07294c-0.1596-0.02334-0.2661-0.04668-0.4514-0.04668-0.1842 0-0.2645-0.0248-0.2645 0.04668v0.1945s0 0.09482-0.1313 0.07002c-0.1328-0.02188-0.1842-0.04668-0.319-0.09628-0.1313-0.04522 0.108-0.1915-0.3164-0.04522-0.4236 0.1415-0.5568 0.1415-0.6352 0.3824-0.0802 0.2408-0.0277 0.2881-0.1328 0.456-0.1065 0.1698-0.2392 0.2902-0.1863 0.5536 0.054 0.2661 0.108 0.578 0.2651 0.6254 0.159 0.0496 0.317 0.0496 0.5578 0.02334 0.2368-0.02334 0.2893-0.1196 0.3972-0.2624 0.105-0.1459 0.2368-0.2419 0.4483-0.2419 0.2136 0 0.2656 0.0248 0.108 0.2419-0.159 0.2146-0.4255 0.4086-0.3457 0.5996 0.0802 0.193 0.1594 0.1211 0.3972 0.09774 0.2384-0.02626 0.4251 0.02334 0.4503 0.1196 0.0277 0.09482 0.1328 0.2392 0.0525 0.3345-0.0788 0.09628 0.0277 0.4343 0.0277 0.4343s0 0.0496 0.0788 0.2162c0.0788 0.1678 0.1065 0.2156 0.2115 0.1914 0.1065-0.02334 0.1594-0.2382 0.2922-0.2382s0.0788 0 0.2121 0.09336c0.1313 0.09628 0.2378 0.09628 0.2378 0.09628s0 0.01459-0.0146 0.02188c0.1663-0.3021 0.5558-0.3514 0.5558-0.3514s0.1357-0.1225 0.3233-0.2193c0.1904-0.09774 0 0.04668 0.0817 0.195 0.0817 0.1472 0 0 0.2433-0.09774 0.2435-0.09628 0 0 0.2681 0.02626 0.2708 0.02334 0 0 0.1632 0.1704 0.108 0.1138 0.108 0.09774 0.1904 0.08169 0.0423-0.01459 0.105-0.01605 0.2136-0.01459 0.3241 0.02334 0.405 0.05106 0.7842 0.1971 0.3768 0.1459 0.1342 0.04814 0.4837 0.3901 0.2744 0.2702 0.2516 0.2681 0.3449 0.2671 0.0263-4.38e-4 0.0613-1e-3 0.1152 0 0.2429 0.0248 0.6201 0.1708 0.7822 0.3443 0.1627 0.1688 0.108 0.2187 0.1627 0.3891 0.0525 0.1724 0.1889 0.1724 0.4045 0.3695 0.2156 0.1966 0.2697 0.07002 0.5409 0.2209 0.2686 0.146 0.1873 0.07294 0.5656 0.1708 0.3783 0.09774 0.2162 0.07294 0.5403 0.2449 0.3233 0.1724 0.2425 0.1459 0.5924 0.2687 0.352 0.1225 0.0802 0.2207 0.054 0.4915-0.0277 0.2691-0.5122 0.6855-0.647 0.9557-0.1342 0.2691-0.0277 0.3905-0.0277 0.6124 0 0.2213 0 0.2455-0.108 0.4899-0.1094 0.2465-0.1357 0.2465-0.216 0.3685-0.0817 0.1225-0.243 0.318-0.4055 0.318-0.1616 0-0.2172 0-0.5132 0.2223-0.2958 0.2193-0.2692 0.3155-0.2433 0.5363 0.0277 0.2203 0 0.0992-0.0263 0.1977-0.0263 0.09628 0 0-0.1357 0.1225-0.1357 0.1211 0 0.09774-0.0263 0.194-0.0263 0.0992-0.0802 0.1468-0.1094 0.2209-0.0263 0.0744-0.1328 0.1708-0.1878 0.2464-0.0525 0.07148-0.1895 0.2939-0.4041 0.3412-0.215 0.05106-0.3783-0.02334-0.4328 0.1007-0.0525 0.1225 0 0 0.0817 0.1225 0.0817 0.124 0.0263 0.07294 0.054 0.2691 0.0277 0.1965 0 0.09774-0.216 0.2944-0.2147 0.1961-0.2147 0-0.3783 0-0.1622 0-0.1328 0.09774-0.1328 0.1718 0 0.07294 0 0.0992-0.0817 0.1225-0.0802 0.0248-0.108 0.0248-0.1878 0.1478-0.0438 0.06419-0.0409 0.06127-0.0175 0.05689 0.0204 0 0.0598 0 0.0977 0.04085 0.0802 0.0992 0.0802 0.04668 0.0802 0.1965 0 0.1462-0.0263 0.0992-0.054 0.2445-0.0277 0.1482 0 0-0.1627 0.1735-0.0904 0.09628-0.0788 0.08315-0.0525 0.07294 0.0219-0.01459 0.0525-0.01751 0.0525 0.02334 0 0.09774 0.0277 0.0744 0.1094 0.195 0.0802 0.1225 0.1342 0.0992 0.1611 0.1965 0.0263 0.09774 0 0-0.0277 0.2455-0.0161 0.1444-0.0146 0.1196-0.019 0.09336 0-0.01751-0.0146-0.03501-0.035 0-0.054 0.09774-0.0802 0.07294-0.0802 0.172 0 0.09774 0 0 0.054 0.1708 0.0306 0.1007 0.0263 0.08315-0.0146 0.0671-0.0263-0.01459-0.0686-0.02334-0.124 0-0.1328 0.0744 0 0.0992 0 0.0992l0.108 0.04814c0.108 0.0496 0 0 0.108-0.04814 0.1094-0.0496 0.0817 0.09774 0.1895 0.1462 0.1065 0.0496 0.0802 0.07294 0.1621 0.1225 0.0802 0.0496 0.0802 0.0496 0.1621 0.09774 0.0802 0.04814 0.0525 0.07294-0.0263 0.09774-0.0817 0.02334-0.0817 0-0.3506 0h-0.1898c-0.1895 0-0.054-0.0248-0.054-0.0248s-0.108-0.04814-0.3227-0.1459c-0.0977-0.04522-0.1065-0.0496-0.1036-0.04814-0.0146 0-0.0263-0.01459-0.0584-0.02772-0.1627-0.07294-0.0817-0.04814-0.1371-0.1718-0.0277-0.06419-0.0277-0.06127-0.0219-0.05689 0 0 0.0146 0 0-0.03939-0.0277-0.09774-0.0554-0.0744-0.0554-0.0744l-0.1615-0.09482s-0.054-0.02626-0.1899-0.1735c-0.07-0.07732-0.0671-0.07294-0.0554-0.07002 0.0146 0 0.0277 0 0-0.05252-0.054-0.1225-0.0263-0.0744-0.1342-0.2942-0.0642-0.1328-0.0511-0.1065-0.0365-0.07877 0.0146 0.01751 0.019 0.03501 0.0146 0-0.0263-0.07294 0.0817-0.09774 0.0817-0.1966 0-0.05543 0-0.04668-0.0248-0.03939-0.019 0-0.0511 0.01459-0.108-0.01459-0.1342-0.0496 0 0-0.0263-0.07586-0.0292-0.07148-0.108-0.3644-0.108-0.3644s-0.0277-0.07586-0.0832-0.246c-0.054-0.173 0 0 0.0832 0 0.0802 0 0.108 0.2193 0.1342 0.09628 0.0248-0.1211-0.0263-0.1211-0.1094-0.2691-0.0802-0.146-0.0802-0.07148-0.108-0.2691-0.0263-0.195-0.054-0.195-0.1065-0.5135-0.0525-0.3196 0.0525-0.3943 0.0802-0.6624 0.0263-0.2706-0.1328-0.3921-0.1328-0.7586 0-0.3679 0-0.4414 0.0248-0.7606 0.0277-0.319-0.054-0.8563-0.0802-1.103-0.0277-0.2443-0.2152-0.2938-0.6201-0.5141-0.4045-0.2213-0.4328-0.2449-0.5666-0.4169-0.1371-0.1713-0.4868-0.9304-0.6757-1.25-0.1899-0.319-0.4041-0.4919-0.3227-0.6859 0.0802-0.1961 0.1065-0.2944 0.0802-0.4658-0.0263-0.1724-0.0263-0.1955 0.1888-0.2954 0.2152-0.0992 0.1885-0.1698 0.3489-0.5136 0.1643-0.3417 0.0292-0.3915 0.1036-0.8759-0.0525 0.1683-0.0788 0.2408-0.0788 0.2408s-0.0788-0.1211-0.1857-0.216c-0.105-0.09628-0.2126-0.2172-0.2656-0.09628-0.0511 0.1196 0.0277 0.2398-0.0788 0.1914-0.108-0.04668-0.0263-0.04668-0.1869-0.143-0.158-0.09628-0.105-0.07294-0.2109-0.1934-0.1065-0.1211 0.1853-0.1211-0.1065-0.1211-0.2928 0-0.317 0.07294-0.3443-0.09482-0.0277-0.1683 0.0511-0.2897-0.0788-0.3361-0.0554-0.02042-0.0875-0.01459-0.1182 0-0.0423 0.01459-0.0802 0.02334-0.1734-0.04668-0.159-0.1211-0.054-0.07148-0.3174-0.193-0.2656-0.1196-0.2923-0.07148-0.5574-0.2883-0.2645-0.2152-0.3984-0.2645-0.4766-0.2152-0.0788 0.0496-0.5558 0.1689-0.9793-0.1692-0.4231-0.3376-0.5039-0.2651-0.5039-0.4581 0-0.1904 0.2378-0.09482 0.0525-0.4082-0.1853-0.3128-0.3972-0.601-0.5562-0.8661-0.1596-0.264-0.2923-0.2867-0.2923-0.5049 0-0.216 0.054-0.2871-0.0788-0.337-0.1328-0.04814-0.2382-0.2398-0.2651-0.04814-0.0248 0.1936-0.054 0.2404 0.0263 0.3844 0.0788 0.1459 0.0788 0.2182 0.158 0.3613 0.0802 0.143 0.0277 0.1924 0.1065 0.3129 0.0788 0.1211 0.2378 0.215 0.1842 0.3622-0.0525 0.143-0.0788 0.1196-0.1584 0.02188-0.0788-0.09628-0.1328-0.07148-0.1848-0.1915-0.054-0.1196 0.1065 0 0.0525-0.1196-0.0525-0.1211 0.054-0.09628-0.105-0.1926-0.0671-0.04085-0.0919-0.02918-0.1036-0.01751-0.016 0.01605-0.0146 0.03209-0.054-0.07878-0.0802-0.193 0.0263-0.09628 0.0263-0.2398 0-0.1444-0.0525-0.1196-0.1313-0.2392-0.0802-0.1225-0.0277-0.195-0.054-0.4123-0.0263-0.2142-0.0263-0.192-0.2101-0.3829-0.1857-0.193-0.2651-0.4575-0.2136-1.203 0.054-0.7456 0.4509-0.9376 0.5837-1.083 0.1313-0.143 0.212-0.2883 0.0554-0.4324-0.1605-0.1459-0.2681-0.1459-0.2408-0.2413 0.0263-0.09628 0.2651-0.09628 0.3443 0.0248 0.0802 0.1196 0.054 0.3134 0.1858 0.3134 0.1328 0 0.2645-0.1196 0.1328-0.2419-0.1328-0.1196-0.2913-0.1415-0.3449-0.3355-0.0175-0.0671-0.0394-0.1109-0.0569-0.1488-1.612 2.166-2.568 4.851-2.568 7.758 0 7.179 5.82 13 13 13 5.013 0 9.359-2.838 11.53-6.993v-0.1708c0-0.2887-0.2372-0.1444-0.3176-0.77-0.0773-0.6263 0.1328-0.8883 0.2923-1.083 0.1596-0.192-0.0525-0.3129-0.1065-0.5043-0.0525-0.1914-0.1328-0.2893-0.1328-0.6006 0-0.3139-0.53-0.5063-0.636-0.7221-0.108-0.2166-0.0263-0.2166 0.054-0.5295 0.0802-0.3134 0.2382-0.407 0-0.5768-0.1371-0.09628-0.2492-0.0744-0.3644-0.05106-0.0846 0.01751-0.1708 0.03355-0.2712 0-0.2388-0.07148-0.1863-0.4076-0.5568-0.385-0.3705 0.02334-0.317 0.1672-0.5821 0.2877-0.1564 0.07148-0.3123 0.03355-0.4801 0-0.1167-0.02626-0.2378-0.05252-0.3685-0.0423-0.3155 0.02334-0.2115 0.09628-0.4751 0.09628-0.2655 0-0.3453-0.17-0.4775-0.4098-0.1328-0.2398-0.5033-0.3854-0.6093-0.5538-0.1065-0.1667-0.4257-0.6495-0.4487-0.8403-0.0277-0.1936 0.0233-0.3367 0.1298-0.7231 0.1065-0.3829-0.054-0.1914-0.1298-0.3123-0.0817-0.1196 0.0233-0.3115 0.1574-0.5281 0.1328-0.2172 0.2372-0.4096 0.4766-0.6979 0.2368-0.2877 0.1837-0.1934 0.4776-0.3117 0.2902-0.1196 0.1298-0.4344 0.2104-0.6264 0.0802-0.191 0.0802-0.1196 0.2923-0.2419 0.2115-0.1182 0.2115-0.2146 0.4236-0.3818 0.2109-0.1683 0.2388 0 0.5033 0.02188 0.2655 0.0248 0.2378-0.02188 0.4776-0.1196 0.2362-0.09628 0.371-0.1211 0.6623-0.2171 0.1826-0.05981 0.3129-0.05398 0.4909-0.04668 0.1036 0 0.2245 0.01459 0.3819 0 0.4257-0.02188 0.212 0.1698 0.1858 0.4343-0.0263 0.2651-0.054 0.2168 0.0773 0.3357 0.1342 0.1211 0.5049 0.1211 0.7168 0.1459 0.2109 0.0248 0.158 0.07148 0.37 0.191 0.2131 0.1211 0.2394 0.1462 0.4519 0.2166 0.0248 0.01459 0.0452 0.01459 0.0598 0.01459-0.1775-0.6006-0.3968-1.182-0.6572-1.744 0 0.03793 0.0146 0.08315 0.0146 0.143 0 0.1444-0.1328 0.1694-0.2928 0.264-0.1584 0.09628-0.1313 0-0.2924-0.09482-0.1574-0.09628 0.0277-0.09628 0.2671-0.09628 0.2368 0 0.1596-0.09774 0.1853-0.2413 0.0263-0.1444-0.0802-0.1667-0.2382-0.2398-0.158-0.07294-0.1859-0.07294-0.4514-0.192-0.2645-0.1196-0.158-0.1694-0.3438-0.2897-0.1847-0.1196-0.159-0.1444-0.372-0.04814-0.2101 0.09628-0.1565 0.07294-0.423 0.09628-0.2645 0.02626-0.1313 0-0.2645 0.09774-0.1342 0.09774-0.0802 0.1196-0.1858 0.264-0.1065 0.1462-0.16 0.07294-0.3427 0.2419-0.1869 0.1672 0 0-0.0292 0.2639-0.0248 0.2656-0.0773 0.09628-0.3433 0.2656-0.1637 0.105-0.2162 0.08753-0.263 0.07294-0.0292-0.01459-0.0569-0.02042-0.1065-0.0015-0.1328 0.04668-0.1602 0.09774-0.3182 0.02626-0.1594-0.0744-0.1065-0.09628-0.213-0.1225-0.1036-0.02188-0.1853-0.09482-0.2384-0.264-0.0525-0.1682 0.0277-0.1682 0.1065-0.3597 0.0802-0.1924-0.0263-0.1924-0.0263-0.3123 0-0.1211 0.054-0.1704 0.1313-0.1704 0.0802 0 0.37 0.02626 0.5295 0.02626h0.3978s0.16-0.07294 0.16-0.2492c0-0.1759 0.089-0.2563-0.089-0.3524-0.177-0.09628-0.177-0.06273-0.283-0.1444-0.105-0.08023-0.1765-0.1284-0.0175-0.1914 0.1596-0.06419 0.247-0.0496 0.3891-0.1284 0.1386-0.08169 0.3341-0.1444 0.228-0.1755-0.1065-0.03355-0.1065-0.03355-0.228-0.03355-0.1255 0-0.1065 0-0.2655 0.04814-0.1596 0.0496-0.2301 0.2408-0.2301 0.0496 0-0.193-0.016-0.08023 0.019-0.2567 0.035-0.1771-0.124-0.0496 0.035-0.1771 0.1596-0.1269 0.2476-0.08023 0.195-0.1914-0.054-0.1123 0.105 0-0.054-0.1123-0.16-0.1138-0.035-0.1611-0.16-0.1138-0.0146 0-0.0248 0.01459-0.035 0.01459 0-0.01459-0.0146-0.02626-0.035-0.06127-0.0875-0.1444-0.1602-0.08169-0.124-0.2254 0.0365-0.143-0.1584-0.1109 0.1065-0.2085 0.2651-0.09628 0.3186-0.159 0.388-0.07878 0.0715 0.07878 0.1771 0.1138 0.1065 0.2089-0.0729 0.09482-0.1255 0.1767-0.054 0.2713 0.07 0.09628 0.124 0.1284 0.2136 0.2089 0.0875 0.08023-0.0175 0.1284 0.1211 0.1765 0.143 0.04814 0.2655 0.08023 0.2305 0.1749-0.035 0.09774-0.1594 0.2728-0.0175 0.2095 0.1415-0.06419 0.1576-0.1459 0.3345-0.2728 0.1765-0.1269 0.246-0.1123 0.442-0.1914 0.0934-0.03793 0.158-0.04085 0.1946-0.0496-1.006-1.294-2.252-2.394-3.672-3.231-0.0204 0.03355-0.0511 0.07586-0.1529 0.2249-0.2136 0.318-0.0802 0.09774-0.3221 0.3443-0.2439 0.2439-0.1371 0.1462-0.6747 0.195-0.5399 0.0496-0.4595 0.1462-0.7555 0.2934-0.2974 0.1492-0.405 0.1492-0.9459 0.2944-0.5393 0.1472-0.406 0.3675-0.6201 0.6134-0.2156 0.246-0.1616 0.195-0.5672 0.07294-0.4039-0.1211-0.4848-0.44-0.4848-0.9304 0-0.3376 0.1036-0.3376 0.2553-0.3371 0.0686 0 0.1462 0 0.2295-0.03064 0.2703-0.09774-0.0263-0.1708-0.1065-0.2928-0.0817-0.124-0.1616-0.124-0.0817-0.2958 0.0817-0.171 0-0.1225-0.16-0.3422-0.1138-0.1539-0.2403-0.14-0.563-0.1269-0.14 0-0.3155 0.01459-0.543 0-0.7565-0.02626-0.2424-0.0744-0.1894-0.2696 0.0365-0.1342 0.2624-0.1196 0.512-0.1036 0.1167 0 0.2392 0.01459 0.3504 0 0.351-0.0248 0.1616-0.1211-0.054-0.2213-0.215-0.09628-0.35 0-0.6751 0.07586-0.3233 0.07148-0.4565 0.1459-0.6743 0.195-0.2146 0.0496-0.3231 0.0992-0.6737 0.2445-0.352 0.1487-0.2171 0.1225-0.4589 0.2213-0.2445 0.0992-0.1612 0.0496-0.4308 0.0496-0.2712 0-0.2712-0.02334-0.5399-0.02334-0.2706 0-0.1615-0.02626-0.2439-0.1981-0.0802-0.1708 0.1357 0 0.3506 0.02626 0.216 0.0248 0.1898-0.02626 0.46-0.09774 0.2692-0.07294 0.3237-0.1466 0.6201-0.3443 0.2964-0.195-0.1625-0.1211-0.351-0.1211-0.1898 0-0.1621 0.0496-0.3783 0.1211-0.215 0.07294-0.2429 0.0496-0.4306-0.0248-0.1883-0.07294 0.108-0.1704 0.2156-0.2681 0.108-0.09774 0.3504 0 0.512 0.02334 0 0 0.3231-0.04814 0.5682-0.07294 0.2413-0.0248 0.2954-0.0744 0.8069-0.124 0.2919-0.02626 0.4797-0.02334 0.6706-0.01896h0.4899c0.4597-0.02334 0.3788 0 0.7026 0.0248 0.3247 0.02626 0.2166 0.0992-0.0263 0.124-0.2433 0.0248-0.1357 0.07294-0.0263 0.1466 0.1065 0.0744 0.2964-0.0744 0.4848-0.0744s0.2702-0.04814 0.7292-0.1704c0.0977-0.02626 0.1961-0.04668 0.294-0.06127-1.177-0.351-2.424-0.5415-3.715-0.5415-2.75 0-5.3 0.8559-7.399 2.313m3.696-0.8549c0.1357 0 0.2702 0.02626 0.2423 0.1724-0.0263 0.1476-0.3231 0-0.4858 0-0.1616 0-0.2419 0.07294-0.4581 0.1225-0.2166 0.0496-0.3258-0.0496-0.3767-0.1704-0.0554-0.124 0.4575-0.124 0.4575-0.124s0.1357 0.05106 0.3237 0.05106c0.1883 0 0.1627-0.05106 0.297-0.05106m1.105 1.79c0.1342-0.0992 0.1622-0.1955 0.3516-0.1225 0.1899 0.0744 0.4595 0.2708 0.3231 0.2944-0.1328 0.0248-0.0802-0.02334-0.2423-0.0496-0.1621-0.02334-0.1883 0-0.2974 0.0496-0.1065 0.0496-0.1065 0.0744-0.1879 0.0744 0 0-0.0802-0.1472 0.0525-0.2461m10.2 2.262c-0.0175-0.1284 0.0686-0.1284 0.0686-0.2551 0-0.1284-0.0525-0.1284-0.0161-0.2105 0.035-0.07878-0.0525-0.06273 0.089-0.1269 0.1386-0.06419 0.1576-0.07877 0.2635-0.07877 0.105 0 0.07 0.06273 0.194 0.01459 0.0686-0.02772 0.1269 0 0.1482 0.01459-0.0875 0.02772-0.1152 0.01751-0.1313 0.1298-0.0175 0.1298 0.07 0.177-0.0175 0.3046-0.089 0.1284-0.054 0.1459-0.2449 0.1627-0.1415 0.01459-0.2543 0.09628-0.3123 0.09628-0.0233 0-0.0365-0.01459-0.0423-0.0496m-13.19 5.235c0.054-0.09628 0.3504-0.1459 0.3504-0.1459s0.2439 0 0.4338 0.0496c0.1873 0.04814 0.1873 0.09628 0.3772 0.2193 0.1894 0.1225 0.2146 0.0496 0.3514 0.0992 0.1328 0.04668 0.1328 0.1211 0 0.1694-0.1371 0.0496-0.1371 0-0.3514-0.07294-0.2166-0.07294-0.2166-0.1478-0.35-0.2193-0.1371-0.0744-0.2449-0.124-0.5676-0.05106-0.1284 0.02918-0.2018 0.0423-0.2404 0.0423-0.0598 0-0.0365-0.03209 0-0.09336m1.809 0.6635c0.054-0.173-0.1357-0.0992 0.054-0.173 0.1883-0.07148 0.4029-0.1459 0.5656-0.07148 0.1616 0.07148 0.5131 0.1225 0.298 0.2198-0.2178 0.0992-0.35 0.0496-0.4859 0.0992-0.1342 0.0496-0.1621 0.0744-0.4056 0.0744-0.2429 0-0.3227-0.0496-0.2692-0.124 0 0 0.0759 0.05981 0.1444 0.05981 0.0409 0 0.0788-0.02042 0.0977-0.08315m1.053 0.1225c-0.0817-0.0248-0.0263-0.0992-0.0263-0.0992s0.1065-0.0496 0.215-0.0496c0.1065 0 0.0525 0.07294 0 0.1482-0.019 0.02334-0.0452 0.03063-0.0729 0.03063-0.0554 0-0.1152-0.03063-0.1152-0.03063m-1.917-0.0496c-0.1606-0.07294 0.1888-0.0992 0.1888-0.0992 0.0802 0.0248 0.1622 0.07294 0.0802 0.1482-0.0277 0.0248-0.0496 0.03501-0.0729 0.03501-0.0438 0-0.0919-0.03647-0.1961-0.08461m2.816 13.16c0.0146 0 0 0 0 0" style="fill:#000000;filter:url(#filter40999);stroke-width:.5146"/>
 <path d="m23.68 16.89c0.1291-0.02872 0.2699 0 0.5022 0.04307 0.6264 0.1436 1.151 0.1895 1.566 0.3335 0.4175 0.1407 0.2096 0.3776 1.094 0.4244 0.8856 0.04882 1.151 0.1407 1.409 0 0.2585-0.1407 0.9378-0.1867 0.1579-0.2843-0.7819-0.09476-0.8874 0.04882-1.097-0.1867-0.2096-0.2354-0.3638-0.04882-0.2585-0.3799 0.1033-0.3311 0.2067-0.2384 0.1033-0.474-0.1033-0.2354 0.5218-0.2815-0.1033-0.2354-0.6268 0.04594-0.5246 0.09189-0.8368 0.1407-0.313 0.04882-0.8833 0.4232-0.6228 0.04882 0.2585-0.3799 0.05177-0.3799 0.5722-0.5707 0.5197-0.1867 0.5756-0.1867 1.095-0.2354 0.5218-0.04882 1.25-0.04882 0.7811 0.1895-0.4701 0.2384-0.8348 0.3799-0.5207 0.4276 0.3122 0.04594-0.4185 0.1407 0.5722 0.04594 0.9898-0.09476 1.044-0.09476 1.46-0.09476 0.4185 0 0.1551 0 0.5744-0.04882 0.4175-0.04594 1.042-0.2843 0.7285-0.04594-0.311 0.2354-0.7803 0.04594-0.7285 0.3776 0.05177 0.3303-0.2096 0.3799 0.2585 0.474 0.4693 0.09476 0.5734 0.2843 0.2067 0.2843-0.3636 0-0.2067-0.09189-0.6766 0-0.1809 0.03732-0.3281 0.02872-0.4468-0.001128-0.1896-0.02872-0.3018-0.0603-0.3343 0.1465-0.05453 0.3281-0.311 0.4244 0.2614 0.474 0.5744 0.04307 0.4142 0.09189 0.937-0.04882 0.2067-0.05457 0.2756-0.02872 0.3037 0 0.04311 0.05169-9.03e-4 0.1034 0.2183-0.1522 0.3648-0.4285 0.628-0.7112 0.5744-0.4752-0.05177 0.2354-0.1033 0.2843-0.2096 0.4276-0.1033 0.1407-0.1551 0.4244 0.1579 0.2384 0.3091-0.1895 0.6766-0.04882 0.6766-0.474 0-0.4268-0.2096-0.4752 0.05177-0.5707 0.2614-0.09476 0.473-0.2815 0.2096-0.2815-0.2614 0-0.4689 0.09476-0.7293 0.04594-0.2585-0.04594-0.4681-0.04594-0.311-0.2354 0.1551-0.1895 0.1551-0.2843 0.6211-0.3291 0.472-0.04882 0.1579 0 0.472-0.04882 0.313-0.04594 0.2096-0.3335 0.313-0.04594 0.1033 0.2843-0.2096 0.2843 0.1033 0.2843 0.3142 0 0.4152 0 0.6778-0.1436 0.2642-0.1407 0.313-0.1407 0.5197-0.2384 0.1063-0.04882 0.1722 0.04882 0.2498 0.1407 0.07756 0.09764 0.1695 0.1895 0.3262 0.1436 0.311-0.09476 0.9888-0.1895 1.407-0.1895 0.4152 0 0.2096 0 0.8368 0.1895 0.622 0.1895 1.04 0.1436 1.3 0.4252 0.2614 0.2815 0.5722 0.2815 0.5722 0.5703 0 0.2843-0.4173 0.4236 0.05453 0.5197 0.1752 0.03444 0.3049 0.02872 0.4093 0.02872 0.1752 0 0.2728-0.02872 0.3699 0.1608 0.1551 0.2872 0.4195 0.4252 0.1551 0.5226-0.2585 0.09189-0.311 0.09189-0.5732 0.09189-0.2585 0-0.9352-0.4236-0.7274-0.09189 0.2126 0.3313 0.6248 0.3313 0.5744 0.5197-0.04882 0.1924 0 0.3787-0.3142 0.3787-0.3169 0-0.4681-0.04882-0.6268-0.09476-0.1551-0.04594-0.05177-0.4236-0.1551-0.04594-0.1033 0.378 0.4144 0.2815-0.1033 0.378-0.5238 0.09476-0.5238 0.1407-0.7325-0.04882-0.2039-0.1895-0.2039-0.2384-0.4173-0.3303-0.2096-0.09764 0.05453-0.1436-0.4669-0.1436-0.525 0-0.7305 0.2354-0.7862 0-0.04882-0.2354 0.05453-0.376 0.4709-0.4236 0.1465-0.02872 0.224 0.001955 0.2815 0.02872 0.1033 0.03445 0.1465 0.06892 0.4476-0.1206 0.4709-0.2815 0.9409-0.1407 0.7315-0.5197-0.2067-0.378-0.3122-0.5187-0.6778-0.614-0.3648-0.09476-0.4669-0.09476-0.8852-0.09476-0.4163 0-0.6264-0.09189-0.6264 0.1436 0 0.2354 0.05453 0.4244-0.1033 0.5209-0.1551 0.09189-0.1063 0.2354-0.3667 0.2815-0.2585 0.04882-0.2039 0.04882-0.5209 0.04882-0.311 0-0.6766 0.3331-0.5207 0 0.1608-0.3303 0-0.2872 0.3161-0.4762 0.3118-0.1867 0.4669-0.04307 0.5207-0.375 0.02874-0.1551 0.02874-0.1551 0-0.1551s-0.05748 0.001128-0.115-0.2268c-0.1033-0.4264 0-0.09476-0.1033-0.4264-0.1063-0.3303 0.4136-0.5187-0.1063-0.3303-0.5207 0.1895-0.5207 0.09476-0.7791 0.2815-0.2614 0.1895-0.3667 0.1436-0.2614 0.474 0.1004 0.3313 0.05157 0.3799 0.3098 0.3799 0.2614 0 0.6252 0.04594 0.3142 0.2843-0.3142 0.2384-0.4163 0.2384-0.3638 0.4732 0.04882 0.2354 0.3638 0.2354-0.1063 0.4274-0.4669 0.1895-0.6766 0.4693-1.354 0.7081-0.6778 0.2384-0.8864 0.1407-1.406 0.472-0.5226 0.3335-0.6291 0.1924-0.7831 0.5683-0.1579 0.3819-0.3118 0.3323-0.1033 0.6152 0.2096 0.2872 0.3648 0.3799 0.6778 0.474 0.3142 0.09764 0.5218 0.3799 0.9898 0.4285 0.1435 0.02872 0.2815 0 0.402 0 0.2671 0 0.4356-0.02872 0.3293 0.1809-0.1551 0.2815-0.5219 0.8016-0.3122 1.04 0.2067 0.2354 0.6272 0.5177 0.8844 0 0.2614-0.5238 0.1033-0.7587 0.4689-0.9947 0.135-0.08614 0.2614-0.08327 0.3811-0.08041 0.2067 0 0.3929 0 0.5583-0.4427 0.2614-0.7081-0.1033-0.6148 0.2614-0.9927 0.3638-0.3791 0.4136-0.5663 0.624-0.85 0.2096-0.2872 0.3667-0.1895 0.9888-0.09476 0.6291 0.09476 1.097 0.5197 0.9402 0.8532-0.1579 0.3311-0.4689 0.4232-0.1579 0.4701 0.315 0.04882 0.4173 0.09764 0.7819-0.2327 0.3679-0.335 0.5218-0.5703 0.6799-0.335 0.1522 0.2411 0.313 0.2843 0.2555 0.6665-0.05177 0.376-0.3098 0.2815-0.1033 0.614 0.2126 0.3291 0.838 0.3291 0.9951 0.6148 0.1551 0.2815 0.5195 0.5238 0.1551 0.6636-0.3648 0.1436-0.2614 0.6128-0.2614 0.8051 0 0.1895 0.2096 0.1895 0.4173 0.4256 0.2096 0.2384 0.3648 0.5663 0.1063 0.614-0.2614 0.04882-0.1063-0.09476-0.626-0.09476-0.5226 0-1.147 0.09476-1.096-0.09764 0.05157-0.1867 0.1033-0.2354 0.4144-0.473 0.3169-0.2384 0.5258-0.2843 0.5258-0.5695 0-0.2785 0-0.4701-0.3122-0.2785-0.3169 0.1838-0.2126 0.3738-0.628 0.3738-0.4163 0-0.4689-0.04882-0.9382-0.04882-0.4657 0-0.622-0.1895-0.9896 0-0.3679 0.1895-0.8327 0.3807-0.8876 0.5218-0.04882 0.1436 0.2585 0.1436 0.5197 0.04882 0.2642-0.09476 1.046-0.09476 0.7831 0.09476-0.2585 0.1895-0.5187 0.2354-0.4154 0.472 0.1063 0.2384 0.7283 0.4276 0.939 0.2384 0.2067-0.1895 0.8854-0.09476 0.626 0.09476-0.2642 0.1895-0.4185 0.4276-0.8368 0.5683-0.2211 0.07754-0.3687 0.04307-0.5126 0-0.1293-0.02872-0.2555-0.05744-0.4244 0-0.3648 0.09476-0.6789 0.09476-0.8874 0.04882-0.2096-0.04882-0.1551-0.1436-0.4661-0.09476-0.3161 0.04594-0.4205 0.3303-0.8854 0.6148-0.4701 0.2843-0.5766 0.3323-0.9394 0.614-0.3695 0.2843-0.4205 0.4762-0.7323 0.711-0.315 0.2384-0.04882 0.2872-0.315 0.2384-0.2555-0.04882-0.3626-0.2843-0.4136-0.04882-0.05177 0.2384-0.05177 0.2843 0 0.4713 0.05177 0.1924 0.1579 0.2843 0.05177 0.5226-0.1033 0.2354-0.313 0.2872-0.6768 0.4752-0.3648 0.1867-0.3648 0.2354-0.8348 0.5187-0.4681 0.2872-0.6248 0.2384-0.7283 0.6616-0.1033 0.4274-0.05177 0.622-0.05177 1.093 0 0.472 0.2614 0.8016-0.05177 0.9453-0.315 0.1407-0.6789-0.09764-0.6789-0.6636 0-0.5654-0.05453-0.8508-0.05453-0.8508s-0.3656-0.09764-0.6766-0.1436c-0.3142-0.04594-0.5238-0.09189-0.8886-0.09189-0.3626 0-0.5207-0.04882-0.5207 0.09189v0.3829s0 0.1867-0.2585 0.1378c-0.2614-0.04307-0.3626-0.09189-0.628-0.1895-0.2585-0.08902 0.2126-0.377-0.6228-0.08902-0.8339 0.2785-1.096 0.2785-1.25 0.7528-0.1579 0.474-0.05453 0.5671-0.2614 0.8976-0.2096 0.3343-0.4709 0.5713-0.3667 1.09 0.1063 0.5238 0.2126 1.138 0.5219 1.231 0.313 0.09764 0.624 0.09764 1.098 0.04594 0.4661-0.04594 0.5695-0.2354 0.7819-0.5165 0.2067-0.2872 0.4661-0.4762 0.8825-0.4762 0.4205 0 0.5228 0.04882 0.2126 0.4762-0.313 0.4224-0.8376 0.8043-0.6805 1.18 0.1579 0.3799 0.3138 0.2384 0.7819 0.1924 0.4693-0.05169 0.8368 0.04594 0.8864 0.2354 0.05453 0.1867 0.2614 0.4709 0.1033 0.6585-0.1551 0.1895 0.05453 0.8549 0.05453 0.8549s0 0.09764 0.1551 0.4256c0.1551 0.3303 0.2096 0.4244 0.4163 0.3768 0.2096-0.04594 0.3138-0.4689 0.5752-0.4689 0.2614 0 0.1551 0 0.4175 0.1838 0.2585 0.1895 0.4681 0.1895 0.4681 0.1895s0 0.02872-0.02874 0.04307c0.3274-0.5947 1.094-0.6917 1.094-0.6917s0.2671-0.2411 0.6364-0.4317c0.3748-0.1924 0 0.09189 0.1608 0.3839 0.1608 0.2898 0 0 0.4789-0.1924 0.4793-0.1895 0 0 0.5278 0.05169 0.5331 0.04594 0 0 0.3213 0.3354 0.2126 0.224 0.2126 0.1924 0.3748 0.1608 0.08327-0.02872 0.2067-0.0316 0.4205-0.02872 0.638 0.04594 0.7972 0.1005 1.544 0.388 0.7417 0.2872 0.2642 0.09476 0.9522 0.7679 0.5402 0.5319 0.4953 0.5278 0.6789 0.5258 0.05177-8.28e-4 0.1207-0.001955 0.2268 0 0.4781 0.04882 1.221 0.3362 1.54 0.6778 0.3203 0.3323 0.2126 0.4305 0.3203 0.7659 0.1033 0.3394 0.3719 0.3394 0.7963 0.7274 0.4244 0.387 0.5309 0.1378 1.065 0.4348 0.5287 0.2874 0.3687 0.1436 1.113 0.3362 0.7447 0.1924 0.4256 0.1436 1.064 0.4821 0.6364 0.3394 0.4774 0.2872 1.166 0.5289 0.6929 0.2411 0.1579 0.4344 0.1063 0.9675-0.05453 0.5297-1.008 1.349-1.274 1.881-0.2642 0.5297-0.05453 0.7687-0.05453 1.206 0 0.4356 0 0.4833-0.2126 0.9644-0.2154 0.4852-0.2671 0.4852-0.4252 0.7254-0.1608 0.2411-0.4783 0.626-0.7982 0.626-0.3181 0-0.4276 0-1.01 0.4376-0.5823 0.4317-0.5299 0.6211-0.4789 1.056 0.05453 0.4337 0 0.1953-0.05177 0.3892-0.05177 0.1895 0 0-0.2671 0.2411-0.2671 0.2384 0 0.1924-0.05177 0.3819-0.05177 0.1953-0.1579 0.289-0.2154 0.4348-0.05177 0.1465-0.2614 0.3362-0.3697 0.485-0.1033 0.1407-0.373 0.5785-0.7955 0.6717-0.4232 0.1005-0.7447-0.04594-0.852 0.1982-0.1033 0.2411 0 0 0.1608 0.2411 0.1608 0.2441 0.05177 0.1436 0.1063 0.5297 0.05453 0.3868 0 0.1924-0.4252 0.5795-0.4226 0.386-0.4226 0-0.7447 0-0.3193 0-0.2614 0.1924-0.2614 0.3382 0 0.1436 0 0.1953-0.1608 0.2411-0.1579 0.04882-0.2126 0.04882-0.3697 0.2909-0.08622 0.1264-0.08051 0.1206-0.03445 0.112 0.04016 0 0.1177 0 0.1923 0.08041 0.1579 0.1953 0.1579 0.09189 0.1579 0.3868 0 0.2878-0.05177 0.1953-0.1063 0.4813-0.05453 0.2917 0 0-0.3203 0.3415-0.178 0.1895-0.1551 0.1637-0.1033 0.1436 0.04311-0.02872 0.1033-0.03447 0.1033 0.04594 0 0.1924 0.05453 0.1465 0.2154 0.3839 0.1579 0.2411 0.2642 0.1953 0.3171 0.3868 0.05177 0.1924 0 0-0.05453 0.4833-0.03169 0.2843-0.02874 0.2354-0.0374 0.1838 0-0.03447-0.02874-0.06892-0.0689 0-0.1063 0.1924-0.1579 0.1436-0.1579 0.3386 0 0.1924 0 0 0.1063 0.3362 0.06024 0.1982 0.05177 0.1637-0.02874 0.1321-0.05177-0.02872-0.135-0.04594-0.2441 0-0.2614 0.1465 0 0.1953 0 0.1953l0.2126 0.09476c0.2126 0.09764 0 0 0.2126-0.09476 0.2154-0.09764 0.1608 0.1924 0.373 0.2878 0.2096 0.09764 0.1579 0.1436 0.3191 0.2411 0.1579 0.09764 0.1579 0.09764 0.3191 0.1924 0.1579 0.09476 0.1033 0.1436-0.05177 0.1924-0.1608 0.04594-0.1608 0-0.6902 0h-0.3736c-0.373 0-0.1063-0.04882-0.1063-0.04882s-0.2126-0.09476-0.6352-0.2872c-0.1923-0.08902-0.2096-0.09764-0.2039-0.09476-0.02874 0-0.05177-0.02872-0.115-0.05457-0.3203-0.1436-0.1608-0.09476-0.2699-0.3382-0.05453-0.1264-0.05453-0.1206-0.04311-0.112 0 0 0.02874 0 0-0.07754-0.05453-0.1924-0.1091-0.1465-0.1091-0.1465l-0.3179-0.1867s-0.1063-0.05169-0.3738-0.3415c-0.1378-0.1522-0.1321-0.1436-0.1091-0.1378 0.02874 0 0.05453 0 0-0.1034-0.1063-0.2411-0.05177-0.1465-0.2642-0.5791-0.1264-0.2614-0.1006-0.2096-0.07185-0.1551 0.02874 0.03447 0.0374 0.06892 0.02874 0-0.05177-0.1436 0.1608-0.1924 0.1608-0.387 0-0.1091 0-0.09189-0.04882-0.07754-0.0374 0-0.1006 0.02872-0.2126-0.02872-0.2642-0.09764 0 0-0.05177-0.1493-0.05748-0.1407-0.2126-0.7173-0.2126-0.7173s-0.05453-0.1493-0.1638-0.4843c-0.1063-0.3406 0 0 0.1638 0 0.1579 0 0.2126 0.4317 0.2642 0.1895 0.04882-0.2384-0.05177-0.2384-0.2154-0.5297-0.1579-0.2874-0.1579-0.1407-0.2126-0.5297-0.05177-0.3839-0.1063-0.3839-0.2096-1.011-0.1033-0.6291 0.1033-0.7762 0.1579-1.304 0.05177-0.5327-0.2614-0.7718-0.2614-1.493 0-0.7242 0-0.8689 0.04882-1.497 0.05453-0.628-0.1063-1.686-0.1579-2.171-0.05453-0.4809-0.4236-0.5783-1.221-1.012-0.7963-0.4356-0.852-0.4821-1.115-0.8207-0.2699-0.3372-0.9583-1.831-1.33-2.461-0.3738-0.628-0.7955-0.9683-0.6352-1.35 0.1579-0.386 0.2096-0.5795 0.1579-0.9169-0.05177-0.3394-0.05177-0.3848 0.3717-0.5815 0.4236-0.1953 0.3711-0.3343 0.6868-1.011 0.3234-0.6726 0.05748-0.7707 0.2039-1.724-0.1033 0.3313-0.1551 0.474-0.1551 0.474s-0.1551-0.2384-0.3656-0.4252c-0.2067-0.1895-0.4185-0.4276-0.5228-0.1895-0.1006 0.2354 0.05453 0.472-0.1551 0.3768-0.2126-0.09189-0.05177-0.09189-0.3679-0.2815-0.311-0.1895-0.2067-0.1436-0.4152-0.3807-0.2096-0.2384 0.3648-0.2384-0.2096-0.2384-0.5764 0-0.624 0.1436-0.6778-0.1867-0.05453-0.3313 0.1006-0.5703-0.1551-0.6616-0.1091-0.0402-0.1722-0.02872-0.2327 0-0.08327 0.02872-0.1579 0.04594-0.3413-0.09189-0.313-0.2384-0.1063-0.1407-0.6248-0.3799-0.5228-0.2354-0.5754-0.1407-1.097-0.5675-0.5207-0.4236-0.7843-0.5207-0.9382-0.4236-0.1551 0.09764-1.094 0.3325-1.928-0.3331-0.8329-0.6646-0.9919-0.5218-0.9919-0.9018 0-0.3748 0.4681-0.1867 0.1033-0.8035-0.3648-0.6157-0.7819-1.183-1.095-1.705-0.3142-0.5197-0.5754-0.5644-0.5754-0.9939 0-0.4252 0.1063-0.5652-0.1551-0.6634-0.2614-0.09476-0.4689-0.472-0.5218-0.09476-0.04882 0.3811-0.1063 0.4732 0.05177 0.7567 0.1551 0.2872 0.1551 0.4295 0.311 0.7112 0.1579 0.2815 0.05453 0.3787 0.2096 0.6159 0.1551 0.2384 0.4681 0.4232 0.3626 0.713-0.1033 0.2815-0.1551 0.2354-0.3118 0.04307-0.1551-0.1895-0.2614-0.1407-0.3638-0.377-0.1063-0.2354 0.2096 0 0.1033-0.2354-0.1033-0.2384 0.1063-0.1895-0.2067-0.3791-0.1321-0.08041-0.1809-0.05744-0.2039-0.03447-0.0315 0.0316-0.02874 0.06317-0.1063-0.1551-0.1579-0.3799 0.05177-0.1895 0.05177-0.472 0-0.2843-0.1033-0.2354-0.2585-0.4709-0.1579-0.2411-0.05453-0.3839-0.1063-0.8116-0.05177-0.4217-0.05177-0.378-0.4136-0.7537-0.3656-0.3799-0.5218-0.9006-0.4205-2.368 0.1063-1.468 0.8876-1.846 1.149-2.132 0.2585-0.2815 0.4173-0.5675 0.1091-0.8512-0.3159-0.2872-0.5278-0.2872-0.474-0.475 0.05177-0.1895 0.5218-0.1895 0.6778 0.04882 0.1579 0.2354 0.1063 0.6169 0.3657 0.6169 0.2614 0 0.5207-0.2354 0.2614-0.4762-0.2614-0.2354-0.5734-0.2785-0.6789-0.6604-0.03445-0.1321-0.07756-0.2183-0.112-0.2929-3.173 4.264-5.055 9.549-5.055 15.27 0 14.13 11.46 25.59 25.59 25.59 9.868 0 18.42-5.587 22.7-13.77v-0.3362c0-0.5683-0.4669-0.2843-0.6252-1.516-0.1522-1.233 0.2614-1.749 0.5754-2.132 0.3142-0.378-0.1033-0.6159-0.2096-0.9927-0.1033-0.3768-0.2614-0.5695-0.2614-1.182 0-0.6179-1.043-0.9967-1.252-1.421-0.2126-0.4264-0.05177-0.4264 0.1063-1.042 0.1579-0.6169 0.4689-0.8012 0-1.135-0.2699-0.1895-0.4906-0.1465-0.7173-0.1005-0.1665 0.03447-0.3362 0.06604-0.5339 0-0.4701-0.1407-0.3667-0.8024-1.096-0.7579-0.7293 0.04594-0.624 0.3291-1.146 0.5663-0.3079 0.1407-0.6148 0.06604-0.9451 0-0.2297-0.05169-0.4681-0.1034-0.7254-0.08327-0.6211 0.04594-0.4163 0.1895-0.9352 0.1895-0.5226 0-0.6797-0.3346-0.94-0.8067-0.2614-0.472-0.9907-0.7587-1.199-1.09-0.2096-0.3282-0.838-1.279-0.8833-1.654-0.05453-0.3811 0.04587-0.6628 0.2555-1.423 0.2096-0.7537-0.1063-0.3768-0.2555-0.6148-0.1608-0.2354 0.04587-0.6132 0.3098-1.04 0.2614-0.4276 0.4669-0.8063 0.9382-1.374 0.4661-0.5663 0.3616-0.3807 0.9402-0.6136 0.5713-0.2354 0.2555-0.8551 0.4142-1.233 0.1579-0.376 0.1579-0.2354 0.5754-0.4762 0.4163-0.2327 0.4163-0.4224 0.8339-0.7516 0.4152-0.3313 0.4701 0 0.9907 0.04307 0.5226 0.04882 0.4681-0.04307 0.9402-0.2354 0.465-0.1895 0.7303-0.2384 1.304-0.4274 0.3594-0.1177 0.6159-0.1063 0.9663-0.09189 0.2039 0 0.4419 0.02872 0.7518 0 0.838-0.04307 0.4173 0.3343 0.3657 0.8549-0.05177 0.5218-0.1063 0.4268 0.1522 0.6608 0.2642 0.2384 0.9939 0.2384 1.411 0.2872 0.4152 0.04882 0.311 0.1407 0.7283 0.376 0.4195 0.2384 0.4713 0.2878 0.8896 0.4264 0.04882 0.02872 0.08898 0.02872 0.1177 0.02872-0.3494-1.182-0.7811-2.327-1.294-3.433 0 0.07466 0.02874 0.1637 0.02874 0.2815 0 0.2843-0.2614 0.3335-0.5764 0.5197-0.3118 0.1895-0.2585 0-0.5756-0.1867-0.3098-0.1895 0.05453-0.1895 0.5258-0.1895 0.4661 0 0.3142-0.1924 0.3648-0.475 0.05177-0.2843-0.1579-0.3282-0.4689-0.472-0.311-0.1436-0.3659-0.1436-0.8886-0.378-0.5207-0.2354-0.311-0.3335-0.6768-0.5703-0.3636-0.2354-0.313-0.2843-0.7323-0.09476-0.4136 0.1895-0.3081 0.1436-0.8327 0.1895-0.5207 0.05169-0.2585 0-0.5207 0.1924-0.2642 0.1924-0.1579 0.2354-0.3657 0.5197-0.2096 0.2878-0.315 0.1436-0.6746 0.4762-0.3679 0.3291 0 0-0.05748 0.5195-0.04882 0.5228-0.1522 0.1895-0.6758 0.5228-0.3222 0.2067-0.4256 0.1723-0.5177 0.1436-0.05748-0.02872-0.112-0.0402-0.2096-0.002933-0.2614 0.09189-0.3154 0.1924-0.6264 0.05169-0.3138-0.1465-0.2096-0.1895-0.4193-0.2411-0.2039-0.04307-0.3648-0.1867-0.4693-0.5197-0.1033-0.3311 0.05453-0.3311 0.2096-0.7081 0.1579-0.3787-0.05177-0.3787-0.05177-0.6148 0-0.2384 0.1063-0.3354 0.2585-0.3354 0.1579 0 0.7283 0.05169 1.042 0.05169h0.7831s0.315-0.1436 0.315-0.4906c0-0.3463 0.1752-0.5045-0.1752-0.6937-0.3484-0.1895-0.3484-0.1235-0.5571-0.2843-0.2067-0.1579-0.3474-0.2528-0.03445-0.3768 0.3142-0.1264 0.4862-0.09764 0.7659-0.2528 0.2728-0.1608 0.6577-0.2843 0.4488-0.3455-0.2096-0.06604-0.2096-0.06604-0.4488-0.06604-0.247 0-0.2096 0-0.5226 0.09476-0.3142 0.09764-0.453 0.474-0.453 0.09764 0-0.3799-0.0315-0.1579 0.0374-0.5053 0.0689-0.3486-0.2441-0.09764 0.0689-0.3486 0.3142-0.2498 0.4874-0.1579 0.3839-0.3768-0.1063-0.2211 0.2067 0-0.1063-0.2211-0.315-0.224-0.0689-0.3171-0.315-0.224-0.02874 0-0.04882 0.02872-0.0689 0.02872 0-0.02872-0.02874-0.05169-0.0689-0.1206-0.1722-0.2843-0.3154-0.1608-0.2441-0.4437 0.07185-0.2815-0.3118-0.2183 0.2096-0.4104 0.5218-0.1895 0.6272-0.313 0.7638-0.1551 0.1407 0.1551 0.3486 0.224 0.2096 0.4112-0.1435 0.1867-0.247 0.3478-0.1063 0.5341 0.1378 0.1895 0.2441 0.2528 0.4205 0.4112 0.1722 0.1579-0.03445 0.2528 0.2384 0.3474 0.2815 0.09476 0.5226 0.1579 0.4537 0.3443-0.0689 0.1924-0.3138 0.537-0.03445 0.4124 0.2785-0.1264 0.3102-0.2872 0.6585-0.537 0.3474-0.2498 0.4843-0.2211 0.8701-0.3768 0.1839-0.07466 0.311-0.08041 0.3831-0.09764-1.98-2.547-4.433-4.713-7.228-6.36-0.04016 0.06604-0.1006 0.1493-0.301 0.4427-0.4205 0.626-0.1579 0.1924-0.6341 0.6778-0.4801 0.4801-0.2699 0.2878-1.328 0.3839-1.063 0.09764-0.9045 0.2878-1.487 0.5776-0.5854 0.2937-0.7972 0.2937-1.862 0.5795-1.062 0.2898-0.7992 0.7234-1.221 1.207-0.4244 0.4843-0.3181 0.3839-1.117 0.1436-0.7951-0.2384-0.9543-0.8661-0.9543-1.831 0-0.6646 0.2039-0.6646 0.5026-0.6636 0.135 0 0.2878 0 0.4518-0.06032 0.5321-0.1924-0.05177-0.3362-0.2096-0.5764-0.1608-0.2441-0.3181-0.2441-0.1608-0.5823 0.1608-0.3366 0-0.2411-0.315-0.6736-0.224-0.303-0.473-0.2756-1.108-0.2498-0.2756 0-0.6211 0.02872-1.069 0-1.489-0.05169-0.4772-0.1465-0.3728-0.5307 0.07185-0.2642 0.5165-0.2354 1.008-0.2039 0.2297 0 0.4709 0.02872 0.6898 0 0.6909-0.04882 0.3181-0.2384-0.1063-0.4356-0.4232-0.1895-0.689 0-1.329 0.1493-0.6364 0.1407-0.8986 0.2872-1.327 0.3839-0.4224 0.09764-0.636 0.1953-1.326 0.4813-0.6929 0.2927-0.4274 0.2411-0.9033 0.4356-0.4813 0.1953-0.3173 0.09764-0.848 0.09764-0.5339 0-0.5339-0.04594-1.063-0.04594-0.5327 0-0.3179-0.05169-0.4801-0.39-0.1579-0.3362 0.2671 0 0.6902 0.05169 0.4252 0.04882 0.3736-0.05169 0.9055-0.1924 0.5299-0.1436 0.6372-0.2886 1.221-0.6778 0.5835-0.3839-0.3199-0.2384-0.6909-0.2384-0.3736 0-0.3191 0.09764-0.7447 0.2384-0.4232 0.1436-0.4781 0.09764-0.8476-0.04882-0.3707-0.1436 0.2126-0.3354 0.4244-0.5278 0.2126-0.1924 0.6898 0 1.008 0.04594 0 0 0.636-0.09476 1.119-0.1436 0.475-0.04882 0.5815-0.1465 1.588-0.2441 0.5746-0.05169 0.9443-0.04595 1.32-0.03732h0.9644c0.9049-0.04594 0.7457 0 1.383 0.04882 0.6392 0.05169 0.4264 0.1953-0.05177 0.2441-0.4789 0.04882-0.2671 0.1436-0.05177 0.2886 0.2096 0.1465 0.5835-0.1465 0.9543-0.1465 0.3709 0 0.5319-0.09476 1.435-0.3354 0.1923-0.05169 0.386-0.09189 0.5787-0.1206-2.317-0.6909-4.772-1.066-7.313-1.066-5.413 0-10.43 1.685-14.56 4.553m7.276-1.683c0.2671 0 0.5319 0.05169 0.477 0.3394-0.05177 0.2906-0.636 0-0.9563 0-0.3181 0-0.4762 0.1436-0.9018 0.2411-0.4264 0.09764-0.6413-0.09764-0.7415-0.3354-0.1091-0.2441 0.9006-0.2441 0.9006-0.2441s0.2671 0.1005 0.6372 0.1005c0.3707 0 0.3203-0.1005 0.5846-0.1005m2.175 3.524c0.2642-0.1953 0.3193-0.3848 0.6921-0.2411 0.3738 0.1465 0.9045 0.5331 0.636 0.5795-0.2614 0.04882-0.1579-0.04594-0.477-0.09764-0.3191-0.04594-0.3707 0-0.5854 0.09764-0.2096 0.09764-0.2096 0.1465-0.3699 0.1465 0 0-0.1579-0.2898 0.1033-0.4844m20.08 4.453c-0.03445-0.2528 0.135-0.2528 0.135-0.5022 0-0.2528-0.1033-0.2528-0.03169-0.4144 0.0689-0.1551-0.1033-0.1235 0.1752-0.2498 0.2728-0.1264 0.3102-0.1551 0.5187-0.1551 0.2067 0 0.1378 0.1235 0.3819 0.02872 0.135-0.05457 0.2498 0 0.2917 0.02872-0.1722 0.05457-0.2268 0.03447-0.2585 0.2555-0.03445 0.2555 0.1378 0.3484-0.03445 0.5996-0.1752 0.2528-0.1063 0.2872-0.4821 0.3203-0.2785 0.02872-0.5006 0.1895-0.6148 0.1895-0.04587 0-0.07185-0.02872-0.08327-0.09764m-25.96 10.31c0.1063-0.1895 0.6898-0.2872 0.6898-0.2872s0.4801 0 0.8539 0.09764c0.3687 0.09476 0.3687 0.1895 0.7425 0.4317 0.3728 0.2411 0.4224 0.09764 0.6917 0.1953 0.2614 0.09189 0.2614 0.2384 0 0.3335-0.2699 0.09764-0.2699 0-0.6917-0.1436-0.4264-0.1436-0.4264-0.2909-0.689-0.4317-0.2699-0.1465-0.4821-0.2441-1.117-0.1005-0.2528 0.05744-0.3972 0.08327-0.4732 0.08327-0.1177 0-0.07185-0.06317 0-0.1838m3.561 1.306c0.1063-0.3406-0.2671-0.1953 0.1063-0.3406 0.3707-0.1407 0.7931-0.2872 1.113-0.1407 0.3181 0.1407 1.01 0.2411 0.5866 0.4327-0.4287 0.1953-0.689 0.09764-0.9565 0.1953-0.2642 0.09764-0.3191 0.1465-0.7984 0.1465-0.4781 0-0.6352-0.09764-0.5299-0.2441 0 0 0.1494 0.1177 0.2843 0.1177 0.08051 0 0.1551-0.0402 0.1923-0.1637m2.073 0.2411c-0.1608-0.04882-0.05177-0.1953-0.05177-0.1953s0.2096-0.09764 0.4232-0.09764c0.2096 0 0.1033 0.1436 0 0.2917-0.0374 0.04594-0.08898 0.0603-0.1435 0.0603-0.1091 0-0.2268-0.0603-0.2268-0.0603m-3.774-0.09764c-0.3161-0.1436 0.3717-0.1953 0.3717-0.1953 0.1579 0.04882 0.3193 0.1436 0.1579 0.2917-0.05453 0.04882-0.09764 0.06892-0.1435 0.06892-0.08622 0-0.1809-0.07179-0.386-0.1666m5.543 25.91c0.02874 0 0 0 0 0" style="fill:#000000;stroke-width:.7519"/>
 <path d="m23.48 16.59c0.1291-0.02872 0.2699 0 0.5022 0.04307 0.6264 0.1436 1.151 0.1895 1.566 0.3335 0.4175 0.1407 0.2096 0.3776 1.094 0.4244 0.8856 0.04882 1.151 0.1407 1.409 0 0.2585-0.1407 0.9378-0.1867 0.1579-0.2843-0.7819-0.09476-0.8874 0.04882-1.097-0.1867-0.2096-0.2354-0.3638-0.04882-0.2585-0.3799 0.1033-0.3311 0.2067-0.2384 0.1033-0.474-0.1033-0.2354 0.5218-0.2815-0.1033-0.2354-0.6268 0.04594-0.5246 0.09189-0.8368 0.1407-0.313 0.04882-0.8833 0.4232-0.6228 0.04882 0.2585-0.3799 0.05177-0.3799 0.5722-0.5707 0.5197-0.1867 0.5756-0.1867 1.095-0.2354 0.5219-0.04882 1.25-0.04882 0.7811 0.1895-0.4701 0.2384-0.8348 0.3799-0.5207 0.4276 0.3122 0.04594-0.4185 0.1407 0.5722 0.04594 0.9898-0.09476 1.044-0.09476 1.46-0.09476 0.4185 0 0.1551 0 0.5744-0.04882 0.4175-0.04595 1.042-0.2843 0.7285-0.04595-0.311 0.2354-0.7803 0.04595-0.7285 0.3776 0.05177 0.3303-0.2096 0.3799 0.2585 0.474 0.4693 0.09476 0.5734 0.2843 0.2067 0.2843-0.3636 0-0.2067-0.09189-0.6766 0-0.1809 0.03732-0.3282 0.02872-0.4468-0.001128-0.1896-0.02872-0.3018-0.0603-0.3343 0.1465-0.05453 0.3281-0.311 0.4244 0.2614 0.474 0.5744 0.04307 0.4142 0.09189 0.937-0.04882 0.2067-0.05457 0.2756-0.02872 0.3037 0 0.04311 0.05169-9.02e-4 0.1034 0.2183-0.1522 0.3648-0.4285 0.628-0.7112 0.5744-0.4752-0.05177 0.2354-0.1033 0.2843-0.2096 0.4276-0.1033 0.1407-0.1551 0.4244 0.1579 0.2384 0.3091-0.1895 0.6766-0.04882 0.6766-0.474 0-0.4268-0.2096-0.4752 0.05177-0.5707 0.2614-0.09476 0.473-0.2815 0.2096-0.2815-0.2614 0-0.4689 0.09476-0.7293 0.04594-0.2585-0.04594-0.4681-0.04594-0.311-0.2354 0.1551-0.1895 0.1551-0.2843 0.6211-0.3291 0.472-0.04882 0.1579 0 0.472-0.04882 0.313-0.04594 0.2096-0.3335 0.313-0.04594 0.1033 0.2843-0.2096 0.2843 0.1033 0.2843 0.3142 0 0.4152 0 0.6778-0.1436 0.2642-0.1407 0.313-0.1407 0.5197-0.2384 0.1063-0.04882 0.1722 0.04882 0.2498 0.1407 0.07756 0.09764 0.1695 0.1895 0.3262 0.1436 0.311-0.09476 0.9888-0.1895 1.407-0.1895 0.4152 0 0.2096 0 0.8368 0.1895 0.622 0.1895 1.04 0.1436 1.3 0.4252 0.2614 0.2815 0.5722 0.2815 0.5722 0.5703 0 0.2843-0.4173 0.4236 0.05453 0.5197 0.1752 0.03445 0.3049 0.02872 0.4093 0.02872 0.1752 0 0.2728-0.02872 0.3699 0.1608 0.1551 0.2872 0.4195 0.4252 0.1551 0.5226-0.2585 0.09189-0.311 0.09189-0.5732 0.09189-0.2585 0-0.9352-0.4236-0.7274-0.09189 0.2126 0.3313 0.6248 0.3313 0.5744 0.5197-0.04882 0.1924 0 0.3787-0.3142 0.3787-0.3169 0-0.4681-0.04882-0.6268-0.09476-0.1551-0.04594-0.05177-0.4236-0.1551-0.04594-0.1033 0.378 0.4144 0.2815-0.1033 0.378-0.5238 0.09476-0.5238 0.1407-0.7325-0.04882-0.2039-0.1895-0.2039-0.2384-0.4173-0.3303-0.2096-0.09764 0.05453-0.1436-0.4669-0.1436-0.525 0-0.7305 0.2354-0.7862 0-0.04882-0.2354 0.05453-0.376 0.4709-0.4236 0.1465-0.02872 0.224 0.001955 0.2815 0.02872 0.1033 0.03445 0.1465 0.06892 0.4476-0.1206 0.4709-0.2815 0.9409-0.1407 0.7315-0.5197-0.2067-0.378-0.3122-0.5187-0.6778-0.614-0.3648-0.09476-0.4669-0.09476-0.8852-0.09476-0.4163 0-0.6264-0.09189-0.6264 0.1436 0 0.2354 0.05453 0.4244-0.1033 0.5209-0.1551 0.09189-0.1063 0.2354-0.3667 0.2815-0.2585 0.04882-0.2039 0.04882-0.5209 0.04882-0.311 0-0.6766 0.3331-0.5207 0 0.1608-0.3303 0-0.2872 0.3161-0.4762 0.3118-0.1867 0.4669-0.04307 0.5207-0.375 0.02874-0.1551 0.02874-0.1551 0-0.1551s-0.05748 0.001128-0.115-0.2268c-0.1033-0.4264 0-0.09476-0.1033-0.4264-0.1063-0.3303 0.4136-0.5187-0.1063-0.3303-0.5207 0.1895-0.5207 0.09476-0.7791 0.2815-0.2614 0.1895-0.3667 0.1436-0.2614 0.474 0.1004 0.3313 0.05157 0.3799 0.3098 0.3799 0.2614 0 0.6252 0.04594 0.3142 0.2843-0.3142 0.2384-0.4163 0.2384-0.3638 0.4732 0.04882 0.2354 0.3638 0.2354-0.1063 0.4274-0.4669 0.1895-0.6766 0.4693-1.354 0.7081-0.6778 0.2384-0.8864 0.1407-1.406 0.472-0.5226 0.3335-0.6291 0.1924-0.7831 0.5683-0.1579 0.3819-0.3118 0.3323-0.1033 0.6152 0.2096 0.2872 0.3648 0.3799 0.6778 0.474 0.3142 0.09764 0.5218 0.3799 0.9898 0.4285 0.1435 0.02872 0.2815 0 0.402 0 0.2671 0 0.4356-0.02872 0.3293 0.1809-0.1551 0.2815-0.5218 0.8016-0.3122 1.04 0.2067 0.2354 0.6272 0.5177 0.8844 0 0.2614-0.5238 0.1033-0.7587 0.4689-0.9947 0.135-0.08614 0.2614-0.08327 0.3811-0.08041 0.2067 0 0.3929 0 0.5583-0.4427 0.2614-0.7081-0.1033-0.6148 0.2614-0.9927 0.3638-0.3791 0.4136-0.5663 0.624-0.85 0.2096-0.2872 0.3667-0.1895 0.9888-0.09476 0.6291 0.09476 1.097 0.5197 0.9402 0.8532-0.1579 0.3311-0.4689 0.4232-0.1579 0.4701 0.315 0.04882 0.4173 0.09764 0.7819-0.2327 0.3679-0.335 0.5218-0.5703 0.6799-0.335 0.1522 0.2411 0.313 0.2843 0.2555 0.6665-0.05177 0.376-0.3098 0.2815-0.1033 0.614 0.2126 0.3291 0.838 0.3291 0.9951 0.6148 0.1551 0.2815 0.5195 0.5238 0.1551 0.6636-0.3648 0.1436-0.2614 0.6128-0.2614 0.8051 0 0.1895 0.2096 0.1895 0.4173 0.4256 0.2096 0.2384 0.3648 0.5663 0.1063 0.614-0.2614 0.04882-0.1063-0.09476-0.626-0.09476-0.5226 0-1.147 0.09476-1.096-0.09764 0.05157-0.1867 0.1033-0.2354 0.4144-0.473 0.3169-0.2384 0.5258-0.2843 0.5258-0.5695 0-0.2785 0-0.4701-0.3122-0.2785-0.3169 0.1838-0.2126 0.3738-0.628 0.3738-0.4163 0-0.4689-0.04882-0.9382-0.04882-0.4657 0-0.622-0.1895-0.9896 0-0.3679 0.1895-0.8327 0.3807-0.8876 0.5219-0.04882 0.1436 0.2585 0.1436 0.5197 0.04882 0.2642-0.09476 1.046-0.09476 0.7831 0.09476-0.2585 0.1895-0.5187 0.2354-0.4154 0.472 0.1063 0.2384 0.7283 0.4276 0.939 0.2384 0.2067-0.1895 0.8854-0.09476 0.626 0.09476-0.2642 0.1895-0.4185 0.4276-0.8368 0.5683-0.2211 0.07754-0.3687 0.04307-0.5126 0-0.1293-0.02872-0.2555-0.05744-0.4244 0-0.3648 0.09476-0.6789 0.09476-0.8874 0.04882-0.2096-0.04882-0.1551-0.1436-0.4661-0.09476-0.3161 0.04594-0.4205 0.3303-0.8854 0.6148-0.4701 0.2843-0.5766 0.3323-0.9394 0.614-0.3695 0.2843-0.4205 0.4762-0.7323 0.711-0.315 0.2384-0.04882 0.2872-0.315 0.2384-0.2555-0.04882-0.3626-0.2843-0.4136-0.04882-0.05177 0.2384-0.05177 0.2843 0 0.4713 0.05177 0.1924 0.1579 0.2843 0.05177 0.5226-0.1033 0.2354-0.313 0.2872-0.6768 0.4752-0.3648 0.1867-0.3648 0.2354-0.8348 0.5187-0.4681 0.2872-0.6248 0.2384-0.7283 0.6616-0.1033 0.4274-0.05177 0.622-0.05177 1.093 0 0.472 0.2614 0.8016-0.05177 0.9453-0.315 0.1407-0.6789-0.09764-0.6789-0.6636 0-0.5654-0.05453-0.8508-0.05453-0.8508s-0.3656-0.09764-0.6766-0.1436c-0.3142-0.04594-0.5238-0.09189-0.8886-0.09189-0.3626 0-0.5207-0.04882-0.5207 0.09189v0.3829s0 0.1867-0.2585 0.1378c-0.2614-0.04307-0.3626-0.09189-0.628-0.1895-0.2585-0.08902 0.2126-0.377-0.6228-0.08902-0.8339 0.2785-1.096 0.2785-1.25 0.7528-0.1579 0.474-0.05453 0.5671-0.2614 0.8976-0.2096 0.3343-0.4709 0.5713-0.3667 1.09 0.1063 0.5238 0.2126 1.138 0.5218 1.231 0.313 0.09764 0.624 0.09764 1.098 0.04594 0.4661-0.04594 0.5695-0.2354 0.7819-0.5165 0.2067-0.2872 0.4661-0.4762 0.8825-0.4762 0.4205 0 0.5228 0.04882 0.2126 0.4762-0.313 0.4224-0.8376 0.8043-0.6805 1.18 0.1579 0.3799 0.3138 0.2384 0.7819 0.1924 0.4693-0.05169 0.8368 0.04594 0.8864 0.2354 0.05453 0.1867 0.2614 0.4709 0.1033 0.6585-0.1551 0.1895 0.05453 0.8549 0.05453 0.8549s0 0.09764 0.1551 0.4256c0.1551 0.3303 0.2096 0.4244 0.4163 0.3768 0.2096-0.04594 0.3138-0.4689 0.5752-0.4689 0.2614 0 0.1551 0 0.4175 0.1838 0.2585 0.1895 0.4681 0.1895 0.4681 0.1895s0 0.02872-0.02874 0.04307c0.3274-0.5947 1.094-0.6917 1.094-0.6917s0.2671-0.2411 0.6364-0.4317c0.3748-0.1924 0 0.09189 0.1608 0.3839 0.1608 0.2898 0 0 0.4789-0.1924 0.4793-0.1895 0 0 0.5278 0.05169 0.5331 0.04594 0 0 0.3213 0.3354 0.2126 0.224 0.2126 0.1924 0.3748 0.1608 0.08327-0.02872 0.2067-0.0316 0.4205-0.02872 0.638 0.04594 0.7972 0.1005 1.544 0.388 0.7417 0.2872 0.2642 0.09476 0.9522 0.7679 0.5402 0.5319 0.4953 0.5278 0.6789 0.5258 0.05177-8.27e-4 0.1207-0.001955 0.2268 0 0.4781 0.04882 1.221 0.3362 1.54 0.6778 0.3203 0.3323 0.2126 0.4305 0.3203 0.7659 0.1033 0.3394 0.3718 0.3394 0.7963 0.7274 0.4244 0.387 0.5309 0.1378 1.065 0.4348 0.5287 0.2874 0.3687 0.1436 1.113 0.3362 0.7447 0.1924 0.4256 0.1436 1.064 0.4821 0.6364 0.3394 0.4774 0.2872 1.166 0.5289 0.6929 0.2411 0.1579 0.4344 0.1063 0.9675-0.05453 0.5297-1.008 1.349-1.274 1.881-0.2642 0.5297-0.05453 0.7687-0.05453 1.206 0 0.4356 0 0.4833-0.2126 0.9644-0.2154 0.4852-0.2671 0.4852-0.4252 0.7254-0.1608 0.2411-0.4783 0.626-0.7982 0.626-0.3181 0-0.4276 0-1.01 0.4376-0.5823 0.4317-0.5299 0.6211-0.4789 1.056 0.05453 0.4337 0 0.1953-0.05177 0.3892-0.05177 0.1895 0 0-0.2671 0.2411-0.2671 0.2384 0 0.1924-0.05177 0.3819-0.05177 0.1953-0.1579 0.289-0.2154 0.4348-0.05177 0.1465-0.2614 0.3362-0.3697 0.485-0.1033 0.1407-0.373 0.5785-0.7955 0.6717-0.4232 0.1005-0.7447-0.04594-0.852 0.1982-0.1033 0.2411 0 0 0.1608 0.2411 0.1608 0.2441 0.05177 0.1436 0.1063 0.5297 0.05453 0.3868 0 0.1924-0.4252 0.5795-0.4226 0.386-0.4226 0-0.7447 0-0.3193 0-0.2614 0.1924-0.2614 0.3382 0 0.1436 0 0.1953-0.1608 0.2411-0.1579 0.04882-0.2126 0.04882-0.3697 0.2909-0.08622 0.1264-0.08051 0.1206-0.03444 0.112 0.04016 0 0.1177 0 0.1923 0.08041 0.1579 0.1953 0.1579 0.09189 0.1579 0.3868 0 0.2878-0.05177 0.1953-0.1063 0.4813-0.05453 0.2917 0 0-0.3203 0.3415-0.178 0.1895-0.1551 0.1637-0.1033 0.1436 0.04311-0.02872 0.1033-0.03447 0.1033 0.04594 0 0.1924 0.05453 0.1465 0.2154 0.3839 0.1579 0.2411 0.2642 0.1953 0.3171 0.3868 0.05177 0.1924 0 0-0.05453 0.4833-0.03169 0.2843-0.02874 0.2354-0.0374 0.1838 0-0.03447-0.02874-0.06892-0.0689 0-0.1063 0.1924-0.1579 0.1436-0.1579 0.3386 0 0.1924 0 0 0.1063 0.3362 0.06024 0.1982 0.05177 0.1637-0.02874 0.1321-0.05177-0.02872-0.135-0.04594-0.2441 0-0.2614 0.1465 0 0.1953 0 0.1953l0.2126 0.09476c0.2126 0.09764 0 0 0.2126-0.09476 0.2154-0.09764 0.1608 0.1924 0.373 0.2878 0.2096 0.09764 0.1579 0.1436 0.3191 0.2411 0.1579 0.09764 0.1579 0.09764 0.3191 0.1924 0.1579 0.09476 0.1033 0.1436-0.05177 0.1924-0.1608 0.04595-0.1608 0-0.6902 0h-0.3736c-0.373 0-0.1063-0.04882-0.1063-0.04882s-0.2126-0.09476-0.6352-0.2872c-0.1923-0.08902-0.2096-0.09764-0.2039-0.09476-0.02874 0-0.05177-0.02872-0.115-0.05457-0.3203-0.1436-0.1608-0.09476-0.2699-0.3382-0.05453-0.1264-0.05453-0.1206-0.04311-0.112 0 0 0.02874 0 0-0.07754-0.05453-0.1924-0.1091-0.1465-0.1091-0.1465l-0.3179-0.1867s-0.1063-0.05169-0.3738-0.3415c-0.1378-0.1522-0.1321-0.1436-0.1091-0.1378 0.02874 0 0.05453 0 0-0.1034-0.1063-0.2411-0.05177-0.1465-0.2642-0.5791-0.1264-0.2614-0.1006-0.2096-0.07185-0.1551 0.02874 0.03447 0.0374 0.06892 0.02874 0-0.05177-0.1436 0.1608-0.1924 0.1608-0.387 0-0.1091 0-0.09189-0.04882-0.07754-0.0374 0-0.1006 0.02872-0.2126-0.02872-0.2642-0.09764 0 0-0.05177-0.1493-0.05748-0.1407-0.2126-0.7173-0.2126-0.7173s-0.05453-0.1493-0.1638-0.4843c-0.1063-0.3406 0 0 0.1638 0 0.1579 0 0.2126 0.4317 0.2642 0.1895 0.04882-0.2384-0.05177-0.2384-0.2154-0.5297-0.1579-0.2874-0.1579-0.1407-0.2126-0.5297-0.05177-0.3839-0.1063-0.3839-0.2096-1.011-0.1033-0.6291 0.1033-0.7762 0.1579-1.304 0.05177-0.5327-0.2614-0.7718-0.2614-1.493 0-0.7242 0-0.8689 0.04882-1.497 0.05453-0.628-0.1063-1.686-0.1579-2.171-0.05453-0.4809-0.4236-0.5783-1.221-1.012-0.7963-0.4356-0.852-0.4821-1.115-0.8207-0.2699-0.3372-0.9583-1.831-1.33-2.461-0.3738-0.628-0.7955-0.9683-0.6352-1.35 0.1579-0.386 0.2096-0.5795 0.1579-0.9169-0.05177-0.3394-0.05177-0.3848 0.3717-0.5815 0.4236-0.1953 0.3711-0.3343 0.6868-1.011 0.3234-0.6726 0.05748-0.7707 0.2039-1.724-0.1033 0.3313-0.1551 0.474-0.1551 0.474s-0.1551-0.2384-0.3656-0.4252c-0.2067-0.1895-0.4185-0.4276-0.5228-0.1895-0.1006 0.2354 0.05453 0.472-0.1551 0.3768-0.2126-0.09189-0.05177-0.09189-0.3679-0.2815-0.311-0.1895-0.2067-0.1436-0.4152-0.3807-0.2096-0.2384 0.3648-0.2384-0.2096-0.2384-0.5764 0-0.624 0.1436-0.6778-0.1867-0.05453-0.3313 0.1006-0.5703-0.1551-0.6616-0.1091-0.0402-0.1722-0.02872-0.2327 0-0.08327 0.02872-0.1579 0.04594-0.3413-0.09189-0.313-0.2384-0.1063-0.1407-0.6248-0.3799-0.5228-0.2354-0.5754-0.1407-1.097-0.5675-0.5207-0.4236-0.7843-0.5207-0.9382-0.4236-0.1551 0.09764-1.094 0.3325-1.928-0.3331-0.8329-0.6646-0.9919-0.5218-0.9919-0.9018 0-0.3748 0.4681-0.1867 0.1033-0.8035-0.3648-0.6157-0.7819-1.183-1.095-1.705-0.3142-0.5197-0.5754-0.5644-0.5754-0.9939 0-0.4252 0.1063-0.5652-0.1551-0.6634-0.2614-0.09476-0.4689-0.472-0.5218-0.09476-0.04882 0.3811-0.1063 0.4732 0.05177 0.7567 0.1551 0.2872 0.1551 0.4295 0.311 0.7112 0.1579 0.2815 0.05453 0.3787 0.2096 0.6159 0.1551 0.2384 0.4681 0.4232 0.3626 0.713-0.1033 0.2815-0.1551 0.2354-0.3118 0.04307-0.1551-0.1895-0.2614-0.1407-0.3638-0.377-0.1063-0.2354 0.2096 0 0.1033-0.2354-0.1033-0.2384 0.1063-0.1895-0.2067-0.3791-0.1321-0.08041-0.1809-0.05744-0.2039-0.03447-0.0315 0.0316-0.02874 0.06317-0.1063-0.1551-0.1579-0.3799 0.05177-0.1895 0.05177-0.472 0-0.2843-0.1033-0.2354-0.2585-0.4709-0.1579-0.2411-0.05453-0.3839-0.1063-0.8116-0.05177-0.4217-0.05177-0.378-0.4136-0.7537-0.3656-0.3799-0.5218-0.9006-0.4205-2.368 0.1063-1.468 0.8876-1.846 1.149-2.132 0.2585-0.2815 0.4173-0.5675 0.1091-0.8512-0.3159-0.2872-0.5278-0.2872-0.474-0.475 0.05177-0.1895 0.5219-0.1895 0.6778 0.04882 0.1579 0.2354 0.1063 0.6169 0.3657 0.6169 0.2614 0 0.5207-0.2354 0.2614-0.4762-0.2614-0.2354-0.5734-0.2785-0.6789-0.6604-0.03445-0.1321-0.07756-0.2183-0.112-0.2929-3.173 4.264-5.055 9.549-5.055 15.27 0 14.13 11.46 25.59 25.59 25.59 9.868 0 18.42-5.587 22.7-13.77v-0.3362c0-0.5683-0.4669-0.2843-0.6252-1.516-0.1522-1.233 0.2614-1.749 0.5754-2.132 0.3142-0.378-0.1033-0.6159-0.2096-0.9927-0.1033-0.3768-0.2614-0.5695-0.2614-1.182 0-0.6179-1.043-0.9967-1.252-1.421-0.2126-0.4264-0.05177-0.4264 0.1063-1.042 0.1579-0.6169 0.4689-0.8012 0-1.135-0.2699-0.1895-0.4906-0.1465-0.7173-0.1005-0.1665 0.03447-0.3362 0.06604-0.5339 0-0.4701-0.1407-0.3667-0.8024-1.096-0.7579-0.7293 0.04594-0.624 0.3291-1.146 0.5663-0.3079 0.1407-0.6148 0.06604-0.9451 0-0.2297-0.05169-0.4681-0.1034-0.7254-0.08327-0.6211 0.04594-0.4163 0.1895-0.9352 0.1895-0.5226 0-0.6797-0.3346-0.94-0.8067-0.2614-0.472-0.9907-0.7587-1.199-1.09-0.2096-0.3282-0.838-1.279-0.8833-1.654-0.05453-0.3811 0.04587-0.6628 0.2555-1.423 0.2096-0.7537-0.1063-0.3768-0.2555-0.6148-0.1608-0.2354 0.04587-0.6132 0.3098-1.04 0.2614-0.4276 0.4669-0.8063 0.9382-1.374 0.4661-0.5663 0.3616-0.3807 0.9402-0.6136 0.5713-0.2354 0.2555-0.8551 0.4142-1.233 0.1579-0.376 0.1579-0.2354 0.5754-0.4762 0.4163-0.2327 0.4163-0.4224 0.8339-0.7516 0.4152-0.3313 0.4701 0 0.9907 0.04307 0.5226 0.04882 0.4681-0.04307 0.9402-0.2354 0.465-0.1895 0.7303-0.2384 1.304-0.4274 0.3594-0.1177 0.6159-0.1063 0.9663-0.09189 0.2039 0 0.4419 0.02872 0.7518 0 0.838-0.04307 0.4173 0.3343 0.3657 0.8549-0.05177 0.5218-0.1063 0.4268 0.1522 0.6608 0.2642 0.2384 0.9939 0.2384 1.411 0.2872 0.4152 0.04882 0.311 0.1407 0.7283 0.376 0.4195 0.2384 0.4713 0.2878 0.8896 0.4264 0.04882 0.02872 0.08898 0.02872 0.1177 0.02872-0.3494-1.182-0.7811-2.327-1.294-3.433 0 0.07466 0.02874 0.1637 0.02874 0.2815 0 0.2843-0.2614 0.3335-0.5764 0.5197-0.3118 0.1895-0.2585 0-0.5756-0.1867-0.3098-0.1895 0.05453-0.1895 0.5258-0.1895 0.4661 0 0.3142-0.1924 0.3648-0.475 0.05177-0.2843-0.1579-0.3282-0.4689-0.472-0.311-0.1436-0.3659-0.1436-0.8886-0.378-0.5207-0.2354-0.311-0.3335-0.6768-0.5703-0.3636-0.2354-0.313-0.2843-0.7323-0.09476-0.4136 0.1895-0.3081 0.1436-0.8327 0.1895-0.5207 0.05169-0.2585 0-0.5207 0.1924-0.2642 0.1924-0.1579 0.2354-0.3657 0.5197-0.2096 0.2878-0.315 0.1436-0.6746 0.4762-0.3679 0.3291 0 0-0.05748 0.5195-0.04882 0.5228-0.1522 0.1895-0.6758 0.5228-0.3222 0.2067-0.4256 0.1723-0.5177 0.1436-0.05748-0.02872-0.112-0.0402-0.2096-0.002933-0.2614 0.09189-0.3154 0.1924-0.6264 0.05169-0.3138-0.1465-0.2096-0.1895-0.4193-0.2411-0.2039-0.04307-0.3648-0.1867-0.4693-0.5197-0.1033-0.3311 0.05453-0.3311 0.2096-0.7081 0.1579-0.3787-0.05177-0.3787-0.05177-0.6148 0-0.2384 0.1063-0.3354 0.2585-0.3354 0.1579 0 0.7283 0.05169 1.042 0.05169h0.7831s0.315-0.1436 0.315-0.4906c0-0.3463 0.1752-0.5045-0.1752-0.6937-0.3484-0.1895-0.3484-0.1235-0.5571-0.2843-0.2067-0.1579-0.3474-0.2528-0.03444-0.3768 0.3142-0.1264 0.4862-0.09764 0.7659-0.2528 0.2728-0.1608 0.6577-0.2843 0.4488-0.3455-0.2096-0.06604-0.2096-0.06604-0.4488-0.06604-0.247 0-0.2096 0-0.5226 0.09476-0.3142 0.09764-0.453 0.474-0.453 0.09764 0-0.3799-0.0315-0.1579 0.0374-0.5053 0.0689-0.3486-0.2441-0.09764 0.0689-0.3486 0.3142-0.2498 0.4874-0.1579 0.3839-0.3768-0.1063-0.2211 0.2067 0-0.1063-0.2211-0.315-0.224-0.0689-0.3171-0.315-0.224-0.02874 0-0.04882 0.02872-0.0689 0.02872 0-0.02872-0.02874-0.05169-0.0689-0.1206-0.1722-0.2843-0.3154-0.1608-0.2441-0.4437 0.07185-0.2815-0.3118-0.2183 0.2096-0.4104 0.5218-0.1895 0.6272-0.313 0.7638-0.1551 0.1407 0.1551 0.3486 0.224 0.2096 0.4112-0.1435 0.1867-0.247 0.3478-0.1063 0.5341 0.1378 0.1895 0.2441 0.2528 0.4205 0.4112 0.1722 0.1579-0.03445 0.2528 0.2384 0.3474 0.2815 0.09476 0.5226 0.1579 0.4537 0.3443-0.0689 0.1924-0.3138 0.537-0.03445 0.4124 0.2785-0.1264 0.3102-0.2872 0.6585-0.537 0.3474-0.2498 0.4843-0.2211 0.8701-0.3768 0.1839-0.07466 0.311-0.08041 0.3831-0.09764-1.98-2.547-4.433-4.713-7.228-6.36-0.04016 0.06604-0.1006 0.1493-0.301 0.4427-0.4205 0.626-0.1579 0.1924-0.6341 0.6778-0.4801 0.4801-0.2699 0.2878-1.328 0.3839-1.063 0.09764-0.9045 0.2878-1.487 0.5776-0.5854 0.2937-0.7972 0.2937-1.862 0.5795-1.062 0.2898-0.7992 0.7234-1.221 1.207-0.4244 0.4843-0.3181 0.3839-1.117 0.1436-0.7951-0.2384-0.9543-0.8661-0.9543-1.831 0-0.6646 0.2039-0.6646 0.5026-0.6636 0.135 0 0.2878 0 0.4518-0.06032 0.5321-0.1924-0.05177-0.3362-0.2096-0.5764-0.1608-0.2441-0.3181-0.2441-0.1608-0.5823 0.1608-0.3366 0-0.2411-0.315-0.6736-0.224-0.303-0.473-0.2756-1.108-0.2498-0.2756 0-0.6211 0.02872-1.069 0-1.489-0.05169-0.4772-0.1465-0.3728-0.5307 0.07185-0.2642 0.5165-0.2354 1.008-0.2039 0.2297 0 0.4709 0.02872 0.6898 0 0.6909-0.04882 0.3181-0.2384-0.1063-0.4356-0.4232-0.1895-0.689 0-1.329 0.1493-0.6364 0.1407-0.8986 0.2872-1.327 0.3839-0.4224 0.09764-0.636 0.1953-1.326 0.4813-0.6929 0.2927-0.4274 0.2411-0.9033 0.4356-0.4813 0.1953-0.3173 0.09764-0.848 0.09764-0.5339 0-0.5339-0.04595-1.063-0.04595-0.5327 0-0.3179-0.05169-0.4801-0.39-0.1579-0.3362 0.2671 0 0.6902 0.05169 0.4252 0.04882 0.3736-0.05169 0.9055-0.1924 0.5299-0.1436 0.6372-0.2886 1.221-0.6778 0.5835-0.3839-0.3199-0.2384-0.6909-0.2384-0.3736 0-0.3191 0.09764-0.7447 0.2384-0.4232 0.1436-0.4781 0.09764-0.8476-0.04882-0.3707-0.1436 0.2126-0.3354 0.4244-0.5278 0.2126-0.1924 0.6898 0 1.008 0.04594 0 0 0.636-0.09476 1.119-0.1436 0.475-0.04882 0.5815-0.1465 1.588-0.2441 0.5746-0.05169 0.9443-0.04594 1.32-0.03732h0.9644c0.9049-0.04594 0.7457 0 1.383 0.04882 0.6392 0.05169 0.4264 0.1953-0.05177 0.2441-0.4789 0.04882-0.2671 0.1436-0.05177 0.2886 0.2096 0.1465 0.5835-0.1465 0.9543-0.1465s0.5319-0.09476 1.435-0.3354c0.1923-0.05169 0.386-0.09189 0.5787-0.1206-2.317-0.6909-4.772-1.066-7.313-1.066-5.413 0-10.43 1.685-14.56 4.553m7.276-1.683c0.2671 0 0.5319 0.05169 0.477 0.3394-0.05177 0.2906-0.636 0-0.9563 0-0.3181 0-0.4762 0.1436-0.9018 0.2411-0.4264 0.09764-0.6413-0.09764-0.7415-0.3354-0.1091-0.2441 0.9006-0.2441 0.9006-0.2441s0.2671 0.1005 0.6372 0.1005c0.3707 0 0.3203-0.1005 0.5846-0.1005m2.175 3.524c0.2642-0.1953 0.3193-0.3848 0.6921-0.2411 0.3738 0.1465 0.9045 0.5331 0.636 0.5795-0.2614 0.04882-0.1579-0.04594-0.477-0.09764-0.3191-0.04594-0.3707 0-0.5854 0.09764-0.2096 0.09764-0.2096 0.1465-0.3699 0.1465 0 0-0.1579-0.2898 0.1033-0.4844m20.08 4.453c-0.03444-0.2528 0.135-0.2528 0.135-0.5022 0-0.2528-0.1033-0.2528-0.03169-0.4144 0.0689-0.1551-0.1033-0.1235 0.1752-0.2498 0.2728-0.1264 0.3102-0.1551 0.5187-0.1551 0.2067 0 0.1378 0.1235 0.3819 0.02872 0.135-0.05457 0.2498 0 0.2917 0.02872-0.1722 0.05457-0.2268 0.03447-0.2585 0.2555-0.03444 0.2555 0.1378 0.3484-0.03444 0.5996-0.1752 0.2528-0.1063 0.2872-0.4821 0.3203-0.2785 0.02872-0.5006 0.1895-0.6148 0.1895-0.04587 0-0.07185-0.02872-0.08327-0.09764m-25.96 10.31c0.1063-0.1895 0.6898-0.2872 0.6898-0.2872s0.4801 0 0.8539 0.09764c0.3687 0.09476 0.3687 0.1895 0.7425 0.4317 0.3728 0.2411 0.4224 0.09764 0.6917 0.1953 0.2614 0.09189 0.2614 0.2384 0 0.3335-0.2699 0.09764-0.2699 0-0.6917-0.1436-0.4264-0.1436-0.4264-0.2909-0.689-0.4317-0.2699-0.1465-0.4821-0.2441-1.117-0.1005-0.2528 0.05744-0.3972 0.08327-0.4732 0.08327-0.1177 0-0.07185-0.06317 0-0.1838m3.561 1.306c0.1063-0.3406-0.2671-0.1953 0.1063-0.3406 0.3707-0.1407 0.7931-0.2872 1.113-0.1407 0.3181 0.1407 1.01 0.2411 0.5866 0.4327-0.4287 0.1953-0.689 0.09764-0.9565 0.1953-0.2642 0.09764-0.3191 0.1465-0.7984 0.1465-0.4781 0-0.6352-0.09764-0.5299-0.2441 0 0 0.1494 0.1177 0.2843 0.1177 0.08051 0 0.1551-0.0402 0.1923-0.1637m2.073 0.2411c-0.1608-0.04882-0.05177-0.1953-0.05177-0.1953s0.2096-0.09764 0.4232-0.09764c0.2096 0 0.1033 0.1436 0 0.2917-0.0374 0.04594-0.08898 0.0603-0.1435 0.0603-0.1091 0-0.2268-0.0603-0.2268-0.0603m-3.774-0.09764c-0.3161-0.1436 0.3717-0.1953 0.3717-0.1953 0.1579 0.04882 0.3193 0.1436 0.1579 0.2917-0.05453 0.04882-0.09764 0.06892-0.1435 0.06892-0.08622 0-0.1809-0.07179-0.386-0.1666m5.543 25.91c0.02874 0 0 0 0 0" style="fill:url(#radialGradient7443-7);stroke-width:.7519"/>
</svg>
