<?xml version="1.0" encoding="UTF-8" standalone="no"?>
<svg xmlns:dc="http://purl.org/dc/elements/1.1/" xmlns:cc="http://creativecommons.org/ns#" xmlns:rdf="http://www.w3.org/1999/02/22-rdf-syntax-ns#" xmlns:svg="http://www.w3.org/2000/svg" xmlns="http://www.w3.org/2000/svg" xmlns:xlink="http://www.w3.org/1999/xlink" xmlns:sodipodi="http://sodipodi.sourceforge.net/DTD/sodipodi-0.dtd" xmlns:inkscape="http://www.inkscape.org/namespaces/inkscape" version="1.1" viewBox="0 0 100 100.2" id="svg59" sodipodi:docname="i80.svg" inkscape:version="0.92.2 (5c3e80d, 2017-08-06)">
  <metadata id="metadata63">
    <rdf:RDF>
      <cc:Work rdf:about="">
        <dc:format>image/svg+xml</dc:format>
        <dc:type rdf:resource="http://purl.org/dc/dcmitype/StillImage" />
        <dc:title></dc:title>
      </cc:Work>
    </rdf:RDF>
  </metadata>
  <sodipodi:namedview pagecolor="#ffffff" bordercolor="#666666" borderopacity="1" objecttolerance="10" gridtolerance="10" guidetolerance="10" inkscape:pageopacity="0" inkscape:pageshadow="2" inkscape:window-width="2560" inkscape:window-height="1001" id="namedview61" showgrid="false" inkscape:zoom="5.2943005" inkscape:cx="18.852174" inkscape:cy="44.673467" inkscape:window-x="-9" inkscape:window-y="41" inkscape:window-maximized="1" inkscape:current-layer="svg59" inkscape:snap-global="false" />
  <defs id="defs39">
    <linearGradient id="linearGradientSlvr" x1="0" x2="0" y1="794.40002" y2="828" gradientUnits="userSpaceOnUse">
      <stop style="stop-color:#696969;stop-opacity:1" offset="0" id="stop2" />
      <stop style="stop-color:#c7c7c9" offset=".17" id="stop4" />
      <stop style="stop-color:#f9f9ff" offset=".36" id="stop6" />
      <stop style="stop-color:#ccccce" offset=".73" id="stop8" />
      <stop style="stop-color:#696969;stop-opacity:1" offset="1" id="stop10" />
    </linearGradient>
    <linearGradient id="linearGradient19262-3-8" x1="0.061675467" x2="0.96732432" y1="0.35102415" y2="-0.27782884" gradientTransform="matrix(56.33936,-80.47732,80.47732,56.33936,21.6052,90.22542)" gradientUnits="userSpaceOnUse" xlink:href="#linearGradientSlvr" />
    <linearGradient id="linearGradient19435-5-7" x2="0.94274777" gradientTransform="matrix(80.47732,-52.25528,52.25528,80.47732,9.5624,76.1144)" gradientUnits="userSpaceOnUse" xlink:href="#linearGradientSlvr" y2="0.25339264" x1="0.082213715" y1="-0.30536661" />
    <radialGradient id="radialGradient7443-7" cx="344.29999" cy="79.309998" r="12.73" gradientTransform="matrix(2.618,0,0,2.672978,-846,-166.00871)" gradientUnits="userSpaceOnUse" fx="344.29999" fy="79.309998" fr="0" spreadMethod="pad">
      <stop style="stop-color:#fbfbfb" offset="0" id="stop15" />
      <stop style="stop-color:#f9f9ff" offset=".2717" id="stop17" />
      <stop style="stop-color:#ccccce" offset=".5976" id="stop19" />
      <stop style="stop-color:#696969" offset="1" id="stop21" />
    </radialGradient>
    <radialGradient id="radialGradient40985" cx="53.320438" cy="41.720737" r="14.6" gradientUnits="userSpaceOnUse" fx="53.320438" fy="41.720737" gradientTransform="matrix(-0.48785846,3.027032,-2.9033626,-0.46792698,198.73624,-99.041741)">
      <stop style="stop-color:#5b1694" offset="0" id="stop24" />
      <stop style="stop-color:#44116f" offset=".3592" id="stop26" />
      <stop style="stop-color:#61179f" offset=".6174" id="stop28" />
      <stop style="stop-color:#1d072f" offset="1" id="stop30" />
    </radialGradient>
    <filter id="filter40999" x="-.01213" y="-.01188" width="1.024" height="1.024" style="color-interpolation-filters:sRGB">
      <feGaussianBlur stdDeviation="0.12864323" id="feGaussianBlur33" />
    </filter>
    <filter id="filter41021" x="-.012" y="-.012" width="1.024" height="1.024" style="color-interpolation-filters:sRGB">
      <feGaussianBlur stdDeviation="0.18329785" id="feGaussianBlur36" />
    </filter>
  </defs>
  <path inkscape:connector-curvature="0" id="path41" style="fill:url(#radialGradient40985);stroke-width:1.34722269;stroke:none" d="m 11.6568,49.98676 c 0,21.106316 17.10863,38.2228 38.2228,38.2228 21.106316,0 38.2228,-17.111248 38.2228,-38.2228 0,-21.108934 -17.111248,-38.2228 -38.2228,-38.2228 -21.106316,0 -38.2228,17.10863 -38.2228,38.2228" />
  <path inkscape:connector-curvature="0" id="path43" style="fill:url(#linearGradient19262-3-8);stroke-width:1.34722269;fill-opacity:1" d="M 15.322,15.32444 C 5.719176,24.987478 0.043352,37.19783 0.061678,49.98676 0.2716416,76.028006 23.888096,99.75494 49.934578,99.9382 75.98106,99.766328 99.598038,76.030624 99.807478,49.98676 99.597514,23.945514 75.978442,0.21858 49.934578,0.03532 h -0.061 c -12.773222,0 -24.93645,5.665352 -34.5576,15.281266 m -5.112954,34.66232 c 0,-10.351572 4.369442,-20.169072 11.966878,-27.80316 7.607908,-7.613144 17.414936,-11.995676 27.7508,-11.987822 21.171766,0.09548 39.61034,18.608744 39.71506,39.7936 -0.106815,21.177002 -18.553766,39.68888 -39.71506,39.7936 -21.169148,-0.09548 -39.61034,-18.606126 -39.71506,-39.7936" />
  <path inkscape:connector-curvature="0" id="path45" style="display:inline;fill:#000000;stroke-width:0.51459998;filter:url(#filter41021)" d="M 342.6,62.9 C 337.704,62.9 333.101,64.807 329.64,68.269 326.178,71.731 324.271,76.334 324.271,81.229 324.271,91.339 333.38597,97.450715 343.49297,97.450715 353.60297,97.450715 356.30899,90.525121 359.79577,81.066824 359.79577,70.956824 352.708,62.899 342.601,62.899 Z M 328,81.23 C 328,77.331 329.518,73.666 332.275,70.91 335.032,68.153 338.697,66.635 342.595,66.635 350.644,66.635 357.195,73.183 357.195,81.235 357.195,89.283 350.647,95.835 342.595,95.835 334.547,95.835 327.995,89.287 327.995,81.235" transform="matrix(2.618,0,0,2.618,-846,-161.6)" sodipodi:nodetypes="ccsscccccsssc" />
  <path inkscape:connector-curvature="0" id="path47" style="fill:url(#linearGradient19435-5-7);stroke-width:1.34722269" d="m 49.8796,1.99882 c -12.817728,0 -24.868382,4.992526 -33.92928,14.056042 -9.063516,9.063516 -14.056042,21.11417 -14.056042,33.92928 0,26.46798 21.527814,47.98794 47.98794,47.98794 26.46798,0 47.98794,-21.527814 47.98794,-47.98794 0,-26.46798 -21.527814,-47.98794 -47.98794,-47.98794 z M 11.6568,49.98676 c 0,-10.207582 3.974124,-19.802552 11.19195,-27.01776 7.217826,-7.217826 16.812796,-11.19195 27.01776,-11.19195 21.072282,0 38.2228,17.142664 38.2228,38.2228 0,21.069664 -17.142664,38.2228 -38.2228,38.2228 -21.069664,0 -38.2228,-17.142664 -38.2228,-38.2228" />
  <path inkscape:connector-curvature="0" id="path49" style="display:inline;fill:#000000;stroke-width:0.51459998;filter:url(#filter40999)" d="M 335.4,70.48 C 335.4656,70.46541 335.5371,70.48 335.6551,70.50188 335.9733,70.57482 336.2398,70.59816 336.4507,70.67128 336.6628,70.74276 336.5572,70.86308 337.0065,70.88688 337.4564,70.91168 337.5912,70.95836 337.7225,70.88688 337.8538,70.8154 338.1989,70.79206 337.8027,70.74248 337.4055,70.69434 337.3519,70.76728 337.2454,70.64766 337.1389,70.52806 337.0606,70.62286 337.1141,70.45466 337.1666,70.28646 337.2191,70.33356 337.1666,70.21386 337.1141,70.09426 337.4317,70.07086 337.1141,70.09426 336.7957,70.1176 336.8476,70.14094 336.689,70.16574 336.53,70.19054 336.2403,70.38074 336.3726,70.19054 336.5039,69.99754 336.3989,69.99754 336.6633,69.90064 336.9273,69.80582 336.9557,69.80582 337.2195,69.78104 337.4846,69.75624 337.8547,69.75624 337.6163,69.87732 337.3775,69.99842 337.1922,70.07032 337.3518,70.09452 337.5104,70.11786 337.1392,70.166 337.6425,70.11786 338.1453,70.06972 338.1726,70.06972 338.3841,70.06972 338.5967,70.06972 338.4629,70.06972 338.6759,70.04492 338.888,70.02158 339.205,69.90052 339.046,70.02158 338.888,70.14118 338.6496,70.04492 338.6759,70.21338 338.7022,70.38118 338.5694,70.40638 338.8072,70.45418 339.0456,70.50232 339.0985,70.59858 338.9122,70.59858 338.7275,70.59858 338.8072,70.5519 338.5685,70.59858 338.4766,70.61754 338.4018,70.61317 338.3415,70.597996 338.2452,70.583406 338.1882,70.567366 338.1717,70.672396 338.144,70.839096 338.0137,70.887996 338.3045,70.913196 338.5963,70.935076 338.5149,70.959876 338.7805,70.888396 338.8855,70.860676 338.9205,70.873806 338.9348,70.888396 338.9567,70.914656 338.93436,70.940916 339.0457,70.811076 339.231,70.593376 339.3647,70.449776 339.3375,70.569676 339.3112,70.689276 339.285,70.714076 339.231,70.786876 339.1785,70.858356 339.1522,71.002476 339.3112,70.907976 339.4682,70.811696 339.6549,70.883176 339.6549,70.667176 339.6549,70.450376 339.5484,70.425776 339.6812,70.377276 339.814,70.329136 339.9215,70.234276 339.7877,70.234276 339.6549,70.234276 339.5495,70.282416 339.4172,70.257616 339.2859,70.234276 339.1794,70.234276 339.2592,70.138016 339.338,70.041736 339.338,69.993616 339.5747,69.970816 339.8145,69.946016 339.6549,69.970816 339.8145,69.946016 339.9735,69.922676 339.921,69.776616 339.9735,69.922676 340.026,70.067076 339.867,70.067076 340.026,70.067076 340.1856,70.067076 340.2369,70.067076 340.3703,69.994136 340.5045,69.922656 340.5293,69.922656 340.6343,69.873036 340.6883,69.848236 340.7218,69.897836 340.7612,69.944516 340.8006,69.994116 340.8473,70.040796 340.9269,70.017456 341.0849,69.969316 341.4292,69.921176 341.6417,69.921176 341.8526,69.921176 341.7482,69.921176 342.0668,70.017456 342.3828,70.113736 342.5953,70.090396 342.727,70.233456 342.8598,70.376456 343.0177,70.376456 343.0177,70.523156 343.0177,70.667556 342.8057,70.738356 343.0454,70.787156 343.1344,70.804656 343.2003,70.801746 343.2533,70.801746 343.3423,70.801746 343.3919,70.787156 343.4412,70.883436 343.52,71.029336 343.6543,71.099436 343.52,71.148936 343.3887,71.195616 343.362,71.195616 343.2288,71.195616 343.0975,71.195616 342.7537,70.980416 342.8593,71.148936 342.9673,71.317236 343.1767,71.317236 343.1511,71.412936 343.1263,71.510676 343.1511,71.605336 342.9915,71.605336 342.8305,71.605336 342.7537,71.580536 342.6731,71.557196 342.5943,71.533856 342.6468,71.341996 342.5943,71.533856 342.5418,71.725856 342.8048,71.676856 342.5418,71.725856 342.2757,71.773996 342.2757,71.797336 342.1697,71.701056 342.0661,71.604776 342.0661,71.579956 341.9577,71.533256 341.8512,71.483656 341.9854,71.460316 341.7205,71.460316 341.4538,71.460316 341.3494,71.579916 341.3211,71.460316 341.2963,71.340716 341.3488,71.269316 341.5603,71.245116 341.6347,71.230526 341.6741,71.246116 341.7033,71.259706 341.7558,71.277206 341.7777,71.294716 341.9307,71.198436 342.1699,71.055436 342.4087,71.126956 342.3023,70.934436 342.1973,70.742436 342.1437,70.670936 341.958,70.622536 341.7727,70.574396 341.7208,70.574396 341.5083,70.574396 341.2968,70.574396 341.1901,70.527716 341.1901,70.647336 341.1901,70.766936 341.2178,70.862936 341.1376,70.911936 341.0588,70.958616 341.0836,71.031536 340.9513,71.054936 340.82,71.079736 340.8477,71.079736 340.6867,71.079736 340.5287,71.079736 340.343,71.248936 340.4222,71.079736 340.5039,70.911936 340.4222,70.933836 340.5828,70.837836 340.7412,70.743016 340.82,70.815956 340.8473,70.647336 340.8619,70.568556 340.8619,70.568556 340.8473,70.568556 340.8327,70.568556 340.8181,70.56914 340.7889,70.453356 340.7364,70.236756 340.7889,70.405216 340.7364,70.236756 340.6824,70.068956 340.9465,69.973256 340.6824,70.068956 340.4179,70.165236 340.4179,70.117096 340.2866,70.211956 340.1538,70.308236 340.1003,70.284896 340.1538,70.452756 340.2048,70.621056 340.18,70.645756 340.3112,70.645756 340.444,70.645756 340.6288,70.669096 340.4708,70.790156 340.3112,70.911256 340.2593,70.911256 340.286,71.030556 340.3108,71.150156 340.4708,71.150156 340.232,71.247656 339.9948,71.343936 339.8883,71.486056 339.544,71.607356 339.1997,71.728456 339.0937,71.678836 338.8296,71.847156 338.5641,72.016556 338.51,71.944896 338.4318,72.135856 338.3516,72.329856 338.2734,72.304656 338.3793,72.448356 338.4858,72.594256 338.5646,72.641356 338.7236,72.689156 338.8832,72.738756 338.9887,72.882156 339.2264,72.906856 339.2993,72.921446 339.3694,72.906856 339.4306,72.906856 339.5663,72.906856 339.6519,72.892266 339.5979,72.998756 339.5191,73.141756 339.3328,73.405956 339.4393,73.527256 339.5443,73.646856 339.7579,73.790256 339.8886,73.527256 340.0214,73.261156 339.9411,73.141856 340.1268,73.021956 340.1954,72.978196 340.2596,72.979656 340.3204,72.981106 340.4254,72.981106 340.52,72.981106 340.604,72.756206 340.7368,72.396506 340.5515,72.443906 340.7368,72.251906 340.9216,72.059306 340.9469,71.964206 341.0538,71.820106 341.1603,71.674206 341.2401,71.723826 341.5561,71.771966 341.8757,71.820106 342.1135,72.035966 342.0337,72.205366 341.9535,72.373566 341.7955,72.420366 341.9535,72.444166 342.1135,72.468966 342.1655,72.493766 342.3507,72.325966 342.5376,72.155766 342.6158,72.036266 342.6961,72.155766 342.7734,72.278266 342.8551,72.300166 342.8259,72.494366 342.7996,72.685366 342.6685,72.637366 342.7734,72.806266 342.8814,72.973466 343.1991,72.973466 343.2789,73.118566 343.3577,73.261566 343.5428,73.384666 343.3577,73.455666 343.1724,73.528606 343.2249,73.766966 343.2249,73.864666 343.2249,73.960946 343.3314,73.960946 343.4369,74.080866 343.5434,74.201966 343.6222,74.368566 343.4909,74.392766 343.3581,74.417566 343.4369,74.344626 343.1729,74.344626 342.9074,74.344626 342.5904,74.392766 342.6161,74.295026 342.6423,74.200206 342.6686,74.175426 342.8266,74.054726 342.9876,73.933626 343.0937,73.910326 343.0937,73.765426 343.0937,73.623926 343.0937,73.526626 342.9351,73.623926 342.7741,73.717286 342.8271,73.813826 342.6161,73.813826 342.4046,73.813826 342.3779,73.789026 342.1395,73.789026 341.9029,73.789026 341.8235,73.692746 341.6368,73.789026 341.4499,73.885306 341.2138,73.982426 341.1859,74.054126 341.1611,74.127066 341.3172,74.127066 341.4499,74.078926 341.5841,74.030786 341.9815,74.030786 341.8477,74.127066 341.7164,74.223346 341.5842,74.246666 341.6367,74.366866 341.6907,74.487966 342.0067,74.584066 342.1137,74.487966 342.2187,74.391686 342.5635,74.439826 342.4317,74.536106 342.2975,74.632386 342.2191,74.753306 342.0066,74.824806 341.8943,74.864196 341.8193,74.846686 341.7462,74.824806 341.6805,74.810216 341.6164,74.795626 341.5306,74.824806 341.3453,74.872946 341.1857,74.872946 341.0798,74.849606 340.9733,74.824806 341.001,74.776666 340.843,74.801466 340.6824,74.824806 340.6294,74.969266 340.3932,75.113766 340.1544,75.258166 340.1003,75.282566 339.916,75.425666 339.7283,75.570066 339.7024,75.667566 339.544,75.786866 339.384,75.907966 339.5192,75.932766 339.384,75.907966 339.2542,75.883166 339.1998,75.763566 339.1739,75.883166 339.1476,76.004266 339.1476,76.027566 339.1739,76.122566 339.2002,76.220306 339.2541,76.266966 339.2002,76.388066 339.1477,76.507666 339.0412,76.533966 338.8564,76.629466 338.6711,76.724286 338.6711,76.749066 338.4323,76.892966 338.1945,77.038866 338.1149,77.014066 338.0623,77.229066 338.0098,77.446166 338.036,77.545066 338.036,77.784266 338.036,78.024066 338.1688,78.191466 338.0097,78.264466 337.8497,78.335946 337.6648,78.214866 337.6648,77.927366 337.6648,77.640166 337.6371,77.495166 337.6371,77.495166 337.6371,77.495166 337.4514,77.445566 337.2934,77.422226 337.1338,77.398886 337.0273,77.375546 336.842,77.375546 336.6578,77.375546 336.5775,77.350746 336.5775,77.422226 V 77.616726 C 336.5775,77.616726 336.5775,77.711546 336.4462,77.686746 336.3134,77.664866 336.262,77.640066 336.1272,77.590466 335.9959,77.545246 336.2352,77.398966 335.8108,77.545246 335.3872,77.686746 335.254,77.686746 335.1756,77.927646 335.0954,78.168446 335.1479,78.215746 335.0428,78.383646 334.9363,78.553446 334.8036,78.673846 334.8565,78.937246 334.9105,79.203346 334.9645,79.515246 335.1216,79.562646 335.2806,79.612246 335.4386,79.612246 335.6794,79.585986 335.9162,79.562646 335.9687,79.466386 336.0766,79.323586 336.1816,79.177686 336.3134,79.081686 336.5249,79.081686 336.7385,79.081686 336.7905,79.106486 336.6329,79.323586 336.4739,79.538186 336.2074,79.732186 336.2872,79.923186 336.3674,80.116186 336.4466,80.044286 336.6844,80.020926 336.9228,79.994666 337.1095,80.044266 337.1347,80.140526 337.1624,80.235346 337.2675,80.379726 337.1872,80.475026 337.1084,80.571306 337.2149,80.909326 337.2149,80.909326 337.2149,80.909326 337.2149,80.958926 337.2937,81.125526 337.3725,81.293326 337.4002,81.341126 337.5052,81.316926 337.6117,81.293586 337.6646,81.078726 337.7974,81.078726 337.9302,81.078726 337.8762,81.078726 338.0095,81.172086 338.1408,81.268366 338.2473,81.268366 338.2473,81.268366 338.2473,81.268366 338.2473,81.282956 338.2327,81.290246 338.399,80.988146 338.7885,80.938846 338.7885,80.938846 338.7885,80.938846 338.9242,80.816346 339.1118,80.719546 339.3022,80.621806 339.1118,80.766226 339.1935,80.914546 339.2752,81.061746 339.1935,80.914546 339.4368,80.816806 339.6803,80.720526 339.4368,80.816806 339.7049,80.843066 339.9757,80.866406 339.7049,80.843066 339.8681,81.013466 339.9761,81.127266 339.9761,81.111206 340.0585,81.095156 340.1008,81.080566 340.1635,81.079106 340.2721,81.080566 340.5962,81.103906 340.6771,81.131626 341.0563,81.277666 341.4331,81.423566 341.1905,81.325806 341.54,81.667766 341.8144,81.937966 341.7916,81.935866 341.8849,81.934866 341.9112,81.934428 341.9462,81.933866 342.0001,81.934866 342.243,81.959666 342.6202,82.105666 342.7823,82.279166 342.945,82.447966 342.8903,82.497866 342.945,82.668266 342.9975,82.840666 343.1339,82.840666 343.3495,83.037766 343.5651,83.234366 343.6192,83.107786 343.8904,83.258666 344.159,83.404666 344.0777,83.331606 344.456,83.429466 344.8343,83.527206 344.6722,83.502406 344.9963,83.674366 345.3196,83.846766 345.2388,83.820266 345.5887,83.943066 345.9407,84.065566 345.6689,84.163766 345.6427,84.434566 345.615,84.703666 345.1305,85.120066 344.9957,85.390266 344.8615,85.659366 344.968,85.780766 344.968,86.002666 344.968,86.223966 344.968,86.248166 344.86,86.492566 344.7506,86.739066 344.7243,86.739066 344.644,86.861066 344.5623,86.983566 344.401,87.179066 344.2385,87.179066 344.0769,87.179066 344.0213,87.179066 343.7253,87.401366 343.4295,87.620666 343.4561,87.716866 343.482,87.937666 343.5097,88.157966 343.482,88.036866 343.4557,88.135366 343.4294,88.231646 343.4557,88.135366 343.32,88.257866 343.1843,88.378966 343.32,88.355606 343.2937,88.451866 343.2674,88.551066 343.2135,88.598666 343.1843,88.672766 343.158,88.747166 343.0515,88.843566 342.9965,88.919166 342.944,88.990646 342.807,89.213066 342.5924,89.260366 342.3774,89.311426 342.2141,89.237026 342.1596,89.361066 342.1071,89.483566 342.1596,89.361066 342.2413,89.483566 342.323,89.607566 342.2676,89.556506 342.2953,89.752666 342.323,89.949166 342.2953,89.850406 342.0793,90.047066 341.8646,90.243166 341.8646,90.047066 341.701,90.047066 341.5388,90.047066 341.5682,90.144806 341.5682,90.218866 341.5682,90.291806 341.5682,90.318066 341.4865,90.341366 341.4063,90.366166 341.3785,90.366166 341.2987,90.489166 341.2549,90.553356 341.2578,90.550436 341.2812,90.546056 341.3016,90.546056 341.341,90.546056 341.3789,90.586906 341.4591,90.686106 341.4591,90.633586 341.4591,90.783406 341.4591,90.929606 341.4328,90.882606 341.4051,91.027906 341.3774,91.176106 341.4051,91.027906 341.2424,91.201406 341.152,91.297686 341.1636,91.284556 341.1899,91.274346 341.2118,91.259756 341.2424,91.256836 341.2424,91.297686 341.2424,91.395426 341.2701,91.372086 341.3518,91.492686 341.432,91.615186 341.486,91.591886 341.5129,91.689186 341.5392,91.786926 341.5129,91.689186 341.4852,91.934686 341.4691,92.079086 341.4706,92.054286 341.4662,92.028046 341.4662,92.010536 341.4516,91.993036 341.4312,92.028046 341.3772,92.125786 341.351,92.100986 341.351,92.200046 341.351,92.297786 341.351,92.200046 341.405,92.370846 341.4356,92.471546 341.4313,92.453996 341.3904,92.437946 341.3641,92.423356 341.3218,92.414606 341.2664,92.437946 341.1336,92.512346 341.2664,92.537146 341.2664,92.537146 L 341.3744,92.585286 C 341.4824,92.634886 341.3744,92.585286 341.4824,92.537146 341.5918,92.487546 341.5641,92.634886 341.6719,92.683346 341.7784,92.732946 341.7521,92.756286 341.834,92.805846 341.9142,92.855446 341.9142,92.855446 341.9961,92.903586 342.0763,92.951726 342.0486,92.976526 341.9698,93.001326 341.8881,93.024666 341.8881,93.001326 341.6192,93.001326 H 341.4294 C 341.2399,93.001326 341.3754,92.976526 341.3754,92.976526 341.3754,92.976526 341.2674,92.928386 341.0527,92.830626 340.955,92.785406 340.9462,92.781026 340.9491,92.782486 340.9345,92.782486 340.9228,92.767896 340.8907,92.754766 340.728,92.681826 340.809,92.706626 340.7536,92.582966 340.7259,92.518776 340.7259,92.521696 340.7317,92.526076 340.7317,92.526076 340.7463,92.526076 340.7317,92.486686 340.704,92.388946 340.6763,92.412286 340.6763,92.412286 L 340.5148,92.317466 C 340.5148,92.317466 340.4608,92.291206 340.3249,92.143966 340.2549,92.066646 340.2578,92.071026 340.2695,92.073946 340.2841,92.073946 340.2972,92.073946 340.2695,92.021426 340.2155,91.898926 340.2432,91.947026 340.1353,91.727226 340.0711,91.594426 340.0842,91.620726 340.0988,91.648456 340.1134,91.665966 340.1178,91.683466 340.1134,91.648456 340.0871,91.575516 340.1951,91.550716 340.1951,91.451856 340.1951,91.396426 340.1951,91.405176 340.1703,91.412466 340.1513,91.412466 340.1192,91.427056 340.0623,91.397876 339.9281,91.348276 340.0623,91.397876 340.036,91.322016 340.0068,91.250536 339.928,90.957616 339.928,90.957616 339.928,90.957616 339.9003,90.881756 339.8448,90.711616 339.7908,90.538616 339.8448,90.711616 339.928,90.711616 340.0082,90.711616 340.036,90.930916 340.0622,90.807896 340.087,90.686796 340.0359,90.686796 339.9528,90.538796 339.8726,90.392796 339.8726,90.467316 339.8448,90.269696 339.8185,90.074696 339.7908,90.074696 339.7383,89.756196 339.6858,89.436596 339.7908,89.361896 339.8185,89.093796 339.8448,88.823196 339.6857,88.701696 339.6857,88.335196 339.6857,87.967296 339.6857,87.893796 339.7105,87.574596 339.7382,87.255596 339.6565,86.718296 339.6303,86.471596 339.6026,86.227296 339.4151,86.177796 339.0102,85.957496 338.6057,85.736196 338.5774,85.712596 338.4436,85.540596 338.3065,85.369296 337.9568,84.610196 337.7679,84.290596 337.578,83.971596 337.3638,83.798696 337.4452,83.604696 337.5254,83.408596 337.5517,83.310296 337.5254,83.138896 337.4991,82.966496 337.4991,82.943396 337.7142,82.843496 337.9294,82.744296 337.9027,82.673696 338.0631,82.329896 338.2274,81.988196 338.0923,81.938396 338.1667,81.453996 338.1142,81.622296 338.0879,81.694796 338.0879,81.694796 338.0879,81.694796 338.0091,81.573696 337.9022,81.478796 337.7972,81.382516 337.6896,81.261596 337.6366,81.382516 337.5855,81.502116 337.6643,81.622316 337.5578,81.573916 337.4498,81.527236 337.5315,81.527236 337.3709,81.430916 337.2129,81.334636 337.2659,81.357976 337.16,81.237516 337.0535,81.116416 337.3453,81.116416 337.0535,81.116416 336.7607,81.116416 336.7365,81.189356 336.7092,81.021596 336.6815,80.853296 336.7603,80.731896 336.6304,80.685496 336.575,80.665076 336.5429,80.670906 336.5122,80.685496 336.4699,80.700086 336.432,80.708836 336.3388,80.638816 336.1798,80.517716 336.2848,80.567336 336.0214,80.445816 335.7558,80.326216 335.7291,80.374336 335.464,80.157516 335.1995,79.942316 335.0656,79.893016 334.9874,79.942316 334.9086,79.991916 334.4316,80.111216 334.0081,79.773116 333.585,79.435516 333.5042,79.508016 333.5042,79.315016 333.5042,79.124616 333.742,79.220196 333.5567,78.906816 333.3714,78.594016 333.1595,78.305816 333.0005,78.040716 332.8409,77.776716 332.7082,77.754016 332.7082,77.535816 332.7082,77.319816 332.7622,77.248716 332.6294,77.198816 332.4966,77.150676 332.3912,76.959016 332.3643,77.150676 332.3395,77.344276 332.3103,77.391076 332.3906,77.535076 332.4694,77.680976 332.4694,77.753276 332.5486,77.896376 332.6288,78.039376 332.5763,78.088776 332.6551,78.209276 332.7339,78.330376 332.8929,78.424276 332.8393,78.571476 332.7868,78.714476 332.7605,78.691076 332.6809,78.593356 332.6021,78.497076 332.5481,78.521876 332.4961,78.401856 332.4421,78.282256 332.6026,78.401856 332.5486,78.282256 332.4961,78.161156 332.6026,78.185976 332.4436,78.089656 332.3765,78.048806 332.3517,78.060476 332.34,78.072146 332.324,78.088196 332.3254,78.104236 332.286,77.993366 332.2058,77.800366 332.3123,77.897086 332.3123,77.753566 332.3123,77.609166 332.2598,77.633966 332.181,77.514366 332.1008,77.391866 332.1533,77.319366 332.127,77.102066 332.1007,76.887866 332.1007,76.910066 331.9169,76.719166 331.7312,76.526166 331.6518,76.261666 331.7033,75.516166 331.7573,74.770566 332.1542,74.578566 332.287,74.433166 332.4183,74.290166 332.499,74.144866 332.3424,74.000766 332.1819,73.854866 332.0743,73.854866 332.1016,73.759466 332.1279,73.663186 332.3667,73.663186 332.4459,73.784266 332.5261,73.903866 332.4999,74.097666 332.6317,74.097666 332.7645,74.097666 332.8962,73.978066 332.7645,73.855766 332.6317,73.736166 332.4732,73.714266 332.4196,73.520266 332.4021,73.453166 332.3802,73.409366 332.3627,73.371466 330.7507,75.537466 329.7947,78.222466 329.7947,81.129466 329.7947,88.308466 335.6147,94.129466 342.7947,94.129466 347.8077,94.129466 352.1537,91.291466 354.3247,87.136466 V 86.965666 C 354.3247,86.676966 354.0875,86.821266 354.0071,86.195666 353.9298,85.569366 354.1399,85.307366 354.2994,85.112666 354.459,84.920666 354.2469,84.799766 354.1929,84.608366 354.1404,84.416966 354.0601,84.319066 354.0601,84.007766 354.0601,83.693866 353.5301,83.501466 353.4241,83.285666 353.3161,83.069066 353.3978,83.069066 353.4781,82.756166 353.5583,82.442766 353.7163,82.349166 353.4781,82.179366 353.341,82.083086 353.2289,82.104966 353.1137,82.128306 353.0291,82.145816 352.9429,82.161856 352.8425,82.128306 352.6037,82.056826 352.6562,81.720706 352.2857,81.743306 351.9152,81.766646 351.9687,81.910506 351.7036,82.031006 351.5472,82.102486 351.3913,82.064556 351.2235,82.031006 351.1068,82.004746 350.9857,81.978486 350.855,81.988706 350.5395,82.012046 350.6435,82.084986 350.3799,82.084986 350.1144,82.084986 350.0346,81.914986 349.9024,81.675186 349.7696,81.435386 349.3991,81.289786 349.2931,81.121386 349.1866,80.954686 348.8674,80.471886 348.8444,80.281086 348.8167,80.087486 348.8677,79.944386 348.9742,79.557986 349.0807,79.175086 348.9202,79.366586 348.8444,79.245686 348.7627,79.126086 348.8677,78.934186 349.0018,78.717586 349.1346,78.500386 349.239,78.307986 349.4784,78.019686 349.7152,77.731986 349.6621,77.826286 349.956,77.707986 350.2462,77.588386 350.0858,77.273586 350.1664,77.081586 350.2466,76.890586 350.2466,76.961986 350.4587,76.839686 350.6702,76.721486 350.6702,76.625086 350.8823,76.457886 351.0932,76.289586 351.1211,76.457886 351.3856,76.479766 351.6511,76.504566 351.6234,76.457886 351.8632,76.360166 352.0994,76.263886 352.2342,76.239066 352.5255,76.143066 352.7081,76.083256 352.8384,76.089086 353.0164,76.096386 353.12,76.096386 353.2409,76.110976 353.3983,76.096386 353.824,76.074506 353.6103,76.266186 353.5841,76.530686 353.5578,76.795786 353.5301,76.747486 353.6614,76.866386 353.7956,76.987486 354.1663,76.987486 354.3782,77.012286 354.5891,77.037086 354.5362,77.083766 354.7482,77.203286 354.9613,77.324386 354.9876,77.349486 355.2001,77.419886 355.2249,77.434476 355.2453,77.434476 355.2599,77.434476 355.0824,76.833876 354.8631,76.252476 354.6027,75.690476 354.6027,75.728406 354.6173,75.773626 354.6173,75.833476 354.6173,75.977876 354.4845,76.002876 354.3245,76.097476 354.1661,76.193756 354.1932,76.097476 354.0321,76.002656 353.8747,75.906376 354.0598,75.906376 354.2992,75.906376 354.536,75.906376 354.4588,75.808636 354.4845,75.665076 354.5108,75.520676 354.4043,75.498376 354.2463,75.425276 354.0883,75.352336 354.0604,75.352336 353.7949,75.233276 353.5304,75.113676 353.6369,75.063876 353.4511,74.943576 353.2664,74.823976 353.2921,74.799176 353.0791,74.895436 352.869,74.991716 352.9226,74.968376 352.6561,74.991716 352.3916,75.017976 352.5248,74.991716 352.3916,75.089456 352.2574,75.187196 352.3114,75.209056 352.2058,75.353456 352.0993,75.499656 352.0458,75.426396 351.8631,75.595356 351.6762,75.762556 351.8631,75.595356 351.8339,75.859256 351.8091,76.124856 351.7566,75.955536 351.4906,76.124856 351.3269,76.229856 351.2744,76.212386 351.2276,76.197796 351.1984,76.183206 351.1707,76.177376 351.1211,76.196296 350.9883,76.242976 350.9609,76.294036 350.8029,76.222556 350.6435,76.148156 350.6964,76.126276 350.5899,76.100056 350.4863,76.078176 350.4046,76.005236 350.3515,75.836056 350.299,75.667856 350.3792,75.667856 350.458,75.476356 350.5382,75.283956 350.4317,75.283956 350.4317,75.164056 350.4317,75.042956 350.4857,74.993656 350.563,74.993656 350.6432,74.993656 350.933,75.019916 351.0925,75.019916 H 351.4903 C 351.4903,75.019916 351.6503,74.946976 351.6503,74.770716 351.6503,74.594816 351.7393,74.514416 351.5613,74.418316 351.3843,74.322036 351.3843,74.355586 351.2783,74.273916 351.1733,74.193686 351.1018,74.145516 351.2608,74.082516 351.4204,74.018326 351.5078,74.032916 351.6499,73.954116 351.7885,73.872426 351.984,73.809716 351.8779,73.778616 351.7714,73.745066 351.7714,73.745066 351.6499,73.745066 351.5244,73.745066 351.5434,73.745066 351.3844,73.793206 351.2248,73.842806 351.1543,74.034006 351.1543,73.842806 351.1543,73.649806 351.1383,73.762576 351.1733,73.586106 351.2083,73.409006 351.0493,73.536506 351.2083,73.409006 351.3679,73.282106 351.4559,73.328776 351.4033,73.217606 351.3493,73.105306 351.5083,73.217606 351.3493,73.105306 351.1893,72.991506 351.3143,72.944206 351.1893,72.991506 351.1747,72.991506 351.1645,73.006096 351.1543,73.006096 351.1543,72.991506 351.1397,72.979836 351.1193,72.944826 351.0318,72.800426 350.9591,72.863136 350.9953,72.719426 351.0318,72.576426 350.8369,72.608526 351.1018,72.510926 351.3669,72.414646 351.4204,72.351926 351.4898,72.432146 351.5613,72.510926 351.6669,72.545946 351.5963,72.641046 351.5234,72.735866 351.4708,72.817746 351.5423,72.912346 351.6123,73.008626 351.6663,73.040746 351.7559,73.121246 351.8434,73.201476 351.7384,73.249646 351.877,73.297746 352.02,73.345886 352.1425,73.377976 352.1075,73.472646 352.0725,73.570386 351.9481,73.745446 352.09,73.682146 352.2315,73.617956 352.2476,73.536246 352.4245,73.409346 352.601,73.282446 352.6705,73.297046 352.8665,73.217946 352.9599,73.180016 353.0245,73.177096 353.0611,73.168346 352.0551,71.874346 350.8091,70.774346 349.3891,69.937346 349.3687,69.970896 349.338,70.013206 349.2362,70.162246 349.0226,70.480246 349.156,70.259986 348.9141,70.506546 348.6702,70.750446 348.777,70.652746 348.2394,70.701546 347.6995,70.751146 347.7799,70.847746 347.4839,70.994946 347.1865,71.144146 347.0789,71.144146 346.538,71.289346 345.9987,71.436546 346.132,71.656846 345.9179,71.902746 345.7023,72.148746 345.7563,72.097746 345.3507,71.975686 344.9468,71.854586 344.8659,71.535686 344.8659,71.045286 344.8659,70.707686 344.9695,70.707686 345.1212,70.708186 345.1898,70.708186 345.2674,70.708186 345.3507,70.677546 345.621,70.579806 345.3244,70.506746 345.2442,70.384746 345.1625,70.260746 345.0826,70.260746 345.1625,70.088946 345.2442,69.917946 345.1625,69.966446 345.0025,69.746746 344.8887,69.592846 344.7622,69.606746 344.4395,69.619846 344.2995,69.619846 344.124,69.634436 343.8965,69.619846 343.14,69.593586 343.6541,69.545446 343.7071,69.350246 343.7436,69.216046 343.9695,69.230646 344.2191,69.246646 344.3358,69.246646 344.4583,69.261236 344.5695,69.246646 344.9205,69.221846 344.7311,69.125546 344.5155,69.025346 344.3005,68.929066 344.1655,69.025346 343.8404,69.101206 343.5171,69.172686 343.3839,69.247106 343.1661,69.296206 342.9515,69.345806 342.843,69.395406 342.4924,69.540706 342.1404,69.689406 342.2753,69.663206 342.0335,69.762006 341.789,69.861206 341.8723,69.811606 341.6027,69.811606 341.3315,69.811606 341.3315,69.788266 341.0628,69.788266 340.7922,69.788266 340.9013,69.762006 340.8189,69.590166 340.7387,69.419366 340.9546,69.590166 341.1695,69.616426 341.3855,69.641226 341.3593,69.590166 341.6295,69.518686 341.8987,69.445746 341.9532,69.372086 342.2496,69.174386 342.546,68.979386 342.0871,69.053286 341.8986,69.053286 341.7088,69.053286 341.7365,69.102886 341.5203,69.174386 341.3053,69.247326 341.2774,69.223986 341.0897,69.149586 340.9014,69.076646 341.1977,68.979186 341.3053,68.881486 341.4133,68.783746 341.6557,68.881486 341.8173,68.904826 341.8173,68.904826 342.1404,68.856686 342.3855,68.831886 342.6268,68.807086 342.6809,68.757486 343.1924,68.707886 343.4843,68.681626 343.6721,68.684546 343.863,68.688926 H 344.3529 C 344.8126,68.665586 344.7317,68.688926 345.0555,68.713726 345.3802,68.739986 345.2721,68.812926 345.0292,68.837726 344.7859,68.862526 344.8935,68.910666 345.0029,68.984326 345.1094,69.058726 345.2993,68.909926 345.4877,68.909926 345.6761,68.909926 345.7579,68.861786 346.2169,68.739526 346.3146,68.713266 346.413,68.692846 346.5109,68.678256 345.3339,68.327256 344.0869,68.136756 342.7959,68.136756 340.0459,68.136756 337.4959,68.992656 335.3969,70.449756 M 339.0929,69.594856 C 339.2286,69.594856 339.3631,69.621116 339.3352,69.767256 339.3089,69.914856 339.0121,69.767256 338.8494,69.767256 338.6878,69.767256 338.6075,69.840196 338.3913,69.889756 338.1747,69.939356 338.0655,69.840156 338.0146,69.719356 337.9592,69.595356 338.4721,69.595356 338.4721,69.595356 338.4721,69.595356 338.6078,69.646416 338.7958,69.646416 338.9841,69.646416 338.9585,69.595356 339.0928,69.595356 M 340.1978,71.385356 C 340.332,71.286156 340.36,71.189856 340.5494,71.262856 340.7393,71.337256 341.0089,71.533656 340.8725,71.557256 340.7397,71.582056 340.7923,71.533916 340.6302,71.507656 340.4681,71.484316 340.4419,71.507656 340.3328,71.557256 340.2263,71.606856 340.2263,71.631656 340.1449,71.631656 340.1449,71.631656 340.0647,71.484456 340.1974,71.385556 M 350.3974,73.647556 C 350.3799,73.519156 350.466,73.519156 350.466,73.392456 350.466,73.264056 350.4135,73.264056 350.4499,73.181956 350.4849,73.103176 350.3974,73.119226 350.5389,73.055056 350.6775,72.990866 350.6965,72.976286 350.8024,72.976286 350.9074,72.976286 350.8724,73.039016 350.9964,72.990876 351.065,72.963156 351.1233,72.990876 351.1446,73.005466 351.0571,73.033186 351.0294,73.022976 351.0133,73.135266 350.9958,73.265066 351.0833,73.312266 350.9958,73.439866 350.9068,73.568266 350.9418,73.585766 350.7509,73.602566 350.6094,73.617156 350.4966,73.698846 350.4386,73.698846 350.4153,73.698846 350.4021,73.684256 350.3963,73.649246 M 337.2063,78.884246 C 337.2603,78.787966 337.5567,78.738346 337.5567,78.738346 337.5567,78.738346 337.8006,78.738346 337.9905,78.787946 338.1778,78.836086 338.1778,78.884226 338.3677,79.007246 338.5571,79.129746 338.5823,79.056846 338.7191,79.106446 338.8519,79.153126 338.8519,79.227546 338.7191,79.275846 338.582,79.325446 338.582,79.275846 338.3677,79.202906 338.1511,79.129966 338.1511,79.055106 338.0177,78.983606 337.8806,78.909206 337.7728,78.859606 337.4501,78.932546 337.3217,78.961726 337.2483,78.974846 337.2097,78.974846 337.1499,78.974846 337.1732,78.942756 337.2097,78.881486 M 339.0187,79.544986 C 339.0727,79.371986 338.883,79.445786 339.0727,79.371986 339.261,79.300506 339.4756,79.226086 339.6383,79.300506 339.7999,79.371986 340.1514,79.423006 339.9363,79.520306 339.7185,79.619506 339.5863,79.569906 339.4504,79.619506 339.3162,79.669106 339.2883,79.693906 339.0448,79.693906 338.8019,79.693906 338.7221,79.644306 338.7756,79.569906 338.7756,79.569906 338.8515,79.629716 338.92,79.629716 338.9609,79.629716 338.9988,79.609296 339.0177,79.546566 M 340.0707,79.669066 C 339.989,79.644266 340.0444,79.569866 340.0444,79.569866 340.0444,79.569866 340.1509,79.520266 340.2594,79.520266 340.3659,79.520266 340.3119,79.593206 340.2594,79.668466 340.2404,79.691806 340.2142,79.699096 340.1865,79.699096 340.1311,79.699096 340.0713,79.668466 340.0713,79.668466 M 338.1543,79.618866 C 337.9937,79.545926 338.3431,79.519666 338.3431,79.519666 338.4233,79.544466 338.5053,79.592606 338.4233,79.667866 338.3956,79.692666 338.3737,79.702876 338.3504,79.702876 338.3066,79.702876 338.2585,79.666406 338.1543,79.618266 M 340.9703,92.778266 C 340.9849,92.778266 340.9703,92.778266 340.9703,92.778266" transform="matrix(2.618,0,0,2.618,-846,-161.6)" />
  <path inkscape:connector-curvature="0" id="path51" style="fill:#000000" d="M 31.5536,22.49776 C 31.725341,22.45956 31.912528,22.49776 32.221452,22.55504 33.054499,22.745997 33.752196,22.807101 34.304333,22.998529 34.85961,23.185664 34.58315,23.500661 35.759417,23.56297 36.937255,23.6279 37.290162,23.750104 37.633905,23.56297 37.977648,23.375835 38.88112,23.314731 37.843869,23.184931 36.803999,23.0589 36.663674,23.249861 36.384857,22.936692 36.10604,22.623579 35.901051,22.871762 36.041114,22.431418 36.178559,21.99107 36.316004,22.114378 36.178559,21.801003 36.041114,21.487891 36.872591,21.426629 36.041114,21.487891 35.207543,21.548991 35.343417,21.610099 34.928202,21.675025 34.51194,21.739955 33.753505,22.237895 34.099867,21.739955 34.44361,21.234681 34.168717,21.234681 34.860919,20.980997 35.552071,20.732758 35.626423,20.732758 36.317051,20.667884 37.011083,20.602954 37.980005,20.602954 37.355873,20.919945 36.730695,21.236985 36.24558,21.425219 36.663412,21.488574 37.078627,21.549674 36.106826,21.675709 37.424465,21.549674 38.740795,21.423644 38.812267,21.423644 39.365974,21.423644 39.922561,21.423644 39.572272,21.423644 40.129906,21.358714 40.685184,21.297614 41.51509,20.980674 41.098828,21.297614 40.685184,21.610727 40.061053,21.358714 40.129906,21.799747 40.198756,22.239047 39.851089,22.305021 40.47365,22.430161 41.097781,22.556192 41.236273,22.8082 40.74854,22.8082 40.264995,22.8082 40.47365,22.685992 39.848733,22.8082 39.608139,22.85784 39.412312,22.8464 39.254447,22.8067 39.002334,22.7685 38.853108,22.72651 38.809911,23.001479 38.737391,23.437899 38.396267,23.56592 39.157581,23.631893 39.921513,23.689173 39.708408,23.754101 40.403749,23.566963 40.678639,23.494393 40.770269,23.528763 40.807706,23.566963 40.865036,23.635713 40.806506,23.70446 41.098043,23.364539 41.583158,22.7946 41.933185,22.418656 41.861975,22.732554 41.793125,23.045667 41.72453,23.110593 41.583158,23.301183 41.445713,23.488318 41.37686,23.865624 41.793122,23.618223 42.204148,23.366162 42.692928,23.553293 42.692928,22.987809 42.692928,22.420226 42.414111,22.355824 42.761778,22.228851 43.109448,22.10282 43.390883,21.854477 43.040595,21.854477 42.692924,21.854477 42.416987,21.980507 42.070626,21.915577 41.726882,21.854477 41.448065,21.854477 41.656982,21.602464 41.86328,21.350403 41.86328,21.224425 42.482961,21.164734 43.110757,21.099804 42.692924,21.164734 43.110757,21.099804 43.527019,21.038704 43.389574,20.656315 43.527019,21.038704 43.664464,21.416743 43.248202,21.416743 43.664464,21.416743 44.082297,21.416743 44.2166,21.416743 44.565841,21.225786 44.917177,21.038651 44.982103,21.038651 45.256993,20.908746 45.398365,20.843816 45.486068,20.973676 45.589218,21.095881 45.692367,21.225734 45.814627,21.347942 46.02302,21.286838 46.436664,21.160807 47.338042,21.034777 47.894367,21.034777 48.446503,21.034777 48.173184,21.034777 49.007278,21.286838 49.834566,21.538899 50.390891,21.477795 50.735682,21.852326 51.083352,22.2267 51.496735,22.2267 51.496735,22.61076 51.496735,22.9888 50.941719,23.174154 51.569255,23.301912 51.802257,23.347722 51.974783,23.340112 52.113537,23.340112 52.346539,23.340112 52.476392,23.301912 52.60546,23.553976 52.811758,23.935943 53.163355,24.119464 52.811758,24.249055 52.468015,24.371264 52.398114,24.371264 52.049396,24.371264 51.705653,24.371264 50.805585,23.80787 51.082045,24.249055 51.364789,24.689665 51.912999,24.689665 51.845978,24.940207 51.781048,25.196091 51.845978,25.443911 51.428145,25.443911 51.006647,25.443911 50.805585,25.378981 50.594574,25.31788 50.388275,25.25678 50.525724,24.754487 50.388275,25.25678 50.25083,25.759436 50.939364,25.631154 50.25083,25.759436 49.554181,25.885467 49.554181,25.946571 49.276673,25.694506 49.005448,25.442445 49.005448,25.377466 48.721657,25.255205 48.44284,25.125352 48.794177,25.064248 48.100667,25.064248 47.402446,25.064248 47.129127,25.377361 47.055038,25.064248 46.990108,24.751135 47.127558,24.56421 47.681263,24.500855 47.876043,24.462655 47.979192,24.503455 48.055637,24.539055 48.193082,24.584875 48.250417,24.630715 48.650971,24.37865 49.277196,24.004276 49.902375,24.191516 49.623819,23.687498 49.348929,23.184842 49.208605,22.997655 48.722442,22.870944 48.237327,22.744914 48.101452,22.744914 47.545127,22.744914 46.99142,22.744914 46.71208,22.622705 46.71208,22.935871 46.71208,23.248983 46.7846,23.500311 46.574635,23.628593 46.368336,23.750802 46.433263,23.941706 46.086901,24.002967 45.743158,24.067897 45.815677,24.067897 45.394179,24.067897 44.980535,24.067897 44.494372,24.510862 44.701718,24.067897 44.915608,23.628596 44.701718,23.685931 45.122168,23.434603 45.53686,23.186364 45.743158,23.377323 45.814629,22.935874 45.852849,22.729628 45.852849,22.729628 45.814629,22.729628 45.776409,22.729628 45.738189,22.731128 45.661738,22.428034 45.524293,21.860975 45.661738,22.302003 45.524293,21.860975 45.382921,21.421675 46.074335,21.171132 45.382921,21.421675 44.69046,21.673736 44.69046,21.547705 44.346717,21.796049 43.999046,22.04811 43.858983,21.987006 43.999046,22.426463 44.132564,22.867073 44.067636,22.931737 44.41112,22.931737 44.75879,22.931737 45.242596,22.992837 44.828952,23.309776 44.41112,23.626816 44.275245,23.626816 44.345146,23.939144 44.410076,24.252256 44.828952,24.252256 44.203774,24.507511 43.582784,24.759572 43.303967,25.131643 42.40259,25.449206 41.501213,25.766246 41.223705,25.636341 40.532291,26.077002 39.837212,26.520492 39.695578,26.332886 39.49085,26.832819 39.280887,27.340711 39.076159,27.274737 39.353405,27.650944 39.632222,28.03291 39.838521,28.156218 40.254783,28.281358 40.672616,28.411211 40.948815,28.786632 41.571113,28.851297 41.761965,28.889497 41.945487,28.851297 42.105709,28.851297 42.460971,28.851297 42.685072,28.813097 42.5437,29.091891 42.337402,29.466265 41.849668,30.157941 42.128485,30.475504 42.403375,30.788617 42.96258,31.164038 43.304753,30.475504 43.652423,29.778854 43.442198,29.466527 43.92836,29.152629 44.107955,29.038065 44.276031,29.041887 44.435205,29.045684 44.710095,29.045684 44.957758,29.045684 45.17767,28.456895 45.52534,27.515201 45.040225,27.639294 45.52534,27.136638 46.009147,26.632411 46.075382,26.383439 46.355246,26.006186 46.634063,25.624219 46.84298,25.754124 47.670268,25.880155 48.506981,26.006186 49.129541,26.571307 48.920625,27.014796 48.710661,27.455144 48.297017,27.577666 48.710661,27.639975 49.129541,27.704905 49.265677,27.769827 49.750531,27.330527 50.239835,26.884943 50.444562,26.572092 50.654788,26.884943 50.857159,27.205648 51.07105,27.262983 50.994604,27.771398 50.925754,28.271436 50.582531,28.145772 50.857159,28.587952 51.139903,29.025682 51.971642,29.025682 52.180558,29.405554 52.386857,29.779928 52.871448,30.102204 52.386857,30.288082 51.901741,30.479039 52.039186,31.103065 52.039186,31.358844 52.039186,31.610905 52.318003,31.610905 52.594202,31.924855 52.873019,32.241895 53.079318,32.678054 52.735574,32.741409 52.387904,32.806339 52.594202,32.615379 51.90305,32.615379 51.207971,32.615379 50.378065,32.741409 50.445348,32.485526 50.513938,32.237287 50.582793,32.172413 50.996437,31.856421 51.417935,31.539381 51.695705,31.478381 51.695705,31.099033 51.695705,30.728586 51.695705,30.473855 51.28049,30.728586 50.858992,30.973003 50.997746,31.225744 50.445348,31.225744 49.891641,31.225744 49.82174,31.160814 49.197609,31.160814 48.57819,31.160814 48.370321,30.908753 47.88154,31.160814 47.392236,31.412875 46.774126,31.667135 46.701084,31.854846 46.636154,32.045803 47.044828,32.045803 47.392236,31.919776 47.743572,31.793746 48.783965,31.793746 48.433677,32.045807 48.089933,32.297868 47.743834,32.35892 47.881279,32.673603 48.022651,32.990643 48.849939,33.242233 49.130065,32.990643 49.404955,32.738582 50.307641,32.864612 49.962589,33.116674 49.611253,33.368735 49.406002,33.685303 48.849677,33.87249 48.555675,33.975613 48.359325,33.92977 48.16795,33.87249 47.995947,33.83429 47.828133,33.7961 47.603509,33.87249 47.118393,33.998521 46.700561,33.998521 46.423314,33.93742 46.144497,33.87249 46.217016,33.746463 45.803372,33.811389 45.382921,33.872489 45.244167,34.250689 44.625796,34.62899 44.000617,35.00703 43.858983,35.070909 43.376486,35.445545 42.885087,35.823584 42.817281,36.078839 42.40259,36.391166 41.98371,36.708206 42.33766,36.773132 41.98371,36.708206 41.643894,36.643276 41.501474,36.330167 41.433668,36.643276 41.364818,36.960315 41.364818,37.021315 41.433668,37.270025 41.502518,37.525908 41.643632,37.648064 41.502518,37.965104 41.365073,38.278217 41.086256,38.34707 40.602449,38.597089 40.117334,38.845328 40.117334,38.910202 39.492155,39.286932 38.869595,39.668898 38.661202,39.603972 38.523495,40.166842 38.38605,40.73521 38.454645,40.99413 38.454645,41.620355 38.454645,42.248152 38.802315,42.686405 38.385795,42.877519 37.966915,43.064654 37.482846,42.747666 37.482846,41.994991 37.482846,41.243102 37.410326,40.863492 37.410326,40.863492 37.410326,40.863492 36.924163,40.733639 36.510519,40.672535 36.092686,40.611435 35.813869,40.550326 35.328754,40.550326 34.846518,40.550326 34.636293,40.485396 34.636293,40.672535 V 41.181736 C 34.636293,41.181736 34.636293,41.429974 34.29255,41.365048 33.944879,41.307768 33.810314,41.24284 33.457408,41.112987 33.113664,40.994601 33.740152,40.61164 32.629072,40.994601 31.520088,41.365048 31.17137,41.365048 30.966119,41.995724 30.756155,42.626139 30.893599,42.74997 30.618448,43.189532 30.339631,43.634069 29.992223,43.949276 30.130715,44.638857 30.272087,45.335507 30.413459,46.152061 30.824747,46.276154 31.241009,46.406007 31.654653,46.406007 32.285067,46.337254 32.90501,46.276154 33.042455,46.024142 33.324937,45.650291 33.599827,45.268325 33.944879,45.016997 34.498586,45.016997 35.057791,45.016997 35.193927,45.081927 34.78133,45.650291 34.365068,46.212114 33.667371,46.720006 33.876288,47.220044 34.086251,47.725318 34.293597,47.537084 34.916157,47.475927 35.540288,47.407177 36.029069,47.537027 36.095043,47.78904 36.167563,48.037279 36.442713,48.415266 36.232488,48.664761 36.026189,48.916822 36.305008,49.801758 36.305008,49.801758 36.305008,49.801758 36.305008,49.931611 36.511307,50.36777 36.717605,50.80707 36.790124,50.932211 37.065014,50.868855 37.343831,50.807755 37.482323,50.245248 37.829993,50.245248 38.177664,50.245248 38.036292,50.245248 38.385271,50.489664 38.729014,50.741725 39.007831,50.741725 39.007831,50.741725 39.007831,50.741725 39.007831,50.779925 38.969611,50.799005 39.404984,50.008107 40.424695,49.87904 40.424695,49.87904 40.424695,49.87904 40.779958,49.558335 41.271094,49.304912 41.769562,49.049029 41.271094,49.427121 41.484985,49.815422 41.698876,50.200792 41.484985,49.815422 42.121944,49.559539 42.759427,49.307478 42.121944,49.559539 42.82383,49.628289 43.532785,49.689389 42.82383,49.628289 43.251088,50.074396 43.533832,50.372324 43.533832,50.330279 43.749555,50.28826 43.860296,50.25006 44.024445,50.24624 44.30876,50.25006 45.157254,50.31116 45.36905,50.383735 46.361795,50.766068 47.348258,51.148034 46.713131,50.892098 47.628122,51.787349 48.346501,52.494733 48.286811,52.489235 48.53107,52.486617 48.59992,52.485517 48.691554,52.484017 48.832664,52.486617 49.468576,52.551547 50.456086,52.933772 50.880463,53.387995 51.306412,53.829913 51.163207,53.960551 51.306412,54.406658 51.443857,54.858002 51.800952,54.858002 52.365393,55.374009 52.929834,55.888708 53.071468,55.557322 53.781469,55.952326 54.484664,56.334554 54.271821,56.143283 55.26221,56.39948 56.252599,56.655363 55.828222,56.590437 56.676715,57.040628 57.523115,57.491971 57.31158,57.422594 58.227619,57.744085 59.149155,58.06479 58.437582,58.321877 58.368991,59.030832 58.296471,59.735336 57.028051,60.825471 56.675145,61.532854 56.323809,62.237358 56.602625,62.555183 56.602625,63.136118 56.602625,63.715481 56.602625,63.778837 56.319881,64.418676 56.033472,65.064013 55.964618,65.064013 55.754393,65.383409 55.540502,65.704114 55.118219,66.215933 54.692794,66.215933 54.269725,66.215933 54.124164,66.215933 53.349236,66.797914 52.574832,67.372042 52.644471,67.623893 52.712277,68.201948 52.784797,68.778693 52.712277,68.461653 52.643427,68.719526 52.574577,68.971587 52.643427,68.719526 52.288164,69.040231 51.932901,69.357271 52.288164,69.296115 52.219314,69.548123 52.150464,69.807829 52.00935,69.932446 51.932904,70.126439 51.864054,70.321219 51.585234,70.573594 51.441244,70.771515 51.303799,70.958649 50.945133,71.540945 50.38331,71.664776 49.82044,71.798451 49.392921,71.603676 49.25024,71.928409 49.112795,72.249114 49.25024,71.928409 49.46413,72.249114 49.678021,72.573746 49.53298,72.440071 49.605502,72.953618 49.678022,73.468055 49.605502,73.209501 49.040014,73.724357 48.47793,74.237747 48.47793,73.724357 48.049625,73.724357 47.624985,73.724357 47.701955,73.98024 47.701955,74.174129 47.701955,74.365086 47.701955,74.433835 47.488064,74.494834 47.2781,74.559764 47.20532,74.559764 46.996404,74.881775 46.881735,75.049824 46.889327,75.042179 46.950584,75.030713 47.003994,75.030713 47.10714,75.030713 47.206362,75.137658 47.416326,75.397364 47.416326,75.259866 47.416326,75.652095 47.416326,76.034847 47.347476,75.911801 47.274954,76.292196 47.202434,76.680184 47.274954,76.292196 46.849005,76.746419 46.612338,76.99848 46.642707,76.964106 46.71156,76.937376 46.76889,76.899176 46.849005,76.891536 46.849005,76.998476 46.849005,77.254359 46.921525,77.193255 47.135414,77.508986 47.345378,77.829691 47.48675,77.768692 47.557174,78.023423 47.626024,78.279306 47.557174,78.023423 47.484654,78.666142 47.442504,79.044181 47.446434,78.979255 47.434914,78.910558 47.434914,78.864718 47.396694,78.818898 47.343284,78.910558 47.201912,79.166442 47.13332,79.101515 47.13332,79.360854 47.13332,79.616738 47.13332,79.360854 47.274692,79.808009 47.354802,80.071641 47.343542,80.025696 47.236472,79.983677 47.167622,79.945477 47.056877,79.922577 46.91184,79.983677 46.56417,80.178456 46.91184,80.243382 46.91184,80.243382 L 47.194584,80.369413 C 47.477328,80.499266 47.194584,80.369413 47.477328,80.243382 47.763737,80.113529 47.691219,80.499266 47.973439,80.626134 48.252256,80.755987 48.183403,80.817091 48.397817,80.946839 48.607781,81.076692 48.607781,81.076692 48.822195,81.202722 49.032158,81.328753 48.95964,81.393679 48.753345,81.458605 48.539455,81.519705 48.539455,81.458605 47.835475,81.458605 H 47.338578 C 46.842467,81.458605 47.197206,81.393675 47.197206,81.393675 47.197206,81.393675 46.914462,81.267645 46.352378,81.011709 46.096599,80.893323 46.073561,80.881856 46.081153,80.885678 46.042933,80.885678 46.012303,80.847478 45.928262,80.813108 45.502313,80.622151 45.714371,80.687078 45.569334,80.363336 45.496814,80.195287 45.496814,80.202931 45.512004,80.214398 45.512004,80.214398 45.550224,80.214398 45.512004,80.111275 45.439484,79.855392 45.366966,79.916496 45.366966,79.916496 L 44.944159,79.668257 C 44.944159,79.668257 44.802787,79.599507 44.447001,79.214034 44.263741,79.01161 44.271333,79.023077 44.301964,79.030722 44.340184,79.030722 44.374484,79.030722 44.301964,78.893224 44.160592,78.572519 44.233114,78.698445 43.950628,78.123009 43.782553,77.775338 43.816849,77.844192 43.855068,77.916789 43.893288,77.962629 43.904808,78.008449 43.893288,77.916789 43.824438,77.725832 44.107179,77.660905 44.107179,77.40209 44.107179,77.256974 44.107179,77.279882 44.042249,77.298967 43.992509,77.298967 43.90847,77.337167 43.759505,77.260767 43.40817,77.130915 43.759505,77.260767 43.690655,77.062166 43.614205,76.875031 43.407911,76.108167 43.407911,76.108167 43.407911,76.108167 43.335391,75.909565 43.190093,75.464139 43.048721,75.011225 43.190093,75.464139 43.407911,75.464139 43.617875,75.464139 43.690655,76.038266 43.759247,75.7162 43.824177,75.39916 43.690397,75.39916 43.472837,75.011696 43.262874,74.629468 43.262874,74.824561 43.190093,74.307192 43.121243,73.796682 43.048721,73.796682 42.911276,72.962849 42.773831,72.126136 43.048721,71.930572 43.12124,71.228686 43.19009,70.520255 42.77357,70.202168 42.77357,69.242671 42.77357,68.279509 42.77357,68.087086 42.8385,67.25142 42.91102,66.416278 42.697128,65.009627 42.628536,64.363766 42.556016,63.724189 42.065143,63.594598 41.005115,63.017853 39.946134,62.438489 39.872044,62.376704 39.521756,61.926408 39.162828,61.477945 38.247313,59.490621 37.752773,58.653908 37.255615,57.818766 36.694839,57.366114 36.907945,56.858222 37.117908,56.344832 37.186762,56.087483 37.117908,55.638758 37.049058,55.187415 37.049058,55.126939 37.612187,54.865401 38.17558,54.605695 38.10568,54.420864 38.525607,53.520796 38.955744,52.626225 38.602047,52.495849 38.796832,51.22769 38.659387,51.668299 38.590533,51.858104 38.590533,51.858104 38.590533,51.858104 38.384235,51.541064 38.104371,51.292616 37.829481,51.040555 37.547784,50.723986 37.40903,51.040555 37.27525,51.353668 37.48155,51.668351 37.202731,51.54164 36.919987,51.419432 37.133881,51.419432 36.713427,51.167266 36.299783,50.915205 36.438537,50.976309 36.161291,50.660945 35.882474,50.343905 36.646406,50.343905 35.882474,50.343905 35.115924,50.343905 35.052568,50.534862 34.981097,50.095666 34.908577,49.655057 35.114876,49.337232 34.774798,49.215757 34.629761,49.162297 34.545723,49.177557 34.465351,49.215757 34.354609,49.253957 34.255387,49.276857 34.011389,49.093548 33.595127,48.776508 33.870017,48.906414 33.180436,48.588274 32.485095,48.275161 32.415195,48.40114 31.721163,47.833505 31.028702,47.270111 30.678152,47.141044 30.473424,47.270111 30.267126,47.399964 29.01834,47.712291 27.909617,46.827146 26.801941,45.943309 26.590407,46.133114 26.590407,45.62784 26.590407,45.129373 27.212967,45.379601 26.727852,44.559172 26.242736,43.740262 25.687982,42.985754 25.27172,42.291722 24.853887,41.60057 24.506479,41.541142 24.506479,40.969894 24.506479,40.404406 24.647851,40.218266 24.30018,40.087628 23.95251,39.961598 23.676573,39.459832 23.606148,39.961598 23.541218,40.468443 23.464776,40.590965 23.674998,40.967957 23.881296,41.349923 23.881296,41.539205 24.088642,41.91384 24.298605,42.288214 24.161162,42.417544 24.367459,42.733013 24.573757,43.050052 24.990019,43.295883 24.849694,43.681252 24.712249,44.055626 24.643396,43.994365 24.435003,43.738532 24.228705,43.486471 24.087333,43.551397 23.951197,43.237185 23.809825,42.924072 24.230014,43.237185 24.088642,42.924072 23.951197,42.607032 24.230014,42.672011 23.813752,42.419845 23.638084,42.3129 23.573158,42.343455 23.542527,42.374005 23.500637,42.416025 23.504307,42.458015 23.401155,42.167759 23.191191,41.662485 23.470005,41.915698 23.470005,41.539963 23.470005,41.161924 23.33256,41.22685 23.126262,40.913737 22.916298,40.593032 23.053742,40.403227 22.98489,39.834336 22.91604,39.27356 22.91604,39.33168 22.434848,38.831904 21.948686,38.32663 21.740816,37.634169 21.875643,35.68245 22.017015,33.730469 23.0561,33.227813 23.40377,32.847156 23.747513,32.472782 23.958786,32.092386 23.548807,31.715132 23.128618,31.333166 22.846921,31.333166 22.918393,31.083409 22.987243,30.831348 23.612425,30.831348 23.81977,31.148339 24.029734,31.461452 23.961142,31.968821 24.306195,31.968821 24.653865,31.968821 24.998656,31.655708 24.653865,31.335526 24.306195,31.022414 23.891242,30.965079 23.750917,30.457187 23.705097,30.28152 23.647768,30.166851 23.601953,30.067629 19.381737,35.738217 16.878929,42.767547 16.878929,50.378073 16.878929,69.172695 32.115689,84.412073 50.912929,84.412073 64.036963,84.412073 75.414791,76.982189 81.098469,66.104399 V 65.657245 C 81.098469,64.901428 80.477479,65.279205 80.266992,63.641385 80.06462,62.001731 80.614662,61.315815 81.032233,60.806091 81.450066,60.303435 80.894788,59.986918 80.753416,59.485833 80.615971,58.984748 80.405746,58.728446 80.405746,57.913462 80.405746,57.091672 79.018206,56.587969 78.740698,56.023005 78.457954,55.455946 78.671848,55.455946 78.88207,54.636774 79.092033,53.816292 79.505677,53.571248 78.88207,53.126711 78.523142,52.87465 78.229664,52.931932 77.928071,52.993036 77.706588,53.038876 77.480916,53.080866 77.218069,52.993036 76.592891,52.805901 76.730336,51.925939 75.760367,51.985106 74.790398,52.046206 74.930461,52.422836 74.236429,52.738305 73.826974,52.925439 73.418827,52.826135 72.979527,52.738305 72.674006,52.669555 72.356967,52.600807 72.014794,52.627563 71.188815,52.688663 71.461087,52.879624 70.770982,52.879624 70.075903,52.879624 69.866987,52.434564 69.520887,51.806768 69.173217,51.178972 68.203248,50.797791 67.92574,50.35692 67.646923,49.920499 66.811257,48.656529 66.751043,48.157014 66.678523,47.650169 66.812043,47.275534 67.09086,46.263938 67.369677,45.261506 66.949488,45.762853 66.751043,45.446337 66.537153,45.133224 66.812043,44.63083 67.163116,44.063771 67.510787,43.495142 67.784106,42.991438 68.410855,42.236669 69.030798,41.48347 68.891782,41.730348 69.661212,41.420638 70.420956,41.107526 70.001028,40.283379 70.212039,39.780723 70.422003,39.280685 70.422003,39.46761 70.977281,39.147429 71.530988,38.837981 71.530988,38.585606 72.086265,38.147877 72.638402,37.707267 72.711444,38.147877 73.403905,38.205157 74.098984,38.270087 74.026465,38.147877 74.654262,37.892045 75.272633,37.639984 75.62554,37.575005 76.388163,37.323677 76.86621,37.167094 77.207335,37.182357 77.673339,37.201469 77.944564,37.201469 78.26108,37.239669 78.673153,37.201469 79.787636,37.144189 79.228169,37.646005 79.159578,38.338466 79.090728,39.032498 79.018206,38.906048 79.361949,39.217329 79.713285,39.534368 80.683777,39.534368 81.238532,39.599295 81.790668,39.664225 81.652176,39.786429 82.207192,40.099333 82.765087,40.416373 82.833941,40.482084 83.390266,40.666392 83.455196,40.704592 83.508599,40.704592 83.546822,40.704592 83.082127,39.132221 82.508,37.610116 81.826273,36.1388 81.826273,36.2381 81.864493,36.356487 81.864493,36.513174 81.864493,36.891213 81.516823,36.956663 81.097943,37.204326 80.683252,37.456387 80.7542,37.204326 80.33244,36.956087 79.920367,36.704026 80.40496,36.704026 81.031708,36.704026 81.65165,36.704026 81.44954,36.448143 81.516823,36.072303 81.585673,35.694264 81.306859,35.635882 80.893215,35.444507 80.479571,35.25355 80.406529,35.25355 79.71145,34.941851 79.018989,34.628738 79.297806,34.498361 78.811382,34.183416 78.327837,33.870303 78.39512,33.805377 77.837486,34.057385 77.287444,34.309446 77.427769,34.248342 76.730072,34.309446 76.037611,34.378196 76.386328,34.309446 76.037611,34.56533 75.686275,34.821213 75.827647,34.878443 75.551186,35.256482 75.272369,35.639233 75.132306,35.447439 74.653998,35.889776 74.164694,36.327506 74.653998,35.889776 74.577548,36.580666 74.512618,37.276007 74.375177,36.832727 73.678789,37.276007 73.250222,37.550897 73.112777,37.505161 72.990255,37.466964 72.913805,37.428764 72.841291,37.413504 72.711438,37.463064 72.363767,37.585272 72.292034,37.718947 71.87839,37.531814 71.461081,37.337034 71.599573,37.279753 71.320756,37.211109 71.049531,37.153829 70.835641,36.96287 70.696625,36.519957 70.55918,36.079609 70.769145,36.079609 70.975442,35.578262 71.185406,35.074559 70.906592,35.074559 70.906592,34.760661 70.906592,34.443621 71.047964,34.314553 71.250335,34.314553 71.460299,34.314553 72.218995,34.383303 72.636566,34.383303 H 73.678006 C 73.678006,34.383303 74.096886,34.192346 74.096886,33.730897 74.096886,33.270391 74.329888,33.059904 73.863884,32.808314 73.400498,32.556253 73.400498,32.644087 73.12299,32.430275 72.8481,32.220233 72.660913,32.094124 73.07717,31.92919 73.495003,31.76114 73.723816,31.799337 74.095834,31.593039 74.458689,31.379174 74.970508,31.214999 74.692738,31.13358 74.413921,31.04575 74.413921,31.04575 74.095834,31.04575 73.767275,31.04575 73.817017,31.04575 73.400755,31.17178 72.982922,31.301633 72.798353,31.802195 72.798353,31.301633 72.798353,30.796359 72.756463,31.091591 72.848093,30.629593 72.939723,30.165945 72.523461,30.49974 72.939723,30.165945 73.357556,29.833721 73.58794,29.955903 73.450233,29.66486 73.308861,29.370858 73.725123,29.66486 73.308861,29.370858 72.889981,29.07293 73.217231,28.949098 72.889981,29.07293 72.851761,29.07293 72.825051,29.11113 72.798351,29.11113 72.798351,29.07293 72.760131,29.04238 72.706721,28.950725 72.477646,28.572686 72.287318,28.736861 72.382089,28.360628 72.477649,27.986254 71.967398,28.070292 72.660906,27.814775 73.354938,27.562714 73.495001,27.398513 73.67669,27.608529 73.863877,27.814775 74.140338,27.906458 73.955507,28.155429 73.764655,28.403668 73.626948,28.61803 73.814135,28.865693 73.997395,29.117754 74.138767,29.201844 74.37334,29.412593 74.602415,29.622635 74.32752,29.748744 74.69038,29.87467 75.064754,30.000701 75.385459,30.084712 75.293829,30.332558 75.202199,30.588442 74.87652,31.046749 75.248009,30.881029 75.618456,30.71298 75.660606,30.499063 76.12373,30.166839 76.585807,29.834615 76.767758,29.872837 77.280886,29.665754 77.525407,29.566454 77.69453,29.558808 77.790349,29.535901 75.156641,26.148209 71.894613,23.268409 68.177053,21.077143 68.123643,21.164973 68.043273,21.275744 67.776761,21.665931 67.217556,22.498455 67.566797,21.921814 66.933503,22.567308 66.294973,23.205839 66.574575,22.95006 65.167138,23.077818 63.75368,23.207671 63.964167,23.46057 63.189239,23.84594 62.410646,24.236545 62.128949,24.236545 60.712873,24.616679 59.300986,25.002048 59.649965,25.578794 59.089451,26.22256 58.52501,26.866588 58.666382,26.73307 57.604522,26.413517 56.547111,26.096477 56.335315,25.261597 56.335315,23.97773 56.335315,23.093893 56.60654,23.093893 57.003691,23.095202 57.183285,23.095202 57.386442,23.095202 57.604522,23.014982 58.312167,22.759099 57.535672,22.567828 57.325705,22.248432 57.111814,21.9238 56.902636,21.9238 57.111814,21.474028 57.325705,21.02635 57.111814,21.153323 56.692934,20.578148 56.395006,20.175238 56.063829,20.211628 55.219,20.245924 54.85248,20.245924 54.393021,20.284124 53.797426,20.245924 51.816909,20.177174 53.162823,20.051145 53.301577,19.540111 53.397137,19.188775 53.98854,19.226998 54.641993,19.268886 54.947513,19.268886 55.268218,19.307086 55.55934,19.268886 56.478258,19.203956 55.982409,18.951846 55.417968,18.689523 54.855098,18.437462 54.501668,18.689523 53.650556,18.888124 52.804157,19.075259 52.455439,19.270091 51.885239,19.398634 51.323416,19.528487 51.039363,19.65834 50.121492,20.038735 49.199956,20.428032 49.553124,20.35944 48.920092,20.618099 48.279991,20.877804 48.49807,20.747952 47.792258,20.747952 47.082256,20.747952 47.082256,20.686852 46.378799,20.686852 45.670369,20.686852 45.955992,20.618102 45.740269,20.168227 45.530306,19.721072 46.095532,20.168227 46.65814,20.236977 47.223628,20.301907 47.155036,20.168227 47.86242,19.981094 48.567186,19.790137 48.709867,19.597295 49.485842,19.079717 50.261817,18.569207 49.060417,18.762677 48.566924,18.762677 48.070027,18.762677 48.142546,18.89253 47.576534,19.079717 47.013664,19.270673 46.940622,19.209569 46.449224,19.014787 45.956254,18.82383 46.731968,18.56868 47.013664,18.312901 47.296408,18.057018 47.931012,18.312901 48.35408,18.374001 48.35408,18.374001 49.199956,18.247971 49.841628,18.183045 50.473351,18.118115 50.614985,17.988265 51.954092,17.858413 52.718286,17.789663 53.209947,17.797303 53.709723,17.808773 H 54.992281 C 56.195776,17.747673 55.98398,17.808773 56.831688,17.873703 57.681753,17.942453 57.398747,18.133408 56.762838,18.198335 56.125878,18.263265 56.407575,18.389292 56.693988,18.582133 56.972805,18.776913 57.469963,18.387354 57.963195,18.387354 58.456426,18.387354 58.670578,18.261324 59.87224,17.941247 60.128019,17.872497 60.38563,17.819039 60.641932,17.780842 57.560546,16.861924 54.2959,16.363195 50.916062,16.363195 43.716562,16.363195 37.040662,18.603941 31.54548,22.418629 M 41.221608,20.180501 C 41.576871,20.180501 41.928992,20.249251 41.85595,20.631844 41.7871,21.018261 41.010074,20.631844 40.584125,20.631844 40.161056,20.631844 39.950831,20.822801 39.384819,20.952549 38.817761,21.082402 38.531875,20.822696 38.398619,20.506442 38.253582,20.18181 39.596354,20.18181 39.596354,20.18181 39.596354,20.18181 39.951616,20.315485 40.4438,20.315485 40.93677,20.315485 40.869749,20.18181 41.221346,20.18181 M 44.114236,24.86803 C 44.465572,24.608324 44.538876,24.356211 45.034725,24.547325 45.531883,24.742104 46.237696,25.256279 45.880601,25.318064 45.532931,25.382994 45.670637,25.256964 45.24626,25.188211 44.821882,25.127111 44.75329,25.188211 44.467666,25.318064 44.188849,25.447917 44.188849,25.512843 43.975744,25.512843 43.975744,25.512843 43.765781,25.127474 44.113189,24.868554 M 70.816789,30.79047 C 70.770969,30.454318 70.996384,30.454318 70.996384,30.122618 70.996384,29.786467 70.858939,29.786467 70.954234,29.571529 71.045864,29.365283 70.816789,29.407302 71.187236,29.239305 71.550091,29.071255 71.599833,29.033085 71.877079,29.033085 72.151969,29.033085 72.060339,29.197312 72.384971,29.071285 72.564566,28.998715 72.717195,29.071285 72.772959,29.109485 72.543884,29.182055 72.471365,29.155325 72.429215,29.449301 72.383395,29.789118 72.612475,29.912687 72.383395,30.246744 72.150393,30.582895 72.242023,30.62871 71.742247,30.672693 71.3718,30.710893 71.07649,30.924754 70.924646,30.924754 70.863646,30.924754 70.829086,30.886554 70.813904,30.794901 M 36.282484,44.500131 C 36.423856,44.24807 37.199832,44.118165 37.199832,44.118165 37.199832,44.118165 37.838362,44.118165 38.33552,44.248018 38.825871,44.374048 38.825871,44.500079 39.32303,44.822145 39.818879,45.14285 39.884852,44.951998 40.242995,45.081851 40.590665,45.204059 40.590665,45.39889 40.242995,45.52534 39.884067,45.655193 39.884067,45.52534 39.32303,45.334383 38.755971,45.143426 38.755971,44.947443 38.40673,44.760256 38.047802,44.565476 37.765581,44.435624 36.920753,44.62658 36.584602,44.70297 36.39244,44.737322 36.291386,44.737322 36.134829,44.737322 36.195826,44.653312 36.291386,44.492905 M 41.027348,46.229948 C 41.16872,45.777034 40.672085,45.970243 41.16872,45.777034 41.661689,45.5899 42.223512,45.395068 42.64946,45.5899 43.072529,45.777034 43.992756,45.910605 43.429624,46.165336 42.859424,46.425042 42.513324,46.295189 42.157538,46.425042 41.806203,46.554895 41.73316,46.619821 41.095677,46.619821 40.459765,46.619821 40.250849,46.489968 40.390912,46.295189 40.390912,46.295189 40.589618,46.451771 40.768951,46.451771 40.876027,46.451771 40.975249,46.398311 41.02473,46.234085 M 43.781484,46.55479 C 43.567593,46.48986 43.712634,46.295084 43.712634,46.295084 43.712634,46.295084 43.991451,46.165231 44.275504,46.165231 44.554321,46.165231 44.412949,46.356188 44.275504,46.553219 44.225764,46.614319 44.157171,46.633409 44.084652,46.633409 43.939615,46.633409 43.783058,46.553219 43.783058,46.553219 M 38.764352,46.423366 C 38.343902,46.232409 39.258631,46.163661 39.258631,46.163661 39.468594,46.228591 39.68327,46.354618 39.468594,46.551648 39.396074,46.616578 39.338742,46.643308 39.277742,46.643308 39.163074,46.643308 39.037148,46.547828 38.764352,46.421799 M 46.13664,80.874679 C 46.17486,80.874679 46.13664,80.874679 46.13664,80.874679" />
  <path inkscape:connector-curvature="0" id="path55" style="fill:url(#radialGradient7443-7)" d="M 31.2918,22.10506 C 31.463541,22.06686 31.650728,22.10506 31.959652,22.16234 32.792699,22.353297 33.490396,22.414401 34.042533,22.605829 34.59781,22.792964 34.32135,23.107961 35.497617,23.17027 36.675455,23.2352 37.028362,23.357404 37.372105,23.17027 37.715848,22.983135 38.61932,22.922031 37.582069,22.792231 36.542199,22.6662 36.401874,22.857161 36.123057,22.543992 35.84424,22.230879 35.639251,22.479062 35.779314,22.038718 35.916759,21.59837 36.054204,21.721678 35.916759,21.408303 35.779314,21.095191 36.610791,21.033929 35.779314,21.095191 34.945743,21.156291 35.081617,21.217399 34.666402,21.282325 34.25014,21.347255 33.491705,21.845195 33.838067,21.347255 34.18181,20.841981 33.906917,20.841981 34.599119,20.588297 35.290271,20.340058 35.364623,20.340058 36.055251,20.275184 36.749283,20.210254 37.718205,20.210254 37.094073,20.527245 36.468895,20.844285 35.98378,21.032519 36.401612,21.095874 36.816827,21.156974 35.845026,21.283009 37.162665,21.156974 38.478995,21.030944 38.550467,21.030944 39.104174,21.030944 39.660761,21.030944 39.310472,21.030944 39.868106,20.966014 40.423384,20.904904 41.25329,20.587974 40.837028,20.904904 40.423384,21.218017 39.799253,20.966014 39.868106,21.407037 39.936956,21.846337 39.589289,21.912311 40.21185,22.037451 40.835981,22.163482 40.974473,22.41549 40.48674,22.41549 40.003195,22.41549 40.21185,22.293282 39.586933,22.41549 39.346339,22.46513 39.150512,22.45369 38.992647,22.41399 38.740534,22.37579 38.591308,22.3338 38.548111,22.608769 38.475591,23.045189 38.134467,23.17321 38.895781,23.239183 39.659713,23.296463 39.446608,23.361391 40.141949,23.174253 40.416839,23.101683 40.508469,23.136053 40.545906,23.174253 40.603236,23.243003 40.544706,23.31175 40.836243,22.971829 41.321358,22.40189 41.671385,22.025946 41.600175,22.339844 41.531325,22.652957 41.46273,22.717883 41.321358,22.908473 41.183913,23.095608 41.11506,23.472914 41.531322,23.225513 41.942348,22.973452 42.431128,23.160583 42.431128,22.595099 42.431128,22.027516 42.152311,21.963114 42.499978,21.836141 42.847648,21.71011 43.129083,21.461767 42.778795,21.461767 42.431124,21.461767 42.155187,21.587797 41.808826,21.522867 41.465082,21.461767 41.186265,21.461767 41.395182,21.209754 41.60148,20.957693 41.60148,20.831715 42.221161,20.772024 42.848957,20.707094 42.431124,20.772024 42.848957,20.707094 43.265219,20.645994 43.127774,20.263605 43.265219,20.645994 43.402664,21.024033 42.986402,21.024033 43.402664,21.024033 43.820497,21.024033 43.9548,21.024033 44.304041,20.833076 44.655377,20.645941 44.720303,20.645941 44.995193,20.516036 45.136565,20.451106 45.224268,20.580966 45.327418,20.703171 45.430567,20.833024 45.552827,20.955232 45.76122,20.894128 46.174864,20.768097 47.076242,20.642067 47.632567,20.642067 48.184703,20.642067 47.911384,20.642067 48.745478,20.894128 49.572766,21.146189 50.129091,21.085085 50.473882,21.459616 50.821552,21.83399 51.234935,21.83399 51.234935,22.21805 51.234935,22.59609 50.679919,22.781444 51.307455,22.909202 51.540457,22.955022 51.712983,22.947402 51.851737,22.947402 52.084739,22.947402 52.214592,22.909202 52.34366,23.161266 52.549958,23.543233 52.901555,23.726754 52.549958,23.856345 52.206215,23.978554 52.136314,23.978554 51.787596,23.978554 51.443853,23.978554 50.543785,23.41516 50.820245,23.856345 51.102989,24.296955 51.651199,24.296955 51.584178,24.547497 51.519248,24.803381 51.584178,25.051201 51.166345,25.051201 50.744847,25.051201 50.543785,24.986271 50.332774,24.92517 50.126475,24.86407 50.263924,24.361777 50.126475,24.86407 49.98903,25.366726 50.677564,25.238444 49.98903,25.366726 49.292381,25.492757 49.292381,25.553861 49.014873,25.301796 48.743648,25.049735 48.743648,24.984756 48.459857,24.862495 48.18104,24.732642 48.532377,24.671538 47.838867,24.671538 47.140646,24.671538 46.867327,24.984651 46.793238,24.671538 46.728308,24.358425 46.865758,24.1715 47.419463,24.108145 47.614243,24.069945 47.717392,24.110745 47.793837,24.146345 47.931282,24.192165 47.988617,24.238005 48.389171,23.98594 49.015396,23.611566 49.640575,23.798806 49.362019,23.294788 49.087129,22.792132 48.946805,22.604945 48.460642,22.478234 47.975527,22.352204 47.839652,22.352204 47.283327,22.352204 46.72962,22.352204 46.45028,22.229995 46.45028,22.543161 46.45028,22.856273 46.5228,23.107601 46.312835,23.235883 46.106536,23.358092 46.171463,23.548996 45.825101,23.610257 45.481358,23.675187 45.553877,23.675187 45.132379,23.675187 44.718735,23.675187 44.232572,24.118152 44.439918,23.675187 44.653808,23.235886 44.439918,23.293221 44.860368,23.041893 45.27506,22.793654 45.481358,22.984613 45.552829,22.543164 45.591049,22.336918 45.591049,22.336918 45.552829,22.336918 45.514609,22.336918 45.476389,22.338418 45.399938,22.035324 45.262493,21.468265 45.399938,21.909293 45.262493,21.468265 45.121121,21.028965 45.812535,20.778422 45.121121,21.028965 44.42866,21.281026 44.42866,21.154995 44.084917,21.403339 43.737246,21.6554 43.597183,21.594296 43.737246,22.033753 43.870764,22.474363 43.805836,22.539027 44.14932,22.539027 44.49699,22.539027 44.980796,22.600127 44.567152,22.917066 44.14932,23.234106 44.013445,23.234106 44.083346,23.546434 44.148276,23.859546 44.567152,23.859546 43.941974,24.114801 43.320984,24.366862 43.042167,24.738933 42.14079,25.056496 41.239413,25.373536 40.961905,25.243631 40.270491,25.684292 39.575412,26.127782 39.433778,25.940176 39.22905,26.440109 39.019087,26.948001 38.814359,26.882027 39.091605,27.258234 39.370422,27.6402 39.576721,27.763508 39.992983,27.888648 40.410816,28.018501 40.687015,28.393922 41.309313,28.458587 41.500165,28.496787 41.683687,28.458587 41.843909,28.458587 42.199171,28.458587 42.423272,28.420387 42.2819,28.699181 42.075602,29.073555 41.587868,29.765231 41.866685,30.082794 42.141575,30.395907 42.70078,30.771328 43.042953,30.082794 43.390623,29.386144 43.180398,29.073817 43.66656,28.759919 43.846155,28.645355 44.014231,28.649177 44.173405,28.652974 44.448295,28.652974 44.695958,28.652974 44.91587,28.064185 45.26354,27.122491 44.778425,27.246584 45.26354,26.743928 45.747347,26.239701 45.813582,25.990729 46.093446,25.613476 46.372263,25.231509 46.58118,25.361414 47.408468,25.487445 48.245181,25.613476 48.867741,26.178597 48.658825,26.622086 48.448861,27.062434 48.035217,27.184956 48.448861,27.247265 48.867741,27.312195 49.003877,27.377117 49.488731,26.937817 49.978035,26.492233 50.182762,26.179382 50.392988,26.492233 50.595359,26.812938 50.80925,26.870273 50.732804,27.378688 50.663954,27.878726 50.320731,27.753062 50.595359,28.195242 50.878103,28.632972 51.709842,28.632972 51.918758,29.012844 52.125057,29.387218 52.609648,29.709494 52.125057,29.895372 51.639941,30.086329 51.777386,30.710355 51.777386,30.966134 51.777386,31.218195 52.056203,31.218195 52.332402,31.532145 52.611219,31.849185 52.817518,32.285344 52.473774,32.348699 52.126104,32.413629 52.332402,32.222669 51.64125,32.222669 50.946171,32.222669 50.116265,32.348699 50.183548,32.092816 50.252138,31.844577 50.320993,31.779703 50.734637,31.463711 51.156135,31.146671 51.433905,31.085671 51.433905,30.706323 51.433905,30.335876 51.433905,30.081145 51.01869,30.335876 50.597192,30.580293 50.735946,30.833034 50.183548,30.833034 49.629841,30.833034 49.55994,30.768104 48.935809,30.768104 48.31639,30.768104 48.108521,30.516043 47.61974,30.768104 47.130436,31.020165 46.512326,31.274425 46.439284,31.462136 46.374354,31.653093 46.783028,31.653093 47.130436,31.527066 47.481772,31.401036 48.522165,31.401036 48.171877,31.653097 47.828133,31.905158 47.482034,31.96621 47.619479,32.280893 47.760851,32.597933 48.588139,32.849523 48.868265,32.597933 49.143155,32.345872 50.045841,32.471902 49.700789,32.723964 49.349453,32.976025 49.144202,33.292593 48.587877,33.47978 48.293875,33.582903 48.097525,33.53706 47.90615,33.47978 47.734147,33.44158 47.566333,33.40339 47.341709,33.47978 46.856593,33.605811 46.438761,33.605811 46.161514,33.54471 45.882697,33.47978 45.955216,33.353753 45.541572,33.418679 45.121121,33.479779 44.982367,33.857979 44.363996,34.23628 43.738817,34.61432 43.597183,34.678199 43.114686,35.052835 42.623287,35.430874 42.555481,35.686129 42.14079,35.998456 41.72191,36.315496 42.07586,36.380422 41.72191,36.315496 41.382094,36.250566 41.239674,35.937457 41.171868,36.250566 41.103018,36.567605 41.103018,36.628605 41.171868,36.877315 41.240718,37.133198 41.381832,37.255354 41.240718,37.572394 41.103273,37.885507 40.824456,37.95436 40.340649,38.204379 39.855534,38.452618 39.855534,38.517492 39.230355,38.894222 38.607795,39.276188 38.399402,39.211262 38.261695,39.774132 38.12425,40.3425 38.192845,40.60142 38.192845,41.227645 38.192845,41.855442 38.540515,42.293695 38.123995,42.484809 37.705115,42.671944 37.221046,42.354956 37.221046,41.602281 37.221046,40.850392 37.148526,40.470782 37.148526,40.470782 37.148526,40.470782 36.662363,40.340929 36.248719,40.279825 35.830886,40.218725 35.552069,40.157616 35.066954,40.157616 34.584718,40.157616 34.374493,40.092686 34.374493,40.279825 V 40.789026 C 34.374493,40.789026 34.374493,41.037264 34.03075,40.972338 33.683079,40.915058 33.548514,40.85013 33.195608,40.720277 32.851864,40.601891 33.478352,40.21893 32.367272,40.601891 31.258288,40.972338 30.90957,40.972338 30.704319,41.603014 30.494355,42.233429 30.631799,42.35726 30.356648,42.796822 30.077831,43.241359 29.730423,43.556566 29.868915,44.246147 30.010287,44.942797 30.151659,45.759351 30.562947,45.883444 30.979209,46.013297 31.392853,46.013297 32.023267,45.944544 32.64321,45.883444 32.780655,45.631432 33.063137,45.257581 33.338027,44.875615 33.683079,44.624287 34.236786,44.624287 34.795991,44.624287 34.932127,44.689217 34.51953,45.257581 34.103268,45.819404 33.405571,46.327296 33.614488,46.827334 33.824451,47.332608 34.031797,47.144374 34.654357,47.083217 35.278488,47.014467 35.767269,47.144317 35.833243,47.39633 35.905763,47.644569 36.180913,48.022556 35.970688,48.272051 35.764389,48.524112 36.043208,49.409048 36.043208,49.409048 36.043208,49.409048 36.043208,49.538901 36.249507,49.97506 36.455805,50.41436 36.528324,50.539501 36.803214,50.476145 37.082031,50.415045 37.220523,49.852538 37.568193,49.852538 37.915864,49.852538 37.774492,49.852538 38.123471,50.096954 38.467214,50.349015 38.746031,50.349015 38.746031,50.349015 38.746031,50.349015 38.746031,50.387215 38.707811,50.406295 39.143184,49.615397 40.162895,49.48633 40.162895,49.48633 40.162895,49.48633 40.518158,49.165625 41.009294,48.912202 41.507762,48.656319 41.009294,49.034411 41.223185,49.422712 41.437076,49.808082 41.223185,49.422712 41.860144,49.166829 42.497627,48.914768 41.860144,49.166829 42.56203,49.235579 43.270985,49.296679 42.56203,49.235579 42.989288,49.681686 43.272032,49.979614 43.272032,49.937569 43.487755,49.89555 43.598496,49.85735 43.762645,49.85353 44.04696,49.85735 44.895454,49.91845 45.10725,49.991025 46.099995,50.373358 47.086458,50.755324 46.451331,50.499388 47.366322,51.394639 48.084701,52.102023 48.025011,52.096525 48.26927,52.093907 48.33812,52.092807 48.429754,52.091307 48.570864,52.093907 49.206776,52.158837 50.194286,52.541062 50.618663,52.995285 51.044612,53.437203 50.901407,53.567841 51.044612,54.013948 51.182057,54.465292 51.539152,54.465292 52.103593,54.981299 52.668034,55.495998 52.809668,55.164612 53.519669,55.559616 54.222864,55.941844 54.010021,55.750573 55.00041,56.00677 55.990799,56.262653 55.566422,56.197727 56.414915,56.647918 57.261315,57.099261 57.04978,57.029884 57.965819,57.351375 58.887355,57.67208 58.175782,57.929167 58.107191,58.638122 58.034671,59.342626 56.766251,60.432761 56.413345,61.140144 56.062009,61.844648 56.340825,62.162473 56.340825,62.743408 56.340825,63.322771 56.340825,63.386127 56.058081,64.025966 55.771672,64.671303 55.702818,64.671303 55.492593,64.990699 55.278702,65.311404 54.856419,65.823223 54.430994,65.823223 54.007925,65.823223 53.862364,65.823223 53.087436,66.405204 52.313032,66.979332 52.382671,67.231183 52.450477,67.809238 52.522997,68.385983 52.450477,68.068943 52.381627,68.326816 52.312777,68.578877 52.381627,68.326816 52.026364,68.647521 51.671101,68.964561 52.026364,68.903405 51.957514,69.155413 51.888664,69.415119 51.74755,69.539736 51.671104,69.733729 51.602254,69.928509 51.323434,70.180884 51.179444,70.378805 51.041999,70.565939 50.683333,71.148235 50.12151,71.272066 49.55864,71.405741 49.131121,71.210966 48.98844,71.535699 48.850995,71.856404 48.98844,71.535699 49.20233,71.856404 49.416221,72.181036 49.27118,72.047361 49.343702,72.560908 49.416222,73.075345 49.343702,72.816791 48.778214,73.331647 48.21613,73.845037 48.21613,73.331647 47.787825,73.331647 47.363185,73.331647 47.440155,73.58753 47.440155,73.781419 47.440155,73.972376 47.440155,74.041125 47.226264,74.102124 47.0163,74.167054 46.94352,74.167054 46.734604,74.489065 46.619935,74.657114 46.627527,74.649469 46.688794,74.638003 46.742204,74.638003 46.84535,74.638003 46.944572,74.744948 47.154536,75.004654 47.154536,74.867156 47.154536,75.259385 47.154536,75.642137 47.085686,75.519091 47.013164,75.899486 46.940644,76.287474 47.013164,75.899486 46.587215,76.353709 46.350548,76.60577 46.380917,76.571396 46.44977,76.544666 46.5071,76.506466 46.587215,76.498826 46.587215,76.605766 46.587215,76.861649 46.659735,76.800545 46.873624,77.116276 47.083588,77.436981 47.22496,77.375982 47.295384,77.630713 47.364234,77.886596 47.295384,77.630713 47.222864,78.273432 47.180714,78.651471 47.184644,78.586545 47.173124,78.517848 47.173124,78.472008 47.134904,78.426188 47.081494,78.517848 46.940122,78.773732 46.87153,78.708805 46.87153,78.968144 46.87153,79.224028 46.87153,78.968144 47.012902,79.415299 47.093012,79.678931 47.081752,79.632986 46.974682,79.590967 46.905832,79.552767 46.795087,79.529867 46.65005,79.590967 46.30238,79.785746 46.65005,79.850672 46.65005,79.850672 L 46.932794,79.976703 C 47.215538,80.106556 46.932794,79.976703 47.215538,79.850672 47.501947,79.720819 47.429429,80.106556 47.711649,80.233424 47.990466,80.363277 47.921613,80.424381 48.136027,80.554129 48.345991,80.683982 48.345991,80.683982 48.560405,80.810012 48.770368,80.936043 48.69785,81.000969 48.491555,81.065895 48.277665,81.127005 48.277665,81.065895 47.573685,81.065895 H 47.076788 C 46.580677,81.065895 46.935416,81.000965 46.935416,81.000965 46.935416,81.000965 46.652672,80.874935 46.090588,80.618999 45.834809,80.500613 45.811771,80.489146 45.819363,80.492968 45.781143,80.492968 45.750513,80.454768 45.666472,80.420398 45.240523,80.229441 45.452581,80.294368 45.307544,79.970626 45.235024,79.802577 45.235024,79.810221 45.250214,79.821688 45.250214,79.821688 45.288434,79.821688 45.250214,79.718565 45.177694,79.462682 45.105176,79.523786 45.105176,79.523786 L 44.682369,79.275547 C 44.682369,79.275547 44.540997,79.206797 44.185211,78.821324 44.001951,78.6189 44.009543,78.630367 44.040174,78.638012 44.078394,78.638012 44.112694,78.638012 44.040174,78.500514 43.898802,78.179809 43.971324,78.305735 43.688838,77.730299 43.520763,77.382628 43.555059,77.451482 43.593278,77.524079 43.631498,77.569919 43.643018,77.615739 43.631498,77.524079 43.562648,77.333122 43.845389,77.268195 43.845389,77.00938 43.845389,76.864264 43.845389,76.887172 43.780459,76.906257 43.730719,76.906257 43.64668,76.944457 43.497715,76.868057 43.14638,76.738205 43.497715,76.868057 43.428865,76.669456 43.352415,76.482321 43.146121,75.715457 43.146121,75.715457 43.146121,75.715457 43.073601,75.516855 42.928303,75.071429 42.786931,74.618515 42.928303,75.071429 43.146121,75.071429 43.356085,75.071429 43.428865,75.645556 43.497457,75.32349 43.562387,75.00645 43.428607,75.00645 43.211047,74.618986 43.001084,74.236758 43.001084,74.431851 42.928303,73.914482 42.859453,73.403972 42.786931,73.403972 42.649486,72.570139 42.512041,71.733426 42.786931,71.537862 42.85945,70.835976 42.9283,70.127545 42.51178,69.809458 42.51178,68.849961 42.51178,67.886799 42.51178,67.694376 42.57671,66.85871 42.64923,66.023568 42.435338,64.616917 42.366746,63.971056 42.294226,63.331479 41.803353,63.201888 40.743325,62.625143 39.684344,62.045779 39.610254,61.983994 39.259966,61.533698 38.901038,61.085235 37.985523,59.097911 37.490983,58.261198 36.993825,57.426056 36.433049,56.973404 36.646155,56.465512 36.856118,55.952122 36.924972,55.694773 36.856118,55.246048 36.787268,54.794705 36.787268,54.734229 37.350397,54.472691 37.91379,54.212985 37.84389,54.028154 38.263817,53.128086 38.693954,52.233515 38.340257,52.103139 38.535042,50.83498 38.397597,51.275589 38.328743,51.465394 38.328743,51.465394 38.328743,51.465394 38.122445,51.148354 37.842581,50.899906 37.567691,50.647845 37.285994,50.331276 37.14724,50.647845 37.01346,50.960958 37.21976,51.275641 36.940941,51.14893 36.658197,51.026722 36.872091,51.026722 36.451637,50.774556 36.037993,50.522495 36.176747,50.583599 35.899501,50.268235 35.620684,49.951195 36.384616,49.951195 35.620684,49.951195 34.854134,49.951195 34.790778,50.142152 34.719307,49.702956 34.646787,49.262347 34.853086,48.944522 34.513008,48.823047 34.367971,48.769587 34.283933,48.784847 34.203561,48.823047 34.092819,48.861247 33.993597,48.884147 33.749599,48.700838 33.333337,48.383798 33.608227,48.513704 32.918646,48.195564 32.223305,47.882451 32.153405,48.00843 31.459373,47.440795 30.766912,46.877401 30.416362,46.748334 30.211634,46.877401 30.005336,47.007254 28.75655,47.319581 27.647827,46.434436 26.540151,45.550599 26.328617,45.740404 26.328617,45.23513 26.328617,44.736663 26.951177,44.986891 26.466062,44.166462 25.980946,43.347552 25.426192,42.593044 25.00993,41.899012 24.592097,41.20786 24.244689,41.148432 24.244689,40.577184 24.244689,40.011696 24.386061,39.825556 24.03839,39.694918 23.69072,39.568888 23.414783,39.067122 23.344358,39.568888 23.279428,40.075733 23.202986,40.198255 23.413208,40.575247 23.619506,40.957213 23.619506,41.146495 23.826852,41.52113 24.036815,41.895504 23.899372,42.024834 24.105669,42.340303 24.311967,42.657342 24.728229,42.903173 24.587904,43.288542 24.450459,43.662916 24.381606,43.601655 24.173213,43.345822 23.966915,43.093761 23.825543,43.158687 23.689407,42.844475 23.548035,42.531362 23.968224,42.844475 23.826852,42.531362 23.689407,42.214322 23.968224,42.279301 23.551962,42.027135 23.376294,41.92019 23.311368,41.950745 23.280737,41.981295 23.238847,42.023315 23.242517,42.065305 23.139365,41.775049 22.929401,41.269775 23.208215,41.522988 23.208215,41.147253 23.208215,40.769214 23.07077,40.83414 22.864472,40.521027 22.654508,40.200322 22.791952,40.010517 22.7231,39.441626 22.65425,38.88085 22.65425,38.93897 22.173058,38.439194 21.686896,37.93392 21.479026,37.241459 21.613853,35.28974 21.755225,33.337759 22.79431,32.835103 23.14198,32.454446 23.485723,32.080072 23.696996,31.699676 23.287017,31.322422 22.866828,30.940456 22.585131,30.940456 22.656603,30.690699 22.725453,30.438638 23.350635,30.438638 23.55798,30.755629 23.767944,31.068742 23.699352,31.576111 24.044405,31.576111 24.392075,31.576111 24.736866,31.262998 24.392075,30.942816 24.044405,30.629704 23.629452,30.572369 23.489127,30.064477 23.443307,29.88881 23.385978,29.774141 23.340163,29.674919 19.119947,35.345507 16.617139,42.374837 16.617139,49.985363 16.617139,68.779985 31.853899,84.019363 50.651139,84.019363 63.775173,84.019363 75.153001,76.589479 80.836679,65.711689 V 65.264535 C 80.836679,64.508718 80.215689,64.886495 80.005202,63.248675 79.80283,61.609021 80.352872,60.923105 80.770443,60.413381 81.188276,59.910725 80.632998,59.594208 80.491626,59.093123 80.354181,58.592038 80.143956,58.335736 80.143956,57.520752 80.143956,56.698962 78.756416,56.195259 78.478908,55.630295 78.196164,55.063236 78.410058,55.063236 78.62028,54.244064 78.830243,53.423582 79.243887,53.178538 78.62028,52.734001 78.261352,52.48194 77.967874,52.539222 77.666281,52.600326 77.444798,52.646166 77.219126,52.688156 76.956279,52.600326 76.331101,52.413191 76.468546,51.533229 75.498577,51.592396 74.528608,51.653496 74.668671,52.030126 73.974639,52.345595 73.565184,52.532729 73.157037,52.433425 72.717737,52.345595 72.412216,52.276845 72.095177,52.208097 71.753004,52.234853 70.927025,52.295953 71.199297,52.486914 70.509192,52.486914 69.814113,52.486914 69.605197,52.041854 69.259097,51.414058 68.911427,50.786262 67.941458,50.405081 67.66395,49.96421 67.385133,49.527789 66.549467,48.263819 66.489253,47.764304 66.416733,47.257459 66.550253,46.882824 66.82907,45.871228 67.107887,44.868796 66.687698,45.370143 66.489253,45.053627 66.275363,44.740514 66.550253,44.23812 66.901326,43.671061 67.248997,43.102432 67.522316,42.598728 68.149065,41.843959 68.769008,41.09076 68.629992,41.337638 69.399422,41.027928 70.159166,40.714816 69.739238,39.890669 69.950249,39.388013 70.160213,38.887975 70.160213,39.0749 70.715491,38.754719 71.269198,38.445271 71.269198,38.192896 71.824475,37.755167 72.376612,37.314557 72.449654,37.755167 73.142115,37.812447 73.837194,37.877377 73.764675,37.755167 74.392472,37.499335 75.010843,37.247274 75.36375,37.182295 76.126373,36.930967 76.60442,36.774384 76.945545,36.789647 77.411549,36.808759 77.682774,36.808759 77.99929,36.846959 78.411363,36.808759 79.525846,36.751479 78.966379,37.253295 78.897788,37.945756 78.828938,38.639788 78.756416,38.513338 79.100159,38.824619 79.451495,39.141658 80.421987,39.141658 80.976742,39.206585 81.528878,39.271515 81.390386,39.393719 81.945402,39.706623 82.503297,40.023663 82.572151,40.089374 83.128476,40.273682 83.193406,40.311882 83.246809,40.311882 83.285032,40.311882 82.820337,38.739511 82.24621,37.217406 81.564483,35.74609 81.564483,35.84539 81.602703,35.963777 81.602703,36.120464 81.602703,36.498503 81.255033,36.563953 80.836153,36.811616 80.421462,37.063677 80.49241,36.811616 80.07065,36.563377 79.658577,36.311316 80.14317,36.311316 80.769918,36.311316 81.38986,36.311316 81.18775,36.055433 81.255033,35.679593 81.323883,35.301554 81.045069,35.243172 80.631425,35.051797 80.217781,34.86084 80.144739,34.86084 79.44966,34.549141 78.757199,34.236028 79.036016,34.105651 78.549592,33.790706 78.066047,33.477593 78.13333,33.412667 77.575696,33.664675 77.025654,33.916736 77.165979,33.855632 76.468282,33.916736 75.775821,33.985486 76.124538,33.916736 75.775821,34.17262 75.424485,34.428503 75.565857,34.485733 75.289396,34.863772 75.010579,35.246523 74.870516,35.054729 74.392208,35.497066 73.902904,35.934796 74.392208,35.497066 74.315758,36.187956 74.250828,36.883297 74.113387,36.440017 73.416999,36.883297 72.988432,37.158187 72.850987,37.112451 72.728465,37.074254 72.652015,37.036054 72.579501,37.020794 72.449648,37.070354 72.101977,37.192562 72.030244,37.326237 71.6166,37.139104 71.199291,36.944324 71.337783,36.887043 71.058966,36.818399 70.787741,36.761119 70.573851,36.57016 70.434835,36.127247 70.29739,35.686899 70.507355,35.686899 70.713652,35.185552 70.923616,34.681849 70.644802,34.681849 70.644802,34.367951 70.644802,34.050911 70.786174,33.921843 70.988545,33.921843 71.198509,33.921843 71.957205,33.990593 72.374776,33.990593 H 73.416216 C 73.416216,33.990593 73.835096,33.799636 73.835096,33.338187 73.835096,32.877681 74.068098,32.667194 73.602094,32.415604 73.138708,32.163543 73.138708,32.251377 72.8612,32.037565 72.58631,31.827523 72.399123,31.701414 72.81539,31.53648 73.233223,31.36843 73.462036,31.406627 73.834054,31.200329 74.196909,30.986464 74.708728,30.822289 74.430958,30.74087 74.152141,30.65304 74.152141,30.65304 73.834054,30.65304 73.505495,30.65304 73.555237,30.65304 73.138975,30.77907 72.721142,30.908923 72.536573,31.409485 72.536573,30.908923 72.536573,30.403649 72.494683,30.698881 72.586313,30.236883 72.677943,29.773235 72.261681,30.10703 72.677943,29.773235 73.095776,29.441011 73.32616,29.563193 73.188453,29.27215 73.047081,28.978148 73.463343,29.27215 73.047081,28.978148 72.628201,28.68022 72.955451,28.556388 72.628201,28.68022 72.589981,28.68022 72.563271,28.71842 72.536571,28.71842 72.536571,28.68022 72.498351,28.64967 72.444941,28.558015 72.215866,28.179976 72.025538,28.344151 72.120309,27.967918 72.215869,27.593544 71.705618,27.677582 72.399126,27.422065 73.093158,27.170004 73.233221,27.005803 73.41491,27.215819 73.602097,27.422065 73.878558,27.513748 73.693727,27.762719 73.502875,28.010958 73.365168,28.22532 73.552355,28.472983 73.735615,28.725044 73.876987,28.809134 74.11156,29.019883 74.340635,29.229925 74.06574,29.356034 74.4286,29.48196 74.802974,29.607991 75.123679,29.692002 75.032049,29.939848 74.940419,30.195732 74.61474,30.654039 74.986239,30.488319 75.356686,30.32027 75.398836,30.106353 75.86196,29.774129 76.324037,29.441905 76.505988,29.480127 77.019116,29.273044 77.263637,29.173744 77.43276,29.166098 77.528579,29.143191 74.894871,25.755499 71.632843,22.875699 67.915283,20.684433 67.861873,20.772263 67.781503,20.883034 67.514991,21.273221 66.955786,22.105745 67.305027,21.529104 66.671733,22.174598 66.033203,22.813129 66.312805,22.55735 64.905368,22.685108 63.49191,22.814961 63.702397,23.06786 62.927469,23.45323 62.148876,23.843835 61.867179,23.843835 60.451103,24.223969 59.039216,24.609338 59.388195,25.186084 58.827681,25.82985 58.26324,26.473878 58.404612,26.34036 57.342752,26.020807 56.285341,25.703767 56.073545,24.868887 56.073545,23.58502 56.073545,22.701183 56.34477,22.701183 56.741921,22.702492 56.921515,22.702492 57.124672,22.702492 57.342752,22.622272 58.050397,22.366389 57.273902,22.175118 57.063935,21.855722 56.850044,21.53109 56.640866,21.53109 56.850044,21.081318 57.063935,20.63364 56.850044,20.760613 56.431164,20.185438 56.133236,19.782528 55.802059,19.818918 54.95723,19.853214 54.59071,19.853214 54.131251,19.891414 53.535656,19.853214 51.555139,19.784464 52.901053,19.658435 53.039807,19.147401 53.135367,18.796065 53.72677,18.834288 54.380223,18.876176 54.685743,18.876176 55.006448,18.914376 55.29757,18.876176 56.216488,18.811246 55.720639,18.559136 55.156198,18.296813 54.593328,18.044752 54.239898,18.296813 53.388786,18.495414 52.542387,18.682549 52.193669,18.877381 51.623469,19.005924 51.061646,19.135777 50.777593,19.26563 49.859722,19.646025 48.938186,20.035322 49.291354,19.96673 48.658322,20.225389 48.018221,20.485094 48.2363,20.355242 47.530488,20.355242 46.820486,20.355242 46.820486,20.294132 46.117029,20.294132 45.408599,20.294132 45.694222,20.225382 45.478499,19.775507 45.268536,19.328352 45.833762,19.775507 46.39637,19.844257 46.961858,19.909187 46.893266,19.775507 47.60065,19.588374 48.305416,19.397417 48.448097,19.204575 49.224072,18.686997 50.000047,18.176487 48.798647,18.369957 48.305154,18.369957 47.808257,18.369957 47.880776,18.49981 47.314764,18.686997 46.751894,18.877953 46.678852,18.816849 46.187454,18.622067 45.694484,18.43111 46.470198,18.17596 46.751894,17.920181 47.034638,17.664298 47.669242,17.920181 48.09231,17.981281 48.09231,17.981281 48.938186,17.855251 49.579858,17.790325 50.211581,17.725395 50.353215,17.595545 51.692322,17.465693 52.456516,17.396943 52.948177,17.404593 53.447953,17.416053 H 54.730511 C 55.934006,17.354953 55.72221,17.416053 56.569918,17.480983 57.419983,17.549733 57.136977,17.740688 56.501068,17.805615 55.864108,17.870545 56.145805,17.996572 56.432218,18.189413 56.711035,18.384193 57.208193,17.994634 57.701425,17.994634 58.194656,17.994634 58.408808,17.868604 59.61047,17.548527 59.866249,17.479777 60.12386,17.426319 60.380162,17.388122 57.298776,16.469204 54.03413,15.970475 50.654292,15.970475 43.454792,15.970475 36.778892,18.211221 31.28371,22.025909 M 40.959838,19.787781 C 41.315101,19.787781 41.667222,19.856531 41.59418,20.239124 41.52533,20.625541 40.748304,20.239124 40.322355,20.239124 39.899286,20.239124 39.689061,20.430081 39.123049,20.559829 38.555991,20.689682 38.270105,20.429976 38.136849,20.113722 37.991812,19.78909 39.334584,19.78909 39.334584,19.78909 39.334584,19.78909 39.689846,19.922765 40.18203,19.922765 40.675,19.922765 40.607979,19.78909 40.959576,19.78909 M 43.852466,24.47531 C 44.203802,24.215604 44.277106,23.963491 44.772955,24.154605 45.270113,24.349384 45.975926,24.863559 45.618831,24.925344 45.271161,24.990274 45.408867,24.864244 44.98449,24.795491 44.560112,24.734391 44.49152,24.795491 44.205896,24.925344 43.927079,25.055197 43.927079,25.120123 43.713974,25.120123 43.713974,25.120123 43.504011,24.734754 43.851419,24.475834 M 70.555019,30.39775 C 70.509209,30.061598 70.734614,30.061598 70.734614,29.729898 70.734614,29.393747 70.597169,29.393747 70.692464,29.178809 70.784094,28.972563 70.555019,29.014582 70.925466,28.846585 71.288321,28.678535 71.338063,28.640365 71.615309,28.640365 71.890199,28.640365 71.798569,28.804592 72.123201,28.678565 72.302796,28.605995 72.455425,28.678565 72.511189,28.716765 72.282114,28.789335 72.209595,28.762605 72.167445,29.056581 72.121635,29.396398 72.350705,29.519967 72.121635,29.854024 71.888633,30.190175 71.980263,30.23599 71.480487,30.279973 71.11004,30.318173 70.81473,30.532034 70.662886,30.532034 70.601886,30.532034 70.567326,30.493834 70.552144,30.402181 M 36.020724,44.107411 C 36.162096,43.85535 36.938072,43.725445 36.938072,43.725445 36.938072,43.725445 37.576602,43.725445 38.07376,43.855298 38.564111,43.981328 38.564111,44.107359 39.06127,44.429425 39.557119,44.75013 39.623092,44.559278 39.981235,44.689131 40.328905,44.811339 40.328905,45.00617 39.981235,45.13262 39.622307,45.262473 39.622307,45.13262 39.06127,44.941663 38.494211,44.750706 38.494211,44.554723 38.14497,44.367536 37.786042,44.172756 37.503821,44.042904 36.658993,44.23386 36.322842,44.31025 36.13068,44.344602 36.029626,44.344602 35.873069,44.344602 35.934066,44.260592 36.029626,44.100185 M 40.765588,45.837228 C 40.90696,45.384314 40.410325,45.577523 40.90696,45.384314 41.399929,45.19718 41.961752,45.002348 42.3877,45.19718 42.810769,45.384314 43.730996,45.517885 43.167864,45.772616 42.597664,46.032322 42.251564,45.902469 41.895778,46.032322 41.544443,46.162175 41.4714,46.227101 40.833917,46.227101 40.198005,46.227101 39.989089,46.097248 40.129152,45.902469 40.129152,45.902469 40.327858,46.059051 40.507191,46.059051 40.614267,46.059051 40.713489,46.005591 40.76297,45.841365 M 43.519724,46.16207 C 43.305833,46.09714 43.450874,45.902364 43.450874,45.902364 43.450874,45.902364 43.729691,45.772511 44.013744,45.772511 44.292561,45.772511 44.151189,45.963468 44.013744,46.160499 43.964004,46.221599 43.895411,46.240689 43.822892,46.240689 43.677855,46.240689 43.521298,46.160499 43.521298,46.160499 M 38.502592,46.030646 C 38.082142,45.839689 38.996871,45.770941 38.996871,45.770941 39.206834,45.835871 39.42151,45.961898 39.206834,46.158928 39.134314,46.223858 39.076982,46.250588 39.015982,46.250588 38.901314,46.250588 38.775388,46.155108 38.502592,46.029079 M 45.87488,80.481959 C 45.9131,80.481959 45.87488,80.481959 45.87488,80.481959" />
</svg>
