<svg version="1.1" viewBox="0 0 75.6 75.72" xmlns="http://www.w3.org/2000/svg" xmlns:xlink="http://www.w3.org/1999/xlink">
 <defs>
  <linearGradient id="linearGradient19435-5-8" x1=".7731" x2=".227" y1="-.419" y2=".422" gradientTransform="matrix(30.74,-19.96,19.96,30.74,326.8,90.8)" gradientUnits="userSpaceOnUse">
   <stop style="stop-color:#696969" offset="0"/>
   <stop style="stop-color:#c7c7c9" offset=".17"/>
   <stop style="stop-color:#f9f9ff" offset=".36"/>
   <stop style="stop-color:#ccccce" offset=".73"/>
   <stop style="stop-color:#696969" offset="1"/>
  </linearGradient>
  <radialGradient id="radialGradient7443-9" cx="344.3" cy="79.31" r="12.73" gradientTransform="matrix(1.969 0 0 2.01 -635.9 -124.6)" gradientUnits="userSpaceOnUse">
   <stop style="stop-color:#fbfbfb" offset="0"/>
   <stop style="stop-color:#f9f9ff" offset=".2717"/>
   <stop style="stop-color:#ccccce" offset=".5976"/>
   <stop style="stop-color:#696969" offset="1"/>
  </radialGradient>
  <radialGradient id="radialGradient9643" cx="344.1" cy="78.36" r="14.6" gradientTransform="matrix(1.881 0 0 1.904 -605.2 -116.1)" gradientUnits="userSpaceOnUse">
   <stop style="stop-color:#1c072d" offset="0"/>
   <stop style="stop-color:#5700aa" offset=".408"/>
   <stop style="stop-color:#290a43" offset=".6723"/>
   <stop style="stop-color:#140521" offset="1"/>
  </radialGradient>
  <linearGradient id="linearGradient9651" x1="320.4" x2="362.7" y1="80.82" y2="80.82" gradientTransform="matrix(1.969 0 0 1.969 -635.9 -121.2)" gradientUnits="userSpaceOnUse" xlink:href="#linearGradient19435-5-8"/>
  <linearGradient id="linearGradient35962" x1=".7923" x2=".2078" y1="-.4486" y2=".4515" gradientTransform="matrix(60.51 -39.29 39.29 60.51 7.444 57.5)" gradientUnits="userSpaceOnUse" xlink:href="#linearGradient19435-5-8"/>
 </defs>
 <path d="m11.77 11.8c-7.22 7.266-11.49 16.45-11.47 26.06 0.1579 19.58 17.92 37.42 37.5 37.56 19.58-0.1292 37.34-17.98 37.5-37.56-0.1579-19.58-17.92-37.42-37.5-37.56h-0.04587c-9.604 0-18.75 4.26-25.98 11.49m-3.844 26.06c0-7.783 3.285-15.17 8.998-20.91 5.72-5.724 13.09-9.02 20.87-9.014 15.92 0.07179 29.78 13.99 29.86 29.92-0.08032 15.92-13.95 29.84-29.86 29.92-15.92-0.07179-29.78-13.99-29.86-29.92" style="fill:url(#linearGradient9651);stroke-width:1.013"/>
 <path d="m37.76 1.776c-9.638 0-18.7 3.754-25.51 10.57-6.815 6.815-10.57 15.88-10.57 25.51 0 19.9 16.19 36.08 36.08 36.08 19.9 0 36.08-16.19 36.08-36.08 0-19.9-16.19-36.08-36.08-36.08zm-28.74 36.08c0-7.675 2.988-14.89 8.415-20.31 5.427-5.427 12.64-8.415 20.31-8.415 15.84 0 28.74 12.89 28.74 28.74 0 15.84-12.89 28.74-28.74 28.74-15.84 0-28.74-12.89-28.74-28.74" style="fill:url(#linearGradient35962);stroke-width:1.013"/>
 <path d="m9.019 37.86c0 15.87 12.86 28.74 28.74 28.74 15.87 0 28.74-12.87 28.74-28.74 0-15.87-12.87-28.74-28.74-28.74-15.87 0-28.74 12.86-28.74 28.74" style="fill:url(#radialGradient9643);stroke-width:1.013"/>
 <path d="m23.78 16.89c0.1291-0.02872 0.2699 0 0.5022 0.04307 0.6264 0.1436 1.151 0.1895 1.566 0.3335 0.4175 0.1407 0.2096 0.3776 1.094 0.4244 0.8856 0.04882 1.151 0.1407 1.409 0 0.2585-0.1407 0.9378-0.1867 0.1579-0.2843-0.7819-0.09476-0.8874 0.04882-1.097-0.1867-0.2096-0.2354-0.3638-0.04882-0.2585-0.3799 0.1033-0.3311 0.2067-0.2384 0.1033-0.474-0.1033-0.2354 0.5219-0.2815-0.1033-0.2354-0.6268 0.04594-0.5246 0.09189-0.8368 0.1407-0.313 0.04882-0.8833 0.4232-0.6228 0.04882 0.2585-0.3799 0.05177-0.3799 0.5722-0.5707 0.5197-0.1867 0.5756-0.1867 1.095-0.2354 0.5219-0.04882 1.25-0.04882 0.7811 0.1895-0.4701 0.2384-0.8348 0.3799-0.5207 0.4276 0.3122 0.04594-0.4185 0.1407 0.5722 0.04594 0.9898-0.09476 1.044-0.09476 1.46-0.09476 0.4185 0 0.1551 0 0.5744-0.04882 0.4175-0.04594 1.042-0.2843 0.7285-0.04594-0.311 0.2354-0.7803 0.04594-0.7285 0.3776 0.05177 0.3303-0.2096 0.3799 0.2585 0.474 0.4693 0.09476 0.5734 0.2843 0.2067 0.2843-0.3636 0-0.2067-0.09189-0.6766 0-0.1809 0.03732-0.3281 0.02872-0.4468-0.001149-0.1896-0.02872-0.3018-0.0603-0.3343 0.1465-0.05453 0.3281-0.311 0.4244 0.2614 0.474 0.5744 0.04307 0.4142 0.09189 0.937-0.04882 0.2067-0.05457 0.2756-0.02872 0.3037 0 0.04311 0.05169-8.66e-4 0.1034 0.2183-0.1522 0.3648-0.4285 0.628-0.7112 0.5744-0.4752-0.05177 0.2354-0.1033 0.2843-0.2096 0.4276-0.1033 0.1407-0.1551 0.4244 0.1579 0.2384 0.3091-0.1895 0.6766-0.04882 0.6766-0.474 0-0.4268-0.2096-0.4752 0.05177-0.5707 0.2614-0.09476 0.473-0.2815 0.2096-0.2815-0.2614 0-0.4689 0.09476-0.7293 0.04594-0.2585-0.04594-0.4681-0.04594-0.311-0.2354 0.1551-0.1895 0.1551-0.2843 0.6211-0.3291 0.472-0.04882 0.1579 0 0.472-0.04882 0.313-0.04594 0.2096-0.3335 0.313-0.04594 0.1033 0.2843-0.2096 0.2843 0.1033 0.2843 0.3142 0 0.4152 0 0.6778-0.1436 0.2642-0.1407 0.313-0.1407 0.5197-0.2384 0.1063-0.04882 0.1722 0.04882 0.2498 0.1407 0.07756 0.09764 0.1695 0.1895 0.3262 0.1436 0.311-0.09476 0.9888-0.1895 1.407-0.1895 0.4152 0 0.2096 0 0.8368 0.1895 0.622 0.1895 1.04 0.1436 1.3 0.4252 0.2614 0.2815 0.5722 0.2815 0.5722 0.5703 0 0.2843-0.4173 0.4236 0.05453 0.5197 0.1752 0.03445 0.3049 0.02872 0.4093 0.02872 0.1752 0 0.2728-0.02872 0.3699 0.1608 0.1551 0.2872 0.4195 0.4252 0.1551 0.5226-0.2585 0.09189-0.311 0.09189-0.5732 0.09189-0.2585 0-0.9352-0.4236-0.7274-0.09189 0.2126 0.3313 0.6248 0.3313 0.5744 0.5197-0.04882 0.1924 0 0.3787-0.3142 0.3787-0.3169 0-0.4681-0.04882-0.6268-0.09476-0.1551-0.04594-0.05177-0.4236-0.1551-0.04594-0.1033 0.378 0.4144 0.2815-0.1033 0.378-0.5238 0.09476-0.5238 0.1407-0.7325-0.04882-0.2039-0.1895-0.2039-0.2384-0.4173-0.3303-0.2096-0.09764 0.05453-0.1436-0.4669-0.1436-0.525 0-0.7305 0.2354-0.7862 0-0.04882-0.2354 0.05453-0.376 0.4709-0.4236 0.1465-0.02872 0.224 0.001967 0.2815 0.02872 0.1033 0.03445 0.1465 0.06892 0.4476-0.1206 0.4709-0.2815 0.9409-0.1407 0.7315-0.5197-0.2067-0.378-0.3122-0.5187-0.6778-0.614-0.3648-0.09476-0.4669-0.09476-0.8852-0.09476-0.4163 0-0.6264-0.09189-0.6264 0.1436 0 0.2354 0.05453 0.4244-0.1033 0.5209-0.1551 0.09189-0.1063 0.2354-0.3667 0.2815-0.2585 0.04882-0.2039 0.04882-0.5209 0.04882-0.311 0-0.6766 0.3331-0.5207 0 0.1608-0.3303 0-0.2872 0.3161-0.4762 0.3118-0.1867 0.4669-0.04307 0.5207-0.375 0.02874-0.1551 0.02874-0.1551 0-0.1551-0.02874 0-0.05748 0.00115-0.115-0.2268-0.1033-0.4264 0-0.09476-0.1033-0.4264-0.1063-0.3303 0.4136-0.5187-0.1063-0.3303-0.5207 0.1895-0.5207 0.09476-0.7791 0.2815-0.2614 0.1895-0.3667 0.1436-0.2614 0.474 0.1004 0.3313 0.05158 0.3799 0.3098 0.3799 0.2614 0 0.6252 0.04594 0.3142 0.2843-0.3142 0.2384-0.4163 0.2384-0.3638 0.4732 0.04882 0.2354 0.3638 0.2354-0.1063 0.4274-0.4669 0.1895-0.6766 0.4693-1.354 0.7081-0.6778 0.2384-0.8864 0.1407-1.406 0.472-0.5226 0.3335-0.6291 0.1924-0.7831 0.5683-0.1579 0.3819-0.3118 0.3323-0.1033 0.6152 0.2096 0.2872 0.3648 0.3799 0.6778 0.474 0.3142 0.09764 0.5218 0.3799 0.9898 0.4285 0.1435 0.02872 0.2815 0 0.402 0 0.2671 0 0.4356-0.02872 0.3293 0.1809-0.1551 0.2815-0.5218 0.8016-0.3122 1.04 0.2067 0.2354 0.6272 0.5177 0.8844 0 0.2614-0.5238 0.1033-0.7587 0.4689-0.9947 0.135-0.08614 0.2614-0.08327 0.3811-0.08041 0.2067 0 0.3929 0 0.5583-0.4427 0.2614-0.7081-0.1033-0.6148 0.2614-0.9927 0.3638-0.3791 0.4136-0.5663 0.624-0.85 0.2096-0.2872 0.3667-0.1895 0.9888-0.09476 0.6291 0.09476 1.097 0.5197 0.9402 0.8531-0.1579 0.3311-0.4689 0.4232-0.1579 0.4701 0.315 0.04882 0.4173 0.09764 0.7819-0.2327 0.3679-0.335 0.5218-0.5703 0.6799-0.335 0.1522 0.2411 0.313 0.2843 0.2555 0.6665-0.05177 0.376-0.3098 0.2815-0.1033 0.614 0.2126 0.3291 0.838 0.3291 0.9951 0.6148 0.1551 0.2815 0.5195 0.5238 0.1551 0.6636-0.3648 0.1436-0.2614 0.6128-0.2614 0.8051 0 0.1895 0.2096 0.1895 0.4173 0.4256 0.2096 0.2384 0.3648 0.5663 0.1063 0.614-0.2614 0.04882-0.1063-0.09476-0.626-0.09476-0.5226 0-1.147 0.09476-1.096-0.09764 0.05158-0.1867 0.1033-0.2354 0.4144-0.473 0.3169-0.2384 0.5258-0.2843 0.5258-0.5695 0-0.2785 0-0.4701-0.3122-0.2785-0.3169 0.1838-0.2126 0.3738-0.628 0.3738-0.4163 0-0.4689-0.04882-0.9382-0.04882-0.4657 0-0.622-0.1895-0.9896 0-0.3679 0.1895-0.8327 0.3807-0.8876 0.5219-0.04882 0.1436 0.2585 0.1436 0.5197 0.04882 0.2642-0.09476 1.046-0.09476 0.7831 0.09476-0.2585 0.1895-0.5187 0.2354-0.4154 0.472 0.1063 0.2384 0.7283 0.4276 0.939 0.2384 0.2067-0.1895 0.8854-0.09476 0.626 0.09476-0.2642 0.1895-0.4185 0.4276-0.8368 0.5683-0.2211 0.07754-0.3687 0.04307-0.5126 0-0.1293-0.02872-0.2555-0.05744-0.4244 0-0.3648 0.09476-0.6789 0.09476-0.8874 0.04882-0.2096-0.04882-0.1551-0.1436-0.4661-0.09476-0.3161 0.04594-0.4205 0.3303-0.8854 0.6148-0.4701 0.2843-0.5766 0.3323-0.9394 0.614-0.3695 0.2843-0.4205 0.4762-0.7323 0.711-0.315 0.2384-0.04882 0.2872-0.315 0.2384-0.2555-0.04882-0.3626-0.2843-0.4136-0.04882-0.05177 0.2384-0.05177 0.2843 0 0.4713 0.05177 0.1924 0.1579 0.2843 0.05177 0.5226-0.1033 0.2354-0.313 0.2872-0.6768 0.4752-0.3648 0.1867-0.3648 0.2354-0.8348 0.5187-0.4681 0.2872-0.6248 0.2384-0.7283 0.6616-0.1033 0.4274-0.05177 0.622-0.05177 1.093 0 0.472 0.2614 0.8016-0.05177 0.9453-0.315 0.1407-0.6789-0.09764-0.6789-0.6636 0-0.5654-0.05453-0.8508-0.05453-0.8508s-0.3656-0.09764-0.6766-0.1436c-0.3142-0.04594-0.5238-0.09189-0.8886-0.09189-0.3626 0-0.5207-0.04882-0.5207 0.09189v0.3829s0 0.1867-0.2585 0.1378c-0.2614-0.04307-0.3626-0.09189-0.628-0.1895-0.2585-0.08902 0.2126-0.377-0.6228-0.08902-0.8339 0.2785-1.096 0.2785-1.25 0.7528-0.1579 0.474-0.05453 0.5671-0.2614 0.8976-0.2096 0.3343-0.4709 0.5713-0.3667 1.09 0.1063 0.5238 0.2126 1.138 0.5218 1.231 0.313 0.09764 0.624 0.09764 1.098 0.04594 0.4661-0.04594 0.5695-0.2354 0.7819-0.5165 0.2067-0.2872 0.4661-0.4762 0.8825-0.4762 0.4205 0 0.5228 0.04882 0.2126 0.4762-0.313 0.4224-0.8376 0.8043-0.6805 1.18 0.1579 0.3799 0.3138 0.2384 0.7819 0.1924 0.4693-0.05169 0.8368 0.04594 0.8864 0.2354 0.05453 0.1867 0.2614 0.4709 0.1033 0.6585-0.1551 0.1895 0.05453 0.8549 0.05453 0.8549s0 0.09764 0.1551 0.4256c0.1551 0.3303 0.2096 0.4244 0.4163 0.3768 0.2096-0.04594 0.3138-0.4689 0.5752-0.4689s0.1551 0 0.4175 0.1838c0.2585 0.1895 0.4681 0.1895 0.4681 0.1895s0 0.02872-0.02874 0.04307c0.3274-0.5947 1.094-0.6917 1.094-0.6917s0.2671-0.2411 0.6364-0.4317c0.3748-0.1924 0 0.09189 0.1608 0.3839 0.1608 0.2898 0 0 0.4789-0.1924 0.4793-0.1895 0 0 0.5278 0.05169 0.5331 0.04594 0 0 0.3213 0.3354 0.2126 0.224 0.2126 0.1924 0.3748 0.1608 0.08327-0.02872 0.2067-0.0316 0.4205-0.02872 0.638 0.04594 0.7972 0.1005 1.544 0.388 0.7417 0.2872 0.2642 0.09476 0.9522 0.7679 0.5402 0.5319 0.4953 0.5278 0.6789 0.5258 0.05177-8.63e-4 0.1207-0.001969 0.2268 0 0.4781 0.04882 1.221 0.3362 1.54 0.6778 0.3203 0.3323 0.2126 0.4305 0.3203 0.7659 0.1033 0.3394 0.3719 0.3394 0.7963 0.7274 0.4244 0.387 0.5309 0.1378 1.065 0.4348 0.5287 0.2874 0.3687 0.1436 1.113 0.3362 0.7447 0.1924 0.4256 0.1436 1.064 0.4821 0.6364 0.3394 0.4774 0.2872 1.166 0.5289 0.6929 0.2411 0.1579 0.4344 0.1063 0.9675-0.05453 0.5297-1.008 1.349-1.274 1.881-0.2642 0.5297-0.05453 0.7687-0.05453 1.206 0 0.4356 0 0.4833-0.2126 0.9644-0.2154 0.4852-0.2671 0.4852-0.4252 0.7254-0.1608 0.2411-0.4783 0.626-0.7982 0.626-0.3181 0-0.4276 0-1.01 0.4376-0.5823 0.4317-0.5299 0.6211-0.4789 1.056 0.05453 0.4337 0 0.1953-0.05177 0.3892-0.05177 0.1895 0 0-0.2671 0.2411-0.2671 0.2384 0 0.1924-0.05177 0.3819-0.05177 0.1953-0.1579 0.289-0.2154 0.4348-0.05177 0.1465-0.2614 0.3362-0.3697 0.485-0.1033 0.1407-0.373 0.5785-0.7955 0.6717-0.4232 0.1005-0.7447-0.04594-0.852 0.1982-0.1033 0.2411 0 0 0.1608 0.2411 0.1608 0.2441 0.05177 0.1436 0.1063 0.5297 0.05453 0.3868 0 0.1924-0.4252 0.5795-0.4226 0.386-0.4226 0-0.7447 0-0.3193 0-0.2614 0.1924-0.2614 0.3382 0 0.1436 0 0.1953-0.1608 0.2411-0.1579 0.04882-0.2126 0.04882-0.3697 0.2909-0.08622 0.1264-0.08051 0.1206-0.03445 0.112 0.04016 0 0.1177 0 0.1923 0.08041 0.1579 0.1953 0.1579 0.09189 0.1579 0.3868 0 0.2878-0.05177 0.1953-0.1063 0.4813-0.05453 0.2917 0 0-0.3203 0.3415-0.178 0.1895-0.1551 0.1637-0.1033 0.1436 0.04311-0.02872 0.1033-0.03447 0.1033 0.04594 0 0.1924 0.05453 0.1465 0.2154 0.3839 0.1579 0.2411 0.2642 0.1953 0.3171 0.3868 0.05177 0.1924 0 0-0.05453 0.4833-0.03169 0.2843-0.02874 0.2354-0.0374 0.1838 0-0.03447-0.02874-0.06892-0.0689 0-0.1063 0.1924-0.1579 0.1436-0.1579 0.3386 0 0.1924 0 0 0.1063 0.3362 0.06024 0.1982 0.05177 0.1637-0.02874 0.1321-0.05177-0.02872-0.135-0.04594-0.2441 0-0.2614 0.1465 0 0.1953 0 0.1953l0.2126 0.09476c0.2126 0.09764 0 0 0.2126-0.09476 0.2154-0.09764 0.1608 0.1924 0.373 0.2878 0.2096 0.09764 0.1579 0.1436 0.3191 0.2411 0.1579 0.09764 0.1579 0.09764 0.3191 0.1924 0.1579 0.09476 0.1033 0.1436-0.05177 0.1924-0.1608 0.04594-0.1608 0-0.6902 0h-0.3736c-0.373 0-0.1063-0.04882-0.1063-0.04882s-0.2126-0.09476-0.6352-0.2872c-0.1923-0.08902-0.2096-0.09764-0.2039-0.09476-0.02874 0-0.05177-0.02872-0.115-0.05457-0.3203-0.1436-0.1608-0.09476-0.2699-0.3382-0.05453-0.1264-0.05453-0.1206-0.04311-0.112 0 0 0.02874 0 0-0.07754-0.05453-0.1924-0.1091-0.1465-0.1091-0.1465l-0.3179-0.1867s-0.1063-0.05169-0.3738-0.3415c-0.1378-0.1522-0.1321-0.1436-0.1091-0.1378 0.02874 0 0.05453 0 0-0.1034-0.1063-0.2411-0.05177-0.1465-0.2642-0.5791-0.1264-0.2614-0.1006-0.2096-0.07185-0.1551 0.02874 0.03447 0.0374 0.06892 0.02874 0-0.05177-0.1436 0.1608-0.1924 0.1608-0.387 0-0.1091 0-0.09189-0.04882-0.07754-0.0374 0-0.1006 0.02872-0.2126-0.02872-0.2642-0.09764 0 0-0.05177-0.1493-0.05748-0.1407-0.2126-0.7173-0.2126-0.7173s-0.05453-0.1493-0.1638-0.4843c-0.1063-0.3406 0 0 0.1638 0 0.1579 0 0.2126 0.4317 0.2642 0.1895 0.04882-0.2384-0.05177-0.2384-0.2154-0.5297-0.1579-0.2874-0.1579-0.1407-0.2126-0.5297-0.05177-0.3839-0.1063-0.3839-0.2096-1.011-0.1033-0.6291 0.1033-0.7762 0.1579-1.304 0.05177-0.5327-0.2614-0.7718-0.2614-1.493 0-0.7242 0-0.8689 0.04882-1.497 0.05453-0.628-0.1063-1.686-0.1579-2.171-0.05453-0.4809-0.4236-0.5783-1.221-1.012-0.7963-0.4356-0.852-0.4821-1.115-0.8207-0.2699-0.3372-0.9583-1.831-1.33-2.461-0.3738-0.628-0.7955-0.9683-0.6352-1.35 0.1579-0.386 0.2096-0.5795 0.1579-0.9169-0.05177-0.3394-0.05177-0.3848 0.3717-0.5815 0.4236-0.1953 0.3711-0.3343 0.6868-1.011 0.3234-0.6726 0.05748-0.7707 0.2039-1.724-0.1033 0.3313-0.1551 0.474-0.1551 0.474s-0.1551-0.2384-0.3656-0.4252c-0.2067-0.1895-0.4185-0.4276-0.5228-0.1895-0.1006 0.2354 0.05453 0.472-0.1551 0.3768-0.2126-0.09189-0.05177-0.09189-0.3679-0.2815-0.311-0.1895-0.2067-0.1436-0.4152-0.3807-0.2096-0.2384 0.3648-0.2384-0.2096-0.2384-0.5764 0-0.624 0.1436-0.6778-0.1867-0.05453-0.3313 0.1006-0.5703-0.1551-0.6616-0.1091-0.0402-0.1722-0.02872-0.2327 0-0.08327 0.02872-0.1579 0.04594-0.3413-0.09189-0.313-0.2384-0.1063-0.1407-0.6248-0.3799-0.5228-0.2354-0.5754-0.1407-1.097-0.5675-0.5207-0.4236-0.7843-0.5207-0.9382-0.4236-0.1551 0.09764-1.094 0.3325-1.928-0.3331-0.8329-0.6646-0.9919-0.5218-0.9919-0.9018 0-0.3748 0.4681-0.1867 0.1033-0.8035-0.3648-0.6157-0.7819-1.183-1.095-1.705-0.3142-0.5197-0.5754-0.5644-0.5754-0.9939 0-0.4252 0.1063-0.5652-0.1551-0.6634-0.2614-0.09476-0.4689-0.472-0.5218-0.09476-0.04882 0.3811-0.1063 0.4732 0.05177 0.7567 0.1551 0.2872 0.1551 0.4295 0.311 0.7112 0.1579 0.2815 0.05453 0.3787 0.2096 0.6159 0.1551 0.2384 0.4681 0.4232 0.3626 0.713-0.1033 0.2815-0.1551 0.2354-0.3118 0.04307-0.1551-0.1895-0.2614-0.1407-0.3638-0.377-0.1063-0.2354 0.2096 0 0.1033-0.2354-0.1033-0.2384 0.1063-0.1895-0.2067-0.3791-0.1321-0.08041-0.1809-0.05744-0.2039-0.03447-0.0315 0.03159-0.02874 0.06317-0.1063-0.1551-0.1579-0.3799 0.05177-0.1895 0.05177-0.472 0-0.2843-0.1033-0.2354-0.2585-0.4709-0.1579-0.2411-0.05453-0.3839-0.1063-0.8116-0.05177-0.4217-0.05177-0.378-0.4136-0.7537-0.3656-0.3799-0.5218-0.9006-0.4205-2.368 0.1063-1.468 0.8876-1.846 1.149-2.132 0.2585-0.2815 0.4173-0.5675 0.1091-0.8512-0.3159-0.2872-0.5278-0.2872-0.474-0.475 0.05177-0.1895 0.5218-0.1895 0.6778 0.04882 0.1579 0.2354 0.1063 0.6169 0.3657 0.6169 0.2614 0 0.5207-0.2354 0.2614-0.4762-0.2614-0.2354-0.5734-0.2785-0.6789-0.6604-0.03445-0.1321-0.07756-0.2183-0.112-0.2929-3.173 4.264-5.055 9.549-5.055 15.27 0 14.13 11.46 25.59 25.59 25.59 9.868 0 18.42-5.587 22.7-13.77v-0.3362c0-0.5683-0.4669-0.2843-0.6252-1.516-0.1522-1.233 0.2614-1.749 0.5754-2.132 0.3142-0.378-0.1033-0.6159-0.2096-0.9927-0.1033-0.3768-0.2614-0.5695-0.2614-1.182 0-0.6179-1.043-0.9967-1.252-1.421-0.2126-0.4264-0.05177-0.4264 0.1063-1.042 0.1579-0.6169 0.4689-0.8012 0-1.135-0.2699-0.1895-0.4906-0.1465-0.7173-0.1005-0.1665 0.03447-0.3362 0.06604-0.5339 0-0.4701-0.1407-0.3667-0.8024-1.096-0.7579-0.7293 0.04594-0.624 0.3291-1.146 0.5663-0.3079 0.1407-0.6148 0.06604-0.9451 0-0.2297-0.05169-0.4681-0.1034-0.7254-0.08327-0.6211 0.04594-0.4163 0.1895-0.9352 0.1895-0.5226 0-0.6797-0.3346-0.94-0.8067-0.2614-0.472-0.9907-0.7587-1.199-1.09-0.2096-0.3281-0.838-1.279-0.8833-1.654-0.05453-0.3811 0.04587-0.6628 0.2555-1.423 0.2096-0.7537-0.1063-0.3768-0.2555-0.6148-0.1608-0.2354 0.04587-0.6132 0.3098-1.04 0.2614-0.4276 0.4669-0.8063 0.9382-1.374 0.4661-0.5663 0.3616-0.3807 0.9402-0.6136 0.5713-0.2354 0.2555-0.8551 0.4142-1.233 0.1579-0.376 0.1579-0.2354 0.5754-0.4762 0.4163-0.2327 0.4163-0.4224 0.8339-0.7516 0.4152-0.3313 0.4701 0 0.9907 0.04307 0.5226 0.04882 0.4681-0.04307 0.9402-0.2354 0.465-0.1895 0.7303-0.2384 1.304-0.4274 0.3594-0.1177 0.6159-0.1063 0.9663-0.09189 0.2039 0 0.4419 0.02872 0.7518 0 0.838-0.04307 0.4173 0.3343 0.3657 0.8549-0.05177 0.5218-0.1063 0.4268 0.1522 0.6608 0.2642 0.2384 0.9939 0.2384 1.411 0.2872 0.4152 0.04882 0.311 0.1407 0.7283 0.376 0.4195 0.2384 0.4713 0.2878 0.8896 0.4264 0.04882 0.02872 0.08898 0.02872 0.1177 0.02872-0.3494-1.182-0.7811-2.327-1.294-3.433 0 0.07466 0.02874 0.1637 0.02874 0.2815 0 0.2843-0.2614 0.3335-0.5764 0.5197-0.3118 0.1895-0.2585 0-0.5756-0.1867-0.3098-0.1895 0.05453-0.1895 0.5258-0.1895 0.4661 0 0.3142-0.1924 0.3648-0.475 0.05177-0.2843-0.1579-0.3282-0.4689-0.472-0.311-0.1436-0.3659-0.1436-0.8886-0.378-0.5207-0.2354-0.311-0.3335-0.6768-0.5703-0.3636-0.2354-0.313-0.2843-0.7323-0.09476-0.4136 0.1895-0.3081 0.1436-0.8327 0.1895-0.5207 0.05169-0.2585 0-0.5207 0.1924-0.2642 0.1924-0.1579 0.2354-0.3657 0.5197-0.2096 0.2878-0.315 0.1436-0.6746 0.4762-0.3679 0.3291 0 0-0.05748 0.5195-0.04882 0.5228-0.1522 0.1895-0.6758 0.5228-0.3222 0.2067-0.4256 0.1723-0.5177 0.1436-0.05748-0.02872-0.112-0.0402-0.2096-0.002952-0.2614 0.09189-0.3154 0.1924-0.6264 0.05169-0.3138-0.1465-0.2096-0.1895-0.4193-0.2411-0.2039-0.04307-0.3648-0.1867-0.4693-0.5197-0.1033-0.3311 0.05453-0.3311 0.2096-0.7081 0.1579-0.3787-0.05177-0.3787-0.05177-0.6148 0-0.2384 0.1063-0.3354 0.2585-0.3354 0.1579 0 0.7283 0.05169 1.042 0.05169h0.7831s0.315-0.1436 0.315-0.4906c0-0.3463 0.1752-0.5045-0.1752-0.6937-0.3484-0.1895-0.3484-0.1235-0.5571-0.2843-0.2067-0.1579-0.3474-0.2528-0.03445-0.3768 0.3142-0.1264 0.4862-0.09764 0.7659-0.2528 0.2728-0.1608 0.6577-0.2843 0.4488-0.3455-0.2096-0.06604-0.2096-0.06604-0.4488-0.06604-0.247 0-0.2096 0-0.5226 0.09476-0.3142 0.09764-0.453 0.474-0.453 0.09764 0-0.3799-0.0315-0.1579 0.0374-0.5053 0.0689-0.3486-0.2441-0.09764 0.0689-0.3486 0.3142-0.2498 0.4874-0.1579 0.3839-0.3768-0.1063-0.2211 0.2067 0-0.1063-0.2211-0.315-0.224-0.0689-0.3171-0.315-0.224-0.02874 0-0.04882 0.02872-0.0689 0.02872 0-0.02872-0.02874-0.05169-0.0689-0.1206-0.1722-0.2843-0.3154-0.1608-0.2441-0.4437 0.07185-0.2815-0.3118-0.2183 0.2096-0.4104 0.5218-0.1895 0.6272-0.313 0.7638-0.1551 0.1407 0.1551 0.3486 0.224 0.2096 0.4112-0.1435 0.1867-0.247 0.3478-0.1063 0.5341 0.1378 0.1895 0.2441 0.2528 0.4205 0.4112 0.1722 0.1579-0.03445 0.2528 0.2384 0.3474 0.2815 0.09476 0.5226 0.1579 0.4537 0.3443-0.0689 0.1924-0.3138 0.537-0.03445 0.4124 0.2785-0.1264 0.3102-0.2872 0.6585-0.537 0.3474-0.2498 0.4843-0.2211 0.8701-0.3768 0.1839-0.07466 0.311-0.08041 0.3831-0.09764-1.98-2.547-4.433-4.713-7.228-6.36-0.04016 0.06604-0.1006 0.1493-0.301 0.4427-0.4205 0.626-0.1579 0.1924-0.6341 0.6778-0.4801 0.4801-0.2699 0.2878-1.328 0.3839-1.063 0.09764-0.9045 0.2878-1.487 0.5776-0.5854 0.2937-0.7972 0.2937-1.862 0.5795-1.062 0.2898-0.7992 0.7234-1.221 1.207-0.4244 0.4843-0.3181 0.3839-1.117 0.1436-0.7951-0.2384-0.9543-0.8661-0.9543-1.831 0-0.6646 0.2039-0.6646 0.5026-0.6636 0.135 0 0.2878 0 0.4518-0.06032 0.5321-0.1924-0.05177-0.3362-0.2096-0.5764-0.1608-0.2441-0.3181-0.2441-0.1608-0.5823 0.1608-0.3366 0-0.2411-0.315-0.6736-0.224-0.303-0.473-0.2756-1.108-0.2498-0.2756 0-0.6211 0.02872-1.069 0-1.489-0.05169-0.4772-0.1465-0.3728-0.5307 0.07185-0.2642 0.5165-0.2354 1.008-0.2039 0.2297 0 0.4709 0.02872 0.6898 0 0.6909-0.04882 0.3181-0.2384-0.1063-0.4356-0.4232-0.1895-0.689 0-1.329 0.1493-0.6364 0.1407-0.8986 0.2872-1.327 0.3839-0.4224 0.09764-0.636 0.1953-1.326 0.4813-0.6929 0.2927-0.4274 0.2411-0.9033 0.4356-0.4813 0.1953-0.3173 0.09764-0.848 0.09764-0.5339 0-0.5339-0.04594-1.063-0.04594-0.5327 0-0.3179-0.05169-0.4801-0.39-0.1579-0.3362 0.2671 0 0.6902 0.05169 0.4252 0.04882 0.3736-0.05169 0.9055-0.1924 0.5299-0.1436 0.6372-0.2886 1.221-0.6778 0.5835-0.3839-0.3199-0.2384-0.6909-0.2384-0.3736 0-0.3191 0.09764-0.7447 0.2384-0.4232 0.1436-0.4781 0.09764-0.8476-0.04882-0.3707-0.1436 0.2126-0.3354 0.4244-0.5278 0.2126-0.1924 0.6898 0 1.008 0.04594 0 0 0.636-0.09476 1.119-0.1436 0.475-0.04882 0.5815-0.1465 1.588-0.2441 0.5746-0.05169 0.9443-0.04594 1.32-0.03732h0.9644c0.9049-0.04594 0.7457 0 1.383 0.04882 0.6392 0.05169 0.4264 0.1953-0.05177 0.2441-0.4789 0.04882-0.2671 0.1436-0.05177 0.2886 0.2096 0.1465 0.5835-0.1465 0.9543-0.1465s0.5319-0.09476 1.435-0.3354c0.1923-0.05169 0.386-0.09189 0.5787-0.1206-2.317-0.6909-4.772-1.066-7.313-1.066-5.413 0-10.43 1.685-14.56 4.553m7.276-1.683c0.2671 0 0.5319 0.05169 0.477 0.3394-0.05177 0.2906-0.636 0-0.9563 0-0.3181 0-0.4762 0.1436-0.9018 0.2411-0.4264 0.09764-0.6413-0.09764-0.7415-0.3354-0.1091-0.2441 0.9006-0.2441 0.9006-0.2441s0.2671 0.1005 0.6372 0.1005c0.3707 0 0.3203-0.1005 0.5846-0.1005m2.175 3.524c0.2642-0.1953 0.3193-0.3848 0.6921-0.2411 0.3738 0.1465 0.9045 0.5331 0.636 0.5795-0.2614 0.04882-0.1579-0.04594-0.477-0.09764-0.3191-0.04594-0.3707 0-0.5854 0.09764-0.2096 0.09764-0.2096 0.1465-0.3699 0.1465 0 0-0.1579-0.2898 0.1033-0.4844m20.08 4.453c-0.03445-0.2528 0.135-0.2528 0.135-0.5022 0-0.2528-0.1033-0.2528-0.03169-0.4144 0.0689-0.1551-0.1033-0.1235 0.1752-0.2498 0.2728-0.1264 0.3102-0.1551 0.5187-0.1551 0.2067 0 0.1378 0.1235 0.3819 0.02872 0.135-0.05457 0.2498 0 0.2917 0.02872-0.1722 0.05457-0.2268 0.03447-0.2585 0.2555-0.03445 0.2555 0.1378 0.3484-0.03445 0.5996-0.1752 0.2528-0.1063 0.2872-0.4821 0.3203-0.2785 0.02872-0.5006 0.1895-0.6148 0.1895-0.04587 0-0.07185-0.02872-0.08327-0.09764m-25.96 10.31c0.1063-0.1895 0.6898-0.2872 0.6898-0.2872s0.4801 0 0.8539 0.09764c0.3687 0.09476 0.3687 0.1895 0.7425 0.4317 0.3728 0.2411 0.4224 0.09764 0.6917 0.1953 0.2614 0.09189 0.2614 0.2384 0 0.3335-0.2699 0.09764-0.2699 0-0.6917-0.1436-0.4264-0.1436-0.4264-0.2909-0.689-0.4317-0.2699-0.1465-0.4821-0.2441-1.117-0.1005-0.2528 0.05744-0.3972 0.08327-0.4732 0.08327-0.1177 0-0.07185-0.06317 0-0.1838m3.561 1.306c0.1063-0.3406-0.2671-0.1953 0.1063-0.3406 0.3707-0.1407 0.7931-0.2872 1.113-0.1407 0.3181 0.1407 1.01 0.2411 0.5866 0.4327-0.4287 0.1953-0.689 0.09764-0.9565 0.1953-0.2642 0.09764-0.3191 0.1465-0.7984 0.1465-0.4781 0-0.6352-0.09764-0.5299-0.2441 0 0 0.1494 0.1177 0.2843 0.1177 0.08051 0 0.1551-0.0402 0.1923-0.1637m2.073 0.2411c-0.1608-0.04882-0.05177-0.1953-0.05177-0.1953s0.2096-0.09764 0.4232-0.09764c0.2096 0 0.1033 0.1436 0 0.2917-0.0374 0.04595-0.08898 0.0603-0.1435 0.0603-0.1091 0-0.2268-0.0603-0.2268-0.0603m-3.774-0.09764c-0.3161-0.1436 0.3717-0.1953 0.3717-0.1953 0.1579 0.04882 0.3193 0.1436 0.1579 0.2917-0.05453 0.04882-0.09764 0.06892-0.1435 0.06892-0.08622 0-0.1809-0.07179-0.386-0.1666m5.543 25.91c0.02874 0 0 0 0 0" style="fill:url(#radialGradient7443-9);stroke-width:1.013"/>
</svg>
