<?xml version="1.0" encoding="UTF-8" standalone="no"?>
<svg xmlns:dc="http://purl.org/dc/elements/1.1/" xmlns:cc="http://creativecommons.org/ns#" xmlns:rdf="http://www.w3.org/1999/02/22-rdf-syntax-ns#" xmlns:svg="http://www.w3.org/2000/svg" xmlns="http://www.w3.org/2000/svg" xmlns:xlink="http://www.w3.org/1999/xlink" xmlns:sodipodi="http://sodipodi.sourceforge.net/DTD/sodipodi-0.dtd" xmlns:inkscape="http://www.inkscape.org/namespaces/inkscape" version="1.1" viewBox="0 0 100.61255 100.77" id="svg9094" sodipodi:docname="i24a.svg" inkscape:version="0.92.2 (5c3e80d, 2017-08-06)" width="100.61255" height="100.77">
  <metadata id="metadata9098">
    <rdf:RDF>
      <cc:Work rdf:about="">
        <dc:format>image/svg+xml</dc:format>
        <dc:type rdf:resource="http://purl.org/dc/dcmitype/StillImage" />
        <dc:title></dc:title>
      </cc:Work>
    </rdf:RDF>
  </metadata>
  <sodipodi:namedview pagecolor="#ffffff" bordercolor="#666666" borderopacity="1" objecttolerance="10" gridtolerance="10" guidetolerance="10" inkscape:pageopacity="0" inkscape:pageshadow="2" inkscape:window-width="2560" inkscape:window-height="1001" id="namedview9096" showgrid="false" inkscape:zoom="4.7152848" inkscape:cx="45.502601" inkscape:cy="70.281266" inkscape:window-x="-9" inkscape:window-y="41" inkscape:window-maximized="1" inkscape:current-layer="svg9094" fit-margin-top="0.3" fit-margin-left="0.3" fit-margin-right="0.3" fit-margin-bottom="0.3" />
  <defs id="defs9082">
    <linearGradient id="linearGradient19435-5-8" x1="0.77307844" x2="0.22702704" y1="-0.41900957" y2="0.42195335" gradientTransform="matrix(30.74,-19.96,19.96,30.74,326.8,90.8)" gradientUnits="userSpaceOnUse">
      <stop style="stop-color:#696969" offset="0" id="stop9053" />
      <stop style="stop-color:#c7c7c9" offset=".17" id="stop9055" />
      <stop style="stop-color:#f9f9ff" offset=".36" id="stop9057" />
      <stop style="stop-color:#ccccce" offset=".73" id="stop9059" />
      <stop style="stop-color:#696969" offset="1" id="stop9061" />
    </linearGradient>
    <linearGradient id="linearGradient19433-8" x1="-1405" x2="1" y1="704.40002" y2="781.40002" gradientTransform="matrix(16.75,-23.92,23.92,16.75,333.8,92.78)" gradientUnits="userSpaceOnUse">
      <stop style="stop-color:#1c072d" offset="0" id="stop9064" />
      <stop style="stop-color:#5700aa" offset="0.40801954" id="stop9066" />
      <stop style="stop-color:#290a43;stop-opacity:1" offset="0.67231017" id="stop9068" />
      <stop style="stop-color:#140521;stop-opacity:1" offset="1" id="stop9070" />
    </linearGradient>
    <radialGradient id="radialGradient7443-9" cx="344.29999" cy="79.309998" r="12.73" gradientTransform="matrix(2.625,0,0,2.680125,-848.02383,-166.188)" gradientUnits="userSpaceOnUse">
      <stop style="stop-color:#fbfbfb" offset="0" id="stop9073" />
      <stop style="stop-color:#f9f9ff" offset=".2717" id="stop9075" />
      <stop style="stop-color:#ccccce" offset=".5976" id="stop9077" />
      <stop style="stop-color:#696969" offset="1" id="stop9079" />
    </radialGradient>
    <radialGradient inkscape:collect="always" xlink:href="#linearGradient19433-8" id="radialGradient9643" cx="344.07022" cy="78.35569" fx="344.07022" fy="78.35569" r="14.6" gradientUnits="userSpaceOnUse" gradientTransform="matrix(2.507933,0,0,2.5385096,-807.13994,-154.88398)" />
    <linearGradient inkscape:collect="always" xlink:href="#linearGradient19435-5-8" id="linearGradient9651" x1="320.4241" y1="80.82" x2="362.72522" y2="80.82" gradientUnits="userSpaceOnUse" gradientTransform="matrix(2.625,0,0,2.625,-848.02383,-161.7675)" />
    <linearGradient inkscape:collect="always" xlink:href="#linearGradient19435-5-8" id="linearGradient35962" gradientUnits="userSpaceOnUse" gradientTransform="matrix(80.6925,-52.395,52.395,80.6925,9.8261694,76.5825)" x1="0.7922852" y1="-0.44858953" x2="0.20782028" y2="0.45153332" />
  </defs>
  <path inkscape:connector-curvature="0" id="path9084" style="fill:url(#linearGradient9651);fill-opacity:1;stroke-width:1.35082495" d="M 15.601169,15.63 C 5.9726694,25.318875 0.28166936,37.561875 0.30004436,50.385 0.51056936,76.495875 24.190169,100.28625 50.306294,100.47 76.422419,100.29767 100.10254,76.4985 100.31255,50.385 100.10202,24.274125 76.419794,0.48375 50.306294,0.3 H 50.245131 C 37.437756,0.3 25.242007,5.9805 15.595132,15.622125 M 10.468506,50.377125 C 10.468506,39.997875 14.849632,30.154125 22.467381,22.499625 30.095632,14.866125 39.928881,10.471875 50.292382,10.47975 71.520756,10.575484 90.008632,29.13825 90.113631,50.37975 90.006531,71.613375 71.510256,90.17475 50.292382,90.27975 29.066632,90.184016 10.576131,71.623875 10.471131,50.37975" />
  <path inkscape:connector-curvature="0" id="path9086" style="fill:url(#linearGradient35962);fill-opacity:1;stroke-width:1.35082495" d="M 50.251169,2.26875 C 37.399169,2.26875 25.316294,7.274625 16.231169,16.362375 7.1434194,25.450125 2.1375444,37.533 2.1375444,50.382375 2.1375444,76.921125 23.722919,98.498625 50.253794,98.498625 76.792544,98.498625 98.370044,76.91325 98.370044,50.382375 98.370044,23.843625 76.784669,2.266125 50.253794,2.266125 Z M 11.926169,50.385 C 11.926169,40.150125 15.910919,30.5295 23.148044,23.295 30.385169,16.057875 40.005794,12.073125 50.238044,12.073125 71.366669,12.073125 88.563044,29.261625 88.563044,50.398125 88.563044,71.524125 71.374544,88.723125 50.238044,88.723125 29.112044,88.723125 11.913044,71.534625 11.913044,50.398125" />
  <path inkscape:connector-curvature="0" id="path9088" style="fill:url(#radialGradient9643);fill-opacity:1;stroke-width:1.35082495" d="M 11.926169,50.385 C 11.926169,71.54775 29.080544,88.71 50.251169,88.71 71.413919,88.71 88.576169,71.553 88.576169,50.385 88.576169,29.219625 71.419169,12.06 50.251169,12.06 29.088419,12.06 11.926169,29.214375 11.926169,50.385" />
  <path inkscape:connector-curvature="0" id="path9090" style="fill:url(#radialGradient7443-9);stroke-width:1.35082495" d="M 31.613669,22.42875 C 31.785869,22.390451 31.973556,22.42875 32.283306,22.486185 33.118581,22.677653 33.818144,22.73892 34.371756,22.93086 34.928519,23.118495 34.651319,23.434335 35.830731,23.49681 37.011719,23.56191 37.365569,23.684445 37.710232,23.49681 38.054894,23.309175 38.960781,23.247908 37.920756,23.11776 36.878106,22.991392 36.737406,23.18286 36.457844,22.868858 36.178282,22.554908 35.972744,22.803758 36.113181,22.362233 36.250994,21.920708 36.388807,22.044345 36.250994,21.730132 36.113181,21.416183 36.946882,21.354757 36.113181,21.416183 35.277381,21.47745 35.413619,21.538718 34.997294,21.603818 34.579919,21.668918 33.819456,22.168193 34.166744,21.668918 34.511406,21.162292 34.235781,21.162292 34.929831,20.90793 35.622831,20.659027 35.697382,20.659027 36.389856,20.59398 37.085744,20.52888 38.057257,20.52888 37.431457,20.846715 36.804606,21.164602 36.318194,21.35334 36.737144,21.416865 37.153469,21.478133 36.179069,21.6045 37.500231,21.478133 38.820081,21.351765 38.891744,21.351765 39.446931,21.351765 40.005006,21.351765 39.653781,21.351765 40.212906,21.286665 40.769669,21.225398 41.601794,20.907615 41.184419,21.225398 40.769669,21.539348 40.143869,21.286665 40.212906,21.728873 40.281944,22.169348 39.933344,22.235497 40.557569,22.360973 41.183369,22.48734 41.322231,22.740022 40.833194,22.740022 40.348356,22.740022 40.557569,22.617487 39.930981,22.740022 39.689744,22.789793 39.493394,22.778321 39.335106,22.73849 39.082319,22.700191 38.932694,22.658086 38.889381,22.93379 38.816669,23.371377 38.474632,23.499739 39.237981,23.565889 40.003956,23.623325 39.790281,23.688425 40.487481,23.500789 40.763106,23.428024 40.854981,23.462491 40.892519,23.500789 40.950006,23.569722 40.891364,23.638654 41.183631,23.297825 41.670044,22.726362 42.021007,22.349412 41.949606,22.664149 41.880569,22.9781 41.811794,23.0432 41.670044,23.2343 41.532231,23.421935 41.463194,23.800249 41.880569,23.552187 42.292694,23.299452 42.782781,23.487087 42.782781,22.920087 42.782781,22.350987 42.503219,22.286412 42.851819,22.1591 43.200419,22.032732 43.482607,21.783725 43.131382,21.783725 42.782781,21.783725 42.506107,21.910092 42.158819,21.844992 41.814157,21.783725 41.534594,21.783725 41.744069,21.531042 41.950919,21.278307 41.950919,21.151992 42.572256,21.092142 43.201731,21.027042 42.782781,21.092142 43.201731,21.027042 43.619106,20.965774 43.481294,20.582367 43.619106,20.965774 43.756919,21.344825 43.339544,21.344825 43.756919,21.344825 44.175869,21.344825 44.310531,21.344825 44.660706,21.153357 45.012981,20.965722 45.078081,20.965722 45.353706,20.83547 45.495456,20.77037 45.583394,20.90057 45.686819,21.023105 45.790244,21.153305 45.912831,21.27584 46.121781,21.214572 46.536531,21.088205 47.440319,20.961837 47.998131,20.961837 48.551744,20.961837 48.277694,20.961837 49.114019,21.214572 49.943519,21.467307 50.501331,21.40604 50.847044,21.781572 51.195644,22.156947 51.610131,22.156947 51.610131,22.542034 51.610131,22.921085 51.053631,23.106934 51.682844,23.235035 51.916469,23.280972 52.089457,23.273333 52.228581,23.273333 52.462207,23.273333 52.592406,23.235035 52.721819,23.48777 52.928669,23.870757 53.281206,24.054769 52.928669,24.184707 52.584007,24.307242 52.513919,24.307242 52.164269,24.307242 51.819607,24.307242 50.917132,23.742342 51.194332,24.184707 51.477832,24.626495 52.027506,24.626495 51.960306,24.877707 51.895207,25.134275 51.960306,25.382757 51.541357,25.382757 51.118732,25.382757 50.917132,25.317657 50.705556,25.25639 50.498706,25.195122 50.636519,24.69149 50.498706,25.195122 50.360894,25.699122 51.051269,25.570497 50.360894,25.699122 49.662381,25.825489 49.662381,25.886757 49.384132,25.634022 49.112181,25.381287 49.112181,25.316134 48.827631,25.193547 48.548069,25.063347 48.900344,25.00208 48.204981,25.00208 47.504894,25.00208 47.230844,25.31603 47.156556,25.00208 47.091456,24.688129 47.229269,24.500705 47.784456,24.43718 47.979756,24.398881 48.083181,24.439804 48.159831,24.475478 48.297644,24.521416 48.355132,24.56738 48.756756,24.314645 49.384656,23.93927 50.011506,24.12701 49.732206,23.621645 49.456581,23.117644 49.315881,22.929957 48.828419,22.802907 48.342006,22.67654 48.205769,22.67654 47.647957,22.67654 47.092769,22.67654 46.812681,22.554005 46.812681,22.868007 46.812681,23.181957 46.885394,23.433957 46.674869,23.562582 46.468019,23.685117 46.533119,23.876532 46.185831,23.937957 45.841169,24.003057 45.913882,24.003057 45.491257,24.003057 45.076506,24.003057 44.589044,24.447207 44.796944,24.003057 45.011406,23.562582 44.796944,23.620069 45.218519,23.368069 45.634319,23.119167 45.841169,23.310635 45.912831,22.868007 45.951156,22.66121 45.951156,22.66121 45.912831,22.66121 45.874506,22.66121 45.836181,22.662743 45.759531,22.358809 45.621719,21.790234 45.759531,22.232442 45.621719,21.790234 45.479969,21.349759 46.173231,21.098547 45.479969,21.349759 44.785656,21.602495 44.785656,21.476127 44.440994,21.725135 44.092394,21.97787 43.951956,21.916602 44.092394,22.357235 44.226269,22.799022 44.161169,22.86386 44.505569,22.86386 44.854169,22.86386 45.339269,22.925127 44.924519,23.242909 44.505569,23.560797 44.369331,23.560797 44.439419,23.87396 44.504519,24.187909 44.924519,24.187909 44.297669,24.443847 43.675019,24.696582 43.395456,25.069647 42.491669,25.388059 41.587881,25.705947 41.309631,25.575695 40.616369,26.017534 39.919431,26.46221 39.777419,26.274102 39.572144,26.775372 39.361619,27.284622 39.156344,27.218472 39.434331,27.595685 39.713894,27.978672 39.920744,28.10231 40.338119,28.227785 40.757069,28.357985 41.034006,28.73441 41.657969,28.799247 41.849331,28.837546 42.033344,28.799247 42.193994,28.799247 42.550206,28.799247 42.774906,28.760948 42.633156,29.040485 42.426307,29.415859 41.937269,30.109385 42.216831,30.427797 42.492456,30.741747 43.053156,31.118172 43.396244,30.427797 43.744844,29.729284 43.534056,29.416122 44.021519,29.101385 44.201594,28.986514 44.370119,28.990347 44.529719,28.994153 44.805344,28.994153 45.053669,28.994153 45.274169,28.403791 45.622769,27.459578 45.136356,27.584003 45.622769,27.080003 46.107869,26.574428 46.174282,26.324791 46.454894,25.946528 46.734456,25.563541 46.943931,25.693793 47.773431,25.820161 48.612381,25.946528 49.236606,26.513161 49.027131,26.957836 48.816606,27.399361 48.401856,27.522211 48.816606,27.584686 49.236606,27.649786 49.373106,27.714886 49.859256,27.274411 50.349869,26.827636 50.555144,26.513948 50.765931,26.827636 50.968844,27.149198 51.183306,27.206686 51.106656,27.716461 51.037619,28.217836 50.693481,28.091836 50.968844,28.535198 51.252344,28.974098 52.086306,28.974098 52.295782,29.354986 52.502631,29.730361 52.988519,30.053498 52.502631,30.239873 52.016219,30.431341 52.154031,31.057036 52.154031,31.313498 52.154031,31.566233 52.433594,31.566233 52.710532,31.881023 52.990094,32.198911 53.196944,32.636236 52.852281,32.699761 52.503682,32.764861 52.710532,32.573393 52.017531,32.573393 51.320594,32.573393 50.488469,32.699761 50.555931,32.443193 50.624707,32.194291 50.693744,32.129243 51.108494,31.812406 51.531119,31.494518 51.809631,31.433356 51.809631,31.052993 51.809631,30.681556 51.809631,30.426143 51.393307,30.681556 50.970681,30.926626 51.109807,31.180043 50.555931,31.180043 50.000744,31.180043 49.930656,31.114943 49.304856,31.114943 48.683781,31.114943 48.475357,30.862208 47.985269,31.114943 47.494656,31.367678 46.874894,31.622618 46.801656,31.810831 46.736557,32.002298 47.146319,32.002298 47.494656,31.875931 47.846932,31.749563 48.890107,31.749563 48.538882,32.002298 48.194219,32.255033 47.847194,32.316248 47.985006,32.631773 48.126756,32.949661 48.956257,33.201923 49.237131,32.949661 49.512756,32.696926 50.417857,32.823293 50.071882,33.076028 49.719606,33.328763 49.513807,33.646178 48.955994,33.833866 48.661206,33.937265 48.464331,33.891301 48.272444,33.833866 48.099981,33.795567 47.931719,33.757268 47.706494,33.833866 47.220081,33.960233 46.801131,33.960233 46.523144,33.898966 46.243581,33.833866 46.316294,33.707498 45.901544,33.772598 45.479969,33.833866 45.340844,34.213073 44.720819,34.592386 44.093969,34.971436 43.951956,35.035486 43.468169,35.411123 42.975456,35.790173 42.907469,36.046111 42.491669,36.359273 42.071669,36.677161 42.426569,36.742261 42.071669,36.677161 41.730944,36.612061 41.588144,36.298111 41.520156,36.612061 41.451119,36.929948 41.451119,36.991111 41.520156,37.240486 41.589194,37.497053 41.730681,37.619536 41.589194,37.937423 41.451381,38.251373 41.171819,38.320411 40.686719,38.571098 40.200306,38.820001 40.200306,38.885048 39.573456,39.262786 38.949231,39.645773 38.740281,39.580673 38.602206,40.145048 38.464394,40.714936 38.533169,40.974548 38.533169,41.602448 38.533169,42.231923 38.881769,42.671348 38.464131,42.862973 38.044131,43.050608 37.558769,42.732773 37.558769,41.978086 37.558769,41.224186 37.486057,40.843561 37.486057,40.843561 37.486057,40.843561 36.998594,40.713361 36.583844,40.652093 36.164894,40.590826 35.885332,40.529558 35.398919,40.529558 34.915394,40.529558 34.704606,40.464458 34.704606,40.652093 V 41.162656 C 34.704606,41.162656 34.704606,41.411558 34.359944,41.346458 34.011344,41.289023 33.876419,41.223923 33.522569,41.093723 33.177906,40.975021 33.806069,40.591036 32.692019,40.975021 31.580069,41.346458 31.230419,41.346458 31.024619,41.978821 30.814094,42.610921 30.951906,42.735083 30.676019,43.175821 30.396456,43.621546 30.048119,43.937596 30.186982,44.629021 30.328731,45.327533 30.470481,46.146271 30.882869,46.270696 31.300244,46.400896 31.714994,46.400896 32.347094,46.331963 32.968694,46.270696 33.106506,46.018013 33.389744,45.643163 33.665369,45.260176 34.011344,45.008176 34.566531,45.008176 35.127231,45.008176 35.263731,45.073276 34.850031,45.643163 34.432656,46.206488 33.733094,46.715738 33.942569,47.217113 34.153094,47.723738 34.360994,47.535001 34.985219,47.473681 35.611019,47.404748 36.101106,47.534948 36.167256,47.787631 36.239969,48.036533 36.515856,48.415531 36.305069,48.665693 36.098219,48.918428 36.377781,49.805731 36.377781,49.805731 36.377781,49.805731 36.377781,49.935931 36.584631,50.373256 36.791481,50.813731 36.864194,50.939206 37.139819,50.875681 37.419381,50.814413 37.558244,50.250406 37.906844,50.250406 38.255444,50.250406 38.113694,50.250406 38.463606,50.495476 38.808269,50.748211 39.087831,50.748211 39.087831,50.748211 39.087831,50.748211 39.087831,50.786509 39.049506,50.805646 39.486044,50.012633 40.508481,49.883221 40.508481,49.883221 40.508481,49.883221 40.864694,49.561658 41.357144,49.307558 41.856944,49.050991 41.357144,49.430093 41.571606,49.819433 41.786069,50.205833 41.571606,49.819433 42.210269,49.562866 42.849456,49.310131 42.210269,49.562866 42.914031,49.631798 43.624881,49.693066 42.914031,49.631798 43.342432,50.079098 43.625932,50.377823 43.625932,50.335666 43.842232,50.293535 43.953269,50.255236 44.117856,50.251403 44.402931,50.255236 45.253694,50.316503 45.466056,50.389268 46.461456,50.772623 47.450556,51.155611 46.813731,50.898991 47.731169,51.796636 48.451469,52.505911 48.391619,52.500398 48.636531,52.497773 48.705569,52.496623 48.797444,52.495148 48.938932,52.497773 49.576544,52.562873 50.566694,52.946123 50.992206,53.401561 51.419294,53.844661 51.275706,53.975648 51.419294,54.422948 51.557106,54.875498 51.915157,54.875498 52.481107,55.392886 53.047056,55.908961 53.189069,55.576688 53.900969,55.972748 54.606044,56.355998 54.392631,56.164216 55.385669,56.421098 56.378706,56.677666 55.953194,56.612566 56.803956,57.063961 57.652619,57.516511 57.440519,57.446948 58.359007,57.769298 59.283006,58.090861 58.569531,58.348636 58.500756,59.059486 58.428044,59.765873 57.156231,60.858923 56.802381,61.568198 56.450106,62.274586 56.729669,62.593261 56.729669,63.175748 56.729669,63.756661 56.729669,63.820186 56.446169,64.461736 56.158994,65.108798 56.089957,65.108798 55.879169,65.429048 55.664706,65.750611 55.241294,66.263798 54.814731,66.263798 54.390531,66.263798 54.244581,66.263798 53.467581,66.847336 52.691106,67.422998 52.760931,67.675523 52.828919,68.255123 52.901631,68.833411 52.828919,68.515523 52.759882,68.774086 52.690844,69.026821 52.759882,68.774086 52.403669,69.095648 52.047456,69.413536 52.403669,69.352216 52.334631,69.604898 52.265594,69.865298 52.124106,69.990248 52.047456,70.184761 51.978419,70.380061 51.698856,70.633111 51.554481,70.831561 51.416669,71.019196 51.057044,71.603048 50.493719,71.727211 49.929344,71.861243 49.500681,71.665943 49.357619,71.991548 49.219806,72.313111 49.357619,71.991548 49.572082,72.313111 49.786544,72.638611 49.641119,72.504578 49.713831,73.019498 49.786544,73.535311 49.713831,73.276066 49.146831,73.792298 48.583244,74.307061 48.583244,73.792298 48.153794,73.792298 47.728019,73.792298 47.805194,74.048866 47.805194,74.243273 47.805194,74.434741 47.805194,74.503673 47.590731,74.564836 47.380206,74.629936 47.307231,74.629936 47.097756,74.952811 46.982782,75.12131 46.990394,75.113645 47.051819,75.102147 47.105369,75.102147 47.208794,75.102147 47.308281,75.209378 47.518807,75.469778 47.518807,75.331913 47.518807,75.725191 47.518807,76.108966 47.449769,75.985591 47.377056,76.367003 47.304344,76.756028 47.377056,76.367003 46.949969,76.822441 46.712669,77.075176 46.743119,77.04071 46.812156,77.013908 46.869644,76.975609 46.949969,76.967945 46.949969,77.075176 46.949969,77.331743 47.022682,77.270476 47.237144,77.587051 47.447669,77.908613 47.589419,77.847451 47.660031,78.102863 47.729069,78.359431 47.660031,78.102863 47.587319,78.747301 47.545057,79.126351 47.548994,79.061251 47.537444,78.992371 47.537444,78.946407 47.499119,78.90047 47.445569,78.992371 47.303819,79.248938 47.235044,79.183838 47.235044,79.443871 47.235044,79.700438 47.235044,79.443871 47.376794,79.892221 47.457119,80.156558 47.445831,80.11049 47.338469,80.068358 47.269431,80.030059 47.158394,80.007091 47.012969,80.068358 46.664369,80.263658 47.012969,80.328758 47.012969,80.328758 L 47.296469,80.455126 C 47.579969,80.585326 47.296469,80.455126 47.579969,80.328758 47.867144,80.198558 47.794431,80.585326 48.077406,80.712533 48.356969,80.842733 48.287931,80.904001 48.502919,81.034096 48.713444,81.164296 48.713444,81.164296 48.928431,81.290663 49.138956,81.417031 49.066244,81.482131 48.859394,81.547231 48.644931,81.608498 48.644931,81.547231 47.939069,81.547231 H 47.440844 C 46.943406,81.547231 47.299094,81.482131 47.299094,81.482131 47.299094,81.482131 47.015594,81.355763 46.452006,81.099143 46.195544,80.980441 46.172444,80.968943 46.180056,80.972776 46.141731,80.972776 46.111019,80.934477 46.026757,80.900011 45.599669,80.708543 45.812294,80.773643 45.666869,80.449036 45.594156,80.280537 45.594156,80.288202 45.609381,80.2997 45.609381,80.2997 45.647706,80.2997 45.609381,80.196301 45.536669,79.939733 45.463957,80.001001 45.463957,80.001001 L 45.040019,79.752098 C 45.040019,79.752098 44.898269,79.683166 44.541531,79.296661 44.357782,79.093696 44.365394,79.105193 44.396106,79.112858 44.434431,79.112858 44.468819,79.112858 44.396106,78.974993 44.254357,78.653431 44.327069,78.779693 44.043832,78.202718 43.875306,77.854118 43.909694,77.923156 43.948019,77.995947 43.986344,78.041911 43.997894,78.087848 43.986344,77.995947 43.917306,77.80448 44.200807,77.73938 44.200807,77.479872 44.200807,77.334368 44.200807,77.357337 44.135706,77.376473 44.085831,77.376473 44.001569,77.414772 43.852206,77.338174 43.499932,77.207974 43.852206,77.338174 43.783169,77.139042 43.706519,76.951407 43.499669,76.182492 43.499669,76.182492 43.499669,76.182492 43.426957,75.983359 43.281269,75.536742 43.139519,75.082617 43.281269,75.536742 43.499669,75.536742 43.710194,75.536742 43.783169,76.112404 43.851944,75.789477 43.917044,75.47159 43.782907,75.47159 43.564769,75.08309 43.354244,74.69984 43.354244,74.895454 43.281269,74.376702 43.212231,73.864827 43.139519,73.864827 43.001706,73.028765 42.863894,72.189815 43.139519,71.993727 43.212231,71.289964 43.281269,70.579639 42.863631,70.260702 42.863631,69.298639 42.863631,68.332902 42.863631,68.139965 42.928731,67.302064 43.001444,66.464689 42.786981,65.054277 42.718206,64.40669 42.645494,63.765402 42.153306,63.635465 41.090444,63.057177 40.028632,62.476265 39.954344,62.414315 39.603119,61.962815 39.243232,61.513152 38.325269,59.520515 37.829406,58.681565 37.330919,57.84419 36.768644,57.390327 36.982319,56.881077 37.192844,56.366315 37.261881,56.108277 37.192844,55.658352 37.123806,55.205802 37.123806,55.145165 37.688444,54.882927 38.253344,54.622527 38.183257,54.437202 38.604306,53.534727 39.035594,52.637764 38.680957,52.507039 38.876256,51.23549 38.738444,51.677277 38.669406,51.867589 38.669406,51.867589 38.669406,51.867589 38.462556,51.549702 38.181944,51.30059 37.906319,51.047854 37.623869,50.730439 37.484744,51.047854 37.350606,51.361804 37.557456,51.67733 37.277894,51.550279 36.994394,51.427745 37.208856,51.427745 36.787281,51.174904 36.372531,50.92217 36.511656,50.983437 36.233669,50.66723 35.954106,50.349342 36.720081,50.349342 35.954106,50.349342 35.185506,50.349342 35.121981,50.54081 35.050319,50.10044 34.977607,49.658652 35.184457,49.339977 34.843469,49.218177 34.698044,49.164575 34.613781,49.179878 34.533194,49.218177 34.422156,49.256476 34.322669,49.279444 34.078019,49.095642 33.660644,48.777755 33.936269,48.908007 33.244844,48.589017 32.547644,48.275067 32.477556,48.401382 31.781669,47.832229 31.087356,47.26733 30.735869,47.137917 30.530594,47.26733 30.323744,47.39753 29.071619,47.710692 27.959931,46.823179 26.849294,45.93698 26.637194,46.127292 26.637194,45.620667 26.637194,45.120867 27.261419,45.371765 26.775007,44.549142 26.288594,43.728042 25.732357,42.971517 25.314981,42.275629 24.896031,41.58263 24.547694,41.523042 24.547694,40.950267 24.547694,40.383267 24.689444,40.19663 24.340844,40.065642 23.992244,39.939274 23.715569,39.436167 23.644956,39.939274 23.579856,40.447475 23.503206,40.570324 23.713994,40.948325 23.920844,41.331312 23.920844,41.5211 24.128744,41.896737 24.339269,42.272112 24.201456,42.401787 24.408306,42.7181 24.615156,43.035987 25.032531,43.282475 24.891832,43.668875 24.754019,44.04425 24.684981,43.982824 24.476031,43.72631 24.269181,43.473575 24.127431,43.538675 23.990931,43.223622 23.849182,42.909672 24.270494,43.223622 24.128744,42.909672 23.990931,42.591785 24.270494,42.656937 23.853119,42.404097 23.676981,42.296866 23.611881,42.3275 23.581169,42.358133 23.539169,42.400264 23.542844,42.44237 23.439419,42.151336 23.228894,41.644711 23.508456,41.898601 23.508456,41.521861 23.508456,41.142811 23.370644,41.207911 23.163794,40.893961 22.953269,40.572398 23.091081,40.382086 23.022044,39.811673 22.953006,39.249398 22.953006,39.307673 22.470531,38.806561 21.983069,38.299936 21.774644,37.605623 21.909831,35.648686 22.051581,33.691486 23.093444,33.187486 23.442044,32.805811 23.786706,32.430436 23.998544,32.049023 23.587469,31.670761 23.166156,31.287773 22.883706,31.287773 22.955369,31.037348 23.024406,30.784613 23.651256,30.784613 23.859156,31.102448 24.069681,31.416398 24.000906,31.925123 24.346882,31.925123 24.695481,31.925123 25.041194,31.611173 24.695481,31.290136 24.346882,30.976186 23.930819,30.918698 23.790119,30.409448 23.744182,30.233311 23.686694,30.118336 23.640756,30.018848 19.409256,35.704598 16.899757,42.752723 16.899757,50.383598 16.899757,69.228473 32.177257,84.508598 51.024757,84.508598 64.183881,84.508598 75.592131,77.058848 81.291006,66.151973 V 65.703623 C 81.291006,64.945786 80.668356,65.324573 80.457306,63.682373 80.254394,62.038336 80.805906,61.350586 81.224594,60.839498 81.643544,60.335498 81.086782,60.018136 80.945031,59.515711 80.807219,59.013286 80.596432,58.756298 80.596432,57.939136 80.596432,57.115148 79.205181,56.610098 78.926931,56.043623 78.643431,55.475048 78.857894,55.475048 79.068681,54.653686 79.279207,53.831011 79.693956,53.585311 79.068681,53.139586 78.708794,52.886851 78.414531,52.944286 78.112131,53.005553 77.890057,53.051517 77.663781,53.093622 77.400231,53.005553 76.773381,52.817918 76.911194,51.935603 75.938631,51.994928 74.966069,52.056196 75.106506,52.433828 74.410619,52.750141 74.000069,52.937776 73.590831,52.838209 73.150356,52.750141 72.844019,52.681208 72.526131,52.612276 72.183044,52.639103 71.354857,52.700371 71.627856,52.891838 70.935907,52.891838 70.238969,52.891838 70.029494,52.445588 69.682469,51.816113 69.333869,51.186638 68.361306,50.804438 68.083057,50.362388 67.803494,49.924801 66.965594,48.657451 66.905219,48.156601 66.832506,47.648401 66.966381,47.272763 67.245944,46.258463 67.525507,45.253351 67.104194,45.756038 66.905219,45.438676 66.690756,45.124726 66.966381,44.620988 67.318394,44.052413 67.666994,43.482263 67.941044,42.977213 68.569469,42.220426 69.191069,41.465213 69.051681,41.712751 69.823169,41.402213 70.584944,41.088263 70.163894,40.261913 70.375469,39.757913 70.585994,39.256538 70.585994,39.443963 71.142756,39.122926 71.697944,38.812651 71.697944,38.559601 72.254706,38.120701 72.808319,37.678913 72.881556,38.120701 73.575869,38.178136 74.272806,38.243236 74.200094,38.120701 74.829569,37.864186 75.449594,37.611451 75.803444,37.546298 76.568107,37.294298 77.047431,37.137297 77.389469,37.152601 77.856719,37.171763 78.128669,37.171763 78.446031,37.210062 78.859206,37.171763 79.976669,37.114328 79.415706,37.617488 79.346932,38.311801 79.277894,39.007688 79.205181,38.880901 79.549844,39.193013 79.902119,39.510901 80.875207,39.510901 81.431444,39.576001 81.985056,39.641101 81.846194,39.763636 82.402694,40.077376 82.962081,40.395263 83.031119,40.461151 83.588931,40.645951 83.654031,40.68425 83.707581,40.68425 83.745906,40.68425 83.279969,39.107675 82.704306,37.581499 82.020756,36.10625 82.020756,36.205816 82.059081,36.324518 82.059081,36.481624 82.059081,36.860675 81.710481,36.926299 81.290481,37.174625 80.874681,37.42736 80.945819,37.174625 80.522931,36.925722 80.109756,36.672987 80.595644,36.672987 81.224069,36.672987 81.845669,36.672987 81.643019,36.41642 81.710481,36.039575 81.779519,35.660525 81.499956,35.601987 81.085206,35.410099 80.670456,35.218632 80.597219,35.218632 79.900281,34.906099 79.205969,34.592149 79.485532,34.461425 78.997806,34.145637 78.512969,33.831687 78.580431,33.766587 78.021307,34.019269 77.469794,34.272004 77.610494,34.210737 76.910931,34.272004 76.216619,34.340937 76.566269,34.272004 76.216619,34.528572 75.864344,34.78514 76.006094,34.842522 75.728894,35.221572 75.449332,35.605347 75.308894,35.413039 74.829306,35.856559 74.338694,36.29546 74.829306,35.856559 74.752656,36.549297 74.687556,37.246497 74.549744,36.802032 73.851494,37.246497 73.421781,37.522122 73.283969,37.476263 73.161119,37.437964 73.084469,37.399666 73.011756,37.384362 72.881556,37.434027 72.532956,37.556562 72.461032,37.690595 72.046282,37.502959 71.627856,37.307659 71.766719,37.250225 71.487156,37.181397 71.215206,37.123962 71.000744,36.932494 70.861356,36.488397 70.723544,36.046872 70.934069,36.046872 71.140919,35.544184 71.351444,35.039135 71.071882,35.039135 71.071882,34.724397 71.071882,34.40651 71.213631,34.277097 71.416544,34.277097 71.627069,34.277097 72.387794,34.34603 72.806481,34.34603 H 73.850706 C 73.850706,34.34603 74.270707,34.154562 74.270707,33.69188 74.270707,33.230142 74.504331,33.019092 74.037081,32.76683 73.572456,32.514094 73.572456,32.602163 73.294206,32.38778 73.018581,32.177176 72.830894,32.05073 73.248269,31.885354 73.667219,31.716856 73.896644,31.755154 74.269656,31.548304 74.633481,31.333868 75.146669,31.169255 74.868156,31.087617 74.588594,30.999548 74.588594,30.999548 74.269656,30.999548 73.940219,30.999548 73.990094,30.999548 73.572719,31.125916 73.153769,31.256116 72.968706,31.758016 72.968706,31.256116 72.968706,30.749491 72.926706,31.045512 73.018581,30.582278 73.110456,30.117391 72.693081,30.452078 73.110456,30.117391 73.529406,29.784278 73.760406,29.906787 73.622331,29.614966 73.480582,29.320178 73.897957,29.614966 73.480582,29.320178 73.060581,29.021453 73.388706,28.897291 73.060581,29.021453 73.022256,29.021453 72.995482,29.059752 72.968706,29.059752 72.968706,29.021453 72.930381,28.99082 72.876831,28.898918 72.647144,28.519868 72.456307,28.684482 72.551331,28.307243 72.647144,27.931868 72.135531,28.016131 72.830894,27.759931 73.526781,27.507196 73.667219,27.342556 73.849394,27.553133 74.037081,27.759931 74.314281,27.851858 74.128956,28.101496 73.937594,28.350398 73.799519,28.565333 73.987206,28.813658 74.170956,29.066393 74.312707,29.150708 74.547906,29.362021 74.777594,29.572625 74.501969,29.699071 74.865794,29.825333 75.241169,29.951701 75.562731,30.035937 75.470857,30.284446 75.378981,30.541013 75.052431,31.000546 75.424919,30.834383 75.796357,30.665885 75.838619,30.451396 76.302982,30.118283 76.766294,29.785171 76.948731,29.823496 77.463232,29.615858 77.708406,29.516292 77.877981,29.508627 77.974057,29.485658 75.333306,26.088908 72.062556,23.201408 68.335056,21.004283 68.281506,21.092352 68.200919,21.203416 67.933694,21.594646 67.372994,22.429396 67.723169,21.851213 67.088181,22.498433 66.447944,23.138671 66.728294,22.882208 65.317094,23.010308 63.899856,23.140508 64.110906,23.394083 63.333906,23.780483 62.553231,24.172133 62.270782,24.172133 60.850919,24.553283 59.435256,24.939683 59.785169,25.517971 59.223156,26.163458 58.657207,26.809208 58.798956,26.675333 57.734256,26.354926 56.674019,26.037038 56.461656,25.199926 56.461656,23.912626 56.461656,23.026426 56.733606,23.026426 57.131819,23.027738 57.311894,23.027738 57.515594,23.027738 57.734256,22.947308 58.443794,22.690741 57.665219,22.498958 57.454694,22.178708 57.240231,21.853208 57.030494,21.853208 57.240231,21.402233 57.454694,20.953358 57.240231,21.080671 56.820231,20.503958 56.521507,20.099971 56.189444,20.136458 55.342356,20.170846 54.974857,20.170846 54.514169,20.209145 53.916981,20.170846 51.931169,20.101913 53.280682,19.975546 53.419806,19.463146 53.515619,19.110871 54.108606,19.149196 54.763807,19.191196 55.070144,19.191196 55.391706,19.229494 55.683606,19.191196 56.604981,19.126096 56.107806,18.873308 55.541857,18.610283 54.977481,18.357548 54.623106,18.610283 53.769719,18.809416 52.921057,18.997051 52.571407,19.192403 51.999681,19.321291 51.436356,19.451491 51.151544,19.581691 50.231219,19.963103 49.307219,20.353441 49.661332,20.284666 49.026606,20.544016 48.384794,20.804416 48.603456,20.674216 47.895756,20.674216 47.183856,20.674216 47.183856,20.612948 46.478519,20.612948 45.768194,20.612948 46.054581,20.544016 45.838281,20.092936 45.627756,19.644586 46.194494,20.092936 46.758606,20.161868 47.325606,20.226968 47.256832,20.092936 47.966106,19.905301 48.672757,19.713833 48.815819,19.520476 49.593869,19.001513 50.371919,18.489638 49.167306,18.683626 48.672494,18.683626 48.174269,18.683626 48.246981,18.813826 47.679456,19.001513 47.115081,19.192981 47.041844,19.131713 46.549131,18.936413 46.054844,18.744946 46.832631,18.489113 47.115081,18.232651 47.398581,17.976083 48.034882,18.232651 48.459081,18.293918 48.459081,18.293918 49.307219,18.167551 49.950606,18.102451 50.584019,18.037351 50.726031,17.907151 52.068719,17.776951 52.834957,17.708018 53.327931,17.715683 53.829044,17.727181 H 55.115032 C 56.321744,17.665913 56.109381,17.727181 56.959356,17.792281 57.811694,17.861213 57.527931,18.052681 56.890319,18.117781 56.251657,18.182881 56.534106,18.309248 56.821281,18.502606 57.100844,18.697906 57.599331,18.307306 58.093881,18.307306 58.588431,18.307306 58.803156,18.180938 60.008031,17.860006 60.264494,17.791073 60.522794,17.737471 60.779781,17.699172 57.690156,16.777797 54.416781,16.277735 51.027907,16.277735 43.809157,16.277735 37.115406,18.524472 31.605532,22.34936 M 41.307531,20.105247 C 41.663744,20.105247 42.016806,20.174179 41.943569,20.557797 41.874531,20.945247 41.095432,20.557797 40.668344,20.557797 40.244144,20.557797 40.033357,20.749265 39.465831,20.87936 38.897256,21.00956 38.610606,20.74916 38.476994,20.43206 38.331569,20.106559 39.677931,20.106559 39.677931,20.106559 39.677931,20.106559 40.034144,20.240592 40.527644,20.240592 41.021931,20.240592 40.954731,20.106559 41.307269,20.106559 M 44.207894,24.80531 C 44.560169,24.54491 44.633669,24.292122 45.130844,24.483747 45.629331,24.679047 46.337032,25.194597 45.978981,25.256547 45.630382,25.321647 45.768456,25.19528 45.342944,25.126347 44.917431,25.06508 44.848656,25.126347 44.562269,25.256547 44.282707,25.386747 44.282707,25.451847 44.069031,25.451847 44.069031,25.451847 43.858507,25.065447 44.206844,24.805835 M 70.981844,30.743585 C 70.935907,30.406534 71.161919,30.406534 71.161919,30.073947 71.161919,29.736897 71.024106,29.736897 71.119656,29.521384 71.211532,29.314587 70.981844,29.356718 71.353281,29.188272 71.717106,29.019773 71.766981,28.981501 72.044969,28.981501 72.320594,28.981501 72.228719,29.146167 72.554219,29.019799 72.734294,28.947034 72.887331,29.019799 72.943244,29.058098 72.713556,29.130863 72.640844,29.104062 72.598581,29.398823 72.552644,29.739548 72.782331,29.863448 72.552644,30.198398 72.319019,30.535448 72.410894,30.581386 71.909781,30.625486 71.538344,30.663785 71.242244,30.878221 71.089994,30.878221 71.028831,30.878221 70.994182,30.839922 70.978956,30.748021 M 36.355206,44.489896 C 36.496957,44.237161 37.275007,44.106908 37.275007,44.106908 37.275007,44.106908 37.915244,44.106908 38.413731,44.237108 38.905394,44.363476 38.905394,44.489843 39.403881,44.812771 39.901056,45.134333 39.967207,44.942971 40.326307,45.073171 40.674906,45.195706 40.674906,45.391058 40.326307,45.517846 39.966419,45.648046 39.966419,45.517846 39.403881,45.326378 38.835306,45.134911 38.835306,44.938403 38.485131,44.750716 38.125244,44.555416 37.842269,44.425216 36.995181,44.616683 36.658132,44.693281 36.465456,44.727721 36.364131,44.727721 36.207156,44.727721 36.268319,44.643485 36.364131,44.482651 M 41.112756,46.224338 C 41.254506,45.770213 40.756544,45.963938 41.254506,45.770213 41.748794,45.582578 42.312119,45.387226 42.739206,45.582578 43.163406,45.770213 44.086094,45.904141 43.521456,46.159553 42.949731,46.419953 42.602706,46.289753 42.245969,46.419953 41.893694,46.550153 41.820456,46.615253 41.181269,46.615253 40.543656,46.615253 40.334181,46.485053 40.474619,46.289753 40.474619,46.289753 40.673856,46.446755 40.853669,46.446755 40.961032,46.446755 41.060519,46.393152 41.110131,46.228486 M 43.874256,46.550048 C 43.659794,46.484948 43.805219,46.289648 43.805219,46.289648 43.805219,46.289648 44.084782,46.159448 44.369594,46.159448 44.649156,46.159448 44.507407,46.350916 44.369594,46.548473 44.319719,46.609741 44.250944,46.628877 44.178231,46.628877 44.032806,46.628877 43.875831,46.548473 43.875831,46.548473 M 38.843706,46.418273 C 38.422131,46.226806 39.339306,46.157873 39.339306,46.157873 39.549831,46.222973 39.765081,46.349341 39.549831,46.546898 39.477119,46.611998 39.419631,46.638799 39.358469,46.638799 39.243494,46.638799 39.117232,46.543066 38.843706,46.416698 M 46.235706,80.961698 V 80.961698 C 46.274032,80.961698 46.235706,80.961698 46.235706,80.961698" />
</svg>
