<svg version="1.1" viewBox="0 0 34.93 75" xmlns="http://www.w3.org/2000/svg">
 <path d="m17.46 0c-7.981 0-15.96 0.7315-16.78 2.194-1.526 2.698-1e-8 9.377 0 9.377l2.111 11.1c0.7751 2.967 2.203 3.981 6.029 4.315 4.405 0.3856 12.89 0.3856 17.3 0 3.825-0.3349 5.254-1.349 6.029-4.315l2.111-11.1s1.526-6.68 0-9.377h-0.005858c-0.8279-1.463-8.81-2.194-16.79-2.194zm-6.682 5.805c2.164 0 3.918 1.753 3.918 3.917 0 2.163-1.754 3.918-3.918 3.918-2.163 0-3.917-1.754-3.917-3.918 0-2.163 1.753-3.917 3.917-3.917zm-1.507 22.94s9.405e-4 1.734 0.0249 4.525c0.745 0.1725 2.518 1.972 2.581 4.201 0.06631 2.352-0.782 3.541-1.318 4.374-0.3744 0.5806-0.3731 1.844 0.05127 2.402 0.5879 0.7751 1.511 1.846 1.578 4.216 0.06631 2.359-0.7918 3.534-1.326 4.375-0.5569 0.8785-0.4406 2.692 0.1465 3.504 0.5575 0.7709 1.455 1.897 1.52 4.21 0.05739 2.03 0.2282 3.138-0.1025 4.038-1.092 2.964 0.8583 5.425 1.802 8.166 0.3062 0.889 2.723 2.244 2.723 2.244 0 0 3.078-1.34 3.281-2.244 0.4157-1.84 3.152-5.077 2.059-8.042-0.3315-0.8982-0.4294-2.132-0.372-4.163 0.0652-2.312 0.9629-3.438 1.52-4.21 0.5879-0.8133 0.7034-2.626 0.1465-3.504-0.5333-0.8408-1.392-2.017-1.326-4.375 0.06659-2.369 0.99-3.441 1.579-4.216 0.4235-0.5581 0.4234-1.822 0.0498-2.402-0.5363-0.8308-1.385-2.021-1.318-4.374 0.06269-2.229 2.297-4.028 3.042-4.201 0.02368-2.792 0.02344-4.525 0.02344-4.525h-6.124v33.66c0 0.8266-0.921 1.497-2.058 1.497s-2.059-0.6704-2.059-1.497v-33.66z" style="fill:#030302;stroke-width:.2786"/>
</svg>
