<?xml version="1.0" encoding="UTF-8" standalone="no"?>
<svg xmlns:dc="http://purl.org/dc/elements/1.1/" xmlns:cc="http://creativecommons.org/ns#" xmlns:rdf="http://www.w3.org/1999/02/22-rdf-syntax-ns#" xmlns:svg="http://www.w3.org/2000/svg" xmlns="http://www.w3.org/2000/svg" xmlns:xlink="http://www.w3.org/1999/xlink" xmlns:sodipodi="http://sodipodi.sourceforge.net/DTD/sodipodi-0.dtd" xmlns:inkscape="http://www.inkscape.org/namespaces/inkscape" version="1.1" viewBox="0 0 46.58321 100.0052" id="svg7" sodipodi:docname="i25a.svg" width="46.58321" height="100.0052" inkscape:version="0.92.2 (5c3e80d, 2017-08-06)">
  <metadata id="metadata13">
    <rdf:RDF>
      <cc:Work rdf:about="">
        <dc:format>image/svg+xml</dc:format>
        <dc:type rdf:resource="http://purl.org/dc/dcmitype/StillImage" />
        <dc:title></dc:title>
      </cc:Work>
    </rdf:RDF>
  </metadata>
  <defs id="defs11">
    <linearGradient id="reslogo-linearGradient5862" x1="-1462.8683" xlink:href="#reslogo-linearGradientSlvr" gradientUnits="userSpaceOnUse" x2="-1462.8683" gradientTransform="matrix(3.7829288,0,0,3.8170356,5531.411,-6803.2231)" y1="1781.8422" y2="1808.7975" />
    <linearGradient id="reslogo-linearGradientSlvr" y2="828" gradientUnits="userSpaceOnUse" x2="-1869" gradientTransform="matrix(1.301,0,0,1.301,1365,-35.3)" y1="794.40002" x1="-1869">
      <stop id="reslogo-stop4422" stop-color="#696969" offset="0" />
      <stop id="reslogo-stop4424" stop-color="#c7c7c9" offset=".17" />
      <stop id="reslogo-stop4426" stop-color="#f9f9ff" offset=".36" />
      <stop id="reslogo-stop4428" stop-color="#ccccce" offset=".73" />
      <stop id="reslogo-stop4430" stop-color="#696969" offset="1" />
    </linearGradient>
    <linearGradient inkscape:collect="always" xlink:href="#reslogo-linearGradientSlvr" id="linearGradient30935" x1="44.703041" y1="-0.76080245" x2="44.703041" y2="100.9767" gradientUnits="userSpaceOnUse" />
  </defs>
  <sodipodi:namedview pagecolor="#ffffff" bordercolor="#666666" borderopacity="1" objecttolerance="10" gridtolerance="10" guidetolerance="10" inkscape:pageopacity="0" inkscape:pageshadow="2" inkscape:window-width="2560" inkscape:window-height="1001" id="namedview9" showgrid="false" fit-margin-top="0" fit-margin-left="0" fit-margin-right="0" fit-margin-bottom="0" inkscape:zoom="13.350176" inkscape:cx="56.609072" inkscape:cy="82.128072" inkscape:window-x="-9" inkscape:window-y="41" inkscape:window-maximized="1" inkscape:current-layer="svg7" />
  <path id="path30365" d="M 23.28125 0 C 12.639772 2.9605947e-016 2.0002219 0.97540625 0.90429688 2.9257812 C -1.1311516 6.5233873 0.90429687 15.429687 0.90429688 15.429688 L 3.71875 30.234375 C 4.752263 34.19085 6.6563743 35.542481 11.757812 35.988281 C 17.631228 36.502437 28.950804 36.502437 34.824219 35.988281 C 39.924914 35.541738 41.830511 34.190107 42.863281 30.234375 L 45.677734 15.429688 C 45.677734 15.429688 47.713183 6.5219013 45.677734 2.9257812 L 45.669922 2.9257812 C 44.56601 0.97540625 33.922728 -2.9605947e-016 23.28125 0 z M 14.371094 7.7402344 C 17.256535 7.7402344 19.595703 10.077451 19.595703 12.962891 C 19.595703 15.846474 17.256535 18.1875 14.371094 18.1875 C 11.487511 18.1875 9.1484375 15.848332 9.1484375 12.962891 C 9.1484375 10.078937 11.485654 7.7402344 14.371094 7.7402344 z M 12.361328 38.330078 C 12.361328 38.330078 12.362582 40.641594 12.394531 44.363281 C 13.387922 44.59324 15.751978 46.992844 15.835938 49.964844 C 15.924354 53.100676 14.793263 54.68609 14.078125 55.796875 C 13.578829 56.571081 13.580689 58.255886 14.146484 59 C 14.930348 60.033513 16.16084 61.461487 16.25 64.621094 C 16.338417 67.766214 15.194217 69.333148 14.482422 70.455078 C 13.739794 71.626417 13.894984 74.04403 14.677734 75.126953 C 15.421106 76.154893 16.618146 77.656413 16.705078 80.740234 C 16.781606 83.446611 17.009329 84.925056 16.568359 86.125 C 15.11245 90.077761 17.712804 93.358112 18.970703 97.013672 C 19.378981 98.199128 22.601563 100.00586 22.601562 100.00586 C 22.601562 100.00586 26.705367 98.219189 26.976562 97.013672 C 27.530841 94.560285 31.178937 90.243777 29.722656 86.291016 C 29.280572 85.0933 29.150033 83.44884 29.226562 80.740234 C 29.313493 77.657527 30.510534 76.156008 31.253906 75.126953 C 32.037771 74.042544 32.191848 71.624931 31.449219 70.455078 C 30.738168 69.33389 29.593224 67.765842 29.681641 64.621094 C 29.770429 61.46223 31.001758 60.032771 31.787109 59 C 32.351789 58.255886 32.351698 56.571081 31.853516 55.796875 C 31.138379 54.689062 30.006914 53.102162 30.095703 49.964844 C 30.17929 46.992844 33.158581 44.593611 34.152344 44.363281 C 34.183922 40.640851 34.183594 38.330078 34.183594 38.330078 L 26.017578 38.330078 L 26.017578 83.207031 C 26.017578 84.309271 24.78953 85.203125 23.273438 85.203125 C 21.757347 85.203125 20.527344 84.309271 20.527344 83.207031 L 20.527344 38.330078 L 12.361328 38.330078 z " style="fill:url(#reslogo-linearGradient5862);stroke-width:2;opacity:1;fill-opacity:1;stroke:url(#linearGradient30935);stroke-linecap:butt;stroke-linejoin:miter;stroke-miterlimit:4;stroke-dasharray:none;stroke-dashoffset:0;stroke-opacity:1" />
  <path style="fill:#290a43;stroke-width:0.37149999;fill-opacity:1" d="M 23.28125 0 C 12.639772 2.9605947e-016 2.0002219 0.97540625 0.90429688 2.9257812 C -1.1311516 6.5233873 0.90429687 15.429687 0.90429688 15.429688 L 3.71875 30.234375 C 4.752263 34.19085 6.6563743 35.542481 11.757812 35.988281 C 17.631228 36.502437 28.950804 36.502437 34.824219 35.988281 C 39.924914 35.541738 41.830511 34.190107 42.863281 30.234375 L 45.677734 15.429688 C 45.677734 15.429688 47.713183 6.5219013 45.677734 2.9257812 L 45.669922 2.9257812 C 44.56601 0.97540625 33.922728 -2.9605947e-016 23.28125 0 z M 14.371094 7.7402344 C 17.256535 7.7402344 19.595703 10.077451 19.595703 12.962891 C 19.595703 15.846474 17.256535 18.1875 14.371094 18.1875 C 11.487511 18.1875 9.1484375 15.848332 9.1484375 12.962891 C 9.1484375 10.078937 11.485654 7.7402344 14.371094 7.7402344 z M 12.361328 38.330078 C 12.361328 38.330078 12.362582 40.641594 12.394531 44.363281 C 13.387922 44.59324 15.751978 46.992844 15.835938 49.964844 C 15.924354 53.100676 14.793263 54.68609 14.078125 55.796875 C 13.578829 56.571081 13.580689 58.255886 14.146484 59 C 14.930348 60.033513 16.16084 61.461487 16.25 64.621094 C 16.338417 67.766214 15.194217 69.333148 14.482422 70.455078 C 13.739794 71.626417 13.894984 74.04403 14.677734 75.126953 C 15.421106 76.154893 16.618146 77.656413 16.705078 80.740234 C 16.781606 83.446611 17.009329 84.925056 16.568359 86.125 C 15.11245 90.077761 17.712804 93.358112 18.970703 97.013672 C 19.378981 98.199128 22.601563 100.00586 22.601562 100.00586 C 22.601562 100.00586 26.705367 98.219189 26.976562 97.013672 C 27.530841 94.560285 31.178937 90.243777 29.722656 86.291016 C 29.280572 85.0933 29.150033 83.44884 29.226562 80.740234 C 29.313493 77.657527 30.510534 76.156008 31.253906 75.126953 C 32.037771 74.042544 32.191848 71.624931 31.449219 70.455078 C 30.738168 69.33389 29.593224 67.765842 29.681641 64.621094 C 29.770429 61.46223 31.001758 60.032771 31.787109 59 C 32.351789 58.255886 32.351698 56.571081 31.853516 55.796875 C 31.138379 54.689062 30.006914 53.102162 30.095703 49.964844 C 30.17929 46.992844 33.158581 44.593611 34.152344 44.363281 C 34.183922 40.640851 34.183594 38.330078 34.183594 38.330078 L 26.017578 38.330078 L 26.017578 83.207031 C 26.017578 84.309271 24.78953 85.203125 23.273438 85.203125 C 21.757347 85.203125 20.527344 84.309271 20.527344 83.207031 L 20.527344 38.330078 L 12.361328 38.330078 z " id="path2" />
</svg>
