<svg version="1.1" viewBox="0 0 35.71 75" xmlns="http://www.w3.org/2000/svg" xmlns:xlink="http://www.w3.org/1999/xlink">
 <defs>
  <linearGradient id="reslogo-linearGradient5862" x1="-1463" x2="-1463" y1="1782" y2="1809" gradientTransform="matrix(2.778 0 0 2.803 4063 -4996)" gradientUnits="userSpaceOnUse" xlink:href="#reslogo-linearGradientSlvr"/>
  <linearGradient id="reslogo-linearGradientSlvr" x1="-1869" x2="-1869" y1="794.4" y2="828" gradientTransform="matrix(1.301,0,0,1.301,1365,-35.3)" gradientUnits="userSpaceOnUse">
   <stop stop-color="#696969" offset="0"/>
   <stop stop-color="#c7c7c9" offset=".17"/>
   <stop stop-color="#f9f9ff" offset=".36"/>
   <stop stop-color="#ccccce" offset=".73"/>
   <stop stop-color="#696969" offset="1"/>
  </linearGradient>
  <linearGradient id="linearGradient30935" x1="44.7" x2="44.7" y1="-.7608" y2="101" gradientTransform="matrix(.7344 0 0 .7344 .7504 .7344)" gradientUnits="userSpaceOnUse" xlink:href="#reslogo-linearGradientSlvr"/>
  <linearGradient id="reslogo-linearGradient4674" x1="-1865" x2="-1865" y1="1398" y2="1419" gradientTransform="matrix(2.175 0 0 3.577 4054 -5001)" gradientUnits="userSpaceOnUse">
   <stop stop-color="#1c072d" offset="0"/>
   <stop stop-color="#5700aa" offset=".29"/>
   <stop stop-color="#4b127b" offset=".64"/>
   <stop stop-color="#290a43" offset="1"/>
  </linearGradient>
 </defs>
 <path d="m17.85 0.7344c-7.815 0-15.63 0.7164-16.43 2.149-1.495 2.642 0 9.183 0 9.183l2.067 10.87c0.759 2.906 2.157 3.898 5.904 4.226 4.314 0.3776 12.63 0.3776 16.94 0 3.746-0.328 5.146-1.321 5.904-4.226l2.067-10.87s1.495-6.542 0-9.183h-0.005737c-0.8107-1.432-8.627-2.149-16.44-2.149zm-6.544 5.685c2.119 0 3.837 1.717 3.837 3.836 0 2.118-1.718 3.837-3.837 3.837-2.118 0-3.836-1.718-3.836-3.837 0-2.118 1.717-3.836 3.836-3.836zm-1.476 22.47s9.21e-4 1.698 0.02439 4.431c0.7296 0.1689 2.466 1.931 2.527 4.114 0.06493 2.303-0.7658 3.467-1.291 4.283-0.3667 0.5686-0.3653 1.806 0.0502 2.352 0.5757 0.759 1.479 1.808 1.545 4.128 0.06494 2.31-0.7754 3.461-1.298 4.285-0.5454 0.8603-0.4314 2.636 0.1434 3.431 0.546 0.7549 1.425 1.858 1.489 4.123 0.0562 1.988 0.2234 3.073-0.1004 3.955-1.069 2.903 0.8405 5.312 1.764 7.997 0.2998 0.8706 2.667 2.198 2.667 2.198 0 0 3.014-1.312 3.213-2.198 0.4071-1.802 3.086-4.972 2.017-7.875-0.3247-0.8796-0.4205-2.087-0.3643-4.077 0.06384-2.264 0.943-3.367 1.489-4.123 0.5757-0.7964 0.6888-2.572 0.1434-3.431-0.5222-0.8234-1.363-1.975-1.298-4.285 0.06521-2.32 0.9695-3.37 1.546-4.128 0.4147-0.5465 0.4146-1.784 0.04877-2.352-0.5252-0.8136-1.356-1.979-1.291-4.283 0.06139-2.183 2.249-3.945 2.979-4.114 0.02319-2.734 0.02295-4.431 0.02295-4.431h-5.997v32.96c0 0.8095-0.9019 1.466-2.015 1.466-1.113 0-2.017-0.6565-2.017-1.466v-32.96z" style="fill:url(#reslogo-linearGradient5862);stroke-width:1.469;stroke:url(#linearGradient30935)"/>
 <path d="m17.85 0.7344c-7.815 0-15.63 0.7164-16.43 2.149-1.495 2.642 0 9.183 0 9.183l2.067 10.87c0.759 2.906 2.157 3.898 5.904 4.226 4.314 0.3776 12.63 0.3776 16.94 0 3.746-0.328 5.146-1.321 5.904-4.226l2.067-10.87s1.495-6.542 0-9.183h-0.005737c-0.8107-1.432-8.627-2.149-16.44-2.149zm-6.544 5.685c2.119 0 3.837 1.717 3.837 3.836 0 2.118-1.718 3.837-3.837 3.837-2.118 0-3.836-1.718-3.836-3.837 0-2.118 1.717-3.836 3.836-3.836zm-1.476 22.47s9.21e-4 1.698 0.02439 4.431c0.7296 0.1689 2.466 1.931 2.527 4.114 0.06493 2.303-0.7658 3.467-1.291 4.283-0.3667 0.5686-0.3653 1.806 0.0502 2.352 0.5757 0.759 1.479 1.808 1.545 4.128 0.06494 2.31-0.7754 3.461-1.298 4.285-0.5454 0.8603-0.4314 2.636 0.1434 3.431 0.546 0.7549 1.425 1.858 1.489 4.123 0.0562 1.988 0.2234 3.073-0.1004 3.955-1.069 2.903 0.8405 5.312 1.764 7.997 0.2998 0.8706 2.667 2.198 2.667 2.198 0 0 3.014-1.312 3.213-2.198 0.4071-1.802 3.086-4.972 2.017-7.875-0.3247-0.8796-0.4205-2.087-0.3643-4.077 0.06384-2.264 0.943-3.367 1.489-4.123 0.5757-0.7964 0.6888-2.572 0.1434-3.431-0.5222-0.8234-1.363-1.975-1.298-4.285 0.06521-2.32 0.9695-3.37 1.546-4.128 0.4147-0.5465 0.4146-1.784 0.04877-2.352-0.5252-0.8136-1.356-1.979-1.291-4.283 0.06139-2.183 2.249-3.945 2.979-4.114 0.02319-2.734 0.02295-4.431 0.02295-4.431h-5.997v32.96c0 0.8095-0.9019 1.466-2.015 1.466-1.113 0-2.017-0.6565-2.017-1.466v-32.96z" style="fill:url(#reslogo-linearGradient4674)"/>
</svg>
