<?xml version="1.0" encoding="UTF-8" standalone="no"?>
<svg xmlns:dc="http://purl.org/dc/elements/1.1/" xmlns:cc="http://creativecommons.org/ns#" xmlns:rdf="http://www.w3.org/1999/02/22-rdf-syntax-ns#" xmlns:svg="http://www.w3.org/2000/svg" xmlns="http://www.w3.org/2000/svg" xmlns:sodipodi="http://sodipodi.sourceforge.net/DTD/sodipodi-0.dtd" xmlns:inkscape="http://www.inkscape.org/namespaces/inkscape" version="1.1" viewBox="0 0 100.01579 67.765833" id="svg21" sodipodi:docname="i26.svg" width="100.01579" height="67.765831" inkscape:version="0.92.2 (5c3e80d, 2017-08-06)">
  <metadata id="metadata27">
    <rdf:RDF>
      <cc:Work rdf:about="">
        <dc:format>image/svg+xml</dc:format>
        <dc:type rdf:resource="http://purl.org/dc/dcmitype/StillImage" />
        <dc:title></dc:title>
      </cc:Work>
    </rdf:RDF>
  </metadata>
  <defs id="defs25" />
  <sodipodi:namedview pagecolor="#ffffff" bordercolor="#666666" borderopacity="1" objecttolerance="10" gridtolerance="10" guidetolerance="10" inkscape:pageopacity="0" inkscape:pageshadow="2" inkscape:window-width="1224" inkscape:window-height="489" id="namedview23" showgrid="false" fit-margin-top="0" fit-margin-left="0" fit-margin-right="0" fit-margin-bottom="0" inkscape:zoom="3.4839092" inkscape:cx="27.283758" inkscape:cy="33.887874" inkscape:window-x="2" inkscape:window-y="64" inkscape:window-maximized="0" inkscape:current-layer="svg21" />
  <path inkscape:connector-curvature="0" id="path2" style="fill:#030302;stroke-width:0.3714" d="M 50.381896,40.687056 H 36.354118 L 33.737605,40.557437 37.886143,50.652089 H 62.101423 L 66.249961,40.557437 63.633448,40.687056 Z M 60.346558,48.330468 H 39.644722 V 44.612754 H 60.346558 Z" />
  <path inkscape:connector-curvature="0" id="path4" style="fill:#030302;stroke-width:0.3714" d="M 90.530236,20.668596 100.0158,19.407693 C 100.0158,19.407693 99.602795,14.490357 98.157306,13.870119 96.711818,13.250624 90.413616,13.870119 90.413616,13.870119 90.413616,13.870119 89.742497,17.747535 88.554759,17.795817 88.554759,17.795817 89.89737,19.135085 90.413616,20.374447 90.462641,20.492924 90.500153,20.586517 90.532093,20.668225 Z" />
  <path inkscape:connector-curvature="0" id="path6" style="fill:#030302;stroke-width:0.3714" d="M 90.530236,20.668596 90.411759,20.684195 C 90.411759,20.684195 90.830699,21.438508 90.530236,20.668596 Z" />
  <path inkscape:connector-curvature="0" id="path8" style="fill:#030302;stroke-width:0.3714" d="M 64.309396,51.160536 67.365647,54.217158 H 32.650889 L 35.707139,51.160536 30.670955,38.952618 H 6.0954168 V 53.407506 L 8.5915962,55.265992 H 91.413797 L 93.909976,53.407506 V 38.952618 H 69.334438 Z M 21.635536,52.528402 H 9.7098816 V 47.109676 H 21.635536 Z M 78.385456,47.109676 H 90.31111 V 52.528402 H 78.385456 Z" />
  <rect id="rect10" style="fill:#030302;stroke-width:0.3714" height="10.737174" width="10.982298" y="57.028656" x="79.12825" />
  <path inkscape:connector-curvature="0" id="path12" style="fill:#030302;stroke-width:0.3714" d="M 8.6365356,36.044556 H 10.236899 C 10.236899,36.044556 9.3076554,30.261858 14.262875,27.58035 19.217351,24.895871 28.717763,36.776214 28.717763,36.776214 H 34.634165 L 32.244948,31.402056 H 67.784214 L 65.394998,36.776214 H 71.3114 C 71.3114,36.776214 80.811812,24.898842 85.766288,27.58035 90.720764,30.264829 89.792264,36.044556 89.792264,36.044556 H 91.392627 C 91.857248,20.04093 87.366651,17.819958 87.366651,17.819958 87.366651,17.819958 81.171699,1.5563517 79.466973,0.6278517 77.931605,-0.2092839 22.085673,-0.2092839 20.562933,0.6278517 18.859321,1.5570945 12.663255,17.819958 12.663255,17.819958 12.663255,17.819958 8.1730284,20.038702 8.6372784,36.044556 Z M 22.523182,3.0048117 C 24.18334,2.5071357 75.856222,2.5071357 77.490382,3.0048117 79.555737,3.6243069 84.821818,17.359422 84.821818,17.359422 L 50.38561,16.469548 V 16.449492 L 49.998611,16.459891 49.611612,16.449492 V 16.469548 L 15.175404,17.359422 C 15.175404,17.359051 20.441856,3.6250497 22.50684,3.0048117 Z" />
  <path inkscape:connector-curvature="0" id="path14" style="fill:#030302;stroke-width:0.3714" d="M 9.6021756,20.371476 C 10.118422,19.132114 11.460662,17.792846 11.460662,17.792846 10.272924,17.744192 9.6021756,13.867148 9.6021756,13.867148 9.6021756,13.867148 3.3032316,13.247653 1.8584856,13.867148 0.4129968,14.486272 0,19.404722 0,19.404722 L 9.485556,20.665625 C 9.5174964,20.583917 9.5546364,20.490324 9.604404,20.371847 Z" />
  <path inkscape:connector-curvature="0" id="path16" style="fill:#030302;stroke-width:0.3714" d="M 9.6021756,20.668596 9.4833276,20.652997 C 9.182865,21.422909 9.6021756,20.668596 9.6021756,20.668596 Z" />
  <rect id="rect18" style="fill:#030302;stroke-width:0.3714" height="10.737174" width="10.982298" y="57.028656" x="9.8992929" />
</svg>
