<?xml version="1.0" encoding="UTF-8" standalone="no"?>
<svg xmlns:dc="http://purl.org/dc/elements/1.1/" xmlns:cc="http://creativecommons.org/ns#" xmlns:rdf="http://www.w3.org/1999/02/22-rdf-syntax-ns#" xmlns:svg="http://www.w3.org/2000/svg" xmlns="http://www.w3.org/2000/svg" xmlns:sodipodi="http://sodipodi.sourceforge.net/DTD/sodipodi-0.dtd" xmlns:inkscape="http://www.inkscape.org/namespaces/inkscape" version="1.1" viewBox="0 0 100.00018 78.534637" id="svg120" sodipodi:docname="i28.svg" width="100.00018" height="78.534637" inkscape:version="0.92.2 (5c3e80d, 2017-08-06)">
  <metadata id="metadata124">
    <rdf:RDF>
      <cc:Work rdf:about="">
        <dc:format>image/svg+xml</dc:format>
        <dc:type rdf:resource="http://purl.org/dc/dcmitype/StillImage" />
        <dc:title></dc:title>
      </cc:Work>
    </rdf:RDF>
  </metadata>
  <sodipodi:namedview pagecolor="#ffffff" bordercolor="#666666" borderopacity="1" objecttolerance="10" gridtolerance="10" guidetolerance="10" inkscape:pageopacity="0" inkscape:pageshadow="2" inkscape:window-width="2560" inkscape:window-height="1001" id="namedview122" showgrid="false" fit-margin-top="0" fit-margin-left="0" fit-margin-right="0" fit-margin-bottom="0" inkscape:zoom="3.0048383" inkscape:cx="23.729541" inkscape:cy="39.252984" inkscape:window-x="-9" inkscape:window-y="41" inkscape:window-maximized="1" inkscape:current-layer="svg120" />
  <defs id="defs27">
    <linearGradient id="SVGID_6_" x1="537.5" x2="537.5" y1="370.20001" y2="253.10001" gradientUnits="userSpaceOnUse" gradientTransform="matrix(0.2772,0,0,0.2772,-98.979527,-49.038343)">
      <stop style="stop-color:#AB933D" offset="0" id="stop2" />
      <stop style="stop-color:#D2B34B" offset="1" id="stop4" />
    </linearGradient>
    <linearGradient id="SVGID_7_" x1="562.20001" x2="562.20001" y1="237.7" y2="176.89999" gradientUnits="userSpaceOnUse" gradientTransform="matrix(0.2772,0,0,0.2772,-98.979527,-49.038343)">
      <stop style="stop-color:#AB933D" offset="0" id="stop7" />
      <stop style="stop-color:#D2B34B" offset="1" id="stop9" />
    </linearGradient>
    <linearGradient id="SVGID_8_" x1="555" x2="555" y1="248.2" y2="239.10001" gradientUnits="userSpaceOnUse" gradientTransform="matrix(0.2772,0,0,0.2772,-98.979527,-49.038343)">
      <stop style="stop-color:#AB933D" offset="0" id="stop12" />
      <stop style="stop-color:#D2B34B" offset="1" id="stop14" />
    </linearGradient>
    <linearGradient id="SVGID_9_" x1="515.5" x2="515.5" y1="237.7" y2="176.89999" gradientUnits="userSpaceOnUse" gradientTransform="matrix(0.2772,0,0,0.2772,-98.979527,-49.038343)">
      <stop style="stop-color:#BFA344" offset="0" id="stop17" />
      <stop style="stop-color:#E8C453" offset="1" id="stop19" />
    </linearGradient>
    <linearGradient id="SVGID_10_" x1="522.79999" x2="522.79999" y1="248.2" y2="239.10001" gradientUnits="userSpaceOnUse" gradientTransform="matrix(0.2772,0,0,0.2772,-98.979527,-49.038343)">
      <stop style="stop-color:#BFA344" offset="0" id="stop22" />
      <stop style="stop-color:#E8C453" offset="1" id="stop24" />
    </linearGradient>
  </defs>
  <path inkscape:connector-curvature="0" id="path29" style="fill:#ffffff;stroke-width:0.27720001" d="M 93.369553,72.818777 C 93.369553,75.976085 73.954465,78.534641 50.015473,78.534641 26.076481,78.534641 6.6613932,75.974145 6.6613932,72.818777 6.6613932,69.661469 26.076481,67.102913 50.015473,67.102913 73.954465,67.102913 93.369553,69.662855 93.369553,72.818777 Z" />
  <path inkscape:connector-curvature="0" id="path31" style="fill:#fdfdfd;stroke-width:0.27720001" d="M 50.015473,67.219337 C 73.455505,67.219337 92.454793,69.724948 92.454793,72.816005 92.454793,75.906785 73.452733,78.412673 50.015473,78.412673 26.575441,78.412673 7.5761532,75.906508 7.5761532,72.816005 7.5761532,69.725225 26.578213,67.219337 50.015473,67.219337 Z" />
  <path inkscape:connector-curvature="0" id="path33" style="fill:#fcfcfc;stroke-width:0.27720001" d="M 50.015473,67.357937 C 72.948229,67.357937 91.540033,69.808939 91.540033,72.832637 91.540033,75.854117 72.951001,78.307337 50.015473,78.307337 27.079945,78.307337 8.4909132,75.855503 8.4909132,72.832637 8.4909132,69.808385 27.079945,67.357937 50.015473,67.357937 Z" />
  <path inkscape:connector-curvature="0" id="path35" style="fill:#fafbfb;stroke-width:0.27720001" d="M 50.015473,67.468817 C 72.438181,67.468817 90.625273,69.865488 90.625273,72.821549 90.625273,75.776501 72.449269,78.174281 50.015473,78.174281 27.581677,78.174281 9.4056732,75.777055 9.4056732,72.821549 9.4056732,69.866597 27.581677,67.468817 50.015473,67.468817 Z" />
  <path inkscape:connector-curvature="0" id="path37" style="fill:#f9f9fa;stroke-width:0.27720001" d="M 50.015473,67.579697 C 71.928133,67.579697 89.682793,69.922037 89.682793,72.810461 89.682793,75.698885 71.919817,78.041225 50.015473,78.041225 28.111129,78.041225 10.348153,75.698053 10.348153,72.810461 10.348153,69.922037 28.113901,67.579697 50.015473,67.579697 Z" />
  <ellipse id="ellipse39" style="fill:#f8f8f9;stroke-width:0.27720001" ry="5.1087961" rx="38.75256" cy="72.818779" cx="50.015472" />
  <path inkscape:connector-curvature="0" id="path41" style="fill:#f7f7f8;stroke-width:0.27720001" d="M 50.015473,67.829177 C 70.910809,67.829177 87.853273,70.062577 87.853273,72.818777 87.853273,75.572759 70.913581,77.808377 50.015473,77.808377 29.117365,77.808377 12.177673,75.574145 12.177673,72.818777 12.177673,70.063963 29.117365,67.829177 50.015473,67.829177 Z" />
  <path inkscape:connector-curvature="0" id="path43" style="fill:#f6f7f7;stroke-width:0.27720001" d="M 50.015473,67.940057 C 70.400761,67.940057 86.938513,70.118849 86.938513,72.807689 86.938513,75.494589 70.411849,77.675321 50.015473,77.675321 29.619097,77.675321 13.092433,75.49542 13.092433,72.807689 13.092433,70.120235 29.619097,67.940057 50.015473,67.940057 Z" />
  <ellipse id="ellipse45" style="fill:#f5f6f6;stroke-width:0.27720001" ry="4.7456641" rx="35.98056" cy="72.818779" cx="50.015472" />
  <ellipse id="ellipse47" style="fill:#f4f5f5;stroke-width:0.27720001" ry="4.6236959" rx="35.0658" cy="72.818779" cx="50.015472" />
  <ellipse id="ellipse49" style="fill:#f4f4f4;stroke-width:0.27720001" ry="4.5017281" rx="34.151039" cy="72.818779" cx="50.015472" />
  <ellipse id="ellipse51" style="fill:#f3f3f4;stroke-width:0.27720001" ry="4.3797603" rx="33.236279" cy="72.818779" cx="50.015472" />
  <ellipse id="ellipse53" style="fill:#f2f2f3;stroke-width:0.27720001" ry="4.257792" rx="32.2938" cy="72.818779" cx="50.015472" />
  <ellipse id="ellipse55" style="fill:#f1f2f2;stroke-width:0.27720001" ry="4.1385961" rx="31.37904" cy="72.818779" cx="50.015472" />
  <ellipse id="ellipse57" style="fill:#f0f1f1;stroke-width:0.27720001" ry="4.0166278" rx="30.464281" cy="72.818779" cx="50.015472" />
  <ellipse id="ellipse59" style="fill:#eff0f1;stroke-width:0.27720001" ry="3.89466" rx="29.54952" cy="72.818779" cx="50.015472" />
  <ellipse id="ellipse61" style="fill:#efeff0;stroke-width:0.27720001" ry="3.772692" rx="28.607038" cy="72.818779" cx="50.015472" />
  <ellipse id="ellipse63" style="fill:#eeeeef;stroke-width:0.27720001" ry="3.6507239" rx="27.697823" cy="72.818779" cx="50.015472" />
  <ellipse id="ellipse65" style="fill:#edeeee;stroke-width:0.27720001" ry="3.5287559" rx="26.774748" cy="72.818779" cx="50.015472" />
  <ellipse id="ellipse67" style="fill:#ecedee;stroke-width:0.27720001" ry="3.40956" rx="25.854443" cy="72.818779" cx="50.015472" />
  <ellipse id="ellipse69" style="fill:#ebeced;stroke-width:0.27720001" ry="3.2875919" rx="24.931368" cy="72.818779" cx="50.015472" />
  <ellipse id="ellipse71" style="fill:#ebebec;stroke-width:0.27720001" ry="3.1656239" rx="24.011065" cy="72.818779" cx="50.015472" />
  <ellipse id="ellipse73" style="fill:#eaeaeb;stroke-width:0.27720001" ry="3.0436559" rx="23.087988" cy="72.818779" cx="50.015472" />
  <ellipse id="ellipse75" style="fill:#e9eaeb;stroke-width:0.27720001" ry="2.9216881" rx="22.167685" cy="72.818779" cx="50.015472" />
  <ellipse id="ellipse77" style="fill:#e8e9ea;stroke-width:0.27720001" ry="2.79972" rx="21.247381" cy="72.818779" cx="50.015472" />
  <ellipse id="ellipse79" style="fill:#e7e8e9;stroke-width:0.27720001" ry="2.6794152" rx="20.324305" cy="72.818779" cx="50.015472" />
  <ellipse id="ellipse81" style="fill:#e6e7e8;stroke-width:0.27720001" ry="2.5580015" rx="19.403999" cy="72.818779" cx="50.015472" />
  <ellipse id="ellipse83" style="fill:#e5e6e7;stroke-width:0.27720001" ry="2.4363108" rx="18.480923" cy="72.818779" cx="50.015472" />
  <ellipse id="ellipse85" style="fill:#e5e6e7;stroke-width:0.27720001" ry="2.3148971" rx="17.560619" cy="72.818779" cx="50.015472" />
  <ellipse id="ellipse87" style="fill:#e4e5e6;stroke-width:0.27720001" ry="2.1932065" rx="16.637545" cy="72.818779" cx="50.015472" />
  <ellipse id="ellipse89" style="fill:#e3e4e5;stroke-width:0.27720001" ry="2.0717928" rx="15.71724" cy="72.818779" cx="50.015472" />
  <ellipse id="ellipse91" style="fill:#e2e3e4;stroke-width:0.27720001" ry="1.9503791" rx="14.794164" cy="72.818779" cx="50.015472" />
  <ellipse id="ellipse93" style="fill:#e1e2e4;stroke-width:0.27720001" ry="1.8286884" rx="13.873859" cy="72.818779" cx="50.015472" />
  <ellipse id="ellipse95" style="fill:#e1e2e3;stroke-width:0.27720001" ry="1.7072748" rx="12.950785" cy="72.818779" cx="50.015472" />
  <ellipse id="ellipse97" style="fill:#e0e1e2;stroke-width:0.27720001" ry="1.5858612" rx="12.03048" cy="72.818779" cx="50.015472" />
  <ellipse id="ellipse99" style="fill:#dfe0e1;stroke-width:0.27720001" ry="1.4641705" rx="11.110176" cy="72.818779" cx="50.015472" />
  <ellipse id="ellipse101" style="fill:#dedfe0;stroke-width:0.27720001" ry="1.3427567" rx="10.1871" cy="72.818779" cx="50.015472" />
  <ellipse id="ellipse103" style="fill:#dddee0;stroke-width:0.27720001" ry="1.2213433" rx="9.2667961" cy="72.818779" cx="50.015472" />
  <ellipse id="ellipse105" style="fill:#dddedf;stroke-width:0.27720001" ry="1.0996524" rx="8.3437204" cy="72.818779" cx="50.015472" />
  <ellipse id="ellipse107" style="fill:#dcddde;stroke-width:0.27720001" ry="0.97907043" rx="7.4234161" cy="72.818779" cx="50.015472" />
  <path inkscape:connector-curvature="0" id="path109" style="fill:url(#SVGID_6_);stroke-width:0.27720001" d="M 28.865113,22.368377 H 29.989713 C 30.973773,22.368377 33.363237,23.071079 31.817016,26.773085 L 25.491312,42.093929 17.807328,22.368377 H 21.03948 V 21.103236 H 0 V 22.368377 H 2.4831576 L 15.087441,53.581097 H 22.677177 L 33.876057,25.556177 C 34.532467,23.916539 36.031565,22.371149 36.828237,22.371149 H 37.952838 V 21.106008 H 28.86345 Z M 39.595525,22.368377 H 43.157545 V 52.305977 H 39.595525 V 53.570841 H 61.242073 V 52.305977 H 57.682825 V 22.368377 H 61.242073 V 21.103236 H 39.595525 Z M 86.553205,21.103236 H 62.470069 V 22.368377 H 66.032089 V 52.305977 H 62.375821 V 53.570841 H 84.490837 V 52.305977 H 80.133253 V 40.264409 H 86.553205 C 96.626653,40.264409 100.00018,35.202737 100.00018,30.612305 100.00045,26.113349 96.626653,21.098801 86.553205,21.098801 Z M 85.288064,33.801768 C 85.288064,37.549512 83.976077,39.00204 81.91454,39.00204 H 80.133807 V 22.367268 H 81.633182 C 84.538238,22.367268 85.286678,24.89755 85.286678,27.051948 Z" />
  <path inkscape:connector-curvature="0" id="path111" style="fill:url(#SVGID_7_);stroke-width:0.27720001" d="M 57.666193,7.9816968 C 58.104723,8.469846 58.373885,9.11295 58.373885,9.8206416 58.373885,11.34247 57.140067,12.575733 55.619071,12.575733 54.096689,12.575733 52.863149,11.34247 52.863149,9.8206416 52.863149,8.4110796 53.922607,7.2504432 55.287817,7.0874496 55.274234,7.0785792 55.259265,7.0716492 55.245683,7.063056 53.344922,5.8846788 50.405771,3.096324 50.405771,0 V 16.108092 C 55.206875,16.108092 59.323295,16.834633 59.323295,16.834633 59.323295,11.143717 63.359327,6.0959052 63.359327,6.0959052 61.729668,7.7252868 59.644847,8.3165544 57.665639,7.9814196 Z" />
  <path inkscape:connector-curvature="0" id="path113" style="fill:url(#SVGID_8_);stroke-width:0.27720001" d="M 50.403553,19.762697 H 59.321077 V 17.968381 C 59.321077,17.968381 55.204657,17.24184 50.403553,17.24184 Z" />
  <path inkscape:connector-curvature="0" id="path115" style="fill:url(#SVGID_9_);stroke-width:0.27720001" d="M 43.140913,7.9816968 C 42.702937,8.469846 42.433221,9.11295 42.433221,9.8206416 42.433221,11.34247 43.667316,12.575733 45.188589,12.575733 46.71014,12.575733 47.944512,11.34247 47.944512,9.8206416 47.944512,8.4110796 46.884499,7.2504432 45.519012,7.0874496 45.533426,7.0785792 45.548118,7.0716492 45.561978,7.063056 47.462738,5.8846788 50.40189,3.096324 50.40189,0 V 16.108092 C 45.603558,16.108092 41.484366,16.834633 41.484366,16.834633 41.484366,11.143717 37.448334,6.0959052 37.448334,6.0959052 39.077438,7.7252868 41.162814,8.3165544 43.142022,7.9814196 Z" />
  <path inkscape:connector-curvature="0" id="path117" style="fill:url(#SVGID_10_);stroke-width:0.27720001" d="M 50.403553,19.762697 H 41.486029 V 17.968381 C 41.486029,17.968381 45.605221,17.24184 50.403553,17.24184 Z" />
</svg>
