<svg version="1.1" viewBox="0 0 75 58.9" xmlns="http://www.w3.org/2000/svg">
 <defs>
  <linearGradient id="SVGID_6_" x1="537.5" x2="537.5" y1="370.2" y2="253.1" gradientTransform="matrix(.2079 0 0 .2079 -74.23 -36.78)" gradientUnits="userSpaceOnUse">
   <stop style="stop-color:#AB933D" offset="0"/>
   <stop style="stop-color:#D2B34B" offset="1"/>
  </linearGradient>
  <linearGradient id="SVGID_7_" x1="562.2" x2="562.2" y1="237.7" y2="176.9" gradientTransform="matrix(.2079 0 0 .2079 -74.23 -36.78)" gradientUnits="userSpaceOnUse">
   <stop style="stop-color:#AB933D" offset="0"/>
   <stop style="stop-color:#D2B34B" offset="1"/>
  </linearGradient>
  <linearGradient id="SVGID_8_" x1="555" x2="555" y1="248.2" y2="239.1" gradientTransform="matrix(.2079 0 0 .2079 -74.23 -36.78)" gradientUnits="userSpaceOnUse">
   <stop style="stop-color:#AB933D" offset="0"/>
   <stop style="stop-color:#D2B34B" offset="1"/>
  </linearGradient>
  <linearGradient id="SVGID_9_" x1="515.5" x2="515.5" y1="237.7" y2="176.9" gradientTransform="matrix(.2079 0 0 .2079 -74.23 -36.78)" gradientUnits="userSpaceOnUse">
   <stop style="stop-color:#BFA344" offset="0"/>
   <stop style="stop-color:#E8C453" offset="1"/>
  </linearGradient>
  <linearGradient id="SVGID_10_" x1="522.8" x2="522.8" y1="248.2" y2="239.1" gradientTransform="matrix(.2079 0 0 .2079 -74.23 -36.78)" gradientUnits="userSpaceOnUse">
   <stop style="stop-color:#BFA344" offset="0"/>
   <stop style="stop-color:#E8C453" offset="1"/>
  </linearGradient>
 </defs>
 <path d="m70.03 54.61c0 2.368-14.56 4.287-32.52 4.287-17.95 0-32.52-1.92-32.52-4.287 0-2.368 14.56-4.287 32.52-4.287 17.95 0 32.52 1.92 32.52 4.287z" style="fill:#ffffff;stroke-width:.2079"/>
 <path d="m37.51 50.41c17.58 0 31.83 1.879 31.83 4.197 0 2.318-14.25 4.197-31.83 4.197-17.58 0-31.83-1.88-31.83-4.197 0-2.318 14.25-4.197 31.83-4.197z" style="fill:#fdfdfd;stroke-width:.2079"/>
 <path d="m37.51 50.52c17.2 0 31.14 1.838 31.14 4.106 0 2.266-13.94 4.106-31.14 4.106s-31.14-1.839-31.14-4.106c0-2.268 13.94-4.106 31.14-4.106z" style="fill:#fcfcfc;stroke-width:.2079"/>
 <path d="m37.51 50.6c16.82 0 30.46 1.798 30.46 4.015 0 2.216-13.63 4.015-30.46 4.015-16.83 0-30.46-1.798-30.46-4.015 0-2.216 13.63-4.015 30.46-4.015z" style="fill:#fafbfb;stroke-width:.2079"/>
 <path d="m37.51 50.68c16.43 0 29.75 1.757 29.75 3.923s-13.32 3.923-29.75 3.923c-16.43 0-29.75-1.757-29.75-3.923 0-2.166 13.32-3.923 29.75-3.923z" style="fill:#f9f9fa;stroke-width:.2079"/>
 <ellipse cx="37.51" cy="54.61" rx="29.06" ry="3.832" style="fill:#f8f8f9;stroke-width:.2079"/>
 <path d="m37.51 50.87c15.67 0 28.38 1.675 28.38 3.742 0 2.065-12.7 3.742-28.38 3.742s-28.38-1.676-28.38-3.742c0-2.066 12.7-3.742 28.38-3.742z" style="fill:#f7f7f8;stroke-width:.2079"/>
 <path d="m37.51 50.95c15.29 0 27.69 1.634 27.69 3.651 0 2.015-12.39 3.651-27.69 3.651-15.3 0-27.69-1.635-27.69-3.651 0-2.016 12.39-3.651 27.69-3.651z" style="fill:#f6f7f7;stroke-width:.2079"/>
 <ellipse cx="37.51" cy="54.61" rx="26.99" ry="3.559" style="fill:#f5f6f6;stroke-width:.2079"/>
 <ellipse cx="37.51" cy="54.61" rx="26.3" ry="3.468" style="fill:#f4f5f5;stroke-width:.2079"/>
 <ellipse cx="37.51" cy="54.61" rx="25.61" ry="3.376" style="fill:#f4f4f4;stroke-width:.2079"/>
 <ellipse cx="37.51" cy="54.61" rx="24.93" ry="3.285" style="fill:#f3f3f4;stroke-width:.2079"/>
 <ellipse cx="37.51" cy="54.61" rx="24.22" ry="3.193" style="fill:#f2f2f3;stroke-width:.2079"/>
 <ellipse cx="37.51" cy="54.61" rx="23.53" ry="3.104" style="fill:#f1f2f2;stroke-width:.2079"/>
 <ellipse cx="37.51" cy="54.61" rx="22.85" ry="3.012" style="fill:#f0f1f1;stroke-width:.2079"/>
 <ellipse cx="37.51" cy="54.61" rx="22.16" ry="2.921" style="fill:#eff0f1;stroke-width:.2079"/>
 <ellipse cx="37.51" cy="54.61" rx="21.46" ry="2.83" style="fill:#efeff0;stroke-width:.2079"/>
 <ellipse cx="37.51" cy="54.61" rx="20.77" ry="2.738" style="fill:#eeeeef;stroke-width:.2079"/>
 <ellipse cx="37.51" cy="54.61" rx="20.08" ry="2.647" style="fill:#edeeee;stroke-width:.2079"/>
 <ellipse cx="37.51" cy="54.61" rx="19.39" ry="2.557" style="fill:#ecedee;stroke-width:.2079"/>
 <ellipse cx="37.51" cy="54.61" rx="18.7" ry="2.466" style="fill:#ebeced;stroke-width:.2079"/>
 <ellipse cx="37.51" cy="54.61" rx="18.01" ry="2.374" style="fill:#ebebec;stroke-width:.2079"/>
 <ellipse cx="37.51" cy="54.61" rx="17.32" ry="2.283" style="fill:#eaeaeb;stroke-width:.2079"/>
 <ellipse cx="37.51" cy="54.61" rx="16.63" ry="2.191" style="fill:#e9eaeb;stroke-width:.2079"/>
 <ellipse cx="37.51" cy="54.61" rx="15.94" ry="2.1" style="fill:#e8e9ea;stroke-width:.2079"/>
 <ellipse cx="37.51" cy="54.61" rx="15.24" ry="2.01" style="fill:#e7e8e9;stroke-width:.2079"/>
 <ellipse cx="37.51" cy="54.61" rx="14.55" ry="1.918" style="fill:#e6e7e8;stroke-width:.2079"/>
 <ellipse cx="37.51" cy="54.61" rx="13.86" ry="1.827" style="fill:#e5e6e7;stroke-width:.2079"/>
 <ellipse cx="37.51" cy="54.61" rx="13.17" ry="1.736" style="fill:#e5e6e7;stroke-width:.2079"/>
 <ellipse cx="37.51" cy="54.61" rx="12.48" ry="1.645" style="fill:#e4e5e6;stroke-width:.2079"/>
 <ellipse cx="37.51" cy="54.61" rx="11.79" ry="1.554" style="fill:#e3e4e5;stroke-width:.2079"/>
 <ellipse cx="37.51" cy="54.61" rx="11.1" ry="1.463" style="fill:#e2e3e4;stroke-width:.2079"/>
 <ellipse cx="37.51" cy="54.61" rx="10.41" ry="1.372" style="fill:#e1e2e4;stroke-width:.2079"/>
 <ellipse cx="37.51" cy="54.61" rx="9.713" ry="1.28" style="fill:#e1e2e3;stroke-width:.2079"/>
 <ellipse cx="37.51" cy="54.61" rx="9.023" ry="1.189" style="fill:#e0e1e2;stroke-width:.2079"/>
 <ellipse cx="37.51" cy="54.61" rx="8.333" ry="1.098" style="fill:#dfe0e1;stroke-width:.2079"/>
 <ellipse cx="37.51" cy="54.61" rx="7.64" ry="1.007" style="fill:#dedfe0;stroke-width:.2079"/>
 <ellipse cx="37.51" cy="54.61" rx="6.95" ry=".916" style="fill:#dddee0;stroke-width:.2079"/>
 <ellipse cx="37.51" cy="54.61" rx="6.258" ry=".8247" style="fill:#dddedf;stroke-width:.2079"/>
 <ellipse cx="37.51" cy="54.61" rx="5.568" ry=".7343" style="fill:#dcddde;stroke-width:.2079"/>
 <path d="m21.65 16.78h0.8434c0.738 0 2.53 0.527 1.37 3.304l-4.744 11.49-5.763-14.79h2.424v-0.9489h-15.78v0.9489h1.862l9.453 23.41h5.692l8.399-21.02c0.4923-1.23 1.617-2.389 2.214-2.389h0.8434v-0.9489h-6.817zm8.048 0h2.672v22.45h-2.672v0.9486h16.23v-0.9486h-2.669v-22.45h2.669v-0.9489h-16.23zm35.22-0.9489h-18.06v0.9489h2.672v22.45h-2.742v0.9486h16.59v-0.9486h-3.268v-9.031h4.815c7.555 0 10.09-3.796 10.09-7.239 2.02e-4 -3.374-2.53-7.135-10.09-7.135zm-0.9489 9.524c0 2.811-0.984 3.9-2.53 3.9h-1.336v-12.48h1.125c2.179 0 2.74 1.898 2.74 3.514z" style="fill:url(#SVGID_6_);stroke-width:.2079"/>
 <path d="m43.25 5.986c0.3289 0.3661 0.5308 0.8484 0.5308 1.379 0 1.141-0.9254 2.066-2.066 2.066-1.142 0-2.067-0.9249-2.067-2.066 0-1.057 0.7946-1.928 1.818-2.05-0.01019-0.006653-0.02141-0.01185-0.0316-0.0183-1.426-0.8838-3.63-2.975-3.63-5.297v12.08c3.601 0 6.688 0.5449 6.688 0.5449 0-4.268 3.027-8.054 3.027-8.054-1.222 1.222-2.786 1.665-4.27 1.414z" style="fill:url(#SVGID_7_);stroke-width:.2079"/>
 <path d="m37.8 14.82h6.688v-1.346s-3.087-0.5449-6.688-0.5449z" style="fill:url(#SVGID_8_);stroke-width:.2079"/>
 <path d="m32.36 5.986c-0.3285 0.3661-0.5308 0.8484-0.5308 1.379 0 1.141 0.9256 2.066 2.067 2.066 1.141 0 2.067-0.9249 2.067-2.066 0-1.057-0.795-1.928-1.819-2.05 0.01081-0.006653 0.02183-0.01185 0.03222-0.0183 1.426-0.8838 3.63-2.975 3.63-5.297v12.08c-3.599 0-6.688 0.5449-6.688 0.5449 0-4.268-3.027-8.054-3.027-8.054 1.222 1.222 2.786 1.665 4.27 1.414z" style="fill:url(#SVGID_9_);stroke-width:.2079"/>
 <path d="m37.8 14.82h-6.688v-1.346s3.089-0.5449 6.688-0.5449z" style="fill:url(#SVGID_10_);stroke-width:.2079"/>
</svg>
