<svg version="1.1" viewBox="0 0 75 75" xmlns="http://www.w3.org/2000/svg">
 <path d="m37.5 0c-20.71 0-37.5 16.79-37.5 37.5 0 20.71 16.79 37.5 37.5 37.5 20.71 0 37.5-16.79 37.5-37.5 0-20.71-16.79-37.5-37.5-37.5zm0 68.05c-16.87 0-30.55-13.68-30.55-30.55 0-16.87 13.68-30.55 30.55-30.55 16.87 0 30.55 13.68 30.55 30.55 0 16.87-13.68 30.55-30.55 30.55z" style="fill:#030302;stroke-width:.3357"/>
 <path d="m37.5 30.95c-6.449 0-10.94 2.496-10.94 4.737 0 2.24 4.495 4.737 10.94 4.737 6.449 0 10.94-2.496 10.94-4.737 0-2.24-4.495-4.737-10.94-4.737z" style="fill:#030302;stroke-width:.3357"/>
 <path d="m62.11 33.4s-13.29-7.433-24.58-7.433c-11.49 0-24.58 7.433-24.58 7.433l-10 0.2864s0.286 10.58 3.716 9.719c3.431-0.8581 13.08-2.817 17.15-1.43 2.737 0.9316 8.863 7.433 8.863 7.433v18.58h9.719v-18.58s6.124-6.5 8.863-7.433c4.072-1.387 13.72 0.5717 17.15 1.43 3.431 0.8574 3.716-9.719 3.716-9.719zm-24.58 9.075c-7.285 0-12.99-2.98-12.99-6.785 0-3.804 5.707-6.785 12.99-6.785s12.99 2.98 12.99 6.785c-3.35e-4 3.804-5.707 6.785-12.99 6.785z" style="fill:#030302;stroke-width:.3357"/>
</svg>
