<?xml version="1.0" encoding="UTF-8" standalone="no"?>
<svg xmlns:dc="http://purl.org/dc/elements/1.1/" xmlns:cc="http://creativecommons.org/ns#" xmlns:rdf="http://www.w3.org/1999/02/22-rdf-syntax-ns#" xmlns:svg="http://www.w3.org/2000/svg" xmlns="http://www.w3.org/2000/svg" xmlns:xlink="http://www.w3.org/1999/xlink" xmlns:sodipodi="http://sodipodi.sourceforge.net/DTD/sodipodi-0.dtd" xmlns:inkscape="http://www.inkscape.org/namespaces/inkscape" version="1.1" viewBox="0 0 99.99 99.99" id="svg31131" sodipodi:docname="i29a.svg" inkscape:version="0.92.2 (5c3e80d, 2017-08-06)">
  <metadata id="metadata31137">
    <rdf:RDF>
      <cc:Work rdf:about="">
        <dc:format>image/svg+xml</dc:format>
        <dc:type rdf:resource="http://purl.org/dc/dcmitype/StillImage" />
        <dc:title></dc:title>
      </cc:Work>
    </rdf:RDF>
  </metadata>
  <defs id="defs31135">
    <linearGradient id="reslogo-linearGradient5862" x1="-1520.8899" xlink:href="#reslogo-linearGradientSlvr" gradientUnits="userSpaceOnUse" x2="-1520.8899" gradientTransform="matrix(3.7829288,0,0,3.8170356,5531.411,-6803.2231)" y1="1777.6238" y2="1889.6127" />
    <linearGradient id="reslogo-linearGradientSlvr" y2="828" gradientUnits="userSpaceOnUse" x2="-1869" gradientTransform="matrix(1.301,0,0,1.301,1365,-35.3)" y1="794.40002" x1="-1869">
      <stop id="reslogo-stop4422" stop-color="#696969" offset="0" />
      <stop id="reslogo-stop4424" stop-color="#c7c7c9" offset=".17" />
      <stop id="reslogo-stop4426" stop-color="#f9f9ff" offset=".36" />
      <stop id="reslogo-stop4428" stop-color="#ccccce" offset=".73" />
      <stop id="reslogo-stop4430" stop-color="#696969" offset="1" />
    </linearGradient>
    <linearGradient inkscape:collect="always" xlink:href="#reslogo-linearGradientSlvr" id="linearGradient33369" x1="13.905607" y1="13.738063" x2="85.138657" y2="86.988197" gradientUnits="userSpaceOnUse" />
    <linearGradient inkscape:collect="always" xlink:href="#reslogo-linearGradientSlvr" id="linearGradient33377" x1="35.379761" y1="47.576077" x2="64.563278" y2="47.576077" gradientUnits="userSpaceOnUse" />
    <linearGradient id="reslogo-linearGradient4674" y2="1416.3735" xlink:href="#reslogo-linearGradient7728" gradientUnits="userSpaceOnUse" x2="-1867.58" gradientTransform="matrix(2.9609637,0,0,4.8705374,5519.1571,-6810.3191)" y1="1405.5918" x1="-1867.2765" />
    <linearGradient id="reslogo-linearGradient7728" y2="781.40002" gradientUnits="userSpaceOnUse" x2="-1405" gradientTransform="scale(0.7835,1.276)" y1="704.40002" x1="-1405">
      <stop id="reslogo-stop4435" stop-color="#1c072d" offset="0" />
      <stop id="reslogo-stop4437" stop-color="#5700aa" offset=".29" />
      <stop id="reslogo-stop4439" stop-color="#4b127b" offset=".64" />
      <stop id="reslogo-stop4441" stop-color="#290a43" offset="1" style="stop-color:#141414;stop-opacity:1" />
    </linearGradient>
    <linearGradient id="reslogo-linearGradient4678" y2="1076" xlink:href="#reslogo-linearGradient7732" gradientUnits="userSpaceOnUse" x2="-1040" gradientTransform="matrix(1.9356804,0,0,1.94308,1024.0551,-1708.6573)" y1="884.29999" x1="-1040" />
    <linearGradient id="reslogo-linearGradient7732" y2="1076" gradientUnits="userSpaceOnUse" x2="-1040" gradientTransform="matrix(0.5122,0,0,0.5116,-456,447.2)" y1="884.29999" x1="-1040">
      <stop id="reslogo-stop4444" stop-color="#141414" offset="0" />
      <stop id="reslogo-stop4446" stop-color="#0a0a0a" offset=".15" />
      <stop id="reslogo-stop4448" stop-color="#6d6d6d" offset=".3" />
      <stop id="reslogo-stop4450" offset=".44" />
      <stop id="reslogo-stop4452" stop-color="#141414" offset=".62" />
      <stop id="reslogo-stop4454" stop-color="#262626" offset=".75" />
      <stop id="reslogo-stop4456" stop-color="#040404" offset="1" />
    </linearGradient>
    <linearGradient inkscape:collect="always" xlink:href="#reslogo-linearGradient7732" id="linearGradient33452" gradientUnits="userSpaceOnUse" gradientTransform="matrix(2.9609637,0,0,4.8705374,5519.1571,-6810.3191)" x1="-1867.2765" y1="1405.5918" x2="-1867.58" y2="1416.3735" />
    <linearGradient inkscape:collect="always" xlink:href="#reslogo-linearGradient7732" id="linearGradient33460" x1="-0.0254" y1="49.98864" x2="99.968437" y2="49.98864" gradientUnits="userSpaceOnUse" />
  </defs>
  <sodipodi:namedview pagecolor="#ffffff" bordercolor="#666666" borderopacity="1" objecttolerance="10" gridtolerance="10" guidetolerance="10" inkscape:pageopacity="0" inkscape:pageshadow="2" inkscape:window-width="2560" inkscape:window-height="1001" id="namedview31133" showgrid="false" inkscape:zoom="6.6757557" inkscape:cx="60.338493" inkscape:cy="44.536953" inkscape:window-x="-9" inkscape:window-y="41" inkscape:window-maximized="1" inkscape:current-layer="svg31131" />
  <path d="M 49.97152,-0.00828 C 22.359076,-0.00828 -0.0254,22.376196 -0.0254,49.98864 -0.0254,77.601084 22.359076,99.98556 49.97152,99.98556 77.583964,99.98556 99.96844,77.601084 99.96844,49.98864 99.96844,22.376196 77.583964,-0.00828 49.97152,-0.00828 Z M 49.97152,90.72024 C 27.475144,90.72024 9.23992,72.485016 9.23992,49.98864 9.23992,27.492264 27.475144,9.25704 49.97152,9.25704 72.467896,9.25704 90.70312,27.492264 90.70312,49.98864 90.70312,72.485016 72.467896,90.72024 49.97152,90.72024 Z" style="fill:url(#reslogo-linearGradient5862);stroke-width:2;stroke:url(#linearGradient33369);stroke-miterlimit:4;stroke-dasharray:none;opacity:1;fill-opacity:1;stroke-linecap:butt;stroke-linejoin:miter;stroke-dashoffset:0;stroke-opacity:1" id="path32783" inkscape:connector-curvature="0" />
  <path inkscape:connector-curvature="0" id="path31124" style="fill:url(#linearGradient33460);stroke-width:0.44760001;fill-opacity:1" d="M 49.97152,-0.00828 C 22.359076,-0.00828 -0.0254,22.376196 -0.0254,49.98864 -0.0254,77.601084 22.359076,99.98556 49.97152,99.98556 77.583964,99.98556 99.96844,77.601084 99.96844,49.98864 99.96844,22.376196 77.583964,-0.00828 49.97152,-0.00828 Z M 49.97152,90.72024 C 27.475144,90.72024 9.23992,72.485016 9.23992,49.98864 9.23992,27.492264 27.475144,9.25704 49.97152,9.25704 72.467896,9.25704 90.70312,27.492264 90.70312,49.98864 90.70312,72.485016 72.467896,90.72024 49.97152,90.72024 Z" />
  <path inkscape:connector-curvature="0" id="path31126" style="display:inline;fill:url(#linearGradient33377);stroke-width:0.44760001;fill-opacity:1" d="M 49.97152,41.26044 C 41.373124,41.26044 35.37976,44.588794 35.37976,47.576076 35.37976,50.562911 41.373124,53.891712 49.97152,53.891712 58.569916,53.891712 64.56328,50.564254 64.56328,47.576076 64.56328,44.590136 58.569916,41.26044 49.97152,41.26044 Z" />
  <path inkscape:connector-curvature="0" id="path31128" style="display:inline;fill:url(#linearGradient33452);stroke-width:13.4949425;opacity:1;fill-opacity:1;stroke:none;stroke-linecap:butt;stroke-linejoin:miter;stroke-miterlimit:4;stroke-dasharray:none;stroke-dashoffset:0;stroke-opacity:1" d="M 82.7806,44.52792 C 82.7806,44.52792 65.064592,34.618056 50.002852,34.618056 34.690456,34.618056 17.225104,44.52792 17.225104,44.52792 L 3.886624,44.909723 C 3.886624,44.909723 4.2679792,59.009123 8.841556,57.867743 13.416028,56.723677 26.280052,54.112379 31.70944,55.961414 35.358723,57.203504 43.52608,65.871278 43.52608,65.871278 V 90.645938 H 56.4841 V 65.871278 C 56.4841,65.871278 64.648324,57.205742 68.30074,55.961414 73.730128,54.112379 86.594152,56.723677 91.168624,57.867743 95.743096,59.010913 96.123556,44.909723 96.123556,44.909723 Z M 50.002852,56.626548 C 40.289932,56.626548 32.680732,52.65365 32.680732,47.580552 32.680732,42.509244 40.289932,38.534556 50.002852,38.534556 59.715772,38.534556 67.324972,42.507454 67.324972,47.580552 67.324524,52.65186 59.715772,56.626548 50.002852,56.626548 Z" />
</svg>
