<svg version="1.1" viewBox="0 0 75 75" xmlns="http://www.w3.org/2000/svg" xmlns:xlink="http://www.w3.org/1999/xlink">
 <defs>
  <linearGradient id="reslogo-linearGradient5862" x1="-1521" x2="-1521" y1="1778" y2="1890" gradientTransform="matrix(2.782 0 0 2.807 4068 -5002)" gradientUnits="userSpaceOnUse" xlink:href="#reslogo-linearGradientSlvr"/>
  <linearGradient id="reslogo-linearGradientSlvr" x1="-1869" x2="-1869" y1="794.4" y2="828" gradientTransform="matrix(1.301,0,0,1.301,1365,-35.3)" gradientUnits="userSpaceOnUse">
   <stop stop-color="#696969" offset="0"/>
   <stop stop-color="#c7c7c9" offset=".17"/>
   <stop stop-color="#f9f9ff" offset=".36"/>
   <stop stop-color="#ccccce" offset=".73"/>
   <stop stop-color="#696969" offset="1"/>
  </linearGradient>
  <linearGradient id="linearGradient33369" x1="13.91" x2="85.14" y1="13.74" y2="86.99" gradientTransform="matrix(.7353 0 0 .7353 .754 .7414)" gradientUnits="userSpaceOnUse" xlink:href="#reslogo-linearGradientSlvr"/>
  <linearGradient id="linearGradient33377" x1="35.38" x2="64.56" y1="47.58" y2="47.58" gradientTransform="matrix(.7353 0 0 .7353 .754 .7414)" gradientUnits="userSpaceOnUse" xlink:href="#reslogo-linearGradientSlvr"/>
  <linearGradient id="reslogo-linearGradient7732" x1="-1040" x2="-1040" y1="884.3" y2="1076" gradientTransform="matrix(.5122 0 0 .5116 -456 447.2)" gradientUnits="userSpaceOnUse">
   <stop stop-color="#141414" offset="0"/>
   <stop stop-color="#0a0a0a" offset=".15"/>
   <stop stop-color="#6d6d6d" offset=".3"/>
   <stop offset=".44"/>
   <stop stop-color="#141414" offset=".62"/>
   <stop stop-color="#262626" offset=".75"/>
   <stop stop-color="#040404" offset="1"/>
  </linearGradient>
  <linearGradient id="linearGradient33452" x1="-1867" x2="-1868" y1="1406" y2="1416" gradientTransform="matrix(2.177 0 0 3.581 4059 -5007)" gradientUnits="userSpaceOnUse" xlink:href="#reslogo-linearGradient7732"/>
  <linearGradient id="linearGradient33460" x1="-.0254" x2="99.97" y1="49.99" y2="49.99" gradientTransform="matrix(.7353 0 0 .7353 .754 .7414)" gradientUnits="userSpaceOnUse" xlink:href="#reslogo-linearGradient7732"/>
 </defs>
 <path d="m37.5 0.7353c-20.3 0-36.76 16.46-36.76 36.76s16.46 36.76 36.76 36.76 36.76-16.46 36.76-36.76-16.46-36.76-36.76-36.76zm0 66.72c-16.54 0-29.95-13.41-29.95-29.95s13.41-29.95 29.95-29.95 29.95 13.41 29.95 29.95-13.41 29.95-29.95 29.95z" style="fill:url(#reslogo-linearGradient5862);stroke-width:1.471;stroke:url(#linearGradient33369)"/>
 <path d="m37.5 0.7353c-20.3 0-36.76 16.46-36.76 36.76s16.46 36.76 36.76 36.76 36.76-16.46 36.76-36.76-16.46-36.76-36.76-36.76zm0 66.72c-16.54 0-29.95-13.41-29.95-29.95s13.41-29.95 29.95-29.95 29.95 13.41 29.95 29.95-13.41 29.95-29.95 29.95z" style="fill:url(#linearGradient33460);stroke-width:.3291"/>
 <path d="m37.5 31.08c-6.323 0-10.73 2.447-10.73 4.644 0 2.196 4.407 4.644 10.73 4.644s10.73-2.447 10.73-4.644c0-2.196-4.407-4.644-10.73-4.644z" style="fill:url(#linearGradient33377);stroke-width:.3291"/>
 <path d="m61.63 33.48s-13.03-7.287-24.1-7.287c-11.26 0-24.1 7.287-24.1 7.287l-9.808 0.2808s0.2804 10.37 3.644 9.529c3.364-0.8413 12.82-2.761 16.82-1.402 2.683 0.9134 8.689 7.287 8.689 7.287v18.22h9.529v-18.22s6.003-6.372 8.689-7.287c3.992-1.36 13.45 0.5605 16.82 1.402 3.364 0.8406 3.644-9.529 3.644-9.529zm-24.1 8.897c-7.142 0-12.74-2.921-12.74-6.652 0-3.729 5.595-6.652 12.74-6.652 7.142 0 12.74 2.921 12.74 6.652-3.3e-4 3.729-5.595 6.652-12.74 6.652z" style="fill:url(#linearGradient33452)"/>
</svg>
