<svg version="1.1" viewBox="0 0 75 60.23" xmlns="http://www.w3.org/2000/svg" xmlns:xlink="http://www.w3.org/1999/xlink">
 <defs>
  <linearGradient id="linearGradientSlvr" x1="-1869" x2="-1869" y1="794.4" y2="828" gradientTransform="matrix(1.301,0,0,1.301,1365,-35.3)" gradientUnits="userSpaceOnUse">
   <stop style="stop-color:#696969" offset="0"/>
   <stop style="stop-color:#c7c7c9" offset=".17"/>
   <stop style="stop-color:#f9f9ff" offset=".36"/>
   <stop style="stop-color:#ccccce" offset=".73"/>
   <stop style="stop-color:#696969" offset="1"/>
  </linearGradient>
  <linearGradient id="linearGradient6413" x1="-205" x2="-195.7" y1="1224" y2="1224" gradientTransform="matrix(.8269 0 0 .8269 229.9 -1002)" gradientUnits="userSpaceOnUse" xlink:href="#linearGradientSlvr"/>
  <linearGradient id="linearGradient6421" x1="-258.4" x2="-249.1" y1="1225" y2="1225" gradientTransform="matrix(.8269 0 0 .8269 229.9 -1002)" gradientUnits="userSpaceOnUse" xlink:href="#linearGradientSlvr"/>
  <linearGradient id="linearGradient6429" x1="-232.4" x2="-220.5" y1="1230" y2="1230" gradientTransform="matrix(.8269 0 0 .8269 229.9 -1002)" gradientUnits="userSpaceOnUse" xlink:href="#linearGradientSlvr"/>
  <linearGradient id="linearGradient6437" x1="-273.9" x2="-266.6" y1="1224" y2="1224" gradientTransform="matrix(.8269 0 0 .8269 229.9 -1002)" gradientUnits="userSpaceOnUse" xlink:href="#linearGradientSlvr"/>
  <linearGradient id="linearGradient6439" x1="-261.6" x2="-257.7" y1="1214" y2="1214" gradientTransform="matrix(.8269 0 0 .8269 229.9 -1002)" gradientUnits="userSpaceOnUse" xlink:href="#linearGradientSlvr"/>
  <linearGradient id="linearGradient6441" x1="-241.7" x2="-236.7" y1="1230" y2="1230" gradientTransform="matrix(.8269 0 0 .8269 229.9 -1002)" gradientUnits="userSpaceOnUse" xlink:href="#linearGradientSlvr"/>
  <linearGradient id="linearGradient6443" x1="-242.6" x2="-235.4" y1="1217" y2="1217" gradientTransform="matrix(.8269 0 0 .8269 229.9 -1002)" gradientUnits="userSpaceOnUse" xlink:href="#linearGradientSlvr"/>
  <linearGradient id="linearGradient6445" x1="-224.3" x2="-217" y1="1216" y2="1216" gradientTransform="matrix(.8269 0 0 .8269 229.9 -1002)" gradientUnits="userSpaceOnUse" xlink:href="#linearGradientSlvr"/>
  <linearGradient id="linearGradient6447" x1="-208.8" x2="-204.9" y1="1215" y2="1215" gradientTransform="matrix(.8269 0 0 .8269 229.9 -1002)" gradientUnits="userSpaceOnUse" xlink:href="#linearGradientSlvr"/>
  <linearGradient id="linearGradient6449" x1="-214.9" x2="-211" y1="1228" y2="1228" gradientTransform="matrix(.8269 0 0 .8269 229.9 -1002)" gradientUnits="userSpaceOnUse" xlink:href="#linearGradientSlvr"/>
 </defs>
 <path d="m32.53 4.902h0.03721l1.533 1.676-1.07-1.979 2.208 0.4879-1.998-1.01c0-0.04052 0.008268-0.08103 0.008268-0.122l1.986-0.9497-2.124 0.4198 1.147-1.901-1.526 1.531c-0.06367-0.0339-0.1318-0.0645-0.2029-0.08467l-0.2626-2.167-0.2622 2.165c-0.0306 0-0.06367 0.0339-0.09385 0.0339l-1.354-1.567 0.9351 1.879c-0.03059 0.03721-0.05623 0.07773-0.0802 0.1186l-2.118-0.4184 1.98 0.9459c4.13e-4 0.0339 0 0.07111 0 0.105l-2.028 0.8857 2.233-0.3764s0.01323 0.0339 0.02067 0.0339l-1.076 1.988 1.531-1.675c0 8.26e-4 0 0 0.009922 0l0.1779 2.297 0.3869-2.29z" style="fill-rule:evenodd;fill:url(#linearGradient6443)"/>
 <path d="m20.41 11.93c0.01654 0 0.0306 0 0.04796-0.0339l1.97 2.155-1.376-2.544 2.839 0.6268-2.568-1.299c0-0.05044 0.009922-0.1051 0.009922-0.1559l2.554-1.22-2.73 0.5394 1.474-2.445-1.963 1.969c-0.08186-0.04382-0.1691-0.08103-0.2609-0.1084l-0.3374-2.786-0.3371 2.784c-0.04052 0-0.08103 0.0339-0.1206 0.04052l-1.741-2.016 1.202 2.416c-0.03721 0.04713-0.07194 0.09832-0.1029 0.1525l-2.723-0.538 2.545 1.217c4.96e-4 0.04382 0 0.08806 0.008269 0.1321l-2.607 1.138 2.87-0.4838c0.008269 0 0.02067 0.0339 0.02729 0.0339l-1.383 2.556 1.968-2.153c0 8.26e-4 0.008268 0 0.009922 0l0.229 2.953z" style="fill-rule:evenodd;fill:url(#linearGradient6421)"/>
 <path d="m15.34 2.222h0.02067l0.8318 0.9101-0.581-1.074 1.199 0.2643-1.084-0.5485v-0.0645l1.078-0.5153-1.153 0.2271c-5.79e-4 -8.27e-4 0 0 0 0l0.6225-1.032-0.8286 0.8311c-0.03473-0.0339-0.07194-0.0339-0.1101-0.04382l-0.1426-1.176-0.1423 1.175c-0.02067 0-0.0339 0-0.05127 0.0339l-0.735-0.8511 0.5076 1.02c-0.01736 0.0339-0.03059 0.04052-0.043 0.0645l-1.15-0.227 1.075 0.5137c1.65e-4 0.0339 8.27e-4 0.03721 0 0.05788l-1.101 0.4807 1.212-0.2033h0.009923l-0.5839 1.079 0.8311-0.9094v0l0.0965 1.247z" style="fill-rule:evenodd;fill:url(#linearGradient6439)"/>
 <path d="m23.24 31.15c0.8235 0.07111 1.427 0.3083 1.427 0.5862 0 0.3355-0.8757 0.6085-1.956 0.6085-1.08 0-1.956-0.271-1.956-0.6085 0-0.2846 0.6218-0.5214 1.464-0.5892v-10.93h1.021z" style="fill-rule:evenodd;fill:#000000"/>
 <path d="m16.27 37.81c1.356 0.09823 2.367 0.478 2.367 0.9317 0 0.5279-1.371 0.9561-3.061 0.9561-1.691 0-3.061-0.4282-3.061-0.9561 0-0.4568 1.025-0.8389 2.396-0.9338v-16.79h1.361z" style="fill-rule:evenodd;fill:#000000"/>
 <path d="m47.7 4.369h0.03721l1.532 1.676-1.07-1.979 2.208 0.4879-1.998-1.01c0-0.04052 0.008268-0.08103 0.008268-0.122l1.986-0.9493-2.124 0.4198 1.147-1.901-1.526 1.531c-0.06367-0.0339-0.1318-0.0645-0.203-0.08467l-0.2625-2.167-0.2623 2.165c-0.03059 0-0.06367 0.0339-0.09385 0.0339l-1.354-1.567 0.9352 1.879c-0.03059 0.03721-0.05623 0.07773-0.08021 0.1186l-2.118-0.4188 1.98 0.9464c4.13e-4 0.0339 0 0.07111 0 0.1016l-2.028 0.8857 2.233-0.3764s0.01323 0.0339 0.02067 0.0339l-1.075 1.988 1.531-1.675c0 8.27e-4 0 0 0.009923 0l0.1779 2.297 0.3869-2.29z" style="fill-rule:evenodd;fill:url(#linearGradient6445)"/>
 <path d="m64.59 10.87c0.01736 0 0.03059 0 0.04713-0.0339l1.97 2.156-1.376-2.544 2.839 0.6271-2.568-1.299c0-0.05127 0.009922-0.105 0.009922-0.1559l2.554-1.221-2.73 0.5398 1.474-2.445-1.963 1.969c-0.08186-0.04382-0.169-0.08103-0.2609-0.1085l-0.3374-2.786-0.3371 2.784c-0.04134 0-0.08103 0.0339-0.1206 0.04052l-1.741-2.015 1.202 2.416c-0.03804 0.04713-0.07194 0.09823-0.1034 0.1525l-2.723-0.538 2.545 1.217c4.96e-4 0.04382 0 0.08814 0.008268 0.1321l-2.607 1.138 2.87-0.4838c0.008268 0 0.02067 0.0339 0.02729 0.0339l-1.383 2.556 1.968-2.153h0.009922l0.229 2.953z" style="fill-rule:evenodd;fill:url(#linearGradient6413)"/>
 <path d="m58.99 3.02h0.02067l0.8319 0.9101-0.5811-1.074 1.199 0.2643-1.084-0.5482v-0.0678l1.078-0.5153-1.153 0.227v0l0.6224-1.032-0.8285 0.8315c-0.03473-0.0339-0.07111-0.0339-0.1101-0.04382l-0.1426-1.176-0.1423 1.175c-0.02067 0-0.03473 0-0.05044 0.0339l-0.735-0.8511 0.5075 1.021c-0.01654 0.0339-0.03059 0.04052-0.04382 0.0645l-1.15-0.227 1.075 0.5136c2.47e-4 0.0339 0 0.03721 0 0.05788l-1.101 0.4808 1.212-0.2033h0.009922l-0.5838 1.079 0.831-0.9091v0l0.09691 1.247z" style="fill-rule:evenodd;fill:url(#linearGradient6447)"/>
 <path d="m53.93 13.13h0.02067l0.8319 0.9101-0.581-1.074 1.199 0.2643-1.084-0.5482v-0.0645l1.078-0.5153-1.153 0.227v0l0.6225-1.032-0.8286 0.8311c-0.03473-0.0339-0.07111-0.0339-0.1105-0.04382l-0.1426-1.176-0.1423 1.175c-0.02067 0-0.03473 0-0.05044 0.0339l-0.7351-0.8507 0.5076 1.02c-0.01654 0.0339-0.03059 0.04052-0.04382 0.0645l-1.15-0.227 1.075 0.5137c2.48e-4 0.0339 0 0.03721 0 0.05788l-1.101 0.4807 1.212-0.2033h0.009922l-0.5838 1.079 0.831-0.9091v0l0.09691 1.247z" style="fill-rule:evenodd;fill:url(#linearGradient6449)"/>
 <path d="m71.24 47.66v-26.65h-2.041v26.65c-2.132 0.1389-3.726 0.6935-3.726 1.358 0 0.7681 2.132 1.391 4.762 1.391s4.762-0.6227 4.762-1.391c0-0.6674-1.61-1.225-3.757-1.36z" style="fill-rule:evenodd;fill:#000000"/>
 <path d="m52.39 31.14c0.8907 0.05788 1.561 0.3016 1.561 0.5963 0 0.3355-0.8757 0.6085-1.956 0.6085-1.08 0-1.956-0.271-1.956-0.6085 0-0.2677 0.5571-0.4957 1.331-0.577v-10.94h1.02z" style="fill-rule:evenodd;fill:#000000"/>
 <path d="m59.92 37.81c1.356 0.09823 2.367 0.478 2.367 0.9317 0 0.5279-1.371 0.9561-3.061 0.9561-1.691 0-3.061-0.4282-3.061-0.9561 0-0.4568 1.025-0.8389 2.395-0.9338v-16.79h1.361z" style="fill-rule:evenodd;fill:#000000"/>
 <path d="m6.708 11.02h0.03721l1.532 1.676-1.07-1.979 2.208 0.4875-1.998-1.01c0-0.04052 0.008269-0.08103 0.008269-0.122l1.986-0.9494-2.124 0.4195c-8.269e-4 0 0 0 0 0l1.147-1.901-1.526 1.531c-0.06367-0.0339-0.1318-0.0645-0.2029-0.08476l-0.2626-2.167-0.2622 2.165c-0.03059 0-0.06367 0.0339-0.09385 0.0339l-1.354-1.567 0.9352 1.879c-0.03059 0.03721-0.05623 0.07773-0.08021 0.1186l-2.118-0.4185 1.98 0.9464c4.135e-4 0.0339 0 0.07111 0 0.105l-2.028 0.8853 2.233-0.3765s0.01323 0.0339 0.02067 0.0339l-1.076 1.988 1.531-1.675h0.009922l0.1779 2.297z" style="fill-rule:evenodd;fill:url(#linearGradient6437)"/>
 <path d="m9.77 23.75c0.2433 0.05127 0.6774 0.122 1.157 0.1016 1-0.3016 2.018-1.314 2.199-1.501 0.4123-0.6393 0.6914-1.258 0.6914-1.258s0.3402-0.1728 0.5103 0c0.07772 0.07772 0.1199 0.2304 0.1263 0.4232 0.07525-0.1796 0.1169-0.3432 0.1169-0.4726v0.9043s-0.05044-0.04713-0.1403-0.07111c-0.02067 0.1389-0.0554 0.2846-0.1029 0.432-0.09691 0.2948-0.3807 0.7756-0.6804 1.217-0.09989 0.1456-0.3381 0.4692-0.6803 0.6952-0.4389 0.2913-1.004 0.4783-1.191 0.5218-0.2724 0.0645-0.6774 0.07442-1.055 0.0645-0.1087 0.0339-0.2172 0.0339-0.3229 0.0339-0.1287 0-0.2707-0.0339-0.4211-0.07442-0.1491 0-0.2423-0.0339-0.2423-0.0339s-1.191-0.1728-1.871-0.6956c-0.6803-0.5214-1.191-1.217-1.191-1.217s-0.4309-0.4404-0.2368-0.7816c-0.1308-0.3453-0.2318-0.9585-0.2114-1.006 0 0-0.1775 0.3618 0 0 0.1515-0.3083 2.178 2.021 3.544 2.707z" style="fill-rule:evenodd;fill:#290a43"/>
 <path d="m5.501 47.65c2.279 0.105 4.023 0.6793 4.023 1.374 0 0.7681-2.132 1.391-4.762 1.391-2.63 0-4.762-0.6227-4.762-1.391 0-0.6363 1.463-1.173 3.46-1.338v-26.67h2.041z" style="fill-rule:evenodd;fill:#000000"/>
 <path d="m32.28 15.55h0.02398l1.039 1.137-0.7257-1.342 1.497 0.332-1.354-0.6847v-0.08103l1.347-0.6437-1.44 0.2846 0.7775-1.29-1.035 1.038c-0.043-0.0339-0.08914-0.04382-0.1376-0.05788l-0.1779-1.469-0.1779 1.468c-0.02067 0-0.043 0-0.06367 0.0339l-0.9182-1.063 0.634 1.275c-0.02067 0.0339-0.03804 0.05127-0.05375 0.08103l-1.436-0.2846 1.342 0.6414c2.48e-4 0.0339 0 0.04713 0 0.07111l-1.375 0.6004 1.514-0.2542s0.009922 0 0.01323 0.0339l-0.7292 1.348 1.038-1.135v0l0.1206 1.557z" style="fill-rule:evenodd;fill:url(#linearGradient6441)"/>
 <path d="m28.06 26.62c0.5833 0.05127 1.013 0.2168 1.013 0.4205 0 0.2405-0.6092 0.4347-1.361 0.4347-0.7515 0-1.361-0.1965-1.361-0.4347 0-0.2236 0.5231-0.4059 1.198-0.4316v-6.657h0.5102z" style="fill-rule:evenodd;fill:#000000"/>
 <path d="m43.1 16.02c0.02067 0 0.04052 0 0.06036-0.0339l2.502 2.737-1.747-3.23 3.605 0.7959-3.261-1.649c0.008269-0.0645 0.01323-0.1321 0.01323-0.1999l3.242-1.55-3.466 0.6851 1.872-3.104-2.492 2.5c-0.104-0.05788-0.2152-0.1051-0.3311-0.1355l-0.4285-3.538-0.4282 3.534c-0.05209 0-0.103 0.0339-0.1528 0.05127l-2.21-2.559 1.527 3.068c-0.04796 0.06119-0.09186 0.1254-0.1308 0.1932l-3.457-0.6834 3.232 1.545c5.79e-4 0.05788 0 0.1152 0.009923 0.1693l-3.31 1.446 3.644-0.6142c0.009922 0 0.02067 0.0339 0.0339 0.04052l-1.756 3.245 2.499-2.733h0.01736l0.2907 3.749 0.6316-3.738z" style="fill-rule:evenodd;fill:url(#linearGradient6429)"/>
 <path d="m47.09 26.61c0.6498 0.0339 1.146 0.2134 1.146 0.4292 0 0.2405-0.6092 0.4347-1.361 0.4347-0.7515 0-1.361-0.1965-1.361-0.4347 0-0.2066 0.4555-0.3812 1.065-0.4245v-6.664h0.5102z" style="fill-rule:evenodd;fill:#000000"/>
 <path d="m46.45 18.91c0-0.2338 0.1972-0.4256 0.4252-0.4256 0.2348 0 0.4253 0.1898 0.4253 0.4256v0.3656c0 0.2338-0.1972 0.4258-0.4253 0.4258-0.2347 0-0.4252-0.1897-0.4252-0.4258z" style="fill-rule:evenodd;fill:#000000"/>
 <path d="m30.67 25.81h13.1l26.7 34.42h-67.01z" style="fill-rule:evenodd;fill:#d40000"/>
 <path d="m47.42 19.96c0.09451-0.1626 1.271 1.446 1.853 1.487 0.5774 0.04052 1.705-0.9392 1.705-0.9392 0.1836-0.1491 0.3192-0.07772 0.3036 0.1524l0.02729-0.4215c-0.01654 0.2338-0.1751 0.5434-0.3602 0.6918 0 0-1.123 0.9808-1.706 0.9392-0.5761-0.04052-1.619-1.258-1.711-1.333-0.0922-0.07442 0 0 0 0-0.07773-0.08467-0.1636-0.3479-0.1129-0.5767 0 0-0.09451 0.1626 0 0z" style="fill-rule:evenodd;fill:#290a43"/>
 <path d="m27.41 18.91c0-0.2338 0.1971-0.4256 0.4251-0.4256 0.2348 0 0.4253 0.1898 0.4253 0.4256v0.3656c0 0.2338-0.1972 0.4258-0.4253 0.4258-0.2347 0-0.4251-0.1897-0.4251-0.4258z" style="fill-rule:evenodd;fill:#000000"/>
 <path d="m23.45 20.31c0.05623-0.1795 1.557 1.117 2.133 1.024 0.5715-0.09154 1.454-1.307 1.454-1.307 0.146-0.1864 0.2941-0.1491 0.329 0.07772l-0.0645-0.4174c0.03556 0.2304-0.05127 0.5699-0.1989 0.7568 0 0-0.8783 1.214-1.456 1.308-0.5703 0.09145-1.854-0.8538-1.961-0.905-0.1063-0.05127 0 0 0 0-0.09484-0.0645-0.2362-0.3016-0.2368-0.5356 0 0-0.05623 0.1796 0 0z" style="fill-rule:evenodd;fill:#290a43"/>
 <path d="m3.061 18.6c0-0.7976 0.6417-1.444 1.446-1.444 0.7984 0 1.446 0.6539 1.446 1.444v0.5885c0 0.7976-0.6417 1.444-1.446 1.444-0.7984 0-1.446-0.6539-1.446-1.444z" style="fill-rule:evenodd;fill:#000000"/>
 <path d="m58.29 19.1c0-0.5608 0.453-1.016 1.02-1.016 0.5637 0 1.021 0.4544 1.021 1.016v0.5766c0 0.5608-0.4529 1.016-1.021 1.016-0.5636 0-1.02-0.4544-1.02-1.016z" style="fill-rule:evenodd;fill:#000000"/>
 <path d="m51.24 18.91c0-0.3795 0.3018-0.6871 0.6803-0.6871 0.3757 0 0.6803 0.3016 0.6803 0.6871v0.3646c0 0.3795-0.3019 0.6871-0.6803 0.6871-0.3757 0-0.6803-0.3016-0.6803-0.6871z" style="fill-rule:evenodd;fill:#000000"/>
 <path d="m68.8 18.6c0-0.7975 0.6418-1.444 1.446-1.444 0.7984 0 1.446 0.6539 1.446 1.444v0.5886c0 0.7975-0.6416 1.444-1.446 1.444-0.7984 0-1.446-0.6539-1.446-1.444z" style="fill-rule:evenodd;fill:#000000"/>
 <path d="m60.26 21.57c0.1775-0.3615 2.925 2.893 4.173 2.893 1.239 0 2.756-1.615 2.756-1.615 0.7824-0.7054 1.417-0.4218 1.417-0.3733v-0.904c0 0.4994-0.6216 1.489-1.413 2.181 0 0-1.509 1.616-2.76 1.616-1.236 0-3.64-2.439-3.848-2.583-0.208-0.1457 0 0 0 0-0.1793-0.1728-0.3508-1.153-0.3246-1.214 0 0-0.1775 0.3615 0 0z" style="fill-rule:evenodd;fill:#290a43"/>
 <path d="m53.04 20.23c0.1366-0.2032 1.517 1.99 2.267 2.097 0.7438 0.1084 2.397-1.131 2.397-1.131 0.1921-0.1355 0.3212-0.05457 0.2887 0.183l0.04382-0.3185c-0.0339 0.2371-0.2141 0.5428-0.4083 0.679 0 0-1.644 1.237-2.395 1.129-0.742-0.1084-1.984-1.778-2.097-1.883-0.1132-0.105 0 0 0 0-0.09352-0.1186-0.1833-0.4069-0.1491-0.6426 0 0-0.08269 0.08806 0.05457-0.1153z" style="fill-rule:evenodd;fill:#290a43"/>
 <path d="m14.56 19.1c0-0.561 0.453-1.016 1.021-1.016 0.5635 0 1.02 0.454 1.02 1.016v0.5763c0 0.561-0.453 1.016-1.02 1.016-0.5637 0-1.021-0.4544-1.021-1.016z" style="fill-rule:evenodd;fill:#000000"/>
 <path d="m22.09 18.9c0-0.3795 0.3019-0.6871 0.6803-0.6871 0.3757 0 0.6803 0.3016 0.6803 0.6871v0.3642c0 0.3795-0.3019 0.6871-0.6803 0.6871-0.3757 0-0.6803-0.3016-0.6803-0.6871z" style="fill-rule:evenodd;fill:#000000"/>
 <path d="m16.81 20.91c0.07276-0.2338 2.02 1.449 2.767 1.328 0.7418-0.1186 1.968-1.797 1.968-1.797 0.145-0.1864 0.292-0.1457 0.3286 0.08806l-0.04961-0.3185c0.03638 0.2372-0.04961 0.5831-0.1965 0.7711 0 0-1.219 1.674-1.968 1.795-0.7401 0.1186-2.406-1.108-2.544-1.174-0.1378-0.0678 0 0 0 0-0.1233-0.08467-0.2917-0.3355-0.3262-0.5702 0 0-0.05375 0.1084 0.01984-0.1254z" style="fill-rule:evenodd;fill:#290a43"/>
</svg>
