<?xml version="1.0" encoding="UTF-8" standalone="no"?>
<svg xmlns:dc="http://purl.org/dc/elements/1.1/" xmlns:cc="http://creativecommons.org/ns#" xmlns:rdf="http://www.w3.org/1999/02/22-rdf-syntax-ns#" xmlns:svg="http://www.w3.org/2000/svg" xmlns="http://www.w3.org/2000/svg" xmlns:xlink="http://www.w3.org/1999/xlink" xmlns:sodipodi="http://sodipodi.sourceforge.net/DTD/sodipodi-0.dtd" xmlns:inkscape="http://www.inkscape.org/namespaces/inkscape" version="1.1" id="svg386" sodipodi:docname="i3.svg" width="100" height="80.306602" inkscape:version="0.92.2 (5c3e80d, 2017-08-06)">
  <metadata id="metadata390">
    <rdf:RDF>
      <cc:Work rdf:about="">
        <dc:format>image/svg+xml</dc:format>
        <dc:type rdf:resource="http://purl.org/dc/dcmitype/StillImage" />
        <dc:title></dc:title>
      </cc:Work>
    </rdf:RDF>
  </metadata>
  <sodipodi:namedview pagecolor="#ffffff" bordercolor="#666666" borderopacity="1" objecttolerance="10" gridtolerance="10" guidetolerance="10" inkscape:pageopacity="0" inkscape:pageshadow="2" inkscape:window-width="2560" inkscape:window-height="1001" id="namedview388" showgrid="false" fit-margin-top="0" fit-margin-left="0" fit-margin-right="0" fit-margin-bottom="0" inkscape:zoom="2.6018842" inkscape:cx="-81.863747" inkscape:cy="36.420465" inkscape:window-x="-9" inkscape:window-y="41" inkscape:window-maximized="1" inkscape:current-layer="svg386" />
  <defs id="defs4543">
    <linearGradient gradientUnits="userSpaceOnUse" gradientTransform="matrix(1.301,0,0,1.301,1365,-35.3)" y2="828" y1="794.40002" x2="-1869" x1="-1869" id="linearGradientSlvr">
      <stop id="stop4422" offset="0" style="stop-color:#696969" />
      <stop id="stop4424" offset=".17" style="stop-color:#c7c7c9" />
      <stop id="stop4426" offset=".36" style="stop-color:#f9f9ff" />
      <stop id="stop4428" offset=".73" style="stop-color:#ccccce" />
      <stop id="stop4430" offset="1" style="stop-color:#696969" />
    </linearGradient>
    <linearGradient inkscape:collect="always" xlink:href="#linearGradientSlvr" id="linearGradient6413" x1="-204.98221" y1="1223.9135" x2="-195.673" y2="1223.9135" gradientUnits="userSpaceOnUse" gradientTransform="matrix(1.1024933,0,0,1.1024933,306.49414,-1336.4436)" />
    <linearGradient inkscape:collect="always" xlink:href="#linearGradientSlvr" id="linearGradient6421" x1="-258.41422" y1="1225.201" x2="-249.10541" y2="1225.201" gradientUnits="userSpaceOnUse" gradientTransform="matrix(1.1024933,0,0,1.1024933,306.49414,-1336.4436)" />
    <linearGradient inkscape:collect="always" xlink:href="#linearGradientSlvr" id="linearGradient6429" x1="-232.35471" y1="1229.7675" x2="-220.53641" y2="1229.7675" gradientUnits="userSpaceOnUse" gradientTransform="matrix(1.1024933,0,0,1.1024933,306.49414,-1336.4436)" />
    <linearGradient inkscape:collect="always" xlink:href="#linearGradientSlvr" id="linearGradient6437" x1="-273.86191" y1="1224.4572" x2="-266.6142" y2="1224.4572" gradientUnits="userSpaceOnUse" gradientTransform="matrix(1.1024933,0,0,1.1024933,306.49414,-1336.4436)" />
    <linearGradient inkscape:collect="always" xlink:href="#linearGradientSlvr" id="linearGradient6439" x1="-261.6138" y1="1214.3041" x2="-257.67422" y2="1214.3041" gradientUnits="userSpaceOnUse" gradientTransform="matrix(1.1024933,0,0,1.1024933,306.49414,-1336.4436)" />
    <linearGradient inkscape:collect="always" xlink:href="#linearGradientSlvr" id="linearGradient6441" x1="-241.6656" y1="1230.2966" x2="-236.74541" y2="1230.2966" gradientUnits="userSpaceOnUse" gradientTransform="matrix(1.1024933,0,0,1.1024933,306.49414,-1336.4436)" />
    <linearGradient inkscape:collect="always" xlink:href="#linearGradientSlvr" id="linearGradient6443" x1="-242.63881" y1="1217.0538" x2="-235.39081" y2="1217.0538" gradientUnits="userSpaceOnUse" gradientTransform="matrix(1.1024933,0,0,1.1024933,306.49414,-1336.4436)" />
    <linearGradient inkscape:collect="always" xlink:href="#linearGradientSlvr" id="linearGradient6445" x1="-224.29071" y1="1216.4038" x2="-217.04311" y2="1216.4038" gradientUnits="userSpaceOnUse" gradientTransform="matrix(1.1024933,0,0,1.1024933,306.49414,-1336.4436)" />
    <linearGradient inkscape:collect="always" xlink:href="#linearGradientSlvr" id="linearGradient6447" x1="-208.82401" y1="1215.2616" x2="-204.88431" y2="1215.2616" gradientUnits="userSpaceOnUse" gradientTransform="matrix(1.1024933,0,0,1.1024933,306.49414,-1336.4436)" />
    <linearGradient inkscape:collect="always" xlink:href="#linearGradientSlvr" id="linearGradient6449" x1="-214.94041" y1="1227.5013" x2="-211.00021" y2="1227.5013" gradientUnits="userSpaceOnUse" gradientTransform="matrix(1.1024933,0,0,1.1024933,306.49414,-1336.4436)" />
  </defs>
  <path style="fill:url(#linearGradient6443);fill-opacity:1;fill-rule:evenodd;stroke:none;stroke-width:1.1235956" d="M 43.367345,6.5357918 C 43.380575,6.5357918 43.399317,6.5357918 43.416957,6.5357918 L 45.460318,8.7709867 44.03303,6.1323895 46.977349,6.7828605 44.313836,5.436165 C 44.313836,5.3821428 44.32486,5.3281206 44.32486,5.2735472 L 46.97327,4.0073336 44.141847,4.5670695 C 44.141847,4.5670695 44.141847,4.5670695 44.141847,4.5670695 L 45.670674,2.0318862 43.635361,4.0737037 C 43.550469,4.0285015 43.459624,3.9877093 43.364809,3.9608084 L 43.014657,1.071394 42.665057,3.9580522 C 42.624265,3.9580522 42.580165,4.0032544 42.539924,4.0032544 L 40.734481,1.9134784 41.98129,4.4193354 C 41.940498,4.4689476 41.906321,4.5229698 41.874349,4.5774329 L 39.050863,4.0195713 41.690453,5.2808237 C 41.691004,5.3260259 41.690453,5.3756381 41.690453,5.4208403 L 38.986478,6.6017209 41.96332,6.0998659 C 41.96332,6.0998659 41.98096,6.1450682 41.990882,6.1450682 L 40.556869,8.795903 42.598135,6.5629131 C 42.598135,6.5640156 42.598135,6.5629131 42.611365,6.5629131 L 42.848512,9.6253088 43.364368,6.5719536 Z" id="path6405" inkscape:connector-curvature="0" />
  <path style="fill:url(#linearGradient6421);fill-opacity:1;fill-rule:evenodd;stroke:none;stroke-width:1.1235956" d="M 27.215487,15.910844 C 27.237537,15.910844 27.25628,15.910844 27.279432,15.865641 L 29.906453,18.73918 28.071573,15.347469 31.857094,16.183159 28.43264,14.451694 C 28.43264,14.384442 28.44587,14.311567 28.44587,14.243874 L 31.851141,12.616704 28.210708,13.33586 C 28.210708,13.33586 28.210708,13.33586 28.210708,13.33586 L 30.176454,10.076449 27.559686,12.701596 C 27.450539,12.643164 27.334226,12.593551 27.211849,12.557059 L 26.761922,8.841877 26.312435,12.553862 C 26.258413,12.553862 26.204391,12.599064 26.151581,12.607884 L 23.830282,9.9204462 25.433307,13.142262 C 25.383695,13.205105 25.33739,13.273349 25.296047,13.345562 L 21.665757,12.62817 25.059562,14.250489 C 25.060223,14.308921 25.059562,14.367904 25.070587,14.426667 L 21.594205,15.94447 25.42151,15.299401 C 25.432535,15.299401 25.449073,15.344603 25.457893,15.344603 L 23.614193,18.753071 26.238568,15.882179 C 26.238568,15.883281 26.249593,15.882179 26.251798,15.882179 L 26.557189,19.819182 Z" id="path6403" inkscape:connector-curvature="0" />
  <path style="fill:url(#linearGradient6439);fill-opacity:1;fill-rule:evenodd;stroke:none;stroke-width:1.1235956" d="M 20.449817,2.9623905 C 20.449817,2.9623905 20.467457,2.9623905 20.477379,2.9623905 L 21.586487,4.1757946 20.811765,2.7437661 22.41005,3.0961229 20.96424,2.3647289 C 20.96424,2.3195267 20.96424,2.3062967 20.96424,2.2787344 L 22.402002,1.5916606 20.864906,1.8944052 C 20.864134,1.8933027 20.864906,1.8944052 20.864906,1.8944052 L 21.694862,0.51838335 20.590054,1.6264994 C 20.543749,1.5812971 20.494137,1.5812971 20.443202,1.5680672 L 20.253022,-8.9973703e-6 20.063283,1.5671852 C 20.03572,1.5671852 20.01808,1.5671852 19.994928,1.6123875 L 19.014922,0.4775911 19.691742,1.8377371 C 19.66859,1.8829393 19.65095,1.8917593 19.634413,1.9237316 L 18.101616,1.6210972 19.534527,2.305966 C 19.534747,2.3511682 19.535629,2.3555782 19.534527,2.3831405 L 18.066667,3.0241301 19.682702,2.753027 C 19.682702,2.753027 19.693727,2.753027 19.695932,2.753027 L 18.917461,4.192332 20.025577,2.9798099 C 20.025577,2.9808021 20.025577,2.9798099 20.025577,2.9798099 L 20.154238,4.6422595 Z" id="path6401" inkscape:connector-curvature="0" />
  <path style="fill:#000000;fill-rule:evenodd;stroke:none;stroke-width:1.1235956" d="M 30.993291,41.534662 C 32.091264,41.629477 32.896525,41.945782 32.896525,42.31622 32.896525,42.763501 31.728875,43.127544 30.288577,43.127544 28.84828,43.127544 27.68074,42.766147 27.68074,42.31622 27.68074,41.936741 28.509815,41.620987 29.632594,41.530583 V 26.954629 H 30.993291 Z" id="path6399" inkscape:connector-curvature="0" />
  <path style="fill:#000000;fill-rule:evenodd;stroke:none;stroke-width:1.1235956" d="M 21.687586,50.409733 C 23.495675,50.540709 24.843253,51.047085 24.843253,51.652023 24.843253,52.355854 23.015649,52.926836 20.761271,52.926836 18.507003,52.926836 16.6794,52.355854 16.6794,51.652023 16.6794,51.043005 18.04594,50.533433 19.873433,50.406977 V 28.019417 H 21.687586 Z" id="path6397" inkscape:connector-curvature="0" />
  <path style="fill:url(#linearGradient6445);fill-opacity:1;fill-rule:evenodd;stroke:none;stroke-width:1.1235956" d="M 63.595561,5.8255656 C 63.608791,5.8255656 63.627534,5.8255656 63.645174,5.8255656 L 65.688424,8.0608708 64.261247,5.4226043 67.205565,6.0731856 64.542052,4.726049 C 64.542052,4.6720269 64.553077,4.6180047 64.553077,4.5634313 L 67.201596,3.2976587 64.370173,3.8573946 C 64.370173,3.8573946 64.370173,3.8573946 64.370173,3.8573946 L 65.899111,1.322101 63.863908,3.3640288 C 63.779016,3.3188266 63.688171,3.2780343 63.593246,3.2511335 L 63.243204,0.36127806 62.893494,3.2483773 C 62.852701,3.2483773 62.808602,3.2935795 62.768361,3.2935795 L 60.963028,1.2038034 62.209948,3.7096605 C 62.169156,3.7592727 62.134978,3.8132948 62.103006,3.867758 L 59.27941,3.3093451 61.919,4.5711487 C 61.919551,4.6163509 61.919,4.6659631 61.919,4.7066451 L 59.215135,5.8875257 62.191867,5.3856708 C 62.191867,5.3856708 62.209507,5.430873 62.219429,5.430873 L 60.785526,8.0817079 62.826793,5.848718 C 62.826793,5.8498205 62.826793,5.848718 62.840023,5.848718 L 63.077169,8.9111136 63.593026,5.8577584 Z" id="path6395" inkscape:connector-curvature="0" />
  <path style="fill:url(#linearGradient6413);fill-opacity:1;fill-rule:evenodd;stroke:none;stroke-width:1.1235956" d="M 86.125673,14.490942 C 86.148826,14.490942 86.166466,14.490942 86.188516,14.44574 L 88.815426,17.31983 86.980547,13.927679 90.765957,14.76381 87.341503,13.032234 C 87.341503,12.963879 87.354733,12.892217 87.354733,12.824414 L 90.759894,11.196803 87.119461,11.91651 C 87.119461,11.91651 87.119461,11.91651 87.119461,11.91651 L 89.085206,8.6566581 86.468439,11.282246 C 86.359292,11.223814 86.243089,11.174202 86.120602,11.137599 L 85.670674,7.4225271 85.221188,11.134071 C 85.166063,11.134071 85.113144,11.179273 85.060334,11.188093 L 82.739145,8.5010963 84.34217,11.722913 C 84.291455,11.785755 84.246253,11.853889 84.204358,11.926212 L 80.574179,11.20882 83.967984,12.831029 C 83.968645,12.889461 83.967984,12.948554 83.979009,13.007207 L 80.502627,14.52512 84.329932,13.880051 C 84.340957,13.880051 84.357495,13.925253 84.366315,13.925253 L 82.522615,17.333611 85.1471,14.462388 C 85.1471,14.462388 85.158125,14.462388 85.16033,14.462388 L 85.465721,18.399722 Z" id="path6393" inkscape:connector-curvature="0" />
  <path style="fill:url(#linearGradient6447);fill-opacity:1;fill-rule:evenodd;stroke:none;stroke-width:1.1235956" d="M 78.650218,4.0271785 C 78.650218,4.0271785 78.667858,4.0271785 78.67778,4.0271785 L 79.786998,5.2405827 79.012166,3.8081131 80.610561,4.16047 79.164641,3.4295169 C 79.164641,3.3843147 79.164641,3.3710848 79.164641,3.3391125 L 80.602402,2.6520386 79.065306,2.954673 C 79.065306,2.9535706 79.065306,2.954673 79.065306,2.954673 L 79.895153,1.5782102 78.790455,2.6868774 C 78.74415,2.6416752 78.69564,2.6416752 78.643603,2.6284453 L 78.453423,1.0599281 78.263683,2.627012 C 78.236121,2.627012 78.217379,2.627012 78.196431,2.6722143 L 77.216425,1.5374179 77.893135,2.8981151 C 77.871086,2.9433174 77.852343,2.9521373 77.834703,2.9841096 L 76.302017,2.6814752 77.734928,3.3662338 C 77.735258,3.411436 77.734928,3.415846 77.734928,3.4434083 L 76.267068,4.0845082 77.882993,3.8134051 C 77.882993,3.8134051 77.894017,3.8134051 77.896222,3.8134051 L 77.117862,5.2522691 78.225868,4.0401879 C 78.225868,4.0406289 78.225868,4.0412904 78.225868,4.0401879 L 78.35508,5.7026376 Z" id="path6391" inkscape:connector-curvature="0" />
  <path style="fill:url(#linearGradient6449);fill-opacity:1;fill-rule:evenodd;stroke:none;stroke-width:1.1235956" d="M 71.907479,17.512656 C 71.907479,17.512656 71.925119,17.512656 71.935041,17.512656 L 73.04426,18.72606 72.269538,17.293591 73.867822,17.645948 72.421902,16.914994 C 72.421902,16.869792 72.421902,16.856562 72.421902,16.829 L 73.859664,16.141926 72.322678,16.444561 C 72.322678,16.443458 72.322678,16.444561 72.322678,16.444561 L 73.152635,15.068649 72.047826,16.176765 C 72.001522,16.131563 71.953012,16.131563 71.900533,16.118333 L 71.710353,14.549816 71.520614,16.1169 C 71.493052,16.1169 71.474309,16.1169 71.453362,16.162102 L 70.473245,15.027857 71.150066,16.388003 C 71.128016,16.433205 71.109274,16.442025 71.091634,16.473997 L 69.558727,16.171363 70.991638,16.856232 C 70.991968,16.901434 70.991638,16.905844 70.991638,16.933406 L 69.523778,17.574396 71.139703,17.303293 C 71.139703,17.303293 71.150727,17.303293 71.152932,17.303293 L 70.374572,18.742157 71.482578,17.530075 C 71.482578,17.530516 71.482578,17.531178 71.482578,17.530075 L 71.61179,19.192525 Z" id="path6389" inkscape:connector-curvature="0" />
  <path style="fill:#000000;fill-rule:evenodd;stroke:none;stroke-width:1.1235956" d="M 94.990271,63.548697 V 28.019417 H 92.269097 V 63.551453 C 89.426538,63.736672 87.300711,64.476114 87.300711,65.361968 87.300711,66.386074 90.1436,67.216362 93.650411,67.216362 97.157221,67.216362 100,66.386074 100,65.361968 100,64.472035 97.853666,63.728514 94.990271,63.548697 Z" id="path6387" inkscape:connector-curvature="0" />
  <path style="fill:#000000;fill-rule:evenodd;stroke:none;stroke-width:1.1235956" d="M 69.852652,41.521101 C 71.040258,41.598276 71.933387,41.923181 71.933387,42.31622 71.933387,42.763501 70.765847,43.127544 69.32555,43.127544 67.885253,43.127544 66.717602,42.766147 66.717602,42.31622 66.717602,41.959343 67.460462,41.655275 68.492065,41.5469 V 26.954629 H 69.852652 Z" id="path6385" inkscape:connector-curvature="0" />
  <path style="fill:#000000;fill-rule:evenodd;stroke:none;stroke-width:1.1235956" d="M 79.888097,50.409733 C 81.696296,50.540709 83.043764,51.047085 83.043764,51.652023 83.043764,52.355854 81.216161,52.926836 78.961892,52.926836 76.707404,52.926836 74.879911,52.355854 74.879911,51.652023 74.879911,51.043005 76.246451,50.533433 78.073834,50.406977 V 28.019417 H 79.888097 Z" id="path6383" inkscape:connector-curvature="0" />
  <path style="fill:url(#linearGradient6437);fill-opacity:1;fill-rule:evenodd;stroke:none;stroke-width:1.1235956" d="M 8.943866,14.69788 C 8.9570959,14.69788 8.9758383,14.69788 8.9934782,14.69788 L 11.036729,16.933075 9.6095514,14.294919 12.55376,14.944949 9.8903565,13.598364 C 9.8903565,13.544342 9.9013814,13.49032 9.9013814,13.435746 L 12.549901,12.169863 9.7183675,12.729158 C 9.717265,12.729158 9.7183675,12.729158 9.7183675,12.729158 L 11.247305,10.193975 9.2119923,12.235903 C 9.1271004,12.1907 9.0362549,12.149908 8.9414405,12.122897 L 8.5912886,9.2335929 8.241688,12.120251 C 8.2008957,12.120251 8.156796,12.165453 8.116555,12.165453 L 6.311112,10.075677 7.5580319,12.581534 C 7.5172396,12.631146 7.4830624,12.685169 7.45109,12.739632 L 4.6274945,12.18166 7.2670839,13.443464 C 7.2676352,13.488666 7.2670839,13.538278 7.2670839,13.58348 L 4.5632191,14.76392 7.5400613,14.261955 C 7.5400613,14.261955 7.5577012,14.307157 7.5676236,14.307157 L 6.1336106,16.958433 8.1748769,14.725002 C 8.1748769,14.725002 8.1748769,14.725002 8.1881068,14.725002 L 8.4252531,17.787397 Z" id="path6381" inkscape:connector-curvature="0" />
  <path style="fill:#290a43;fill-opacity:1;fill-rule:evenodd;stroke:none;stroke-width:1.1235956" d="M 13.02717,31.665473 C 13.351524,31.733827 13.930333,31.828091 14.57011,31.800969 15.903465,31.39889 17.260414,30.048666 17.502411,29.799723 18.052114,28.947276 18.424316,28.122831 18.424316,28.122831 18.424316,28.122831 18.877882,27.89241 19.104665,28.122831 19.208299,28.226465 19.264526,28.429986 19.273126,28.687087 19.373453,28.447626 19.429018,28.229442 19.429018,28.056902 V 29.262589 C 19.429018,29.262589 19.361766,29.199747 19.241925,29.167774 19.214363,29.352993 19.168058,29.547252 19.104665,29.743717 18.975453,30.136756 18.597077,30.777855 18.197423,31.366477 18.064242,31.560626 17.746613,31.992142 17.290402,32.293453 16.705198,32.681861 15.952085,32.931245 15.703032,32.989126 15.339871,33.075121 14.799869,33.088351 14.296581,33.075121 14.151603,33.120323 14.006956,33.120323 13.866058,33.120323 13.694399,33.120323 13.505101,33.075121 13.304558,33.021099 13.105778,33.021099 12.981527,32.975896 12.981527,32.975896 12.981527,32.975896 11.394157,32.745475 10.487136,32.048479 9.5800046,31.353247 8.899656,30.425719 8.899656,30.425719 8.899656,30.425719 8.3251467,29.838531 8.5839019,29.383642 8.4094875,28.923241 8.274873,28.105632 8.3019944,28.041908 8.3019944,28.041908 8.0652891,28.524359 8.3019944,28.041908 8.5039712,27.630788 11.205962,30.736071 13.026729,31.65092 Z" id="path6379" inkscape:connector-curvature="0" />
  <path style="fill:#000000;fill-rule:evenodd;stroke:none;stroke-width:1.1235956" d="M 7.3346668,63.529734 C 10.3738,63.669751 12.699289,64.435432 12.699289,65.361968 12.699289,66.386074 9.8565099,67.216362 6.3496992,67.216362 2.8428886,67.216362 -6.6890294e-7,66.386074 -6.6890294e-7,65.361968 -6.6890294e-7,64.513599 1.9506407,63.798081 4.6134928,63.577582 V 28.019417 H 7.3346668 Z" id="path6377" inkscape:connector-curvature="0" />
  <path style="fill:url(#linearGradient6441);fill-opacity:1;fill-rule:evenodd;stroke:none;stroke-width:1.1235956" d="M 43.03781,20.738662 C 43.048835,20.738662 43.065372,20.738662 43.069782,20.738662 L 44.455175,22.254259 43.487517,20.465354 45.483912,20.908005 43.677917,19.99503 C 43.677917,19.949828 43.677917,19.922265 43.677917,19.886986 L 45.473658,19.028695 43.553887,19.408173 C 43.553887,19.408173 43.553887,19.408173 43.553887,19.408173 L 44.590561,17.688835 43.21057,19.073456 C 43.153241,19.028254 43.091722,19.015024 43.027116,18.996281 L 42.789969,17.03704 42.552823,18.994407 C 42.525261,18.994407 42.495493,18.994407 42.467931,19.039609 L 41.243722,17.622464 42.089114,19.321958 C 42.061552,19.36716 42.0384,19.390312 42.017452,19.430002 L 40.102973,19.050524 41.89276,19.905728 C 41.893091,19.95093 41.89276,19.96857 41.89276,20.000542 L 40.059424,20.801063 42.077759,20.462156 C 42.077759,20.462156 42.090989,20.462156 42.095399,20.507359 L 41.12311,22.304864 42.50707,20.79114 C 42.50707,20.791581 42.50707,20.792243 42.50707,20.79114 L 42.667923,22.867356 Z" id="path6375" inkscape:connector-curvature="0" />
  <path style="fill:#000000;fill-rule:evenodd;stroke:none;stroke-width:1.1235956" d="M 37.410463,35.490794 C 38.188162,35.559148 38.761569,35.779868 38.761569,36.051412 38.761569,36.372127 37.949362,36.630992 36.947416,36.630992 35.94547,36.630992 35.133264,36.36904 35.133264,36.051412 35.133264,35.753297 35.830701,35.510198 36.730225,35.47591 V 26.599516 H 37.410463 Z" id="path6373" inkscape:connector-curvature="0" />
  <path style="fill:url(#linearGradient6429);fill-opacity:1;fill-rule:evenodd;stroke:none;stroke-width:1.1235956" d="M 57.46195,21.36157 C 57.489512,21.36157 57.515972,21.36157 57.542432,21.316368 L 60.877805,24.96507 58.548127,20.658621 63.354226,21.719771 59.006543,19.521619 C 59.017568,19.435625 59.024183,19.345441 59.024183,19.255036 L 63.34739,17.188744 58.725518,18.102159 C 58.725518,18.102159 58.725518,18.102159 58.725518,18.102159 L 61.221232,13.96373 57.898978,17.296788 C 57.760285,17.219613 57.61211,17.156661 57.45754,17.116089 L 56.886228,12.399402 56.315357,17.11201 C 56.2459,17.11201 56.177986,17.157212 56.111616,17.180365 L 53.164431,13.768809 55.199854,17.85928 C 55.13591,17.940864 55.077367,18.026418 55.02544,18.116822 L 50.416356,17.205612 54.725121,19.265179 C 54.725893,19.342354 54.725121,19.418757 54.738351,19.49097 L 50.324629,21.418569 55.183868,20.599637 C 55.197098,20.599637 55.211431,20.64484 55.22907,20.653659 L 52.888367,24.980394 56.220432,21.335772 C 56.220432,21.335772 56.233662,21.335772 56.243585,21.335772 L 56.631221,26.334366 57.473306,21.350656 Z" id="path6371" inkscape:connector-curvature="0" />
  <path style="fill:#000000;fill-rule:evenodd;stroke:none;stroke-width:1.1235956" d="M 62.784457,35.479107 C 63.650796,35.52431 64.313064,35.763661 64.313064,36.051412 64.313064,36.372127 63.500857,36.630992 62.498911,36.630992 61.496855,36.630992 60.684648,36.36904 60.684648,36.051412 60.684648,35.775899 61.292012,35.543162 62.104219,35.485392 V 26.599516 H 62.784457 Z" id="path6369" inkscape:connector-curvature="0" />
  <path style="fill:#000000;fill-rule:evenodd;stroke:none;stroke-width:1.1235956" d="M 61.926717,25.215446 C 61.926717,24.903661 62.189662,24.647993 62.493619,24.647993 62.806727,24.647993 63.060632,24.901015 63.060632,25.215446 V 25.702858 C 63.060632,26.014533 62.797687,26.270642 62.493619,26.270642 62.180621,26.270642 61.926717,26.01773 61.926717,25.702858 Z" id="path6367" inkscape:connector-curvature="0" />
  <path style="fill:#d40000;fill-rule:evenodd;stroke:none;stroke-width:1.1235956" d="M 40.897099,34.407043 H 58.364561 L 93.961975,80.306595 H 4.6134928 Z" id="path6365" inkscape:connector-curvature="0" />
  <path style="fill:#290a43;fill-opacity:1;fill-rule:evenodd;stroke:none;stroke-width:1.1235956" d="M 63.224683,26.615392 C 63.350698,26.398532 64.919435,28.542991 65.695039,28.598557 66.46491,28.652579 67.96816,27.346345 67.96816,27.346345 68.213024,27.147566 68.393722,27.242711 68.372996,27.549535 L 68.409378,26.987594 C 68.387328,27.299269 68.17587,27.712152 67.929132,27.91005 67.929132,27.91005 66.431946,29.217827 65.654688,29.162262 64.886581,29.10824 63.495896,27.484487 63.372858,27.385594 63.24993,27.286369 63.372858,27.385594 63.372858,27.385594 63.269223,27.272699 63.154674,26.921665 63.222367,26.616715 63.222367,26.616715 63.096352,26.833575 63.222367,26.616715 Z" id="path6363" inkscape:connector-curvature="0" />
  <path style="fill:#000000;fill-rule:evenodd;stroke:none;stroke-width:1.1235956" d="M 36.552834,25.215446 C 36.552834,24.903661 36.815668,24.647993 37.119626,24.647993 37.432734,24.647993 37.686638,24.901015 37.686638,25.215446 V 25.702858 C 37.686638,26.014533 37.423693,26.270642 37.119626,26.270642 36.806628,26.270642 36.552834,26.01773 36.552834,25.702858 Z" id="path6361" inkscape:connector-curvature="0" />
  <path style="fill:#290a43;fill-opacity:1;fill-rule:evenodd;stroke:none;stroke-width:1.1235956" d="M 31.262851,27.076124 C 31.33782,26.836773 33.338294,28.565151 34.106401,28.4409 34.868445,28.318854 36.045577,26.698079 36.045577,26.698079 36.240277,26.449577 36.437734,26.499299 36.484259,26.801713 L 36.398264,26.245175 C 36.445672,26.552329 36.32991,27.005013 36.133115,27.254287 36.133115,27.254287 34.962046,28.872968 34.192396,28.99766 33.432006,29.119595 31.719944,27.859225 31.578164,27.790981 31.436383,27.722626 31.578164,27.790981 31.578164,27.790981 31.451708,27.704986 31.263292,27.388901 31.26241,27.076785 31.26241,27.076785 31.18744,27.316247 31.26241,27.076785 Z" id="path6359" inkscape:connector-curvature="0" />
  <path style="fill:#000000;fill-rule:evenodd;stroke:none;stroke-width:1.1235956" d="M 4.0810988,24.799365 C 4.0810988,23.7359 4.9367438,22.87353 6.0086981,22.87353 7.0732656,22.87353 7.9362974,23.745381 7.9362974,24.799365 V 25.58401 C 7.9362974,26.647475 7.0807626,27.509845 6.0086981,27.509845 4.9441305,27.509845 4.0810988,26.637993 4.0810988,25.58401 Z" id="path6357" inkscape:connector-curvature="0" />
  <path style="fill:#000000;fill-rule:evenodd;stroke:none;stroke-width:1.1235956" d="M 77.718942,25.469791 C 77.718942,24.72208 78.322998,24.115378 79.079529,24.115378 79.831098,24.115378 80.440226,24.721198 80.440226,25.469791 V 26.23856 C 80.440226,26.986271 79.83639,27.592973 79.079529,27.592973 78.328069,27.592973 77.718942,26.987153 77.718942,26.23856 Z" id="path6355" inkscape:connector-curvature="0" />
  <path style="fill:#000000;fill-rule:evenodd;stroke:none;stroke-width:1.1235956" d="M 68.314674,25.207729 C 68.314674,24.701794 68.717084,24.291557 69.221695,24.291557 69.722668,24.291557 70.128826,24.693636 70.128826,25.207729 V 25.693818 C 70.128826,26.199752 69.726306,26.60999 69.221695,26.60999 68.720722,26.60999 68.314674,26.20791 68.314674,25.693818 Z" id="path6353" inkscape:connector-curvature="0" />
  <path style="fill:#000000;fill-rule:evenodd;stroke:none;stroke-width:1.1235956" d="M 91.736703,24.796609 C 91.736703,23.733254 92.592458,22.870884 93.664302,22.870884 94.72887,22.870884 95.591901,23.742735 95.591901,24.796609 V 25.581364 C 95.591901,26.644718 94.736477,27.507089 93.664302,27.507089 92.599735,27.507089 91.736703,26.635237 91.736703,25.581364 Z" id="path6351" inkscape:connector-curvature="0" />
  <path style="fill:#290a43;fill-opacity:1;fill-rule:evenodd;stroke:none;stroke-width:1.1235956" d="M 80.343317,28.763821 C 80.580022,28.281811 84.242835,32.620894 85.906829,32.620894 87.558253,32.620894 89.581328,30.466952 89.581328,30.466952 90.624508,29.526415 91.47034,29.904571 91.47034,29.969177 V 28.763821 C 91.47034,29.429727 90.641596,30.749742 89.586951,31.672198 89.586951,31.672198 87.57457,33.82658 85.906829,33.82658 84.259152,33.82658 81.053543,30.574004 80.776266,30.38206 80.498878,30.187801 80.776266,30.38206 80.776266,30.38206 80.537245,30.151639 80.308588,28.844744 80.343427,28.763821 80.343427,28.763821 80.106722,29.245831 80.343427,28.763821 Z" id="path6349" inkscape:connector-curvature="0" />
  <path style="fill:#290a43;fill-opacity:1;fill-rule:evenodd;stroke:none;stroke-width:1.1235956" d="M 70.726268,26.969513 C 70.908399,26.69852 72.749453,29.622222 73.748532,29.765436 74.740225,29.909973 76.943889,28.257887 76.943889,28.257887 77.199998,28.077188 77.372097,28.185122 77.328769,28.501868 L 77.387201,28.077188 C 77.341999,28.393383 77.101766,28.800864 76.84279,28.982555 76.84279,28.982555 74.650703,30.631334 73.649198,30.487238 72.65982,30.342701 71.003434,28.116106 70.852834,27.97642 70.701902,27.836403 70.852834,27.97642 70.852834,27.97642 70.728142,27.818322 70.608411,27.433883 70.654054,27.119562 70.654054,27.119562 70.543805,27.236978 70.726819,26.965875 Z" id="path6347" inkscape:connector-curvature="0" />
  <path style="fill:#000000;fill-rule:evenodd;stroke:none;stroke-width:1.1235956" d="M 19.41204,25.467476 C 19.41204,24.719434 20.015986,24.113173 20.772737,24.113173 21.524086,24.113173 22.133324,24.718442 22.133324,25.467476 V 26.235914 C 22.133324,26.983956 21.529378,27.590217 20.772737,27.590217 20.021167,27.590217 19.41204,26.984397 19.41204,26.235914 Z" id="path6345" inkscape:connector-curvature="0" />
  <path style="fill:#000000;fill-rule:evenodd;stroke:none;stroke-width:1.1235956" d="M 29.455092,25.205524 C 29.455092,24.699479 29.857613,24.289352 30.362224,24.289352 30.863197,24.289352 31.269355,24.691431 31.269355,25.205524 V 25.691062 C 31.269355,26.196996 30.866835,26.607234 30.362224,26.607234 29.861251,26.607234 29.455092,26.205154 29.455092,25.691062 Z" id="path6343" inkscape:connector-curvature="0" />
  <path style="fill:#290a43;fill-opacity:1;fill-rule:evenodd;stroke:none;stroke-width:1.1235956" d="M 22.408396,27.880283 C 22.505416,27.568497 25.101787,29.811961 26.098331,29.650666 27.087378,29.492569 28.722927,27.254177 28.722927,27.254177 28.916304,27.005675 29.112327,27.059917 29.161057,27.371592 L 29.094908,26.946912 C 29.143417,27.263217 29.028758,27.72439 28.832955,27.975097 28.832955,27.975097 27.208211,30.207205 26.209462,30.368941 25.222621,30.527038 23.000876,28.89171 22.81698,28.803621 22.633195,28.713216 22.81698,28.803621 22.81698,28.803621 22.652598,28.690725 22.428021,28.356339 22.382047,28.043341 22.382047,28.043341 22.310384,28.187878 22.408506,27.876203 Z" id="path28940-9" inkscape:connector-curvature="0" />
</svg>
