<svg version="1.1" viewBox="0 0 70.26 75" xmlns="http://www.w3.org/2000/svg">
 <path id="XMLID_17_" d="m67.72 52.41c-0.1982 0-0.3964-0.03303-0.5946-0.06606l-54.24-15.06c-4.195-1.156-7.498-4.525-8.621-8.721l-4.195-15.95c-0.1982-0.7597 0.03303-1.586 0.5946-2.114 0.5616-0.5616 1.387-0.7597 2.147-0.5616l4.625 1.288c1.486 0.4294 2.775 1.387 3.534 2.742l5.946 10.21 9.645 2.676-10.83-23.72c-0.3634-0.7928-0.2312-1.685 0.3303-2.345 0.5616-0.6607 1.453-0.9249 2.279-0.6937l6.54 1.817c1.024 0.2973 2.411 0.6606 14.5 16.75 4.823 6.408 9.48 12.85 10.87 14.8 4.426 1.354 22.4 7.564 19.65 17.41-0.3303 0.9249-1.222 1.553-2.18 1.553zm-62.4-37.23 3.204 12.22c0.7267 2.709 2.841 4.856 5.516 5.616l51.27 14.24c-2.048-4.261-11.79-8.324-17.08-9.844-0.4625-0.1321-0.8919-0.4294-1.189-0.8258-9.877-13.77-21.31-28.8-23.65-30.52l-1.751-0.4955 10.83 23.72c0.3634 0.7928 0.2312 1.685-0.3303 2.345-0.5616 0.6606-1.453 0.9249-2.279 0.6937l-15.06-4.195c-0.5616-0.1652-1.024-0.5285-1.321-1.024l-6.375-10.97c-0.1982-0.3634-0.5285-0.5946-0.9249-0.6937z" style="stroke-width:.3303"/>
 <path id="XMLID_672_" class="st0" d="m68.05 75h-65.7c-1.222 0-2.213-0.991-2.213-2.213s0.991-2.213 2.213-2.213h65.7c1.222 0 2.213 0.991 2.213 2.213s-0.991 2.213-2.213 2.213z" style="fill:#2fa5de;stroke-width:.3303"/>
 <path id="XMLID_18_" d="m51.86 62.15c-3.435 0-6.243-2.808-6.243-6.243 0-3.435 2.808-6.243 6.243-6.243s6.243 2.808 6.243 6.243c0 3.435-2.808 6.243-6.243 6.243zm0-8.126c-1.024 0-1.85 0.8258-1.85 1.85 0 1.024 0.8258 1.85 1.85 1.85s1.85-0.8258 1.85-1.85c0-1.024-0.8588-1.85-1.85-1.85z" style="stroke-width:.3303"/>
</svg>
