<svg version="1.1" viewBox="0 0 100 106.9" xmlns="http://www.w3.org/2000/svg">
 <g id="plane_landing" transform="matrix(.4707 0 0 .4707 -485.4 -101)">
  <path id="XMLID_17_" d="m1236 373.2c-0.6 0-1.2-0.1-1.8-0.2l-164.2-45.6c-12.7-3.5-22.7-13.7-26.1-26.4l-12.7-48.3c-0.6-2.3 0.1-4.8 1.8-6.4 1.7-1.7 4.2-2.3 6.5-1.7l14 3.9c4.5 1.3 8.4 4.2 10.7 8.3l18 30.9 29.2 8.1-32.8-71.8c-1.1-2.4-0.7-5.1 1-7.1s4.4-2.8 6.9-2.1l19.8 5.5c3.1 0.9 7.3 2 43.9 50.7 14.6 19.4 28.7 38.9 32.9 44.8 13.4 4.1 67.8 22.9 59.5 52.7-1 2.8-3.7 4.7-6.6 4.7zm-188.9-112.7 9.7 37c2.2 8.2 8.6 14.7 16.7 17l155.2 43.1c-6.2-12.9-35.7-25.2-51.7-29.8-1.4-0.4-2.7-1.3-3.6-2.5-29.9-41.7-64.5-87.2-71.6-92.4l-5.3-1.5 32.8 71.8c1.1 2.4 0.7 5.1-1 7.1s-4.4 2.8-6.9 2.1l-45.6-12.7c-1.7-0.5-3.1-1.6-4-3.1l-19.3-33.2c-0.6-1.1-1.6-1.8-2.8-2.1z"/>
  <path id="XMLID_672_" class="st0" d="m1237 441.6h-198.9c-3.7 0-6.7-3-6.7-6.7s3-6.7 6.7-6.7h198.9c3.7 0 6.7 3 6.7 6.7s-3 6.7-6.7 6.7z" style="fill:#2fa5de"/>
  <path id="XMLID_18_" d="m1188 402.7c-10.4 0-18.9-8.5-18.9-18.9s8.5-18.9 18.9-18.9 18.9 8.5 18.9 18.9-8.5 18.9-18.9 18.9zm0-24.6c-3.1 0-5.6 2.5-5.6 5.6s2.5 5.6 5.6 5.6 5.6-2.5 5.6-5.6-2.6-5.6-5.6-5.6z"/>
 </g>
</svg>
