<svg version="1.1" viewBox="0 0 75 64.36" xmlns="http://www.w3.org/2000/svg">
 <path id="XMLID_5_" d="m69.09 64.36h-63.18c-3.249 0-5.91-2.63-5.91-5.91v-42.67c0-3.249 2.63-5.91 5.91-5.91h63.18c3.249 0 5.91 2.63 5.91 5.91v42.7c-0.03094 3.249-2.661 5.879-5.91 5.879zm-63.18-50.34c-0.9901 0-1.764 0.8045-1.764 1.764v42.7c0 0.9901 0.8045 1.764 1.764 1.764h63.18c0.9901 0 1.764-0.8045 1.764-1.764v-42.7c0-0.9901-0.8045-1.764-1.764-1.764z" style="stroke-width:.3094"/>
 <path id="XMLID_6_" d="m55.04 14.02h-35.12v-7.55c0-3.558 2.908-6.467 6.467-6.467h22.18c3.558 0 6.467 2.908 6.467 6.467zm-31-4.115h26.86v-3.434c0-1.3-1.052-2.351-2.351-2.351h-22.18c-1.3 0-2.351 1.052-2.351 2.351v3.434z" style="stroke-width:.3094"/>
 <path id="XMLID_678_" class="st0" d="m16.55 23.11c-0.8663 0-1.64-0.526-1.949-1.392l-3.899-11.11c-0.3713-1.083 0.1856-2.259 1.269-2.63 1.083-0.3713 2.259 0.1856 2.63 1.269l3.899 11.11c0.3713 1.083-0.1856 2.259-1.269 2.63-0.2166 0.09282-0.4332 0.1238-0.6807 0.1238z" style="fill:#2fa5de;stroke-width:.3094"/>
 <path id="XMLID_7_" class="st0" d="m15.56 36.14c-0.8663 0-1.64-0.526-1.949-1.392l-3.527-10.06c-0.1856-0.526-0.1547-1.083 0.09282-1.578l1.578-3.249c0.2475-0.495 0.6498-0.8663 1.176-1.052l5.074-1.764c0.526-0.1856 1.083-0.1547 1.578 0.09282l3.249 1.578c0.495 0.2475 0.8663 0.6498 1.052 1.176l3.527 10.06c0.1856 0.526 0.1547 1.083-0.09282 1.578-0.2475 0.495-0.6498 0.8663-1.176 1.052l-9.901 3.434c-0.2166 0.06188-0.4332 0.1238-0.6807 0.1238zm-1.3-12 2.568 7.302 6.002-2.104-2.568-7.302-1.702-0.8354-3.465 1.207z" style="fill:#2fa5de;stroke-width:.3094"/>
</svg>
