<svg version="1.1" viewBox="0 0 100 85.81" xmlns="http://www.w3.org/2000/svg">
 <g id="suitcase" transform="matrix(.4125 0 0 .4125 -63.74 -92.41)">
  <path id="XMLID_5_" d="m377.8 432h-204.2c-10.5 0-19.1-8.5-19.1-19.1v-137.9c0-10.5 8.5-19.1 19.1-19.1h204.2c10.5 0 19.1 8.5 19.1 19.1v138c-0.1 10.5-8.6 19-19.1 19zm-204.2-162.7c-3.2 0-5.7 2.6-5.7 5.7v138c0 3.2 2.6 5.7 5.7 5.7h204.2c3.2 0 5.7-2.6 5.7-5.7v-138c0-3.2-2.6-5.7-5.7-5.7z"/>
  <path id="XMLID_6_" d="m332.4 269.3h-113.5v-24.4c0-11.5 9.4-20.9 20.9-20.9h71.7c11.5 0 20.9 9.4 20.9 20.9zm-100.2-13.3h86.8v-11.1c0-4.2-3.4-7.6-7.6-7.6h-71.7c-4.2 0-7.6 3.4-7.6 7.6v11.1z"/>
  <path id="XMLID_678_" class="st0" d="m208 298.7c-2.8 0-5.3-1.7-6.3-4.5l-12.6-35.9c-1.2-3.5 0.6-7.3 4.1-8.5s7.3 0.6 8.5 4.1l12.6 35.9c1.2 3.5-0.6 7.3-4.1 8.5-0.7 0.3-1.4 0.4-2.2 0.4z" style="fill:#2fa5de"/>
  <path id="XMLID_7_" class="st0" d="m204.8 340.8c-2.8 0-5.3-1.7-6.3-4.5l-11.4-32.5c-0.6-1.7-0.5-3.5 0.3-5.1l5.1-10.5c0.8-1.6 2.1-2.8 3.8-3.4l16.4-5.7c1.7-0.6 3.5-0.5 5.1 0.3l10.5 5.1c1.6 0.8 2.8 2.1 3.4 3.8l11.4 32.5c0.6 1.7 0.5 3.5-0.3 5.1s-2.1 2.8-3.8 3.4l-32 11.1c-0.7 0.2-1.4 0.4-2.2 0.4zm-4.2-38.8 8.3 23.6 19.4-6.8-8.3-23.6-5.5-2.7-11.2 3.9z" style="fill:#2fa5de"/>
 </g>
</svg>
