<svg version="1.1" viewBox="0 0 55.85 75" xmlns="http://www.w3.org/2000/svg">
 <path id="XMLID_656_" d="m47.09 75h-38.34c-4.828 0-8.752-3.924-8.752-8.752v-57.5c0-4.828 3.924-8.752 8.752-8.752h38.34c4.828 0 8.752 3.924 8.752 8.752v57.5c0 4.828-3.924 8.752-8.752 8.752zm-38.34-70.83c-2.523 0-4.578 2.056-4.578 4.578v57.5c0 2.523 2.056 4.578 4.578 4.578h38.34c2.523 0 4.578-2.056 4.578-4.578v-57.5c0-2.523-2.056-4.578-4.578-4.578z" style="stroke-width:.3115"/>
 <path id="XMLID_653_" class="st0" d="m27.6 46.25c-9.967 0-18.06-8.098-18.06-18.06 0-9.967 8.098-18.06 18.06-18.06s18.06 8.098 18.06 18.06c0 9.967-8.098 18.06-18.06 18.06zm0-31.99c-7.662 0-13.92 6.229-13.92 13.92 0 7.693 6.229 13.92 13.92 13.92 7.662 0 13.92-6.229 13.92-13.92 0-7.693-6.26-13.92-13.92-13.92z" style="fill:#2fa5de;stroke-width:.3115"/>
 <path id="XMLID_652_" class="st0" d="m27.6 46.25c-6.26 0-8.503-9.718-8.503-18.06 0-4.423 0.6229-8.565 1.713-11.68 1.869-5.264 4.734-6.385 6.759-6.385 1.152 0 2.087 0.9344 2.087 2.087 0 1.152-0.9344 2.087-2.087 2.087-2.056 0-4.36 5.7-4.36 13.92 0 8.191 2.305 13.92 4.36 13.92 1.152 0 2.087 0.9344 2.087 2.087 0.03115 1.09-0.9032 2.025-2.056 2.025z" style="fill:#2fa5de;stroke-width:.3115"/>
 <path id="XMLID_651_" class="st0" d="m27.6 46.25c-1.152 0-2.087-0.9344-2.087-2.087s0.9344-2.087 2.087-2.087c0.9967 0 2.056-1.339 2.865-3.613 0.9344-2.647 1.495-6.385 1.495-10.31 0-8.191-2.305-13.92-4.36-13.92-1.152 0-2.087-0.9344-2.087-2.087s0.9344-2.087 2.087-2.087c6.26 0 8.503 9.718 8.503 18.06s-2.211 18.13-8.503 18.13z" style="fill:#2fa5de;stroke-width:.3115"/>
 <path id="XMLID_650_" class="st0" d="m43.6 30.24c-1.152 0-2.087-0.9344-2.087-2.087 0-0.9967-1.339-2.056-3.613-2.865-2.647-0.9344-6.385-1.495-10.31-1.495-8.191 0-13.92 2.305-13.92 4.36 0 1.152-0.9344 2.087-2.087 2.087-1.152 0-2.087-0.9344-2.087-2.087 0-6.26 9.718-8.503 18.06-8.503s18.06 2.211 18.06 8.503c0.03115 1.184-0.9032 2.087-2.025 2.087z" style="fill:#2fa5de;stroke-width:.3115"/>
 <path id="XMLID_649_" class="st0" d="m27.6 36.69c-4.423 0-8.565-0.6229-11.68-1.713-5.264-1.869-6.385-4.734-6.385-6.759 0-1.152 0.9344-2.087 2.087-2.087s2.087 0.9344 2.087 2.087c0 2.056 5.7 4.36 13.92 4.36 8.191 0 13.92-2.305 13.92-4.36 0-1.152 0.9344-2.087 2.087-2.087 1.152 0 2.087 0.9344 2.087 2.087-0.06229 6.229-9.78 8.472-18.13 8.472z" style="fill:#2fa5de;stroke-width:.3115"/>
 <path id="XMLID_20_" d="m12.83 63.63v-8.534h2.772c1.059 0 1.744 0.03115 2.056 0.1246 0.4983 0.1246 0.9032 0.4049 1.215 0.8409 0.3426 0.436 0.4983 0.9967 0.4983 1.651 0 0.5295-0.09344 0.9655-0.2803 1.308s-0.436 0.6229-0.7164 0.841c-0.2803 0.218-0.5918 0.3426-0.9032 0.4049-0.4049 0.09344-0.9967 0.1246-1.775 0.1246h-1.121v3.208h-1.744zm1.713-7.101v2.429h0.9344c0.6852 0 1.121-0.03115 1.37-0.1246 0.218-0.09344 0.4049-0.218 0.5295-0.4049 0.1246-0.1869 0.1869-0.4049 0.1869-0.6541 0-0.3115-0.09344-0.5606-0.2803-0.7786-0.1869-0.1869-0.4049-0.3426-0.6852-0.3738-0.218-0.03114-0.6229-0.06229-1.246-0.06229h-0.8098z" style="stroke-width:.3115"/>
 <path id="XMLID_21_" d="m27.6 63.63h-1.869l-0.7475-1.931h-3.426l-0.7164 1.931h-1.838l3.333-8.534h1.838zm-3.146-3.364-1.184-3.177-1.152 3.177z" style="stroke-width:.3115"/>
 <path id="XMLID_22_" d="m28.09 60.86 1.682-0.1557c0.09344 0.5606 0.3115 0.9655 0.6229 1.246 0.3115 0.2492 0.7164 0.4049 1.246 0.4049 0.5606 0 0.9655-0.1246 1.246-0.3426 0.2803-0.2492 0.436-0.4983 0.436-0.8098 0-0.1869-0.06229-0.3738-0.1869-0.5295s-0.3115-0.2803-0.6229-0.3738c-0.1869-0.06229-0.6541-0.1869-1.37-0.3738-0.9344-0.218-1.588-0.4983-1.962-0.841-0.5295-0.4672-0.7787-1.059-0.7787-1.713 0-0.436 0.1246-0.8409 0.3738-1.215 0.2492-0.3738 0.5918-0.6541 1.059-0.8721 0.4672-0.1869 1.028-0.3115 1.682-0.3115 1.059 0 1.869 0.2492 2.429 0.7164 0.5606 0.4672 0.8409 1.09 0.8409 1.869l-1.713 0.06229c-0.06229-0.436-0.218-0.7475-0.4672-0.9344-0.2492-0.1869-0.5918-0.2803-1.09-0.2803-0.4983 0-0.9032 0.09344-1.184 0.3115-0.1869 0.1246-0.2803 0.3115-0.2803 0.5295 0 0.1869 0.09344 0.3738 0.2492 0.5295 0.218 0.1869 0.7475 0.3738 1.588 0.5606 0.8409 0.1869 1.464 0.4049 1.869 0.6229 0.4049 0.218 0.7164 0.4983 0.9344 0.8721s0.3426 0.8098 0.3426 1.37c0 0.4983-0.1246 0.9344-0.4049 1.37-0.2803 0.436-0.6541 0.7475-1.152 0.9655-0.4983 0.218-1.121 0.3115-1.869 0.3115-1.09 0-1.9-0.2492-2.492-0.7475-0.5606-0.5606-0.9344-1.277-1.028-2.243z" style="stroke-width:.3115"/>
 <path id="XMLID_23_" d="m36.04 60.86 1.682-0.1557c0.09344 0.5606 0.3115 0.9655 0.6229 1.246 0.3115 0.2492 0.7164 0.4049 1.246 0.4049 0.5606 0 0.9655-0.1246 1.246-0.3426 0.2803-0.2492 0.436-0.4983 0.436-0.8098 0-0.1869-0.06229-0.3738-0.1869-0.5295-0.1246-0.1557-0.3115-0.2803-0.6229-0.3738-0.1869-0.06229-0.6541-0.1869-1.37-0.3738-0.9344-0.218-1.588-0.4983-1.962-0.841-0.5295-0.4672-0.7787-1.059-0.7787-1.713 0-0.436 0.1246-0.8409 0.3738-1.215 0.2492-0.3738 0.5918-0.6541 1.059-0.8721 0.4672-0.1869 1.028-0.3115 1.682-0.3115 1.059 0 1.869 0.2492 2.429 0.7164 0.5295 0.4672 0.8409 1.09 0.8409 1.869l-1.713 0.06229c-0.06229-0.436-0.218-0.7475-0.4672-0.9344-0.2492-0.1869-0.5918-0.2803-1.09-0.2803s-0.9032 0.09344-1.184 0.3115c-0.1869 0.1246-0.2803 0.3115-0.2803 0.5295 0 0.1869 0.09344 0.3738 0.2492 0.5295 0.218 0.1869 0.7475 0.3738 1.588 0.5606 0.8409 0.1869 1.464 0.4049 1.869 0.6229 0.4049 0.218 0.7164 0.4983 0.9344 0.8721 0.218 0.3738 0.3426 0.8098 0.3426 1.37 0 0.4983-0.1246 0.9344-0.4049 1.37-0.2803 0.436-0.6541 0.7475-1.152 0.9655-0.4983 0.218-1.121 0.3115-1.869 0.3115-1.09 0-1.9-0.2492-2.492-0.7475-0.5606-0.5606-0.9032-1.277-1.028-2.243z" style="stroke-width:.3115"/>
</svg>
