<svg version="1.1" viewBox="0 0 100 134.3" xmlns="http://www.w3.org/2000/svg">
 <g id="passport" transform="matrix(.5577 0 0 .5577 -269.7 -313.6)">
  <path id="XMLID_656_" d="m634.8 803h-123.1c-15.5 0-28.1-12.6-28.1-28.1v-184.6c0-15.5 12.6-28.1 28.1-28.1h123.1c15.5 0 28.1 12.6 28.1 28.1v184.6c0 15.5-12.6 28.1-28.1 28.1zm-123.1-227.4c-8.1 0-14.7 6.6-14.7 14.7v184.6c0 8.1 6.6 14.7 14.7 14.7h123.1c8.1 0 14.7-6.6 14.7-14.7v-184.6c0-8.1-6.6-14.7-14.7-14.7z"/>
  <path id="XMLID_653_" class="st0" d="m572.2 710.7c-32 0-58-26-58-58s26-58 58-58 58 26 58 58-26 58-58 58zm0-102.7c-24.6 0-44.7 20-44.7 44.7s20 44.7 44.7 44.7c24.6 0 44.7-20 44.7-44.7s-20.1-44.7-44.7-44.7z" style="fill:#2fa5de"/>
  <path id="XMLID_652_" class="st0" d="m572.2 710.7c-20.1 0-27.3-31.2-27.3-58 0-14.2 2-27.5 5.5-37.5 6-16.9 15.2-20.5 21.7-20.5 3.7 0 6.7 3 6.7 6.7s-3 6.7-6.7 6.7c-6.6 0-14 18.3-14 44.7 0 26.3 7.4 44.7 14 44.7 3.7 0 6.7 3 6.7 6.7 0.1 3.5-2.9 6.5-6.6 6.5z" style="fill:#2fa5de"/>
  <path id="XMLID_651_" class="st0" d="m572.2 710.7c-3.7 0-6.7-3-6.7-6.7s3-6.7 6.7-6.7c3.2 0 6.6-4.3 9.2-11.6 3-8.5 4.8-20.5 4.8-33.1 0-26.3-7.4-44.7-14-44.7-3.7 0-6.7-3-6.7-6.7s3-6.7 6.7-6.7c20.1 0 27.3 31.2 27.3 58s-7.1 58.2-27.3 58.2z" style="fill:#2fa5de"/>
  <path id="XMLID_650_" class="st0" d="m623.6 659.3c-3.7 0-6.7-3-6.7-6.7 0-3.2-4.3-6.6-11.6-9.2-8.5-3-20.5-4.8-33.1-4.8-26.3 0-44.7 7.4-44.7 14 0 3.7-3 6.7-6.7 6.7s-6.7-3-6.7-6.7c0-20.1 31.2-27.3 58-27.3s58 7.1 58 27.3c0.1 3.8-2.9 6.7-6.5 6.7z" style="fill:#2fa5de"/>
  <path id="XMLID_649_" class="st0" d="m572.2 680c-14.2 0-27.5-2-37.5-5.5-16.9-6-20.5-15.2-20.5-21.7 0-3.7 3-6.7 6.7-6.7s6.7 3 6.7 6.7c0 6.6 18.3 14 44.7 14 26.3 0 44.7-7.4 44.7-14 0-3.7 3-6.7 6.7-6.7s6.7 3 6.7 6.7c-0.2 20-31.4 27.2-58.2 27.2z" style="fill:#2fa5de"/>
  <path id="XMLID_20_" d="m524.8 766.5v-27.4h8.9c3.4 0 5.6 0.1 6.6 0.4 1.6 0.4 2.9 1.3 3.9 2.7 1.1 1.4 1.6 3.2 1.6 5.3 0 1.7-0.3 3.1-0.9 4.2s-1.4 2-2.3 2.7-1.9 1.1-2.9 1.3c-1.3 0.3-3.2 0.4-5.7 0.4h-3.6v10.3h-5.6zm5.5-22.8v7.8h3c2.2 0 3.6-0.1 4.4-0.4 0.7-0.3 1.3-0.7 1.7-1.3s0.6-1.3 0.6-2.1c0-1-0.3-1.8-0.9-2.5-0.6-0.6-1.3-1.1-2.2-1.2-0.7-0.1-2-0.2-4-0.2h-2.6z"/>
  <path id="XMLID_21_" d="m572.2 766.5h-6l-2.4-6.2h-11l-2.3 6.2h-5.9l10.7-27.4h5.9zm-10.1-10.8-3.8-10.2-3.7 10.2z"/>
  <path id="XMLID_22_" d="m573.8 757.6 5.4-0.5c0.3 1.8 1 3.1 2 4 1 0.8 2.3 1.3 4 1.3 1.8 0 3.1-0.4 4-1.1 0.9-0.8 1.4-1.6 1.4-2.6 0-0.6-0.2-1.2-0.6-1.7s-1-0.9-2-1.2c-0.6-0.2-2.1-0.6-4.4-1.2-3-0.7-5.1-1.6-6.3-2.7-1.7-1.5-2.5-3.4-2.5-5.5 0-1.4 0.4-2.7 1.2-3.9s1.9-2.1 3.4-2.8c1.5-0.6 3.3-1 5.4-1 3.4 0 6 0.8 7.8 2.3s2.7 3.5 2.7 6l-5.5 0.2c-0.2-1.4-0.7-2.4-1.5-3s-1.9-0.9-3.5-0.9-2.9 0.3-3.8 1c-0.6 0.4-0.9 1-0.9 1.7 0 0.6 0.3 1.2 0.8 1.7 0.7 0.6 2.4 1.2 5.1 1.8s4.7 1.3 6 2 2.3 1.6 3 2.8 1.1 2.6 1.1 4.4c0 1.6-0.4 3-1.3 4.4s-2.1 2.4-3.7 3.1-3.6 1-6 1c-3.5 0-6.1-0.8-8-2.4-1.8-1.8-3-4.1-3.3-7.2z"/>
  <path id="XMLID_23_" d="m599.3 757.6 5.4-0.5c0.3 1.8 1 3.1 2 4 1 0.8 2.3 1.3 4 1.3 1.8 0 3.1-0.4 4-1.1 0.9-0.8 1.4-1.6 1.4-2.6 0-0.6-0.2-1.2-0.6-1.7s-1-0.9-2-1.2c-0.6-0.2-2.1-0.6-4.4-1.2-3-0.7-5.1-1.6-6.3-2.7-1.7-1.5-2.5-3.4-2.5-5.5 0-1.4 0.4-2.7 1.2-3.9s1.9-2.1 3.4-2.8c1.5-0.6 3.3-1 5.4-1 3.4 0 6 0.8 7.8 2.3 1.7 1.5 2.7 3.5 2.7 6l-5.5 0.2c-0.2-1.4-0.7-2.4-1.5-3s-1.9-0.9-3.5-0.9-2.9 0.3-3.8 1c-0.6 0.4-0.9 1-0.9 1.7 0 0.6 0.3 1.2 0.8 1.7 0.7 0.6 2.4 1.2 5.1 1.8s4.7 1.3 6 2 2.3 1.6 3 2.8 1.1 2.6 1.1 4.4c0 1.6-0.4 3-1.3 4.4s-2.1 2.4-3.7 3.1-3.6 1-6 1c-3.5 0-6.1-0.8-8-2.4-1.8-1.8-2.9-4.1-3.3-7.2z"/>
 </g>
</svg>
