<?xml version="1.0" encoding="UTF-8" standalone="no"?>
<svg xmlns:dc="http://purl.org/dc/elements/1.1/" xmlns:cc="http://creativecommons.org/ns#" xmlns:rdf="http://www.w3.org/1999/02/22-rdf-syntax-ns#" xmlns:svg="http://www.w3.org/2000/svg" xmlns="http://www.w3.org/2000/svg" xmlns:sodipodi="http://sodipodi.sourceforge.net/DTD/sodipodi-0.dtd" xmlns:inkscape="http://www.inkscape.org/namespaces/inkscape" version="1.1" viewBox="0 0 76.659637 100" id="svg9" sodipodi:docname="i33.svg" width="76.659637" height="100" inkscape:version="0.92.2 (5c3e80d, 2017-08-06)">
  <metadata id="metadata15">
    <rdf:RDF>
      <cc:Work rdf:about="">
        <dc:format>image/svg+xml</dc:format>
        <dc:type rdf:resource="http://purl.org/dc/dcmitype/StillImage" />
        <dc:title></dc:title>
      </cc:Work>
    </rdf:RDF>
  </metadata>
  <defs id="defs13" />
  <sodipodi:namedview pagecolor="#ffffff" bordercolor="#666666" borderopacity="1" objecttolerance="10" gridtolerance="10" guidetolerance="10" inkscape:pageopacity="0" inkscape:pageshadow="2" inkscape:window-width="1224" inkscape:window-height="489" id="namedview11" showgrid="false" fit-margin-top="0" fit-margin-left="0" fit-margin-right="0" fit-margin-bottom="0" inkscape:zoom="1.8084291" inkscape:cx="82.566028" inkscape:cy="65.23242" inkscape:window-x="0" inkscape:window-y="0" inkscape:window-maximized="0" inkscape:current-layer="svg9" />
  <path style="fill:#030302;stroke-width:0.428027" d="M 45.812565,0 C 39.854429,0 35.01771,1.720556 35.02627,3.736135 35.007009,3.838862 35.026015,4.024605 35.075666,4.275001 35.087223,4.342201 35.103878,4.409022 35.120572,4.474082 35.725802,7.110728 38.90311,15.113686 38.90311,15.113686 39.971893,17.059068 41.997986,18.760011 45.815559,18.760011 49.632275,18.760011 51.657941,17.059068 52.728008,15.113686 52.728008,15.113686 55.905956,7.110728 56.512043,4.474082 56.528308,4.409022 56.543038,4.341773 56.555452,4.275001 56.605103,4.025033 56.624537,3.83929 56.604848,3.736135 H 56.59886 C 56.606564,1.720556 51.770701,0 45.812565,0 Z M 37.097909,6.214918 C 37.097909,6.214918 37.390442,6.287077 37.897227,6.42747 38.151047,6.48183 38.45932,6.548225 38.813298,6.623557 39.172841,6.677917 39.573332,6.753946 40.013771,6.815154 40.455495,6.869514 40.930062,6.937005 41.437275,6.979808 41.942347,7.038875 42.480333,7.059747 43.032916,7.102549 43.585927,7.135507 44.159988,7.144874 44.740821,7.162423 45.097796,7.166275 45.453879,7.170336 45.812565,7.169907 46.171251,7.170335 46.526906,7.166703 46.884309,7.162423 47.465142,7.144874 48.040272,7.135935 48.593711,7.102549 49.145866,7.059747 49.682356,7.038875 50.187855,6.979808 50.695068,6.937005 51.169635,6.869514 51.611359,6.815154 52.051798,6.753946 52.452717,6.677917 52.811832,6.623557 53.165382,6.548225 53.474084,6.48183 53.727904,6.42747 54.234688,6.287505 54.527221,6.214918 54.527221,6.214918 54.527221,6.214918 54.258394,6.353933 53.78628,6.584639 53.542734,6.683942 53.243428,6.804782 52.894158,6.934902 52.543176,7.043621 52.148025,7.181365 51.707157,7.289655 51.266718,7.39709 50.787664,7.523525 50.273175,7.603994 49.761255,7.70458 49.217724,7.780142 48.653585,7.84349 48.371943,7.883296 48.083956,7.895001 47.792897,7.922823 47.501411,7.943796 47.208091,7.979275 46.909755,7.979703 46.549357,7.989975 46.180669,7.998088 45.812565,8.003652 45.444462,7.998088 45.073421,7.989975 44.713878,7.979703 44.415543,7.979275 44.121367,7.943796 43.830737,7.922823 43.53925,7.895001 43.252118,7.883724 42.970048,7.84349 42.405908,7.780142 41.86195,7.70458 41.350458,7.603994 40.836397,7.523525 40.358199,7.397518 39.916476,7.289655 39.476036,7.181793 39.080457,7.043621 38.729475,6.934902 38.381061,6.804782 38.0809,6.683942 37.837353,6.584639 37.364811,6.353933 37.097909,6.214918 37.097909,6.214918 Z M 40.163456,18.288503 41.989612,43.200564 C 41.989612,43.200564 42.924766,44.532759 46.207734,44.532759 49.491128,44.532759 49.951353,43.52987 49.951353,43.52987 L 51.835886,18.288503 C 51.835458,18.288503 45.712184,23.185132 40.164953,18.288503 Z M 5.0159415,29.502897 0,100 H 76.659636 L 71.622735,29.502897 H 52.814825 L 52.043948,39.823672 H 53.331238 C 55.153778,39.823672 56.631791,41.300188 56.631791,43.122727 V 53.724909 C 56.631791,55.547449 55.153778,57.025462 53.331238,57.025462 H 52.196627 V 63.390065 C 52.196627,65.213033 50.718614,66.690617 48.896074,66.690617 H 45.19736 V 73.99225 C 45.19736,75.81521 43.719775,77.2928 41.896808,77.2928 H 29.637613 V 84.00467 C 29.637613,85.82722 28.160028,87.30522 26.337061,87.30522 24.514522,87.30522 23.038005,85.82722 23.038005,84.00467 V 62.765879 C 23.038005,60.942912 24.514522,59.465326 26.337061,59.465326 28.160028,59.465326 29.637613,60.942912 29.637613,62.765879 V 70.69319 H 38.596255 V 63.391562 C 38.596255,61.569023 40.07427,60.091009 41.896808,60.091009 H 45.595522 V 53.726407 C 45.595522,51.904296 47.073108,50.425854 48.896074,50.425854 H 50.030686 V 46.42328 H 30.462377 C 28.639411,46.42328 27.160328,44.945266 27.160328,43.122727 27.160328,41.300188 28.639411,39.823672 30.462377,39.823672 H 39.911986 L 39.156077,29.502897 Z" id="path2" inkscape:connector-curvature="0" />
</svg>
