<svg version="1.1" viewBox="0 0 57.49 75" xmlns="http://www.w3.org/2000/svg">
 <path d="m34.36 0c-4.469 0-8.096 1.29-8.09 2.802-0.01444 0.07704-1.91e-4 0.2164 0.03705 0.4042 0.008668 0.0504 0.02116 0.1005 0.03368 0.1493 0.4539 1.977 2.837 7.98 2.837 7.98 0.8016 1.459 2.321 2.735 5.184 2.735 2.863 0 4.382-1.276 5.184-2.735 0 0 2.383-6.002 2.838-7.98 0.0122-0.04879 0.02325-0.09923 0.03256-0.1493 0.03724-0.1875 0.05181-0.3268 0.03705-0.4042h-0.004491c0.005778-1.512-3.621-2.802-8.09-2.802zm-6.536 4.661s0.2194 0.05412 0.5995 0.1594c0.1904 0.04077 0.4216 0.09057 0.6871 0.1471 0.2697 0.04077 0.57 0.09779 0.9004 0.1437 0.3313 0.04077 0.6872 0.09139 1.068 0.1235 0.3788 0.0443 0.7823 0.05995 1.197 0.09206 0.4148 0.02472 0.8453 0.03174 1.281 0.0449 0.2677 0.002889 0.5348 0.005935 0.8038 0.005613 0.269 3.21e-4 0.5358-0.002403 0.8038-0.005613 0.4356-0.01316 0.867-0.01987 1.282-0.0449 0.4141-0.0321 0.8165-0.04776 1.196-0.09206 0.3804-0.0321 0.7363-0.08272 1.068-0.1235 0.3303-0.04591 0.631-0.1029 0.9004-0.1437 0.2652-0.0565 0.4967-0.1063 0.6871-0.1471 0.3801-0.105 0.5995-0.1594 0.5995-0.1594s-0.2016 0.1043-0.5557 0.2773c-0.1827 0.07448-0.4071 0.1651-0.6691 0.2627-0.2632 0.08154-0.5596 0.1848-0.8902 0.2661-0.3303 0.08058-0.6896 0.1754-1.075 0.2358-0.3839 0.07544-0.7916 0.1321-1.215 0.1796-0.2112 0.02985-0.4272 0.03863-0.6455 0.0595-0.2186 0.01573-0.4386 0.04234-0.6624 0.04266-0.2703 0.007704-0.5468 0.01379-0.8229 0.01796-0.2761-0.004173-0.5544-0.01026-0.824-0.01796-0.2238-3.21e-4 -0.4444-0.02693-0.6624-0.04266-0.2186-0.02087-0.434-0.02932-0.6455-0.0595-0.4231-0.04751-0.8311-0.1042-1.215-0.1796-0.3855-0.06035-0.7442-0.1549-1.075-0.2358-0.3303-0.0809-0.627-0.1845-0.8903-0.2661-0.2613-0.09759-0.4864-0.1882-0.6691-0.2627-0.3544-0.173-0.5546-0.2773-0.5546-0.2773zm2.299 9.055 1.37 18.68s0.7014 0.9991 3.164 0.9991c2.463 0 2.808-0.7522 2.808-0.7522l1.413-18.93c-3.21e-4 0-4.593 3.672-8.753 0zm-26.36 8.411-3.762 52.87h57.49l-3.778-52.87h-14.11l-0.5782 7.741h0.9655c1.367 0 2.475 1.107 2.475 2.474v7.952c0 1.367-1.109 2.475-2.475 2.475h-0.851v4.773c0 1.367-1.109 2.475-2.475 2.475h-2.774v5.476c0 1.367-1.108 2.475-2.475 2.475h-9.194v5.034c0 1.367-1.108 2.475-2.475 2.475-1.367 0-2.474-1.108-2.474-2.475v-15.93c0-1.367 1.107-2.475 2.474-2.475 1.367 0 2.475 1.108 2.475 2.475v5.945h6.719v-5.476c0-1.367 1.109-2.475 2.475-2.475h2.774v-4.773c0-1.367 1.108-2.475 2.475-2.475h0.851v-3.002h-14.68c-1.367 0-2.477-1.109-2.477-2.475s1.109-2.474 2.477-2.474h7.087l-0.5669-7.741z" style="fill:#030302;stroke-width:.321"/>
</svg>
