<svg version="1.1" viewBox="0 0 63.37 75" xmlns="http://www.w3.org/2000/svg">
 <circle cx="31.08" cy="36.57" r="6.289" style="fill:#030302;stroke-width:.4037"/>
 <path d="m43.15 0h-22.56c-1.059 0-1.918 0.859-1.918 1.918v71.16c0 1.06 0.859 1.919 1.918 1.919h22.56c1.06 0 1.919-0.859 1.919-1.919v-71.16c0-1.059-0.859-1.918-1.919-1.918zm-11.96 65.23c-4.178 0-7.568-3.388-7.568-7.568 0-4.181 3.388-7.568 7.568-7.568 4.181 0 7.564 3.388 7.564 7.568 0 4.18-3.387 7.568-7.564 7.568zm0-21.1c-4.178 0-7.568-3.388-7.568-7.568 0-4.181 3.388-7.568 7.568-7.568 4.181 0 7.564 3.388 7.564 7.568 0 4.181-3.387 7.568-7.564 7.568zm0-21.1c-4.178 0-7.568-3.387-7.568-7.568 0-4.178 3.388-7.568 7.568-7.568 4.181 0 7.564 3.388 7.564 7.568 0 4.178-3.387 7.568-7.564 7.568z" style="fill:#030302;stroke-width:.4037"/>
 <path d="m47.18 6.297v17.26h2.604s10.04-5.494 13.58-17.26z" style="fill:#030302;stroke-width:.4037"/>
 <path d="m47.18 6.297v17.26h2.604s10.04-5.494 13.58-17.26z" style="fill:#030302;stroke-width:.4037"/>
 <path d="m47.18 27.93v17.27h2.604s10.04-5.494 13.58-17.27z" style="fill:#030302;stroke-width:.4037"/>
 <path d="m47.18 49v17.27h2.604s10.04-5.494 13.58-17.27z" style="fill:#030302;stroke-width:.4037"/>
 <path d="m16.18 6.297v17.26h-2.604s-10.04-5.494-13.58-17.26z" style="fill:#030302;stroke-width:.4037"/>
 <path d="m16.18 6.297v17.26h-2.604s-10.04-5.494-13.58-17.26z" style="fill:#030302;stroke-width:.4037"/>
 <path d="m16.18 27.93v17.27h-2.604s-10.04-5.494-13.58-17.27z" style="fill:#030302;stroke-width:.4037"/>
 <path d="m16.18 49v17.27h-2.604s-10.04-5.494-13.58-17.27z" style="fill:#030302;stroke-width:.4037"/>
</svg>
