<svg version="1.1" viewBox="0 0 100 133.3" xmlns="http://www.w3.org/2000/svg">
 <g id="bwglobe" transform="matrix(1.778 0 0 1.778 3160 -1580)">
  <path d="m-1745 936.9c-1.092-1.494-2.308-4.3 0.045-7.803 3.556-5.302 5.438-1.675 7.251-5.577 0.9661-2.086 2.308-2.976 3.615-2.976 1.145 0 2.264 0.6854 3.078 1.857 0.9924 1.429 2.345 2.443 3.881 2.443 0.7552 0 1.555-0.246 2.377-0.8084-3.765 7.452-11.39 12.61-20.25 12.86" style="fill:#e8e7e6"/>
  <path d="m-1755 915.8c-3.853 0-6.967-1.084-3.493-6.222 2.311-3.41-2.884-7.382-6.642-7.382-0.7797 0-1.498 0.1699-2.075 0.5565 3.896-7.54 11.76-12.7 20.83-12.7 0.7399 0 1.47 0.041 2.193 0.1054-5.382 3.679 1.402 6.983 0.7575 9.379-0.6503 2.414-5.961 3.896-5.019 8.922 1.084 5.788-1.952 6.971-4.462 7.253-0.6966 0.0527-1.402 0.082-2.084 0.082" style="fill:#e8e7e6"/>
  <path d="m-1732 962.7h-28.12c-1.289 0-2.343-1.054-2.343-2.343 0-1.933 1.582-3.515 3.515-3.515h25.78c1.933 0 3.515 1.582 3.515 3.515 0 1.289-1.054 2.343-2.343 2.343" style="fill:#e8e7e6"/>
  <path d="m-1722 937-6.885-6.884c-0.4575-0.457-1.199-0.457-1.657 0-0.4575 0.457-0.4575 1.201 0 1.658l6.885 6.884c0.4575 0.457 1.199 0.457 1.657 0 0.4575-0.457 0.4575-1.201 0-1.658" style="fill:#100f0d"/>
  <path d="m-1769 891.6c-5.464 5.683-8.833 13.41-8.832 21.92 0 17.48 14.16 31.64 31.64 31.64 8.507 0 16.23-3.369 21.91-8.829 0.4669-0.4511 0.4815-1.195 0.033-1.658-0.4482-0.4687-1.19-0.4804-1.657-0.0351-5.269 5.067-12.41 8.178-20.29 8.178-8.093 0-15.41-3.275-20.71-8.577-5.302-5.308-8.578-12.62-8.579-20.72 0-7.879 3.115-15.02 8.178-20.29 0.4482-0.4687 0.4335-1.213-0.033-1.658-0.4663-0.4511-1.208-0.4335-1.657 0.0293" style="fill:#100f0d"/>
  <path d="m-1762 896.4-7.178-7.176c-0.4575-0.4628-1.199-0.4628-1.657 0-0.4575 0.457-0.4575 1.195 0 1.652l7.178 7.182c0.4576 0.457 1.199 0.457 1.657 0 0.4575-0.457 0.4575-1.201 0-1.658" style="fill:#100f0d"/>
  <path d="m-1747 944v12.89c0 0.6503 0.5243 1.172 1.172 1.172s1.172-0.5214 1.172-1.172v-12.89c0-0.6444-0.5243-1.172-1.172-1.172s-1.172 0.5272-1.172 1.172" style="fill:#100f0d"/>
  <path d="m-1733 956.9v-1.172h-25.78c-2.586 6e-3 -4.683 2.103-4.687 4.687 0 1.945 1.574 3.515 3.515 3.515h28.12c1.941 0 3.51-1.57 3.515-3.515 0-2.584-2.101-4.681-4.687-4.687v2.343c0.6433 0 1.224 0.2636 1.654 0.6913 0.4283 0.4277 0.689 1.008 0.6895 1.652-4e-4 0.3222-0.1294 0.6093-0.345 0.826-0.2179 0.2168-0.5056 0.3456-0.8266 0.3456h-28.12c-0.3216 0-0.6087-0.1289-0.8266-0.3456-0.2162-0.2168-0.345-0.5038-0.345-0.826 0-0.6444 0.2606-1.224 0.6895-1.652 0.43-0.4277 1.01-0.6913 1.654-0.6913h25.78v-1.172" style="fill:#100f0d"/>
  <path d="m-1766 903.7c0.331-0.2226 0.8131-0.3574 1.426-0.3574 0.6076 0 1.324 0.1406 2.039 0.3984 1.073 0.3925 2.137 1.06 2.878 1.816 0.3715 0.3808 0.6615 0.7733 0.8495 1.154 0.1887 0.3808 0.276 0.7323 0.276 1.06 0 0.3632-0.096 0.7147-0.3703 1.125-0.5642 0.8378-0.9813 1.588-1.267 2.296-0.2841 0.7089-0.4399 1.371-0.4411 2.015-0.01 0.7264 0.2267 1.441 0.6485 1.974 0.3123 0.4101 0.7077 0.7147 1.13 0.9432 0.6351 0.3456 1.336 0.539 2.075 0.662 0.7394 0.1172 1.521 0.1582 2.318 0.1582 0.7218 0 1.455-0.0351 2.172-0.0879l0.042-6e-3c0.5928-0.0644 1.234-0.1758 1.879-0.3925 0.9631-0.3164 1.963-0.8788 2.699-1.857 0.3662-0.4862 0.6597-1.066 0.8554-1.722 0.1962-0.662 0.297-1.4 0.297-2.226 0-0.7382-0.08-1.541-0.2461-2.431-0.064-0.3398-0.091-0.6503-0.092-0.9373 0-0.8143 0.2121-1.447 0.5595-2.05 0.5185-0.9022 1.401-1.699 2.296-2.502 0.4464-0.3984 0.894-0.8026 1.293-1.26 0.3955-0.457 0.7605-0.9842 0.9426-1.652 0.058-0.2168 0.084-0.4335 0.084-0.6444 0-0.3808-0.081-0.7264-0.1945-1.037-0.2003-0.5448-0.4938-1.008-0.8014-1.459-0.4628-0.6737-0.9713-1.312-1.336-1.922-0.1828-0.2988-0.3281-0.5858-0.4224-0.8495-0.094-0.2578-0.1383-0.4921-0.1383-0.703 0-0.2754 0.062-0.5272 0.2789-0.8729 0.2174-0.3398 0.6181-0.7616 1.301-1.23 0.5343-0.3632 0.6714-1.09 0.3065-1.629-0.365-0.5331-1.094-0.6678-1.628-0.3046-0.8665 0.5917-1.512 1.213-1.951 1.898-0.4417 0.6796-0.6538 1.435-0.6503 2.138 0 0.826 0.2572 1.552 0.5777 2.191 0.4856 0.9549 1.135 1.758 1.614 2.443 0.2402 0.3398 0.4365 0.6444 0.5542 0.8846 0.1207 0.2402 0.1494 0.4042 0.1465 0.4511v0.0351c-0.03 0.1113-0.096 0.2578-0.2214 0.4335-0.2162 0.3164-0.6128 0.7147-1.102 1.154-0.7311 0.6679-1.662 1.435-2.446 2.466-0.3907 0.5214-0.744 1.107-0.9977 1.775-0.2542 0.6737-0.4053 1.424-0.4048 2.244 0 0.4394 0.043 0.8963 0.1319 1.371 0.1441 0.7674 0.2062 1.429 0.2062 1.998 0 0.8495-0.1377 1.47-0.3363 1.939-0.15 0.3456-0.3339 0.6151-0.5478 0.8377-0.3204 0.3281-0.7229 0.5741-1.2 0.7499-0.4751 0.1758-1.019 0.2871-1.561 0.3456l0.1295 1.166-0.087-1.172c-0.6761 0.0527-1.354 0.082-1.998 0.082-1.26 6e-3 -2.397-0.1406-3.047-0.4218-0.3287-0.1406-0.5191-0.2929-0.6192-0.4276-0.097-0.1348-0.1553-0.2578-0.1612-0.5448 0-0.2519 0.067-0.6327 0.2713-1.137 0.2027-0.5038 0.5384-1.131 1.034-1.857 0.5173-0.7616 0.7762-1.617 0.7733-2.443 0-1.002-0.3556-1.927-0.8817-2.73-0.7955-1.201-1.981-2.179-3.299-2.888-1.322-0.703-2.781-1.148-4.204-1.154-0.9473 0-1.902 0.205-2.724 0.7499-0.5389 0.3574-0.6854 1.09-0.3269 1.629 0.358 0.539 1.086 0.6854 1.624 0.3222" style="fill:#100f0d"/>
  <path d="m-1726 923.1c-0.6655 0.4511-1.218 0.6034-1.717 0.6034-0.5056 0-0.9954-0.164-1.499-0.4921-0.4992-0.3281-0.9924-0.8319-1.42-1.447-0.4891-0.703-1.085-1.289-1.769-1.705-0.6831-0.4101-1.462-0.6561-2.271-0.6561-0.9227-6e-3 -1.858 0.3281-2.656 0.9549-0.8014 0.6268-1.479 1.529-2.022 2.695-0.1956 0.4218-0.3773 0.7089-0.5319 0.8963-0.1365 0.1699-0.2496 0.2636-0.3586 0.3398-0.1868 0.123-0.4001 0.1933-0.7756 0.2753-0.5478 0.123-1.43 0.2402-2.409 0.7909-0.9818 0.5507-1.999 1.494-3.086 3.117-1.106 1.64-1.552 3.246-1.548 4.669 0 0.9725 0.2033 1.851 0.4951 2.607 0.2917 0.7499 0.6707 1.377 1.035 1.875 0.3813 0.5214 1.114 0.6386 1.637 0.2578 0.5226-0.3808 0.6374-1.113 0.2561-1.64-0.2684-0.3632-0.5414-0.8202-0.7435-1.342-0.2027-0.5214-0.3362-1.107-0.3362-1.758 0-0.9432 0.273-2.045 1.151-3.363 0.8296-1.236 1.51-1.875 2.052-2.232 0.4095-0.2695 0.7487-0.3984 1.118-0.498 0.2759-0.0703 0.5712-0.123 0.911-0.1992 0.2536-0.0586 0.5331-0.1289 0.8307-0.246 0.4458-0.1699 0.9244-0.457 1.336-0.8846 0.4148-0.4276 0.768-0.9783 1.094-1.675 0.423-0.9139 0.8999-1.5 1.338-1.84 0.4417-0.3398 0.8307-0.4511 1.215-0.457 0.3369 0 0.6895 0.0996 1.056 0.3222 0.3644 0.2168 0.7346 0.5624 1.06 1.031 0.5648 0.8143 1.244 1.535 2.053 2.068 0.8061 0.5331 1.76 0.8788 2.79 0.8788 1.012 6e-3 2.059-0.3398 3.038-1.008 0.5343-0.3691 0.6719-1.096 0.307-1.629-0.365-0.539-1.094-0.6737-1.628-0.3105" style="fill:#100f0d"/>
  <path d="m-1723 913.5h-1.172c0 6.151-2.49 11.71-6.52 15.74-4.032 4.031-9.59 6.52-15.74 6.52-6.151 0-11.71-2.49-15.74-6.52-4.031-4.031-6.52-9.59-6.52-15.74 0-6.151 2.49-11.7 6.52-15.74 4.032-4.031 9.59-6.52 15.74-6.52 6.151 0 11.71 2.49 15.74 6.52 4.031 4.036 6.52 9.59 6.52 15.74h2.343c0-13.59-11.02-24.61-24.6-24.61-13.59 0-24.6 11.02-24.61 24.61 0 13.59 11.02 24.61 24.61 24.61 13.59 0 24.6-11.01 24.6-24.61h-1.172" style="fill:#100f0d"/>
 </g>
</svg>
