<svg version="1.1" viewBox="0 0 56.14 75" xmlns="http://www.w3.org/2000/svg">
 <path d="m32.81 47.99c-1.091-1.493-2.306-4.297 0.04497-7.797 3.553-5.298 5.434-1.674 7.246-5.573 0.9654-2.085 2.306-2.974 3.612-2.974 1.144 0 2.262 0.6849 3.076 1.856 0.9917 1.428 2.343 2.441 3.878 2.441 0.7547 0 1.554-0.2458 2.375-0.8078-3.762 7.447-11.38 12.6-20.24 12.85" style="fill:#e8e7e6;stroke-width:.9993"/>
 <path d="m22.82 26.9c-3.85 0-6.962-1.083-3.491-6.218 2.309-3.408-2.882-7.377-6.637-7.377-0.7791 0-1.497 0.1698-2.074 0.5561 3.893-7.535 11.75-12.69 20.82-12.69 0.7394 0 1.469 0.04097 2.191 0.1053-5.378 3.676 1.401 6.978 0.757 9.372-0.6498 2.412-5.957 3.893-5.015 8.916 1.083 5.784-1.951 6.966-4.459 7.248-0.6961 0.05266-1.401 0.08194-2.083 0.08194" style="fill:#e8e7e6;stroke-width:.9993"/>
 <path d="m45.8 73.77h-28.1c-1.288 0-2.341-1.053-2.341-2.341 0-1.932 1.581-3.513 3.513-3.513h25.76c1.932 0 3.513 1.581 3.513 3.513 0 1.288-1.053 2.341-2.341 2.341" style="fill:#e8e7e6;stroke-width:.9993"/>
 <path d="m55.79 48.09-6.88-6.879c-0.4572-0.4567-1.198-0.4567-1.656 0-0.4572 0.4567-0.4572 1.2 0 1.657l6.88 6.879c0.4572 0.4567 1.198 0.4567 1.656 0 0.4572-0.4567 0.4572-1.2 0-1.657" style="fill:#100f0d;stroke-width:.9993"/>
 <path d="m8.826 2.721c-5.46 5.679-8.827 13.4-8.826 21.9 0 17.47 14.15 31.62 31.62 31.62 8.501 0 16.22-3.367 21.89-8.823 0.4666-0.4508 0.4812-1.194 0.03298-1.657-0.4479-0.4684-1.189-0.4801-1.656-0.03508-5.265 5.063-12.4 8.172-20.28 8.172-8.087 0-15.4-3.273-20.7-8.571-5.298-5.304-8.572-12.61-8.573-20.71 0-7.873 3.113-15.01 8.172-20.28 0.4479-0.4684 0.4332-1.212-0.03298-1.657-0.466-0.4508-1.207-0.4332-1.656 0.02928" style="fill:#100f0d;stroke-width:.9993"/>
 <path d="m15.82 7.518-7.173-7.171c-0.4572-0.4625-1.198-0.4625-1.656 0-0.4572 0.4567-0.4572 1.194 0 1.651l7.173 7.177c0.4573 0.4567 1.198 0.4567 1.656 0 0.4572-0.4567 0.4572-1.2 0-1.657" style="fill:#100f0d;stroke-width:.9993"/>
 <path d="m30.81 55.08v12.88c0 0.6498 0.5239 1.171 1.171 1.171 0.6472 0 1.171-0.521 1.171-1.171v-12.88c0-0.6439-0.5239-1.171-1.171-1.171-0.6472 0-1.171 0.5268-1.171 1.171" style="fill:#100f0d;stroke-width:.9993"/>
 <path d="m44.8 67.97v-1.171h-25.76c-2.584 0.005996-4.68 2.102-4.684 4.684 0 1.944 1.573 3.513 3.513 3.513h28.1c1.94 0 3.508-1.569 3.513-3.513 0-2.582-2.1-4.678-4.684-4.684v2.341c0.6428 0 1.223 0.2634 1.653 0.6908 0.428 0.4274 0.6885 1.007 0.689 1.651-3.99e-4 0.322-0.1293 0.6089-0.3448 0.8254-0.2177 0.2166-0.5052 0.3454-0.826 0.3454h-28.1c-0.3214 0-0.6083-0.1288-0.826-0.3454-0.216-0.2166-0.3448-0.5034-0.3448-0.8254 0-0.6439 0.2604-1.223 0.689-1.651 0.4297-0.4274 1.009-0.6908 1.653-0.6908h25.76v-1.171" style="fill:#100f0d;stroke-width:.9993"/>
 <path d="m11.82 14.81c0.3308-0.2224 0.8125-0.3571 1.425-0.3571 0.6072 0 1.323 0.1405 2.038 0.3981 1.072 0.3922 2.135 1.059 2.876 1.815 0.3712 0.3805 0.661 0.7728 0.8489 1.153 0.1886 0.3805 0.2758 0.7318 0.2758 1.059 0 0.3629-0.09593 0.7142-0.37 1.124-0.5638 0.8372-0.9806 1.587-1.266 2.294-0.2839 0.7084-0.4396 1.37-0.4408 2.014-0.009993 0.7259 0.2265 1.44 0.648 1.973 0.3121 0.4098 0.7072 0.7142 1.129 0.9425 0.6347 0.3454 1.335 0.5386 2.074 0.6615 0.7389 0.1171 1.52 0.1581 2.316 0.1581 0.7213 0 1.454-0.03508 2.17-0.08784l0.04197-0.005996c0.5924-0.06435 1.233-0.1757 1.878-0.3922 0.9624-0.3162 1.962-0.8782 2.697-1.856 0.3659-0.4859 0.6592-1.065 0.8548-1.721 0.1961-0.6615 0.2968-1.399 0.2968-2.224 0-0.7377-0.07994-1.54-0.2459-2.429-0.06396-0.3396-0.09094-0.6498-0.09194-0.9366 0-0.8137 0.212-1.446 0.5591-2.049 0.5181-0.9016 1.4-1.698 2.294-2.5 0.4461-0.3981 0.8934-0.802 1.292-1.259 0.3952-0.4567 0.76-0.9835 0.9419-1.651 0.05796-0.2166 0.08394-0.4332 0.08394-0.6439 0-0.3805-0.08094-0.7259-0.1944-1.036-0.2002-0.5444-0.4935-1.007-0.8008-1.458-0.4625-0.6732-0.9706-1.311-1.335-1.921-0.1827-0.2986-0.3279-0.5854-0.4221-0.8489-0.09393-0.2576-0.1382-0.4918-0.1382-0.7025 0-0.2752 0.06196-0.5268 0.2787-0.8723 0.2172-0.3396 0.6177-0.7611 1.3-1.229 0.5339-0.3629 0.6709-1.089 0.3063-1.628-0.3647-0.5327-1.093-0.6673-1.627-0.3044-0.8659 0.5913-1.511 1.212-1.95 1.897-0.4414 0.6791-0.6533 1.434-0.6498 2.136 0 0.8254 0.257 1.551 0.5773 2.189 0.4853 0.9542 1.134 1.757 1.613 2.441 0.24 0.3396 0.4362 0.6439 0.5538 0.884 0.1206 0.24 0.1493 0.4039 0.1464 0.4508v0.03508c-0.02998 0.1112-0.09593 0.2576-0.2212 0.4332-0.216 0.3162-0.6124 0.7142-1.101 1.153-0.7306 0.6674-1.661 1.434-2.444 2.464-0.3904 0.521-0.7435 1.106-0.997 1.774-0.254 0.6732-0.405 1.423-0.4045 2.242 0 0.4391 0.04297 0.8957 0.1318 1.37 0.144 0.7669 0.2061 1.428 0.2061 1.997 0 0.8489-0.1376 1.469-0.3361 1.938-0.1499 0.3454-0.3337 0.6147-0.5474 0.8371-0.3202 0.3279-0.7224 0.5737-1.199 0.7494-0.4748 0.1757-1.018 0.2869-1.56 0.3454l0.1294 1.165-0.08694-1.171c-0.6756 0.05266-1.353 0.08194-1.997 0.08194-1.259 0.005995-2.395-0.1405-3.045-0.4215-0.3285-0.1405-0.5187-0.2927-0.6188-0.4273-0.09693-0.1347-0.1552-0.2576-0.1611-0.5444 0-0.2517 0.06695-0.6323 0.2711-1.136 0.2026-0.5034 0.538-1.13 1.033-1.856 0.5169-0.7611 0.7757-1.616 0.7728-2.441 0-1.001-0.3553-1.926-0.8811-2.728-0.7949-1.2-1.98-2.177-3.297-2.886-1.321-0.7025-2.779-1.147-4.201-1.153-0.9466 0-1.901 0.2049-2.722 0.7494-0.5385 0.3571-0.6849 1.089-0.3267 1.628 0.3577 0.5386 1.085 0.6849 1.623 0.322" style="fill:#100f0d;stroke-width:.9993"/>
 <path d="m51.8 34.2c-0.665 0.4508-1.217 0.603-1.716 0.603-0.5052 0-0.9947-0.1639-1.498-0.4918-0.4988-0.3279-0.9917-0.8313-1.419-1.446-0.4888-0.7025-1.084-1.288-1.768-1.704-0.6826-0.4098-1.461-0.6556-2.269-0.6556-0.922-0.005996-1.857 0.3279-2.654 0.9542-0.8008 0.6264-1.478 1.528-2.021 2.693-0.1955 0.4215-0.377 0.7084-0.5315 0.8957-0.1364 0.1698-0.2494 0.2634-0.3583 0.3396-0.1867 0.1229-0.3998 0.1932-0.7751 0.2751-0.5474 0.1229-1.429 0.24-2.407 0.7903-0.9811 0.5503-1.998 1.493-3.084 3.115-1.105 1.639-1.551 3.244-1.547 4.666 0 0.9718 0.2032 1.85 0.4947 2.605 0.2915 0.7494 0.6702 1.376 1.034 1.874 0.381 0.521 1.113 0.6381 1.636 0.2576 0.5222-0.3805 0.6369-1.112 0.2559-1.639-0.2682-0.3629-0.541-0.8196-0.743-1.341-0.2026-0.521-0.336-1.106-0.336-1.757 0-0.9425 0.2728-2.044 1.15-3.361 0.829-1.235 1.509-1.874 2.051-2.23 0.4092-0.2693 0.7482-0.3981 1.117-0.4976 0.2757-0.07025 0.5708-0.1229 0.9104-0.1991 0.2534-0.05856 0.5327-0.1288 0.8301-0.2458 0.4455-0.1698 0.9237-0.4567 1.335-0.884 0.4145-0.4273 0.7675-0.9776 1.093-1.674 0.4227-0.9133 0.8993-1.499 1.337-1.839 0.4414-0.3396 0.8301-0.4508 1.214-0.4567 0.3367 0 0.689 0.09953 1.055 0.322 0.3641 0.2166 0.7341 0.562 1.059 1.03 0.5644 0.8137 1.243 1.534 2.052 2.067 0.8055 0.5327 1.759 0.8782 2.788 0.8782 1.011 0.005996 2.058-0.3396 3.036-1.007 0.5339-0.3688 0.6714-1.095 0.3068-1.628-0.3647-0.5386-1.093-0.6732-1.627-0.3103" style="fill:#100f0d;stroke-width:.9993"/>
 <path d="m54.79 24.61h-1.171c0 6.147-2.488 11.7-6.515 15.73-4.029 4.028-9.583 6.515-15.73 6.515-6.147 0-11.7-2.488-15.73-6.515-4.028-4.028-6.515-9.583-6.515-15.73 0-6.147 2.488-11.69 6.515-15.73 4.029-4.028 9.583-6.515 15.73-6.515 6.147 0 11.7 2.488 15.73 6.515 4.028 4.033 6.515 9.583 6.515 15.73h2.341c0-13.58-11.01-24.59-24.58-24.59-13.58 0-24.58 11.01-24.59 24.59 0 13.58 11.01 24.59 24.59 24.59 13.58 0 24.58-11 24.58-24.59h-1.171" style="fill:#100f0d;stroke-width:.9993"/>
</svg>
