<?xml version="1.0" encoding="UTF-8" standalone="no"?>
<svg xmlns:dc="http://purl.org/dc/elements/1.1/" xmlns:cc="http://creativecommons.org/ns#" xmlns:rdf="http://www.w3.org/1999/02/22-rdf-syntax-ns#" xmlns:svg="http://www.w3.org/2000/svg" xmlns="http://www.w3.org/2000/svg" xmlns:xlink="http://www.w3.org/1999/xlink" xmlns:sodipodi="http://sodipodi.sourceforge.net/DTD/sodipodi-0.dtd" xmlns:inkscape="http://www.inkscape.org/namespaces/inkscape" version="1.1" viewBox="0 0 100.6 134.20684" id="svg31398" sodipodi:docname="i35a.svg" inkscape:version="0.92.2 (5c3e80d, 2017-08-06)" width="100.6" height="134.20683">
  <metadata id="metadata31404">
    <rdf:RDF>
      <cc:Work rdf:about="">
        <dc:format>image/svg+xml</dc:format>
        <dc:type rdf:resource="http://purl.org/dc/dcmitype/StillImage" />
        <dc:title></dc:title>
      </cc:Work>
    </rdf:RDF>
  </metadata>
  <defs id="defs31402">
    <linearGradient id="reslogo-linearGradient5862" x1="-1444.443" xlink:href="#reslogo-linearGradientSlvr" gradientUnits="userSpaceOnUse" x2="-1444.443" gradientTransform="matrix(3.7875629,0,0,3.8217115,5539.4726,-6811.6813)" y1="1797.2881" y2="1803.9598" />
    <linearGradient id="reslogo-linearGradientSlvr" y2="828" gradientUnits="userSpaceOnUse" x2="-1869" gradientTransform="matrix(1.301,0,0,1.301,1365,-35.3)" y1="794.40002" x1="-1869">
      <stop id="reslogo-stop4422" stop-color="#696969" offset="0" />
      <stop id="reslogo-stop4424" stop-color="#c7c7c9" offset=".17" />
      <stop id="reslogo-stop4426" stop-color="#f9f9ff" offset=".36" />
      <stop id="reslogo-stop4428" stop-color="#ccccce" offset=".73" />
      <stop id="reslogo-stop4430" stop-color="#696969" offset="1" />
    </linearGradient>
    <linearGradient inkscape:collect="always" xlink:href="#reslogo-linearGradientSlvr" id="linearGradient32672" x1="20.896086" y1="22.207708" x2="60.459736" y2="18.41345" gradientUnits="userSpaceOnUse" gradientTransform="matrix(1.001225,0,0,1.001225,1.2855786,-0.12434587)" />
    <linearGradient inkscape:collect="always" xlink:href="#reslogo-linearGradientSlvr" id="linearGradient32680" x1="26.340786" y1="126.47284" x2="84.676964" y2="126.47284" gradientUnits="userSpaceOnUse" gradientTransform="matrix(1.001225,0,0,1.001225,1.2855786,-0.12434587)" />
    <linearGradient id="reslogo-linearGradient4674" y2="1413.6873" xlink:href="#reslogo-linearGradient7728" gradientUnits="userSpaceOnUse" x2="-1854.9695" gradientTransform="matrix(3.036647,0,0,4.9950301,5660.4639,-6986.3242)" y1="1401.6953" x1="-1835.9272" />
    <linearGradient id="reslogo-linearGradient7728" y2="781.40002" gradientUnits="userSpaceOnUse" x2="-1405" gradientTransform="scale(0.7835,1.276)" y1="704.40002" x1="-1405">
      <stop id="reslogo-stop4435" stop-color="#1c072d" offset="0" />
      <stop id="reslogo-stop4437" stop-color="#5700aa" offset=".29" />
      <stop id="reslogo-stop4439" stop-color="#4b127b" offset=".64" />
      <stop id="reslogo-stop4441" stop-color="#290a43" offset="1" />
    </linearGradient>
    <linearGradient id="reslogo-linearGradient4678" y2="947.73828" xlink:href="#reslogo-linearGradient7732" gradientUnits="userSpaceOnUse" x2="-539.02252" gradientTransform="matrix(1.9380516,0,0,1.9454603,1026.5952,-1710.8747)" y1="871.86438" x1="-539.02252" />
    <linearGradient id="reslogo-linearGradient7732" y2="1076" gradientUnits="userSpaceOnUse" x2="-1040" gradientTransform="matrix(0.5122,0,0,0.5116,-456,447.2)" y1="884.29999" x1="-1040">
      <stop id="reslogo-stop4444" stop-color="#141414" offset="0" />
      <stop id="reslogo-stop4446" stop-color="#0a0a0a" offset=".15" />
      <stop id="reslogo-stop4448" stop-color="#6d6d6d" offset=".3" />
      <stop id="reslogo-stop4450" offset="0.48213118" />
      <stop id="reslogo-stop4452" stop-color="#141414" offset="0.63964486" />
      <stop id="reslogo-stop4454" stop-color="#262626" offset="0.79388851" style="stop-color:#6d6d6d;stop-opacity:1" />
      <stop id="reslogo-stop4456" stop-color="#040404" offset="1" />
    </linearGradient>
  </defs>
  <sodipodi:namedview pagecolor="#ffffff" bordercolor="#666666" borderopacity="1" objecttolerance="10" gridtolerance="10" guidetolerance="10" inkscape:pageopacity="0" inkscape:pageshadow="2" inkscape:window-width="2560" inkscape:window-height="1001" id="namedview31400" showgrid="false" inkscape:snap-global="false" inkscape:zoom="5.0075678" inkscape:cx="5.2608325" inkscape:cy="64.722852" inkscape:window-x="-9" inkscape:window-y="41" inkscape:window-maximized="1" inkscape:current-layer="svg31398" fit-margin-top="0.3" fit-margin-left="0.3" fit-margin-right="0.3" fit-margin-bottom="0.3" />
  <path style="opacity:1;fill:url(#reslogo-linearGradient4674);fill-opacity:1;stroke:none;stroke-width:13.83987713;stroke-linecap:butt;stroke-linejoin:miter;stroke-miterlimit:4;stroke-dasharray:none;stroke-dashoffset:0;stroke-opacity:1" d="M 98.131293,44.410541 A 41.707278,41.707278 0 0 1 56.424015,86.117819 41.707278,41.707278 0 0 1 14.716737,44.410541 41.707278,41.707278 0 0 1 56.424015,2.7032638 41.707278,41.707278 0 0 1 98.131293,44.410541 Z" id="path32683" inkscape:connector-curvature="0" />
  <path inkscape:connector-curvature="0" id="path31375" style="opacity:1;fill:url(#reslogo-linearGradient5862);fill-opacity:1;stroke:none;stroke-width:27.56158447;stroke-linecap:butt;stroke-linejoin:miter;stroke-miterlimit:4;stroke-dasharray:none;stroke-dashoffset:0;stroke-opacity:1" d="M 58.745879,85.788967 C 56.801925,83.129381 54.637229,78.134201 58.825987,71.898238 65.1563,62.459734 68.506595,68.91644 71.734058,61.970185 73.453888,58.256734 75.842709,56.672375 78.169402,56.672375 80.207705,56.672375 82.199725,57.892509 83.64879,59.978166 85.415438,62.52204 87.823307,64.327141 90.55766,64.327141 91.902051,64.327141 93.325837,63.889217 94.789144,62.888045 88.086773,76.153931 74.512916,85.33609 58.740539,85.781134" />
  <path inkscape:connector-curvature="0" id="path31377" style="fill:url(#linearGradient32672);fill-opacity:1;stroke-width:1.78017795" d="M 40.944099,48.227211 C 34.085073,48.227211 28.541599,46.297498 34.725937,37.150943 38.839929,31.080536 29.591904,24.009669 22.901995,24.009669 21.51399,24.009669 20.235288,24.312121 19.208126,25.000338 26.143699,11.577796 40.143019,2.3920779 56.289234,2.3920779 57.606387,2.3920779 58.906095,2.4650652 60.193164,2.5797087 50.612246,9.1289836 62.688974,15.010691 61.541649,19.275997 60.384,23.573347 50.930008,26.211571 52.606935,35.158746 54.536648,45.462416 49.132028,47.568367 44.663781,48.070377 43.423709,48.164193 42.167972,48.216351 40.95389,48.216351" />
  <path inkscape:connector-curvature="0" id="path31379" style="fill:url(#linearGradient32680);fill-opacity:1;stroke-width:1.78017795" d="M 81.888194,131.71756 H 31.829588 C 29.534938,131.71756 27.658631,129.84126 27.658631,127.54661 27.658631,124.10552 30.474872,121.28928 33.915956,121.28928 H 79.808946 C 83.25003,121.28928 86.066271,124.10552 86.066271,127.54661 86.066271,129.84126 84.189964,131.71756 81.895314,131.71756" />
  <path style="opacity:1;fill:url(#reslogo-linearGradient4678);fill-opacity:1;stroke-width:3.79322624;stroke-linecap:butt;stroke-linejoin:miter;stroke-miterlimit:4;stroke-dasharray:none;stroke-dashoffset:0;stroke-opacity:1" d="M 14.231104,0.30000144 C 13.697384,0.30000144 13.162349,0.5060118 12.754688,0.91794496 11.940257,1.7314863 11.940257,3.0435465 12.754688,3.8570878 L 15.075888,6.1782872 C 5.9144187,16.190222 0.29827679,29.522359 0.29999781,44.168125 0.29999781,74.803039 24.735643,99.692517 55.185507,100.45769 V 119.30694 H 34.214538 C 29.610997,119.31762 25.879421,123.0492 25.8723,127.64917 25.8723,131.11162 28.672675,133.90683 32.128001,133.90683 H 82.187293 C 85.642619,133.90683 88.436049,131.11162 88.44495,127.64917 88.44495,123.05182 84.708499,119.32187 80.108578,119.30694 H 59.358582 V 100.4264 C 72.656453,99.788507 84.739438,94.51912 94.047508,86.225442 L 96.740256,88.918189 C 97.554687,89.731731 98.873854,89.731731 99.689176,88.918189 100.50361,88.104648 100.50361,86.780854 99.689176,85.967313 L 96.016713,82.294851 C 95.927895,82.12789 95.824154,81.965953 95.686231,81.823571 95.527927,81.658027 95.345882,81.533962 95.15433,81.432468 L 87.983448,74.261585 C 90.683971,71.411611 93.009118,68.204842 94.87078,64.708882 94.888971,64.696609 94.90737,64.686081 94.925535,64.673683 95.557147,64.237358 95.867517,63.520553 95.821162,62.810075 98.492808,57.144636 99.994237,50.816462 99.994237,44.132926 99.994237,21.989691 83.556478,3.6911152 62.235148,0.74781496 61.749263,0.46515794 61.167149,0.39022123 60.619891,0.54444114 59.167089,0.39872257 57.693384,0.32346766 56.202376,0.32346765 44.796931,0.32346765 34.41451,4.6855744 26.621264,11.829732 L 15.705564,0.91794496 C 15.298348,0.5060118 14.764823,0.30000144 14.231104,0.30000144 Z M 56.19651,4.5063197 C 56.252282,4.5063197 56.307013,4.510001 56.36273,4.5102307 55.704739,5.6380357 55.371439,6.8579933 55.377149,8.0047405 55.377149,9.4751676 55.835203,10.766508 56.40575,11.904042 57.270204,13.603935 58.425701,15.033691 59.278406,16.253113 59.706004,16.858018 60.056416,17.401662 60.265942,17.82926 60.48081,18.25686 60.531189,18.547532 60.526026,18.631022 V 18.693599 C 60.472621,18.891732 60.354245,19.15325 60.131012,19.466028 59.746137,20.029276 59.040491,20.737288 58.169627,21.519322 56.868139,22.708302 55.212305,24.074095 53.816646,25.909458 53.12113,26.837643 52.490711,27.880416 52.03908,29.069575 51.586559,30.26888 51.318559,31.604952 51.319449,33.064698 51.319449,33.846907 51.395854,34.660133 51.554111,35.505184 51.810635,36.871292 51.921749,38.049348 51.921749,39.06227 51.921749,40.574531 51.674948,41.678854 51.321405,42.513758 51.054378,43.128988 50.728337,43.609551 50.347557,44.005818 49.777188,44.589895 49.059499,45.026525 48.210177,45.339481 47.386864,45.644128 46.446985,45.837488 45.507652,45.943736 44.304073,46.037552 43.096999,46.090399 41.950565,46.090399 39.70754,46.10108 37.683075,45.840067 36.52596,45.339481 35.940815,45.089187 35.603199,44.818575 35.425003,44.578785 35.252325,44.338816 35.148045,44.119758 35.137542,43.608848 35.137542,43.160421 35.256865,42.48263 35.620555,41.584887 35.981397,40.688033 36.57844,39.570516 37.460696,38.278107 38.381583,36.922323 38.842543,35.399463 38.837381,33.929036 38.837381,32.145298 38.203652,30.499058 37.267101,29.069575 35.850969,26.931581 33.740956,25.190665 31.394682,23.92852 29.041286,22.677055 26.444109,21.885907 23.910915,21.875226 23.737979,21.875226 23.565649,21.896624 23.392703,21.904558 24.510542,20.258611 25.75176,18.703573 27.098409,17.24456 27.601469,17.222801 28.098372,17.027921 28.482915,16.644217 28.870157,16.257398 29.066221,15.75401 29.085215,15.246021 36.17899,8.5859083 45.69994,4.5063197 56.19651,4.5063197 Z M 61.535073,4.873957 C 70.343535,6.0596775 78.230311,10.125506 84.217121,16.112316 91.393018,23.297114 95.823118,33.184832 95.823118,44.132926 95.823118,50.461369 94.335615,56.43409 91.700887,61.736495 90.889731,62.145151 90.174352,62.295773 89.512663,62.295773 88.612605,62.295773 87.739879,62.003778 86.843381,61.419701 85.954716,60.835626 85.078057,59.939272 84.316853,58.844284 83.446168,57.592819 82.384155,56.549875 81.166514,55.809321 79.950474,55.079271 78.564623,54.641878 77.124459,54.641878 75.481889,54.631197 73.8166,55.225406 72.396018,56.341222 70.969384,57.457037 69.762546,59.062419 68.795909,61.138107 68.447706,61.888986 68.124655,62.400204 67.849439,62.733809 67.606445,63.036261 67.40598,63.20437 67.21194,63.34002 66.879404,63.558982 66.499802,63.682924 65.831345,63.828899 64.856164,64.047861 63.28569,64.256528 61.542895,65.236872 59.795117,66.217216 57.982944,67.897402 56.04789,70.786631 54.079015,73.706123 53.285446,76.564387 53.292566,79.09758 53.292566,80.816721 53.651091,82.369248 54.164727,83.708691 44.025719,83.197246 34.903354,78.880991 28.1759,72.153537 21.000002,64.97764 16.569903,55.081021 16.569903,44.132926 16.569903,37.995078 17.963939,32.194352 20.451605,27.014326 20.767444,26.977413 21.079863,26.877088 21.362876,26.687755 21.952115,26.291487 22.810068,26.050256 23.901139,26.050256 24.982775,26.050256 26.257752,26.301179 27.530579,26.760108 29.44071,27.458829 31.334923,28.646764 32.654035,29.992579 33.315371,30.67047 33.830976,31.370114 34.16565,32.047828 34.50157,32.72572 34.656484,33.351538 34.656484,33.934902 34.656484,34.581463 34.485778,35.206946 33.997475,35.937352 32.993098,37.428785 32.25136,38.764018 31.742764,40.024384 31.237015,41.286352 30.958781,42.464369 30.956646,43.610804 30.938844,44.903925 31.361476,46.176033 32.112356,47.124868 32.668306,47.854919 33.370859,48.397888 34.122628,48.804658 35.25322,49.419887 36.501049,49.762918 37.816601,49.98188 39.132864,50.190516 40.525897,50.263474 41.944698,50.263474 43.229631,50.263474 44.534369,50.201026 45.810757,50.107033 L 45.885066,50.097255 C 46.940356,49.982611 48.082742,49.784901 49.230957,49.399136 50.945447,48.835887 52.725452,47.833725 54.035664,46.092355 54.687564,45.226832 55.208675,44.195855 55.557056,43.028059 55.906327,41.849581 56.087001,40.534652 56.087001,39.064225 56.087001,37.750097 55.944653,36.321023 55.648965,34.736664 55.535034,34.13176 55.486482,33.57952 55.484701,33.068608 55.484701,31.619009 55.861627,30.49306 56.48006,29.419612 57.403082,27.813535 58.973832,26.394427 60.567092,24.964944 61.361763,24.25572 62.158446,23.536218 62.868736,22.721965 63.572797,21.908423 64.2224,20.969669 64.54657,19.780866 64.649821,19.394923 64.697145,19.010373 64.697145,18.634933 64.697145,17.957042 64.553068,17.341848 64.351018,16.788925 63.994449,15.819084 63.471074,14.992902 62.923491,14.190042 62.099624,12.990737 61.194812,11.85575 60.545581,10.769841 60.220164,10.237925 59.962533,9.7257047 59.794663,9.2562717 59.627326,8.7973418 59.548267,8.3801801 59.548267,8.0047405 59.548267,7.5144795 59.658848,7.0674672 60.044969,6.4520596 60.334609,5.9993471 60.806098,5.4637761 61.535073,4.873957 Z M 18.034586,9.1389407 23.682121,14.792342 C 16.673013,22.559709 12.399266,32.84746 12.390962,44.132926 12.390962,68.325546 32.009757,87.942385 56.202376,87.942385 56.611537,87.942385 57.016159,87.922238 57.422619,87.911097 57.63266,87.939933 57.845102,87.931421 58.056208,87.895453 68.347279,87.466867 77.712783,83.490011 84.973907,77.153796 L 91.092721,83.270655 C 81.896202,91.39327 69.842639,96.319823 56.616947,96.319823 42.209966,96.319823 29.184518,90.489646 19.749574,81.051142 10.311071,71.601957 4.4787634,58.585612 4.4769833,44.16617 4.4769833,30.672692 9.6199697,18.4048 18.034586,9.1389407 Z M 77.12837,58.812996 C 77.728112,58.812996 78.355187,58.989695 79.007622,59.385963 79.656319,59.771905 80.315427,60.388002 80.894697,61.222194 81.900141,62.671792 83.109395,63.953644 84.549559,64.902479 85.834045,65.751951 87.330997,66.330644 88.945562,66.443426 87.547315,68.490972 85.965492,70.405167 84.217121,72.153537 77.607385,78.761634 68.690575,83.031633 58.771927,83.667624 58.512433,83.2259 58.267219,82.751021 58.064029,82.226408 57.703187,81.298222 57.465641,80.256476 57.465641,79.09758 57.465641,77.418516 57.950072,75.458015 59.513068,73.11174 60.989904,70.91144 62.201119,69.773652 63.165975,69.138129 63.894957,68.658371 64.499273,68.42763 65.156692,68.250325 65.647843,68.125177 66.172911,68.032025 66.777815,67.896376 67.229269,67.792057 67.728361,67.666799 68.258142,67.45834 69.051745,67.155888 69.90333,66.645352 70.636052,65.884148 71.374469,65.122943 72.003409,64.142234 72.583748,62.901984 73.336762,61.27508 74.185672,60.231752 74.965568,59.626491 75.751872,59.021587 76.444247,58.823499 77.12837,58.812996 Z M 34.214538,123.47805 H 80.108578 C 81.250595,123.48022 82.282064,123.94846 83.045766,124.70808 83.808216,125.46946 84.270986,126.50273 84.271876,127.64917 84.271164,128.22275 84.041649,128.73396 83.657843,129.11972 83.269942,129.50567 82.758731,129.73375 82.187293,129.73375 H 32.128001 C 31.555494,129.73375 31.045353,129.5055 30.657452,129.11972 30.272578,128.73378 30.043418,128.22275 30.043418,127.64917 30.043418,126.50202 30.50601,125.46999 31.269529,124.70808 32.035005,123.94669 33.068103,123.47805 34.214538,123.47805 Z" id="path31381" inkscape:connector-curvature="0" />
</svg>
