<svg version="1.1" viewBox="0 0 56.73 75.6" xmlns="http://www.w3.org/2000/svg" xmlns:xlink="http://www.w3.org/1999/xlink">
 <defs>
  <linearGradient id="reslogo-linearGradient5862" x1="-1444" x2="-1444" y1="1797" y2="1804" gradientTransform="matrix(2.126 0 0 2.145 3110 -3824)" gradientUnits="userSpaceOnUse" xlink:href="#reslogo-linearGradientSlvr"/>
  <linearGradient id="reslogo-linearGradientSlvr" x1="-1869" x2="-1869" y1="794.4" y2="828" gradientTransform="matrix(1.301,0,0,1.301,1365,-35.3)" gradientUnits="userSpaceOnUse">
   <stop stop-color="#696969" offset="0"/>
   <stop stop-color="#c7c7c9" offset=".17"/>
   <stop stop-color="#f9f9ff" offset=".36"/>
   <stop stop-color="#ccccce" offset=".73"/>
   <stop stop-color="#696969" offset="1"/>
  </linearGradient>
  <linearGradient id="linearGradient32672" x1="20.9" x2="60.46" y1="22.21" y2="18.41" gradientTransform="matrix(.562 0 0 .562 .8533 .06179)" gradientUnits="userSpaceOnUse" xlink:href="#reslogo-linearGradientSlvr"/>
  <linearGradient id="linearGradient32680" x1="26.34" x2="84.68" y1="126.5" y2="126.5" gradientTransform="matrix(.562 0 0 .562 .8533 .06179)" gradientUnits="userSpaceOnUse" xlink:href="#reslogo-linearGradientSlvr"/>
  <linearGradient id="reslogo-linearGradient4674" x1="-1836" x2="-1855" y1="1402" y2="1414" gradientTransform="matrix(1.705 0 0 2.804 3178 -3922)" gradientUnits="userSpaceOnUse">
   <stop stop-color="#1c072d" offset="0"/>
   <stop stop-color="#5700aa" offset=".29"/>
   <stop stop-color="#4b127b" offset=".64"/>
   <stop stop-color="#290a43" offset="1"/>
  </linearGradient>
  <linearGradient id="reslogo-linearGradient4678" x1="-539" x2="-539" y1="871.9" y2="947.7" gradientTransform="matrix(1.088 0 0 1.092 576.4 -960.3)" gradientUnits="userSpaceOnUse">
   <stop stop-color="#141414" offset="0"/>
   <stop stop-color="#0a0a0a" offset=".15"/>
   <stop stop-color="#6d6d6d" offset=".3"/>
   <stop offset=".4821"/>
   <stop stop-color="#141414" offset=".6396"/>
   <stop stop-color="#262626" style="stop-color:#6d6d6d" offset=".7939"/>
   <stop stop-color="#040404" offset="1"/>
  </linearGradient>
 </defs>
 <path d="m55.22 25.06a23.41 23.41 0 0 1-23.41 23.41 23.41 23.41 0 0 1-23.41-23.41 23.41 23.41 0 0 1 23.41-23.41 23.41 23.41 0 0 1 23.41 23.41z" style="fill:url(#reslogo-linearGradient4674)"/>
 <path d="m33.11 48.29c-1.091-1.493-2.306-4.297 0.04497-7.798 3.554-5.298 5.434-1.674 7.246-5.573 0.9654-2.085 2.306-2.974 3.612-2.974 1.144 0 2.262 0.6849 3.076 1.856 0.9917 1.428 2.343 2.441 3.878 2.441 0.7547 0 1.554-0.2458 2.375-0.8078-3.762 7.447-11.38 12.6-20.24 12.85" style="fill:url(#reslogo-linearGradient5862)"/>
 <path d="m23.12 27.2c-3.85 0-6.962-1.083-3.491-6.218 2.309-3.408-2.882-7.377-6.637-7.377-0.7792 0-1.497 0.1698-2.074 0.5561 3.893-7.535 11.75-12.69 20.82-12.69 0.7394 0 1.469 0.04097 2.191 0.1053-5.378 3.676 1.401 6.978 0.757 9.372-0.6498 2.412-5.957 3.893-5.015 8.916 1.083 5.784-1.951 6.966-4.459 7.248-0.6961 0.05266-1.401 0.08194-2.083 0.08194" style="fill:url(#linearGradient32672);stroke-width:.9993"/>
 <path d="m46.1 74.07h-28.1c-1.288 0-2.341-1.053-2.341-2.341 0-1.932 1.581-3.513 3.513-3.513h25.76c1.932 0 3.513 1.581 3.513 3.513 0 1.288-1.053 2.341-2.341 2.341" style="fill:url(#linearGradient32680);stroke-width:.9993"/>
 <path d="m8.12 0.3c-0.2996 0-0.5999 0.1156-0.8288 0.3469-0.4572 0.4567-0.4572 1.193 0 1.65l1.303 1.303c-5.143 5.62-8.295 13.1-8.294 21.33 0 17.2 13.72 31.17 30.81 31.6v10.58h-11.77c-2.584 6e-3 -4.679 2.101-4.683 4.683 0 1.944 1.572 3.513 3.512 3.513h28.1c1.94 0 3.508-1.569 3.513-3.513 0-2.581-2.097-4.675-4.68-4.683h-11.65v-10.6c7.465-0.3581 14.25-3.316 19.47-7.972l1.512 1.512c0.4572 0.4567 1.198 0.4567 1.655 0 0.4572-0.4567 0.4572-1.2 0-1.656l-2.062-2.062c-0.04986-0.09372-0.1081-0.1846-0.1855-0.2646-0.08886-0.09293-0.1911-0.1626-0.2986-0.2196l-4.025-4.025c1.516-1.6 2.821-3.4 3.866-5.362 0.01021-0.006889 0.02054-0.0128 0.03074-0.01976 0.3546-0.2449 0.5288-0.6473 0.5028-1.046 1.5-3.18 2.343-6.733 2.343-10.48 0-12.43-9.227-22.7-21.2-24.35-0.2728-0.1587-0.5995-0.2007-0.9067-0.1142-0.8155-0.0818-1.643-0.124-2.48-0.124-6.402 0-12.23 2.449-16.61 6.459l-6.128-6.125c-0.2286-0.2312-0.5281-0.3469-0.8277-0.3469zm23.56 2.361c0.03131 0 0.06203 0.002066 0.09331 0.002195-0.3694 0.6331-0.5565 1.318-0.5533 1.962 0 0.8254 0.2571 1.55 0.5774 2.189 0.4853 0.9542 1.134 1.757 1.613 2.441 0.24 0.3396 0.4367 0.6447 0.5544 0.8848 0.1206 0.24 0.1489 0.4032 0.146 0.4501v0.03513c-0.02998 0.1112-0.09643 0.258-0.2217 0.4336-0.216 0.3162-0.6122 0.7136-1.101 1.153-0.7306 0.6674-1.66 1.434-2.444 2.464-0.3904 0.521-0.7443 1.106-0.9978 1.774-0.254 0.6732-0.4045 1.423-0.404 2.243 0 0.4391 0.04289 0.8956 0.1317 1.37 0.144 0.7669 0.2064 1.428 0.2064 1.997 0 0.8489-0.1385 1.469-0.337 1.937-0.1499 0.3454-0.3329 0.6151-0.5467 0.8376-0.3202 0.3279-0.723 0.573-1.2 0.7486-0.4622 0.171-0.9898 0.2796-1.517 0.3392-0.6756 0.05266-1.353 0.08233-1.997 0.08233-1.259 0.005996-2.396-0.1405-3.045-0.4215-0.3285-0.1405-0.518-0.2924-0.618-0.427-0.09693-0.1347-0.1555-0.2577-0.1614-0.5445 0-0.2517 0.06698-0.6322 0.2711-1.136 0.2026-0.5034 0.5377-1.131 1.033-1.856 0.5169-0.7611 0.7757-1.616 0.7728-2.441 0-1.001-0.3557-1.925-0.8815-2.728-0.7949-1.2-1.979-2.177-3.296-2.886-1.321-0.7025-2.779-1.147-4.201-1.153-0.09708 0-0.1938 0.01201-0.2909 0.01647 0.6275-0.924 1.324-1.797 2.08-2.616 0.2824-0.01221 0.5613-0.1216 0.7772-0.337 0.2174-0.2171 0.3274-0.4997 0.3381-0.7849 3.982-3.739 9.327-6.029 15.22-6.029zm2.997 0.2064c4.945 0.6656 9.372 2.948 12.73 6.309 4.028 4.033 6.515 9.584 6.515 15.73 0 3.552-0.835 6.905-2.314 9.882-0.4553 0.2294-0.8569 0.314-1.228 0.314-0.5052 0-0.9952-0.1639-1.498-0.4918-0.4989-0.3279-0.991-0.831-1.418-1.446-0.4888-0.7025-1.085-1.288-1.768-1.704-0.6826-0.4098-1.461-0.6553-2.269-0.6553-0.9221-0.005996-1.857 0.3276-2.654 0.9539-0.8008 0.6264-1.478 1.528-2.021 2.693-0.1955 0.4215-0.3768 0.7085-0.5313 0.8957-0.1364 0.1698-0.2489 0.2641-0.3579 0.3403-0.1867 0.1229-0.3998 0.1925-0.775 0.2744-0.5474 0.1229-1.429 0.24-2.407 0.7904-0.9811 0.5503-1.998 1.493-3.085 3.115-1.105 1.639-1.551 3.243-1.547 4.665 0 0.965 0.2013 1.837 0.4896 2.588-5.692-0.2871-10.81-2.71-14.59-6.486-4.028-4.028-6.515-9.584-6.515-15.73 0-3.445 0.7825-6.702 2.179-9.61 0.1773-0.02072 0.3527-0.07704 0.5115-0.1833 0.3308-0.2224 0.8124-0.3579 1.425-0.3579 0.6072 0 1.323 0.1409 2.037 0.3985 1.072 0.3922 2.136 1.059 2.876 1.815 0.3712 0.3805 0.6607 0.7733 0.8485 1.154 0.1886 0.3805 0.2755 0.7318 0.2755 1.059 0 0.3629-0.09582 0.7141-0.3699 1.124-0.5638 0.8372-0.9802 1.587-1.266 2.294-0.2839 0.7084-0.4401 1.37-0.4413 2.013-0.009993 0.7259 0.2272 1.44 0.6488 1.973 0.3121 0.4098 0.7065 0.7146 1.128 0.9429 0.6347 0.3454 1.335 0.5379 2.074 0.6608 0.7389 0.1171 1.521 0.1581 2.317 0.1581 0.7213 0 1.454-0.03506 2.17-0.08782l0.04171-0.005489c0.5924-0.06436 1.234-0.1753 1.878-0.3919 0.9624-0.3162 1.962-0.8787 2.697-1.856 0.3659-0.4859 0.6585-1.065 0.854-1.72 0.1961-0.6615 0.2975-1.4 0.2975-2.225 0-0.7377-0.07991-1.54-0.2459-2.429-0.06396-0.3396-0.09121-0.6496-0.09221-0.9364 0-0.8137 0.2116-1.446 0.5587-2.048 0.5181-0.9016 1.4-1.698 2.294-2.501 0.4461-0.3981 0.8933-0.802 1.292-1.259 0.3952-0.4567 0.7599-0.9836 0.9418-1.651 0.05796-0.2166 0.08452-0.4325 0.08452-0.6433 0-0.3805-0.08088-0.7259-0.1943-1.036-0.2002-0.5444-0.494-1.008-0.8013-1.459-0.4625-0.6732-0.9704-1.31-1.335-1.92-0.1827-0.2986-0.3273-0.5861-0.4215-0.8496-0.09393-0.2576-0.1383-0.4918-0.1383-0.7025 0-0.2752 0.06207-0.5261 0.2788-0.8716 0.1626-0.2541 0.4273-0.5548 0.8365-0.8859zm-24.42 2.394 3.17 3.174c-3.935 4.36-6.334 10.14-6.338 16.47 0 13.58 11.01 24.59 24.59 24.59 0.2297 0 0.4568-0.01131 0.685-0.01757 0.1179 0.01619 0.2372 0.01141 0.3557-0.00878 5.777-0.2406 11.03-2.473 15.11-6.03l3.435 3.434c-5.162 4.56-11.93 7.325-19.35 7.325-8.087 0-15.4-3.273-20.7-8.571-5.298-5.304-8.572-12.61-8.573-20.71 0-7.575 2.887-14.46 7.611-19.66zm33.17 27.88c0.3367 0 0.6887 0.09919 1.055 0.3216 0.3641 0.2166 0.7341 0.5625 1.059 1.031 0.5644 0.8137 1.243 1.533 2.052 2.066 0.721 0.4768 1.561 0.8017 2.468 0.865-0.7849 1.149-1.673 2.224-2.654 3.205-3.71 3.709-8.716 6.106-14.28 6.463-0.1457-0.248-0.2833-0.5145-0.3974-0.809-0.2026-0.521-0.3359-1.106-0.3359-1.756 0-0.9425 0.2719-2.043 1.149-3.36 0.829-1.235 1.509-1.874 2.051-2.231 0.4092-0.2693 0.7484-0.3988 1.117-0.4984 0.2757-0.07025 0.5705-0.1225 0.91-0.1987 0.2534-0.05856 0.5336-0.1289 0.831-0.2459 0.4455-0.1698 0.9235-0.4564 1.335-0.8837 0.4145-0.4273 0.7676-0.9778 1.093-1.674 0.4227-0.9133 0.8992-1.499 1.337-1.839 0.4414-0.3396 0.8301-0.4508 1.214-0.4567zm-24.09 36.3h25.76c0.6411 0.00122 1.22 0.2641 1.649 0.6905 0.428 0.4274 0.6878 1.007 0.6883 1.651-4e-4 0.322-0.1292 0.609-0.3447 0.8255-0.2177 0.2167-0.5047 0.3447-0.8255 0.3447h-28.1c-0.3214 0-0.6077-0.1281-0.8255-0.3447-0.216-0.2166-0.3447-0.5035-0.3447-0.8255 0-0.644 0.2597-1.223 0.6883-1.651 0.4297-0.4274 1.01-0.6905 1.653-0.6905z" style="fill:url(#reslogo-linearGradient4678);stroke-width:2.129"/>
</svg>
