<svg version="1.1" viewBox="0 0 75 74.13" xmlns="http://www.w3.org/2000/svg">
 <path d="m60.82 72.84h-5.201v-61.11h-36.4v61.11h-5.201v-67.61c0-2.145 1.755-3.9 3.9-3.9h39c2.145 0 3.9 1.755 3.9 3.9v67.61" style="fill:#e8e7e6;stroke-width:.9882"/>
 <path d="m1.535 74.13h72.16c0.7184 0 1.3-0.5818 1.3-1.3 0-0.7177-0.5818-1.3-1.3-1.3h-72.16c-0.7184 0-1.3 0.5825-1.3 1.3 0 0.7184 0.5818 1.3 1.3 1.3m43.48-66.31h2.601c0.7184 0 1.3-0.5818 1.3-1.3 0-0.7177-0.5818-1.3-1.3-1.3h-2.601c-0.7184 0-1.3 0.5825-1.3 1.3 0 0.7184 0.5818 1.3 1.3 1.3m-17.79 0h2.601c0.7183 0 1.3-0.5818 1.3-1.3 0-0.7177-0.5818-1.3-1.3-1.3h-2.601c-0.7184 0-1.3 0.5825-1.3 1.3 0 0.7184 0.5818 1.3 1.3 1.3m8.893 0h2.601c0.7184 0 1.3-0.5818 1.3-1.3 0-0.7177-0.5818-1.3-1.3-1.3h-2.601c-0.7184 0-1.3 0.5825-1.3 1.3 0 0.7184 0.5818 1.3 1.3 1.3m30.63 23.81 5.851-3.25c0.628-0.3491 0.8543-1.141 0.5051-1.768-0.3485-0.628-1.14-0.8543-1.768-0.5051l-5.851 3.25c-0.6281 0.3484-0.8543 1.14-0.5051 1.768 0.3484 0.628 1.14 0.8543 1.768 0.5051m-0.9882 13.04 5.851 3.251c0.6274 0.3484 1.419 0.1222 1.768-0.5057 0.3491-0.6274 0.1228-1.419-0.5051-1.768l-5.851-3.251c-0.6274-0.3491-1.419-0.1228-1.768 0.5051-0.3491 0.6274-0.1229 1.419 0.5051 1.768m0-6.324h7.151c0.7184 0 1.3-0.5818 1.3-1.3 0-0.7177-0.5818-1.3-1.3-1.3h-7.151c-0.7183 0-1.3 0.5824-1.3 1.3 0 0.7184 0.5818 1.3 1.3 1.3m-56.32-8.992-5.851-3.25c-0.6273-0.3491-1.419-0.1228-1.768 0.5051-0.3491 0.6273-0.1228 1.419 0.5051 1.768l5.851 3.25c0.6274 0.3484 1.419 0.1222 1.768-0.5057 0.3491-0.6274 0.1229-1.419-0.505-1.768m-0.9883 13.04-5.851 3.251c-0.628 0.3484-0.8543 1.14-0.5051 1.768 0.3485 0.628 1.14 0.8543 1.768 0.5057l5.851-3.25c0.628-0.3491 0.8542-1.141 0.505-1.768-0.3484-0.628-1.14-0.8543-1.768-0.5051m9.87e-5 -6.622h-7.151c-0.7184 0-1.3 0.5824-1.3 1.3 0 0.7184 0.5818 1.3 1.3 1.3h7.151c0.7184 0 1.3-0.5818 1.3-1.3 0-0.7177-0.5818-1.3-1.3-1.3m27.67 22.73v11.37c0.009882 2.333 1.893 4.22 4.225 4.225 2.333-0.004941 4.22-1.893 4.225-4.225v-17.22c0-0.7177-0.5818-1.3-1.3-1.3s-1.3 0.5824-1.3 1.3v17.22c0 0.446-0.1801 0.8465-0.4785 1.147-0.3004 0.299-0.7008 0.4785-1.147 0.4785-0.4459 0-0.8464-0.18-1.146-0.4785-0.2984-0.3003-0.4785-0.7008-0.4785-1.147v-11.37c0-0.7177-0.5818-1.3-1.3-1.3-0.7183 0-1.3 0.5824-1.3 1.3m0.001383 0v11.37c0 0.446-0.1801 0.8465-0.4786 1.147-0.3003 0.299-0.7008 0.4785-1.146 0.4785-0.4455 0-0.8465-0.1794-1.146-0.4785-0.2984-0.3003-0.4785-0.7008-0.4785-1.147v-17.22c0-0.7177-0.5818-1.3-1.3-1.3s-1.3 0.5824-1.3 1.3v17.22c0.009881 2.333 1.893 4.221 4.225 4.225 2.332-0.004941 4.22-1.893 4.225-4.225v-11.37c0-0.7177-0.5818-1.3-1.3-1.3-0.7183 0-1.3 0.5824-1.3 1.3m-4.94-15.61v9.427c0 0.5382-0.4369 0.9745-0.9751 0.9751-0.5383-4.85e-4 -0.9745-0.4369-0.9752-0.9751v-12.68c0-0.1268 0.02569-0.2464 0.0919-0.394 0.1144-0.2548 0.3907-0.5974 0.8724-0.942 0.7177-0.5201 1.863-1.021 3.27-1.365 1.409-0.3478 3.079-0.55 4.867-0.55 2.722-0.004941 5.18 0.4772 6.838 1.2 0.8296 0.3562 1.451 0.7743 1.808 1.15 0.1807 0.1873 0.2959 0.3595 0.3629 0.5064 0.06719 0.1475 0.0919 0.2672 0.0919 0.394v12.68c0 0.5382-0.4369 0.9745-0.9752 0.9751-0.3426 0-0.6774 0.1384-0.9192 0.3809-0.2426 0.2418-0.381 0.5767-0.381 0.9192h1.3v-1.3c-0.5382-4.85e-4 -0.9745-0.4369-0.9751-0.9751v-9.427c0-0.7177-0.5818-1.3-1.3-1.3s-1.3 0.5824-1.3 1.3v9.427c0 1.975 1.601 3.575 3.575 3.575 0.3426 0 0.6774-0.1384 0.9193-0.3809 0.2425-0.2418 0.3809-0.5767 0.3809-0.9193h-1.3v1.3c1.975-4.85e-4 3.575-1.6 3.575-3.575v-12.68c4.94e-4 -0.5188-0.1203-1.027-0.3302-1.481-0.3706-0.7996-0.9823-1.436-1.716-1.965-1.107-0.7925-2.526-1.372-4.166-1.779-1.641-0.4044-3.506-0.6247-5.489-0.6254-3.022 0.004941-5.766 0.5064-7.872 1.413-1.052 0.4577-1.955 1.016-2.65 1.735-0.3459 0.3608-0.6397 0.7658-0.8496 1.221-0.2101 0.4545-0.3309 0.9622-0.3303 1.481v12.68c0 1.975 1.601 3.575 3.575 3.575 1.975-4.84e-4 3.575-1.6 3.575-3.575v-9.427c0-0.7177-0.5818-1.3-1.3-1.3-0.7186 0-1.3 0.5824-1.3 1.3m6.843-10.44c3.95 0 7.15-3.201 7.151-7.151 0-3.95-3.202-7.15-7.151-7.151-3.95 0-7.15 3.201-7.151 7.151 0 3.95 3.202 7.15 7.151 7.151zm-3.217-10.37c0.8277-0.825 1.958-1.332 3.218-1.333 1.261 0 2.39 0.5077 3.218 1.333 0.8257 0.8283 1.332 1.958 1.333 3.218 0 1.261-0.507 2.39-1.333 3.218-0.8276 0.8257-1.958 1.332-3.218 1.333-1.261 0-2.39-0.5071-3.218-1.333-0.8256-0.8276-1.332-1.957-1.333-3.218 0-1.261 0.507-2.39 1.333-3.218zm-15.94-22.09c-2.869 0.004941-5.196 2.332-5.201 5.201v67.61c0 0.3426 0.1385 0.6774 0.381 0.9192 0.2418 0.2425 0.5766 0.3809 0.9192 0.3809h5.201c0.3426 0 0.6774-0.1384 0.9192-0.3809 0.2426-0.2418 0.381-0.5767 0.381-0.9192v-59.81h33.8v59.81c0 0.3426 0.1384 0.6774 0.3809 0.9192 0.2418 0.2425 0.5767 0.3809 0.9193 0.3809h5.201c0.3427 0 0.6775-0.1384 0.9193-0.3809 0.2425-0.2418 0.3809-0.5767 0.3809-0.9192v-67.61c-0.009881-2.869-2.332-5.196-5.201-5.201zm40.84 3.366c0.4759 0.4772 0.7645 1.122 0.7652 1.835v66.32h-2.601v-59.81c0-0.3419-0.1385-0.6774-0.381-0.9192-0.2418-0.2418-0.5766-0.3809-0.9192-0.3809h-36.4c-0.3426 0-0.6774 0.1391-0.9193 0.3809-0.2425 0.2418-0.3809 0.5773-0.3809 0.9192v59.81h-2.601v-66.32c0-0.7138 0.2893-1.358 0.7651-1.835 0.4772-0.4752 1.121-0.7645 1.835-0.7651h39c0.7159 0 1.359 0.2899 1.836 0.7651z" style="fill:#100f0d;stroke-width:.9882"/>
</svg>
