<?xml version="1.0" encoding="UTF-8" standalone="no"?>
<svg xmlns:dc="http://purl.org/dc/elements/1.1/" xmlns:cc="http://creativecommons.org/ns#" xmlns:rdf="http://www.w3.org/1999/02/22-rdf-syntax-ns#" xmlns:svg="http://www.w3.org/2000/svg" xmlns="http://www.w3.org/2000/svg" xmlns:sodipodi="http://sodipodi.sourceforge.net/DTD/sodipodi-0.dtd" xmlns:inkscape="http://www.inkscape.org/namespaces/inkscape" version="1.1" viewBox="0 0 75 74.127459" id="svg35" sodipodi:docname="i36.svg" width="75" height="74.127457" inkscape:version="0.92.2 (5c3e80d, 2017-08-06)">
  <metadata id="metadata41">
    <rdf:RDF>
      <cc:Work rdf:about="">
        <dc:format>image/svg+xml</dc:format>
        <dc:type rdf:resource="http://purl.org/dc/dcmitype/StillImage" />
        <dc:title></dc:title>
      </cc:Work>
    </rdf:RDF>
  </metadata>
  <defs id="defs39" />
  <sodipodi:namedview pagecolor="#ffffff" bordercolor="#666666" borderopacity="1" objecttolerance="10" gridtolerance="10" guidetolerance="10" inkscape:pageopacity="0" inkscape:pageshadow="2" inkscape:window-width="2293" inkscape:window-height="894" id="namedview37" showgrid="false" fit-margin-top="0" fit-margin-left="0" fit-margin-right="0" fit-margin-bottom="0" inkscape:zoom="2.3807123" inkscape:cx="-22.069508" inkscape:cy="18.518521" inkscape:window-x="0" inkscape:window-y="22" inkscape:window-maximized="0" inkscape:current-layer="svg35" />
  <path inkscape:connector-curvature="0" id="path2" style="display:inline;fill:#e8e7e6;stroke-width:0.98815531" d="M 60.823924,72.842857 H 55.623262 V 11.735333 H 19.219621 V 72.842857 H 14.018959 V 5.233271 C 14.018959,3.087985 15.773923,1.333022 17.919208,1.333022 H 56.921699 C 59.066984,1.333022 60.821948,3.087985 60.821948,5.233271 V 72.842857" />
  <path id="path32" style="fill:#100f0d;stroke-width:0.98815531" d="M 1.5346052,74.127459 H 73.699588 C 74.417977,74.127459 75,73.545633 75,72.827047 75,72.109349 74.418174,71.526634 73.699588,71.526634 H 1.5346052 C 0.81621629,71.526634 0.23419281,72.109152 0.23419281,72.827047 0.23419281,73.545436 0.81601866,74.127459 1.5346052,74.127459 M 45.013439,7.822238 H 47.614264 C 48.332653,7.822238 48.914676,7.240412 48.914676,6.521825 48.914676,5.804128 48.33285,5.221413 47.614264,5.221413 H 45.013439 C 44.29505,5.221413 43.713027,5.80393 43.713027,6.521825 43.713027,7.240214 44.294853,7.822238 45.013439,7.822238 M 27.226643,7.822238 H 29.827468 C 30.545758,7.822238 31.12788,7.240412 31.12788,6.521825 31.12788,5.804128 30.546054,5.221413 29.827468,5.221413 H 27.226643 C 26.508254,5.221413 25.926231,5.80393 25.926231,6.521825 25.926231,7.240214 26.508057,7.822238 27.226643,7.822238 M 36.120041,7.822238 H 38.720866 C 39.439255,7.822238 40.021278,7.240412 40.021278,6.521825 40.021278,5.804128 39.439452,5.221413 38.720866,5.221413 H 36.120041 C 35.401652,5.221413 34.819629,5.80393 34.819629,6.521825 34.819629,7.240214 35.401455,7.822238 36.120041,7.822238 M 66.752856,31.636781 72.603723,28.386738 C 73.231696,28.037622 73.457984,27.245418 73.108868,26.618928 72.760346,25.990955 71.968537,25.764668 71.341058,26.113783 L 65.490191,29.363826 C 64.862119,29.712249 64.63593,30.504157 64.985046,31.131636 65.333469,31.759609 66.125377,31.985896 66.752856,31.636781 M 65.7647,44.680431 71.615568,47.931462 C 72.242948,48.279885 73.034559,48.053696 73.383378,47.425724 73.732493,46.798344 73.506206,46.006732 72.878233,45.657914 L 67.027366,42.406883 C 66.399986,42.057768 65.608375,42.284055 65.259556,42.912028 64.91044,43.539408 65.136629,44.331019 65.7647,44.679838 M 65.7647,38.356237 H 72.91598 C 73.634369,38.356237 74.216393,37.774411 74.216393,37.055824 74.216393,36.338127 73.634567,35.755412 72.91598,35.755412 H 65.7647 C 65.04641,35.755412 64.464288,36.337831 64.464288,37.055824 64.464288,37.774213 65.046114,38.356237 65.7647,38.356237 M 9.4398477,29.364023 3.5889801,26.113981 C 2.9616991,25.764865 2.1699891,25.991153 1.8211702,26.619125 1.472055,27.246407 1.6983425,28.038116 2.3263152,28.386935 L 8.1771825,31.636978 C 8.8045625,31.985402 9.5961736,31.759213 9.9449924,31.13124 10.294108,30.503861 10.067919,29.712249 9.4399464,29.363431 M 8.4516924,42.407673 2.6008248,45.658704 C 1.9728521,46.007128 1.7465645,46.799036 2.0956798,47.426514 2.4442022,48.054487 3.236011,48.280775 3.8634896,47.932253 L 9.7143575,44.68221 C 10.34233,44.333094 10.568518,43.54089 10.219404,42.9144 9.8709802,42.286427 9.0790723,42.06014 8.4515937,42.409254 M 8.4516924,35.787033 H 1.3004124 C 0.58202348,35.787033 0,36.369452 0,37.087445 0,37.805834 0.58182585,38.387858 1.3004124,38.387858 H 8.4516924 C 9.1700813,38.387858 9.7521048,37.806032 9.7521048,37.087445 9.7521048,36.369748 9.1702786,35.787033 8.4516924,35.787033 M 36.120041,58.514605 V 69.888273 C 36.129923,72.221307 38.013347,74.108684 40.345393,74.113625 42.678428,74.108684 44.565805,72.220319 44.570745,69.888273 V 52.664726 C 44.570745,51.947028 43.988919,51.364313 43.270333,51.364313 42.551747,51.364313 41.969921,51.946732 41.969921,52.664726 V 69.888273 C 41.969921,70.334228 41.78978,70.734726 41.491456,71.035521 41.191057,71.334537 40.790656,71.513986 40.344208,71.513986 39.898352,71.513986 39.497853,71.333944 39.197948,71.035521 38.899525,70.73522 38.719482,70.334722 38.719482,69.888273 V 58.514605 C 38.719482,57.796908 38.137657,57.214193 37.41907,57.214193 36.70078,57.214193 36.118658,57.796612 36.118658,58.514605 M 36.120041,58.514605 V 69.888273 C 36.120041,70.334228 35.9399,70.734726 35.641477,71.035521 35.341177,71.334537 34.940678,71.513986 34.495217,71.513986 34.049757,71.513986 33.648763,71.334537 33.348957,71.035521 33.050534,70.73522 32.870492,70.334722 32.870492,69.888273 V 52.664726 C 32.870492,51.947028 32.288666,51.364313 31.57008,51.364313 30.851494,51.364313 30.269668,51.946732 30.269668,52.664726 V 69.888273 C 30.279549,72.221307 32.162973,74.109672 34.49502,74.113625 36.827066,74.108684 38.715431,72.220319 38.720372,69.888273 V 58.514605 C 38.720372,57.796908 38.138546,57.214193 37.419959,57.214193 36.701669,57.214193 36.119547,57.796612 36.119547,58.514605 M 31.179265,42.901751 V 52.328753 C 31.179265,52.867001 30.742401,53.303271 30.204153,53.303865 29.665806,53.30338 29.229634,52.867001 29.228943,52.328753 V 39.65072 C 29.228943,39.52394 29.254635,39.404274 29.320841,39.256743 29.435269,39.001898 29.711557,38.659304 30.193283,38.314734 30.91098,37.794668 32.055956,37.29397 33.463089,36.950092 34.872198,36.602261 36.542181,36.400085 38.329754,36.400085 41.052122,36.395144 43.509664,36.877265 45.167788,37.599705 45.997345,37.955935 46.6184,38.374024 46.976113,38.749918 47.156846,38.937173 47.271967,39.109408 47.338964,39.256348 47.406158,39.403879 47.430862,39.523545 47.430862,39.650325 V 52.328357 C 47.430862,52.866606 46.993999,53.302877 46.455652,53.303469 46.113058,53.303469 45.778271,53.44191 45.53647,53.684403 45.293878,53.926205 45.155437,54.261091 45.155437,54.603585 H 46.455849 V 53.303173 C 45.917601,53.302688 45.48133,52.866309 45.480738,52.328061 V 42.90106 C 45.480738,42.183362 44.898912,41.600647 44.180325,41.600647 43.461738,41.600647 42.879913,42.183065 42.879913,42.90106 V 52.328061 C 42.879913,54.303384 44.480725,55.903207 46.455059,55.903207 46.797652,55.903207 47.132439,55.764766 47.374339,55.522273 47.616833,55.280471 47.755273,54.945585 47.755273,54.602992 H 46.454861 V 55.903405 C 48.430183,55.90292 50.030007,54.303581 50.030007,52.328259 V 39.650226 C 50.030501,39.131445 49.909748,38.623533 49.699765,38.168981 49.329207,37.369366 48.71744,36.733192 47.98334,36.20354 46.876606,35.41104 45.457615,34.831981 43.817277,34.424861 42.175951,34.020508 40.311302,33.800149 38.328074,33.799457 35.306295,33.804398 32.562188,34.305887 30.456429,35.212519 29.404044,35.670233 28.501858,36.228343 27.806196,36.94772 27.460342,37.308495 27.166464,37.71354 26.95658,38.16908 26.746498,38.623533 26.625648,39.131247 26.62624,39.650325 V 52.328357 C 26.62624,54.30368 28.227052,55.903503 30.201386,55.903503 32.176709,55.903019 33.776532,54.30368 33.776532,52.328357 V 42.901356 C 33.776532,42.183659 33.194706,41.600943 32.47612,41.600943 31.757533,41.600943 31.175707,42.183362 31.175707,42.901356 M 38.018287,32.463867 C 41.967944,32.463867 45.168579,29.263232 45.169567,25.312587 45.169567,21.36293 41.967944,18.162295 38.018287,18.161307 34.068631,18.161307 30.867996,21.361942 30.867007,25.312587 30.867007,29.262243 34.068631,32.462878 38.018287,32.463867 Z M 34.800854,22.094165 C 35.628533,21.269154 36.758389,20.762131 38.019276,20.761143 39.280162,20.761143 40.409623,21.268858 41.237697,22.094165 42.0634,22.922436 42.569731,24.0517 42.570719,25.312587 42.570719,26.573473 42.063697,27.702934 41.237697,28.531008 40.410117,29.356711 39.280162,29.863042 38.019276,29.86403 36.758389,29.86403 35.628928,29.356909 34.800854,28.531008 33.97525,27.703428 33.46882,26.574461 33.467832,25.312587 33.467832,24.0517 33.974855,22.922239 34.800854,22.094165 Z M 18.856968,0 C 15.988353,0.004941 13.661247,2.332047 13.656306,5.200662 V 72.810248 C 13.656306,73.152841 13.794845,73.487628 14.037339,73.72943 14.279141,73.971923 14.613928,74.110364 14.956521,74.110364 H 20.157183 C 20.499776,74.110364 20.834563,73.971923 21.076365,73.72943 21.318957,73.487628 21.457397,73.152742 21.457397,72.810248 V 12.997207 H 55.26219 V 72.810248 C 55.26219,73.152841 55.400631,73.487628 55.643124,73.72943 55.884926,73.971923 56.219812,74.110364 56.562405,74.110364 H 61.763067 C 62.105759,74.110364 62.440546,73.971923 62.682347,73.72943 62.924841,73.487628 63.063281,73.152742 63.063281,72.810248 V 5.200662 C 63.0534,2.332047 60.731235,0.004941 57.86262,0 Z M 59.697624,3.365954 C 60.17352,3.843134 60.46216,4.48751 60.462852,5.200958 V 71.516061 H 57.862027 V 11.70302 C 57.862027,11.361119 57.723488,11.02564 57.480994,10.783838 57.239193,10.542036 56.904406,10.402904 56.561813,10.402904 H 20.158171 C 19.815577,10.402904 19.480791,10.542036 19.23889,10.783838 18.996396,11.02564 18.857956,11.361119 18.857956,11.70302 V 71.516061 H 16.257131 V 5.200958 C 16.257131,4.487115 16.546463,3.843233 17.02226,3.365954 17.49944,2.89075 18.142828,2.601418 18.857265,2.600825 H 57.861188 C 58.577056,2.600825 59.220345,2.89075 59.697624,3.365954 Z" inkscape:connector-curvature="0" sodipodi:nodetypes="csssssccsssssccsssssccsssssccccccccccccccccsssssccccccccccccccccssssscccccsssscscsssccscscsssscccssccsccscccccccssccccccsssssccccscccccccccscssscccccccccccccccccscsscsccscsscscccccccscsscsccscccc" />
</svg>
