<svg version="1.1" viewBox="0 0 75 74.34" xmlns="http://www.w3.org/2000/svg">
 <defs>
  <linearGradient id="linearGradient6842" x1="-2291" x2="-2292" y1="722.8" y2="784.2" gradientTransform="matrix(1.29 0 0 1.29 2991 -935.3)" gradientUnits="userSpaceOnUse">
   <stop style="stop-color:#696969" offset="0"/>
   <stop style="stop-color:#c7c7c9" offset=".17"/>
   <stop style="stop-color:#f9f9ff" offset=".36"/>
   <stop style="stop-color:#ccccce" offset=".73"/>
   <stop style="stop-color:#696969" offset="1"/>
  </linearGradient>
 </defs>
 <path d="m60.56 73.05h-5.217v-61.3h-36.52v61.3h-5.217v-67.82c0-2.152 1.76-3.912 3.912-3.912h39.12c2.152 0 3.912 1.76 3.912 3.912v67.82" style="fill:url(#linearGradient6842);stroke-width:.9912"/>
 <path d="m17.93 0c-2.877 0.004956-5.212 2.339-5.218 5.218v66.52h-11.41c-0.7206 0-1.304 0.5829-1.304 1.302 0 0.7206 0.5842 1.304 1.304 1.304h72.39c0.7207 0 1.304-0.5842 1.304-1.304 0-0.7199-0.5843-1.302-1.304-1.302h-11.41v-66.52c-0.009912-2.877-2.337-5.212-5.216-5.218zm0 2.608h39.12c0.7166 0 1.362 0.2919 1.841 0.7686 0.4774 0.4787 0.7659 1.125 0.7666 1.841v66.52h-2.608v-60c0-0.343-0.1402-0.6789-0.3834-0.9215-0.2425-0.2426-0.5778-0.3814-0.9214-0.3814h-36.52c-0.3437 0-0.6789 0.1388-0.9215 0.3814-0.2432 0.2426-0.3834 0.5785-0.3834 0.9215v60h-2.608v-66.52c0-0.7161 0.2893-1.363 0.7666-1.841 0.4787-0.4767 1.124-0.768 1.841-0.7686zm8.805 2.61c-0.7206 0-1.304 0.5829-1.304 1.302 0 0.7206 0.5842 1.304 1.304 1.304h2.608c0.7205 0 1.304-0.5842 1.304-1.304 0-0.7199-0.5843-1.302-1.304-1.302zm9.128 0c-0.7206 0-1.302 0.5829-1.302 1.302 0 0.7206 0.5822 1.304 1.302 1.304h2.61c0.7206 0 1.302-0.5842 1.302-1.304 0-0.7199-0.5822-1.302-1.302-1.302zm9.13 0c-0.7206 0-1.304 0.5829-1.304 1.302 0 0.7206 0.5842 1.304 1.304 1.304h2.608c0.7206 0 1.304-0.5842 1.304-1.304 0-0.7199-0.5842-1.302-1.304-1.302zm-24.45 7.826h33.91v58.69h-10.11c0.2103-0.5021 0.3297-1.052 0.3311-1.631v-14.17c0.3129 0.08911 0.6361 0.1509 0.9776 0.151 0.08624 0 0.172-0.00793 0.2555-0.02518 1.86-0.1338 3.331-1.666 3.331-3.56v-12.72c4.96e-4 -0.5204-0.1223-1.029-0.3329-1.485-0.3717-0.8021-0.9849-1.441-1.721-1.973-1.11-0.795-2.534-1.375-4.18-1.783-1.646-0.4056-3.517-0.6266-5.506-0.6272-3.031 0.004956-5.783 0.5074-7.895 1.417-1.056 0.4591-1.961 1.019-2.658 1.741-0.3469 0.3619-0.6432 0.7684-0.8537 1.225-0.2107 0.4559-0.3317 0.9644-0.3311 1.485v12.72c0 1.981 1.606 3.585 3.587 3.585 0.3416-8e-5 0.6648-0.06185 0.9776-0.151v14.17c0 0.5785 0.1187 1.128 0.3292 1.631h-10.11zm16.95 5.218c-3.962 0-7.172 3.211-7.172 7.172 0 3.962 3.211 7.172 7.172 7.172 3.962 0 7.174-3.211 7.174-7.172 0-3.962-3.213-7.171-7.174-7.172zm0 2.608c1.265 0 2.399 0.5102 3.229 1.338 0.8283 0.8308 1.335 1.963 1.336 3.227 0 1.265-0.5075 2.397-1.336 3.227-0.8301 0.8283-1.965 1.337-3.229 1.338-1.265 0-2.397-0.5095-3.227-1.338-0.8282-0.8301-1.335-1.963-1.336-3.227 0-1.265 0.5076-2.397 1.336-3.227 0.8302-0.8276 1.963-1.337 3.227-1.338zm-34.42 5.224c-0.5052-0.05442-1.017 0.1916-1.28 0.664-0.3502 0.6292-0.1227 1.425 0.5072 1.775l5.868 3.26c0.6293 0.3495 1.423 0.1227 1.773-0.5072 0.3502-0.6293 0.1227-1.423-0.5072-1.773l-5.868-3.26c-0.1573-0.08752-0.3253-0.1407-0.4937-0.1588zm68.85 0c-0.1684 0.01814-0.3363 0.07117-0.4937 0.1588l-5.87 3.26c-0.63 0.3495-0.8555 1.144-0.5053 1.773 0.3495 0.6299 1.144 0.8555 1.773 0.5053l5.868-3.258c0.6299-0.3502 0.8574-1.146 0.5072-1.775-0.2622-0.4724-0.7744-0.7184-1.28-0.664zm-70.61 9.774c-0.7206 0-1.304 0.5849-1.304 1.304 0 0.7206 0.5842 1.304 1.304 1.304h7.172c0.7206 0 1.304-0.5842 1.304-1.304 0-0.7199-0.5842-1.304-1.304-1.304zm64.56 0c-0.7205 0-1.304 0.5849-1.304 1.304 0 0.7206 0.5843 1.304 1.304 1.304h7.172c0.7206 0 1.304-0.5842 1.304-1.304 0-0.7199-0.5843-1.304-1.304-1.304zm-28.37 0.6524c2.731-0.004956 5.198 0.4796 6.861 1.204 0.8321 0.3573 1.454 0.7762 1.812 1.154 0.1813 0.1878 0.2968 0.3598 0.364 0.5072 0.0674 0.148 0.09218 0.2677 0.09317 0.3949v12.72c0 0.5399-0.4376 0.9769-0.9776 0.9776-0.5399-4.86e-4 -0.977-0.4377-0.9776-0.9776v-9.455c0-0.7199-0.5842-1.304-1.304-1.304s-1.304 0.5849-1.304 1.304v9.455c0 0.0565 0.01487 0.1087 0.01784 0.1645-0.009913 0.05353-0.01784 0.1054-0.01784 0.1607v17.29c0 0.4473-0.1808 0.8487-0.48 1.15-0.3013 0.2999-0.7026 0.4801-1.15 0.4801-0.4472 0-0.8486-0.1808-1.15-0.4801-0.2993-0.3012-0.4801-0.7027-0.4801-1.15v-11.41c0-0.7199-0.5842-1.304-1.304-1.304-0.7205 0-1.302 0.5849-1.302 1.304v11.41c0 0.4473-0.1808 0.8487-0.48 1.15-0.3013 0.2999-0.7027 0.4801-1.15 0.4801s-0.8507-0.1802-1.152-0.4801c-0.2993-0.3012-0.4782-0.7027-0.4782-1.15v-17.29c0-0.05531-0.0109-0.1071-0.01784-0.1607 0-0.0558 0.01685-0.108 0.01784-0.1645v-9.455c0-0.7199-0.5842-1.304-1.304-1.304-0.7202 0-1.304 0.5849-1.304 1.304v9.455c0 0.5399-0.4377 0.9769-0.9776 0.9776-0.54-4.86e-4 -0.9769-0.4377-0.9776-0.9776v-12.72c0-0.1272 0.02379-0.2469 0.09119-0.3949 0.1148-0.2556 0.3938-0.5992 0.877-0.9447 0.7199-0.5217 1.867-1.024 3.28-1.369 1.413-0.3489 3.088-0.5517 4.881-0.5517zm-28.83 5.878c-0.1684 0.01814-0.3363 0.06929-0.4937 0.1568l-5.868 3.26c-0.6299 0.3495-0.8574 1.144-0.5072 1.773 0.3496 0.6299 1.144 0.8568 1.773 0.5072l5.868-3.26c0.6299-0.3502 0.8574-1.146 0.5072-1.775-0.2621-0.4724-0.7744-0.7164-1.28-0.6621zm57.67 0c-0.5052-0.05442-1.017 0.1896-1.28 0.6621-0.3502 0.6293-0.1247 1.423 0.5053 1.773l5.87 3.262c0.6293 0.3495 1.423 0.1227 1.773-0.5072 0.3502-0.6293 0.1227-1.423-0.5072-1.773l-5.868-3.26c-0.1574-0.08752-0.3253-0.1387-0.4937-0.1568z" style="fill:#100f0d;stroke-width:.9912"/>
</svg>
