<?xml version="1.0" encoding="UTF-8" standalone="no"?>
<svg xmlns:dc="http://purl.org/dc/elements/1.1/" xmlns:cc="http://creativecommons.org/ns#" xmlns:rdf="http://www.w3.org/1999/02/22-rdf-syntax-ns#" xmlns:svg="http://www.w3.org/2000/svg" xmlns="http://www.w3.org/2000/svg" xmlns:sodipodi="http://sodipodi.sourceforge.net/DTD/sodipodi-0.dtd" xmlns:inkscape="http://www.inkscape.org/namespaces/inkscape" version="1.1" viewBox="0 0 100 99.13" id="svg21" sodipodi:docname="i69.svg" inkscape:version="0.92.2 (5c3e80d, 2017-08-06)">
  <metadata id="metadata25">
    <rdf:RDF>
      <cc:Work rdf:about="">
        <dc:format>image/svg+xml</dc:format>
        <dc:type rdf:resource="http://purl.org/dc/dcmitype/StillImage" />
        <dc:title></dc:title>
      </cc:Work>
    </rdf:RDF>
  </metadata>
  <sodipodi:namedview pagecolor="#ffffff" bordercolor="#666666" borderopacity="1" objecttolerance="10" gridtolerance="10" guidetolerance="10" inkscape:pageopacity="0" inkscape:pageshadow="2" inkscape:window-width="2560" inkscape:window-height="1001" id="namedview23" showgrid="false" inkscape:zoom="3.3668356" inkscape:cx="2.4969194" inkscape:cy="24.328984" inkscape:window-x="-9" inkscape:window-y="41" inkscape:window-maximized="1" inkscape:current-layer="svg21" />
  <defs id="defs13">
    <linearGradient id="linearGradient6842" x1="-2290.9192" x2="-2292.4116" y1="722.8089" y2="784.22247" gradientTransform="matrix(1.719922,0,0,1.719922,3988.53,-1247.6666)" gradientUnits="userSpaceOnUse">
      <stop style="stop-color:#696969" offset="0" id="stop2" />
      <stop style="stop-color:#c7c7c9" offset=".17" id="stop4" />
      <stop style="stop-color:#f9f9ff" offset=".36" id="stop6" />
      <stop style="stop-color:#ccccce" offset=".73" id="stop8" />
      <stop style="stop-color:#696969" offset="1" id="stop10" />
    </linearGradient>
  </defs>
  <path inkscape:connector-curvature="0" id="path15" style="fill:url(#linearGradient6842);stroke-width:1.32200003" d="M 80.698,97.204 H 73.740314 V 15.45152 H 25.037834 V 97.204 H 18.080148 V 6.75276 C 18.080148,3.882698 20.42802,1.534826 23.298082,1.534826 H 75.477422 C 78.347484,1.534826 80.695356,3.882698 80.695356,6.75276 V 97.204" />
  <path inkscape:connector-curvature="0" id="path17" style="fill:#100f0d;stroke-width:1.32200003" d="M 23.852,-0.2274 C 20.014234,-0.22079 16.900924,2.89252 16.892992,6.731608 V 95.451028 H 1.676772 C 0.715678,95.451028 -0.06298,96.228496 -0.06298,97.188136 -0.06298,98.14923 0.7162068,98.927888 1.676772,98.927888 H 98.222432 C 99.183658,98.927888 99.962184,98.148701 99.962184,97.188136 99.962184,96.227967 99.182865,95.451028 98.222432,95.451028 H 83.006212 V 6.731608 C 82.992992,2.893842 79.888936,-0.219468 76.049848,-0.2274 Z M 23.852,3.250782 H 76.03134 C 76.987146,3.250782 77.847768,3.640111 78.486294,4.2758608 79.122969,4.9142546 79.507803,5.7763308 79.508729,6.7308148 V 95.450235 H 76.030547 V 15.429575 C 76.030547,14.972163 75.843616,14.524137 75.519197,14.200511 75.195704,13.876886 74.748603,13.691806 74.290266,13.691806 H 25.587786 C 25.129449,13.691806 24.682348,13.876886 24.358723,14.200511 24.034304,14.524005 23.847373,14.972031 23.847373,15.429575 V 95.450235 H 20.369191 V 6.7308148 C 20.369191,5.775802 20.755083,4.9130648 21.391626,4.2758608 22.03002,3.640111 22.890774,3.2515752 23.84658,3.250782 Z M 35.595326,6.731608 C 34.634232,6.731608 33.855574,7.5090762 33.855574,8.468716 33.855574,9.42981 34.634761,10.208468 35.595326,10.208468 H 39.073508 C 40.03447,10.208468 40.81326,9.4292812 40.81326,8.468716 40.81326,7.5085474 40.033941,6.731608 39.073508,6.731608 Z M 47.769624,6.731608 C 46.80853,6.731608 46.032516,7.5090762 46.032516,8.468716 46.032516,9.42981 46.809059,10.208468 47.769624,10.208468 H 51.25045 C 52.211544,10.208468 52.987558,9.4292812 52.987558,8.468716 52.987558,7.5085474 52.211015,6.731608 51.25045,6.731608 Z M 59.946566,6.731608 C 58.985472,6.731608 58.206814,7.5090762 58.206814,8.468716 58.206814,9.42981 58.986001,10.208468 59.946566,10.208468 H 63.424748 C 64.385842,10.208468 65.1645,9.4292812 65.1645,8.468716 65.1645,7.5085474 64.385313,6.731608 63.424748,6.731608 Z M 27.332826,17.168798 H 72.558446 V 95.444418 H 59.074046 C 59.354574,94.774693 59.513743,94.041776 59.515594,93.269728 V 74.365128 C 59.932949,74.483976 60.363921,74.566336 60.819483,74.566469 60.934497,74.566469 61.04885,74.555893 61.160294,74.53289 63.640366,74.35442 65.603536,72.310608 65.603536,69.784266 V 52.823006 C 65.604197,52.128956 65.440401,51.45077 65.159476,50.84265 64.663726,49.772887 63.845937,48.920462 62.864484,48.21187 61.383844,47.151626 59.485452,46.378256 57.28961,45.833592 55.093768,45.292629 52.599154,44.997823 49.9459,44.99703 45.903224,45.00364 42.233352,45.673762 39.41617,46.88749 38.00824,47.499841 36.801254,48.246506 35.870566,49.208922 35.407866,49.691584 35.012721,50.233737 34.731928,50.842914 34.450871,51.450902 34.289587,52.12922 34.29038,52.82327 V 69.78453 C 34.29038,72.427208 36.43202,74.566204 39.074698,74.566204 39.530259,74.566098 39.961363,74.483711 40.378586,74.364864 V 93.269464 C 40.378586,94.040983 40.536962,94.7739 40.817623,95.444154 H 27.333223 Z M 49.939026,24.127806 C 44.654992,24.127806 40.373034,28.409764 40.373034,33.693798 40.373034,38.977832 44.654992,43.25979 49.939026,43.25979 55.22306,43.25979 59.507662,38.977832 59.507662,33.693798 59.507662,28.409764 55.22306,24.129128 49.939026,24.127806 Z M 49.939026,27.605988 C 51.625898,27.605988 53.138266,28.286421 54.246102,29.390688 55.350765,30.498788 56.026836,32.008248 56.028158,33.69512 56.028158,35.381992 55.351294,36.891716 54.246102,37.999552 53.138927,39.104215 51.625898,39.78293 49.939026,39.784252 48.252154,39.784252 46.74243,39.104744 45.634594,37.999552 44.530063,36.892377 43.85386,35.381992 43.852538,33.69512 43.852538,32.008248 44.529534,30.498524 45.634594,29.390688 46.741901,28.28695 48.252154,27.60731 49.939026,27.605988 Z M 4.025966,34.572928 C 3.3521426,34.50035 2.669594,34.828471 2.319264,35.458536 1.8522014,36.297741 2.1556004,37.359572 2.9957314,37.826238 L 10.821971,42.174296 C 11.661309,42.640433 12.720363,42.337959 13.187029,41.497828 13.654092,40.658491 13.350693,39.599436 12.510562,39.13277 L 4.684322,34.784712 C 4.4745206,34.66798 4.2504416,34.597121 4.0258338,34.572928 Z M 95.852086,34.572928 C 95.627478,34.597121 95.403531,34.667848 95.193598,34.784712 L 87.364714,39.13277 C 86.524451,39.598908 86.223696,40.658358 86.690758,41.497828 87.156895,42.337959 88.216346,42.638847 89.055816,42.171784 L 96.882056,37.82637 C 97.722187,37.359307 98.025586,36.298138 97.558524,35.458668 97.208855,34.828603 96.525645,34.500482 95.851822,34.57306 Z M 1.672806,47.60917 C 0.711712,47.60917 -0.066946,48.389282 -0.066946,49.348922 -0.066946,50.310016 0.7122408,51.088674 1.672806,51.088674 H 11.238798 C 12.199892,51.088674 12.97855,50.309487 12.97855,49.348922 12.97855,48.388753 12.199363,47.60917 11.238798,47.60917 Z M 87.774666,47.60917 C 86.813704,47.60917 86.034914,48.389282 86.034914,49.348922 86.034914,50.310016 86.814233,51.088674 87.774666,51.088674 H 97.340658 C 98.301752,51.088674 99.08041,50.309487 99.08041,49.348922 99.08041,48.388753 98.301091,47.60917 97.340658,47.60917 Z M 49.939026,48.47931 C 53.581136,48.4727 56.871594,49.119026 59.08991,50.08554 60.199729,50.562121 61.029284,51.120799 61.506526,51.624348 61.74832,51.874867 61.902333,52.104234 61.991964,52.300816 62.08186,52.49819 62.11491,52.657888 62.116232,52.827501 V 69.788761 C 62.116232,70.508854 61.532569,71.091724 60.812344,71.092649 60.09225,71.092001 59.509248,70.508854 59.508455,69.788761 V 57.178203 C 59.508455,56.218034 58.729268,55.438451 57.768703,55.438451 56.808138,55.438451 56.028951,56.218563 56.028951,57.178203 V 69.788761 C 56.028951,69.864115 56.048781,69.933784 56.052747,70.008213 56.039527,70.079601 56.028951,70.148741 56.028951,70.222509 V 93.278189 C 56.028951,93.874807 55.787818,94.410085 55.388707,94.811709 54.986819,95.211746 54.451673,95.452086 53.855187,95.452086 53.2587,95.452086 52.723422,95.210953 52.321667,94.811709 51.922423,94.409953 51.68129,93.874543 51.68129,93.278189 V 78.061969 C 51.68129,77.1018 50.902103,76.322217 49.941538,76.322217 48.980576,76.322217 48.20443,77.102329 48.20443,78.061969 V 93.278189 C 48.20443,93.874807 47.963297,94.410085 47.564185,94.811709 47.162297,95.211746 46.627019,95.452086 46.030665,95.452086 45.434311,95.452086 44.896125,95.211746 44.494501,94.811709 44.095257,94.409953 43.856768,93.874543 43.856768,93.278189 V 70.222509 C 43.856768,70.148741 43.842226,70.079601 43.832972,70.008213 43.832972,69.933784 43.855446,69.864115 43.856768,69.788761 V 57.178203 C 43.856768,56.218034 43.077582,55.438451 42.117016,55.438451 41.156451,55.438451 40.377264,56.218563 40.377264,57.178203 V 69.788761 C 40.377264,70.508854 39.793469,71.091724 39.073376,71.092649 38.35315,71.092001 37.770413,70.508854 37.769487,69.788761 V 52.827501 C 37.769487,52.657888 37.801215,52.49819 37.891111,52.300816 38.044199,51.959872 38.416342,51.501667 39.060817,51.040818 40.020985,50.345049 41.551465,49.675192 43.435315,49.215136 45.320487,48.749792 47.553345,48.47931 49.944843,48.47931 Z M 11.482046,56.31877 C 11.257438,56.342963 11.033491,56.411178 10.823558,56.527911 L 2.9973178,60.875969 C 2.1571868,61.342106 1.8537878,62.401557 2.3208504,63.241027 2.7871198,64.081158 3.8464384,64.383764 4.6859084,63.917494 L 12.512148,59.569436 C 13.352279,59.102374 13.655678,58.041204 13.188616,57.201734 12.839079,56.571669 12.155737,56.246193 11.481914,56.318638 Z M 88.396006,56.31877 C 87.722183,56.246193 87.039634,56.571669 86.689304,57.201866 86.222241,58.041204 86.522996,59.100258 87.36326,59.566924 L 95.192144,63.917626 C 96.031481,64.383764 97.090536,64.08129 97.557202,63.241159 98.024264,62.401821 97.720865,61.342767 96.880734,60.876101 L 89.054494,56.528043 C 88.844561,56.41131 88.620614,56.343095 88.396006,56.318903 Z" />
</svg>
