<?xml version="1.0" encoding="UTF-8" standalone="no"?>
<svg xmlns:dc="http://purl.org/dc/elements/1.1/" xmlns:cc="http://creativecommons.org/ns#" xmlns:rdf="http://www.w3.org/1999/02/22-rdf-syntax-ns#" xmlns:svg="http://www.w3.org/2000/svg" xmlns="http://www.w3.org/2000/svg" xmlns:sodipodi="http://sodipodi.sourceforge.net/DTD/sodipodi-0.dtd" xmlns:inkscape="http://www.inkscape.org/namespaces/inkscape" version="1.1" viewBox="0 0 75 74.344813" id="svg21" sodipodi:docname="i36a.svg" inkscape:version="0.92.2 (5c3e80d, 2017-08-06)" width="75" height="74.34481">
  <metadata id="metadata25">
    <rdf:RDF>
      <cc:Work rdf:about="">
        <dc:format>image/svg+xml</dc:format>
        <dc:type rdf:resource="http://purl.org/dc/dcmitype/StillImage" />
        <dc:title></dc:title>
      </cc:Work>
    </rdf:RDF>
  </metadata>
  <sodipodi:namedview pagecolor="#ffffff" bordercolor="#666666" borderopacity="1" objecttolerance="10" gridtolerance="10" guidetolerance="10" inkscape:pageopacity="0" inkscape:pageshadow="2" inkscape:window-width="2560" inkscape:window-height="1001" id="namedview23" showgrid="false" inkscape:zoom="3.3668356" inkscape:cx="-107.62863" inkscape:cy="24.126875" inkscape:window-x="-9" inkscape:window-y="41" inkscape:window-maximized="1" inkscape:current-layer="svg21" fit-margin-top="0" fit-margin-left="0" fit-margin-right="0" fit-margin-bottom="0" />
  <defs id="defs13">
    <linearGradient id="linearGradient6842" x1="-2290.9192" x2="-2292.4116" y1="722.8089" y2="784.22247" gradientTransform="matrix(1.2895659,0,0,1.2895659,2990.5765,-935.30695)" gradientUnits="userSpaceOnUse">
      <stop style="stop-color:#696969" offset="0" id="stop2" />
      <stop style="stop-color:#c7c7c9" offset=".17" id="stop4" />
      <stop style="stop-color:#f9f9ff" offset=".36" id="stop6" />
      <stop style="stop-color:#ccccce" offset=".73" id="stop8" />
      <stop style="stop-color:#696969" offset="1" id="stop10" />
    </linearGradient>
  </defs>
  <path inkscape:connector-curvature="0" id="path15" style="fill:url(#linearGradient6842);stroke-width:0.9912113" d="M 60.55607,73.05227 H 55.339325 V 11.755765 H 18.823102 V 73.05227 H 13.606357 V 5.233595 C 13.606357,3.081675 15.366748,1.321284 17.518668,1.321284 H 56.641776 C 58.793696,1.321284 60.554087,3.081675 60.554087,5.233595 V 73.05227" />
  <path inkscape:connector-curvature="0" id="path17" style="fill:#100f0d;stroke-width:0.9912113" d="M 17.933985,0 C 15.056499,0.004956 12.722197,2.339258 12.716249,5.217736 V 71.737923 H 1.3074077 C 0.58679707,71.737923 0.00297363,72.320855 0.00297363,73.040375 0.00297363,73.760986 0.58719355,74.344809 1.3074077,74.344809 H 73.695566 C 74.416276,74.344809 75,73.760589 75,73.040375 75,72.320458 74.415681,71.737923 73.695566,71.737923 H 62.286724 V 5.217736 C 62.276812,2.340249 59.949448,0.005947 57.070971,0 Z M 17.933985,2.607876 H 57.057094 C 57.77374,2.607876 58.419018,2.899788 58.897773,3.376462 59.37514,3.855118 59.663682,4.501486 59.664376,5.217141 V 71.737329 H 57.056499 V 11.739311 C 57.056499,11.396352 56.916342,11.06043 56.673098,10.817782 56.430549,10.575134 56.095321,10.436364 55.751669,10.436364 H 19.235446 C 18.891793,10.436364 18.556565,10.575134 18.313917,10.817782 18.070674,11.060332 17.930516,11.396253 17.930516,11.739311 V 71.737329 H 15.322639 V 5.217141 C 15.322639,4.50109 15.611974,3.854226 16.089242,3.376462 16.567898,2.899788 17.213276,2.608471 17.929922,2.607876 Z M 26.738915,5.217736 C 26.018304,5.217736 25.434481,5.800667 25.434481,6.520187 25.434481,7.240798 26.018701,7.824621 26.738915,7.824621 H 29.346792 C 30.067303,7.824621 30.651226,7.240401 30.651226,6.520187 30.651226,5.800271 30.066907,5.217736 29.346792,5.217736 Z M 35.866979,5.217736 C 35.146369,5.217736 34.564528,5.800667 34.564528,6.520187 34.564528,7.240798 35.146765,7.824621 35.866979,7.824621 H 38.476839 C 39.197449,7.824621 39.77929,7.240401 39.77929,6.520187 39.77929,5.800271 39.197053,5.217736 38.476839,5.217736 Z M 44.997026,5.217736 C 44.276416,5.217736 43.692592,5.800667 43.692592,6.520187 43.692592,7.240798 44.276812,7.824621 44.997026,7.824621 H 47.604903 C 48.325514,7.824621 48.909337,7.240401 48.909337,6.520187 48.909337,5.800271 48.325117,5.217736 47.604903,5.217736 Z M 20.543845,13.043349 H 54.453182 V 71.732967 H 44.342827 C 44.553162,71.23082 44.672504,70.681292 44.673891,70.102425 V 55.928104 C 44.986817,56.017214 45.309951,56.078966 45.651523,56.079066 45.737759,56.079066 45.823499,56.071136 45.907057,56.053889 47.76657,55.920075 49.238518,54.387663 49.238518,52.493458 V 39.776217 C 49.239014,39.255831 49.116203,38.74734 48.90557,38.291383 48.533866,37.489294 47.920703,36.850162 47.184828,36.318872 46.074671,35.523921 44.651292,34.944062 43.00489,34.535683 41.358488,34.130079 39.488072,33.909039 37.498711,33.908445 34.467587,33.913401 31.715985,34.415846 29.603713,35.325877 28.548073,35.785006 27.643098,36.344842 26.945285,37.066444 26.598361,37.428335 26.302088,37.834831 26.091555,38.291581 25.880824,38.747439 25.759896,39.256029 25.76049,39.776415 V 52.493656 C 25.76049,54.475087 27.366253,56.078867 29.347684,56.078867 29.689255,56.078787 30.012489,56.017015 30.325315,55.927906 V 70.102227 C 30.325315,70.680698 30.444063,71.230225 30.654497,71.732769 H 20.544142 Z M 37.493557,18.261085 C 33.531686,18.261085 30.321152,21.471618 30.321152,25.433489 30.321152,29.395361 33.531686,32.605894 37.493557,32.605894 41.455429,32.605894 44.667944,29.395361 44.667944,25.433489 44.667944,21.471618 41.455429,18.262076 37.493557,18.261085 Z M 37.493557,20.868962 C 38.758343,20.868962 39.892288,21.379138 40.722923,22.207097 41.551179,23.03793 42.058085,24.169695 42.059076,25.434481 42.059076,26.699266 41.551576,27.831229 40.722923,28.661864 39.892784,29.49012 38.758343,29.999008 37.493557,30 36.228772,30 35.096808,29.490517 34.266173,28.661864 33.438016,27.831725 32.931012,26.699266 32.93002,25.434481 32.93002,24.169695 33.43762,23.037732 34.266173,22.207097 35.096412,21.379534 36.228772,20.869953 37.493557,20.868962 Z M 3.0687901,26.092645 C 2.5635697,26.038227 2.0518073,26.284246 1.7891363,26.756657 1.4389414,27.385878 1.6664244,28.182019 2.2963391,28.531917 L 8.1643095,31.792011 C 8.7936297,32.141512 9.5876889,31.914722 9.9375864,31.284807 10.287782,30.655488 10.060299,29.861428 9.4303839,29.51153 L 3.5624133,26.251437 C 3.405108,26.163913 3.2370977,26.110784 3.0686909,26.092645 Z M 71.918324,26.092645 C 71.749917,26.110784 71.582006,26.163814 71.424602,26.251437 L 65.554649,29.51153 C 64.924635,29.861032 64.699135,30.655388 65.049329,31.284807 65.39883,31.914722 66.193187,32.140322 66.822606,31.790127 L 72.690577,28.532016 C 73.320491,28.181821 73.547974,27.386176 73.19778,26.756756 72.935605,26.284345 72.423346,26.038326 71.918126,26.092744 Z M 1.304434,35.866979 C 0.58382343,35.866979 0,36.451893 0,37.171413 0,37.892024 0.58421992,38.475847 1.304434,38.475847 H 8.4768387 C 9.1974493,38.475847 9.7812727,37.891627 9.7812727,37.171413 9.7812727,36.451496 9.1970526,35.866979 8.4768387,35.866979 Z M 65.862023,35.866979 C 65.141512,35.866979 64.557589,36.451893 64.557589,37.171413 64.557589,37.892024 65.141908,38.475847 65.862023,38.475847 H 73.034428 C 73.755039,38.475847 74.338862,37.891627 74.338862,37.171413 74.338862,36.451496 73.754543,35.866979 73.034428,35.866979 Z M 37.493557,36.519394 C 40.224344,36.514438 42.691469,36.999041 44.354721,37.723716 45.186843,38.081047 45.808828,38.499934 46.166656,38.877486 46.347948,39.06532 46.463424,39.237295 46.530628,39.384689 46.59803,39.532676 46.622811,39.652415 46.623802,39.779588 V 52.496828 C 46.623802,53.036741 46.186182,53.473766 45.646171,53.474459 45.106258,53.473973 44.669133,53.036741 44.668539,52.496828 V 43.041664 C 44.668539,42.321747 44.084319,41.73723 43.364105,41.73723 42.643891,41.73723 42.059671,42.322143 42.059671,43.041664 V 52.496828 C 42.059671,52.553327 42.074539,52.605564 42.077513,52.661369 42.0676,52.714895 42.059671,52.766734 42.059671,52.822044 V 70.108769 C 42.059671,70.556102 41.878874,70.957443 41.579628,71.258574 41.278299,71.558514 40.877057,71.738717 40.429823,71.738717 39.982588,71.738717 39.581246,71.55792 39.280017,71.258574 38.980672,70.957345 38.799875,70.555904 38.799875,70.108769 V 58.699927 C 38.799875,57.98001 38.215655,57.395493 37.495441,57.395493 36.774929,57.395493 36.192989,57.980407 36.192989,58.699927 V 70.108769 C 36.192989,70.556102 36.012192,70.957443 35.712945,71.258574 35.411617,71.558514 35.010275,71.738717 34.56314,71.738717 34.116005,71.738717 33.712483,71.558514 33.411353,71.258574 33.112007,70.957345 32.933192,70.555904 32.933192,70.108769 V 52.822044 C 32.933192,52.766734 32.922289,52.714895 32.91535,52.661369 32.91535,52.605564 32.932201,52.553327 32.933192,52.496828 V 43.041664 C 32.933192,42.321747 32.348973,41.73723 31.628758,41.73723 30.908544,41.73723 30.324324,42.322143 30.324324,43.041664 V 52.496828 C 30.324324,53.036741 29.886605,53.473766 29.346693,53.474459 28.806681,53.473973 28.369755,53.036741 28.369061,52.496828 V 39.779588 C 28.369061,39.652415 28.39285,39.532676 28.460252,39.384689 28.575035,39.129055 28.854061,38.785502 29.337276,38.439966 30.057193,37.918291 31.204718,37.416044 32.617194,37.071103 34.030662,36.722196 35.704817,36.519394 37.497919,36.519394 Z M 8.6592216,42.397277 C 8.4908146,42.415416 8.3229033,42.466563 8.1654994,42.554087 L 2.2975286,45.814181 C 1.6676138,46.163682 1.4401308,46.958039 1.7903258,47.587458 2.139926,48.217372 2.9341836,48.444261 3.5636027,48.09466 L 9.4315731,44.834566 C 10.061488,44.484372 10.288971,43.688726 9.9387763,43.059307 9.6766999,42.586896 9.1643427,42.34286 8.6591226,42.397178 Z M 66.327893,42.397277 C 65.822673,42.34286 65.31091,42.586896 65.048239,43.059406 64.698044,43.688726 64.923544,44.482785 65.553559,44.832683 L 71.423512,48.094759 C 72.052831,48.444261 72.846891,48.217471 73.196789,47.587557 73.546983,46.958236 73.3195,46.164177 72.689586,45.81428 L 66.821615,42.554186 C 66.664211,42.466662 66.4963,42.415515 66.327893,42.397377 Z" />
</svg>
