<svg version="1.1" viewBox="0 0 100 89.16" xmlns="http://www.w3.org/2000/svg">
 <defs>
  <linearGradient id="SVGID_11_-5" x1="187.4" x2="187.4" y1="696" y2="595.1" gradientUnits="userSpaceOnUse">
   <stop style="stop-color:#AB933D" offset="0"/>
   <stop style="stop-color:#D2B34B" offset="1"/>
  </linearGradient>
  <linearGradient id="SVGID_12_-9" x1="59.96" x2="59.96" y1="654.3" y2="624.6" gradientUnits="userSpaceOnUse">
   <stop style="stop-color:#7B6541" offset="0"/>
   <stop style="stop-color:#BA9765" offset="1"/>
  </linearGradient>
  <linearGradient id="SVGID_13_-0" x1="59.96" x2="59.96" y1="809.3" y2="660.3" gradientUnits="userSpaceOnUse">
   <stop style="stop-color:#C4161C" offset="0"/>
   <stop style="stop-color:#ED1C24" offset="1"/>
  </linearGradient>
  <linearGradient id="SVGID_14_-0" x1="335.8" x2="335.8" y1="654.3" y2="624.6" gradientUnits="userSpaceOnUse">
   <stop style="stop-color:#7B6541" offset="0"/>
   <stop style="stop-color:#BA9765" offset="1"/>
  </linearGradient>
  <linearGradient id="SVGID_15_-0" x1="335.8" x2="335.8" y1="809.3" y2="660.3" gradientUnits="userSpaceOnUse">
   <stop style="stop-color:#C4161C" offset="0"/>
   <stop style="stop-color:#ED1C24" offset="1"/>
  </linearGradient>
  <linearGradient id="SVGID_16_-1" x1="197.9" x2="197.9" y1="739.9" y2="685.2" gradientUnits="userSpaceOnUse">
   <stop style="stop-color:#000000" offset="0"/>
   <stop style="stop-color:#A7A9AC" offset="1"/>
  </linearGradient>
 </defs>
 <g id="vip" transform="matrix(.2931 0 0 .2931 -7.999 -174.4)">
  <path d="m354.3 878.7c0 11.39-70.04 20.62-156.4 20.62s-156.4-9.237-156.4-20.62c0-11.39 70.04-20.62 156.4-20.62s156.4 9.235 156.4 20.62z" style="fill:#ffffff"/>
  <path d="m197.9 858.5c84.56 0 153.1 9.039 153.1 20.19 0 11.15-68.55 20.19-153.1 20.19-84.56 0-153.1-9.041-153.1-20.19 0-11.15 68.55-20.19 153.1-20.19z" style="fill:#fdfdfd"/>
  <path d="m197.9 858.9c82.73 0 149.8 8.842 149.8 19.75 0 10.9-67.06 19.75-149.8 19.75s-149.8-8.845-149.8-19.75c0-10.91 67.06-19.75 149.8-19.75z" style="fill:#fcfcfc"/>
  <ellipse cx="197.9" cy="878.7" rx="146.5" ry="19.31" style="fill:#fafbfb"/>
  <path d="m197.9 859.8c79.05 0 143.1 8.449 143.1 18.87 0 10.42-64.08 18.87-143.1 18.87s-143.1-8.452-143.1-18.87c0-10.42 64.09-18.87 143.1-18.87z" style="fill:#f9f9fa"/>
  <ellipse cx="197.9" cy="878.7" rx="139.8" ry="18.43" style="fill:#f8f8f9"/>
  <ellipse cx="197.9" cy="878.7" rx="136.5" ry="18" style="fill:#f7f7f8"/>
  <path d="m197.9 861.1c73.54 0 133.2 7.86 133.2 17.56 0 9.693-59.62 17.56-133.2 17.56s-133.2-7.864-133.2-17.56c0-9.695 59.62-17.56 133.2-17.56z" style="fill:#f6f7f7"/>
  <ellipse cx="197.9" cy="878.7" rx="129.8" ry="17.12" style="fill:#f5f6f6"/>
  <ellipse cx="197.9" cy="878.7" rx="126.5" ry="16.68" style="fill:#f4f5f5"/>
  <ellipse cx="197.9" cy="878.7" rx="123.2" ry="16.24" style="fill:#f4f4f4"/>
  <ellipse cx="197.9" cy="878.7" rx="119.9" ry="15.8" style="fill:#f3f3f4"/>
  <ellipse cx="197.9" cy="878.7" rx="116.5" ry="15.36" style="fill:#f2f2f3"/>
  <ellipse cx="197.9" cy="878.7" rx="113.2" ry="14.93" style="fill:#f1f2f2"/>
  <ellipse cx="197.9" cy="878.7" rx="109.9" ry="14.49" style="fill:#f0f1f1"/>
  <ellipse cx="197.9" cy="878.7" rx="106.6" ry="14.05" style="fill:#eff0f1"/>
  <ellipse cx="197.9" cy="878.7" rx="103.2" ry="13.61" style="fill:#efeff0"/>
  <ellipse cx="197.9" cy="878.7" rx="99.92" ry="13.17" style="fill:#eeeeef"/>
  <ellipse cx="197.9" cy="878.7" rx="96.59" ry="12.74" style="fill:#edeeee"/>
  <ellipse cx="197.9" cy="878.7" rx="93.27" ry="12.3" style="fill:#ecedee"/>
  <ellipse cx="197.9" cy="878.7" rx="89.94" ry="11.86" style="fill:#ebeced"/>
  <ellipse cx="197.9" cy="878.7" rx="86.62" ry="11.42" style="fill:#ebebec"/>
  <ellipse cx="197.9" cy="878.7" rx="83.29" ry="10.98" style="fill:#eaeaeb"/>
  <ellipse cx="197.9" cy="878.7" rx="79.97" ry="10.54" style="fill:#e9eaeb"/>
  <ellipse cx="197.9" cy="878.7" rx="76.65" ry="10.1" style="fill:#e8e9ea"/>
  <ellipse cx="197.9" cy="878.7" rx="73.32" ry="9.666" style="fill:#e7e8e9"/>
  <ellipse cx="197.9" cy="878.7" rx="70" ry="9.228" style="fill:#e6e7e8"/>
  <ellipse cx="197.9" cy="878.7" rx="66.67" ry="8.789" style="fill:#e5e6e7"/>
  <ellipse cx="197.9" cy="878.7" rx="63.35" ry="8.351" style="fill:#e5e6e7"/>
  <ellipse cx="197.9" cy="878.7" rx="60.02" ry="7.912" style="fill:#e4e5e6"/>
  <ellipse cx="197.9" cy="878.7" rx="56.7" ry="7.474" style="fill:#e3e4e5"/>
  <ellipse cx="197.9" cy="878.7" rx="53.37" ry="7.036" style="fill:#e2e3e4"/>
  <ellipse cx="197.9" cy="878.7" rx="50.05" ry="6.597" style="fill:#e1e2e4"/>
  <ellipse cx="197.9" cy="878.7" rx="46.72" ry="6.159" style="fill:#e1e2e3"/>
  <ellipse cx="197.9" cy="878.7" rx="43.4" ry="5.72" style="fill:#e0e1e2"/>
  <ellipse cx="197.9" cy="878.7" rx="40.08" ry="5.282" style="fill:#dfe0e1"/>
  <ellipse cx="197.9" cy="878.7" rx="36.75" ry="4.844" style="fill:#dedfe0"/>
  <ellipse cx="197.9" cy="878.7" rx="33.43" ry="4.406" style="fill:#dddee0"/>
  <ellipse cx="197.9" cy="878.7" rx="30.1" ry="3.967" style="fill:#dddedf"/>
  <ellipse cx="197.9" cy="878.7" rx="26.78" ry="3.532" style="fill:#dcddde"/>
  <path d="m136.9 602.2 5.598 3.977c-7.513 22.83-17.09 50.38-21.95 63.49h-0.294c-17.82-46.84-21.95-58.48-24.16-63.49l5.598-3.683 1.474-6.188h-40.36l-2.063 5.746c8.25 2.946 11.93 4.861 14.29 9.428 13.55 33.59 29.46 75.42 33.15 84.56h2.062c4.125-2.505 9.428-7.809 12.23-11.79 13.26-34.32 26.22-67.32 30.35-74.98 1.915-2.356 4.567-4.125 11.93-7.07l1.031-5.894h-27.25zm132.1 46.4 1.915 6.482c1.915 0.441 3.83 0.736 6.334 0.736 13.11 0 36.83-6.188 36.83-30.64 0-9.428-3.388-17.68-12.08-23.13-7.955-5.156-18.86-6.924-34.18-6.924-10.75 0-21.8 1.031-37.42 2.21l-2.062 5.745 12.96 3.535v34.47c0 27.1 0 38.74-0.589 41.25l-9.575 5.156-1.474 5.745c7.513 0 15.17-0.147 22.83-0.147 9.575 0 19.3 0.147 28.73 0.147l1.473-5.893-18.56-5.598c0-2.356-0.884-7.071-0.884-41.1v-37.12c14.73 0.295 27.55 5.009 27.55 22.1 0 13.7-7.512 22.39-21.8 22.98zm-63.64-5.891v-36.09l9.722-4.566 1.62-5.746c-7.218 0-14.73 0.148-22.1 0.148-6.777 0-13.55-0.148-20.33-0.148l-1.915 5.746 11.05 4.566v36.09c0 24.45-0.294 38.45-0.884 39.92l-10.61 4.861-1.62 5.745c7.955 0 15.91-0.147 23.72-0.147 7.808 0 15.62 0.147 23.42 0.147l1.62-5.745-12.96-4.861c-0.294-1.473-0.736-15.47-0.736-39.92z" style="fill:url(#SVGID_11_-5)"/>
  <circle cx="59.96" cy="639.4" r="14.84" style="fill:url(#SVGID_12_-9)"/>
  <polygon points="80.74 802.8 80.74 797.4 66.84 797.4 66.84 660.3 53.08 660.3 53.08 797.4 39.17 797.4 39.17 802.8 27.29 802.8 27.29 809.3 92.62 809.3 92.62 802.8" style="fill:url(#SVGID_13_-0)"/>
  <circle cx="335.8" cy="639.4" r="14.84" style="fill:url(#SVGID_14_-0)"/>
  <polygon points="342.7 797.4 342.7 660.3 329 660.3 329 797.4 315.1 797.4 315.1 802.8 303.2 802.8 303.2 809.3 368.5 809.3 368.5 802.8 356.6 802.8 356.6 797.4" style="fill:url(#SVGID_15_-0)"/>
  <path d="m197.9 739.9c-47.49 0-93.02-17.13-118.8-44.69-2.243-2.395-2.119-6.155 0.277-8.396 2.394-2.242 6.154-2.119 8.396 0.276 23.28 24.87 66.52 40.93 110.2 40.93 43.64-1e-3 86.88-16.07 110.2-40.93 2.242-2.394 6.001-2.519 8.396-0.276 2.396 2.241 2.52 6.002 0.277 8.396-25.81 27.57-71.34 44.69-118.8 44.69z" style="fill:url(#SVGID_16_-1)"/>
 </g>
</svg>
