<svg version="1.1" viewBox="0 0 75 66.86" xmlns="http://www.w3.org/2000/svg">
 <defs>
  <linearGradient id="SVGID_11_-5" x1="187.4" x2="187.4" y1="696" y2="595.1" gradientTransform="matrix(.2198 0 0 .2198 -5.999 -130.8)" gradientUnits="userSpaceOnUse">
   <stop style="stop-color:#AB933D" offset="0"/>
   <stop style="stop-color:#D2B34B" offset="1"/>
  </linearGradient>
  <linearGradient id="SVGID_12_-9" x1="59.96" x2="59.96" y1="654.3" y2="624.6" gradientTransform="matrix(.2198 0 0 .2198 -5.999 -130.8)" gradientUnits="userSpaceOnUse">
   <stop style="stop-color:#7B6541" offset="0"/>
   <stop style="stop-color:#BA9765" offset="1"/>
  </linearGradient>
  <linearGradient id="SVGID_13_-0" x1="59.96" x2="59.96" y1="809.3" y2="660.3" gradientUnits="userSpaceOnUse">
   <stop style="stop-color:#C4161C" offset="0"/>
   <stop style="stop-color:#ED1C24" offset="1"/>
  </linearGradient>
  <linearGradient id="SVGID_14_-0" x1="335.8" x2="335.8" y1="654.3" y2="624.6" gradientTransform="matrix(.2198 0 0 .2198 -5.999 -130.8)" gradientUnits="userSpaceOnUse">
   <stop style="stop-color:#7B6541" offset="0"/>
   <stop style="stop-color:#BA9765" offset="1"/>
  </linearGradient>
  <linearGradient id="SVGID_15_-0" x1="335.8" x2="335.8" y1="809.3" y2="660.3" gradientUnits="userSpaceOnUse">
   <stop style="stop-color:#C4161C" offset="0"/>
   <stop style="stop-color:#ED1C24" offset="1"/>
  </linearGradient>
  <linearGradient id="SVGID_16_-1" x1="197.9" x2="197.9" y1="739.9" y2="685.2" gradientTransform="matrix(.2198 0 0 .2198 -5.999 -130.8)" gradientUnits="userSpaceOnUse">
   <stop style="stop-color:#000000" offset="0"/>
   <stop style="stop-color:#A7A9AC" offset="1"/>
  </linearGradient>
 </defs>
 <path d="m71.88 62.33c0 2.504-15.4 4.532-34.38 4.532s-34.38-2.03-34.38-4.532c0-2.504 15.4-4.532 34.38-4.532s34.38 2.03 34.38 4.532z" style="fill:#ffffff;stroke-width:.2198"/>
 <path d="m37.5 57.89c18.59 0 33.65 1.987 33.65 4.438 0 2.451-15.07 4.438-33.65 4.438-18.59 0-33.65-1.987-33.65-4.438 0-2.451 15.07-4.438 33.65-4.438z" style="fill:#fdfdfd;stroke-width:.2198"/>
 <path d="m37.5 57.98c18.18 0 32.93 1.944 32.93 4.341 0 2.396-14.74 4.341-32.93 4.341s-32.93-1.944-32.93-4.341c0-2.398 14.74-4.341 32.93-4.341z" style="fill:#fcfcfc;stroke-width:.2198"/>
 <ellipse cx="37.5" cy="62.33" rx="32.2" ry="4.244" style="fill:#fafbfb;stroke-width:.2198"/>
 <path d="m37.5 58.18c17.38 0 31.45 1.857 31.45 4.148 0 2.29-14.09 4.148-31.45 4.148s-31.45-1.858-31.45-4.148c0-2.29 14.09-4.148 31.45-4.148z" style="fill:#f9f9fa;stroke-width:.2198"/>
 <ellipse cx="37.5" cy="62.33" rx="30.73" ry="4.051" style="fill:#f8f8f9;stroke-width:.2198"/>
 <ellipse cx="37.5" cy="62.33" rx="30" ry="3.957" style="fill:#f7f7f8;stroke-width:.2198"/>
 <path d="m37.5 58.46c16.16 0 29.28 1.728 29.28 3.86 0 2.131-13.1 3.86-29.28 3.86s-29.28-1.729-29.28-3.86c0-2.131 13.1-3.86 29.28-3.86z" style="fill:#f6f7f7;stroke-width:.2198"/>
 <ellipse cx="37.5" cy="62.33" rx="28.53" ry="3.763" style="fill:#f5f6f6;stroke-width:.2198"/>
 <ellipse cx="37.5" cy="62.33" rx="27.81" ry="3.666" style="fill:#f4f5f5;stroke-width:.2198"/>
 <ellipse cx="37.5" cy="62.33" rx="27.08" ry="3.57" style="fill:#f4f4f4;stroke-width:.2198"/>
 <ellipse cx="37.5" cy="62.33" rx="26.35" ry="3.473" style="fill:#f3f3f4;stroke-width:.2198"/>
 <ellipse cx="37.5" cy="62.33" rx="25.61" ry="3.376" style="fill:#f2f2f3;stroke-width:.2198"/>
 <ellipse cx="37.5" cy="62.33" rx="24.88" ry="3.282" style="fill:#f1f2f2;stroke-width:.2198"/>
 <ellipse cx="37.5" cy="62.33" rx="24.16" ry="3.185" style="fill:#f0f1f1;stroke-width:.2198"/>
 <ellipse cx="37.5" cy="62.33" rx="23.43" ry="3.088" style="fill:#eff0f1;stroke-width:.2198"/>
 <ellipse cx="37.5" cy="62.33" rx="22.68" ry="2.992" style="fill:#efeff0;stroke-width:.2198"/>
 <ellipse cx="37.5" cy="62.33" rx="21.96" ry="2.895" style="fill:#eeeeef;stroke-width:.2198"/>
 <ellipse cx="37.5" cy="62.33" rx="21.23" ry="2.8" style="fill:#edeeee;stroke-width:.2198"/>
 <ellipse cx="37.5" cy="62.33" rx="20.5" ry="2.704" style="fill:#ecedee;stroke-width:.2198"/>
 <ellipse cx="37.5" cy="62.33" rx="19.77" ry="2.607" style="fill:#ebeced;stroke-width:.2198"/>
 <ellipse cx="37.5" cy="62.33" rx="19.04" ry="2.51" style="fill:#ebebec;stroke-width:.2198"/>
 <ellipse cx="37.5" cy="62.33" rx="18.31" ry="2.413" style="fill:#eaeaeb;stroke-width:.2198"/>
 <ellipse cx="37.5" cy="62.33" rx="17.58" ry="2.317" style="fill:#e9eaeb;stroke-width:.2198"/>
 <ellipse cx="37.5" cy="62.33" rx="16.85" ry="2.22" style="fill:#e8e9ea;stroke-width:.2198"/>
 <ellipse cx="37.5" cy="62.33" rx="16.12" ry="2.125" style="fill:#e7e8e9;stroke-width:.2198"/>
 <ellipse cx="37.5" cy="62.33" rx="15.39" ry="2.028" style="fill:#e6e7e8;stroke-width:.2198"/>
 <ellipse cx="37.5" cy="62.33" rx="14.65" ry="1.932" style="fill:#e5e6e7;stroke-width:.2198"/>
 <ellipse cx="37.5" cy="62.33" rx="13.92" ry="1.836" style="fill:#e5e6e7;stroke-width:.2198"/>
 <ellipse cx="37.5" cy="62.33" rx="13.19" ry="1.739" style="fill:#e4e5e6;stroke-width:.2198"/>
 <ellipse cx="37.5" cy="62.33" rx="12.46" ry="1.643" style="fill:#e3e4e5;stroke-width:.2198"/>
 <ellipse cx="37.5" cy="62.33" rx="11.73" ry="1.547" style="fill:#e2e3e4;stroke-width:.2198"/>
 <ellipse cx="37.5" cy="62.33" rx="11" ry="1.45" style="fill:#e1e2e4;stroke-width:.2198"/>
 <ellipse cx="37.5" cy="62.33" rx="10.27" ry="1.354" style="fill:#e1e2e3;stroke-width:.2198"/>
 <ellipse cx="37.5" cy="62.33" rx="9.54" ry="1.257" style="fill:#e0e1e2;stroke-width:.2198"/>
 <ellipse cx="37.5" cy="62.33" rx="8.81" ry="1.161" style="fill:#dfe0e1;stroke-width:.2198"/>
 <ellipse cx="37.5" cy="62.33" rx="8.078" ry="1.065" style="fill:#dedfe0;stroke-width:.2198"/>
 <ellipse cx="37.5" cy="62.33" rx="7.348" ry=".9685" style="fill:#dddee0;stroke-width:.2198"/>
 <ellipse cx="37.5" cy="62.33" rx="6.616" ry=".872" style="fill:#dddedf;stroke-width:.2198"/>
 <ellipse cx="37.5" cy="62.33" rx="5.886" ry=".7764" style="fill:#dcddde;stroke-width:.2198"/>
 <path d="m24.09 1.555 1.23 0.8742c-1.651 5.018-3.756 11.07-4.825 13.96h-0.06462c-3.917-10.3-4.825-12.85-5.311-13.96l1.23-0.8095 0.324-1.36h-8.871l-0.4535 1.263c1.813 0.6475 2.622 1.068 3.141 2.072 2.978 7.383 6.475 16.58 7.287 18.59h0.4532c0.9067-0.5506 2.072-1.716 2.688-2.592 2.915-7.544 5.763-14.8 6.671-16.48 0.4209-0.5179 1.004-0.9067 2.622-1.554l0.2266-1.296h-5.99zm29.04 10.2 0.4209 1.425c0.4209 0.09693 0.8419 0.1618 1.392 0.1618 2.882 0 8.095-1.36 8.095-6.735 0-2.072-0.7447-3.886-2.655-5.084-1.749-1.133-4.146-1.522-7.513-1.522-2.363 0-4.792 0.2266-8.225 0.4858l-0.4532 1.263 2.849 0.777v7.577c0 5.957 0 8.515-0.1295 9.067l-2.105 1.133-0.324 1.263c1.651 0 3.334-0.03231 5.018-0.03231 2.105 0 4.242 0.03231 6.315 0.03231l0.3238-1.295-4.08-1.23c0-0.5179-0.1943-1.554-0.1943-9.034v-8.159c3.238 0.06484 6.056 1.101 6.056 4.858 0 3.011-1.651 4.921-4.792 5.051zm-13.99-1.295v-7.933l2.137-1.004 0.3561-1.263c-1.587 0-3.238 0.03253-4.858 0.03253-1.49 0-2.978-0.03253-4.469-0.03253l-0.4209 1.263 2.429 1.004v7.933c0 5.374-0.06462 8.452-0.1943 8.775l-2.332 1.068-0.3561 1.263c1.749 0 3.497-0.03231 5.214-0.03231 1.716 0 3.433 0.03231 5.148 0.03231l0.3561-1.263-2.849-1.068c-0.06462-0.3238-0.1618-3.4-0.1618-8.775z" style="fill:url(#SVGID_11_-5);stroke-width:.2198"/>
 <circle cx="7.181" cy="9.732" r="3.262" style="fill:url(#SVGID_12_-9);stroke-width:.2198"/>
 <polygon transform="matrix(.2198 0 0 .2198 -5.999 -130.8)" points="27.29 809.3 92.62 809.3 92.62 802.8 80.74 802.8 80.74 797.4 66.84 797.4 66.84 660.3 53.08 660.3 53.08 797.4 39.17 797.4 39.17 802.8 27.29 802.8" style="fill:url(#SVGID_13_-0)"/>
 <circle cx="67.81" cy="9.732" r="3.262" style="fill:url(#SVGID_14_-0);stroke-width:.2198"/>
 <polygon transform="matrix(.2198 0 0 .2198 -5.999 -130.8)" points="368.5 802.8 356.6 802.8 356.6 797.4 342.7 797.4 342.7 660.3 329 660.3 329 797.4 315.1 797.4 315.1 802.8 303.2 802.8 303.2 809.3 368.5 809.3" style="fill:url(#SVGID_15_-0)"/>
 <path d="m37.5 31.82c-10.44 0-20.45-3.765-26.11-9.823-0.493-0.5264-0.4658-1.353 0.06089-1.845 0.5262-0.4928 1.353-0.4658 1.845 0.06067 5.117 5.467 14.62 8.997 24.22 8.997 9.592-2.2e-4 19.1-3.532 24.22-8.997 0.4928-0.5262 1.319-0.5537 1.845-0.06067 0.5267 0.4926 0.5539 1.319 0.06089 1.845-5.673 6.06-15.68 9.823-26.11 9.823z" style="fill:url(#SVGID_16_-1);stroke-width:.2198"/>
</svg>
