<svg version="1.1" viewBox="0 0 100 115.1" xmlns="http://www.w3.org/2000/svg">
 <defs>
  <linearGradient id="SVGID_21_" x1="811.1" x2="811.1" y1="236.6" y2="174.9" gradientUnits="userSpaceOnUse">
   <stop style="stop-color:#6DCFF6" offset="0"/>
   <stop style="stop-color:#ABE1FA" offset="1"/>
  </linearGradient>
  <linearGradient id="SVGID_22_" x1="885.1" x2="885.1" y1="236.6" y2="174.9" gradientUnits="userSpaceOnUse">
   <stop style="stop-color:#6DCFF6" offset="0"/>
   <stop style="stop-color:#ABE1FA" offset="1"/>
  </linearGradient>
  <linearGradient id="SVGID_23_" x1="959.2" x2="959.2" y1="236.6" y2="174.9" gradientUnits="userSpaceOnUse">
   <stop style="stop-color:#6DCFF6" offset="0"/>
   <stop style="stop-color:#ABE1FA" offset="1"/>
  </linearGradient>
  <linearGradient id="SVGID_24_" x1="3932" x2="3932" y1="1309" y2="1371" gradientTransform="rotate(180 2454 772.9)" gradientUnits="userSpaceOnUse">
   <stop style="stop-color:#6DCFF6" offset="0"/>
   <stop style="stop-color:#ABE1FA" offset="1"/>
  </linearGradient>
  <linearGradient id="SVGID_25_" x1="828.6" x2="828.6" y1="946.4" y2="994.9" gradientTransform="matrix(1 0 0 -2.667 0 2894)" gradientUnits="userSpaceOnUse">
   <stop style="stop-color:#6DCFF6" offset="0"/>
   <stop style="stop-color:#ABE1FA" offset="1"/>
  </linearGradient>
  <linearGradient id="SVGID_26_" x1="885.1" x2="885.1" y1="946.4" y2="994.9" gradientTransform="matrix(1 0 0 -2.667 0 2894)" gradientUnits="userSpaceOnUse">
   <stop style="stop-color:#8ED8F8" offset="0"/>
   <stop style="stop-color:#C7EAFB" offset=".9877"/>
  </linearGradient>
  <linearGradient id="SVGID_27_" x1="941.7" x2="941.7" y1="946.4" y2="994.9" gradientTransform="matrix(1 0 0 -2.667 0 2894)" gradientUnits="userSpaceOnUse">
   <stop style="stop-color:#6DCFF6" offset="0"/>
   <stop style="stop-color:#ABE1FA" offset="1"/>
  </linearGradient>
  <linearGradient id="SVGID_28_" x1="848.1" x2="848.1" y1="232.6" y2="174.9" gradientUnits="userSpaceOnUse">
   <stop style="stop-color:#8ED8F8" offset="0"/>
   <stop style="stop-color:#C7EAFB" offset=".9877"/>
  </linearGradient>
  <linearGradient id="SVGID_29_" x1="922.2" x2="922.2" y1="232.6" y2="174.9" gradientUnits="userSpaceOnUse">
   <stop style="stop-color:#8ED8F8" offset="0"/>
   <stop style="stop-color:#C7EAFB" offset=".9877"/>
  </linearGradient>
  <linearGradient id="SVGID_30_" x1="885.4" x2="885.4" y1="168.3" y2="100.1" gradientUnits="userSpaceOnUse">
   <stop style="stop-color:#BFA344" offset="0"/>
   <stop style="stop-color:#E8C453" offset="1"/>
  </linearGradient>
 </defs>
 <g id="diamond" transform="matrix(.3196 0 0 .3196 -232.9 -31.99)">
  <path d="m1042 439.6c0 11.39-70.04 20.62-156.4 20.62s-156.4-9.237-156.4-20.62c0-11.39 70.04-20.62 156.4-20.62s156.4 9.235 156.4 20.62z" style="fill:#ffffff"/>
  <path d="m885.1 419.4c84.56 0 153.1 9.039 153.1 20.19 0 11.15-68.55 20.19-153.1 20.19s-153.1-9.041-153.1-20.19c0-11.15 68.55-20.19 153.1-20.19z" style="fill:#fdfdfd"/>
  <path d="m885.1 419.9c82.73 0 149.8 8.842 149.8 19.75 0 10.9-67.06 19.75-149.8 19.75s-149.8-8.845-149.8-19.75c-1e-3 -10.91 67.06-19.75 149.8-19.75z" style="fill:#fcfcfc"/>
  <path d="m885.1 420.3c80.89 0 146.5 8.646 146.5 19.31 0 10.66-65.57 19.31-146.5 19.31s-146.5-8.648-146.5-19.31c-1e-3 -10.66 65.57-19.31 146.5-19.31z" style="fill:#fafbfb"/>
  <path d="m885.1 420.7c79.05 0 143.1 8.45 143.1 18.87 0 10.42-64.08 18.87-143.1 18.87s-143.1-8.453-143.1-18.87c0-10.42 64.09-18.87 143.1-18.87z" style="fill:#f9f9fa"/>
  <ellipse cx="885.1" cy="439.6" rx="139.8" ry="18.43" style="fill:#f8f8f9"/>
  <path d="m885.1 421.6c75.38 0 136.5 8.057 136.5 18 0 9.935-61.11 18-136.5 18-75.38 0-136.5-8.06-136.5-18-1e-3 -9.938 61.11-18 136.5-18z" style="fill:#f7f7f8"/>
  <path d="m885.1 422c73.54 0 133.2 7.86 133.2 17.56 0 9.693-59.62 17.56-133.2 17.56s-133.2-7.864-133.2-17.56c0-9.695 59.62-17.56 133.2-17.56z" style="fill:#f6f7f7"/>
  <ellipse cx="885.1" cy="439.6" rx="129.8" ry="17.12" style="fill:#f5f6f6"/>
  <ellipse cx="885.1" cy="439.6" rx="126.5" ry="16.68" style="fill:#f4f5f5"/>
  <ellipse cx="885.1" cy="439.6" rx="123.2" ry="16.24" style="fill:#f4f4f4"/>
  <ellipse cx="885.1" cy="439.6" rx="119.9" ry="15.8" style="fill:#f3f3f4"/>
  <ellipse cx="885.1" cy="439.6" rx="116.5" ry="15.36" style="fill:#f2f2f3"/>
  <ellipse cx="885.1" cy="439.6" rx="113.2" ry="14.93" style="fill:#f1f2f2"/>
  <ellipse cx="885.1" cy="439.6" rx="109.9" ry="14.49" style="fill:#f0f1f1"/>
  <ellipse cx="885.1" cy="439.6" rx="106.6" ry="14.05" style="fill:#eff0f1"/>
  <ellipse cx="885.1" cy="439.6" rx="103.2" ry="13.61" style="fill:#efeff0"/>
  <ellipse cx="885.1" cy="439.6" rx="99.92" ry="13.17" style="fill:#eeeeef"/>
  <ellipse cx="885.1" cy="439.6" rx="96.59" ry="12.73" style="fill:#edeeee"/>
  <ellipse cx="885.1" cy="439.6" rx="93.27" ry="12.3" style="fill:#ecedee"/>
  <ellipse cx="885.1" cy="439.6" rx="89.94" ry="11.86" style="fill:#ebeced"/>
  <ellipse cx="885.1" cy="439.6" rx="86.62" ry="11.42" style="fill:#ebebec"/>
  <ellipse cx="885.1" cy="439.6" rx="83.29" ry="10.98" style="fill:#eaeaeb"/>
  <ellipse cx="885.1" cy="439.6" rx="79.97" ry="10.54" style="fill:#e9eaeb"/>
  <ellipse cx="885.1" cy="439.6" rx="76.65" ry="10.1" style="fill:#e8e9ea"/>
  <ellipse cx="885.1" cy="439.6" rx="73.32" ry="9.666" style="fill:#e7e8e9"/>
  <ellipse cx="885.1" cy="439.6" rx="70" ry="9.228" style="fill:#e6e7e8"/>
  <ellipse cx="885.1" cy="439.6" rx="66.67" ry="8.789" style="fill:#e5e6e7"/>
  <ellipse cx="885.1" cy="439.6" rx="63.35" ry="8.351" style="fill:#e5e6e7"/>
  <ellipse cx="885.1" cy="439.6" rx="60.02" ry="7.912" style="fill:#e4e5e6"/>
  <ellipse cx="885.1" cy="439.6" rx="56.7" ry="7.474" style="fill:#e3e4e5"/>
  <ellipse cx="885.1" cy="439.6" rx="53.37" ry="7.036" style="fill:#e2e3e4"/>
  <ellipse cx="885.1" cy="439.6" rx="50.05" ry="6.597" style="fill:#e1e2e4"/>
  <ellipse cx="885.1" cy="439.6" rx="46.72" ry="6.159" style="fill:#e1e2e3"/>
  <ellipse cx="885.1" cy="439.6" rx="43.4" ry="5.721" style="fill:#e0e1e2"/>
  <ellipse cx="885.1" cy="439.6" rx="40.08" ry="5.282" style="fill:#dfe0e1"/>
  <ellipse cx="885.1" cy="439.6" rx="36.75" ry="4.844" style="fill:#dedfe0"/>
  <ellipse cx="885.1" cy="439.6" rx="33.43" ry="4.406" style="fill:#dddee0"/>
  <ellipse cx="885.1" cy="439.6" rx="30.1" ry="3.967" style="fill:#dddedf"/>
  <ellipse cx="885.1" cy="439.6" rx="26.78" ry="3.532" style="fill:#dcddde"/>
  <polygon points="776.2 236.6 811.1 174.9 846 236.6" style="fill:url(#SVGID_21_)"/>
  <polygon points="920.1 236.6 850.2 236.6 885.1 174.9" style="fill:url(#SVGID_22_)"/>
  <polygon points="959.2 174.9 994.1 236.6 924.2 236.6" style="fill:url(#SVGID_23_)"/>
  <line x1="994.1" x2="959.2" y1="236.6" y2="174.9" style="fill:url(#SVGID_24_)"/>
  <polygon points="846 240.8 776.2 240.8 881 370.2" style="fill:url(#SVGID_25_)"/>
  <polygon points="885.1 370.2 920.1 240.8 850.2 240.8" style="fill:url(#SVGID_26_)"/>
  <polygon points="924.2 240.8 889.3 370.2 994.1 240.8" style="fill:url(#SVGID_27_)"/>
  <polygon points="881 174.9 815.2 174.9 848.1 232.6" style="fill:url(#SVGID_28_)"/>
  <polygon points="922.2 232.6 955 174.9 889.3 174.9" style="fill:url(#SVGID_29_)"/>
  <path d="m863.2 116.3h6.226v35.26h-6.226v16.2h38.57v-16.2h-6.179v-35.26h6.179v-16.2h-38.57zm-31.62 0h5.544l-10.55 28.84-10.07-28.84h5.739v-16.2h-36.38v16.2h5.01l21.6 52.04h21.06l20.33-52.04h5.01v-16.2h-27.29v16.2zm150.2-5.739c-2.075-3.242-5.318-5.805-9.728-7.686-4.41-1.849-11.38-2.772-20.92-2.772h-41.49v16.2h6.566v35.26h-6.566v16.2h39.54v-16.2h-6.809v-9.484h10.56c8.333 0 14.5-0.697 18.48-2.091 4.053-1.427 7.312-3.729 9.777-6.907 2.464-3.146 3.696-7.102 3.696-11.87 0-3.859-1.037-7.41-3.113-10.65zm-26.51 15.81c-1.621 0.844-4.215 1.265-7.782 1.265h-5.107v-12.7h4.085c3.113 0 5.318 0.146 6.616 0.438 1.361 0.291 2.448 0.972 3.258 2.043 0.843 1.103 1.265 2.448 1.265 4.036 0 2.432-0.778 4.07-2.335 4.913z" style="fill:url(#SVGID_30_)"/>
 </g>
</svg>
