<svg version="1.1" viewBox="0 0 65.14 75" xmlns="http://www.w3.org/2000/svg">
 <defs>
  <linearGradient id="SVGID_21_" x1="811.1" x2="811.1" y1="236.6" y2="174.9" gradientUnits="userSpaceOnUse">
   <stop style="stop-color:#6DCFF6" offset="0"/>
   <stop style="stop-color:#ABE1FA" offset="1"/>
  </linearGradient>
  <linearGradient id="SVGID_22_" x1="885.1" x2="885.1" y1="236.6" y2="174.9" gradientUnits="userSpaceOnUse">
   <stop style="stop-color:#6DCFF6" offset="0"/>
   <stop style="stop-color:#ABE1FA" offset="1"/>
  </linearGradient>
  <linearGradient id="SVGID_23_" x1="959.2" x2="959.2" y1="236.6" y2="174.9" gradientUnits="userSpaceOnUse">
   <stop style="stop-color:#6DCFF6" offset="0"/>
   <stop style="stop-color:#ABE1FA" offset="1"/>
  </linearGradient>
  <linearGradient id="SVGID_24_" x1="3932" x2="3932" y1="1309" y2="1371" gradientTransform="rotate(180,2454,772.9)" gradientUnits="userSpaceOnUse">
   <stop style="stop-color:#6DCFF6" offset="0"/>
   <stop style="stop-color:#ABE1FA" offset="1"/>
  </linearGradient>
  <linearGradient id="SVGID_25_" x1="828.6" x2="828.6" y1="946.4" y2="994.9" gradientTransform="matrix(1,0,0,-2.667,0,2894)" gradientUnits="userSpaceOnUse">
   <stop style="stop-color:#6DCFF6" offset="0"/>
   <stop style="stop-color:#ABE1FA" offset="1"/>
  </linearGradient>
  <linearGradient id="SVGID_26_" x1="885.1" x2="885.1" y1="946.4" y2="994.9" gradientTransform="matrix(1,0,0,-2.667,0,2894)" gradientUnits="userSpaceOnUse">
   <stop style="stop-color:#8ED8F8" offset="0"/>
   <stop style="stop-color:#C7EAFB" offset=".9877"/>
  </linearGradient>
  <linearGradient id="SVGID_27_" x1="941.7" x2="941.7" y1="946.4" y2="994.9" gradientTransform="matrix(1,0,0,-2.667,0,2894)" gradientUnits="userSpaceOnUse">
   <stop style="stop-color:#6DCFF6" offset="0"/>
   <stop style="stop-color:#ABE1FA" offset="1"/>
  </linearGradient>
  <linearGradient id="SVGID_28_" x1="848.1" x2="848.1" y1="232.6" y2="174.9" gradientUnits="userSpaceOnUse">
   <stop style="stop-color:#8ED8F8" offset="0"/>
   <stop style="stop-color:#C7EAFB" offset=".9877"/>
  </linearGradient>
  <linearGradient id="SVGID_29_" x1="922.2" x2="922.2" y1="232.6" y2="174.9" gradientUnits="userSpaceOnUse">
   <stop style="stop-color:#8ED8F8" offset="0"/>
   <stop style="stop-color:#C7EAFB" offset=".9877"/>
  </linearGradient>
  <linearGradient id="SVGID_30_" x1="885.4" x2="885.4" y1="168.3" y2="100.1" gradientTransform="matrix(.2083 0 0 .2083 -151.9 -20.85)" gradientUnits="userSpaceOnUse">
   <stop style="stop-color:#BFA344" offset="0"/>
   <stop style="stop-color:#E8C453" offset="1"/>
  </linearGradient>
 </defs>
 <path d="m65.14 70.71c0 2.372-14.59 4.294-32.57 4.294-17.99 0-32.57-1.924-32.57-4.294 0-2.372 14.59-4.294 32.57-4.294 17.99 0 32.57 1.923 32.57 4.294z" style="fill:#ffffff;stroke-width:.2083"/>
 <path d="m32.47 66.5c17.61 0 31.89 1.882 31.89 4.205 0 2.322-14.28 4.205-31.89 4.205-17.61 0-31.89-1.883-31.89-4.205 0-2.322 14.28-4.205 31.89-4.205z" style="fill:#fdfdfd;stroke-width:.2083"/>
 <path d="m32.47 66.6c17.23 0 31.2 1.841 31.2 4.113 0 2.27-13.97 4.113-31.2 4.113-17.23 0-31.2-1.842-31.2-4.113-2.083e-4 -2.272 13.97-4.113 31.2-4.113z" style="fill:#fcfcfc;stroke-width:.2083"/>
 <path d="m32.47 66.69c16.85 0 30.51 1.801 30.51 4.022 0 2.22-13.66 4.022-30.51 4.022-16.85 0-30.51-1.801-30.51-4.022-2.083e-4 -2.22 13.66-4.022 30.51-4.022z" style="fill:#fafbfb;stroke-width:.2083"/>
 <path d="m32.47 66.77c16.46 0 29.8 1.76 29.8 3.93s-13.35 3.93-29.8 3.93c-16.46 0-29.8-1.76-29.8-3.93 0-2.17 13.35-3.93 29.8-3.93z" style="fill:#f9f9fa;stroke-width:.2083"/>
 <ellipse cx="32.47" cy="70.71" rx="29.12" ry="3.838" style="fill:#f8f8f9;stroke-width:.2083"/>
 <path d="m32.47 66.96c15.7 0 28.43 1.678 28.43 3.749 0 2.069-12.73 3.749-28.43 3.749-15.7 0-28.43-1.679-28.43-3.749-2.083e-4 -2.07 12.73-3.749 28.43-3.749z" style="fill:#f7f7f8;stroke-width:.2083"/>
 <path d="m32.47 67.04c15.32 0 27.74 1.637 27.74 3.657 0 2.019-12.42 3.657-27.74 3.657-15.32 0-27.74-1.638-27.74-3.657 0-2.019 12.42-3.657 27.74-3.657z" style="fill:#f6f7f7;stroke-width:.2083"/>
 <ellipse cx="32.47" cy="70.71" rx="27.03" ry="3.565" style="fill:#f5f6f6;stroke-width:.2083"/>
 <ellipse cx="32.47" cy="70.71" rx="26.35" ry="3.474" style="fill:#f4f5f5;stroke-width:.2083"/>
 <ellipse cx="32.47" cy="70.71" rx="25.66" ry="3.382" style="fill:#f4f4f4;stroke-width:.2083"/>
 <ellipse cx="32.47" cy="70.71" rx="24.97" ry="3.291" style="fill:#f3f3f4;stroke-width:.2083"/>
 <ellipse cx="32.47" cy="70.71" rx="24.26" ry="3.199" style="fill:#f2f2f3;stroke-width:.2083"/>
 <ellipse cx="32.47" cy="70.71" rx="23.58" ry="3.109" style="fill:#f1f2f2;stroke-width:.2083"/>
 <ellipse cx="32.47" cy="70.71" rx="22.89" ry="3.018" style="fill:#f0f1f1;stroke-width:.2083"/>
 <ellipse cx="32.47" cy="70.71" rx="22.2" ry="2.926" style="fill:#eff0f1;stroke-width:.2083"/>
 <ellipse cx="32.47" cy="70.71" rx="21.49" ry="2.834" style="fill:#efeff0;stroke-width:.2083"/>
 <ellipse cx="32.47" cy="70.71" rx="20.81" ry="2.743" style="fill:#eeeeef;stroke-width:.2083"/>
 <ellipse cx="32.47" cy="70.71" rx="20.12" ry="2.651" style="fill:#edeeee;stroke-width:.2083"/>
 <ellipse cx="32.47" cy="70.71" rx="19.42" ry="2.562" style="fill:#ecedee;stroke-width:.2083"/>
 <ellipse cx="32.47" cy="70.71" rx="18.73" ry="2.47" style="fill:#ebeced;stroke-width:.2083"/>
 <ellipse cx="32.47" cy="70.71" rx="18.04" ry="2.378" style="fill:#ebebec;stroke-width:.2083"/>
 <ellipse cx="32.47" cy="70.71" rx="17.35" ry="2.287" style="fill:#eaeaeb;stroke-width:.2083"/>
 <ellipse cx="32.47" cy="70.71" rx="16.65" ry="2.195" style="fill:#e9eaeb;stroke-width:.2083"/>
 <ellipse cx="32.47" cy="70.71" rx="15.96" ry="2.103" style="fill:#e8e9ea;stroke-width:.2083"/>
 <ellipse cx="32.47" cy="70.71" rx="15.27" ry="2.013" style="fill:#e7e8e9;stroke-width:.2083"/>
 <ellipse cx="32.47" cy="70.71" rx="14.58" ry="1.922" style="fill:#e6e7e8;stroke-width:.2083"/>
 <ellipse cx="32.47" cy="70.71" rx="13.88" ry="1.83" style="fill:#e5e6e7;stroke-width:.2083"/>
 <ellipse cx="32.47" cy="70.71" rx="13.19" ry="1.739" style="fill:#e5e6e7;stroke-width:.2083"/>
 <ellipse cx="32.47" cy="70.71" rx="12.5" ry="1.648" style="fill:#e4e5e6;stroke-width:.2083"/>
 <ellipse cx="32.47" cy="70.71" rx="11.81" ry="1.557" style="fill:#e3e4e5;stroke-width:.2083"/>
 <ellipse cx="32.47" cy="70.71" rx="11.12" ry="1.465" style="fill:#e2e3e4;stroke-width:.2083"/>
 <ellipse cx="32.47" cy="70.71" rx="10.42" ry="1.374" style="fill:#e1e2e4;stroke-width:.2083"/>
 <ellipse cx="32.47" cy="70.71" rx="9.73" ry="1.283" style="fill:#e1e2e3;stroke-width:.2083"/>
 <ellipse cx="32.47" cy="70.71" rx="9.039" ry="1.191" style="fill:#e0e1e2;stroke-width:.2083"/>
 <ellipse cx="32.47" cy="70.71" rx="8.347" ry="1.1" style="fill:#dfe0e1;stroke-width:.2083"/>
 <ellipse cx="32.47" cy="70.71" rx="7.654" ry="1.009" style="fill:#dedfe0;stroke-width:.2083"/>
 <ellipse cx="32.47" cy="70.71" rx="6.962" ry=".9176" style="fill:#dddee0;stroke-width:.2083"/>
 <ellipse cx="32.47" cy="70.71" rx="6.269" ry=".8262" style="fill:#dddedf;stroke-width:.2083"/>
 <ellipse cx="32.47" cy="70.71" rx="5.577" ry=".7356" style="fill:#dcddde;stroke-width:.2083"/>
 <polygon transform="matrix(.2083 0 0 .2083 -151.9 -20.85)" points="776.2 236.6 811.1 174.9 846 236.6" style="fill:url(#SVGID_21_)"/>
 <polygon transform="matrix(.2083 0 0 .2083 -151.9 -20.85)" points="920.1 236.6 850.2 236.6 885.1 174.9" style="fill:url(#SVGID_22_)"/>
 <polygon transform="matrix(.2083 0 0 .2083 -151.9 -20.85)" points="959.2 174.9 994.1 236.6 924.2 236.6" style="fill:url(#SVGID_23_)"/>
 <line x1="55.17" x2="47.9" y1="28.43" y2="15.58" style="fill:url(#SVGID_24_);stroke-width:.2083"/>
 <polygon transform="matrix(.2083 0 0 .2083 -151.9 -20.85)" points="846 240.8 776.2 240.8 881 370.2" style="fill:url(#SVGID_25_)"/>
 <polygon transform="matrix(.2083 0 0 .2083 -151.9 -20.85)" points="885.1 370.2 920.1 240.8 850.2 240.8" style="fill:url(#SVGID_26_)"/>
 <polygon transform="matrix(.2083 0 0 .2083 -151.9 -20.85)" points="924.2 240.8 889.3 370.2 994.1 240.8" style="fill:url(#SVGID_27_)"/>
 <polygon transform="matrix(.2083 0 0 .2083 -151.9 -20.85)" points="881 174.9 815.2 174.9 848.1 232.6" style="fill:url(#SVGID_28_)"/>
 <polygon transform="matrix(.2083 0 0 .2083 -151.9 -20.85)" points="922.2 232.6 955 174.9 889.3 174.9" style="fill:url(#SVGID_29_)"/>
 <path d="m27.91 3.374h1.297v7.343h-1.297v3.374h8.033v-3.374h-1.287v-7.343h1.287v-3.374h-8.033zm-6.585 0h1.155l-2.197 6.006-2.097-6.006h1.195v-3.374h-7.577v3.374h1.043l4.498 10.84h4.386l4.234-10.84h1.043v-3.374h-5.684v3.374zm31.28-1.195c-0.4321-0.6752-1.108-1.209-2.026-1.601-0.9184-0.3851-2.37-0.5773-4.357-0.5773h-8.641v3.374h1.367v7.343h-1.367v3.374h8.235v-3.374h-1.418v-1.975h2.199c1.735 0 3.02-0.1452 3.849-0.4355 0.8441-0.2972 1.523-0.7766 2.036-1.438 0.5132-0.6552 0.7697-1.479 0.7697-2.472 0-0.8037-0.216-1.543-0.6483-2.218zm-5.521 3.293c-0.3376 0.1758-0.8778 0.2635-1.621 0.2635h-1.064v-2.645h0.8508c0.6483 0 1.108 0.03041 1.378 0.09122 0.2834 0.0606 0.5098 0.2024 0.6785 0.4255 0.1756 0.2297 0.2635 0.5098 0.2635 0.8406 0 0.5065-0.162 0.8476-0.4863 1.023z" style="fill:url(#SVGID_30_);stroke-width:.2083"/>
</svg>
