<svg version="1.1" viewBox="0 0 75 75" xmlns="http://www.w3.org/2000/svg">
 <path d="m75 37.5c0 20.71-16.79 37.5-37.5 37.5s-37.5-16.79-37.5-37.5 16.79-37.5 37.5-37.5 37.5 16.79 37.5 37.5" style="fill:#538fd3;stroke-width:.02517"/>
 <path d="m75 37.5c0-1.509-0.09312-2.997-0.2668-4.46-0.08809-0.01258-0.1762-0.008305-0.2643 0.01712l-0.0453 0.01309-0.1661-0.5768c-0.04782-0.1603-0.156-0.2955-0.302-0.3758-0.146-0.08054-0.3196-0.09992-0.4782-0.05285l-0.0453 0.01309-0.1686-0.5768c-0.0453-0.1601-0.1535-0.2955-0.2995-0.3758-0.146-0.08054-0.3196-0.09966-0.4782-0.0526l-0.0453 0.01284-0.1686-0.5766c-0.0453-0.1603-0.1535-0.2955-0.302-0.376-0.146-0.08028-0.3171-0.09966-0.4782-0.0526l-0.0453 0.01309-0.1661-0.5768c-0.04782-0.1603-0.156-0.2955-0.302-0.3758-0.146-0.08054-0.3171-0.09992-0.4782-0.05285l-0.0453 0.01309-0.1661-0.5768c-0.04782-0.1603-0.156-0.2955-0.302-0.3758-0.146-0.08054-0.3196-0.09992-0.4782-0.05285l-0.0453 0.01309-0.1686-0.5768c-0.0453-0.1603-0.1535-0.2955-0.2995-0.3758-0.1485-0.08054-0.3196-0.09966-0.4807-0.0526l-0.04278 0.01284-0.1686-0.5768c-0.0453-0.1601-0.156-0.2952-0.302-0.3758s-0.3171-0.09966-0.4782-0.0526l-0.0453 0.01284-0.1661-0.5766c-0.04782-0.1603-0.156-0.2955-0.302-0.376-0.146-0.08028-0.3171-0.09966-0.4782-0.0526l-0.0453 0.01309-0.1686-0.5768c-0.0453-0.1603-0.1535-0.2955-0.2995-0.3758-0.146-0.08054-0.3196-0.09992-0.4782-0.05285l-0.0453 0.01309-0.1686-0.5768c-0.0453-0.1603-0.1535-0.2955-0.2995-0.3758-0.1485-0.08054-0.3196-0.09992-0.4807-0.05285l-0.04278 0.01309-0.1686-0.5768c-0.04782-0.1603-0.156-0.2955-0.302-0.3758-0.146-0.08054-0.3171-0.09966-0.4782-0.0526l-0.0453 0.01284-0.1661-0.5768c-0.04782-0.1601-0.156-0.2952-0.302-0.3758-0.146-0.08054-0.3196-0.09966-0.4782-0.0526l-0.0453 0.01284-0.1686-0.5766c-0.0453-0.1603-0.1535-0.2955-0.2995-0.376-0.1485-0.08029-0.3196-0.09966-0.4807-0.0526l-0.04278 0.01309-0.1686-0.5768c-0.0453-0.1603-0.1535-0.2955-0.302-0.3758-0.146-0.08054-0.3171-0.09992-0.4782-0.05285l-0.0453 0.01309-0.1661-0.5768c-0.04782-0.1603-0.156-0.2955-0.302-0.3758-0.146-0.08054-0.3171-0.09992-0.4782-0.05285l-0.0453 0.01309-0.1686-0.5768c-0.0453-0.1601-0.1535-0.2955-0.2995-0.3758-0.146-0.08054-0.3196-0.09966-0.4782-0.0526l-0.0453 0.01284-0.1686-0.5768c-0.0453-0.1601-0.1535-0.2952-0.2995-0.3758-0.1485-0.08054-0.3196-0.09966-0.4807-0.0526l-0.04278 0.01309-0.1686-0.5768c-0.04782-0.1603-0.156-0.2955-0.302-0.376-0.146-0.08028-0.3171-0.09966-0.4782-0.0526l-0.0453 0.01309-0.1661-0.5768c-0.04782-0.1603-0.156-0.2955-0.302-0.3758-0.146-0.08054-0.3196-0.09992-0.4782-0.05285l-0.0453 0.01309-0.1686-0.5768c-0.0453-0.1603-0.1535-0.2955-0.2995-0.3758-0.146-0.08054-0.3196-0.09992-0.4807-0.05285l-0.04278 0.01309-0.1686-0.5768c-0.0453-0.1601-0.1535-0.2955-0.302-0.3758-0.146-0.08054-0.3171-0.09966-0.4782-0.0526l-7.83 2.277c-0.1837-0.0307-0.375 0.02164-0.521 0.1515l-26.93 7.827c-0.1611 0.04656-0.2945 0.1548-0.375 0.301-0.08054 0.1465-0.1007 0.3186-0.05285 0.4789l1.228 4.226c-0.03272 0.07676-0.05285 0.1613-0.05285 0.2502v30.15c0 0.3476 0.2819 0.6292 0.6292 0.6292h0.3624v0.3632c0 0.3476 0.2819 0.6292 0.6292 0.6292h0.3649v0.3632c0 0.3476 0.2819 0.6292 0.6292 0.6292h0.3624v0.3632c0 0.3476 0.2819 0.6292 0.6292 0.6292h0.3624v0.3629c0 0.3476 0.2819 0.6292 0.6292 0.6292h0.3649v0.3632c0 0.3476 0.2794 0.6292 0.6292 0.6292h0.3624v0.3632c0 0.3476 0.2819 0.6292 0.6292 0.6292h0.3624v0.3632c0 0.3476 0.2819 0.6292 0.6292 0.6292h0.3624v0.3632c0 0.3476 0.2819 0.6292 0.6292 0.6292h0.3649v0.3629c0 0.3476 0.2819 0.6292 0.6292 0.6292h0.3624v0.3632c0 0.3476 0.2819 0.6292 0.6292 0.6292h0.3624v0.3632c0 0.3476 0.2819 0.6292 0.6292 0.6292h0.3649v0.3632c0 0.3476 0.2794 0.6292 0.6292 0.6292h0.3624v0.3632c0 0.3473 0.2819 0.6292 0.6292 0.6292h0.3624v0.3629c0 0.3476 0.2819 0.6292 0.6292 0.6292h0.3624v0.3632c0 0.3476 0.2819 0.6292 0.6292 0.6292h0.3649v0.3632c0 0.3476 0.2819 0.6292 0.6292 0.6292h0.3624v0.3632c0 0.07626 0.0151 0.1485 0.04027 0.2162 0.4933 0.01938 0.9891 0.03196 1.487 0.03196 20.71 0 37.5-16.79 37.5-37.5" style="fill:#4475ad;stroke-width:.02517"/>
 <path d="m23.56 22.27 3.239 2.945-6.456 1.877-1.042-3.584zm30.86-5.081-4.178 1.214-3.237-2.945 6.372-1.853zm-8.834-1.319 3.239 2.945-6.083 1.769-3.239-2.945zm-7.5 2.181 3.237 2.945-5.794 1.685-3.237-2.945zm-7.213 2.097 3.239 2.945-5.887 1.712-3.239-2.945zm-3.025 8.215-2.361 3.629h-5.127v-3.589l0.1384-0.04027zm27.99 3.629h-5.003l2.361-3.629h2.643zm-4.145-3.629-2.358 3.629h-6.451l2.361-3.629zm-7.948 0-2.361 3.629h-6.448l2.361-3.629zm-7.951 0-2.358 3.629h-6.451l2.361-3.629zm-15.44 28.89v-24.01h35.49v24.01zm-1.206-29.77c-0.03272 0.07676-0.05285 0.1613-0.05285 0.2502v30.15c0 0.3476 0.2819 0.6292 0.6292 0.6292h36.74c0.3473 0 0.6292-0.2816 0.6292-0.6292v-30.15c0-0.3473-0.2819-0.6292-0.6292-0.6292h-31.64l10.39-3.023c0.09564 0.05688 0.2064 0.08607 0.3146 0.08607 0.1711 0 0.3423-0.06921 0.4656-0.2059 0.03775-0.04102 0.06544-0.08658 0.0906-0.1334l6.591-1.917c0.05537-0.008808 0.1082-0.02315 0.1586-0.04555l12.53-3.644c0.3347-0.0969 0.526-0.4462 0.4304-0.7797l-1.394-4.792c-0.0453-0.1601-0.1535-0.2955-0.302-0.3758-0.146-0.08054-0.3171-0.09966-0.4782-0.0526l-7.83 2.277c-0.1837-0.0307-0.375 0.02164-0.521 0.1515l-26.93 7.827c-0.1611 0.04656-0.2945 0.1548-0.375 0.301-0.08054 0.1465-0.1007 0.3186-0.05285 0.4789l1.228 4.226" style="fill:#ffffff;stroke-width:.02517"/>
 <path d="m52 36.87h-27.48c-0.3473 0-0.6292 0.2816-0.6292 0.6292s0.2819 0.6292 0.6292 0.6292h27.48c0.3473 0 0.6292-0.2816 0.6292-0.6292s-0.2819-0.6292-0.6292-0.6292" style="fill:#ffffff;stroke-width:.02517"/>
 <path d="m52 41.75c0.3473 0 0.6292-0.2816 0.6292-0.6292s-0.2819-0.6292-0.6292-0.6292h-27.48c-0.3473 0-0.6292 0.2816-0.6292 0.6292s0.2819 0.6292 0.6292 0.6292h18.13v5.225h-18.13c-0.3473 0-0.6292 0.2816-0.6292 0.6292 0 0.3473 0.2819 0.6292 0.6292 0.6292h27.48c0.3473 0 0.6292-0.2819 0.6292-0.6292 0-0.3476-0.2819-0.6292-0.6292-0.6292h-8.091v-5.225h8.091" style="fill:#ffffff;stroke-width:.02517"/>
 <path d="m52 50.61h-27.48c-0.3473 0-0.6292 0.2816-0.6292 0.6292 0 0.3476 0.2819 0.6292 0.6292 0.6292h27.48c0.3473 0 0.6292-0.2816 0.6292-0.6292 0-0.3476-0.2819-0.6292-0.6292-0.6292" style="fill:#ffffff;stroke-width:.02517"/>
</svg>
