<svg version="1.1" viewBox="0 0 75 74.98" xmlns="http://www.w3.org/2000/svg">
 <path id="XMLID_1096_" d="m53.28 32.9h-31.56c-1.453 0-2.63 1.178-2.63 2.63v18.41h36.82v-18.41c0-1.453-1.178-2.63-2.63-2.63z" style="opacity:.1;stroke-width:.6576"/>
 <line id="XMLID_1095_" x1="1.334" x2="73.67" y1="59.2" y2="59.2" stroke-miterlimit="10" style="fill:none;stroke-linecap:round;stroke-linejoin:round;stroke-miterlimit:10;stroke-width:2.63;stroke:#000000"/>
 <circle id="XMLID_1094_" cx="19.75" cy="68.41" r="5.261" stroke-miterlimit="10" style="fill:none;stroke-linecap:round;stroke-linejoin:round;stroke-miterlimit:10;stroke-width:2.63;stroke:#000000"/>
 <circle id="XMLID_1093_" cx="55.25" cy="68.41" r="5.261" stroke-miterlimit="10" style="fill:none;stroke-linecap:round;stroke-linejoin:round;stroke-miterlimit:10;stroke-width:2.63;stroke:#000000"/>
 <path id="XMLID_1092_" d="m64.46 59.2h-53.92v-32.88c0-11.57 9.469-21.04 21.04-21.04h11.84c11.57 0 21.04 9.469 21.04 21.04z" stroke-miterlimit="10" style="fill:none;stroke-linecap:round;stroke-linejoin:round;stroke-miterlimit:10;stroke-width:2.63;stroke:#000000"/>
 <path id="XMLID_1090_" d="m44.08 32.9h-13.15v-3.945c0-0.7233 0.5918-1.315 1.315-1.315h10.52c0.7233 0 1.315 0.5918 1.315 1.315z" stroke-miterlimit="10" style="fill:none;stroke-linecap:round;stroke-linejoin:round;stroke-miterlimit:10;stroke-width:2.63;stroke:#000000"/>
 <path id="XMLID_1089_" d="m53.28 32.9h-31.56c-1.447 0-2.63 1.184-2.63 2.63v22.36c0 0.7233 0.5918 1.315 1.315 1.315h34.19c0.7233 0 1.315-0.5918 1.315-1.315v-22.36c0-1.447-1.184-2.63-2.63-2.63z" stroke-miterlimit="10" style="fill:none;stroke-linecap:round;stroke-linejoin:round;stroke-miterlimit:10;stroke-width:2.63;stroke:#000000"/>
 <line id="XMLID_1088_" x1="37.5" x2="37.5" y1="1.334" y2="9.225" stroke-miterlimit="10" style="fill:none;stroke-linecap:round;stroke-linejoin:round;stroke-miterlimit:10;stroke-width:2.63;stroke:#000000"/>
 <line id="XMLID_1087_" x1="25.66" x2="25.66" y1="32.9" y2="59.2" stroke-miterlimit="10" style="fill:none;stroke-linecap:round;stroke-linejoin:round;stroke-miterlimit:10;stroke-width:2.63;stroke:#000000"/>
 <line id="XMLID_1086_" x1="49.34" x2="49.34" y1="32.9" y2="59.2" stroke-miterlimit="10" style="fill:none;stroke-linecap:round;stroke-linejoin:round;stroke-miterlimit:10;stroke-width:2.63;stroke:#000000"/>
 <line id="XMLID_1085_" x1="19.09" x2="55.91" y1="53.94" y2="53.94" stroke-miterlimit="10" style="fill:none;stroke-linecap:round;stroke-linejoin:round;stroke-miterlimit:10;stroke-width:2.63;stroke:#000000"/>
</svg>
