<svg version="1.1" viewBox="0 0 75 75" xmlns="http://www.w3.org/2000/svg">
 <path d="m65.66 44.19-4.868-2.559-4.866 2.559 0.9287-5.421-3.937-3.839 5.442-0.7911 0.3908-0.7908-19.02-29.33-3.982 44.79v15.79l-7.423 6.675-2.555 0.9818 1.775 2.742h40.09c4.063 0 7.358-3.294 7.358-7.36v-9.203l-9.386-14.48 0.04202 0.246" style="fill:#dbd476;stroke-width:.02101"/>
 <path d="m67.64 0h-60.28c-4.063 0-7.358 3.294-7.358 7.36v60.28c0 4.063 3.294 7.36 7.358 7.36h20.17l-1.775-2.742 2.555-0.9818 7.423-6.675v-15.79l3.982-44.79 19.02 29.33 2.042-4.139 2.435 4.931 5.442 0.7911-3.937 3.839 0.8867 5.173 9.386 14.48v-51.06c0-4.063-3.294-7.36-7.358-7.36" style="fill:#fff78b;stroke-width:.02101"/>
 <path d="m52.91 34.92 3.937 3.839-0.9287 5.421 4.866-2.559 4.868 2.559-0.04202-0.246-6.868-10.59-0.3908 0.7908-5.442 0.7911" style="fill:#d15341;stroke-width:.02101"/>
 <path d="m64.72 38.76 3.937-3.839-5.442-0.7911-2.435-4.931-2.042 4.139 6.868 10.59-0.8867-5.173" style="fill:#ef5f4a;stroke-width:.02101"/>
 <path d="m40.98 24.54c0.7921-1.353 0.3341-3.12 0.3341-3.12 0.8635 0.7142 2.254 0.602 2.254 0.602l0.3005-1.503c0.9413-1.015 0.07564-2.555 0.07564-2.555l0.3761-1.053c0.6765-2.82-2.444-3.721-2.444-3.721l-2.799-0.09371-0.395-0.4694-0.3383-1.128c-0.4328-0.2628-0.4706-0.9392-0.4706-0.9392 0.6576-0.1885 0.7333-0.8268 0.7333-0.8268v-0.7896c1.691-3.236 0.1156-5.129-0.6744-5.816 0.7417 0.08972 2 0.4381 2.217 1.775 0 0 0.3656 2.706-0.2836 4.255 0 0-0.6198 1.353-0.08404 2.254 0 0 0.5085 0.648 1.805 1.071 0 0 3.213 1.184 3.748 2.565 0 0 0.3089 0.7043 0.1975 1.748l-1.101 7.61s-0.5337 1.692-2.141 1.888l-0.4223 1.325c-1.364-1.917-0.8888-3.082-0.8888-3.082" style="fill:#a77b32;stroke-width:.02101"/>
 <path d="m39.08 53.2s2.038-6.314 1.187-9.696c0 0-0.5673-2.763 1.235-6.877 0 0 0.7942-2.353 1.122-4.998 0.1576 2.198 0 5.139-1.151 8.419 0 0-0.3068 1.513-0.1681 3.315 0 0 0.498 5.026-1.153 9.085 0 0-0.7333 3.908 1.689 5.656v0.9581l-0.7564 0.407c-0.7795-0.7959-2.347-2.853-2.004-6.27" style="fill:#a77b32;stroke-width:.02101"/>
 <path d="m37.93 3.11c0.79 0.686 2.366 2.578 0.6744 5.816v0.7896s-0.07564 0.6383-0.7333 0.8268c0 0 0.03782 0.6763 0.4706 0.9392l0.3383 1.128 0.395 0.4694 2.799 0.09371s3.12 0.9022 2.444 3.721l-0.3761 1.053s0.8656 1.54-0.07564 2.555l-0.3005 1.503s-1.391 0.1122-2.254-0.602c0 0 0.458 1.767-0.3341 3.12 0 0-0.4748 1.165 0.8888 3.082 0 0 0.5778 1.534 0.7543 4.019-0.3278 2.647-1.122 4.998-1.122 4.998-1.803 4.116-1.235 6.877-1.235 6.877 0.8509 3.383-1.187 9.696-1.187 9.696-0.3425 3.416 1.225 5.473 2.004 6.27l-0.7081 0.3813h-2.988v-56.77s0.2248-0.0103 0.5463 0.02857" style="fill:#c7a526;stroke-width:.02101"/>
 <path d="m29.44 15.04c0.5358-1.381 3.748-2.565 3.748-2.565 1.296-0.4232 1.803-1.071 1.803-1.071 0.5379-0.9018-0.08404-2.254-0.08404-2.254-0.6471-1.55-0.2815-4.255-0.2815-4.255 0.311-1.917 2.763-1.804 2.763-1.804v56.77h-2.988l-1.467-0.7883v-0.9581c2.425-1.748 1.691-5.656 1.691-5.656-1.654-4.059-1.156-9.085-1.156-9.085 0.1408-1.804-0.166-3.315-0.166-3.315-2.452-6.99-0.3971-12.44-0.3971-12.44l-0.4223-1.325c-1.607-0.1969-2.143-1.888-2.143-1.888l-1.099-7.61c-0.1135-1.043 0.1975-1.748 0.1975-1.748" style="fill:#d7b12a;stroke-width:.02101"/>
 <path d="m33.79 24.54c-0.7921-1.353-0.3341-3.12-0.3341-3.12-0.8656 0.7142-2.257 0.602-2.257 0.602l-0.2984-1.503c-0.9413-1.015-0.07564-2.555-0.07564-2.555l-0.3761-1.053c-0.6765-2.82 2.444-3.721 2.444-3.721l2.799-0.09371 0.395-0.4694 0.3383-1.128c0.4328-0.2628 0.4685-0.9392 0.4685-0.9392-0.6555-0.1885-0.7333-0.8268-0.7333-0.8268v-0.7896c-1.689-3.236-0.1156-5.129 0.6765-5.816-0.7417 0.08972-2 0.4381-2.217 1.775 0 0-0.3656 2.706 0.2815 4.255 0 0 0.6219 1.353 0.08404 2.254 0 0-0.5064 0.648-1.803 1.071 0 0-3.213 1.184-3.748 2.565 0 0-0.311 0.7043-0.1975 1.748l1.099 7.61s0.5358 1.692 2.143 1.888l0.4223 1.325c1.361-1.917 0.8888-3.082 0.8888-3.082" style="fill:#face31;stroke-width:.02101"/>
 <path d="m35.7 53.2s-2.038-6.314-1.187-9.696c0 0 0.5673-2.763-1.238-6.877 0 0-0.7921-2.353-1.12-4.998-0.1576 2.198 0 5.139 1.151 8.419 0 0 0.3068 1.513 0.166 3.315 0 0-0.498 5.026 1.156 9.085 0 0 0.7333 3.908-1.691 5.656v0.9581l0.7585 0.407c0.7795-0.7959 2.347-2.853 2.004-6.27" style="fill:#face31;stroke-width:.02101"/>
 <path d="m37.38 59.02h-9.507v1.504h9.507v-1.504" style="fill:#face31;stroke-width:.02101"/>
 <path d="m46.9 60.51v-1.504h-9.507v1.504h9.507" style="fill:#dbb32b;stroke-width:.02101"/>
 <path d="m37.38 69.38h9.507v-7.261h-9.507v7.261" style="fill:#dbb32b;stroke-width:.02101"/>
 <path d="m37.38 62.13h-9.507v7.261h9.507v-7.261" style="fill:#face31;stroke-width:.02101"/>
 <path d="m46.9 60.51h-9.507v1.607h10.17v-1.607h-0.6576" style="fill:#382d0a;stroke-width:.02101"/>
 <path d="m27.89 60.51h-0.6576v1.607h10.17v-1.607h-9.507" style="fill:#574710;stroke-width:.02101"/>
 <path d="m46.9 69.38h-9.507v2.857h11.62v-2.857h-2.114" style="fill:#382d0a;stroke-width:.02101"/>
 <path d="m27.89 69.38h-2.114v2.857h11.62v-2.857h-9.507" style="fill:#574710;stroke-width:.02101"/>
 <path d="m13.98 29.2 2.433 4.931 5.442 0.7911-3.937 3.839 0.9308 5.421-4.868-2.559-4.868 2.559 0.9306-5.421-3.94-3.839 5.444-0.7911 2.433-4.931" style="fill:#ef5f4a;stroke-width:.02101"/>
</svg>
