<svg version="1.1" viewBox="0 0 100 100" xmlns="http://www.w3.org/2000/svg">
 <g id="statue" transform="matrix(.02802 0 0 -.02802 -267.2 127)">
  <path d="m12660 2431-231.7 121.8-231.6-121.8 44.2 258-187.4 182.7 259 37.65 18.6 37.64-905.2 1396-189.5-2132v-751.5l-353.3-317.7-121.6-46.73 84.5-130.5h1908c193.4 0 350.2 156.8 350.2 350.3v438l-446.7 689.1 2-11.71" style="fill:#dbd476"/>
  <path d="m12754 4534h-2869c-193.4 0-350.2-156.8-350.2-350.3v-2869c0-193.4 156.8-350.3 350.2-350.3h960l-84.5 130.5 121.6 46.73 353.3 317.7v751.5l189.5 2132 905.2-1396 97.2 197 115.9-234.7 259-37.65-187.4-182.7 42.2-246.2 446.7-689.1v2430c0 193.4-156.8 350.3-350.2 350.3" style="fill:#fff78b"/>
  <path d="m12053 2872 187.4-182.7-44.2-258 231.6 121.8 231.7-121.8-2 11.71-326.9 504.2-18.6-37.64-259-37.65" style="fill:#d15341"/>
  <path d="m12615 2689 187.4 182.7-259 37.65-115.9 234.7-97.2-197 326.9-504.2-42.2 246.2" style="fill:#ef5f4a"/>
  <path d="m11485 3366c37.7 64.4 15.9 148.5 15.9 148.5 41.1-33.99 107.3-28.65 107.3-28.65l14.3 71.55c44.8 48.31 3.6 121.6 3.6 121.6l17.9 50.11c32.2 134.2-116.3 177.1-116.3 177.1l-133.2 4.46-18.8 22.34-16.1 53.68c-20.6 12.51-22.4 44.7-22.4 44.7 31.3 8.97 34.9 39.35 34.9 39.35v37.58c80.5 154 5.5 244.1-32.1 276.8 35.3-4.27 95.2-20.85 105.5-84.5 0 0 17.4-128.8-13.5-202.5 0 0-29.5-64.41-4-107.3 0 0 24.2-30.84 85.9-50.98 0 0 152.9-56.34 178.4-122.1 0 0 14.7-33.52 9.4-83.18l-52.4-362.2s-25.4-80.51-101.9-89.88l-20.1-63.06c-64.9 91.22-42.3 146.7-42.3 146.7" style="fill:#a77b32"/>
  <path d="m11395 2002s97 300.5 56.5 461.5c0 0-27 131.5 58.8 327.3 0 0 37.8 112 53.4 237.9 7.5-104.6 0-244.6-54.8-400.7 0 0-14.6-71.99-8-157.8 0 0 23.7-239.2-54.9-432.4 0 0-34.9-186 80.4-269.2v-45.6l-36-19.37c-37.1 37.88-111.7 135.8-95.4 298.4" style="fill:#a77b32"/>
  <path d="m11340 4386c37.6-32.65 112.6-122.7 32.1-276.8v-37.58s-3.6-30.38-34.9-39.35c0 0 1.8-32.19 22.4-44.7l16.1-53.68 18.8-22.34 133.2-4.46s148.5-42.94 116.3-177.1l-17.9-50.11s41.2-73.3-3.6-121.6l-14.3-71.55s-66.2-5.34-107.3 28.65c0 0 21.8-84.08-15.9-148.5 0 0-22.6-55.45 42.3-146.7 0 0 27.5-73.03 35.9-191.3-15.6-126-53.4-237.9-53.4-237.9-85.8-195.9-58.8-327.3-58.8-327.3 40.5-161-56.5-461.5-56.5-461.5-16.3-162.6 58.3-260.5 95.4-298.4l-33.7-18.15h-142.2v2702s10.7 0.49 26-1.36" style="fill:#c7a526"/>
  <path d="m10936 3818c25.5 65.74 178.4 122.1 178.4 122.1 61.7 20.14 85.8 50.98 85.8 50.98 25.6 42.92-4 107.3-4 107.3-30.8 73.77-13.4 202.5-13.4 202.5 14.8 91.24 131.5 85.86 131.5 85.86v-2702h-142.2l-69.8 37.52v45.6c115.4 83.18 80.5 269.2 80.5 269.2-78.7 193.2-55 432.4-55 432.4 6.7 85.86-7.9 157.8-7.9 157.8-116.7 332.7-18.9 592-18.9 592l-20.1 63.06c-76.5 9.37-102 89.88-102 89.88l-52.3 362.2c-5.4 49.66 9.4 83.18 9.4 83.18" style="fill:#d7b12a"/>
  <path d="m11143 3366c-37.7 64.4-15.9 148.5-15.9 148.5-41.2-33.99-107.4-28.65-107.4-28.65l-14.2 71.55c-44.8 48.31-3.6 121.6-3.6 121.6l-17.9 50.11c-32.2 134.2 116.3 177.1 116.3 177.1l133.2 4.46 18.8 22.34 16.1 53.68c20.6 12.51 22.3 44.7 22.3 44.7-31.2 8.97-34.9 39.35-34.9 39.35v37.58c-80.4 154-5.5 244.1 32.2 276.8-35.3-4.27-95.2-20.85-105.5-84.5 0 0-17.4-128.8 13.4-202.5 0 0 29.6-64.41 4-107.3 0 0-24.1-30.84-85.8-50.98 0 0-152.9-56.34-178.4-122.1 0 0-14.8-33.52-9.4-83.18l52.3-362.2s25.5-80.51 102-89.88l20.1-63.06c64.8 91.22 42.3 146.7 42.3 146.7" style="fill:#face31"/>
  <path d="m11234 2002s-97 300.5-56.5 461.5c0 0 27 131.5-58.9 327.3 0 0-37.7 112-53.3 237.9-7.5-104.6 0-244.6 54.8-400.7 0 0 14.6-71.99 7.9-157.8 0 0-23.7-239.2 55-432.4 0 0 34.9-186-80.5-269.2v-45.6l36.1-19.37c37.1 37.88 111.7 135.8 95.4 298.4" style="fill:#face31"/>
  <path d="m11314 1725h-452.5v-71.58h452.5v71.58" style="fill:#face31"/>
  <path d="m11767 1654v71.58h-452.5v-71.58h452.5" style="fill:#dbb32b"/>
  <path d="m11314 1232h452.5v345.6h-452.5v-345.6" style="fill:#dbb32b"/>
  <path d="m11314 1577h-452.5v-345.6h452.5v345.6" style="fill:#face31"/>
  <path d="m11767 1654h-452.5v-76.49h483.8v76.49h-31.3" style="fill:#382d0a"/>
  <path d="m10862 1654h-31.3v-76.49h483.8v76.49h-452.5" style="fill:#574710"/>
  <path d="m11767 1232h-452.5v-136h553.1v136h-100.6" style="fill:#382d0a"/>
  <path d="m10862 1232h-100.6v-136h553.1v136h-452.5" style="fill:#574710"/>
  <path d="m10200 3144 115.8-234.7 259-37.65-187.4-182.7 44.3-258-231.7 121.8-231.7-121.8 44.29 258-187.5 182.7 259.1 37.65 115.8 234.7" style="fill:#ef5f4a"/>
 </g>
</svg>
