<svg version="1.1" viewBox="0 0 75 74.99" xmlns="http://www.w3.org/2000/svg">
 <path d="m58.43 17.78 0.3361 6.472-0.8717 3.34-9.73 5.785-9.436 2.731-6.018-1.111-13.71-21.13-3.859 3.605 0.3256 38.06-1.853 2.968-3.659 1.484 9.728 15.01h47.96c4.062 0 7.356-3.294 7.356-7.356v-33.44l-13.22-20.39-3.346 3.995" style="fill:#1b94c2;stroke-width:.02101"/>
 <path d="m7.367 74.98h12.3l-9.728-15.01 3.659-1.484 1.853-2.968-0.3256-38.06 3.859-3.605 13.71 21.13 6.018 1.111 9.436-2.731 9.73-5.785 0.8717-3.34-0.3361-6.472 3.346-3.995 13.22 20.39v-26.8c0-4.062-3.294-7.356-7.356-7.356h-60.26c-4.062 0-7.356 3.294-7.356 7.356v60.26c0 4.065 3.294 7.356 7.356 7.356" style="fill:#22b0e6;stroke-width:.02101"/>
 <g transform="matrix(.02101 0 0 -.02101 -200.3 185.6)">
  <path d="m11338 7010c-164.3-0.48-313.2 38.39-439.5 88.29-391.8 164.4-645.9 404.2-656.6 408-31.7 28.42-33.3 77.54-3.4 112.6 29.8 34.99 79.8 42.68 111.5 14.13 4.5 0.21 243.8-219.3 600.5-358.5 472.4-191.4 920.2-0.63 1328 359.8 32.6 27.57 82.5 18.61 111.5-17.09s26.2-84.61-6.4-112.2c-369.7-324.9-735.4-503.9-1046-495" style="fill:#f25953"/>
  <path d="m10338 8004v-182.6c10.5 2.18 21.1 5.22 32.1 10.37v172.2h-32.1" style="fill:#c4bf6a"/>
  <path d="m10338 7821v182.6h-114.9v-158.1c25.7-16.75 66.9-34.51 114.9-24.48" style="fill:#dbd476"/>
  <path d="m10223 7846v-1583h114.9v1559c-48-10.03-89.2 7.73-114.9 24.48" style="fill:#fff78b"/>
  <path d="m10338 6263h32.1v1569c-11-5.15-21.6-8.19-32.1-10.37v-1559" style="fill:#f6ed8c"/>
  <path d="m10110 6263v-141.3h266.6l54.6 141.3h-321.2" style="fill:#252727"/>
  <path d="m10483 6263h-51.9l-54.6-141.3h106.5v141.3" style="fill:#000000"/>
  <path d="m10507 5980h77.6v141.3h-25.8l-51.8-141.3" style="fill:#000000"/>
  <path d="m10008 6121v-141.3h499l51.8 141.3h-550.8" style="fill:#252727"/>
  <path d="m10338 7563c0-22.9-18.5-41.45-41.4-41.45s-41.4 18.55-41.4 41.45 18.5 41.45 41.4 41.45 41.4-18.55 41.4-41.45" style="fill:#000000"/>
  <path d="m10393 8221c2.2-14.16 3.6-28.53 3.6-43.31 0-121-74.6-224.4-180.3-267.2 24.2-12.21 51.5-19.23 80.4-19.23 98.9 0 179 80.14 179 179 0 63.37-33 119-82.7 150.7" style="fill:#f0e882"/>
  <path d="m10396 8177c0 14.78-1.4 29.15-3.6 43.31-27.8 17.85-60.8 28.29-96.3 28.29-98.9 0-179-80.14-179-179 0-69.92 40.2-130.3 98.6-159.8 105.7 42.78 180.3 146.2 180.3 267.2" style="fill:#fff78b"/>
  <path d="m12373 8004v-182.6c10.5 2.18 21.1 5.22 32.1 10.37v172.2h-32.1" style="fill:#c4bf6a"/>
  <path d="m12373 7821v182.6h-114.9v-158.1c25.7-16.75 66.9-34.51 114.9-24.48" style="fill:#dbd476"/>
  <path d="m12258 7846v-1583h114.9v1559c-48-10.03-89.2 7.73-114.9 24.48" style="fill:#fff78b"/>
  <path d="m12373 6263h32.1v1569c-11-5.15-21.6-8.19-32.1-10.37v-1559" style="fill:#f6ed8c"/>
  <path d="m12145 6263v-141.3h266.6l54.7 141.3h-321.3" style="fill:#252727"/>
  <path d="m12518 6263h-51.8l-54.7-141.3h106.5v141.3" style="fill:#000000"/>
  <path d="m12542 5980h77.6v141.3h-25.9l-51.7-141.3" style="fill:#000000"/>
  <path d="m12043 6121v-141.3h499l51.7 141.3h-550.7" style="fill:#252727"/>
  <path d="m12373 7563c0-22.9-18.5-41.45-41.4-41.45s-41.5 18.55-41.5 41.45 18.6 41.45 41.5 41.45 41.4-18.55 41.4-41.45" style="fill:#000000"/>
  <path d="m12428 8221c2.1-14.16 3.6-28.53 3.6-43.31 0-121-74.7-224.4-180.3-267.2 24.2-12.21 51.4-19.23 80.4-19.23 98.8 0 179 80.14 179 179 0 63.37-33 119-82.7 150.7" style="fill:#f0e882"/>
  <path d="m12432 8177c0 14.78-1.5 29.15-3.6 43.31-27.8 17.85-60.8 28.29-96.3 28.29-98.9 0-179-80.14-179-179 0-69.92 40.1-130.3 98.6-159.8 105.6 42.78 180.3 146.2 180.3 267.2" style="fill:#fff78b"/>
 </g>
</svg>
