<svg version="1.1" viewBox="0 0 72.75 100" xmlns="http://www.w3.org/2000/svg">
 <g id="runway" transform="matrix(.3738 0 0 .3738 -290.4 -241.6)">
  <path d="m809.6 646.2h129c18 0 32.8 14.7 32.8 32.8v201.9c0 18-14.7 32.8-32.8 32.8h-129c-18 0-32.8-14.7-32.8-32.8v-202c0-18 14.8-32.7 32.8-32.7" style="clip-rule:evenodd;fill-rule:evenodd;fill:#86c6df"/>
  <path d="m809.6 646.2h129c18 0 32.8 14.7 32.8 32.8v201.9c0 8.2-3.1 15.8-8.1 21.6l-178.3-245.1c6-6.9 14.8-11.2 24.6-11.2" style="clip-rule:evenodd;fill-rule:evenodd;fill:#71bdd9"/>
  <path d="m877.5 715.6c8.6 1.3 15.4 7.8 17.3 16.1l45 7.9c1.8 1.4 2 3 0 4.6h-10.9c0.2 0.7 0.3 1.5 0.3 2.2 0 5-4.1 9.1-9.1 9.1s-9.1-4.1-9.1-9.1c0-0.8 0.1-1.5 0.3-2.2h-17.5c-3.1 7.7-10.7 13.1-19.5 13.1s-16.4-5.4-19.5-13.1h-17.6c0.2 0.7 0.3 1.5 0.3 2.2 0 5-4.1 9.1-9.1 9.1s-9.1-4.1-9.1-9.1c0-0.8 0.1-1.5 0.3-2.2h-11.1c-2-1.7-1.8-3.2 0-4.6l45.4-8c1.9-8.3 8.7-14.7 17.3-16.1l1.6-14.5c0.1-0.7 0.6-1.3 1.3-1.3s1.2 0.6 1.3 1.3z" style="clip-rule:evenodd;fill-rule:evenodd;fill:#ffffff"/>
  <path d="m806.9 742.2c-0.1-0.9 0.4-1.7 1.4-2.6l45.4-8v3.8z" style="clip-rule:evenodd;fill-rule:evenodd;fill:#a01b1f"/>
  <path d="m871 715.6 1.6-14.5c0.1-0.7 0.6-1.3 1.3-1.3s1.2 0.6 1.3 1.3l2.1 14.5z" style="clip-rule:evenodd;fill-rule:evenodd;fill:#a01b1f"/>
  <polygon points="865.6 726.6 863.2 732 885 732 882.5 726.6" style="clip-rule:evenodd;fill-rule:evenodd"/>
  <polygon points="806.9 881.3 855 779.9 894.4 779.9 941.2 881.3" style="clip-rule:evenodd;fill-rule:evenodd"/>
  <rect x="871.7" y="784.3" width="4.9" height="10.2" style="clip-rule:evenodd;fill-rule:evenodd;fill:#ffffff"/>
  <rect x="871.7" y="798" width="4.9" height="17" style="clip-rule:evenodd;fill-rule:evenodd;fill:#ffffff"/>
  <rect x="871.7" y="818.5" width="4.9" height="26.3" style="clip-rule:evenodd;fill-rule:evenodd;fill:#ffffff"/>
  <rect x="871.7" y="848.4" width="4.9" height="32.9" style="clip-rule:evenodd;fill-rule:evenodd;fill:#ffffff"/>
  <path d="m874.1 737.2c3.5 0 6.3 2.8 6.3 6.3s-2.8 6.3-6.3 6.3-6.3-2.8-6.3-6.3 2.8-6.3 6.3-6.3" style="clip-rule:evenodd;fill-rule:evenodd;fill:#a01b1f"/>
  <path d="m828.3 740.2c3.5 0 6.3 2.8 6.3 6.3s-2.8 6.3-6.3 6.3-6.3-2.8-6.3-6.3 2.9-6.3 6.3-6.3" style="clip-rule:evenodd;fill-rule:evenodd;fill:#414042"/>
  <path d="m919.8 740.2c3.5 0 6.3 2.8 6.3 6.3s-2.8 6.3-6.3 6.3-6.3-2.8-6.3-6.3 2.9-6.3 6.3-6.3" style="clip-rule:evenodd;fill-rule:evenodd;fill:#414042"/>
  <path d="m941.2 742.2c0.1-0.9-0.4-1.7-1.4-2.6l-45.4-8v3.8z" style="clip-rule:evenodd;fill-rule:evenodd;fill:#a01b1f"/>
 </g>
</svg>
