<svg version="1.1" viewBox="0 0 75 68.14" xmlns="http://www.w3.org/2000/svg">
 <path d="m9.285 48.05v15.86c0 2.336 1.894 4.23 4.23 4.23h50.28c2.336 0 4.23-1.894 4.23-4.23v-15.86h-58.75" style="fill:#000000;stroke-width:.2229"/>
 <path d="m6.989 0h-2.621c-2.411 0-4.368 1.955-4.368 4.368v39.31c0 2.414 1.955 4.368 4.368 4.368h2.621v-48.05" style="fill:#000000;stroke-width:.2229"/>
 <path d="m13.83 44.71v2.474h1.747v-2.474c0-2.891-2.351-5.242-5.242-5.242h-2.476v1.747h2.476c1.927 0 3.495 1.568 3.495 3.495" style="fill:#000000;stroke-width:.2229"/>
 <path d="m12.81 51.17c0 0.4221-0.3419 0.764-0.7647 0.764-0.4221 0-0.764-0.3419-0.764-0.764 0-0.4223 0.3419-0.7649 0.764-0.7649 0.4228 0 0.7647 0.3426 0.7647 0.7649" style="fill:#fcebb2;stroke-width:.2229"/>
 <path d="m12.81 56.7c0 0.4221-0.3419 0.7647-0.7647 0.7647-0.4221 0-0.764-0.3426-0.764-0.7647s0.3419-0.7647 0.764-0.7647c0.4228 0 0.7647 0.3426 0.7647 0.7647" style="fill:#fcebb2;stroke-width:.2229"/>
 <path d="m12.81 62.25c0 0.4221-0.3419 0.764-0.7647 0.764-0.4221 0-0.764-0.3419-0.764-0.764s0.3419-0.7642 0.764-0.7642c0.4228 0 0.7647 0.3421 0.7647 0.7642" style="fill:#fcebb2;stroke-width:.2229"/>
 <path d="m66.05 51.17c0 0.4221-0.3419 0.764-0.764 0.764-0.4223 0-0.7642-0.3419-0.7642-0.764 0-0.4223 0.3419-0.7649 0.7642-0.7649 0.4221 0 0.764 0.3426 0.764 0.7649" style="fill:#fcebb2;stroke-width:.2229"/>
 <path d="m66.05 56.7c0 0.4221-0.3419 0.7647-0.764 0.7647-0.4223 0-0.7642-0.3426-0.7642-0.7647s0.3419-0.7647 0.7642-0.7647c0.4221 0 0.764 0.3426 0.764 0.7647" style="fill:#fcebb2;stroke-width:.2229"/>
 <path d="m66.05 62.25c0 0.4221-0.3419 0.764-0.764 0.764-0.4223 0-0.7642-0.3419-0.7642-0.764s0.3419-0.7642 0.7642-0.7642c0.4221 0 0.764 0.3421 0.764 0.7642" style="fill:#fcebb2;stroke-width:.2229"/>
 <path d="m73.27 52.15h-4.714v3.457h4.714c0.9548 0 1.728-0.7745 1.728-1.728 0-0.9557-0.7734-1.729-1.728-1.729" style="fill:#000000;stroke-width:.2229"/>
</svg>
