<svg version="1.1" viewBox="0 0 100 90.83" xmlns="http://www.w3.org/2000/svg">
 <g id="open-case" transform="matrix(.2971 0 0 -.2971 -32.18 256.4)">
  <path d="m150 647.3v-71.17c0-10.48 8.498-18.98 18.98-18.98h225.6c10.48 0 18.98 8.498 18.98 18.98v71.17h-263.6" style="fill:#000000"/>
  <path d="m139.7 862.9h-11.76c-10.82 0-19.6-8.772-19.6-19.6v-176.4c0-10.83 8.772-19.6 19.6-19.6h11.76v215.6" style="fill:#000000"/>
  <path d="m170.4 662.3v-11.1h7.84v11.1c0 12.97-10.55 23.52-23.52 23.52h-11.11v-7.838h11.11c8.647 0 15.68-7.034 15.68-15.68" style="fill:#000000"/>
  <path d="m165.8 633.3c0-1.894-1.534-3.428-3.431-3.428-1.894 0-3.428 1.534-3.428 3.428 0 1.895 1.534 3.432 3.428 3.432 1.897 0 3.431-1.537 3.431-3.432" style="fill:#fcebb2"/>
  <path d="m165.8 608.5c0-1.894-1.534-3.431-3.431-3.431-1.894 0-3.428 1.537-3.428 3.431s1.534 3.431 3.428 3.431c1.897 0 3.431-1.537 3.431-3.431" style="fill:#fcebb2"/>
  <path d="m165.8 583.6c0-1.894-1.534-3.428-3.431-3.428-1.894 0-3.428 1.534-3.428 3.428s1.534 3.429 3.428 3.429c1.897 0 3.431-1.535 3.431-3.429" style="fill:#fcebb2"/>
  <path d="m404.7 633.3c0-1.894-1.534-3.428-3.428-3.428-1.895 0-3.429 1.534-3.429 3.428 0 1.895 1.534 3.432 3.429 3.432 1.894 0 3.428-1.537 3.428-3.432" style="fill:#fcebb2"/>
  <path d="m404.7 608.5c0-1.894-1.534-3.431-3.428-3.431-1.895 0-3.429 1.537-3.429 3.431s1.534 3.431 3.429 3.431c1.894 0 3.428-1.537 3.428-3.431" style="fill:#fcebb2"/>
  <path d="m404.7 583.6c0-1.894-1.534-3.428-3.428-3.428-1.895 0-3.429 1.534-3.429 3.428s1.534 3.429 3.429 3.429c1.894 0 3.428-1.535 3.428-3.429" style="fill:#fcebb2"/>
  <path d="m437.1 628.9h-21.15v-15.51h21.15c4.284 0 7.754 3.475 7.754 7.753 0 4.288-3.47 7.76-7.754 7.76" style="fill:#000000"/>
 </g>
</svg>
