<svg version="1.1" viewBox="0 0 39.41 75" xmlns="http://www.w3.org/2000/svg">
 <path d="m39.41 67.94c0 2.095-1.696 3.791-3.791 3.791h-31.83c-2.093 0-3.791-1.696-3.791-3.791v-45.24c0-2.093 1.697-3.791 3.791-3.791h31.83c2.095 0 3.791 1.697 3.791 3.791v45.24" style="fill:#000000;stroke-width:.1934"/>
 <path d="m10.33 74.78c0 0.1187-0.123 0.2151-0.2754 0.2151h-1.867c-0.1509 0-0.274-0.09631-0.274-0.2151v-2.035c0-0.1189 0.1232-0.2151 0.274-0.2151h1.867c0.1524 0 0.2754 0.09612 0.2754 0.2151v2.035" style="fill:#fcebb2;stroke-width:.1934"/>
 <path d="m31.5 74.78c0 0.1187-0.1228 0.2151-0.2756 0.2151h-1.866c-0.1512 0-0.274-0.09631-0.274-0.2151v-2.035c0-0.1189 0.1228-0.2151 0.274-0.2151h1.866c0.1528 0 0.2756 0.09612 0.2756 0.2151v2.035" style="fill:#fcebb2;stroke-width:.1934"/>
 <path d="m13.19 4.813v13.58h1.679v-13.58h-1.679" style="fill:#fcebb2;stroke-width:.1934"/>
 <path d="m14.85 4.175v-0.5369c0-1.08 0.879-1.959 1.959-1.959h5.785c1.08 0 1.959 0.8792 1.959 1.959v0.5369h1.679v-0.5369c0-2.006-1.632-3.638-3.638-3.638h-5.785c-2.006 0-3.638 1.633-3.638 3.638v0.5369h1.679" style="fill:#000000;stroke-width:.1934"/>
 <path d="m24.56 4.813v13.58h1.679v-13.58h-1.679" style="fill:#fcebb2;stroke-width:.1934"/>
 <path d="m6.595 62.77c-0.5758 0-1.044-0.4663-1.044-1.044v-32.82c0-0.5773 0.4678-1.044 1.044-1.044s1.044 0.4665 1.044 1.044v32.82c0 0.5777-0.4686 1.044-1.044 1.044" style="fill:#fcebb2;stroke-width:.1934"/>
 <path d="m11.87 62.77c-0.5758 0-1.043-0.4663-1.043-1.044v-32.82c0-0.5773 0.4676-1.044 1.043-1.044 0.5763 0 1.045 0.4665 1.045 1.044v32.82c0 0.5777-0.4682 1.044-1.045 1.044" style="fill:#fcebb2;stroke-width:.1934"/>
 <path d="m17.14 62.77c-0.5763 0-1.044-0.4663-1.044-1.044v-32.82c0-0.5773 0.4676-1.044 1.044-1.044 0.5758 0 1.044 0.4665 1.044 1.044v32.82c0 0.5777-0.4682 1.044-1.044 1.044" style="fill:#fcebb2;stroke-width:.1934"/>
 <path d="m22.4 62.77c-0.5761 0-1.044-0.4663-1.044-1.044v-32.82c0-0.5773 0.4678-1.044 1.044-1.044 0.5759 0 1.045 0.4665 1.045 1.044v32.82c0 0.5777-0.4686 1.044-1.045 1.044" style="fill:#fcebb2;stroke-width:.1934"/>
 <path d="m27.56 62.77c-0.5763 0-1.044-0.4663-1.044-1.044v-32.82c0-0.5773 0.4676-1.044 1.044-1.044 0.5758 0 1.044 0.4665 1.044 1.044v32.82c0 0.5777-0.4686 1.044-1.044 1.044" style="fill:#fcebb2;stroke-width:.1934"/>
 <path d="m32.82 62.77c-0.5759 0-1.044-0.4663-1.044-1.044v-32.82c0-0.5773 0.4682-1.044 1.044-1.044 0.5756 0 1.044 0.4665 1.044 1.044v32.82c0 0.5777-0.4688 1.044-1.044 1.044" style="fill:#fcebb2;stroke-width:.1934"/>
</svg>
