<svg version="1.1" viewBox="0 0 52.56 100" xmlns="http://www.w3.org/2000/svg">
 <g id="case" transform="matrix(.2579 0 0 -.2579 -151.2 130.2)">
  <path d="m790.2 153.6c0-10.83-8.771-19.6-19.6-19.6h-164.6c-10.82 0-19.6 8.771-19.6 19.6v233.9c0 10.82 8.774 19.6 19.6 19.6h164.6c10.83 0 19.6-8.777 19.6-19.6v-233.9" style="fill:#000000"/>
  <path d="m639.8 118.2c0-0.614-0.636-1.112-1.424-1.112h-9.654c-0.78 0-1.417 0.498-1.417 1.112v10.52c0 0.615 0.637 1.112 1.417 1.112h9.654c0.788 0 1.424-0.497 1.424-1.112v-10.52" style="fill:#fcebb2"/>
  <path d="m749.3 118.2c0-0.614-0.635-1.112-1.425-1.112h-9.651c-0.782 0-1.417 0.498-1.417 1.112v10.52c0 0.615 0.635 1.112 1.417 1.112h9.651c0.79 0 1.425-0.497 1.425-1.112v-10.52" style="fill:#fcebb2"/>
  <path d="m654.6 480v-70.2h8.683v70.2h-8.683" style="fill:#fcebb2"/>
  <path d="m663.2 483.3v2.776c0 5.583 4.545 10.13 10.13 10.13h29.91c5.583 0 10.13-4.546 10.13-10.13v-2.776h8.683v2.776c0 10.37-8.438 18.81-18.81 18.81h-29.91c-10.37 0-18.81-8.443-18.81-18.81v-2.776h8.683" style="fill:#000000"/>
  <path d="m713.4 480v-70.2h8.683v70.2h-8.683" style="fill:#fcebb2"/>
  <path d="m620.5 180.3c-2.977 0-5.396 2.411-5.396 5.398v169.7c0 2.985 2.419 5.397 5.396 5.397s5.4-2.412 5.4-5.397v-169.7c0-2.987-2.423-5.398-5.4-5.398" style="fill:#fcebb2"/>
  <path d="m647.8 180.3c-2.977 0-5.395 2.411-5.395 5.398v169.7c0 2.985 2.418 5.397 5.395 5.397 2.98 0 5.401-2.412 5.401-5.397v-169.7c0-2.987-2.421-5.398-5.401-5.398" style="fill:#fcebb2"/>
  <path d="m675 180.3c-2.98 0-5.398 2.411-5.398 5.398v169.7c0 2.985 2.418 5.397 5.398 5.397 2.977 0 5.398-2.412 5.398-5.397v-169.7c0-2.987-2.421-5.398-5.398-5.398" style="fill:#fcebb2"/>
  <path d="m702.2 180.3c-2.979 0-5.398 2.411-5.398 5.398v169.7c0 2.985 2.419 5.397 5.398 5.397 2.978 0 5.401-2.412 5.401-5.397v-169.7c0-2.987-2.423-5.398-5.401-5.398" style="fill:#fcebb2"/>
  <path d="m728.9 180.3c-2.98 0-5.398 2.411-5.398 5.398v169.7c0 2.985 2.418 5.397 5.398 5.397 2.977 0 5.4-2.412 5.4-5.397v-169.7c0-2.987-2.423-5.398-5.4-5.398" style="fill:#fcebb2"/>
  <path d="m756.1 180.3c-2.978 0-5.399 2.411-5.399 5.398v169.7c0 2.985 2.421 5.397 5.399 5.397 2.976 0 5.4-2.412 5.4-5.397v-169.7c0-2.987-2.424-5.398-5.4-5.398" style="fill:#fcebb2"/>
 </g>
</svg>
