<?xml version="1.0" encoding="UTF-8" standalone="no"?>
<svg
   xmlns:dc="http://purl.org/dc/elements/1.1/"
   xmlns:cc="http://creativecommons.org/ns#"
   xmlns:rdf="http://www.w3.org/1999/02/22-rdf-syntax-ns#"
   xmlns:svg="http://www.w3.org/2000/svg"
   xmlns="http://www.w3.org/2000/svg"
   xmlns:xlink="http://www.w3.org/1999/xlink"
   xmlns:sodipodi="http://sodipodi.sourceforge.net/DTD/sodipodi-0.dtd"
   xmlns:inkscape="http://www.inkscape.org/namespaces/inkscape"
   version="1.1"
   viewBox="0 0 99.999992 100.48537"
   id="svg32"
   sodipodi:docname="i45.svg"
   width="99.999992"
   height="100.48537"
   inkscape:version="0.92.2 (5c3e80d, 2017-08-06)">
  <metadata
     id="metadata36">
    <rdf:RDF>
      <cc:Work
         rdf:about="">
        <dc:format>image/svg+xml</dc:format>
        <dc:type
           rdf:resource="http://purl.org/dc/dcmitype/StillImage" />
        <dc:title></dc:title>
      </cc:Work>
    </rdf:RDF>
  </metadata>
  <sodipodi:namedview
     pagecolor="#ffffff"
     bordercolor="#666666"
     borderopacity="1"
     objecttolerance="10"
     gridtolerance="10"
     guidetolerance="10"
     inkscape:pageopacity="0"
     inkscape:pageshadow="2"
     inkscape:window-width="2185"
     inkscape:window-height="855"
     id="namedview34"
     showgrid="false"
     fit-margin-top="0"
     fit-margin-left="0"
     fit-margin-right="0"
     fit-margin-bottom="0"
     inkscape:zoom="2.3482587"
     inkscape:cx="-6.5360328"
     inkscape:cy="40.055093"
     inkscape:window-x="25"
     inkscape:window-y="13"
     inkscape:window-maximized="0"
     inkscape:current-layer="svg32" />
  <defs
     id="defs17">
    <linearGradient
       id="linearGradientSlvr"
       x1="-1869"
       x2="-1869"
       y1="794.40002"
       y2="828"
       gradientTransform="matrix(1.301,0,0,1.301,1365,-35.3)"
       gradientUnits="userSpaceOnUse">
      <stop
         style="stop-color:#696969"
         offset="0"
         id="stop2" />
      <stop
         style="stop-color:#c7c7c9"
         offset=".17"
         id="stop4" />
      <stop
         style="stop-color:#f9f9ff"
         offset=".36"
         id="stop6" />
      <stop
         style="stop-color:#ccccce"
         offset=".73"
         id="stop8" />
      <stop
         style="stop-color:#696969"
         offset="1"
         id="stop10" />
    </linearGradient>
    <linearGradient
       inkscape:collect="always"
       xlink:href="#linearGradientSlvr"
       id="linearGradient12877-5"
       x1="1133.62"
       y1="174.86951"
       x2="1222.52"
       y2="174.86951"
       gradientUnits="userSpaceOnUse"
       gradientTransform="matrix(0.46895516,0,0,-0.46895516,-513.29018,125.75033)" />
    <linearGradient
       inkscape:collect="always"
       xlink:href="#linearGradientSlvr"
       id="linearGradient12879-9"
       x1="1157.97"
       y1="129.9044"
       x2="1271.3"
       y2="129.9044"
       gradientUnits="userSpaceOnUse"
       gradientTransform="matrix(0.46895516,0,0,-0.46895516,-513.29018,125.75033)" />
    <linearGradient
       inkscape:collect="always"
       xlink:href="#linearGradientSlvr"
       id="linearGradient12881-4"
       x1="1214.45"
       y1="201.08881"
       x2="1281.1516"
       y2="201.08881"
       gradientUnits="userSpaceOnUse"
       gradientTransform="matrix(0.46895516,0,0,-0.46895516,-513.29018,125.75033)" />
    <linearGradient
       inkscape:collect="always"
       xlink:href="#linearGradientSlvr"
       id="linearGradient12883-8"
       x1="1121.1746"
       y1="142.19299"
       x2="1227.4399"
       y2="142.19299"
       gradientUnits="userSpaceOnUse"
       gradientTransform="matrix(0.46895516,0,0,-0.46895516,-513.29018,125.75033)" />
  </defs>
  <path
     d="M 85.931346,100.48537 H 14.068655 C 6.330896,100.48537 0,94.153911 0,86.41615 V 14.069124 C 0,6.3313642 6.330896,0 14.068655,0 H 85.931346 C 93.669106,0 99.999996,6.3313642 99.999996,14.069124 V 86.41615 C 99.999996,94.153911 93.669106,100.48537 85.931346,100.48537"
     style="display:inline;fill:#5c1696;fill-opacity:1;fill-rule:nonzero;stroke:none;stroke-width:0.04689552"
     id="path21332"
     inkscape:connector-curvature="0" />
  <path
     d="M 85.931346,100.48537 H 40.550554 c -0.192272,-0.18575 -0.375164,-0.37812 -0.548678,-0.582914 -0.342338,-0.289438 -0.661226,-0.60814 -0.951978,-0.953478 -0.347027,-0.289252 -0.665917,-0.607626 -0.956669,-0.953293 -0.342338,-0.289439 -0.661227,-0.607812 -0.95198,-0.952916 -0.342336,-0.28944 -0.661226,-0.608189 -0.951978,-0.95348 -0.347027,-0.289252 -0.661227,-0.608189 -0.95198,-0.953292 -0.347027,-0.289252 -0.665915,-0.608188 -0.956667,-0.953292 -0.342338,-0.28944 -0.661228,-0.607814 -0.95198,-0.953481 -0.342338,-0.288922 -0.661227,-0.607811 -0.951978,-0.953338 -0.347027,-0.288876 -0.661227,-0.607813 -0.95198,-0.952917 -0.347027,-0.28944 -0.665916,-0.608375 -0.956669,-0.953479 -0.342336,-0.289252 -0.661226,-0.607813 -0.951978,-0.953293 -0.347027,-0.288876 -0.661227,-0.607813 -0.95198,-0.953479 -0.347027,-0.288876 -0.665915,-0.607813 -0.956667,-0.953292 -0.342338,-0.288877 -0.661228,-0.607813 -0.95198,-0.952965 C 26.313074,86.26707 25.994185,85.948134 25.703434,85.602983 25.356407,85.313731 25.042207,84.994841 24.751454,84.64969 24.404427,84.36025 24.085538,84.041878 23.794785,83.696211 23.452449,83.407334 23.133559,83.088585 22.842807,82.743294 22.500469,82.454042 22.18158,82.135105 21.890827,81.790002 21.5438,81.50075 21.224911,81.181814 20.93416,80.83671 20.591822,80.54727 20.272932,80.228334 19.98218,79.883229 19.639842,79.594354 19.320953,79.275418 19.030202,78.929751 18.683175,78.640499 18.368975,78.322078 18.078222,77.976927 17.731195,77.687581 17.412306,77.368693 17.121553,77.023542 16.779217,76.734196 16.460327,76.415775 16.169575,76.070155 15.827237,75.78081 15.508348,75.462389 15.217595,75.11677 14.33127,74.373476 13.609079,73.443537 13.107298,72.3429 c -1.617896,-3.522791 0.140686,-9.090696 3.02007,-11.986494 l 0.600264,1.338398 c 0.117238,-0.130838 0.234476,-0.263553 0.351716,-0.385013 l 0.600262,1.337929 c 0.11724,-0.130369 0.234478,-0.263084 0.356406,-0.384542 l 0.600263,1.337929 c 0.117238,-0.13037 0.229787,-0.263084 0.351716,-0.384544 l 0.600262,1.337929 c 0.11724,-0.13037 0.234478,-0.263552 0.351718,-0.384543 l 0.600262,1.33746 c 0.117238,-0.130369 0.234478,-0.263084 0.356405,-0.384542 l 0.595573,1.337927 0.11724,-0.124272 C 19.658601,62.65241 18.326768,57.616769 18.326768,52.26646 c 0,-17.807635 14.481336,-32.289908 32.278185,-32.289908 2.016507,0 3.976739,0.213375 5.890077,0.570718 l 0.759707,0.920559 c 0.06096,0.01173 0.126618,0.02063 0.192271,0.03236 l 0.759708,0.921027 c 0.06565,0.01172 0.131307,0.02063 0.192272,0.03236 l 0.759707,0.921029 c 0.06565,0.01172 0.131307,0.02016 0.19696,0.03236 l 0.755019,0.921028 c 0.06565,0.01172 0.131307,0.02016 0.196961,0.03236 l 0.759707,0.921028 c 0.06097,0.01172 0.126618,0.02017 0.192271,0.03236 l 0.759709,0.920558 c 0.06565,0.01219 0.131307,0.02063 0.192271,0.03283 l 0.759707,0.920559 c 0.06565,0.01172 0.131307,0.02063 0.196962,0.03236 l 0.755017,0.921028 c 0.06565,0.01172 0.131308,0.02016 0.196961,0.03236 l 0.759708,0.921027 c 0.06565,0.01173 0.126617,0.02017 0.192272,0.03236 l 0.759707,0.921029 c 0.06565,0.01125 0.131307,0.02016 0.19696,0.03236 l 0.755019,0.921028 c 0.06565,0.01126 0.131308,0.02017 0.196961,0.03189 l 0.759707,0.921028 c 0.06097,0.01172 0.126618,0.02017 0.192271,0.03236 l 0.135999,0.164134 2.161882,-2.55346 L 58.262991,17.53189 c 0,0 1.195835,-1.595387 3.006002,-1.595387 0.07972,0 0.159445,0.0028 0.239168,0.0094 1.932095,0.150066 13.69818,8.717409 13.69818,8.717409 0,0 5.796285,-5.186176 6.574755,-5.884919 0.46426,-0.418776 1.22397,-1.009661 2.23691,-1.009661 0.65654,0 1.41625,0.248547 2.27444,0.952917 0.31419,0.258395 0.54398,0.514913 0.70812,0.768149 0.08441,0.06049 0.16413,0.11677 0.24854,0.185238 0.3142,0.257924 0.5393,0.514912 0.70344,0.768147 0.08441,0.06003 0.16413,0.116302 0.24854,0.184769 0.3142,0.258395 0.5393,0.515381 0.70812,0.768618 0.07973,0.06003 0.15945,0.1163 0.24386,0.184768 0.3142,0.258394 0.5393,0.514913 0.70812,0.768148 0.07973,0.0605 0.16414,0.116771 0.24855,0.185237 0.3142,0.258395 0.5393,0.514914 0.70343,0.768149 0.08441,0.06003 0.16414,0.11677 0.24855,0.185238 0.3142,0.257926 0.5393,0.514912 0.70812,0.768149 0.07972,0.06003 0.15945,0.116769 0.24386,0.185236 0.3142,0.257926 0.5393,0.514914 0.70812,0.768149 0.07972,0.06003 0.16413,0.1163 0.24386,0.185237 0.3142,0.257926 0.5393,0.514444 0.70812,0.768149 0.08441,0.06003 0.16413,0.116301 0.24854,0.184769 0.31421,0.258393 0.5393,0.514912 0.70344,0.768147 0.08441,0.0605 0.16413,0.116771 0.24854,0.185238 0.3142,0.258394 0.5393,0.514912 0.70813,0.768149 0.07972,0.06003 0.15944,0.116769 0.24385,0.185237 0.3142,0.257925 0.5393,0.514913 0.70813,0.768148 0.07972,0.06003 0.16413,0.116302 0.24854,0.185237 0.3142,0.257926 0.5393,0.514445 0.70343,0.768149 0.08442,0.06003 0.16414,0.116301 0.24855,0.185238 0.3142,0.257925 0.5393,0.514443 0.70812,0.768149 0.07973,0.06003 0.15945,0.1163 0.24386,0.184767 0.3142,0.258395 0.5393,0.514914 0.70812,0.768149 0.07973,0.06049 0.16414,0.116769 0.24386,0.185237 0.14069,0.112549 0.25323,0.22416 0.36109,0.336242 V 86.41615 c 0,7.737761 -6.33089,14.06922 -14.06865,14.06922"
     style="display:inline;opacity:0.317;fill:#000000;fill-opacity:1;fill-rule:nonzero;stroke:none;stroke-width:0.04689552"
     id="path21334"
     inkscape:connector-curvature="0" />
  <path
     d="M 25.065654,65.86147 C 23.053837,62.602233 21.576628,57.605046 21.576628,52.266929 21.576628,36.251641 34.604203,23.227349 50.604953,23.227349 53.906397,23.227349 57.062465,23.80604 60.016883,24.821329 L 56.49503,20.54727 C 54.581692,20.189927 52.62146,19.976552 50.604953,19.976552 32.808104,19.976552 18.326768,34.458825 18.326768,52.266929 18.326768,58.208123 19.968112,63.768055 22.275371,67.512193 L 25.065654,65.86147"
     style="fill:url(#linearGradient12877-5);fill-opacity:1;fill-rule:nonzero;stroke:none;stroke-width:0.04689552;stroke-opacity:1"
     id="path21336"
     inkscape:connector-curvature="0" />
  <path
     d="M 78.742263,45.113018 C 79.323768,47.397299 79.647346,49.791314 79.647346,52.266929 79.647346,68.273776 66.615081,81.298161 50.604953,81.298161 43.809792,81.298161 37.567998,78.942552 32.625212,75.007034 L 29.745826,76.840649 C 35.373288,81.639045 42.651473,84.548958 50.604953,84.548958 68.40649,84.548958 82.892516,70.066591 82.892516,52.266929 82.892516,51.085162 82.812796,49.935753 82.686176,48.79244 L 78.742263,45.113018"
     style="fill:url(#linearGradient12879-9);fill-opacity:1;fill-rule:nonzero;stroke:none;stroke-width:0.04689552;stroke-opacity:1"
     id="path21338"
     inkscape:connector-curvature="0" />
  <path
     d="M 87.469516,43.429469 C 87.066216,41.510973 79.122116,30.309979 79.122116,30.309979 79.122116,30.309979 85.875066,23.791971 86.315886,23.014444 86.761396,22.244888 88.468396,20.506472 86.292446,18.721628 84.111796,16.930688 82.550176,18.088069 81.781096,18.778372 81.002626,19.477115 75.206341,24.663291 75.206341,24.663291 75.206341,24.663291 63.440256,16.095948 61.508161,15.945882 59.561996,15.795817 58.262991,17.53189 58.262991,17.53189 L 70.230726,29.597637 64.368786,36.513318 59.125868,34.982649 56.232415,36.767491 C 56.232415,36.767491 61.981804,39.274995 63.116677,40.717033 64.260926,42.160477 65.756894,46.960702 65.756894,46.960702 L 68.519039,45.508817 67.234102,39.193866 73.888577,33.896079 85.302946,46.412492 C 85.302946,46.404521 87.872816,45.350779 87.469516,43.429469"
     style="fill:url(#linearGradient12881-4);fill-opacity:1;fill-rule:nonzero;stroke:none;stroke-width:0.04689552;stroke-opacity:1"
     id="path21340"
     inkscape:connector-curvature="0" />
  <path
     d="M 60.603077,42.621459 C 59.5151,41.606171 57.794035,40.970737 57.794035,40.970737 43.495593,54.859783 25.651849,70.159914 21.773589,70.653723 20.30107,70.763459 19.372538,70.414087 19.006754,69.622021 18.589383,68.724442 18.087601,68.137779 19.142751,67.075595 L 16.127368,60.356406 C 13.247984,63.252204 11.489402,68.820109 13.107298,72.3429 14.509474,75.402832 17.548303,77.165635 21.323392,77.165635 21.632903,77.165635 21.942412,77.157663 22.256613,77.133277 29.938099,76.562558 54.858376,52.877978 62.324142,45.634965 62.324142,45.634965 61.681673,43.636748 60.603077,42.621459"
     style="fill:url(#linearGradient12883-8);fill-opacity:1;fill-rule:nonzero;stroke:none;stroke-width:0.04689552;stroke-opacity:1"
     id="path21342"
     inkscape:connector-curvature="0" />
</svg>
