<svg version="1.1" viewBox="0 0 74.64 75" xmlns="http://www.w3.org/2000/svg">
 <defs>
  <clipPath id="clipPath849">
   <path d="m28.89-7.64h68.05v-54.16h-68.05z" style="fill:#ee2190"/>
  </clipPath>
 </defs>
 <path d="m64.14 75h-53.64c-5.775 0-10.5-4.725-10.5-10.5v-54c0-5.775 4.725-10.5 10.5-10.5h53.64c5.775 0 10.5 4.725 10.5 10.5v54c0 5.775-4.725 10.5-10.5 10.5" style="fill:#f35aae"/>
 <path transform="translate(-22.3 82.64)" d="m86.44-7.64h-53.64c-5.775 0-10.5-4.725-10.5-10.5v-54c0-5.775 4.725-10.5 10.5-10.5h53.64c5.775 0 10.5 4.725 10.5 10.5v54c0 5.775-4.725 10.5-10.5 10.5" clip-path="url(#clipPath849)" style="fill:#f35aae"/>
 <path d="m42.24 44.71 7.828 8.893c0.4767 0.5418 1.254 0.7049 1.908 0.4008l1.049-0.4872c1.912-0.8887 3.038-2.903 2.793-4.998l-0.9801-8.379c-0.06055-0.5184-0.5866-0.8467-1.079-0.6731l-11.18 3.938c-0.5443 0.1915-0.7217 0.8726-0.3406 1.306zm25.53-18.19c0 10.54-50.8 22.17-54.64 22.17-2.156 0-4.603-0.497-4.603-2.485 0-0.664 0.7665-1.624 2.112-2.782l-0.0014 7e-4 -3.566-6.336c-0.4827-0.8579-0.1001-1.945 0.8138-2.31l0.6125-0.2454c1.111-0.4449 2.361-0.3784 3.418 0.1813l6.473 3.427c2.52-1.495 5.38-3.06 8.393-4.601l-12.62-8.184c-0.9979-0.6475-0.9874-2.112 0.0203-2.745l1.032-0.6482c1.718-1.079 3.805-1.398 5.767-0.8803l20.99 5.536c6.543-2.597 12.46-4.37 15.96-4.37 0.9353 0 1.872 0.02485 2.776 0.08926l-6.338 2.861-0.1516 2.132 9.783-4.497c2.345 0.5593 3.772 1.603 3.772 3.69" style="fill:#ffffff"/>
</svg>
