<svg version="1.1" viewBox="0 0 100 100.5" xmlns="http://www.w3.org/2000/svg">
 <g id="plane-top" transform="matrix(.469 0 0 -.469 -278 349.9)">
  <path d="m776.1 531.9h-153.2c-16.5 0-30 13.5-30 30v154.3c0 16.5 13.5 30 30 30h153.2c16.5 0 30-13.5 30-30v-154.3c0-16.5-13.5-30-30-30" style="fill:#55c6c1"/>
  <path d="m776.1 531.9h-86c-0.052 0.116-0.112 0.222-0.151 0.351-0.839 0.196-1.465 0.812-1.746 1.746-0.84 0.197-1.466 0.813-1.747 1.747-0.839 0.196-1.465 0.812-1.746 1.746-0.84 0.197-1.466 0.813-1.747 1.747-0.84 0.196-1.465 0.813-1.747 1.747-0.839 0.196-1.465 0.812-1.747 1.747-0.839 0.196-1.465 0.812-1.746 1.746-0.84 0.196-1.465 0.812-1.747 1.747-0.839 0.196-1.465 0.812-1.746 1.746-0.84 0.197-1.465 0.813-1.747 1.747-0.84 0.196-1.465 0.812-1.746 1.747-0.84 0.196-1.466 0.812-1.747 1.746-1.148 0.268-1.923 1.304-1.923 2.884v7.617c0 0.762 0.488 1.771 1.085 2.244l3.655 2.82c-0.165 0.229-0.289 0.495-0.38 0.782-0.834 0.252-1.469 0.877-1.747 1.746-0.834 0.253-1.468 0.878-1.747 1.747-0.834 0.253-1.468 0.877-1.747 1.747-0.833 0.252-1.468 0.877-1.746 1.746-0.834 0.253-1.468 0.878-1.747 1.747-0.833 0.252-1.468 0.878-1.746 1.746-0.834 0.253-1.469 0.878-1.747 1.747-0.834 0.253-1.468 0.878-1.747 1.747-0.834 0.252-1.468 0.877-1.746 1.747-0.834 0.252-1.468 0.877-1.747 1.746-0.834 0.252-1.468 0.878-1.746 1.747-0.834 0.252-1.469 0.877-1.747 1.746-0.834 0.253-1.468 0.878-1.746 1.747-0.835 0.253-1.469 0.877-1.747 1.747-0.834 0.252-1.468 0.877-1.747 1.746-0.834 0.253-1.468 0.878-1.747 1.747-0.833 0.252-1.468 0.877-1.746 1.746-0.834 0.253-1.468 0.878-1.747 1.747-0.834 0.253-1.468 0.877-1.746 1.746-0.834 0.253-1.469 0.878-1.747 1.747-0.834 0.253-1.468 0.878-1.747 1.747-0.834 0.252-1.468 0.877-1.746 1.746-0.834 0.253-1.468 0.878-1.747 1.747-0.834 0.252-1.468 0.878-1.746 1.747-0.835 0.252-1.469 0.877-1.747 1.746-0.834 0.253-1.468 0.878-1.747 1.747-0.834 0.253-1.468 0.877-1.747 1.747-1.128 0.341-1.913 1.359-1.913 2.741v15.69c0 0.82 0.55 1.875 1.221 2.346l58.28 40.81c0 37.4 10.48 46.64 17.63 46.64 2.542 0 5.504-1.178 8.268-4.364 0.587-0.496 1.17-1.082 1.746-1.746 0.588-0.497 1.171-1.083 1.747-1.747 0.588-0.496 1.171-1.083 1.747-1.746 0.587-0.497 1.17-1.084 1.746-1.747 0.588-0.496 1.171-1.083 1.747-1.747 0.588-0.496 1.171-1.083 1.746-1.747 0.588-0.496 1.171-1.082 1.747-1.746 0.587-0.496 1.171-1.083 1.747-1.747 0.587-0.496 1.171-1.083 1.747-1.746 0.587-0.497 1.17-1.083 1.746-1.747 0.587-0.496 1.17-1.083 1.746-1.746 0.588-0.497 1.171-1.084 1.747-1.747 0.588-0.496 1.171-1.083 1.746-1.746 0.588-0.497 1.172-1.084 1.747-1.747 0.588-0.496 1.171-1.084 1.747-1.747 0.588-0.496 1.171-1.083 1.746-1.746 0.588-0.497 1.171-1.083 1.747-1.748 0.588-0.495 1.171-1.082 1.747-1.746 0.587-0.496 1.171-1.083 1.746-1.746 0.588-0.497 1.171-1.083 1.747-1.747 0.588-0.496 1.171-1.083 1.747-1.747 0.587-0.496 1.171-1.083 1.746-1.746 0.588-0.496 1.171-1.083 1.747-1.747 0.588-0.496 1.171-1.083 1.747-1.747 0.587-0.496 1.17-1.083 1.746-1.746 0.588-0.496 1.171-1.083 1.747-1.747 0.587-0.496 1.171-1.083 1.747-1.747 0.587-0.496 1.17-1.083 1.746-1.746 0.588-0.496 1.171-1.083 1.747-1.747 0.587-0.496 1.171-1.083 1.747-1.746 0.587-0.497 1.17-1.083 1.746-1.747 0.587-0.496 1.171-1.083 1.746-1.747 0.588-0.496 1.172-1.083 1.747-1.747 0.588-0.496 1.171-1.082 1.747-1.746 0.587-0.496 1.17-1.083 1.746-1.746 0.588-0.497 1.171-1.083 1.747-1.747 0.588-0.496 1.171-1.083 1.747-1.747 0.587-0.496 1.17-1.083 1.746-1.746 0.588-0.497 1.171-1.083 1.747-1.747 0.588-0.496 1.171-1.083 1.747-1.747 0.587-0.496 1.17-1.082 1.746-1.746 0.587-0.496 1.171-1.083 1.747-1.747 0.587-0.496 1.171-1.083 1.747-1.747 0.587-0.496 1.17-1.083 1.746-1.746 0.587-0.496 1.171-1.083 1.747-1.747 0.588-0.496 1.171-1.083 1.746-1.746 0.588-0.497 1.171-1.083 1.747-1.747 0.587-0.496 1.171-1.083 1.747-1.747 0.587-0.496 1.171-1.083 1.747-1.747 0.587-0.495 1.17-1.082 1.745-1.745 0.588-0.497 1.172-1.084 1.748-1.748 0.587-0.496 1.17-1.083 1.746-1.746 0.588-0.496 1.171-1.083 1.746-1.747 0.588-0.496 1.172-1.083 1.747-1.746 0.588-0.496 1.171-1.083 1.747-1.747 0.588-0.496 1.171-1.083 1.746-1.746 0.182-0.153 0.361-0.33 0.542-0.5v-60.37c0-16.5-13.5-30-30-30" style="fill:#1cb2a2"/>
  <path d="m699.4 707.6c-3.598 0-6.987-0.792-10.01-2.165 1.08 4.204 5.14 7.341 10.01 7.341 4.875 0 8.935-3.137 10.01-7.34-3.026 1.372-6.416 2.164-10.01 2.164zm17.63-29.37c0 37.4-10.48 46.64-17.63 46.64-7.149 0-17.63-9.237-17.63-46.64l-58.28-40.81c-0.671-0.47-1.221-1.525-1.221-2.345v-15.69c0-1.964 1.568-3.221 3.485-2.796l55.7 12.37c2.111-16.56 5.686-31.38 7.967-46.6l-21.36-16.47c-0.597-0.473-1.085-1.483-1.085-2.244v-7.617c0-2.427 1.814-3.604 4.03-2.616l28.39 12.66 28.39-12.66c2.217-0.988 4.03 0.189 4.03 2.616v7.617c0 0.761-0.488 1.771-1.084 2.244l-21.36 16.47c2.281 15.22 5.856 30.04 7.966 46.6l55.7-12.37c1.916-0.425 3.485 0.833 3.485 2.796v15.69c0 0.82-0.55 1.876-1.222 2.346l-58.28 40.81" style="fill:#ffffff"/>
 </g>
</svg>
