<svg version="1.1" viewBox="0 0 74.62 75" xmlns="http://www.w3.org/2000/svg">
 <path d="m64.12 75h-53.62c-5.775 0-10.5-4.725-10.5-10.5v-54c0-5.775 4.725-10.5 10.5-10.5h53.62c5.775 0 10.5 4.725 10.5 10.5v54c0 5.775-4.725 10.5-10.5 10.5" style="fill:#55c6c1;stroke-width:.35"/>
 <path d="m64.12 75h-30.1c-0.0182-0.04059-0.0392-0.0777-0.05285-0.1228-0.2936-0.06859-0.5127-0.2842-0.6111-0.6111-0.294-0.06894-0.5131-0.2845-0.6114-0.6114-0.2936-0.0686-0.5127-0.2842-0.6111-0.6111-0.294-0.06894-0.5131-0.2845-0.6114-0.6114-0.294-0.0686-0.5127-0.2845-0.6114-0.6114-0.2936-0.0686-0.5127-0.2842-0.6114-0.6114-0.2936-0.0686-0.5127-0.2842-0.6111-0.6111-0.294-0.0686-0.5127-0.2842-0.6114-0.6114-0.2936-0.0686-0.5127-0.2842-0.6111-0.6111-0.294-0.06895-0.5127-0.2845-0.6114-0.6114-0.294-0.0686-0.5127-0.2842-0.6111-0.6114-0.294-0.0686-0.5131-0.2842-0.6114-0.6111-0.4018-0.09379-0.673-0.4564-0.673-1.009v-2.666c0-0.2667 0.1708-0.6198 0.3797-0.7853l1.279-0.9869c-0.05775-0.08014-0.1011-0.1732-0.133-0.2737-0.2919-0.08819-0.5141-0.3069-0.6114-0.6111-0.2919-0.08854-0.5138-0.3073-0.6114-0.6114-0.2919-0.08854-0.5138-0.3069-0.6114-0.6114-0.2915-0.08819-0.5138-0.3069-0.6111-0.6111-0.2919-0.08854-0.5138-0.3073-0.6114-0.6114-0.2915-0.08819-0.5138-0.3073-0.6111-0.6111-0.2919-0.08854-0.5141-0.3073-0.6114-0.6114-0.2919-0.08854-0.5138-0.3073-0.6114-0.6114-0.2919-0.08819-0.5138-0.3069-0.6111-0.6114-0.2919-0.08819-0.5138-0.3069-0.6114-0.6111-0.2919-0.08819-0.5138-0.3073-0.6111-0.6114-0.2919-0.08819-0.5141-0.3069-0.6114-0.6111-0.2919-0.08854-0.5138-0.3073-0.6111-0.6114-0.2922-0.08854-0.5141-0.3069-0.6114-0.6114-0.2919-0.08819-0.5138-0.3069-0.6114-0.6111-0.2919-0.08854-0.5138-0.3073-0.6114-0.6114-0.2915-0.08819-0.5138-0.3069-0.6111-0.6111-0.2919-0.08854-0.5138-0.3073-0.6114-0.6114-0.2919-0.08854-0.5138-0.3069-0.6111-0.6111-0.2919-0.08854-0.5141-0.3073-0.6114-0.6114-0.2919-0.08854-0.5138-0.3073-0.6114-0.6114-0.2919-0.08819-0.5138-0.3069-0.6111-0.6111-0.2919-0.08854-0.5138-0.3073-0.6114-0.6114-0.2919-0.08819-0.5138-0.3073-0.6111-0.6114-0.2922-0.08819-0.5141-0.3069-0.6114-0.6111-0.2919-0.08854-0.5138-0.3073-0.6114-0.6114-0.2919-0.08854-0.5138-0.3069-0.6114-0.6114-0.3948-0.1193-0.6695-0.4756-0.6695-0.9593v-5.491c0-0.287 0.1925-0.6562 0.4273-0.821l20.4-14.28c0-13.09 3.668-16.32 6.17-16.32 0.8896 0 1.926 0.4123 2.894 1.527 0.2054 0.1736 0.4095 0.3787 0.6111 0.6111 0.2058 0.1739 0.4098 0.379 0.6114 0.6114 0.2058 0.1736 0.4098 0.379 0.6114 0.6111 0.2054 0.1739 0.4095 0.3794 0.6111 0.6114 0.2058 0.1736 0.4098 0.379 0.6114 0.6114 0.2058 0.1736 0.4098 0.379 0.6111 0.6114 0.2058 0.1736 0.4098 0.3787 0.6114 0.6111 0.2054 0.1736 0.4098 0.379 0.6114 0.6114 0.2054 0.1736 0.4098 0.379 0.6114 0.6111 0.2054 0.1739 0.4095 0.379 0.6111 0.6114 0.2054 0.1736 0.4095 0.379 0.6111 0.6111 0.2058 0.1739 0.4098 0.3794 0.6114 0.6114 0.2058 0.1736 0.4098 0.379 0.6111 0.6111 0.2058 0.1739 0.4102 0.3794 0.6114 0.6114 0.2058 0.1736 0.4098 0.3794 0.6114 0.6114 0.2058 0.1736 0.4098 0.379 0.6111 0.6111 0.2058 0.1739 0.4098 0.379 0.6114 0.6118 0.2058 0.1732 0.4098 0.3787 0.6114 0.6111 0.2054 0.1736 0.4098 0.379 0.6111 0.6111 0.2058 0.1739 0.4098 0.379 0.6114 0.6114 0.2058 0.1736 0.4098 0.379 0.6114 0.6114 0.2054 0.1736 0.4098 0.379 0.6111 0.6111 0.2058 0.1736 0.4098 0.379 0.6114 0.6114 0.2058 0.1736 0.4098 0.379 0.6114 0.6114 0.2054 0.1736 0.4095 0.379 0.6111 0.6111 0.2058 0.1736 0.4098 0.379 0.6114 0.6114 0.2054 0.1736 0.4098 0.379 0.6114 0.6114 0.2054 0.1736 0.4095 0.379 0.6111 0.6111 0.2058 0.1736 0.4098 0.379 0.6114 0.6114 0.2054 0.1736 0.4098 0.379 0.6114 0.6111 0.2054 0.1739 0.4095 0.379 0.6111 0.6114 0.2054 0.1736 0.4098 0.379 0.6111 0.6114 0.2058 0.1736 0.4102 0.379 0.6114 0.6114 0.2058 0.1736 0.4098 0.3787 0.6114 0.6111 0.2054 0.1736 0.4095 0.379 0.6111 0.6111 0.2058 0.1739 0.4098 0.379 0.6114 0.6114 0.2058 0.1736 0.4098 0.379 0.6114 0.6114 0.2054 0.1736 0.4095 0.379 0.6111 0.6111 0.2058 0.1739 0.4098 0.379 0.6114 0.6114 0.2058 0.1736 0.4098 0.379 0.6114 0.6114 0.2054 0.1736 0.4095 0.3787 0.6111 0.6111 0.2054 0.1736 0.4098 0.379 0.6114 0.6114 0.2054 0.1736 0.4098 0.379 0.6114 0.6114 0.2054 0.1736 0.4095 0.379 0.6111 0.6111 0.2054 0.1736 0.4098 0.379 0.6114 0.6114 0.2058 0.1736 0.4098 0.379 0.6111 0.6111 0.2058 0.1739 0.4098 0.379 0.6114 0.6114 0.2054 0.1736 0.4098 0.379 0.6114 0.6114 0.2054 0.1736 0.4098 0.379 0.6114 0.6114 0.2054 0.1732 0.4095 0.3787 0.6107 0.6107 0.2058 0.1739 0.4102 0.3794 0.6118 0.6118 0.2054 0.1736 0.4095 0.379 0.6111 0.6111 0.2058 0.1736 0.4098 0.379 0.6111 0.6114 0.2058 0.1736 0.4102 0.379 0.6114 0.6111 0.2058 0.1736 0.4098 0.379 0.6114 0.6114 0.2058 0.1736 0.4098 0.379 0.6111 0.6111 0.0637 0.05355 0.1263 0.1155 0.1897 0.175v21.13c0 5.775-4.725 10.5-10.5 10.5" style="fill:#1cb2a2;stroke-width:.35"/>
 <path d="m37.27 13.51c-1.259 0-2.445 0.2772-3.503 0.7577 0.378-1.471 1.799-2.569 3.503-2.569 1.706 0 3.127 1.098 3.503 2.569-1.059-0.4802-2.245-0.7573-3.503-0.7573zm6.17 10.28c0-13.09-3.668-16.32-6.17-16.32-2.502 0-6.17 3.233-6.17 16.32l-20.4 14.28c-0.2348 0.1645-0.4273 0.5337-0.4273 0.8207v5.491c0 0.6874 0.5488 1.127 1.22 0.9785l19.49-4.329c0.7388 5.796 1.99 10.98 2.788 16.31l-7.475 5.764c-0.2089 0.1655-0.3797 0.519-0.3797 0.7853v2.666c0 0.8494 0.6349 1.261 1.41 0.9155l9.936-4.431 9.936 4.431c0.7759 0.3458 1.41-0.06614 1.41-0.9155v-2.666c0-0.2663-0.1708-0.6198-0.3794-0.7853l-7.475-5.764c0.7983-5.327 2.049-10.51 2.788-16.31l19.49 4.329c0.6706 0.1487 1.22-0.2915 1.22-0.9785v-5.491c0-0.287-0.1925-0.6566-0.4277-0.821l-20.4-14.28" style="fill:#ffffff;stroke-width:.35"/>
</svg>
