<svg version="1.1" viewBox="0 0 74.62 75" xmlns="http://www.w3.org/2000/svg">
 <path d="m64.12 75h-53.62c-5.775 0-10.5-4.725-10.5-10.5v-54c0-5.775 4.725-10.5 10.5-10.5h53.62c5.775 0 10.5 4.725 10.5 10.5v54c0 5.775-4.725 10.5-10.5 10.5" style="fill:#634f4c;stroke-width:.35"/>
 <path d="m64.12 75h-25.25c-0.105-0.1102-0.1855-0.2485-0.231-0.4168-0.35-0.1015-0.574-0.3251-0.672-0.6699-0.35-0.1015-0.5705-0.3251-0.6685-0.6702-0.35-0.1015-0.574-0.3248-0.672-0.6699-0.35-0.1015-0.5705-0.3251-0.6685-0.6702-0.35-0.1011-0.574-0.3248-0.672-0.6699-0.3465-0.1015-0.5705-0.3251-0.6685-0.6699-0.35-0.1015-0.5705-0.3251-0.6685-0.6702-0.35-0.1015-0.574-0.3248-0.672-0.6699-0.35-0.1015-0.5705-0.3251-0.6685-0.6699-0.35-0.1015-0.574-0.3251-0.672-0.6702-0.35-0.1015-0.5705-0.3248-0.6685-0.6699-0.35-0.1015-0.574-0.3251-0.672-0.6699-0.3465-0.1015-0.5705-0.3251-0.6685-0.6702-0.35-0.1015-0.574-0.3248-0.672-0.6699-0.3465-0.1015-0.5705-0.3251-0.6685-0.6702-0.35-0.1011-0.5705-0.3248-0.6685-0.6699-0.35-0.1015-0.574-0.3251-0.672-0.6699-0.35-0.1015-0.5705-0.3251-0.6685-0.6702-0.35-0.1015-0.574-0.3248-0.672-0.6699-0.35-0.1015-0.5705-0.3251-0.6685-0.6702-0.35-0.1011-0.574-0.3248-0.672-0.6699-0.3465-0.1015-0.5705-0.3251-0.6685-0.6699-0.35-0.1015-0.5705-0.3251-0.6685-0.6702-0.35-0.1011-0.574-0.3248-0.672-0.6699-0.35-0.1015-0.5705-0.3251-0.6685-0.6702-0.35-0.1011-0.574-0.3248-0.672-0.6699-0.483-0.1403-0.7315-0.5099-0.7315-1.121 0-0.3892 0.063-0.7804 0.1855-1.172-0.308-0.1134-0.4935-0.3297-0.56-0.6419l-0.105-0.0252c-0.3115-0.1127-0.497-0.3304-0.567-0.6447l-0.1015-0.02555c-0.315-0.1127-0.5005-0.3304-0.567-0.6443l-0.105-0.02555c-0.3115-0.1127-0.497-0.3304-0.5635-0.6447l-0.105-0.0252c-0.315-0.1127-0.5005-0.3304-0.567-0.6447l-0.105-0.0252c-0.3115-0.113-0.497-0.3307-0.5635-0.645l-0.105-0.0252c-0.3115-0.1127-0.497-0.3304-0.567-0.6447l-0.1015-0.0252c-0.399-0.1438-0.5985-0.4522-0.5985-0.9229v-0.05565c0-0.03465 0.028-0.1249 0.0525-0.2712l2.226-2.219c0.077-0.03675 0.175-0.09029 0.2905-0.162 0.1295-0.07454 0.21-0.1092 0.2555-0.1092h9.204c-0.175-0.03675-0.266-0.134-0.287-0.2957-0.014-0.09589-0.021-0.1799-0.0245-0.2576l-0.3465-0.1134c-0.1855-0.03465-0.2765-0.1337-0.301-0.2989-0.0105-0.09589-0.0175-0.1799-0.021-0.2579l-0.35-0.113c-0.182-0.03465-0.2765-0.134-0.2975-0.2992-0.014-0.09554-0.021-0.1795-0.0245-0.2576l-0.3465-0.113c-0.1855-0.035-0.2765-0.134-0.301-0.2992-0.0105-0.09589-0.0175-0.1799-0.021-0.2576l-0.35-0.1134c-0.182-0.03465-0.2765-0.1337-0.2975-0.2989-0.014-0.09589-0.021-0.1799-0.0245-0.2576l-0.3465-0.1134c-0.182-0.03465-0.2765-0.134-0.301-0.2992-0.0105-0.09589-0.0175-0.1799-0.021-0.2576l-0.35-0.1134c-0.182-0.03465-0.2765-0.1337-0.2975-0.2989-0.014-0.09589-0.021-0.1799-0.0245-0.2576l-0.3465-0.1134c-0.182-0.03465-0.2765-0.134-0.2975-0.2989-0.014-0.09589-0.021-0.1799-0.0245-0.2579l-0.3465-0.113c-0.1855-0.03465-0.28-0.134-0.301-0.2992-0.014-0.09554-0.0175-0.1799-0.021-0.2576l-0.35-0.113c-0.182-0.035-0.2765-0.134-0.2975-0.2992-0.014-0.09589-0.021-0.1799-0.0245-0.2576l-0.3465-0.1134c-0.1855-0.03465-0.2765-0.134-0.301-0.2992-0.0105-0.09554-0.0175-0.1799-0.021-0.2576l-0.35-0.113c-0.182-0.035-0.2765-0.134-0.2975-0.2992-0.014-0.09589-0.021-0.1799-0.0245-0.2576l-0.3465-0.1134c-0.1855-0.03465-0.2765-0.134-0.301-0.2989-0.0105-0.09589-0.0175-0.1799-0.021-0.2579l-0.35-0.113c-0.182-0.03465-0.2765-0.134-0.2975-0.2992-0.014-0.09554-0.021-0.1799-0.0245-0.2576l-0.3465-0.113c-0.182-0.035-0.2765-0.134-0.2975-0.2992-0.014-0.09589-0.021-0.1799-0.0245-0.2576l-0.3465-0.1134c-0.1855-0.03465-0.28-0.134-0.301-0.2989-0.014-0.09589-0.0175-0.1802-0.0245-0.2579l-0.3465-0.113c-0.182-0.03465-0.2765-0.134-0.2975-0.2992-0.014-0.09589-0.021-0.1799-0.0245-0.2576l-0.3465-0.1134c-0.1855-0.03465-0.2765-0.1337-0.301-0.2989-0.0105-0.09589-0.0175-0.1799-0.021-0.2576l-0.35-0.1134c-0.182-0.03465-0.2765-0.134-0.2975-0.2992-0.014-0.09554-0.021-0.1799-0.0245-0.2576l-0.3465-0.113c-0.1855-0.035-0.2765-0.134-0.301-0.2992-0.0105-0.09589-0.0175-0.1799-0.021-0.2576l-0.35-0.1134c-0.182-0.03465-0.2765-0.1337-0.2975-0.2989-0.014-0.09589-0.021-0.1799-0.0245-0.2579l-0.3465-0.113c-0.182-0.03465-0.2765-0.134-0.301-0.2992-0.0105-0.09554-0.0175-0.1799-0.021-0.2576l-0.35-0.1134c-0.182-0.03465-0.2765-0.1337-0.2975-0.2989-0.014-0.09589-0.0175-0.1799-0.0245-0.2576l-0.3465-0.1134c-0.182-0.03465-0.2765-0.1337-0.2975-0.2989-0.014-0.09589-0.021-0.1799-0.0245-0.2579l-0.3465-0.113c-0.1855-0.035-0.28-0.134-0.301-0.2992-0.014-0.09589-0.0175-0.1799-0.021-0.2576l-0.35-0.1134c-0.182-0.03465-0.273-0.1344-0.2975-0.2989-0.021-0.1624-0.028-0.2992-0.028-0.4081v-0.2621c0-0.1088 0.035-0.1991 0.1085-0.2712l1.9-1.838c0.028-0.07174 0.1085-0.1438 0.238-0.218 0.1225-0.07174 0.224-0.1088 0.2975-0.1088h33.71l8.238-8.721c0.574-0.617 1.305-1.088 2.194-1.414 0.8854-0.3248 1.739-0.4893 2.569-0.4893 0.5425 0 1.053 0.1183 1.498 0.3545 0.2765 0.1428 0.4935 0.3738 0.6685 0.6706 0.2765 0.1442 0.4935 0.3738 0.6685 0.6692l0.0035 3.5e-4c0.273 0.1442 0.4935 0.3741 0.6685 0.6699 0.2765 0.1442 0.4935 0.3741 0.6685 0.6699v3.5e-4c0.2765 0.1442 0.497 0.3741 0.672 0.6699 0.273 0.1442 0.4935 0.3741 0.6685 0.6699v3.5e-4c0.2765 0.1438 0.497 0.3738 0.672 0.6695v3.5e-4c0.273 0.1442 0.4935 0.3741 0.6685 0.6699 0.2765 0.1442 0.4935 0.3741 0.672 0.6699v3.5e-4c0.273 0.1438 0.4935 0.3738 0.6685 0.6699 0.2765 0.1442 0.4935 0.3741 0.6685 0.6699l0.0035 3.5e-4c0.273 0.1438 0.4935 0.3741 0.6685 0.6695v3.5e-4c0.273 0.1442 0.4935 0.3741 0.6685 0.6699 0.2765 0.1442 0.497 0.3741 0.672 0.6699v3.5e-4c0.273 0.1438 0.4935 0.3738 0.6685 0.6695v3.5e-4c0.2765 0.1442 0.497 0.3741 0.672 0.6699v3.5e-4c0.273 0.1438 0.4935 0.3738 0.6685 0.6695v3.5e-4c0.2765 0.1442 0.4935 0.3741 0.6685 0.6699h0.003499c0.273 0.1442 0.4935 0.3741 0.6685 0.6699v3.5e-4c0.2765 0.1438 0.4935 0.3738 0.6685 0.6695l0.0035 3.5e-4c0.0385 0.021 0.0735 0.0476 0.112 0.0721v35c0 5.775-4.725 10.5-10.5 10.5" style="fill:#483937;stroke-width:.35"/>
 <path d="m39.27 42.49h-0.056c-0.07 0.08119-0.1785 0.1183-0.322 0.1183l-7.636 7.154-0.217 10.18-2.338 2.337c-0.07 0.0721-0.2065 0.1092-0.434 0.1092-0.28 0-0.4865-0.09064-0.616-0.2712-0.126-0.1809-0.2275-0.3804-0.2975-0.5985l-1.414-5.635c-0.035-0.1809-0.126-0.3087-0.2695-0.3804-0.147-0.07174-0.2765-0.1088-0.3745-0.1088-0.3605 0-0.6615 0.1368-0.8679 0.4081-0.217 0.2712-0.4165 0.4984-0.5985 0.6699-0.616 0.5169-1.375 0.7605-2.282 0.7605-0.8224 0-1.242-0.3895-1.242-1.187 0-0.3965 0.063-0.7951 0.1925-1.194 0.126-0.399 0.315-0.742 0.5705-1.032l0.9134-1.025c0-0.0371 0.021-0.07175 0.056-0.1088 0.035-0.03465 0.0525-0.07174 0.0525-0.1183 0.112-0.1064 0.1645-0.2156 0.1645-0.3244 0-0.1368-0.0735-0.2712-0.217-0.3986-0.1365-0.1277-0.2905-0.2089-0.427-0.246l-5.803-1.412c-0.399-0.1438-0.5985-0.4522-0.5985-0.9229v-0.05565c0-0.03465 0.028-0.1249 0.0525-0.2712l2.226-2.219c0.077-0.0371 0.175-0.09029 0.2905-0.162 0.1295-0.0742 0.21-0.1092 0.2555-0.1092h9.428c0.035 0 0.119-0.02765 0.2415-0.0812 0.119-0.05565 0.21-0.1179 0.2485-0.19l6.993-7.483c0.07-0.07174 0.105-0.1991 0.105-0.3801 0-0.3615-0.1435-0.6076-0.434-0.7605l-24.12-7.853c-0.182-0.03465-0.273-0.1344-0.2975-0.2989-0.021-0.1624-0.028-0.2992-0.028-0.4081v-0.2621c0-0.1088 0.035-0.1991 0.1085-0.2712l1.9-1.838c0.028-0.07175 0.1085-0.1438 0.238-0.218 0.1225-0.07174 0.224-0.1088 0.2975-0.1088h33.71l8.238-8.721c0.574-0.617 1.305-1.088 2.194-1.414 0.8889-0.3248 1.739-0.4893 2.569-0.4893 0.5425 0 1.053 0.1183 1.498 0.3545 0.4515 0.2345 0.7699 0.6793 0.9484 1.322v0.8693c0 0.6884-0.1085 1.449-0.3255 2.281-0.217 0.8252-0.5985 1.477-1.141 1.948l-8.886 8.515c-0.1085 0.07175-0.1715 0.19-0.189 0.3454-0.0175 0.1624-0.028 0.2803-0.028 0.3524v32.19c0 0.08084-0.0175 0.2712-0.0525 0.5981-0.0385 0.3244-0.056 0.5239-0.056 0.5957 0 0.0742-0.0245 0.1554-0.0805 0.246-0.0525 0.09029-0.119 0.1529-0.189 0.19l-1.732 1.792c-0.252 0.1806-0.4515 0.2712-0.5985 0.2712-0.3605 0-0.6125-0.197-0.7594-0.596l-7.797-23.74c-0.0455-0.1809-0.126-0.3433-0.2695-0.4893-0.1575-0.1438-0.3185-0.225-0.5005-0.225" style="fill:#ffffff;stroke-width:.35"/>
</svg>
