<svg version="1.1" viewBox="0 0 100 100.5" xmlns="http://www.w3.org/2000/svg">
 <g id="plane-diag" transform="matrix(.469 0 0 -.469 -513.3 349.9)">
  <path d="m1278 531.9h-153.2c-16.5 0-30 13.5-30 30v154.3c0 16.5 13.5 30 30 30h153.2c16.5 0 30-13.5 30-30v-154.3c0-16.5-13.5-30-30-30" style="fill:#634f4c"/>
  <path d="m1278 531.9h-72.15c-0.3 0.315-0.53 0.71-0.66 1.191-1 0.29-1.64 0.929-1.92 1.914-1 0.29-1.63 0.929-1.91 1.915-1 0.29-1.64 0.928-1.92 1.914-1 0.29-1.63 0.929-1.91 1.915-1 0.289-1.64 0.928-1.92 1.914-0.99 0.29-1.63 0.929-1.91 1.914-1 0.29-1.63 0.929-1.91 1.915-1 0.29-1.64 0.928-1.92 1.914-1 0.29-1.63 0.929-1.91 1.914-1 0.29-1.64 0.929-1.92 1.915-1 0.29-1.63 0.928-1.91 1.914-1 0.29-1.64 0.929-1.92 1.914-0.99 0.29-1.63 0.929-1.91 1.915-1 0.29-1.64 0.928-1.92 1.914-0.99 0.29-1.63 0.929-1.91 1.915-1 0.289-1.63 0.928-1.91 1.914-1 0.29-1.64 0.929-1.92 1.914-1 0.29-1.63 0.929-1.91 1.915-1 0.29-1.64 0.928-1.92 1.914-1 0.29-1.63 0.929-1.91 1.915-1 0.289-1.64 0.928-1.92 1.914-0.99 0.29-1.63 0.929-1.91 1.914-1 0.29-1.63 0.929-1.91 1.915-1 0.289-1.64 0.928-1.92 1.914-1 0.29-1.63 0.929-1.91 1.915-1 0.289-1.64 0.928-1.92 1.914-1.38 0.401-2.09 1.457-2.09 3.202 0 1.112 0.18 2.23 0.53 3.348-0.88 0.324-1.41 0.942-1.6 1.834l-0.3 0.072c-0.89 0.322-1.42 0.944-1.62 1.842l-0.29 0.073c-0.9 0.322-1.43 0.944-1.62 1.841l-0.3 0.073c-0.89 0.322-1.42 0.944-1.61 1.842l-0.3 0.072c-0.9 0.322-1.43 0.944-1.62 1.842l-0.3 0.072c-0.89 0.323-1.42 0.945-1.61 1.843l-0.3 0.072c-0.89 0.322-1.42 0.944-1.62 1.842l-0.29 0.072c-1.14 0.411-1.71 1.292-1.71 2.637v0.159c0 0.099 0.08 0.357 0.15 0.775l6.36 6.34c0.22 0.105 0.5 0.258 0.83 0.463 0.37 0.213 0.6 0.312 0.73 0.312h26.3c-0.5 0.105-0.76 0.383-0.82 0.845-0.04 0.274-0.06 0.514-0.07 0.736l-0.99 0.324c-0.53 0.099-0.79 0.382-0.86 0.854-0.03 0.274-0.05 0.514-0.06 0.737l-1 0.323c-0.52 0.099-0.79 0.383-0.85 0.855-0.04 0.273-0.06 0.513-0.07 0.736l-0.99 0.323c-0.53 0.1-0.79 0.383-0.86 0.855-0.03 0.274-0.05 0.514-0.06 0.736l-1 0.324c-0.52 0.099-0.79 0.382-0.85 0.854-0.04 0.274-0.06 0.514-0.07 0.736l-0.99 0.324c-0.52 0.099-0.79 0.383-0.86 0.855-0.03 0.274-0.05 0.514-0.06 0.736l-1 0.324c-0.52 0.099-0.79 0.382-0.85 0.854-0.04 0.274-0.06 0.514-0.07 0.736l-0.99 0.324c-0.52 0.099-0.79 0.383-0.85 0.854-0.04 0.274-0.06 0.514-0.07 0.737l-0.99 0.323c-0.53 0.099-0.8 0.383-0.86 0.855-0.04 0.273-0.05 0.514-0.06 0.736l-1 0.323c-0.52 0.1-0.79 0.383-0.85 0.855-0.04 0.274-0.06 0.514-0.07 0.736l-0.99 0.324c-0.53 0.099-0.79 0.383-0.86 0.855-0.03 0.273-0.05 0.514-0.06 0.736l-1 0.323c-0.52 0.1-0.79 0.383-0.85 0.855-0.04 0.274-0.06 0.514-0.07 0.736l-0.99 0.324c-0.53 0.099-0.79 0.383-0.86 0.854-0.03 0.274-0.05 0.514-0.06 0.737l-1 0.323c-0.52 0.099-0.79 0.383-0.85 0.855-0.04 0.273-0.06 0.514-0.07 0.736l-0.99 0.323c-0.52 0.1-0.79 0.383-0.85 0.855-0.04 0.274-0.06 0.514-0.07 0.736l-0.99 0.324c-0.53 0.099-0.8 0.383-0.86 0.854-0.04 0.274-0.05 0.515-0.07 0.737l-0.99 0.323c-0.52 0.099-0.79 0.383-0.85 0.855-0.04 0.274-0.06 0.514-0.07 0.736l-0.99 0.324c-0.53 0.099-0.79 0.382-0.86 0.854-0.03 0.274-0.05 0.514-0.06 0.736l-1 0.324c-0.52 0.099-0.79 0.383-0.85 0.855-0.04 0.273-0.06 0.514-0.07 0.736l-0.99 0.323c-0.53 0.1-0.79 0.383-0.86 0.855-0.03 0.274-0.05 0.514-0.06 0.736l-1 0.324c-0.52 0.099-0.79 0.382-0.85 0.854-0.04 0.274-0.06 0.514-0.07 0.737l-0.99 0.323c-0.52 0.099-0.79 0.383-0.86 0.855-0.03 0.273-0.05 0.514-0.06 0.736l-1 0.324c-0.52 0.099-0.79 0.382-0.85 0.854-0.04 0.274-0.05 0.514-0.07 0.736l-0.99 0.324c-0.52 0.099-0.79 0.382-0.85 0.854-0.04 0.274-0.06 0.514-0.07 0.737l-0.99 0.323c-0.53 0.1-0.8 0.383-0.86 0.855-0.04 0.274-0.05 0.514-0.06 0.736l-1 0.324c-0.52 0.099-0.78 0.384-0.85 0.854-0.06 0.464-0.08 0.855-0.08 1.166v0.749c0 0.311 0.1 0.569 0.31 0.775l5.43 5.253c0.08 0.205 0.31 0.411 0.68 0.623 0.35 0.205 0.64 0.311 0.85 0.311h96.32l23.54 24.92c1.64 1.763 3.73 3.108 6.27 4.041 2.53 0.928 4.97 1.398 7.34 1.398 1.55 0 3.01-0.338 4.28-1.013 0.79-0.408 1.41-1.068 1.91-1.916 0.79-0.412 1.41-1.068 1.91-1.912l0.01-1e-3c0.78-0.412 1.41-1.069 1.91-1.914 0.79-0.412 1.41-1.069 1.91-1.914v-1e-3c0.79-0.412 1.42-1.069 1.92-1.914 0.78-0.412 1.41-1.069 1.91-1.914v-1e-3c0.79-0.411 1.42-1.068 1.92-1.913v-1e-3c0.78-0.412 1.41-1.069 1.91-1.914 0.79-0.412 1.41-1.069 1.92-1.914v-1e-3c0.78-0.411 1.41-1.068 1.91-1.914 0.79-0.412 1.41-1.069 1.91-1.914l0.01-1e-3c0.78-0.411 1.41-1.069 1.91-1.913v-1e-3c0.78-0.412 1.41-1.069 1.91-1.914 0.79-0.412 1.42-1.069 1.92-1.914v-1e-3c0.78-0.411 1.41-1.068 1.91-1.913v-1e-3c0.79-0.412 1.42-1.069 1.92-1.914v-1e-3c0.78-0.411 1.41-1.068 1.91-1.913v-1e-3c0.79-0.412 1.41-1.069 1.91-1.914h0.01c0.78-0.412 1.41-1.069 1.91-1.914v-1e-3c0.79-0.411 1.41-1.068 1.91-1.913l0.01-1e-3c0.11-0.06 0.21-0.136 0.32-0.206v-100c0-16.5-13.5-30-30-30" style="fill:#483937"/>
  <path d="m1207 624.8h-0.16c-0.2-0.232-0.51-0.338-0.92-0.338l-21.82-20.44-0.62-29.08-6.68-6.677c-0.2-0.206-0.59-0.312-1.24-0.312-0.8 0-1.39 0.259-1.76 0.775-0.36 0.517-0.65 1.087-0.85 1.71l-4.04 16.1c-0.1 0.517-0.36 0.882-0.77 1.087-0.42 0.205-0.79 0.311-1.07 0.311-1.03 0-1.89-0.391-2.48-1.166-0.62-0.775-1.19-1.424-1.71-1.914-1.76-1.477-3.93-2.173-6.52-2.173-2.35 0-3.55 1.113-3.55 3.392 0 1.133 0.18 2.272 0.55 3.411 0.36 1.14 0.9 2.12 1.63 2.948l2.61 2.929c0 0.106 0.06 0.205 0.16 0.311 0.1 0.099 0.15 0.205 0.15 0.338 0.32 0.304 0.47 0.616 0.47 0.927 0 0.391-0.21 0.775-0.62 1.139-0.39 0.365-0.83 0.597-1.22 0.703l-16.58 4.034c-1.14 0.411-1.71 1.292-1.71 2.637v0.159c0 0.099 0.08 0.357 0.15 0.775l6.36 6.34c0.22 0.106 0.5 0.258 0.83 0.463 0.37 0.212 0.6 0.312 0.73 0.312h26.94c0.1 0 0.34 0.079 0.69 0.232 0.34 0.159 0.6 0.337 0.71 0.543l19.98 21.38c0.2 0.205 0.3 0.569 0.3 1.086 0 1.033-0.41 1.736-1.24 2.173l-68.91 22.44c-0.52 0.099-0.78 0.384-0.85 0.854-0.06 0.464-0.08 0.855-0.08 1.166v0.749c0 0.311 0.1 0.569 0.31 0.775l5.43 5.253c0.08 0.205 0.31 0.411 0.68 0.623 0.35 0.205 0.64 0.311 0.85 0.311h96.32l23.54 24.92c1.64 1.763 3.73 3.108 6.27 4.041 2.54 0.928 4.97 1.398 7.34 1.398 1.55 0 3.01-0.338 4.28-1.013 1.29-0.67 2.2-1.941 2.71-3.777v-2.484c0-1.967-0.31-4.14-0.93-6.518-0.62-2.358-1.71-4.22-3.26-5.565l-25.39-24.33c-0.31-0.205-0.49-0.543-0.54-0.987-0.05-0.464-0.08-0.801-0.08-1.007v-91.97c0-0.231-0.05-0.775-0.15-1.709-0.11-0.927-0.16-1.497-0.16-1.702 0-0.212-0.07-0.444-0.23-0.703-0.15-0.258-0.34-0.437-0.54-0.543l-4.95-5.121c-0.72-0.516-1.29-0.775-1.71-0.775-1.03 0-1.75 0.563-2.17 1.703l-22.28 67.83c-0.13 0.517-0.36 0.981-0.77 1.398-0.45 0.411-0.91 0.643-1.43 0.643" style="fill:#ffffff"/>
 </g>
</svg>
