<svg version="1.1" viewBox="0 0 75 74.98" xmlns="http://www.w3.org/2000/svg" xmlns:xlink="http://www.w3.org/1999/xlink">
 <defs>
  <linearGradient id="i24a-linearGradient19435-5-8" x1=".7731" x2=".227" y1="-.419" y2=".422" gradientTransform="matrix(30.74,-19.96,19.96,30.74,326.8,90.8)" gradientUnits="userSpaceOnUse">
   <stop stop-color="#696969" offset="0"/>
   <stop stop-color="#c7c7c9" offset=".17"/>
   <stop stop-color="#f9f9ff" offset=".36"/>
   <stop stop-color="#ccccce" offset=".73"/>
   <stop stop-color="#696969" offset="1"/>
  </linearGradient>
  <linearGradient id="linearGradient14104" x1="-141.4" x2="-136.1" y1="51.68" y2="51.68" gradientTransform="matrix(.75 0 0 .75 126.4 4.642)" gradientUnits="userSpaceOnUse" xlink:href="#i24a-linearGradient19435-5-8"/>
  <linearGradient id="linearGradient14112" x1="-132.6" x2="-104.5" y1="69.22" y2="69.22" gradientTransform="matrix(.75 0 0 .75 126.4 4.642)" gradientUnits="userSpaceOnUse" xlink:href="#i24a-linearGradient19435-5-8"/>
  <linearGradient id="linearGradient14120" x1="-101" x2="-95.78" y1="51.68" y2="51.68" gradientTransform="matrix(.75 0 0 .75 126.4 4.642)" gradientUnits="userSpaceOnUse" xlink:href="#i24a-linearGradient19435-5-8"/>
  <linearGradient id="linearGradient14128" x1="-125.6" x2="-111.6" y1="34.15" y2="34.15" gradientTransform="matrix(.75 0 0 .75 126.4 4.642)" gradientUnits="userSpaceOnUse" xlink:href="#i24a-linearGradient19435-5-8"/>
  <linearGradient id="linearGradient14136" x1="-120.9" x2="-120.9" y1="39.02" y2="64.65" gradientTransform="matrix(.75 0 0 .75 126.4 4.642)" gradientUnits="userSpaceOnUse" xlink:href="#i24a-linearGradient19435-5-8"/>
  <linearGradient id="linearGradient14144" x1="-139.1" x2="-139.1" y1="67.21" y2="71.22" gradientTransform="matrix(.75 0 0 .75 126.4 4.642)" gradientUnits="userSpaceOnUse" xlink:href="#i24a-linearGradient19435-5-8"/>
  <linearGradient id="linearGradient14152" x1="-99.26" x2="-99.26" y1="66.98" y2="71.07" gradientTransform="matrix(.75 0 0 .75 126.4 4.642)" gradientUnits="userSpaceOnUse" xlink:href="#i24a-linearGradient19435-5-8"/>
  <linearGradient id="linearGradient14160" x1="-147.5" x2="-137" y1="85" y2="85" gradientTransform="matrix(.75 0 0 .75 126.4 4.642)" gradientUnits="userSpaceOnUse" xlink:href="#i24a-linearGradient19435-5-8"/>
  <linearGradient id="linearGradient14168" x1="-100.2" x2="-89.64" y1="85" y2="85" gradientTransform="matrix(.75 0 0 .75 126.4 4.642)" gradientUnits="userSpaceOnUse" xlink:href="#i24a-linearGradient19435-5-8"/>
 </defs>
 <path d="m32.22 28.94v2.629h10.52v-2.629z" style="fill:url(#linearGradient14128)"/>
 <path d="m21.7 34.2c-0.7293 0-1.315 0.5861-1.315 1.315v17.1h3.946v-18.41z" style="fill:url(#linearGradient14104)"/>
 <path d="m26.96 34.2v18.41h21.04v-18.41z" style="fill:url(#linearGradient14136)"/>
 <path d="m50.63 34.2v18.41h3.945v-17.1c0-0.7293-0.5861-1.315-1.315-1.315z" style="fill:url(#linearGradient14120)"/>
 <path d="m20.38 55.24v2.629h3.946v-2.629z" style="fill:url(#linearGradient14144)"/>
 <path d="m26.96 55.24v2.629h21.04v-2.629z" style="fill:url(#linearGradient14112)"/>
 <path d="m50.63 55.24v2.629h3.945v-2.629z" style="fill:url(#linearGradient14152)"/>
 <path d="m19.73 64.44c-2.195 0-3.946 1.752-3.946 3.946s1.752 3.945 3.946 3.945c2.195 2e-6 3.945-1.75 3.945-3.945s-1.75-3.946-3.945-3.946z" style="fill:url(#linearGradient14160)"/>
 <path d="m55.23 64.44c-2.195 0-3.945 1.752-3.945 3.946s1.75 3.945 3.945 3.945c2.195 3e-6 3.945-1.75 3.945-3.945s-1.75-3.946-3.945-3.946z" style="fill:url(#linearGradient14168)"/>
 <line x1="1.334" x2="73.67" y1="59.2" y2="59.2" stroke-miterlimit="10" style="fill:none;stroke-linecap:round;stroke-linejoin:round;stroke-miterlimit:10;stroke-width:2.63;stroke:#000000"/>
 <circle cx="19.75" cy="68.41" r="5.261" stroke-miterlimit="10" style="fill:none;stroke-linecap:round;stroke-linejoin:round;stroke-miterlimit:10;stroke-width:2.63;stroke:#000000"/>
 <circle cx="55.25" cy="68.41" r="5.261" stroke-miterlimit="10" style="fill:none;stroke-linecap:round;stroke-linejoin:round;stroke-miterlimit:10;stroke-width:2.63;stroke:#000000"/>
 <path d="m64.46 59.2h-53.92v-32.88c0-11.57 9.469-21.04 21.04-21.04h11.84c11.57 0 21.04 9.469 21.04 21.04z" stroke-miterlimit="10" style="fill:none;stroke-linecap:round;stroke-linejoin:round;stroke-miterlimit:10;stroke-width:2.63;stroke:#000000"/>
 <path d="m44.08 32.9h-13.15v-3.945c0-0.7233 0.5918-1.315 1.315-1.315h10.52c0.7233 0 1.315 0.5918 1.315 1.315z" stroke-miterlimit="10" style="fill:none;stroke-linecap:round;stroke-linejoin:round;stroke-miterlimit:10;stroke-width:2.63;stroke:#000000"/>
 <path d="m53.28 32.9h-31.56c-1.447 0-2.63 1.184-2.63 2.63v22.36c0 0.7233 0.5918 1.315 1.315 1.315h34.19c0.7233 0 1.315-0.5918 1.315-1.315v-22.36c0-1.447-1.184-2.63-2.63-2.63z" stroke-miterlimit="10" style="fill:none;stroke-linecap:round;stroke-linejoin:round;stroke-miterlimit:10;stroke-width:2.63;stroke:#000000"/>
 <line x1="37.5" x2="37.5" y1="1.334" y2="9.225" stroke-miterlimit="10" style="fill:none;stroke-linecap:round;stroke-linejoin:round;stroke-miterlimit:10;stroke-width:2.63;stroke:#000000"/>
 <line x1="25.66" x2="25.66" y1="32.9" y2="59.2" stroke-miterlimit="10" style="fill:none;stroke-linecap:round;stroke-linejoin:round;stroke-miterlimit:10;stroke-width:2.63;stroke:#000000"/>
 <line x1="49.34" x2="49.34" y1="32.9" y2="59.2" stroke-miterlimit="10" style="fill:none;stroke-linecap:round;stroke-linejoin:round;stroke-miterlimit:10;stroke-width:2.63;stroke:#000000"/>
 <line x1="19.09" x2="55.91" y1="53.94" y2="53.94" stroke-miterlimit="10" style="fill:none;stroke-linecap:round;stroke-linejoin:round;stroke-miterlimit:10;stroke-width:2.63;stroke:#000000"/>
</svg>
