<?xml version="1.0" encoding="UTF-8" standalone="no"?>
<svg xmlns:dc="http://purl.org/dc/elements/1.1/" xmlns:cc="http://creativecommons.org/ns#" xmlns:rdf="http://www.w3.org/1999/02/22-rdf-syntax-ns#" xmlns:svg="http://www.w3.org/2000/svg" xmlns="http://www.w3.org/2000/svg" xmlns:xlink="http://www.w3.org/1999/xlink" xmlns:sodipodi="http://sodipodi.sourceforge.net/DTD/sodipodi-0.dtd" xmlns:inkscape="http://www.inkscape.org/namespaces/inkscape" version="1.1" id="svg364" sodipodi:docname="i4b.svg" width="100" height="99.974968" inkscape:version="0.92.2 (5c3e80d, 2017-08-06)">
  <metadata id="metadata368">
    <rdf:RDF>
      <cc:Work rdf:about="">
        <dc:format>image/svg+xml</dc:format>
        <dc:type rdf:resource="http://purl.org/dc/dcmitype/StillImage" />
        <dc:title></dc:title>
      </cc:Work>
    </rdf:RDF>
  </metadata>
  <sodipodi:namedview pagecolor="#ffffff" bordercolor="#666666" borderopacity="1" objecttolerance="10" gridtolerance="10" guidetolerance="10" inkscape:pageopacity="0" inkscape:pageshadow="2" inkscape:window-width="2560" inkscape:window-height="1001" id="namedview366" showgrid="false" fit-margin-top="0" fit-margin-left="0" fit-margin-right="0" fit-margin-bottom="0" inkscape:zoom="3.2385751" inkscape:cx="48.498343" inkscape:cy="33.820218" inkscape:window-x="-9" inkscape:window-y="41" inkscape:window-maximized="1" inkscape:current-layer="svg364" inkscape:snap-global="false" />
  <defs id="defs4543">
    <linearGradient gradientTransform="matrix(2.6223776,0,0,2.6223776,-673.25736,-179.27914)" id="i24a-linearGradient9651" y2="80.82" xlink:href="#i24a-linearGradient19435-5-8" gradientUnits="userSpaceOnUse" x2="361.26999" y1="80.82" x1="323.17001" />
    <linearGradient id="i24a-linearGradient19435-5-8" y2="0.42195001" gradientUnits="userSpaceOnUse" y1="-0.41901001" gradientTransform="matrix(30.74,-19.96,19.96,30.74,326.8,90.8)" x2="0.22702999" x1="0.77307999">
      <stop id="i24a-stop9053" stop-color="#696969" offset="0" />
      <stop id="i24a-stop9055" stop-color="#c7c7c9" offset=".17" />
      <stop id="i24a-stop9057" stop-color="#f9f9ff" offset=".36" />
      <stop id="i24a-stop9059" stop-color="#ccccce" offset=".73" />
      <stop id="i24a-stop9061" stop-color="#696969" offset="1" />
    </linearGradient>
    <linearGradient inkscape:collect="always" xlink:href="#reslogo-linearGradient7732" id="linearGradient14104" x1="-141.36719" y1="51.680664" x2="-136.10547" y2="51.680664" gradientUnits="userSpaceOnUse" gradientTransform="translate(168.545,6.1895557)" />
    <linearGradient inkscape:collect="always" xlink:href="#reslogo-linearGradient7732" id="linearGradient14112" x1="-132.59961" y1="69.21582" x2="-104.54297" y2="69.21582" gradientUnits="userSpaceOnUse" gradientTransform="translate(168.545,6.1895557)" />
    <linearGradient inkscape:collect="always" xlink:href="#reslogo-linearGradient7732" id="linearGradient14120" x1="-101.03516" y1="51.680664" x2="-95.775391" y2="51.680664" gradientUnits="userSpaceOnUse" gradientTransform="translate(168.545,6.1895557)" />
    <linearGradient inkscape:collect="always" xlink:href="#i24a-linearGradient19435-5-8" id="linearGradient14128" x1="-125.58398" y1="34.145508" x2="-111.55664" y2="34.145508" gradientUnits="userSpaceOnUse" gradientTransform="translate(168.545,6.1895557)" />
    <linearGradient inkscape:collect="always" xlink:href="#reslogo-linearGradient7732" id="linearGradient14136" x1="-120.86605" y1="39.020775" x2="-120.86605" y2="64.64933" gradientUnits="userSpaceOnUse" gradientTransform="translate(168.545,6.1895557)" />
    <linearGradient inkscape:collect="always" xlink:href="#reslogo-linearGradient7732" id="linearGradient14144" x1="-139.12856" y1="67.208763" x2="-139.12856" y2="71.222878" gradientUnits="userSpaceOnUse" gradientTransform="translate(168.545,6.1895557)" />
    <linearGradient inkscape:collect="always" xlink:href="#reslogo-linearGradient7732" id="linearGradient14152" x1="-99.259682" y1="66.97718" x2="-99.259682" y2="71.068489" gradientUnits="userSpaceOnUse" gradientTransform="translate(168.545,6.1895557)" />
    <linearGradient inkscape:collect="always" xlink:href="#reslogo-linearGradient7732" id="linearGradient14160" x1="-147.50391" y1="84.99707" x2="-136.98242" y2="84.99707" gradientUnits="userSpaceOnUse" gradientTransform="translate(168.545,6.1895557)" />
    <linearGradient inkscape:collect="always" xlink:href="#i24a-linearGradient19435-5-8" id="linearGradient20436" x1="-195.69531" y1="-275.14456" x2="-152.73631" y2="-275.14456" gradientUnits="userSpaceOnUse" gradientTransform="matrix(2.3266951,0,0,2.3266951,455.34656,690.16604)" />
    <linearGradient id="reslogo-linearGradient4678" y2="927.0658" xlink:href="#reslogo-linearGradient7732" gradientUnits="userSpaceOnUse" x2="-488.24347" gradientTransform="matrix(1.9356804,0,0,1.94308,1024.0551,-1708.6573)" y1="927.0658" x1="-494.42389" />
    <linearGradient id="reslogo-linearGradient7732" y2="1076" gradientUnits="userSpaceOnUse" x2="-1040" gradientTransform="matrix(0.5122,0,0,0.5116,-456,447.2)" y1="884.29999" x1="-1040">
      <stop id="reslogo-stop4444" stop-color="#141414" offset="0" />
      <stop id="reslogo-stop4446" stop-color="#0a0a0a" offset=".15" />
      <stop id="reslogo-stop4448" stop-color="#6d6d6d" offset=".3" />
      <stop id="reslogo-stop4450" offset=".44" />
      <stop id="reslogo-stop4452" stop-color="#141414" offset=".62" />
      <stop id="reslogo-stop4454" stop-color="#262626" offset=".75" />
      <stop id="reslogo-stop4456" stop-color="#040404" offset="1" />
    </linearGradient>
  </defs>
  <path style="opacity:1;fill:url(#linearGradient14128);fill-opacity:1;stroke:none;stroke-width:0.31099999;stroke-linecap:round;stroke-linejoin:round;stroke-miterlimit:4;stroke-dasharray:none;stroke-dashoffset:0;stroke-opacity:1" d="M 42.961022,38.582134 V 42.087994 H 56.988362 V 38.582134 Z" id="path14090" inkscape:connector-curvature="0" />
  <path style="opacity:1;fill:url(#linearGradient14104);fill-opacity:1;stroke:none;stroke-width:0.31099999;stroke-linecap:round;stroke-linejoin:round;stroke-miterlimit:4;stroke-dasharray:none;stroke-dashoffset:0;stroke-opacity:1" d="M 28.931722,45.595806 C 27.959342,45.595806 27.177812,46.377316 27.177812,47.349712 V 70.144634 H 32.439532 V 45.595806 Z" id="path14088" inkscape:connector-curvature="0" />
  <path style="opacity:1;fill:url(#linearGradient14136);fill-opacity:1;stroke:none;stroke-width:0.31099999;stroke-linecap:round;stroke-linejoin:round;stroke-miterlimit:4;stroke-dasharray:none;stroke-dashoffset:0;stroke-opacity:1" d="M 35.945392,45.595806 V 70.144634 H 64.002032 V 45.595806 Z" id="path14086" inkscape:connector-curvature="0" />
  <path style="opacity:1;fill:url(#linearGradient14120);fill-opacity:1;stroke:none;stroke-width:0.31099999;stroke-linecap:round;stroke-linejoin:round;stroke-miterlimit:4;stroke-dasharray:none;stroke-dashoffset:0;stroke-opacity:1" d="M 67.509842,45.595806 V 70.144634 H 72.769611 V 47.349712 C 72.769611,46.377316 71.988087,45.595806 71.015705,45.595806 Z" id="path14084" inkscape:connector-curvature="0" />
  <path style="opacity:1;fill:url(#linearGradient14144);fill-opacity:1;stroke:none;stroke-width:0.31099999;stroke-linecap:round;stroke-linejoin:round;stroke-miterlimit:4;stroke-dasharray:none;stroke-dashoffset:0;stroke-opacity:1" d="M 27.177812,73.652447 V 77.158306 H 32.439532 V 73.652447 Z" id="path14082" inkscape:connector-curvature="0" />
  <path style="opacity:1;fill:url(#linearGradient14112);fill-opacity:1;stroke:none;stroke-width:0.31099999;stroke-linecap:round;stroke-linejoin:round;stroke-miterlimit:4;stroke-dasharray:none;stroke-dashoffset:0;stroke-opacity:1" d="M 35.945392,73.652447 V 77.158306 H 64.002032 V 73.652447 Z" id="path14080" inkscape:connector-curvature="0" />
  <path style="opacity:1;fill:url(#linearGradient14152);fill-opacity:1;stroke:none;stroke-width:0.31099999;stroke-linecap:round;stroke-linejoin:round;stroke-miterlimit:4;stroke-dasharray:none;stroke-dashoffset:0;stroke-opacity:1" d="M 67.509842,73.652447 V 77.158306 H 72.769611 V 73.652447 Z" id="path14078" inkscape:connector-curvature="0" />
  <path style="opacity:1;fill:url(#linearGradient14160);fill-opacity:1;stroke:none;stroke-width:0.31099999;stroke-linecap:round;stroke-linejoin:round;stroke-miterlimit:4;stroke-dasharray:none;stroke-dashoffset:0;stroke-opacity:1" d="M 26.302812,85.925884 C 23.376732,85.925884 21.041092,88.261524 21.041092,91.187603 21.041092,94.113682 23.376732,96.447368 26.302812,96.447368 29.228892,96.447371 31.562582,94.113682 31.562582,91.187603 31.562582,88.261524 29.228892,85.925884 26.302812,85.925884 Z" id="path14072" inkscape:connector-curvature="0" />
  <path style="opacity:1;fill:url(#reslogo-linearGradient4678);fill-opacity:1;stroke:none;stroke-width:3.78858552;stroke-linecap:butt;stroke-linejoin:miter;stroke-miterlimit:4;stroke-dasharray:none;stroke-dashoffset:0;stroke-opacity:1" d="M 73.646564,85.925884 C 70.720485,85.925884 68.386802,88.261524 68.386802,91.187603 68.386802,94.113682 70.720485,96.447368 73.646564,96.447368 76.572644,96.447372 78.90633,94.113682 78.90633,91.187603 78.90633,88.261524 76.572644,85.925884 73.646564,85.925884 Z" id="rect14066" inkscape:connector-curvature="0" />
  <path inkscape:connector-curvature="0" d="M 25.448737,70.165408 A 1.7541187,1.7541187 0 1 0 25.448737,73.673645 H 74.550194 A 1.7541187,1.7541187 0 1 0 74.550194,70.165408 Z M 65.756915,42.086014 A 1.7536847,1.7536847 0 0 0 64.030065,43.862864 V 78.931418 A 1.7536847,1.7536847 0 1 0 67.533742,78.931418 V 43.862864 A 1.7536847,1.7536847 0 0 0 65.756915,42.086014 Z M 34.192015,42.086014 A 1.7536847,1.7536847 0 0 0 32.465189,43.862864 V 78.931418 A 1.7541071,1.7541071 0 1 0 35.973403,78.931418 V 43.862864 A 1.7536847,1.7536847 0 0 0 34.192015,42.086014 Z M 49.974477,0.00100858 A 1.7536847,1.7536847 0 0 0 48.247627,1.7778591 V 12.297964 A 1.7536847,1.7536847 0 1 0 51.751304,12.297964 V 1.7778591 A 1.7536847,1.7536847 0 0 0 49.974477,0.00100858 Z M 28.956951,42.108745 C 26.07164,42.108745 23.699179,44.485767 23.699179,47.371078 V 77.177322 C 23.699179,79.098195 25.281959,80.685536 27.202856,80.685536 H 72.796075 C 74.716971,80.685536 76.304289,79.098195 76.304289,77.177322 V 47.371078 C 76.304289,44.485767 73.927291,42.108745 71.041956,42.108745 Z M 28.956951,45.61696 H 71.041956 C 72.014352,45.61696 72.796075,46.398683 72.796075,47.371078 V 77.177322 H 27.202856 V 47.371078 C 27.202856,46.398683 27.984579,45.61696 28.956951,45.61696 Z M 42.985294,35.096854 C 41.064421,35.096854 39.47708,36.679635 39.47708,38.600531 V 43.862864 A 1.7536847,1.7536847 0 0 0 41.231175,45.61696 H 58.767732 A 1.7536847,1.7536847 0 0 0 60.521851,43.862864 V 38.600531 C 60.521851,36.679635 58.93451,35.096854 57.013637,35.096854 Z M 42.985294,38.600531 H 57.013637 V 42.108745 H 42.985294 Z M 42.108246,5.2860732 C 25.720914,5.2860732 12.297465,18.709522 12.297465,35.096854 V 78.931418 A 1.7536847,1.7536847 0 0 0 14.051561,80.685536 H 85.94737 A 1.7536847,1.7536847 0 0 0 87.701465,78.931418 V 35.096854 C 87.701465,18.709522 74.278017,5.2860732 57.890684,5.2860732 Z M 42.108246,8.7942874 H 57.890684 C 72.365101,8.7942874 84.193251,20.622437 84.193251,35.096854 V 77.177322 H 15.805679 V 35.096854 C 15.805679,20.622437 27.633829,8.7942874 42.108246,8.7942874 Z M 73.673123,82.439632 C 68.851722,82.439632 64.902576,86.384241 64.902576,91.205642 64.902576,96.027066 68.851722,99.976189 73.673123,99.976189 78.494547,99.976189 82.439132,96.027066 82.439132,91.205642 82.439132,86.384241 78.494547,82.439632 73.673123,82.439632 Z M 73.673123,85.947869 C 76.599221,85.947869 78.930918,88.279567 78.930918,91.205642 78.930918,94.131717 76.599221,96.467975 73.673123,96.467975 70.747048,96.467975 68.410813,94.131717 68.410813,91.205642 68.410813,88.279567 70.747048,85.947869 73.673123,85.947869 Z M 26.325808,82.439632 C 21.504384,82.439632 17.559798,86.384241 17.559798,91.205642 17.559798,96.027066 21.504384,99.976189 26.325808,99.976189 31.147209,99.976189 35.096355,96.027066 35.096355,91.205642 35.096355,86.384241 31.147209,82.439632 26.325808,82.439632 Z M 26.325808,85.947869 C 29.251883,85.947869 31.588118,88.279567 31.588118,91.205642 31.588118,94.131717 29.251883,96.467975 26.325808,96.467975 23.39971,96.467975 21.068012,94.131717 21.068012,91.205642 21.068012,88.279567 23.39971,85.947869 26.325808,85.947869 Z M 1.7773366,77.177322 A 1.7541071,1.7541071 0 1 0 1.7773366,80.685536 H 98.221594 A 1.7541071,1.7541071 0 1 0 98.221594,77.177322 Z" style="color:#000000;clip-rule:nonzero;display:inline;visibility:visible;opacity:1;isolation:auto;mix-blend-mode:normal;color-interpolation:sRGB;solid-color:#000000;solid-opacity:1;fill:url(#linearGradient20436);fill-opacity:1;fill-rule:nonzero;stroke:none;stroke-width:3.5070188;stroke-linecap:round;stroke-linejoin:round;stroke-miterlimit:10;stroke-dasharray:none;stroke-dashoffset:0;stroke-opacity:1;color-rendering:auto;shape-rendering:auto" id="XMLID_1085_-0" />
</svg>
