<svg version="1.1" viewBox="0 0 75 75.02" xmlns="http://www.w3.org/2000/svg" xmlns:xlink="http://www.w3.org/1999/xlink">
 <defs>
  <linearGradient id="i24a-linearGradient19435-5-8" x1=".7731" x2=".227" y1="-.419" y2=".422" gradientTransform="matrix(30.74,-19.96,19.96,30.74,326.8,90.8)" gradientUnits="userSpaceOnUse">
   <stop stop-color="#696969" offset="0"/>
   <stop stop-color="#c7c7c9" offset=".17"/>
   <stop stop-color="#f9f9ff" offset=".36"/>
   <stop stop-color="#ccccce" offset=".73"/>
   <stop stop-color="#696969" offset="1"/>
  </linearGradient>
  <linearGradient id="linearGradient14104" x1="-141.4" x2="-136.1" y1="51.68" y2="51.68" gradientTransform="matrix(.7503 0 0 .7503 126.5 4.644)" gradientUnits="userSpaceOnUse" xlink:href="#reslogo-linearGradient7732"/>
  <linearGradient id="linearGradient14112" x1="-132.6" x2="-104.5" y1="69.22" y2="69.22" gradientTransform="matrix(.7503 0 0 .7503 126.5 4.644)" gradientUnits="userSpaceOnUse" xlink:href="#reslogo-linearGradient7732"/>
  <linearGradient id="linearGradient14120" x1="-101" x2="-95.78" y1="51.68" y2="51.68" gradientTransform="matrix(.7503 0 0 .7503 126.5 4.644)" gradientUnits="userSpaceOnUse" xlink:href="#reslogo-linearGradient7732"/>
  <linearGradient id="linearGradient14128" x1="-125.6" x2="-111.6" y1="34.15" y2="34.15" gradientTransform="matrix(.7503 0 0 .7503 126.5 4.644)" gradientUnits="userSpaceOnUse" xlink:href="#i24a-linearGradient19435-5-8"/>
  <linearGradient id="linearGradient14136" x1="-120.9" x2="-120.9" y1="39.02" y2="64.65" gradientTransform="matrix(.7503 0 0 .7503 126.5 4.644)" gradientUnits="userSpaceOnUse" xlink:href="#reslogo-linearGradient7732"/>
  <linearGradient id="linearGradient14144" x1="-139.1" x2="-139.1" y1="67.21" y2="71.22" gradientTransform="matrix(.7503 0 0 .7503 126.5 4.644)" gradientUnits="userSpaceOnUse" xlink:href="#reslogo-linearGradient7732"/>
  <linearGradient id="linearGradient14152" x1="-99.26" x2="-99.26" y1="66.98" y2="71.07" gradientTransform="matrix(.7503 0 0 .7503 126.5 4.644)" gradientUnits="userSpaceOnUse" xlink:href="#reslogo-linearGradient7732"/>
  <linearGradient id="linearGradient14160" x1="-147.5" x2="-137" y1="85" y2="85" gradientTransform="matrix(.7503 0 0 .7503 126.5 4.644)" gradientUnits="userSpaceOnUse" xlink:href="#reslogo-linearGradient7732"/>
  <linearGradient id="linearGradient20436" x1="-195.7" x2="-152.7" y1="-275.1" y2="-275.1" gradientTransform="matrix(1.746 0 0 1.746 341.7 517.9)" gradientUnits="userSpaceOnUse" xlink:href="#i24a-linearGradient19435-5-8"/>
  <linearGradient id="reslogo-linearGradient4678" x1="-494.4" x2="-488.2" y1="927.1" y2="927.1" gradientTransform="matrix(1.452 0 0 1.458 768.4 -1282)" gradientUnits="userSpaceOnUse" xlink:href="#reslogo-linearGradient7732"/>
  <linearGradient id="reslogo-linearGradient7732" x1="-1040" x2="-1040" y1="884.3" y2="1076" gradientTransform="matrix(.5122 0 0 .5116 -456 447.2)" gradientUnits="userSpaceOnUse">
   <stop stop-color="#141414" offset="0"/>
   <stop stop-color="#0a0a0a" offset=".15"/>
   <stop stop-color="#6d6d6d" offset=".3"/>
   <stop offset=".44"/>
   <stop stop-color="#141414" offset=".62"/>
   <stop stop-color="#262626" offset=".75"/>
   <stop stop-color="#040404" offset="1"/>
  </linearGradient>
 </defs>
 <path d="m32.22 28.95v2.631h10.53v-2.631z" style="fill:url(#linearGradient14128)"/>
 <path d="m21.69 34.21c-0.7296 0-1.316 0.5864-1.316 1.316v17.1h3.948v-18.42z" style="fill:url(#linearGradient14104)"/>
 <path d="m26.96 34.21v18.42h21.05v-18.42z" style="fill:url(#linearGradient14136)"/>
 <path d="m50.64 34.21v18.42h3.947v-17.1c0-0.7296-0.5864-1.316-1.316-1.316z" style="fill:url(#linearGradient14120)"/>
 <path d="m20.38 55.26v2.631h3.948v-2.631z" style="fill:url(#linearGradient14144)"/>
 <path d="m26.96 55.26v2.631h21.05v-2.631z" style="fill:url(#linearGradient14112)"/>
 <path d="m50.64 55.26v2.631h3.947v-2.631z" style="fill:url(#linearGradient14152)"/>
 <path d="m19.72 64.47c-2.196 0-3.948 1.753-3.948 3.948 0 2.196 1.753 3.947 3.948 3.947 2.196 2e-6 3.947-1.751 3.947-3.947 0-2.196-1.751-3.948-3.947-3.948z" style="fill:url(#linearGradient14160)"/>
 <path d="m55.24 64.47c-2.196 0-3.947 1.753-3.947 3.948 0 2.196 1.751 3.947 3.947 3.947 2.196 3e-6 3.947-1.751 3.947-3.947 0-2.196-1.751-3.948-3.947-3.948z" style="fill:url(#reslogo-linearGradient4678)"/>
 <path d="m19.08 52.65a1.316 1.316 0 1 0 0 2.632h36.84a1.316 1.316 0 1 0 0-2.632zm30.25-21.07a1.316 1.316 0 0 0-1.296 1.333v26.31a1.316 1.316 0 1 0 2.629 0v-26.31a1.316 1.316 0 0 0-1.333-1.333zm-23.68 0a1.316 1.316 0 0 0-1.296 1.333v26.31a1.316 1.316 0 1 0 2.632 0v-26.31a1.316 1.316 0 0 0-1.337-1.333zm11.84-31.58a1.316 1.316 0 0 0-1.296 1.333v7.894a1.316 1.316 0 1 0 2.629 0v-7.894a1.316 1.316 0 0 0-1.333-1.333zm-15.77 31.6c-2.165 0-3.945 1.784-3.945 3.949v22.37c0 1.441 1.188 2.632 2.629 2.632h34.21c1.441 0 2.632-1.191 2.632-2.632v-22.37c0-2.165-1.784-3.949-3.949-3.949zm0 2.632h31.58c0.7296 0 1.316 0.5866 1.316 1.316v22.37h-34.21v-22.37c0-0.7296 0.5866-1.316 1.316-1.316zm10.53-7.894c-1.441 0-2.632 1.188-2.632 2.629v3.949a1.316 1.316 0 0 0 1.316 1.316h13.16a1.316 1.316 0 0 0 1.316-1.316v-3.949c0-1.441-1.191-2.629-2.632-2.629zm0 2.629h10.53v2.632h-10.53zm-0.6581-25c-12.3 0-22.37 10.07-22.37 22.37v32.89a1.316 1.316 0 0 0 1.316 1.316h53.95a1.316 1.316 0 0 0 1.316-1.316v-32.89c0-12.3-10.07-22.37-22.37-22.37zm0 2.632h11.84c10.86 0 19.74 8.875 19.74 19.74v31.57h-51.31v-31.57c0-10.86 8.875-19.74 19.74-19.74zm23.68 55.26c-3.618 0-6.581 2.96-6.581 6.578 0 3.618 2.963 6.581 6.581 6.581 3.618 0 6.578-2.963 6.578-6.581 0-3.618-2.96-6.578-6.578-6.578zm0 2.632c2.196 0 3.945 1.75 3.945 3.945s-1.75 3.949-3.945 3.949c-2.196 0-3.949-1.753-3.949-3.949s1.753-3.945 3.949-3.945zm-35.53-2.632c-3.618 0-6.578 2.96-6.578 6.578 0 3.618 2.96 6.581 6.578 6.581 3.618 0 6.581-2.963 6.581-6.581 0-3.618-2.963-6.578-6.581-6.578zm0 2.632c2.196 0 3.949 1.75 3.949 3.945s-1.753 3.949-3.949 3.949c-2.196 0-3.945-1.753-3.945-3.949s1.75-3.945 3.945-3.945zm-18.42-6.581a1.316 1.316 0 1 0 0 2.632h72.37a1.316 1.316 0 1 0 0-2.632z" style="color-rendering:auto;color:#000000;fill:url(#linearGradient20436);isolation:auto;mix-blend-mode:normal;shape-rendering:auto;solid-color:#000000"/>
</svg>
