<svg version="1.1" viewBox="0 0 71.88 100" xmlns="http://www.w3.org/2000/svg">
 <g id="tix" transform="matrix(.7812 0 0 -.7812 -398.4 612.5)">
  <path d="m573 697 17 67-41.06 10.99 3.055 7.007 48-19-27-66" style="fill:#e8e7e6"/>
  <path d="m552 661-8.864 2.035 28.24 105.7 9.628-2.724-29-105" style="fill:#e8e7e6"/>
  <path d="m544.6 661.9 28.72 106.3-3.861 1.042-28.72-106.3" style="fill:#100f0d"/>
  <path d="m554.3 659.3 28.72 106.3-3.862 1.043-28.72-106.3" style="fill:#100f0d"/>
  <path d="m554.3 659.3 28.72 106.3-3.862 1.043-28.72-106.3" style="fill:#100f0d"/>
  <path d="m546.9 762.5-3.847-14c-0.292-1.065 0.334-2.166 1.399-2.459 1.065-0.292 2.166 0.334 2.458 1.399l3.847 14c0.293 1.065-0.333 2.166-1.398 2.458-1.065 0.293-2.166-0.333-2.459-1.398" style="fill:#100f0d"/>
  <path d="m553.1 760.9-2.198-8c-0.292-1.065 0.334-2.166 1.399-2.458 1.065-0.293 2.166 0.333 2.458 1.398l2.198 8c0.293 1.065-0.333 2.166-1.398 2.459-1.065 0.292-2.166-0.334-2.459-1.399" style="fill:#100f0d"/>
  <path d="m536.5 735.5-3.15-11.65h3e-3l-2.183-8.077v-3e-3l-0.1434-0.5333-0.88-3.257 3.977-6.093-5.247 1.397-0.88-3.267 14.37-3.82 0.8833 3.267-5.663 1.503 7.02 3.52 3.217 11.92-2.8 0.7433-1.547-5.723-3.293 0.8767 1.407 5.207-2.803 0.7433-1.403-5.203-2.677 0.71 1.493 5.533 1.083 4.013 11.57-3.077 0.8833 3.263-11.57 3.077 1.13 4.19zm-4.877-20.42 12.47-3.317-7.763-3.897zm-3.17-12.58c-0.5157-0.5085-0.9507-1.065-1.307-1.67-0.3543-0.5985-0.6269-1.247-0.8167-1.95-0.5694-2.108-0.3494-3.957 0.66-5.543 1.003-1.585 2.652-2.682 4.95-3.293 2.292-0.6092 4.276-0.4765 5.95 0.3967 1.667 0.8749 2.784 2.365 3.353 4.473 0.1898 0.7028 0.2819 1.403 0.2767 2.097-3e-3 0.7003-0.0996 1.397-0.29 2.093l-2.977 0.7934c0.3042-0.7332 0.4877-1.426 0.5467-2.073 0.0607-0.6416 5e-3 -1.284-0.17-1.93-0.3152-1.167-0.9864-1.97-2.013-2.41-1.027-0.4399-2.284-0.4642-3.767-0.07-1.489 0.3959-2.566 1.04-3.233 1.93-0.6677 0.8904-0.8452 1.92-0.53 3.087 0.1745 0.6463 0.4508 1.231 0.8267 1.757 0.3776 0.5318 0.8804 1.039 1.513 1.523zm-4.01-11.64-0.8767-3.24-7e-3 -0.0267-3.14-11.62 2.803-0.7467 1.133 4.2 11.57-3.077 0.88 3.267-11.57 3.077 1.127 4.16 11.57-3.077 0.88 3.267z" style="fill:#100f0d"/>
  <path d="m573.3 691 28.41 69.15c0.21 0.511 0.311 1.049 0.311 1.573-1e-3 0.831-0.248 1.629-0.696 2.307-0.447 0.678-1.108 1.24-1.915 1.567l-44.51 18.06c-0.512 0.208-1.05 0.308-1.575 0.308-0.826-1e-3 -1.622-0.242-2.302-0.685-0.68-0.441-1.248-1.098-1.579-1.905l-2.324-5.657 3.7-1.52 2.324 5.657 0.063 0.074 0.118 0.036 0.072-0.014 44.51-18.06 0.083-0.067 0.032-0.1-0.011-0.054-28.41-69.15 3.7-1.52" style="fill:#100f0d"/>
  <path d="m590.3 761.7-1.931 0.522-27.58-102.1-0.062-0.088-0.126-0.043-0.05 7e-3 -46.43 12.34-0.099 0.066-0.038 0.103 5e-3 0.035 27.58 102.1 0.062 0.089 0.125 0.043 0.05-7e-3 46.43-12.34 0.099-0.066 0.038-0.103-6e-3 -0.039 1.931-0.52 1.932-0.52c0.096 0.357 0.143 0.72 0.143 1.079-1e-3 0.932-0.313 1.812-0.854 2.524-0.54 0.712-1.326 1.265-2.255 1.511l-46.43 12.34c-0.358 0.095-0.721 0.141-1.078 0.141-0.928-1e-3 -1.806-0.306-2.522-0.841-0.715-0.533-1.276-1.316-1.527-2.248l-27.58-102.1c-0.097-0.357-0.144-0.722-0.144-1.08 1e-3 -0.931 0.312-1.812 0.854-2.524 0.539-0.712 1.325-1.265 2.255-1.511l46.43-12.34c0.357-0.095 0.72-0.141 1.077-0.141 0.928 1e-3 1.807 0.306 2.522 0.841 0.716 0.533 1.277 1.316 1.528 2.248l27.58 102.1-1.931 0.521" style="fill:#100f0d"/>
 </g>
</svg>
