<svg version="1.1" viewBox="0 0 53.94 75" xmlns="http://www.w3.org/2000/svg">
 <path d="m36.93 50.97 9.963-39.27-24.06-6.441 1.79-4.106 28.13 11.13-15.82 38.68" style="fill:#e8e7e6;stroke-width:.586"/>
 <path d="m24.62 72.06-5.195-1.193 16.55-61.95 5.642 1.596-17 61.53" style="fill:#e8e7e6;stroke-width:.586"/>
 <path d="m20.29 71.54 16.83-62.3-2.263-0.6107-16.83 62.3" style="fill:#100f0d;stroke-width:.586"/>
 <path d="m25.97 73.06 16.83-62.3-2.263-0.6112-16.83 62.3" style="fill:#100f0d;stroke-width:.586"/>
 <path d="m25.97 73.06 16.83-62.3-2.263-0.6112-16.83 62.3" style="fill:#100f0d;stroke-width:.586"/>
 <path d="m21.64 12.58-2.255 8.205c-0.1711 0.6241 0.1957 1.269 0.8199 1.441 0.6241 0.1711 1.269-0.1957 1.441-0.8199l2.255-8.205c0.1717-0.6241-0.1952-1.269-0.8193-1.441-0.6241-0.1717-1.269 0.1952-1.441 0.8193" style="fill:#100f0d;stroke-width:.586"/>
 <path d="m25.27 13.52-1.288 4.688c-0.1711 0.6241 0.1957 1.269 0.8199 1.441 0.6241 0.1717 1.269-0.1952 1.441-0.8193l1.288-4.688c0.1717-0.6241-0.1952-1.269-0.8193-1.441-0.6241-0.1711-1.269 0.1957-1.441 0.8199" style="fill:#100f0d;stroke-width:.586"/>
 <path d="m15.54 28.4-1.846 6.827h0.001759l-1.279 4.734v0.001759l-0.08404 0.3125-0.5157 1.909 2.331 3.571-3.075-0.8187-0.5157 1.915 8.422 2.239 0.5177-1.915-3.319-0.8808 4.114-2.063 1.885-6.986-1.641-0.4356-0.9066 3.354-1.93-0.5138 0.8246-3.052-1.643-0.4356-0.8222 3.049-1.569-0.4161 0.875-3.243 0.6347-2.352 6.781 1.803 0.5177-1.912-6.781-1.803 0.6622-2.456zm-2.858 11.97 7.308 1.944-4.549 2.284zm-1.858 7.372c-0.3022 0.298-0.5572 0.6241-0.766 0.9787-0.2076 0.3507-0.3674 0.7308-0.4786 1.143-0.3337 1.235-0.2048 2.319 0.3868 3.248 0.5878 0.9289 1.554 1.572 2.901 1.93 1.343 0.357 2.506 0.2793 3.487-0.2325 0.9769-0.5127 1.632-1.386 1.965-2.621 0.1112-0.4119 0.1652-0.8222 0.1622-1.229-0.001759-0.4104-0.05837-0.8187-0.17-1.227l-1.745-0.465c0.1783 0.4297 0.2858 0.8357 0.3204 1.215 0.03557 0.376 0.002931 0.7525-0.09963 1.131-0.1847 0.6839-0.5781 1.155-1.18 1.412-0.6019 0.2578-1.339 0.272-2.208 0.04102-0.8726-0.232-1.504-0.6095-1.895-1.131-0.3913-0.5218-0.4953-1.125-0.3106-1.809 0.1023-0.3788 0.2642-0.7214 0.4845-1.03 0.2213-0.3117 0.516-0.6089 0.8867-0.8925zm-2.35 6.822-0.5138 1.899-0.004103 0.01565-1.84 6.81 1.643 0.4376 0.664-2.461 6.781 1.803 0.5157-1.915-6.781-1.803 0.6605-2.438 6.781 1.803 0.5157-1.915z" style="fill:#100f0d;stroke-width:.586"/>
 <path d="m37.11 54.48 16.65-40.53c0.1231-0.2995 0.1823-0.6148 0.1823-0.9219-5.86e-4 -0.487-0.1453-0.9547-0.4079-1.352-0.262-0.3973-0.6493-0.7267-1.122-0.9183l-26.08-10.58c-0.3001-0.1219-0.6154-0.1805-0.923-0.1805-0.4841 5.86e-4 -0.9506 0.1418-1.349 0.4014-0.3985 0.2584-0.7314 0.6435-0.9254 1.116l-1.362 3.315 2.168 0.8908 1.362-3.315 0.03692-0.04337 0.06915-0.0211 0.0422 0.008204 26.08 10.58 0.04864 0.03926 0.01875 0.0586-0.006447 0.03165-16.65 40.53 2.168 0.8908" style="fill:#100f0d;stroke-width:.586"/>
 <path d="m47.07 13.05-1.132-0.3059-16.16 59.84-0.03634 0.05157-0.07384 0.0252-0.0293-0.004103-27.21-7.232-0.05802-0.03868-0.02227-0.06036 0.00293-0.02051 16.16-59.84 0.03634-0.05216 0.07326-0.0252 0.0293 0.004102 27.21 7.232 0.05802 0.03868 0.02227 0.06036-0.003517 0.02286 2.264 0.6095c0.05626-0.2092 0.0838-0.422 0.0838-0.6323-5.86e-4 -0.5462-0.1834-1.062-0.5005-1.479-0.3165-0.4173-0.7771-0.7414-1.322-0.8855l-27.21-7.232c-0.2098-0.05568-0.4225-0.08263-0.6318-0.08263-0.5439 5.86e-4 -1.058 0.1793-1.478 0.4929-0.419 0.3124-0.7478 0.7712-0.8949 1.317l-16.16 59.84c-0.05685 0.2092-0.08439 0.4231-0.08439 0.6329 5.86e-4 0.5456 0.1828 1.062 0.5005 1.479 0.3159 0.4173 0.7765 0.7414 1.322 0.8855l27.21 7.232c0.2092 0.05568 0.422 0.08263 0.6312 0.08263 0.5439-5.9e-4 1.059-0.1793 1.478-0.4929 0.4196-0.3124 0.7484-0.7712 0.8955-1.317l16.16-59.84-1.132-0.3053" style="fill:#100f0d;stroke-width:.586"/>
</svg>
