<svg version="1.1" viewBox="0 0 74.88 75" xmlns="http://www.w3.org/2000/svg" xmlns:xlink="http://www.w3.org/1999/xlink">
 <defs>
  <linearGradient id="linearGradientSlvr" x1="-1869" x2="-1869" y1="794.4" y2="828" gradientTransform="matrix(1.301,0,0,1.301,1365,-35.3)" gradientUnits="userSpaceOnUse">
   <stop style="stop-color:#696969" offset="0"/>
   <stop style="stop-color:#c7c7c9" offset=".17"/>
   <stop style="stop-color:#f9f9ff" offset=".36"/>
   <stop style="stop-color:#ccccce" offset=".73"/>
   <stop style="stop-color:#696969" offset="1"/>
  </linearGradient>
  <linearGradient id="linearGradient19483-8" x1=".6126" x2=".3477" y1="-.6297" y2=".6226" gradientTransform="matrix(32.92 -47.01 47.01 32.92 20.89 61.01)" gradientUnits="userSpaceOnUse">
   <stop style="stop-color:#1c072d" offset="0"/>
   <stop style="stop-color:#5700aa" offset=".29"/>
   <stop style="stop-color:#4b127b" offset=".64"/>
   <stop style="stop-color:#290a43" offset="1"/>
  </linearGradient>
  <linearGradient id="linearGradient7439" x1="132.7" x2="169.3" y1="80.93" y2="80.93" gradientTransform="matrix(1.965 0 0 1.965 -259.4 -121.6)" gradientUnits="userSpaceOnUse" xlink:href="#linearGradientSlvr"/>
  <linearGradient id="linearGradient864" x1="49.39" x2="49.09" y1="78.6" y2="19.46" gradientTransform="scale(.7487)" gradientUnits="userSpaceOnUse" xlink:href="#linearGradientSlvr"/>
  <linearGradient id="linearGradient866" x1=".08071" x2=".9175" y1=".2955" y2="-.2903" gradientTransform="matrix(42.3 -60.42 60.42 42.3 16.17 67.71)" gradientUnits="userSpaceOnUse" xlink:href="#linearGradientSlvr"/>
 </defs>
 <path d="m11.46 11.48c-7.209 7.252-11.47 16.42-11.46 26.02 0.1578 19.55 17.89 37.36 37.44 37.5 19.55-0.1295 37.28-17.95 37.44-37.5-0.1568-19.55-17.89-37.36-37.44-37.5 0 0.001012 0 0.001012-0.001049 0h-0.04343c-9.589 0-18.72 4.253-25.94 11.47m-3.838 26.02c-0.005915-7.769 3.28-15.14 8.982-20.87 5.713-5.715 13.07-9.006 20.83-8.998 15.89 0.07182 29.74 13.97 29.82 29.87-0.07881 15.9-13.93 29.8-29.82 29.87-15.89-0.07082-29.74-13.97-29.82-29.87" style="fill:url(#linearGradient866);stroke-width:1.011"/>
 <path d="m37.4 1.474c-9.623 0-18.67 3.748-25.47 10.55-6.804 6.804-10.55 15.85-10.55 25.47 0 19.87 16.16 36.03 36.03 36.03 19.87 0 36.03-16.16 36.03-36.03 0-19.87-16.16-36.03-36.03-36.03zm-28.69 36.03c0-7.663 2.983-14.87 8.402-20.28 5.419-5.419 12.62-8.402 20.28-8.402 15.82 0 28.69 12.87 28.69 28.69 0 15.82-12.87 28.69-28.69 28.69-15.82 0-28.69-12.87-28.69-28.69" style="fill:url(#linearGradient7439);stroke-width:1.011"/>
 <path d="m8.705 37.5c0 15.85 12.84 28.69 28.69 28.69 15.85 0 28.69-12.85 28.69-28.69 0-15.85-12.85-28.69-28.69-28.69-15.85 0-28.69 12.84-28.69 28.69" style="fill:url(#linearGradient19483-8);stroke-width:1.011"/>
 <path d="m34.45 15.7v13.67l-18.75 11.43v5.022l18.93-6.23v10.15l-4.334 3.42v3.968l6.753-2.099 6.751 2.099v-3.968l-4.379-3.42v-10.15l18.92 6.23v-5.022l-19.02-11.43v-13.58c9.73e-4 -1.676-1.235-2.508-2.463-2.508-1.212 0-2.415 0.8092-2.417 2.415" style="fill:url(#linearGradient864);stroke-width:1.011"/>
</svg>
