<?xml version="1.0" encoding="UTF-8" standalone="no"?>
<svg
   xmlns:dc="http://purl.org/dc/elements/1.1/"
   xmlns:cc="http://creativecommons.org/ns#"
   xmlns:rdf="http://www.w3.org/1999/02/22-rdf-syntax-ns#"
   xmlns:svg="http://www.w3.org/2000/svg"
   xmlns="http://www.w3.org/2000/svg"
   xmlns:xlink="http://www.w3.org/1999/xlink"
   xmlns:sodipodi="http://sodipodi.sourceforge.net/DTD/sodipodi-0.dtd"
   xmlns:inkscape="http://www.inkscape.org/namespaces/inkscape"
   version="1.1"
   viewBox="0 0 106 72.85"
   id="svg38"
   sodipodi:docname="i59.svg"
   inkscape:version="0.92.2 (5c3e80d, 2017-08-06)">
  <metadata
     id="metadata42">
    <rdf:RDF>
      <cc:Work
         rdf:about="">
        <dc:format>image/svg+xml</dc:format>
        <dc:type
           rdf:resource="http://purl.org/dc/dcmitype/StillImage" />
        <dc:title></dc:title>
      </cc:Work>
    </rdf:RDF>
  </metadata>
  <sodipodi:namedview
     pagecolor="#ffffff"
     bordercolor="#666666"
     borderopacity="1"
     objecttolerance="10"
     gridtolerance="10"
     guidetolerance="10"
     inkscape:pageopacity="0"
     inkscape:pageshadow="2"
     inkscape:window-width="2560"
     inkscape:window-height="1018"
     id="namedview40"
     showgrid="false"
     inkscape:zoom="2.6792453"
     inkscape:cx="6.5316901"
     inkscape:cy="36.424999"
     inkscape:window-x="-8"
     inkscape:window-y="-8"
     inkscape:window-maximized="1"
     inkscape:current-layer="svg38" />
  <defs
     id="defs18">
    <linearGradient
       id="linearGradientSlvr"
       x1="-1869"
       x2="-1869"
       y1="794.4"
       y2="828"
       gradientTransform="matrix(1.301,0,0,1.301,1365,-35.3)"
       gradientUnits="userSpaceOnUse">
      <stop
         style="stop-color:#696969"
         offset="0"
         id="stop2" />
      <stop
         style="stop-color:#c7c7c9"
         offset=".17"
         id="stop4" />
      <stop
         style="stop-color:#f9f9ff"
         offset=".36"
         id="stop6" />
      <stop
         style="stop-color:#ccccce"
         offset=".73"
         id="stop8" />
      <stop
         style="stop-color:#696969"
         offset="1"
         id="stop10" />
    </linearGradient>
    <linearGradient
       id="linearGradient5355"
       x1="-178"
       x2="-161.5"
       y1="-234"
       y2="-234"
       gradientUnits="userSpaceOnUse"
       xlink:href="#linearGradientSlvr"
       gradientTransform="matrix(2.197,0,0,2.197,434.2,573)" />
    <linearGradient
       id="linearGradient5363"
       x1="-184.67445"
       x2="-184.43292"
       y1="-260.20395"
       y2="-242.19604"
       gradientUnits="userSpaceOnUse"
       xlink:href="#linearGradientSlvr"
       gradientTransform="matrix(2.197,0,0,2.197,434.2,573)" />
    <linearGradient
       id="linearGradient5371"
       x1="-197.7"
       x2="-167.1"
       y1="-242.7"
       y2="-242.7"
       gradientUnits="userSpaceOnUse"
       xlink:href="#linearGradientSlvr"
       gradientTransform="matrix(2.197,0,0,2.197,434.2,573)" />
    <linearGradient
       id="linearGradient5379"
       x1="-168.3"
       x2="-149.4"
       y1="-249.2"
       y2="-249.2"
       gradientUnits="userSpaceOnUse"
       xlink:href="#linearGradientSlvr"
       gradientTransform="matrix(2.197,0,0,2.197,434.2,573)" />
    <linearGradient
       id="linearGradient5387"
       x1="-193.1"
       x2="-160.2"
       y1="-244.3"
       y2="-244.3"
       gradientUnits="userSpaceOnUse"
       xlink:href="#linearGradientSlvr"
       gradientTransform="matrix(2.197,0,0,2.197,434.2,573)" />
  </defs>
  <path
     inkscape:connector-curvature="0"
     id="path20"
     style="fill:#290a43;stroke-width:0.8278296"
     d="m 87.7331,43.7427 4.633473,-2.669355 2.851706,-19.529133 5.903341,-3.403153 c 1.10773,-0.638229 3.77444,-4.618094 2.82973,-6.248268 -0.94471,-1.630833 -5.731969,-1.318859 -6.839257,-0.680631 L 91.208754,14.615313 72.839637,7.3168794 68.206164,9.9862344 82.68,19.530002 l -7.212751,4.156724 -5.171738,-1.731016 -4.229225,2.436473 6.867822,5.373862 1.228562,8.623225 4.229225,-2.436473 1.08444,-5.336513 7.212751,-4.156724 z" />
  <path
     inkscape:connector-curvature="0"
     id="path22"
     style="fill:#290a43;stroke-width:0.8278296"
     d="M 50.3841,15.6211 C 51.350341,12.033399 41.139124,7.894251 49.55627,2.375387 L 49.431261,1.7088172 c -1.051484,-0.096009 -2.111097,-0.1614795 -3.18565,-0.1614795 -13.51155,0 -25.22156,7.71147 -30.9777,18.9710953 l 0.338558,0.07118 c 4.690595,-4.000737 16.673033,3.649217 12.417444,9.934834 -6.070311,8.968154 1.409156,9.618466 8.278296,9.106565 3.726112,-0.413914 8.232159,-2.168219 6.623955,-10.763103 -1.397512,-7.463209 6.485544,-9.658012 7.450027,-13.245713 z" />
  <path
     inkscape:connector-curvature="0"
     id="path24"
     style="fill:#290a43;stroke:#290a43;stroke-width:0.8278296"
     d="m 77.6269,51.2125 c -3.897478,4.224831 -7.283055,1.961262 -9.853545,-1.738486 -2.588066,-3.726112 -7.243509,-4.139148 -9.934834,1.655659 -2.691325,5.795686 -5.483712,0.413915 -10.763103,8.278296 -5.07507,7.564271 -0.389968,11.299171 -0.02483,11.571599 13.493974,-0.307141 25.08974,-8.295872 30.58224,-19.768606 z" />
  <path
     style="color:#000000;font-style:normal;font-variant:normal;font-weight:normal;font-stretch:normal;font-size:medium;line-height:normal;font-family:sans-serif;font-variant-ligatures:normal;font-variant-position:normal;font-variant-caps:normal;font-variant-numeric:normal;font-variant-alternates:normal;font-feature-settings:normal;text-indent:0;text-align:start;text-decoration:none;text-decoration-line:none;text-decoration-style:solid;text-decoration-color:#000000;letter-spacing:normal;word-spacing:normal;text-transform:none;writing-mode:lr-tb;direction:ltr;text-orientation:mixed;dominant-baseline:auto;baseline-shift:baseline;text-anchor:start;white-space:normal;shape-padding:0;clip-rule:nonzero;display:inline;overflow:visible;visibility:visible;opacity:1;isolation:auto;mix-blend-mode:normal;color-interpolation:sRGB;color-interpolation-filters:linearRGB;solid-color:#000000;solid-opacity:1;vector-effect:none;fill:url(#linearGradient5387);fill-opacity:1;fill-rule:nonzero;stroke:none;stroke-width:3.31087899;stroke-linecap:round;stroke-linejoin:round;stroke-miterlimit:10;stroke-dasharray:none;stroke-dashoffset:0;stroke-opacity:1;color-rendering:auto;image-rendering:auto;shape-rendering:auto;text-rendering:auto;enable-background:accumulate"
     d="m 46.408203,-0.24804688 c -20.104929,0 -36.4355468,16.32866388 -36.4355468,36.43359388 0,20.105308 16.3369018,36.433594 36.4355468,36.433594 18.035803,0 33.036552,-13.127373 35.927735,-30.359375 a 1.6557117,1.6557117 0 1 0 -3.265626,-0.548828 c -2.627681,15.661481 -16.231376,27.597656 -32.662109,27.597656 -18.309309,0 -33.123047,-14.807219 -33.123047,-33.123047 0,-18.316207 14.806841,-33.123047 33.123047,-33.123047 5.680567,0 11.015429,1.4272421 15.685547,3.9414062 A 1.6559761,1.6559761 0 1 0 63.664062,4.0878906 C 58.526773,1.3222243 52.644164,-0.24804688 46.408203,-0.24804688 Z"
     id="path26"
     inkscape:connector-curvature="0" />
  <path
     style="color:#000000;font-style:normal;font-variant:normal;font-weight:normal;font-stretch:normal;font-size:medium;line-height:normal;font-family:sans-serif;font-variant-ligatures:normal;font-variant-position:normal;font-variant-caps:normal;font-variant-numeric:normal;font-variant-alternates:normal;font-feature-settings:normal;text-indent:0;text-align:start;text-decoration:none;text-decoration-line:none;text-decoration-style:solid;text-decoration-color:#000000;letter-spacing:normal;word-spacing:normal;text-transform:none;writing-mode:lr-tb;direction:ltr;text-orientation:mixed;dominant-baseline:auto;baseline-shift:baseline;text-anchor:start;white-space:normal;shape-padding:0;clip-rule:nonzero;display:inline;overflow:visible;visibility:visible;opacity:0.98999999;isolation:auto;mix-blend-mode:normal;color-interpolation:sRGB;color-interpolation-filters:linearRGB;solid-color:#000000;solid-opacity:1;vector-effect:none;fill:url(#linearGradient5379);fill-opacity:1;fill-rule:nonzero;stroke:none;stroke-width:3.31087899;stroke-linecap:round;stroke-linejoin:round;stroke-miterlimit:10;stroke-dasharray:none;stroke-dashoffset:0;stroke-opacity:1;color-rendering:auto;image-rendering:auto;shape-rendering:auto;text-rendering:auto;enable-background:accumulate"
     d="m 72.802734,5.6621094 a 1.655605,1.655605 0 0 0 -0.789062,0.2207031 l -4.634766,2.6699219 a 1.655605,1.655605 0 0 0 -0.08398,2.8164066 l 12.234375,8.066406 -4.242188,2.445312 -4.466797,-1.49414 a 1.655605,1.655605 0 0 0 -1.351562,0.134765 l -4.228516,2.435547 a 1.655605,1.655605 0 0 0 -0.193359,2.738281 l 6.341797,4.964844 1.134766,7.962891 a 1.655605,1.655605 0 0 0 2.464843,1.201172 l 4.230469,-2.4375 a 1.655605,1.655605 0 0 0 0.794922,-1.103516 l 0.935547,-4.605469 4.25,-2.447265 0.880859,14.611328 a 1.655605,1.655605 0 0 0 2.478516,1.335937 l 4.634765,-2.669922 A 1.655605,1.655605 0 0 0 94.003906,41.3125 l 2.736328,-18.734375 5.207036,-3.001953 c 0.67283,-0.387661 1.05042,-0.842355 1.50976,-1.416016 0.45934,-0.57366 0.91188,-1.253684 1.30664,-1.988281 0.39476,-0.734597 0.7328,-1.515253 0.91602,-2.349609 0.18322,-0.834357 0.25523,-1.807061 -0.29688,-2.759766 h 0.002 c -0.55163,-0.952254 -1.42966,-1.3723313 -2.24415,-1.6308594 -0.81448,-0.2585281 -1.66166,-0.3583072 -2.49609,-0.3847656 -0.834431,-0.026458 -1.649768,0.026908 -2.376952,0.1367188 -0.727184,0.1098112 -1.309019,0.2056086 -1.982422,0.59375 L 91.076172,12.78125 73.451172,5.7792969 A 1.655605,1.655605 0 0 0 72.802734,5.6621094 Z m 0.169922,3.4882812 17.625,7.0039064 a 1.655605,1.655605 0 0 0 1.4375,-0.105469 l 5.904297,-3.402344 c -0.119758,0.06903 0.310892,-0.112231 0.822266,-0.189453 0.511374,-0.07722 1.160415,-0.121186 1.779301,-0.101562 0.61888,0.01962 1.21423,0.108765 1.59765,0.230469 0.38343,0.121703 0.46013,0.273556 0.38086,0.136718 -0.0798,-0.137617 0.0134,-0.0016 -0.0723,0.388672 -0.0857,0.3903 -0.30732,0.950221 -0.59961,1.494141 -0.2923,0.543919 -0.65387,1.081366 -0.97657,1.484375 -0.32269,0.403009 -0.69514,0.685733 -0.57617,0.617187 l -5.904295,3.402344 a 1.655605,1.655605 0 0 0 -0.810547,1.195313 L 90.84375,40.039062 89.224609,40.972656 88.341797,26.359375 a 1.655605,1.655605 0 0 0 -2.478516,-1.333984 l -7.21289,4.15625 a 1.655605,1.655605 0 0 0 -0.796875,1.105468 l -0.935547,4.603516 -1.462891,0.84375 -0.882812,-6.201172 a 1.655605,1.655605 0 0 0 -0.617188,-1.070312 l -4.935547,-3.861329 1.457031,-0.839843 4.464844,1.49414 a 1.655605,1.655605 0 0 0 1.351563,-0.134765 l 7.21289,-4.15625 a 1.655605,1.655605 0 0 0 0.08594,-2.816406 l -12.234375,-8.06836 z"
     id="path28"
     inkscape:connector-curvature="0" />
  <path
     style="color:#000000;font-style:normal;font-variant:normal;font-weight:normal;font-stretch:normal;font-size:medium;line-height:normal;font-family:sans-serif;font-variant-ligatures:normal;font-variant-position:normal;font-variant-caps:normal;font-variant-numeric:normal;font-variant-alternates:normal;font-feature-settings:normal;text-indent:0;text-align:start;text-decoration:none;text-decoration-line:none;text-decoration-style:solid;text-decoration-color:#000000;letter-spacing:normal;word-spacing:normal;text-transform:none;writing-mode:lr-tb;direction:ltr;text-orientation:mixed;dominant-baseline:auto;baseline-shift:baseline;text-anchor:start;white-space:normal;shape-padding:0;clip-rule:nonzero;display:inline;overflow:visible;visibility:visible;opacity:1;isolation:auto;mix-blend-mode:normal;color-interpolation:sRGB;color-interpolation-filters:linearRGB;solid-color:#000000;solid-opacity:1;vector-effect:none;fill:url(#linearGradient5371);fill-opacity:1;fill-rule:nonzero;stroke:none;stroke-width:3.31087899;stroke-linecap:round;stroke-linejoin:round;stroke-miterlimit:10;stroke-dasharray:none;stroke-dashoffset:0;stroke-opacity:1;color-rendering:auto;image-rendering:auto;shape-rendering:auto;text-rendering:auto;enable-background:accumulate"
     d="m 11.427734,28.822266 a 1.655605,1.655605 0 0 0 -0.890625,0.271484 c -3.3820185,2.147063 -6.1227806,4.331008 -8.0078121,6.642578 -1.8850315,2.311571 -2.95469739,4.886805 -2.5058594,7.50586 0.51584481,3.001761 3.1892254,5.103605 6.8339844,6.277343 C 10.502181,50.69327 15.34563,51.093447 21.199219,50.615234 32.906397,49.65881 48.641467,45.127709 66.134766,35.298828 A 1.655605,1.655605 0 1 0 64.513672,32.412109 C 47.382251,42.037664 32.027369,46.407822 20.929688,47.314453 15.380847,47.767769 10.89423,47.340742 7.8710938,46.367188 4.8490261,45.393977 3.5189402,44.028136 3.2871094,42.683594 v -0.002 C 3.0461893,41.271863 3.569283,39.699939 5.0957031,37.828125 6.6227774,35.955509 9.1123069,33.920303 12.3125,31.888672 a 1.655605,1.655605 0 0 0 -0.884766,-3.066406 z"
     id="path30"
     inkscape:connector-curvature="0" />
  <path
     style="color:#000000;font-style:normal;font-variant:normal;font-weight:normal;font-stretch:normal;font-size:medium;line-height:normal;font-family:sans-serif;font-variant-ligatures:normal;font-variant-position:normal;font-variant-caps:normal;font-variant-numeric:normal;font-variant-alternates:normal;font-feature-settings:normal;text-indent:0;text-align:start;text-decoration:none;text-decoration-line:none;text-decoration-style:solid;text-decoration-color:#000000;letter-spacing:normal;word-spacing:normal;text-transform:none;writing-mode:lr-tb;direction:ltr;text-orientation:mixed;dominant-baseline:auto;baseline-shift:baseline;text-anchor:start;white-space:normal;shape-padding:0;clip-rule:nonzero;display:inline;overflow:visible;visibility:visible;opacity:1;isolation:auto;mix-blend-mode:normal;color-interpolation:sRGB;color-interpolation-filters:linearRGB;solid-color:#000000;solid-opacity:1;vector-effect:none;fill:url(#linearGradient5363);fill-opacity:1;fill-rule:nonzero;stroke:none;stroke-width:3.31087899;stroke-linecap:round;stroke-linejoin:round;stroke-miterlimit:10;stroke-dasharray:none;stroke-dashoffset:0;stroke-opacity:1;color-rendering:auto;image-rendering:auto;shape-rendering:auto;text-rendering:auto;enable-background:accumulate"
     d="M 49.703125,0.77148438 A 1.655605,1.655605 0 0 0 48.816406,1.0546875 c -2.31188,1.5159081 -3.643,3.1527957 -4,4.9570313 -0.356999,1.8042355 0.335738,3.4098605 1.13086,4.6621092 0.795121,1.252249 1.744344,2.302218 2.347656,3.158203 0.603311,0.855985 0.690534,1.30908 0.660156,1.421875 -0.105627,0.3922 -0.544397,1.021236 -1.322266,1.775391 -0.777868,0.754155 -1.828278,1.613847 -2.865234,2.658203 -2.073911,2.088712 -4.098666,5.233058 -3.291016,9.546875 0.749449,4.002517 0.05694,5.944299 -0.921874,7.044922 -0.973617,1.094778 -2.562988,1.574203 -4.234376,1.763672 -3.327352,0.244124 -6.748772,-0.0053 -7.960937,-0.75586 -0.608312,-0.376658 -0.765832,-0.563829 -0.738281,-1.365234 0.02755,-0.801405 0.52724,-2.302511 1.951172,-4.40625 1.352846,-1.999222 1.440339,-4.353915 0.685546,-6.294922 -0.754792,-1.941007 -2.216451,-3.556101 -3.943359,-4.800781 -1.726908,-1.24468 -3.738435,-2.126048 -5.773437,-2.425781 -2.035002,-0.299733 -4.196475,0.0034 -5.832032,1.398437 a 1.655605,1.655605 0 1 0 2.148438,2.519531 c 0.709741,-0.605357 1.803567,-0.846476 3.201172,-0.640625 1.397604,0.205852 2.995557,0.880566 4.318359,1.833985 1.322803,0.953418 2.353105,2.178286 2.794922,3.314453 0.441817,1.136166 0.432053,2.096647 -0.341797,3.240234 -1.610511,2.379711 -2.454791,4.322041 -2.517578,6.148438 -0.0628,1.82681 0.941436,3.452025 2.302734,4.294922 2.722597,1.685792 6.455181,1.503235 9.986328,1.240234 a 1.655605,1.655605 0 0 0 0.06055,-0.0039 c 2.044914,-0.227883 4.563227,-0.832874 6.367188,-2.861328 1.80396,-2.028455 2.561025,-5.261369 1.701172,-9.853516 -0.589642,-3.149392 0.627854,-4.832099 2.386719,-6.603516 0.879432,-0.885708 1.892388,-1.715597 2.820312,-2.615234 0.927924,-0.899637 1.835397,-1.889365 2.212891,-3.291016 C 52.603133,14.434179 51.776432,13.025439 51,11.923828 50.223568,10.822218 49.326892,9.8192963 48.742188,8.8984375 48.157483,7.9775787 47.936626,7.2904478 48.0625,6.6542969 48.188374,6.018146 48.73634,5.0677427 50.632812,3.8242188 A 1.655605,1.655605 0 0 0 49.703125,0.77148438 Z"
     id="path32"
     inkscape:connector-curvature="0" />
  <path
     style="color:#000000;font-style:normal;font-variant:normal;font-weight:normal;font-stretch:normal;font-size:medium;line-height:normal;font-family:sans-serif;font-variant-ligatures:normal;font-variant-position:normal;font-variant-caps:normal;font-variant-numeric:normal;font-variant-alternates:normal;font-feature-settings:normal;text-indent:0;text-align:start;text-decoration:none;text-decoration-line:none;text-decoration-style:solid;text-decoration-color:#000000;letter-spacing:normal;word-spacing:normal;text-transform:none;writing-mode:lr-tb;direction:ltr;text-orientation:mixed;dominant-baseline:auto;baseline-shift:baseline;text-anchor:start;white-space:normal;shape-padding:0;clip-rule:nonzero;display:inline;overflow:visible;visibility:visible;opacity:1;isolation:auto;mix-blend-mode:normal;color-interpolation:sRGB;color-interpolation-filters:linearRGB;solid-color:#000000;solid-opacity:1;vector-effect:none;fill:url(#linearGradient5355);fill-opacity:1;fill-rule:nonzero;stroke:none;stroke-width:3.31087899;stroke-linecap:round;stroke-linejoin:round;stroke-miterlimit:10;stroke-dasharray:none;stroke-dashoffset:0;stroke-opacity:1;color-rendering:auto;image-rendering:auto;shape-rendering:auto;text-rendering:auto;enable-background:accumulate"
     d="m 62.716797,45.068359 c -2.535531,0.215564 -4.861595,2.107363 -6.367188,5.34961 -0.585512,1.260884 -1.031478,1.674996 -1.423828,1.910156 -0.392349,0.23516 -0.926917,0.337936 -1.832031,0.53125 -1.810228,0.386628 -4.567634,1.423291 -7.378906,5.613281 -2.848232,4.245075 -2.997129,7.804044 -2.169922,10.205078 0.827206,2.401035 2.587891,3.660157 2.58789,3.660157 a 1.6557591,1.6557591 0 1 0 1.910157,-2.705079 c 0,0 -0.875096,-0.604866 -1.367188,-2.033203 -0.492092,-1.428336 -0.641852,-3.663018 1.78711,-7.283203 2.465921,-3.67527 3.743071,-3.881466 5.322265,-4.21875 0.789597,-0.168642 1.788315,-0.298268 2.841797,-0.929687 1.053483,-0.631419 1.966413,-1.71851 2.726563,-3.355469 1.185732,-2.553439 2.532492,-3.35077 3.644531,-3.445312 1.112038,-0.09454 2.384612,0.533017 3.429687,2.037109 1.398507,2.01347 3.066886,3.824552 5.353516,4.498047 2.28663,0.673494 4.945299,-0.219173 7.167969,-2.675782 a 1.655605,1.655605 0 1 0 -2.455078,-2.220703 c -1.709961,1.889937 -2.726731,2.030147 -3.777344,1.720703 -1.050613,-0.309443 -2.380753,-1.498295 -3.570313,-3.210937 -1.54299,-2.220702 -3.894156,-3.66283 -6.429687,-3.447266 z"
     id="path34"
     inkscape:connector-curvature="0" />
</svg>
