<svg version="1.1" viewBox="0 0 75 44.35" xmlns="http://www.w3.org/2000/svg">
 <path d="m18.78 27.81c0.7429-0.2076-1.361-1.795-1.361-1.795-1.402-0.7419-12.03-4.054-12.43-3.917-1.506 0.5159 1.567 3.607 2.557 4.166 0.9894 0.5558 10.5 1.752 11.24 1.546" style="fill:#000000"/>
 <path d="m73.82 13.52-5.119 2.021c-0.5798-0.429-1.111-0.8063-1.513-1.093 0.77-1.046 0.7066-2.95 0.5993-3.985 0.6703-0.0558 1.839-0.136 3.035-0.136 0.6923 0 1.31 0.02754 1.831 0.08029 0.34 0.03377 0.5875 0.1682 0.7782 0.4234 0.5047 0.6703 0.4724 1.974 0.3881 2.688m-3.31 5.955-14.12 5.433-0.02406 0.008696c-0.03884 0.01536-0.07566 0.03739-0.1088 0.06798-0.2858 0.2551-0.5486 0.5103-0.8089 0.7808-0.2582 0.271-0.5103 0.5512-0.7445 0.8559-0.227 0.3129-0.4607 0.6228-0.589 1.082-0.02913 0.1175-0.0471 0.2536-0.02609 0.405 0.02044 0.1549 0.1013 0.3252 0.2199 0.4341 0.05682 0.05783 0.1191 0.0987 0.18 0.1345 0.03522 0.01884 0.04957 0.0271 0.1022 0.04913l0.07058 0.02551c0.1473 0.04812 0.228 0.05479 0.3364 0.0716 0.3968 0.04594 0.7654 0.04087 1.137 0.03073 0.3702-0.01014 0.7358-0.03218 1.101-0.06131 0.7312-0.05783 1.457-0.136 2.18-0.228 1.446-0.1841 2.885-0.4136 4.314-0.6923 0.7148-0.1396 1.427-0.2925 2.133-0.4699 0.3528-0.09 0.703-0.1835 1.052-0.2925 0.3472-0.1088 0.6928-0.226 1.02-0.386-0.3344 0.1432-0.6846 0.2434-1.035 0.3334-0.3513 0.09-0.7056 0.1687-1.061 0.2378-0.7102 0.1436-1.427 0.2587-2.145 0.3646-1.435 0.2061-2.877 0.362-4.321 0.473-0.7209 0.05624-1.444 0.09914-2.165 0.1191-0.36 0.008696-0.7199 0.01449-1.075 0.007247-0.3548-0.008697-0.7148-0.02406-1.037-0.07972l-0.1135-0.02406-0.0516-0.01304-0.02971-0.01015c-0.008696-0.001449-0.03942-0.01536-0.05725-0.02406 0.0116 0.005797-0.01449-0.008696-0.01841-0.01015-0.01638-0.01159-0.03073-0.02348-0.0358-0.03073-0.01449-0.01681-0.0116-0.02203-0.01449-0.04754-0.001015-0.0271 0.001449-0.07464 0.02102-0.1325 0.07725-0.2434 0.2868-0.5328 0.5021-0.7895 0.2209-0.2608 0.4679-0.5103 0.724-0.7521 0.2347-0.2229 0.4832-0.4387 0.7296-0.6417l14.78-4.849c0.3804 2.043 0.1641 8.356-0.315 14.01-2.375 0.2828-4.822 0.519-7.314 0.7133h-49.03c-5.233-0.2966-9.166-0.5972-11.09-0.7557-0.4765-5.647-0.6908-11.93-0.3109-13.97l14.78 4.849c0.2459 0.203 0.4949 0.4188 0.7301 0.6417 0.2557 0.2418 0.5026 0.4914 0.724 0.7521 0.2153 0.2567 0.4244 0.5461 0.5011 0.7895 0.01841 0.05783 0.02304 0.1054 0.02203 0.1325-0.002899 0.02551-0.00145 0.03073-0.01536 0.04754-0.005797 0.007247-0.01884 0.01899-0.03478 0.03073-0.005798 0.00145-0.02971 0.01536-0.01942 0.01015-0.01841 0.008696-0.0471 0.02203-0.0558 0.02406l-0.03015 0.01015-0.05218 0.01304-0.113 0.02406c-0.3226 0.0558-0.6826 0.0716-1.037 0.07972-0.3569 0.007246-0.7163 0.001449-1.076-0.007247-0.7199-0.02-1.442-0.0629-2.164-0.1191-1.444-0.1109-2.886-0.2669-4.322-0.473-0.7168-0.1058-1.433-0.2209-2.144-0.3646-0.3559-0.06899-0.7097-0.1478-1.061-0.2378-0.3507-0.09001-0.701-0.1902-1.035-0.3334 0.3272 0.16 0.6734 0.2771 1.021 0.386 0.3467 0.109 0.699 0.2025 1.051 0.2925 0.7061 0.1774 1.418 0.3303 2.133 0.4699 1.429 0.2787 2.868 0.5082 4.314 0.6923 0.723 0.09204 1.449 0.1703 2.18 0.228 0.3651 0.02913 0.7307 0.05116 1.102 0.06131 0.3717 0.01015 0.7399 0.01536 1.137-0.03073 0.1088-0.01681 0.1887-0.02348 0.3354-0.0716l0.07102-0.02551c0.05261-0.02203 0.06653-0.03015 0.1023-0.04913 0.06087-0.0358 0.1232-0.07667 0.181-0.1345 0.1175-0.1088 0.1994-0.2792 0.2188-0.4341 0.02145-0.1513 0.002899-0.2874-0.02551-0.405-0.1283-0.4591-0.3625-0.769-0.5906-1.082-0.2342-0.3047-0.4837-0.5849-0.7434-0.8559-0.2602-0.2705-0.5226-0.5256-0.8089-0.7808-0.03073-0.02913-0.06899-0.05261-0.11-0.06798l-0.02304-0.008696-14.12-5.433c1.497-1.31 4.082-3.163 5.157-3.906 0.08798-0.05928 0.1611-0.1381 0.224-0.2229 3.68-0.1339 18.54-0.6529 27.63-0.6529 9.091 0 23.95 0.519 27.63 0.6529 0.06392 0.08493 0.1365 0.1636 0.224 0.2229 1.075 0.7434 3.661 2.596 5.157 3.906m-69.33-5.955c-0.08595-0.7133-0.1191-2.013 0.3876-2.687 0.1902-0.2551 0.4387-0.3911 0.7792-0.4249 0.522-0.05261 1.138-0.08029 1.833-0.08029 1.193 0 2.363 0.08029 3.034 0.136-0.1074 1.035-0.1713 2.939 0.5987 3.985-0.4024 0.2863-0.9326 0.6637-1.512 1.093zm17.43-10.37c1.473-0.3303 12.07-0.8626 18.89-1.143 6.824 0.2807 17.42 0.813 18.89 1.143 1.077 0.4612 4.854 5.882 8.024 11.04-4.541-0.1631-17.75-0.6069-26.36-0.6274h-1.125c-8.606 0.02044-21.81 0.4643-26.36 0.6274 3.17-5.16 6.948-10.58 8.025-11.04m55.73 7.008c-0.3768-0.5041-0.9188-0.8048-1.567-0.8697-0.5599-0.05624-1.215-0.08493-1.944-0.08493-1.885 0-3.652 0.1851-3.727 0.1938-0.1524 0.01536-0.294 0.09508-0.3865 0.2178-0.09464 0.1212-0.1335 0.2771-0.11 0.4285 0.1774 1.128 0.1917 2.819-0.2183 3.589-0.6422-1.047-2.03-3.281-3.54-5.53-4.355-6.483-5.452-6.742-5.978-6.866-1.828-0.4305-14.61-1.001-18.42-1.162l-0.002898-0.07827-0.9439 0.03884-0.9439-0.03884-0.002899 0.07827c-3.809 0.1616-16.59 0.7317-18.42 1.162-0.5277 0.1242-1.624 0.383-5.979 6.866-1.509 2.25-2.898 4.484-3.54 5.53-0.4096-0.7695-0.3947-2.46-0.2178-3.589 0.02348-0.1513-0.01638-0.3073-0.1099-0.4285-0.09363-0.1228-0.2337-0.2025-0.386-0.2178-0.07522-0.008696-1.841-0.1938-3.726-0.1938-0.7322 0-1.386 0.0287-1.947 0.08493-0.6463 0.06493-1.189 0.3656-1.567 0.8697-0.9858 1.315-0.5957 3.61-0.5471 3.869 0.03522 0.1907 0.1667 0.3492 0.3462 0.4203l4.778 1.887c-1.255 0.9592-2.524 2.002-3.13 2.719-0.3697 0.4372-1.056 1.249-0.7163 9.235 0.1595 3.782 0.4837 7.422 0.4873 7.459l0.0874 0.9797 1.768-0.1565c4.694 0.3825 20.27 1.534 37.66 1.534 10 0 20.59-0.3896 30.05-1.52l1.587 0.1416 0.0874-0.9797c0.002899-0.03783 0.3272-3.677 0.4878-7.459 0.3395-7.986-0.3482-8.798-0.7163-9.235-0.6064-0.7163-1.876-1.759-3.13-2.719l4.776-1.887c0.1805-0.07102 0.3114-0.2296 0.3472-0.4203 0.04754-0.2587 0.4382-2.553-0.5476-3.869" style="fill:#000000"/>
 <path d="m70.02 22.1c-0.4034-0.1381-11.03 3.175-12.43 3.917 0 0-2.103 1.588-1.361 1.795 0.7429 0.2055 10.25-0.9904 11.24-1.547 0.9904-0.5578 4.063-3.649 2.558-4.165" style="fill:#000000"/>
 <path d="m57.79 22.52c-0.5885 0.1549-1.224 0.3303-1.888 0.5665-0.3323 0.1191-0.6708 0.2485-1.012 0.4269-0.1698 0.09044-0.342 0.1892-0.5092 0.3436-0.1917 0.1841-0.2572 0.3564-0.3697 0.4903-0.4249 0.565-0.9935 1.098-1.609 1.54-0.3088 0.2183-0.6371 0.4167-0.9715 0.5583-0.1657 0.07102-0.3344 0.1278-0.4898 0.1534l-0.02 0.004349h-0.01478l-0.2265 0.008696-0.3037 0.01014c-0.409 0.02406-0.7956-0.001014-1.19-0.002898-0.3927-0.008697-0.7757-0.01015-1.177-0.02551-0.793-0.02609-1.573-0.0516-2.329-0.07725-1.512-0.06087-2.924-0.1186-4.133-0.1682-1.389-0.06493-2.512-0.1171-3.216-0.1498l-0.00145-0.07827-0.8283 0.03942-0.8304-0.03942-0.001449 0.07827c-0.7046 0.03276-1.826 0.08493-3.215 0.1498-1.21 0.04957-2.621 0.1074-4.133 0.1682-0.7557 0.02551-1.536 0.05116-2.33 0.07725-0.4014 0.01478-0.7833 0.01681-1.178 0.02551-0.3932 0.001449-0.7797 0.02652-1.189 0.002898l-0.3027-0.01014-0.1514-0.005798-0.07667-0.002898h-0.01478l-0.01942-0.004349c-0.1554-0.02551-0.3237-0.08232-0.4908-0.1534-0.3334-0.1416-0.6616-0.34-0.9705-0.5583-0.6151-0.4418-1.184-0.9745-1.609-1.54-0.1135-0.1339-0.179-0.3063-0.3692-0.4903-0.1677-0.1544-0.3385-0.2531-0.5098-0.3436-0.34-0.1784-0.6795-0.3078-1.011-0.4269-0.6647-0.2362-1.3-0.4116-1.889-0.5665-1.177-0.3063-2.167-0.5118-2.861-0.6529-0.6933-0.1402-1.092-0.2096-1.092-0.2096s0.3932 0.09508 1.075 0.2787c0.6816 0.1876 1.656 0.4566 2.802 0.8355 0.5722 0.1907 1.191 0.4085 1.819 0.679 0.3134 0.1365 0.6325 0.2843 0.9265 0.4648 0.1478 0.08798 0.2894 0.1892 0.3881 0.2945 0.07972 0.07464 0.1585 0.2633 0.2741 0.43 0.4433 0.6775 0.996 1.261 1.638 1.793 0.3242 0.2608 0.6693 0.5057 1.064 0.7061 0.1984 0.09914 0.4075 0.1892 0.6468 0.247l0.04392 0.01159 0.0116 0.002899 0.03986 0.005798 0.01841 0.001449 0.07522 0.005797 0.1513 0.01681 0.3012 0.02913c0.3957 0.04957 0.8186 0.05479 1.228 0.07972 0.4111 0.01899 0.8304 0.0429 1.224 0.05522 0.7971 0.02551 1.581 0.05058 2.341 0.07464 1.516 0.03884 2.932 0.07305 4.145 0.1033 1.358 0.02406 2.462 0.0445 3.172 0.05826v0.03218l0.8447-0.01536h0.02899l0.8447 0.01536v-0.03218c0.7092-0.01449 1.813-0.0342 3.171-0.05826 1.214-0.03015 2.629-0.0645 4.146-0.1033 0.7588-0.02406 1.543-0.04913 2.339-0.07464 0.3942-0.0116 0.8135-0.03623 1.225-0.05522 0.4101-0.02507 0.8319-0.03015 1.229-0.07972l0.3012-0.02913 0.1498-0.01681 0.07566-0.005797 0.01841-0.001449 0.04087-0.005798 0.01015-0.002899 0.0445-0.01159c0.2378-0.05783 0.4484-0.1478 0.6463-0.247 0.3947-0.2004 0.7409-0.4453 1.064-0.7061 0.6417-0.5323 1.195-1.116 1.638-1.793 0.1151-0.1667 0.1948-0.3554 0.2751-0.43 0.09769-0.1054 0.2408-0.2066 0.386-0.2945 0.2945-0.1805 0.6136-0.3283 0.9265-0.4648 0.6294-0.2705 1.247-0.4883 1.82-0.679 1.148-0.3789 2.12-0.6478 2.802-0.8355 0.6821-0.1836 1.075-0.2787 1.075-0.2787s-0.3983 0.06957-1.092 0.2096c-0.6928 0.1412-1.683 0.3467-2.86 0.6529" style="fill:#000000"/>
 <path d="m4.007 37.84s-0.9664 4.378 0 5.608c0.9664 1.232 10.38 1.164 11.7 0 1.319-1.162 0.6161-5.129 0.6161-5.129-3.782 0-12.31-0.4786-12.31-0.4786" style="fill:#000000"/>
 <path d="m58.57 38.32s-0.7061 3.968 0.6177 5.129c1.323 1.164 10.77 1.232 11.74 0 0.9699-1.23 0-5.608 0-5.608s-8.562 0.4786-12.36 0.4786" style="fill:#000000"/>
</svg>
