<svg version="1.1" viewBox="0 0 75 51.77" xmlns="http://www.w3.org/2000/svg" xmlns:xlink="http://www.w3.org/1999/xlink">
 <defs>
  <linearGradient id="linearGradient7728" x1="-1405" x2="-1405" y1="704.4" y2="781.4" gradientTransform="scale(.7835 1.276)" gradientUnits="userSpaceOnUse">
   <stop style="stop-color:#1c072d" offset="0"/>
   <stop style="stop-color:#5700aa" offset=".29"/>
   <stop style="stop-color:#4b127b" offset=".64"/>
   <stop style="stop-color:#290a43" offset="1"/>
  </linearGradient>
  <linearGradient id="linearGradient5538" x1="-177.4" x2="-162" y1="-234" y2="-234" gradientTransform="matrix(1.542 0 0 1.542 304.8 402.3)" gradientUnits="userSpaceOnUse" xlink:href="#linearGradient7728"/>
  <linearGradient id="linearGradient5546" x1="-190.7" x2="-174.6" y1="-251.4" y2="-251.4" gradientTransform="matrix(1.542 0 0 1.542 304.8 402.3)" gradientUnits="userSpaceOnUse" xlink:href="#linearGradient7728"/>
  <linearGradient id="linearGradient5554" x1="-167.5" x2="-150.2" y1="-249.2" y2="-249.2" gradientTransform="matrix(1.542 0 0 1.542 304.8 402.3)" gradientUnits="userSpaceOnUse" xlink:href="#linearGradient7728"/>
  <linearGradient id="linearGradient871" x1="-1171" x2="-1199" y1="-150.9" y2="-171.5" gradientTransform="matrix(2.006 0 0 2.006 2410 347.9)" gradientUnits="userSpaceOnUse">
   <stop style="stop-color:#696969" offset="0"/>
   <stop style="stop-color:#c7c7c9" offset=".2408"/>
   <stop style="stop-color:#f9f9ff" offset=".4417"/>
   <stop style="stop-color:#ccccce" offset=".7844"/>
   <stop style="stop-color:#696969" offset="1"/>
  </linearGradient>
 </defs>
 <path d="m61.64 30.86 3.252-1.874 2.002-13.71 4.144-2.389c0.7775-0.448 2.649-3.241 1.986-4.386-0.6631-1.145-4.023-0.9257-4.8-0.4777l-4.144 2.389-12.89-5.123-3.252 1.874 10.16 6.699-5.063 2.918-3.63-1.215-2.968 1.71 4.82 3.772 0.8623 6.053 2.968-1.71 0.7612-3.746 5.063-2.918z" style="fill:url(#linearGradient5554);stroke-width:.5811"/>
 <path d="m35.43 11.12c0.6782-2.518-6.489-5.423-0.5811-9.297l-0.08774-0.4679c-0.738-0.06739-1.482-0.1133-2.236-0.1133-9.484 0-17.7 5.413-21.74 13.32l0.2376 0.04996c3.292-2.808 11.7 2.561 8.716 6.973-4.261 6.295 0.9891 6.751 5.811 6.392 2.615-0.2905 5.778-1.522 4.649-7.555-0.9809-5.238 4.552-6.779 5.229-9.297z" style="fill:url(#linearGradient5546);stroke-width:.5811"/>
 <path d="m54.55 36.1c-2.736 2.965-5.112 1.377-6.916-1.22-1.817-2.615-5.084-2.905-6.973 1.162-1.889 4.068-3.849 0.2905-7.555 5.811-3.562 5.309-0.2737 7.931-0.01743 8.122 9.471-0.2156 17.61-5.823 21.47-13.88z" style="fill:url(#linearGradient5538);stroke-width:.5811;stroke:#290a43"/>
 <path d="m33.73 50.6s-3.704-2.615 0-8.136 5.666-1.743 7.555-5.811c1.889-4.068 5.157-3.777 6.973-1.162 1.817 2.615 4.213 4.213 6.973 1.162m-19.75-34.28c-5.908 3.874 1.259 6.779 0.581 9.297-0.6782 2.518-6.21 4.059-5.229 9.297 1.13 6.033-2.034 7.263-4.649 7.555-4.822 0.3591-10.07-0.097-5.811-6.392 2.985-4.412-5.423-9.781-8.716-6.973m34.87 9.297c-24.3 13.65-43.64 12.49-44.69 6.392-0.4847-2.828 2.238-5.821 6.858-8.754m53.62 9.336 3.252-1.874 2.002-13.71 4.144-2.389c0.7775-0.448 2.649-3.241 1.986-4.386-0.6631-1.145-4.023-0.9257-4.8-0.4777l-4.144 2.389-12.89-5.123-3.252 1.874 10.16 6.699-5.063 2.918-3.63-1.215-2.968 1.71 4.82 3.772 0.8623 6.053 2.968-1.71 0.7612-3.746 5.063-2.918zm-5.086-1.163c-1.937 11.54-11.98 20.34-24.07 20.34-13.48 0-24.41-10.93-24.41-24.41 0-13.48 10.93-24.41 24.41-24.41 4.182 0 8.119 1.052 11.56 2.905" style="fill:none;stroke-linecap:round;stroke-linejoin:round;stroke-miterlimit:10;stroke-width:2.324;stroke:#000000"/>
 <path d="m33.12 49.98s-3.704-2.615 0-8.136c3.704-5.521 5.666-1.743 7.555-5.811s5.157-3.777 6.973-1.162c1.817 2.615 4.213 4.213 6.973 1.162m-19.75-34.28c-5.908 3.874 1.259 6.779 0.581 9.297-0.6782 2.518-6.21 4.059-5.229 9.297 1.13 6.033-2.034 7.263-4.649 7.555-4.822 0.3591-10.07-0.097-5.811-6.392 2.985-4.412-5.423-9.781-8.716-6.973m34.87 9.297c-24.3 13.65-43.64 12.49-44.69 6.392-0.4847-2.828 2.238-5.821 6.858-8.754m53.62 9.336 3.252-1.874 2.002-13.71 4.144-2.389c0.7775-0.448 2.649-3.241 1.986-4.386-0.6631-1.145-4.023-0.9257-4.8-0.4777l-4.144 2.389-12.89-5.123-3.252 1.874 10.16 6.699-5.063 2.918-3.63-1.215-2.968 1.71 4.82 3.772 0.8623 6.053 2.968-1.71 0.7612-3.746 5.063-2.918zm-5.086-1.163c-1.937 11.54-11.98 20.34-24.07 20.34-13.48 0-24.41-10.93-24.41-24.41s10.93-24.41 24.41-24.41c4.182 0 8.119 1.052 11.56 2.905" style="fill:none;stroke-linecap:round;stroke-linejoin:round;stroke-miterlimit:10;stroke-width:2.324;stroke:url(#linearGradient871)"/>
</svg>
