<svg version="1.1" viewBox="0 0 75 51.38" xmlns="http://www.w3.org/2000/svg" xmlns:xlink="http://www.w3.org/1999/xlink">
 <defs>
  <linearGradient id="i60-linearGradient5554" x1="-167.5" x2="-150.2" y1="-249.2" y2="-249.2" gradientTransform="matrix(1.481 0 0 1.481 294.6 387.1)" gradientUnits="userSpaceOnUse" xlink:href="#i60-linearGradient7728"/>
  <linearGradient id="i60-linearGradient7728" x1="-1405" x2="-1405" y1="704.4" y2="781.4" gradientTransform="scale(.7835 1.276)" gradientUnits="userSpaceOnUse">
   <stop stop-color="#1c072d" offset="0"/>
   <stop stop-color="#5700aa" offset=".29"/>
   <stop stop-color="#4b127b" offset=".64"/>
   <stop stop-color="#290a43" offset="1"/>
  </linearGradient>
  <linearGradient id="i60-linearGradient5546" x1="-190.7" x2="-174.6" y1="-251.4" y2="-251.4" gradientTransform="matrix(1.481 0 0 1.481 294.6 387.1)" gradientUnits="userSpaceOnUse" xlink:href="#i60-linearGradient7728"/>
  <linearGradient id="i60-linearGradient5538" x1="-177.4" x2="-162" y1="-234" y2="-234" gradientTransform="matrix(1.481 0 0 1.481 294.6 387.1)" gradientUnits="userSpaceOnUse" xlink:href="#i60-linearGradient7728"/>
  <linearGradient id="i60-linearGradient871" x1="-1171" x2="-1199" y1="-150.9" y2="-171.5" gradientTransform="matrix(1.927 0 0 1.927 2317 334.8)" gradientUnits="userSpaceOnUse">
   <stop stop-color="#696969" offset="0"/>
   <stop stop-color="#c7c7c9" offset=".2408"/>
   <stop stop-color="#f9f9ff" offset=".4417"/>
   <stop stop-color="#ccccce" offset=".7844"/>
   <stop stop-color="#696969" offset="1"/>
  </linearGradient>
  <linearGradient id="linearGradient34376" x1="-530" x2="-529.5" y1="879.5" y2="917.6" gradientTransform="matrix(1.312 0 0 1.317 695 -1158)" gradientUnits="userSpaceOnUse">
   <stop stop-color="#141414" offset="0"/>
   <stop stop-color="#0a0a0a" offset=".15"/>
   <stop stop-color="#6d6d6d" offset=".3"/>
   <stop offset=".44"/>
   <stop stop-color="#141414" offset=".62"/>
   <stop stop-color="#262626" offset=".75"/>
   <stop stop-color="#040404" offset="1"/>
  </linearGradient>
  <filter id="filter34388" x="-.01519" y="-.02208" width="1.03" height="1.044" style="color-interpolation-filters:sRGB">
   <feGaussianBlur stdDeviation="0.67160249"/>
  </filter>
 </defs>
 <rect y=".49" width="73.7" height="50.77" ry="4.319" style="fill:url(#linearGradient34376)"/>
 <path d="m61.02 30.21 3.124-1.8 1.923-13.17 3.981-2.295c0.7469-0.4304 2.545-3.114 1.908-4.213-0.637-1.1-3.865-0.8894-4.612-0.459l-3.981 2.295-12.39-4.921-3.124 1.8 9.76 6.436-4.864 2.803-3.487-1.167-2.852 1.643 4.631 3.624 0.8285 5.815 2.852-1.643 0.7312-3.599 4.864-2.803z" style="fill:url(#i60-linearGradient5554);stroke-width:.5582"/>
 <path d="m35.83 11.25c0.6514-2.419-6.234-5.211-0.5583-8.932l-0.08429-0.4495c-0.709-0.06474-1.424-0.1089-2.148-0.1089-9.111 0-17.01 5.2-20.89 12.79l0.2283 0.048c3.163-2.698 11.24 2.461 8.373 6.699-4.093 6.047 0.9503 6.486 5.582 6.141 2.513-0.2791 5.551-1.462 4.467-7.258-0.9424-5.033 4.373-6.513 5.024-8.932z" style="fill:url(#i60-linearGradient5546);stroke-width:.5582"/>
 <path d="m54.2 35.24c-2.628 2.849-4.911 1.323-6.644-1.172-1.745-2.513-4.884-2.791-6.699 1.116-1.815 3.908-3.698 0.2791-7.258 5.582-3.422 5.101-0.263 7.619-0.01674 7.803 9.099-0.2071 16.92-5.594 20.62-13.33z" style="fill:url(#i60-linearGradient5538)"/>
 <path transform="matrix(.6742 0 0 .6742 1.792 .5613)" d="m47.29 0.7793c-17.64 0-32.37 12.56-35.74 29.22a1.658 1.658 0 0 0-0.03519 0.02151c-3.386 2.151-6.13 4.338-8.017 6.654-1.887 2.315-2.959 4.895-2.51 7.518a1.658 1.658 0 0 0 0 0.001955c0.5165 3.007 3.193 5.11 6.842 6.286 1.698 0.5471 3.71 0.8884 5.91 1.089 5.567 13.04 18.5 22.2 33.56 22.2 0.1542 0 0.2978-0.03916 0.4516-0.04107a1.658 1.658 0 0 0 1.069-0.09583c13.64-0.5713 25.27-8.6 31.04-20.16 0.05508-0.05845 0.1155-0.09222 0.1701-0.1526a1.658 1.658 0 0 0 0.4418-1.173c1.249-2.782 2.282-5.684 2.801-8.783a1.658 1.658 0 1 0-3.269-0.5476c-0.5103 3.043-1.543 5.884-2.821 8.586-1.447 1.441-2.436 1.7-3.392 1.418-1.052-0.3099-2.385-1.502-3.576-3.217-1.545-2.224-3.897-3.668-6.436-3.452s-4.868 2.111-6.375 5.359c-0.5862 1.263-1.034 1.677-1.427 1.913-0.3928 0.2355-0.9276 0.3384-1.834 0.532-1.812 0.3872-4.573 1.424-7.388 5.621-2.852 4.252-3 7.818-2.172 10.22 0.06214 0.1804 0.1689 0.2432 0.2405 0.4107-12.09-0.9073-22.3-8.185-27.31-18.58 1.536 0.007738 2.969 0.09697 4.682-0.04303 11.72-0.9579 27.48-5.495 44.99-15.34a1.658 1.659 0 1 0-1.625-2.893c-17.15 9.641-32.52 14.02-43.63 14.93-2.139 0.1748-3.964 0.1146-5.765 0.04694-1.229-3.47-2.023-7.151-2.023-11.05 0-5.16 1.274-9.98 3.368-14.33a1.658 1.658 0 0 0 0.2092-0.1545c0.7107-0.6064 1.807-0.8477 3.206-0.6415 1.399 0.2062 2.998 0.8815 4.322 1.836s2.355 2.183 2.798 3.321 0.4326 2.099-0.3421 3.245c-1.613 2.384-2.457 4.329-2.52 6.159s0.9421 3.456 2.305 4.301c2.726 1.689 6.462 1.507 9.998 1.244a1.658 1.658 0 0 0 0.0606-0.005868c2.047-0.2281 4.569-0.8316 6.375-2.863 1.806-2.032 2.564-5.269 1.703-9.869-0.5904-3.155 0.628-4.842 2.389-6.616 0.8805-0.8871 1.896-1.716 2.825-2.617 0.929-0.9011 1.839-1.894 2.217-3.297 0.4533-1.684-0.3741-3.096-1.151-4.199-0.7774-1.103-1.676-2.107-2.262-3.03-0.5854-0.9224-0.8064-1.612-0.6803-2.249 0.126-0.6372 0.674-1.588 2.573-2.834a1.658 1.658 0 0 0 0.2991-0.2484c3.995 0.5461 7.766 1.785 11.18 3.622a1.658 1.658 0 1 0 1.572-2.92c-5.144-2.77-11.03-4.344-17.28-4.344zm-0.1427 3.331c-0.7477 0.8758-1.262 1.785-1.453 2.75-0.3574 1.807 0.3378 3.416 1.134 4.67s1.746 2.305 2.35 3.163c0.604 0.8574 0.6912 1.313 0.6608 1.426-0.1058 0.3928-0.5447 1.022-1.324 1.778-0.7788 0.7554-1.832 1.616-2.87 2.662-2.076 2.092-4.103 5.243-3.294 9.564 0.7503 4.009 0.05721 5.952-0.9227 7.055-0.9748 1.097-2.565 1.576-4.238 1.766-3.331 0.2442-6.759-0.003133-7.972-0.7549-0.609-0.3773-0.7646-0.5664-0.737-1.369 0.02759-0.8027 0.5255-2.307 1.951-4.414 1.354-2.003 1.442-4.361 0.6862-6.305-0.7557-1.944-2.218-3.561-3.947-4.807-1.729-1.247-3.741-2.129-5.779-2.429-0.5667-0.0835-1.136 0.0148-1.709 0.0352 5.914-8.883 15.99-14.74 27.46-14.79zm26.79 2.492a1.658 1.658 0 0 0-0.7918 0.219l-4.639 2.676a1.658 1.658 0 0 0-0.08406 2.82l12.25 8.079-4.246 2.449-4.469-1.496a1.658 1.658 0 0 0-1.355 0.135l-4.234 2.441a1.658 1.658 0 0 0-0.1935 2.742l6.352 4.972 1.136 7.978a1.658 1.658 0 0 0 2.467 1.203l4.234-2.441a1.658 1.658 0 0 0 0.7976-1.107l0.9364-4.612 4.252-2.453 0.8836 14.64a1.658 1.658 0 0 0 2.483 1.336l4.639-2.674a1.658 1.658 0 0 0 0.8113-1.197l2.739-18.77 5.214-3.006c0.6736-0.3883 1.051-0.8434 1.511-1.418 0.4599-0.5746 0.9146-1.255 1.31-1.991 0.3952-0.7358 0.7334-1.517 0.9169-2.353 0.1833-0.8352 0.2545-1.81-0.2972-2.764v-0.001956c-0.5523-0.9528-1.431-1.374-2.246-1.633-0.8154-0.2589-1.663-0.3588-2.498-0.3853-0.8354-0.02651-1.651 0.02692-2.379 0.1369-0.7281 0.11-1.312 0.2058-1.986 0.5946l-5.216 3.008-17.65-7.013a1.658 1.658 0 0 0-0.6471-0.1154zm0.1681 3.493 17.65 7.015a1.658 1.658 0 0 0 1.441-0.1056l5.91-3.409c-0.1199 0.06915 0.313-0.1124 0.825-0.1897 0.512-0.07734 1.159-0.1194 1.779-0.09974s1.217 0.1089 1.601 0.2308c0.3839 0.1219 0.4606 0.272 0.3812 0.1349a1.658 1.658 0 0 0 0 0.001956c-0.07984-0.1378 0.01348-0.001728-0.07233 0.3892-0.08581 0.3909-0.3075 0.9514-0.6002 1.496-0.2926 0.5448-0.6544 1.083-0.9775 1.486-0.3231 0.4037-0.6958 0.6867-0.5767 0.618l-5.912 3.409a1.658 1.658 0 0 0-0.8113 1.197l-2.739 18.76-1.623 0.9349-0.8836-14.64a1.658 1.658 0 0 0-2.481-1.336l-7.222 4.164a1.658 1.658 0 0 0-0.7976 1.105l-0.9364 4.614-1.464 0.8429-0.8836-6.212a1.658 1.658 0 0 0-0.6197-1.072l-4.94-3.867 1.458-0.841 4.471 1.496a1.658 1.658 0 0 0 1.353-0.135l7.222-4.164a1.658 1.658 0 0 0 0.08602-2.82l-12.25-8.079zm-63 24.29c-0.07743 0.9696-0.2913 1.899-0.2913 2.889 0 3.76 0.7342 7.317 1.793 10.73-1.337-0.1915-2.746-0.3521-3.765-0.6806-3.026-0.9748-4.358-2.344-4.59-3.691v-0.001956c-0.241-1.412 0.2839-2.985 1.812-4.86 1.135-1.393 2.947-2.882 5.042-4.387zm52.94 15.06c1.113-0.0947 2.387 0.5354 3.433 2.042 1.4 2.017 3.073 3.83 5.362 4.504 0.5017 0.1478 1.025 0.1906 1.554 0.1878-5.744 8.23-15.05 13.71-25.75 14.15-0.2965-0.321-0.6578-0.8063-0.9364-1.615-0.4927-1.431-0.6411-3.669 1.791-7.295 2.469-3.681 3.746-3.889 5.327-4.226 0.7905-0.1689 1.792-0.2985 2.846-0.931 1.055-0.6324 1.968-1.72 2.729-3.36 1.187-2.558 2.535-3.357 3.648-3.452z" style="color-rendering:auto;color:#000000;fill:#ffffff;filter:url(#filter34388);isolation:auto;mix-blend-mode:normal;shape-rendering:auto;solid-color:#000000"/>
 <path d="m33.64 1.154c-11.88 0-21.8 8.457-24.07 19.67a1.116 1.116 0 0 0-0.0237 0.01448c-2.281 1.448-4.129 2.921-5.4 4.479-1.271 1.559-1.993 3.295-1.691 5.061a1.116 1.116 0 0 0 0 0.001317c0.3478 2.024 2.151 3.44 4.609 4.232 1.144 0.3683 2.499 0.5981 3.98 0.7334 3.75 8.78 12.46 14.94 22.6 14.94 0.1039 0 0.2006-0.02636 0.3042-0.02765a1.116 1.116 0 0 0 0.7202-0.06452c9.185-0.3846 17.02-5.79 20.9-13.57 0.0371-0.03935 0.0778-0.06208 0.1146-0.1027a1.116 1.116 0 0 0 0.2976-0.79c0.8415-1.873 1.537-3.826 1.887-5.913a1.116 1.116 0 1 0-2.202-0.3687c-0.3437 2.049-1.039 3.961-1.9 5.78-0.9745 0.9701-1.64 1.144-2.285 0.9546-0.7084-0.2087-1.606-1.011-2.408-2.166-1.04-1.497-2.625-2.469-4.335-2.324-1.71 0.1454-3.279 1.421-4.294 3.608-0.3948 0.8502-0.6967 1.129-0.9612 1.288-0.2646 0.1586-0.6247 0.2278-1.235 0.3581-1.221 0.2607-3.08 0.9588-4.976 3.784-1.921 2.862-2.021 5.263-1.463 6.882 0.04185 0.1215 0.1138 0.1637 0.162 0.2765-8.14-0.6108-15.02-5.511-18.39-12.51 1.034 0.00521 2 0.06528 3.154-0.02897 7.895-0.6449 18.51-3.699 30.3-10.33a1.117 1.117 0 1 0-1.094-1.947c-11.55 6.491-21.91 9.438-29.39 10.05-1.441 0.1177-2.67 0.07714-3.883 0.0316-0.8277-2.336-1.363-4.814-1.363-7.437 0-3.474 0.8583-6.719 2.269-9.649a1.116 1.116 0 0 0 0.1409-0.104c0.4787-0.4083 1.217-0.5707 2.159-0.4319s2.019 0.5935 2.911 1.236c0.892 0.6429 1.586 1.47 1.884 2.236s0.2914 1.413-0.2304 2.184c-1.086 1.605-1.655 2.915-1.697 4.146-0.04236 1.232 0.6345 2.327 1.552 2.895 1.836 1.137 4.353 1.015 6.734 0.8374a1.116 1.116 0 0 0 0.04082-0.003952c1.379-0.1536 3.077-0.5598 4.294-1.928 1.216-1.368 1.727-3.548 1.147-6.644-0.3976-2.124 0.423-3.26 1.609-4.454 0.593-0.5973 1.277-1.155 1.903-1.762 0.6257-0.6066 1.239-1.275 1.493-2.22 0.3053-1.134-0.252-2.084-0.7755-2.827-0.5236-0.7429-1.129-1.419-1.523-2.04-0.3943-0.621-0.5431-1.085-0.4582-1.514 0.08488-0.429 0.454-1.069 1.733-1.908a1.116 1.116 0 0 0 0.2015-0.1672c2.691 0.3676 5.23 1.202 7.528 2.439a1.116 1.116 0 1 0 1.059-1.966c-3.464-1.865-7.431-2.924-11.64-2.924zm-0.09612 2.242c-0.5036 0.5896-0.8499 1.202-0.9783 1.851-0.2407 1.217 0.2275 2.3 0.7637 3.144 0.5362 0.8444 1.176 1.552 1.583 2.129 0.4068 0.5772 0.4656 0.8837 0.4451 0.9599-0.07123 0.2645-0.3669 0.6883-0.8914 1.197-0.5245 0.5085-1.234 1.088-1.933 1.792-1.398 1.408-2.763 3.53-2.219 6.439 0.5054 2.699 0.03853 4.007-0.6215 4.749-0.6565 0.7382-1.728 1.061-2.855 1.189-2.244 0.1644-4.552-0.002109-5.37-0.5083-0.4102-0.254-0.515-0.3813-0.4964-0.9217 0.01858-0.5404 0.3539-1.553 1.314-2.972 0.9122-1.348 0.9712-2.936 0.4622-4.245s-1.494-2.397-2.658-3.236-2.52-1.433-3.892-1.635c-0.3817-0.05622-0.7653 0.009963-1.151 0.0237 3.983-5.981 10.77-9.922 18.5-9.956zm18.04 1.677a1.116 1.116 0 0 0-0.5333 0.1475l-3.125 1.801a1.116 1.116 0 0 0-0.05662 1.899l8.248 5.439-2.86 1.649-3.01-1.007a1.116 1.116 0 0 0-0.9125 0.09086l-2.852 1.643a1.116 1.116 0 0 0-0.1304 1.846l4.278 3.347 0.765 5.371a1.116 1.116 0 0 0 1.662 0.8098l2.852-1.643a1.116 1.116 0 0 0 0.5372-0.7453l0.6307-3.105 2.864-1.651 0.5952 9.854a1.116 1.116 0 0 0 1.672 0.8993l3.125-1.8a1.116 1.116 0 0 0 0.5464-0.8058l1.845-12.63 3.512-2.024c0.4537-0.2614 0.7081-0.5678 1.018-0.9546 0.3097-0.3868 0.616-0.8451 0.8822-1.34 0.2662-0.4954 0.494-1.021 0.6175-1.584 0.1235-0.5623 0.1714-1.218-0.2001-1.861v-0.001317c-0.372-0.6415-0.9639-0.9252-1.513-1.099-0.5492-0.1743-1.12-0.2415-1.683-0.2594-0.5627-0.01785-1.112 0.01812-1.602 0.09217-0.4904 0.07405-0.8837 0.1385-1.338 0.4003l-3.513 2.025-11.88-4.722a1.116 1.116 0 0 0-0.4358-0.07769zm0.1132 2.352 11.88 4.723a1.116 1.116 0 0 0 0.9704-0.0711l3.98-2.295c-0.08077 0.04656 0.2108-0.07565 0.5557-0.1277 0.3448-0.05207 0.7809-0.08039 1.198-0.06715 0.4173 0.01324 0.8198 0.0733 1.078 0.1554 0.2586 0.08207 0.3102 0.1831 0.2568 0.09085a1.116 1.116 0 0 0 0 0.001316c-0.05377-0.09279 0.009081-0.001163-0.04872 0.262-0.05779 0.2632-0.2071 0.6405-0.4042 1.007-0.1971 0.3668-0.4408 0.7289-0.6584 1.001-0.2176 0.2718-0.4687 0.4623-0.3884 0.4161l-3.982 2.295a1.116 1.116 0 0 0-0.5464 0.8058l-1.845 12.63-1.093 0.6294-0.5952-9.854a1.116 1.116 0 0 0-1.671-0.8993l-4.864 2.803a1.116 1.116 0 0 0-0.5372 0.7439l-0.6307 3.106-0.9862 0.5675-0.5952-4.182a1.116 1.116 0 0 0-0.4174-0.7216l-3.327-2.603 0.9823-0.5662 3.011 1.007a1.116 1.116 0 0 0 0.9112-0.09085l4.864-2.803a1.116 1.116 0 0 0 0.05794-1.899l-8.251-5.439zm-42.43 16.35c-0.05215 0.6528-0.1962 1.279-0.1962 1.945 0 2.531 0.4945 4.926 1.207 7.225-0.9003-0.1289-1.849-0.2371-2.536-0.4582-2.038-0.6563-2.935-1.578-3.092-2.485v-0.001317c-0.1623-0.9505 0.1912-2.01 1.221-3.272 0.7646-0.9375 1.985-1.941 3.396-2.953zm35.66 10.14c0.7499-0.06376 1.607 0.3604 2.312 1.375 0.943 1.358 2.07 2.578 3.612 3.032 0.3379 0.09952 0.6906 0.1283 1.047 0.1264-3.869 5.541-10.14 9.23-17.35 9.524-0.1997-0.2161-0.443-0.5428-0.6307-1.088-0.3318-0.9631-0.4318-2.47 1.206-4.911 1.663-2.478 2.523-2.618 3.588-2.845 0.5324-0.1137 1.207-0.201 1.917-0.6268 0.7104-0.4258 1.326-1.158 1.838-2.262 0.7996-1.722 1.707-2.26 2.457-2.324z" style="color-rendering:auto;color:#000000;fill:#000000;isolation:auto;mix-blend-mode:normal;shape-rendering:auto;solid-color:#000000"/>
 <path d="m10.69 35.3c0.9062 1.986 2.069 3.831 3.446 5.492 1.502 1.813 3.26 3.407 5.217 4.726 3.914 2.639 8.627 4.18 13.7 4.18 0.1039 0 0.2006-0.02637 0.3042-0.02766 0.2406 0.05903 0.4941 0.03632 0.7204-0.06454 9.185-0.3848 17.02-5.791 20.9-13.58 0.03688-0.03913 0.07804-0.06102 0.1146-0.1014 0.1985-0.2139 0.3054-0.4971 0.2976-0.7889 0.8416-1.873 1.536-3.826 1.886-5.913 0.3083-1.511-2-1.898-2.201-0.3688-0.3438 2.049-1.041 3.962-1.902 5.782-0.9734 0.9684-1.639 1.142-2.282 0.9522-0.7084-0.2087-1.607-1.01-2.409-2.165-1.04-1.497-2.625-2.47-4.334-2.325-1.71 0.1454-3.278 1.421-4.294 3.607-0.3948 0.8502-0.6969 1.129-0.9614 1.288s-0.625 0.2279-1.235 0.3582c-1.221 0.2607-3.08 0.9597-4.976 3.785-1.921 2.862-2.021 5.262-1.463 6.881 0.04185 0.1215 0.1138 0.1638 0.162 0.2766-7.913-0.5938-14.63-5.24-18.1-11.93-0.8585-0.01302-1.706 0.006399-2.586-0.07023zm2.295-0.4505c1.052 0.02491 2.001 0.005688 3.156-0.08862 7.894-0.6449 18.5-3.7 30.3-10.33 1.333-0.7188 0.2142-2.71-1.093-1.947-11.55 6.491-21.9 9.438-29.39 10.05-1.442 0.1178-2.672 0.07726-3.885 0.03161-0.8276-2.336-1.362-4.814-1.362-7.436 0-3.472 0.8565-6.717 2.265-9.646 0.05113-0.03202 0.09958-0.06814 0.1449-0.108 0.4785-0.4082 1.216-0.5708 2.159-0.432 0.9423 0.1388 2.02 0.5938 2.912 1.237 0.892 0.6429 1.585 1.47 1.883 2.236 0.2979 0.7662 0.2913 1.412-0.2305 2.184-1.086 1.605-1.654 2.914-1.696 4.146s0.6349 2.328 1.553 2.896c1.836 1.137 4.353 1.015 6.734 0.8376 0.01363-0.001067 0.02724-0.002385 0.04083-0.003951 1.379-0.1536 3.076-0.5603 4.292-1.928 1.216-1.368 1.727-3.548 1.147-6.644-0.3976-2.124 0.4234-3.26 1.609-4.454 0.593-0.5973 1.276-1.156 1.902-1.762 0.6257-0.6066 1.239-1.274 1.494-2.219 0.3053-1.134-0.2522-2.083-0.7757-2.826-0.5236-0.7429-1.128-1.419-1.522-2.04-0.3943-0.621-0.5432-1.086-0.4583-1.515 0.08488-0.429 0.4544-1.07 1.733-1.908 0.07343-0.04725 0.1411-0.1029 0.2015-0.1659 2.69 0.3677 5.23 1.201 7.527 2.438 1.331 0.7757 2.438-1.282 1.058-1.965-3.464-1.865-7.43-2.925-11.63-2.925-11.88 0-21.8 8.457-24.08 19.67-0.007962 0.004731-0.01587 0.00956-0.02371 0.01449-2.281 1.448-4.129 2.922-5.4 4.481-1.271 1.559-1.993 3.295-1.69 5.061 0.3478 2.024 2.151 3.44 4.608 4.232 1.143 0.3682 2.497 0.6257 3.98 0.7323 0.8343 0.05995 1.656 0.07567 2.537 0.09653zm19.97-32.05c-0.5036 0.5896-0.8501 1.202-0.9786 1.852-0.2407 1.217 0.2277 2.299 0.7639 3.144 0.5362 0.8444 1.175 1.552 1.582 2.13 0.4068 0.5772 0.4657 0.884 0.4452 0.9601-0.07122 0.2645-0.3671 0.6886-0.8916 1.197-0.5245 0.5085-1.233 1.088-1.932 1.792-1.398 1.408-2.764 3.529-2.219 6.438 0.5054 2.699 0.0397 4.008-0.6203 4.751-0.6576 0.7394-1.732 1.062-2.861 1.189-2.242 0.1637-4.548-0.003961-5.364-0.5097-0.4102-0.254-0.5151-0.3802-0.4965-0.9206 0.01858-0.5404 0.3543-1.554 1.314-2.973 0.9122-1.348 0.9713-2.936 0.4623-4.245-0.509-1.309-1.495-2.398-2.659-3.237-1.164-0.8393-2.52-1.432-3.892-1.634-0.3815-0.05619-0.7645 0.01001-1.15 0.02371 3.983-5.981 10.77-9.923 18.5-9.957zm18.04 1.677c-0.1875 0.004024-0.3709 0.05521-0.5334 0.1488l-3.124 1.8c-0.7197 0.4144-0.751 1.442-0.05795 1.899l8.25 5.439-2.861 1.649-3.011-1.008c-0.3028-0.1015-0.6346-0.06837-0.9114 0.09088l-2.853 1.642c-0.6857 0.3953-0.7537 1.359-0.1304 1.846l4.278 3.348 0.7652 5.37c0.1115 0.7819 0.9775 1.204 1.662 0.81l2.851-1.644c0.2775-0.1595 0.4732-0.4305 0.5373-0.7441l0.6309-3.106 2.863-1.65 0.594 9.854c0.0505 0.8273 0.953 1.313 1.671 0.8995l3.125-1.799c0.2959-0.1709 0.4973-0.4679 0.5466-0.806l1.845-12.63 3.511-2.024c0.4537-0.2614 0.7083-0.568 1.018-0.9548 0.3097-0.3868 0.6149-0.8441 0.8811-1.339 0.2662-0.4954 0.4941-1.022 0.6177-1.584 0.1235-0.5626 0.1721-1.219-0.2002-1.861-0.3709-0.6412-0.9612-0.9268-1.509-1.101-0.5492-0.1746-1.12-0.2415-1.683-0.2595-0.5627-0.01791-1.112 0.01819-1.603 0.09219-0.4904 0.074-0.8827 0.1389-1.337 0.4004h-0.001316l-3.513 2.026-11.88-4.722c-0.1386-0.0552-0.2868-0.08207-0.4359-0.07902zm0.1133 2.352 11.88 4.723c0.317 0.1256 0.674 0.09937 0.9693-0.07112l3.981-2.294c-0.08047 0.04634 0.2108-0.0757 0.5558-0.1278 0.345-0.05205 0.7812-0.08045 1.199-0.06717 0.4173 0.01328 0.8194 0.0734 1.077 0.1554 0.2579 0.08201 0.308 0.183 0.2542 0.08956l0.001314 0.002635c-0.05377-0.09279 0.009061-0.001101-0.04873 0.2621-0.0578 0.2632-0.2072 0.6408-0.4043 1.008-0.1971 0.3668-0.4409 0.7292-0.6585 1.001-0.2176 0.2718-0.4688 0.4624-0.3885 0.4162l-3.981 2.294c-0.2959 0.1709-0.4973 0.4679-0.5466 0.806l-1.845 12.63-1.092 0.6295-0.594-9.855c-0.0505-0.8273-0.953-1.313-1.671-0.8995l-4.864 2.803c-0.2773 0.1601-0.4725 0.4316-0.536 0.7454l-0.6309 3.104-0.9865 0.569-0.5953-4.182c-0.04074-0.2855-0.1903-0.5441-0.4175-0.7217l-3.328-2.605 0.9825-0.565 3.012 1.008c0.3028 0.1015 0.6346 0.06837 0.9114-0.09088l4.864-2.803c0.7194-0.415 0.75-1.442 0.05663-1.899l-8.25-5.441zm-42.43 16.35c-0.05225 0.6534-0.1962 1.28-0.1962 1.947 0 2.531 0.4951 4.924 1.208 7.223-0.8995-0.1289-1.848-0.236-2.534-0.457-2.039-0.6565-2.937-1.578-3.092-2.485-0.163-0.9508 0.1898-2.01 1.22-3.273 0.7646-0.9376 1.985-1.941 3.395-2.954zm35.66 10.14c0.7499-0.06376 1.608 0.3594 2.313 1.374 0.943 1.358 2.069 2.579 3.611 3.033 0.3379 0.09953 0.6908 0.1284 1.047 0.1264-3.869 5.541-10.14 9.231-17.35 9.525-0.1996-0.2163-0.4421-0.5453-0.6295-1.089-0.3318-0.9631-0.4328-2.47 1.205-4.911 1.663-2.478 2.524-2.617 3.589-2.845 0.5324-0.1137 1.207-0.2011 1.918-0.6269 0.7104-0.4258 1.325-1.159 1.837-2.263 0.7996-1.722 1.708-2.259 2.458-2.323z" style="color-rendering:auto;color:#000000;fill:url(#i60-linearGradient871);isolation:auto;mix-blend-mode:normal;shape-rendering:auto;solid-color:#000000"/>
</svg>
