<?xml version="1.0" encoding="UTF-8" standalone="no"?>
<!-- Created with Inkscape (http://www.inkscape.org/) -->

<svg xmlns:dc="http://purl.org/dc/elements/1.1/" xmlns:cc="http://creativecommons.org/ns#" xmlns:rdf="http://www.w3.org/1999/02/22-rdf-syntax-ns#" xmlns:svg="http://www.w3.org/2000/svg" xmlns="http://www.w3.org/2000/svg" xmlns:xlink="http://www.w3.org/1999/xlink" xmlns:sodipodi="http://sodipodi.sourceforge.net/DTD/sodipodi-0.dtd" xmlns:inkscape="http://www.inkscape.org/namespaces/inkscape" width="107" height="73.88459" viewBox="0 0 28.310418 19.548631" version="1.1" id="svg33665" inkscape:version="0.92.2 (5c3e80d, 2017-08-06)" sodipodi:docname="i60a.svg">
  <defs id="defs33659">
    <linearGradient id="i60-linearGradient5554" y2="-249.2" xlink:href="#i60-linearGradient7728" gradientUnits="userSpaceOnUse" y1="-249.2" gradientTransform="matrix(2.1975257,0,0,2.1975257,434.39323,573.35803)" x2="-150.2" x1="-167.5" />
    <linearGradient id="i60-linearGradient7728" y2="781.40002" gradientUnits="userSpaceOnUse" y1="704.40002" gradientTransform="scale(0.7835,1.276)" x2="-1405" x1="-1405">
      <stop id="i60-stop2" stop-color="#1c072d" offset="0" />
      <stop id="i60-stop4" stop-color="#5700aa" offset=".29" />
      <stop id="i60-stop6" stop-color="#4b127b" offset=".64" />
      <stop id="i60-stop8" stop-color="#290a43" offset="1" />
    </linearGradient>
    <linearGradient id="i60-linearGradient5546" y2="-251.39999" xlink:href="#i60-linearGradient7728" gradientUnits="userSpaceOnUse" y1="-251.39999" gradientTransform="matrix(2.1975257,0,0,2.1975257,434.39323,573.35803)" x2="-174.60001" x1="-190.7" />
    <linearGradient id="i60-linearGradient5538" y2="-234" xlink:href="#i60-linearGradient7728" gradientUnits="userSpaceOnUse" y1="-234" gradientTransform="matrix(2.1975257,0,0,2.1975257,434.39323,573.35803)" x2="-162" x1="-177.39999" />
    <linearGradient id="i60-linearGradient871" y2="-171.46001" gradientUnits="userSpaceOnUse" x2="-1198.9" gradientTransform="matrix(2.858984,0,0,2.858984,3434.0009,495.78947)" y1="-150.94" x1="-1170.7">
      <stop id="i60-stop11" stop-color="#696969" offset="0" />
      <stop id="i60-stop13" stop-color="#c7c7c9" offset=".24084" />
      <stop id="i60-stop15" stop-color="#f9f9ff" offset=".44168" />
      <stop id="i60-stop17" stop-color="#ccccce" offset=".7844" />
      <stop id="i60-stop19" stop-color="#696969" offset="1" />
    </linearGradient>
    <defs id="i60-defs25">
      <linearGradient x1="-1405" x2="-1405" gradientTransform="scale(0.7835,1.276)" y1="704.40002" gradientUnits="userSpaceOnUse" y2="781.40002" id="RESERVED_FOR_INKSCAPE_DUPLICATE_DEF_000000000">
        <stop offset="0" stop-color="#1c072d" id="stop33525" />
        <stop offset=".29" stop-color="#5700aa" id="stop33527" />
        <stop offset=".64" stop-color="#4b127b" id="stop33529" />
        <stop offset="1" stop-color="#290a43" id="stop33531" />
      </linearGradient>
      <linearGradient x1="-177.39999" x2="-162" gradientTransform="matrix(2.197,0,0,2.197,433.41,572.34)" y1="-234" gradientUnits="userSpaceOnUse" xlink:href="#i60-linearGradient7728" y2="-234" id="RESERVED_FOR_INKSCAPE_DUPLICATE_DEF_000000001" />
      <linearGradient x1="-190.7" x2="-174.60001" gradientTransform="matrix(2.197,0,0,2.197,433.41,572.34)" y1="-251.39999" gradientUnits="userSpaceOnUse" xlink:href="#i60-linearGradient7728" y2="-251.39999" id="RESERVED_FOR_INKSCAPE_DUPLICATE_DEF_000000002" />
      <linearGradient x1="-167.5" x2="-150.2" gradientTransform="matrix(2.197,0,0,2.197,433.41,572.34)" y1="-249.2" gradientUnits="userSpaceOnUse" xlink:href="#i60-linearGradient7728" y2="-249.2" id="RESERVED_FOR_INKSCAPE_DUPLICATE_DEF_000000003" />
      <linearGradient x1="-1170.7" y1="-150.94" gradientTransform="matrix(2.8583,0,0,2.8583,3432.3,494.79)" x2="-1198.9" gradientUnits="userSpaceOnUse" y2="-171.46001" id="RESERVED_FOR_INKSCAPE_DUPLICATE_DEF_000000004">
        <stop offset="0" stop-color="#696969" id="stop33541" />
        <stop offset=".24084" stop-color="#c7c7c9" id="stop33543" />
        <stop offset=".44168" stop-color="#f9f9ff" id="stop33545" />
        <stop offset=".7844" stop-color="#ccccce" id="stop33547" />
        <stop offset="1" stop-color="#696969" id="stop33549" />
      </linearGradient>
    </defs>
    <linearGradient id="reslogo-linearGradient4678" y2="917.60541" xlink:href="#reslogo-linearGradient7732" gradientUnits="userSpaceOnUse" x2="-529.5116" gradientTransform="matrix(1.9356804,0,0,1.94308,1024.0551,-1708.6573)" y1="879.48578" x1="-530.00616" />
    <linearGradient id="reslogo-linearGradient7732" y2="1076" gradientUnits="userSpaceOnUse" x2="-1040" gradientTransform="matrix(0.5122,0,0,0.5116,-456,447.2)" y1="884.29999" x1="-1040">
      <stop id="reslogo-stop4444" stop-color="#141414" offset="0" style="stop-opacity:1" />
      <stop id="reslogo-stop4446" stop-color="#0a0a0a" offset=".15" />
      <stop id="reslogo-stop4448" stop-color="#6d6d6d" offset=".3" />
      <stop id="reslogo-stop4450" offset=".44" />
      <stop id="reslogo-stop4452" stop-color="#141414" offset=".62" />
      <stop id="reslogo-stop4454" stop-color="#262626" offset=".75" />
      <stop id="reslogo-stop4456" stop-color="#040404" offset="1" />
    </linearGradient>
    <linearGradient inkscape:collect="always" xlink:href="#reslogo-linearGradient7732" id="linearGradient34376" gradientUnits="userSpaceOnUse" gradientTransform="matrix(0.50413912,0,0,0.5060663,266.94751,-444.86878)" x1="-530.00616" y1="879.48578" x2="-529.5116" y2="917.60541" />
    <filter inkscape:collect="always" style="color-interpolation-filters:sRGB" id="filter34388" x="-0.015191619" width="1.0303832" y="-0.022082198" height="1.0441644">
      <feGaussianBlur inkscape:collect="always" stdDeviation="0.67160249" id="feGaussianBlur34390" />
    </filter>
  </defs>
  <sodipodi:namedview id="base" pagecolor="#ffffff" bordercolor="#666666" borderopacity="1.0" inkscape:pageopacity="0.0" inkscape:pageshadow="2" inkscape:zoom="5.12" inkscape:cx="115.42507" inkscape:cy="41.933429" inkscape:document-units="px" inkscape:current-layer="svg33665" showgrid="false" fit-margin-top="0" fit-margin-left="0" fit-margin-right="0" fit-margin-bottom="0" inkscape:snap-global="false" units="px" inkscape:window-width="2560" inkscape:window-height="1001" inkscape:window-x="-9" inkscape:window-y="41" inkscape:window-maximized="1" />
  <metadata id="metadata33662">
    <rdf:RDF>
      <cc:Work rdf:about="">
        <dc:format>image/svg+xml</dc:format>
        <dc:type rdf:resource="http://purl.org/dc/dcmitype/StillImage" />
        <dc:title></dc:title>
      </cc:Work>
    </rdf:RDF>
  </metadata>
  <rect style="opacity:1;fill:url(#linearGradient34376);fill-opacity:1;stroke:none;stroke-width:0.2610696;stroke-linecap:butt;stroke-linejoin:miter;stroke-miterlimit:4;stroke-dasharray:none;stroke-dashoffset:0;stroke-opacity:1" id="rect33783" width="28.310417" height="19.50036" x="0" y="-1.4210855e-014" ry="1.659042" />
  <g id="g33790" transform="matrix(0.25209381,0,0,0.25209381,0.68334533,0.5447653)">
    <path style="display:inline;fill:url(#i60-linearGradient5554);stroke-width:0.82802814" inkscape:connector-curvature="0" d="M 87.847325,43.97538 92.481934,41.305341 95.334316,21.771668 101.23903,18.367654 C 102.34699,17.729271 105.01433,13.748449 104.06941,12.117858 103.12447,10.486668 98.336035,10.798643 97.22847,11.437066 L 91.323757,14.84108 72.950361,7.5409335 68.315752,10.210972 82.793216,19.757056 75.57869,23.914751 70.405753,22.183337 66.17554,24.62042 73.044984,29.995606 74.273878,38.620869 78.50409,36.183786 79.588749,30.846009 86.803276,26.688314 Z" id="i60-path27" />
    <path style="display:inline;fill:url(#i60-linearGradient5546);stroke-width:0.82802814" inkscape:connector-curvature="0" d="M 50.489388,15.847651 C 51.455619,12.258792 41.242175,8.1186017 49.66119,2.598481 L 49.53616,1.9317215 C 48.484408,1.8356896 47.424554,1.7702029 46.349797,1.7702029 32.834564,1.7702029 21.121762,9.4835483 15.364384,20.745743 L 15.703025,20.81694 C 20.394748,16.815282 32.380015,24.467013 28.122997,30.754117 22.051244,39.724463 29.532534,40.374919 36.403278,39.862896 40.130269,39.448887 44.637448,37.694177 43.028863,29.097321 41.631028,21.632335 49.515915,19.43701 50.480646,15.848151 Z" id="i60-path29" />
    <path inkscape:connector-curvature="0" style="display:inline;fill:url(#i60-linearGradient5538);stroke:none;stroke-width:0.82802814" d="M 77.738907,51.447168 C 73.840474,55.672979 70.454064,53.408937 67.883049,49.708252 65.29433,45.98126 60.637816,45.568161 57.945872,51.364348 55.253928,57.161435 52.460859,51.778367 47.180296,59.644629 42.103982,67.210739 46.790233,70.946333 47.15546,71.219398 60.652689,70.912185 72.251464,62.921513 77.744778,51.445667 Z" id="i60-path31" />
    <path style="color:#000000;clip-rule:nonzero;display:inline;visibility:visible;opacity:1;isolation:auto;mix-blend-mode:normal;color-interpolation:sRGB;solid-color:#000000;solid-opacity:1;fill:#ffffff;fill-opacity:1;fill-rule:nonzero;stroke:none;stroke-width:3.31551766;stroke-linecap:round;stroke-linejoin:round;stroke-miterlimit:10;stroke-dasharray:none;stroke-dashoffset:0;stroke-opacity:1;filter:url(#filter34388);color-rendering:auto;shape-rendering:auto" d="M 47.287872,0.77925793 C 29.648767,0.77925793 14.91907,13.340865 11.543252,29.998836 A 1.6575736,1.6582755 0 0 0 11.508063,30.020349 C 8.1218773,32.170998 5.3781148,34.358812 3.4907425,36.673963 1.6033702,38.989116 0.53152215,41.568912 0.9805647,44.19204 A 1.6575736,1.6582755 0 0 0 0.9805647,44.193995 C 1.4970229,47.200681 4.1738062,49.304252 7.8229497,50.479921 9.5211698,51.027048 11.533448,51.368315 13.732815,51.569298 19.300249,64.610034 32.235666,73.765616 47.287872,73.765616 47.442089,73.765616 47.5857,73.726456 47.739468,73.724544 A 1.6575736,1.6582755 0 0 0 48.808836,73.62871 C 62.445717,73.057375 74.08267,65.028321 79.843939,53.46642 79.899017,53.407968 79.959456,53.374202 80.014021,53.313868 A 1.6575736,1.6582755 0 0 0 80.455844,52.140391 C 81.705265,49.358057 82.737438,46.456864 83.257312,43.356916 A 1.6575736,1.6582755 0 1 0 79.988606,42.809292 C 79.478304,45.852165 78.445333,48.69328 77.167589,51.395232 75.720778,52.836204 74.731898,53.094937 73.775721,52.813184 72.723874,52.503241 71.391073,51.311296 70.200087,49.595901 68.655298,47.371609 66.30287,45.928 63.764334,46.143923 61.225798,46.359846 58.896548,48.255332 57.389187,51.502801 56.80301,52.765712 56.354848,53.180043 55.96206,53.415569 55.569273,53.651095 55.034481,53.753923 54.128301,53.947545 52.315942,54.334788 49.555082,55.371755 46.740481,59.5685 43.888862,63.820223 43.740319,67.386588 44.568512,69.79144 44.630654,69.971884 44.737434,70.034652 44.808973,70.202157 32.72314,69.294869 22.50987,62.016848 17.500037,51.620149 19.035683,51.627887 20.469201,51.717117 22.182183,51.577122 33.903402,50.61919 49.657715,46.082272 67.171842,36.237821 A 1.6582689,1.6589711 0 1 0 65.547264,33.345201 C 48.39544,42.986005 33.023402,47.363767 21.912398,48.271828 19.773043,48.44667 17.948236,48.386401 16.147199,48.318767 14.918225,44.848529 14.123809,41.167951 14.123809,37.272437 14.123809,32.112128 15.398216,27.292628 17.492217,22.940372 A 1.6575736,1.6582755 0 0 0 17.701399,22.785864 C 18.412116,22.17943 19.508259,21.938202 20.907545,22.144363 22.30683,22.350522 23.905597,23.025895 25.229977,23.980854 26.554357,24.935813 27.585152,26.163726 28.027535,27.301794 28.469918,28.439862 28.460119,29.400951 27.685416,30.546458 26.072366,32.930635 25.228354,34.875556 25.165463,36.705256 25.102572,38.534956 26.107537,40.16175 27.470369,41.006049 30.196035,42.694651 33.932806,42.513005 37.468072,42.249935 A 1.6575736,1.6582755 0 0 0 37.528676,42.244067 C 39.576109,42.015941 42.097716,41.412511 43.903823,39.380784 45.709931,37.349057 46.467469,34.111384 45.6066,29.511843 45.016249,26.357226 46.234635,24.669678 47.99557,22.895388 48.876036,22.008243 49.891479,21.179619 50.820498,20.278534 51.749515,19.377449 52.65949,18.384969 53.03743,16.981064 53.490689,15.297288 52.663306,13.8854 51.885955,12.781972 51.108602,11.678543 50.209458,10.674803 49.624057,9.7524455 49.038657,8.8300884 48.817707,8.1404568 48.943729,7.5032812 49.06975,6.8661055 49.617751,5.9148638 51.516465,4.6693342 A 1.6575736,1.6582755 0 0 0 51.815575,4.4209482 C 55.810431,4.9670042 59.581387,6.2062507 62.992123,8.0430806 A 1.6575736,1.6582755 0 1 0 64.563916,5.1230787 C 59.420302,2.3530182 53.531238,0.77925793 47.287872,0.77925793 Z M 47.145158,4.1099768 C 46.397436,4.9858023 45.883357,5.8954292 45.692619,6.8598246 45.335201,8.6669667 46.030439,10.275991 46.826499,11.530263 47.622559,12.784535 48.57235,13.835395 49.176369,14.692784 49.780389,15.550173 49.867596,16.005452 49.837149,16.118559 49.731397,16.511386 49.292424,17.141003 48.513636,17.896376 47.734848,18.651748 46.681926,19.512156 45.643744,20.558212 43.56738,22.650325 41.541023,25.801176 42.349625,30.122051 43.099959,34.131018 42.406838,36.074228 41.42688,37.176602 40.452127,38.273123 38.86186,38.753022 37.188511,38.942685 33.85718,39.186878 30.429685,38.939552 29.216155,38.187749 28.607159,37.810465 28.451543,37.621372 28.479133,36.818693 28.506723,36.016013 29.004651,34.51149 30.43019,32.404464 31.784502,30.40192 31.872104,28.043137 31.116384,26.09898 30.360663,24.154823 28.898282,22.538334 27.169304,21.291636 25.440327,20.044938 23.427884,19.162722 21.390422,18.862539 20.823673,18.779039 20.254142,18.877337 19.68178,18.897743 25.595909,10.014325 35.669591,4.1594491 47.145158,4.1099768 Z M 73.930164,6.6016597 A 1.6575736,1.6582755 0 0 0 73.138401,6.8207087 L 68.499265,9.4962363 A 1.6575736,1.6582755 0 0 0 68.415201,12.316493 L 80.661116,20.395882 76.414927,22.844537 71.945872,21.348354 A 1.6575736,1.6582755 0 0 0 70.59108,21.483304 L 66.356621,23.924137 A 1.6575736,1.6582755 0 0 0 66.163079,26.666161 L 72.514768,31.637791 73.650603,39.615479 A 1.6575736,1.6582755 0 0 0 76.117772,40.818293 L 80.352231,38.377461 A 1.6575736,1.6582755 0 0 0 81.149858,37.270481 L 82.086287,32.658717 86.33834,30.20615 87.221985,44.843319 A 1.6575736,1.6582755 0 0 0 89.704794,46.179128 L 94.34393,43.505556 A 1.6575736,1.6582755 0 0 0 95.155242,42.308609 L 97.894151,23.542756 103.10805,20.536699 C 103.78166,20.148409 104.15936,19.69333 104.61923,19.118747 105.07912,18.544165 105.53385,17.863528 105.92907,17.127748 106.32429,16.391969 106.66251,15.610627 106.84594,14.774927 107.02926,13.939753 107.1004,12.965052 106.54879,12.011389 V 12.009433 C 105.99646,11.05661 105.11759,10.635165 104.30254,10.376344 103.48709,10.1174 102.63951,10.017559 101.80408,9.9910524 100.96866,9.9645462 100.15294,10.01797 99.42489,10.127958 98.696835,10.237946 98.112868,10.333719 97.438643,10.72252 L 92.222791,13.730532 74.577257,6.7170516 A 1.6575736,1.6582755 0 0 0 73.930164,6.6016597 Z M 74.098291,10.09471 91.743824,17.110146 A 1.6575736,1.6582755 0 0 0 93.184635,17.004533 L 99.094501,13.595582 C 98.974582,13.664736 99.40752,13.483216 99.919497,13.40587 100.43148,13.328526 101.0789,13.286466 101.69852,13.306125 102.31814,13.325784 102.91575,13.415007 103.29963,13.536909 103.68352,13.658811 103.76022,13.808932 103.68085,13.671858 A 1.6575736,1.6582755 0 0 0 103.68085,13.673814 C 103.60101,13.535984 103.69433,13.672086 103.60852,14.063017 103.52271,14.453949 103.30098,15.014405 103.00835,15.559201 102.71571,16.103997 102.35394,16.641947 102.03086,17.045605 101.70779,17.449263 101.33503,17.732299 101.45415,17.663636 L 95.542325,21.072587 A 1.6575736,1.6582755 0 0 0 94.731014,22.269534 L 91.992105,41.033431 90.369482,41.968301 89.485837,27.331131 A 1.6575736,1.6582755 0 0 0 87.004984,25.995323 L 79.783335,30.15921 A 1.6575736,1.6582755 0 0 0 78.985708,31.264235 L 78.049279,35.877956 76.585009,36.720902 75.701364,30.509297 A 1.6575736,1.6582755 0 0 0 75.08164,29.437522 L 70.141437,25.570916 71.599843,24.729924 76.070853,26.226107 A 1.6575736,1.6582755 0 0 0 77.423689,26.091157 L 84.645338,21.927269 A 1.6575736,1.6582755 0 0 0 84.731357,19.107013 L 72.481533,11.027624 Z M 11.10143,34.383728 C 11.024002,35.353314 10.810139,36.283101 10.810139,37.272437 10.810139,41.032579 11.544389,44.589368 12.602844,48.003884 11.266119,47.812371 9.8571253,47.651742 8.8375776,47.323267 5.8118723,46.348456 4.479436,44.97952 4.2473148,43.632682 V 43.630726 C 4.006301,42.218848 4.5312107,40.645343 6.0595693,38.770576 7.1948309,37.378003 9.0069529,35.888229 11.10143,34.383728 Z M 64.043895,49.447261 C 65.157248,49.352561 66.430545,49.982617 67.476817,51.489111 68.876992,53.505803 70.549966,55.318721 72.839292,55.993307 73.340984,56.141138 73.864616,56.183949 74.393491,56.181063 68.649429,64.411041 59.341176,69.89078 48.638754,70.327328 48.342259,70.006284 47.980988,69.521005 47.702324,68.711842 47.209657,67.281267 47.061251,65.04254 49.493075,61.416727 51.961914,57.735534 53.239311,57.528073 54.82036,57.190254 55.610884,57.021343 56.612069,56.891736 57.666792,56.259295 58.721515,55.626853 59.634911,54.538834 60.395926,52.899239 61.583048,50.341696 62.930542,49.54196 64.043895,49.447261 Z" id="path34378" inkscape:connector-curvature="0" />
    <path inkscape:connector-curvature="0" id="i60-path33" d="M 47.244141,0.87890625 C 29.621657,0.87890625 14.90584,13.423365 11.533203,30.058594 A 1.6560117,1.6560117 0 0 0 11.498047,30.080078 C 8.1150522,32.227791 5.3738751,34.412618 3.4882812,36.724609 1.6026874,39.036601 0.53184933,41.612875 0.98046875,44.232422 A 1.6560117,1.6560117 0 0 0 0.98046875,44.234375 C 1.4964403,47.236956 4.1707013,49.337655 7.8164062,50.511719 9.5130261,51.058099 11.523408,51.3989 13.720703,51.599609 19.282891,64.622542 32.206119,73.765625 47.244141,73.765625 47.398213,73.765625 47.541689,73.726519 47.695312,73.724609 A 1.6560117,1.6560117 0 0 0 48.763672,73.628906 C 62.387703,73.058351 74.013691,65.040258 79.769531,53.494141 79.824557,53.435769 79.884939,53.402049 79.939453,53.341797 A 1.6560117,1.6560117 0 0 0 80.380859,52.169922 C 81.629103,49.391387 82.660303,46.494154 83.179688,43.398438 A 1.6560117,1.6560117 0 1 0 79.914062,42.851562 C 79.404241,45.890281 78.372243,48.727517 77.095703,51.425781 75.650255,52.864785 74.662307,53.123165 73.707031,52.841797 72.656175,52.532277 71.32463,51.341959 70.134766,49.628906 68.591433,47.407651 66.241222,45.966012 63.705078,46.181641 61.168934,46.397269 58.841878,48.290167 57.335938,51.533203 56.750313,52.79439 56.302573,53.208155 55.910156,53.443359 55.517739,53.678564 54.983451,53.781252 54.078125,53.974609 52.267473,54.361324 49.509215,55.396875 46.697266,59.587891 43.848334,63.833809 43.699931,67.395306 44.527344,69.796875 44.589427,69.977072 44.696106,70.039754 44.767578,70.207031 32.693133,69.300981 22.489487,62.032896 17.484375,51.650391 19.018574,51.658118 20.450741,51.747226 22.162109,51.607422 33.872283,50.650798 49.611751,46.120074 67.109375,36.289062 A 1.6567062,1.6567062 0 1 0 65.486328,33.400391 C 48.350666,43.028034 32.993112,47.399819 21.892578,48.306641 19.755239,48.481244 17.932152,48.421057 16.132812,48.353516 14.904996,44.888015 14.111328,41.212462 14.111328,37.322266 14.111328,32.169001 15.384534,27.356081 17.476562,23.009766 A 1.6560117,1.6560117 0 0 0 17.685547,22.855469 C 18.395594,22.249863 19.490705,22.008965 20.888672,22.214844 22.286639,22.420722 23.883899,23.095173 25.207031,24.048828 26.530163,25.002483 27.559987,26.22872 28.001953,27.365234 28.443919,28.501749 28.434129,29.461526 27.660156,30.605469 26.048626,32.986391 25.20541,34.928657 25.142578,36.755859 25.079746,38.583061 26.083764,40.207634 27.445312,41.050781 30.16841,42.737077 33.90166,42.555679 37.433594,42.292969 A 1.6560117,1.6560117 0 0 0 37.494141,42.287109 C 39.539645,42.059294 42.058876,41.456688 43.863281,39.427734 45.667687,37.398781 46.424511,34.165528 45.564453,29.572266 44.974659,26.421956 46.191897,24.736712 47.951172,22.964844 48.830809,22.07891 49.845295,21.251417 50.773438,20.351562 51.70158,19.451708 52.610698,18.460582 52.988281,17.058594 53.441113,15.377117 52.61451,13.967156 51.837891,12.865234 51.061271,11.763312 50.162974,10.760942 49.578125,9.8398438 48.993276,8.9187459 48.772535,8.2300558 48.898438,7.59375 49.02434,6.9574442 49.571825,6.0075011 51.46875,4.7636719 A 1.6560117,1.6560117 0 0 0 51.767578,4.515625 C 55.758669,5.0609355 59.526072,6.2984902 62.933594,8.1328125 A 1.6560117,1.6560117 0 1 0 64.503906,5.2167969 C 59.365139,2.4505181 53.481624,0.87890625 47.244141,0.87890625 Z M 47.101562,4.2050781 C 46.354544,5.0797079 45.84095,5.988093 45.650391,6.9511719 45.29331,8.7558469 45.987893,10.362675 46.783203,11.615234 47.578513,12.867794 48.527409,13.917219 49.130859,14.773438 49.73431,15.629656 49.821434,16.084314 49.791016,16.197266 49.685364,16.589557 49.246804,17.218315 48.46875,17.972656 47.690696,18.726997 46.638766,19.586231 45.601562,20.630859 43.527155,22.720115 41.502707,25.866665 42.310547,30.181641 43.060174,34.185135 42.367707,36.125692 41.388672,37.226562 40.414837,38.321586 38.826069,38.800829 37.154297,38.990234 33.826105,39.234093 30.401839,38.987105 29.189453,38.236328 28.581031,37.859559 28.425561,37.670724 28.453125,36.869141 28.480689,36.067557 28.978148,34.565088 30.402344,32.460938 31.75538,30.461128 31.842899,28.105565 31.087891,26.164062 30.332883,24.22256 28.871879,22.608277 27.144531,21.363281 25.417183,20.118285 23.406636,19.237274 21.371094,18.9375 20.804879,18.854114 20.235885,18.952278 19.664062,18.972656 25.572618,10.101366 35.636808,4.2544829 47.101562,4.2050781 Z M 73.861328,6.6933594 A 1.6560117,1.6560117 0 0 0 73.070312,6.9121094 L 68.435547,9.5839844 A 1.6560117,1.6560117 0 0 0 68.351562,12.400391 L 80.585938,20.46875 76.34375,22.914062 71.878906,21.419922 A 1.6560117,1.6560117 0 0 0 70.525391,21.554688 L 66.294922,23.992188 A 1.6560117,1.6560117 0 0 0 66.101562,26.730469 L 72.447266,31.695312 73.582031,39.662109 A 1.6560117,1.6560117 0 0 0 76.046875,40.863281 L 80.277344,38.425781 A 1.6560117,1.6560117 0 0 0 81.074219,37.320312 L 82.009766,32.714844 86.257812,30.265625 87.140625,44.882812 A 1.6560117,1.6560117 0 0 0 89.621094,46.216797 L 94.255859,43.546875 A 1.6560117,1.6560117 0 0 0 95.066406,42.351562 L 97.802734,23.611328 103.01172,20.609375 C 103.6847,20.221615 104.06204,19.767157 104.52148,19.193359 104.98093,18.619561 105.43523,17.939853 105.83008,17.205078 106.22493,16.470303 106.56283,15.690028 106.74609,14.855469 106.92924,14.021435 107.00031,13.048065 106.44922,12.095703 V 12.09375 C 105.89741,11.142228 105.01937,10.721358 104.20508,10.462891 103.3904,10.2043 102.54362,10.104595 101.70898,10.078125 100.87435,10.051655 100.0594,10.105006 99.332031,10.214844 98.604662,10.324682 98.021245,10.420324 97.347656,10.808594 L 92.136719,13.8125 74.507812,6.8085938 A 1.6560117,1.6560117 0 0 0 73.861328,6.6933594 Z M 74.029297,10.181641 91.658203,17.1875 A 1.6560117,1.6560117 0 0 0 93.097656,17.082031 L 99.001953,13.677734 C 98.882147,13.746793 99.314677,13.565521 99.826172,13.488281 100.33767,13.411042 100.98448,13.36904 101.60352,13.388672 102.22255,13.408304 102.8196,13.497405 103.20312,13.619141 103.58665,13.740876 103.66328,13.890793 103.58398,13.753906 A 1.6560117,1.6560117 0 0 0 103.58398,13.755859 C 103.50422,13.618217 103.59745,13.754133 103.51172,14.144531 103.42599,14.534929 103.20447,15.09462 102.91211,15.638672 102.61975,16.182724 102.25832,16.71994 101.93555,17.123047 101.61278,17.526154 101.24037,17.808803 101.35938,17.740234 L 95.453125,21.144531 A 1.6560117,1.6560117 0 0 0 94.642578,22.339844 L 91.90625,41.078125 90.285156,42.011719 89.402344,27.394531 A 1.6560117,1.6560117 0 0 0 86.923828,26.060547 L 79.708984,30.21875 A 1.6560117,1.6560117 0 0 0 78.912109,31.322266 L 77.976562,35.929688 76.513672,36.771484 75.630859,30.568359 A 1.6560117,1.6560117 0 0 0 75.011719,29.498047 L 70.076172,25.636719 71.533203,24.796875 76,26.291016 A 1.6560117,1.6560117 0 0 0 77.351562,26.15625 L 84.566406,21.998047 A 1.6560117,1.6560117 0 0 0 84.652344,19.181641 L 72.414062,11.113281 Z M 11.091797,34.4375 C 11.014442,35.405763 10.800781,36.33428 10.800781,37.322266 10.800781,41.077274 11.534339,44.629208 12.591797,48.039062 11.256331,47.847811 9.8486651,47.687401 8.8300781,47.359375 5.8072239,46.385894 4.4760431,45.018827 4.2441406,43.673828 V 43.671875 C 4.0033539,42.261924 4.527769,40.690567 6.0546875,38.818359 7.1888793,37.427688 8.9992938,35.939947 11.091797,34.4375 Z M 63.984375,49.480469 C 65.096679,49.385898 66.368776,50.015094 67.414062,51.519531 68.812918,53.53347 70.484316,55.343913 72.771484,56.017578 73.272704,56.165208 73.795842,56.20796 74.324219,56.205078 68.585569,64.423821 59.286088,69.896079 48.59375,70.332031 48.297535,70.011425 47.936604,69.526809 47.658203,68.71875 47.166,67.290128 47.017734,65.054458 49.447266,61.433594 51.913779,57.757427 53.189972,57.550249 54.769531,57.212891 55.559311,57.044211 56.559552,56.914781 57.613281,56.283203 58.66701,55.651625 59.579546,54.565091 60.339844,52.927734 61.525847,50.373683 62.872071,49.575039 63.984375,49.480469 Z" style="color:#000000;clip-rule:nonzero;display:inline;visibility:visible;opacity:1;isolation:auto;mix-blend-mode:normal;color-interpolation:sRGB;solid-color:#000000;solid-opacity:1;fill:#000000;fill-opacity:1;fill-rule:nonzero;stroke:none;stroke-width:3.31169224;stroke-linecap:round;stroke-linejoin:round;stroke-miterlimit:10;stroke-dasharray:none;stroke-dashoffset:0;stroke-opacity:1;color-rendering:auto;shape-rendering:auto" />
    <path sodipodi:nodetypes="csssccccccccscscsscccccccccscscccsscssccscsscsssccccsccscssccssscsscscsccssscccccccccccccccccccccccccsccccsscccccccccssccccccccccccccccccccccccccccscscscsccccscsscs" style="color:#000000;clip-rule:nonzero;display:inline;visibility:visible;opacity:1;isolation:auto;mix-blend-mode:normal;color-interpolation:sRGB;solid-color:#000000;solid-opacity:1;fill:url(#i60-linearGradient871);fill-opacity:1;fill-rule:nonzero;stroke:none;stroke-width:3.31169224;stroke-linecap:round;stroke-linejoin:round;stroke-miterlimit:10;stroke-dasharray:none;stroke-dashoffset:0;stroke-opacity:1;color-rendering:auto;shape-rendering:auto" d="M 13.199657,51.528601 C 14.543844,54.474708 16.268659,57.211481 18.311019,59.675579 20.539678,62.364447 23.146455,64.728624 26.049383,66.685809 31.855239,70.600179 38.845696,72.886578 46.36501,72.886578 46.519128,72.886578 46.662621,72.847464 46.81629,72.845553 47.173249,72.933114 47.549193,72.899437 47.884906,72.749826 61.509574,72.179078 73.134968,64.159316 78.89037,52.612196 78.945079,52.554147 79.006128,52.521679 79.060332,52.461769 79.354809,52.144411 79.513296,51.724352 79.501845,51.291569 80.750251,48.512828 81.77996,45.615917 82.299389,42.519938 82.756666,40.278846 79.333179,39.705192 79.034936,41.972932 78.524911,45.012862 77.49128,47.850022 76.213948,50.549203 74.770018,51.985682 73.783065,52.242846 72.828373,51.96165 71.777517,51.65213 70.445116,50.462997 69.255252,48.749944 67.711919,46.52869 65.362124,45.086225 62.82598,45.301854 60.289835,45.517482 57.96321,47.409708 56.457268,50.652744 55.871643,51.913929 55.423563,52.328153 55.031146,52.563357 54.638729,52.798561 54.104002,52.901377 53.198677,53.094734 51.388025,53.481448 48.629954,54.518343 45.818004,58.709358 42.969073,62.955277 42.820151,66.51531 43.647563,68.916878 43.709647,69.097075 43.816383,69.159855 43.887855,69.327133 32.149947,68.446336 22.180281,61.554584 17.035498,51.632771 15.762022,51.61346 14.504582,51.64226 13.199657,51.528601 Z M 16.603984,50.860393 C 18.164363,50.897338 19.572329,50.86883 21.284792,50.728934 32.99472,49.772308 48.73152,45.23987 66.229137,35.408862 68.205709,34.342609 66.546889,31.388709 64.607656,32.521452 47.471988,42.149099 32.115474,46.520542 21.015195,47.427362 18.876623,47.60207 17.052252,47.541964 15.252098,47.474248 14.024524,44.00905 13.232083,40.334062 13.232083,36.444266 13.232083,31.294054 14.502563,26.480523 16.592262,22.136155 16.668104,22.088651 16.739971,22.035078 16.807157,21.975961 17.516924,21.370465 18.611289,21.12931 20.009095,21.335183 21.406902,21.541054 23.005413,22.215952 24.328488,23.169606 25.651563,24.123259 26.680168,25.350285 27.122125,26.486805 27.564082,27.623326 27.554219,28.581918 26.780246,29.725862 25.168717,32.106785 24.326852,34.048568 24.264019,35.87577 24.201187,37.702973 25.205756,39.328572 26.567305,40.17172 29.290403,41.858016 33.024089,41.676915 36.556023,41.414205 36.576245,41.412622 36.596435,41.410668 36.616585,41.408344 38.662089,41.18053 41.178936,40.577238 42.983342,38.548285 44.787748,36.519331 45.544979,33.285674 44.684921,28.692412 44.095127,25.542101 45.312936,23.85723 47.072211,22.085362 47.951849,21.199428 48.965056,20.37131 49.893198,19.471456 50.82134,18.571601 51.730988,17.581641 52.108572,16.179652 52.561403,14.498175 51.734526,13.089165 50.957906,11.987243 50.181287,10.885321 49.284402,9.8822261 48.699553,8.9611283 48.114705,8.0400304 47.893801,7.3508028 48.019703,6.714497 48.145605,6.0781912 48.693706,5.1275709 50.590631,3.8837416 50.699547,3.8136613 50.799865,3.7310458 50.88953,3.637589 54.879908,4.1830398 58.647335,5.4196602 62.05431,7.2536886 64.027974,8.4043422 65.670509,5.3524624 63.623046,4.3389286 58.484278,1.5726498 52.602494,1.0352764e-8 46.36501,0 28.743182,0 14.026697,12.544551 10.653342,29.178856 10.641532,29.185873 10.629809,29.193036 10.618177,29.200345 7.2352862,31.348057 4.4939362,33.534437 2.6084481,35.846466 0.72296005,38.158497 -0.34716611,40.734522 0.1019891,43.354123 0.61795534,46.356673 3.2919908,48.456945 6.9376088,49.631014 8.6335455,50.17719 10.641649,50.559166 12.841365,50.717212 14.078972,50.806132 15.297274,50.829453 16.603984,50.860393 Z M 46.222398,3.3250143 C 45.47538,4.199644 44.961438,5.1086862 44.770879,6.0717651 44.413798,7.8764402 45.108652,9.4824305 45.903963,10.73499 46.699273,11.987549 47.646777,13.037731 48.250227,13.893949 48.853677,14.750167 48.94096,15.205166 48.910541,15.318118 48.80489,15.710409 48.366014,16.339593 47.58796,17.093933 46.809904,17.848274 45.759243,18.708144 44.722039,19.752773 42.647632,21.842029 40.622396,24.986956 41.430236,29.301932 42.179864,33.305426 41.489129,35.24767 40.510094,36.34854 39.534652,37.44537 37.941698,37.923882 36.266891,38.112634 32.941274,38.355483 29.521302,38.106756 28.309909,37.356594 27.701487,36.979825 27.545841,36.792616 27.573405,35.991032 27.60097,35.189449 28.098894,33.685924 29.523091,31.581774 30.876127,29.581966 30.963787,27.226843 30.208802,25.285347 29.453815,23.343849 27.991778,21.728414 26.264498,20.483416 24.537219,19.238418 22.527054,18.358789 20.491633,18.059008 19.925732,17.975661 19.357659,18.073859 18.786147,18.094172 24.694571,9.2220715 34.75702,3.3744203 46.222398,3.3250143 Z M 72.984661,5.8119373 C 72.706571,5.817907 72.434465,5.8938279 72.193455,6.0326933 L 67.559534,8.7032541 C 66.491997,9.3180145 66.445507,10.841631 67.473576,11.520335 L 79.710879,19.588671 75.467676,22.034569 71.001764,20.54007 C 70.552597,20.389579 70.060486,20.438648 69.649878,20.674868 L 65.418397,23.110998 C 64.401297,23.69732 64.300377,25.126501 65.224991,25.849935 L 71.570259,30.815966 72.705297,38.780762 C 72.87073,39.940612 74.155293,40.566608 75.170731,39.982222 L 79.400257,37.544139 C 79.811899,37.307494 80.10216,36.905539 80.197323,36.440358 L 81.133094,31.833787 85.380204,29.385937 86.261274,44.002715 C 86.336181,45.229821 87.674916,45.950353 88.740383,45.337018 L 93.376257,42.668411 C 93.815245,42.414964 94.113978,41.974423 94.186998,41.472812 L 96.923981,22.732001 102.13226,19.729329 C 102.80524,19.34157 103.18294,18.886773 103.64238,18.312975 104.10182,17.739176 104.55448,17.060947 104.94934,16.326171 105.34419,15.591397 105.68231,14.810559 105.86558,13.976 106.04884,13.141441 106.12086,12.168512 105.56862,11.215574 105.01848,10.264509 104.1429,9.840891 103.32981,9.5823707 102.5152,9.3233696 101.66778,9.2240761 100.83312,9.1975129 99.998461,9.1709498 99.183093,9.224496 98.455597,9.3342644 97.728102,9.4440328 97.146198,9.5403487 96.472701,9.9281565 H 96.470747 L 91.260517,12.932781 73.631299,5.9291529 C 73.425748,5.847275 73.205873,5.8074185 72.984661,5.8119373 Z M 73.152669,9.3010534 90.781886,16.306636 C 91.252129,16.492892 91.781708,16.454037 92.21973,16.201141 L 98.12544,12.797983 C 98.006076,12.866715 98.438118,12.685699 98.949856,12.608485 99.461595,12.531271 100.10869,12.489154 100.72763,12.508852 101.34656,12.52855 101.94305,12.617723 102.32567,12.739376 102.70828,12.861028 102.78255,13.010831 102.70271,12.87222 L 102.70466,12.876128 C 102.6249,12.738485 102.7181,12.874494 102.63238,13.264892 102.54665,13.65529 102.32499,14.215338 102.03263,14.75939 101.74026,15.303443 101.3786,15.841013 101.05583,16.244121 100.73306,16.647228 100.36051,16.930024 100.47952,16.861455 L 94.57381,20.264614 C 94.134822,20.518061 93.836089,20.958602 93.763069,21.460213 L 91.026086,40.199071 89.406557,41.132888 88.525488,26.514156 C 88.450582,25.287049 87.111846,24.566515 86.046378,25.179852 L 78.831762,29.337097 C 78.420414,29.57459 78.130847,29.977281 78.03665,30.442831 L 77.100879,35.047447 75.637638,35.891399 74.754615,29.688743 C 74.694191,29.2653 74.472268,28.881661 74.135326,28.618175 L 69.198598,24.75397 70.655978,23.915878 75.123843,25.410377 C 75.573011,25.560868 76.065122,25.511799 76.47573,25.275578 L 83.690347,21.118334 C 84.757393,20.502822 84.802825,18.979253 83.774351,18.301254 L 71.537048,10.230963 Z M 10.21183,33.556857 C 10.134332,34.526004 9.9207444,35.455358 9.9207444,36.444266 9.9207444,40.198508 10.655145,43.748521 11.712189,47.157767 10.378002,46.966547 8.971258,46.807646 7.9534769,46.47987 4.9296555,45.50605 3.5976545,44.138931 3.3664419,42.793441 3.1246218,41.383077 3.6480376,39.811736 5.1754685,37.938764 6.3096408,36.548015 8.1191645,35.059419 10.21183,33.556857 Z M 63.105344,48.601471 C 64.217647,48.5069 65.490566,49.134631 66.535852,50.639068 67.934707,52.653007 69.605434,54.464527 71.892602,55.138192 72.393821,55.285821 72.917331,55.328618 73.445708,55.325737 67.706788,63.54515 58.406209,69.018659 47.712989,69.454117 47.41691,69.133311 47.057137,68.645288 46.779172,67.838495 46.286968,66.409873 46.137177,64.174414 48.566709,60.553549 51.033223,56.877383 52.310689,56.671149 53.890248,56.33379 54.680028,56.16511 55.68095,56.035457 56.734679,55.40388 57.788408,54.772302 58.699643,53.684965 59.45994,52.047608 60.645944,49.493557 61.99304,48.696042 63.105344,48.601471 Z" id="i60-path35" inkscape:connector-curvature="0" />
  </g>
</svg>
