<svg version="1.1" viewBox="0 0 76 52.76" xmlns="http://www.w3.org/2000/svg" xmlns:xlink="http://www.w3.org/1999/xlink">
 <defs>
  <linearGradient id="linearGradient7728" x1="-1405" x2="-1405" y1="704.4" y2="781.4" gradientTransform="scale(.7835 1.276)" gradientUnits="userSpaceOnUse">
   <stop style="stop-color:#1c072d" offset="0"/>
   <stop style="stop-color:#5700aa" offset=".29"/>
   <stop style="stop-color:#4b127b" offset=".64"/>
   <stop style="stop-color:#290a43" offset="1"/>
  </linearGradient>
  <linearGradient id="linearGradient5530" x1="-197.2" x2="-148.1" y1="-232.7" y2="-232.7" gradientTransform="matrix(2.858 0 0 2.858 3433 495.4)" gradientUnits="userSpaceOnUse">
   <stop style="stop-color:#696969" offset="0"/>
   <stop style="stop-color:#c7c7c9" offset=".2408"/>
   <stop style="stop-color:#f9f9ff" offset=".4417"/>
   <stop style="stop-color:#ccccce" offset=".7844"/>
   <stop style="stop-color:#696969" offset="1"/>
  </linearGradient>
  <linearGradient id="linearGradient5538" x1="-177.4" x2="-162" y1="-234" y2="-234" gradientTransform="matrix(1.542 0 0 1.542 305.3 402.8)" gradientUnits="userSpaceOnUse" xlink:href="#linearGradient7728"/>
  <linearGradient id="linearGradient5546" x1="-190.7" x2="-174.6" y1="-251.4" y2="-251.4" gradientTransform="matrix(1.542 0 0 1.542 305.3 402.8)" gradientUnits="userSpaceOnUse" xlink:href="#linearGradient7728"/>
  <linearGradient id="linearGradient5554" x1="-167.5" x2="-150.2" y1="-249.2" y2="-249.2" gradientTransform="matrix(1.542 0 0 1.542 305.3 402.8)" gradientUnits="userSpaceOnUse" xlink:href="#linearGradient7728"/>
  <linearGradient id="linearGradient871" x1="-1171" x2="-1199" y1="-150.9" y2="-171.5" gradientTransform="matrix(2.858 0 0 2.858 3434 474.2)" gradientUnits="userSpaceOnUse" xlink:href="#linearGradient5530"/>
  <linearGradient id="linearGradient7306" x1="-1171" x2="-1199" y1="-150.9" y2="-171.5" gradientTransform="matrix(2.006 0 0 2.006 2410 348.4)" gradientUnits="userSpaceOnUse" xlink:href="#linearGradient5530"/>
 </defs>
 <path d="m62.14 31.36 3.252-1.874 2.002-13.71 4.144-2.389c0.7775-0.448 2.649-3.241 1.986-4.386-0.6631-1.145-4.023-0.9257-4.8-0.4777l-4.144 2.389-12.89-5.123-3.252 1.874 10.16 6.699-5.063 2.918-3.63-1.215-2.968 1.71 4.821 3.772 0.8623 6.053 2.968-1.71 0.7612-3.746 5.063-2.918z" style="fill:url(#linearGradient5554);stroke-width:.5811"/>
 <path d="m35.93 11.62c0.6782-2.518-6.489-5.423-0.5811-9.297l-0.08774-0.4679c-0.738-0.06739-1.482-0.1133-2.236-0.1133-9.484 0-17.7 5.413-21.74 13.32l0.2376 0.04996c3.292-2.808 11.7 2.561 8.716 6.973-4.261 6.295 0.9891 6.751 5.811 6.392 2.615-0.2905 5.778-1.522 4.649-7.555-0.9809-5.238 4.552-6.779 5.229-9.297z" style="fill:url(#linearGradient5546);stroke-width:.5811"/>
 <path d="m55.05 36.6c-2.736 2.965-5.112 1.377-6.916-1.22-1.817-2.615-5.084-2.905-6.973 1.162-1.889 4.068-3.849 0.2905-7.555 5.811-3.562 5.309-0.2737 7.931-0.01743 8.122 9.471-0.2156 17.61-5.823 21.47-13.88z" style="fill:url(#linearGradient5538)"/>
 <path d="m11.8 34.38c-0.8521-2.418-1.402-4.981-1.402-7.694 0-3.615 0.8921-6.993 2.359-10.04 0.0527-0.03296 0.1027-0.07009 0.1494-0.111 0.4982-0.4249 1.266-0.5941 2.247-0.4497 0.981 0.1445 2.103 0.6181 3.031 1.287 0.9285 0.6692 1.652 1.53 1.962 2.328 0.3101 0.7975 0.3033 1.47-0.2399 2.273-1.131 1.671-1.723 3.035-1.767 4.317-0.04408 1.282 0.6608 2.422 1.616 3.013 1.911 1.183 4.531 1.056 7.009 0.8719 0.01419-0.00111 0.02836-0.002482 0.0425-0.004113 1.435-0.16 3.203-0.5832 4.469-2.007 1.266-1.424 1.798-3.693 1.194-6.916-0.4139-2.211 0.4393-3.393 1.674-4.636 0.6173-0.6217 1.33-1.203 1.981-1.834 0.6513-0.6315 1.288-1.326 1.553-2.31 0.3178-1.18-0.2625-2.169-0.8075-2.942-0.545-0.7732-1.174-1.477-1.585-2.124-0.4104-0.6464-0.5654-1.13-0.4771-1.577 0.08835-0.4465 0.473-1.114 1.804-1.986 0.07643-0.04918 0.1468-0.1072 0.2097-0.1727 2.8 0.3828 5.444 1.252 7.835 2.539 1.385 0.807 2.537-1.334 1.101-2.045-3.606-1.941-7.735-3.045-12.11-3.045-12.37 0-22.69 8.802-25.06 20.47-0.008287 0.004923-0.01651 0.00995-0.02468 0.01508-2.374 1.507-4.299 3.041-5.622 4.664-1.323 1.622-2.074 3.43-1.759 5.268 0.3621 2.107 2.239 3.582 4.797 4.406 1.19 0.3831 2.601 0.6199 4.141 0.7608l2.642 0.03701c1.077 0.005489 2.083 0.06938 3.285-0.02879 8.217-0.6713 19.26-3.852 31.54-10.75 1.386-0.7485 0.2228-2.82-1.138-2.026-12.02 6.756-22.8 9.824-30.59 10.46-1.5 0.1226-2.78 0.08172-4.043 0.03427l-2.485-0.2221c-0.9363-0.1342-1.923-0.2471-2.638-0.4771-2.121-0.6831-3.056-1.642-3.219-2.586v-0.001371c-0.1691-0.9895 0.1981-2.093 1.269-3.407 0.7959-0.976 2.066-2.02 3.534-3.075-0.05438 0.68-0.2043 1.332-0.2043 2.026 0 2.622 0.4992 5.058 1.235 7.44 0.2773 0.8984 0.4943 1.801 0.8633 2.693 3.93 9.078 12.97 15.44 23.47 15.44 9.669-0.01824 18.91-6.285 22.83-14.23 1.122-2.215 2.021-4.956 2.392-7.082 0.3205-1.572-2.081-1.975-2.291-0.3838-0.3577 2.132-1.083 4.122-1.978 6.015-1.014 1.01-1.707 1.191-2.377 0.9939-0.7374-0.2172-1.672-1.052-2.507-2.254-1.083-1.559-2.732-2.571-4.512-2.42-1.78 0.1513-3.412 1.479-4.469 3.755-0.411 0.885-0.7254 1.176-1.001 1.341s-0.6492 0.2372-1.285 0.3729c-1.271 0.2714-3.207 0.9976-5.181 3.939-1.999 2.98-2.104 5.479-1.523 7.164 0.04356 0.1265 0.1185 0.1705 0.1686 0.2879-8.432-0.6324-15.56-5.685-19.09-12.91-0.3764-0.817-0.688-1.643-1.017-2.467zm21.75-30.93c-0.5236 0.6134-0.8836 1.251-1.017 1.926-0.2506 1.266 0.2357 2.393 0.7937 3.272 0.5581 0.879 1.224 1.616 1.648 2.217 0.4235 0.6008 0.4847 0.9202 0.4634 0.9994-0.07414 0.2753-0.3821 0.7168-0.9281 1.246-0.546 0.5293-1.283 1.133-2.011 1.866-1.456 1.466-2.877 3.673-2.31 6.701 0.526 2.809 0.03997 4.172-0.6471 4.945-0.6834 0.7684-1.799 1.104-2.972 1.237-2.335 0.1714-4.737-0.002353-5.588-0.5292-0.427-0.2644-0.5375-0.3958-0.5182-0.9583s0.3701-1.618 1.37-3.094c0.9496-1.403 1.011-3.056 0.4812-4.418-0.5298-1.362-1.556-2.496-2.768-3.37-1.212-0.8736-2.624-1.491-4.052-1.701-0.3971-0.05849-0.7957 0.01043-1.197 0.02468 4.146-6.226 11.21-10.33 19.25-10.36zm18.78 1.745c-0.1947 0.004418-0.3851 0.05769-0.5538 0.1549l-3.253 1.873c-0.7488 0.4319-0.7807 1.501-0.05895 1.977l8.587 5.663-2.978 1.715-3.135-1.049c-0.3154-0.1052-0.6607-0.07026-0.9487 0.09596l-2.968 1.71c-0.7137 0.4114-0.7846 1.414-0.1357 1.922l4.451 3.483 0.7965 5.591c0.1169 0.8133 1.018 1.252 1.73 0.8417l2.969-1.71c0.2887-0.1667 0.4919-0.4492 0.558-0.7759l0.6567-3.231 2.982-1.719 0.6196 10.26c0.05256 0.8611 0.992 1.367 1.74 0.9363l3.253-1.873c0.3081-0.1779 0.5177-0.487 0.5689-0.839l1.921-13.15 3.655-2.107c0.4723-0.2721 0.7373-0.5912 1.06-0.9939 0.3224-0.4027 0.64-0.8786 0.9171-1.394 0.2771-0.5156 0.5143-1.064 0.6429-1.649s0.1792-1.268-0.2084-1.937h0.001369c-0.3872-0.6684-1.003-0.9646-1.575-1.146-0.5717-0.1815-1.166-0.2501-1.752-0.2687-0.5857-0.01857-1.158 0.01752-1.668 0.09459-0.5104 0.07708-0.9188 0.1457-1.391 0.4181l-3.656 2.108-12.37-4.916c-0.1448-0.05717-0.2995-0.08467-0.4551-0.08088zm0.1193 2.448 12.37 4.915c0.3298 0.1311 0.7014 0.1044 1.009-0.07266l4.144-2.388c-0.08406 0.04845 0.2182-0.07878 0.5771-0.133 0.3589-0.0542 0.8145-0.08506 1.249-0.07129 0.4344 0.01377 0.8523 0.07634 1.121 0.1618 0.2691 0.08542 0.323 0.192 0.2673 0.09596-0.05598-0.09659 0.009433-0.001142-0.05073 0.2728-0.06016 0.274-0.2157 0.667-0.4209 1.049-0.2052 0.3818-0.4589 0.759-0.6854 1.042-0.2265 0.2829-0.4879 0.4813-0.4044 0.4332l-4.144 2.388c-0.3081 0.1778-0.5177 0.487-0.5689 0.839l-1.921 13.15-1.136 0.6553-0.6196-10.26c-0.05256-0.8611-0.992-1.367-1.74-0.9363l-5.063 2.917c-0.2889 0.1661-0.4925 0.4481-0.5593 0.7746l-0.6567 3.233-1.027 0.5909-0.6196-4.353c-0.04205-0.2969-0.1973-0.5661-0.4332-0.7513l-3.464-2.709 1.023-0.5895 3.134 1.049c0.3152 0.1056 0.6605 0.07117 0.9487-0.09459l5.063-2.919c0.7491-0.4314 0.7818-1.501 0.06032-1.977l-8.587-5.662zm-7.049 27.58c0.7805-0.06636 1.674 0.3741 2.407 1.43 0.9816 1.413 2.154 2.684 3.759 3.157 0.3522 0.1037 0.72 0.1324 1.091 0.1302-4.027 5.768-10.55 9.61-18.06 9.916-0.2078-0.2251-0.4602-0.5676-0.6553-1.134-0.3454-1.003-0.4491-2.571 1.256-5.112 1.731-2.58 2.627-2.724 3.736-2.961 0.5542-0.1184 1.255-0.2094 1.995-0.6525 0.7394-0.4432 1.379-1.206 1.912-2.355 0.8323-1.792 1.778-2.352 2.558-2.418z" style="color-rendering:auto;color:#000000;fill:#000000;isolation:auto;mix-blend-mode:normal;shape-rendering:auto;solid-color:#000000"/>
 <path d="m46.85-21.48c-17.62 0-32.33 12.54-35.7 29.17a1.656 1.656 0 0 0-0.03516 0.02148c-3.382 2.147-6.123 4.331-8.008 6.643-1.885 2.312-2.957 4.887-2.508 7.506a1.656 1.656 0 0 0 0 0.001953c0.5158 3.002 3.189 5.102 6.834 6.275 1.695 0.5458 3.706 0.8832 5.9 1.084 5.56 13.02 18.48 22.16 33.52 22.16 0.1547 0 0.2989-0.03909 0.4531-0.04102a1.656 1.656 0 0 0 1.068-0.09766c13.62-0.5712 25.24-8.587 31-20.13 0.0547-0.05804 0.1157-0.0905 0.1699-0.1504a1.656 1.656 0 0 0 0.4414-1.17c1.248-2.778 2.28-5.674 2.799-8.77a1.656 1.656 0 1 0-3.266-0.5469c-0.5099 3.039-1.543 5.876-2.82 8.574-1.444 1.436-2.43 1.693-3.385 1.412-1.051-0.3094-2.383-1.498-3.572-3.211-1.543-2.221-3.892-3.663-6.428-3.447-2.536 0.2156-4.862 2.107-6.367 5.35-0.5855 1.261-1.033 1.675-1.426 1.91-0.3924 0.2352-0.925 0.3379-1.83 0.5312-1.81 0.3866-4.57 1.421-7.381 5.611-2.848 4.245-2.997 7.806-2.17 10.21 0.06207 0.1802 0.1688 0.2429 0.2402 0.4102-12.07-0.9055-22.27-8.171-27.28-18.55 1.535 0.007821 2.968 0.09885 4.68-0.04102 11.71-0.9564 27.44-5.488 44.93-15.32a1.656 1.656 0 1 0-1.621-2.887c-17.13 9.626-32.48 14-43.58 14.9-2.137 0.1746-3.961 0.1164-5.76 0.04883-1.228-3.465-2.021-7.14-2.021-11.03 0-5.151 1.272-9.964 3.363-14.31a1.656 1.656 0 0 0 0.2109-0.1562c0.7097-0.6054 1.804-0.8465 3.201-0.6406 1.398 0.2059 2.998 0.8825 4.32 1.836 1.323 0.9534 2.351 2.178 2.793 3.314 0.4418 1.136 0.4321 2.095-0.3418 3.238-1.611 2.38-2.455 4.324-2.518 6.15-0.0628 1.827 0.9414 3.45 2.303 4.293 2.723 1.686 6.455 1.505 9.986 1.242a1.656 1.656 0 0 0 0.06055-0.00586c2.045-0.2279 4.563-0.8309 6.367-2.859 1.804-2.028 2.561-5.261 1.701-9.854-0.5896-3.149 0.6279-4.834 2.387-6.605 0.8794-0.8857 1.892-1.714 2.82-2.613 0.9279-0.8996 1.837-1.889 2.215-3.291 0.4527-1.681-0.3759-3.09-1.152-4.191-0.7764-1.102-1.673-2.105-2.258-3.025s-0.8056-1.61-0.6797-2.246c0.1259-0.6362 0.6738-1.587 2.57-2.83a1.656 1.656 0 0 0 0.2969-0.2441c3.99 0.5452 7.758 1.781 11.16 3.615a1.656 1.656 0 1 0 1.568-2.914c-5.137-2.766-11.02-4.338-17.26-4.338zm-0.1406 3.324c-0.746 0.8739-1.259 1.782-1.449 2.744-0.357 1.804 0.3357 3.41 1.131 4.662 0.7951 1.252 1.744 2.302 2.348 3.158 0.6033 0.856 0.6905 1.311 0.6602 1.424-0.1056 0.3922-0.5444 1.021-1.322 1.775-0.7779 0.7542-1.828 1.614-2.865 2.658-2.074 2.089-4.099 5.233-3.291 9.547 0.7494 4.003 0.05694 5.944-0.9219 7.045-0.9752 1.097-2.568 1.575-4.242 1.764-3.325 0.2431-6.742-0.005918-7.953-0.7559-0.6083-0.3767-0.7658-0.5638-0.7383-1.365 0.02755-0.8014 0.5272-2.304 1.951-4.408 1.353-1.999 1.44-4.354 0.6855-6.295-0.7548-1.941-2.216-3.556-3.943-4.801-1.727-1.245-3.738-2.124-5.773-2.424-0.5658-0.08333-1.134 0.01486-1.705 0.03516 5.907-8.87 15.97-14.71 27.43-14.76zm26.75 2.486a1.656 1.656 0 0 0-0.7891 0.2207l-4.633 2.668a1.656 1.656 0 0 0-0.08594 2.816l12.23 8.068-4.242 2.445-4.467-1.496a1.656 1.656 0 0 0-1.352 0.1367l-4.229 2.436a1.656 1.656 0 0 0-0.1934 2.738l6.342 4.963 1.135 7.965a1.656 1.656 0 0 0 2.465 1.199l4.23-2.436a1.656 1.656 0 0 0 0.7949-1.105l0.9355-4.604 4.248-2.449 0.8828 14.61a1.656 1.656 0 0 0 2.48 1.334l4.633-2.668a1.656 1.656 0 0 0 0.8105-1.195l2.736-18.74 5.207-3.002c0.6728-0.3877 1.05-0.8424 1.51-1.416 0.4593-0.5737 0.9119-1.252 1.307-1.986s0.7328-1.515 0.916-2.35 0.2552-1.807-0.2969-2.76h0.00196c-0.5516-0.9523-1.43-1.374-2.244-1.633-0.8145-0.2585-1.662-0.3564-2.496-0.3828-0.8344-0.02646-1.65 0.02495-2.377 0.1348s-1.309 0.2076-1.982 0.5957l-5.209 3.004-17.62-7.004a1.656 1.656 0 0 0-0.6484-0.1152zm0.1699 3.488 17.62 7.002a1.656 1.656 0 0 0 1.438-0.1035l5.904-3.402c-0.1198 0.06903 0.3109-0.1122 0.8223-0.1895 0.5114-0.07722 1.16-0.1212 1.779-0.1016 0.6189 0.01962 1.214 0.1088 1.598 0.2305 0.3834 0.1217 0.4601 0.2736 0.3809 0.1367-0.07975-0.1376 0.01344-0.001628-0.07226 0.3887-0.08571 0.3903-0.3073 0.9502-0.5996 1.494-0.2923 0.5439-0.6539 1.081-0.9766 1.484s-0.6951 0.6857-0.5762 0.6172l-5.902 3.402a1.656 1.656 0 0 0-0.8125 1.195l-2.736 18.73-1.619 0.9336-0.8828-14.61a1.656 1.656 0 0 0-2.479-1.334l-7.213 4.156a1.656 1.656 0 0 0-0.7969 1.105l-0.9355 4.604-1.463 0.8418-0.8828-6.201a1.656 1.656 0 0 0-0.6172-1.07l-4.936-3.859 1.457-0.8398 4.465 1.494a1.656 1.656 0 0 0 1.354-0.1348l7.211-4.158a1.656 1.656 0 0 0 0.08594-2.814l-12.23-8.068zm-62.92 24.25c-0.07748 0.9689-0.291 1.898-0.291 2.887 0 3.754 0.7341 7.304 1.791 10.71-1.334-0.1912-2.74-0.352-3.758-0.6797-3.022-0.9732-4.354-2.339-4.586-3.684v-0.001953c-0.2409-1.41 0.2822-2.982 1.809-4.854 1.134-1.391 2.943-2.879 5.035-4.381zm52.88 15.04c1.112-0.09454 2.385 0.533 3.43 2.037 1.399 2.013 3.069 3.825 5.355 4.498 0.5011 0.1476 1.024 0.1904 1.553 0.1875-5.737 8.217-15.04 13.69-25.73 14.12-0.296-0.3207-0.6557-0.8086-0.9336-1.615-0.4921-1.428-0.6399-3.663 1.789-7.283 2.466-3.675 3.743-3.881 5.322-4.219 0.7896-0.1686 1.788-0.2983 2.842-0.9297 1.053-0.6314 1.964-1.719 2.725-3.355 1.186-2.553 2.532-3.351 3.645-3.445z" style="color-rendering:auto;color:#000000;display:none;fill:url(#linearGradient871);isolation:auto;mix-blend-mode:normal;shape-rendering:auto;solid-color:#000000"/>
 <path d="m9.767 36.67c4.034 8.829 12.94 14.97 23.27 14.97 13.47-0.2709 24.8-12.58 25.22-21.31 0.2706-1.539-2.047-1.927-2.292-0.3839-0.3579 2.133-1.083 4.124-1.98 6.018-1.013 1.008-1.706 1.188-2.376 0.9912-0.7374-0.2172-1.672-1.052-2.507-2.254-1.083-1.559-2.732-2.571-4.512-2.42-1.78 0.1513-3.412 1.479-4.469 3.755-0.411 0.885-0.7254 1.176-1.001 1.341-0.2754 0.1651-0.6492 0.2372-1.285 0.3729-1.271 0.2714-3.207 0.9976-5.181 3.939-1.999 2.98-2.104 5.479-1.523 7.164 0.04357 0.1265 0.1185 0.1705 0.1686 0.2879-8.252-0.6189-15.24-5.417-18.84-12.4-0.8378 0.00862-1.747-0.006871-2.689-0.07676zm2.384-0.5458-0.9596-2.346c-0.8547-2.422-1.407-4.989-1.407-7.707 0-3.616 0.8931-6.994 2.361-10.04 0.05218-0.03258 0.1017-0.06925 0.1481-0.1097 0.4982-0.4249 1.266-0.5941 2.247-0.4497 0.981 0.1445 2.104 0.6194 3.032 1.289 0.9285 0.6692 1.65 1.529 1.96 2.326 0.3101 0.7975 0.3033 1.47-0.2399 2.273-1.131 1.671-1.723 3.035-1.767 4.317-0.04408 1.282 0.6608 2.422 1.616 3.013 1.911 1.183 4.531 1.056 7.009 0.8719 0.01419-0.001111 0.02836-0.002482 0.0425-0.004113 1.435-0.16 3.203-0.5832 4.469-2.007s1.798-3.693 1.194-6.916c-0.4139-2.211 0.4407-3.393 1.675-4.636 0.6173-0.6217 1.328-1.203 1.98-1.834s1.29-1.326 1.555-2.31c0.3178-1.18-0.2639-2.169-0.8088-2.942-0.545-0.7732-1.174-1.477-1.585-2.124-0.4104-0.6464-0.5654-1.13-0.4771-1.577 0.08835-0.4465 0.473-1.114 1.804-1.986 0.07588-0.04884 0.1458-0.1063 0.2084-0.1714 2.801 0.3827 5.445 1.25 7.836 2.538 1.385 0.807 2.537-1.334 1.101-2.045-3.606-1.941-7.735-3.045-12.11-3.045-12.37 0-22.69 8.802-25.06 20.48-0.008287 0.004924-0.01651 0.009951-0.02468 0.01508-2.374 1.507-4.298 3.04-5.621 4.662-1.323 1.622-2.075 3.43-1.76 5.268v0.001371c0.3621 2.107 2.239 3.581 4.797 4.405 1.19 0.3831 2.601 0.6199 4.141 0.7608 0.8817 0.01687 1.781 0.06868 2.642 0.03701 1.077 0.00549 2.083 0.06938 3.285-0.02879 8.217-0.6713 19.26-3.852 31.54-10.75 1.386-0.7485 0.2228-2.82-1.138-2.026-12.02 6.756-22.8 9.824-30.59 10.46-1.5 0.1226-2.78 0.08172-4.043 0.03427l-2.485-0.2221c-0.9363-0.1342-1.923-0.2471-2.638-0.4771-2.121-0.6831-3.056-1.642-3.219-2.586v-0.001371c-0.1691-0.9895 0.1981-2.093 1.269-3.407 0.7959-0.976 2.066-2.02 3.534-3.075-0.05438 0.68-0.2043 1.332-0.2043 2.026 0 2.618 0.5086 5.095 1.243 7.473l0.8053 2.543c0.9778 0.01783 1.773 0.0735 2.642 0.03701zm20.78-33.29c-0.5236 0.6134-0.8836 1.251-1.017 1.926-0.2506 1.266 0.2357 2.393 0.7937 3.272 0.5581 0.879 1.224 1.616 1.648 2.217s0.4847 0.9202 0.4634 0.9994c-0.07414 0.2753-0.3821 0.7168-0.9281 1.246-0.546 0.5293-1.283 1.133-2.011 1.866-1.456 1.466-2.877 3.673-2.31 6.701 0.526 2.809 0.03996 4.172-0.6471 4.945-0.6845 0.7697-1.802 1.105-2.978 1.238-2.334 0.1706-4.732-0.004154-5.582-0.5305-0.427-0.2644-0.5375-0.3958-0.5182-0.9583 0.01934-0.5625 0.3701-1.618 1.37-3.094 0.9496-1.403 1.011-3.056 0.4812-4.418-0.5298-1.362-1.556-2.496-2.768-3.37-1.212-0.8736-2.624-1.491-4.052-1.701-0.3971-0.05849-0.7957 0.01043-1.197 0.02468 4.146-6.226 11.21-10.33 19.25-10.36zm12.14 31.77c0.7039 0.05429 1.468 0.5075 2.11 1.431 0.9816 1.413 2.154 2.684 3.759 3.157 0.3517 0.1036 0.7191 0.1336 1.09 0.1316-4.027 5.768-10.55 9.608-18.06 9.914-0.2078-0.2251-0.4602-0.5676-0.6553-1.134-0.3454-1.003-0.4491-2.571 1.256-5.112 1.731-2.58 2.627-2.724 3.736-2.961 0.5542-0.1184 1.255-0.2094 1.995-0.6525 0.7394-0.4432 1.379-1.206 1.912-2.355 0.8323-1.792 1.778-2.352 2.558-2.418 0.09757-0.008294 0.1969-0.009126 0.2975-0.001371z" style="color-rendering:auto;color:#000000;fill:url(#linearGradient7306);isolation:auto;mix-blend-mode:normal;shape-rendering:auto;solid-color:#000000"/>
 <path d="m51.71 4.578a1.162 1.162 0 0 0-0.5538 0.1549l-3.252 1.873a1.162 1.162 0 0 0-0.06032 1.977l8.587 5.663-2.978 1.716-3.135-1.05a1.162 1.162 0 0 0-0.9487 0.09596l-2.968 1.71a1.162 1.162 0 0 0-0.1357 1.922l4.451 3.483 0.7965 5.591a1.162 1.162 0 0 0 1.73 0.8417l2.969-1.71a1.162 1.162 0 0 0 0.558-0.7759l0.6567-3.231 2.982-1.719 0.6196 10.26a1.162 1.162 0 0 0 1.741 0.9363l3.252-1.873a1.162 1.162 0 0 0 0.5689-0.839l1.921-13.15 3.655-2.107c0.4723-0.2721 0.7373-0.5912 1.06-0.9939s0.64-0.8786 0.9171-1.394c0.2771-0.5156 0.5144-1.064 0.643-1.649 0.1286-0.5856 0.1791-1.268-0.2084-1.937h0.001376c-0.3872-0.6684-1.003-0.9646-1.575-1.146-0.5717-0.1815-1.166-0.2501-1.752-0.2687-0.5857-0.01857-1.158 0.01752-1.668 0.09459-0.5104 0.07708-0.9188 0.1457-1.391 0.4181l-3.656 2.108-12.37-4.916a1.162 1.162 0 0 0-0.4551-0.08088zm0.1193 2.448 12.37 4.915a1.162 1.162 0 0 0 1.009-0.07266l4.144-2.388c-0.08406 0.04845 0.2182-0.07878 0.5771-0.133 0.3589-0.0542 0.8145-0.08506 1.249-0.07129 0.4344 0.01377 0.8523 0.07634 1.121 0.1618 0.1281 0.04066 0.2007 0.08493 0.2426 0.111-0.001741-0.05536-0.005117-0.06649 0.02468-0.01508 0.02916 0.05034 0.02153 0.04384-0.02468 0.01508 0.001537 0.04865 0.002091 0.1296-0.02604 0.2577-0.06016 0.274-0.2157 0.667-0.4209 1.049-0.2052 0.3818-0.459 0.759-0.6855 1.042-0.2265 0.2829-0.4879 0.4813-0.4044 0.4332l-4.143 2.388a1.162 1.162 0 0 0-0.5703 0.839l-1.921 13.15-1.136 0.6553-0.6196-10.26a1.162 1.162 0 0 0-1.74-0.9363l-5.063 2.917a1.162 1.162 0 0 0-0.5593 0.7759l-0.6567 3.231-1.027 0.5909-0.6196-4.353a1.162 1.162 0 0 0-0.4332-0.7513l-3.464-2.709 1.023-0.5895 3.134 1.049a1.162 1.162 0 0 0 0.95-0.09459l5.061-2.919a1.162 1.162 0 0 0 0.06032-1.975l-8.587-5.663z" style="color-rendering:auto;color:#000000;fill:url(#linearGradient7306);isolation:auto;mix-blend-mode:normal;shape-rendering:auto;solid-color:#000000"/>
</svg>
