<?xml version="1.0" encoding="UTF-8" standalone="no"?>
<svg xmlns:dc="http://purl.org/dc/elements/1.1/" xmlns:cc="http://creativecommons.org/ns#" xmlns:rdf="http://www.w3.org/1999/02/22-rdf-syntax-ns#" xmlns:svg="http://www.w3.org/2000/svg" xmlns="http://www.w3.org/2000/svg" xmlns:xlink="http://www.w3.org/1999/xlink" xmlns:sodipodi="http://sodipodi.sourceforge.net/DTD/sodipodi-0.dtd" xmlns:inkscape="http://www.inkscape.org/namespaces/inkscape" version="1.1" viewBox="0 0 107.85297 74.746093" id="svg39" sodipodi:docname="i60b.svg" width="107.85297" height="74.746094" inkscape:version="0.92.2 (5c3e80d, 2017-08-06)">
  <metadata id="metadata43">
    <rdf:RDF>
      <cc:Work rdf:about="">
        <dc:format>image/svg+xml</dc:format>
        <dc:type rdf:resource="http://purl.org/dc/dcmitype/StillImage" />
        <dc:title></dc:title>
      </cc:Work>
    </rdf:RDF>
  </metadata>
  <sodipodi:namedview pagecolor="#ffffff" bordercolor="#666666" borderopacity="1" objecttolerance="10" gridtolerance="10" guidetolerance="10" inkscape:pageopacity="0" inkscape:pageshadow="2" inkscape:window-width="2560" inkscape:window-height="1001" id="namedview41" showgrid="false" fit-margin-top="0.5" fit-margin-left="0.5" fit-margin-right="0.5" fit-margin-bottom="0.5" inkscape:zoom="8" inkscape:cx="93.846259" inkscape:cy="12.05947" inkscape:window-x="-9" inkscape:window-y="41" inkscape:window-maximized="1" inkscape:current-layer="svg39" inkscape:snap-global="false" />
  <defs id="defs25">
    <linearGradient id="linearGradient7728" x1="-1405" x2="-1405" y1="704.40002" y2="781.40002" gradientTransform="scale(0.7835,1.276)" gradientUnits="userSpaceOnUse">
      <stop style="stop-color:#1c072d" offset="0" id="stop2" />
      <stop style="stop-color:#5700aa" offset=".29" id="stop4" />
      <stop style="stop-color:#4b127b" offset=".64" id="stop6" />
      <stop style="stop-color:#290a43" offset="1" id="stop8" />
    </linearGradient>
    <linearGradient id="linearGradient5530" x1="-197.2" x2="-148.10001" y1="-232.7" y2="-232.7" gradientTransform="matrix(2.858297,0,0,2.858297,3433.105,495.4459)" gradientUnits="userSpaceOnUse">
      <stop style="stop-color:#696969" offset="0" id="stop11" />
      <stop style="stop-color:#c7c7c9" offset="0.24083635" id="stop13" />
      <stop style="stop-color:#f9f9ff" offset="0.44167924" id="stop15" />
      <stop style="stop-color:#ccccce" offset=".7844" id="stop17" />
      <stop style="stop-color:#696969" offset="1" id="stop19" />
    </linearGradient>
    <linearGradient id="linearGradient5538" x1="-177.39999" x2="-162" y1="-234" y2="-234" gradientUnits="userSpaceOnUse" xlink:href="#linearGradient7728" gradientTransform="matrix(2.197,0,0,2.197,434.79281,573.72048)" />
    <linearGradient id="linearGradient5546" x1="-190.7" x2="-174.60001" y1="-251.39999" y2="-251.39999" gradientUnits="userSpaceOnUse" xlink:href="#linearGradient7728" gradientTransform="matrix(2.197,0,0,2.197,434.79281,573.72048)" />
    <linearGradient id="linearGradient5554" x1="-167.5" x2="-150.2" y1="-249.2" y2="-249.2" gradientUnits="userSpaceOnUse" xlink:href="#linearGradient7728" gradientTransform="matrix(2.197,0,0,2.197,434.79281,573.72048)" />
    <linearGradient inkscape:collect="always" xlink:href="#linearGradient5530" id="linearGradient871" gradientUnits="userSpaceOnUse" gradientTransform="matrix(2.858297,0,0,2.858297,3433.6978,496.16638)" x1="-1170.6632" y1="-150.94176" x2="-1198.8785" y2="-171.46416" />
    <linearGradient inkscape:collect="always" xlink:href="#linearGradient5530" id="linearGradient7306" gradientUnits="userSpaceOnUse" gradientTransform="matrix(2.858297,0,0,2.858297,3433.6978,496.16638)" x1="-1170.6632" y1="-150.94176" x2="-1198.8785" y2="-171.46416" />
    <linearGradient inkscape:collect="always" xlink:href="#linearGradient5530" id="linearGradient7310" gradientUnits="userSpaceOnUse" gradientTransform="matrix(2.858297,0,0,2.858297,3433.6978,496.16638)" x1="-1170.6632" y1="-150.94176" x2="-1198.8785" y2="-171.46416" />
  </defs>
  <path inkscape:connector-curvature="0" id="path27" style="fill:url(#linearGradient5554);stroke-width:0.8278296" d="M 88.325907,44.463174 92.95938,41.793819 95.811086,22.264686 101.71443,18.861533 C 102.82216,18.223304 105.48887,14.243439 104.54416,12.613265 103.59945,10.982433 98.812188,11.294407 97.7049,11.932634 L 91.801561,15.335787 73.432444,8.0373541 68.798971,10.706709 83.272807,20.250476 76.060056,24.4072 70.888318,22.676184 66.659093,25.112657 73.526915,30.486519 74.755477,39.109744 78.984702,36.673271 80.069142,31.336758 87.281893,27.180034 Z" />
  <path inkscape:connector-curvature="0" id="path29" style="fill:url(#linearGradient5546);stroke-width:0.8278296" d="M 50.976907,16.341574 C 51.943148,12.753873 41.731931,8.6147258 50.149077,3.0958618 L 50.024068,2.429292 C 48.972584,2.3332829 47.912971,2.2678124 46.838418,2.2678124 33.326868,2.2678124 21.616858,9.9792825 15.860718,21.238907 L 16.199276,21.310087 C 20.889871,17.30935 32.872309,24.959304 28.61672,31.244921 22.546409,40.213075 30.025876,40.863387 36.895016,40.351486 40.621128,39.937572 45.127175,38.183267 43.518971,29.588383 42.121459,22.125174 50.004515,19.930371 50.968998,16.34267 Z" />
  <path inkscape:connector-curvature="0" id="path31" style="fill:url(#linearGradient5538);stroke:none;stroke-width:0.8278296" d="M 78.219707,51.932974 C 74.322229,56.157805 70.936652,53.894236 68.366162,50.194488 65.778096,46.468376 61.122653,46.05534 58.431328,51.850147 55.740003,57.645833 52.947616,52.264062 47.668225,60.128443 42.593155,67.692714 47.278257,71.427614 47.643395,71.700042 61.137369,71.392901 72.733135,63.40417 78.225635,51.931436 Z" />
  <path style="color:#000000;clip-rule:nonzero;display:inline;visibility:visible;opacity:1;isolation:auto;mix-blend-mode:normal;color-interpolation:sRGB;solid-color:#000000;solid-opacity:1;fill:#000000;fill-opacity:1;fill-rule:nonzero;stroke:none;stroke-width:3.31087899;stroke-linecap:round;stroke-linejoin:round;stroke-miterlimit:10;stroke-dasharray:none;stroke-dashoffset:0;stroke-opacity:1;color-rendering:auto;shape-rendering:auto" d="M 16.605032,48.773642 C 15.39098,45.328662 14.607632,41.676642 14.607632,37.8125 14.607632,32.662084 15.878583,27.850115 17.96896,23.505859 18.04404,23.458903 18.115232,23.405999 18.18185,23.347656 18.891592,22.742298 19.985418,22.501179 21.383022,22.707031 22.780627,22.912883 24.378579,23.587597 25.701382,24.541015 27.024184,25.494434 28.054486,26.721255 28.496304,27.857422 28.938121,28.993588 28.928356,29.952116 28.154507,31.095703 26.543283,33.47615 25.69973,35.419283 25.636928,37.246094 25.574127,39.072904 26.578365,40.696166 27.939663,41.539062 30.662259,43.224855 34.394844,43.044251 37.925991,42.78125 37.946208,42.779668 37.966393,42.777714 37.986538,42.77539 40.031451,42.547508 42.549765,41.94447 44.353725,39.916015 46.157686,37.887561 46.914751,34.654646 46.054897,30.0625 45.465255,26.913108 46.680798,25.228448 48.439663,23.457031 49.319095,22.571323 50.334005,21.743386 51.261928,20.84375 52.189852,19.944113 53.097326,18.954385 53.474819,17.552734 53.927561,15.871679 53.100861,14.462938 52.324428,13.361328 51.547996,12.259717 50.65132,11.256796 50.066616,10.335938 49.481912,9.4150787 49.261055,8.7259945 49.386928,8.0898437 49.512802,7.4536929 50.060768,6.5032895 51.957241,5.2597656 52.066131,5.1897022 52.166426,5.1071064 52.256069,5.0136718 56.245532,5.5590045 60.012269,6.7972836 63.418178,8.6308594 65.391207,9.78066 67.032939,6.7302698 64.986538,5.7167968 59.849248,2.9511306 53.96664,1.3789062 47.730678,1.3789062 30.113436,1.3789062 15.403989,13.918802 12.03146,30.548828 12.019653,30.555843 12.007933,30.563005 11.996304,30.570312 8.6142838,32.717375 5.8715691,34.903273 3.9865375,37.214844 2.1015059,39.526414 1.0318401,42.101648 1.4806781,44.720703 1.9965229,47.722465 4.6699034,49.824308 8.3146625,50.998047 10.00965,51.543891 12.020206,51.881271 14.215054,52.082031 L 17.978725,52.134765 C 19.513423,52.142586 20.946353,52.233617 22.658413,52.09375 34.365591,51.137325 50.098708,46.606224 67.592007,36.777344 69.566928,35.711005 67.90936,32.759336 65.970913,33.890625 48.839492,43.516179 33.486564,47.886337 22.388882,48.792968 20.251532,48.96758 18.428367,48.909391 16.629116,48.841797 L 13.0881,48.52539 C 11.754172,48.334223 10.347868,48.173399 9.3302875,47.845703 6.3082188,46.872492 4.9761801,45.506652 4.74435,44.162109 V 44.160156 C 4.5034299,42.750379 5.0265236,41.178454 6.5529437,39.30664 7.686932,37.916057 9.4957996,36.428027 11.5881,34.925781 11.510626,35.894653 11.297084,36.823875 11.297084,37.8125 11.297084,41.547506 12.00828,45.019087 13.056798,48.412245 13.451819,49.692135 13.761097,50.97815 14.286714,52.248712 19.885266,65.181728 32.758971,74.246094 47.730678,74.246094 61.505556,74.220115 74.669365,65.291312 80.25021,53.976562 81.848819,50.820422 83.130198,46.915941 83.658413,43.886718 84.115094,41.646496 80.693262,41.07312 80.394741,43.339844 79.88508,46.377517 78.85244,49.21273 77.576382,51.910156 76.131291,53.348788 75.144706,53.607466 74.189663,53.326172 73.13905,53.016728 71.806957,51.827876 70.617397,50.115234 69.074407,47.894532 66.725194,46.452405 64.189663,46.667968 61.654132,46.883532 59.328068,48.775331 57.822475,52.017578 57.236963,53.278462 56.789044,53.692574 56.396694,53.927734 56.004345,54.162894 55.47173,54.26567 54.566616,54.458984 52.756388,54.845612 49.997029,55.880322 47.185757,60.070312 44.337525,64.315387 44.188628,67.876309 45.015835,70.277344 45.077902,70.4575 45.184614,70.52026 45.256069,70.6875 33.242901,69.786493 23.083195,62.587692 18.053286,52.288442 17.517082,51.124478 17.073159,49.947331 16.605032,48.773642 Z M 47.590054,4.7031251 C 46.844081,5.5770127 46.331224,6.4850623 46.140835,7.4472656 45.783835,9.2515011 46.476572,10.857126 47.271694,12.109375 48.066816,13.361623 49.016039,14.411593 49.61935,15.267578 50.222662,16.123563 50.309885,16.578611 50.279507,16.691406 50.173879,17.083606 49.735109,17.712641 48.957241,18.466797 48.179373,19.220952 47.128962,20.080644 46.092007,21.125 44.018095,23.213712 41.993341,26.358057 42.800991,30.671875 43.55044,34.674392 42.85793,36.616174 41.879116,37.716797 40.9055,38.811574 39.316127,39.289046 37.644741,39.478515 34.317389,39.722639 30.895968,39.475164 29.683804,38.724609 29.075491,38.347951 28.917972,38.16078 28.945522,37.359375 28.973073,36.557969 29.472762,35.054911 30.896694,32.951172 32.24954,30.95195 32.337034,28.597256 31.582241,26.65625 30.827448,24.715243 29.36579,23.100149 27.638882,21.855468 25.911973,20.610788 23.900446,19.731373 21.865444,19.43164 21.299659,19.348307 20.731759,19.446504 20.160366,19.466797 26.067791,10.597237 36.127505,4.7518652 47.590054,4.7031251 Z M 74.342007,7.1894531 C 74.064649,7.1957472 73.793319,7.2716389 73.552944,7.4101562 L 68.918178,10.078125 C 67.851375,10.693482 67.805953,12.216701 68.834194,12.894531 L 81.068569,20.96289 76.826382,23.40625 72.359585,21.912109 C 71.910249,21.762242 71.418242,21.812012 71.008022,22.048828 L 66.779507,24.484375 C 65.76264,25.07055 65.661744,26.4994 66.586147,27.222656 L 72.927944,32.185547 74.06271,40.15039 C 74.229278,41.309142 75.51303,41.933725 76.527554,41.349609 L 80.758022,38.914062 C 81.169272,38.676627 81.458771,38.274033 81.552944,37.808594 L 82.488491,33.205078 86.736538,30.755859 87.61935,45.36914 C 87.694226,46.595961 89.032654,47.316328 90.097866,46.703125 L 94.732632,44.035156 C 95.171515,43.781771 95.470177,43.341335 95.543178,42.839844 L 98.279507,24.103515 103.48654,21.101562 C 104.15937,20.713901 104.53697,20.259206 104.99631,19.685547 105.45565,19.111887 105.90819,18.433815 106.30295,17.699218 106.69771,16.964622 107.03574,16.183965 107.21896,15.349609 107.40218,14.515253 107.4742,13.542549 106.92209,12.589844 H 106.92404 C 106.37242,11.637589 105.49439,11.215559 104.6799,10.957031 103.86541,10.698503 103.01824,10.600677 102.18381,10.574219 101.34937,10.54776 100.53403,10.599173 99.80685,10.708984 99.079666,10.818796 98.497831,10.916546 97.824428,11.304687 L 92.615444,14.308594 74.990444,7.3046875 C 74.784197,7.2232386 74.563689,7.1840519 74.342007,7.1894531 Z M 74.511928,10.677734 92.136928,17.679687 C 92.606763,17.866493 93.136206,17.828368 93.574428,17.576172 L 99.478725,14.173828 C 99.358967,14.242855 99.789617,14.061597 100.30099,13.984375 100.81236,13.907153 101.46141,13.863189 102.08029,13.882812 102.69917,13.902436 103.29452,13.991577 103.67795,14.113281 104.06137,14.234985 104.13807,14.386837 104.05881,14.25 103.97906,14.112381 104.07225,14.248372 103.98654,14.638672 103.90083,15.028971 103.67923,15.588892 103.38693,16.132812 103.09464,16.676732 102.73307,17.214177 102.41037,17.617187 102.08767,18.020197 101.71523,18.302921 101.8342,18.234375 L 95.929897,21.636718 C 95.491013,21.890103 95.192351,22.330539 95.11935,22.832031 L 92.383022,41.566406 90.763882,42.5 89.881069,27.886718 C 89.806192,26.659898 88.467766,25.939532 87.402554,26.552734 L 80.189663,30.708984 C 79.778119,30.945571 79.487927,31.34743 79.392788,31.8125 L 78.457241,36.417968 76.99435,37.259765 76.111538,31.058594 C 76.051625,30.635549 75.830481,30.252047 75.49435,29.988281 L 70.558804,26.128906 72.015835,25.289062 76.480678,26.783203 C 76.929738,26.93366 77.421732,26.884602 77.832241,26.648437 L 85.045132,22.490234 C 86.112425,21.875628 86.158904,20.352363 85.131069,19.673828 L 72.896694,11.607422 Z M 64.46896,49.966797 C 65.580998,49.872254 66.853572,50.499814 67.898647,52.003906 69.297154,54.017376 70.967486,55.828458 73.254116,56.501953 73.755829,56.649725 74.279884,56.690571 74.808804,56.6875 69.071668,64.905913 59.77143,70.378575 49.080288,70.814453 48.78428,70.493722 48.424596,70.005851 48.146694,69.199218 47.654602,67.770882 47.506795,65.5362 49.935757,61.916015 52.401678,58.240745 53.678828,58.034549 55.258022,57.697265 56.047619,57.528624 57.046337,57.398997 58.099819,56.767578 59.153302,56.136159 60.064279,55.049068 60.824428,53.412109 62.010161,50.85867 63.356921,50.061339 64.46896,49.966797 Z" id="path33" inkscape:connector-curvature="0" sodipodi:nodetypes="csccssscssccscssscscccccsccscsccsccsccsccscscccccccccsscsscccccssscsscsccccssccccccccccccccccccccccccccsssccsssccccccccscccscscccccccccccccccccccccsccccsscsss" />
  <path style="color:#000000;clip-rule:nonzero;display:none;visibility:visible;opacity:1;isolation:auto;mix-blend-mode:normal;color-interpolation:sRGB;solid-color:#000000;solid-opacity:1;fill:url(#linearGradient871);fill-opacity:1;fill-rule:nonzero;stroke:none;stroke-width:3.31087899;stroke-linecap:round;stroke-linejoin:round;stroke-miterlimit:10;stroke-dasharray:none;stroke-dashoffset:0;stroke-opacity:1;color-rendering:auto;shape-rendering:auto" d="M 46.851772,0.5 C 29.233868,0.5 14.524356,13.040916 11.152553,29.671875 A 1.655605,1.655605 0 0 0 11.117397,29.693359 C 7.7353776,31.840422 4.994616,34.024367 3.1095844,36.335937 1.2245527,38.647508 0.1529339,41.222742 0.60177185,43.841797 A 1.655605,1.655605 0 0 0 0.60177185,43.84375 C 1.1176167,46.845511 3.7909972,48.945402 7.4357562,50.11914 9.1307436,50.664985 11.1413,51.002365 13.336147,51.203125 18.895929,64.224873 31.815829,73.367187 46.851772,73.367187 47.006472,73.367187 47.15065,73.328098 47.304897,73.326172 A 1.655605,1.655605 0 0 0 48.373257,73.228515 C 61.994149,72.657278 73.617533,64.641578 79.371304,53.097656 79.426,53.039619 79.487034,53.00716 79.541225,52.947265 A 1.655605,1.655605 0 0 0 79.982632,51.777344 C 81.230737,48.999265 82.262149,46.103002 82.78146,43.007812 A 1.655605,1.655605 0 1 0 79.515835,42.460937 C 79.005926,45.500093 77.972548,48.336609 76.695522,51.035156 75.251919,52.471312 74.265227,52.728391 73.310757,52.447265 72.260144,52.137822 70.92805,50.94897 69.738491,49.236328 68.1955,47.015626 65.846287,45.573498 63.310757,45.789062 60.775226,46.004626 58.449161,47.896425 56.943569,51.138672 56.358056,52.399556 55.910137,52.813668 55.517788,53.048828 55.125438,53.283988 54.592824,53.386764 53.68771,53.580078 51.877482,53.966706 49.118123,55.001416 46.30685,59.191406 43.458618,63.436481 43.309722,66.997403 44.136928,69.398437 44.198996,69.578594 44.305708,69.641353 44.377163,69.808594 32.304334,68.903112 22.103422,61.637127 17.099819,51.255859 18.634517,51.26368 20.067446,51.354711 21.779507,51.214844 33.486685,50.258419 49.219802,45.727318 66.7131,35.898437 A 1.655605,1.655605 0 1 0 65.092007,33.011718 C 47.960585,42.637273 32.607657,47.007431 21.509975,47.914062 19.372626,48.088674 17.549461,48.030485 15.75021,47.96289 14.522444,44.497933 13.728725,40.823229 13.728725,36.933594 13.728725,31.78248 15.001098,26.9697 17.092007,22.625 A 1.655605,1.655605 0 0 0 17.302944,22.46875 C 18.012685,21.863392 19.106512,21.622273 20.504116,21.828125 21.90172,22.033976 23.501626,22.710644 24.824428,23.664062 26.147231,24.617481 27.17558,25.842349 27.617397,26.978515 28.059214,28.114682 28.04945,29.07321 27.2756,30.216797 25.664377,32.597244 24.820824,34.540377 24.758022,36.367187 24.695221,38.193998 25.699458,39.81726 27.060757,40.660156 29.783353,42.345949 33.515937,42.165344 37.047085,41.902344 A 1.655605,1.655605 0 0 0 37.107632,41.896484 C 39.152545,41.668602 41.670859,41.065563 43.474819,39.037109 45.27878,37.008655 46.035844,33.77574 45.175991,29.183594 44.586349,26.034202 45.803845,24.349542 47.56271,22.578125 48.442142,21.692416 49.455098,20.86448 50.383022,19.964844 51.310946,19.065207 52.220373,18.075479 52.597866,16.673828 53.050608,14.992772 52.221954,13.584032 51.445522,12.482422 50.66909,11.380811 49.772414,10.37789 49.18771,9.4570313 48.603006,8.5361724 48.382149,7.8470883 48.508022,7.2109375 48.633896,6.5747866 49.181862,5.6243832 51.078335,4.3808594 A 1.655605,1.655605 0 0 0 51.37521,4.1367188 C 55.365375,4.6819134 59.132825,5.918088 62.539272,7.7519531 A 1.655605,1.655605 0 1 0 64.107632,4.8378906 C 58.970342,2.0722243 53.087733,0.5 46.851772,0.5 Z M 46.711147,3.8242188 C 45.965174,4.6981064 45.452317,5.606156 45.261928,6.5683593 44.904929,8.3725948 45.597666,9.97822 46.392788,11.230469 47.18791,12.482717 48.137133,13.532687 48.740444,14.388672 49.343756,15.244657 49.430978,15.699705 49.4006,15.8125 49.294973,16.204699 48.856203,16.833735 48.078335,17.58789 47.300467,18.342046 46.250056,19.201737 45.2131,20.246094 43.139189,22.334806 41.114435,25.479151 41.922085,29.792968 42.671533,33.795486 41.979024,35.737267 41.00021,36.83789 40.024985,37.934477 38.432448,38.412747 36.758022,38.601562 33.433239,38.844677 30.016071,38.595644 28.804897,37.845703 28.196585,37.469045 28.039066,37.281874 28.066616,36.480468 28.094166,35.679063 28.593856,34.176005 30.017788,32.072265 31.370634,30.073044 31.458127,27.71835 30.703335,25.777344 29.948542,23.836337 28.486884,22.221242 26.759975,20.976562 25.033067,19.731882 23.02154,18.852467 20.986538,18.552734 20.42076,18.469401 19.852845,18.567599 19.28146,18.58789 25.188883,9.7183165 35.248587,3.8729591 46.711147,3.8242188 Z M 73.4631,6.3105468 A 1.655605,1.655605 0 0 0 72.674038,6.53125 L 68.041225,9.1992188 A 1.655605,1.655605 0 0 0 67.955288,12.015625 L 80.189663,20.083984 75.947475,22.529297 71.480678,21.033203 A 1.655605,1.655605 0 0 0 70.129116,21.169922 L 65.9006,23.605468 A 1.655605,1.655605 0 0 0 65.707241,26.34375 L 72.049038,31.30664 73.183804,39.271484 A 1.655605,1.655605 0 0 0 75.648647,40.470703 L 79.879116,38.035156 A 1.655605,1.655605 0 0 0 80.674038,36.929687 L 81.609585,32.326172 85.857632,29.876953 86.740444,44.490234 A 1.655605,1.655605 0 0 0 89.220913,45.824218 L 93.853725,43.15625 A 1.655605,1.655605 0 0 0 94.664272,41.960937 L 97.4006,23.224609 102.60764,20.222656 C 103.28047,19.834995 103.65806,19.3803 104.1174,18.80664 104.57674,18.232981 105.02928,17.554909 105.42404,16.820312 105.8188,16.085715 106.15684,15.305059 106.34006,14.470703 106.52328,13.636347 106.59529,12.663643 106.04318,11.710937 H 106.04514 C 105.49351,10.758684 104.61548,10.336653 103.801,10.078125 102.98651,9.8195971 102.13933,9.721771 101.3049,9.6953125 100.47046,9.6688541 99.655128,9.7202669 98.927944,9.8300782 98.20076,9.9398893 97.618925,10.03764 96.945522,10.425781 L 91.736538,13.429687 74.111538,6.4257812 A 1.655605,1.655605 0 0 0 73.4631,6.3105468 Z M 73.633022,9.7988282 91.258022,16.800781 A 1.655605,1.655605 0 0 0 92.695522,16.697265 L 98.599819,13.294922 C 98.480061,13.363949 98.910711,13.18269 99.422085,13.105468 99.933459,13.028247 100.5825,12.984282 101.20138,13.003906 101.82027,13.02353 102.41562,13.112671 102.79904,13.234375 103.18247,13.356079 103.25917,13.507931 103.1799,13.371094 103.10015,13.233475 103.19334,13.369466 103.10764,13.759765 103.02193,14.150065 102.80032,14.709986 102.50803,15.253906 102.21573,15.797826 101.85416,16.335271 101.53146,16.738281 101.20876,17.141291 100.83632,17.424015 100.95529,17.355468 L 95.052944,20.757812 A 1.655605,1.655605 0 0 0 94.240444,21.953125 L 91.504116,40.6875 89.884975,41.621094 89.002163,27.007812 A 1.655605,1.655605 0 0 0 86.523647,25.673828 L 79.310757,29.830078 A 1.655605,1.655605 0 0 0 78.513882,30.935547 L 77.578335,35.539062 76.115444,36.380859 75.232632,30.179687 A 1.655605,1.655605 0 0 0 74.615444,29.109375 L 69.679897,25.25 71.136928,24.410156 75.601772,25.904297 A 1.655605,1.655605 0 0 0 76.955288,25.769531 L 84.166225,21.611328 A 1.655605,1.655605 0 0 0 84.252163,18.796875 L 72.017788,10.728516 Z M 10.709194,34.046875 C 10.631719,35.015746 10.418178,35.944969 10.418178,36.933594 10.418178,40.687186 11.152251,44.237849 12.209194,47.646484 10.875265,47.455317 9.4689619,47.294493 8.4513812,46.966797 5.4293126,45.993586 4.0972739,44.627746 3.8654437,43.283203 V 43.28125 C 3.6245235,41.871472 4.1476172,40.299548 5.6740375,38.427734 6.8080258,37.037151 8.6168934,35.549121 10.709194,34.046875 Z M 63.590054,49.08789 C 64.702092,48.993348 65.974666,49.620907 67.019741,51.125 68.418248,53.138469 70.08858,54.949552 72.37521,55.623047 72.876311,55.770639 73.399692,55.81343 73.927944,55.810547 68.19067,64.027723 58.891556,69.499708 48.201382,69.935547 47.905374,69.614815 47.54569,69.126944 47.267788,68.320312 46.775696,66.891975 46.627888,64.657294 49.05685,61.037109 51.522772,57.361839 52.799922,57.155643 54.379116,56.818359 55.168713,56.649717 56.16743,56.520091 57.220913,55.888672 58.274395,55.257252 59.185373,54.170162 59.945522,52.533203 61.131255,49.979764 62.478015,49.182433 63.590054,49.08789 Z" id="path35" inkscape:connector-curvature="0" />
  <path style="color:#000000;clip-rule:nonzero;display:inline;visibility:visible;opacity:1;isolation:auto;mix-blend-mode:normal;color-interpolation:sRGB;solid-color:#000000;solid-opacity:1;fill:url(#linearGradient7306);fill-opacity:1;fill-rule:nonzero;stroke:none;stroke-width:3.31087899;stroke-linecap:round;stroke-linejoin:round;stroke-miterlimit:10;stroke-dasharray:none;stroke-dashoffset:0;stroke-opacity:1;color-rendering:auto;shape-rendering:auto" d="M 13.703031,52.033487 C 19.4497,64.61186 32.1375,73.367187 46.851772,73.367187 66.045797,72.981288 82.1813,55.445722 82.78146,43.007812 83.166981,40.815864 79.865466,40.262978 79.515835,42.460937 79.005926,45.500093 77.972548,48.336609 76.695522,51.035156 75.251919,52.471312 74.265227,52.728391 73.310757,52.447265 72.260144,52.137822 70.92805,50.94897 69.738491,49.236328 68.1955,47.015626 65.846287,45.573498 63.310757,45.789062 60.775226,46.004626 58.449161,47.896425 56.943569,51.138672 56.358056,52.399556 55.910137,52.813668 55.517788,53.048828 55.125438,53.283988 54.592824,53.386764 53.68771,53.580078 51.877482,53.966706 49.118123,55.001416 46.30685,59.191406 43.458618,63.436481 43.309725,66.997403 44.136928,69.398437 44.198996,69.578594 44.305708,69.641351 44.377163,69.808594 32.620394,68.926817 22.670065,62.091333 17.534672,52.14285 16.341005,52.155131 15.045294,52.133061 13.703031,52.033487 Z M 17.099819,51.255859 15.732625,47.913164 C 14.51487,44.462781 13.728725,40.804627 13.728725,36.933594 13.728725,31.78248 15.001098,26.9697 17.092007,22.625 17.166344,22.578582 17.236878,22.526334 17.302944,22.46875 18.012685,21.863392 19.106512,21.622273 20.504116,21.828125 21.90172,22.033976 23.501627,22.710644 24.824428,23.664062 26.147232,24.617481 27.17558,25.842349 27.617397,26.978515 28.059214,28.114682 28.04945,29.07321 27.2756,30.216797 25.664377,32.597244 24.820824,34.540377 24.758022,36.367187 24.695221,38.193998 25.699458,39.81726 27.060757,40.660156 29.783353,42.345949 33.515937,42.165343 37.047085,41.902344 37.067302,41.900762 37.087487,41.898808 37.107632,41.896484 39.152545,41.668602 41.670859,41.065563 43.474819,39.037109 45.27878,37.008655 46.035844,33.775739 45.175991,29.183594 44.586349,26.034202 45.803845,24.349542 47.56271,22.578125 48.442142,21.692416 49.455098,20.86448 50.383022,19.964844 51.310946,19.065207 52.220373,18.075479 52.597866,16.673828 53.050608,14.992772 52.221954,13.584032 51.445522,12.482422 50.66909,11.380811 49.772414,10.37789 49.18771,9.4570313 48.603006,8.5361724 48.382149,7.8470884 48.508022,7.2109375 48.633896,6.5747866 49.181862,5.6243832 51.078335,4.3808594 51.186436,4.3112814 51.286066,4.2293491 51.37521,4.1367188 55.365375,4.6819134 59.132825,5.918088 62.539272,7.7519531 64.512301,8.9017538 66.154033,5.8513636 64.107632,4.8378906 58.970342,2.0722243 53.087733,0.5 46.851772,0.5 29.233868,0.5 14.524356,13.040916 11.152553,29.671875 11.140746,29.67889 11.129026,29.686052 11.117397,29.693359 7.7353776,31.840422 4.994616,34.024367 3.1095844,36.335937 1.2245526,38.647508 0.1529339,41.222742 0.60177185,43.841797 V 43.84375 C 1.1176167,46.845511 3.7909972,48.945402 7.4357562,50.11914 9.1307436,50.664985 11.1413,51.002365 13.336147,51.203125 14.592318,51.227159 15.872886,51.300971 17.099819,51.255859 18.634517,51.26368 20.067446,51.354708 21.779507,51.214844 33.486685,50.258419 49.219802,45.727318 66.7131,35.898437 68.688048,34.832106 67.030461,31.880402 65.092007,33.011718 47.960585,42.637273 32.607657,47.007431 21.509975,47.914062 19.372626,48.088674 17.549461,48.030485 15.75021,47.96289 L 12.209194,47.646484 C 10.875265,47.455317 9.4689619,47.294493 8.4513812,46.966797 5.4293126,45.993586 4.0972739,44.627746 3.8654437,43.283203 V 43.28125 C 3.6245235,41.871472 4.1476172,40.299548 5.6740375,38.427734 6.8080258,37.037151 8.6168934,35.549121 10.709194,34.046875 10.631719,35.015746 10.418178,35.944969 10.418178,36.933594 10.418178,40.662981 11.142814,44.192048 12.188788,47.580525 L 13.336147,51.203125 C 14.729162,51.228526 15.861614,51.30784 17.099819,51.255859 Z M 46.711147,3.8242188 C 45.965174,4.6981064 45.452317,5.606156 45.261928,6.5683593 44.904929,8.3725948 45.597666,9.97822 46.392788,11.230469 47.18791,12.482717 48.137133,13.532687 48.740444,14.388672 49.343756,15.244657 49.430978,15.699705 49.4006,15.8125 49.294973,16.204699 48.856203,16.833735 48.078335,17.58789 47.300467,18.342046 46.250056,19.201737 45.2131,20.246094 43.139189,22.334806 41.114435,25.479151 41.922085,29.792968 42.671533,33.795487 41.979024,35.737267 41.00021,36.83789 40.024985,37.934477 38.432448,38.412747 36.758022,38.601562 33.433239,38.844677 30.016071,38.595644 28.804897,37.845703 28.196585,37.469045 28.039066,37.281875 28.066616,36.480468 28.094166,35.679063 28.593856,34.176005 30.017788,32.072265 31.370634,30.073044 31.458127,27.718349 30.703335,25.777344 29.948542,23.836337 28.486884,22.221242 26.759975,20.976562 25.033067,19.731882 23.02154,18.852467 20.986538,18.552734 20.42076,18.469401 19.852845,18.567599 19.28146,18.58789 25.188883,9.7183173 35.248587,3.8729591 46.711147,3.8242188 Z M 64.013882,49.085937 C 65.016727,49.163284 66.1053,49.808918 67.019741,51.125 68.418248,53.138469 70.08858,54.949552 72.37521,55.623047 72.876311,55.770639 73.399692,55.81343 73.927944,55.810547 68.19067,64.027723 58.891556,69.499708 48.201382,69.935547 47.905374,69.614815 47.54569,69.126944 47.267788,68.320312 46.775696,66.891975 46.627888,64.657294 49.05685,61.037109 51.522772,57.361839 52.799922,57.155643 54.379116,56.818359 55.168713,56.649717 56.16743,56.520091 57.220913,55.888672 58.274395,55.257252 59.185373,54.170162 59.945522,52.533203 61.131255,49.979764 62.478015,49.182433 63.590054,49.08789 63.729058,49.076073 63.870618,49.074888 64.013882,49.085937 Z" id="path7304" inkscape:connector-curvature="0" sodipodi:nodetypes="cccccscsscssccccccsccssscssccscssssscccccsccsccscccccsccsccscsccccsssssscscsscsssccccsccssscscc" />
  <path style="color:#000000;clip-rule:nonzero;display:inline;visibility:visible;opacity:1;isolation:auto;mix-blend-mode:normal;color-interpolation:sRGB;solid-color:#000000;solid-opacity:1;fill:url(#linearGradient7310);fill-opacity:1;fill-rule:nonzero;stroke:none;stroke-width:3.31087899;stroke-linecap:round;stroke-linejoin:round;stroke-miterlimit:10;stroke-dasharray:none;stroke-dashoffset:0;stroke-opacity:1;color-rendering:auto;shape-rendering:auto" d="M 73.4631,6.3105468 A 1.655605,1.655605 0 0 0 72.674038,6.53125 L 68.041225,9.1992188 A 1.655605,1.655605 0 0 0 67.955288,12.015625 L 80.189663,20.083984 75.947475,22.529297 71.480678,21.033203 A 1.655605,1.655605 0 0 0 70.129116,21.169922 L 65.9006,23.605468 A 1.655605,1.655605 0 0 0 65.707241,26.34375 L 72.049038,31.30664 73.183804,39.271484 A 1.655605,1.655605 0 0 0 75.648647,40.470703 L 79.879116,38.035156 A 1.655605,1.655605 0 0 0 80.674038,36.929687 L 81.609585,32.326172 85.857632,29.876953 86.740444,44.490234 A 1.655605,1.655605 0 0 0 89.220913,45.824218 L 93.853725,43.15625 A 1.655605,1.655605 0 0 0 94.664272,41.960937 L 97.4006,23.224609 102.60764,20.222656 C 103.28047,19.834995 103.65806,19.3803 104.1174,18.80664 104.57674,18.232981 105.02928,17.554909 105.42404,16.820312 105.8188,16.085715 106.15684,15.305059 106.34006,14.470703 106.52328,13.636347 106.59529,12.663643 106.04318,11.710937 H 106.04514 C 105.49351,10.758684 104.61548,10.336653 103.801,10.078125 102.9865,9.8195969 102.13933,9.721771 101.3049,9.6953125 100.47046,9.6688542 99.655128,9.7202669 98.927944,9.8300782 98.20076,9.9398893 97.618925,10.03764 96.945522,10.425781 L 91.736538,13.429687 74.111538,6.4257812 A 1.655605,1.655605 0 0 0 73.4631,6.3105468 Z M 73.633022,9.7988282 91.258022,16.800781 A 1.655605,1.655605 0 0 0 92.695522,16.697265 L 98.599819,13.294922 C 98.480061,13.363949 98.910711,13.182691 99.422085,13.105468 99.933459,13.028248 100.5825,12.984282 101.20138,13.003906 101.82027,13.02353 102.41562,13.112671 102.79904,13.234375 102.98152,13.292296 103.08496,13.355369 103.14474,13.392578 103.14226,13.313707 103.13745,13.297844 103.1799,13.371094 103.22144,13.442807 103.21058,13.433552 103.14474,13.392578 103.14693,13.461886 103.14772,13.577209 103.10764,13.759765 103.02193,14.150065 102.80032,14.709986 102.50803,15.253906 102.21573,15.797826 101.85416,16.335271 101.53146,16.738281 101.20877,17.141291 100.83632,17.424016 100.95529,17.355468 L 95.052944,20.757812 A 1.655605,1.655605 0 0 0 94.240444,21.953125 L 91.504116,40.6875 89.884975,41.621094 89.002163,27.007812 A 1.655605,1.655605 0 0 0 86.523647,25.673828 L 79.310757,29.830078 A 1.655605,1.655605 0 0 0 78.513882,30.935547 L 77.578335,35.539062 76.115444,36.380859 75.232632,30.179687 A 1.655605,1.655605 0 0 0 74.615444,29.109375 L 69.679897,25.25 71.136928,24.410156 75.601772,25.904297 A 1.655605,1.655605 0 0 0 76.955288,25.769531 L 84.166225,21.611328 A 1.655605,1.655605 0 0 0 84.252163,18.796875 L 72.017788,10.728516 Z" id="path7300" inkscape:connector-curvature="0" />
</svg>
