<svg version="1.1" viewBox="0 0 75 51.63" xmlns="http://www.w3.org/2000/svg" xmlns:xlink="http://www.w3.org/1999/xlink">
 <defs>
  <linearGradient id="linearGradientSlvr" x1="-1869" x2="-1869" y1="794.4" y2="828" gradientTransform="matrix(1.301,0,0,1.301,1365,-35.3)" gradientUnits="userSpaceOnUse">
   <stop style="stop-color:#696969" offset="0"/>
   <stop style="stop-color:#c7c7c9" offset=".17"/>
   <stop style="stop-color:#f9f9ff" offset=".36"/>
   <stop style="stop-color:#ccccce" offset=".73"/>
   <stop style="stop-color:#696969" offset="1"/>
  </linearGradient>
  <linearGradient id="linearGradient5235" x1="-177.2" x2="-162.3" y1="-234" y2="-234" gradientTransform="matrix(1.556 0 0 1.556 307.6 406)" gradientUnits="userSpaceOnUse" xlink:href="#linearGradientSlvr"/>
  <linearGradient id="linearGradient5243" x1="-190.7" x2="-174.6" y1="-251.4" y2="-251.4" gradientTransform="matrix(1.556 0 0 1.556 307.6 406)" gradientUnits="userSpaceOnUse" xlink:href="#linearGradientSlvr"/>
  <linearGradient id="linearGradient5251" x1="-166" x2="-151.9" y1="-246.4" y2="-255" gradientTransform="matrix(1.556 0 0 1.556 307.6 406)" gradientUnits="userSpaceOnUse" xlink:href="#linearGradientSlvr"/>
 </defs>
 <path d="m62.19 31.16 3.282-1.891 2.02-13.83 4.181-2.41c0.7846-0.452 2.673-3.271 2.004-4.425-0.6691-1.155-4.06-0.9341-4.844-0.4821l-4.181 2.41-13.01-5.169-3.282 1.891 10.25 6.759-5.109 2.944-3.663-1.226-2.995 1.726 4.864 3.806 0.8701 6.107 2.995-1.726 0.7681-3.78 5.109-2.944z" style="fill:url(#linearGradient5251);stroke-width:.5863"/>
 <path d="m35.74 11.24c0.6844-2.541-6.548-5.473-0.5863-9.381l-0.08854-0.4721c-0.7447-0.068-1.495-0.1144-2.256-0.1144-9.57 0-17.86 5.462-21.94 13.44l0.2398 0.05042c3.322-2.834 11.81 2.585 8.795 7.036-4.299 6.352 0.998 6.812 5.863 6.45 2.639-0.2932 5.831-1.536 4.691-7.623-0.9898-5.286 4.593-6.84 5.277-9.381z" style="fill:url(#linearGradient5243);stroke-width:.5863"/>
 <path d="m55.04 36.45c-2.76 2.992-5.158 1.389-6.979-1.231-1.833-2.639-5.13-2.932-7.036 1.173-1.906 4.105-3.884 0.2932-7.623 5.863-3.594 5.357-0.2762 8.003-0.01758 8.196 9.557-0.2175 17.77-5.876 21.66-14z" style="fill:url(#linearGradient5235);stroke-width:.5863"/>
 <path d="m57.21 29.91c-1.954 11.65-12.08 20.52-24.29 20.52-13.6 0-24.63-11.03-24.63-24.63s11.03-24.63 24.63-24.63c4.22 0 8.193 1.062 11.67 2.932" stroke-miterlimit="10" style="fill:none;stroke-linecap:round;stroke-linejoin:round;stroke-miterlimit:10;stroke-width:2.345;stroke:#290a43"/>
 <path d="m62.19 31.16 3.282-1.891 2.02-13.83 4.181-2.41c0.7846-0.452 2.673-3.271 2.004-4.425-0.6691-1.155-4.06-0.9341-4.844-0.4821l-4.181 2.41-13.01-5.169-3.282 1.891 10.25 6.759-5.109 2.944-3.663-1.226-2.995 1.726 4.864 3.806 0.8701 6.107 2.995-1.726 0.7681-3.78 5.109-2.944z" stroke-miterlimit="10" style="fill:none;opacity:.99;stroke-linecap:round;stroke-linejoin:round;stroke-miterlimit:10;stroke-width:2.345;stroke:#290a43"/>
 <path d="m46.32 24.16c-24.52 13.78-44.04 12.61-45.09 6.45-0.4891-2.854 2.258-5.874 6.92-8.834" stroke-miterlimit="10" style="fill:none;stroke-linecap:round;stroke-linejoin:round;stroke-miterlimit:10;stroke-width:2.345;stroke:#290a43"/>
 <path d="m35.27 1.904c-5.961 3.909 1.271 6.84 0.5863 9.381-0.6844 2.541-6.266 4.096-5.277 9.381 1.14 6.087-2.052 7.329-4.691 7.623-4.866 0.3624-10.16-0.09788-5.863-6.45 3.013-4.452-5.473-9.87-8.795-7.036" stroke-miterlimit="10" style="fill:none;stroke-linecap:round;stroke-linejoin:round;stroke-miterlimit:10;stroke-width:2.345;stroke:#290a43"/>
 <path d="m33.41 50.45s-3.738-2.639 0-8.21 5.717-1.758 7.623-5.863 5.203-3.811 7.036-1.173c1.833 2.639 4.251 4.251 7.036 1.173" stroke-miterlimit="10" style="fill:none;stroke-linecap:round;stroke-linejoin:round;stroke-miterlimit:10;stroke-width:2.345;stroke:#290a43"/>
</svg>
