<?xml version="1.0" encoding="UTF-8" standalone="no"?>
<svg xmlns:dc="http://purl.org/dc/elements/1.1/" xmlns:cc="http://creativecommons.org/ns#" xmlns:rdf="http://www.w3.org/1999/02/22-rdf-syntax-ns#" xmlns:svg="http://www.w3.org/2000/svg" xmlns="http://www.w3.org/2000/svg" xmlns:xlink="http://www.w3.org/1999/xlink" xmlns:sodipodi="http://sodipodi.sourceforge.net/DTD/sodipodi-0.dtd" xmlns:inkscape="http://www.inkscape.org/namespaces/inkscape" version="1.1" viewBox="0 0 105.89335 72.903543" id="svg36" sodipodi:docname="i58.svg" width="105.89335" height="72.903542" inkscape:version="0.92.2 (5c3e80d, 2017-08-06)">
  <metadata id="metadata40">
    <rdf:RDF>
      <cc:Work rdf:about="">
        <dc:format>image/svg+xml</dc:format>
        <dc:type rdf:resource="http://purl.org/dc/dcmitype/StillImage" />
        <dc:title></dc:title>
      </cc:Work>
    </rdf:RDF>
  </metadata>
  <sodipodi:namedview pagecolor="#ffffff" bordercolor="#666666" borderopacity="1" objecttolerance="10" gridtolerance="10" guidetolerance="10" inkscape:pageopacity="0" inkscape:pageshadow="2" inkscape:window-width="2560" inkscape:window-height="1001" id="namedview38" showgrid="false" fit-margin-top="0" fit-margin-left="0" fit-margin-right="0" fit-margin-bottom="0" inkscape:zoom="3.2395334" inkscape:cx="28.692641" inkscape:cy="36.22961" inkscape:window-x="-9" inkscape:window-y="41" inkscape:window-maximized="1" inkscape:current-layer="svg36" />
  <defs id="defs16">
    <linearGradient id="linearGradientSlvr" x1="-1869" x2="-1869" y1="794.40002" y2="828" gradientTransform="matrix(1.301,0,0,1.301,1365,-35.3)" gradientUnits="userSpaceOnUse">
      <stop style="stop-color:#696969" offset="0" id="stop2" />
      <stop style="stop-color:#c7c7c9" offset=".17" id="stop4" />
      <stop style="stop-color:#f9f9ff" offset=".36" id="stop6" />
      <stop style="stop-color:#ccccce" offset=".73" id="stop8" />
      <stop style="stop-color:#696969" offset="1" id="stop10" />
    </linearGradient>
    <linearGradient id="linearGradient5235" x1="-177.2" x2="-162.3" y1="-234" y2="-234" gradientUnits="userSpaceOnUse" xlink:href="#linearGradientSlvr" gradientTransform="matrix(2.197,0,0,2.197,434.27887,573.24893)" />
    <linearGradient id="linearGradient5243" x1="-190.7" x2="-174.60001" y1="-251.39999" y2="-251.39999" gradientUnits="userSpaceOnUse" xlink:href="#linearGradientSlvr" gradientTransform="matrix(2.197,0,0,2.197,434.27887,573.24893)" />
    <linearGradient id="linearGradient5251" x1="-166" x2="-151.89999" y1="-246.39999" y2="-255" gradientUnits="userSpaceOnUse" xlink:href="#linearGradientSlvr" gradientTransform="matrix(2.197,0,0,2.197,434.27887,573.24893)" />
  </defs>
  <path inkscape:connector-curvature="0" id="path18" style="fill:url(#linearGradient5251);stroke-width:0.8278296" d="M 87.811969,43.991629 92.445442,41.322274 95.297148,21.793141 101.20049,18.389988 C 102.30822,17.751759 104.97493,13.771894 104.03022,12.14172 103.08551,10.510887 98.29825,10.822861 97.190962,11.461089 L 91.287623,14.864242 72.918506,7.5658089 68.285033,10.235164 82.758869,19.778931 75.546118,23.935655 70.37438,22.204639 66.145155,24.641112 73.012977,30.014974 74.241539,38.638199 78.470764,36.201726 79.555204,30.865213 86.767955,26.708489 Z" />
  <path inkscape:connector-curvature="0" id="path20" style="fill:url(#linearGradient5243);stroke-width:0.8278296" d="M 50.462969,15.870029 C 51.42921,12.282328 41.217993,8.1431805 49.635139,2.6243165 L 49.51013,1.9577467 C 48.458646,1.8617378 47.399033,1.7962672 46.32448,1.7962672 32.81293,1.7962672 21.10292,9.5077372 15.34678,20.767362 L 15.685338,20.838544 C 20.375933,16.837807 32.358371,24.487761 28.102782,30.773378 22.032471,39.741532 29.511938,40.391844 36.381078,39.879943 40.10719,39.466029 44.613237,37.711724 43.005033,29.11684 41.607521,21.653631 49.490577,19.458829 50.45506,15.871127 Z" />
  <path inkscape:connector-curvature="0" id="path22" style="fill:url(#linearGradient5235);stroke-width:0.8278296" d="M 77.705769,51.461429 C 73.808291,55.68626 70.422714,53.422691 67.852224,49.722943 65.264158,45.996831 60.608715,45.583795 57.91739,51.378602 55.226065,57.174288 52.433678,51.792517 47.154287,59.656898 42.079217,67.221169 46.76432,70.956069 47.129461,71.228497 60.623435,70.921356 72.219201,62.932625 77.711701,51.459891 Z" />
  <path inkscape:connector-curvature="0" id="path24" style="fill:none;stroke:#290a43;stroke-width:3.31087899;stroke-linecap:round;stroke-linejoin:round;stroke-miterlimit:10" stroke-miterlimit="10" d="M 80.781569,42.234029 C 78.022137,58.680771 63.719667,71.212459 46.486399,71.212459 27.282422,71.212459 11.707889,55.644517 11.707889,36.433949 11.707889,17.223381 27.275831,1.6554395 46.486399,1.6554395 52.444663,1.6554395 58.053604,3.1546723 62.957308,5.7945875" />
  <path inkscape:connector-curvature="0" id="path26" style="opacity:0.98999999;fill:none;stroke:#290a43;stroke-width:3.31087899;stroke-linecap:round;stroke-linejoin:round;stroke-miterlimit:10" stroke-miterlimit="10" d="M 87.811969,43.991629 92.445442,41.322274 95.297148,21.793141 101.20049,18.389988 C 102.30822,17.751759 104.97493,13.771894 104.03022,12.14172 103.08551,10.510887 98.29825,10.822861 97.190962,11.461089 L 91.287623,14.864242 72.918506,7.5658089 68.285033,10.235164 82.758869,19.778931 75.546118,23.935655 70.37438,22.204639 66.145155,24.641112 73.012977,30.014974 74.241539,38.638199 78.470764,36.201726 79.555204,30.865213 86.767955,26.708489 Z" />
  <path inkscape:connector-curvature="0" id="path28" style="fill:none;stroke:#290a43;stroke-width:3.31087899;stroke-linecap:round;stroke-linejoin:round;stroke-miterlimit:10" stroke-miterlimit="10" d="M 65.402569,34.105129 C 30.777849,53.559564 3.2274692,51.905223 1.7335092,43.211694 1.0429921,39.182396 4.9213562,34.918019 11.503568,30.739325" />
  <path inkscape:connector-curvature="0" id="path30" style="fill:none;stroke:#290a43;stroke-width:3.31087899;stroke-linecap:round;stroke-linejoin:round;stroke-miterlimit:10" stroke-miterlimit="10" d="M 49.803869,2.6880295 C 41.387162,8.2068935 51.597939,12.346041 50.631699,15.933742 49.665458,19.521443 41.78438,21.716246 43.181672,29.179455 44.790974,37.774119 40.283829,39.527325 36.557717,39.942558 29.687698,40.454239 22.20911,39.804367 28.279421,30.835993 32.532813,24.550376 20.552572,16.900422 15.861977,20.901159" />
  <path inkscape:connector-curvature="0" id="path32" style="fill:none;stroke:#290a43;stroke-width:3.31087899;stroke-linecap:round;stroke-linejoin:round;stroke-miterlimit:10" stroke-miterlimit="10" d="M 47.167469,71.234429 C 47.167469,71.234429 41.890275,67.508317 47.167469,59.643057 52.444663,51.777797 55.239247,57.160447 57.930572,51.364761 60.621897,45.569075 65.27734,45.984308 67.865406,49.709102 70.453472,53.435214 73.86761,55.711306 77.80024,51.364761" />
</svg>
