<svg version="1.1" viewBox="0 0 106 72.85" xmlns="http://www.w3.org/2000/svg" xmlns:xlink="http://www.w3.org/1999/xlink">
 <defs>
  <linearGradient id="linearGradientSlvr" x1="-1869" x2="-1869" y1="794.4" y2="828" gradientTransform="matrix(1.301,0,0,1.301,1365,-35.3)" gradientUnits="userSpaceOnUse">
   <stop style="stop-color:#696969" offset="0"/>
   <stop style="stop-color:#c7c7c9" offset=".17"/>
   <stop style="stop-color:#f9f9ff" offset=".36"/>
   <stop style="stop-color:#ccccce" offset=".73"/>
   <stop style="stop-color:#696969" offset="1"/>
  </linearGradient>
  <linearGradient id="linearGradient5355" x1="-178" x2="-161.5" y1="-234" y2="-234" gradientTransform="matrix(1.556 0 0 1.556 307.5 427)" gradientUnits="userSpaceOnUse" xlink:href="#linearGradientSlvr"/>
  <linearGradient id="linearGradient5363" x1="-184.7" x2="-184.4" y1="-260.2" y2="-242.2" gradientTransform="matrix(1.556 0 0 1.556 307.5 427)" gradientUnits="userSpaceOnUse" xlink:href="#linearGradientSlvr"/>
  <linearGradient id="linearGradient5371" x1="-197.7" x2="-167.1" y1="-242.7" y2="-242.7" gradientTransform="matrix(1.556 0 0 1.556 307.5 427)" gradientUnits="userSpaceOnUse" xlink:href="#linearGradientSlvr"/>
  <linearGradient id="linearGradient5379" x1="-168.3" x2="-149.4" y1="-249.2" y2="-249.2" gradientTransform="matrix(1.556 0 0 1.556 307.5 427)" gradientUnits="userSpaceOnUse" xlink:href="#linearGradientSlvr"/>
  <linearGradient id="linearGradient5387" x1="-193.1" x2="-160.2" y1="-244.3" y2="-244.3" gradientTransform="matrix(1.556 0 0 1.556 307.5 427)" gradientUnits="userSpaceOnUse" xlink:href="#linearGradientSlvr"/>
 </defs>
 <path d="m62.12 52.17 3.282-1.891 2.02-13.83 4.181-2.41c0.7846-0.452 2.673-3.271 2.004-4.425-0.6691-1.155-4.06-0.9341-4.844-0.4821l-4.181 2.41-13.01-5.169-3.282 1.891 10.25 6.76-5.109 2.944-3.663-1.226-2.995 1.726 4.864 3.806 0.8702 6.108 2.995-1.726 0.7681-3.78 5.109-2.944z" style="fill:#290a43;stroke-width:.5863"/>
 <path d="m35.66 32.26c0.6844-2.541-6.548-5.473-0.5863-9.382l-0.08854-0.4721c-0.7447-0.068-1.495-0.1144-2.256-0.1144-9.57 0-17.86 5.462-21.94 13.44l0.2398 0.05042c3.322-2.834 11.81 2.585 8.795 7.037-4.299 6.352 0.9981 6.812 5.863 6.45 2.639-0.2932 5.831-1.536 4.692-7.623-0.9898-5.286 4.594-6.84 5.277-9.382z" style="fill:#290a43;stroke-width:.5863"/>
 <path d="m54.96 57.46c-2.76 2.992-5.158 1.389-6.979-1.231-1.833-2.639-5.13-2.932-7.037 1.173-1.906 4.105-3.884 0.2932-7.623 5.863-3.595 5.358-0.2762 8.003-0.01759 8.196 9.557-0.2175 17.77-5.876 21.66-14z" style="fill:#290a43;stroke-width:.5863;stroke:#290a43"/>
 <path d="m32.85 21.02c-14.24 0-25.81 11.57-25.81 25.8 0 14.24 11.57 25.8 25.81 25.8 12.77 0 23.4-9.298 25.45-21.5a1.173 1.173 0 1 0-2.313-0.3887c-1.861 11.09-11.5 19.55-23.13 19.55-12.97 0-23.46-10.49-23.46-23.46 0-12.97 10.49-23.46 23.46-23.46 4.023 0 7.802 1.011 11.11 2.792a1.173 1.173 0 1 0 1.112-2.065c-3.639-1.959-7.805-3.071-12.22-3.071z" style="color-rendering:auto;color:#000000;fill:url(#linearGradient5387);isolation:auto;mix-blend-mode:normal;shape-rendering:auto;solid-color:#000000"/>
 <path d="m51.54 25.2a1.173 1.173 0 0 0-0.5589 0.1563l-3.283 1.891a1.173 1.173 0 0 0-0.05948 1.995l8.665 5.713-3.005 1.732-3.164-1.058a1.173 1.173 0 0 0-0.9573 0.09545l-2.995 1.725a1.173 1.173 0 0 0-0.137 1.939l4.492 3.516 0.8037 5.64a1.173 1.173 0 0 0 1.746 0.8508l2.996-1.726a1.173 1.173 0 0 0 0.563-0.7816l0.6626-3.262 3.01-1.733 0.6239 10.35a1.173 1.173 0 0 0 1.755 0.9462l3.283-1.891a1.173 1.173 0 0 0 0.5741-0.8466l1.938-13.27 3.688-2.126c0.4765-0.2746 0.744-0.5966 1.069-1.003s0.6459-0.8879 0.9255-1.408c0.2796-0.5203 0.519-1.073 0.6488-1.664 0.1298-0.5909 0.1808-1.28-0.2103-1.955h0.001417c-0.3907-0.6745-1.013-0.972-1.589-1.155-0.5769-0.1831-1.177-0.2538-1.768-0.2725-0.591-0.01874-1.168 0.01906-1.684 0.09683s-0.9271 0.1456-1.404 0.4205l-3.689 2.128-12.48-4.959a1.173 1.173 0 0 0-0.4593-0.083zm0.1204 2.471 12.48 4.961a1.173 1.173 0 0 0 1.018-0.0747l4.182-2.41c-0.08482 0.04889 0.2202-0.07949 0.5824-0.1342 0.3622-0.05469 0.8219-0.08583 1.26-0.07193 0.4383 0.0139 0.86 0.07704 1.132 0.1632 0.2716 0.0862 0.3259 0.1938 0.2698 0.09683-0.05652-0.09747 0.009491-0.001134-0.05121 0.2753-0.0607 0.2764-0.2177 0.673-0.4247 1.058-0.207 0.3852-0.4631 0.7659-0.6917 1.051-0.2286 0.2854-0.4923 0.4857-0.4081 0.4371l-4.182 2.41a1.173 1.173 0 0 0-0.5741 0.8466l-1.938 13.27-1.147 0.6612-0.6253-10.35a1.173 1.173 0 0 0-1.755-0.9448l-5.109 2.944a1.173 1.173 0 0 0-0.5644 0.783l-0.6626 3.261-1.036 0.5976-0.6253-4.392a1.173 1.173 0 0 0-0.4371-0.7581l-3.496-2.735 1.032-0.5948 3.162 1.058a1.173 1.173 0 0 0 0.9573-0.09545l5.109-2.944a1.173 1.173 0 0 0 0.06087-1.995l-8.665-5.715z" style="color-rendering:auto;color:#000000;fill:url(#linearGradient5379);isolation:auto;mix-blend-mode:normal;opacity:.99;shape-rendering:auto;solid-color:#000000"/>
 <path d="m8.071 41.61a1.173 1.173 0 0 0-0.6308 0.1923c-2.395 1.521-4.337 3.068-5.672 4.705-1.335 1.637-2.093 3.461-1.775 5.316 0.3654 2.126 2.259 3.615 4.84 4.446 2.581 0.8313 6.012 1.115 10.16 0.7761 8.292-0.6774 19.44-3.887 31.83-10.85a1.173 1.173 0 1 0-1.148-2.045c-12.13 6.817-23.01 9.913-30.87 10.55-3.93 0.3211-7.108 0.01862-9.249-0.6709-2.14-0.6893-3.082-1.657-3.247-2.609v-0.001417c-0.1706-0.9985 0.1999-2.112 1.281-3.438 1.082-1.326 2.845-2.768 5.111-4.207a1.173 1.173 0 0 0-0.6267-2.172z" style="color-rendering:auto;color:#000000;fill:url(#linearGradient5371);isolation:auto;mix-blend-mode:normal;shape-rendering:auto;solid-color:#000000"/>
 <path d="m35.18 21.74a1.173 1.173 0 0 0-0.628 0.2006c-1.637 1.074-2.58 2.233-2.833 3.511s0.2378 2.415 0.801 3.302c0.5632 0.8869 1.235 1.631 1.663 2.237 0.4273 0.6063 0.4891 0.9272 0.4676 1.007-0.07481 0.2778-0.3856 0.7233-0.9365 1.257-0.5509 0.5341-1.295 1.143-2.029 1.883-1.469 1.479-2.903 3.706-2.331 6.762 0.5308 2.835 0.04033 4.21-0.6529 4.99-0.6896 0.7754-1.815 1.115-2.999 1.249-2.357 0.1729-4.78-0.003753-5.638-0.5354-0.4308-0.2668-0.5424-0.3993-0.5229-0.967s0.3734-1.631 1.382-3.121c0.9582-1.416 1.02-3.084 0.4856-4.458-0.5346-1.375-1.57-2.519-2.793-3.4-1.223-0.8816-2.648-1.506-4.089-1.718-1.441-0.2123-2.972 0.002408-4.131 0.9905a1.173 1.173 0 1 0 1.522 1.785c0.5027-0.4288 1.277-0.5995 2.267-0.4537s2.122 0.6237 3.059 1.299c0.9369 0.6753 1.667 1.543 1.98 2.348 0.3129 0.8047 0.306 1.485-0.2421 2.295-1.141 1.685-1.739 3.061-1.783 4.355-0.04448 1.294 0.6668 2.445 1.631 3.042 1.928 1.194 4.572 1.065 7.073 0.8784a1.173 1.173 0 0 0 0.04289-0.002762c1.448-0.1614 3.232-0.5899 4.51-2.027 1.278-1.437 1.814-3.726 1.205-6.979-0.4176-2.231 0.4447-3.422 1.69-4.677 0.6229-0.6273 1.34-1.215 1.998-1.852 0.6572-0.6372 1.3-1.338 1.567-2.331 0.3207-1.191-0.2649-2.188-0.8148-2.969-0.5499-0.7802-1.185-1.491-1.599-2.143-0.4141-0.6522-0.5706-1.139-0.4814-1.589 0.08915-0.4506 0.4773-1.124 1.82-2.004a1.173 1.173 0 0 0-0.6585-2.162z" style="color-rendering:auto;color:#000000;fill:url(#linearGradient5363);isolation:auto;mix-blend-mode:normal;shape-rendering:auto;solid-color:#000000"/>
 <path d="m44.4 53.11c-1.796 0.1527-3.443 1.493-4.51 3.789-0.4147 0.893-0.7306 1.186-1.008 1.353-0.2779 0.1666-0.6565 0.2393-1.298 0.3763-1.282 0.2738-3.235 1.008-5.226 3.976-2.017 3.007-2.123 5.527-1.537 7.228 0.5859 1.701 1.833 2.592 1.833 2.592a1.173 1.173 0 1 0 1.353-1.916s-0.6198-0.4284-0.9683-1.44c-0.3485-1.012-0.4546-2.594 1.266-5.158 1.747-2.603 2.651-2.749 3.77-2.988 0.5592-0.1194 1.267-0.2113 2.013-0.6585s1.393-1.217 1.931-2.377c0.8398-1.809 1.794-2.373 2.581-2.44 0.7876-0.06696 1.689 0.3775 2.429 1.443 0.9905 1.426 2.172 2.709 3.792 3.186 1.62 0.477 3.503-0.1552 5.077-1.895a1.173 1.173 0 1 0-1.739-1.573c-1.211 1.339-1.931 1.438-2.675 1.219-0.7441-0.2192-1.686-1.061-2.529-2.274-1.093-1.573-2.758-2.594-4.554-2.442z" style="color-rendering:auto;color:#000000;fill:url(#linearGradient5355);isolation:auto;mix-blend-mode:normal;shape-rendering:auto;solid-color:#000000"/>
</svg>
