<svg version="1.1" viewBox="0 0 75 51.57" xmlns="http://www.w3.org/2000/svg">
 <path id="XMLID_1118_" d="m62.2 31.05 3.279-1.889 2.018-13.82 4.178-2.409c0.7839-0.4517 2.671-3.268 2.003-4.422-0.6685-1.154-4.056-0.9333-4.84-0.4816l-4.178 2.409-13-5.166-3.279 1.889 10.24 6.755-5.104 2.942-3.66-1.225-2.993 1.724 4.861 3.803 0.8695 6.103 2.993-1.724 0.7675-3.777 5.104-2.942z" style="opacity:.1;stroke-width:.5859"/>
 <path id="XMLID_1117_" d="m35.74 11.13c0.6838-2.539-6.543-5.468-0.5859-9.374l-0.08847-0.4717c-0.7441-0.06795-1.494-0.1143-2.255-0.1143-9.563 0-17.84 5.458-21.92 13.43l0.2396 0.05038c3.32-2.832 11.8 2.583 8.789 7.031-4.296 6.347 0.9972 6.807 5.859 6.445 2.637-0.2929 5.826-1.534 4.687-7.617-0.989-5.283 4.589-6.836 5.273-9.374z" style="opacity:.1;stroke-width:.5859"/>
 <path id="XMLID_1116_" d="m55.01 36.38c-2.758 2.99-5.155 1.388-6.973-1.23-1.831-2.637-5.127-2.93-7.031 1.172-1.904 4.101-3.882 0.293-7.617 5.859-3.592 5.353-0.276 7.996-0.01757 8.19 9.55-0.2174 17.75-5.871 21.64-13.99z" style="opacity:.1;stroke-width:.5859"/>
 <path id="XMLID_1115_" d="m57.08 29.88c-1.952 11.64-12.07 20.51-24.27 20.51-13.59 0-24.61-11.02-24.61-24.61s11.02-24.61 24.61-24.61c4.217 0 8.187 1.061 11.66 2.93" stroke-miterlimit="10" style="fill:none;stroke-linecap:round;stroke-linejoin:round;stroke-miterlimit:10;stroke-width:2.344;stroke:#000000"/>
 <path id="XMLID_1114_" d="m62.2 31.05 3.279-1.889 2.018-13.82 4.178-2.409c0.7839-0.4517 2.671-3.268 2.003-4.422-0.6685-1.154-4.056-0.9333-4.84-0.4816l-4.178 2.409-13-5.166-3.279 1.889 10.24 6.755-5.104 2.942-3.66-1.225-2.993 1.724 4.861 3.803 0.8695 6.103 2.993-1.724 0.7675-3.777 5.104-2.942z" stroke-miterlimit="10" style="fill:none;stroke-linecap:round;stroke-linejoin:round;stroke-miterlimit:10;stroke-width:2.344;stroke:#000000"/>
 <path id="XMLID_1113_" d="m46.28 24.02c-24.51 13.77-44 12.6-45.06 6.445-0.4886-2.852 2.256-5.87 6.914-8.827" stroke-miterlimit="10" style="fill:none;stroke-linecap:round;stroke-linejoin:round;stroke-miterlimit:10;stroke-width:2.344;stroke:#000000"/>
 <path id="XMLID_1112_" d="m35.15 1.758c-5.957 3.906 1.27 6.836 0.5859 9.374-0.6837 2.539-6.262 4.092-5.273 9.374 1.139 6.082-2.051 7.324-4.687 7.617-4.862 0.3621-10.16-0.0978-5.859-6.445 3.011-4.448-5.468-9.863-8.789-7.031" stroke-miterlimit="10" style="fill:none;stroke-linecap:round;stroke-linejoin:round;stroke-miterlimit:10;stroke-width:2.344;stroke:#000000"/>
 <path id="XMLID_1110_" d="m33.39 50.39s-3.735-2.637 0-8.203c3.735-5.566 5.713-1.758 7.617-5.859 1.904-4.101 5.2-3.808 7.031-1.172 1.831 2.637 4.248 4.248 7.031 1.172" stroke-miterlimit="10" style="fill:none;stroke-linecap:round;stroke-linejoin:round;stroke-miterlimit:10;stroke-width:2.344;stroke:#000000"/>
</svg>
