<?xml version="1.0" encoding="UTF-8" standalone="no"?>
<svg xmlns:dc="http://purl.org/dc/elements/1.1/" xmlns:cc="http://creativecommons.org/ns#" xmlns:rdf="http://www.w3.org/1999/02/22-rdf-syntax-ns#" xmlns:svg="http://www.w3.org/2000/svg" xmlns="http://www.w3.org/2000/svg" xmlns:xlink="http://www.w3.org/1999/xlink" xmlns:sodipodi="http://sodipodi.sourceforge.net/DTD/sodipodi-0.dtd" xmlns:inkscape="http://www.inkscape.org/namespaces/inkscape" version="1.1" id="svg361" sodipodi:docname="i5a.svg" width="100" height="70.05986" inkscape:version="0.92.2 (5c3e80d, 2017-08-06)">
  <metadata id="metadata365">
    <rdf:RDF>
      <cc:Work rdf:about="">
        <dc:format>image/svg+xml</dc:format>
        <dc:type rdf:resource="http://purl.org/dc/dcmitype/StillImage" />
        <dc:title></dc:title>
      </cc:Work>
    </rdf:RDF>
  </metadata>
  <sodipodi:namedview pagecolor="#ffffff" bordercolor="#666666" borderopacity="1" objecttolerance="10" gridtolerance="10" guidetolerance="10" inkscape:pageopacity="0" inkscape:pageshadow="2" inkscape:window-width="2560" inkscape:window-height="1001" id="namedview363" showgrid="false" fit-margin-top="0" fit-margin-left="0" fit-margin-right="0" fit-margin-bottom="0" inkscape:zoom="4.4547434" inkscape:cx="122.96499" inkscape:cy="49.316992" inkscape:window-x="-9" inkscape:window-y="41" inkscape:window-maximized="1" inkscape:current-layer="svg361" inkscape:snap-global="false" />
  <defs id="defs4543">
    <linearGradient id="reslogo-linearGradient5862" x1="-1506.8948" xlink:href="#reslogo-linearGradientSlvr" gradientUnits="userSpaceOnUse" x2="-1506.8948" gradientTransform="matrix(7.388557,0,0,7.455172,11191.616,-12775.576)" y1="1719.386" y2="1722.4719" />
    <linearGradient id="reslogo-linearGradientSlvr" y2="828" gradientUnits="userSpaceOnUse" x2="-1869" gradientTransform="matrix(1.301,0,0,1.301,1365,-35.3)" y1="794.40002" x1="-1869">
      <stop id="reslogo-stop4422" stop-color="#696969" offset="0" />
      <stop id="reslogo-stop4424" stop-color="#c7c7c9" offset=".17" />
      <stop id="reslogo-stop4426" stop-color="#f9f9ff" offset=".36" />
      <stop id="reslogo-stop4428" stop-color="#ccccce" offset=".73" />
      <stop id="reslogo-stop4430" stop-color="#696969" offset="1" />
    </linearGradient>
    <linearGradient inkscape:collect="always" xlink:href="#reslogo-linearGradientSlvr" id="linearGradient32000" x1="-190.65205" y1="-251.42719" x2="-174.64162" y2="-251.42719" gradientUnits="userSpaceOnUse" gradientTransform="matrix(1.9531315,0,0,1.9531315,388.04456,512.0132)" />
    <linearGradient inkscape:collect="always" xlink:href="#reslogo-linearGradientSlvr" id="linearGradient32008" x1="-165.2719" y1="-246.66608" x2="-150.75578" y2="-255.4099" gradientUnits="userSpaceOnUse" gradientTransform="matrix(1.9531315,0,0,1.9531315,388.04456,512.0132)" />
    <linearGradient id="reslogo-linearGradient4674" y2="1413.8951" xlink:href="#reslogo-linearGradient7728" gradientUnits="userSpaceOnUse" x2="-1864.0908" gradientTransform="matrix(2.6328009,0,0,4.6355499,4912.0611,-6484.4559)" y1="1398.897" x1="-1864.0908" />
    <linearGradient id="reslogo-linearGradient7728" y2="781.40002" gradientUnits="userSpaceOnUse" x2="-1405" gradientTransform="scale(0.7835,1.276)" y1="704.40002" x1="-1405">
      <stop id="reslogo-stop4435" stop-color="#1c072d" offset="0" />
      <stop id="reslogo-stop4437" stop-color="#5700aa" offset=".29" />
      <stop id="reslogo-stop4439" stop-color="#4b127b" offset=".64" />
      <stop id="reslogo-stop4441" stop-color="#290a43" offset="1" />
    </linearGradient>
  </defs>
  <rect style="opacity:1;fill:url(#reslogo-linearGradient4674);fill-opacity:1;stroke:none;stroke-width:11.99930191;stroke-linecap:butt;stroke-linejoin:miter;stroke-miterlimit:4;stroke-dasharray:none;stroke-dashoffset:0;stroke-opacity:1" id="rect32056" width="100" height="70.05986" x="0" y="0" ry="21.157682" />
  <path style="opacity:1;fill:url(#linearGradient32008);fill-opacity:1;stroke-width:0.73598683" inkscape:connector-curvature="0" id="XMLID_1118_" d="M 80.133007,41.493777 84.251595,39.120957 86.787072,21.759747 92.035384,18.734113 C 93.020145,18.166669 95.390753,14.628787 94.551003,13.17888 93.711235,11.728992 89.455751,12.006454 88.471003,12.573898 L 83.222685,15.599552 66.89187,9.110352 62.773302,11.483172 75.640551,19.968355 69.228636,23.663758 64.631667,22.124807 60.871499,24.290811 66.977242,29.068112 68.069453,36.734152 71.82962,34.56813 72.793744,29.823973 79.20568,26.128571 Z" />
  <path style="opacity:1;fill:url(#linearGradient32000);fill-opacity:1;stroke-width:0.73598683" inkscape:connector-curvature="0" id="XMLID_1117_" d="M 46.888486,16.470219 C 47.747395,13.281185 38.669727,9.601252 46.152505,4.694438 L 46.041373,4.101956 C 45.106663,4.016604 44.164609,3.958401 43.208551,3.958401 31.19652,3.958401 20.792599,10.814849 15.676021,20.822811 L 15.977037,20.886093 C 20.147871,17.329069 30.799077,24.130322 27.016838,29.717938 21.619848,37.690893 28.269498,38.268629 34.376706,37.813803 37.68865,37.445814 41.695363,35.886239 40.264616,28.24596 39.022269,21.610314 46.029595,19.659214 46.888486,16.47018 Z" />
  <path style="display:inline;opacity:1;fill:url(#reslogo-linearGradient5862);fill-opacity:1;stroke:none;stroke-width:24.47695541;stroke-linecap:butt;stroke-linejoin:miter;stroke-miterlimit:4;stroke-dasharray:none;stroke-dashoffset:0;stroke-opacity:1" inkscape:connector-curvature="0" id="XMLID_1116_" d="M 71.103193,48.19126 C 67.638162,51.946995 64.627976,49.9348 62.344219,46.645688 60.044251,43.333744 55.904335,42.965754 53.512374,48.117646 51.120413,53.269557 48.63646,48.485655 43.944549,55.477513 39.432211,62.202243 43.597888,65.52153 43.92248,65.765145 55.919061,65.492097 66.223625,58.39055 71.103212,48.19126 Z" />
  <path id="XMLID_1110_" style="color:#000000;clip-rule:nonzero;display:inline;visibility:visible;opacity:1;isolation:auto;mix-blend-mode:normal;color-interpolation:sRGB;solid-color:#000000;solid-opacity:1;fill:#000000;fill-opacity:1;fill-rule:nonzero;stroke:none;stroke-width:2.94394732;stroke-linecap:round;stroke-linejoin:round;stroke-miterlimit:10;stroke-dasharray:none;stroke-dashoffset:0;stroke-opacity:1;color-rendering:auto;shape-rendering:auto" d="M 57.839458,42.742863 C 55.585173,42.934699 53.516631,44.613689 52.178424,47.495984 51.658051,48.616788 51.260608,48.984484 50.911935,49.193527 50.563263,49.402571 50.087636,49.494584 49.283064,49.666557 47.673917,50.010484 45.221234,50.931483 42.721752,54.656183 40.189362,58.429945 40.055982,61.596889 40.791511,63.731388 41.527042,65.865887 43.095601,66.985325 43.095601,66.985325 A 1.4727257,1.4727257 0 1 0 44.793146,64.578247 C 44.793146,64.578247 44.01369,64.039533 43.576248,62.770076 43.138804,61.500639 43.007457,59.514636 45.166995,56.29652 47.359424,53.02938 48.493432,52.846704 49.897225,52.546664 50.599122,52.396625 51.489945,52.280316 52.426375,51.718868 53.362803,51.157421 54.173118,50.190914 54.848726,48.735753 55.902479,46.466157 57.098752,45.756681 58.087409,45.672559 59.076064,45.588419 60.206829,46.147444 61.135368,47.484538 62.378282,49.274349 63.863209,50.887323 65.896125,51.486173 67.929042,52.085003 70.29069,51.289765 72.266692,49.105793 A 1.4721209,1.4721209 0 1 0 70.084674,47.129772 C 68.564707,48.809718 67.661755,48.934601 66.727729,48.659463 65.793683,48.384326 64.610905,47.328171 63.553891,45.806056 62.182461,43.831206 60.093723,42.551006 57.839458,42.742863 Z M 46.132115,3.211016 A 1.4721209,1.4721209 0 0 0 45.346273,3.462794 C 43.290895,4.810591 42.104563,6.264639 41.78716,7.868785 41.469756,9.472911 42.087318,10.902037 42.794234,12.015361 43.50115,13.128704 44.344511,14.062047 44.880881,14.822987 45.41725,15.583927 45.495258,15.985744 45.468344,16.085667 45.374535,16.434007 44.985022,16.994556 44.293418,17.664949 43.601814,18.335343 42.667183,19.101594 41.745187,20.030074 39.901197,21.887014 38.101211,24.682277 38.819318,28.517797 39.48559,32.075777 38.869143,33.799338 37.99914,34.777739 37.133511,35.75122 35.719699,36.173994 34.23403,36.341768 31.279431,36.557471 28.234206,36.340654 27.157737,35.674188 26.616896,35.339343 26.47715,35.173443 26.501602,34.461117 26.526075,33.748791 26.971331,32.41363 28.237311,30.543408 29.440342,28.766138 29.518663,26.672908 28.847665,24.947239 28.176666,23.221549 26.873479,21.785139 25.338122,20.678572 23.802765,19.572007 22.016685,18.789699 20.207344,18.523253 18.398002,18.256806 16.477429,18.526593 15.023148,19.76685 A 1.4721209,1.4721209 0 1 0 16.930497,22.006096 C 17.561631,21.467833 18.537495,21.254707 19.780096,21.437695 21.022698,21.620685 22.441667,22.219007 23.617686,23.066588 24.793706,23.91415 25.708378,25.005422 26.101074,26.015348 26.493751,27.025273 26.487794,27.875119 25.799705,28.891646 24.367182,31.007922 23.616261,32.733924 23.56048,34.358129 23.504698,35.982314 24.398627,37.427299 25.608963,38.176637 28.029654,39.675333 31.346716,39.516699 34.485808,39.28291 A 1.4721209,1.4721209 0 0 0 34.539206,39.275273 C 36.35726,39.073281 38.596583,38.538142 40.200241,36.734679 41.803898,34.931217 42.475327,32.058414 41.71085,27.976116 41.186611,25.17599 42.26804,23.676239 43.831834,22.101467 44.613732,21.314063 45.516898,20.578025 46.34192,19.778296 47.166943,18.978586 47.974679,18.098603 48.310306,16.852426 48.712846,15.357813 47.978254,14.104742 47.287959,13.125442 46.597683,12.146142 45.797408,11.254713 45.27762,10.436079 44.757814,9.617442 44.562989,9.006542 44.674884,8.440994 44.786798,7.875425 45.27389,7.032688 46.959892,5.927099 A 1.4721209,1.4721209 0 0 0 46.132115,3.211016 Z M 12.223158,28.185921 A 1.4721209,1.4721209 0 0 0 11.433506,28.426254 C 8.4270516,30.334873 5.9908915,32.276228 4.315261,34.33141 2.6396305,36.386611 1.688475,38.678768 2.0874607,41.007155 2.5449427,43.675717 4.9211419,45.544532 8.1604884,46.588071 11.399835,47.631628 15.705981,47.985888 20.90924,47.560827 31.315798,46.710707 45.3018,42.684308 60.85689,33.946135 A 1.472264,1.472264 0 1 0 59.414932,31.378841 C 44.181484,39.936331 30.533472,43.821479 20.668928,44.627322 15.736645,45.030253 11.747199,44.649685 9.0607646,43.784273 6.3743302,42.91884 5.1915724,41.702801 4.9866498,40.507425 4.771825,39.253789 5.2390921,37.857847 6.5964597,36.192998 7.9538275,34.528149 10.168151,32.719334 13.012808,30.913429 A 1.4721209,1.4721209 0 0 0 12.223158,28.185921 Z M 66.861245,7.639897 A 1.4721209,1.4721209 0 0 0 66.15552,7.834449 L 62.039452,10.207191 A 1.4721209,1.4721209 0 0 0 61.963163,12.713468 L 72.838881,19.885113 69.066135,22.059495 65.098837,20.728163 A 1.4721209,1.4721209 0 0 0 63.897212,20.850233 L 60.135911,23.016998 A 1.4721209,1.4721209 0 0 0 59.964251,25.450775 L 65.602394,29.860575 66.613276,36.940675 A 1.4721209,1.4721209 0 0 0 68.802931,38.008805 L 72.564233,35.842039 A 1.4721209,1.4721209 0 0 0 73.273766,34.861665 L 74.105371,30.768488 77.881945,28.594086 78.663959,41.583172 A 1.4721209,1.4721209 0 0 0 80.868849,42.769561 L 84.984918,40.3968 A 1.4721209,1.4721209 0 0 0 85.709724,39.3325 L 88.139693,22.677485 92.770742,20.010992 C 93.368894,19.666343 93.701357,19.262142 94.109716,18.75214 94.518075,18.242139 94.92226,17.639031 95.273198,16.985943 95.624154,16.332836 95.926652,15.637307 96.089542,14.895467 96.252441,14.153629 96.316927,13.289661 95.826336,12.442608 95.335949,11.595965 94.555337,11.219069 93.831238,10.989206 93.10713,10.759361 92.352896,10.673208 91.611077,10.649692 90.869268,10.626197 90.144216,10.670317 89.497721,10.767954 88.851243,10.86561 88.333932,10.953267 87.735337,11.29821 L 83.104267,13.968492 67.437263,7.742886 A 1.4721209,1.4721209 0 0 0 66.861245,7.639897 Z M 67.010015,10.741255 82.680847,16.966861 A 1.4721209,1.4721209 0 0 0 83.958762,16.875298 L 89.207798,13.85025 C 89.10159,13.911441 89.481809,13.75105 89.936419,13.682397 90.391029,13.613725 90.969388,13.573412 91.519527,13.590835 92.069648,13.608276 92.597831,13.688666 92.938597,13.796831 93.279364,13.904996 93.348594,14.036812 93.278109,13.915093 93.207384,13.793003 93.289456,13.915191 93.213266,14.262224 93.13705,14.609276 92.939025,15.106211 92.6792,15.589747 92.419358,16.073285 92.10012,16.551391 91.813268,16.909634 91.526398,17.267897 91.19632,17.51989 91.302092,17.458952 L 86.053046,20.484021 A 1.4721209,1.4721209 0 0 0 85.332067,21.548322 L 82.89827,38.203356 81.456312,39.031132 80.674298,26.038239 A 1.4721209,1.4721209 0 0 0 78.469408,24.851867 L 72.056868,28.548324 A 1.4721209,1.4721209 0 0 0 71.351162,29.532507 L 70.519538,33.625704 69.218733,34.373382 68.43291,28.861118 A 1.4721209,1.4721209 0 0 0 67.883573,27.907443 L 63.496664,24.47421 64.79366,23.73034 68.760958,25.057864 A 1.4721209,1.4721209 0 0 0 69.962603,24.939602 L 76.375124,21.243144 A 1.4721209,1.4721209 0 0 0 76.451413,18.740694 L 65.575674,11.56905 Z M 43.210035,2.486228 C 25.342575,2.486228 10.826962,17.001822 10.826962,34.869283 10.826962,52.736763 25.342575,67.252357 43.210035,67.252357 59.2404,67.252357 72.573529,55.582006 75.142971,40.263285 A 1.4721209,1.4721209 0 1 0 72.239974,39.77883 C 69.90481,53.700867 57.812954,64.311215 43.210035,64.311215 26.933596,64.311215 13.768104,51.145722 13.768104,34.869283 13.768104,18.592862 26.933596,5.431179 43.210035,5.431179 48.260774,5.431179 53.002977,6.697336 57.152795,8.933085 A 1.4721209,1.4721209 0 1 0 58.548992,6.342901 C 53.983234,3.883049 48.754565,2.486228 43.210035,2.486228 Z" inkscape:connector-curvature="0" />
</svg>
