<svg version="1.1" viewBox="0 0 75 52.49" xmlns="http://www.w3.org/2000/svg" xmlns:xlink="http://www.w3.org/1999/xlink">
 <defs>
  <linearGradient id="reslogo-linearGradient5862" x1="-1507" x2="-1507" y1="1719" y2="1722" gradientTransform="matrix(5.541 0 0 5.586 8394 -9572)" gradientUnits="userSpaceOnUse" xlink:href="#reslogo-linearGradientSlvr"/>
  <linearGradient id="reslogo-linearGradientSlvr" x1="-1869" x2="-1869" y1="794.4" y2="828" gradientTransform="matrix(1.301,0,0,1.301,1365,-35.3)" gradientUnits="userSpaceOnUse">
   <stop stop-color="#696969" offset="0"/>
   <stop stop-color="#c7c7c9" offset=".17"/>
   <stop stop-color="#f9f9ff" offset=".36"/>
   <stop stop-color="#ccccce" offset=".73"/>
   <stop stop-color="#696969" offset="1"/>
  </linearGradient>
  <linearGradient id="linearGradient32000" x1="-190.7" x2="-174.6" y1="-251.4" y2="-251.4" gradientTransform="matrix(1.465 0 0 1.463 291 383.6)" gradientUnits="userSpaceOnUse" xlink:href="#reslogo-linearGradientSlvr"/>
  <linearGradient id="linearGradient32008" x1="-165.3" x2="-150.8" y1="-246.7" y2="-255.4" gradientTransform="matrix(1.465 0 0 1.463 291 383.6)" gradientUnits="userSpaceOnUse" xlink:href="#reslogo-linearGradientSlvr"/>
  <linearGradient id="reslogo-linearGradient4674" x1="-1864" x2="-1864" y1="1399" y2="1414" gradientTransform="matrix(1.975 0 0 3.473 3684 -4858)" gradientUnits="userSpaceOnUse">
   <stop stop-color="#1c072d" offset="0"/>
   <stop stop-color="#5700aa" offset=".29"/>
   <stop stop-color="#4b127b" offset=".64"/>
   <stop stop-color="#290a43" offset="1"/>
  </linearGradient>
 </defs>
 <rect width="75" height="52.49" ry="15.85" style="fill:url(#reslogo-linearGradient4674)"/>
 <path id="XMLID_1118_" d="m60.1 31.09 3.089-1.778 1.902-13.01 3.936-2.267c0.7386-0.4252 2.517-3.076 1.887-4.162-0.6298-1.086-3.821-0.8784-4.56-0.4533l-3.936 2.267-12.25-4.862-3.089 1.778 9.65 6.358-4.809 2.769-3.448-1.153-2.82 1.623 4.579 3.579 0.8192 5.744 2.82-1.623 0.7231-3.555 4.809-2.769z" style="fill:url(#linearGradient32008);stroke-width:.5517"/>
 <path id="XMLID_1117_" d="m35.17 12.34c0.6442-2.389-6.164-5.147-0.552-8.823l-0.08335-0.4439c-0.701-0.06395-1.408-0.1076-2.125-0.1076-9.009 0-16.81 5.137-20.65 12.64l0.2258 0.04741c3.128-2.665 11.12 2.431 8.28 6.617-4.048 5.974 0.9395 6.407 5.52 6.066 2.484-0.2757 5.489-1.444 4.416-7.169-0.9318-4.972 4.324-6.434 4.968-8.823z" style="fill:url(#linearGradient32000);stroke-width:.5517"/>
 <path id="XMLID_1116_" d="m53.33 36.11c-2.599 2.814-4.856 1.306-6.569-1.158-1.725-2.481-4.83-2.757-6.624 1.103-1.794 3.86-3.657 0.2757-7.176 5.514-3.384 5.039-0.26 7.525-0.01655 7.708 8.997-0.2046 16.73-5.525 20.39-13.17z" style="fill:url(#reslogo-linearGradient5862)"/>
 <path id="XMLID_1110_" d="m43.38 32.03c-1.691 0.1437-3.242 1.402-4.246 3.561-0.3903 0.8398-0.6884 1.115-0.9499 1.272-0.2615 0.1566-0.6182 0.2256-1.222 0.3544-1.207 0.2577-3.046 0.9477-4.921 3.738-1.899 2.827-1.999 5.2-1.448 6.8 0.5516 1.599 1.728 2.438 1.728 2.438a1.105 1.103 0 1 0 1.273-1.804s-0.5846-0.4036-0.9127-1.355c-0.3281-0.9511-0.4266-2.439 1.193-4.85 1.644-2.448 2.495-2.585 3.548-2.81 0.5264-0.1124 1.195-0.1996 1.897-0.6202 0.7023-0.4207 1.31-1.145 1.817-2.235 0.7903-1.7 1.688-2.232 2.429-2.295 0.7415-0.06304 1.59 0.3558 2.286 1.358 0.9322 1.341 2.046 2.55 3.571 2.998 1.525 0.4487 3.296-0.1472 4.778-1.784a1.104 1.103 0 1 0-1.637-1.481c-1.14 1.259-1.817 1.352-2.518 1.146-0.7005-0.2061-1.588-0.9975-2.38-2.138-1.029-1.48-2.595-2.439-4.286-2.295zm-8.781-29.62a1.104 1.103 0 0 0-0.5894 0.1886c-1.542 1.01-2.431 2.099-2.669 3.301-0.2381 1.202 0.2251 2.273 0.7553 3.107 0.5302 0.8342 1.163 1.533 1.565 2.104s0.4608 0.8712 0.4406 0.9461c-0.07036 0.261-0.3625 0.681-0.8812 1.183-0.5187 0.5023-1.22 1.076-1.911 1.772-1.383 1.391-2.733 3.486-2.194 6.359 0.4997 2.666 0.03737 3.957-0.6151 4.69-0.6492 0.7294-1.71 1.046-2.824 1.172-2.216 0.1616-4.5-8.35e-4 -5.307-0.5002-0.4056-0.2509-0.5104-0.3752-0.4921-0.9089 0.01835-0.5337 0.3523-1.534 1.302-2.935 0.9023-1.332 0.961-2.9 0.4578-4.193-0.5032-1.293-1.481-2.369-2.632-3.198-1.152-0.8291-2.491-1.415-3.848-1.615-1.357-0.1996-2.797 0.002503-3.888 0.9318a1.104 1.103 0 1 0 1.431 1.678c0.4734-0.4033 1.205-0.563 2.137-0.4259 0.932 0.1371 1.996 0.5854 2.878 1.22 0.882 0.635 1.568 1.453 1.863 2.209 0.2945 0.7567 0.29 1.393-0.226 2.155-1.074 1.586-1.638 2.879-1.679 4.096-0.04184 1.217 0.6286 2.3 1.536 2.861 1.816 1.123 4.303 1.004 6.658 0.8289a1.104 1.103 0 0 0 0.04005-0.005722c1.364-0.1513 3.043-0.5523 4.246-1.904 1.203-1.351 1.706-3.504 1.133-6.562-0.3932-2.098 0.4179-3.222 1.591-4.402 0.5864-0.59 1.264-1.141 1.883-1.741 0.6188-0.5992 1.225-1.259 1.476-2.192 0.3019-1.12-0.249-2.059-0.7668-2.792-0.5177-0.7337-1.118-1.402-1.508-2.015-0.3899-0.6134-0.536-1.071-0.4521-1.495 0.08394-0.4238 0.4493-1.055 1.714-1.884a1.104 1.103 0 0 0-0.6208-2.035zm-25.43 18.71a1.104 1.103 0 0 0-0.5922 0.1801c-2.255 1.43-4.082 2.885-5.339 4.424-1.257 1.54-1.97 3.257-1.671 5.002 0.3431 1.999 2.125 3.4 4.555 4.182 2.43 0.7819 5.659 1.047 9.562 0.7288 7.805-0.637 18.29-3.654 29.96-10.2a1.104 1.103 0 1 0-1.081-1.924c-11.43 6.412-21.66 9.323-29.06 9.926-3.699 0.3019-6.691 0.01676-8.706-0.6317-2.015-0.6484-2.902-1.56-3.056-2.455-0.1611-0.9393 0.1893-1.985 1.207-3.233s2.679-2.603 4.812-3.956a1.104 1.103 0 0 0-0.5922-2.044zm40.98-15.39a1.104 1.103 0 0 0-0.5293 0.1458l-3.087 1.778a1.104 1.103 0 0 0-0.05722 1.878l8.157 5.373-2.83 1.629-2.975-0.9975a1.104 1.103 0 0 0-0.9012 0.09146l-2.821 1.623a1.104 1.103 0 0 0-0.1287 1.824l4.229 3.304 0.7582 5.305a1.104 1.103 0 0 0 1.642 0.8003l2.821-1.623a1.104 1.103 0 0 0 0.5322-0.7345l0.6237-3.067 2.832-1.629 0.5865 9.732a1.104 1.103 0 0 0 1.654 0.8889l3.087-1.778a1.104 1.103 0 0 0 0.5436-0.7974l1.822-12.48 3.473-1.998c0.4486-0.2582 0.698-0.5611 1.004-0.9432s0.6094-0.834 0.8726-1.323c0.2632-0.4893 0.4901-1.01 0.6123-1.566 0.1222-0.5558 0.1705-1.203-0.1974-1.838-0.3678-0.6343-0.9532-0.9167-1.496-1.089-0.5431-0.1722-1.109-0.2368-1.665-0.2544-0.5564-0.0176-1.1 0.01545-1.585 0.08861-0.4849 0.07317-0.8728 0.1388-1.322 0.3973l-3.473 2.001-11.75-4.665a1.104 1.103 0 0 0-0.432-0.07716zm0.1116 2.324 11.75 4.665a1.104 1.103 0 0 0 0.9584-0.0686l3.937-2.267c-0.07966 0.04585 0.2055-0.07433 0.5465-0.1258 0.341-0.05145 0.7747-0.08166 1.187-0.0686 0.4126 0.01307 0.8087 0.0733 1.064 0.1543 0.2556 0.08104 0.3075 0.1798 0.2546 0.08861-0.05304-0.09148 0.00851 7.3e-5 -0.04863 0.2601-0.05716 0.26-0.2057 0.6324-0.4005 0.9946-0.1949 0.3623-0.4343 0.7205-0.6494 0.9889-0.2152 0.2684-0.4627 0.4572-0.3834 0.4116l-3.937 2.267a1.104 1.103 0 0 0-0.5407 0.7974l-1.825 12.48-1.081 0.6202-0.5865-9.735a1.104 1.103 0 0 0-1.654-0.8889l-4.809 2.77a1.104 1.103 0 0 0-0.5293 0.7374l-0.6237 3.067-0.9756 0.5602-0.5894-4.13a1.104 1.103 0 0 0-0.412-0.7145l-3.29-2.572 0.9727-0.5573 2.975 0.9946a1.104 1.103 0 0 0 0.9012-0.08861l4.809-2.77a1.104 1.103 0 0 0 0.05722-1.875l-8.157-5.373zm-17.85-6.185c-13.4 0-24.29 10.88-24.29 24.26 0 13.39 10.89 24.26 24.29 24.26 12.02 0 22.02-8.744 23.95-20.22a1.104 1.103 0 1 0-2.177-0.363c-1.751 10.43-10.82 18.38-21.77 18.38-12.21 0-22.08-9.864-22.08-22.06 0-12.2 9.874-22.06 22.08-22.06 3.788 0 7.345 0.9487 10.46 2.624a1.104 1.103 0 1 0 1.047-1.941c-3.424-1.843-7.346-2.89-11.5-2.89z" style="color-rendering:auto;color:#000000;fill:#000000;isolation:auto;mix-blend-mode:normal;shape-rendering:auto;solid-color:#000000"/>
</svg>
