<?xml version="1.0" encoding="UTF-8" standalone="no"?>
<svg
   xmlns:dc="http://purl.org/dc/elements/1.1/"
   xmlns:cc="http://creativecommons.org/ns#"
   xmlns:rdf="http://www.w3.org/1999/02/22-rdf-syntax-ns#"
   xmlns:svg="http://www.w3.org/2000/svg"
   xmlns="http://www.w3.org/2000/svg"
   xmlns:xlink="http://www.w3.org/1999/xlink"
   xmlns:sodipodi="http://sodipodi.sourceforge.net/DTD/sodipodi-0.dtd"
   xmlns:inkscape="http://www.inkscape.org/namespaces/inkscape"
   version="1.1"
   viewBox="0 0 104.3 71.15"
   id="svg37"
   sodipodi:docname="i61.svg"
   inkscape:version="0.92.2 (5c3e80d, 2017-08-06)">
  <metadata
     id="metadata41">
    <rdf:RDF>
      <cc:Work
         rdf:about="">
        <dc:format>image/svg+xml</dc:format>
        <dc:type
           rdf:resource="http://purl.org/dc/dcmitype/StillImage" />
        <dc:title></dc:title>
      </cc:Work>
    </rdf:RDF>
  </metadata>
  <sodipodi:namedview
     pagecolor="#ffffff"
     bordercolor="#666666"
     borderopacity="1"
     objecttolerance="10"
     gridtolerance="10"
     guidetolerance="10"
     inkscape:pageopacity="0"
     inkscape:pageshadow="2"
     inkscape:window-width="1694"
     inkscape:window-height="1002"
     id="namedview39"
     showgrid="false"
     inkscape:snap-global="false"
     inkscape:zoom="2.7229146"
     inkscape:cx="2.9380283"
     inkscape:cy="-25.565863"
     inkscape:window-x="0"
     inkscape:window-y="0"
     inkscape:window-maximized="0"
     inkscape:current-layer="svg37" />
  <defs
     id="defs25">
    <linearGradient
       id="linearGradient7728"
       x1="-1405"
       x2="-1405"
       y1="704.4"
       y2="781.4"
       gradientTransform="scale(.7835 1.276)"
       gradientUnits="userSpaceOnUse">
      <stop
         style="stop-color:#1c072d"
         offset="0"
         id="stop2" />
      <stop
         style="stop-color:#5700aa"
         offset=".29"
         id="stop4" />
      <stop
         style="stop-color:#4b127b"
         offset=".64"
         id="stop6" />
      <stop
         style="stop-color:#290a43"
         offset="1"
         id="stop8" />
    </linearGradient>
    <linearGradient
       id="linearGradient5554-7"
       x1="-167.5"
       x2="-150.2"
       y1="-249.2"
       y2="-249.2"
       gradientUnits="userSpaceOnUse"
       xlink:href="#linearGradient7728"
       gradientTransform="matrix(2.197,0,0,2.197,433.3,572.2)" />
    <linearGradient
       id="linearGradient5546-3"
       x1="-190.7"
       x2="-174.6"
       y1="-251.4"
       y2="-251.4"
       gradientUnits="userSpaceOnUse"
       xlink:href="#linearGradient7728"
       gradientTransform="matrix(2.197,0,0,2.197,433.3,572.2)" />
    <linearGradient
       id="linearGradient5538-4"
       x1="-177.4"
       x2="-162"
       y1="-234"
       y2="-234"
       gradientUnits="userSpaceOnUse"
       xlink:href="#linearGradient7728"
       gradientTransform="matrix(2.197,0,0,2.197,433.3,572.2)" />
    <linearGradient
       id="linearGradient5746"
       x1="-1195.9042"
       x2="-1174.9608"
       y1="-170.64891"
       y2="-151.63287"
       gradientTransform="matrix(2.858297,0,0,2.858297,3432.205,494.6459)"
       gradientUnits="userSpaceOnUse">
      <stop
         style="stop-color:#696969"
         offset="0"
         id="stop14" />
      <stop
         style="stop-color:#c7c7c9"
         offset="0.26716754"
         id="stop16" />
      <stop
         style="stop-color:#f9f9ff"
         offset="0.54050773"
         id="stop18" />
      <stop
         style="stop-color:#ccccce"
         offset="1"
         id="stop20" />
      <stop
         style="stop-color:#696969"
         offset="1"
         id="stop22" />
    </linearGradient>
    <linearGradient
       gradientTransform="matrix(2.197,0,0,2.197,318.12437,560.32732)"
       id="linearGradient5538-4-0"
       x1="-177.39999"
       x2="-162"
       y1="-234"
       y2="-234"
       gradientUnits="userSpaceOnUse"
       xlink:href="#linearGradient7728" />
  </defs>
  <path
     inkscape:connector-curvature="0"
     id="path27"
     style="fill:url(#linearGradient5554-7);stroke-width:0.8278296"
     d="m 86.8331,42.9427 4.633473,-2.669355 2.851706,-19.529133 5.903341,-3.403153 c 1.10773,-0.638228 3.77444,-4.618094 2.82973,-6.248268 C 102.10664,9.4619579 97.319381,9.7739319 96.212093,10.41216 L 90.308754,13.815313 71.939637,6.5168794 67.306164,9.1862344 81.78,18.730002 l -7.212751,4.156724 -5.171738,-1.731016 -4.229225,2.436473 6.867822,5.373862 1.228562,8.623225 4.229225,-2.436473 1.08444,-5.336513 7.212751,-4.156724 z" />
  <path
     inkscape:connector-curvature="0"
     id="path29"
     style="fill:url(#linearGradient5546-3);stroke-width:0.8278296"
     d="M 49.4841,14.8211 C 50.450341,11.233399 40.239124,7.094251 48.65627,1.575387 L 48.531261,0.9088172 c -1.051484,-0.0960089 -2.111097,-0.1614795 -3.18565,-0.1614795 -13.51155,0 -25.22156,7.71147 -30.9777,18.9710953 l 0.338558,0.07118 c 4.690595,-4.000736 16.673033,3.649217 12.417444,9.934834 -6.070311,8.968154 1.409156,9.618466 8.278296,9.106565 3.726112,-0.413914 8.232159,-2.168219 6.623955,-10.763103 -1.397512,-7.463208 6.485544,-9.658012 7.450027,-13.245712 z" />
  <path
     inkscape:connector-curvature="0"
     id="path31"
     style="fill:url(#linearGradient5538-4);stroke:#290a43;stroke-width:0.8278296"
     d="m 76.7269,50.4125 c -3.897478,4.224831 -7.283055,1.961262 -9.853545,-1.738486 -2.588066,-3.726112 -7.243509,-4.139148 -9.934834,1.655659 -2.691325,5.795686 -5.483712,0.413915 -10.763103,8.278296 -5.07507,7.564271 -0.389968,11.299171 -0.02483,11.571599 13.493974,-0.30714 25.08974,-8.295872 30.58224,-19.768606 z" />
  <path
     style="color:#000000;font-style:normal;font-variant:normal;font-weight:normal;font-stretch:normal;font-size:medium;line-height:normal;font-family:sans-serif;font-variant-ligatures:normal;font-variant-position:normal;font-variant-caps:normal;font-variant-numeric:normal;font-variant-alternates:normal;font-feature-settings:normal;text-indent:0;text-align:start;text-decoration:none;text-decoration-line:none;text-decoration-style:solid;text-decoration-color:#000000;letter-spacing:normal;word-spacing:normal;text-transform:none;writing-mode:lr-tb;direction:ltr;text-orientation:mixed;dominant-baseline:auto;baseline-shift:baseline;text-anchor:start;white-space:normal;shape-padding:0;clip-rule:nonzero;display:inline;overflow:visible;visibility:visible;opacity:1;isolation:auto;mix-blend-mode:normal;color-interpolation:sRGB;color-interpolation-filters:linearRGB;solid-color:#000000;solid-opacity:1;vector-effect:none;fill:url(#linearGradient5746);fill-opacity:1;fill-rule:nonzero;stroke:none;stroke-width:1.61127973;stroke-linecap:round;stroke-linejoin:round;stroke-miterlimit:10;stroke-dasharray:none;stroke-dashoffset:0;stroke-opacity:1;color-rendering:auto;image-rendering:auto;shape-rendering:auto;text-rendering:auto;enable-background:accumulate"
     d="m 45.359375,-0.16992188 c -17.367384,0 -31.79133,12.46990888 -34.914063,28.93164088 a 0.80572043,0.80572043 0 0 0 -0.365234,0.126953 c -3.3353499,2.117435 -6.0115323,4.265939 -7.8046874,6.464844 -1.79315504,2.198904 -2.72379173,4.515428 -2.32812497,6.824218 0.4427687,2.576524 2.77065167,4.488971 6.25585937,5.611328 1.7681368,0.569402 3.874969,0.945101 6.263672,1.125 5.324765,12.947715 18.035295,22.083985 32.892578,22.083985 0.191362,0 0.369899,-0.04777 0.560547,-0.05078 a 0.80572043,0.80572043 0 0 0 0.685547,-0.0625 c 13.4908,-0.473911 24.991209,-8.434578 30.607422,-19.882813 0.06723,-0.0707 0.138131,-0.07249 0.205078,-0.146484 a 0.80572043,0.80572043 0 0 0 0.197265,-0.720703 c 1.270775,-2.777628 2.312853,-5.681065 2.833985,-8.78711 a 0.80572043,0.80572043 0 1 0 -1.587891,-0.267578 c -0.532137,3.171638 -1.614974,6.132591 -2.960937,8.941406 -1.674527,1.701133 -3.043045,2.09748 -4.322266,1.720704 -1.36786,-0.402884 -2.786107,-1.751161 -4.029297,-3.541016 -1.415191,-2.03677 -3.489992,-3.270439 -5.660156,-3.085938 -2.170165,0.184502 -4.244475,1.795877 -5.667969,4.861328 -0.630337,1.357411 -1.195771,1.944383 -1.757812,2.28125 -0.562042,0.336868 -1.216333,0.445832 -2.091797,0.632813 -1.750929,0.373963 -4.128931,1.196029 -6.851563,5.253906 -2.740618,4.084686 -2.813458,7.305658 -2.072265,9.457031 0.258181,0.749392 0.633976,1.200703 0.986328,1.691407 C 30.869028,68.921652 19.296231,60.67726 14.195312,48.900391 c 1.897385,0.06782 3.810723,0.127875 6.021485,-0.05273 11.550739,-0.943644 27.187474,-5.432291 44.587891,-15.208984 a 0.8062505,0.8062505 0 1 0 -0.789063,-1.40625 c -17.224304,9.677742 -32.675567,14.088401 -43.929687,15.007812 -2.383235,0.1947 -4.466542,0.154798 -6.447266,0.05469 -1.390138,-3.710411 -2.251953,-7.682853 -2.251953,-11.88086 0,-5.396253 1.370534,-10.42774 3.605469,-14.957031 a 0.80572043,0.80572043 0 0 0 0.265624,-0.154297 c 0.94737,-0.808037 2.315749,-1.065885 3.876954,-0.835937 1.561204,0.229948 3.266835,0.958152 4.693359,1.986328 1.426524,1.028176 2.565742,2.354522 3.087891,3.697266 0.522148,1.342744 0.492772,2.660235 -0.429688,4.023437 -1.563152,2.309425 -2.31734,4.137551 -2.371094,5.701172 -0.05375,1.563621 0.732361,2.819741 1.900391,3.542969 2.33606,1.446455 5.994766,1.376512 9.476563,1.117187 a 0.80572043,0.80572043 0 0 0 0.0293,-0.0039 c 1.95156,-0.217479 4.232048,-0.787816 5.824219,-2.578125 1.592171,-1.790309 2.333469,-4.692005 1.501953,-9.132813 -0.645598,-3.448263 0.779413,-5.508471 2.619141,-7.361328 0.919864,-0.926428 1.942622,-1.762704 2.832031,-2.625 0.889409,-0.862296 1.676661,-1.759787 1.984375,-2.902343 0.344334,-1.278532 -0.29144,-2.441903 -1.023437,-3.480469 -0.731998,-1.038566 -1.642539,-2.0526775 -2.28125,-3.0585939 -0.638712,-1.0059163 -0.982072,-1.9312256 -0.796875,-2.8671875 0.185196,-0.9359619 0.934404,-2.0615635 2.9375,-3.375 a 0.80572043,0.80572043 0 0 0 0.339843,-0.453125 c 4.29335,0.5167286 8.342748,1.8234804 11.990235,3.7871094 A 0.80612858,0.80612858 0 1 0 62.212891,4.0644531 C 57.195509,1.3633396 51.452784,-0.16992188 45.359375,-0.16992188 Z m 0,1.61132808 c 0.674972,0 1.327074,0.0862 1.992187,0.125 -1.516225,1.1982138 -2.504337,2.404932 -2.75,3.6464844 -0.297676,1.5044246 0.274511,2.8757775 1.015626,4.0429688 0.741114,1.1671916 1.676472,2.2040176 2.324218,3.1230466 0.647746,0.91903 0.925895,1.619447 0.78711,2.134766 -0.175407,0.651294 -0.736352,1.372567 -1.552735,2.164062 -0.816383,0.791496 -1.856991,1.642849 -2.853515,2.646485 -1.993049,2.007272 -3.810288,4.77607 -3.058594,8.791015 a 0.80572043,0.80572043 0 0 0 0,0.002 c 0.777786,4.153856 0.06951,6.424903 -1.121094,7.763671 -1.188819,1.336762 -3.020896,1.848475 -4.792969,2.046875 -3.381376,0.250096 -6.886666,0.109629 -8.486328,-0.880859 -0.80158,-0.496327 -1.17527,-1.052592 -1.138672,-2.117187 0.0366,-1.064596 0.6237,-2.678754 2.095703,-4.853516 1.204236,-1.779607 1.272118,-3.775337 0.597657,-5.509766 -0.674462,-1.734429 -2.025251,-3.249999 -3.648438,-4.419922 -1.623187,-1.169922 -3.527035,-1.997801 -5.398437,-2.273437 -1.065865,-0.15699 -2.108753,-0.06036 -3.091797,0.210937 C 22.206463,8.1550758 32.945506,1.4414062 45.359375,1.4414062 Z m 26.630859,4.1972657 a 0.80572043,0.80572043 0 0 0 -0.384765,0.1074219 l -4.634766,2.6699218 a 0.80572043,0.80572043 0 0 0 -0.04102,1.3710938 l 13.384765,8.8242186 -5.767578,3.324219 -4.828125,-1.617188 a 0.80572043,0.80572043 0 0 0 -0.658203,0.06641 l -4.228516,2.4375 a 0.80572043,0.80572043 0 0 0 -0.09375,1.332031 l 6.611328,5.173828 1.183594,8.302734 a 0.80572043,0.80572043 0 0 0 1.199219,0.583985 l 4.228516,-2.435547 a 0.80572043,0.80572043 0 0 0 0.388671,-0.539063 l 1.011719,-4.980468 5.769531,-3.324219 0.964844,15.982422 a 0.80572043,0.80572043 0 0 0 1.207031,0.65039 l 4.632813,-2.669921 a 0.80572043,0.80572043 0 0 0 0.396484,-0.582032 l 2.794922,-19.142578 5.564457,-3.207031 c 0.4696,-0.270567 0.84526,-0.681078 1.26953,-1.210938 0.42426,-0.529859 0.85419,-1.171765 1.22265,-1.857421 0.36847,-0.685657 0.6758,-1.410479 0.83399,-2.13086 0.15819,-0.720381 0.18875,-1.477537 -0.20117,-2.15039 -0.3897,-0.6727187 -1.06178,-1.0246378 -1.76563,-1.2480474 C 101.34693,9.145731 100.56426,9.0481417 99.785156,9.0234375 99.006049,8.9987333 98.234293,9.048944 97.5625,9.1503906 96.890707,9.2518372 96.346776,9.3717776 95.876953,9.6425781 L 90.3125,12.849609 72.304688,5.6953125 a 0.80572043,0.80572043 0 0 0 -0.314454,-0.056641 z m 0.08203,1.6992187 18.005859,7.1542974 a 0.80572043,0.80572043 0 0 0 0.701172,-0.05078 l 5.902344,-3.404297 c 0.08382,-0.04831 0.554328,-0.207382 1.121093,-0.292968 0.566766,-0.08559 1.257434,-0.130753 1.931641,-0.109375 0.674205,0.02138 1.336015,0.112708 1.830075,0.269531 0.49407,0.156822 0.77476,0.376833 0.85743,0.519531 0.0824,0.142234 0.13221,0.493772 0.0215,0.998047 -0.11074,0.504275 -0.36109,1.12003 -0.67969,1.712891 -0.31859,0.59286 -0.70278,1.166471 -1.06055,1.613281 -0.35776,0.44681 -0.732142,0.773718 -0.816401,0.822265 l -5.902344,3.404297 a 0.80572043,0.80572043 0 0 0 -0.396484,0.580079 l -2.794922,19.142578 -3.166016,1.824218 -0.966797,-15.982422 a 0.80572043,0.80572043 0 0 0 -1.205078,-0.65039 l -7.21289,4.15625 a 0.80572043,0.80572043 0 0 0 -0.386719,0.539062 l -1.013672,4.980469 -2.882813,1.660156 -1.060546,-7.445312 a 0.80572043,0.80572043 0 0 0 -0.300782,-0.519531 l -5.925781,-4.638672 2.878906,-1.658203 4.828125,1.615234 a 0.80572043,0.80572043 0 0 0 0.658203,-0.06641 L 82.25,19.355469 a 0.80572043,0.80572043 0 0 0 0.04102,-1.371094 L 68.908203,9.1601562 Z M 10.246094,30.748047 c -0.204359,1.542491 -0.4707034,3.067872 -0.4707034,4.666015 0,4.155839 0.8491354,8.084734 2.1601564,11.792969 C 9.9512247,47.016548 8.1401369,46.720514 6.6972656,46.255859 3.5145783,45.230924 1.8393675,43.676491 1.5351562,41.90625 1.2403059,40.185742 1.9044867,38.356376 3.5234375,36.371094 5.0117731,34.545982 7.3654232,32.644379 10.246094,30.748047 Z m 51.779297,15.972656 c 1.477404,-0.125605 3.026344,0.710414 4.199218,2.398438 1.344877,1.936256 2.929055,3.587914 4.898438,4.167968 1.000426,0.294662 2.068211,0.241574 3.152344,-0.167968 -5.797472,9.449133 -16.050258,15.807169 -27.869141,16.171875 -0.299249,-0.249436 -0.971853,-0.868934 -1.435547,-2.214844 -0.578105,-1.677998 -0.649857,-4.252629 1.886719,-8.033203 2.554562,-3.807383 4.213069,-4.226223 5.851562,-4.576172 0.819247,-0.174975 1.698241,-0.298413 2.582032,-0.828125 0.88379,-0.529712 1.675299,-1.443943 2.390625,-2.984375 1.26783,-2.730235 2.866345,-3.807989 4.34375,-3.933594 z"
     id="path33"
     inkscape:connector-curvature="0" />
</svg>
