<svg version="1.1" viewBox="0 0 75 51.19" xmlns="http://www.w3.org/2000/svg" xmlns:xlink="http://www.w3.org/1999/xlink">
 <defs>
  <linearGradient id="linearGradient7728" x1="-1405" x2="-1405" y1="704.4" y2="781.4" gradientTransform="scale(.7835 1.276)" gradientUnits="userSpaceOnUse">
   <stop style="stop-color:#1c072d" offset="0"/>
   <stop style="stop-color:#5700aa" offset=".29"/>
   <stop style="stop-color:#4b127b" offset=".64"/>
   <stop style="stop-color:#290a43" offset="1"/>
  </linearGradient>
  <linearGradient id="linearGradient5554-7" x1="-167.5" x2="-150.2" y1="-249.2" y2="-249.2" gradientTransform="matrix(1.58 0 0 1.58 311.8 411.7)" gradientUnits="userSpaceOnUse" xlink:href="#linearGradient7728"/>
  <linearGradient id="linearGradient5546-3" x1="-190.7" x2="-174.6" y1="-251.4" y2="-251.4" gradientTransform="matrix(1.58 0 0 1.58 311.8 411.7)" gradientUnits="userSpaceOnUse" xlink:href="#linearGradient7728"/>
  <linearGradient id="linearGradient5538-4" x1="-177.4" x2="-162" y1="-234" y2="-234" gradientTransform="matrix(1.58 0 0 1.58 311.8 411.7)" gradientUnits="userSpaceOnUse" xlink:href="#linearGradient7728"/>
  <linearGradient id="linearGradient5746" x1="-1196" x2="-1175" y1="-170.6" y2="-151.6" gradientTransform="matrix(2.056 0 0 2.056 2469 355.9)" gradientUnits="userSpaceOnUse">
   <stop style="stop-color:#696969" offset="0"/>
   <stop style="stop-color:#c7c7c9" offset=".2672"/>
   <stop style="stop-color:#f9f9ff" offset=".5405"/>
   <stop style="stop-color:#ccccce" offset="1"/>
   <stop style="stop-color:#696969" offset="1"/>
  </linearGradient>
 </defs>
 <path d="m62.56 31.01 3.333-1.92 2.051-14.05 4.246-2.448c0.7968-0.4591 2.715-3.322 2.035-4.494-0.6795-1.173-4.123-0.9486-4.919-0.4896l-4.246 2.448-13.21-5.25-3.333 1.92 10.41 6.865-5.188 2.99-3.72-1.245-3.042 1.753 4.94 3.865 0.8837 6.203 3.042-1.753 0.78-3.838 5.188-2.99z" style="fill:url(#linearGradient5554-7);stroke-width:.5954"/>
 <path d="m35.7 10.78c0.695-2.581-6.65-5.558-0.5954-9.527l-0.08992-0.4795c-0.7563-0.06906-1.518-0.1162-2.291-0.1162-9.719 0-18.14 5.547-22.28 13.65l0.2435 0.0512c3.374-2.878 11.99 2.625 8.932 7.146-4.366 6.451 1.014 6.918 5.954 6.55 2.68-0.2977 5.921-1.56 4.764-7.742-1.005-5.368 4.665-6.947 5.359-9.527z" style="fill:url(#linearGradient5546-3);stroke-width:.5954"/>
 <path d="m55.29 36.38c-2.803 3.039-5.239 1.411-7.087-1.25-1.862-2.68-5.21-2.977-7.146 1.191-1.936 4.169-3.944 0.2977-7.742 5.954-3.65 5.441-0.2805 8.127-0.01786 8.323 9.706-0.2209 18.05-5.967 22-14.22z" style="fill:url(#linearGradient5538-4);stroke-width:.5954;stroke:#290a43"/>
 <path d="m32.73 0c-12.49 0-22.87 8.969-25.11 20.81a0.5795 0.5795 0 0 0-0.2627 0.09132c-2.399 1.523-4.324 3.068-5.614 4.65-1.29 1.582-1.959 3.248-1.675 4.909 0.3185 1.853 1.993 3.229 4.5 4.036 1.272 0.4096 2.787 0.6798 4.505 0.8092 3.83 9.313 12.97 15.88 23.66 15.88 0.1376 0 0.2661-0.03436 0.4032-0.03652a0.5795 0.5795 0 0 0 0.4931-0.04496c9.704-0.3409 17.98-6.067 22.02-14.3 0.04836-0.05085 0.09936-0.05214 0.1475-0.1054a0.5795 0.5795 0 0 0 0.1419-0.5184c0.914-1.998 1.664-4.086 2.038-6.32a0.5795 0.5795 0 1 0-1.142-0.1925c-0.3828 2.281-1.162 4.411-2.13 6.431-1.204 1.224-2.189 1.509-3.109 1.238-0.9839-0.2898-2.004-1.26-2.898-2.547-1.018-1.465-2.51-2.352-4.071-2.22s-3.053 1.292-4.077 3.497c-0.4534 0.9764-0.8601 1.399-1.264 1.641-0.4043 0.2423-0.8749 0.3207-1.505 0.4552-1.259 0.269-2.97 0.8603-4.928 3.779-1.971 2.938-2.024 5.255-1.491 6.802 0.1857 0.539 0.456 0.8636 0.7094 1.217-9.757-0.2671-18.08-6.197-21.75-14.67 1.365 0.04878 2.741 0.09198 4.331-0.03793 8.308-0.6787 19.56-3.907 32.07-10.94a0.5799 0.5799 0 1 0-0.5676-1.011c-12.39 6.961-23.5 10.13-31.6 10.79-1.714 0.14-3.213 0.1113-4.637 0.03934-0.9999-2.669-1.62-5.526-1.62-8.546 0-3.881 0.9858-7.5 2.593-10.76a0.5795 0.5795 0 0 0 0.1911-0.111c0.6814-0.5812 1.666-0.7667 2.789-0.6013 1.123 0.1654 2.35 0.6892 3.376 1.429 1.026 0.7396 1.845 1.694 2.221 2.659 0.3756 0.9658 0.3544 1.913-0.3091 2.894-1.124 1.661-1.667 2.976-1.705 4.101-0.03866 1.125 0.5268 2.028 1.367 2.548 1.68 1.04 4.312 0.9901 6.816 0.8036a0.5795 0.5795 0 0 0 0.02108-0.002806c1.404-0.1564 3.044-0.5667 4.189-1.854 1.145-1.288 1.678-3.375 1.08-6.569-0.4644-2.48 0.5606-3.962 1.884-5.295 0.6616-0.6664 1.397-1.268 2.037-1.888 0.6397-0.6202 1.206-1.266 1.427-2.088 0.2477-0.9196-0.2096-1.756-0.7361-2.503-0.5265-0.747-1.181-1.476-1.641-2.2-0.4594-0.7235-0.7064-1.389-0.5732-2.062 0.1332-0.6732 0.6721-1.483 2.113-2.428a0.5795 0.5795 0 0 0 0.2444-0.3259c3.088 0.3717 6.001 1.312 8.624 2.724a0.5798 0.5798 0 1 0 0.5493-1.021c-3.609-1.943-7.74-3.046-12.12-3.046zm0 1.159c0.4855 0 0.9545 0.062 1.433 0.08991-1.091 0.8619-1.801 1.73-1.978 2.623-0.2141 1.082 0.1975 2.068 0.7305 2.908s1.206 1.585 1.672 2.246c0.4659 0.661 0.666 1.165 0.5662 1.536-0.1262 0.4685-0.5296 0.9873-1.117 1.557-0.5872 0.5693-1.336 1.182-2.052 1.904-1.434 1.444-2.741 3.435-2.2 6.323a0.5795 0.5795 0 0 0 0 0.001439c0.5594 2.988 0.05 4.621-0.8064 5.584-0.8551 0.9615-2.173 1.33-3.448 1.472-2.432 0.1799-4.953 0.07886-6.104-0.6336-0.5766-0.357-0.8454-0.7571-0.819-1.523 0.02633-0.7657 0.4486-1.927 1.507-3.491 0.8662-1.28 0.915-2.716 0.4299-3.963-0.4851-1.248-1.457-2.338-2.624-3.179-1.168-0.8415-2.537-1.437-3.883-1.635-0.7667-0.1129-1.517-0.04342-2.224 0.1517 4.263-7.142 11.99-11.97 20.92-11.97zm19.16 3.019a0.5795 0.5795 0 0 0-0.2768 0.07727l-3.334 1.92a0.5795 0.5795 0 0 0-0.0295 0.9862l9.627 6.347-4.149 2.391-3.473-1.163a0.5795 0.5795 0 0 0-0.4734 0.04777l-3.041 1.753a0.5795 0.5795 0 0 0-0.06743 0.9581l4.755 3.721 0.8513 5.972a0.5795 0.5795 0 0 0 0.8626 0.4201l3.041-1.752a0.5795 0.5795 0 0 0 0.2796-0.3877l0.7277-3.582 4.15-2.391 0.694 11.5a0.5795 0.5795 0 0 0 0.8682 0.4678l3.332-1.92a0.5795 0.5795 0 0 0 0.2852-0.4186l2.01-13.77 4.002-2.307c0.3378-0.1946 0.608-0.4899 0.9132-0.871 0.3052-0.3811 0.6144-0.8428 0.8794-1.336 0.265-0.4932 0.4861-1.015 0.5999-1.533 0.1138-0.5182 0.1358-1.063-0.1447-1.547-0.2803-0.4839-0.7637-0.737-1.27-0.8977-0.5063-0.1607-1.069-0.2309-1.63-0.2487-0.5604-0.01777-1.116 0.01835-1.599 0.09132-0.4832 0.07297-0.8744 0.1592-1.212 0.354l-4.002 2.307-12.95-5.146a0.5795 0.5795 0 0 0-0.2262-0.04074zm0.059 1.222 12.95 5.146a0.5795 0.5795 0 0 0 0.5043-0.03653l4.245-2.449c0.06029-0.03475 0.3987-0.1492 0.8064-0.2107 0.4077-0.06156 0.9045-0.09405 1.389-0.07867 0.4849 0.01538 0.961 0.08107 1.316 0.1939 0.3554 0.1128 0.5573 0.271 0.6167 0.3737 0.05927 0.1023 0.0951 0.3552 0.01546 0.7179-0.07965 0.3627-0.2597 0.8056-0.4889 1.232-0.2292 0.4264-0.5055 0.839-0.7628 1.16-0.2573 0.3214-0.5266 0.5565-0.5872 0.5914l-4.245 2.449a0.5795 0.5795 0 0 0-0.2852 0.4172l-2.01 13.77-2.277 1.312-0.6954-11.5a0.5795 0.5795 0 0 0-0.8668-0.4678l-5.188 2.99a0.5795 0.5795 0 0 0-0.2782 0.3877l-0.7291 3.582-2.074 1.194-0.7628-5.355a0.5795 0.5795 0 0 0-0.2163-0.3737l-4.262-3.337 2.071-1.193 3.473 1.162a0.5795 0.5795 0 0 0 0.4734-0.04777l5.188-2.99a0.5795 0.5795 0 0 0 0.0295-0.9862l-9.626-6.347zm-44.47 16.84c-0.147 1.109-0.3386 2.207-0.3386 3.356 0 2.989 0.6108 5.815 1.554 8.482-1.427-0.137-2.73-0.3499-3.768-0.6842-2.289-0.7372-3.494-1.855-3.713-3.129-0.2121-1.238 0.2657-2.553 1.43-3.981 1.071-1.313 2.763-2.681 4.835-4.045zm37.24 11.49c1.063-0.09034 2.177 0.511 3.02 1.725 0.9673 1.393 2.107 2.581 3.523 2.998 0.7196 0.2119 1.488 0.1738 2.267-0.1208-4.17 6.797-11.54 11.37-20.05 11.63-0.2152-0.1794-0.699-0.625-1.033-1.593-0.4158-1.207-0.4674-3.059 1.357-5.778 1.837-2.739 3.03-3.04 4.209-3.292 0.5893-0.1259 1.222-0.2146 1.857-0.5957 0.6357-0.381 1.205-1.039 1.72-2.147 0.9119-1.964 2.062-2.739 3.124-2.829z" style="color-rendering:auto;color:#000000;fill:url(#linearGradient5746);isolation:auto;mix-blend-mode:normal;shape-rendering:auto;solid-color:#000000"/>
</svg>
