<?xml version="1.0" encoding="UTF-8" standalone="no"?>
<svg xmlns:dc="http://purl.org/dc/elements/1.1/" xmlns:cc="http://creativecommons.org/ns#" xmlns:rdf="http://www.w3.org/1999/02/22-rdf-syntax-ns#" xmlns:svg="http://www.w3.org/2000/svg" xmlns="http://www.w3.org/2000/svg" xmlns:sodipodi="http://sodipodi.sourceforge.net/DTD/sodipodi-0.dtd" xmlns:inkscape="http://www.inkscape.org/namespaces/inkscape" version="1.1" viewBox="0 0 104.3 71.15" id="svg21" sodipodi:docname="i62.svg" inkscape:version="0.92.2 (5c3e80d, 2017-08-06)">
  <metadata id="metadata25">
    <rdf:RDF>
      <cc:Work rdf:about="">
        <dc:format>image/svg+xml</dc:format>
        <dc:type rdf:resource="http://purl.org/dc/dcmitype/StillImage" />
        <dc:title></dc:title>
      </cc:Work>
    </rdf:RDF>
  </metadata>
  <sodipodi:namedview pagecolor="#ffffff" bordercolor="#666666" borderopacity="1" objecttolerance="10" gridtolerance="10" guidetolerance="10" inkscape:pageopacity="0" inkscape:pageshadow="2" inkscape:window-width="2560" inkscape:window-height="1001" id="namedview23" showgrid="false" inkscape:zoom="6.633872" inkscape:cx="94.4859" inkscape:cy="29.549646" inkscape:window-x="-9" inkscape:window-y="41" inkscape:window-maximized="1" inkscape:current-layer="svg21" />
  <defs id="defs13">
    <linearGradient id="linearGradient5538-4-8" x1="-1197.2771" x2="-1168.7084" y1="-170.25351" y2="-149.25572" gradientTransform="matrix(2.858297,0,0,2.858297,3432.205,494.6459)" gradientUnits="userSpaceOnUse">
      <stop style="stop-color:#696969" offset="0" id="stop2" />
      <stop style="stop-color:#c7c7c9" offset=".17" id="stop4" />
      <stop style="stop-color:#f9f9ff" offset=".36" id="stop6" />
      <stop style="stop-color:#ccccce" offset=".73" id="stop8" />
      <stop style="stop-color:#696969" offset="1" id="stop10" />
    </linearGradient>
  </defs>
  <path inkscape:connector-curvature="0" id="path15" style="fill:url(#linearGradient5538-4-8);stroke-width:2.19700003" d="M 76.7269,50.4125 C 72.829422,54.637331 69.443845,52.373762 66.873355,48.674014 64.285289,44.947902 59.629846,44.534866 56.938521,50.329673 54.247196,56.125359 51.454809,50.743588 46.175418,58.607969 41.100348,66.17224 45.785451,69.90714 46.150592,70.179568 59.644566,69.872428 71.240332,61.883696 76.732832,50.410962 Z M 49.4841,14.73322 C 50.450341,11.145519 40.239124,7.006371 48.65627,1.487507 L 48.531261,0.8209372 C 47.479777,0.7249283 46.420164,0.6594577 45.345611,0.6594577 31.834061,0.6594577 20.124051,8.3709277 14.367911,19.630553 L 14.706469,19.701736 C 19.397064,15.700999 31.379502,23.350953 27.123913,29.63657 21.053602,38.604723 28.533069,39.255036 35.402209,38.743134 39.128321,38.32922 43.634368,36.574915 42.026164,27.980031 40.628652,20.516823 48.511708,18.32202 49.476191,14.734319 Z M 86.87704,42.87679 91.510513,40.207435 94.362219,20.678302 100.26556,17.275149 C 101.37329,16.63692 104.04,12.657055 103.09529,11.026881 102.15058,9.3960479 97.363321,9.7080219 96.256033,10.34625 L 90.352694,13.749403 71.983577,6.4509694 67.350104,9.1203244 81.82394,18.664092 74.611189,22.820816 69.439451,21.0898 65.210226,23.526273 72.078048,28.900135 73.30661,37.52336 77.535835,35.086887 78.620275,29.750374 85.833026,25.59365 Z" />
  <path style="color:#000000;clip-rule:nonzero;display:inline;visibility:visible;opacity:1;isolation:auto;mix-blend-mode:normal;color-interpolation:sRGB;solid-color:#000000;solid-opacity:1;fill:#000000;fill-opacity:1;fill-rule:nonzero;stroke:none;stroke-width:1.61127973;stroke-linecap:round;stroke-linejoin:round;stroke-miterlimit:10;stroke-dasharray:none;stroke-dashoffset:0;stroke-opacity:1;color-rendering:auto;shape-rendering:auto" d="M 45.359375,-0.16992188 C 27.991991,-0.16992188 13.568045,12.299987 10.445312,28.761719 A 0.80572043,0.80572043 0 0 0 10.080078,28.888672 C 6.7447281,31.006107 4.0685457,33.154611 2.2753906,35.353516 0.48223556,37.55242 -0.44840113,39.868944 -0.05273437,42.177734 0.39003433,44.754258 2.7179173,46.666705 6.203125,47.789062 7.9712618,48.358464 10.078094,48.734163 12.466797,48.914062 17.791562,61.861777 30.502092,70.998047 45.359375,70.998047 45.550737,70.998047 45.729274,70.950278 45.919922,70.947266 A 0.80572043,0.80572043 0 0 0 46.605469,70.884766 C 60.096269,70.410855 71.596678,62.450188 77.212891,51.001953 77.280122,50.931251 77.351022,50.929462 77.417969,50.855469 A 0.80572043,0.80572043 0 0 0 77.615234,50.134766 C 78.886009,47.357138 79.928087,44.453701 80.449219,41.347656 A 0.80572043,0.80572043 0 1 0 78.861328,41.080078 C 78.329191,44.251716 77.246354,47.212669 75.900391,50.021484 74.225864,51.722617 72.857346,52.118964 71.578125,51.742188 70.210265,51.339304 68.792018,49.991027 67.548828,48.201172 66.133637,46.164402 64.058836,44.930733 61.888672,45.115234 59.718507,45.299736 57.644197,46.911111 56.220703,49.976562 55.590366,51.333973 55.024932,51.920945 54.462891,52.257812 53.900849,52.59468 53.246558,52.703644 52.371094,52.890625 50.620165,53.264588 48.242163,54.086654 45.519531,58.144531 42.778913,62.229217 42.706073,65.450189 43.447266,67.601562 43.705447,68.350954 44.081242,68.802265 44.433594,69.292969 30.869028,68.921652 19.296231,60.67726 14.195312,48.900391 16.092697,48.968216 18.006035,49.028266 20.216797,48.847656 31.767536,47.904012 47.404271,43.415365 64.804688,33.638672 A 0.8062505,0.8062505 0 1 0 64.015625,32.232422 C 46.791321,41.910164 31.340058,46.320823 20.085938,47.240234 17.702703,47.434934 15.619396,47.395032 13.638672,47.294922 12.248534,43.584511 11.386719,39.612069 11.386719,35.414062 11.386719,30.017809 12.757253,24.986322 14.992188,20.457031 A 0.80572043,0.80572043 0 0 0 15.257812,20.302734 C 16.205182,19.494697 17.573561,19.236849 19.134766,19.466797 20.69597,19.696745 22.401601,20.424949 23.828125,21.453125 25.254649,22.481301 26.393867,23.807647 26.916016,25.150391 27.438164,26.493135 27.408788,27.810626 26.486328,29.173828 24.923176,31.483253 24.168988,33.311379 24.115234,34.875 24.061481,36.438621 24.847595,37.694741 26.015625,38.417969 28.351685,39.864424 32.010391,39.794481 35.492188,39.535156 A 0.80572043,0.80572043 0 0 0 35.521484,39.53125 C 37.473044,39.313771 39.753532,38.743434 41.345703,36.953125 42.937874,35.162816 43.679172,32.26112 42.847656,27.820312 42.202058,24.372049 43.627069,22.311841 45.466797,20.458984 46.386661,19.532556 47.409419,18.69628 48.298828,17.833984 49.188237,16.971688 49.975489,16.074197 50.283203,14.931641 50.627537,13.653109 49.991763,12.489738 49.259766,11.451172 48.527768,10.412606 47.617227,9.3984945 46.978516,8.3925781 46.339804,7.3866618 45.996444,6.4613525 46.181641,5.5253906 46.366837,4.5894287 47.116045,3.4638271 49.119141,2.1503906 A 0.80572043,0.80572043 0 0 0 49.458984,1.6972656 C 53.752334,2.2139942 57.801732,3.520746 61.449219,5.484375 A 0.80612858,0.80612858 0 1 0 62.212891,4.0644531 C 57.195509,1.3633396 51.452784,-0.16992188 45.359375,-0.16992188 Z M 45.359375,1.4414062 C 46.034347,1.4414062 46.686449,1.5276065 47.351562,1.5664062 45.835337,2.76462 44.847225,3.9713382 44.601562,5.2128906 44.303886,6.7173152 44.876073,8.0886681 45.617188,9.2558594 46.358302,10.423051 47.29366,11.459877 47.941406,12.378906 48.589152,13.297936 48.867301,13.998353 48.728516,14.513672 48.553109,15.164966 47.992164,15.886239 47.175781,16.677734 46.359398,17.46923 45.31879,18.320583 44.322266,19.324219 42.329217,21.331491 40.511978,24.100289 41.263672,28.115234 A 0.80572043,0.80572043 0 0 0 41.263672,28.117188 C 42.041458,32.271044 41.333182,34.542091 40.142578,35.880859 38.953759,37.217621 37.121682,37.729334 35.349609,37.927734 31.968233,38.17783 28.462943,38.037363 26.863281,37.046875 26.061701,36.550548 25.688011,35.994283 25.724609,34.929688 25.761208,33.865092 26.348309,32.250934 27.820312,30.076172 29.024548,28.296565 29.09243,26.300835 28.417969,24.566406 27.743507,22.831977 26.392718,21.316407 24.769531,20.146484 23.146344,18.976562 21.242496,18.148683 19.371094,17.873047 18.305229,17.716057 17.262341,17.812687 16.279297,18.083984 22.206463,8.1550758 32.945506,1.4414063 45.359375,1.4414062 Z M 71.990234,5.6386719 A 0.80572043,0.80572043 0 0 0 71.605469,5.7460938 L 66.970703,8.4160156 A 0.80572043,0.80572043 0 0 0 66.929688,9.7871094 L 80.314453,18.611328 74.546875,21.935547 69.71875,20.318359 A 0.80572043,0.80572043 0 0 0 69.060547,20.384766 L 64.832031,22.822266 A 0.80572043,0.80572043 0 0 0 64.738281,24.154297 L 71.349609,29.328125 72.533203,37.630859 A 0.80572043,0.80572043 0 0 0 73.732422,38.214844 L 77.960938,35.779297 A 0.80572043,0.80572043 0 0 0 78.349609,35.240234 L 79.361328,30.259766 85.130859,26.935547 86.095703,42.917969 A 0.80572043,0.80572043 0 0 0 87.302734,43.568359 L 91.935547,40.898438 A 0.80572043,0.80572043 0 0 0 92.332031,40.316406 L 95.126953,21.173828 100.69141,17.966797 C 101.16101,17.69623 101.53667,17.285719 101.96094,16.755859 102.3852,16.226 102.81513,15.584094 103.18359,14.898438 103.55206,14.212781 103.85939,13.487959 104.01758,12.767578 104.17577,12.047197 104.20633,11.290041 103.81641,10.617188 103.42671,9.9444693 102.75463,9.5925502 102.05078,9.3691406 101.34693,9.145731 100.56426,9.0481417 99.785156,9.0234375 99.006049,8.9987333 98.234293,9.048944 97.5625,9.1503906 96.890707,9.2518372 96.346776,9.3717776 95.876953,9.6425781 L 90.3125,12.849609 72.304688,5.6953125 A 0.80572043,0.80572043 0 0 0 71.990234,5.6386719 Z M 72.072266,7.3378906 90.078125,14.492188 A 0.80572043,0.80572043 0 0 0 90.779297,14.441406 L 96.681641,11.037109 C 96.765462,10.988796 97.235969,10.829727 97.802734,10.744141 98.3695,10.658554 99.060168,10.613388 99.734375,10.634766 100.40858,10.656144 101.07039,10.747474 101.56445,10.904297 102.05852,11.061119 102.33921,11.28113 102.42188,11.423828 102.5043,11.566062 102.55409,11.9176 102.44336,12.421875 102.33262,12.92615 102.08227,13.541905 101.76367,14.134766 101.44508,14.727626 101.06089,15.301237 100.70312,15.748047 100.34536,16.194857 99.970978,16.521765 99.886719,16.570312 L 93.984375,19.974609 A 0.80572043,0.80572043 0 0 0 93.587891,20.554688 L 90.792969,39.697266 87.626953,41.521484 86.660156,25.539062 A 0.80572043,0.80572043 0 0 0 85.455078,24.888672 L 78.242188,29.044922 A 0.80572043,0.80572043 0 0 0 77.855469,29.583984 L 76.841797,34.564453 73.958984,36.224609 72.898438,28.779297 A 0.80572043,0.80572043 0 0 0 72.597656,28.259766 L 66.671875,23.621094 69.550781,21.962891 74.378906,23.578125 A 0.80572043,0.80572043 0 0 0 75.037109,23.511719 L 82.25,19.355469 A 0.80572043,0.80572043 0 0 0 82.291016,17.984375 L 68.908203,9.1601562 Z M 10.246094,30.748047 C 10.041735,32.290538 9.7753906,33.815919 9.7753906,35.414062 9.7753906,39.569901 10.624526,43.498796 11.935547,47.207031 9.9512247,47.016548 8.1401369,46.720514 6.6972656,46.255859 3.5145783,45.230924 1.8393675,43.676491 1.5351562,41.90625 1.2403059,40.185742 1.9044867,38.356376 3.5234375,36.371094 5.0117731,34.545982 7.3654232,32.644379 10.246094,30.748047 Z M 62.025391,46.720703 C 63.502795,46.595098 65.051735,47.431117 66.224609,49.119141 67.569486,51.055397 69.153664,52.707055 71.123047,53.287109 72.123473,53.581771 73.191258,53.528683 74.275391,53.119141 68.477919,62.568274 58.225133,68.92631 46.40625,69.291016 46.107001,69.04158 45.434397,68.422082 44.970703,67.076172 44.392598,65.398174 44.320846,62.823543 46.857422,59.042969 49.411984,55.235586 51.070491,54.816746 52.708984,54.466797 53.528231,54.291822 54.407225,54.168384 55.291016,53.638672 56.174806,53.10896 56.966315,52.194729 57.681641,50.654297 58.949471,47.924062 60.547986,46.846308 62.025391,46.720703 Z" id="path17" inkscape:connector-curvature="0" />
</svg>
