<svg version="1.1" viewBox="0 0 75 51.24" xmlns="http://www.w3.org/2000/svg" xmlns:xlink="http://www.w3.org/1999/xlink">
 <defs>
  <linearGradient id="linearGradientSlvr" x1="-1869" x2="-1869" y1="794.4" y2="828" gradientTransform="matrix(1.301,0,0,1.301,1365,-35.3)" gradientUnits="userSpaceOnUse">
   <stop style="stop-color:#696969" offset="0"/>
   <stop style="stop-color:#c7c7c9" offset=".17"/>
   <stop style="stop-color:#f9f9ff" offset=".36"/>
   <stop style="stop-color:#ccccce" offset=".73"/>
   <stop style="stop-color:#696969" offset="1"/>
  </linearGradient>
  <linearGradient id="linearGradient5251-6" x1="-166" x2="-151.9" y1="-246.4" y2="-255" gradientTransform="matrix(1.582 0 0 1.582 312 412.1)" gradientUnits="userSpaceOnUse" xlink:href="#linearGradientSlvr"/>
  <linearGradient id="linearGradient5243-6" x1="-190.7" x2="-174.6" y1="-251.4" y2="-251.4" gradientTransform="matrix(1.582 0 0 1.582 312 412.1)" gradientUnits="userSpaceOnUse" xlink:href="#linearGradientSlvr"/>
  <linearGradient id="linearGradient5235-6" x1="-177.2" x2="-162.3" y1="-234" y2="-234" gradientTransform="matrix(1.582 0 0 1.582 312 412.1)" gradientUnits="userSpaceOnUse" xlink:href="#linearGradientSlvr"/>
  <linearGradient id="linearGradient1517" x1="9.929" x2="80.95" y1="35.39" y2="35.39" gradientTransform="matrix(.7199 0 0 .7199 .08877 .1394)" gradientUnits="userSpaceOnUse">
   <stop style="stop-color:#1c072d" offset="0"/>
   <stop style="stop-color:#5700aa" offset=".29"/>
   <stop style="stop-color:#4b127b" offset=".64"/>
   <stop style="stop-color:#290a43" offset="1"/>
  </linearGradient>
 </defs>
 <path d="m57.54 29.79c-1.987 11.84-12.28 20.86-24.69 20.86-13.83 0-25.04-11.21-25.04-25.04s11.21-25.04 25.04-25.04c4.289 0 8.327 1.079 11.86 2.98 5.332 2.507 14.75 11.26 12.83 26.22z" stroke-miterlimit="10" style="fill:url(#linearGradient1517);stroke-linecap:round;stroke-linejoin:round;stroke-miterlimit:10;stroke-width:1.152;stroke:#000000"/>
 <path d="m62.6 31.05 3.336-1.922 2.053-14.06 4.25-2.45c0.7975-0.4595 2.717-3.325 2.037-4.498-0.6801-1.174-4.127-0.9495-4.924-0.49l-4.25 2.45-13.22-5.254-3.336 1.922 10.42 6.871-5.193 2.993-3.723-1.246-3.045 1.754 4.944 3.869 0.8845 6.208 3.045-1.754 0.7807-3.842 5.193-2.993z" style="fill:url(#linearGradient5251-6);stroke-width:.596"/>
 <path d="m35.71 10.81c0.6956-2.583-6.656-5.563-0.596-9.536l-0.09-0.4799c-0.757-0.06912-1.52-0.1163-2.293-0.1163-9.727 0-18.16 5.552-22.3 13.66l0.2437 0.05124c3.377-2.88 12 2.627 8.94 7.152-4.37 6.456 1.014 6.925 5.96 6.556 2.682-0.298 5.926-1.561 4.769-7.749-1.006-5.373 4.669-6.953 5.363-9.536z" style="fill:url(#linearGradient5243-6);stroke-width:.596"/>
 <path d="m55.33 36.43c-2.806 3.042-5.243 1.412-7.094-1.252-1.863-2.683-5.215-2.98-7.152 1.192-1.938 4.172-3.948 0.298-7.749 5.96-3.654 5.446-0.2807 8.134-0.01788 8.331 9.715-0.2211 18.06-5.972 22.02-14.23z" style="fill:url(#linearGradient5235-6);stroke-width:.596"/>
 <path d="m51.87 4.255a0.5761 0.5761 0 0 0-0.2742 0.07734l-3.337 1.921a0.5761 0.5761 0 0 0-0.02953 0.98l9.642 6.358-4.159 2.396-3.477-1.164a0.5761 0.5761 0 0 0-0.471 0.04781l-3.044 1.753a0.5761 0.5761 0 0 0-0.06749 0.9533l4.761 3.726 0.8521 5.977a0.5761 0.5761 0 0 0 0.8577 0.419l3.044-1.755a0.5761 0.5761 0 0 0 0.277-0.3839l0.7298-3.587 4.161-2.397 0.696 11.51a0.5761 0.5761 0 0 0 0.8619 0.4654l3.335-1.922a0.5761 0.5761 0 0 0 0.2826-0.4162l2.014-13.78 4.007-2.31c0.3371-0.1942 0.6073-0.4905 0.9126-0.8718 0.3053-0.3813 0.6151-0.8438 0.8802-1.337 0.2651-0.4934 0.4866-1.015 0.6004-1.533 0.1138-0.5181 0.1351-1.062-0.1448-1.545-0.2798-0.483-0.7621-0.7364-1.268-0.8971-0.5062-0.1607-1.069-0.2297-1.63-0.2475-0.5606-0.01778-1.117 0.0184-1.6 0.0914-0.4834 0.073-0.8748 0.1585-1.212 0.3529l-4.009 2.312-12.97-5.152a0.5761 0.5761 0 0 0-0.225-0.04078zm0.05906 1.215 12.97 5.151a0.5761 0.5761 0 0 0 0.5006-0.03656l4.249-2.449c0.06129-0.03533 0.4002-0.1507 0.8085-0.2123s0.9064-0.09414 1.392-0.07874c0.4856 0.0154 0.9613 0.08098 1.318 0.194s0.5598 0.2728 0.6201 0.3768c0.06011 0.1037 0.09671 0.3578 0.01685 0.7213-0.07983 0.3636-0.2612 0.8075-0.4907 1.235-0.2295 0.427-0.5072 0.8396-0.7649 1.161-0.2577 0.3219-0.5261 0.5579-0.5877 0.5934l-4.251 2.449a0.5761 0.5761 0 0 0-0.2812 0.4162l-2.014 13.78-2.288 1.319-0.6946-11.51a0.5761 0.5761 0 0 0-0.8633-0.464l-5.191 2.992a0.5761 0.5761 0 0 0-0.277 0.3839l-0.7298 3.588-2.081 1.199-0.7649-5.366a0.5761 0.5761 0 0 0-0.2151-0.3726l-4.272-3.342 2.08-1.198 3.477 1.163a0.5761 0.5761 0 0 0 0.471-0.0464l5.193-2.992a0.5761 0.5761 0 0 0 0.02955-0.9801l-9.64-6.357z" style="color-rendering:auto;color:#000000;fill:#000000;isolation:auto;mix-blend-mode:normal;opacity:.99;shape-rendering:auto;solid-color:#000000"/>
 <path d="m7.666 20.93a0.5761 0.5761 0 0 0-0.3093 0.09421c-2.401 1.524-4.327 3.069-5.617 4.651-1.29 1.583-1.959 3.251-1.675 4.911 0.3184 1.853 1.993 3.228 4.501 4.035 2.508 0.8078 5.93 1.102 10.09 0.7621 8.315-0.6793 19.57-3.911 32.1-10.95a0.5761 0.5761 0 1 0-0.5652-1.004c-12.4 6.967-23.52 10.14-31.63 10.8-4.051 0.331-7.348 0.02803-9.64-0.7101s-3.5-1.858-3.719-3.134c-0.2125-1.24 0.2669-2.558 1.433-3.988 1.166-1.43 3.004-2.924 5.342-4.408a0.5761 0.5761 0 0 0-0.3079-1.066z" style="color-rendering:auto;color:#000000;fill:#000000;isolation:auto;mix-blend-mode:normal;shape-rendering:auto;solid-color:#000000"/>
 <path d="m35.23 0.7384a0.5761 0.5761 0 0 0-0.3079 0.09983c-1.587 1.041-2.401 2.09-2.615 3.172-0.214 1.082 0.1979 2.068 0.7312 2.908s1.207 1.586 1.673 2.248c0.4665 0.6619 0.6671 1.165 0.5667 1.538-0.1266 0.4701-0.5299 0.9908-1.118 1.561-0.5879 0.57-1.337 1.183-2.054 1.905-1.434 1.445-2.743 3.437-2.202 6.326 0.5601 2.991 0.04962 4.629-0.8085 5.593-0.8568 0.9635-2.176 1.332-3.452 1.475-2.435 0.1801-4.959 0.08004-6.112-0.6341-0.578-0.3579-0.8475-0.7594-0.8212-1.527 0.02639-0.7676 0.4488-1.931 1.509-3.497 0.8663-1.28 0.9154-2.716 0.4303-3.964s-1.457-2.339-2.625-3.181c-1.168-0.8419-2.539-1.437-3.885-1.635-1.346-0.1983-2.705 0.008711-3.711 0.8662a0.5761 0.5761 0 1 0 0.748 0.876c0.6831-0.5827 1.669-0.7675 2.794-0.6018 1.125 0.1657 2.353 0.6894 3.38 1.43 1.027 0.7406 1.848 1.696 2.224 2.663 0.3763 0.9676 0.3554 1.917-0.3093 2.899-1.125 1.662-1.668 2.979-1.707 4.103-0.03866 1.124 0.5267 2.028 1.367 2.548 1.68 1.04 4.313 0.9896 6.82 0.8029a0.5761 0.5761 0 0 0 0.02109-0.00144c1.405-0.1565 3.046-0.5683 4.192-1.856s1.678-3.376 1.08-6.572c-0.465-2.484 0.5607-3.968 1.886-5.302 0.6624-0.6671 1.399-1.269 2.039-1.89 0.6401-0.6206 1.207-1.265 1.429-2.087 0.2474-0.9186-0.21-1.755-0.7368-2.503-0.5268-0.7474-1.182-1.479-1.642-2.203-0.4601-0.7246-0.7073-1.39-0.5737-2.066 0.1336-0.6752 0.6736-1.487 2.116-2.433a0.5761 0.5761 0 0 0-0.3234-1.063z" style="color-rendering:auto;color:#000000;fill:#000000;isolation:auto;mix-blend-mode:normal;shape-rendering:auto;solid-color:#000000"/>
 <path d="m44.65 32.62c-1.561 0.1327-3.053 1.291-4.078 3.497-0.454 0.9777-0.8629 1.401-1.268 1.644-0.4054 0.243-0.8758 0.3224-1.506 0.457-1.26 0.2692-2.972 0.8603-4.931 3.781-1.973 2.94-2.024 5.256-1.49 6.804 0.5332 1.548 1.637 2.333 1.637 2.333a0.5766 0.5766 0 1 0 0.6651-0.9421s-0.7955-0.5569-1.212-1.766c-0.4166-1.209-0.4683-3.065 1.358-5.787 1.839-2.742 3.034-3.044 4.214-3.296 0.5899-0.126 1.222-0.2139 1.857-0.5948 0.6355-0.3809 1.206-1.039 1.721-2.147 0.9131-1.966 2.065-2.744 3.13-2.835s2.181 0.5134 3.026 1.729c0.968 1.394 2.107 2.582 3.524 2.999 1.416 0.4172 3.024-0.08601 4.529-1.749a0.5761 0.5761 0 1 0-0.8535-0.7734c-1.326 1.466-2.363 1.708-3.349 1.417-0.9862-0.2905-2.008-1.263-2.904-2.552-1.018-1.465-2.509-2.351-4.069-2.219z" style="color-rendering:auto;color:#000000;fill:#000000;isolation:auto;mix-blend-mode:normal;shape-rendering:auto;solid-color:#000000"/>
</svg>
