<svg version="1.1" viewBox="0 0 75 51.25" xmlns="http://www.w3.org/2000/svg" xmlns:xlink="http://www.w3.org/1999/xlink">
 <defs>
  <linearGradient id="linearGradient7728" x1="-1405" x2="-1405" y1="704.4" y2="781.4" gradientTransform="scale(.7835 1.276)" gradientUnits="userSpaceOnUse">
   <stop style="stop-color:#1c072d" offset="0"/>
   <stop style="stop-color:#5700aa" offset=".29"/>
   <stop style="stop-color:#4b127b" offset=".64"/>
   <stop style="stop-color:#290a43" offset="1"/>
  </linearGradient>
  <linearGradient id="linearGradient5251-6-2" x1="-1165" x2="-1178" y1="-166.3" y2="-164.8" gradientTransform="matrix(2.058 0 0 2.058 2471 356.2)" gradientUnits="userSpaceOnUse">
   <stop style="stop-color:#696969" offset="0"/>
   <stop style="stop-color:#c7c7c9" offset=".17"/>
   <stop style="stop-color:#f9f9ff" offset=".36"/>
   <stop style="stop-color:#ccccce" offset=".73"/>
   <stop style="stop-color:#696969" offset="1"/>
  </linearGradient>
  <linearGradient id="linearGradient5243-6-9" x1="-190.7" x2="-174.6" y1="-251.4" y2="-251.4" gradientTransform="matrix(1.582 0 0 1.582 312 412.1)" gradientUnits="userSpaceOnUse" xlink:href="#linearGradient7728"/>
  <linearGradient id="linearGradient5235-6-0" x1="-177.2" x2="-162.3" y1="-234" y2="-234" gradientTransform="matrix(1.582 0 0 1.582 312 412.1)" gradientUnits="userSpaceOnUse" xlink:href="#linearGradient7728"/>
 </defs>
 <path d="m57.54 29.79c-1.987 11.84-12.28 20.86-24.69 20.86-13.83 0-25.04-11.21-25.04-25.04 0-13.83 11.21-25.04 25.04-25.04 4.289 0 8.327 1.079 11.86 2.98" stroke-miterlimit="10" style="fill:none;stroke-linecap:round;stroke-linejoin:round;stroke-miterlimit:10;stroke-width:1.152;stroke:#000000"/>
 <path d="m62.6 31.05 3.336-1.922 2.053-14.06 4.25-2.45c0.7975-0.4595 2.717-3.325 2.037-4.498-0.6801-1.174-4.127-0.9495-4.924-0.49l-4.25 2.45-13.22-5.254-3.336 1.922 10.42 6.871-5.193 2.992-3.723-1.246-3.045 1.754 4.944 3.869 0.8845 6.208 3.045-1.754 0.7807-3.842 5.193-2.992z" style="fill:url(#linearGradient5251-6-2);stroke-width:.596"/>
 <path d="m35.71 10.81c0.6956-2.583-6.656-5.563-0.596-9.536l-0.09-0.4799c-0.757-0.06912-1.52-0.1163-2.293-0.1163-9.727 0-18.16 5.552-22.3 13.66l0.2437 0.05125c3.377-2.88 12 2.627 8.94 7.152-4.37 6.456 1.014 6.924 5.96 6.556 2.682-0.298 5.926-1.561 4.769-7.749-1.006-5.373 4.669-6.953 5.363-9.536z" style="fill:url(#linearGradient5243-6-9);stroke-width:.596"/>
 <path d="m55.33 36.43c-2.806 3.042-5.243 1.412-7.094-1.252-1.863-2.682-5.215-2.98-7.152 1.192-1.938 4.172-3.948 0.298-7.749 5.96-3.654 5.446-0.2807 8.134-0.01787 8.331 9.715-0.2211 18.06-5.972 22.02-14.23z" style="fill:url(#linearGradient5235-6-0);stroke-width:.596"/>
 <path d="m62.6 31.05 3.336-1.922 2.053-14.06 4.25-2.45c0.7975-0.4595 2.717-3.325 2.037-4.498-0.6801-1.174-4.127-0.9495-4.924-0.49l-4.25 2.45-13.22-5.254-3.336 1.922 10.42 6.871-5.193 2.992-3.723-1.246-3.045 1.754 4.944 3.869 0.8845 6.208 3.045-1.754 0.7807-3.842 5.193-2.992z" stroke-miterlimit="10" style="fill:none;opacity:.99;stroke-linecap:round;stroke-linejoin:round;stroke-miterlimit:10;stroke-width:1.152;stroke:#000000"/>
 <path d="m46.47 23.94c-24.93 14.01-44.76 12.81-45.84 6.556-0.4971-2.901 2.295-5.971 7.034-8.979" stroke-miterlimit="10" style="fill:none;stroke-linecap:round;stroke-linejoin:round;stroke-miterlimit:10;stroke-width:1.152;stroke:#000000"/>
 <path d="m35.24 1.319c-6.059 3.973 1.292 6.953 0.596 9.536-0.6956 2.583-6.369 4.163-5.363 9.536 1.159 6.187-2.086 7.45-4.769 7.749-4.946 0.3684-10.33-0.09949-5.96-6.556 3.062-4.525-5.563-10.03-8.94-7.152" stroke-miterlimit="10" style="fill:none;stroke-linecap:round;stroke-linejoin:round;stroke-miterlimit:10;stroke-width:1.152;stroke:#000000"/>
 <path d="m33.34 50.67s-3.799-2.682 0-8.345c3.799-5.662 5.811-1.787 7.749-5.96s5.289-3.873 7.152-1.192c1.863 2.682 4.321 4.321 7.152 1.192" stroke-miterlimit="10" style="fill:none;stroke-linecap:round;stroke-linejoin:round;stroke-miterlimit:10;stroke-width:1.152;stroke:#000000"/>
</svg>
