<?xml version="1.0" encoding="UTF-8" standalone="no"?>
<svg xmlns:dc="http://purl.org/dc/elements/1.1/" xmlns:cc="http://creativecommons.org/ns#" xmlns:rdf="http://www.w3.org/1999/02/22-rdf-syntax-ns#" xmlns:svg="http://www.w3.org/2000/svg" xmlns="http://www.w3.org/2000/svg" xmlns:xlink="http://www.w3.org/1999/xlink" xmlns:sodipodi="http://sodipodi.sourceforge.net/DTD/sodipodi-0.dtd" xmlns:inkscape="http://www.inkscape.org/namespaces/inkscape" version="1.1" viewBox="0 0 100.00001 99.999908" id="svg32" sodipodi:docname="i65a.svg" width="100.00001" height="99.999908" inkscape:version="0.92.2 (5c3e80d, 2017-08-06)">
  <metadata id="metadata36">
    <rdf:RDF>
      <cc:Work rdf:about="">
        <dc:format>image/svg+xml</dc:format>
        <dc:type rdf:resource="http://purl.org/dc/dcmitype/StillImage" />
        <dc:title></dc:title>
      </cc:Work>
    </rdf:RDF>
  </metadata>
  <sodipodi:namedview pagecolor="#ffffff" bordercolor="#666666" borderopacity="1" objecttolerance="10" gridtolerance="10" guidetolerance="10" inkscape:pageopacity="0" inkscape:pageshadow="2" inkscape:window-width="2560" inkscape:window-height="1001" id="namedview34" showgrid="false" fit-margin-top="0" fit-margin-left="0" fit-margin-right="0" fit-margin-bottom="0" inkscape:zoom="4" inkscape:cx="40.945803" inkscape:cy="19.979764" inkscape:window-x="-9" inkscape:window-y="41" inkscape:window-maximized="1" inkscape:current-layer="svg32" />
  <defs id="defs22">
    <linearGradient inkscape:collect="always" xlink:href="#linearGradient7728" id="linearGradient5953-6" x1="1132.1787" y1="2211.1995" x2="2013.7267" y2="1320.7097" gradientUnits="userSpaceOnUse" gradientTransform="matrix(0.0464632,0,0,-0.0464632,-24.17011,132.71563)" />
    <linearGradient gradientUnits="userSpaceOnUse" gradientTransform="scale(0.7835,1.276)" y2="781.40002" y1="704.40002" x2="-1405" x1="-1405" id="linearGradient7728">
      <stop id="stop4435" offset="0" style="stop-color:#1c072d" />
      <stop id="stop4437" offset=".29" style="stop-color:#5700aa" />
      <stop id="stop4439" offset=".64" style="stop-color:#4b127b" />
      <stop id="stop4441" offset="1" style="stop-color:#290a43" />
    </linearGradient>
    <linearGradient inkscape:collect="always" xlink:href="#linearGradientSlvr" id="linearGradient5945-2" x1="973.01367" y1="818.01855" x2="1020.7363" y2="818.01855" gradientUnits="userSpaceOnUse" gradientTransform="matrix(1.3333322,0,0,1.3333322,-1279.1655,-1040.691)" />
    <linearGradient gradientUnits="userSpaceOnUse" gradientTransform="matrix(1.301,0,0,1.301,1365,-35.3)" y2="828" y1="794.40002" x2="-1869" x1="-1869" id="linearGradientSlvr">
      <stop id="stop4422" offset="0" style="stop-color:#696969" />
      <stop id="stop4424" offset=".17" style="stop-color:#c7c7c9" />
      <stop id="stop4426" offset=".36" style="stop-color:#f9f9ff" />
      <stop id="stop4428" offset=".73" style="stop-color:#ccccce" />
      <stop id="stop4430" offset="1" style="stop-color:#696969" />
    </linearGradient>
    <linearGradient inkscape:collect="always" xlink:href="#linearGradient7728" id="linearGradient14965" x1="31.441406" y1="76.214844" x2="95.644531" y2="71.714844" gradientUnits="userSpaceOnUse" />
    <linearGradient inkscape:collect="always" xlink:href="#linearGradient7728" id="linearGradient14973" x1="80.75" y1="10.499962" x2="12.5" y2="83.249962" gradientUnits="userSpaceOnUse" />
  </defs>
  <path d="M 100,49.999983 C 100,77.613992 77.614499,99.999915 50.000025,99.999915 22.386016,99.999915 1.768e-7,77.613992 1.768e-7,49.999983 1.768e-7,22.385509 22.386016,4.048e-6 50.000025,4.048e-6 77.614499,4.048e-6 100,22.385509 100,49.999983" style="fill:url(#linearGradient14973);fill-opacity:1;fill-rule:nonzero;stroke:none;stroke-width:0.0464632;opacity:0.812" id="path4645-4" inkscape:connector-curvature="0" />
  <path d="M 54.814542,99.768157 C 54.658426,99.612412 54.499986,99.459037 54.346658,99.300226 54.066485,99.02981 53.791423,98.755212 53.521471,98.474993 53.241298,98.204531 52.966236,97.929561 52.69582,97.649342 52.415647,97.379437 52.140585,97.103957 51.870169,96.823737 51.589996,96.553833 51.315399,96.278677 51.044983,95.998644 50.76481,95.728553 50.490212,95.453584 50.219796,95.173364 49.939623,94.90346 49.664561,94.628351 49.39461,94.348085 49.114437,94.077669 48.839375,93.8027 48.568959,93.522992 48.28925,93.252576 48.014188,92.977421 47.744237,92.697759 47.464064,92.427296 47.188537,92.152327 46.918586,91.871736 46.638413,91.601692 46.363351,91.326723 46.0934,91.046503 45.812762,90.776598 45.538164,90.501443 45.267749,90.221224 44.987575,89.951319 44.712978,89.67635 44.442562,89.39613 44.162389,89.126272 43.887327,88.851117 43.617376,88.570851 43.337203,88.300435 43.06214,88.025837 42.792189,87.745804 42.512016,87.475341 42.236489,87.200186 41.966538,86.919595 41.686365,86.649737 41.411303,86.374582 41.141352,86.094455 40.861179,85.824504 40.586116,85.549442 40.315701,85.269269 40.035528,84.999317 39.76093,84.724255 39.490514,84.444082 39.210341,84.174131 38.935279,83.899069 38.665328,83.618896 38.385155,83.34848 38.110093,83.073882 37.840141,82.793709 37.559968,82.523294 37.284906,82.248231 37.01449,81.968058 36.734317,81.698107 36.459255,81.423045 36.188839,81.142407 35.908666,80.872456 35.634069,80.597394 35.364117,80.317221 35.08348,80.04727 34.808882,79.772207 34.538466,79.492034 34.258293,79.222083 33.983231,78.947021 33.71328,78.666848 33.433107,78.396432 33.158045,78.12137 32.887629,77.841197 32.60792,77.571246 32.332858,77.296184 32.062907,77.016475 31.782734,76.746059 31.507207,76.470997 31.237256,76.190359 30.956618,75.920408 30.682021,75.645346 30.41207,75.365173 30.131432,75.095222 29.856834,74.82016 29.586419,74.539987 29.306245,74.270035 29.031648,73.994973 28.761232,73.7148 28.481059,73.444849 28.205997,73.169787 27.936046,72.889614 21.931374,67.09937 18.285,58.982713 18.285,49.999983 18.285,42.695968 20.764103,36.061347 24.924,30.680908 26.021461,29.262852 27.137343,27.83239 28.459221,26.612266 34.127267,21.385621 41.699839,18.283908 50.000025,18.283908 58.230052,18.283908 65.74501,21.328471 71.400046,26.477988 71.905566,26.932863 72.385066,27.412363 72.857597,27.896509 L 72.87293,27.912771 C 73.147992,28.178076 73.418407,28.447563 73.683248,28.721696 L 73.698581,28.737958 C 73.973178,29.003263 74.243594,29.272749 74.508434,29.546882 L 74.523767,29.563609 C 74.798365,29.828914 75.069245,30.097936 75.333621,30.372533 L 75.348953,30.388331 C 75.623551,30.6541 75.894431,30.923122 76.159272,31.19772 L 76.17414,31.213982 C 76.448737,31.479287 76.719618,31.748309 76.984458,32.022906 L 76.999791,32.039168 C 77.274388,32.304938 77.545269,32.57396 77.809645,32.848093 L 77.824977,32.864355 C 78.099575,33.130124 78.370455,33.399146 78.634831,33.673744 L 78.650628,33.690006 C 78.925226,33.955311 79.195642,34.224797 79.460482,34.49893 L 79.475815,34.515192 C 79.750412,34.780962 80.020828,35.049984 80.285668,35.324581 L 80.301001,35.340379 C 80.575599,35.606148 80.846479,35.87517 81.11132,36.149768 L 81.126188,36.165565 C 81.400785,36.431335 81.671666,36.700356 81.936506,36.974954 L 81.951839,36.991216 C 82.226436,37.256986 82.496852,37.526008 82.761692,37.80014 L 82.777025,37.816403 C 83.051623,38.082172 83.322503,38.351194 83.586879,38.625791 L 83.602676,38.642054 C 83.877274,38.907358 84.14769,39.176845 84.41253,39.450978 L 84.427863,39.46724 C 84.70246,39.73301 84.972876,40.002031 85.237716,40.276164 L 85.253514,40.292891 C 85.527647,40.558196 85.798527,40.827218 86.062903,41.101815 L 86.078236,41.117613 C 86.352833,41.383382 86.623714,41.652404 86.888554,41.927002 L 86.903422,41.942799 C 87.17802,42.208569 87.4489,42.478055 87.71374,42.752188 L 87.729073,42.76845 C 88.003671,43.03422 88.274086,43.303242 88.538927,43.577839 L 88.55426,43.594101 C 88.829322,43.859406 89.099737,44.128893 89.364578,44.403026 L 89.379911,44.419288 C 89.654508,44.684593 89.924924,44.954079 90.189764,45.228212 L 90.205562,45.244939 C 90.479695,45.510244 90.750575,45.779266 91.014951,46.053863 L 91.030283,46.069661 C 91.304881,46.33543 91.575761,46.604452 91.840602,46.87905 L 91.85547,46.894847 C 92.130067,47.160617 92.400948,47.430103 92.665788,47.704236 L 92.681121,47.720498 C 92.955718,47.986268 93.226134,48.25529 93.490975,48.529887 L 93.506307,48.546149 C 93.780905,48.811454 94.051785,49.080476 94.316161,49.355074 L 94.331958,49.371336 C 94.606556,49.636641 94.876972,49.906127 95.141812,50.18026 L 95.157145,50.196522 C 95.431742,50.462292 95.702158,50.731314 95.966998,51.005911 L 95.982331,51.021709 C 96.256929,51.287478 96.527809,51.5565 96.792185,51.831098 L 96.807518,51.846895 C 97.082115,52.112665 97.352996,52.381686 97.617836,52.656284 L 97.633169,52.672546 C 97.907766,52.937851 98.178182,53.207338 98.443022,53.48147 L 98.458355,53.497733 C 98.732953,53.763502 99.003833,54.032524 99.268209,54.307121 L 99.284006,54.323384 C 99.448486,54.482288 99.607855,54.645838 99.769082,54.807995 97.500284,78.581356 78.586974,97.496524 54.814542,99.768157" style="fill:url(#linearGradient5953-6);fill-opacity:1;fill-rule:nonzero;stroke:none;stroke-width:0.0464632" id="path4647-6" inkscape:connector-curvature="0" sodipodi:nodetypes="ccccccccccccccccccccccccccccccccccsccsccccccccccccccccccccccccccccccccccccccccccccccccccccccccccccccccccccc" />
  <path style="display:none;fill:#000000;fill-opacity:1;fill-rule:nonzero;stroke:none;stroke-width:0.0464632" d="M 50.400391,18.583984 C 42.100211,18.583984 34.527423,21.787023 28.859375,27.013672 27.537496,28.233791 26.32403,29.564357 25.226562,30.982422 21.066486,36.362858 18.585937,43.096383 18.585938,50.400391 18.585938,67.948149 32.860992,82.216797 50.400391,82.216797 62.746114,82.216797 73.457132,75.147894 78.736328,64.853516 79.859794,62.654864 80.738839,60.311787 81.326172,57.851562 81.480039,57.224776 81.608476,56.598884 81.724609,55.960938 82.043409,54.158164 82.214844,52.297949 82.214844,50.400391 82.214844,50.292604 82.208984,50.184438 82.208984,50.076172 82.20245,49.144119 82.153253,48.216586 82.064453,47.310547 81.770453,44.280682 81.049157,41.371363 79.962891,38.642578 79.879691,38.444645 79.80195,38.235043 79.71875,38.037109 78.274218,34.618352 76.232979,31.503744 73.748047,28.814453 73.587781,28.641146 73.423153,28.470182 73.257812,28.296875 72.78528,27.812729 72.306248,27.331832 71.800781,26.876953 66.145719,21.727437 58.630384,18.583984 50.400391,18.583984 Z M 50.400391,21.205078 C 57.787985,21.205078 64.530091,23.966958 69.679688,28.498047 L 69.332031,29.115234 67.986328,29.646484 67.417969,30.259766 67.546875,30.982422 68.242188,31.078125 68.46875,31.640625 68.263672,31.724609 68.664062,32.125 69.859375,31.638672 70.056641,33.039062 H 69.697266 L 68.714844,32.892578 67.621094,33.076172 66.566406,34.572266 65.050781,34.810547 64.835938,36.099609 65.474609,36.251953 65.291016,37.083984 63.787109,36.783203 62.414062,37.083984 62.126953,37.84375 62.363281,39.455078 63.167969,39.830078 64.523438,39.826172 65.435547,39.742188 65.71875,39.013672 67.150391,37.158203 68.087891,37.351562 69.013672,36.515625 69.189453,37.166016 71.46875,38.708984 71.185547,39.076172 70.158203,39.025391 70.556641,39.583984 71.185547,39.724609 71.929688,39.416016 71.916016,38.521484 72.242188,38.357422 71.980469,38.072266 70.458984,37.228516 70.056641,36.099609 H 71.322266 L 71.722656,36.501953 72.816406,37.439453 72.861328,38.572266 73.986328,39.773438 74.408203,38.130859 75.189453,37.703125 75.335938,39.052734 76.101562,39.888672 77.621094,39.865234 C 77.915227,40.619327 78.179136,41.391121 78.408203,42.177734 L 78.248047,42.322266 H 75.923828 L 74.503906,41.267578 73.009766,41.408203 V 42.322266 H 72.535156 L 72.025391,41.958984 69.443359,41.302734 V 39.626953 L 66.166016,39.882812 65.150391,40.431641 H 63.845703 L 63.205078,40.361328 61.626953,41.244141 V 42.890625 L 58.400391,45.21875 58.667969,46.216797 H 59.326172 L 59.154297,47.162109 58.695312,47.333984 58.667969,49.806641 61.455078,52.990234 H 62.675781 L 62.746094,52.789062 H 64.931641 L 65.558594,52.208984 H 66.798828 L 67.474609,52.884766 69.322266,53.083984 69.076172,55.53125 71.128906,59.148438 70.050781,61.212891 70.119141,62.181641 70.970703,63.029297 V 65.367188 L 72.082031,66.861328 V 68.804688 H 73.046875 C 67.69288,75.387586 59.53185,79.603516 50.400391,79.603516 34.297178,79.603516 21.205078,66.503604 21.205078,50.400391 21.205078,46.350194 22.036251,42.484067 23.53125,38.976562 23.691776,38.60277 23.858662,38.234053 24.033203,37.871094 23.859092,38.234053 23.692203,38.60277 23.535156,38.976562 V 40.634766 L 24.744141,41.21875 V 43.53125 L 26.080078,44.957031 25.507812,45.113281 25.908203,45.513672 26.861328,45.658203 26.980469,44.982422 25.863281,43.257812 25.644531,41.583984 H 26.298828 L 26.572266,43.306641 28.189453,45.658203 27.767578,46.419922 29.011719,47.535156 28.796875,47.992188 31.345703,48.617188 V 48.208984 L 32.361328,48.353516 C 32.49327,48.395353 32.864016,48.38799 32.775391,48.498047 32.774811,48.498766 32.77208,48.501217 32.771484,48.501953 L 32.78125,48.5 32.265625,49.078125 33.070312,49.224609 34.304688,49.5625 36.048828,51.556641 38.285156,51.724609 38.501953,53.544922 36.976562,54.611328 36.90625,56.234375 36.681641,57.232422 38.892578,59.998047 38.984375,60.503906 38.664062,60.544922 39.064453,60.945312 C 39.064453,60.945312 39.862244,61.162109 39.957031,61.162109 40.053671,61.162109 41.75392,62.445318 41.753906,62.445312 L 42.078125,67 41.353516,67.046875 41.78125,67.453125 42.361328,67.615234 41.947266,69.921875 42.96875,71.283203 42.783203,73.564453 44.125,75.935547 45.859375,77.443359 47.595703,77.476562 47.761719,76.919922 47.724609,76.888672 47.361328,76.519531 47.332031,76.554688 46.492188,75.837891 46.5625,75.310547 46.791016,74.650391 46.835938,73.986328 46.435547,73.585938 46.3125,73.970703 45.970703,73.960938 45.539062,73.419922 46.253906,72.720703 46.351562,72.203125 45.951172,71.802734 45.794922,72.044922 45.548828,71.974609 45.595703,71.486328 46.738281,71.314453 48.476562,70.484375 49.058594,69.416016 50.878906,67.083984 50.462891,65.263672 51.019531,64.291016 52.695312,64.34375 53.824219,63.455078 54.191406,59.939453 55.435547,58.351562 55.660156,57.333984 55.259766,56.933594 55.111328,57.15625 54.515625,56.962891 53.761719,55.728516 53.361328,55.328125 53.335938,55.724609 51.195312,55.703125 49.15625,54.931641 49.058594,53.474609 48.375,52.287109 47.974609,51.886719 47.947266,52.28125 46.535156,52.259766 45.46875,50.585938 45.068359,50.185547 45.056641,50.382812 44.519531,50.119141 44.470703,50.630859 42.751953,50.732422 42.119141,49.857422 41.71875,49.457031 41.6875,49.769531 40.322266,49.494141 38.839844,51.197266 36.515625,50.810547 36.34375,48.181641 35.943359,47.78125 35.810547,48.089844 34.642578,47.890625 35.328125,46.603516 35.126953,45.865234 34.726562,45.464844 34.736328,46.126953 32.898438,47.359375 31.494141,47.185547 30.994141,46.085938 31.296875,44.955078 32.074219,43.523438 33.855469,42.623047 H 37.300781 L 37.294922,43.21875 36.888672,43.271484 37.289062,43.669922 V 43.671875 L 38.527344,44.251953 38.431641,42.458984 39.320312,41.556641 41.121094,40.375 41.25,39.544922 43.046875,37.671875 44.949219,36.617188 44.783203,36.476562 46.074219,35.263672 46.548828,35.384766 46.765625,35.658203 47.257812,35.115234 47.378906,35.056641 46.978516,34.65625 46.292969,34.802734 V 34.279297 L 46.585938,34.041016 H 47.21875 L 47.511719,34.169922 47.513672,34.173828 47.367188,34.28125 47.767578,34.681641 48.074219,34.630859 V 34.585938 L 48.164062,34.617188 49.058594,34.484375 49.1875,34.041016 49.599609,34.144531 49.630859,34.294922 49.699219,34.402344 V 34.648438 L 49.222656,34.976562 49.232422,35.052734 48.892578,35.091797 49.292969,35.492188 50.914062,35.992188 50.917969,36.009766 51.289062,35.978516 51.314453,35.275391 50.914062,34.875 50.810547,35.046875 50.03125,34.695312 49.960938,34.357422 51.027344,33.990234 51.072266,32.96875 50.671875,32.568359 50.601562,32.683594 49.955078,32.291016 49.884766,30.572266 49.484375,30.171875 49.369141,30.824219 48.355469,31.320312 H 47.798828 L 47.939453,30.009766 47.539062,29.609375 47.332031,29.865234 45.863281,29.517578 45,30.169922 V 32.15625 L 43.455078,32.642578 42.835938,33.939453 42.158203,34.048828 V 32.392578 L 41.757812,31.992188 41.580078,32.310547 40.705078,32.1875 39.978516,31.716797 39.683594,30.642578 42.285156,29.119141 43.564453,28.732422 43.605469,29.015625 43.291016,29.1875 43.691406,29.587891 44.400391,29.556641 44.449219,29.119141 45.195312,29.021484 45.205078,28.867188 44.851562,28.513672 44.814453,28.279297 45.730469,28.203125 46.28125,27.625 46.3125,27.587891 H 46.316406 L 46.484375,27.414062 48.400391,27.171875 49.25,27.892578 47.648438,28.746094 46.626953,28.677734 47.027344,29.078125 49.851562,29.748047 50.220703,28.802734 H 51.455078 L 51.894531,27.976562 51.494141,27.576172 51.244141,27.810547 51.019531,27.751953 V 26.712891 L 50.619141,26.3125 50.541016,26.501953 48.277344,25.5 46.386719,25.716797 45.322266,26.279297 45.392578,27.632812 44.273438,27.466797 44.101562,26.712891 45.173828,25.742188 44.773438,25.341797 44.236328,25.695312 43.230469,25.646484 42.675781,25.818359 42.609375,25.998047 42.03125,26.068359 42.431641,26.46875 43.160156,26.591797 43.015625,27.320312 41.775391,27.396484 41.582031,27.875 39.789062,27.927734 C 39.789062,27.927734 39.742682,26.912109 39.666016,26.912109 39.595856,26.912109 41.072266,26.884766 41.072266,26.884766 L 42.144531,25.837891 41.744141,25.4375 40.9375,25.890625 41.21875,25.878906 40.783203,26.304688 39.492188,26.226562 38.720703,25.162109 38.320312,24.761719 38.140625,25.162109 H 37.072266 L 36.222656,25.792969 36.228516,25.765625 34.945312,26.044922 35.345703,26.445312 H 36.923828 L 37.03125,26.78125 36.263672,26.886719 36.664062,27.287109 38.40625,27.337891 38.673828,27.970703 36.707031,27.892578 36.611328,27.412109 36.210938,27.011719 36.083984,27.294922 35.378906,27.140625 34.71875,26.775391 33.25,26.789062 C 38.067303,23.280159 43.991263,21.205078 50.400391,21.205078 Z M 32.265625,49.078125 C 32.451183,48.865901 32.688614,48.60434 32.771484,48.501953 L 31.865234,48.677734 Z M 29.011719,47.535156 28.396484,47.591797 28.792969,47.992188 Z M 33.933594,28.001953 H 34.980469 V 28.458984 L 34.681641,28.853516 H 33.244141 V 28.273438 28.220703 H 33.882812 Z M 44.882812,28.708984 44.919922,28.746094 44.886719,28.732422 Z M 34.957031,29.583984 C 35.007671,29.583984 34.957031,30.220703 34.957031,30.220703 L 33.517578,30.310547 33.244141,29.984375 34.265625,29.689453 C 34.265625,29.689453 34.899885,29.583984 34.957031,29.583984 Z M 71.628906,30.380859 C 72.125972,30.911005 72.611333,31.46077 73.072266,32.023438 L 72.496094,32.876953 70.496094,32.861328 70.369141,32.445312 71.621094,31.804688 Z M 64.658203,30.542969 64.755859,31.003906 64.101562,31.134766 63.832031,31.548828 V 32.009766 L 64.291016,32.322266 64.953125,32.736328 65.013672,33.210938 64.302734,33.357422 64.246094,33.960938 H 63.810547 L 64.208984,34.361328 H 65.058594 L 66.191406,34.251953 66.773438,33.5625 66.373047,33.162109 66.21875,33.345703 66.152344,33.320312 65.814453,32.931641 65.302734,32.107422 65.058594,30.943359 Z M 63.789062,32.09375 63.771484,32.314453 63.626953,32.251953 62.841797,32.431641 62.259766,33.369141 V 33.570312 H 61.859375 L 62.259766,33.970703 H 62.935547 L 64.140625,33.130859 64.189453,32.494141 Z M 36.699219,32.673828 37.390625,32.841797 37.15625,33.765625 36.408203,34.005859 35.939453,33.039062 Z M 25.742188,34.789062 25.792969,35.320312 24.578125,36.796875 C 24.942858,36.112929 25.326801,35.441395 25.742188,34.789062 Z M 38.597656,34.880859 H 39.742188 V 35.224609 H 40 V 35.662109 H 39.414062 L 39.291016,35.826172 H 38.855469 L 38.830078,35.662109 H 37.865234 L 37.835938,35.712891 37.595703,35.646484 37.761719,35.224609 Z M 40.304688,35.134766 40.90625,35.677734 40.464844,35.787109 40.396484,35.662109 H 40.304688 Z M 48.287109,35.474609 48.132812,35.802734 47.978516,35.804688 47.970703,35.826172 47.712891,35.847656 47.630859,36.248047 H 46.970703 V 36.474609 L 46.791016,36.490234 46.767578,36.279297 H 46.570312 L 46.970703,36.679688 H 46.980469 L 47.191406,36.890625 47.710938,36.845703 48.03125,36.648438 48.113281,36.248047 48.527344,36.212891 48.6875,35.875 Z M 40.304688,35.820312 H 40.330078 L 40.304688,35.826172 Z M 40,35.822266 V 35.826172 H 39.6875 Z M 41.626953,35.970703 42.074219,36.248047 41.71875,36.541016 41.359375,36.248047 Z M 38.265625,36.0625 H 39.230469 L 37.996094,37.791016 37.486328,37.517578 37.595703,36.789062 Z M 39.814453,36.0625 H 40.796875 V 36.152344 L 40.503906,36.105469 40.621094,36.755859 40.361328,36.923828 40.261719,36.603516 39.814453,36.714844 Z M 46.056641,36.132812 46.027344,36.330078 45.863281,36.533203 45.388672,36.613281 45.789062,37.013672 46.394531,36.960938 46.457031,36.533203 Z M 41.033203,36.701172 H 41.111328 L 42.214844,37.025391 V 37.59375 H 41.289062 L 41.033203,37.224609 Z M 76.408203,37.148438 C 76.650203,37.621423 76.87433,38.101038 77.091797,38.580078 L 76.791016,38.572266 76.222656,38.650391 V 37.359375 Z M 40.580078,37.224609 V 37.791016 L 40.164062,38.208984 H 39.230469 L 39.376953,37.576172 39.820312,37.537109 39.908203,37.320312 Z" id="path14220" inkscape:connector-curvature="0" />
  <path style="opacity:0.59281437;fill:#000000;fill-opacity:1;fill-rule:nonzero;stroke:none;stroke-width:0.0464632" d="M 50.699219,18.982422 C 42.399039,18.982422 34.826251,22.18546 29.158203,27.412109 27.836324,28.632228 26.622857,29.962794 25.525391,31.380859 21.365315,36.761295 18.884766,43.496773 18.884766,50.800781 18.884766,68.348539 33.15982,82.615234 50.699219,82.615234 63.044942,82.615234 73.75596,75.548284 79.035156,65.253906 80.158622,63.055254 81.03962,60.712178 81.626953,58.251953 81.78082,57.625167 81.909258,56.999274 82.025391,56.361328 82.344191,54.558556 82.515625,52.698339 82.515625,50.800781 82.515625,50.692994 82.509766,50.582875 82.509766,50.474609 82.503232,49.542556 82.452081,48.615023 82.363281,47.708984 82.069281,44.679119 81.347985,41.771754 80.261719,39.042969 80.178519,38.845036 80.100778,38.633481 80.017578,38.435547 78.573046,35.01679 76.53376,31.904135 74.048828,29.214844 73.888562,29.041537 73.721975,28.870573 73.556641,28.697266 73.084109,28.21312 72.60703,27.732223 72.101562,27.277344 66.4465,22.127828 58.929212,18.982422 50.699219,18.982422 Z M 50.699219,21.605469 C 58.086813,21.605469 64.828921,24.365395 69.978516,28.896484 L 69.632812,29.513672 68.285156,30.044922 67.71875,30.660156 67.845703,31.380859 68.541016,31.478516 68.962891,32.525391 70.158203,32.037109 70.355469,33.439453 H 69.996094 L 69.015625,33.292969 67.921875,33.474609 66.867188,34.972656 65.351562,35.208984 65.134766,36.498047 65.775391,36.652344 65.589844,37.482422 64.087891,37.183594 62.712891,37.482422 62.425781,38.244141 62.664062,39.855469 63.46875,40.230469 64.822266,40.224609 65.736328,40.142578 66.017578,39.412109 67.449219,37.558594 68.386719,37.751953 69.314453,36.916016 69.488281,37.566406 71.527344,38.945312 71.529297,39.015625 70.787109,39.324219 70.15625,39.183594 70.855469,39.982422 71.486328,40.123047 72.228516,39.816406 72.214844,38.919922 72.541016,38.755859 72.28125,38.472656 70.759766,37.628906 70.355469,36.498047 H 71.621094 L 72.023438,36.902344 73.117188,37.839844 73.160156,38.972656 74.285156,40.173828 74.707031,38.529297 75.488281,38.103516 75.634766,39.451172 76.400391,40.287109 77.921875,40.263672 C 78.216008,41.017765 78.477964,41.789559 78.707031,42.576172 L 78.548828,42.722656 H 76.222656 L 74.804688,41.667969 73.308594,41.808594 V 42.722656 H 72.835938 L 72.324219,42.357422 69.744141,41.701172 V 40.027344 L 69.044922,39.226562 68.535156,40.121094 66.464844,40.283203 65.449219,40.832031 H 64.144531 L 63.503906,40.761719 61.925781,41.644531 V 43.291016 L 58.699219,45.619141 58.96875,46.615234 H 59.626953 L 59.455078,47.560547 58.994141,47.732422 58.96875,50.207031 61.753906,53.388672 H 62.976562 L 63.046875,53.189453 H 65.230469 L 65.859375,52.607422 H 67.097656 L 67.775391,53.285156 69.621094,53.482422 69.376953,55.931641 71.429688,59.548828 70.351562,61.613281 70.417969,62.582031 71.269531,63.427734 V 65.767578 L 72.382812,67.261719 V 69.205078 H 73.345703 C 67.991708,75.787979 59.830678,80.003906 50.699219,80.003906 34.596006,80.003906 21.503906,66.903994 21.503906,50.800781 21.503906,46.750584 22.335079,42.884457 23.830078,39.376953 23.950537,39.09646 24.078654,38.821133 24.207031,38.546875 24.079362,38.821136 23.953786,39.096457 23.835938,39.376953 V 41.035156 L 25.042969,41.619141 V 43.931641 L 26.207031,45.912109 27.160156,46.058594 27.28125,45.380859 26.164062,43.658203 25.945312,41.982422 H 26.597656 L 26.871094,43.707031 28.488281,46.058594 28.066406,46.818359 29.095703,48.392578 31.644531,49.017578 V 48.607422 L 32.660156,48.753906 32.564453,49.478516 33.369141,49.623047 34.603516,49.962891 36.347656,51.957031 38.585938,52.123047 38.800781,53.943359 37.275391,55.011719 37.205078,56.634766 36.980469,57.630859 39.191406,60.396484 39.363281,61.345703 C 39.363281,61.345703 40.163027,61.560547 40.257812,61.560547 40.354453,61.560547 42.054701,62.845703 42.054688,62.845703 V 67.847656 L 42.660156,68.013672 42.246094,70.322266 43.267578,71.683594 43.082031,73.964844 44.423828,76.333984 46.158203,77.841797 47.894531,77.876953 48.0625,77.318359 46.791016,76.238281 46.861328,75.708984 47.089844,75.050781 47.134766,74.386719 46.269531,74.361328 45.837891,73.818359 46.554688,73.121094 46.650391,72.603516 45.847656,72.373047 45.894531,71.886719 47.039062,71.714844 48.775391,70.884766 49.359375,69.816406 51.179688,67.482422 50.761719,65.662109 51.320312,64.691406 52.994141,64.744141 54.125,63.855469 54.492188,60.339844 55.736328,58.751953 55.960938,57.732422 54.814453,57.363281 54.0625,56.128906 51.494141,56.103516 49.455078,55.332031 49.359375,53.873047 48.673828,52.685547 46.835938,52.660156 45.767578,50.986328 44.820312,50.519531 44.769531,51.029297 43.050781,51.130859 42.417969,50.255859 40.621094,49.894531 39.140625,51.597656 36.814453,51.208984 36.642578,48.582031 34.941406,48.291016 35.626953,47.003906 35.425781,46.263672 33.197266,47.759766 31.792969,47.583984 31.292969,46.486328 31.595703,45.355469 32.375,43.923828 34.15625,43.021484 H 37.601562 L 37.587891,44.072266 38.828125,44.652344 38.730469,42.857422 39.619141,41.957031 41.421875,40.775391 41.548828,39.943359 43.345703,38.072266 45.25,37.017578 45.082031,36.876953 46.375,35.662109 46.847656,35.785156 47.064453,36.058594 47.556641,35.513672 47.679688,35.457031 47.140625,35.380859 46.59375,35.201172 V 34.677734 L 46.884766,34.441406 H 47.517578 L 47.8125,34.568359 48.066406,35.082031 48.375,35.029297 V 34.986328 L 48.462891,35.017578 49.359375,34.884766 49.486328,34.441406 50,34.568359 V 35.048828 L 49.523438,35.376953 49.59375,35.892578 51.212891,36.392578 51.21875,36.410156 51.587891,36.378906 51.613281,35.675781 50.330078,35.095703 50.259766,34.755859 51.328125,34.388672 51.371094,33.369141 50.253906,32.691406 50.183594,30.972656 48.65625,31.720703 H 48.097656 L 48.238281,30.410156 46.164062,29.917969 45.298828,30.568359 V 32.556641 L 43.753906,33.042969 43.134766,34.339844 42.457031,34.449219 V 32.792969 L 41.003906,32.587891 40.277344,32.115234 39.984375,31.042969 42.585938,29.519531 43.863281,29.130859 43.992188,29.988281 44.699219,29.957031 44.75,29.519531 45.494141,29.419922 45.503906,29.267578 45.1875,29.130859 45.113281,28.677734 46.03125,28.603516 46.580078,28.025391 46.611328,27.988281 H 46.617188 L 46.783203,27.814453 48.699219,27.572266 49.548828,28.292969 47.328125,29.478516 50.150391,30.146484 50.519531,29.201172 H 51.753906 L 52.195312,28.376953 51.320312,28.152344 V 27.113281 L 48.578125,25.900391 46.6875,26.115234 45.621094,26.677734 45.691406,28.033203 44.572266,27.865234 44.400391,27.113281 45.472656,26.142578 43.53125,26.044922 42.976562,26.216797 42.730469,26.869141 43.460938,26.990234 43.314453,27.720703 42.074219,27.794922 41.882812,28.275391 40.087891,28.326172 C 40.087891,28.326172 40.04151,27.310547 39.964844,27.310547 39.894684,27.310547 41.371094,27.285156 41.371094,27.285156 L 42.445312,26.238281 41.855469,25.949219 41.082031,26.705078 39.791016,26.626953 39.019531,25.560547 H 37.371094 L 35.644531,26.845703 H 37.222656 L 37.371094,27.310547 36.962891,27.685547 38.705078,27.738281 38.972656,28.371094 37.007812,28.292969 36.910156,27.810547 35.679688,27.541016 35.017578,27.175781 33.548828,27.189453 C 38.366131,23.68055 44.290091,21.605469 50.699219,21.605469 Z M 34.234375,28.402344 H 35.28125 V 28.857422 L 34.980469,29.253906 H 33.542969 V 28.673828 28.621094 H 34.181641 Z M 35.257812,29.982422 C 35.308453,29.982422 35.257812,30.621094 35.257812,30.621094 L 33.816406,30.708984 33.542969,30.384766 34.564453,30.089844 C 34.564453,30.089844 35.200666,29.982422 35.257812,29.982422 Z M 71.929688,30.779297 C 72.426754,31.309443 72.910161,31.861162 73.371094,32.423828 L 72.796875,33.277344 70.796875,33.261719 70.667969,32.845703 71.921875,32.205078 Z M 65.359375,31.341797 64.400391,31.535156 64.132812,31.949219 V 32.410156 L 64.589844,32.722656 65.251953,33.136719 65.314453,33.611328 64.603516,33.755859 64.509766,34.761719 H 65.359375 L 66.492188,34.652344 67.072266,33.962891 66.453125,33.720703 66.113281,33.332031 65.603516,32.505859 Z M 63.925781,32.652344 63.142578,32.832031 62.558594,33.769531 V 34.371094 H 63.236328 L 64.439453,33.529297 64.488281,32.894531 Z M 37,33.074219 37.689453,33.240234 37.455078,34.166016 36.707031,34.404297 36.238281,33.439453 Z M 26.041016,35.189453 26.09375,35.720703 24.876953,37.197266 C 25.241686,36.51332 25.625629,35.841785 26.041016,35.189453 Z M 38.898438,35.279297 H 40.041016 V 35.623047 H 40.298828 V 36.224609 H 38.546875 L 37.894531,36.044922 38.0625,35.623047 Z M 40.603516,35.535156 41.205078,36.076172 40.603516,36.224609 Z M 48.611328,36.199219 48.277344,36.205078 48.105469,36.646484 H 47.269531 V 37.080078 H 47.46875 C 47.46875,37.080078 47.479174,37.169749 47.492188,37.291016 L 48.009766,37.246094 48.330078,37.048828 48.414062,36.646484 48.828125,36.613281 48.986328,36.275391 Z M 41.925781,36.371094 42.375,36.646484 42.017578,36.941406 41.658203,36.646484 Z M 38.564453,36.462891 H 39.53125 L 38.296875,38.191406 37.785156,37.917969 37.894531,37.189453 Z M 40.113281,36.462891 H 41.095703 V 37.042969 L 40.660156,37.324219 40.113281,37.425781 Z M 46.392578,36.646484 46.119141,36.986328 46.087891,37.412109 46.695312,37.361328 46.757812,36.933594 Z M 41.332031,37.099609 H 41.410156 L 42.515625,37.425781 V 37.994141 H 41.587891 L 41.332031,37.623047 Z M 76.707031,37.548828 C 76.949031,38.021814 77.175111,38.501429 77.392578,38.980469 L 77.089844,38.972656 76.523438,39.050781 V 37.759766 Z M 40.878906,37.623047 V 38.191406 L 40.462891,38.607422 H 39.53125 L 39.675781,37.974609 40.119141,37.935547 40.207031,37.720703 Z" id="path14357" inkscape:connector-curvature="0" />
  <path inkscape:connector-curvature="0" id="path4649-8" d="M 50.000037,18.1831 C 41.699857,18.1831 34.126437,21.386137 28.458389,26.612786 27.13651,27.832905 25.923044,29.163464 24.825578,30.581529 20.665502,35.961965 18.184957,42.696772 18.184957,50.00078 18.184957,67.548538 32.460638,81.815859 50.000037,81.815859 62.34576,81.815859 73.056817,74.748279 78.336013,64.453901 79.459479,62.255249 80.339744,59.911518 80.927077,57.451293 81.080944,56.824507 81.209344,56.198614 81.325477,55.560668 81.644277,53.757896 81.815076,51.898338 81.815076,50.00078 81.815076,49.892993 81.809877,49.783526 81.809877,49.67526 81.803343,48.743207 81.75281,47.815675 81.66401,46.909636 81.37001,43.879771 80.648811,40.971761 79.562545,38.242976 79.479345,38.045043 79.400945,37.834137 79.317745,37.636203 77.873213,34.217446 75.833882,31.104156 73.34895,28.414865 73.188684,28.241558 73.022151,28.069945 72.856817,27.896638 72.384285,27.412492 71.906552,26.932239 71.401085,26.47736 65.746023,21.327844 58.23003,18.1831 50.000037,18.1831 Z M 50.000037,20.805498 C 57.387631,20.805498 64.129092,23.566069 69.278687,28.097158 L 68.932287,28.714344 67.586022,29.245584 67.018289,29.86017 67.145889,30.581529 67.841222,30.677876 68.263088,31.724755 69.45842,31.237782 69.656287,32.638821 H 69.296954 L 68.315088,32.492981 67.221356,32.675274 66.16669,34.172673 64.651091,34.409646 64.434958,35.698712 65.075491,35.852352 64.890691,36.683084 63.388025,36.383604 62.013093,36.683084 61.72656,37.443497 61.963627,39.055482 62.768293,39.430482 64.122425,39.425269 65.036424,39.341935 65.317757,38.612776 66.750023,36.758604 67.687489,36.951311 68.614554,36.115378 68.789088,36.766417 71.067752,38.308083 70.786419,38.675269 69.757887,38.625789 70.156286,39.183082 70.786419,39.323709 71.528685,39.016416 71.515619,38.12059 71.841218,37.956523 71.580685,37.67267 70.059886,36.828911 69.656287,35.698712 H 70.921886 L 71.322952,36.102351 72.416684,37.039857 72.460951,38.17267 73.586017,39.373189 74.007883,37.729963 74.789082,37.30287 74.934949,38.651829 75.700548,39.487775 77.221347,39.464335 C 77.51548,40.218428 77.778813,40.990214 78.00788,41.776827 L 77.848947,41.922666 H 75.523482 L 74.10415,40.867974 72.609351,41.008601 V 41.922666 H 72.135485 L 71.625085,41.55808 69.044287,40.901827 V 39.227349 L 65.765623,39.482562 64.750024,40.032041 H 63.445359 L 62.804693,39.961721 61.226561,40.844534 V 42.490373 L 58.00003,44.818491 58.268297,45.81589 H 58.927096 L 58.755229,46.761196 58.294296,46.933076 58.268297,49.407033 61.054694,52.589324 H 62.276026 L 62.346426,52.388804 H 64.531225 L 65.158824,51.808071 H 66.398423 L 67.075489,52.485151 68.921887,52.683071 68.677088,55.130989 70.729219,58.748172 69.651087,60.813277 69.71882,61.782023 70.570286,62.628369 V 64.966914 L 71.682285,66.461699 V 68.404417 H 72.645884 C 67.291889,74.987318 59.131496,79.203888 50.000037,79.203888 33.896824,79.203888 20.804755,66.103993 20.804755,50.00078 20.804755,45.950583 21.635274,42.083813 23.130273,38.576309 23.451326,37.828723 23.800792,37.104724 24.177139,36.396631 24.541872,35.712685 24.925818,35.041152 25.341205,34.38882 L 25.393284,34.920059 24.177139,36.396631 C 23.800792,37.104724 23.449566,37.828723 23.135473,38.576309 V 40.235161 L 24.343805,40.818494 V 43.130999 L 25.507871,45.11277 26.46099,45.258597 26.58079,44.581518 25.463604,42.857559 25.244845,41.18308 H 25.898497 L 26.171937,42.907039 27.789122,45.258597 27.367243,46.01901 28.395895,47.591928 30.94536,48.216928 V 47.808075 L 31.960986,47.953915 31.864639,48.677861 32.669318,48.823701 33.903691,49.162234 35.648489,51.157032 37.885461,51.323698 38.101607,53.144004 36.575568,54.211709 36.505262,55.834108 36.281302,56.831507 38.492233,59.597131 38.664113,60.545037 C 38.664113,60.545037 39.462552,60.761184 39.557339,60.761184 39.653979,60.761184 41.354218,62.045036 41.354204,62.045036 V 67.047645 L 41.960977,67.214312 41.546924,69.521603 42.56775,70.883575 42.382857,73.164827 43.724002,75.534611 45.458374,77.042423 47.195346,77.076277 47.362012,76.518984 46.091187,75.438265 46.161493,74.909612 46.390667,74.250759 46.434933,73.586693 45.570347,73.560653 45.138068,73.018987 45.8542,72.321081 45.95056,71.802841 45.148481,71.573681 45.195348,71.086695 46.338587,70.914828 48.075559,70.084096 48.658891,69.01639 50.47921,66.683059 50.062543,64.862754 50.619823,63.891394 52.294302,63.943474 53.424514,63.055462 53.7917,59.539838 55.036433,57.951293 55.260432,56.933067 54.11462,56.563281 53.362007,55.328895 50.794303,55.302855 48.755251,54.532029 48.658891,53.073697 47.973999,51.886191 46.135453,51.860151 45.067748,50.185673 44.119829,49.719526 44.070349,50.229953 42.351603,50.331513 41.718791,49.456513 39.921925,49.094527 38.440153,50.797659 36.114635,50.409633 35.942755,47.782035 34.242237,47.490368 34.92713,46.203916 34.72661,45.46433 32.497452,46.959115 31.0938,46.784636 30.5938,45.685677 30.895893,44.555478 31.674532,43.123185 33.455784,42.222146 H 36.901088 L 36.888075,43.271625 38.127647,43.852345 38.0313,42.05808 38.919313,41.15704 40.721405,39.974748 40.849005,39.144015 42.645883,37.27163 44.549522,36.216938 44.382855,36.076311 45.674521,34.862779 46.14848,34.985166 46.364627,35.258605 46.856813,34.714339 46.979213,34.657046 46.440147,34.581526 45.893267,34.401833 V 33.878393 L 46.184933,33.64142 H 46.817746 L 47.112013,33.76902 47.367226,34.282046 47.674519,34.229966 V 34.185686 L 47.763065,34.21694 48.658891,34.084126 48.786491,33.64142 49.299517,33.76902 V 34.248193 L 48.822958,34.576313 48.893264,35.091939 50.513063,35.591938 50.518263,35.610165 50.888063,35.578912 50.914103,34.875792 49.630251,34.29506 49.559931,33.956527 50.627636,33.58934 50.671916,32.568501 49.554731,31.891422 49.484411,30.172676 47.955772,30.920062 H 47.398479 L 47.539106,29.61017 45.463587,29.117984 44.599001,29.769023 V 31.756008 L 43.054736,32.242981 42.434937,33.53986 41.757857,33.649233 V 31.992982 L 40.304738,31.787262 39.578166,31.315902 39.283899,30.242983 41.885457,28.719544 43.164109,28.331531 43.291709,29.188304 44.000042,29.157051 44.049522,28.719544 44.794308,28.620598 44.804735,28.466945 44.487015,28.331531 44.414108,27.878398 45.330774,27.802878 45.880254,27.224759 45.911494,27.188306 H 45.916707 L 46.083374,27.013826 48.000039,26.771639 48.848998,27.492985 46.62764,28.677878 49.450557,29.347157 49.820344,28.401838 H 51.054729 L 51.494822,27.576319 50.619823,27.352359 V 26.313306 L 47.877639,25.099761 45.987014,25.315907 44.921921,25.8784 44.992228,27.232572 43.872442,27.065906 43.700562,26.313306 44.773481,25.341947 42.830776,25.245587 42.276083,25.417467 42.031297,26.068507 42.760456,26.190906 42.61463,26.920066 41.375044,26.995586 41.182338,27.474759 39.388073,27.526839 C 39.388073,27.526839 39.342339,26.511213 39.265673,26.511213 39.195513,26.511213 40.671925,26.485173 40.671925,26.485173 L 41.744831,25.438307 41.156298,25.149241 40.382858,25.904453 39.091193,25.82632 38.320353,24.761214 H 36.671928 L 34.945356,26.045067 H 36.523488 L 36.671928,26.511213 36.263075,26.886213 38.00526,26.938306 38.273487,27.571119 36.307342,27.492985 36.210982,27.011212 34.979223,26.740386 34.317757,26.3758 32.849011,26.388826 C 37.666314,22.879923 43.590909,20.805498 50.000037,20.805498 Z M 33.533904,27.602359 H 34.580783 V 28.058092 L 34.281304,28.453931 H 32.843798 V 27.873198 27.821118 H 33.481824 Z M 34.557343,29.183091 C 34.607983,29.183091 34.557343,29.821117 34.557343,29.821117 L 33.117238,29.90965 32.843798,29.58413 33.864637,29.289864 C 33.864637,29.289864 34.500197,29.183091 34.557343,29.183091 Z M 71.229219,29.97997 C 71.726285,30.510116 72.210951,31.060529 72.671884,31.623195 L 72.096418,32.477354 70.09642,32.461728 69.96882,32.045062 71.221352,31.404449 Z M 64.658824,30.542463 63.700559,30.735169 63.432292,31.149236 V 31.610169 L 63.890692,31.922675 64.552158,32.336728 64.614558,32.810688 63.903625,32.956527 63.809892,33.961727 H 64.658824 L 65.791757,33.852353 66.372423,33.162247 65.75269,32.920061 65.414024,32.532048 64.903624,31.706528 Z M 63.226559,31.852355 62.442693,32.032048 61.85936,32.969541 V 33.571114 H 62.536426 L 63.739625,32.729968 63.789092,32.094541 Z M 36.299529,32.274235 36.989635,32.440901 36.755261,33.36538 36.007862,33.604967 35.539116,32.638821 Z M 38.197967,34.479966 H 39.341193 V 34.823712 H 39.599006 V 35.425272 H 37.846407 L 37.195354,35.245579 37.362021,34.823712 Z M 39.903685,34.735166 40.505258,35.276832 39.903685,35.425272 Z M 47.911492,35.399232 47.578159,35.404445 47.406292,35.847152 H 46.570346 V 36.279445 H 46.768266 C 46.768266,36.279445 46.778693,36.369111 46.791706,36.490378 L 47.309932,36.446111 47.630252,36.248191 47.713585,35.847152 48.127638,35.813298 48.286492,35.474752 Z M 41.226604,35.571112 41.674524,35.847152 41.317751,36.141418 40.958378,35.847152 Z M 37.864634,35.662245 H 38.83078 L 37.596407,37.391417 37.085981,37.117977 37.195354,36.388818 Z M 39.414113,35.662245 H 40.395885 V 36.242978 L 39.960979,36.524231 39.414113,36.625791 Z M 45.692747,35.847152 45.419307,36.185685 45.388067,36.612778 45.994827,36.560684 46.057334,36.133605 Z M 40.632858,36.300271 H 40.710978 L 41.81515,36.625791 V 37.193497 H 40.888071 L 40.632858,36.823711 Z M 76.007881,36.748191 C 76.249881,37.221177 76.475214,37.701443 76.692681,38.180483 L 76.390681,38.17267 75.822948,38.25079 V 36.959124 Z M 40.179739,36.823711 V 37.391417 L 39.763072,37.808083 H 38.83078 L 38.976606,37.17527 39.419313,37.136204 39.507859,36.920057 Z" style="display:inline;fill:url(#linearGradient5945-2);fill-opacity:1;fill-rule:nonzero;stroke:none;stroke-width:0.0464632" sodipodi:nodetypes="sccsscccscccccccsscccccccccccccccccccccccccccccccccccccccccccccccccccccccccccccccccccccccccccccccccccccccccsscccccccccccccccccccccccccccccccccsccccccccccccccccccccccccccccccccccccccccccccccccccccccccccccccccccccccccccccccccccccccccccccccccccccccccccccccccccccccccccccccccccccccccccccccccccccsccccccccccccccccccscccccccccsccccsccccccccccccccccccccccccccccccccccccccccccccccccccccccccccccccccccccccccccccccccccccccccccccccccccccccccccc" />
  <path style="display:inline;fill:#ff0000;fill-opacity:1;fill-rule:nonzero;stroke:none;stroke-width:0.0464632" d="M 28.835938,26.28125 C 28.711316,26.392521 28.581828,26.498051 28.458984,26.611328 28.437992,26.630705 28.419327,26.652393 28.398438,26.671875 28.419038,26.652758 28.438331,26.632345 28.458984,26.613281 28.58205,26.4998 28.711088,26.392811 28.835938,26.28125 Z" id="path14412" />
  <path style="display:inline;fill:url(#linearGradient14965);fill-opacity:1;fill-rule:nonzero;stroke:none;stroke-width:0.0464632" d="M 72.873047,27.912109 C 73.033332,28.079958 73.1943,28.246116 73.349609,28.414062 75.834541,31.103354 77.873827,34.217962 79.318359,37.636719 79.401559,37.834653 79.4793,38.044255 79.5625,38.242188 80.648766,40.970973 81.370062,43.880291 81.664062,46.910156 81.752863,47.816195 81.804013,48.743728 81.810547,49.675781 81.810547,49.784047 81.814453,49.892213 81.814453,50 81.814453,51.897558 81.644972,53.757775 81.326172,55.560547 81.210039,56.198493 81.081601,56.824386 80.927734,57.451172 80.340401,59.911397 79.459404,62.254473 78.335938,64.453125 73.056741,74.747503 62.345723,81.816406 50,81.816406 41.441415,81.816406 33.666295,78.41232 27.941406,72.894531 28.209515,73.172645 28.483533,73.446807 28.761719,73.714844 29.032135,73.995017 29.305764,74.26911 29.585938,74.539062 29.856353,74.819236 30.131471,75.095283 30.412109,75.365234 30.68206,75.645407 30.95569,75.919502 31.236328,76.189453 31.506279,76.470091 31.782327,76.745209 32.0625,77.015625 32.332451,77.295334 32.60701,77.571846 32.886719,77.841797 33.157135,78.12197 33.432718,78.3956 33.712891,78.666016 33.982842,78.946189 34.25889,79.222236 34.539062,79.492188 34.809479,79.77236 35.082644,80.046455 35.363281,80.316406 35.633233,80.596579 35.90928,80.872627 36.189453,81.142578 36.459869,81.423216 36.733499,81.698799 37.013672,81.96875 37.284088,82.248923 37.559671,82.522554 37.839844,82.792969 38.109796,83.073142 38.385843,83.348725 38.666016,83.619141 38.935967,83.899314 39.210061,84.173408 39.490234,84.443359 39.76065,84.723532 40.036233,84.999579 40.316406,85.269531 40.586821,85.549704 40.860452,85.823799 41.140625,86.09375 41.410576,86.373877 41.686624,86.650064 41.966797,86.919922 42.236748,87.200513 42.512796,87.475631 42.792969,87.746094 43.06292,88.026127 43.337015,88.299896 43.617188,88.570312 43.887138,88.850579 44.163186,89.126626 44.443359,89.396484 44.713775,89.676704 44.987404,89.950798 45.267578,90.220703 45.537993,90.500922 45.813112,90.77697 46.09375,91.046875 46.363701,91.327095 46.637796,91.60105 46.917969,91.871094 47.18792,92.151685 47.463968,92.426803 47.744141,92.697266 48.014092,92.976928 48.28865,93.253022 48.568359,93.523438 48.838775,93.803146 49.114358,94.07724 49.394531,94.347656 49.664482,94.627922 49.94053,94.903924 50.220703,95.173828 50.491119,95.454048 50.764749,95.727956 51.044922,95.998047 51.315338,96.27808 51.590921,96.554315 51.871094,96.824219 52.14151,97.104439 52.41514,97.378532 52.695312,97.648438 52.965728,97.928656 53.241311,98.204147 53.521484,98.474609 53.791436,98.754828 54.06553,99.030365 54.345703,99.300781 54.499031,99.459592 54.658337,99.611833 54.814453,99.767578 78.586885,97.495945 97.500733,78.581955 99.769531,54.808594 99.608304,54.646437 99.447683,54.483123 99.283203,54.324219 L 99.267578,54.306641 C 99.003202,54.032044 98.733582,53.763816 98.458984,53.498047 L 98.443359,53.482422 C 98.178519,53.20829 97.907409,52.93718 97.632812,52.671875 L 97.617188,52.65625 C 97.352348,52.381652 97.081238,52.113426 96.806641,51.847656 L 96.792969,51.832031 C 96.528593,51.557433 96.25702,51.287253 95.982422,51.021484 L 95.966797,51.005859 C 95.701957,50.731262 95.430847,50.463036 95.15625,50.197266 L 95.142578,50.179688 C 94.877738,49.905555 94.606629,49.636399 94.332031,49.371094 L 94.316406,49.355469 C 94.05203,49.080871 93.780457,48.81218 93.505859,48.546875 L 93.490234,48.529297 C 93.225393,48.2547 92.956238,47.986473 92.681641,47.720703 L 92.666016,47.705078 C 92.401176,47.430945 92.130066,47.160301 91.855469,46.894531 L 91.839844,46.878906 C 91.575003,46.604308 91.305848,46.336081 91.03125,46.070312 L 91.015625,46.054688 C 90.751249,45.780091 90.479211,45.509446 90.205078,45.244141 L 90.189453,45.228516 C 89.924613,44.954383 89.655456,44.685227 89.380859,44.419922 L 89.365234,44.402344 C 89.100393,44.128211 88.82975,43.859055 88.554688,43.59375 L 88.539062,43.578125 C 88.274222,43.303528 88.003114,43.033348 87.728516,42.767578 L 87.712891,42.751953 C 87.448051,42.47782 87.178895,42.209129 86.904297,41.943359 L 86.888672,41.927734 C 86.623832,41.653136 86.352722,41.382956 86.078125,41.117188 L 86.0625,41.101562 C 85.798124,40.826966 85.528039,40.558274 85.253906,40.292969 L 85.238281,40.275391 C 84.973441,40.001258 84.702331,39.732567 84.427734,39.466797 L 84.412109,39.451172 C 84.147269,39.177039 83.878114,38.907882 83.603516,38.642578 L 83.585938,38.625 C 83.321562,38.350403 83.051942,38.082175 82.777344,37.816406 L 82.761719,37.800781 C 82.496879,37.526649 82.225769,37.257957 81.951172,36.992188 L 81.935547,36.974609 C 81.670707,36.700011 81.40155,36.431786 81.126953,36.166016 L 81.111328,36.150391 C 80.846487,35.875793 80.575379,35.605613 80.300781,35.339844 L 80.285156,35.324219 C 80.020316,35.049622 79.751159,34.781395 79.476562,34.515625 L 79.460938,34.498047 C 79.196098,34.223914 78.924989,33.954758 78.650391,33.689453 L 78.634766,33.673828 C 78.37039,33.39923 78.098817,33.131003 77.824219,32.865234 L 77.810547,32.847656 C 77.546171,32.573523 77.274597,32.304833 77,32.039062 L 76.984375,32.023438 C 76.719535,31.748841 76.448425,31.480149 76.173828,31.214844 L 76.160156,31.197266 C 75.895315,30.922668 75.624207,30.654441 75.349609,30.388672 L 75.333984,30.373047 C 75.069608,30.09845 74.798035,29.829758 74.523438,29.564453 L 74.507812,29.546875 C 74.242973,29.272742 73.973816,29.003586 73.699219,28.738281 L 73.683594,28.722656 C 73.418753,28.448523 73.148109,28.177414 72.873047,27.912109 Z" id="path14408" />
</svg>
