<svg version="1.1" viewBox="0 0 75 75" xmlns="http://www.w3.org/2000/svg" xmlns:xlink="http://www.w3.org/1999/xlink">
 <defs>
  <linearGradient id="linearGradient5953-6" x1="1132" x2="2014" y1="2211" y2="1321" gradientTransform="matrix(.03485 0 0 -.03485 -18.13 99.54)" gradientUnits="userSpaceOnUse" xlink:href="#linearGradient7728"/>
  <linearGradient id="linearGradient7728" x1="-1405" x2="-1405" y1="704.4" y2="781.4" gradientTransform="scale(.7835 1.276)" gradientUnits="userSpaceOnUse">
   <stop style="stop-color:#1c072d" offset="0"/>
   <stop style="stop-color:#5700aa" offset=".29"/>
   <stop style="stop-color:#4b127b" offset=".64"/>
   <stop style="stop-color:#290a43" offset="1"/>
  </linearGradient>
  <linearGradient id="linearGradient5945-2" x1="973" x2="1021" y1="818" y2="818" gradientTransform="translate(-959.4 -780.5)" gradientUnits="userSpaceOnUse">
   <stop style="stop-color:#696969" offset="0"/>
   <stop style="stop-color:#c7c7c9" offset=".17"/>
   <stop style="stop-color:#f9f9ff" offset=".36"/>
   <stop style="stop-color:#ccccce" offset=".73"/>
   <stop style="stop-color:#696969" offset="1"/>
  </linearGradient>
  <linearGradient id="linearGradient14965" x1="31.44" x2="95.64" y1="76.21" y2="71.71" gradientTransform="matrix(.75 0 0 .75 -1.326e-7 -3e-6)" gradientUnits="userSpaceOnUse" xlink:href="#linearGradient7728"/>
  <linearGradient id="linearGradient14973" x1="80.75" x2="12.5" y1="10.5" y2="83.25" gradientTransform="matrix(.75 0 0 .75 -1.326e-7 -3e-6)" gradientUnits="userSpaceOnUse" xlink:href="#linearGradient7728"/>
 </defs>
 <path d="m75 37.5c0 20.71-16.79 37.5-37.5 37.5-20.71 0-37.5-16.79-37.5-37.5 0-20.71 16.79-37.5 37.5-37.5 20.71 0 37.5 16.79 37.5 37.5" style="fill:url(#linearGradient14973);opacity:.812"/>
 <path d="m41.11 74.83c-0.1171-0.1168-0.2359-0.2318-0.3509-0.3509-0.2101-0.2028-0.4164-0.4088-0.6189-0.6189-0.2101-0.2028-0.4164-0.4091-0.6192-0.6192-0.2101-0.2024-0.4164-0.409-0.6192-0.6192-0.2101-0.2024-0.4161-0.4088-0.6189-0.6188-0.2101-0.2026-0.4161-0.4088-0.6189-0.619-0.2101-0.2024-0.4164-0.4088-0.6189-0.619-0.2101-0.2028-0.4164-0.409-0.6192-0.6188-0.2098-0.2028-0.4161-0.4092-0.6185-0.6189-0.2101-0.2028-0.4168-0.4091-0.6192-0.6195-0.2101-0.2025-0.4164-0.4088-0.6189-0.6189-0.2105-0.2024-0.4164-0.4088-0.6192-0.619-0.2101-0.2024-0.4161-0.4087-0.6189-0.6188-0.2101-0.2024-0.4164-0.4088-0.6189-0.619-0.2101-0.2028-0.4164-0.4088-0.6189-0.6188-0.2101-0.2028-0.4168-0.4092-0.6192-0.6197-0.2101-0.2024-0.4164-0.4088-0.6189-0.6189-0.2101-0.2025-0.4164-0.4088-0.6192-0.6189-0.2101-0.2025-0.4161-0.4088-0.6189-0.6189-0.2101-0.2025-0.4164-0.4088-0.6189-0.6189-0.2101-0.2028-0.4164-0.4088-0.6189-0.6189-0.2101-0.2028-0.4164-0.4091-0.6192-0.6192-0.2101-0.2025-0.4164-0.4088-0.6192-0.6192-0.2101-0.2025-0.4161-0.4088-0.6185-0.6189-0.2105-0.2025-0.4164-0.4088-0.6192-0.6189-0.2101-0.2025-0.4164-0.4088-0.6189-0.6189-0.2101-0.2028-0.4164-0.4091-0.6192-0.6192-0.2098-0.2025-0.4161-0.4088-0.6185-0.6185-0.2101-0.2028-0.4168-0.4091-0.6192-0.6196-0.2105-0.2025-0.4164-0.4088-0.6189-0.6189-0.2105-0.2025-0.4164-0.4088-0.6192-0.6189-0.2101-0.2025-0.4161-0.4088-0.6189-0.6189-0.2101-0.2025-0.4164-0.4088-0.6189-0.6189-4.504-4.343-7.238-10.43-7.238-17.17 0-5.478 1.859-10.45 4.979-14.49 0.8231-1.064 1.66-2.136 2.651-3.051 4.251-3.92 9.93-6.246 16.16-6.246 6.173 0 11.81 2.283 16.05 6.146 0.3791 0.3412 0.7388 0.7008 1.093 1.064l0.0115 0.0122c0.2063 0.199 0.4091 0.4011 0.6077 0.6067l0.0115 0.0122c0.2059 0.199 0.4088 0.4011 0.6074 0.6067l0.0115 0.01254c0.2059 0.199 0.4091 0.4007 0.6074 0.6067l0.0115 0.01185c0.2059 0.1993 0.4091 0.4011 0.6077 0.607l0.01115 0.0122c0.2059 0.199 0.4091 0.4007 0.6077 0.6067l0.0115 0.0122c0.2059 0.1993 0.4091 0.4011 0.6074 0.6067l0.0115 0.0122c0.2059 0.1993 0.4091 0.4011 0.6074 0.607l0.01185 0.0122c0.2059 0.199 0.4088 0.4011 0.6074 0.6067l0.0115 0.0122c0.2059 0.1993 0.4088 0.4011 0.6074 0.607l0.0115 0.01185c0.2059 0.1993 0.4091 0.4011 0.6077 0.607l0.01115 0.01185c0.2059 0.1993 0.4091 0.4011 0.6077 0.607l0.0115 0.0122c0.2059 0.1993 0.4088 0.4011 0.6074 0.6067l0.0115 0.0122c0.2059 0.1993 0.4091 0.4011 0.6074 0.607l0.01185 0.0122c0.2059 0.199 0.4088 0.4011 0.6074 0.6067l0.0115 0.0122c0.2059 0.1993 0.4088 0.4011 0.6074 0.6067l0.01185 0.01254c0.2056 0.199 0.4088 0.4007 0.607 0.6067l0.0115 0.01185c0.2059 0.1993 0.4091 0.4011 0.6077 0.607l0.01115 0.01185c0.2059 0.1993 0.4091 0.4014 0.6077 0.607l0.0115 0.0122c0.2059 0.1993 0.4088 0.4011 0.6074 0.607l0.0115 0.0122c0.2063 0.199 0.4091 0.4011 0.6077 0.6067l0.0115 0.0122c0.2059 0.199 0.4088 0.4011 0.6074 0.6067l0.01185 0.01254c0.2056 0.199 0.4088 0.4007 0.607 0.6067l0.0115 0.01185c0.2059 0.1993 0.4091 0.4011 0.6077 0.607l0.01115 0.01185c0.2059 0.1993 0.4091 0.4014 0.6077 0.607l0.0115 0.0122c0.2059 0.1993 0.4088 0.4011 0.6074 0.607l0.0115 0.0122c0.2059 0.199 0.4091 0.4007 0.6074 0.6067l0.01185 0.0122c0.2059 0.199 0.4088 0.4011 0.6074 0.6067l0.0115 0.0122c0.2059 0.1993 0.4088 0.4011 0.6074 0.607l0.0115 0.01185c0.2059 0.1993 0.4091 0.4011 0.6074 0.607l0.0115 0.01185c0.2059 0.1993 0.4091 0.4011 0.6077 0.607l0.0115 0.0122c0.2059 0.199 0.4088 0.4011 0.6074 0.6067l0.0115 0.0122c0.2059 0.1993 0.4091 0.4011 0.6074 0.607l0.01185 0.0122c0.1234 0.1192 0.2429 0.2418 0.3638 0.3635-1.702 17.83-15.89 32.02-33.72 33.72" style="fill:url(#linearGradient5953-6)"/>
 <path d="m50.4-6.416c-8.3 0-15.87 3.203-21.54 8.43-1.322 1.22-2.535 2.551-3.633 3.969-4.16 5.38-6.641 12.11-6.641 19.42 0 17.55 14.28 31.82 31.81 31.82 12.35 0 23.06-7.069 28.34-17.36 1.123-2.199 2.003-4.542 2.59-7.002 0.1539-0.6268 0.2823-1.253 0.3984-1.891 0.3188-1.803 0.4902-3.663 0.4902-5.561 0-0.1078-0.00586-0.216-0.00586-0.3242-0.006534-0.9321-0.05573-1.86-0.1445-2.766-0.294-3.03-1.015-5.939-2.102-8.668-0.0832-0.1979-0.1609-0.4075-0.2441-0.6055-1.445-3.419-3.486-6.533-5.971-9.223-0.1603-0.1733-0.3249-0.3443-0.4902-0.5176-0.4725-0.4841-0.9516-0.965-1.457-1.42-5.655-5.15-13.17-8.293-21.4-8.293zm0 2.621c7.388 0 14.13 2.762 19.28 7.293l-0.3477 0.6172-1.346 0.5312-0.5684 0.6133 0.1289 0.7227 0.6953 0.0957 0.2266 0.5625-0.2051 0.08398 0.4004 0.4004 1.195-0.4863 0.1973 1.4h-0.3594l-0.9824-0.1465-1.094 0.1836-1.055 1.496-1.516 0.2383-0.2148 1.289 0.6387 0.1523-0.1836 0.832-1.504-0.3008-1.373 0.3008-0.2871 0.7598 0.2363 1.611 0.8047 0.375 1.355-0.003906 0.9121-0.08398 0.2832-0.7285 1.432-1.855 0.9375 0.1934 0.9258-0.8359 0.1758 0.6504 2.279 1.543-0.2832 0.3672-1.027-0.05078 0.3984 0.5586 0.6289 0.1406 0.7441-0.3086-0.01367-0.8945 0.3262-0.1641-0.2617-0.2852-1.521-0.8438-0.4023-1.129h1.266l0.4004 0.4023 1.094 0.9375 0.04492 1.133 1.125 1.201 0.4219-1.643 0.7812-0.4277 0.1465 1.35 0.7656 0.8359 1.52-0.02344c0.2941 0.7541 0.558 1.526 0.7871 2.312l-0.1602 0.1445h-2.324l-1.42-1.055-1.494 0.1406v0.9141h-0.4746l-0.5098-0.3633-2.582-0.6562v-1.676l-3.277 0.2559-1.016 0.5488h-1.305l-0.6406-0.07031-1.578 0.8828v1.646l-3.227 2.328 0.2676 0.998h0.6582l-0.1719 0.9453-0.459 0.1719-0.02734 2.473 2.787 3.184h1.221l0.07031-0.2012h2.186l0.627-0.5801h1.24l0.6758 0.6758 1.848 0.1992-0.2461 2.447 2.053 3.617-1.078 2.064 0.06836 0.9688 0.8516 0.8477v2.338l1.111 1.494v1.943h0.9648c-5.354 6.583-13.52 10.8-22.65 10.8-16.1 0-29.2-13.1-29.2-29.2 0-4.05 0.8312-7.916 2.326-11.42 0.1605-0.3738 0.3274-0.7425 0.502-1.105-0.1741 0.363-0.341 0.7317-0.498 1.105v1.658l1.209 0.584v2.312l1.336 1.426-0.5723 0.1562 0.4004 0.4004 0.9531 0.1445 0.1191-0.6758-1.117-1.725-0.2188-1.674h0.6543l0.2734 1.723 1.617 2.352-0.4219 0.7617 1.244 1.115-0.2148 0.457 2.549 0.625v-0.4082l1.016 0.1445c0.1319 0.04184 0.5027 0.03447 0.4141 0.1445-5.8e-4 7.19e-4 -0.003311 0.00317-0.003907 0.003906l0.009766-0.001953-0.5156 0.5781 0.8047 0.1465 1.234 0.3379 1.744 1.994 2.236 0.168 0.2168 1.82-1.525 1.066-0.07031 1.623-0.2246 0.998 2.211 2.766 0.0918 0.5059-0.3203 0.04102 0.4004 0.4004s0.7978 0.2168 0.8926 0.2168c0.09664 0 1.797 1.283 1.797 1.283l0.3242 4.555-0.7246 0.04688 0.4277 0.4062 0.5801 0.1621-0.4141 2.307 1.021 1.361-0.1855 2.281 1.342 2.371 1.734 1.508 1.736 0.0332 0.166-0.5566-0.03711-0.03125-0.3633-0.3691-0.0293 0.03516-0.8398-0.7168 0.07031-0.5273 0.2285-0.6602 0.04492-0.6641-0.4004-0.4004-0.123 0.3848-0.3418-0.009765-0.4316-0.541 0.7148-0.6992 0.09766-0.5176-0.4004-0.4004-0.1562 0.2422-0.2461-0.07031 0.04688-0.4883 1.143-0.1719 1.738-0.8301 0.582-1.068 1.82-2.332-0.416-1.82 0.5566-0.9727 1.676 0.05273 1.129-0.8887 0.3672-3.516 1.244-1.588 0.2246-1.018-0.4004-0.4004-0.1484 0.2227-0.5957-0.1934-0.7539-1.234-0.4004-0.4004-0.02539 0.3965-2.141-0.02148-2.039-0.7715-0.09766-1.457-0.6836-1.188-0.4004-0.4004-0.02734 0.3945-1.412-0.02148-1.066-1.674-0.4004-0.4004-0.01172 0.1973-0.5371-0.2637-0.04883 0.5117-1.719 0.1016-0.6328-0.875-0.4004-0.4004-0.03125 0.3125-1.365-0.2754-1.482 1.703-2.324-0.3867-0.1719-2.629-0.4004-0.4004-0.1328 0.3086-1.168-0.1992 0.6855-1.287-0.2012-0.7383-0.4004-0.4004 0.009766 0.6621-1.838 1.232-1.404-0.1738-0.5-1.1 0.3027-1.131 0.7773-1.432 1.781-0.9004h3.445l-0.005859 0.5957-0.4062 0.05273 0.4004 0.3984v0.001953l1.238 0.5801-0.0957-1.793 0.8887-0.9023 1.801-1.182 0.1289-0.8301 1.797-1.873 1.902-1.055-0.166-0.1406 1.291-1.213 0.4746 0.1211 0.2168 0.2734 0.4922-0.543 0.1211-0.05859-0.4004-0.4004-0.6855 0.1465v-0.5234l0.293-0.2383h0.6328l0.293 0.1289 0.001953 0.003906-0.1465 0.1074 0.4004 0.4004 0.3066-0.05078v-0.04492l0.08984 0.03125 0.8945-0.1328 0.1289-0.4434 0.4121 0.1035 0.03125 0.1504 0.06836 0.1074v0.2461l-0.4766 0.3281 0.009766 0.07617-0.3398 0.03906 0.4004 0.4004 1.621 0.5 0.003907 0.01758 0.3711-0.03125 0.02539-0.7031-0.4004-0.4004-0.1035 0.1719-0.7793-0.3516-0.07031-0.3379 1.066-0.3672 0.04492-1.021-0.4004-0.4004-0.07031 0.1152-0.6465-0.3926-0.07031-1.719-0.4004-0.4004-0.1152 0.6523-1.014 0.4961h-0.5566l0.1406-1.311-0.4004-0.4004-0.207 0.2559-1.469-0.3477-0.8633 0.6523v1.986l-1.545 0.4863-0.6191 1.297-0.6777 0.1094v-1.656l-0.4004-0.4004-0.1777 0.3184-0.875-0.123-0.7266-0.4707-0.2949-1.074 2.602-1.523 1.279-0.3867 0.04102 0.2832-0.3145 0.1719 0.4004 0.4004 0.709-0.03125 0.04883-0.4375 0.7461-0.09766 0.009766-0.1543-0.3535-0.3535-0.03711-0.2344 0.916-0.07617 0.5508-0.5781 0.03125-0.03711h0.003906l0.168-0.1738 1.916-0.2422 0.8496 0.7207-1.602 0.8535-1.021-0.06836 0.4004 0.4004 2.824 0.6699 0.3691-0.9453h1.234l0.4395-0.8262-0.4004-0.4004-0.25 0.2344-0.2246-0.05859v-1.039l-0.4004-0.4004-0.07812 0.1895-2.264-1.002-1.891 0.2168-1.064 0.5625 0.07031 1.354-1.119-0.166-0.1719-0.7539 1.072-0.9707-0.4004-0.4004-0.5371 0.3535-1.006-0.04883-0.5547 0.1719-0.06641 0.1797-0.5781 0.07031 0.4004 0.4004 0.7285 0.123-0.1445 0.7285-1.24 0.07617-0.1934 0.4785-1.793 0.05273s-0.04638-1.016-0.123-1.016c-0.07016 0 1.406-0.02734 1.406-0.02734l1.072-1.047-0.4004-0.4004-0.8066 0.4531 0.2812-0.01172-0.4355 0.4258-1.291-0.07813-0.7715-1.064-0.4004-0.4004-0.1797 0.4004h-1.068l-0.8496 0.6309 0.00586-0.02734-1.283 0.2793 0.4004 0.4004h1.578l0.1074 0.3359-0.7676 0.1055 0.4004 0.4004 1.742 0.05078 0.2676 0.6328-1.967-0.07812-0.0957-0.4805-0.4004-0.4004-0.127 0.2832-0.7051-0.1543-0.6602-0.3652-1.469 0.01367c4.817-3.509 10.74-5.584 17.15-5.584zm-18.13 27.87c0.1856-0.2122 0.423-0.4738 0.5059-0.5762l-0.9062 0.1758zm-3.254-1.543-0.6152 0.05664 0.3965 0.4004zm4.922-19.53h1.047v0.457l-0.2988 0.3945h-1.438v-0.6328h0.6387zm10.95 0.707 0.03711 0.03711-0.0332-0.01367zm-9.926 0.875c0.05064 0 0 0.6367 0 0.6367l-1.439 0.08984-0.2734-0.3262 1.021-0.2949s0.6343-0.1055 0.6914-0.1055zm36.67 0.7969c0.4971 0.5301 0.9824 1.08 1.443 1.643l-0.5762 0.8535-2-0.01562-0.127-0.416 1.252-0.6406zm-6.971 0.1621 0.09766 0.4609-0.6543 0.1309-0.2695 0.4141v0.4609l0.459 0.3125 0.6621 0.4141 0.06055 0.4746-0.7109 0.1465-0.05664 0.6035h-0.4355l0.3984 0.4004h0.8496l1.133-0.1094 0.582-0.6895-0.4004-0.4004-0.1543 0.1836-0.06641-0.02539-0.3379-0.3887-0.5117-0.8242-0.2441-1.164zm-0.8691 1.551-0.01758 0.2207-0.1445-0.0625-0.7852 0.1797-0.582 0.9375v0.2012h-0.4004l0.4004 0.4004h0.6758l1.205-0.8398 0.04883-0.6367zm-27.09 0.5801 0.6914 0.168-0.2344 0.9238-0.748 0.2402-0.4688-0.9668zm-10.96 2.115 0.05078 0.5312-1.215 1.477c0.3647-0.6839 0.7487-1.355 1.164-2.008zm12.86 0.0918h1.145v0.3438h0.2578v0.4375h-0.5859l-0.123 0.1641h-0.4355l-0.02539-0.1641h-0.9648l-0.0293 0.05078-0.2402-0.06641 0.166-0.4219zm1.707 0.2539 0.6016 0.543-0.4414 0.1094-0.06836-0.125h-0.0918zm7.982 0.3398-0.1543 0.3281-0.1543 0.001954-0.007813 0.02148-0.2578 0.02148-0.08203 0.4004h-0.6602v0.2266l-0.1797 0.01562-0.02344-0.2109h-0.1973l0.4004 0.4004h0.009766l0.2109 0.2109 0.5195-0.04492 0.3203-0.1973 0.08203-0.4004 0.4141-0.03516 0.1602-0.3379zm-7.982 0.3457h0.02539l-0.02539 0.00586zm-0.3047 0.001954v0.003906h-0.3125zm1.627 0.1484 0.4473 0.2773-0.3555 0.293-0.3594-0.293zm-3.361 0.0918h0.9648l-1.234 1.729-0.5098-0.2734 0.1094-0.7285zm1.549 0h0.9824v0.08984l-0.293-0.04688 0.1172 0.6504-0.2598 0.168-0.09961-0.3203-0.4473 0.1113zm6.242 0.07031-0.0293 0.1973-0.1641 0.2031-0.4746 0.08008 0.4004 0.4004 0.6055-0.05273 0.0625-0.4277zm-5.023 0.5684h0.07812l1.104 0.3242v0.5684h-0.9258l-0.2559-0.3691zm35.38 0.4473c0.242 0.473 0.4661 0.9526 0.6836 1.432l-0.3008-0.007812-0.5684 0.07812v-1.291zm-35.83 0.07617v0.5664l-0.416 0.418h-0.9336l0.1465-0.6328 0.4434-0.03906 0.08789-0.2168z" style="display:none;fill:#000000"/>
 <path d="m38.02 14.24c-6.225 0-11.9 2.402-16.16 6.322-0.9914 0.9151-1.902 1.913-2.725 2.977-3.12 4.035-4.98 9.087-4.98 14.56 0 13.16 10.71 23.86 23.86 23.86 9.259 0 17.29-5.3 21.25-13.02 0.8426-1.649 1.503-3.406 1.944-5.251 0.1154-0.4701 0.2117-0.9395 0.2988-1.418 0.2391-1.352 0.3677-2.747 0.3677-4.17 0-0.08084-0.004394-0.1634-0.004394-0.2446-0.004901-0.699-0.04326-1.395-0.1099-2.074-0.2205-2.272-0.7615-4.453-1.576-6.5-0.0624-0.1484-0.1207-0.3071-0.1831-0.4556-1.083-2.564-2.613-4.899-4.477-6.916-0.1202-0.13-0.2451-0.2582-0.3691-0.3882-0.3544-0.3631-0.7122-0.7238-1.091-1.065-4.241-3.862-9.879-6.221-16.05-6.221zm0 1.967c5.541 0 10.6 2.07 14.46 5.468l-0.2593 0.4629-1.011 0.3984-0.4248 0.4614 0.09522 0.5405 0.5215 0.07324 0.3164 0.7852 0.8965-0.3662 0.148 1.052h-0.2695l-0.7354-0.1099-0.8203 0.1362-0.791 1.124-1.137 0.1772-0.1626 0.9668 0.4805 0.1157-0.1392 0.6226-1.126-0.2241-1.031 0.2241-0.2153 0.5713 0.1787 1.208 0.6035 0.2813 1.015-0.004395 0.6855-0.06152 0.2109-0.5479 1.074-1.39 0.7031 0.145 0.6958-0.627 0.1304 0.4878 1.529 1.034 0.001465 0.05274-0.5566 0.2314-0.4731-0.1055 0.5244 0.5991 0.4731 0.1055 0.5566-0.23-0.01025-0.6724 0.2446-0.123-0.1948-0.2124-1.141-0.6328-0.3032-0.8481h0.9492l0.3018 0.3032 0.8203 0.7031 0.03223 0.8496 0.8438 0.9009 0.3164-1.233 0.5859-0.3193 0.1099 1.011 0.5742 0.627 1.141-0.01758c0.2206 0.5656 0.4171 1.144 0.5889 1.734l-0.1187 0.1099h-1.745l-1.063-0.791-1.122 0.1055v0.6855h-0.3545l-0.3838-0.2739-1.935-0.4922v-1.255l-0.5244-0.6006-0.3823 0.6709-1.553 0.1216-0.7617 0.4116h-0.9785l-0.4805-0.05273-1.184 0.6621v1.235l-2.42 1.746 0.2021 0.7471h0.4937l-0.1289 0.709-0.3457 0.1289-0.01904 1.856 2.089 2.386h0.917l0.05273-0.1494h1.638l0.4717-0.4365h0.9287l0.5083 0.5083 1.384 0.1479-0.1831 1.837 1.54 2.713-0.8086 1.548 0.0498 0.7266 0.6387 0.6343v1.755l0.835 1.121v1.458h0.7222c-4.016 4.937-10.14 8.099-16.98 8.099-12.08 0-21.9-9.825-21.9-21.9 0-3.038 0.6234-5.937 1.745-8.568 0.09034-0.2104 0.1864-0.4169 0.2827-0.6226-0.09575 0.2057-0.1899 0.4122-0.2783 0.6226v1.244l0.9053 0.438v1.734l0.873 1.485 0.7148 0.1099 0.09082-0.5083-0.8379-1.292-0.1641-1.257h0.4893l0.2051 1.293 1.213 1.764-0.3164 0.5698 0.772 1.181 1.912 0.4688v-0.3076l0.7617 0.1099-0.07178 0.5435 0.6035 0.1084 0.9258 0.2549 1.308 1.496 1.679 0.1245 0.1611 1.365-1.144 0.8013-0.05274 1.217-0.1685 0.7471 1.658 2.074 0.1289 0.7119s0.5998 0.1611 0.6709 0.1611c0.07248 0 1.348 0.9639 1.348 0.9639v3.751l0.4541 0.1245-0.3105 1.731 0.7661 1.021-0.1392 1.711 1.006 1.777 1.301 1.131 1.302 0.02637 0.126-0.4189-0.9536-0.8101 0.05273-0.397 0.1714-0.4937 0.03369-0.498-0.6489-0.01904-0.3237-0.4072 0.5376-0.523 0.07178-0.3882-0.6021-0.1729 0.03516-0.3647 0.8584-0.1289 1.302-0.6226 0.438-0.8013 1.365-1.75-0.3135-1.365 0.4189-0.728 1.255 0.03955 0.8481-0.6665 0.2754-2.637 0.9331-1.191 0.1685-0.7646-0.8599-0.2769-0.564-0.9258-1.926-0.01904-1.529-0.5786-0.07178-1.094-0.5142-0.8906-1.378-0.01904-0.8013-1.255-0.7104-0.3501-0.03809 0.3823-1.289 0.07617-0.4746-0.6562-1.348-0.271-1.11 1.277-1.745-0.2915-0.1289-1.97-1.276-0.2183 0.5142-0.9653-0.1509-0.5552-1.671 1.122-1.053-0.1318-0.375-0.8232 0.227-0.8481 0.5845-1.074 1.336-0.6768h2.584l-0.01025 0.7881 0.9302 0.4351-0.07324-1.346 0.6665-0.6753 1.352-0.8862 0.09522-0.624 1.348-1.403 1.428-0.791-0.126-0.1055 0.9697-0.9111 0.3545 0.09228 0.1626 0.2051 0.3691-0.4087 0.09228-0.04248-0.4043-0.05713-0.4102-0.1348v-0.3926l0.2183-0.1772h0.4746l0.2212 0.09522 0.1904 0.3853 0.2314-0.03955v-0.03223l0.06592 0.02344 0.6724-0.09961 0.09522-0.3325 0.3853 0.09522v0.3604l-0.3574 0.2461 0.05273 0.3867 1.214 0.375 0.004395 0.01318 0.2769-0.02344 0.01904-0.5273-0.9624-0.4351-0.05273-0.2549 0.8013-0.2754 0.03223-0.7646-0.8379-0.5083-0.05273-1.289-1.146 0.561h-0.4189l0.1055-0.9829-1.556-0.3691-0.6489 0.4878v1.491l-1.159 0.3647-0.4644 0.9727-0.5083 0.08203v-1.242l-1.09-0.1538-0.5449-0.3545-0.2197-0.8042 1.951-1.143 0.958-0.2915 0.09668 0.6431 0.5303-0.02344 0.03809-0.3281 0.5581-0.07471 0.007324-0.1143-0.2373-0.1025-0.05566-0.3398 0.6885-0.05566 0.4116-0.4336 0.02344-0.02783h0.004395l0.1245-0.1304 1.437-0.1816 0.6372 0.5405-1.666 0.8892 2.117 0.501 0.2769-0.709h0.9258l0.3311-0.6182-0.6563-0.1685v-0.7793l-2.057-0.9097-1.418 0.1611-0.7998 0.4219 0.05273 1.017-0.8394-0.126-0.1289-0.564 0.8042-0.728-1.456-0.07324-0.416 0.1289-0.1846 0.4893 0.5479 0.09082-0.1099 0.5479-0.9302 0.05566-0.1436 0.3604-1.346 0.03809s-0.03479-0.7617-0.09228-0.7617c-0.05262 0 1.055-0.01904 1.055-0.01904l0.8057-0.7852-0.4424-0.2168-0.5801 0.5669-0.9683-0.05859-0.5786-0.7998h-1.236l-1.295 0.9639h1.184l0.1113 0.3486-0.3062 0.2813 1.307 0.03955 0.2007 0.4746-1.474-0.05859-0.07324-0.3618-0.9229-0.2021-0.4966-0.2739-1.102 0.01025c3.613-2.632 8.056-4.188 12.86-4.188zm-12.35 5.098h0.7852v0.3413l-0.2256 0.2974h-1.078v-0.4746h0.479zm0.7676 1.185c0.03798 0 0 0.479 0 0.479l-1.081 0.06592-0.2051-0.2432 0.7661-0.2212s0.4772-0.08057 0.52-0.08057zm27.5 0.5977c0.3728 0.3976 0.7354 0.8114 1.081 1.233l-0.4307 0.6401-1.5-0.01172-0.09668-0.312 0.9404-0.4805zm-4.928 0.4219-0.7192 0.145-0.2007 0.3105v0.3457l0.3428 0.2344 0.4966 0.3105 0.04688 0.356-0.5332 0.1084-0.07031 0.7544h0.6372l0.8496-0.08203 0.4351-0.5171-0.4644-0.1816-0.2549-0.2915-0.3823-0.6196zm-1.075 0.9829-0.5874 0.1348-0.438 0.7031v0.4512h0.5083l0.9023-0.6313 0.03662-0.4761zm-20.19 0.3164 0.5171 0.1245-0.1758 0.6943-0.561 0.1787-0.3516-0.7236zm-8.219 1.586 0.03955 0.3984-0.9126 1.107c0.2736-0.513 0.5615-1.017 0.873-1.506zm9.643 0.06738h0.8569v0.2578h0.1934v0.4512h-1.314l-0.4893-0.1348 0.126-0.3164zm1.279 0.1919 0.4512 0.4058-0.4512 0.1113zm6.006 0.498-0.2505 0.004395-0.1289 0.3311h-0.627v0.3252h0.1494s0.007818 0.06725 0.01758 0.1582l0.3882-0.03369 0.2402-0.1479 0.06299-0.3018 0.3105-0.0249 0.1187-0.2534zm-5.014 0.1289 0.3369 0.2065-0.2681 0.2212-0.2695-0.2212zm-2.521 0.06885h0.7251l-0.9258 1.296-0.3838-0.2051 0.08203-0.5464zm1.162 0h0.7368v0.4351l-0.3267 0.2109-0.4102 0.07617zm4.709 0.1377-0.2051 0.2549-0.02344 0.3193 0.4556-0.03809 0.04688-0.3208zm-3.795 0.3398h0.05859l0.8291 0.2446v0.4263h-0.6958l-0.1919-0.2783zm26.53 0.3369c0.1815 0.3547 0.3511 0.7145 0.5142 1.074l-0.227-0.00586-0.4248 0.05859v-0.9683zm-26.87 0.05566v0.4263l-0.312 0.312h-0.6987l0.1084-0.4746 0.3325-0.0293 0.06592-0.1611z" style="fill:#000000;opacity:.5928"/>
 <path d="m37.5 13.64c-6.225 0-11.91 2.402-16.16 6.322-0.9914 0.9151-1.902 1.913-2.725 2.977-3.12 4.035-4.98 9.086-4.98 14.56 0 13.16 10.71 23.86 23.86 23.86 9.259 0 17.29-5.301 21.25-13.02 0.8426-1.649 1.503-3.407 1.943-5.252 0.1154-0.4701 0.2117-0.9395 0.2988-1.418 0.2391-1.352 0.3672-2.747 0.3672-4.17 0-0.08084-0.0039-0.1629-0.0039-0.2441-0.0049-0.699-0.0428-1.395-0.1094-2.074-0.2205-2.272-0.7614-4.453-1.576-6.5-0.0624-0.1484-0.1212-0.3066-0.1836-0.4551-1.083-2.564-2.613-4.899-4.477-6.916-0.1202-0.13-0.2451-0.2587-0.3691-0.3887-0.3544-0.3631-0.7127-0.7233-1.092-1.064-4.241-3.862-9.878-6.221-16.05-6.221zm0 1.967c5.541 0 10.6 2.07 14.46 5.469l-0.2598 0.4629-1.01 0.3984-0.4258 0.4609 0.0957 0.541 0.5215 0.07226 0.3164 0.7852 0.8965-0.3652 0.1484 1.051h-0.2695l-0.7364-0.1094-0.8203 0.1367-0.791 1.123-1.137 0.1777-0.1621 0.9668 0.4804 0.1152-0.1386 0.623-1.127-0.2246-1.031 0.2246-0.2149 0.5703 0.1778 1.209 0.6035 0.2812 1.016-0.00391 0.6855-0.0625 0.211-0.5469 1.074-1.391 0.7031 0.1445 0.6953-0.627 0.1309 0.4883 1.709 1.156-0.211 0.2754-0.7714-0.03711 0.2988 0.418 0.4726 0.1055 0.5567-0.2305-0.0098-0.6719 0.2442-0.123-0.1954-0.2129-1.141-0.6328-0.3027-0.8476h0.9492l0.3008 0.3027 0.8203 0.7031 0.0332 0.8496 0.8438 0.9004 0.3164-1.232 0.5859-0.3203 0.1094 1.012 0.5742 0.627 1.141-0.01758c0.2206 0.5656 0.4181 1.144 0.5899 1.734l-0.1192 0.1094h-1.744l-1.064-0.791-1.121 0.1055v0.6855h-0.3554l-0.3828-0.2734-1.936-0.4922v-1.256l-2.459 0.1914-0.7617 0.4121h-0.9785l-0.4805-0.05274-1.184 0.6621v1.234l-2.42 1.746 0.2012 0.748h0.4941l-0.1289 0.709-0.3457 0.1289-0.0195 1.855 2.09 2.387h0.916l0.0528-0.1504h1.639l0.4707-0.4356h0.9297l0.5078 0.5078 1.385 0.1484-0.1836 1.836 1.539 2.713-0.8086 1.549 0.0508 0.7266 0.6386 0.6348v1.754l0.834 1.121v1.457h0.7227c-4.016 4.937-10.14 8.1-16.98 8.1-12.08 0-21.9-9.825-21.9-21.9 0-3.038 0.6229-5.938 1.744-8.568 0.2408-0.5607 0.5029-1.104 0.7852-1.635 0.2736-0.513 0.5615-1.017 0.8731-1.506l0.03906 0.3984-0.9121 1.107c-0.2823 0.5311-0.5457 1.074-0.7812 1.635v1.244l0.9062 0.4375v1.734l0.873 1.486 0.7148 0.1094 0.08985-0.5078-0.8379-1.293-0.1641-1.256h0.4902l0.2051 1.293 1.213 1.764-0.3164 0.5703 0.7715 1.18 1.912 0.4688v-0.3066l0.7617 0.1094-0.07226 0.543 0.6035 0.1094 0.9258 0.2539 1.309 1.496 1.678 0.125 0.1621 1.365-1.145 0.8008-0.05273 1.217-0.168 0.748 1.658 2.074 0.1289 0.7109s0.5988 0.1621 0.6699 0.1621c0.07248 0 1.348 0.9629 1.348 0.9629v3.752l0.4551 0.125-0.3105 1.73 0.7656 1.021-0.1387 1.711 1.006 1.777 1.301 1.131 1.303 0.02539 0.125-0.418-0.9531-0.8105 0.05273-0.3965 0.1719-0.4941 0.0332-0.498-0.6484-0.01953-0.3242-0.4062 0.5371-0.5234 0.07227-0.3887-0.6016-0.1719 0.03515-0.3652 0.8574-0.1289 1.303-0.623 0.4375-0.8008 1.365-1.75-0.3125-1.365 0.418-0.7285 1.256 0.03906 0.8477-0.666 0.2754-2.637 0.9336-1.191 0.168-0.7637-0.8594-0.2773-0.5645-0.9258-1.926-0.01953-1.529-0.5781-0.07227-1.094-0.5137-0.8906-1.379-0.01953-0.8008-1.256-0.7109-0.3496-0.03711 0.3828-1.289 0.07617-0.4746-0.6562-1.348-0.2715-1.111 1.277-1.744-0.291-0.1289-1.971-1.275-0.2188 0.5137-0.9648-0.1504-0.5547-1.672 1.121-1.053-0.1309-0.375-0.8242 0.2266-0.8476 0.584-1.074 1.336-0.6758h2.584l-0.00976 0.7871 0.9297 0.4355-0.07226-1.346 0.666-0.6758 1.352-0.8867 0.0957-0.6231 1.348-1.404 1.428-0.791-0.125-0.1055 0.9688-0.9102 0.3555 0.09179 0.1621 0.2051 0.3691-0.4082 0.0918-0.04297-0.4043-0.05664-0.4102-0.1348v-0.3926l0.2188-0.1777h0.4746l0.2207 0.0957 0.1914 0.3848 0.2305-0.03906v-0.03321l0.06641 0.02344 0.6719-0.09961 0.0957-0.332 0.3848 0.0957v0.3594l-0.3574 0.2461 0.05273 0.3867 1.215 0.375 0.0039 0.01367 0.2774-0.02344 0.01953-0.5273-0.9629-0.4355-0.05274-0.2539 0.8008-0.2754 0.03321-0.7656-0.8379-0.5078-0.05274-1.289-1.146 0.5605h-0.418l0.1055-0.9824-1.557-0.3691-0.6484 0.4883v1.49l-1.158 0.3652-0.4648 0.9727-0.5078 0.08203v-1.242l-1.09-0.1543-0.5449-0.3535-0.2207-0.8047 1.951-1.143 0.959-0.291 0.0957 0.6426 0.5312-0.02344 0.03711-0.3281 0.5586-0.07421 0.00782-0.1152-0.2383-0.1016-0.05468-0.3398 0.6875-0.05664 0.4121-0.4336 0.02343-0.02734h0.00391l0.125-0.1309 1.438-0.1816 0.6367 0.541-1.666 0.8887 2.117 0.502 0.2773-0.709h0.9258l0.3301-0.6191-0.6562-0.168v-0.7793l-2.057-0.9102-1.418 0.1621-0.7988 0.4219 0.05273 1.016-0.8398-0.125-0.1289-0.5645 0.8047-0.7285-1.457-0.07227-0.416 0.1289-0.1836 0.4883 0.5469 0.0918-0.1094 0.5469-0.9297 0.05664-0.1445 0.3594-1.346 0.03906s-0.0343-0.7617-0.0918-0.7617c-0.05262 0 1.055-0.01953 1.055-0.01953l0.8047-0.7852-0.4414-0.2168-0.5801 0.5664-0.9688-0.0586-0.5781-0.7988h-1.236l-1.295 0.9629h1.184l0.1113 0.3496-0.3066 0.2813 1.307 0.03907 0.2012 0.4746-1.475-0.0586-0.07227-0.3613-0.9238-0.2031-0.4961-0.2734-1.102 0.009769c3.613-2.632 8.056-4.188 12.86-4.188zm-12.35 5.098h0.7852v0.3418l-0.2246 0.2969h-1.078v-0.4746h0.4785zm0.7676 1.186c0.03798 0 0 0.4785 0 0.4785l-1.08 0.0664-0.2051-0.2441 0.7656-0.2207s0.4767-0.08008 0.5195-0.08008zm27.5 0.5977c0.3728 0.3976 0.7363 0.8104 1.082 1.232l-0.4316 0.6406-1.5-0.01172-0.0957-0.3125 0.9394-0.4805zm-4.928 0.4219-0.7187 0.1445-0.2012 0.3106v0.3457l0.3438 0.2344 0.4961 0.3105 0.0468 0.3555-0.5332 0.1094-0.0703 0.7539h0.6367l0.8497-0.08203 0.4355-0.5176-0.4648-0.1816-0.254-0.291-0.3828-0.6191zm-1.074 0.9824-0.5879 0.1348-0.4375 0.7031v0.4512h0.5078l0.9024-0.6309 0.0371-0.4766zm-20.2 0.3164 0.5176 0.125-0.1758 0.6934-0.5605 0.1797-0.3516-0.7246zm1.424 1.654h0.8574v0.2578h0.1934v0.4512h-1.314l-0.4883-0.1348 0.125-0.3164zm1.279 0.1914 0.4512 0.4062-0.4512 0.1113zm6.006 0.498-0.25 0.003909-0.1289 0.332h-0.627v0.3242h0.1484s0.00782 0.06725 0.01758 0.1582l0.3887-0.0332 0.2402-0.1484 0.0625-0.3008 0.3105-0.02539 0.1191-0.2539zm-5.014 0.1289 0.3359 0.207-0.2676 0.2207-0.2695-0.2207zm-2.521 0.06835h0.7246l-0.9258 1.297-0.3828-0.2051 0.08203-0.5469zm1.162 0h0.7363v0.4356l-0.3262 0.2109-0.4102 0.07617zm4.709 0.1387-0.2051 0.2539-0.02343 0.3203 0.4551-0.03907 0.04688-0.3203zm-3.795 0.3398h0.05859l0.8281 0.2441v0.4258h-0.6953l-0.1914-0.2773zm26.53 0.3359c0.1815 0.3547 0.3505 0.7149 0.5136 1.074l-0.2265-0.00586-0.4258 0.05859v-0.9688zm-26.87 0.05664v0.4258l-0.3125 0.3125h-0.6992l0.1094-0.4746 0.332-0.0293 0.06641-0.1621z" style="fill:url(#linearGradient5945-2)"/>
 <path d="m21.63 19.71c-0.09347 0.08345-0.1906 0.1626-0.2827 0.2476-0.01574 0.01453-0.02974 0.0308-0.04541 0.04541 0.01545-0.01434 0.02992-0.02965 0.04541-0.04395 0.0923-0.08511 0.1891-0.1654 0.2827-0.249z" style="fill:#ff0000"/>
 <path d="m54.65 20.93c0.1202 0.1259 0.2409 0.2505 0.3574 0.3765 1.864 2.017 3.393 4.353 4.477 6.917 0.0624 0.1485 0.1207 0.3057 0.1831 0.4541 0.8147 2.047 1.356 4.229 1.576 6.501 0.0666 0.6795 0.105 1.375 0.1099 2.074 0 0.0812 0.002929 0.1623 0.002929 0.2432 0 1.423-0.1271 2.818-0.3662 4.17-0.0871 0.4785-0.1834 0.9479-0.2988 1.418-0.4405 1.845-1.101 3.602-1.944 5.251-3.959 7.721-11.99 13.02-21.25 13.02-6.419 0-12.25-2.553-16.54-6.691 0.2011 0.2086 0.4066 0.4142 0.6152 0.6152 0.2028 0.2101 0.408 0.4157 0.6182 0.6182 0.2028 0.2101 0.4092 0.4172 0.6196 0.6196 0.2025 0.2101 0.4077 0.4157 0.6182 0.6182 0.2025 0.2105 0.4095 0.4168 0.6196 0.6196 0.2025 0.2098 0.4084 0.4172 0.6182 0.6196 0.2028 0.2101 0.4095 0.4154 0.6196 0.6182 0.2025 0.2101 0.4095 0.4172 0.6196 0.6196 0.2028 0.2101 0.4077 0.4157 0.6182 0.6182 0.2025 0.2101 0.4095 0.4172 0.6196 0.6196 0.2028 0.2105 0.408 0.4172 0.6182 0.6196 0.2028 0.2101 0.4095 0.4154 0.6196 0.6182 0.2025 0.2101 0.4095 0.4168 0.6196 0.6196 0.2025 0.2101 0.408 0.4157 0.6182 0.6182 0.2028 0.2101 0.4095 0.4172 0.6196 0.6196 0.2028 0.2101 0.408 0.4157 0.6182 0.6182 0.2025 0.2101 0.4095 0.4172 0.6196 0.6196 0.2025 0.2104 0.4095 0.4168 0.6196 0.6196 0.2025 0.21 0.408 0.4154 0.6182 0.6182 0.2025 0.2102 0.4095 0.4172 0.6196 0.6196 0.2028 0.2102 0.408 0.4157 0.6182 0.6182 0.2028 0.2102 0.4092 0.4172 0.6196 0.6196 0.2025 0.2102 0.408 0.4156 0.6182 0.6182 0.2025 0.2104 0.4095 0.4168 0.6196 0.6196 0.2025 0.2097 0.4084 0.4168 0.6182 0.6196 0.2028 0.2098 0.4095 0.4154 0.6196 0.6182 0.2025 0.2102 0.4095 0.4172 0.6196 0.6196 0.2028 0.2102 0.408 0.4156 0.6182 0.6182 0.2028 0.21 0.4095 0.4172 0.6196 0.6196 0.2028 0.2102 0.408 0.4157 0.6182 0.6182 0.2028 0.2102 0.4095 0.4168 0.6196 0.6196 0.2025 0.2102 0.408 0.4168 0.6182 0.6196 0.115 0.1191 0.2345 0.2333 0.3516 0.3501 17.83-1.704 32.01-15.89 33.72-33.72-0.1209-0.1216-0.2414-0.2441-0.3647-0.3633l-0.01172-0.01318c-0.1983-0.2059-0.4005-0.4071-0.6064-0.6064l-0.01172-0.01172c-0.1986-0.2056-0.402-0.4089-0.6079-0.6079l-0.01172-0.01172c-0.1986-0.2059-0.402-0.4071-0.6079-0.6064l-0.01025-0.01172c-0.1983-0.2059-0.402-0.4086-0.6079-0.6079l-0.01172-0.01172c-0.1986-0.2059-0.402-0.4071-0.6079-0.6064l-0.01025-0.01318c-0.1986-0.2056-0.402-0.4075-0.6079-0.6064l-0.01172-0.01172c-0.1983-0.2059-0.402-0.4075-0.6079-0.6064l-0.01172-0.01318c-0.1986-0.2059-0.4005-0.4071-0.6064-0.6064l-0.01172-0.01172c-0.1986-0.2056-0.402-0.4086-0.6079-0.6079l-0.01172-0.01172c-0.1986-0.2059-0.4005-0.4071-0.6064-0.6064l-0.01172-0.01172c-0.1983-0.2059-0.4023-0.4089-0.6079-0.6079l-0.01172-0.01172c-0.1986-0.2056-0.4005-0.4075-0.6064-0.6064l-0.01172-0.01318c-0.1986-0.2056-0.4016-0.4075-0.6079-0.6064l-0.01172-0.01172c-0.1986-0.2059-0.402-0.4086-0.6079-0.6079l-0.01172-0.01172c-0.1986-0.2056-0.4005-0.4071-0.6064-0.6064l-0.01172-0.01172c-0.1986-0.2059-0.402-0.4086-0.6079-0.6079l-0.01172-0.01172c-0.1983-0.2059-0.4008-0.4075-0.6064-0.6064l-0.01172-0.01318c-0.1986-0.2056-0.402-0.4071-0.6079-0.6064l-0.01172-0.01172c-0.1986-0.2056-0.4005-0.4075-0.6064-0.6064l-0.01318-0.01318c-0.1983-0.2059-0.4005-0.4071-0.6064-0.6064l-0.01172-0.01172c-0.1986-0.2056-0.402-0.4071-0.6079-0.6064l-0.01172-0.01318c-0.1986-0.2059-0.4005-0.4071-0.6064-0.6064l-0.01172-0.01172c-0.1986-0.2059-0.402-0.4086-0.6079-0.6079l-0.01172-0.01172c-0.1986-0.2059-0.4005-0.4071-0.6064-0.6064l-0.01172-0.01318c-0.1986-0.2056-0.402-0.4075-0.6079-0.6064l-0.01172-0.01172c-0.1983-0.2059-0.402-0.4071-0.6079-0.6064l-0.01025-0.01318c-0.1983-0.2056-0.402-0.4071-0.6079-0.6064l-0.01172-0.01172c-0.1986-0.2059-0.402-0.4075-0.6079-0.6064l-0.01025-0.01318c-0.1986-0.2059-0.402-0.4071-0.6079-0.6064l-0.01172-0.01172c-0.1983-0.2059-0.402-0.4075-0.6079-0.6064l-0.01172-0.01318c-0.1986-0.2056-0.4005-0.4075-0.6064-0.6064l-0.01172-0.01172c-0.1986-0.2056-0.4016-0.4089-0.6079-0.6079z" style="fill:url(#linearGradient14965)"/>
</svg>
