<?xml version="1.0" encoding="UTF-8" standalone="no"?>
<svg xmlns:dc="http://purl.org/dc/elements/1.1/" xmlns:cc="http://creativecommons.org/ns#" xmlns:rdf="http://www.w3.org/1999/02/22-rdf-syntax-ns#" xmlns:svg="http://www.w3.org/2000/svg" xmlns="http://www.w3.org/2000/svg" xmlns:xlink="http://www.w3.org/1999/xlink" xmlns:sodipodi="http://sodipodi.sourceforge.net/DTD/sodipodi-0.dtd" xmlns:inkscape="http://www.inkscape.org/namespaces/inkscape" version="1.1" viewBox="0 0 100 78.12" id="svg72" sodipodi:docname="i66.svg" inkscape:version="0.92.2 (5c3e80d, 2017-08-06)">
  <metadata id="metadata76">
    <rdf:RDF>
      <cc:Work rdf:about="">
        <dc:format>image/svg+xml</dc:format>
        <dc:type rdf:resource="http://purl.org/dc/dcmitype/StillImage" />
        <dc:title></dc:title>
      </cc:Work>
    </rdf:RDF>
  </metadata>
  <sodipodi:namedview pagecolor="#ffffff" bordercolor="#666666" borderopacity="1" objecttolerance="10" gridtolerance="10" guidetolerance="10" inkscape:pageopacity="0" inkscape:pageshadow="2" inkscape:window-width="2560" inkscape:window-height="1001" id="namedview74" showgrid="false" inkscape:snap-global="false" inkscape:zoom="4.2723296" inkscape:cx="17.283426" inkscape:cy="-2.3764639" inkscape:window-x="-9" inkscape:window-y="41" inkscape:window-maximized="1" inkscape:current-layer="svg72" />
  <defs id="defs15">
    <linearGradient id="linearGradientSlvr" x1="0" x2="0" y1="794.40002" y2="828" gradientUnits="userSpaceOnUse">
      <stop style="stop-color:#696969" offset="0" id="stop2" />
      <stop style="stop-color:#c7c7c9" offset=".17" id="stop4" />
      <stop style="stop-color:#f9f9ff" offset=".36" id="stop6" />
      <stop style="stop-color:#ccccce" offset=".73" id="stop8" />
      <stop style="stop-color:#696969" offset="1" id="stop10" />
    </linearGradient>
    <linearGradient id="linearGradient41064" x1="63.99" x2="125.7" y1="379.8" y2="379.8" gradientUnits="userSpaceOnUse" xlink:href="#linearGradientSlvr" gradientTransform="matrix(0.7812,0,0,-0.7812,0,345.3)" />
    <linearGradient inkscape:collect="always" xlink:href="#linearGradientSlvr" id="linearGradient919" x1="53.589226" y1="40.855423" x2="94.071007" y2="40.855423" gradientUnits="userSpaceOnUse" />
    <linearGradient inkscape:collect="always" xlink:href="#linearGradientSlvr" id="linearGradient927" x1="56.246399" y1="62.5056" x2="92.181602" y2="62.5056" gradientUnits="userSpaceOnUse" />
    <linearGradient inkscape:collect="always" xlink:href="#linearGradientSlvr" id="linearGradient935" x1="0.9656179" y1="62.5056" x2="48.8381" y2="62.5056" gradientUnits="userSpaceOnUse" />
    <linearGradient inkscape:collect="always" xlink:href="#linearGradientSlvr" id="linearGradient860" x1="14.0616" y1="7.8216" x2="37.497601" y2="7.8216" gradientUnits="userSpaceOnUse" />
  </defs>
  <path inkscape:connector-curvature="0" id="path17" style="fill:#e8e7e6;stroke-width:0.78119999" d="M 84.3696,14.0712 H 64.0584 C 63.19908,14.0712 62.496,13.36812 62.496,12.5088 V 3.1344 C 62.496,2.27508 63.19908,1.572 64.0584,1.572 H 84.3696 C 85.22892,1.572 85.932,2.27508 85.932,3.1344 V 12.5088 C 85.932,13.36812 85.22892,14.0712 84.3696,14.0712" />
  <path inkscape:connector-curvature="0" id="path19" style="fill:url(#linearGradient860);stroke-width:0.78119999;fill-opacity:1" d="M 35.9352,14.0712 H 15.624 C 14.76468,14.0712 14.0616,13.36812 14.0616,12.5088 V 3.1344 C 14.0616,2.27508 14.76468,1.572 15.624,1.572 H 35.9352 C 36.79452,1.572 37.4976,2.27508 37.4976,3.1344 V 12.5088 C 37.4976,13.36812 36.79452,14.0712 35.9352,14.0712" />
  <path inkscape:connector-curvature="0" id="path21" style="fill:url(#linearGradient935);fill-opacity:1;stroke-width:0.78119999" d="M 42.1848,67.1928 H 9.3744 C 7.1881424,66.451997 7.812,64.55223 7.812,62.5056 9.3570229,59.398761 6.3342806,54.353152 6.1115769,54.452131 5.9590714,53.232087 0.91661152,50.336847 0.98893354,48.534725 1.0801244,46.26243 3.9250051,45.027532 7.1989859,44.642714 10.284194,38.161556 5.8073592,28.398617 9.8510643,23.309882 L 41.873644,24.137424 C 42.520652,24.154144 43.788796,40.632439 44.085756,44.030333 44.382716,47.428226 49.872465,43.16146 49.242714,49.078849 47.660072,52.467572 44.837994,53.783497 43.818399,55.427787 43.791855,59.140933 43.7472,61.858376 43.7472,62.5056 V 65.6304 C 43.7472,66.48972 43.044432,67.1928 42.1848,67.1928" sodipodi:nodetypes="ccccsccscccssc" />
  <path inkscape:connector-curvature="0" id="path23" style="fill:url(#linearGradient927);stroke-width:0.78119999;fill-opacity:1" d="M 90.6192,67.1928 H 57.8088 C 56.94948,67.1928 56.2464,66.48972 56.2464,65.6304 V 62.5056 C 56.2464,59.916703 58.344703,57.8184 60.9336,57.8184 H 87.4944 C 90.083297,57.8184 92.1816,59.916703 92.1816,62.5056 V 65.6304 C 92.1816,66.48972 91.47852,67.1928 90.6192,67.1928" />
  <path inkscape:connector-curvature="0" id="path25" style="fill:#290a43;stroke-width:0.78119999;fill-opacity:1" d="M 42.1848,67.1928 V 65.6304 H 9.3744 V 62.5056 C 9.3753374,61.637687 9.7216434,60.866642 10.289966,60.296366 10.860321,59.728434 11.632068,59.381581 12.4992,59.3808 H 39.06 C 39.927913,59.381581 40.698958,59.728434 41.269234,60.296366 41.837166,60.866642 42.183238,61.637687 42.1848,62.5056 V 68.7552 C 43.913596,68.749732 45.304132,67.359977 45.3096,65.6304 V 62.5056 C 45.308663,59.053477 42.512123,56.257562 39.06,56.256 H 12.4992 C 9.0470772,56.257562 6.2503812,59.053477 6.2496,62.5056 V 65.6304 C 6.2557012,67.359977 7.6456044,68.749732 9.3744,68.7552 H 42.1848 V 67.1928" />
  <path inkscape:connector-curvature="0" id="path27" style="fill:#290a43;stroke-width:0.78119999;fill-opacity:1" d="M 9.3744,51.5688 V 50.0064 H 3.1248 V 46.8816 H 9.3744 V 53.1312 C 11.100852,53.130419 12.498419,51.732852 12.4992,50.0064 V 46.8816 C 12.498263,45.155148 11.100852,43.757581 9.3744,43.7568 H 3.1248 C 1.398348,43.757581 7.812e-4,45.155148 0,46.8816 V 50.0064 C 9.155664e-4,51.732852 1.398348,53.130419 3.1248,53.1312 H 9.3744 V 51.5688" />
  <path inkscape:connector-curvature="0" id="path29" style="fill:#290a43;stroke-width:0.78119999;fill-opacity:1" d="M 48.4344,51.5688 V 50.0064 H 42.1848 V 46.8816 H 48.4344 V 53.1312 C 50.160852,53.130419 51.558419,51.732852 51.5592,50.0064 V 46.8816 C 51.558263,45.155148 50.160852,43.757581 48.4344,43.7568 H 42.1848 C 40.458348,43.757581 39.060781,45.155148 39.06,46.8816 V 50.0064 C 39.060937,51.732852 40.458348,53.130419 42.1848,53.1312 H 48.4344 V 51.5688" />
  <path inkscape:connector-curvature="0" id="path31" style="fill:#290a43;stroke-width:0.78119999;fill-opacity:1" d="M 21.8736,42.1944 H 29.6856 C 30.548826,42.1944 31.248,41.495226 31.248,40.632 31.248,39.769555 30.548592,39.0696 29.6856,39.0696 H 21.8736 C 21.010374,39.0696 20.3112,39.769555 20.3112,40.632 20.3112,41.495226 21.010608,42.1944 21.8736,42.1944" />
  <path inkscape:connector-curvature="0" id="path33" style="fill:#290a43;stroke-width:0.78119999;fill-opacity:1" d="M 3.9247488,51.33444 C 3.9152885,51.396936 3.8621903,51.755507 3.8618856,52.30469 3.862495,52.811689 3.9070468,53.48274 4.0901523,54.233473 4.2281122,54.795937 4.4453639,55.405273 4.7901856,56.009141 5.302809,56.915333 6.1252564,57.804338 7.2900256,58.420705 8.4540136,59.041759 9.9218884,59.388612 11.717867,59.387831 12.581093,59.387831 13.280267,58.688657 13.280267,57.825431 13.280267,56.962986 12.580859,56.263031 11.717867,56.263031 10.471072,56.263031 9.5969092,56.052107 8.9805424,55.771656 8.5169783,55.560732 8.189968,55.311529 7.9313908,55.039672 7.5481341,54.633448 7.3125242,54.153791 7.1687834,53.655385 7.0256675,53.161667 6.9856701,52.660918 6.986295,52.303909 6.986295,52.133608 6.9948414,51.996116 7.0024659,51.909403 L 7.0119262,51.818784 V 51.817222 C 7.1449646,50.964932 6.5617988,50.165765 5.7088846,50.03218 4.8565954,49.899376 4.0574278,50.482151 3.9238426,51.33444" />
  <path inkscape:connector-curvature="0" id="path35" style="fill:#290a43;stroke-width:0.78119999;fill-opacity:1" d="M 44.340912,51.64692 44.379035,51.645358 H 44.3406 L 44.340912,51.64692 44.379035,51.645358 H 44.3406 C 44.340912,51.710197 44.334194,52.071112 44.237091,52.546862 44.091865,53.268691 43.746419,54.206912 43.01295,54.924054 42.642739,55.286531 42.172379,55.612291 41.513046,55.863056 40.85426,56.11304 39.998299,56.284904 38.871809,56.284904 38.008583,56.284904 37.309409,56.98486 37.309409,57.847304 37.309409,58.71053 38.008817,59.409704 38.871809,59.409704 40.796686,59.411267 42.373147,59.00973 43.612131,58.330086 44.540977,57.823087 45.268275,57.166098 45.808084,56.474736 46.621313,55.434178 47.025193,54.335029 47.236117,53.455398 47.445791,52.572642 47.464696,51.896904 47.465321,51.645358 L 47.463759,51.54927 C 47.436886,50.686825 46.715838,50.009525 45.853706,50.036086 44.991261,50.063428 44.313961,50.784475 44.341303,51.64692" />
  <path inkscape:connector-curvature="0" id="path37" style="fill:#290a43;stroke-width:0.78119999;fill-opacity:1" d="M 14.0616,67.1928 V 76.5672 C 14.0616,77.430426 14.761008,78.1296 15.624,78.1296 16.486992,78.1296 17.1864,77.430426 17.1864,76.5672 V 67.1928 C 17.1864,66.330355 16.486992,65.6304 15.624,65.6304 14.761008,65.6304 14.0616,66.330355 14.0616,67.1928" />
  <path inkscape:connector-curvature="0" id="path39" style="fill:#290a43;stroke-width:0.78119999;fill-opacity:1" d="M 18.7488,75.0048 H 10.9368 C 10.073574,75.0048 9.3744,75.704755 9.3744,76.5672 9.3744,77.430426 10.073808,78.1296 10.9368,78.1296 H 18.7488 C 19.612026,78.1296 20.3112,77.430426 20.3112,76.5672 20.3112,75.704755 19.611792,75.0048 18.7488,75.0048" />
  <path inkscape:connector-curvature="0" id="path41" style="fill:#290a43;stroke-width:0.78119999;fill-opacity:1" d="M 34.3728,67.1928 V 76.5672 C 34.3728,77.430426 35.072208,78.1296 35.9352,78.1296 36.798192,78.1296 37.4976,77.430426 37.4976,76.5672 V 67.1928 C 37.4976,66.330355 36.798192,65.6304 35.9352,65.6304 35.072208,65.6304 34.3728,66.330355 34.3728,67.1928" />
  <path inkscape:connector-curvature="0" id="path43" style="fill:#290a43;stroke-width:0.78119999;fill-opacity:1" d="M 32.8104,78.1296 H 40.6224 C 41.485626,78.1296 42.1848,77.430426 42.1848,76.5672 42.1848,75.704755 41.485392,75.0048 40.6224,75.0048 H 32.8104 C 31.947174,75.0048 31.248,75.704755 31.248,76.5672 31.248,77.430426 31.947408,78.1296 32.8104,78.1296" />
  <path inkscape:connector-curvature="0" id="path45" style="fill:#290a43;stroke-width:0.78119999;fill-opacity:1" d="M 45.3096,45.3192 V 28.1328 C 45.303819,24.685364 42.507436,21.88945 39.06,21.8832 H 12.4992 C 9.0517644,21.88945 6.2550684,24.685364 6.2496,28.1328 V 45.3192 C 6.2496,46.182426 6.9490084,46.8816 7.812,46.8816 8.675226,46.8816 9.3744,46.182426 9.3744,45.3192 V 28.1328 C 9.3747125,27.275042 9.7222684,26.500873 10.293872,25.927472 10.867508,25.356415 11.641442,25.008781 12.4992,25.008 H 39.06 C 39.917758,25.008781 40.691927,25.356415 41.265328,25.927472 41.836619,26.500873 42.184019,27.275042 42.1848,28.1328 V 45.3192 C 42.1848,46.182426 42.884208,46.8816 43.7472,46.8816 44.610192,46.8816 45.3096,46.182426 45.3096,45.3192" />
  <path inkscape:connector-curvature="0" id="path47" style="fill:url(#linearGradient919);stroke-width:0.78119999;fill-opacity:1" d="M 59.386824,45.78792 59.1834,51.178981 53.589226,51.280693 55.318022,56.671755 90.917306,57.078604 94.07101,52.196104 89.391622,51.687542 88.781349,45.279359 H 91.832716 L 91.324233,24.632243 57.146733,24.93738 56.332723,45.076716 Z" />
  <path inkscape:connector-curvature="0" id="path49" style="fill:#100f0d;stroke-width:1.04133964" d="M 60.932038,21.738912 C 57.485204,21.74516 54.690248,24.540116 54.684,27.98695 V 43.607044 H 51.559981 C 49.834481,43.607825 48.437004,45.004522 48.435962,46.731063 V 49.855082 C 48.4369,51.581623 49.834481,52.978059 51.559981,52.9791 H 52.338903 C 52.372434,53.315557 52.428458,53.68138 52.523949,54.073548 52.661823,54.635872 52.878838,55.245055 53.223625,55.849032 53.736173,56.754998 54.558623,57.64326 55.72284,58.258692 55.834264,58.318153 55.96162,58.36293 56.07877,58.417392 55.206857,59.491013 54.683375,60.859334 54.683375,62.350532 V 65.474551 C 54.689623,67.203174 56.07877,68.593363 57.807394,68.59857 H 90.609591 C 92.338215,68.593363 93.727362,67.203174 93.73361,65.474551 V 62.350532 C 93.733298,60.71667 93.100163,59.234844 92.073715,58.121652 92.9827,57.617956 93.699246,56.972013 94.231371,56.290977 95.044448,55.250679 95.448697,54.152065 95.659047,53.273175 95.686122,53.159044 95.688205,53.085005 95.710073,52.978267 H 96.857629 C 98.58417,52.977486 99.980606,51.58079 99.981648,49.854248 V 46.73023 C 99.980919,45.003689 98.58417,43.607252 96.857629,43.606211 H 93.73361 V 27.986117 C 93.723197,24.539283 90.932407,21.744327 87.485573,21.738079 Z M 60.932038,24.862931 H 87.486197 C 88.344574,24.863712 89.117977,25.211363 89.690713,25.782226 90.262409,26.355483 90.609279,27.129719 90.610008,27.986742 V 43.606836 C 88.883467,43.607617 87.48703,45.004313 87.485989,46.730854 V 49.854873 C 87.486822,51.581414 88.883467,52.977851 90.610008,52.978892 H 92.496915 C 92.302601,53.570581 91.975829,54.216004 91.436832,54.74188 91.066635,55.104266 90.595013,55.428748 89.936261,55.679502 89.277093,55.929424 88.422153,56.102494 87.296465,56.102494 H 60.929747 C 60.757197,56.102578 60.586209,56.115199 60.417199,56.128944 60.329727,56.113533 60.241213,56.102494 60.148742,56.102494 58.902258,56.102494 58.027533,55.890686 57.41106,55.610253 56.947664,55.399382 56.619746,55.149877 56.36139,54.878087 55.977864,54.471965 55.744292,53.993365 55.600691,53.495188 55.549666,53.319618 55.524673,53.149151 55.496557,52.97858 H 57.805207 C 59.530707,52.977799 60.928185,51.581102 60.929226,49.854561 V 46.730542 C 60.928289,45.004001 59.530707,43.607565 57.805207,43.606523 V 27.986429 C 57.80552,27.128886 58.151348,26.35465 58.722523,25.781913 59.295989,25.211051 60.071058,24.863348 60.929122,24.862619 Z M 51.559981,46.731063 H 57.808019 V 49.855082 H 51.559981 Z M 90.610216,46.731063 H 96.858254 V 49.855082 H 90.610216 Z M 60.932038,59.227138 H 87.486197 C 88.353946,59.227919 89.125266,59.574633 89.694879,60.142371 90.262721,60.712505 90.609383,61.483617 90.610112,62.351053 V 65.475071 H 57.807915 V 62.351053 C 57.808852,61.483408 58.153327,60.711984 58.721169,60.142371 59.291303,59.574633 60.064498,59.227867 60.931933,59.227138 Z" />
  <path inkscape:connector-curvature="0" id="path51" style="fill:#100f0d;stroke-width:0.78119999" d="M 70.308,42.1944 H 78.12 C 78.983226,42.1944 79.6824,41.495226 79.6824,40.632 79.6824,39.769555 78.983226,39.0696 78.12,39.0696 H 70.308 C 69.444774,39.0696 68.7456,39.769555 68.7456,40.632 68.7456,41.495226 69.445008,42.1944 70.308,42.1944" />
  <path inkscape:connector-curvature="0" id="path53" style="fill:#100f0d;stroke-width:0.78119999" d="M 62.496,67.1928 V 76.5672 C 62.496,77.430426 63.195408,78.1296 64.0584,78.1296 64.921392,78.1296 65.6208,77.430426 65.6208,76.5672 V 67.1928 C 65.6208,66.330355 64.921392,65.6304 64.0584,65.6304 63.195408,65.6304 62.496,66.330355 62.496,67.1928" />
  <path inkscape:connector-curvature="0" id="path55" style="fill:#100f0d;stroke-width:0.78119999" d="M 67.1832,75.0048 H 59.3712 C 58.507974,75.0048 57.8088,75.704755 57.8088,76.5672 57.8088,77.430426 58.508208,78.1296 59.3712,78.1296 H 67.1832 C 68.046426,78.1296 68.7456,77.430426 68.7456,76.5672 68.7456,75.704755 68.046192,75.0048 67.1832,75.0048" />
  <path inkscape:connector-curvature="0" id="path57" style="fill:#100f0d;stroke-width:0.78119999" d="M 82.8072,67.1928 V 76.5672 C 82.8072,77.430426 83.506374,78.1296 84.3696,78.1296 85.232826,78.1296 85.932,77.430426 85.932,76.5672 V 67.1928 C 85.932,66.330355 85.232826,65.6304 84.3696,65.6304 83.506374,65.6304 82.8072,66.330355 82.8072,67.1928" />
  <path inkscape:connector-curvature="0" id="path59" style="fill:#100f0d;stroke-width:0.78119999" d="M 81.2448,78.1296 H 89.0568 C 89.920026,78.1296 90.6192,77.430426 90.6192,76.5672 90.6192,75.704755 89.920026,75.0048 89.0568,75.0048 H 81.2448 C 80.381574,75.0048 79.6824,75.704755 79.6824,76.5672 79.6824,77.430426 80.381574,78.1296 81.2448,78.1296" />
  <path inkscape:connector-curvature="0" id="path61" style="fill:#290a43;stroke-width:0.78119999;fill-opacity:1" d="M 35.9352,14.0712 V 12.5088 H 15.624 V 3.1344 H 35.9352 V 15.6336 C 37.663996,15.628132 39.054532,14.238377 39.06,12.5088 V 3.1344 C 39.054219,1.4056044 37.663996,0.0158496 35.9352,0.0096 H 15.624 C 13.895204,0.0158496 12.504668,1.4056044 12.4992,3.1344 V 12.5088 C 12.504981,14.238377 13.895204,15.628132 15.624,15.6336 H 35.9352 V 14.0712" />
  <path inkscape:connector-curvature="0" id="path63" style="fill:#100f0d;stroke-width:0.78119999" d="M 26.99046,4.38432 C 26.709462,4.38432 26.421668,4.413615 26.128015,4.4697833 25.836784,4.5234517 25.541959,4.6028216 25.242916,4.7078149 V 5.9077381 C 25.523913,5.7222031 25.787021,5.583462 26.031928,5.4907336 26.279724,5.3955053 26.506507,5.3483208 26.713446,5.3483208 26.981711,5.3483208 27.1974,5.4260502 27.358327,5.5822902 27.521832,5.7385302 27.602452,5.9443764 27.602452,6.2007662 27.602452,6.3667712 27.562134,6.5270735 27.480351,6.6808918 27.401137,6.83471 27.276692,6.9917312 27.108031,7.1528928 L 25.230026,8.9144988 V 9.95037 H 28.971193 V 8.9144988 H 26.704931 L 27.805642,7.8895644 C 28.270534,7.4574827 28.573952,7.1124266 28.717303,6.8560368 28.862918,6.5973034 28.937054,6.319743 28.937054,6.0217152 28.937054,5.5065919 28.764643,5.1053676 28.422321,4.8171048 28.082578,4.5290764 27.605967,4.3837732 26.990382,4.3837732 Z M 31.020671,4.4840011 29.824654,4.7485154 V 5.7070478 L 31.02692,5.4446428 V 8.9780104 H 29.85512 V 9.9506044 H 33.455671 V 8.9780104 H 32.283871 V 4.4837668 Z M 21.599399,4.7118772 19.772172,9.9506044 H 21.049434 L 21.364804,8.9967592 H 23.354521 L 23.66372,9.9506044 H 24.945669 L 23.11688,4.7118772 Z M 22.360288,5.9407048 23.031651,8.0241652 H 21.680956 Z" />
  <path inkscape:connector-curvature="0" id="path65" style="fill:#100f0d;stroke-width:0.78119999" d="M 84.3696,14.0712 V 12.5088 H 64.0584 V 3.1344 H 84.3696 V 15.6336 C 86.098396,15.628132 87.48815,14.238377 87.4944,12.5088 V 3.1344 C 87.48815,1.4056044 86.098396,0.0158496 84.3696,0.0096 H 64.0584 C 62.329604,0.0158496 60.939068,1.4056044 60.9336,3.1344 V 12.5088 C 60.939381,14.238377 62.329604,15.628132 64.0584,15.6336 H 84.3696 V 14.0712" />
  <path inkscape:connector-curvature="0" id="path67" style="fill:#100f0d;stroke-width:0.78119999" d="M 74.64366,4.38432 C 74.362662,4.38432 74.074868,4.413615 73.781215,4.4697833 73.489984,4.5234517 73.195081,4.6028216 72.896116,4.7078149 V 5.9077381 C 73.177113,5.7222031 73.440221,5.583462 73.685128,5.4907336 73.932924,5.3955053 74.159707,5.3483208 74.366646,5.3483208 74.634832,5.3483208 74.8506,5.4260502 75.011527,5.5822902 75.175032,5.7385302 75.255652,5.9443764 75.255652,6.2007662 75.255652,6.3667712 75.215342,6.5270735 75.133551,6.6808918 75.054415,6.83471 74.929892,6.9917312 74.761309,7.1528928 L 72.883304,8.9144988 V 9.95037 H 76.624471 V 8.9144988 H 74.35821 L 75.45892,7.8895644 C 75.923891,7.4574827 76.227309,7.1124266 76.370581,6.8560368 76.516196,6.5973034 76.590332,6.319743 76.590332,6.0217152 76.590332,5.5065919 76.417921,5.1053676 76.0756,4.8171048 75.735856,4.5290764 75.259246,4.3837732 74.64366,4.3837732 Z M 78.999631,4.38432 C 78.718634,4.38432 78.430839,4.413615 78.137186,4.4697833 77.845955,4.5234517 77.551208,4.6028216 77.252087,4.7078149 V 5.9077381 C 77.533084,5.7222031 77.796193,5.583462 78.041099,5.4907336 78.288895,5.3955053 78.515756,5.3483208 78.722618,5.3483208 78.990804,5.3483208 79.20454,5.4260502 79.365467,5.5822902 79.528972,5.7385302 79.611623,5.9443764 79.611623,6.2007662 79.611733,6.3667712 79.571313,6.5270735 79.489678,6.6808918 79.410386,6.83471 79.285941,6.9917312 79.11728,7.1528928 L 77.239275,8.9144988 V 9.95037 H 80.97888 V 8.9144988 H 78.714181 L 79.814892,7.8895644 C 80.279784,7.4574827 80.583202,7.1124266 80.726552,6.8560368 80.872168,6.5973034 80.944116,6.319743 80.944116,6.0217152 80.944116,5.5065919 80.773815,5.1053676 80.431571,4.8171048 80.091827,4.5290764 79.615217,4.3837732 78.999631,4.3837732 Z M 69.250255,4.7118772 67.423028,9.9506044 H 68.70029 L 69.015583,8.9967592 H 71.005299 L 71.314576,9.9506044 H 72.596525 L 70.767736,4.7118772 Z M 70.011144,5.9407048 70.682429,8.0241652 H 69.331734 Z" />
  <path inkscape:connector-curvature="0" id="path69" style="fill:url(#linearGradient41064);stroke:#000000;stroke-width:1.04133952px" d="M 89.838,46.02228 90.041424,51.006336 H 97.568286 L 97.669921,45.818387 Z M 58.51188,51.413341 50.574888,51.209917 50.880025,45.920412 H 58.817017 Z" />
</svg>
