<svg version="1.1" viewBox="0 0 75 58.6" xmlns="http://www.w3.org/2000/svg" xmlns:xlink="http://www.w3.org/1999/xlink">
 <defs>
  <linearGradient id="linearGradientSlvr" x2="0" y1="794.4" y2="828" gradientUnits="userSpaceOnUse">
   <stop style="stop-color:#696969" offset="0"/>
   <stop style="stop-color:#c7c7c9" offset=".17"/>
   <stop style="stop-color:#f9f9ff" offset=".36"/>
   <stop style="stop-color:#ccccce" offset=".73"/>
   <stop style="stop-color:#696969" offset="1"/>
  </linearGradient>
  <linearGradient id="linearGradient41064" x1="63.99" x2="125.7" y1="379.8" y2="379.8" gradientTransform="matrix(.586 0 0 -.586 0 259)" gradientUnits="userSpaceOnUse" xlink:href="#linearGradientSlvr"/>
  <linearGradient id="linearGradient919" x1="53.59" x2="94.07" y1="40.86" y2="40.86" gradientTransform="matrix(.7501 0 0 .7501 0 -.007202)" gradientUnits="userSpaceOnUse" xlink:href="#linearGradientSlvr"/>
  <linearGradient id="linearGradient927" x1="56.25" x2="92.18" y1="62.51" y2="62.51" gradientTransform="matrix(.7501 0 0 .7501 0 -.007202)" gradientUnits="userSpaceOnUse" xlink:href="#linearGradientSlvr"/>
  <linearGradient id="linearGradient935" x1=".9656" x2="48.84" y1="62.51" y2="62.51" gradientTransform="matrix(.7501 0 0 .7501 0 -.007202)" gradientUnits="userSpaceOnUse" xlink:href="#linearGradientSlvr"/>
  <linearGradient id="linearGradient860" x1="14.06" x2="37.5" y1="7.822" y2="7.822" gradientTransform="matrix(.7501 0 0 .7501 0 -.007202)" gradientUnits="userSpaceOnUse" xlink:href="#linearGradientSlvr"/>
 </defs>
 <path d="m63.29 10.55h-15.24c-0.6446 0-1.172-0.5274-1.172-1.172v-7.032c0-0.6446 0.5274-1.172 1.172-1.172h15.24c0.6446 0 1.172 0.5274 1.172 1.172v7.032c0 0.6446-0.5274 1.172-1.172 1.172" style="fill:#e8e7e6;stroke-width:.586"/>
 <path d="m26.96 10.55h-15.24c-0.6446 0-1.172-0.5274-1.172-1.172v-7.032c0-0.6446 0.5274-1.172 1.172-1.172h15.24c0.6446 0 1.172 0.5274 1.172 1.172v7.032c0 0.6446-0.5274 1.172-1.172 1.172" style="fill:url(#linearGradient860);stroke-width:.586"/>
 <path d="m31.64 50.4h-24.61c-1.64-0.5557-1.172-1.981-1.172-3.516 1.159-2.331-1.108-6.115-1.276-6.041-0.1144-0.9152-3.897-3.087-3.843-4.439 0.06841-1.705 2.202-2.631 4.658-2.92 2.314-4.862-1.044-12.19 1.989-16l24.02 0.6208c0.4853 0.01254 1.437 12.37 1.659 14.92s4.341-0.6518 3.868 3.787c-1.187 2.542-3.304 3.529-4.069 4.763-0.01991 2.785-0.05341 4.824-0.05341 5.309v2.344c0 0.6446-0.5272 1.172-1.172 1.172" style="fill:url(#linearGradient935);stroke-width:.586"/>
 <path d="m67.98 50.4h-24.61c-0.6446 0-1.172-0.5274-1.172-1.172v-2.344c0-1.942 1.574-3.516 3.516-3.516h19.92c1.942 0 3.516 1.574 3.516 3.516v2.344c0 0.6446-0.5274 1.172-1.172 1.172" style="fill:url(#linearGradient927);stroke-width:.586"/>
 <path d="m31.64 50.4v-1.172h-24.61v-2.344c7.032e-4 -0.6511 0.2605-1.229 0.6868-1.657 0.4278-0.426 1.007-0.6862 1.657-0.6868h19.92c0.6511 5.86e-4 1.229 0.2608 1.657 0.6868 0.426 0.4278 0.6856 1.006 0.6868 1.657v4.688c1.297-0.004101 2.34-1.047 2.344-2.344v-2.344c-7.03e-4 -2.59-2.098-4.687-4.688-4.688h-19.92c-2.59 0.001171-4.687 2.098-4.688 4.688v2.344c0.004577 1.297 1.047 2.34 2.344 2.344h24.61v-1.172" style="fill:#290a43;stroke-width:.586"/>
 <path d="m7.032 38.68v-1.172h-4.688v-2.344h4.688v4.688c1.295-5.86e-4 2.343-1.049 2.344-2.344v-2.344c-7.029e-4 -1.295-1.049-2.343-2.344-2.344h-4.688c-1.295 5.86e-4 -2.343 1.049-2.344 2.344v2.344c6.868e-4 1.295 1.049 2.343 2.344 2.344h4.688v-1.172" style="fill:#290a43;stroke-width:.586"/>
 <path d="m36.33 38.68v-1.172h-4.688v-2.344h4.688v4.688c1.295-5.86e-4 2.343-1.049 2.344-2.344v-2.344c-7.03e-4 -1.295-1.049-2.343-2.344-2.344h-4.688c-1.295 5.86e-4 -2.343 1.049-2.344 2.344v2.344c7.03e-4 1.295 1.049 2.343 2.344 2.344h4.688v-1.172" style="fill:#290a43;stroke-width:.586"/>
 <path d="m16.41 31.64h5.86c0.6475 0 1.172-0.5245 1.172-1.172 0-0.647-0.5247-1.172-1.172-1.172h-5.86c-0.6475 0-1.172 0.5251-1.172 1.172 0 0.6475 0.5247 1.172 1.172 1.172" style="fill:#290a43;stroke-width:.586"/>
 <path d="m2.944 38.5c-0.007096 0.04688-0.04693 0.3159-0.04716 0.7278 4.572e-4 0.3803 0.03388 0.8837 0.1712 1.447 0.1035 0.4219 0.2665 0.879 0.5251 1.332 0.3845 0.6798 1.001 1.347 1.875 1.809 0.8732 0.4659 1.974 0.7261 3.321 0.7255 0.6475 0 1.172-0.5245 1.172-1.172 0-0.647-0.5247-1.172-1.172-1.172-0.9353 0-1.591-0.1582-2.053-0.3686-0.3477-0.1582-0.593-0.3452-0.787-0.5491-0.2875-0.3047-0.4642-0.6645-0.5721-1.038-0.1074-0.3704-0.1374-0.746-0.1369-1.014 0-0.1277 0.006411-0.2309 0.01213-0.2959l0.007096-0.06798v-0.001172c0.0998-0.6393-0.3377-1.239-0.9775-1.339-0.6393-0.09962-1.239 0.3375-1.339 0.9769" style="fill:#290a43;stroke-width:.586"/>
 <path d="m33.26 38.74 0.0286-0.001171h-0.02883l2.34e-4 0.001171 0.0286-0.001171h-0.02883c2.34e-4 0.04864-0.004805 0.3194-0.07765 0.6763-0.1089 0.5415-0.3681 1.245-0.9183 1.783-0.2777 0.2719-0.6305 0.5163-1.125 0.7044-0.4942 0.1875-1.136 0.3164-1.981 0.3164-0.6475 0-1.172 0.5251-1.172 1.172 0 0.6475 0.5247 1.172 1.172 1.172 1.444 0.001172 2.626-0.3 3.556-0.8099 0.6968-0.3803 1.242-0.8732 1.647-1.392 0.61-0.7806 0.913-1.605 1.071-2.265 0.1573-0.6622 0.1715-1.169 0.1719-1.358l-0.001172-0.07208c-0.02016-0.647-0.561-1.155-1.208-1.135-0.647 0.02051-1.155 0.5614-1.135 1.208" style="fill:#290a43;stroke-width:.586"/>
 <path d="m10.55 50.4v7.032c0 0.6475 0.5247 1.172 1.172 1.172s1.172-0.5245 1.172-1.172v-7.032c0-0.647-0.5247-1.172-1.172-1.172s-1.172 0.5251-1.172 1.172" style="fill:#290a43;stroke-width:.586"/>
 <path d="m14.06 56.26h-5.86c-0.6475 0-1.172 0.5251-1.172 1.172 0 0.6475 0.5247 1.172 1.172 1.172h5.86c0.6475 0 1.172-0.5245 1.172-1.172 0-0.647-0.5247-1.172-1.172-1.172" style="fill:#290a43;stroke-width:.586"/>
 <path d="m25.78 50.4v7.032c0 0.6475 0.5247 1.172 1.172 1.172s1.172-0.5245 1.172-1.172v-7.032c0-0.647-0.5247-1.172-1.172-1.172s-1.172 0.5251-1.172 1.172" style="fill:#290a43;stroke-width:.586"/>
 <path d="m24.61 58.6h5.86c0.6475 0 1.172-0.5245 1.172-1.172 0-0.647-0.5247-1.172-1.172-1.172h-5.86c-0.6475 0-1.172 0.5251-1.172 1.172 0 0.6475 0.5247 1.172 1.172 1.172" style="fill:#290a43;stroke-width:.586"/>
 <path d="m33.99 33.99v-12.89c-0.004337-2.586-2.102-4.683-4.688-4.688h-19.92c-2.586 0.004688-4.684 2.102-4.688 4.688v12.89c0 0.6475 0.5247 1.172 1.172 1.172 0.6475 0 1.172-0.5245 1.172-1.172v-12.89c2.344e-4 -0.6434 0.2609-1.224 0.6897-1.654 0.4303-0.4284 1.011-0.6891 1.654-0.6897h19.92c0.6434 5.86e-4 1.224 0.2614 1.654 0.6897 0.4285 0.4301 0.6891 1.011 0.6897 1.654v12.89c0 0.6475 0.5247 1.172 1.172 1.172 0.6474 0 1.172-0.5245 1.172-1.172" style="fill:#290a43;stroke-width:.586"/>
 <path d="m44.55 34.34-0.1526 4.044-4.196 0.0763 1.297 4.044 26.7 0.3052 2.366-3.663-3.51-0.3815-0.4578-4.807h2.289l-0.3814-15.49-25.64 0.2289-0.6106 15.11z" style="fill:url(#linearGradient919);stroke-width:.586"/>
 <path d="m45.71 16.3c-2.586 0.004687-4.682 2.101-4.687 4.687v11.72h-2.343c-1.294 5.86e-4 -2.343 1.048-2.343 2.343v2.343c7.04e-4 1.295 1.049 2.343 2.343 2.343h0.5843c0.02515 0.2524 0.06718 0.5268 0.1388 0.821 0.1034 0.4218 0.2662 0.8788 0.5249 1.332 0.3845 0.6796 1.001 1.346 1.875 1.808 0.08358 0.0446 0.1791 0.07819 0.267 0.119-0.6541 0.8054-1.047 1.832-1.047 2.95v2.343c0.004687 1.297 1.047 2.34 2.343 2.343h24.61c1.297-0.003906 2.339-1.047 2.343-2.343v-2.343c-2.34e-4 -1.226-0.4752-2.337-1.245-3.172 0.6819-0.3778 1.219-0.8624 1.619-1.373 0.6099-0.7804 0.9132-1.604 1.071-2.264 0.02031-0.08561 0.02187-0.1412 0.03828-0.2212h0.8608c1.295-5.86e-4 2.343-1.048 2.343-2.343v-2.343c-5.47e-4 -1.295-1.048-2.343-2.343-2.343h-2.343v-11.72c-0.007811-2.586-2.101-4.682-4.687-4.687zm0 2.343h19.92c0.6439 5.86e-4 1.224 0.2614 1.654 0.6896 0.4289 0.43 0.6891 1.011 0.6896 1.654v11.72c-1.295 5.86e-4 -2.343 1.048-2.343 2.343v2.343c6.24e-4 1.295 1.048 2.343 2.343 2.343h1.415c-0.1458 0.4438-0.3909 0.928-0.7952 1.322-0.2777 0.2718-0.6315 0.5152-1.126 0.7033-0.4945 0.1875-1.136 0.3173-1.98 0.3173h-19.78c-0.1294 6.3e-5 -0.2577 0.009531-0.3845 0.01984-0.06562-0.01156-0.132-0.01984-0.2014-0.01984-0.935 0-1.591-0.1589-2.054-0.3692-0.3476-0.1582-0.5936-0.3453-0.7874-0.5492-0.2877-0.3046-0.4629-0.6637-0.5706-1.037-0.03828-0.1317-0.05702-0.2596-0.07812-0.3875h1.732c1.294-5.86e-4 2.343-1.048 2.343-2.343v-2.343c-7.03e-4 -1.295-1.049-2.343-2.343-2.343v-11.72c2.35e-4 -0.6433 0.2597-1.224 0.6881-1.654 0.4302-0.4282 1.012-0.689 1.655-0.6896zm-7.03 16.4h4.687v2.343h-4.687zm29.29 0h4.687v2.343h-4.687zm-22.26 9.374h19.92c0.6509 5.86e-4 1.23 0.2607 1.657 0.6866 0.426 0.4277 0.686 1.006 0.6866 1.657v2.343h-24.61v-2.343c7.03e-4 -0.6509 0.2591-1.23 0.6851-1.657 0.4277-0.4259 1.008-0.686 1.658-0.6866z" style="fill:#100f0d;stroke-width:.7811"/>
 <path d="m52.74 31.64h5.86c0.6475 0 1.172-0.5245 1.172-1.172 0-0.647-0.5245-1.172-1.172-1.172h-5.86c-0.6475 0-1.172 0.5251-1.172 1.172 0 0.6475 0.5247 1.172 1.172 1.172" style="fill:#100f0d;stroke-width:.586"/>
 <path d="m46.88 50.4v7.032c0 0.6475 0.5247 1.172 1.172 1.172 0.6474 0 1.172-0.5245 1.172-1.172v-7.032c0-0.647-0.5247-1.172-1.172-1.172-0.6474 0-1.172 0.5251-1.172 1.172" style="fill:#100f0d;stroke-width:.586"/>
 <path d="m50.4 56.26h-5.86c-0.6475 0-1.172 0.5251-1.172 1.172 0 0.6475 0.5247 1.172 1.172 1.172h5.86c0.6475 0 1.172-0.5245 1.172-1.172 0-0.647-0.5247-1.172-1.172-1.172" style="fill:#100f0d;stroke-width:.586"/>
 <path d="m62.12 50.4v7.032c0 0.6475 0.5245 1.172 1.172 1.172 0.6475 0 1.172-0.5245 1.172-1.172v-7.032c0-0.647-0.5245-1.172-1.172-1.172-0.6475 0-1.172 0.5251-1.172 1.172" style="fill:#100f0d;stroke-width:.586"/>
 <path d="m60.94 58.6h5.86c0.6475 0 1.172-0.5245 1.172-1.172 0-0.647-0.5245-1.172-1.172-1.172h-5.86c-0.6475 0-1.172 0.5251-1.172 1.172 0 0.6475 0.5245 1.172 1.172 1.172" style="fill:#100f0d;stroke-width:.586"/>
 <path d="m26.96 10.55v-1.172h-15.24v-7.032h15.24v9.376c1.297-0.004101 2.34-1.047 2.344-2.344v-7.032c-0.004336-1.297-1.047-2.339-2.344-2.344h-15.24c-1.297 0.004688-2.34 1.047-2.344 2.344v7.032c0.004337 1.297 1.047 2.34 2.344 2.344h15.24v-1.172" style="fill:#290a43;stroke-width:.586"/>
 <path d="m20.25 3.282c-0.2108 0-0.4267 0.02198-0.647 0.06411-0.2185 0.04026-0.4396 0.0998-0.6639 0.1786v0.9001c0.2108-0.1392 0.4082-0.2433 0.5919-0.3128 0.1859-0.07143 0.356-0.1068 0.5112-0.1068 0.2012 0 0.363 0.05831 0.4838 0.1755 0.1227 0.1172 0.1831 0.2716 0.1831 0.4639 0 0.1245-0.03024 0.2448-0.09159 0.3602-0.05942 0.1154-0.1528 0.2332-0.2793 0.3541l-1.409 1.321v0.777h2.806v-0.777h-1.7l0.8257-0.7688c0.3487-0.3241 0.5763-0.583 0.6839-0.7753 0.1092-0.1941 0.1648-0.4023 0.1648-0.6259 0-0.3864-0.1293-0.6874-0.3861-0.9036-0.2549-0.2161-0.6124-0.3251-1.074-0.3251zm3.023 0.07477-0.8972 0.1984v0.719l0.9019-0.1968v2.651h-0.879v0.7296h2.701v-0.7296h-0.879v-3.371zm-7.067 0.1709-1.371 3.93h0.9581l0.2366-0.7155h1.493l0.2319 0.7155h0.9616l-1.372-3.93zm0.5708 0.9218 0.5036 1.563h-1.013z" style="fill:#100f0d;stroke-width:.586"/>
 <path d="m63.29 10.55v-1.172h-15.24v-7.032h15.24v9.376c1.297-0.004101 2.339-1.047 2.344-2.344v-7.032c-0.004688-1.297-1.047-2.339-2.344-2.344h-15.24c-1.297 0.004688-2.34 1.047-2.344 2.344v7.032c0.004337 1.297 1.047 2.34 2.344 2.344h15.24v-1.172" style="fill:#100f0d;stroke-width:.586"/>
 <path d="m55.99 3.282c-0.2108 0-0.4267 0.02198-0.647 0.06411-0.2185 0.04026-0.4397 0.0998-0.6639 0.1786v0.9001c0.2108-0.1392 0.4082-0.2433 0.5919-0.3128 0.1859-0.07143 0.356-0.1068 0.5112-0.1068 0.2012 0 0.363 0.05831 0.4838 0.1755 0.1227 0.1172 0.1831 0.2716 0.1831 0.4639 0 0.1245-0.03024 0.2448-0.09159 0.3602-0.05936 0.1154-0.1528 0.2332-0.2792 0.3541l-1.409 1.321v0.777h2.806v-0.777h-1.7l0.8257-0.7688c0.3488-0.3241 0.5764-0.583 0.6839-0.7753 0.1092-0.1941 0.1648-0.4023 0.1648-0.6259 0-0.3864-0.1293-0.6874-0.3861-0.9036-0.2549-0.2161-0.6124-0.3251-1.074-0.3251zm3.268 0c-0.2108 0-0.4267 0.02198-0.647 0.06411-0.2185 0.04026-0.4396 0.0998-0.6639 0.1786v0.9001c0.2108-0.1392 0.4082-0.2433 0.5919-0.3128 0.1859-0.07143 0.3561-0.1068 0.5112-0.1068 0.2012 0 0.3615 0.05831 0.4822 0.1755 0.1227 0.1172 0.1847 0.2716 0.1847 0.4639 8.3e-5 0.1245-0.03024 0.2448-0.09148 0.3602-0.05948 0.1154-0.1528 0.2332-0.2793 0.3541l-1.409 1.321v0.777h2.805v-0.777h-1.699l0.8257-0.7688c0.3487-0.3241 0.5763-0.583 0.6839-0.7753 0.1092-0.1941 0.1632-0.4023 0.1632-0.6259 0-0.3864-0.1277-0.6874-0.3845-0.9036-0.2549-0.2161-0.6124-0.3251-1.074-0.3251zm-7.313 0.2457-1.371 3.93h0.9581l0.2365-0.7155h1.493l0.232 0.7155h0.9616l-1.372-3.93zm0.5708 0.9218 0.5036 1.563h-1.013z" style="fill:#100f0d;stroke-width:.586"/>
 <path d="m67.39 34.52 0.1526 3.739h5.646l0.07624-3.892zm-23.5 4.044-5.954-0.1526 0.2289-3.968h5.954z" style="fill:url(#linearGradient41064);stroke-width:.7811px;stroke:#000000"/>
</svg>
