<svg version="1.1" viewBox="0 0 75 58.59" xmlns="http://www.w3.org/2000/svg">
 <path d="m63.28 10.55h-15.23c-0.6445 0-1.172-0.5273-1.172-1.172v-7.031c0-0.6445 0.5273-1.172 1.172-1.172h15.23c0.6445 0 1.172 0.5273 1.172 1.172v7.031c0 0.6445-0.5273 1.172-1.172 1.172" style="fill:#e8e7e6;stroke-width:.5859"/>
 <path d="m26.95 10.55h-15.23c-0.6445 0-1.172-0.5273-1.172-1.172v-7.031c0-0.6445 0.5273-1.172 1.172-1.172h15.23c0.6445 0 1.172 0.5273 1.172 1.172v7.031c0 0.6445-0.5273 1.172-1.172 1.172" style="fill:#e8e7e6;stroke-width:.5859"/>
 <path d="m31.64 50.39h-24.61c-0.6445 0-1.172-0.5273-1.172-1.172v-2.344c0-1.942 1.574-3.516 3.516-3.516h19.92c1.942 0 3.516 1.574 3.516 3.516v2.344c0 0.6445-0.5271 1.172-1.172 1.172" style="fill:#e8e7e6;stroke-width:.5859"/>
 <path d="m67.97 50.39h-24.61c-0.6445 0-1.172-0.5273-1.172-1.172v-2.344c0-1.942 1.574-3.516 3.516-3.516h19.92c1.942 0 3.516 1.574 3.516 3.516v2.344c0 0.6445-0.5273 1.172-1.172 1.172" style="fill:#e8e7e6;stroke-width:.5859"/>
 <path d="m31.64 50.39v-1.172h-24.61v-2.344c7.031e-4 -0.651 0.2604-1.229 0.6867-1.657 0.4278-0.426 1.007-0.6861 1.657-0.6867h19.92c0.651 5.86e-4 1.229 0.2607 1.657 0.6867 0.426 0.4277 0.6855 1.006 0.6867 1.657v4.688c1.297-0.004102 2.34-1.046 2.344-2.344v-2.344c-7.03e-4 -2.589-2.098-4.686-4.688-4.688h-19.92c-2.589 0.001172-4.687 2.098-4.688 4.688v2.344c0.004576 1.297 1.047 2.34 2.344 2.344h24.61v-1.172" style="fill:#100f0d;stroke-width:.5859"/>
 <path d="m7.031 38.67v-1.172h-4.688v-2.344h4.688v4.688c1.295-5.86e-4 2.343-1.049 2.344-2.344v-2.344c-7.031e-4 -1.295-1.049-2.343-2.344-2.344h-4.688c-1.295 5.86e-4 -2.343 1.049-2.344 2.344v2.344c6.867e-4 1.295 1.049 2.343 2.344 2.344h4.688v-1.172" style="fill:#100f0d;stroke-width:.5859"/>
 <path d="m36.33 38.67v-1.172h-4.688v-2.344h4.688v4.688c1.295-5.86e-4 2.343-1.049 2.344-2.344v-2.344c-7.03e-4 -1.295-1.049-2.343-2.344-2.344h-4.688c-1.295 5.86e-4 -2.343 1.049-2.344 2.344v2.344c7.03e-4 1.295 1.049 2.343 2.344 2.344h4.688v-1.172" style="fill:#100f0d;stroke-width:.5859"/>
 <path d="m16.41 31.64h5.859c0.6475 0 1.172-0.5244 1.172-1.172 0-0.6469-0.5246-1.172-1.172-1.172h-5.859c-0.6475 0-1.172 0.525-1.172 1.172 0 0.6475 0.5246 1.172 1.172 1.172" style="fill:#100f0d;stroke-width:.5859"/>
 <path d="m2.944 38.5c-0.007096 0.04688-0.04692 0.3158-0.04715 0.7277 4.57e-4 0.3803 0.03387 0.8836 0.1712 1.447 0.1035 0.4219 0.2664 0.8789 0.5251 1.332 0.3845 0.6797 1.001 1.346 1.875 1.809 0.873 0.4658 1.974 0.726 3.321 0.7254 0.6475 0 1.172-0.5244 1.172-1.172 0-0.6469-0.5246-1.172-1.172-1.172-0.9352 0-1.591-0.1582-2.053-0.3686-0.3477-0.1582-0.593-0.3451-0.7869-0.549-0.2875-0.3047-0.4642-0.6645-0.572-1.038-0.1073-0.3703-0.1373-0.7459-0.1369-1.014 0-0.1277 0.00641-0.2309 0.01213-0.2959l0.007096-0.06797v-0.001172c0.09979-0.6393-0.3376-1.239-0.9773-1.339-0.6393-0.09961-1.239 0.3375-1.339 0.9768" style="fill:#100f0d;stroke-width:.5859"/>
 <path d="m33.26 38.73 0.02859-0.001172h-0.02883l2.34e-4 0.001172 0.02859-0.001172h-0.02883c2.34e-4 0.04863-0.004805 0.3193-0.07764 0.6762-0.1089 0.5414-0.368 1.245-0.9182 1.783-0.2777 0.2719-0.6305 0.5162-1.125 0.7043-0.4941 0.1875-1.136 0.3164-1.981 0.3164-0.6475 0-1.172 0.525-1.172 1.172 0 0.6475 0.5246 1.172 1.172 1.172 1.444 0.001172 2.626-0.3 3.555-0.8098 0.6967-0.3803 1.242-0.873 1.647-1.392 0.61-0.7805 0.9129-1.605 1.071-2.265 0.1573-0.6621 0.1714-1.169 0.1719-1.358l-0.001172-0.07207c-0.02016-0.6469-0.561-1.155-1.208-1.135-0.6469 0.02051-1.155 0.5613-1.134 1.208" style="fill:#100f0d;stroke-width:.5859"/>
 <path d="m10.55 50.39v7.031c0 0.6475 0.5246 1.172 1.172 1.172s1.172-0.5244 1.172-1.172v-7.031c0-0.6469-0.5246-1.172-1.172-1.172s-1.172 0.525-1.172 1.172" style="fill:#100f0d;stroke-width:.5859"/>
 <path d="m14.06 56.25h-5.859c-0.6475 0-1.172 0.525-1.172 1.172 0 0.6475 0.5246 1.172 1.172 1.172h5.859c0.6475 0 1.172-0.5244 1.172-1.172 0-0.6469-0.5246-1.172-1.172-1.172" style="fill:#100f0d;stroke-width:.5859"/>
 <path d="m25.78 50.39v7.031c0 0.6475 0.5246 1.172 1.172 1.172s1.172-0.5244 1.172-1.172v-7.031c0-0.6469-0.5246-1.172-1.172-1.172s-1.172 0.525-1.172 1.172" style="fill:#100f0d;stroke-width:.5859"/>
 <path d="m24.61 58.59h5.859c0.6475 0 1.172-0.5244 1.172-1.172 0-0.6469-0.5246-1.172-1.172-1.172h-5.859c-0.6475 0-1.172 0.525-1.172 1.172 0 0.6475 0.5246 1.172 1.172 1.172" style="fill:#100f0d;stroke-width:.5859"/>
 <path d="m33.98 33.98v-12.89c-0.004336-2.586-2.102-4.683-4.688-4.688h-19.92c-2.586 0.004688-4.683 2.102-4.688 4.688v12.89c0 0.6475 0.5246 1.172 1.172 1.172 0.6475 0 1.172-0.5244 1.172-1.172v-12.89c2.344e-4 -0.6434 0.2609-1.224 0.6896-1.654 0.4303-0.4283 1.011-0.6891 1.654-0.6896h19.92c0.6434 5.86e-4 1.224 0.2613 1.654 0.6896 0.4285 0.4301 0.6891 1.011 0.6896 1.654v12.89c0 0.6475 0.5246 1.172 1.172 1.172s1.172-0.5244 1.172-1.172" style="fill:#100f0d;stroke-width:.5859"/>
 <path d="m67.97 50.39v-1.172h-24.61v-2.344c7.03e-4 -0.651 0.2604-1.229 0.6867-1.657 0.4278-0.426 1.007-0.6861 1.657-0.6867h19.92c0.651 5.86e-4 1.229 0.2607 1.657 0.6867 0.426 0.4277 0.6861 1.006 0.6867 1.657v4.688c1.297-0.004102 2.339-1.046 2.344-2.344v-2.344c-5.86e-4 -2.589-2.098-4.686-4.688-4.688h-19.92c-2.589 0.001172-4.687 2.098-4.688 4.688v2.344c0.004336 1.297 1.047 2.34 2.344 2.344h24.61v-1.172" style="fill:#100f0d;stroke-width:.5859"/>
 <path d="m43.36 38.67v-1.172h-4.688v-2.344h4.688v4.688c1.295-5.86e-4 2.343-1.049 2.344-2.344v-2.344c-7.03e-4 -1.295-1.049-2.343-2.344-2.344h-4.688c-1.295 5.86e-4 -2.343 1.049-2.344 2.344v2.344c7.03e-4 1.295 1.049 2.343 2.344 2.344h4.688v-1.172" style="fill:#100f0d;stroke-width:.5859"/>
 <path d="m72.66 38.67v-1.172h-4.688v-2.344h4.688v4.688c1.295-5.86e-4 2.343-1.049 2.344-2.344v-2.344c-5.86e-4 -1.295-1.049-2.343-2.344-2.344h-4.688c-1.295 5.86e-4 -2.343 1.049-2.344 2.344v2.344c5.86e-4 1.295 1.049 2.343 2.344 2.344h4.688v-1.172" style="fill:#100f0d;stroke-width:.5859"/>
 <path d="m52.73 31.64h5.859c0.6475 0 1.172-0.5244 1.172-1.172 0-0.6469-0.5244-1.172-1.172-1.172h-5.859c-0.6475 0-1.172 0.525-1.172 1.172 0 0.6475 0.5246 1.172 1.172 1.172" style="fill:#100f0d;stroke-width:.5859"/>
 <path d="m39.27 38.5c-0.00709 0.04688-0.04688 0.3158-0.04711 0.7277 4.1e-4 0.3803 0.03387 0.8836 0.1712 1.447 0.1035 0.4219 0.2664 0.8789 0.5251 1.332 0.3846 0.6797 1.001 1.346 1.875 1.809 0.873 0.4658 1.974 0.726 3.321 0.7254 0.6475 0 1.172-0.5244 1.172-1.172 0-0.6469-0.5246-1.172-1.172-1.172-0.9352 0-1.591-0.1582-2.053-0.3686-0.3477-0.1582-0.593-0.3451-0.7869-0.549-0.2877-0.3047-0.4642-0.6645-0.5719-1.038-0.1073-0.3703-0.1373-0.7459-0.1369-1.013 0-0.1283 0.006387-0.2314 0.01213-0.2965l0.00709-0.06797v-0.001172c0.09978-0.6393-0.3376-1.239-0.9768-1.339-0.6393-0.09961-1.239 0.3375-1.339 0.9768" style="fill:#100f0d;stroke-width:.5859"/>
 <path d="m69.61 38.73 0.01523-5.86e-4h-0.01523v5.86e-4l0.01523-5.86e-4h-0.01523c0 0.04863-0.004688 0.3193-0.07793 0.6762-0.1084 0.5414-0.368 1.245-0.9182 1.783-0.2777 0.2719-0.6305 0.5162-1.125 0.7043-0.4945 0.1875-1.136 0.3164-1.981 0.3164-0.6475 0-1.172 0.525-1.172 1.172 0 0.6475 0.5244 1.172 1.172 1.172 1.444 0.001172 2.626-0.3 3.555-0.8098 0.6967-0.3803 1.242-0.873 1.648-1.392 0.61-0.7805 0.9129-1.605 1.071-2.265 0.1576-0.6621 0.1717-1.169 0.1723-1.358l-0.001172-0.07207c-0.01992-0.6469-0.5607-1.155-1.208-1.135-0.6469 0.01992-1.155 0.5607-1.135 1.208" style="fill:#100f0d;stroke-width:.5859"/>
 <path d="m46.88 50.39v7.031c0 0.6475 0.5246 1.172 1.172 1.172s1.172-0.5244 1.172-1.172v-7.031c0-0.6469-0.5246-1.172-1.172-1.172s-1.172 0.525-1.172 1.172" style="fill:#100f0d;stroke-width:.5859"/>
 <path d="m50.39 56.25h-5.859c-0.6475 0-1.172 0.525-1.172 1.172 0 0.6475 0.5246 1.172 1.172 1.172h5.859c0.6475 0 1.172-0.5244 1.172-1.172 0-0.6469-0.5246-1.172-1.172-1.172" style="fill:#100f0d;stroke-width:.5859"/>
 <path d="m62.11 50.39v7.031c0 0.6475 0.5244 1.172 1.172 1.172s1.172-0.5244 1.172-1.172v-7.031c0-0.6469-0.5244-1.172-1.172-1.172s-1.172 0.525-1.172 1.172" style="fill:#100f0d;stroke-width:.5859"/>
 <path d="m60.94 58.59h5.859c0.6475 0 1.172-0.5244 1.172-1.172 0-0.6469-0.5244-1.172-1.172-1.172h-5.859c-0.6475 0-1.172 0.525-1.172 1.172 0 0.6475 0.5244 1.172 1.172 1.172" style="fill:#100f0d;stroke-width:.5859"/>
 <path d="m70.31 33.98v-12.89c-0.004688-2.586-2.102-4.683-4.688-4.688h-19.92c-2.586 0.004688-4.683 2.102-4.688 4.688v12.89c0 0.6475 0.5246 1.172 1.172 1.172s1.172-0.5244 1.172-1.172v-12.89c2.34e-4 -0.6434 0.2609-1.224 0.6896-1.654 0.4303-0.4283 1.011-0.6891 1.654-0.6896h19.92c0.6439 5.86e-4 1.224 0.2613 1.654 0.6896 0.4289 0.4301 0.6891 1.011 0.6896 1.654v12.89c0 0.6475 0.5244 1.172 1.172 1.172s1.172-0.5244 1.172-1.172" style="fill:#100f0d;stroke-width:.5859"/>
 <path d="m26.95 10.55v-1.172h-15.23v-7.031h15.23v9.375c1.297-0.004102 2.34-1.046 2.344-2.344v-7.031c-0.004336-1.297-1.047-2.339-2.344-2.344h-15.23c-1.297 0.004688-2.34 1.047-2.344 2.344v7.031c0.004336 1.297 1.047 2.34 2.344 2.344h15.23v-1.172" style="fill:#100f0d;stroke-width:.5859"/>
 <text transform="scale(1.023 .9776)" x="14.473806" y="7.605639" style="fill:#100f0d;font-family:'Myriad Pro';font-size:5.514px;font-weight:bold;stroke-width:.5728">
  <tspan x="14.473806" y="7.605639" style="stroke-width:.5728">A</tspan>
 </text>
 <text transform="scale(1.023 .9776)" x="18.091055" y="7.605639" style="fill:#100f0d;font-family:'Myriad Pro';font-size:5.754px;font-weight:bold;stroke-width:.5728">
  <tspan x="18.091055 21.284687" y="7.605639" style="stroke-width:.5728">21</tspan>
 </text>
 <path d="m63.28 10.55v-1.172h-15.23v-7.031h15.23v9.375c1.297-0.004102 2.339-1.046 2.344-2.344v-7.031c-0.004688-1.297-1.047-2.339-2.344-2.344h-15.23c-1.297 0.004688-2.34 1.047-2.344 2.344v7.031c0.004336 1.297 1.047 2.34 2.344 2.344h15.23v-1.172" style="fill:#100f0d;stroke-width:.5859"/>
 <path d="m53.26 6.738h-1.493l-0.2368 0.716h-0.9586l1.372-3.929h1.137l1.372 3.929h-0.9609zm-1.256-0.7289h1.014l-0.504-1.563z" style="fill:#100f0d;stroke-width:.5859"/>
 <path d="m55.99 3.281c-0.2108 0-0.4266 0.02197-0.6469 0.0641-0.2184 0.04031-0.4396 0.09978-0.6639 0.1785v0.9c0.2108-0.1392 0.4081-0.2432 0.5918-0.3128 0.1859-0.07142 0.356-0.1068 0.5112-0.1068 0.2012 0 0.3615 0.0583 0.4822 0.1755 0.1226 0.1172 0.1846 0.2716 0.1846 0.4639-8e-6 0.1245-0.03024 0.2447-0.09158 0.3601-0.05942 0.1154-0.1528 0.2331-0.2793 0.354l-1.409 1.321v0.777h2.804v-0.777h-1.698l0.8256-0.7693c0.3487-0.3241 0.5763-0.5829 0.6838-0.7752 0.1092-0.1941 0.1632-0.4022 0.1632-0.6258 0-0.3864-0.1278-0.6873-0.3846-0.9035-0.2548-0.2161-0.6123-0.325-1.074-0.325zm3.265 0c-0.2108 0-0.4251 0.02197-0.6457 0.0641-0.2184 0.04031-0.4396 0.09978-0.6639 0.1785v0.9c0.2108-0.1392 0.4081-0.2432 0.5918-0.3128 0.1859-0.07142 0.356-0.1068 0.5112-0.1068 0.2012 0 0.3615 0.0583 0.4822 0.1755 0.1226 0.1172 0.1846 0.2716 0.1846 0.4639 0 0.1245-0.03023 0.2447-0.09152 0.3601-0.05941 0.1154-0.1528 0.2331-0.2793 0.354l-1.409 1.321v0.777h2.804v-0.777h-1.698l0.8256-0.7693c0.3487-0.3241 0.5763-0.5829 0.6838-0.7752 0.1092-0.1941 0.1632-0.4022 0.1632-0.6258 0-0.3864-0.1277-0.6873-0.3845-0.9035-0.2548-0.2161-0.6141-0.325-1.076-0.325z" style="fill:#100f0d;stroke-width:.5859"/>
</svg>
