<svg version="1.1" viewBox="0 0 100 78.12" xmlns="http://www.w3.org/2000/svg">
 <g id="bwseats" transform="matrix(.7812 0 0 -.7812 0 345.3)">
  <path d="m108 424h-26c-1.1 0-2 0.9-2 2v12c0 1.1 0.9 2 2 2h26c1.1 0 2-0.9 2-2v-12c0-1.1-0.9-2-2-2" style="fill:#e8e7e6"/>
  <path d="m46 424h-26c-1.1 0-2 0.9-2 2v12c0 1.1 0.9 2 2 2h26c1.1 0 2-0.9 2-2v-12c0-1.1-0.9-2-2-2" style="fill:#e8e7e6"/>
  <path d="m54 356h-42c-1.1 0-2 0.9-2 2v4c0 3.314 2.686 6 6 6h34c3.314 0 6-2.686 6-6v-4c0-1.1-0.8996-2-2-2" style="fill:#e8e7e6"/>
  <path d="m116 356h-42c-1.1 0-2 0.9-2 2v4c0 3.314 2.686 6 6 6h34c3.314 0 6-2.686 6-6v-4c0-1.1-0.9-2-2-2" style="fill:#e8e7e6"/>
  <path d="m54 356v2h-42v4c0.0012 1.111 0.4445 2.098 1.172 2.828 0.7301 0.727 1.718 1.171 2.828 1.172h34c1.111-1e-3 2.098-0.445 2.828-1.172 0.727-0.73 1.17-1.717 1.172-2.828v-8c2.213 7e-3 3.993 1.786 4 4v4c-0.0012 4.419-3.581 7.998-8 8h-34c-4.419-2e-3 -7.999-3.581-8-8v-4c0.00781-2.214 1.787-3.993 4-4h42v2" style="fill:#100f0d"/>
  <path d="m12 376v2h-8v4h8v-8c2.21 1e-3 3.999 1.79 4 4v4c-0.0012 2.21-1.79 3.999-4 4h-8c-2.21-1e-3 -3.999-1.79-4-4v-4c0.001172-2.21 1.79-3.999 4-4h8v2" style="fill:#100f0d"/>
  <path d="m62 376v2h-8v4h8v-8c2.21 1e-3 3.999 1.79 4 4v4c-0.0012 2.21-1.79 3.999-4 4h-8c-2.21-1e-3 -3.999-1.79-4-4v-4c0.0012-2.21 1.79-3.999 4-4h8v2" style="fill:#100f0d"/>
  <path d="m28 388h10c1.105 0 2 0.895 2 2 0 1.104-0.8953 2-2 2h-10c-1.105 0-2-0.896-2-2 0-1.105 0.8953-2 2-2" style="fill:#100f0d"/>
  <path d="m5.024 376.3c-0.01211-0.08-0.08008-0.539-0.08047-1.242 7.8e-4 -0.649 0.05781-1.508 0.2922-2.469 0.1766-0.72 0.4547-1.5 0.8961-2.273 0.6562-1.16 1.709-2.298 3.2-3.087 1.49-0.795 3.369-1.239 5.668-1.238 1.105 0 2 0.895 2 2 0 1.104-0.8953 2-2 2-1.596 0-2.715 0.27-3.504 0.629-0.5934 0.27-1.012 0.589-1.343 0.937-0.4906 0.52-0.7922 1.134-0.9762 1.772-0.1832 0.632-0.2344 1.273-0.2336 1.73 0 0.218 0.01094 0.394 0.0207 0.505l0.01211 0.116v2e-3c0.1703 1.091-0.5762 2.114-1.668 2.285-1.091 0.17-2.114-0.576-2.285-1.667" style="fill:#100f0d"/>
  <path d="m56.76 375.9 0.0488 2e-3h-0.0492l4e-4 -2e-3 0.0488 2e-3h-0.0492c4e-4 -0.083-0.0082-0.545-0.1325-1.154-0.1859-0.924-0.6281-2.125-1.567-3.043-0.4739-0.464-1.076-0.881-1.92-1.202-0.8433-0.32-1.939-0.54-3.381-0.54-1.105 0-2-0.896-2-2 0-1.105 0.8953-2 2-2 2.464-2e-3 4.482 0.512 6.068 1.382 1.189 0.649 2.12 1.49 2.811 2.375 1.041 1.332 1.558 2.739 1.828 3.865 0.2684 1.13 0.2926 1.995 0.2934 2.317l-2e-3 0.123c-0.0344 1.104-0.9574 1.971-2.061 1.937-1.104-0.035-1.971-0.958-1.936-2.062" style="fill:#100f0d"/>
  <path d="m18 356v-12c0-1.105 0.8953-2 2-2s2 0.895 2 2v12c0 1.104-0.8953 2-2 2s-2-0.896-2-2" style="fill:#100f0d"/>
  <path d="m24 346h-10c-1.105 0-2-0.896-2-2 0-1.105 0.8953-2 2-2h10c1.105 0 2 0.895 2 2 0 1.104-0.8953 2-2 2" style="fill:#100f0d"/>
  <path d="m44 356v-12c0-1.105 0.8953-2 2-2s2 0.895 2 2v12c0 1.104-0.8953 2-2 2s-2-0.896-2-2" style="fill:#100f0d"/>
  <path d="m42 342h10c1.105 0 2 0.895 2 2 0 1.104-0.8953 2-2 2h-10c-1.105 0-2-0.896-2-2 0-1.105 0.8953-2 2-2" style="fill:#100f0d"/>
  <path d="m58 384v22c-0.0074 4.413-3.587 7.992-8 8h-34c-4.413-8e-3 -7.993-3.587-8-8v-22c0-1.105 0.8953-2 2-2 1.105 0 2 0.895 2 2v22c4e-4 1.098 0.4453 2.089 1.177 2.823 0.7343 0.731 1.725 1.176 2.823 1.177h34c1.098-1e-3 2.089-0.446 2.823-1.177 0.7313-0.734 1.176-1.725 1.177-2.823v-22c0-1.105 0.8953-2 2-2s2 0.895 2 2" style="fill:#100f0d"/>
  <path d="m116 356v2h-42v4c0.0012 1.111 0.4445 2.098 1.172 2.828 0.7301 0.727 1.718 1.171 2.828 1.172h34c1.111-1e-3 2.098-0.445 2.828-1.172 0.727-0.73 1.171-1.717 1.172-2.828v-8c2.213 7e-3 3.992 1.786 4 4v4c-1e-3 4.419-3.581 7.998-8 8h-34c-4.419-2e-3 -7.999-3.581-8-8v-4c0.0074-2.214 1.787-3.993 4-4h42v2" style="fill:#100f0d"/>
  <path d="m74 376v2h-8v4h8v-8c2.21 1e-3 3.999 1.79 4 4v4c-0.0012 2.21-1.79 3.999-4 4h-8c-2.21-1e-3 -3.999-1.79-4-4v-4c0.0012-2.21 1.79-3.999 4-4h8v2" style="fill:#100f0d"/>
  <path d="m124 376v2h-8v4h8v-8c2.21 1e-3 3.999 1.79 4 4v4c-1e-3 2.21-1.79 3.999-4 4h-8c-2.21-1e-3 -3.999-1.79-4-4v-4c1e-3 -2.21 1.79-3.999 4-4h8v2" style="fill:#100f0d"/>
  <path d="m90 388h10c1.105 0 2 0.895 2 2 0 1.104-0.895 2-2 2h-10c-1.105 0-2-0.896-2-2 0-1.105 0.8953-2 2-2" style="fill:#100f0d"/>
  <path d="m67.02 376.3c-0.0121-0.08-0.08-0.539-0.0804-1.242 7e-4 -0.649 0.0578-1.508 0.2921-2.469 0.1766-0.72 0.4547-1.5 0.8961-2.273 0.6563-1.16 1.709-2.298 3.2-3.087 1.49-0.795 3.369-1.239 5.668-1.238 1.105 0 2 0.895 2 2 0 1.104-0.8953 2-2 2-1.596 0-2.715 0.27-3.504 0.629-0.5934 0.27-1.012 0.589-1.343 0.937-0.491 0.52-0.7922 1.134-0.9761 1.772-0.1832 0.632-0.2344 1.273-0.2336 1.729 0 0.219 0.0109 0.395 0.0207 0.506l0.0121 0.116v2e-3c0.1703 1.091-0.5762 2.114-1.667 2.285-1.091 0.17-2.114-0.576-2.285-1.667" style="fill:#100f0d"/>
  <path d="m118.8 375.9 0.026 1e-3h-0.026v-1e-3l0.026 1e-3h-0.026c0-0.083-8e-3 -0.545-0.133-1.154-0.185-0.924-0.628-2.125-1.567-3.043-0.474-0.464-1.076-0.881-1.92-1.202-0.844-0.32-1.939-0.54-3.381-0.54-1.105 0-2-0.896-2-2 0-1.105 0.895-2 2-2 2.464-2e-3 4.482 0.512 6.068 1.382 1.189 0.649 2.12 1.49 2.812 2.375 1.041 1.332 1.558 2.739 1.827 3.865 0.269 1.13 0.293 1.995 0.294 2.317l-2e-3 0.123c-0.034 1.104-0.957 1.971-2.061 1.937s-1.971-0.957-1.937-2.061" style="fill:#100f0d"/>
  <path d="m80 356v-12c0-1.105 0.8953-2 2-2s2 0.895 2 2v12c0 1.104-0.8953 2-2 2s-2-0.896-2-2" style="fill:#100f0d"/>
  <path d="m86 346h-10c-1.105 0-2-0.896-2-2 0-1.105 0.8953-2 2-2h10c1.105 0 2 0.895 2 2 0 1.104-0.8953 2-2 2" style="fill:#100f0d"/>
  <path d="m106 356v-12c0-1.105 0.895-2 2-2s2 0.895 2 2v12c0 1.104-0.895 2-2 2s-2-0.896-2-2" style="fill:#100f0d"/>
  <path d="m104 342h10c1.105 0 2 0.895 2 2 0 1.104-0.895 2-2 2h-10c-1.105 0-2-0.896-2-2 0-1.105 0.895-2 2-2" style="fill:#100f0d"/>
  <path d="m120 384v22c-8e-3 4.413-3.587 7.992-8 8h-34c-4.413-8e-3 -7.993-3.587-8-8v-22c0-1.105 0.8953-2 2-2s2 0.895 2 2v22c4e-4 1.098 0.4453 2.089 1.177 2.823 0.7343 0.731 1.725 1.176 2.823 1.177h34c1.099-1e-3 2.089-0.446 2.823-1.177 0.732-0.734 1.176-1.725 1.177-2.823v-22c0-1.105 0.895-2 2-2s2 0.895 2 2" style="fill:#100f0d"/>
  <path d="m46 424v2h-26v12h26v-16c2.213 7e-3 3.993 1.786 4 4v12c-0.0074 2.213-1.787 3.992-4 4h-26c-2.213-8e-3 -3.993-1.787-4-4v-12c0.0074-2.214 1.787-3.993 4-4h26v2" style="fill:#100f0d"/>
  <text transform="scale(1.023 -.9776)" x="24.700916" y="-439.14792" style="fill:#100f0d;font-family:'Myriad Pro';font-size:9.411px;font-weight:bold;stroke-width:.9776">
   <tspan x="24.700916" y="-439.14792" style="stroke-width:.9776">A</tspan>
  </text>
  <text transform="scale(1.023 -.9776)" x="30.874092" y="-439.14792" style="fill:#100f0d;font-family:'Myriad Pro';font-size:9.82px;font-weight:bold;stroke-width:.9776">
   <tspan x="30.874092 36.324326" y="-439.14792" style="stroke-width:.9776">21</tspan>
  </text>
  <path d="m108 424v2h-26v12h26v-16c2.213 7e-3 3.992 1.786 4 4v12c-8e-3 2.213-1.787 3.992-4 4h-26c-2.213-8e-3 -3.993-1.787-4-4v-12c0.0074-2.214 1.787-3.993 4-4h26v2" style="fill:#100f0d"/>
  <path d="m90.9 430.5h-2.548l-0.4042-1.222h-1.636l2.341 6.706h1.941l2.341-6.706h-1.64zm-2.143 1.244h1.73l-0.8602 2.668z" style="fill:#100f0d"/>
  <path d="m95.55 436.4c-0.3597 0-0.7281-0.0375-1.104-0.1094-0.3728-0.0688-0.7502-0.1703-1.133-0.3047v-1.536c0.3597 0.2375 0.6965 0.4151 1.01 0.5338 0.3172 0.1219 0.6075 0.1823 0.8724 0.1823 0.3433 0 0.6169-0.0995 0.8229-0.2995 0.2093-0.2 0.3151-0.4636 0.3151-0.7917-1.3e-5 -0.2125-0.05161-0.4177-0.1563-0.6146-0.1014-0.1969-0.2607-0.3979-0.4766-0.6042l-2.404-2.255v-1.326h4.786v1.326h-2.898l1.409 1.313c0.5951 0.5531 0.9835 0.9948 1.167 1.323 0.1864 0.3313 0.2786 0.6865 0.2786 1.068 0 0.6594-0.2181 1.173-0.6563 1.542-0.4349 0.3688-1.045 0.5547-1.833 0.5547zm5.573 0c-0.3597 0-0.7255-0.0375-1.102-0.1094-0.3728-0.0688-0.7502-0.1703-1.133-0.3047v-1.536c0.3597 0.2375 0.6965 0.4151 1.01 0.5338 0.3172 0.1219 0.6075 0.1823 0.8724 0.1823 0.3433 0 0.6169-0.0995 0.8229-0.2995 0.2093-0.2 0.3151-0.4636 0.3151-0.7917 0-0.2125-0.0516-0.4177-0.1562-0.6146-0.1014-0.1969-0.2608-0.3979-0.4766-0.6042l-2.404-2.255v-1.326h4.786v1.326h-2.898l1.409 1.313c0.5951 0.5531 0.9835 0.9948 1.167 1.323 0.1864 0.3313 0.2786 0.6865 0.2786 1.068 0 0.6594-0.218 1.173-0.6562 1.542-0.4349 0.3688-1.048 0.5547-1.836 0.5547z" style="fill:#100f0d"/>
 </g>
</svg>
