<?xml version="1.0" encoding="UTF-8" standalone="no"?>
<svg xmlns:dc="http://purl.org/dc/elements/1.1/" xmlns:cc="http://creativecommons.org/ns#" xmlns:rdf="http://www.w3.org/1999/02/22-rdf-syntax-ns#" xmlns:svg="http://www.w3.org/2000/svg" xmlns="http://www.w3.org/2000/svg" xmlns:xlink="http://www.w3.org/1999/xlink" xmlns:sodipodi="http://sodipodi.sourceforge.net/DTD/sodipodi-0.dtd" xmlns:inkscape="http://www.inkscape.org/namespaces/inkscape" version="1.1" viewBox="0 0 72.741478 99.991501" id="svg52" sodipodi:docname="i67.svg" inkscape:version="0.92.2 (5c3e80d, 2017-08-06)" width="72.741478" height="99.991501">
  <metadata id="metadata56">
    <rdf:RDF>
      <cc:Work rdf:about="">
        <dc:format>image/svg+xml</dc:format>
        <dc:type rdf:resource="http://purl.org/dc/dcmitype/StillImage" />
        <dc:title></dc:title>
      </cc:Work>
    </rdf:RDF>
  </metadata>
  <sodipodi:namedview pagecolor="#ffffff" bordercolor="#666666" borderopacity="1" objecttolerance="10" gridtolerance="10" guidetolerance="10" inkscape:pageopacity="0" inkscape:pageshadow="2" inkscape:window-width="2560" inkscape:window-height="1001" id="namedview54" showgrid="false" inkscape:zoom="4.72" inkscape:cx="13.195315" inkscape:cy="35.866146" inkscape:window-x="-9" inkscape:window-y="41" inkscape:window-maximized="1" inkscape:current-layer="svg52" fit-margin-top="0" fit-margin-left="0" fit-margin-right="0" fit-margin-bottom="0" />
  <defs id="defs19">
    <linearGradient id="linearGradientSlvr" x1="-1869" x2="-1869" y1="794.40002" y2="828" gradientTransform="matrix(1.301,0,0,1.301,1365,-35.3)" gradientUnits="userSpaceOnUse">
      <stop style="stop-color:#696969" offset="0" id="stop2" />
      <stop style="stop-color:#c7c7c9" offset=".17" id="stop4" />
      <stop style="stop-color:#f9f9ff" offset=".36" id="stop6" />
      <stop style="stop-color:#ccccce" offset=".73" id="stop8" />
      <stop style="stop-color:#696969" offset="1" id="stop10" />
    </linearGradient>
    <linearGradient id="linearGradient6730" x1="871.70001" x2="876.59998" y1="864.90002" y2="864.90002" gradientUnits="userSpaceOnUse" xlink:href="#linearGradientSlvr" gradientTransform="matrix(0.3738,0,0,0.3738,-290.36784,-241.54956)" />
    <linearGradient id="linearGradient6738" x1="871.70001" x2="876.59998" y1="831.70001" y2="831.70001" gradientUnits="userSpaceOnUse" xlink:href="#linearGradientSlvr" gradientTransform="matrix(0.3738,0,0,0.3738,-290.36784,-241.54956)" />
    <linearGradient id="linearGradient6746" x1="871.70001" x2="876.59998" y1="806.5" y2="806.5" gradientUnits="userSpaceOnUse" xlink:href="#linearGradientSlvr" gradientTransform="matrix(0.3738,0,0,0.3738,-290.36784,-241.54956)" />
    <linearGradient id="linearGradient6754" x1="871.70001" x2="876.59998" y1="789.40002" y2="789.40002" gradientUnits="userSpaceOnUse" xlink:href="#linearGradientSlvr" gradientTransform="matrix(0.3738,0,0,0.3738,-290.36784,-241.54956)" />
    <linearGradient id="linearGradient37127" x1="776.79999" x2="971.40002" y1="780" y2="780" gradientUnits="userSpaceOnUse" xlink:href="#linearGradientSlvr" gradientTransform="matrix(0.3738,0,0,0.3738,-290.36784,-241.54956)" />
    <linearGradient id="linearGradient37135" x1="785" x2="971.40002" y1="774.29999" y2="774.29999" gradientUnits="userSpaceOnUse" xlink:href="#linearGradientSlvr" gradientTransform="matrix(0.3738,0,0,0.3738,-290.36784,-241.54956)" />
  </defs>
  <path inkscape:connector-curvature="0" id="path21" style="clip-rule:evenodd;fill:url(#linearGradient37127);fill-rule:evenodd;stroke-width:0.37380001" d="M 12.26064,0 H 60.48084 C 67.20924,0 72.74148,5.49486 72.74148,12.26064 V 87.73086 C 72.74148,94.45926 67.24662,99.9915 60.48084,99.9915 H 12.26064 C 5.53224,99.9915 0,94.49664 0,87.73086 V 12.22326 C 0,5.49486 5.53224,0 12.26064,0" />
  <path inkscape:connector-curvature="0" id="path23" style="clip-rule:evenodd;fill:url(#linearGradient37135);fill-rule:evenodd;stroke-width:0.37380001" d="M 12.26064,0 H 60.48084 C 67.20924,0 72.74148,5.49486 72.74148,12.26064 V 87.73086 C 72.74148,90.79602 71.5827,93.6369 69.7137,95.80494 L 3.06516,4.18656 C 5.30796,1.60734 8.5974,0 12.26064,0" />
  <path inkscape:connector-curvature="0" id="path25" style="clip-rule:evenodd;fill:#ffffff;fill-rule:evenodd;stroke-width:0.37380001" d="M 37.64166,25.94172 C 40.85634,26.42766 43.39818,28.85736 44.1084,31.9599 L 60.9294,34.91292 C 61.60224,35.43624 61.677,36.03432 60.9294,36.6324 H 56.85498 C 56.92974,36.89406 56.96712,37.1931 56.96712,37.45476 56.96712,39.32376 55.43454,40.85634 53.56554,40.85634 51.69654,40.85634 50.16396,39.32376 50.16396,37.45476 50.16396,37.15572 50.20134,36.89406 50.2761,36.6324 H 43.7346 C 42.57582,39.51066 39.73494,41.52918 36.4455,41.52918 33.15606,41.52918 30.31518,39.51066 29.1564,36.6324 H 22.57752 C 22.65228,36.89406 22.68966,37.1931 22.68966,37.45476 22.68966,39.32376 21.15708,40.85634 19.28808,40.85634 17.41908,40.85634 15.8865,39.32376 15.8865,37.45476 15.8865,37.15572 15.92388,36.89406 15.99864,36.6324 H 11.84946 C 11.10186,35.99694 11.17662,35.43624 11.84946,34.91292 L 28.81998,31.92252 C 29.5302,28.81998 32.07204,26.42766 35.28672,25.90434 L 35.8848,20.48424 C 35.92218,20.22258 36.10908,19.9983 36.37074,19.9983 36.6324,19.9983 36.8193,20.22258 36.85668,20.48424 Z" />
  <path inkscape:connector-curvature="0" id="path27" style="clip-rule:evenodd;fill:#290a43;fill-rule:evenodd;stroke-width:0.37380001" d="M 11.25138,35.8848 C 11.214,35.54838 11.4009,35.24934 11.7747,34.91292 L 28.74522,31.92252 V 33.34296 Z" />
  <path inkscape:connector-curvature="0" id="path29" style="clip-rule:evenodd;fill:#290a43;fill-rule:evenodd;stroke-width:0.37380001" d="M 35.21196,25.94172 35.81004,20.52162 C 35.84742,20.25996 36.03432,20.03568 36.29598,20.03568 36.55764,20.03568 36.74454,20.25996 36.78192,20.52162 L 37.5669,25.94172 Z" />
  <path inkscape:connector-curvature="0" id="path31" style="clip-rule:evenodd;fill:#290a43;fill-opacity:1;fill-rule:evenodd;stroke-width:0.37380001" d="M 40.44516,32.07204 39.51066,30.05352 H 33.19344 L 32.29632,32.07204 Z" />
  <path inkscape:connector-curvature="0" id="path33" style="clip-rule:evenodd;fill-rule:evenodd;stroke-width:0.37380001" d="M 11.25138,87.88038 29.23116,49.97706 H 43.95888 L 61.45272,87.88038 Z" />
  <rect id="rect35" style="clip-rule:evenodd;fill:url(#linearGradient6754);fill-rule:evenodd;stroke-width:0.37380001" height="3.8127599" width="1.83162" y="51.621777" x="35.473625" />
  <rect id="rect37" style="clip-rule:evenodd;fill:url(#linearGradient6746);fill-rule:evenodd;stroke-width:0.37380001" height="6.3546" width="1.83162" y="56.742844" x="35.473625" />
  <rect id="rect39" style="clip-rule:evenodd;fill:url(#linearGradient6738);fill-rule:evenodd;stroke-width:0.37380001" height="9.8309393" width="1.83162" y="64.405739" x="35.473625" />
  <path inkscape:connector-curvature="0" id="path41" style="clip-rule:evenodd;fill:url(#linearGradient6730);fill-rule:evenodd;stroke-width:0.37380001" d="M 35.47362,75.58236 H 37.30524 V 87.88038 H 35.47362 Z" />
  <path inkscape:connector-curvature="0" id="path43" style="clip-rule:evenodd;fill:#290a43;fill-rule:evenodd;stroke-width:0.37380001" d="M 36.37074,34.0158 C 37.67904,34.0158 38.72568,35.06244 38.72568,36.37074 38.72568,37.67904 37.67904,38.72568 36.37074,38.72568 35.06244,38.72568 34.0158,37.67904 34.0158,36.37074 34.0158,35.06244 35.06244,34.0158 36.37074,34.0158" />
  <path inkscape:connector-curvature="0" id="path45" style="clip-rule:evenodd;fill:#290a43;fill-opacity:1;fill-rule:evenodd;stroke-width:0.37380001" d="M 19.2507,35.1372 C 20.559,35.1372 21.60564,36.18384 21.60564,37.49214 21.60564,38.80044 20.559,39.84708 19.2507,39.84708 17.9424,39.84708 16.89576,38.80044 16.89576,37.49214 16.89576,36.18384 17.97978,35.1372 19.2507,35.1372" />
  <path inkscape:connector-curvature="0" id="path47" style="clip-rule:evenodd;fill:#290a43;fill-opacity:1;fill-rule:evenodd;stroke-width:0.37380001" d="M 53.4534,35.1372 C 54.7617,35.1372 55.80834,36.18384 55.80834,37.49214 55.80834,38.80044 54.7617,39.84708 53.4534,39.84708 52.1451,39.84708 51.09846,38.80044 51.09846,37.49214 51.09846,36.18384 52.18248,35.1372 53.4534,35.1372" />
  <path inkscape:connector-curvature="0" id="path49" style="clip-rule:evenodd;fill:#290a43;fill-rule:evenodd;stroke-width:0.37380001" d="M 61.45272,35.8848 C 61.4901,35.54838 61.3032,35.24934 60.9294,34.91292 L 43.95888,31.92252 V 33.34296 Z" />
</svg>
