<svg version="1.1" viewBox="0 0 54.56 75" xmlns="http://www.w3.org/2000/svg">
 <path d="m9.196 0h36.17c5.047 0 9.196 4.121 9.196 9.196v56.61c0 5.047-4.121 9.196-9.196 9.196h-36.17c-5.047 0-9.196-4.121-9.196-9.196v-56.64c0-5.047 4.15-9.168 9.196-9.168" style="clip-rule:evenodd;fill-rule:evenodd;fill:#86c6df;stroke-width:.2804"/>
 <path d="m9.196 0h36.17c5.047 0 9.196 4.121 9.196 9.196v56.61c0 2.299-0.8692 4.43-2.271 6.056l-49.99-68.72c1.682-1.935 4.15-3.14 6.897-3.14" style="clip-rule:evenodd;fill-rule:evenodd;fill:#71bdd9;stroke-width:.2804"/>
 <path d="m28.23 19.46c2.411 0.3645 4.318 2.187 4.85 4.514l12.62 2.215c0.5047 0.3925 0.5607 0.8411 0 1.29h-3.056c0.05608 0.1963 0.08411 0.4206 0.08411 0.6168 0 1.402-1.15 2.551-2.551 2.551s-2.551-1.15-2.551-2.551c0-0.2243 0.02804-0.4206 0.08411-0.6168h-4.907c-0.8692 2.159-3 3.673-5.467 3.673-2.467 0-4.598-1.514-5.467-3.673h-4.935c0.05608 0.1963 0.08411 0.4206 0.08411 0.6168 0 1.402-1.15 2.551-2.551 2.551s-2.551-1.15-2.551-2.551c0-0.2243 0.02804-0.4206 0.08411-0.6168h-3.112c-0.5607-0.4766-0.5047-0.8972 0-1.29l12.73-2.243c0.5327-2.327 2.439-4.121 4.85-4.514l0.4486-4.065c0.02804-0.1963 0.1682-0.3645 0.3645-0.3645s0.3364 0.1682 0.3645 0.3645z" style="clip-rule:evenodd;fill-rule:evenodd;fill:#ffffff;stroke-width:.2804"/>
 <path d="m8.439 26.92c-0.02804-0.2523 0.1121-0.4766 0.3925-0.729l12.73-2.243v1.065z" style="clip-rule:evenodd;fill-rule:evenodd;fill:#a01b1f;stroke-width:.2804"/>
 <path d="m26.41 19.46 0.4486-4.065c0.02804-0.1963 0.1682-0.3645 0.3645-0.3645s0.3364 0.1682 0.3645 0.3645l0.5888 4.065z" style="clip-rule:evenodd;fill-rule:evenodd;fill:#a01b1f;stroke-width:.2804"/>
 <polygon transform="matrix(.2804 0 0 .2804 -217.8 -181.2)" points="882.5 726.6 865.6 726.6 863.2 732 885 732" style="clip-rule:evenodd;fill-rule:evenodd"/>
 <polygon transform="matrix(.2804 0 0 .2804 -217.8 -181.2)" points="941.2 881.3 806.9 881.3 855 779.9 894.4 779.9" style="clip-rule:evenodd;fill-rule:evenodd"/>
 <rect x="26.61" y="38.72" width="1.374" height="2.86" style="clip-rule:evenodd;fill-rule:evenodd;fill:#ffffff;stroke-width:.2804"/>
 <rect x="26.61" y="42.56" width="1.374" height="4.766" style="clip-rule:evenodd;fill-rule:evenodd;fill:#ffffff;stroke-width:.2804"/>
 <rect x="26.61" y="48.31" width="1.374" height="7.374" style="clip-rule:evenodd;fill-rule:evenodd;fill:#ffffff;stroke-width:.2804"/>
 <rect x="26.61" y="56.69" width="1.374" height="9.224" style="clip-rule:evenodd;fill-rule:evenodd;fill:#ffffff;stroke-width:.2804"/>
 <path d="m27.28 25.51c0.9813 0 1.766 0.785 1.766 1.766 0 0.9813-0.785 1.766-1.766 1.766-0.9813 0-1.766-0.785-1.766-1.766 0-0.9813 0.785-1.766 1.766-1.766" style="clip-rule:evenodd;fill-rule:evenodd;fill:#a01b1f;stroke-width:.2804"/>
 <path d="m14.44 26.36c0.9813 0 1.766 0.785 1.766 1.766 0 0.9813-0.785 1.766-1.766 1.766-0.9813 0-1.766-0.785-1.766-1.766 0-0.9813 0.8131-1.766 1.766-1.766" style="clip-rule:evenodd;fill-rule:evenodd;fill:#414042;stroke-width:.2804"/>
 <path d="m40.09 26.36c0.9813 0 1.766 0.785 1.766 1.766 0 0.9813-0.785 1.766-1.766 1.766s-1.766-0.785-1.766-1.766c0-0.9813 0.8131-1.766 1.766-1.766" style="clip-rule:evenodd;fill-rule:evenodd;fill:#414042;stroke-width:.2804"/>
 <path d="m46.09 26.92c0.02804-0.2523-0.1122-0.4766-0.3925-0.729l-12.73-2.243v1.065z" style="clip-rule:evenodd;fill-rule:evenodd;fill:#a01b1f;stroke-width:.2804"/>
</svg>
