<?xml version="1.0" encoding="UTF-8" standalone="no"?>
<svg xmlns:dc="http://purl.org/dc/elements/1.1/" xmlns:cc="http://creativecommons.org/ns#" xmlns:rdf="http://www.w3.org/1999/02/22-rdf-syntax-ns#" xmlns:svg="http://www.w3.org/2000/svg" xmlns="http://www.w3.org/2000/svg" xmlns:xlink="http://www.w3.org/1999/xlink" xmlns:sodipodi="http://sodipodi.sourceforge.net/DTD/sodipodi-0.dtd" xmlns:inkscape="http://www.inkscape.org/namespaces/inkscape" version="1.1" id="svg360" sodipodi:docname="i6a.svg" inkscape:version="0.92.2 (5c3e80d, 2017-08-06)">
  <metadata id="metadata364">
    <rdf:RDF>
      <cc:Work rdf:about="">
        <dc:format>image/svg+xml</dc:format>
        <dc:type rdf:resource="http://purl.org/dc/dcmitype/StillImage" />
        <dc:title></dc:title>
      </cc:Work>
    </rdf:RDF>
  </metadata>
  <sodipodi:namedview pagecolor="#ffffff" bordercolor="#666666" borderopacity="1" objecttolerance="10" gridtolerance="10" guidetolerance="10" inkscape:pageopacity="0" inkscape:pageshadow="2" inkscape:window-width="2560" inkscape:window-height="1001" id="namedview362" showgrid="false" fit-margin-top="0" fit-margin-left="0" fit-margin-right="0" fit-margin-bottom="0" inkscape:zoom="2.9833995" inkscape:cx="-185.00302" inkscape:cy="31.214735" inkscape:window-x="-9" inkscape:window-y="41" inkscape:window-maximized="1" inkscape:current-layer="car-frnt2" inkscape:snap-global="false" />
  <defs id="defs4543">
    <linearGradient gradientTransform="matrix(0.57325605,0,0,0.57722587,203.42163,118.22166)" inkscape:collect="always" xlink:href="#i24a-linearGradient19435-5-8" id="linearGradient14136" x1="198.97447" y1="331.62976" x2="198.97447" y2="374.7767" gradientUnits="userSpaceOnUse" />
    <linearGradient id="i24a-linearGradient19435-5-8" y2="0.42195001" gradientUnits="userSpaceOnUse" y1="-0.41901001" gradientTransform="matrix(30.74,-19.96,19.96,30.74,326.8,90.8)" x2="0.22702999" x1="0.77307999">
      <stop id="i24a-stop9053" stop-color="#696969" offset="0" />
      <stop id="i24a-stop9055" stop-color="#c7c7c9" offset=".17" />
      <stop id="i24a-stop9057" stop-color="#f9f9ff" offset=".36" />
      <stop id="i24a-stop9059" stop-color="#ccccce" offset=".73" />
      <stop id="i24a-stop9061" stop-color="#696969" offset="1" />
    </linearGradient>
  </defs>
  <g transform="matrix(1.9324845,0,0,1.9324845,-576.05947,-599.76387)" id="car-frnt2" inkscape:label="car-frnt">
    <ellipse style="opacity:1;fill:url(#linearGradient14136);fill-opacity:1;stroke:none;stroke-width:0.09257456;stroke-linecap:round;stroke-linejoin:round;stroke-miterlimit:4;stroke-dasharray:none;stroke-dashoffset:0;stroke-opacity:1" id="path19761" cx="317.49774" cy="322.25253" rx="19.405071" ry="11.89358" />
    <path d="M 309.53326,323.44662 C 309.84214,323.36031 308.96737,322.70025 308.96737,322.70025 308.38448,322.3918 303.96558,321.0147 303.79849,321.07189 303.17244,321.28638 304.45005,322.57164 304.86139,322.80378 305.27273,323.03485 309.22481,323.53208 309.53326,323.44662" style="fill:#000000;fill-opacity:1;fill-rule:nonzero;stroke:none;stroke-width:0.21257989" id="path36712-0-9" inkscape:connector-curvature="0" />
    <path d="M 332.41943,317.50539 330.29129,318.34572 C 330.05023,318.16737 329.82958,318.01048 329.66227,317.89143 329.98242,317.45671 329.95606,316.66506 329.91142,316.2348 330.19011,316.2116 330.67607,316.17828 331.17308,316.17828 331.46092,316.17828 331.71771,316.18973 331.93454,316.21166 332.0759,316.2257 332.1788,316.28161 332.25809,316.38768 332.4679,316.66638 332.45451,317.20845 332.41943,317.50543 M 331.04319,319.98114 325.17195,322.23979 325.16195,322.24341 C 325.1458,322.2498 325.13049,322.25895 325.11669,322.27167 324.99785,322.37775 324.88859,322.48383 324.78039,322.59628 324.67304,322.70895 324.56824,322.82544 324.47087,322.95214 324.37649,323.08224 324.27934,323.21106 324.22598,323.40196 324.21387,323.45083 324.2064,323.5074 324.21514,323.57032 324.22364,323.63473 324.25726,323.70552 324.30655,323.7508 324.33017,323.77485 324.35608,323.79184 324.38138,323.80672 324.39602,323.81456 324.40199,323.81799 324.42386,323.82715 L 324.4532,323.83776 C 324.51443,323.85777 324.54801,323.86053 324.59308,323.86752 324.75804,323.88663 324.91131,323.88452 325.06586,323.8803 325.21976,323.87608 325.37177,323.86692 325.52375,323.85481 325.82775,323.83077 326.1294,323.79829 326.42999,323.76 327.03116,323.68347 327.62936,323.58802 328.22352,323.47217 328.52071,323.41414 328.81662,323.35057 329.1104,323.2768 329.25709,323.23938 329.4027,323.20049 329.54768,323.1552 329.69202,323.10995 329.83573,323.06125 329.97156,322.99471 329.83254,323.05425 329.68692,323.0959 329.5413,323.13331 329.39526,323.17074 329.24795,323.20347 329.09999,323.23216 328.80472,323.29188 328.50689,323.33973 328.20821,323.38373 327.61172,323.4694 327.01202,323.53424 326.41192,323.58037 326.11217,323.60375 325.81138,323.62158 325.51185,323.6299 325.3622,323.63352 325.21254,323.63592 325.0648,323.63292 324.91727,323.6293 324.76761,323.62291 324.63368,323.59977 L 324.5865,323.58977 324.56504,323.58435 324.55269,323.58012 C 324.54908,323.57952 324.5363,323.57374 324.52889,323.57013 324.53372,323.57253 324.52286,323.56651 324.52124,323.5659 324.51443,323.56108 324.50846,323.55615 324.50636,323.55313 324.50033,323.54614 324.50153,323.54397 324.50033,323.53337 324.49991,323.5221 324.50093,323.50233 324.50906,323.47829 324.54119,323.3771 324.62832,323.25678 324.71782,323.15007 324.80965,323.04165 324.91233,322.93791 325.01883,322.83736 325.11641,322.74468 325.21972,322.65497 325.32218,322.57057 L 331.46723,320.55468 C 331.62539,321.40415 331.53547,324.02865 331.33628,326.38128 330.34884,326.49884 329.33165,326.59704 328.29533,326.67783 H 307.91083 C 305.73529,326.55453 304.09991,326.42954 303.29806,326.36364 303.09993,324.01569 303.01086,321.40202 303.1688,320.55468 L 309.31385,322.57057 C 309.41611,322.65497 309.51963,322.74468 309.61742,322.83736 309.72371,322.93791 309.82639,323.04165 309.91843,323.15007 310.00793,323.25678 310.09487,323.3771 310.12676,323.47829 310.13441,323.50233 310.13634,323.5221 310.13592,323.53337 310.13471,323.54397 310.13531,323.54614 310.12953,323.55313 310.12712,323.55615 310.12169,323.56102 310.11507,323.5659 310.11266,323.56651 310.10272,323.57229 310.10699,323.57013 310.09934,323.57374 310.08741,323.57928 310.0838,323.58012 L 310.07126,323.58435 310.04957,323.58977 310.00256,323.59977 C 309.86843,323.62297 309.71877,323.62954 309.57146,323.63292 309.42308,323.63592 309.27363,323.63352 309.12398,323.6299 308.82466,323.62158 308.5245,323.60375 308.22412,323.58037 307.6238,323.53427 307.02411,323.4694 306.4274,323.38373 306.12936,323.33974 305.83175,323.2919 305.53583,323.23216 305.38788,323.20348 305.24078,323.17073 305.09474,323.13331 304.94891,323.09589 304.80329,323.05424 304.66448,322.99471 304.80053,323.06125 304.94444,323.10993 305.08878,323.1552 305.23292,323.20052 305.37938,323.23938 305.52584,323.2768 305.81942,323.35057 306.11555,323.41413 306.41252,323.47217 307.00667,323.58802 307.60487,323.68347 308.20606,323.76 308.50664,323.79826 308.8085,323.83079 309.11228,323.85481 309.26406,323.86692 309.41606,323.87608 309.57039,323.8803 309.72494,323.88452 309.87799,323.88669 310.04317,323.86752 310.08842,323.86053 310.12161,323.85777 310.18262,323.83776 L 310.21214,323.82715 C 310.23402,323.81799 310.2398,323.81462 310.25469,323.80672 310.28,323.79184 310.30591,323.77485 310.32994,323.7508 310.37881,323.70555 310.41284,323.63473 310.42092,323.57032 310.42985,323.5074 310.42213,323.45085 310.41032,323.40196 310.35699,323.21106 310.2596,323.08224 310.16479,322.95214 310.06743,322.82544 309.96368,322.70895 309.8557,322.59628 309.7475,322.48383 309.63844,322.37775 309.5194,322.27167 309.50663,322.25956 309.49071,322.2498 309.47366,322.24341 L 309.46408,322.23979 303.59284,319.98114 C 304.21505,319.4365 305.28986,318.66612 305.73692,318.35703 305.77349,318.33238 305.80388,318.2996 305.83002,318.26434 307.35996,318.20866 313.53796,317.99288 317.31805,317.99288 321.09772,317.99288 327.27593,318.20865 328.80587,318.26434 328.83244,318.29965 328.86263,318.33237 328.89898,318.35703 329.34603,318.66612 330.42126,319.4365 331.04306,319.98114 M 302.21659,317.50543 C 302.18086,317.20888 302.16706,316.6685 302.37773,316.38832 302.45681,316.28225 302.56012,316.2257 302.7017,316.21166 302.91875,316.18979 303.1749,316.17828 303.46358,316.17828 303.95975,316.17828 304.44613,316.21166 304.72482,316.2348 304.68017,316.66506 304.65361,317.45671 304.97375,317.89143 304.80645,318.01048 304.586,318.16737 304.34494,318.34572 Z M 309.4628,313.19388 C 310.07503,313.05656 314.48117,312.83526 317.31805,312.71855 320.15514,312.83526 324.56108,313.05656 325.17331,313.19388 325.621,313.38563 327.19133,315.63941 328.50953,317.7854 326.62161,317.71758 321.12961,317.53307 317.55189,317.52456 H 317.31805 317.084 C 313.50607,317.53306 308.01428,317.71758 306.12636,317.7854 307.44435,315.64004 309.0149,313.38563 309.4628,313.19388 M 332.63294,316.10772 C 332.47627,315.89811 332.25094,315.77311 331.98139,315.74612 331.74862,315.72274 331.4763,315.71081 331.17294,315.71081 330.38916,315.71081 329.65448,315.78776 329.62346,315.79137 329.5601,315.79776 329.50122,315.8309 329.46275,315.88193 329.42339,315.93231 329.40725,315.99715 329.417,316.06007 329.49077,316.52924 329.49672,317.23224 329.32623,317.55217 329.05923,317.11703 328.48229,316.18826 327.85454,315.25291 326.044,312.55739 325.58802,312.44983 325.36907,312.39817 324.60908,312.21918 319.2948,311.98215 317.71172,311.91498 L 317.71052,311.88244 317.31809,311.89859 316.92568,311.88244 316.92447,311.91498 C 315.34097,311.98215 310.02647,312.21918 309.26671,312.39817 309.04733,312.44981 308.59156,312.55739 306.78101,315.25291 306.15347,316.18826 305.57633,317.11703 305.30932,317.55217 305.13904,317.23224 305.1452,316.52924 305.21876,316.06007 305.22852,315.99715 305.21195,315.93231 305.17308,315.88193 305.13416,315.8309 305.07593,315.79775 305.01258,315.79137 304.98131,315.78776 304.2473,315.71081 303.46352,315.71081 303.1591,315.71081 302.88721,315.72274 302.65401,315.74612 302.38531,315.77311 302.15976,315.89811 302.00267,316.10772 301.59281,316.65447 301.75501,317.60853 301.77521,317.7161 301.78985,317.79539 301.84451,317.86129 301.91912,317.89084 L 303.90546,318.67547 C 303.3838,319.07427 302.85617,319.50794 302.60405,319.80576 302.45036,319.98751 302.16507,320.32509 302.30622,323.64537 302.37255,325.21783 302.50733,326.73097 302.50882,326.74671 L 302.54515,327.15401 303.28025,327.08896 C 305.23173,327.24797 311.70926,327.7269 318.93697,327.7269 323.09525,327.7269 327.4965,327.56493 331.43072,327.09513 L 332.09057,327.15399 332.1269,326.74669 C 332.1281,326.73096 332.26295,325.21782 332.3297,323.64537 332.47085,320.32508 332.18494,319.9875 332.03188,319.80575 331.77976,319.50792 331.25192,319.07426 330.73068,318.67546 L 332.71617,317.89083 C 332.79122,317.8613 332.84564,317.79538 332.86052,317.71608 332.88029,317.60852 333.0427,316.65446 332.63284,316.10771" style="fill:#000000;fill-opacity:1;fill-rule:nonzero;stroke:none;stroke-width:0.21257989" id="path36716-6-0" inkscape:connector-curvature="0" />
    <path d="M 330.83805,321.07191 C 330.67032,321.01448 326.25164,322.39182 325.66853,322.70027 325.66853,322.70027 324.79419,323.36033 325.10286,323.44664 325.41173,323.53209 329.36338,323.03487 329.77451,322.80358 330.18628,322.57166 331.46367,321.2864 330.83805,321.07191" style="fill:#000000;fill-opacity:1;fill-rule:nonzero;stroke:none;stroke-width:0.21257989" id="path36720-2-1" inkscape:connector-curvature="0" />
    <path d="M 325.7541,321.24733 C 325.50942,321.31174 325.24518,321.38466 324.96925,321.48287 324.83108,321.53241 324.69035,321.58618 324.54834,321.66038 324.47777,321.69798 324.40613,321.73902 324.33662,321.80322 324.2569,321.87975 324.22969,321.95139 324.18292,322.0071 324.00626,322.242 323.76988,322.4635 323.51414,322.64717 323.38574,322.73794 323.24927,322.82043 323.11024,322.8793 323.04137,322.90883 322.97122,322.93245 322.90659,322.94308 L 322.89827,322.94489 H 322.89213 L 322.86068,322.9461 322.79796,322.9485 322.67169,322.95273 C 322.50163,322.96272 322.34092,322.9523 322.17681,322.95152 322.01354,322.9479 321.85432,322.9473 321.68744,322.94091 321.35774,322.93007 321.03334,322.91946 320.71894,322.90879 320.09012,322.88349 319.5034,322.8595 319.00043,322.83886 318.42286,322.81186 317.95625,322.79017 317.66352,322.77657 L 317.66292,322.74403 317.31854,322.76042 316.97331,322.74403 316.97271,322.77657 C 316.67977,322.79019 316.21358,322.81188 315.636,322.83886 315.13283,322.85946 314.54632,322.88351 313.91751,322.90879 313.60331,322.9194 313.27871,322.93007 312.94878,322.94091 312.78191,322.94706 312.62311,322.9479 312.45921,322.95152 312.29574,322.95212 312.13503,322.96254 311.96475,322.95273 L 311.83891,322.9485 311.77598,322.9461 311.7441,322.94489 H 311.73795 L 311.72988,322.94308 C 311.66526,322.93248 311.59532,322.90885 311.52581,322.8793 311.3872,322.82043 311.25073,322.73794 311.12233,322.64717 310.86659,322.4635 310.62999,322.242 310.45355,322.0071 310.40636,321.95142 310.37915,321.87975 310.30007,321.80322 310.23035,321.73902 310.15934,321.698 310.08812,321.66038 309.94676,321.58618 309.80561,321.5324 309.66764,321.48287 309.39128,321.38466 309.12726,321.31174 308.88237,321.24733 308.39301,321.12 307.98125,321.03454 307.69299,320.97587 307.40474,320.91759 307.23913,320.8887 307.23913,320.8887 307.23913,320.8887 307.40261,320.92824 307.68618,321.00456 307.96956,321.08259 308.37452,321.1944 308.85134,321.35193 309.08921,321.43121 309.34643,321.52177 309.6077,321.63423 309.738,321.69099 309.87066,321.75242 309.9929,321.82746 310.05433,321.86404 310.11321,321.90612 310.15424,321.94991 310.18738,321.98094 310.22014,322.05939 310.26818,322.12869 310.45249,322.41036 310.68229,322.65291 310.94908,322.87421 311.08385,322.98262 311.22734,323.08445 311.39145,323.16777 311.47394,323.20899 311.56088,323.24643 311.66036,323.27046 L 311.67863,323.27528 311.68344,323.27648 311.70002,323.27889 311.70767,323.27949 311.73894,323.28191 311.80187,323.2889 311.92708,323.30101 C 312.09161,323.32161 312.26741,323.32379 312.43769,323.33415 312.6086,323.34204 312.78292,323.35199 312.9464,323.35711 313.27781,323.36772 313.60391,323.37814 313.9198,323.38814 314.5501,323.40429 315.13873,323.41851 315.64297,323.43111 316.20737,323.44111 316.66655,323.44961 316.9616,323.45533 V 323.46871 L 317.31278,323.46232 H 317.31881 317.32484 L 317.67602,323.46871 V 323.45533 C 317.97087,323.4493 318.42983,323.44111 318.99423,323.43111 319.49889,323.41857 320.08731,323.40429 320.71804,323.38814 321.03351,323.37814 321.3596,323.36772 321.69059,323.35711 321.85449,323.35229 322.02881,323.34204 322.19972,323.33415 322.37021,323.32373 322.54559,323.32161 322.71076,323.30101 L 322.83597,323.2889 322.89826,323.28191 322.92971,323.27949 322.93736,323.27889 322.95436,323.27648 322.95857,323.27528 322.97708,323.27046 C 323.07593,323.24641 323.16351,323.20902 323.24578,323.16777 323.40989,323.08445 323.5538,322.98262 323.68815,322.87421 323.95494,322.65291 324.18496,322.41036 324.36905,322.12869 324.4169,322.05939 324.45005,321.98094 324.48342,321.94991 324.52403,321.9061 324.58354,321.86403 324.64391,321.82746 324.76636,321.75242 324.89901,321.69099 325.02911,321.63423 325.2908,321.52177 325.54759,321.43121 325.7859,321.35193 326.26313,321.1944 326.66725,321.08259 326.95105,321.00456 327.23463,320.92825 327.3981,320.8887 327.3981,320.8887 327.3981,320.8887 327.2325,320.91763 326.94403,320.97587 326.65598,321.03456 326.24443,321.12 325.75486,321.24733" style="fill:#000000;fill-opacity:1;fill-rule:nonzero;stroke:none;stroke-width:0.21257989" id="path36724-1-5" inkscape:connector-curvature="0" />
    <path d="M 303.39284,327.6158 C 303.39284,327.6158 302.99107,329.43612 303.39284,329.94738 303.79462,330.45948 307.70779,330.4312 308.25668,329.94738 308.80491,329.46417 308.51282,327.81477 308.51282,327.81477 306.94038,327.81477 303.39284,327.6158 303.39284,327.6158" style="fill:#000000;fill-opacity:1;fill-rule:nonzero;stroke:none;stroke-width:0.21257989" id="path36728-3-4" inkscape:connector-curvature="0" />
    <path d="M 326.0792,327.81468 C 326.0792,327.81468 325.78562,329.46431 326.336,329.94729 326.88614,330.43133 330.81293,330.45939 331.21619,329.94729 331.61945,329.43603 331.21619,327.61571 331.21619,327.61571 331.21619,327.61571 327.65654,327.81468 326.0792,327.81468" style="fill:#000000;fill-opacity:1;fill-rule:nonzero;stroke:none;stroke-width:0.21257989" id="path36732-8-4" inkscape:connector-curvature="0" />
  </g>
</svg>
