<?xml version="1.0" encoding="UTF-8" standalone="no"?>
<svg xmlns:dc="http://purl.org/dc/elements/1.1/" xmlns:cc="http://creativecommons.org/ns#" xmlns:rdf="http://www.w3.org/1999/02/22-rdf-syntax-ns#" xmlns:svg="http://www.w3.org/2000/svg" xmlns="http://www.w3.org/2000/svg" xmlns:xlink="http://www.w3.org/1999/xlink" xmlns:sodipodi="http://sodipodi.sourceforge.net/DTD/sodipodi-0.dtd" xmlns:inkscape="http://www.inkscape.org/namespaces/inkscape" version="1.1" id="svg360" sodipodi:docname="i6a.svg" width="100" height="61.291092" inkscape:version="0.92.2 (5c3e80d, 2017-08-06)">
  <metadata id="metadata364">
    <rdf:RDF>
      <cc:Work rdf:about="">
        <dc:format>image/svg+xml</dc:format>
        <dc:type rdf:resource="http://purl.org/dc/dcmitype/StillImage" />
        <dc:title></dc:title>
      </cc:Work>
    </rdf:RDF>
  </metadata>
  <sodipodi:namedview pagecolor="#ffffff" bordercolor="#666666" borderopacity="1" objecttolerance="10" gridtolerance="10" guidetolerance="10" inkscape:pageopacity="0" inkscape:pageshadow="2" inkscape:window-width="2560" inkscape:window-height="1001" id="namedview362" showgrid="false" fit-margin-top="0" fit-margin-left="0" fit-margin-right="0" fit-margin-bottom="0" inkscape:zoom="2.9833995" inkscape:cx="-60.648226" inkscape:cy="31.214712" inkscape:window-x="-9" inkscape:window-y="41" inkscape:window-maximized="1" inkscape:current-layer="car-frnt2" inkscape:snap-global="false" />
  <defs id="defs4543">
    <linearGradient gradientTransform="matrix(0.76434139,0,0,0.76963448,171.86462,46.246853)" inkscape:collect="always" xlink:href="#i24a-linearGradient19435-5-8" id="linearGradient14136" x1="198.97447" y1="331.62976" x2="198.97447" y2="374.7767" gradientUnits="userSpaceOnUse" />
    <linearGradient id="i24a-linearGradient19435-5-8" y2="0.42195001" gradientUnits="userSpaceOnUse" y1="-0.41901001" gradientTransform="matrix(30.74,-19.96,19.96,30.74,326.8,90.8)" x2="0.22702999" x1="0.77307999">
      <stop id="i24a-stop9053" stop-color="#696969" offset="0" />
      <stop id="i24a-stop9055" stop-color="#c7c7c9" offset=".17" />
      <stop id="i24a-stop9057" stop-color="#f9f9ff" offset=".36" />
      <stop id="i24a-stop9059" stop-color="#ccccce" offset=".73" />
      <stop id="i24a-stop9061" stop-color="#696969" offset="1" />
    </linearGradient>
  </defs>
  <g transform="matrix(1.9324845,0,0,1.9324845,-576.05946,-584.44107)" id="car-frnt2" inkscape:label="car-frnt">
    <ellipse style="opacity:1;fill:url(#linearGradient14136);fill-opacity:1;stroke:none;stroke-width:0.12343274;stroke-linecap:round;stroke-linejoin:round;stroke-miterlimit:4;stroke-dasharray:none;stroke-dashoffset:0;stroke-opacity:1" id="path19761" cx="323.96609" cy="318.28799" rx="25.873428" ry="15.858107" />
    <path d="M 313.34679,319.88012 C 313.75863,319.76504 312.59227,318.88497 312.59227,318.88497 311.81508,318.4737 305.92322,316.63757 305.70043,316.71382 304.8657,316.9998 306.56918,318.71349 307.11763,319.023 307.66609,319.3311 312.93552,319.99407 313.34679,319.88012" style="fill:#000000;fill-opacity:1;fill-rule:nonzero;stroke:none;stroke-width:0.28343984" id="path36712-0-9" inkscape:connector-curvature="0" />
    <path d="M 343.86169,311.95849 341.02417,313.07893 C 340.70275,312.84112 340.40855,312.63194 340.18547,312.47321 340.61234,311.89358 340.57719,310.83805 340.51767,310.26437 340.88926,310.23344 341.5372,310.18901 342.19988,310.18901 342.58367,310.18901 342.92606,310.20428 343.21516,310.23352 343.40365,310.25224 343.54084,310.32678 343.64656,310.46821 343.92631,310.83981 343.90846,311.56257 343.86169,311.95854 M 342.0267,315.25948 334.19838,318.27102 334.18504,318.27585 C 334.16351,318.28436 334.1431,318.29657 334.1247,318.31353 333.96625,318.45497 333.82056,318.5964 333.6763,318.74634 333.53316,318.89656 333.39343,319.05189 333.26361,319.22082 333.13776,319.39428 333.00823,319.56605 332.93709,319.82058 332.92094,319.88574 332.91098,319.96117 332.92263,320.04506 332.93396,320.13094 332.97879,320.22533 333.04451,320.2857 333.07601,320.31776 333.11055,320.34042 333.14428,320.36026 333.16381,320.37071 333.17176,320.37529 333.20093,320.3875 L 333.24005,320.40164 C 333.32169,320.42832 333.36646,320.43201 333.42655,320.44133 333.6465,320.4668 333.85086,320.46399 334.05692,320.45837 334.26213,320.45274 334.4648,320.44053 334.66745,320.42438 335.07278,320.39232 335.47498,320.34902 335.87576,320.29796 336.67732,320.19593 337.47493,320.06866 338.26714,319.91419 338.66339,319.83682 339.05794,319.75206 339.44965,319.6537 339.64523,319.60381 339.83938,319.55195 340.03269,319.49157 340.22514,319.43123 340.41675,319.3663 340.59786,319.27758 340.4125,319.35696 340.21834,319.4125 340.02418,319.46238 339.82946,319.51228 339.63304,319.55592 339.43577,319.59418 339.04207,319.6738 338.64497,319.7376 338.24673,319.79627 337.4514,319.9105 336.65181,319.99695 335.85167,320.05846 335.45201,320.08963 335.05095,320.11341 334.65158,320.1245 334.45204,320.12932 334.2525,320.13253 334.05551,320.12852 333.8588,320.1237 333.65926,320.11518 333.48069,320.08433 L 333.41778,320.07099 333.38917,320.06376 333.3727,320.05813 C 333.36788,320.05733 333.35085,320.04962 333.34097,320.0448 333.3474,320.04801 333.33293,320.03998 333.33076,320.03917 333.32169,320.03274 333.31373,320.02616 333.31092,320.02214 333.30288,320.01282 333.30449,320.00993 333.30288,319.99579 333.30232,319.98076 333.30369,319.95441 333.31453,319.92235 333.35736,319.78743 333.47354,319.62701 333.59287,319.48472 333.71531,319.34017 333.85222,319.20185 333.99422,319.06778 334.12432,318.9442 334.26207,318.82459 334.39869,318.71206 L 342.59209,316.0242 C 342.80297,317.15683 342.68307,320.65617 342.41749,323.793 341.1009,323.94975 339.74465,324.08069 338.36288,324.1884 H 311.18355 C 308.28283,324.02401 306.10232,323.85735 305.03319,323.76948 304.76902,320.63888 304.65026,317.15399 304.86085,316.0242 L 313.05425,318.71206 C 313.19059,318.82459 313.32862,318.9442 313.45901,319.06778 313.60073,319.20185 313.73763,319.34017 313.86035,319.48472 313.97968,319.62701 314.09561,319.78743 314.13812,319.92235 314.14833,319.95441 314.1509,319.98076 314.15034,319.99579 314.14873,320.00993 314.14953,320.01282 314.14182,320.02214 314.13861,320.02616 314.13137,320.03266 314.12254,320.03917 314.11932,320.03998 314.10607,320.04769 314.11177,320.0448 314.10157,320.04962 314.08566,320.05701 314.08084,320.05813 L 314.06413,320.06376 314.0352,320.07099 313.97253,320.08433 C 313.79368,320.11526 313.59414,320.12402 313.39772,320.12852 313.19988,320.13253 313.00062,320.12932 312.80108,320.1245 312.40199,320.11341 312.00178,320.08963 311.60127,320.05846 310.80084,319.99699 310.00126,319.9105 309.20564,319.79627 308.80826,319.73762 308.41144,319.67383 308.01689,319.59418 307.81962,319.55594 307.62348,319.51227 307.42876,319.46238 307.23432,319.41249 307.04016,319.35695 306.85508,319.27758 307.03648,319.3663 307.22837,319.4312 307.42082,319.49157 307.613,319.55199 307.80828,319.60381 308.00357,319.6537 308.395,319.75206 308.78984,319.83681 309.1858,319.91419 309.97801,320.06866 310.77561,320.19593 311.57719,320.29796 311.97796,320.34898 312.38045,320.39235 312.78549,320.42438 312.98786,320.44053 313.19052,320.45274 313.3963,320.45837 313.60236,320.46399 313.80643,320.46688 314.02667,320.44133 314.08701,320.43201 314.13126,320.42832 314.2126,320.40164 L 314.25197,320.3875 C 314.28114,320.37529 314.28885,320.37079 314.3087,320.36026 314.34244,320.34042 314.37699,320.31776 314.40903,320.2857 314.47419,320.22536 314.51957,320.13094 314.53034,320.04506 314.54224,319.96117 314.53195,319.88577 314.5162,319.82058 314.4451,319.56605 314.31524,319.39428 314.18883,319.22082 314.05902,319.05189 313.92069,318.89656 313.77671,318.74634 313.63244,318.5964 313.48703,318.45497 313.32831,318.31353 313.31128,318.29738 313.29006,318.28436 313.26733,318.27585 L 313.25455,318.27102 305.42623,315.25948 C 306.25585,314.5333 307.68892,313.50612 308.285,313.094 308.33376,313.06114 308.37428,313.01743 308.40914,312.97042 310.44906,312.89618 318.68639,312.60847 323.72651,312.60847 328.76607,312.60847 337.00369,312.89616 339.0436,312.97042 339.07903,313.0175 339.11929,313.06112 339.16775,313.094 339.76382,313.50612 341.19746,314.5333 342.02653,315.25948 M 303.59123,311.95854 C 303.54359,311.56314 303.52519,310.84263 303.80608,310.46906 303.91152,310.32763 304.04927,310.25223 304.23804,310.23352 304.52744,310.20436 304.86898,310.18901 305.25389,310.18901 305.91544,310.18901 306.56395,310.23352 306.93554,310.26437 306.87601,310.83805 306.84059,311.89358 307.26745,312.47321 307.04438,312.63194 306.75045,312.84112 306.42903,313.07893 Z M 313.25285,306.20981 C 314.06915,306.02671 319.94401,305.73165 323.72651,305.57604 327.5093,305.73165 333.38388,306.02671 334.20019,306.20981 334.79711,306.46548 336.89088,309.47051 338.64849,312.33183 336.13126,312.24141 328.80859,311.99539 324.0383,311.98405 H 323.72651 323.41444 C 318.64387,311.99538 311.32149,312.24141 308.80426,312.33183 310.56158,309.47136 312.65564,306.46548 313.25285,306.20981 M 344.14637,310.09493 C 343.93747,309.81545 343.63703,309.64878 343.27763,309.61279 342.96727,309.58162 342.60418,309.56571 342.1997,309.56571 341.15466,309.56571 340.17509,309.66832 340.13372,309.67313 340.04925,309.68165 339.97074,309.72584 339.91944,309.79388 339.86697,309.86105 339.84544,309.9475 339.85845,310.0314 339.9568,310.65695 339.96474,311.59429 339.73742,312.02086 339.38142,311.44067 338.61217,310.20231 337.77517,308.95518 335.36111,305.36116 334.75314,305.21774 334.4612,305.14886 333.44789,304.91021 326.36218,304.59417 324.25141,304.50461 L 324.2498,304.46122 323.72657,304.48275 323.20335,304.46122 323.20174,304.50461 C 321.0904,304.59417 314.0044,304.91021 312.99139,305.14886 312.69888,305.21772 312.09119,305.36116 309.67713,308.95518 308.84041,310.20231 308.07088,311.44067 307.71487,312.02086 307.48783,311.59429 307.49605,310.65695 307.59412,310.0314 307.60714,309.9475 307.58504,309.86105 307.53322,309.79388 307.48132,309.72583 307.40369,309.68164 307.31922,309.67313 307.27752,309.66831 306.29884,309.56571 305.2538,309.56571 304.84791,309.56571 304.48539,309.58162 304.17446,309.61279 303.81619,309.64878 303.51546,309.81545 303.306,310.09493 302.75952,310.82393 302.97579,312.09601 303.00272,312.23943 303.02224,312.34515 303.09512,312.43302 303.19461,312.47242 L 305.84306,313.51859 C 305.14751,314.05033 304.44401,314.62855 304.10785,315.02564 303.90292,315.26798 303.52254,315.71808 303.71074,320.14513 303.79918,322.24174 303.97888,324.25926 303.98087,324.28024 L 304.02931,324.82331 305.00944,324.73658 C 307.61142,324.94859 316.24812,325.58717 325.88507,325.58717 331.42944,325.58717 337.29778,325.3712 342.5434,324.7448 L 343.4232,324.82329 343.47165,324.28022 C 343.47325,324.25925 343.65305,322.24172 343.74205,320.14512 343.93025,315.71807 343.54903,315.26796 343.34495,315.02563 343.00879,314.62853 342.30501,314.05031 341.61002,313.51858 L 344.25734,312.4724 C 344.3574,312.43303 344.42996,312.34514 344.4498,312.23941 344.47616,312.09599 344.69271,310.82391 344.14623,310.09491" style="fill:#000000;fill-opacity:1;fill-rule:nonzero;stroke:none;stroke-width:0.28343984" id="path36716-6-0" inkscape:connector-curvature="0" />
    <path d="M 341.75318,316.71384 C 341.52954,316.63727 335.63796,318.47372 334.86049,318.88499 334.86049,318.88499 333.6947,319.76507 334.10626,319.88015 334.51809,319.99409 339.78695,319.33112 340.33513,319.02274 340.88415,318.71351 342.58734,316.99983 341.75318,316.71384" style="fill:#000000;fill-opacity:1;fill-rule:nonzero;stroke:none;stroke-width:0.28343984" id="path36720-2-1" inkscape:connector-curvature="0" />
    <path d="M 334.97458,316.94774 C 334.64834,317.03362 334.29602,317.13084 333.92811,317.26179 333.74388,317.32784 333.55624,317.39954 333.3669,317.49847 333.2728,317.5486 333.17729,317.60333 333.0846,317.68893 332.97831,317.79097 332.94203,317.88649 332.87967,317.96076 332.64413,318.27396 332.32895,318.5693 331.98797,318.81419 331.81677,318.93522 331.63481,319.0452 331.44943,319.1237 331.3576,319.16307 331.26407,319.19457 331.1779,319.20874 L 331.16681,319.21115 H 331.15862 L 331.11668,319.21276 331.03306,319.21597 330.8647,319.2216 C 330.63795,319.23493 330.42367,319.22103 330.20486,319.21999 329.98717,319.21517 329.77487,319.21437 329.55237,319.20585 329.11276,319.19139 328.68023,319.17725 328.26103,319.16302 327.42261,319.12928 326.64031,319.0973 325.96969,319.06978 325.19959,319.03378 324.57744,319.00486 324.18714,318.98672 L 324.18634,318.94334 323.72716,318.96519 323.26686,318.94334 323.26606,318.98672 C 322.87547,319.00488 322.25389,319.03381 321.48378,319.06978 320.81289,319.09725 320.03087,319.12931 319.19246,319.16302 318.77353,319.17717 318.34072,319.19139 317.90082,319.20585 317.67832,319.21404 317.46659,319.21517 317.24806,319.21999 317.0301,319.22079 316.81582,319.23469 316.58878,319.2216 L 316.42099,319.21597 316.33708,319.21276 316.29458,319.21115 H 316.28638 L 316.27562,319.20874 C 316.18946,319.1946 316.0962,319.1631 316.00352,319.1237 315.81871,319.04521 315.63675,318.93522 315.46555,318.81419 315.12457,318.5693 314.8091,318.27396 314.57384,317.96076 314.51093,317.88652 314.47464,317.79097 314.3692,317.68893 314.27624,317.60333 314.18157,317.54863 314.08661,317.49847 313.89812,317.39954 313.70992,317.32783 313.52597,317.26179 313.15749,317.13084 312.80546,317.03362 312.47894,316.94774 311.82646,316.77796 311.27744,316.66402 310.8931,316.58579 310.50876,316.50809 310.28795,316.46957 310.28795,316.46957 310.28795,316.46957 310.50592,316.52228 310.88402,316.62405 311.26186,316.72808 311.80181,316.87716 312.43756,317.0872 312.75473,317.19291 313.09769,317.31366 313.44604,317.4636 313.61978,317.53929 313.79666,317.62119 313.95964,317.72125 314.04155,317.77002 314.12006,317.82612 314.17476,317.88451 314.21895,317.92589 314.26263,318.03048 314.32669,318.12288 314.57243,318.49844 314.87883,318.82185 315.23455,319.11691 315.41425,319.26146 315.60557,319.39723 315.82438,319.50833 315.93436,319.56329 316.05028,319.61321 316.18293,319.64524 L 316.20728,319.65167 316.2137,319.65327 316.2358,319.65649 316.246,319.65729 316.2877,319.66051 316.3716,319.66983 316.53855,319.68598 C 316.75793,319.71345 316.99233,319.71635 317.21937,319.73016 317.44725,319.74069 317.67967,319.75395 317.89764,319.76078 318.33952,319.77492 318.77432,319.78882 319.19551,319.80215 320.03591,319.82369 320.82075,319.84265 321.49307,319.85944 322.24561,319.87278 322.85784,319.88411 323.25125,319.89174 V 319.90958 L 323.71949,319.90106 H 323.72753 323.73556 L 324.2038,319.90958 V 319.89174 C 324.59694,319.8837 325.20888,319.87278 325.96142,319.85944 326.6343,319.84273 327.41886,319.82369 328.25983,319.80215 328.68046,319.78882 329.11525,319.77492 329.55657,319.76078 329.7751,319.75435 330.00752,319.74069 330.2354,319.73016 330.46272,319.71627 330.69656,319.71345 330.91679,319.68598 L 331.08374,319.66983 331.16679,319.66051 331.20873,319.65729 331.21893,319.65649 331.24159,319.65327 331.24721,319.65167 331.27188,319.64524 C 331.40368,319.61318 331.52046,319.56332 331.63015,319.50833 331.84897,319.39723 332.04085,319.26146 332.21998,319.11691 332.5757,318.82185 332.88239,318.49844 333.12784,318.12288 333.19164,318.03048 333.23584,317.92589 333.28034,317.88451 333.33449,317.8261 333.41383,317.77 333.49433,317.72125 333.65759,317.62119 333.83446,317.53928 334.00793,317.4636 334.35684,317.31366 334.69923,317.19291 335.01698,317.0872 335.65329,316.87716 336.19211,316.72808 336.57051,316.62405 336.94862,316.5223 337.16658,316.46957 337.16658,316.46957 337.16658,316.46957 336.94578,316.50814 336.56115,316.58579 336.17709,316.66404 335.62835,316.77796 334.97559,316.94774" style="fill:#000000;fill-opacity:1;fill-rule:nonzero;stroke:none;stroke-width:0.28343984" id="path36724-1-5" inkscape:connector-curvature="0" />
    <path d="M 305.15957,325.43903 C 305.15957,325.43903 304.62387,327.86612 305.15957,328.5478 305.69527,329.2306 310.91283,329.1929 311.64468,328.5478 312.37566,327.90353 311.98621,325.70433 311.98621,325.70433 309.88962,325.70433 305.15957,325.43903 305.15957,325.43903" style="fill:#000000;fill-opacity:1;fill-rule:nonzero;stroke:none;stroke-width:0.28343984" id="path36728-3-4" inkscape:connector-curvature="0" />
    <path d="M 335.40804,325.70421 C 335.40804,325.70421 335.01661,327.90371 335.75044,328.54768 336.48397,329.19307 341.71968,329.23049 342.25736,328.54768 342.79505,327.86601 342.25736,325.43891 342.25736,325.43891 342.25736,325.43891 337.51116,325.70421 335.40804,325.70421" style="fill:#000000;fill-opacity:1;fill-rule:nonzero;stroke:none;stroke-width:0.28343984" id="path36732-8-4" inkscape:connector-curvature="0" />
  </g>
</svg>
