<svg version="1.1" viewBox="0 0 75 45.97" xmlns="http://www.w3.org/2000/svg" xmlns:xlink="http://www.w3.org/1999/xlink">
 <defs>
  <linearGradient id="linearGradient14136" x1="199" x2="199" y1="331.6" y2="374.8" gradientTransform="matrix(1.108 0 0 1.115 -183 -371.3)" gradientUnits="userSpaceOnUse">
   <stop stop-color="#696969" offset="0"/>
   <stop stop-color="#c7c7c9" offset=".17"/>
   <stop stop-color="#f9f9ff" offset=".36"/>
   <stop stop-color="#ccccce" offset=".73"/>
   <stop stop-color="#696969" offset="1"/>
  </linearGradient>
 </defs>
 <ellipse cx="37.5" cy="22.98" rx="37.5" ry="22.98" style="fill:url(#linearGradient14136)"/>
 <path d="m22.11 25.29c0.5969-0.1668-1.094-1.442-1.094-1.442-1.126-0.5961-9.666-3.257-9.989-3.147-1.21 0.4145 1.259 2.898 2.054 3.347 0.7949 0.4465 8.432 1.407 9.028 1.242" style="fill:#000000"/>
 <path d="m66.34 13.81-4.113 1.624c-0.4658-0.3447-0.8922-0.6478-1.216-0.8779 0.6187-0.8401 0.5677-2.37 0.4815-3.201 0.5386-0.04483 1.478-0.1092 2.438-0.1092 0.5562 0 1.052 0.02213 1.472 0.06451 0.2732 0.02713 0.472 0.1352 0.6253 0.3402 0.4055 0.5386 0.3796 1.586 0.3118 2.16m-2.66 4.784-11.35 4.365-0.01932 0.006996c-0.03121 0.01235-0.0608 0.03003-0.08746 0.05461-0.2297 0.205-0.4408 0.41-0.6499 0.6273-0.2075 0.2177-0.41 0.4428-0.5981 0.6877-0.1824 0.2514-0.3701 0.5004-0.4732 0.8693-0.0234 0.09444-0.03784 0.2038-0.02095 0.3254 0.01643 0.1245 0.0814 0.2613 0.1766 0.3488 0.04564 0.04648 0.09572 0.07931 0.1446 0.1081 0.02829 0.01515 0.03983 0.02178 0.08209 0.03948l0.0567 0.0205c0.1183 0.03867 0.1832 0.044 0.2703 0.05751 0.3188 0.03693 0.615 0.03285 0.9136 0.0247 0.2974-0.008155 0.5912-0.02586 0.8849-0.04926 0.5875-0.04646 1.17-0.1092 1.751-0.1832 1.162-0.1479 2.318-0.3323 3.466-0.5562 0.5743-0.1121 1.146-0.235 1.714-0.3776 0.2835-0.07231 0.5649-0.1475 0.845-0.235 0.2789-0.08744 0.5567-0.1816 0.8191-0.3101-0.2687 0.1151-0.5501 0.1955-0.8315 0.2678-0.2822 0.07233-0.5669 0.1356-0.8528 0.191-0.5706 0.1154-1.146 0.2079-1.723 0.2929-1.153 0.1656-2.312 0.2909-3.471 0.38-0.5793 0.04518-1.161 0.07964-1.739 0.09572-0.2892 0.006996-0.5784 0.01163-0.8639 0.005837-0.2851-0.006996-0.5743-0.01934-0.8331-0.06406l-0.09118-0.01932-0.04147-0.01047-0.02387-0.008175c-0.006976-0.001159-0.03167-0.01233-0.04599-0.0193 0.009334 0.004638-0.01165-0.006996-0.01478-0.008175-0.01316-0.009314-0.0247-0.01884-0.02876-0.02468-0.01165-0.01351-0.009334-0.0177-0.01165-0.03819-8.12e-4 -0.02178 0.001159-0.05998 0.01687-0.1064 0.06209-0.1955 0.2305-0.4281 0.4034-0.6343 0.1775-0.2095 0.3759-0.41 0.5817-0.6043 0.1886-0.1791 0.3882-0.3525 0.5862-0.5156l11.88-3.896c0.3056 1.642 0.1319 6.713-0.2531 11.26-1.908 0.2272-3.874 0.417-5.877 0.5731h-39.39c-4.204-0.2383-7.365-0.4798-8.914-0.6072-0.3829-4.537-0.555-9.588-0.2498-11.23l11.88 3.896c0.1976 0.1631 0.3977 0.3365 0.5866 0.5156 0.2054 0.1943 0.4038 0.3948 0.5817 0.6043 0.173 0.2062 0.341 0.4387 0.4026 0.6343 0.01478 0.04646 0.01851 0.08466 0.0177 0.1064-0.002338 0.02048-0.001179 0.02468-0.01235 0.03819-0.004658 0.005836-0.01515 0.01525-0.02794 0.02468-0.004657 0.001179-0.02387 0.01235-0.01561 0.008175-0.01478 0.006976-0.03784 0.01768-0.04482 0.0193l-0.02423 0.008175-0.04192 0.01047-0.09085 0.01932c-0.2592 0.04483-0.5484 0.05753-0.8331 0.06406-0.2867 0.005797-0.5756 0.001159-0.8647-0.005837-0.5784-0.01608-1.158-0.05053-1.739-0.09572-1.16-0.08909-2.319-0.2144-3.472-0.38-0.576-0.08501-1.151-0.1775-1.723-0.2929-0.2859-0.05542-0.5702-0.1187-0.8524-0.191-0.2818-0.07231-0.5632-0.1528-0.8315-0.2678 0.2629 0.1286 0.541 0.2227 0.82 0.3101 0.2785 0.08758 0.5616 0.1627 0.8446 0.235 0.5673 0.1426 1.14 0.2654 1.713 0.3776 1.148 0.2239 2.304 0.4083 3.466 0.5562 0.5809 0.07394 1.164 0.1368 1.751 0.1832 0.2933 0.0234 0.587 0.0411 0.8853 0.04926 0.2987 0.008155 0.5944 0.01235 0.9136-0.0247 0.08744-0.01351 0.1516-0.01884 0.2695-0.05751l0.05705-0.0205c0.04228-0.0177 0.05345-0.02421 0.08223-0.03948 0.04891-0.02876 0.09898-0.06159 0.1454-0.1081 0.09444-0.08744 0.1602-0.2243 0.1758-0.3488 0.01726-0.1216 0.002339-0.2309-0.02048-0.3254-0.1031-0.3689-0.2913-0.6179-0.4745-0.8693-0.1881-0.2448-0.3886-0.47-0.5973-0.6877-0.2091-0.2173-0.4199-0.4223-0.6499-0.6273-0.02468-0.0234-0.05544-0.04226-0.08839-0.05461l-0.01851-0.006996-11.35-4.365c1.202-1.053 3.279-2.541 4.143-3.139 0.07067-0.04764 0.1294-0.111 0.1799-0.1791 2.957-0.1076 14.9-0.5246 22.2-0.5246 7.304 0 19.24 0.417 22.2 0.5246 0.05135 0.06824 0.1097 0.1315 0.1799 0.1791 0.8639 0.5973 2.942 2.086 4.143 3.139m-55.71-4.784c-0.06905-0.5731-0.09572-1.617 0.3114-2.159 0.1528-0.205 0.3525-0.3143 0.6261-0.3414 0.4194-0.04226 0.9145-0.06451 1.472-0.06451 0.9588 0 1.899 0.06451 2.437 0.1092-0.08628 0.8315-0.1376 2.361 0.4811 3.201-0.3233 0.2301-0.7493 0.5332-1.215 0.8779zm14-8.332c1.183-0.2654 9.698-0.693 15.18-0.9186 5.483 0.2255 14 0.6532 15.18 0.9186 0.8652 0.3706 3.9 4.726 6.447 8.873-3.648-0.1311-14.26-0.4876-21.18-0.5041h-0.9042c-6.914 0.01643-17.53 0.373-21.18 0.5041 2.547-4.146 5.582-8.502 6.448-8.873m44.78 5.631c-0.3028-0.4051-0.7382-0.6466-1.259-0.6988-0.4498-0.04518-0.9761-0.06824-1.562-0.06824-1.515 0-2.934 0.1487-2.994 0.1557-0.1224 0.01235-0.2362 0.07639-0.3106 0.175-0.07606 0.09736-0.1073 0.2227-0.08841 0.3443 0.1426 0.9067 0.1541 2.265-0.1754 2.883-0.516-0.8409-1.631-2.636-2.844-4.443-3.499-5.209-4.38-5.417-4.803-5.517-1.469-0.3459-11.74-0.804-14.8-0.9338l-0.002319-0.06288-0.7584 0.03121-0.7583-0.03121-0.002338 0.06288c-3.06 0.1298-13.33 0.5879-14.8 0.9338-0.4239 0.09979-1.305 0.3077-4.804 5.517-1.213 1.808-2.328 3.602-2.844 4.443-0.3291-0.6183-0.3172-1.977-0.175-2.883 0.01886-0.1216-0.01316-0.2469-0.08828-0.3443-0.07521-0.09862-0.1877-0.1627-0.3102-0.175-0.06043-0.006977-1.479-0.1557-2.994-0.1557-0.5883 0-1.114 0.02305-1.564 0.06824-0.5193 0.05216-0.9551 0.2937-1.259 0.6988-0.792 1.057-0.4786 2.9-0.4396 3.108 0.02829 0.1532 0.1339 0.2806 0.2781 0.3377l3.839 1.516c-1.008 0.7707-2.028 1.609-2.515 2.184-0.297 0.3512-0.8483 1.004-0.5756 7.42 0.1282 3.039 0.3886 5.963 0.3915 5.993l0.07021 0.7871 1.421-0.1257c3.771 0.3073 16.29 1.233 30.26 1.233 8.036 0 16.54-0.313 24.14-1.221l1.275 0.1137 0.07021-0.7871c0.002319-0.0304 0.2629-2.955 0.3919-5.993 0.2728-6.416-0.2797-7.069-0.5755-7.42-0.4872-0.5756-1.507-1.414-2.515-2.184l3.837-1.516c0.145-0.05707 0.2502-0.1845 0.279-0.3377 0.0382-0.2079 0.3521-2.052-0.44-3.108" style="fill:#000000"/>
 <path d="m63.28 20.7c-0.3241-0.111-8.863 2.551-9.99 3.147 0 0-1.69 1.276-1.093 1.442 0.5969 0.1651 8.233-0.7957 9.028-1.243 0.7957-0.4482 3.264-2.932 2.055-3.346" style="fill:#000000"/>
 <path d="m53.46 21.04c-0.4728 0.1245-0.9835 0.2654-1.517 0.4552-0.267 0.09574-0.539 0.1996-0.8134 0.343-0.1364 0.07266-0.2748 0.152-0.4091 0.276-0.1541 0.1479-0.2066 0.2863-0.297 0.394-0.3414 0.4539-0.7982 0.882-1.292 1.237-0.2481 0.1754-0.5119 0.3348-0.7805 0.4486-0.1331 0.05707-0.2687 0.1027-0.3936 0.1233l-0.01608 0.003498h-0.01187l-0.06078 0.002339-0.1212 0.004638-0.244 0.008174c-0.3286 0.0193-0.6392-8.31e-4 -0.9563-0.002338-0.3155-0.006996-0.6232-0.008155-0.9457-0.0205-0.6371-0.02095-1.264-0.04145-1.872-0.06207-1.215-0.04889-2.349-0.09525-3.321-0.1351-1.116-0.05218-2.018-0.09409-2.584-0.1204l-0.00116-0.06288-0.6655 0.03167-0.6672-0.03167-0.001159 0.06288c-0.5661 0.02632-1.467 0.06824-2.583 0.1204-0.9724 0.03981-2.106 0.08628-3.321 0.1351-0.6072 0.0205-1.234 0.04112-1.872 0.06207-0.3225 0.01188-0.6294 0.01351-0.9461 0.0205-0.3159 0.001159-0.6265 0.0213-0.9555 0.002338l-0.2432-0.008174-0.1832-0.006977h-0.01188l-0.0156-0.003498c-0.1249-0.02048-0.26-0.06615-0.3944-0.1233-0.2679-0.1138-0.5316-0.2732-0.7797-0.4486-0.4942-0.3549-0.9514-0.783-1.292-1.237-0.09119-0.1076-0.1438-0.2461-0.2966-0.394-0.1347-0.1241-0.272-0.2033-0.4096-0.276-0.2732-0.1434-0.5459-0.2473-0.8126-0.343-0.5341-0.1898-1.044-0.3307-1.518-0.4552-0.9457-0.2461-1.741-0.4112-2.298-0.5246-0.557-0.1126-0.8771-0.1685-0.8771-0.1685s0.3159 0.07641 0.8639 0.2239c0.5476 0.1508 1.33 0.3669 2.252 0.6713 0.4597 0.1532 0.9568 0.3282 1.462 0.5455 0.2518 0.1097 0.5082 0.2284 0.7444 0.3734 0.1187 0.07069 0.2325 0.152 0.3118 0.2366 0.06404 0.05996 0.1274 0.2116 0.2202 0.3455 0.3562 0.5443 0.8003 1.013 1.316 1.441 0.2604 0.2095 0.5377 0.4063 0.8549 0.5673 0.1594 0.07966 0.3274 0.152 0.5197 0.1984l0.03531 0.009315 0.009296 0.002319 0.03204 0.004657 0.01478 0.00116 0.06043 0.004676 0.1216 0.01351 0.242 0.0234c0.318 0.03981 0.6577 0.04402 0.9867 0.06404 0.3303 0.01525 0.6672 0.03448 0.9831 0.04437 0.6404 0.0205 1.271 0.04064 1.881 0.05996 1.218 0.03121 2.356 0.05869 3.33 0.08304 1.091 0.01932 1.978 0.03575 2.548 0.0468v0.02586l0.6786-0.01235h0.02331l0.6786 0.01235v-0.02586c0.5698-0.01165 1.457-0.02748 2.547-0.0468 0.9752-0.02423 2.112-0.05183 3.331-0.08304 0.6096-0.01932 1.24-0.03946 1.879-0.05996 0.3167-0.009315 0.6536-0.02912 0.9839-0.04437 0.3295-0.02014 0.6684-0.02423 0.9876-0.06404l0.242-0.0234 0.1204-0.01351 0.06078-0.004676 0.01478-0.00116 0.03285-0.004657 0.008136-0.002319 0.03577-0.009315c0.191-0.04648 0.3603-0.1187 0.5193-0.1984 0.3171-0.161 0.5952-0.3578 0.8549-0.5673 0.5156-0.4277 0.9601-0.8964 1.316-1.441 0.09247-0.1339 0.1565-0.2855 0.221-0.3455 0.07848-0.08466 0.1935-0.166 0.3101-0.2366 0.2366-0.145 0.493-0.2637 0.7444-0.3734 0.5057-0.2173 1.002-0.3923 1.462-0.5455 0.9222-0.3044 1.703-0.5205 2.252-0.6713 0.548-0.1475 0.8639-0.2239 0.8639-0.2239s-0.32 0.05591-0.8775 0.1685c-0.5567 0.1134-1.352 0.2785-2.298 0.5246" style="fill:#000000"/>
 <path d="m10.24 33.35s-0.7764 3.518 0 4.506c0.7764 0.9896 8.339 0.935 9.399 0 1.059-0.9338 0.495-4.121 0.495-4.121-3.039 0-9.894-0.3845-9.894-0.3845" style="fill:#000000"/>
 <path d="m54.08 33.73s-0.5673 3.188 0.4963 4.121c1.063 0.9354 8.652 0.9896 9.431 0 0.7793-0.988 0-4.506 0-4.506s-6.879 0.3845-9.927 0.3845" style="fill:#000000"/>
</svg>
