<svg version="1.1" viewBox="0 0 75 75.4" xmlns="http://www.w3.org/2000/svg">
 <path d="m3.677e-7 37.89a37.5 37.5 0 1 0 75 0 37.5 37.5 0 1 0-75 0" style="fill:#ff9311;stroke-width:.75"/>
 <path d="m63.99 10.98-53.03 53.03c14.64 14.64 38.39 14.64 53.03 0 14.65-14.64 14.65-38.39 0-53.03z" style="opacity:.1;stroke-width:.75"/>
 <path d="m37.48 0v75c20.71 0 37.5-16.79 37.5-37.5 0-20.71-16.79-37.5-37.5-37.5z" style="opacity:.1;stroke-width:.75"/>
 <path d="m55.5 49.89c0 1.057-0.5401 1.597-0.9664 2.032l-2.25 2.25c-1.575 1.568-2.476 1.703-3.495 1.718h-0.05344c-1.29 0-9.697-1.867-18.52-10.72-8.858-8.827-10.72-17.24-10.72-18.53 0-1.028 0.1208-1.935 1.718-3.533l2.25-2.25c0.4367-0.4254 0.9744-0.9664 2.032-0.9664 0.9366 0 1.628 0.3542 2.115 1.079 2.25 3.375 3.105 4.635 3.532 5.265 0.4367 0.6402 0.4367 0.6402 0.9813 1.5 0.72 1.126 0.6374 2.25-0.2271 3.166-1.837 1.964-1.515 3.848-1.238 4.402 0.705 1.403 1.672 3.12 4.364 5.805 2.16 2.168 3.562 2.865 5.056 3.615 0.2542 0.1208 1.808 0.7438 4.44-1.409 0.9366-0.7736 2.017-0.7954 3.142-0.05344l6.75 4.508c0.7288 0.4876 1.081 1.178 1.081 2.116z" style="fill:#681f03;stroke-width:.75"/>
</svg>
