<svg version="1.1" viewBox="0 0 75 74.94" xmlns="http://www.w3.org/2000/svg" xmlns:xlink="http://www.w3.org/1999/xlink">
 <defs>
  <linearGradient id="linearGradient840" x1="-1415" x2="-1435" y1="-182.3" y2="-182.3" gradientTransform="matrix(3.839 0 0 3.839 5507 739.4)" gradientUnits="userSpaceOnUse">
   <stop style="stop-color:#696969" offset="0"/>
   <stop style="stop-color:#c7c7c9" offset=".17"/>
   <stop style="stop-color:#f9f9ff" offset=".36"/>
   <stop style="stop-color:#ccccce" offset=".73"/>
   <stop style="stop-color:#696969" offset="1"/>
  </linearGradient>
 </defs>
 <path d="m0 37.47a37.47 37.47 0 1 0 74.94 0 37.47 37.47 0 1 0-74.94 0" style="fill:url(#linearGradient840)"/>
 <path d="m64.02 10.92-52.99 52.99c14.63 14.63 38.36 14.63 52.99 0 14.63-14.63 14.63-38.36 0-52.99z" style="fill:#000000;opacity:.103"/>
 <path d="m37.47 0v74.94c20.69 0 37.47-16.78 37.47-37.47s-16.78-37.47-37.47-37.47z" style="fill:#000000;opacity:.104"/>
 <path d="m23.31 48.39h24.43c1.447 0 2.819-1.372 2.819-2.819v-13.16c0-1.447-1.372-2.819-2.819-2.819h-6.579v-1.879c0-1.193-0.6863-1.879-1.879-1.879h-7.518c-1.193 0-1.879 0.6863-1.879 1.879v1.879h-6.579c-1.447 0-2.819 1.372-2.819 2.819v13.16c0 1.447 1.372 2.819 2.819 2.819zm21.61-16.91h1.879v15.04h-1.879zm-3.759 0h1.879v15.04h-1.879zm-9.397-3.759h7.518v1.879h-7.518zm-3.759 3.759h1.879v15.04h-1.879zm-3.759 0h1.879v15.04h-1.879zm37.15-14.24-7.075 4.423v26.73c0 2.759-2.249 3.759-3.759 3.759h-30.06v-1.879h30.06c0.4364-0.008851 1.879-0.1635 1.879-1.879v-27.77l7.96-4.974zm-29.62 39.62c0 2.073-1.686 3.759-3.759 3.759-2.073 0-3.759-1.686-3.759-3.759 0-2.073 1.686-3.759 3.759-3.759 2.073 0 3.759 1.686 3.759 3.759zm15.04 0c0 2.073-1.686 3.759-3.759 3.759-2.073 0-3.759-1.686-3.759-3.759 0-2.073 1.686-3.759 3.759-3.759 2.073 0 3.759 1.686 3.759 3.759z" style="fill:#290a43;stroke-width:.9397"/>
</svg>
