<svg version="1.1" viewBox="0 0 73.98 75" xmlns="http://www.w3.org/2000/svg">
 <defs>
  <radialGradient id="radialGradient37146" cx="-325.8" cy="-276.8" r="11.08" gradientTransform="matrix(2.997 0 0 2.997 1018 862)" gradientUnits="userSpaceOnUse">
   <stop style="stop-color:#787878" offset="0"/>
   <stop style="stop-color:#c7c7c9" offset=".17"/>
   <stop style="stop-color:#f9f9ff" offset=".36"/>
   <stop style="stop-color:#ccccce" offset=".73"/>
   <stop style="stop-color:#696969" offset="1"/>
  </radialGradient>
 </defs>
 <circle cx="37.02" cy="38.44" r="33.21" style="fill:url(#radialGradient37146);stroke-width:2.997"/>
 <path d="m34.02 6.976v9.584c-3.719 0.1004-7.106 0.3932-10.05 0.7633-0.7283 0.09081-1.437 0.1882-2.133 0.2895 1.987-5.685 4.088-8.91 4.118-8.955l-0.06743-0.04556c2.579-0.8838 5.308-1.445 8.137-1.638zm4.355 0c2.87 0.1954 5.637 0.7702 8.248 1.677l-0.008991 0.005994c0.03027 0.04376 2.101 3.219 4.073 8.823-4.325-0.6069-8.46-0.8871-12.31-0.9455zm-18.86 4.651c-0.8149 1.838-1.703 4.121-2.529 6.812-2.5 0.4867-4.672 1.006-6.467 1.489 2.433-3.312 5.49-6.135 8.997-8.302zm-0.757 53.8c-3.674-2.37-6.587-4.951-8.652-8.392 2.079 0.6105 4.121 0.9195 6.348 1.33 0.7555 2.319 1.551 4.936 2.305 7.061zm-0.3728-28.83c0.1316-4.232 0.6411-7.966 1.285-11.09 0.2341-1.137 0.4897-2.22 0.7612-3.255 1.336-0.2245 2.745-0.4328 4.226-0.6165 2.755-0.3417 5.91-0.6105 9.372-0.7076v15.62c-5.209 0.1469-10.43 0.05844-15.64 0.05844zm35.81 0c-5.263 0.01498-10.52-1.5e-4 -15.79-0.03476-0.04226-5.224-0.02997-10.44-0.02997-15.67 5.2-0.08931 9.315 1.15 13.6 1.352 1.478 4.756 2.072 10.17 2.216 14.35zm10.97-11.13c1.543 3.548 2.59 7.693 2.837 11.13h-9.449c-0.2314-4.768-0.7741-9.351-1.733-13.59 1.994 0.4358 6.3 1.859 8.344 2.462m-3.27-5.532-6.467-1.489c-0.008991-0.02098-1.938-5.365-2.529-6.812 3.803 2.122 6.497 5.134 8.997 8.302zm-19.5-16.85c-2.012-0.3488-4.082-0.5332-6.192-0.5332-19.97 0-36.2 16.25-36.2 36.23 0 8.688 3.075 16.67 8.194 22.91l5.395 5.341c6.204 4.978 14.07 7.963 22.63 7.963 19.97 0 36.23-16.25 36.23-36.23 0-1.238-0.06593-2.463-0.1882-3.668-1.685-17.33-16.19-29.84-29.84-32.01zm11.8 37.85c-0.137 4.271-0.6815 8.958-1.832 13.99-4.936 0.8191-9.644 1.183-13.98 1.251v-15.28c5.266 0.122 10.54 0.04855 15.81 0.04855zm-20.16 15.21c-4.897-0.08571-8.913-0.6464-13.67-1.416-1.243-4.516-1.822-9.587-1.967-13.79 5.227 0.008991 10.45-4.79e-4 15.68-0.01798-0.05514 5.077-0.03956 10.15-0.03956 15.23zm-18.3-33c-0.09381 0.4118-0.1858 0.8266-0.2736 1.251-0.7187 3.429-1.286 7.534-1.421 12.19h-9.617c0.2673-3.947 1.255-7.702 2.837-11.13 1.428-0.4879 4.382-1.416 8.475-2.313zm-11.31 17.8h9.62c0.1202 3.992 0.5736 8.323 1.507 12.94-4.25-0.9393-7.241-1.905-8.538-2.357-1.436-3.279-2.336-6.842-2.589-10.58zm54.13 0h9.449c-0.2601 3.83-1.198 7.477-2.698 10.82-2.803 0.9183-5.571 1.664-8.29 2.266 0.9527-4.669 1.417-9.051 1.538-13.09zm3.605 16.3c-2.249 3.15-5.056 5.871-8.278 8.026 0.793-2.238 1.463-4.427 2.032-6.566 2.052-0.4064 4.136-0.8907 6.246-1.461zm-40.76 2.141c4.238 0.6237 8.916 1.009 12.64 1.118v10.05c-3.303-0.2257-6.47-0.9524-9.425-2.113-1.308-3.111-2.37-6.135-3.222-9.06zm29.78 0.1289c-0.8368 2.859-1.876 5.811-3.147 8.85-3.012 1.204-6.249 1.964-9.629 2.194v-10.03c3.992-0.06054 8.284-0.3629 12.78-1.017z" style="fill:#000000;stroke-width:2.997"/>
 <path d="m43.01 29.45-5.341 5.395 2.518 2.492 5.341-5.395zm-7.121 7.193-5.338 5.395 2.518 2.492 5.341-5.395zm-7.118 7.193-5.341 5.395 2.518 2.492 5.341-5.395zm-7.121 7.193-5.341 5.395 2.52 2.492 5.338-5.395zm-7.121 7.193-5.338 5.395 2.518 2.494 5.341-5.395zm-6.83 7.088-5.341 5.395 2.518 2.494 5.341-5.395z" style="fill:#290a43;stroke-width:2.997"/>
 <path d="m72.98 32.15-7.415-19.06 5.287-4.75c0.6854-0.6144 3.527-5.044 3.081-5.91-0.7711-0.5829-5.61 1.712-6.3 2.328l-5.317 4.777-18.07-9.351s-3.3-1.351 1.095 3.333l11.8 10.72c-1.957 1.909-6.381 6.297-9.15 9.354l-6.195-2.353s-1.294-0.3345 0.2467 1.281l4.001 3.381c-0.35 0.4753-0.5212 0.7981-0.4367 0.8952l0.4127 0.4576-0.3812 0.3417c-0.05424 0.05125-0.06054 0.1379-0.008991 0.1984 0.05005 0.05125 0.1391 0.05874 0.1963 0.008991l0.3803-0.3429 0.3626 0.3971c0.08571 0.1004 0.4346-0.03956 0.9518-0.3417l3.006 4.451c1.444 1.705 1.247 0.3812 1.247 0.3812l-1.713-6.545c3.345-2.429 8.152-6.324 10.25-8.056l9.47 12.97c4.184 4.87 3.195 1.442 3.195 1.442" style="fill:#290a43;stroke-width:2.997"/>
</svg>
