<?xml version="1.0" encoding="UTF-8" standalone="no"?>
<svg xmlns:dc="http://purl.org/dc/elements/1.1/" xmlns:cc="http://creativecommons.org/ns#" xmlns:rdf="http://www.w3.org/1999/02/22-rdf-syntax-ns#" xmlns:svg="http://www.w3.org/2000/svg" xmlns="http://www.w3.org/2000/svg" xmlns:sodipodi="http://sodipodi.sourceforge.net/DTD/sodipodi-0.dtd" xmlns:inkscape="http://www.inkscape.org/namespaces/inkscape" version="1.1" viewBox="0 0 100 101.7" id="svg25" sodipodi:docname="i71.svg" inkscape:version="0.92.2 (5c3e80d, 2017-08-06)">
  <metadata id="metadata29">
    <rdf:RDF>
      <cc:Work rdf:about="">
        <dc:format>image/svg+xml</dc:format>
        <dc:type rdf:resource="http://purl.org/dc/dcmitype/StillImage" />
        <dc:title></dc:title>
      </cc:Work>
    </rdf:RDF>
  </metadata>
  <sodipodi:namedview pagecolor="#ffffff" bordercolor="#666666" borderopacity="1" objecttolerance="10" gridtolerance="10" guidetolerance="10" inkscape:pageopacity="0" inkscape:pageshadow="2" inkscape:window-width="2560" inkscape:window-height="1001" id="namedview27" showgrid="false" inkscape:zoom="1.6408771" inkscape:cx="-42.197053" inkscape:cy="63.266566" inkscape:window-x="-9" inkscape:window-y="41" inkscape:window-maximized="1" inkscape:current-layer="svg25" />
  <defs id="defs13">
    <radialGradient id="radialGradient37146" cx="-325.7583" cy="-276.767" r="11.08" gradientUnits="userSpaceOnUse" gradientTransform="matrix(4.053,0,0,4.053,1377,1166)" fx="-325.7583" fy="-276.767">
      <stop style="stop-color:#787878;stop-opacity:1" offset="0" id="stop2" />
      <stop style="stop-color:#c7c7c9" offset=".17" id="stop4" />
      <stop style="stop-color:#f9f9ff" offset=".36" id="stop6" />
      <stop style="stop-color:#ccccce" offset=".73" id="stop8" />
      <stop style="stop-color:#696969" offset="1" id="stop10" />
    </radialGradient>
  </defs>
  <circle id="circle15" style="fill:url(#radialGradient37146);stroke-width:4.05299997" r="44.907238" cy="52.235649" cx="50.453148" />
  <path inkscape:connector-curvature="0" id="path17" style="fill:#000000;stroke-width:4.05299997" d="M 46.4001,9.6791 V 22.640594 C 41.370327,22.77637 36.790437,23.172348 32.806338,23.672893 31.821459,23.795699 30.862519,23.927422 29.921818,24.064413 32.608957,16.375872 35.45011,12.014844 35.49064,11.954049 L 35.399447,11.892443 C 38.887459,10.697214 42.57731,9.9380867 46.403342,9.6778841 Z M 52.289109,9.6791 C 56.170262,9.9433556 59.912802,10.720721 63.442965,11.947159 L 63.430806,11.955265 C 63.471741,12.014439 66.272364,16.308187 68.938833,23.887297 63.090354,23.066564 57.497214,22.687609 52.289109,22.608575 Z M 26.779527,15.969356 C 25.677516,18.454656 24.476207,21.542231 23.358795,25.181825 19.977782,25.840032 17.040168,26.542417 14.612421,27.195355 17.902646,22.71679 22.037517,18.898864 26.779527,15.968545 Z M 25.755739,88.720706 C 20.786761,85.515188 16.847245,82.02515 14.054728,77.372306 16.865889,78.197902 19.627603,78.615766 22.638982,79.171027 23.660744,82.306834 24.736815,85.846318 25.755739,88.719895 Z M 25.251546,49.730846 C 25.429473,44.00801 26.118483,38.957972 26.988662,34.72664 27.305201,33.189337 27.650922,31.724583 28.018124,30.325082 29.824951,30.021512 31.730672,29.739829 33.732854,29.49138 37.458371,29.029338 41.72537,28.665784 46.406585,28.534467 V 49.65465 C 39.362471,49.853247 32.302145,49.733683 25.253978,49.733683 Z M 73.684896,49.730846 C 66.567828,49.751111 59.454813,49.730643 52.337745,49.683831 52.280598,42.619452 52.297215,35.559126 52.297215,28.494747 59.32917,28.373968 64.893939,30.050289 70.685676,30.323056 72.683805,36.755166 73.48792,44.08299 73.68287,49.72882 Z M 88.514823,34.682057 C 90.601307,39.480809 92.01702,45.086108 92.350988,49.730846 H 79.571879 C 79.258987,43.282523 78.524989,37.085486 77.228839,31.350491 79.925705,31.939797 85.748245,33.864972 88.512391,34.68003 M 84.090568,27.198193 75.344194,25.184662 C 75.332035,25.156291 72.722714,17.929792 71.923462,15.972193 77.066719,18.842528 80.710366,22.914982 84.090568,27.199003 Z M 57.725803,4.4122265 C 55.004619,3.9404573 52.205617,3.6911978 49.352305,3.6911978 22.343113,3.6911978 0.3920652,25.662511 0.3920652,52.691968 0.3920652,64.441615 4.5504432,75.234754 11.472967,83.681206 L 18.768367,90.903652 C 27.158077,97.635685 37.801255,101.67247 49.37257,101.67247 76.381762,101.67247 98.37334,79.70116 98.37334,52.671703 98.37334,50.997408 98.284174,49.341353 98.118812,47.710831 95.840621,24.280438 76.228559,7.3510568 57.763091,4.4247908 Z M 73.678411,55.601617 C 73.493189,61.377141 72.756759,67.716034 71.201218,74.516967 64.525927,75.624652 58.158664,76.116687 52.298026,76.20869 V 55.53839 C 59.419147,55.703347 66.552427,55.604048 73.677601,55.604048 Z M 46.409827,76.170591 C 39.787225,76.054676 34.356205,75.296359 27.924094,74.255954 26.24291,68.148083 25.459465,61.290407 25.264516,55.604048 32.332948,55.616207 39.397327,55.6034 46.465759,55.57973 46.391183,62.445512 46.412259,69.307241 46.412259,76.173023 Z M 21.662209,31.547062 C 21.53535,32.103944 21.410923,32.664879 21.29217,33.238784 20.320261,37.875416 19.553433,43.428026 19.369832,49.726388 H 6.3637554 C 6.725283,44.388587 8.0611518,39.310178 10.200325,34.677599 12.13158,34.01777 16.125811,32.762556 21.662209,31.549088 Z M 6.3621342,55.613775 H 19.372264 C 19.534789,61.012371 20.148008,66.868956 21.409707,73.110576 15.662553,71.840366 11.617659,70.534895 9.8627103,69.922892 7.9201074,65.48891 6.7033968,60.669893 6.3613236,55.615802 Z M 79.559314,55.613775 H 92.338423 C 91.986623,60.79351 90.718439,65.726011 88.689913,70.249159 84.899142,71.490998 81.155386,72.499384 77.479315,73.313227 78.767763,66.998652 79.395978,61.073166 79.55972,55.613775 Z M 84.435073,77.662096 C 81.393297,81.921799 77.597662,85.601922 73.240687,88.51603 74.313111,85.489654 75.218551,82.529749 75.988621,79.635907 78.763305,79.08632 81.581761,78.431355 84.435073,77.660069 Z M 29.314273,80.557559 C 35.045215,81.400988 41.371948,81.922204 46.41388,82.069733 V 95.667548 C 41.947474,95.362357 37.663453,94.379505 33.667195,92.809778 31.898466,88.602764 30.462083,84.513287 29.31022,80.557559 Z M 69.584881,80.731838 C 68.453284,84.598805 67.048514,88.590605 65.329231,92.700347 61.255966,94.329247 56.878726,95.355872 52.306942,95.667953 V 82.106615 C 57.705538,82.024745 63.509434,81.615797 69.588934,80.731432 Z" />
  <path inkscape:connector-curvature="0" id="path19" style="fill:#290a43;stroke-width:4.05299997" d="M 58.5591,40.0766 51.336654,47.372 54.741579,50.741664 61.964025,43.446264 Z M 48.929172,49.8038 41.710779,57.0992 45.115704,60.468864 52.33815,53.173464 Z M 39.303297,59.531 32.080851,66.8264 35.485776,70.19647 42.708222,62.901069 Z M 29.673369,69.2582 22.450923,76.5536 25.85828,79.923669 33.076673,72.628269 Z M 20.043441,78.9854 12.825048,86.2808 16.229973,89.653301 23.452419,82.357901 Z M 10.806654,88.570745 3.584208,95.866145 6.9891333,99.238646 14.211579,91.943246 Z" />
  <path inkscape:connector-curvature="0" id="path21" style="fill:#290a43;stroke-width:4.05299997" d="M 99.0891,43.7243 89.061978,17.943167 96.21147,11.519162 C 97.138391,10.688297 100.98185,4.697963 100.37795,3.526646 99.335117,2.7383375 92.790738,5.8421249 91.858548,6.6746111 L 84.668526,13.135093 60.237042,0.4897331 C 60.237042,0.4897331 55.774689,-1.336954 61.717603,4.9966691 L 77.674264,19.498303 C 75.02806,22.079659 69.045427,28.013656 65.300455,32.147716 L 56.922904,28.966111 C 56.922904,28.966111 55.172413,28.513796 57.256466,30.698363 L 62.667221,35.270147 C 62.19383,35.912953 61.962404,36.349461 62.076699,36.480778 L 62.634797,37.099672 62.119255,37.561713 C 62.045896,37.63102 62.037385,37.748151 62.107096,37.830022 62.174781,37.899328 62.295155,37.909461 62.372568,37.842181 L 62.886893,37.378518 63.377306,37.91554 C 63.493222,38.051316 63.964991,37.862041 64.664539,37.453498 L 68.729698,43.472203 C 70.682434,45.777955 70.416557,43.987745 70.416557,43.987745 L 68.099457,35.135993 C 72.622605,31.851036 79.123617,26.584163 81.956664,24.241529 L 94.764144,41.77886 C 100.42213,48.364985 99.084642,43.728758 99.084642,43.728758" />
</svg>
