<svg version="1.1" viewBox="0 0 74.01 75" xmlns="http://www.w3.org/2000/svg" xmlns:xlink="http://www.w3.org/1999/xlink">
 <defs>
  <radialGradient id="i71-radialGradient37146" cx="-325.8" cy="-276.8" r="11.08" gradientTransform="matrix(3.28 .04417 -.04304 3.196 1098 931.4)" gradientUnits="userSpaceOnUse">
   <stop stop-color="#787878" style="stop-color:#b1b1b1" offset="0"/>
   <stop stop-color="#c7c7c9" style="stop-color:#f8f8f8" offset=".2994"/>
   <stop stop-color="#f9f9ff" style="stop-color:#b5b5b5" offset=".6695"/>
   <stop stop-color="#ccccce" style="stop-color:#ddddde" offset=".775"/>
   <stop stop-color="#696969" offset="1"/>
  </radialGradient>
  <radialGradient id="radialGradient34529" cx="-325.8" cy="-276.8" r="11.08" gradientTransform="matrix(4.053,0,0,4.053,1377,1166)" gradientUnits="userSpaceOnUse">
   <stop stop-color="#787878" offset="0"/>
   <stop stop-color="#c7c7c9" offset=".17"/>
   <stop stop-color="#f9f9ff" offset=".36"/>
   <stop stop-color="#ccccce" offset=".73"/>
   <stop stop-color="#696969" offset="1"/>
  </radialGradient>
  <linearGradient id="linearGradient35161" x2="25.91" y1="13.87" y2="13.87" gradientTransform="matrix(2.75 0 0 2.75 .7251 .5109)" gradientUnits="userSpaceOnUse" xlink:href="#radialGradient34529"/>
  <linearGradient id="linearGradient35171" x1=".8442" x2="16.28" y1="18.36" y2="18.36" gradientTransform="matrix(2.75 0 0 2.75 .7251 .5109)" gradientUnits="userSpaceOnUse" xlink:href="#radialGradient34529"/>
  <linearGradient id="linearGradient35181" x1="14.77" x2="26.46" y1="5.959" y2="5.959" gradientTransform="matrix(2.75 0 0 2.75 .7251 .5109)" gradientUnits="userSpaceOnUse" xlink:href="#radialGradient34529"/>
 </defs>
 <path d="m36.33 2.289c-20.04 0-36.33 16.31-36.33 36.36 5.194e-5 8.717 3.087 16.73 8.223 23l0.02148 0.02686 5.361 5.307 0.02686 0.02686c6.225 4.995 14.13 7.987 22.72 7.987 20.04 0 36.36-16.31 36.36-36.36 0-1.242-0.06601-2.467-0.188-3.674v-0.00537c-1.695-17.4-16.18-29.94-29.96-32.13l-0.01611-0.005371c-2.019-0.35-4.097-0.5371-6.215-0.5371zm6.231 0.5425 0.1289 0.03223-0.08594-0.02686zm-6.231 0.9131c2.02 0 4.003 0.1783 5.93 0.5103l0.01074 0.005371 0.06445 0.01074c13.08 2.073 27.12 14.16 28.74 30.83 0.1177 1.162 0.1826 2.342 0.1826 3.534 0 19.26-15.66 34.91-34.91 34.91-8.247 0-15.82-2.873-21.8-7.67l-5.205-5.156c-4.928-6.016-7.89-13.7-7.89-22.07 0-19.26 15.63-34.91 34.88-34.91zm1.407 2.847v10.9l0.7198 0.01074c3.76 0.05704 7.794 0.3321 12.02 0.9239l1.187 0.1665-0.3975-1.128c-0.982-2.791-1.992-4.977-2.761-6.478-0.3842-0.7504-0.708-1.333-0.94-1.73-0.002629-0.004492-0.002763-0.006298-0.00537-0.01074l0.6446-0.4297-1.386-0.4834c-2.628-0.9126-5.411-1.49-8.299-1.687zm-3.599 0.05371c-0.07105 0.004833-0.1332 0.03768-0.2041 0.04297-2.771 0.2068-5.456 0.7388-7.987 1.606l-1.386 0.4727 0.7036 0.4727c-0.006658 0.01136-0.009297 0.01519-0.01611 0.02686-0.235 0.4021-0.5618 0.9894-0.9507 1.751-0.7778 1.523-1.798 3.744-2.788 6.574l-0.3921 1.133 1.187-0.1719c0.6801-0.09902 1.373-0.1959 2.084-0.2847 2.876-0.3617 6.182-0.6438 9.813-0.7412l0.709-0.02148v-10.14l-0.478 0.6822zm-0.6822 1.606v7.874c-3.378 0.1166-6.538 0.3627-9.249 0.7036-0.2883 0.036-0.561 0.07503-0.8433 0.1128 0.7948-2.094 1.611-4.048 2.229-5.258 0.3756-0.7357 0.6912-1.301 0.9131-1.681 0.103-0.1762 0.1825-0.3015 0.2417-0.3975 2.137-0.7063 4.392-1.135 6.709-1.354zm5.737 0c2.39 0.2258 4.716 0.6634 6.913 1.407 0.05558 0.09051 0.112 0.1849 0.1987 0.333 0.2188 0.3737 0.5314 0.9297 0.9024 1.654 0.6174 1.206 1.432 3.146 2.229 5.242-3.566-0.4503-7.012-0.7137-10.24-0.7842zm-17.66 1.842-1.998 1.235c-3.528 2.18-6.607 5.02-9.056 8.352l-1.23 1.67 2.009-0.5371c1.75-0.4706 3.87-0.9805 6.311-1.456l0.4243-0.08057 0.1289-0.419c0.8032-2.618 1.67-4.834 2.46-6.617zm29.75 0.2095 0.7896 1.923c0.5542 1.356 2.478 6.682 2.487 6.703l0.145 0.3438 6.472 1.488 1.144 1.45v-2.68l-0.3438-0.08057c-2.431-3.061-5.101-6.029-8.879-8.138zm3.008 3.712c1.976 1.424 3.716 3.059 5.258 4.883l-3.776-0.8702c-0.1148-0.3165-0.8186-2.221-1.482-4.012zm-36.11 0.4942c-0.4397 1.138-0.8761 2.152-1.305 3.513-1.265 0.2523-2.248 0.5101-3.33 0.7681 1.391-1.592 2.946-3.004 4.635-4.281zm20.27 5.817-0.7144 0.01612v0.7144c0 5.136-0.009267 10.27 0.03222 15.42l0.005373 0.7144 0.7144 0.00537c5.178 0.0342 10.36 0.05215 15.53 0.0376l1.751-0.00537-1.074-1.074c-0.1599-4.113-0.7149-9.315-2.165-13.98l-0.1504-0.4834-0.5103-0.02686c-4.094-0.193-8.187-1.422-13.42-1.332zm-3.54 0.01074-0.752 0.02148c-3.43 0.09671-6.551 0.3597-9.282 0.6983-1.467 0.1824-2.866 0.3903-4.19 0.6123l-0.4619 0.08057-0.1235 0.4512c-0.27 1.03-0.5248 2.107-0.7574 3.239-0.6412 3.115-1.143 6.831-1.273 11.04l-0.01074 0.231 0.1289 0.1934 0.2202 0.3276h0.3867c5.118 0 10.26 0.08553 15.4-0.05908l0.709-0.01611zm4.281 1.515c4.411 0.0419 8.138 0.9426 12.02 1.203 1.251 4.225 1.788 8.896 1.961 12.72-4.65 0.01025-9.298-0.008551-13.95-0.0376-0.03296-4.627-0.03315-9.254-0.03223-13.88zm-5.737 0.01611v13.85c-4.601 0.1109-9.22 0.05576-13.85 0.04834 0.1651-3.767 0.5835-7.206 1.166-10.03 0.1939-0.9438 0.4124-1.831 0.6338-2.702 1.168-0.1902 2.369-0.3728 3.647-0.5318 2.469-0.3062 5.342-0.5219 8.401-0.6338zm22.18 0.3115 0.2525 1.112c0.9307 4.119 1.461 8.589 1.687 13.25l0.0376 0.6929h10.77l-0.05908-0.7788c-0.2504-3.483-1.295-7.613-2.847-11.18l-0.6714 0.29 0.2095-0.7036c-1.978-0.5832-6.19-1.98-8.261-2.433zm-39.6 0.3867c-4.057 0.8897-6.988 1.811-8.417 2.299l-0.2954 0.1021-0.1289 0.2793c-1.592 3.448-2.589 7.228-2.858 11.2l-0.04834 0.7788h10.94l0.02148-0.709c0.1317-4.534 0.6817-8.527 1.38-11.86 0.05376-0.2593 0.1154-0.5135 0.1719-0.7681l0.1128-0.02686v-0.5855l-1.332-0.1504zm41.43 1.579c1.971 0.518 4.895 1.435 6.752 1.993 1.311 3.099 2.148 6.598 2.46 9.636h-7.729c-0.2251-4.054-0.7216-7.941-1.482-11.63zm-42.24 0.1504c-0.004589 0.02199-0.01154 0.04241-0.01611 0.06446-0.6728 3.21-1.159 7.115-1.332 11.41h-7.885c0.3214-3.389 1.109-6.648 2.449-9.625 1.239-0.4173 3.756-1.128 6.784-1.848zm22.52 15.68v16.52l0.7412-0.01074c4.295-0.06742 8.964-0.4284 13.86-1.241l0.478-0.08057 0.1074-0.478c1.084-4.739 1.561-9.119 1.73-13.19h0.09131v-0.7305l-1.434-0.02149 0.709-0.7036c-5.189 0-10.37 0.07124-15.53-0.04834zm-2.777 0.04297-0.7359 0.00537c-5.14 0.01673-10.28 0.02484-15.42 0.01611h-0.752l0.02148 0.752c0.1427 4.182 0.7164 9.214 1.961 13.73l0.1235 0.4512 0.4619 0.0752c4.577 0.74 8.517 1.265 13.23 1.37l1.058 1.058v-1.756c0-4.995-0.0115-9.978 0.04297-14.96zm-30.42 0.02686-0.1719 0.4888-0.04834 0.1397 0.01074 0.1504c0.2545 3.76 1.159 7.351 2.605 10.65l0.1289 0.2901 0.3008 0.1021c1.301 0.4536 4.269 1.41 8.481 2.342l1.09 0.2417-0.2202-1.096c-0.9094-4.498-1.354-8.714-1.472-12.6l-0.02148-0.709zm53.75 0v1.456l-0.7251-0.7466c-0.1181 3.93-0.5697 8.196-1.499 12.75l-0.2256 1.101 1.096-0.2471c2.695-0.5969 5.437-1.334 8.218-2.245l0.3062-0.1021 0.1343-0.29c1.509-3.366 2.451-7.039 2.713-10.89l0.05371-0.7788h-9.319zm-19.1 1.402c4.673 0.09232 9.342 0.05457 14 0.04834-0.1611 3.812-0.6443 7.935-1.622 12.36-4.354 0.6944-8.502 1.018-12.38 1.106zm-5.694 0.03223c-0.04304 4.487-0.03885 8.964-0.0376 13.44-4.239-0.1211-7.911-0.5878-12.09-1.257-1.051-4-1.559-8.374-1.73-12.17 4.62 0.006113 9.238-0.001717 13.86-0.01611zm-27.53 0.02148h7.901c0.134 3.429 0.5609 7.128 1.284 11.01-3.218-0.7663-5.797-1.523-6.961-1.923-1.207-2.831-1.922-5.901-2.224-9.088zm52.97 0h7.724c-0.3102 3.277-1.056 6.428-2.32 9.325-2.269 0.7319-4.506 1.32-6.719 1.837 0.7413-3.938 1.18-7.685 1.316-11.16zm-49.87 13.87 0.9615 1.595c2.103 3.505 5.07 6.125 8.739 8.492l1.123 0.7251v-1.461l-0.04297-0.1182c-0.7321-2.065-1.515-4.638-2.261-6.929l-0.1343-0.4082-0.4243-0.08057c-2.204-0.4062-4.187-0.706-6.172-1.289zm53.5 0.4834-0.9185 0.2471c-2.059 0.5563-4.095 1.027-6.096 1.423l-0.4458 0.09131-0.1128 0.4351c-0.5552 2.087-1.209 4.221-1.982 6.403l-0.7305 2.068 1.821-1.219c3.242-2.168 6.062-4.903 8.326-8.073l0.1397-0.1934v-0.231zm-50.07 1.869c1.266 0.279 2.529 0.5686 3.84 0.8057 0.4613 1.427 0.9344 2.868 1.407 4.313-2.071-1.516-3.825-3.206-5.248-5.119zm46.97 0.3814c-1.277 1.513-2.7 2.873-4.243 4.114 0.3558-1.126 0.7434-2.268 1.042-3.368 1.053-0.2139 2.132-0.4901 3.201-0.7466zm-38.69 0.08057 0.2686 0.9292c0.8455 2.903 1.899 5.906 3.196 8.992l0.1235 0.2793 0.2847 0.1128c2.975 1.169 6.163 1.899 9.486 2.127l0.7788 0.05371v-11.38l-0.709-0.02148c-3.635-0.1067-8.214-0.4822-12.35-1.09l-0.05371-0.005374h-0.05371zm30.16 0.1289c-4.388 0.6387-8.58 0.9345-12.48 0.9937l-0.7144 0.01075v11.36l0.7735-0.05371c3.402-0.2321 6.664-0.9953 9.695-2.208l0.2793-0.1128 0.1182-0.2847c1.261-3.013 2.295-5.938 3.126-8.777l-0.521 0.4942zm-28.13 1.418c3.631 0.4879 7.42 0.8217 10.65 0.94v8.326c-2.781-0.2644-5.477-0.828-7.992-1.789-1.065-2.563-1.915-5.045-2.659-7.477zm27.17 0.1182c-0.7276 2.369-1.562 4.783-2.594 7.278-2.572 1.001-5.332 1.598-8.186 1.869v-8.293c3.395-0.07461 7.021-0.3559 10.78-0.854z" style="color-rendering:auto;color:#000000;fill:url(#linearGradient35161);isolation:auto;mix-blend-mode:normal;shape-rendering:auto;solid-color:#000000"/>
 <circle cx="37.13" cy="38.32" r="32.66" style="fill:url(#i71-radialGradient37146);stroke-width:2.948"/>
 <path d="m34.18 7.372v9.427c-4.23 0.162-8.158 0.4793-11.98 1.035 1.125-3.062 2.35-6.141 4.118-8.899 2.537-0.8691 5.086-1.374 7.868-1.564zm4.283 0c2.822 0.1922 5.545 0.7577 8.112 1.649l-0.008727 0.005819c0.02982 0.04291 2.066 3.166 4.006 8.678-4.254-0.5964-8.321-0.872-12.11-0.9294zm-18.55 4.574c-0.8014 1.808-1.676 4.053-2.488 6.7-2.459 0.4785-4.596 0.9891-6.361 1.464 2.393-3.257 5.401-6.033 8.849-8.164zm-0.7447 52.91c-3.614-2.332-6.479-4.87-8.51-8.254 2.044 0.6007 4.053 0.9047 6.243 1.308 0.7433 2.281 1.526 4.854 2.267 6.945zm-0.3665-28.36c0.239-4.99 0.8465-9.651 2.012-14.11 4.468-0.7445 9.335-1.181 13.37-1.303v15.36c-5.124 0.144-10.26 0.05745-15.38 0.05745zm35.22 0c-5.176 0.01455-10.35 0-15.52-0.03418-0.04146-5.138-0.02982-10.27-0.02982-15.41 5.114-0.088 9.161 1.131 13.37 1.329 1.453 4.678 2.038 10.01 2.18 14.11zm10.79-10.94c1.517 3.49 2.547 7.566 2.79 10.94h-9.294c-0.2276-4.689-0.7614-9.197-1.704-13.37 1.961 0.4291 6.196 1.829 8.206 2.422m-3.215-5.441-6.361-1.464c-0.008723-0.02109-1.906-5.276-2.488-6.7 3.741 2.088 6.39 5.049 8.849 8.165zm-19.17-16.57c-1.979-0.343-4.014-0.5244-6.09-0.5244-19.64 0-35.61 15.98-35.61 35.64 5.091e-5 8.545 3.024 16.39 8.059 22.54l5.305 5.253c6.102 4.896 13.84 7.83 22.26 7.83 19.64 0 35.64-15.98 35.64-35.63 0-1.218-0.06472-2.422-0.1847-3.608-1.657-17.04-15.92-29.35-29.35-31.48zm11.6 37.23c-0.1345 4.2-0.6698 8.81-1.801 13.76-4.854 0.8058-9.485 1.164-13.75 1.231v-15.03c5.415 0.1141 10.92 0.05035 15.55 0.04654zm-19.83 14.96c-4.817-0.08436-8.766-0.6364-13.44-1.393-1.223-4.442-1.793-9.43-1.934-13.56 5.14 0.008727 10.28-7.27e-4 15.42-0.01746-0.05454 4.993-0.03927 9.983-0.03927 14.98zm-18-32.45c-0.9352 4.491-1.541 9.373-1.667 13.22h-9.459c0.2628-3.881 1.234-7.575 2.79-10.94 1.405-0.48 4.31-1.393 8.336-2.276zm-11.13 17.5h9.462c0.1185 3.926 0.5644 8.185 1.482 12.72-4.18-0.9243-7.121-1.873-8.398-2.318-1.413-3.225-2.298-6.729-2.547-10.4zm53.23 0h9.294c-0.2553 3.767-1.178 7.354-2.653 10.64-2.757 0.9033-5.48 1.636-8.153 2.228 0.9374-4.592 1.394-8.902 1.513-12.87zm3.546 16.03c-2.212 3.098-4.972 5.774-8.141 7.894 0.7796-2.201 1.439-4.353 1.999-6.458 2.017-0.4 4.068-0.8763 6.142-1.437zm-40.09 2.106c4.168 0.6131 8.769 0.992 12.44 1.1v9.889c-3.249-0.2225-6.364-0.9367-9.27-2.078-1.287-3.06-2.331-6.034-3.169-8.91zm29.29 0.1265c-0.8233 2.812-1.844 5.716-3.095 8.704-2.962 1.185-6.145 1.932-9.47 2.158v-9.862c3.926-0.05963 8.147-0.3571 12.57-1.001z" style="stroke-width:2.948"/>
 <path d="m43.02 28.76-0.3599 0.3599-5.608 5.672 3.201 3.164 5.968-6.027zm0.005371 1.44 1.751 1.735-4.533 4.582-1.751-1.735zm-7.01 5.634-0.3599 0.3599-5.608 5.672 3.201 3.164 5.973-6.027zm0.005373 1.44 1.756 1.735-4.533 4.582-1.751-1.735zm-7.004 5.634-0.3599 0.3599-5.613 5.672 3.201 3.164 5.973-6.027zm0.005373 1.44 1.751 1.735-4.533 4.582-1.751-1.735zm-7.01 5.634-0.3599 0.3599-5.608 5.672 3.201 3.164 5.968-6.027zm0.005371 1.44 1.751 1.735-4.533 4.582-1.751-1.73zm-7.01 5.634-0.3599 0.3599-5.608 5.672 3.201 3.169 5.968-6.032zm0.005371 1.44 1.756 1.735-4.533 4.582-1.756-1.735zm-6.719 5.532-0.3599 0.3599-5.613 5.667 3.201 3.174 5.968-6.032zm0.005371 1.44 1.751 1.735-4.533 4.582-1.756-1.735z" style="color-rendering:auto;color:#000000;fill:url(#linearGradient35171);isolation:auto;mix-blend-mode:normal;shape-rendering:auto;solid-color:#000000"/>
 <path d="m43.03 29.48-5.252 5.305 2.476 2.451 5.252-5.306zm-7.004 7.074-5.249 5.305 2.476 2.451 5.252-5.306zm-7.001 7.074-5.252 5.305 2.476 2.451 5.252-5.305zm-7.004 7.074-5.252 5.306 2.478 2.451 5.25-5.306zm-7.004 7.074-5.249 5.306 2.476 2.452 5.252-5.305zm-6.717 6.972-5.253 5.305 2.476 2.453 5.253-5.306z" style="fill:#290a43;stroke-width:2.948"/>
 <path d="m43.44 5.861e-4c-0.18 0.004914-0.4078 0.03637-0.6123 0.2202s-0.2832 0.5033-0.2471 0.7574c0.03611 0.2541 0.1463 0.4955 0.3169 0.7896 0.3413 0.5881 0.9633 1.38 1.518 1.971l11.78 10.8c-1.978 1.936-5.765 5.704-8.395 8.583l-5.806-2.208-0.02686-0.005371s-0.1234-0.03353-0.2739-0.04297c-0.1506-0.00944-0.381-0.04452-0.6446 0.1934-0.1318 0.1189-0.2184 0.325-0.2202 0.4995s0.04958 0.3157 0.1182 0.4566c0.1372 0.2817 0.3707 0.5826 0.7681 0.9991l0.01611 0.01611 3.615 3.056c-0.05033 0.08115-0.1229 0.1759-0.1611 0.2525-0.04963 0.09945-0.08884 0.1939-0.1128 0.3223-0.02396 0.1284-0.03894 0.3445 0.1289 0.5371l0.005371 0.005371 0.06446 0.0752v0.005373c-0.2468 0.2333-0.2686 0.6336-0.04834 0.8916l0.01074 0.01611 0.01611 0.01074c0.2425 0.246 0.6147 0.2709 0.8863 0.0376h0.01074c0.1707 0.1986 0.3988 0.219 0.5318 0.2095 0.1329-0.009527 0.2323-0.04128 0.3384-0.08057 0.08356-0.03096 0.1894-0.09626 0.2793-0.1397l2.723 4.028 0.01611 0.02148c0.3722 0.4397 0.6476 0.7037 0.9131 0.8702 0.1328 0.08321 0.2667 0.1443 0.4404 0.1611 0.1737 0.0168 0.3887-0.04796 0.521-0.1665 0.2647-0.2371 0.2513-0.467 0.2578-0.6177 0.006471-0.1507-0.01074-0.2739-0.01074-0.2739l-0.00537-0.02686-1.606-6.145c3.151-2.308 7.276-5.642 9.4-7.391l9.013 12.34c0.7589 0.7899 1.473 1.7 2.326 2.337 0.2741 0.201 0.503 0.3347 0.752 0.3975 0.249 0.06282 0.5746 0.01722 0.7788-0.1665 0.2042-0.1837 0.2604-0.4017 0.2847-0.5801 0.02427-0.1784 0.01086-0.3424-0.00537-0.4888-0.03247-0.2928-0.1074-0.5586-0.1074-0.5586l-7.171-18.45 4.936-4.437c0.2648-0.2374 0.5381-0.6137 0.897-1.133 0.3589-0.5197 0.7668-1.156 1.139-1.805 0.372-0.6492 0.7081-1.309 0.9346-1.885 0.1132-0.2884 0.2017-0.5566 0.2471-0.8111 0.04534-0.2545 0.07514-0.5066-0.06983-0.7896-0.06348-0.0883-0.1002-0.1145-0.1504-0.1719-0.2612-0.197-0.5242-0.2036-0.7842-0.1934-0.26 0.01024-0.5352 0.05884-0.8379 0.1343-0.6055 0.1509-1.309 0.408-2.009 0.6983-0.6996 0.2903-1.393 0.6124-1.961 0.9077-0.5678 0.2953-0.9785 0.5242-1.252 0.7681l-4.968 4.464-17.46-9.035-0.5586-0.1826c-0.1437-0.03194-0.3035-0.05863-0.4834-0.05371zm0.2578 1.047c0.1776 0.03947 0.3294 0.1017 0.3446 0.1073 6.79e-4 2.69e-4 18.05 9.346 18.05 9.346l5.495-4.936c0.06586-0.05883 0.5032-0.3428 1.042-0.6231 0.5389-0.2803 1.21-0.5921 1.88-0.8701 0.67-0.278 1.342-0.5199 1.864-0.6499 0.2365-0.05894 0.4276-0.08626 0.5747-0.09668-0.03013 0.1472-0.08172 0.3398-0.1719 0.5694-0.1958 0.4985-0.5192 1.124-0.8755 1.746-0.3563 0.6219-0.7494 1.241-1.09 1.735-0.341 0.4937-0.6689 0.8913-0.7412 0.9561l-5.457 4.904 7.402 19.04s0.04879 0.1756 0.06982 0.3652c7.17e-4 0.006462-6.24e-4 0.00967 0 0.01611-0.06781-0.03626-0.09375-0.0358-0.1987-0.1128-0.4267-0.3129-1.122-0.9767-2.138-2.159l-9.609-13.16-0.419 0.3438c-2.054 1.698-6.781 5.528-10.05 7.901l-0.2847 0.2041 1.595 6.107c-0.071-0.07592-0.08245-0.06721-0.1665-0.1665l-3.191-4.727-0.4082 0.2417c-0.2099 0.1227-0.3644 0.1941-0.478 0.2417l-0.02149-0.02148-0.5049-0.5532-0.06983-0.08057c0.05859-0.1056 0.1439-0.2437 0.2847-0.4351l0.2847-0.3814-4.259-3.593-0.005371-0.005371c-0.08952-0.0941-0.07755-0.1096-0.145-0.188l5.774 2.197 0.2363-0.2578c2.705-2.986 7.056-7.301 8.975-9.174l0.3867-0.3814-11.97-10.88c-1.067-1.137-1.657-1.9-1.923-2.358-0.05607-0.05678-0.07055-0.1834-0.08057-0.2095z" style="color-rendering:auto;color:#000000;fill:url(#linearGradient35181);isolation:auto;mix-blend-mode:normal;shape-rendering:auto;solid-color:#000000"/>
 <path d="m72.5 32.13-7.292-18.75 5.199-4.672c0.6742-0.6044 3.468-4.961 3.032-5.813-0.76-0.5733-5.519 1.684-6.197 2.289l-5.229 4.698-17.77-9.196c0-1.96e-4 -3.245-1.329 1.077 3.278l11.6 10.55c-1.924 1.878-6.276 6.193-8.999 9.2l-6.092-2.314s-1.273-0.3287 0.2422 1.26l3.935 3.325c-0.344 0.4676-0.5127 0.7847-0.4291 0.8807l0.4058 0.4502-0.3753 0.336c-0.05309 0.05018-0.05963 0.1353-0.008727 0.1949 0.04945 0.05018 0.1367 0.05746 0.1935 0.00873l0.3738-0.3367 0.3564 0.3905c0.08436 0.09818 0.4276-0.03927 0.9367-0.3367l2.956 4.377c1.42 1.677 1.227 0.3753 1.227 0.3753l-1.686-6.438c3.29-2.389 8.018-6.22 10.08-7.923l9.314 12.75c4.113 4.79 3.142 1.418 3.142 1.418" style="fill:#290a43;stroke-width:2.948"/>
</svg>
