<?xml version="1.0" encoding="UTF-8" standalone="no"?>
<!-- Created with Inkscape (http://www.inkscape.org/) -->

<svg xmlns:dc="http://purl.org/dc/elements/1.1/" xmlns:cc="http://creativecommons.org/ns#" xmlns:rdf="http://www.w3.org/1999/02/22-rdf-syntax-ns#" xmlns:svg="http://www.w3.org/2000/svg" xmlns="http://www.w3.org/2000/svg" xmlns:xlink="http://www.w3.org/1999/xlink" xmlns:sodipodi="http://sodipodi.sourceforge.net/DTD/sodipodi-0.dtd" xmlns:inkscape="http://www.inkscape.org/namespaces/inkscape" width="100" height="101.34397" viewBox="0 0 100 101.34397" version="1.1" id="svg34436" inkscape:version="0.92.2 (5c3e80d, 2017-08-06)" sodipodi:docname="i71a.svg">
  <defs id="defs34430">
    <radialGradient id="i71-radialGradient37146" gradientUnits="userSpaceOnUse" cy="-276.76999" cx="-325.76001" gradientTransform="matrix(4.4316196,0.05967851,-0.05815185,4.3182519,1483.8588,1258.5386)" r="11.08" fx="-325.76001" fy="-276.76999">
      <stop id="i71-stop2" stop-color="#787878" offset="0" style="stop-color:#b1b1b1;stop-opacity:1" />
      <stop id="i71-stop4" stop-color="#c7c7c9" offset="0.29940817" style="stop-color:#f8f8f8;stop-opacity:1" />
      <stop id="i71-stop6" stop-color="#f9f9ff" offset="0.66945422" style="stop-color:#b5b5b5;stop-opacity:1" />
      <stop id="i71-stop8" stop-color="#ccccce" offset="0.77501154" style="stop-color:#ddddde;stop-opacity:1" />
      <stop id="i71-stop10" stop-color="#696969" offset="1" />
    </radialGradient>
    <radialGradient id="radialGradient34529" gradientUnits="userSpaceOnUse" cy="-276.76999" cx="-325.76001" gradientTransform="matrix(4.053,0,0,4.053,1377,1166)" r="11.08">
      <stop id="stop34519" stop-color="#787878" offset="0" />
      <stop id="stop34521" stop-color="#c7c7c9" offset=".17" />
      <stop id="stop34523" stop-color="#f9f9ff" offset=".36" />
      <stop id="stop34525" stop-color="#ccccce" offset=".73" />
      <stop id="stop34527" stop-color="#696969" offset="1" />
    </radialGradient>
    <defs id="i71-defs13">
      <radialGradient r="11.08" gradientTransform="matrix(4.053,0,0,4.053,1377,1166)" cx="-325.76001" cy="-276.76999" gradientUnits="userSpaceOnUse" id="radialGradient34583">
        <stop offset="0" stop-color="#787878" id="stop34573" />
        <stop offset=".17" stop-color="#c7c7c9" id="stop34575" />
        <stop offset=".36" stop-color="#f9f9ff" id="stop34577" />
        <stop offset=".73" stop-color="#ccccce" id="stop34579" />
        <stop offset="1" stop-color="#696969" id="stop34581" />
      </radialGradient>
    </defs>
    <linearGradient inkscape:collect="always" xlink:href="#radialGradient34529" id="linearGradient35161" x1="0" y1="13.86636" x2="25.910856" y2="13.86636" gradientUnits="userSpaceOnUse" gradientTransform="matrix(3.7160858,0,0,3.7160858,0.97982735,0.6902999)" />
    <linearGradient inkscape:collect="always" xlink:href="#radialGradient34529" id="linearGradient35171" x1="0.84417021" y1="18.356024" x2="16.282578" y2="18.356024" gradientUnits="userSpaceOnUse" gradientTransform="matrix(3.7160858,0,0,3.7160858,0.97982735,0.6902999)" />
    <linearGradient inkscape:collect="always" xlink:href="#radialGradient34529" id="linearGradient35181" x1="14.767503" y1="5.959096" x2="26.458332" y2="5.959096" gradientUnits="userSpaceOnUse" gradientTransform="matrix(3.7160858,0,0,3.7160858,0.97982735,0.6902999)" />
  </defs>
  <sodipodi:namedview id="base" pagecolor="#ffffff" bordercolor="#666666" borderopacity="1.0" inkscape:pageopacity="0.0" inkscape:pageshadow="2" inkscape:zoom="5.6" inkscape:cx="30.565195" inkscape:cy="45.268058" inkscape:document-units="px" inkscape:current-layer="svg34436" showgrid="false" units="px" objecttolerance="1" gridtolerance="1" guidetolerance="1" inkscape:window-width="2560" inkscape:window-height="1001" inkscape:window-x="-9" inkscape:window-y="41" inkscape:window-maximized="1" fit-margin-top="0" fit-margin-left="0" fit-margin-right="0" fit-margin-bottom="0" inkscape:snap-global="false" />
  <metadata id="metadata34433">
    <rdf:RDF>
      <cc:Work rdf:about="">
        <dc:format>image/svg+xml</dc:format>
        <dc:type rdf:resource="http://purl.org/dc/dcmitype/StillImage" />
        <dc:title></dc:title>
      </cc:Work>
    </rdf:RDF>
  </metadata>
  <path style="color:#000000;clip-rule:nonzero;display:inline;visibility:visible;opacity:1;isolation:auto;mix-blend-mode:normal;color-interpolation:sRGB;solid-color:#000000;solid-opacity:1;fill:url(#linearGradient35161);fill-opacity:1;fill-rule:nonzero;stroke:none;stroke-width:1.96642876;stroke-linecap:butt;stroke-linejoin:miter;stroke-miterlimit:4;stroke-dasharray:none;stroke-dashoffset:0;stroke-opacity:1;color-rendering:auto;shape-rendering:auto" d="M 49.092978,3.0926909 C 22.017712,3.0926909 0,25.135203 0,52.229219 7.0185826e-5,64.008041 4.1711021,74.839603 11.111968,83.307888 L 11.140999,83.344179 18.384464,90.515062 18.420754,90.551353 C 26.832721,97.300988 37.514325,101.34397 49.114752,101.34397 76.189946,101.34397 98.251278,79.302432 98.251278,52.207441 98.251278,50.529021 98.162085,48.873645 97.997249,47.242986 V 47.23573 C 95.707135,23.71805 76.129749,6.7757549 57.512235,3.8257469 L 57.490461,3.8184889 C 54.762145,3.3455199 51.95489,3.0926909 49.092978,3.0926909 Z M 57.512235,3.8257469 57.68643,3.8692949 57.5703,3.8330049 Z M 49.092978,5.0596039 C 51.822984,5.0596039 54.501841,5.3005619 57.105788,5.7491119 L 57.120306,5.7563699 57.207397,5.7708859 C 74.881435,8.5713959 93.847157,24.901353 96.037594,47.431694 96.196591,49.002372 96.284363,50.596232 96.284363,52.207441 96.284363,78.23583 75.123624,99.37706 49.114752,99.37706 37.971322,99.37706 27.732526,95.49426 19.65461,89.012662 L 12.621627,82.045 C 5.9628185,73.915199 1.959722,63.538298 1.9596547,52.229219 1.9596547,26.199863 23.08418,5.0596039 49.092978,5.0596039 Z M 50.994568,8.9063329 V 9.9587399 23.632775 L 51.967139,23.647291 C 57.048086,23.724366 62.499458,24.096023 68.203241,24.895664 L 69.807253,25.120661 69.270164,23.596485 C 67.943255,19.825719 66.577965,16.871424 65.539562,14.843361 65.020357,13.82933 64.582873,13.041585 64.269414,12.506292 64.265861,12.500222 64.26568,12.497782 64.262157,12.491775 L 65.133116,11.911137 63.260556,11.257919 C 59.709822,10.024717 55.948546,9.2446159 52.046978,8.9789129 Z M 46.131722,8.9789129 C 46.035711,8.9854429 45.95176,9.0298229 45.855919,9.0369769 42.112267,9.3164029 38.483822,10.035232 35.063302,11.207113 L 33.190743,11.845815 34.141539,12.484517 C 34.132542,12.49986 34.128976,12.505043 34.119765,12.520808 33.802248,13.064213 33.360599,13.857722 32.835102,14.886909 31.784109,16.945282 30.404987,19.945915 29.068211,23.770677 L 28.538378,25.302111 30.142391,25.069855 C 31.061404,24.936057 31.997913,24.805132 32.958488,24.685182 36.84469,24.196482 41.311332,23.815291 46.218818,23.683581 L 47.176871,23.654549 V 9.9587399 L 46.530908,10.880504 Z M 45.20996,11.149049 V 21.789248 C 40.645481,21.946785 36.374954,22.279382 32.711717,22.740044 32.322124,22.788693 31.953728,22.841434 31.572214,22.892461 32.6462,20.062644 33.749006,17.422774 34.584276,15.786898 35.091853,14.792806 35.518323,14.028251 35.818132,13.515151 35.95729,13.276993 36.064684,13.107728 36.144741,12.97806 39.032186,12.023737 42.079547,11.44487 45.20996,11.149049 Z M 52.96148,11.149049 C 56.191524,11.454102 59.334606,12.04545 62.302503,13.05064 62.377602,13.172938 62.453827,13.300456 62.571049,13.500635 62.866748,14.005602 63.289042,14.756942 63.790389,15.736092 64.624618,17.365389 65.725458,19.986991 66.80245,22.819881 61.983545,22.211454 57.327367,21.855483 52.96148,21.760216 Z M 29.097242,13.638536 26.397274,15.307872 C 21.629772,18.253629 17.469225,22.091668 14.160319,26.594031 L 12.498242,28.851263 15.212726,28.125465 C 17.577313,27.489517 20.442184,26.80053 23.740853,26.158552 L 24.314234,26.049683 24.488425,25.48356 C 25.573815,21.946566 26.744494,18.951221 27.81258,16.541728 Z M 69.299198,13.921598 70.366117,16.519954 C 71.115023,18.352909 73.714771,25.549415 73.726563,25.577914 L 73.922528,26.042424 82.668396,28.052885 84.214347,30.01254 V 26.390807 L 83.749836,26.281938 C 80.46534,22.146173 76.857316,18.135291 71.752391,15.286098 Z M 73.363664,18.936862 C 76.033772,20.861647 78.38553,23.070828 80.469225,25.534366 L 75.366867,24.358573 C 75.211762,23.93092 74.260788,21.357527 73.363664,18.936862 Z M 24.575521,19.604596 C 23.981318,21.141802 23.391655,22.512719 22.811832,24.351315 21.103019,24.69222 19.773679,25.040607 18.311884,25.389206 20.191969,23.237537 22.292777,21.33012 24.575521,19.604596 Z M 51.967139,27.464988 51.001829,27.486763 V 28.452074 C 51.001829,35.392457 50.989307,42.332859 51.045373,49.28248 L 51.052633,50.24779 52.017943,50.255047 C 59.014374,50.301252 66.010385,50.325516 73.008022,50.305851 L 75.374123,50.298595 73.922528,48.846999 C 73.706471,43.289619 72.956492,36.260695 70.997563,29.954476 L 70.794338,29.301258 70.104827,29.264968 C 64.572426,29.004204 59.042641,27.343241 51.967139,27.464988 Z M 47.184132,27.479504 46.16801,27.508536 C 41.533028,27.639211 37.315407,27.994515 33.626222,28.452074 31.644456,28.698555 29.75384,28.979527 27.964998,29.279484 L 27.340811,29.388353 27.173878,29.998024 C 26.809026,31.389828 26.464759,32.845072 26.150503,34.374586 25.284055,38.583477 24.606185,43.604749 24.430361,49.289737 L 24.415845,49.601827 24.590037,49.863117 24.887614,50.305851 H 25.410189 C 32.325266,50.305851 39.27338,50.421422 46.226074,50.226016 L 47.184132,50.204242 Z M 52.968736,29.526255 C 58.929085,29.582879 63.96588,30.799994 69.212099,31.152042 70.902122,36.860692 71.627572,43.172197 71.861264,48.33894 65.577822,48.352796 59.296743,48.327386 53.012288,48.288135 52.967754,42.036521 52.967489,35.783746 52.968736,29.526255 Z M 45.217217,29.548029 V 48.266358 C 39.000404,48.416197 32.758463,48.341699 26.506144,48.331679 26.729299,43.24213 27.294624,38.594316 28.081126,34.773774 28.34316,33.498428 28.638412,32.299871 28.937567,31.12301 30.515725,30.866032 32.139061,30.619225 33.865736,30.404471 37.20137,29.990762 41.084209,29.699275 45.217217,29.548029 Z M 75.185415,29.968991 75.526544,31.471393 C 76.784155,37.036534 77.500089,43.07693 77.805546,49.369572 L 77.856354,50.305851 H 92.408605 L 92.328766,49.253446 C 91.990344,44.546913 90.578701,38.965863 88.482035,34.14233 L 87.574786,34.534261 87.85785,33.583466 C 85.185232,32.79541 79.493037,30.907686 76.695076,30.295601 Z M 21.672329,30.491566 C 16.190205,31.693753 12.229126,32.938649 10.299074,33.597982 L 9.899885,33.735883 9.7256934,34.113298 C 7.5745197,38.772098 6.227693,43.88045 5.8644479,49.246185 L 5.7991264,50.298595 H 20.583632 L 20.612664,49.340541 C 20.790671,43.214384 21.53381,37.818111 22.477964,33.314921 22.55061,32.964516 22.6339,32.621019 22.71022,32.27703 L 22.862637,32.24074 V 31.44962 L 21.062659,31.246396 Z M 77.653129,32.625412 C 80.316608,33.325301 84.267488,34.564029 86.776414,35.318123 88.548339,39.505575 89.678588,44.233885 90.100565,48.33894 H 79.656332 C 79.352208,42.861116 78.681248,37.608059 77.653129,32.625412 Z M 20.576374,32.828636 C 20.570173,32.858348 20.560776,32.885941 20.5546,32.915731 19.645447,37.253532 18.988174,42.529575 18.754621,48.331679 H 8.0999058 C 8.5341678,43.751818 9.5985693,39.348324 11.409545,35.325381 13.083787,34.76147 16.485291,33.800686 20.576374,32.828636 Z M 51.001829,54.021936 V 76.340227 L 52.00343,76.325714 C 57.806921,76.234612 64.116169,75.746803 70.729016,74.649119 L 71.374975,74.54025 71.520139,73.894291 C 72.98508,67.491272 73.629202,61.572649 73.857206,56.075946 H 73.980593 V 55.117893 55.088862 L 72.042712,55.059828 73.000765,54.109035 C 65.988861,54.109035 58.984259,54.205296 52.010687,54.043713 Z M 47.249453,54.080004 46.255109,54.087261 C 39.309256,54.109863 32.368185,54.120827 25.424704,54.109035 H 24.408587 L 24.437619,55.125153 C 24.630425,60.776136 25.405638,67.575283 27.086782,73.683805 L 27.253716,74.293477 27.877902,74.395086 C 34.062262,75.39505 39.386452,76.104377 45.754306,76.245871 L 47.184132,77.675697 V 75.302335 C 47.184132,68.553043 47.168594,61.81974 47.242193,55.081606 Z M 6.1475092,54.116292 5.9152539,54.776771 5.8499323,54.965476 5.8644479,55.168697 C 6.2083974,60.250022 7.4307174,65.102278 9.3845687,69.561274 L 9.55876,69.953207 9.9652069,70.091107 C 11.723057,70.704101 15.734345,71.996922 21.425558,73.255588 L 22.898927,73.582192 22.60135,72.101566 C 21.372588,66.023969 20.771249,60.326127 20.612664,55.074349 L 20.583632,54.116292 Z M 78.778117,54.116292 V 56.083207 L 77.79829,55.074349 C 77.638744,60.385005 77.028426,66.149506 75.773313,72.297531 L 75.468479,73.785417 76.949105,73.451549 C 80.591247,72.645047 84.295921,71.64887 88.053818,70.417715 L 88.467522,70.279811 88.648969,69.887886 C 90.688429,65.339323 91.961358,60.376618 92.314249,55.168697 L 92.386827,54.116292 H 79.794232 Z M 52.968736,56.010625 C 59.282921,56.135379 65.591814,56.084363 71.883034,56.075946 71.665349,61.227563 71.01245,66.798405 69.691124,72.77656 63.808123,73.714835 58.203257,74.151533 52.968736,74.271703 Z M 45.275281,56.054176 C 45.21713,62.116879 45.222788,68.167218 45.224473,74.220895 39.496614,74.057249 34.534656,73.42665 28.886761,72.52253 27.467015,67.117292 26.780762,61.207615 26.549692,56.075946 32.793133,56.084205 39.032122,56.073626 45.275281,56.054176 Z M 8.0781319,56.083207 H 18.754621 C 18.935691,60.717142 19.512588,65.714463 20.489278,70.962065 16.141589,69.926645 12.656217,68.904407 11.082936,68.363708 9.4523697,64.538509 8.4852846,60.390439 8.0781319,56.083207 Z M 79.656332,56.083207 H 90.093308 C 89.67414,60.51157 88.66668,64.768818 86.957861,68.683059 83.891258,69.672063 80.869628,70.466282 77.878125,71.16529 78.879805,65.843734 79.473168,60.780687 79.656332,56.083207 Z M 12.265987,74.830566 13.565165,76.986186 C 16.407265,81.722686 20.416623,85.262618 25.373898,88.461055 L 26.890816,89.440878 V 87.633644 87.46671 L 26.832753,87.307036 C 25.843475,84.516868 24.786001,81.039914 23.777143,77.94424 L 23.595693,77.392636 23.022313,77.283763 C 20.044508,76.734881 17.364234,76.32975 14.682894,75.541851 Z M 84.555469,75.483786 83.314355,75.817654 C 80.532755,76.569353 77.781157,77.204775 75.076546,77.741018 L 74.474135,77.864405 74.321718,78.452299 C 73.571474,81.272053 72.687824,84.156003 71.643522,87.103811 L 70.656438,89.898133 73.116891,88.250573 C 77.497224,85.320966 81.308238,81.624974 84.366761,77.341828 L 84.555469,77.080542 V 76.768447 Z M 16.896578,78.009565 C 18.606844,78.386554 20.313427,78.777826 22.086034,79.098258 22.709311,81.026172 23.348677,82.973619 23.987624,84.926418 21.188936,82.878054 18.818637,80.593794 16.896578,78.009565 Z M 80.367612,78.524877 C 78.642281,80.568914 76.719465,82.407064 74.633808,84.08449 75.114591,82.56255 75.638293,81.020514 76.04186,79.533739 77.465207,79.244669 78.922355,78.871437 80.367612,78.524877 Z M 28.088383,78.633746 28.451282,79.889381 C 29.593818,83.811892 31.016801,87.870337 32.76978,92.039239 L 32.936714,92.416655 33.321387,92.569068 C 37.341033,94.148363 41.648885,95.135651 46.138983,95.443233 L 47.191388,95.515811 V 80.143407 L 46.233331,80.114376 C 41.322039,79.970217 35.133777,79.462755 29.547237,78.641007 L 29.474658,78.633746 H 29.402078 Z M 68.841943,78.807941 C 62.912579,79.671015 57.248363,80.070681 51.981652,80.150663 L 51.016342,80.165184 V 95.515811 L 52.061491,95.443233 C 56.658137,95.129577 61.066355,94.098314 65.162146,92.460199 L 65.539562,92.307786 65.69924,91.923109 C 67.403493,87.851719 68.800629,83.898983 69.923379,80.063572 L 69.219355,80.731305 Z M 30.8319,80.724044 C 35.737803,81.383281 40.858208,81.834367 45.224473,81.994192 V 93.244062 C 41.466901,92.886776 37.823467,92.125174 34.4246,90.827156 32.985511,87.363514 31.836564,84.010238 30.8319,80.724044 Z M 67.550021,80.883722 C 66.56691,84.084891 65.438773,87.346891 64.044415,90.718283 60.568716,92.07053 56.839094,92.877425 52.983257,93.244062 V 82.037744 C 57.570644,81.936929 62.469879,81.55681 67.550021,80.883722 Z" id="path35153" inkscape:connector-curvature="0" />
  <circle id="i71-circle15" cy="51.782074" cx="50.175304" r="44.130585" style="display:inline;fill:url(#i71-radialGradient37146);stroke-width:3.98292589" />
  <path style="display:inline;stroke-width:3.98292589" id="i71-path17" d="M 46.192376,9.9609509 V 22.698846 C 40.476981,22.917724 35.168202,23.346506 29.999271,24.097243 31.520005,19.959281 33.175307,15.799653 35.563089,12.072555 38.990785,10.898216 42.435473,10.21557 46.195324,9.9598699 Z M 51.979562,9.9609509 C 55.793461,10.220684 59.471746,10.984837 62.940714,12.18964 L 62.928922,12.197504 C 62.969211,12.255482 65.720802,16.475243 68.341692,23.923204 62.593817,23.117382 57.097519,22.744937 51.979562,22.6673 Z M 26.911595,16.142103 C 25.828647,18.585121 24.647429,21.618748 23.549742,25.195814 20.227198,25.842439 17.339993,26.532301 14.953972,27.174013 18.188072,22.773436 22.251581,19.021445 26.911595,16.142103 Z M 25.905299,87.636267 C 21.02221,84.485695 17.15033,81.056038 14.406602,76.483482 17.169002,77.295204 19.883248,77.705974 22.84219,78.251383 23.84652,81.33316 24.903917,84.810976 25.905299,87.635281 Z M 25.410013,49.320377 C 25.732959,42.577804 26.55383,36.27952 28.128191,30.249896 34.165421,29.243847 40.74251,28.654345 46.199255,28.489861 V 49.245694 C 39.276056,49.440271 32.338122,49.323329 25.411978,49.323329 Z M 73.005637,49.320377 C 66.011682,49.340035 59.021661,49.320377 52.027713,49.274191 51.971697,42.331343 51.98742,35.393404 51.98742,28.451537 58.897844,28.33263 64.366627,29.979651 70.058486,30.24793 72.021943,36.568724 72.812042,43.770028 73.003668,49.318416 Z M 87.579234,34.531566 C 89.629171,39.247596 91.020687,44.755691 91.348912,49.320377 H 78.790854 C 78.483265,42.98386 77.761953,36.893018 76.488362,31.257174 79.138733,31.836973 84.860076,33.728691 87.576286,34.5296 M 83.231723,27.17696 74.635951,25.198765 C 74.624163,25.170266 72.060268,18.069198 71.274099,16.145049 76.329161,18.966413 79.909178,22.96801 83.231723,27.177941 Z M 57.322556,4.7849159 C 54.6486,4.3213709 51.897996,4.0763809 49.093341,4.0763809 22.551308,4.0763809 0.97982735,25.668501 0.97982735,52.230186 0.97989614,63.777036 5.0663312,74.383429 11.869244,82.683404 L 19.038118,89.781523 C 27.283059,96.39714 37.742046,100.36138 49.113974,100.36138 75.656008,100.36138 97.266795,78.772217 97.266795,52.210529 97.266795,50.564492 97.179336,48.937122 97.017187,47.335305 94.778573,24.309409 75.505651,7.6731019 57.358918,4.7976919 Z M 72.998758,55.089871 C 72.816955,60.765028 72.093682,66.994431 70.564584,73.677845 64.004991,74.766689 57.74807,75.250181 51.988406,75.340591 V 55.026984 C 59.305683,55.181104 66.737538,55.095025 72.998758,55.089871 Z M 46.202203,75.303246 C 39.693713,75.189251 34.35661,74.443377 28.035816,73.421358 26.383879,67.418962 25.613434,60.679532 25.422788,55.09184 32.368586,55.103633 39.310454,55.090858 46.257233,55.068252 46.183532,61.815544 46.204168,68.557923 46.204168,75.305211 Z M 21.882082,31.450767 C 20.618442,37.519884 19.799575,44.115721 19.629709,49.315468 H 6.8485753 C 7.2036283,44.070738 8.5164317,39.079551 10.618253,34.527634 12.51685,33.879047 16.441796,32.645745 21.882082,31.452733 Z M 6.8466099,55.101667 H 19.631674 C 19.791856,60.40634 20.394258,66.162073 21.634439,72.296151 15.986801,71.047127 12.011736,69.764692 10.287079,69.163275 8.377771,64.805933 7.1821069,60.070253 6.8459221,55.103633 Z M 78.778075,55.101667 H 91.336134 C 90.991203,60.192109 89.744144,65.038835 87.75121,69.483639 84.025749,70.704162 80.346485,71.694734 76.734039,72.494664 78.000751,66.289825 78.617895,60.466283 78.779062,55.101667 Z M 83.569775,76.76847 C 80.58037,80.954818 76.850981,84.571191 72.569309,87.434811 73.622777,84.461128 74.513113,81.552305 75.269801,78.708339 77.995842,78.167852 80.766099,77.524172 83.569775,76.766505 Z M 29.401783,79.614401 C 35.033698,80.442825 41.251305,80.954818 46.206134,81.100258 V 94.463141 C 41.816367,94.162434 37.606435,93.197426 33.679522,91.65457 31.941108,87.520308 30.529935,83.501022 29.397853,79.614401 Z M 68.976521,79.785391 C 67.864093,83.585532 66.484368,87.508515 64.794107,91.546472 60.791527,93.147306 56.490202,94.156564 51.99725,94.463141 V 81.136617 C 57.302902,81.056038 63.005574,80.654104 68.980452,79.784408 Z" inkscape:connector-curvature="0" sodipodi:nodetypes="ccccccccccccccccccccccccccccccccccccccccccccscccssccccccccccccccccccccccccccccccccccccccccccccccccc" />
  <path style="color:#000000;clip-rule:nonzero;display:inline;visibility:visible;opacity:1;isolation:auto;mix-blend-mode:normal;color-interpolation:sRGB;solid-color:#000000;solid-opacity:1;fill:url(#linearGradient35171);fill-opacity:1;fill-rule:nonzero;stroke:none;stroke-width:1.37650025;stroke-linecap:butt;stroke-linejoin:miter;stroke-miterlimit:4;stroke-dasharray:none;stroke-dashoffset:0;stroke-opacity:1;color-rendering:auto;shape-rendering:auto" d="M 58.13642,38.860017 57.650139,39.346302 50.072806,47.010731 54.398562,51.285679 62.462176,43.142225 Z M 58.143677,40.805158 60.509778,43.149482 54.384045,49.340541 52.017943,46.996217 Z M 48.672015,48.418778 48.185729,48.90506 40.608396,56.569488 44.934156,60.84444 53.005031,52.700987 Z M 48.679275,50.36392 51.052633,52.708244 44.9269,58.899299 42.560795,56.554975 Z M 39.214866,57.97754 38.72858,58.463822 31.143993,66.12825 35.469749,70.403202 43.540622,62.259745 Z M 39.222126,59.922678 41.588224,62.267001 35.462491,68.45806 33.096389,66.113733 Z M 29.750461,67.536298 29.264176,68.022583 21.686845,75.687011 26.012601,79.961959 34.076217,71.818506 Z M 29.757719,69.481439 32.12382,71.825763 25.998085,78.016822 23.631983,75.679755 Z M 20.286055,77.095059 19.79977,77.581341 12.222439,85.245769 16.548195,89.527977 24.611811,81.377268 Z M 20.293312,79.040193 22.666672,81.384524 16.540937,87.575579 14.167577,85.231252 Z M 11.213579,86.515917 10.727295,87.002199 3.1427054,94.659366 7.468462,98.948835 15.532078,90.798125 Z M 11.220837,88.461055 13.586939,90.805382 7.4612034,96.996441 5.0878442,94.65211 Z" id="path35163" inkscape:connector-curvature="0" />
  <path id="i71-path19" d="M 58.141156,39.833294 51.044016,47.002166 54.390149,50.313902 61.487285,43.144043 Z M 48.67765,49.392116 41.584444,56.560992 44.930577,59.872727 52.027713,52.702873 Z M 39.218078,58.950946 32.120944,66.119818 35.467073,69.431553 42.564211,62.262681 Z M 29.754576,68.509772 22.657441,75.679626 26.005535,78.991361 33.099723,71.821503 Z M 20.291073,78.068594 13.197868,85.238452 16.543998,88.552153 23.641134,81.383281 Z M 11.214758,87.488862 4.1168364,94.657752 7.4628676,97.972425 14.560888,90.802563 Z" inkscape:connector-curvature="0" style="fill:#290a43;stroke-width:3.98292589" />
  <path style="color:#000000;clip-rule:nonzero;display:inline;visibility:visible;opacity:1;isolation:auto;mix-blend-mode:normal;color-interpolation:sRGB;solid-color:#000000;solid-opacity:1;fill:url(#linearGradient35181);fill-opacity:1;fill-rule:nonzero;stroke:none;stroke-width:1.37650025;stroke-linecap:butt;stroke-linejoin:miter;stroke-miterlimit:4;stroke-dasharray:none;stroke-dashoffset:0;stroke-opacity:1;color-rendering:auto;shape-rendering:auto" d="M 58.695288,7.9190426e-4 C 58.452109,0.0074319 58.144214,0.0499389 57.867877,0.2983689 57.591541,0.5467989 57.485215,0.9784369 57.534009,1.3217439 57.582803,1.6650519 57.731667,1.9913019 57.962229,2.3886669 58.423351,3.1833979 59.263865,4.2536009 60.013839,5.0521624 L 75.932991,19.640886 C 73.260392,22.256578 68.143388,27.34823 64.588769,31.239138 L 56.742889,28.256108 56.706598,28.24885 C 56.706598,28.24885 56.539899,28.203542 56.336439,28.190787 56.132983,28.178031 55.821592,28.130623 55.465485,28.452074 55.287431,28.612799 55.170379,28.891286 55.167907,29.127066 55.165436,29.362846 55.234903,29.553647 55.327585,29.743994 55.512941,30.124688 55.828437,30.531171 56.365473,31.093978 L 56.387247,31.115753 61.271867,35.245543 C 61.203854,35.355191 61.10578,35.483179 61.054132,35.586668 60.987065,35.721049 60.934091,35.848683 60.901711,36.022147 60.869332,36.195611 60.849093,36.487603 61.075902,36.747945 L 61.083159,36.755203 61.170258,36.856814 V 36.864074 C 60.836783,37.179287 60.807322,37.720273 61.104937,38.068898 L 61.119454,38.090672 61.141224,38.105185 C 61.46886,38.437651 61.971786,38.471243 62.338794,38.155993 H 62.34605 62.353307 C 62.583904,38.424355 62.892222,38.45193 63.071848,38.439053 63.251474,38.42618 63.385787,38.383275 63.529099,38.330184 63.642016,38.288356 63.785087,38.200119 63.906515,38.14148 L 67.586312,43.584963 67.608086,43.613994 C 68.111054,44.208181 68.483122,44.564904 68.841943,44.78979 69.021354,44.902231 69.202348,44.984828 69.437098,45.007528 69.671844,45.030228 69.962309,44.942728 70.141122,44.782529 70.498744,44.462127 70.480758,44.151545 70.489503,43.947862 70.498246,43.744179 70.474986,43.577706 70.474986,43.577706 L 70.46773,43.541415 68.297593,35.238285 C 72.555526,32.119356 78.129928,27.614641 80.999058,25.251305 L 93.17795,41.930142 C 94.203361,42.997526 95.168261,44.227874 96.320654,45.087367 96.690991,45.358968 97.000304,45.539565 97.336772,45.624457 97.673241,45.709345 98.113189,45.64772 98.389182,45.399458 98.665167,45.151199 98.741056,44.856725 98.773851,44.615595 98.806646,44.374469 98.788531,44.152954 98.766594,43.955119 98.722721,43.559451 98.621435,43.200293 98.621435,43.200293 L 88.932033,18.276386 95.602117,12.281294 C 95.959917,11.960546 96.329237,11.452069 96.814196,10.74986 97.299155,10.047651 97.850286,9.1884269 98.352891,8.3111789 98.855492,7.4339309 99.309739,6.5429919 99.615778,5.7636279 99.768796,5.3739459 99.888381,5.0115369 99.949643,4.6676729 100.01091,4.3238089 100.05118,3.9831889 99.855291,3.6007499 99.769511,3.481435 99.719908,3.4460276 99.652066,3.3684939 99.299175,3.1022889 98.943722,3.0933769 98.592403,3.1072069 98.241089,3.1210369 97.869244,3.1867119 97.460159,3.2886569 96.641982,3.4925469 95.69097,3.8399079 94.745672,4.2321939 93.800378,4.6244799 92.863819,5.0597209 92.096511,5.4587929 91.329206,5.8578639 90.774345,6.1671289 90.405402,6.4966839 L 83.691767,12.528065 60.103332,0.3201429 59.348503,0.0733719 C 59.154334,0.0302179 58.938462,-0.0058481 58.695288,7.9190426e-4 Z M 59.043669,1.4160979 C 59.283666,1.4694349 59.488709,1.5535409 59.50933,1.5610279 59.510248,1.5613919 83.902249,14.190143 83.902249,14.190143 L 91.327165,7.5200589 C 91.416165,7.4405599 92.007049,7.0568469 92.735213,6.6781329 93.46338,6.2994199 94.370233,5.8780189 95.275505,5.5023409 96.180778,5.1266629 97.088968,4.7998259 97.794024,4.6241249 98.113624,4.5444809 98.371853,4.5075689 98.570629,4.4934809 98.52992,4.6923429 98.460199,4.9525879 98.338374,5.2628269 98.073856,5.9364489 97.636776,6.7813369 97.155321,7.6216709 96.673866,8.4620049 96.142699,9.2988499 95.681952,9.9659989 95.221205,10.633147 94.778036,11.170351 94.68035,11.257919 L 87.306243,17.884455 97.307742,43.613994 C 97.307742,43.613994 97.373676,43.851238 97.402094,44.107539 97.403062,44.11627 97.401251,44.120605 97.402094,44.12931 97.310467,44.080319 97.275419,44.080939 97.133547,43.976896 96.556965,43.554031 95.61714,42.657093 94.244873,41.059184 L 81.260348,23.277134 80.694224,23.741645 C 77.918165,26.036577 71.530964,31.211251 67.114544,34.418134 L 66.729868,34.693937 68.885491,42.946261 C 68.789555,42.843681 68.774074,42.855442 68.660496,42.721265 L 64.349253,36.33424 63.797646,36.660849 C 63.513989,36.826585 63.305283,36.923076 63.151687,36.987457 L 63.122653,36.958426 62.440402,36.210855 62.34605,36.101985 C 62.42522,35.959292 62.540477,35.772712 62.730723,35.514089 L 63.115396,34.998772 57.359818,30.143183 57.352561,30.135925 C 57.23159,30.008767 57.247774,29.987884 57.156597,29.881896 L 64.958925,32.85041 65.278272,32.502027 C 68.933669,28.466942 74.812191,22.636817 77.406356,20.105397 L 77.928933,19.59008 61.750896,4.8854119 C 60.308945,3.3486639 59.511828,2.3183839 59.152539,1.6991589 59.076773,1.6224272 59.057203,1.4512875 59.043669,1.4160979 Z" id="path35173" inkscape:connector-curvature="0" sodipodi:nodetypes="scscccccccccccccccccccccccccccccccccccccccccccccccscccccsccsccccscccccsccsssccccccccccccccccccccccccccccccc" />
  <path id="i71-path21" d="M 97.970414,43.417239 88.116774,18.081974 95.142175,11.769039 C 96.05315,10.952407 99.828721,5.0659709 99.239096,3.9148239 98.21216,3.1401539 91.781305,6.1902909 90.86542,7.0083979 L 83.799726,13.357101 59.790145,0.9307249 C 59.790145,0.9304609 55.405292,-0.8646871 61.245539,5.3595079 L 76.925668,19.609794 C 74.325414,22.147153 68.44586,27.978557 64.765609,32.041082 L 56.533443,28.914097 C 56.533443,28.914097 54.812715,28.469913 56.860682,30.616153 L 62.17813,35.109105 C 61.713308,35.740988 61.48532,36.169449 61.598328,36.299167 L 62.146684,36.907463 61.639604,37.361475 C 61.567868,37.429284 61.559024,37.544264 61.627812,37.624844 61.694634,37.692653 61.812562,37.702479 61.889215,37.63664 L 62.394326,37.181641 62.875857,37.709358 C 62.989851,37.842024 63.45369,37.656293 64.141587,37.25436 L 68.136302,43.169302 C 70.054555,45.435431 69.794138,43.676379 69.794138,43.676379 L 67.516213,34.977422 C 71.962,31.749217 78.350599,26.573282 81.134618,24.271773 L 93.720196,41.505569 C 99.278403,47.9777 97.966483,43.421858 97.966483,43.421858" inkscape:connector-curvature="0" style="display:inline;fill:#290a43;stroke-width:3.98292589" />
</svg>
