<svg version="1.1" viewBox="0 0 73.65 75" xmlns="http://www.w3.org/2000/svg">
 <defs>
  <radialGradient id="radialGradient37107" cx="-316.9" cy="-246.3" r="11.08" gradientTransform="matrix(-4.859 .06023 -.05923 -4.778 -1506 -1130)" gradientUnits="userSpaceOnUse">
   <stop style="stop-color:#d0d0d0" offset="0"/>
   <stop style="stop-color:#c7c7c9" offset=".17"/>
   <stop style="stop-color:#f9f9ff" offset=".36"/>
   <stop style="stop-color:#ccccce" offset=".73"/>
   <stop style="stop-color:#696969" offset="1"/>
  </radialGradient>
 </defs>
 <circle cx="36.76" cy="38.36" r="33.14" style="fill:url(#radialGradient37107);stroke-width:2.991"/>
 <path d="m45.44 31.78-2.513-2.487 2.958-3.666 14.23-8.14z" style="fill:#ffffff;stroke-width:2.991"/>
 <path d="m11.64 65.87 21.31-21.54 12.43-12.56 14.68-14.29 9.45 12.94 2.503 4.584-5.389-5.114-6.935-9.495-3.065 2.533-13.09 13.56-9.644 9.746-20.41 20.62z" style="fill:#ffffff;stroke-width:2.991"/>
 <path d="m11.05 58.7 22.72-22.96 13.32-14.53 6.654-6.989-11.63-10.9 2.892 0.2285 11.77 10.7-9.13 9.333-4.901 5.969-14.21 14.36-19.54 19.74-1.031-1.851z" style="fill:#ffffff;stroke-width:2.991"/>
 <path d="m39.16 21.02c-0.09032 1.825 6.334 6.663 6.334 6.663l0.4142-1.889 1.382-4.677-5.117-1.931s-2.894-0.6367-3.014 1.834z" style="fill:#ffffff;stroke-width:2.991"/>
 <path d="m45.44 27.6s6.235 8.942 7.781 6.944c0.8101-1.047 0.5712-7.581-0.3912-8.625-1.713-1.857-7.393 1.681-7.393 1.681z" style="fill:#ffffff;stroke-width:2.991"/>
 <path d="m11.64 65.87-2.512-2.487 5.329-5.383 2.514 2.488z" style="fill:#663399;stroke-width:2.991"/>
 <path d="m4.765 73.05-2.513-2.487 5.329-5.383 2.512 2.487z" style="fill:#663399;stroke-width:2.991"/>
 <path d="m18.82 58.7-2.513-2.487 5.329-5.383 2.512 2.487z" style="fill:#663399;stroke-width:2.991"/>
 <path d="m25.7 51.52-2.512-2.486 5.329-5.383 2.512 2.486z" style="fill:#663399;stroke-width:2.991"/>
 <path d="m32.88 44.34-2.512-2.486 5.329-5.383 2.514 2.486z" style="fill:#663399;stroke-width:2.991"/>
 <path d="m40.05 37.17-2.513-2.488 5.329-5.383 2.514 2.488z" style="fill:#663399;stroke-width:2.991"/>
 <path d="m65.17 51.82c-2.797 0.9163-5.559 1.659-8.272 2.259 0.9507-4.659 1.414-9.031 1.534-13.06h9.432c-0.2596 3.822-1.196 7.464-2.693 10.8m-11.4 13.48c0.7913-2.233 1.461-4.417 2.029-6.552 2.047-0.4055 4.127-0.8882 6.232-1.457-2.244 3.143-5.045 5.858-8.26 8.009m-5.852 3.086c-3.005 1.202-6.235 1.959-9.609 2.189v-10c3.983-0.06041 8.269-0.3628 12.75-1.015-0.835 2.853-1.872 5.802-3.143 8.831m-13.95 2.189c-3.296-0.2252-6.457-0.9507-9.405-2.109-1.305-3.104-2.366-6.122-3.215-9.04 0.8382 0.1271 1.699 0.247 2.587 0.3586 2.942 0.369 6.322 0.6558 10.03 0.7569zm38.13-35.38c-1.072-0.2043-2.202-1.135-4.034-3.266l-0.09899-0.125-1.255-1.72c0.6089 2.119 1.003 4.327 1.157 6.603h-9.429c-0.1355-4.65-0.7016-8.744-1.418-12.17-0.1002-0.4743-0.2034-0.9381-0.3095-1.396 1.99 0.4348 4.007 0.9477 6.047 1.549l-2.982-4.082c-1.965 1.596-4.584 3.687-6.884 5.431 0.6047 3.041 1.077 6.621 1.203 10.66h-10.48l-4.297 4.342h14.77c-0.1364 4.262-0.6806 8.939-1.828 13.96-4.925 0.8173-9.624 1.181-13.95 1.249v-14.19l-4.342 4.39v9.773c-3.314-0.09271-6.346-0.3439-9.013-0.6663l-7.132 7.204c0.2856 0.8966 0.5858 1.796 0.91 2.709-0.7213-0.4734-1.421-0.9788-2.101-1.508l-3.074 3.107c6.19 4.967 14.04 7.946 22.58 7.946 19.93 0 36.16-16.21 36.16-36.16 0-1.235-0.06549-2.457-0.1878-3.66" style="fill:#663399;stroke-width:2.991"/>
 <path d="m14.04 41.05c0.1199 3.983 0.5733 8.308 1.504 12.91-4.241-0.9372-7.225-1.901-8.52-2.353-1.433-3.272-2.333-6.827-2.585-10.56zm-6.768-15.45c1.425-0.4869 4.372-1.414 8.457-2.309-0.0936 0.4106-0.1854 0.8245-0.273 1.248-0.7171 3.421-1.282 7.518-1.418 12.17h-9.6c0.2668-3.939 1.254-7.686 2.832-11.1m12.24-13.8c-0.8131 1.834-1.701 4.109-2.526 6.794-2.495 0.4857-4.662 1.005-6.451 1.487 2.428-3.305 5.479-6.122 8.978-8.281m6.361-3.008c2.574-0.8819 5.299-1.443 8.119-1.635v9.567c-3.711 0.1002-7.088 0.3909-10.03 0.7599-0.7267 0.09061-1.435 0.1875-2.13 0.2886 1.983-5.673 4.079-8.891 4.109-8.933zm12.46-1.635c2.864 0.195 5.625 0.7695 8.233 1.674l-0.008972 0.005981c0.0302 0.04366 2.095 3.212 4.064 8.804-4.315-0.6056-8.442-0.8861-12.29-0.9444zm-27.06 51.5c-0.3992-0.5003-0.7829-1.013-1.152-1.538 0.6546 0.1782 1.365 0.366 2.127 0.5526l7.085-7.156c-0.5527-3.331-0.8496-6.492-0.9435-9.447h10.29l4.297-4.345h-14.59c0.1313-4.223 0.6391-7.946 1.281-11.07 0.2336-1.134 0.489-2.215 0.7599-3.248 1.333-0.224 2.739-0.4315 4.214-0.6152 2.749-0.3409 5.897-0.6098 9.351-0.707v14.62l4.342-4.39v-10.26c0.2805 0.00299 0.5661 0.01495 0.8496 0.02093 0.02392-0.1908 0.07506-0.3837 0.1606-0.5817 0.3544-0.8299 1.168-1.344 2.121-1.344 0.3263 0 0.5993 0.05832 0.7339 0.09181l0.2117 0.06759 4.904 1.863c2.229-2.39 4.988-5.156 6.705-6.857-0.01794-0.04366-0.03439-0.08972-0.05084-0.1334l-10.16-9.229-0.05622-0.05832c-0.5443-0.5808-1.019-1.114-1.418-1.611-2.008-0.3481-4.073-0.5305-6.178-0.5305-19.93 0-36.16 16.21-36.16 36.16 0 8.67 3.068 16.63 8.176 22.87z" style="fill:#663399;stroke-width:2.991"/>
 <path d="m72.65 32.08-7.399-19.02 5.275-4.74c0.6839-0.6131 3.52-5.033 3.074-5.897-0.7695-0.5817-5.598 1.708-6.286 2.323l-5.305 4.767-18.03-9.33s-3.293-1.348 1.092 3.325l11.77 10.7c-1.953 1.905-6.367 6.283-9.13 9.333l-6.181-2.348s-1.292-0.3337 0.2461 1.278l3.992 3.373c-0.3493 0.4743-0.5201 0.7964-0.4357 0.8933l0.4118 0.4567-0.3804 0.3409c-0.05413 0.05114-0.06041 0.1376-0.008972 0.198 0.04994 0.05114 0.1388 0.05862 0.1959 0.008972l0.3795-0.3421 0.3619 0.3962c0.08553 0.1002 0.4336-0.03948 0.9498-0.3409l3 4.441c1.441 1.701 1.245 0.3804 1.245 0.3804l-1.71-6.531c3.337-2.424 8.134-6.31 10.22-8.039l9.45 12.94c4.175 4.86 3.188 1.439 3.188 1.439" style="fill:#663399;stroke-width:2.991"/>
</svg>
