<?xml version="1.0" encoding="UTF-8" standalone="no"?>
<svg xmlns:dc="http://purl.org/dc/elements/1.1/" xmlns:cc="http://creativecommons.org/ns#" xmlns:rdf="http://www.w3.org/1999/02/22-rdf-syntax-ns#" xmlns:svg="http://www.w3.org/2000/svg" xmlns="http://www.w3.org/2000/svg" xmlns:sodipodi="http://sodipodi.sourceforge.net/DTD/sodipodi-0.dtd" xmlns:inkscape="http://www.inkscape.org/namespaces/inkscape" version="1.1" viewBox="0 0 100 101.7" id="svg47" sodipodi:docname="i68.svg" inkscape:version="0.92.2 (5c3e80d, 2017-08-06)">
  <metadata id="metadata51">
    <rdf:RDF>
      <cc:Work rdf:about="">
        <dc:format>image/svg+xml</dc:format>
        <dc:type rdf:resource="http://purl.org/dc/dcmitype/StillImage" />
        <dc:title></dc:title>
      </cc:Work>
    </rdf:RDF>
  </metadata>
  <sodipodi:namedview pagecolor="#ffffff" bordercolor="#666666" borderopacity="1" objecttolerance="10" gridtolerance="10" guidetolerance="10" inkscape:pageopacity="0" inkscape:pageshadow="2" inkscape:window-width="2560" inkscape:window-height="1001" id="namedview49" showgrid="false" inkscape:snap-global="false" inkscape:zoom="2.3205507" inkscape:cx="89.681468" inkscape:cy="49.682737" inkscape:window-x="-9" inkscape:window-y="41" inkscape:window-maximized="1" inkscape:current-layer="svg47" />
  <defs id="defs13">
    <radialGradient id="radialGradient37107" cx="-316.86005" cy="-246.26241" r="11.08" gradientTransform="matrix(-6.5847733,0.08163269,-0.08027489,-6.4752495,-2040.1707,-1531.3013)" gradientUnits="userSpaceOnUse" fx="-316.86005" fy="-246.26241">
      <stop style="stop-color:#d0d0d0" offset="0" id="stop2" />
      <stop style="stop-color:#c7c7c9" offset=".17" id="stop4" />
      <stop style="stop-color:#f9f9ff" offset=".36" id="stop6" />
      <stop style="stop-color:#ccccce" offset=".73" id="stop8" />
      <stop style="stop-color:#696969" offset="1" id="stop10" />
    </radialGradient>
  </defs>
  <circle id="circle15" style="fill:url(#radialGradient37107);stroke-width:4.05299997" r="44.907238" cy="52.235649" cx="50.453148" />
  <path inkscape:connector-curvature="0" id="path17" style="fill:#ffffff;stroke-width:4.05299997" d="M 62.2068,43.319 58.800659,39.94812 62.809481,34.979142 82.097708,23.946876 Z" />
  <path inkscape:connector-curvature="0" id="path19" style="fill:#ffffff;stroke-width:4.05299997" d="M 16.4079,89.5232 45.293631,60.333494 62.146005,43.306841 82.038129,23.937554 94.845609,41.474885 98.23797,47.688134 90.934464,40.757504 81.535557,27.889229 77.381232,31.322525 59.637198,49.70288 46.566273,62.911607 18.904548,90.861095 Z" />
  <path inkscape:connector-curvature="0" id="path21" style="fill:#ffffff;stroke-width:4.05299997" d="M 15.5973,79.796 46.387941,48.685172 64.444056,28.995698 73.461981,19.523837 57.699864,4.750652 61.61871,5.0603012 77.575371,19.561935 65.201562,32.211348 58.558695,40.301136 39.302892,59.759589 12.824643,86.513442 11.427979,84.004635 Z" />
  <path inkscape:connector-curvature="0" id="path23" style="fill:#ffffff;stroke-width:4.05299997" d="M 53.6955,28.7282 C 53.573099,31.201746 62.279754,37.758284 62.279754,37.758284 L 62.841095,35.198004 64.713581,28.859112 57.778898,26.242495 C 57.778898,26.242495 53.857215,25.379611 53.693473,28.727795 Z" />
  <path inkscape:connector-curvature="0" id="path25" style="fill:#ffffff;stroke-width:4.05299997" d="M 62.2068,37.6448 C 62.2068,37.6448 70.657305,49.76327 72.752706,47.055866 73.850664,45.637316 73.526829,36.781511 72.222574,35.367014 69.90061,32.850101 62.203558,37.6448 62.203558,37.6448 Z" />
  <path inkscape:connector-curvature="0" id="path27" style="fill:#663399;stroke-width:4.05299997" d="M 16.4079,89.5232 13.002975,86.15232 20.225421,78.85692 23.631967,82.229421 Z" />
  <path inkscape:connector-curvature="0" id="path29" style="fill:#663399;stroke-width:4.05299997" d="M 7.086,99.2504 3.6798588,95.87952 10.902305,88.58412 14.30723,91.955 Z" />
  <path inkscape:connector-curvature="0" id="path31" style="fill:#663399;stroke-width:4.05299997" d="M 26.1351,79.796 22.728959,76.42512 29.951405,69.12972 33.35633,72.5006 Z" />
  <path inkscape:connector-curvature="0" id="path33" style="fill:#663399;stroke-width:4.05299997" d="M 35.457,70.0688 32.052075,66.699136 39.274521,59.403736 42.679446,62.7734 Z" />
  <path inkscape:connector-curvature="0" id="path35" style="fill:#663399;stroke-width:4.05299997" d="M 45.1842,60.3416 41.779275,56.971936 49.001721,49.676536 52.408267,53.0462 Z" />
  <path inkscape:connector-curvature="0" id="path37" style="fill:#663399;stroke-width:4.05299997" d="M 54.9114,50.6144 51.505259,47.243115 58.727705,39.947715 62.134251,43.319 Z" />
  <path inkscape:connector-curvature="0" id="path39" style="fill:#663399;stroke-width:4.05299997" d="M 88.9566,70.4741 C 85.165829,71.715939 81.422073,72.721894 77.746002,73.535736 79.034451,67.221162 79.661855,61.295676 79.825596,55.836285 H 92.608758 C 92.256958,61.016019 90.988369,65.952573 88.959437,70.471668 M 73.509401,88.738539 C 74.581825,85.712164 75.488886,82.752258 76.258956,79.858416 79.03364,79.308829 81.852096,78.654675 84.705408,77.883389 81.663632,82.143092 77.867997,85.823216 73.511022,88.737323 M 65.579301,92.920019 C 61.506036,94.54892 57.128796,95.574734 52.557012,95.886815 V 82.32953 C 57.955608,82.24766 63.763557,81.837901 69.839004,80.953537 68.707407,84.820504 67.301421,88.816357 65.579301,92.922046 M 46.668003,95.888842 C 42.201597,95.583651 37.917576,94.600393 33.921318,93.030666 32.152589,88.823652 30.715395,84.734175 29.564343,80.778447 30.700399,80.9507 31.867258,81.113225 33.070999,81.264402 37.057935,81.764542 41.639041,82.153225 46.668814,82.290216 Z M 98.343753,47.941852 C 96.891158,47.665032 95.359935,46.403333 92.876256,43.515976 L 92.742102,43.34656 91.041058,41.015275 C 91.866249,43.887636 92.400434,46.879966 92.609164,49.964299 H 79.830055 C 79.646454,43.661884 78.879221,38.113327 77.908527,33.476695 77.772752,32.833889 77.632923,32.205269 77.489042,31.584754 80.186313,32.174061 82.920062,32.86915 85.684208,33.684208 L 81.642151,28.151863 C 78.978925,30.31495 75.428902,33.149212 72.312145,35.512111 73.131662,39.634012 73.77163,44.485453 73.942667,49.965109 H 59.745008 L 53.920847,55.850065 H 73.942667 C 73.75785,61.62559 73.020204,67.964482 71.464663,74.765416 64.789372,75.873101 58.422109,76.366351 52.561471,76.457949 V 57.226464 L 46.676515,63.176268 V 76.421472 C 42.185791,76.295829 38.076049,75.955377 34.460773,75.518464 L 24.794368,85.282141 C 25.181429,86.49723 25.58835,87.716373 26.027695,88.954159 25.050112,88.312569 24.102115,87.627612 23.180868,86.911042 L 19.014384,91.122109 C 27.404094,97.854141 38.047272,101.89093 49.618587,101.89093 76.627779,101.89093 98.619357,79.919617 98.619357,52.890159 98.619357,51.215865 98.530597,49.560215 98.364829,47.929287" />
  <path inkscape:connector-curvature="0" id="path41" style="fill:#663399;stroke-width:4.05299997" d="M 19.6503,55.8833 C 19.812825,61.281896 20.42726,67.142534 21.688959,73.380101 15.941805,72.109891 11.896911,70.803204 10.141962,70.191201 8.1993591,65.757219 6.9798114,60.938202 6.6381435,55.884111 Z M 10.478361,34.945502 C 12.409615,34.285674 16.403847,33.029649 21.940245,31.816181 21.813386,32.372658 21.688959,32.933593 21.570206,33.507498 20.598297,38.14413 19.83228,43.69674 19.648679,49.995102 H 6.6385488 C 7.0000764,44.657301 8.338377,39.578892 10.477145,34.946313 M 27.062021,16.241718 C 25.96001,18.727017 24.756269,21.81054 23.638857,25.450134 20.257845,26.108341 17.32023,26.811942 14.896536,27.46488 18.187167,22.986315 22.321632,19.168389 27.063642,16.242123 M 35.684373,12.164805 C 39.17279,10.969575 42.866289,10.209638 46.688268,9.9494351 V 22.914982 C 41.658495,23.050758 37.082658,23.444709 33.094506,23.944849 32.109627,24.067655 31.149066,24.198973 30.20796,24.335964 32.895099,16.647423 35.736252,12.286395 35.776782,12.229653 Z M 52.573224,9.9494351 C 56.454377,10.213691 60.196917,10.992272 63.731133,12.218305 L 63.718974,12.226411 C 63.75991,12.285584 66.558911,16.579332 69.227001,24.158442 63.378522,23.33771 57.785382,22.957539 52.577277,22.878505 Z M 15.897627,79.742095 C 15.356552,79.064028 14.836552,78.368939 14.336412,77.658043 15.223613,77.899601 16.185796,78.15413 17.2185,78.407037 L 26.820057,68.708208 C 26.071063,64.193166 25.6686,59.909145 25.541336,55.904781 H 39.491761 L 45.315922,50.015772 H 25.537282 C 25.715209,44.292936 26.403409,39.246951 27.273588,35.011566 27.590127,33.474263 27.936253,32.009104 28.303455,30.610008 30.110282,30.306438 32.015192,30.02516 34.014132,29.776306 37.73965,29.314264 42.006648,28.949899 46.687863,28.818177 V 48.629241 L 52.572819,42.679437 V 28.777647 C 52.95299,28.7817 53.340052,28.797912 53.724276,28.806018 53.7567,28.547436 53.826007,28.286018 53.941922,28.017709 54.422203,26.893002 55.524214,26.196696 56.817121,26.196696 57.259303,26.196696 57.629342,26.27573 57.811727,26.321123 L 58.098679,26.412721 64.745599,28.937335 C 67.7663,25.697772 71.506003,21.949963 73.832425,19.643806 73.808107,19.584632 73.785816,19.522216 73.763524,19.463042 L 59.999536,6.955484 59.92334,6.8764505 C 59.185694,6.0893579 58.541672,5.3663027 58.001812,4.6935047 55.280628,4.2217355 52.481626,3.9745025 49.628315,3.9745025 22.619123,3.9745025 0.6275445,25.945815 0.6275445,52.975273 0.6275445,64.724919 4.7859225,75.518059 11.708446,83.968563 Z" />
  <path inkscape:connector-curvature="0" id="path43" style="fill:#663399;stroke-width:4.05299997" d="M 99.0891,43.7243 89.061978,17.943167 96.21147,11.519162 C 97.138391,10.688297 100.98185,4.697963 100.37795,3.526646 99.335117,2.7383375 92.790738,5.8421249 91.858548,6.6746111 L 84.668526,13.135093 60.237042,0.4897331 C 60.237042,0.4897331 55.774689,-1.336954 61.717603,4.9966691 L 77.674264,19.498303 C 75.02806,22.079659 69.045427,28.013656 65.300455,32.147716 L 56.922904,28.966111 C 56.922904,28.966111 55.172413,28.513796 57.256466,30.698363 L 62.667221,35.270147 C 62.19383,35.912953 61.962404,36.349461 62.076699,36.480778 L 62.634797,37.099672 62.119255,37.561713 C 62.045896,37.63102 62.037385,37.748151 62.107096,37.830022 62.174781,37.899328 62.295155,37.909461 62.372568,37.842181 L 62.886893,37.378518 63.377306,37.91554 C 63.493222,38.051316 63.964991,37.862041 64.664539,37.453498 L 68.729698,43.472203 C 70.682434,45.777955 70.416557,43.987745 70.416557,43.987745 L 68.099457,35.135993 C 72.622605,31.851036 79.123617,26.584163 81.956664,24.241529 L 94.764144,41.77886 C 100.42213,48.364985 99.084642,43.728758 99.084642,43.728758" />
</svg>
