<svg version="1.1" viewBox="0 0 74.61 75" xmlns="http://www.w3.org/2000/svg" xmlns:xlink="http://www.w3.org/1999/xlink">
 <defs>
  <linearGradient id="linearGradientSlvr" x2="0" y1="794.4" y2="828" gradientUnits="userSpaceOnUse">
   <stop style="stop-color:#696969" offset="0"/>
   <stop style="stop-color:#c7c7c9" offset=".17"/>
   <stop style="stop-color:#f9f9ff" offset=".36"/>
   <stop style="stop-color:#ccccce" offset=".73"/>
   <stop style="stop-color:#696969" offset="1"/>
  </linearGradient>
  <linearGradient id="linearGradient36902" x1="1121" x2="1227" y1="142.2" y2="142.2" gradientTransform="matrix(.3499 0 0 -.3499 -383.1 93.85)" gradientUnits="userSpaceOnUse" xlink:href="#linearGradientSlvr"/>
  <linearGradient id="linearGradient36910" x1="1214" x2="1281" y1="201.1" y2="201.1" gradientTransform="matrix(.2742 0 0 -.4465 -383.1 93.85)" gradientUnits="userSpaceOnUse">
   <stop style="stop-color:#1c072d" offset="0"/>
   <stop style="stop-color:#5700aa" offset=".29"/>
   <stop style="stop-color:#4b127b" offset=".64"/>
   <stop style="stop-color:#290a43" offset="1"/>
  </linearGradient>
  <linearGradient id="linearGradient6316" x1="1158" x2="1271" y1="129.9" y2="129.9" gradientTransform="matrix(.3499 0 0 -.3499 -383.1 93.85)" gradientUnits="userSpaceOnUse" xlink:href="#linearGradientSlvr"/>
  <linearGradient id="linearGradient6324" x1="1134" x2="1223" y1="174.9" y2="174.9" gradientTransform="matrix(.3499 0 0 -.3499 -383.1 93.85)" gradientUnits="userSpaceOnUse" xlink:href="#linearGradientSlvr"/>
 </defs>
 <path d="m64.11 74.99h-53.61c-5.774 0-10.5-4.724-10.5-10.5v-54c0-5.774 4.724-10.5 10.5-10.5h53.61c5.774 0 10.5 4.724 10.5 10.5v54c0 5.774-4.724 10.5-10.5 10.5" style="fill:#290a43;opacity:.273;stroke-width:.3499"/>
 <path d="m64.11 74.99h-33.86c-0.1435-0.1386-0.28-0.2822-0.4094-0.435-0.2555-0.216-0.4934-0.4539-0.7104-0.7114-0.259-0.2158-0.4969-0.4535-0.7139-0.7114-0.2555-0.216-0.4934-0.4535-0.7104-0.7111-0.2555-0.216-0.4934-0.4539-0.7104-0.7114-0.259-0.2158-0.4934-0.4539-0.7104-0.7114-0.259-0.2158-0.4969-0.4539-0.7139-0.7114-0.2555-0.216-0.4934-0.4535-0.7104-0.7114-0.2555-0.2156-0.4934-0.4535-0.7104-0.7114-0.259-0.2156-0.4934-0.4535-0.7104-0.7111-0.259-0.216-0.4969-0.4539-0.7139-0.7114-0.2555-0.2158-0.4934-0.4535-0.7104-0.7114-0.259-0.2156-0.4934-0.4535-0.7104-0.7114-0.259-0.2156-0.4969-0.4535-0.7139-0.7114-0.2555-0.2156-0.4934-0.4535-0.7104-0.7111-0.2555-0.216-0.4934-0.4539-0.7104-0.7114-0.259-0.2158-0.4934-0.4539-0.7104-0.7114-0.259-0.216-0.4969-0.4535-0.7139-0.7114-0.2555-0.2156-0.4934-0.4535-0.7104-0.7111-0.2555-0.2158-0.4934-0.4539-0.7104-0.7114-0.259-0.2158-0.4969-0.4539-0.7139-0.7114-0.2555-0.216-0.4934-0.4539-0.7104-0.7114-0.2555-0.2156-0.4934-0.4535-0.7104-0.7114-0.259-0.2158-0.4934-0.4535-0.7104-0.7111-0.259-0.2159-0.4969-0.4539-0.7139-0.7114-0.2555-0.2159-0.4934-0.4535-0.7104-0.7114-0.2555-0.2159-0.4934-0.4535-0.7104-0.7114-0.6614-0.5547-1.2-1.249-1.575-2.07-1.207-2.629 0.105-6.782 2.254-8.945l0.4479 0.9987c0.08749-0.09764 0.175-0.1967 0.2625-0.2873l0.4479 0.9984c0.08749-0.09728 0.175-0.1963 0.266-0.287l0.4479 0.9984c0.08749-0.09728 0.1715-0.1963 0.2625-0.287l0.4479 0.9984c0.08749-0.09728 0.175-0.1967 0.2625-0.287l0.4479 0.998c0.08749-0.09728 0.175-0.1963 0.266-0.287l0.4444 0.9984 0.08749-0.09274c-1.456-2.749-2.45-6.505-2.45-10.5 0-13.29 10.81-24.1 24.09-24.1 1.505 0 2.968 0.1592 4.395 0.4259l0.5669 0.6869c0.04549 0.008749 0.09448 0.0154 0.1435 0.02415l0.5669 0.6873c0.04899 0.008749 0.09798 0.0154 0.1435 0.02415l0.5669 0.6873c0.04899 0.008749 0.09798 0.01505 0.147 0.02415l0.5634 0.6873c0.04899 0.008749 0.09798 0.01505 0.147 0.02415l0.5669 0.6873c0.04549 0.008749 0.09448 0.01505 0.1435 0.02415l0.5669 0.6869c0.04899 0.009099 0.09798 0.0154 0.1435 0.0245l0.5669 0.6869c0.04899 0.008748 0.09798 0.0154 0.147 0.02415l0.5634 0.6873c0.04899 0.008749 0.09798 0.01505 0.147 0.02415l0.5669 0.6873c0.04899 0.008748 0.09449 0.01505 0.1435 0.02415l0.5669 0.6873c0.04899 0.008399 0.09798 0.01505 0.147 0.02415l0.5634 0.6873c0.04899 0.008398 0.09798 0.01505 0.147 0.0238l0.5669 0.6873c0.04549 0.008749 0.09448 0.01505 0.1435 0.02415l0.1015 0.1225 1.613-1.905-8.931-9.004s0.8924-1.191 2.243-1.191c0.05949 0 0.119 0.002099 0.1785 0.006999 1.442 0.112 10.22 6.505 10.22 6.505s4.325-3.87 4.906-4.392c0.3464-0.3125 0.9134-0.7534 1.669-0.7534 0.4899 0 1.057 0.1855 1.697 0.7111 0.2345 0.1928 0.4059 0.3842 0.5284 0.5732 0.06299 0.04514 0.1225 0.08714 0.1855 0.1382 0.2345 0.1925 0.4024 0.3842 0.5249 0.5732 0.06299 0.04479 0.1225 0.08679 0.1855 0.1379 0.2345 0.1928 0.4024 0.3846 0.5284 0.5736 0.05949 0.04479 0.119 0.08679 0.182 0.1379 0.2345 0.1928 0.4024 0.3842 0.5284 0.5732 0.05949 0.04514 0.1225 0.08714 0.1855 0.1382 0.2345 0.1928 0.4024 0.3842 0.5249 0.5732 0.06299 0.04479 0.1225 0.08714 0.1855 0.1382 0.2345 0.1925 0.4024 0.3842 0.5284 0.5732 0.05949 0.04479 0.119 0.08714 0.182 0.1382 0.2345 0.1925 0.4024 0.3842 0.5284 0.5732 0.05949 0.04479 0.1225 0.08679 0.182 0.1382 0.2345 0.1925 0.4024 0.3839 0.5284 0.5732 0.06299 0.04479 0.1225 0.08679 0.1855 0.1379 0.2345 0.1928 0.4024 0.3842 0.5249 0.5732 0.06299 0.04514 0.1225 0.08714 0.1855 0.1382 0.2345 0.1928 0.4024 0.3842 0.5284 0.5732 0.05949 0.04479 0.119 0.08714 0.182 0.1382 0.2345 0.1925 0.4024 0.3842 0.5284 0.5732 0.05949 0.04479 0.1225 0.08679 0.1855 0.1382 0.2345 0.1925 0.4024 0.3839 0.5249 0.5732 0.06299 0.04479 0.1225 0.08679 0.1855 0.1382 0.2345 0.1925 0.4024 0.3839 0.5284 0.5732 0.05949 0.04479 0.119 0.08679 0.182 0.1379 0.2345 0.1928 0.4024 0.3842 0.5284 0.5732 0.05949 0.04514 0.1225 0.08714 0.182 0.1382 0.105 0.08399 0.189 0.1673 0.2695 0.2509v40.31c0 5.774-4.724 10.5-10.5 10.5" style="fill:#290a43;opacity:.576;stroke-width:.3499"/>
 <path d="m18.62 49.16c-1.501-2.432-2.604-6.163-2.604-10.14 0-11.95 9.721-21.67 21.66-21.67 2.464 0 4.819 0.4318 7.023 1.189l-2.628-3.189c-1.428-0.2667-2.891-0.4259-4.395-0.4259-13.28 0-24.09 10.81-24.09 24.1 0 4.434 1.225 8.581 2.947 11.38l2.082-1.232" style="fill:url(#linearGradient6324);stroke-width:.3499"/>
 <path d="m58.51 33.66c0.4339 1.705 0.6754 3.491 0.6754 5.34 0 11.94-9.725 21.67-21.67 21.67-5.071 0-9.728-1.758-13.42-4.696l-2.149 1.368c4.199 3.58 9.631 5.753 15.57 5.753 13.28 0 24.09-10.81 24.09-24.09 0-0.8819-0.05949-1.74-0.154-2.593l-2.943-2.746" style="fill:url(#linearGradient6316);stroke-width:.3499"/>
 <path d="m65.16 32.43c-0.301-1.432-6.229-9.791-6.229-9.791s5.039-4.864 5.368-5.445c0.3324-0.5743 1.606-1.872-0.0175-3.203-1.627-1.336-2.793-0.4728-3.366 0.04234-0.5809 0.5214-4.906 4.392-4.906 4.392s-8.78-6.394-10.22-6.505c-1.452-0.112-2.422 1.184-2.422 1.184l8.931 9.004-4.374 5.162-3.912-1.142-2.159 1.332s4.29 1.871 5.137 2.947c0.8539 1.077 1.97 4.658 1.97 4.658l2.061-1.083-0.9589-4.714 4.966-3.954 8.518 9.34c0-0.005949 1.918-0.7923 1.617-2.226" style="fill:url(#linearGradient36910);stroke-width:.3499"/>
 <path d="m45.21 31.8c-0.8119-0.7576-2.096-1.232-2.096-1.232-10.67 10.37-23.99 21.78-26.88 22.15-1.099 0.08189-1.792-0.1788-2.065-0.7699-0.3115-0.6698-0.6859-1.108 0.1015-1.9l-2.25-5.015c-2.149 2.161-3.461 6.317-2.254 8.945 1.046 2.283 3.314 3.597 6.131 3.597 0.231 0 0.4619-0.005949 0.6964-0.02415 5.732-0.4259 24.33-18.1 29.9-23.51 0 0-0.4794-1.491-1.284-2.249" style="fill:url(#linearGradient36902);stroke-width:.3499"/>
</svg>
