<?xml version="1.0" encoding="UTF-8" standalone="no"?>
<svg xmlns:dc="http://purl.org/dc/elements/1.1/" xmlns:cc="http://creativecommons.org/ns#" xmlns:rdf="http://www.w3.org/1999/02/22-rdf-syntax-ns#" xmlns:svg="http://www.w3.org/2000/svg" xmlns="http://www.w3.org/2000/svg" xmlns:xlink="http://www.w3.org/1999/xlink" xmlns:sodipodi="http://sodipodi.sourceforge.net/DTD/sodipodi-0.dtd" xmlns:inkscape="http://www.inkscape.org/namespaces/inkscape" version="1.1" viewBox="0 0 100 100.5" id="svg41" sodipodi:docname="i72.svg" inkscape:version="0.92.2 (5c3e80d, 2017-08-06)">
  <metadata id="metadata45">
    <rdf:RDF>
      <cc:Work rdf:about="">
        <dc:format>image/svg+xml</dc:format>
        <dc:type rdf:resource="http://purl.org/dc/dcmitype/StillImage" />
        <dc:title></dc:title>
      </cc:Work>
    </rdf:RDF>
  </metadata>
  <sodipodi:namedview pagecolor="#ffffff" bordercolor="#666666" borderopacity="1" objecttolerance="10" gridtolerance="10" guidetolerance="10" inkscape:pageopacity="0" inkscape:pageshadow="2" inkscape:window-width="2560" inkscape:window-height="1001" id="namedview43" showgrid="false" inkscape:zoom="2.3482587" inkscape:cx="-83.929025" inkscape:cy="50.25" inkscape:window-x="-9" inkscape:window-y="41" inkscape:window-maximized="1" inkscape:current-layer="svg41" />
  <defs id="defs25">
    <linearGradient id="linearGradientSlvr" x1="0" x2="0" y1="794.40002" y2="828" gradientUnits="userSpaceOnUse">
      <stop style="stop-color:#696969" offset="0" id="stop2" />
      <stop style="stop-color:#c7c7c9" offset=".17" id="stop4" />
      <stop style="stop-color:#f9f9ff" offset=".36" id="stop6" />
      <stop style="stop-color:#ccccce" offset=".73" id="stop8" />
      <stop style="stop-color:#696969" offset="1" id="stop10" />
    </linearGradient>
    <linearGradient id="linearGradient36902" x1="1121" x2="1227" y1="142.2" y2="142.2" gradientUnits="userSpaceOnUse" xlink:href="#linearGradientSlvr" gradientTransform="matrix(0.469,0,0,-0.469,-513.3,125.8)" />
    <linearGradient id="linearGradient36910" x1="1214" x2="1281" y1="201.1" y2="201.1" gradientTransform="matrix(0.3674615,0,0,-0.598444,-513.3,125.8)" gradientUnits="userSpaceOnUse">
      <stop style="stop-color:#1c072d" offset="0" id="stop14" />
      <stop style="stop-color:#5700aa" offset=".29" id="stop16" />
      <stop style="stop-color:#4b127b" offset=".64" id="stop18" />
      <stop style="stop-color:#290a43" offset="1" id="stop20" />
    </linearGradient>
    <linearGradient id="linearGradient6316" x1="1158" x2="1271" y1="129.9" y2="129.9" gradientUnits="userSpaceOnUse" xlink:href="#linearGradientSlvr" gradientTransform="matrix(0.469,0,0,-0.469,-513.3,125.8)" />
    <linearGradient id="linearGradient6324" x1="1134" x2="1223" y1="174.9" y2="174.9" gradientUnits="userSpaceOnUse" xlink:href="#linearGradientSlvr" gradientTransform="matrix(0.469,0,0,-0.469,-513.3,125.8)" />
  </defs>
  <path inkscape:connector-curvature="0" id="path27" style="fill:#290a43;stroke-width:0.46900001;fill-opacity:1;opacity:0.273" d="M 86.082,100.53028 H 14.2312 C 6.4927,100.53028 0.1612,94.19878 0.1612,86.46028 V 14.09358 C 0.1612,6.35508 6.4927,0.02358 14.2312,0.02358 H 86.082 C 93.8205,0.02358 100.152,6.35508 100.152,14.09358 V 86.46028 C 100.152,94.19878 93.8205,100.53028 86.082,100.53028" />
  <path inkscape:connector-curvature="0" id="path29" style="opacity:0.576;fill:#290a43;stroke-width:0.46900001;fill-opacity:1" d="M 86.082,100.53028 H 40.69687 C 40.50458,100.34451 40.32167,100.15213 40.14814,99.947313 39.80577,99.657846 39.48685,99.33902 39.19607,98.993836 38.84901,98.704557 38.53009,98.386012 38.23931,98.040359 37.89694,97.750892 37.57802,97.432535 37.28724,97.087351 36.94487,96.797884 36.62595,96.479058 36.33517,96.133874 35.98811,95.844595 35.67388,95.525581 35.3831,95.180397 35.03604,94.891118 34.71712,94.572104 34.42634,94.22692 34.08397,93.937453 33.76505,93.619096 33.47427,93.273443 33.1319,92.984492 32.81298,92.665619 32.5222,92.319966 32.17514,92.031062 31.86091,91.712142 31.57013,91.366958 31.22307,91.077491 30.90415,90.758665 30.61337,90.413481 30.271,90.124202 29.95208,89.805657 29.6613,89.460004 29.31424,89.1711 29.00001,88.85218 28.70923,88.506527 28.36217,88.217623 28.04325,87.898703 27.75247,87.55305 27.4101,87.264146 27.09118,86.945226 26.8004,86.600042 26.45803,86.310622 26.13911,85.991749 25.84833,85.646565 25.50127,85.357286 25.18704,85.038272 24.89626,84.693088 24.5492,84.403621 24.23028,84.085264 23.9395,83.739611 23.59713,83.450707 23.27821,83.131787 22.98743,82.786603 22.64506,82.497324 22.32614,82.17831 22.03536,81.833126 21.6883,81.543847 21.36938,81.224833 21.0786,80.879649 20.73623,80.590182 20.41731,80.271356 20.12653,79.926172 19.78416,79.637268 19.46524,79.318348 19.17446,78.972695 18.8274,78.683416 18.51317,78.364871 18.22239,78.019687 17.87533,77.730314 17.55641,77.411394 17.26563,77.06621 16.92326,76.776837 16.60434,76.458386 16.31356,76.112733 15.97119,75.82336 15.65227,75.504909 15.36149,75.159256 14.47508,74.415891 13.75282,73.485864 13.25099,72.385121 11.63294,68.861993 13.39169,63.295901 16.27135,60.397481 L 16.87167,61.736007 C 16.98892,61.605156 17.10617,61.472429 17.22342,61.350958 L 17.82374,62.689015 C 17.94099,62.558633 18.05824,62.425906 18.18018,62.304435 L 18.7805,63.642492 C 18.89775,63.51211 19.01031,63.379383 19.13225,63.257912 L 19.73257,64.595969 C 19.84982,64.465587 19.96707,64.332391 20.08432,64.211389 L 20.68464,65.548977 C 20.80189,65.418595 20.91914,65.285868 21.04108,65.164397 L 21.63671,66.502454 21.75396,66.378169 C 19.80292,62.693705 18.47096,57.659459 18.47096,52.308169 18.47096,34.500239 32.95368,20.012829 50.75223,20.012829 52.76893,20.012829 54.72935,20.226224 56.64287,20.583602 L 57.40265,21.504249 C 57.46362,21.515974 57.52928,21.524885 57.59494,21.53661 L 58.35472,22.457726 C 58.42038,22.469451 58.48604,22.478362 58.54701,22.490087 L 59.30679,23.411203 C 59.37245,23.422928 59.43811,23.43137 59.50377,23.443564 L 60.25886,24.36468 C 60.32452,24.376405 60.39018,24.384847 60.45584,24.397041 L 61.21562,25.318157 C 61.27659,25.329882 61.34225,25.338324 61.40791,25.350518 L 62.16769,26.271165 C 62.23335,26.283359 62.29901,26.291801 62.35998,26.303995 L 63.11976,27.224642 C 63.18542,27.236367 63.25108,27.245278 63.31674,27.257003 L 64.07183,28.178119 C 64.13749,28.189844 64.20315,28.198286 64.26881,28.21048 L 65.02859,29.131596 C 65.09425,29.143321 65.15522,29.151763 65.22088,29.163957 L 65.98066,30.085073 C 66.04632,30.096329 66.11198,30.10524 66.17764,30.117434 L 66.93273,31.03855 C 66.99839,31.049806 67.06405,31.058717 67.12971,31.070442 L 67.88949,31.991558 C 67.95046,32.003283 68.01612,32.011725 68.08178,32.023919 L 68.21779,32.188069 70.37988,29.634364 58.411,17.566994 C 58.411,17.566994 59.60695,15.971456 61.41729,15.971456 61.49702,15.971456 61.57675,15.97427 61.65648,15.980836 63.58876,16.130916 75.35597,24.699546 75.35597,24.699546 75.35597,24.699546 81.15281,19.512406 81.93135,18.813596 82.39566,18.394779 83.15544,17.803839 84.16848,17.803839 84.82508,17.803839 85.58486,18.052409 86.44313,18.756847 86.75736,19.015266 86.98717,19.271809 87.15132,19.525069 87.23574,19.58557 87.31547,19.64185 87.39989,19.710324 87.71412,19.968274 87.93924,20.225286 88.10339,20.478546 88.18781,20.538578 88.26754,20.594858 88.35196,20.663332 88.66619,20.921751 88.89131,21.178763 89.06015,21.432023 89.13988,21.492055 89.21961,21.548335 89.30403,21.616809 89.61826,21.875228 89.84338,22.131771 90.01222,22.385031 90.09195,22.445532 90.17637,22.501812 90.26079,22.570286 90.57502,22.828705 90.80014,23.085248 90.96429,23.338508 91.04871,23.39854 91.12844,23.455289 91.21286,23.523763 91.52709,23.781713 91.75221,24.038725 91.92105,24.291985 92.00078,24.352017 92.08051,24.408766 92.16493,24.47724 92.47916,24.73519 92.70428,24.992202 92.87312,25.245462 92.95285,25.305494 93.03727,25.361774 93.117,25.430717 93.43123,25.688667 93.65635,25.94521 93.82519,26.198939 93.90961,26.258971 93.98934,26.315251 94.07376,26.383725 94.38799,26.642144 94.61311,26.898687 94.77726,27.151947 94.86168,27.212448 94.94141,27.268728 95.02583,27.337202 95.34006,27.595621 95.56518,27.852164 95.73402,28.105424 95.81375,28.165456 95.89348,28.222205 95.9779,28.290679 96.29213,28.548629 96.51725,28.805641 96.68609,29.058901 96.76582,29.118933 96.85024,29.175213 96.93466,29.244156 97.24889,29.502106 97.47401,29.758649 97.63816,30.012378 97.72258,30.07241 97.80231,30.12869 97.88673,30.197633 98.20096,30.455583 98.42608,30.712126 98.59492,30.965855 98.67465,31.025887 98.75438,31.082167 98.8388,31.150641 99.15303,31.40906 99.37815,31.665603 99.54699,31.918863 99.62672,31.979364 99.71114,32.035644 99.79087,32.104118 99.93157,32.216678 100.04413,32.3283 100.152,32.440391 V 86.469191 C 100.152,94.207691 93.8205,100.53919 86.082,100.53919" />
  <path inkscape:connector-curvature="0" id="path31" style="fill:url(#linearGradient6324);stroke-width:0.46900001" d="M 25.112,65.9087 C 23.09999,62.64915 21.62264,57.64961 21.62264,52.31239 21.62264,36.29604 34.65146,23.27191 50.65374,23.27191 53.9555,23.27191 57.11187,23.850656 60.06657,24.866041 L 56.54438,20.591575 C 54.63086,20.234197 52.67044,20.020802 50.65374,20.020802 32.85519,20.020802 18.37247,34.503522 18.37247,52.316142 18.37247,58.258372 20.01397,63.816022 22.32145,67.563332 L 25.112,65.912452" />
  <path inkscape:connector-curvature="0" id="path33" style="fill:url(#linearGradient6316);stroke-width:0.46900001" d="M 78.578,45.132 C 79.15956,47.416499 79.48317,49.810744 79.48317,52.28894 79.48317,68.29591 66.44966,81.32473 50.438,81.32473 43.64219,81.32473 37.3998,78.968943 32.45654,75.03075 L 29.57688,76.86454 C 35.20488,81.66241 42.48376,84.5749 50.438,84.5749 68.24124,84.5749 82.72865,70.09218 82.72865,52.28894 82.72865,51.10706 82.64892,49.957541 82.52229,48.814119 L 78.578,45.134345" />
  <path inkscape:connector-curvature="0" id="path35" style="fill:url(#linearGradient36910);stroke-width:0.46900001" d="M 87.489,43.4905 C 87.08566,41.571821 79.1408,30.36788 79.1408,30.36788 79.1408,30.36788 85.8944,23.84878 86.33526,23.07024 86.78081,22.300611 88.48797,20.562028 86.31181,18.777014 84.13096,16.985903 82.56919,18.143395 81.80003,18.833763 81.02149,19.532573 75.22465,24.719713 75.22465,24.719713 75.22465,24.719713 63.45744,16.151083 61.52516,16.001003 59.57881,15.850923 58.27968,17.587161 58.27968,17.587161 L 70.24856,29.654531 64.38606,36.572281 59.14264,35.041465 56.24891,36.826479 C 56.24891,36.826479 61.99885,39.334222 63.13383,40.776397 64.27819,42.219979 65.7743,47.018787 65.7743,47.018787 L 68.53671,45.566763 67.25165,39.249333 73.90676,33.949633 85.32222,46.467243 C 85.32222,46.45927 87.89234,45.405427 87.489,43.483934" />
  <path inkscape:connector-curvature="0" id="path37" style="fill:url(#linearGradient36902);stroke-width:0.46900001" d="M 60.756,42.6463 C 59.66792,41.630915 57.94669,40.99542 57.94669,40.99542 43.64688,54.8872 25.80143,70.18598 21.9228,70.68312 20.45014,70.792866 19.52152,70.443461 19.1557,69.65132 18.73829,68.753654 18.23646,68.166935 19.29171,67.10465 L 16.27604,60.38388 C 13.39638,63.279955 11.63763,68.84933 13.25568,72.37152 14.65799,75.431745 17.69711,77.19284 21.47256,77.19284 21.7821,77.19284 22.09164,77.184867 22.40587,77.160479 30.08809,76.589706 55.01075,52.903799 62.47723,45.657749 62.47723,45.657749 61.8347,43.65934 60.756,42.643955" />
</svg>
