<svg version="1.1" viewBox="0 0 74.64 75" xmlns="http://www.w3.org/2000/svg" xmlns:xlink="http://www.w3.org/1999/xlink">
 <defs>
  <linearGradient id="linearGradientSlvr" x1="-1869" x2="-1869" y1="794.4" y2="828" gradientTransform="matrix(1.301,0,0,1.301,1365,-35.3)" gradientUnits="userSpaceOnUse">
   <stop style="stop-color:#696969" offset="0"/>
   <stop style="stop-color:#c7c7c9" offset=".17"/>
   <stop style="stop-color:#f9f9ff" offset=".36"/>
   <stop style="stop-color:#ccccce" offset=".73"/>
   <stop style="stop-color:#696969" offset="1"/>
  </linearGradient>
  <linearGradient id="linearGradient12877-5" x1="1134" x2="1223" y1="174.9" y2="174.9" gradientTransform="matrix(.35 0 0 -.35 -383.1 93.86)" gradientUnits="userSpaceOnUse" xlink:href="#linearGradientSlvr"/>
  <linearGradient id="linearGradient12879-9" x1="1158" x2="1271" y1="129.9" y2="129.9" gradientTransform="matrix(.35 0 0 -.35 -383.1 93.86)" gradientUnits="userSpaceOnUse" xlink:href="#linearGradientSlvr"/>
  <linearGradient id="linearGradient12881-4" x1="1214" x2="1281" y1="201.1" y2="201.1" gradientTransform="matrix(.35 0 0 -.35 -383.1 93.86)" gradientUnits="userSpaceOnUse" xlink:href="#linearGradientSlvr"/>
  <linearGradient id="linearGradient12883-8" x1="1121" x2="1227" y1="142.2" y2="142.2" gradientTransform="matrix(.35 0 0 -.35 -383.1 93.86)" gradientUnits="userSpaceOnUse" xlink:href="#linearGradientSlvr"/>
 </defs>
 <path d="m64.14 75h-53.64c-5.775 0-10.5-4.726-10.5-10.5v-54c0-5.775 4.725-10.5 10.5-10.5h53.64c5.775 0 10.5 4.726 10.5 10.5v54c0 5.775-4.725 10.5-10.5 10.5" style="fill:#5c1696"/>
 <path d="m64.14 75h-33.87c-0.1435-0.1386-0.28-0.2822-0.4095-0.4351-0.2555-0.216-0.4935-0.4539-0.7105-0.7117-0.259-0.2159-0.497-0.4535-0.714-0.7115-0.2555-0.216-0.4935-0.4537-0.7105-0.7112-0.2555-0.216-0.4935-0.4539-0.7105-0.7117-0.259-0.2159-0.4935-0.4539-0.7105-0.7115-0.259-0.2159-0.497-0.4539-0.714-0.7115-0.2555-0.216-0.4935-0.4537-0.7105-0.7117-0.2555-0.2156-0.4935-0.4537-0.7105-0.7115-0.259-0.2156-0.4935-0.4537-0.7105-0.7112-0.259-0.216-0.497-0.4541-0.714-0.7117-0.2555-0.2159-0.4935-0.4537-0.7105-0.7115-0.259-0.2156-0.4935-0.4537-0.7105-0.7117-0.259-0.2156-0.497-0.4537-0.714-0.7115-0.2555-0.2156-0.4935-0.4537-0.7105-0.7113-0.2555-0.216-0.4935-0.454-0.7105-0.7117-0.259-0.2159-0.4935-0.4539-0.7105-0.7115-0.259-0.216-0.497-0.4537-0.714-0.7117-0.2555-0.2156-0.4935-0.4535-0.7105-0.7112-0.2555-0.2159-0.4935-0.4539-0.7105-0.7115-0.259-0.2159-0.497-0.4539-0.714-0.7115-0.2555-0.216-0.4935-0.4541-0.7105-0.7117-0.2555-0.2156-0.4935-0.4537-0.7105-0.7117-0.259-0.2159-0.4935-0.4536-0.7105-0.7112-0.259-0.216-0.497-0.454-0.714-0.7116-0.2555-0.216-0.4935-0.4536-0.7105-0.7116-0.2555-0.216-0.4935-0.4536-0.7105-0.7116-0.6615-0.5548-1.201-1.249-1.575-2.07-1.208-2.629 0.105-6.785 2.254-8.946l0.448 0.9989c0.0875-0.09765 0.175-0.1967 0.2625-0.2874l0.448 0.9986c0.0875-0.0973 0.175-0.1964 0.266-0.287l0.448 0.9986c0.0875-0.0973 0.1715-0.1964 0.2625-0.287l0.448 0.9986c0.08751-0.0973 0.175-0.1967 0.2625-0.287l0.448 0.9982c0.0875-0.0973 0.175-0.1964 0.266-0.287l0.4445 0.9986 0.0875-0.09275c-1.456-2.75-2.45-6.508-2.45-10.5 0-13.29 10.81-24.1 24.09-24.1 1.505 0 2.968 0.1593 4.396 0.426l0.567 0.6871c0.0455 0.008754 0.0945 0.0154 0.1435 0.02415l0.567 0.6874c0.049 0.008747 0.09801 0.0154 0.1435 0.02415l0.567 0.6874c0.049 0.008749 0.098 0.01505 0.147 0.02415l0.5635 0.6874c0.049 0.008747 0.098 0.01504 0.147 0.02415l0.567 0.6874c0.04551 0.008747 0.0945 0.01505 0.1435 0.02415l0.567 0.6871c0.049 0.009099 0.09801 0.0154 0.1435 0.0245l0.567 0.6871c0.049 0.008747 0.098 0.0154 0.147 0.02415l0.5635 0.6874c0.049 0.008747 0.09801 0.01505 0.147 0.02415l0.567 0.6874c0.049 0.008754 0.0945 0.01506 0.1435 0.02415l0.567 0.6874c0.049 0.008396 0.098 0.01505 0.147 0.02415l0.5635 0.6874c0.049 0.008403 0.098 0.01505 0.147 0.0238l0.567 0.6874c0.04551 0.008748 0.0945 0.01505 0.1435 0.02415l0.1015 0.1225 1.614-1.906-8.932-9.005s0.8925-1.191 2.244-1.191c0.0595 0 0.119 0.002091 0.1785 0.007016 1.442 0.112 10.22 6.506 10.22 6.506s4.326-3.871 4.907-4.392c0.3465-0.3126 0.9135-0.7536 1.67-0.7536 0.49 0 1.057 0.1855 1.698 0.7112 0.2345 0.1929 0.406 0.3843 0.5285 0.5733 0.063 0.04515 0.1225 0.08715 0.1855 0.1383 0.2345 0.1925 0.4025 0.3843 0.525 0.5733 0.063 0.0448 0.1225 0.0868 0.1855 0.1379 0.2345 0.1929 0.4025 0.3847 0.5285 0.5737 0.05951 0.0448 0.119 0.0868 0.182 0.1379 0.2345 0.1929 0.4025 0.3843 0.5285 0.5733 0.05951 0.04516 0.1225 0.08716 0.1855 0.1383 0.2345 0.1929 0.4025 0.3843 0.525 0.5733 0.063 0.0448 0.1225 0.08715 0.1855 0.1383 0.2345 0.1925 0.4025 0.3843 0.5285 0.5733 0.0595 0.0448 0.119 0.08715 0.182 0.1383 0.2345 0.1925 0.4025 0.3843 0.5285 0.5733 0.0595 0.0448 0.1225 0.0868 0.182 0.1383 0.2345 0.1925 0.4025 0.384 0.5285 0.5733 0.063 0.04481 0.1225 0.08681 0.1855 0.1379 0.2345 0.1929 0.4025 0.3843 0.525 0.5733 0.063 0.04516 0.1225 0.08716 0.1855 0.1383 0.2345 0.1929 0.4025 0.3843 0.5285 0.5733 0.0595 0.04481 0.119 0.08715 0.182 0.1383 0.2345 0.1925 0.4025 0.3843 0.5285 0.5733 0.0595 0.04481 0.1225 0.0868 0.1855 0.1383 0.2345 0.1925 0.4025 0.384 0.525 0.5733 0.06301 0.0448 0.1225 0.0868 0.1855 0.1383 0.2345 0.1925 0.4025 0.384 0.5285 0.5733 0.05951 0.0448 0.119 0.0868 0.182 0.1379 0.2345 0.1929 0.4025 0.3843 0.5285 0.5733 0.05951 0.04515 0.1225 0.08715 0.182 0.1383 0.105 0.084 0.189 0.1673 0.2695 0.251v40.31c0 5.775-4.725 10.5-10.5 10.5" style="fill:#000000;opacity:.317"/>
 <path d="m18.71 49.16c-1.502-2.433-2.604-6.162-2.604-10.15 0-11.95 9.723-21.67 21.67-21.67 2.464 0 4.82 0.4319 7.025 1.19l-2.629-3.19c-1.428-0.2667-2.891-0.426-4.396-0.426-13.28 0-24.09 10.81-24.09 24.1 0 4.434 1.225 8.584 2.947 11.38l2.083-1.232" style="fill:url(#linearGradient12877-5)"/>
 <path d="m58.77 33.67c0.434 1.705 0.6755 3.492 0.6755 5.34 0 11.95-9.727 21.67-21.68 21.67-5.072 0-9.73-1.758-13.42-4.696l-2.149 1.369c4.2 3.581 9.632 5.753 15.57 5.753 13.29 0 24.1-10.81 24.1-24.09 0-0.882-0.0595-1.74-0.154-2.593l-2.944-2.746" style="fill:url(#linearGradient12879-9)"/>
 <path d="m65.29 32.41c-0.301-1.432-6.23-9.792-6.23-9.792s5.04-4.865 5.369-5.445c0.3325-0.5744 1.607-1.872-0.0175-3.204-1.628-1.337-2.793-0.4729-3.367 0.04235-0.581 0.5215-4.907 4.392-4.907 4.392s-8.782-6.394-10.22-6.506c-1.453-0.112-2.422 1.184-2.422 1.184l8.932 9.006-4.375 5.162-3.913-1.142-2.16 1.332s4.291 1.872 5.138 2.948c0.854 1.077 1.971 4.66 1.971 4.66l2.062-1.084-0.959-4.713 4.967-3.954 8.519 9.342c0-0.005949 1.918-0.7924 1.617-2.226" style="fill:url(#linearGradient12881-4)"/>
 <path d="m45.23 31.81c-0.812-0.7578-2.097-1.232-2.097-1.232-10.67 10.37-23.99 21.79-26.88 22.15-1.099 0.0819-1.792-0.1789-2.065-0.77-0.3115-0.6699-0.686-1.108 0.1015-1.901l-2.251-5.015c-2.149 2.161-3.462 6.317-2.254 8.946 1.047 2.284 3.315 3.6 6.132 3.6 0.231 0 0.462-0.00595 0.6965-0.02415 5.733-0.426 24.33-18.1 29.91-23.51 0 0-0.4795-1.491-1.285-2.249" style="fill:url(#linearGradient12883-8)"/>
</svg>
