<svg version="1.1" viewBox="0 0 75 50.82" xmlns="http://www.w3.org/2000/svg">
 <path d="m37.78 30.51h-10.52l-1.962-0.0972 3.111 7.57h18.16l3.111-7.57-1.962 0.0972zm7.472 5.732h-15.52v-2.788h15.52z" style="fill:#290a43;stroke-width:.2785"/>
 <path d="m67.89 15.5 7.113-0.9455s-0.3097-3.687-1.394-4.153c-1.084-0.4645-5.807 0-5.807 0s-0.5033 2.908-1.394 2.944c0 0 1.007 1.004 1.394 1.934 0.03676 0.08884 0.06489 0.159 0.08884 0.2203z" style="fill:#290a43;stroke-width:.2785"/>
 <path d="m67.89 15.5-0.08884 0.0117s0.3142 0.5656 0.08884-0.0117z" style="fill:#290a43;stroke-width:.2785"/>
 <path d="m48.22 38.36 2.292 2.292h-26.03l2.292-2.292-3.777-9.154h-18.43v10.84l1.872 1.394h62.11l1.872-1.394v-10.84h-18.43zm-32 1.026h-8.943v-4.063h8.943zm42.56-4.063h8.943v4.063h-8.943z" style="fill:#290a43;stroke-width:.2785"/>
 <rect x="59.34" y="42.76" width="8.235" height="8.052" style="fill:#290a43;stroke-width:.2785"/>
 <path d="m6.476 27.03h1.2s-0.6968-4.336 3.019-6.347c3.715-2.013 10.84 6.896 10.84 6.896h4.437l-1.792-4.03h26.65l-1.792 4.03h4.437s7.124-8.907 10.84-6.896c3.715 2.013 3.019 6.347 3.019 6.347h1.2c0.3484-12-3.019-13.67-3.019-13.67s-4.645-12.2-5.924-12.89c-1.151-0.6278-43.03-0.6278-44.17 0-1.278 0.6968-5.924 12.89-5.924 12.89s-3.367 1.664-3.019 13.67zm10.41-24.78c1.245-0.3732 39.99-0.3732 41.22 0 1.549 0.4645 5.498 10.76 5.498 10.76l-25.82-0.6673v-0.01504l-0.2902 0.007798-0.2902-0.007798v0.01504l-25.82 0.6673c0-2.79e-4 3.949-10.3 5.498-10.76z" style="fill:#290a43;stroke-width:.2785"/>
 <path d="m7.2 15.28c0.3871-0.9294 1.394-1.934 1.394-1.934-0.8907-0.03648-1.394-2.944-1.394-2.944s-4.723-0.4645-5.807 0c-1.084 0.4643-1.394 4.153-1.394 4.153l7.113 0.9455c0.02395-0.06127 0.0518-0.1315 0.08912-0.2203z" style="fill:#290a43;stroke-width:.2785"/>
 <path d="m7.2 15.5-0.08912-0.0117c-0.2253 0.5773 0.08912 0.0117 0.08912 0.0117z" style="fill:#290a43;stroke-width:.2785"/>
 <rect x="7.423" y="42.76" width="8.235" height="8.052" style="fill:#290a43;stroke-width:.2785"/>
</svg>
