<svg version="1.1" viewBox="0 0 75 75" xmlns="http://www.w3.org/2000/svg" xmlns:xlink="http://www.w3.org/1999/xlink">
 <defs>
  <linearGradient id="linearGradientSlvr" x2="0" y1="794.4" y2="828" gradientUnits="userSpaceOnUse">
   <stop style="stop-color:#696969" offset="0"/>
   <stop style="stop-color:#c7c7c9" offset=".17"/>
   <stop style="stop-color:#f9f9ff" offset=".36"/>
   <stop style="stop-color:#ccccce" offset=".73"/>
   <stop style="stop-color:#696969" offset="1"/>
  </linearGradient>
  <linearGradient id="linearGradient40794" x1="608" x2="615.2" y1="595.4" y2="595.4" gradientTransform="matrix(.375 0 0 -.375 -168 277.5)" gradientUnits="userSpaceOnUse" xlink:href="#linearGradientSlvr"/>
  <linearGradient id="linearGradient40802" x1="-7.128" x2="0" y1="-.001" y2="-.001" gradientTransform="matrix(.375 0 0 -.375 54.75 54.22)" gradientUnits="userSpaceOnUse" xlink:href="#linearGradientSlvr"/>
  <linearGradient id="linearGradient40818" x1="-7.129" x2="0" y1="-5e-4" y2="-5e-4" gradientTransform="matrix(.375 0 0 -.375 46.8 54.22)" gradientUnits="userSpaceOnUse" xlink:href="#linearGradientSlvr"/>
  <linearGradient id="linearGradient40826" x1="-7.128" x2="0" y1="-5e-4" y2="-5e-4" gradientTransform="matrix(.375 0 0 -.375 38.85 54.22)" gradientUnits="userSpaceOnUse" xlink:href="#linearGradientSlvr"/>
  <linearGradient id="linearGradient6284" x1="-180" x2="20" y1="-100" y2="-100" gradientTransform="matrix(.375 0 0 -.375 67.5 0)" gradientUnits="userSpaceOnUse" xlink:href="#linearGradientSlvr"/>
  <linearGradient id="linearGradient880" x1="-7.128" x2="0" y1="-5e-4" y2="-5e-4" gradientTransform="matrix(.375 0 0 -.375 15 54.22)" gradientUnits="userSpaceOnUse" xlink:href="#linearGradientSlvr"/>
  <linearGradient id="linearGradient882" x1="-7.129" x2="0" y1="-5e-4" y2="-5e-4" gradientTransform="matrix(.375 0 0 -.375 22.95 54.22)" gradientUnits="userSpaceOnUse" xlink:href="#linearGradientSlvr"/>
  <linearGradient id="linearGradient884" x1="-7.128" x2="0" y1="-5e-4" y2="-5e-4" gradientTransform="matrix(.375 0 0 -.375 30.9 54.22)" gradientUnits="userSpaceOnUse" xlink:href="#linearGradientSlvr"/>
 </defs>
 <path d="m67.5 0h-60c-4.125 0-7.5 3.375-7.5 7.5v60c0 4.125 3.375 7.5 7.5 7.5h60c4.125 0 7.5-3.375 7.5-7.5v-60c0-4.125-3.375-7.5-7.5-7.5" style="fill:url(#linearGradient6284);stroke-width:.375"/>
 <path d="m56.59 21.94h-38.14c-0.4372 0-0.795 0.3574-0.795 0.7946v26.23c-3.75e-4 0.4369 0.3578 0.795 0.795 0.795h38.14c0.4372 0 0.795-0.3581 0.795-0.795v-26.23c0-0.4372-0.3574-0.7946-0.795-0.7946" style="fill:#58595b;stroke-width:.375"/>
 <path d="m47.18 49.72h2.45v-27.82h-2.45zm-21.77 0h2.45v-27.82h-2.45z" style="fill:#290a43;stroke-width:.375"/>
 <path d="m41.81 21.94 0.00225-3.08h-8.644v3.08h-1.59v-3.08c0-0.8764 0.7129-1.59 1.59-1.59h8.644c0.8768 0 1.59 0.7132 1.59 1.59v3.08z" style="fill:#58595b;stroke-width:.375"/>
 <path d="m33.64 21.41h-2.536v0.4969h2.536z" style="fill:#290a43;stroke-width:.375"/>
 <path d="m43.88 21.41h-2.556v0.4969h2.556z" style="fill:#290a43;stroke-width:.375"/>
 <path d="m17.18 54.22c0 1.95-1.581 3.53-3.53 3.53-1.95 0-3.53-1.581-3.53-3.53s1.581-3.53 3.53-3.53c1.949 0 3.53 1.58 3.53 3.53" style="fill:#414142;stroke-width:.375"/>
 <path d="m15 54.22c0 0.7384-0.5985 1.336-1.336 1.336-0.7384 0-1.337-0.5981-1.337-1.336 0-0.738 0.5985-1.336 1.337-1.336 0.7376 0 1.336 0.5981 1.336 1.336" style="fill:url(#linearGradient880);stroke-width:.375"/>
 <path d="m25.12 54.22c0 1.95-1.58 3.53-3.53 3.53s-3.53-1.581-3.53-3.53c0-1.95 1.581-3.53 3.53-3.53s3.53 1.58 3.53 3.53" style="fill:#414142;stroke-width:.375"/>
 <path d="m22.95 54.22c0 0.7384-0.5989 1.336-1.336 1.336-0.7384 0-1.337-0.5981-1.337-1.336 0-0.738 0.5985-1.336 1.337-1.336 0.7376 0 1.336 0.5981 1.336 1.336" style="fill:url(#linearGradient882);stroke-width:.375"/>
 <path d="m33.08 54.22c0 1.95-1.581 3.53-3.53 3.53-1.949 0-3.53-1.581-3.53-3.53s1.581-3.53 3.53-3.53c1.95 0 3.53 1.58 3.53 3.53" style="fill:#414142;stroke-width:.375"/>
 <path d="m30.9 54.22c0 0.7384-0.5985 1.336-1.336 1.336-0.7384 0-1.336-0.5981-1.336-1.336 0-0.738 0.5985-1.336 1.336-1.336s1.336 0.5981 1.336 1.336" style="fill:url(#linearGradient884);stroke-width:.375"/>
 <path d="m41.02 54.22c0 1.95-1.58 3.53-3.53 3.53s-3.53-1.581-3.53-3.53 1.581-3.53 3.53-3.53 3.53 1.58 3.53 3.53" style="fill:#414142;stroke-width:.375"/>
 <path d="m38.85 54.22c0 0.7384-0.5981 1.336-1.336 1.336-0.7384 0-1.337-0.5981-1.337-1.336 0-0.738 0.5985-1.336 1.337-1.336 0.738 0 1.336 0.5981 1.336 1.336" style="fill:url(#linearGradient40826);stroke-width:.375"/>
 <path d="m48.98 54.22c0 1.95-1.581 3.53-3.53 3.53s-3.53-1.581-3.53-3.53 1.58-3.53 3.53-3.53 3.53 1.58 3.53 3.53" style="fill:#414142;stroke-width:.375"/>
 <path d="m46.8 54.22c0 0.7384-0.5981 1.336-1.337 1.336-0.7376 0-1.336-0.5981-1.336-1.336 0-0.738 0.5989-1.336 1.337-1.336s1.336 0.5981 1.336 1.336" style="fill:url(#linearGradient40818);stroke-width:.375"/>
 <path d="m56.92 54.22c0 1.95-1.58 3.53-3.53 3.53s-3.53-1.581-3.53-3.53c0-1.95 1.581-3.53 3.53-3.53s3.53 1.58 3.53 3.53" style="fill:#414142;stroke-width:.375"/>
 <path d="m54.75 54.22c0 0.7384-0.5985 1.336-1.336 1.337-0.7384-3.75e-4 -1.337-0.5985-1.337-1.337 0-0.738 0.5985-1.336 1.337-1.336 0.7376 0 1.336 0.5981 1.336 1.336" style="fill:url(#linearGradient40802);stroke-width:.375"/>
 <path d="m64.88 54.22c0 1.95-1.581 3.53-3.53 3.53s-3.53-1.581-3.53-3.53 1.58-3.53 3.53-3.53 3.53 1.58 3.53 3.53" style="fill:#414142;stroke-width:.375"/>
 <path d="m62.7 54.22c0 0.7384-0.5985 1.336-1.336 1.336-0.7384 0-1.336-0.5981-1.336-1.336 0-0.738 0.5981-1.336 1.336-1.336 0.738 0 1.336 0.5981 1.336 1.336" style="fill:url(#linearGradient40794);stroke-width:.375"/>
</svg>
