<?xml version="1.0" encoding="UTF-8" standalone="no"?>
<svg xmlns:dc="http://purl.org/dc/elements/1.1/" xmlns:cc="http://creativecommons.org/ns#" xmlns:rdf="http://www.w3.org/1999/02/22-rdf-syntax-ns#" xmlns:svg="http://www.w3.org/2000/svg" xmlns="http://www.w3.org/2000/svg" xmlns:xlink="http://www.w3.org/1999/xlink" xmlns:sodipodi="http://sodipodi.sourceforge.net/DTD/sodipodi-0.dtd" xmlns:inkscape="http://www.inkscape.org/namespaces/inkscape" version="1.1" viewBox="0 0 100 100" id="svg66" sodipodi:docname="i75.svg" width="100" height="100" inkscape:version="0.92.2 (5c3e80d, 2017-08-06)">
  <metadata id="metadata70">
    <rdf:RDF>
      <cc:Work rdf:about="">
        <dc:format>image/svg+xml</dc:format>
        <dc:type rdf:resource="http://purl.org/dc/dcmitype/StillImage" />
        <dc:title></dc:title>
      </cc:Work>
    </rdf:RDF>
  </metadata>
  <sodipodi:namedview pagecolor="#ffffff" bordercolor="#666666" borderopacity="1" objecttolerance="10" gridtolerance="10" guidetolerance="10" inkscape:pageopacity="0" inkscape:pageshadow="2" inkscape:window-width="2560" inkscape:window-height="1001" id="namedview68" showgrid="false" fit-margin-top="0" fit-margin-left="0" fit-margin-right="0" fit-margin-bottom="0" inkscape:zoom="2.36" inkscape:cx="66.817961" inkscape:cy="73.546234" inkscape:window-x="-9" inkscape:window-y="41" inkscape:window-maximized="1" inkscape:current-layer="svg66" />
  <defs id="defs20">
    <linearGradient id="linearGradientSlvr" x1="0" x2="0" y1="794.40002" y2="828" gradientUnits="userSpaceOnUse">
      <stop style="stop-color:#696969" offset="0" id="stop2" />
      <stop style="stop-color:#c7c7c9" offset=".17" id="stop4" />
      <stop style="stop-color:#f9f9ff" offset=".36" id="stop6" />
      <stop style="stop-color:#ccccce" offset=".73" id="stop8" />
      <stop style="stop-color:#696969" offset="1" id="stop10" />
    </linearGradient>
    <linearGradient id="linearGradient40794" x1="608" x2="615.20001" y1="595.40002" y2="595.40002" gradientUnits="userSpaceOnUse" xlink:href="#linearGradientSlvr" gradientTransform="matrix(0.5,0,0,-0.5,-224,370)" />
    <linearGradient id="linearGradient40802" x1="-7.1279998" x2="0" y1="-0.001" y2="-0.001" gradientUnits="userSpaceOnUse" xlink:href="#linearGradientSlvr" gradientTransform="matrix(0.5,0,0,-0.5,73,72.3)" />
    <linearGradient id="linearGradient40818" x1="-7.1290002" x2="0" y1="-0.00050000002" y2="-0.00050000002" gradientUnits="userSpaceOnUse" xlink:href="#linearGradientSlvr" gradientTransform="matrix(0.5,0,0,-0.5,62.4,72.3)" />
    <linearGradient id="linearGradient40826" x1="-7.1279998" x2="0" y1="-0.00050000002" y2="-0.00050000002" gradientUnits="userSpaceOnUse" xlink:href="#linearGradientSlvr" gradientTransform="matrix(0.5,0,0,-0.5,51.8,72.3)" />
    <linearGradient id="linearGradient6284" x1="-180" x2="20" y1="-100" y2="-100" gradientUnits="userSpaceOnUse" xlink:href="#linearGradientSlvr" gradientTransform="matrix(0.5,0,0,-0.5,90,0)" />
    <linearGradient inkscape:collect="always" xlink:href="#linearGradientSlvr" id="linearGradient880" gradientUnits="userSpaceOnUse" x1="-7.1279998" y1="-0.00050000002" x2="0" y2="-0.00050000002" gradientTransform="matrix(0.5,0,0,-0.5,20,72.3)" />
    <linearGradient inkscape:collect="always" xlink:href="#linearGradientSlvr" id="linearGradient882" gradientUnits="userSpaceOnUse" x1="-7.1290002" y1="-0.00050000002" x2="0" y2="-0.00050000002" gradientTransform="matrix(0.5,0,0,-0.5,30.6,72.3)" />
    <linearGradient inkscape:collect="always" xlink:href="#linearGradientSlvr" id="linearGradient884" gradientUnits="userSpaceOnUse" x1="-7.1279998" y1="-0.00050000002" x2="0" y2="-0.00050000002" gradientTransform="matrix(0.5,0,0,-0.5,41.2,72.3)" />
  </defs>
  <path inkscape:connector-curvature="0" id="path22" style="fill:url(#linearGradient6284);stroke-width:0.5" d="M 90,0 H 10 C 4.5,0 0,4.5 0,10 V 90 C 0,95.5 4.5,100 10,100 H 90 C 95.5,100 100,95.5 100,90 V 10 C 100,4.5 95.5,0 90,0" />
  <path inkscape:connector-curvature="0" id="path26" style="fill:#58595b;stroke-width:0.5" d="M 75.45,29.25 H 24.6 C 24.017,29.25 23.54,29.7265 23.54,30.3095 V 65.2845 C 23.5395,65.867 24.017,66.3445 24.6,66.3445 H 75.45 C 76.033,66.3445 76.51,65.867 76.51,65.2845 V 30.3095 C 76.51,29.7265 76.0335,29.25 75.45,29.25" />
  <path inkscape:connector-curvature="0" id="path28" style="fill:#290a43;stroke-width:0.5" d="M 62.9,66.3 H 66.167 V 29.21 H 62.9 Z M 33.875,66.3 H 37.142 V 29.21 H 33.875 Z" />
  <path inkscape:connector-curvature="0" id="path30" style="fill:#58595b;stroke-width:0.5" d="M 55.75,29.25 55.753,25.143 H 44.228 V 29.25 H 42.1085 V 25.143 C 42.1085,23.9745 43.059,23.0235 44.228,23.0235 H 55.753 C 56.922,23.0235 57.8725,23.9745 57.8725,25.143 V 29.25 Z" />
  <path inkscape:connector-curvature="0" id="path32" style="fill:#290a43;stroke-width:0.5" d="M 44.85,28.55 H 41.468 V 29.2125 H 44.85 Z" />
  <path inkscape:connector-curvature="0" id="path34" style="fill:#290a43;stroke-width:0.5" d="M 58.5,28.55 H 55.0915 V 29.2125 H 58.5 Z" />
  <path inkscape:connector-curvature="0" id="path36" style="fill:#414142;stroke-width:0.5" d="M 22.9,72.3 C 22.9,74.8995 20.7925,77.007 18.1935,77.007 15.594,77.007 13.4865,74.8995 13.4865,72.3 13.4865,69.7005 15.594,67.5935 18.1935,67.5935 20.7925,67.5935 22.9,69.7005 22.9,72.3" />
  <path inkscape:connector-curvature="0" id="path38" style="fill:url(#linearGradient880);stroke-width:0.5" d="M 20,72.3 C 20,73.2845 19.202,74.082 18.2185,74.082 17.234,74.082 16.436,73.2845 16.436,72.3 16.436,71.316 17.234,70.5185 18.2185,70.5185 19.202,70.5185 20,71.316 20,72.3" />
  <path inkscape:connector-curvature="0" id="path40" style="fill:#414142;stroke-width:0.5" d="M 33.5,72.3 C 33.5,74.8995 31.393,77.007 28.7935,77.007 26.194,77.007 24.0865,74.8995 24.0865,72.3 24.0865,69.7 26.194,67.5935 28.7935,67.5935 31.393,67.5935 33.5,69.7005 33.5,72.3" />
  <path inkscape:connector-curvature="0" id="path42" style="fill:url(#linearGradient882);stroke-width:0.5" d="M 30.6,72.3 C 30.6,73.2845 29.8015,74.082 28.818,74.082 27.8335,74.082 27.0355,73.2845 27.0355,72.3 27.0355,71.316 27.8335,70.5185 28.818,70.5185 29.8015,70.5185 30.6,71.316 30.6,72.3" />
  <path inkscape:connector-curvature="0" id="path44" style="fill:#414142;stroke-width:0.5" d="M 44.1,72.3 C 44.1,74.8995 41.9925,77.007 39.393,77.007 36.794,77.007 34.6865,74.8995 34.6865,72.3 34.6865,69.7005 36.794,67.5935 39.393,67.5935 41.9925,67.5935 44.1,69.7005 44.1,72.3" />
  <path inkscape:connector-curvature="0" id="path46" style="fill:url(#linearGradient884);stroke-width:0.5" d="M 41.2,72.3 C 41.2,73.2845 40.402,74.082 39.418,74.082 38.4335,74.082 37.636,73.2845 37.636,72.3 37.636,71.316 38.434,70.5185 39.418,70.5185 40.402,70.5185 41.2,71.316 41.2,72.3" />
  <path inkscape:connector-curvature="0" id="path48" style="fill:#414142;stroke-width:0.5" d="M 54.7,72.3 C 54.7,74.8995 52.593,77.007 49.9935,77.007 47.394,77.007 45.2865,74.8995 45.2865,72.3 45.2865,69.7005 47.394,67.5935 49.9935,67.5935 52.593,67.5935 54.7,69.7005 54.7,72.3" />
  <path inkscape:connector-curvature="0" id="path50" style="fill:url(#linearGradient40826);stroke-width:0.5" d="M 51.8,72.3 C 51.8,73.2845 51.0025,74.082 50.0185,74.082 49.034,74.082 48.236,73.2845 48.236,72.3 48.236,71.316 49.034,70.5185 50.0185,70.5185 51.0025,70.5185 51.8,71.316 51.8,72.3" />
  <path inkscape:connector-curvature="0" id="path52" style="fill:#414142;stroke-width:0.5" d="M 65.3,72.3 C 65.3,74.8995 63.1925,77.007 60.593,77.007 57.9935,77.007 55.8865,74.8995 55.8865,72.3 55.8865,69.7005 57.9935,67.5935 60.593,67.5935 63.1925,67.5935 65.3,69.7 65.3,72.3" />
  <path inkscape:connector-curvature="0" id="path54" style="fill:url(#linearGradient40818);stroke-width:0.5" d="M 62.4,72.3 C 62.4,73.2845 61.6025,74.082 60.6175,74.082 59.634,74.082 58.8355,73.2845 58.8355,72.3 58.8355,71.316 59.634,70.5185 60.618,70.5185 61.602,70.5185 62.4,71.316 62.4,72.3" />
  <path inkscape:connector-curvature="0" id="path56" style="fill:#414142;stroke-width:0.5" d="M 75.9,72.3 C 75.9,74.8995 73.793,77.007 71.1935,77.007 68.594,77.007 66.4865,74.8995 66.4865,72.3 66.4865,69.7 68.594,67.5935 71.1935,67.5935 73.793,67.5935 75.9,69.7005 75.9,72.3" />
  <path inkscape:connector-curvature="0" id="path58" style="fill:url(#linearGradient40802);stroke-width:0.5" d="M 73,72.3 C 73,73.2845 72.202,74.082 71.2185,74.0825 70.234,74.082 69.436,73.2845 69.436,72.3 69.436,71.316 70.234,70.5185 71.2185,70.5185 72.202,70.5185 73,71.316 73,72.3" />
  <path inkscape:connector-curvature="0" id="path60" style="fill:#414142;stroke-width:0.5" d="M 86.5,72.3 C 86.5,74.9 84.3925,77.007 81.793,77.007 79.1935,77.007 77.0865,74.8995 77.0865,72.3 77.0865,69.7005 79.1935,67.5935 81.793,67.5935 84.3925,67.5935 86.5,69.7005 86.5,72.3" />
  <path inkscape:connector-curvature="0" id="path62" style="fill:url(#linearGradient40794);stroke-width:0.5" d="M 83.6,72.3 C 83.6,73.2845 82.802,74.082 81.818,74.082 80.8335,74.082 80.036,73.2845 80.036,72.3 80.036,71.316 80.8335,70.5185 81.818,70.5185 82.802,70.5185 83.6,71.316 83.6,72.3" />
</svg>
