<svg version="1.1" viewBox="0 0 75 75" xmlns="http://www.w3.org/2000/svg">
 <path d="m75 37.5c0 20.71-16.79 37.5-37.5 37.5-20.71 0-37.5-16.79-37.5-37.5 0-20.71 16.79-37.5 37.5-37.5 20.71 0 37.5 16.79 37.5 37.5" style="fill:#2fb7c4"/>
 <path d="m39.89 35.55c0.01057-0.01119 0.02363-0.02301 0.0342-0.03607 0.009327 0.01306 0.0199 0.02488 0.03047 0.03607zm15.78-6.142c-0.1779-4.78-4.104-8.602-8.929-8.602-1.062 0-2.078 0.1878-3.024 0.528-1.91 0.6884-3.522 2.007-4.576 3.709-1.248-1.021-2.843-1.636-4.582-1.636-4 0-7.242 3.242-7.242 7.242 0 0.467 0.04602 0.9247 0.1312 1.368-3.141 1.02-5.413 3.97-5.413 7.451 0 4.325 3.507 7.832 7.833 7.832 0.3744 0 0.7425-0.02861 1.103-0.07898h23.4c0.3184 0.03545 0.6399 0.05286 0.967 0.05286 4.936 0 8.936-4.002 8.936-8.936 0-4.824-3.825-8.754-8.604-8.93" style="fill:#ffffff"/>
 <path d="m48.68 31.14-3.382 1.265-0.1872-1.925 3.382-1.264zm-5.6 2.093-3.383 1.263-0.1872-1.924 3.383-1.264zm-5.6 2.092-3.383 1.264-0.1872-1.924 3.382-1.265zm-5.601 2.091-3.383 1.264-0.1872-1.924 3.384-1.264zm36.13-9.557c-0.1548-0.6517-0.2463-1.813-3.486-1.985-0.8899-0.02612-1.573 0.03172-1.836 0.09017-0.2065 0.04602-0.4154 0.09888-0.6275 0.1779l-0.7357 0.2755-2.453 0.916c-1.343 0.5019-2.839-0.1803-3.339-1.523-0.2892-0.7742 0.3632-1.092 1.22-1.32-1.404 0.05846-2.725 0.2774-3.568 0.5927l-8.555 3.195-6.547-1.493-4.82 1.8 3.242 2.729-16.58 6.193-5.802-2.461-3.121-1.325-4.489 1.677 0.4366 0.5448 3.414 3.45 0.3737 0.3762-1.363 2.907 2.468-0.9222 0.421-0.4434 0.3495 0.3532 2.07 2.09 3.918 4.022c2.277-0.5143 9.334-3.039 10.22-3.486l6.507-2.431-5.389 9.078 6.528-2.439 11.14-11.22 12.63-4.718c0.03731-0.0143 0.06965-0.03794 0.107-0.05286 1.849-0.7295 0.1412-0.04042 3.808-1.664 4.167-1.672 3.862-2.979 3.862-2.979" style="fill:#f9bb14"/>
 <path d="m25.97 42.4c-0.1281 0.5454-0.05162 1.316 0.2587 2.145 0.08084 0.217 0.1741 0.416 0.2724 0.6051 0.2742 0.533 0.6032 0.9421 0.9384 1.185-3.831 1.351-6.932 1.827-8.313 1.57-0.1785-0.03358-0.3364-0.07711-0.454-0.1337-0.158-0.07525-0.2637-0.1723-0.3072-0.2898-0.002487-0.006841-6.21e-4 -0.01555-0.003108-0.02114-0.2811-0.9042 2.729-3.135 7.608-5.061" style="fill:#e2aa15"/>
 <path d="m26.29 45.23c-0.09701-0.1816-0.1922-0.3781-0.2761-0.602-0.3532-0.9459-0.3371-1.716-0.1704-2.06 0.0454-0.09328 0.1001-0.1611 0.1642-0.1847 0.009329-0.00311 0.02239-0.001244 0.03172-0.00311 0.07836-0.0143 0.1785 0.008707 0.2935 0.07525 0.3464 0.1978 0.8134 0.7531 1.14 1.627 0.08395 0.2239 0.1405 0.4341 0.1866 0.6356 0.1318 0.5852 0.1175 1.061 0.0199 1.341-0.04291 0.1256-0.1026 0.2096-0.1723 0.2488-0.008707 0.004975-0.01679 0.01679-0.02612 0.02052-0.06343 0.02301-0.1486 0.007463-0.245-0.03296-0.2668-0.115-0.6293-0.4788-0.9459-1.067" style="fill:#bbdddb"/>
 <path d="m36.46 31.31-3.218-2.723 4.82-1.801 6.548 1.493" style="fill:#e2aa15"/>
 <path d="m56.67 24.5c-0.8719 0.2351-1.533 0.5696-1.247 1.336 0.4969 1.33 2.053 2.037 3.423 1.525l2.474-0.9341 0.7102-0.2749c0.2164-0.08084 0.4956-0.1405 0.7058-0.1884 0 0-2.34-2.257-6.066-1.464" style="fill:#bbdddb"/>
</svg>
