<?xml version="1.0" encoding="UTF-8" standalone="no"?>
<svg xmlns:dc="http://purl.org/dc/elements/1.1/" xmlns:cc="http://creativecommons.org/ns#" xmlns:rdf="http://www.w3.org/1999/02/22-rdf-syntax-ns#" xmlns:svg="http://www.w3.org/2000/svg" xmlns="http://www.w3.org/2000/svg" xmlns:sodipodi="http://sodipodi.sourceforge.net/DTD/sodipodi-0.dtd" xmlns:inkscape="http://www.inkscape.org/namespaces/inkscape" version="1.1" id="svg360" sodipodi:docname="i76.svg" width="100" height="99.998344" inkscape:version="0.92.2 (5c3e80d, 2017-08-06)">
  <metadata id="metadata364">
    <rdf:RDF>
      <cc:Work rdf:about="">
        <dc:format>image/svg+xml</dc:format>
        <dc:type rdf:resource="http://purl.org/dc/dcmitype/StillImage" />
        <dc:title></dc:title>
      </cc:Work>
    </rdf:RDF>
  </metadata>
  <sodipodi:namedview pagecolor="#ffffff" bordercolor="#666666" borderopacity="1" objecttolerance="10" gridtolerance="10" guidetolerance="10" inkscape:pageopacity="0" inkscape:pageshadow="2" inkscape:window-width="1224" inkscape:window-height="489" id="namedview362" showgrid="false" fit-margin-top="0" fit-margin-left="0" fit-margin-right="0" fit-margin-bottom="0" inkscape:zoom="3.1466667" inkscape:cx="60.699162" inkscape:cy="37.499378" inkscape:window-x="0" inkscape:window-y="0" inkscape:window-maximized="0" inkscape:current-layer="svg360" />
  <defs id="defs4543" />
  <g id="plane-cloud" transform="matrix(0.82917365,0,0,-0.82917365,-281.42875,616.72924)">
    <path inkscape:connector-curvature="0" id="path65600" style="fill:#2fb7c4;fill-opacity:1;fill-rule:nonzero;stroke:none" d="M 0,0 C 0,-33.304 -26.998,-60.3 -60.301,-60.3 -93.604,-60.3 -120.602,-33.304 -120.602,0 -120.602,33.303 -93.604,60.3 -60.301,60.3 -26.998,60.3 0,33.303 0,0" transform="translate(460.0107,683.4878)" />
    <path inkscape:connector-curvature="0" id="path65604" style="fill:#ffffff;fill-opacity:1;fill-rule:nonzero;stroke:none" d="M 0,0 C 0.017,0.018 0.038,0.037 0.055,0.058 0.07,0.037 0.087,0.018 0.104,0 Z M 25.379,9.877 C 25.093,17.563 18.779,23.709 11.021,23.709 9.313,23.709 7.68,23.407 6.158,22.86 3.086,21.753 0.495,19.633 -1.201,16.896 -3.208,18.538 -5.773,19.526 -8.569,19.526 -15.001,19.526 -20.215,14.313 -20.215,7.881 -20.215,7.13 -20.141,6.394 -20.004,5.682 -25.055,4.042 -28.709,-0.702 -28.709,-6.3 -28.709,-13.254 -23.07,-18.894 -16.113,-18.894 -15.511,-18.894 -14.919,-18.848 -14.34,-18.767 H 6.158 23.289 C 23.801,-18.824 24.318,-18.852 24.844,-18.852 32.781,-18.852 39.214,-12.417 39.214,-4.482 39.214,3.275 33.064,9.594 25.379,9.877" transform="translate(403.5605,686.6206)" />
    <path inkscape:connector-curvature="0" id="path65608" style="fill:#f9bb14;fill-opacity:1;fill-rule:nonzero;stroke:none" d="M 0,0 -5.439,-2.034 -5.74,1.062 -0.301,3.094 Z M -9.005,-3.365 -14.445,-5.396 -14.746,-2.302 -9.306,-0.27 Z M -18.01,-6.729 -23.45,-8.761 -23.751,-5.667 -18.312,-3.633 Z M -27.016,-10.092 -32.456,-12.124 -32.757,-9.03 -27.316,-6.997 Z M 31.08,5.276 C 30.831,6.324 30.684,8.191 25.475,8.468 24.044,8.51 22.945,8.417 22.522,8.323 22.19,8.249 21.854,8.164 21.513,8.037 L 20.33,7.594 16.386,6.121 C 14.226,5.314 11.821,6.411 11.016,8.57 10.551,9.815 11.6,10.326 12.978,10.693 10.72,10.599 8.596,10.247 7.241,9.74 L -6.516,4.603 -17.044,7.004 -24.794,4.109 -19.581,-0.279 -46.245,-10.238 -52.412,-7.622 -55.574,-6.281 -60.593,-4.151 -67.812,-6.847 -67.11,-7.723 -61.62,-13.27 -61.019,-13.875 -63.211,-18.55 -59.243,-17.067 -58.566,-16.354 -58.004,-16.922 -54.675,-20.282 -48.375,-26.75 C -44.714,-25.923 -33.365,-21.864 -31.94,-21.144 L -21.476,-17.235 -30.141,-31.833 -19.644,-27.911 -1.733,-9.861 16.271,-3.136 18.574,-2.275 C 18.634,-2.252 18.686,-2.214 18.746,-2.19 21.72,-1.017 18.973,-2.125 24.869,0.485 31.57,3.174 31.08,5.276 31.08,5.276" transform="translate(417.6836,693.7168)" />
    <path inkscape:connector-curvature="0" id="path65612" style="fill:#e2aa15;fill-opacity:1;fill-rule:nonzero;stroke:none" d="M 0,0 C -0.206,-0.877 -0.083,-2.116 0.416,-3.449 0.546,-3.798 0.696,-4.118 0.854,-4.422 1.295,-5.279 1.824,-5.937 2.363,-6.328 -3.798,-8.5 -8.784,-9.266 -11.005,-8.853 -11.292,-8.799 -11.546,-8.729 -11.735,-8.638 -11.989,-8.517 -12.159,-8.361 -12.229,-8.172 -12.233,-8.161 -12.23,-8.147 -12.234,-8.138 -12.686,-6.684 -7.846,-3.097 0,0" transform="translate(381.1729,675.6074)" />
    <path inkscape:connector-curvature="0" id="path65616" style="fill:#bbdddb;fill-opacity:1;fill-rule:nonzero;stroke:none" d="M 0,0 C -0.156,0.292 -0.309,0.608 -0.444,0.968 -1.012,2.489 -0.986,3.728 -0.718,4.28 -0.645,4.43 -0.557,4.539 -0.454,4.577 -0.439,4.582 -0.418,4.579 -0.403,4.582 -0.277,4.605 -0.116,4.568 0.069,4.461 0.626,4.143 1.377,3.25 1.902,1.844 2.037,1.484 2.128,1.146 2.202,0.822 2.414,-0.119 2.391,-0.884 2.234,-1.335 2.165,-1.537 2.069,-1.672 1.957,-1.735 1.943,-1.743 1.93,-1.762 1.915,-1.768 1.813,-1.805 1.676,-1.78 1.521,-1.715 1.092,-1.53 0.509,-0.945 0,0" transform="translate(381.6909,671.0537)" />
    <path inkscape:connector-curvature="0" id="path65620" style="fill:#e2aa15;fill-opacity:1;fill-rule:nonzero;stroke:none" d="M 0,0 -5.175,4.379 2.576,7.275 13.105,4.874" transform="translate(398.0449,693.4468)" />
    <path inkscape:connector-curvature="0" id="path65624" style="fill:#bbdddb;fill-opacity:1;fill-rule:nonzero;stroke:none" d="M 0,0 C -1.402,-0.378 -2.465,-0.916 -2.005,-2.148 -1.206,-4.287 1.296,-5.423 3.499,-4.601 L 7.478,-3.099 8.62,-2.657 C 8.968,-2.527 9.417,-2.431 9.755,-2.354 9.755,-2.354 5.993,1.275 0,0" transform="translate(430.54,704.3892)" />
  </g>
</svg>
