<svg version="1.1" viewBox="0 0 100 100" xmlns="http://www.w3.org/2000/svg">
 <g transform="matrix(.8292 0 0 -.8292 -404.3 614.2)">
  <path transform="translate(608.2 680.5)" d="m0 0c0-33.3-27-60.3-60.3-60.3-33.3 0-60.3 27-60.3 60.3s27 60.3 60.3 60.3c33.3 0 60.3-27 60.3-60.3" style="fill:#25505b"/>
  <path transform="translate(547.4 721.8)" d="m0 0c-0.049 0-0.101 2e-3 -0.149 2e-3 -22.85 0-41.38-18.51-41.38-41.34 0-22.83 18.52-41.34 41.38-41.34 0.048 0 0.1 1e-3 0.149 1e-3 22.78 0.081 41.23 18.56 41.23 41.34 0 22.78-18.44 41.26-41.23 41.34" style="fill:#667d47"/>
  <path transform="translate(547.4 659.4)" d="m0 0 3e-3 -9e-3v0.012z" style="fill:#004346"/>
  <path transform="translate(544.7 700.6)" d="m0 0-0.591-0.052-0.119-0.57-0.453-0.282-0.727-0.06c-0.024 0.17-0.043 0.3-0.043 0.3h-0.28v0.612h1.186l0.245 0.632 0.47 9e-3 0.541-0.11zm-3.025-1.059-0.862-0.073 0.046 0.6 0.386 0.48 0.517-0.406zm22.5 5.093 0.828 1.324 1.115 0.26 0.795-0.345-0.073-0.895-1.702-1.204h-0.963zm2.236 2.583 0.38 0.584 1.359 0.275 0.343-1.653 0.724-1.17 0.481-0.551 0.877-0.343-0.823-0.982-1.602-0.154h-1.204l0.136 1.427 1 0.208-0.084 0.671-0.934 0.585-0.653 0.447zm19.56-11.79-2.16-0.037-1.083 1.187-0.206 1.91-1.109-0.605-0.596-2.335-1.6 1.703-0.066 1.611-1.544 1.33-0.572 0.568h-1.795l0.568-1.599 2.159-1.203 0.375-0.397-0.468-0.233 0.017-1.266-1.047-0.438-0.899 0.197-0.559 0.795 1.458-0.079 0.394 0.531-3.235 2.181-0.245 0.93-1.313-1.188-1.334 0.273-2.028-2.634-0.397-1.033-1.296-0.118-1.919-0.012-1.146 0.536-0.337 2.279 0.412 1.086 1.95 0.426 2.131-0.426 0.258 1.177-0.905 0.215 0.311 1.833 2.141 0.335 1.497 2.116 1.549 0.26 1.395-0.207h0.513l-0.28 1.987-1.698-0.685-0.597 1.485-0.983 0.137-0.186 1.018 0.806 0.875 1.91 0.749 0.492 0.878c-7.279 6.413-16.82 10.32-27.25 10.35-0.031 0-0.062 1e-3 -0.094 1e-3 -9.087 0-17.49-2.95-24.33-7.932l2.09 0.017 0.93-0.515 1.754-0.378 0.135-0.69 2.79-0.103-0.377 0.894-2.478 0.07 0.583 0.55-0.204 0.655h-2.239l2.443 1.824h2.341l1.1-1.516 1.828-0.102 1.098 1.067 0.828-0.412-1.515-1.481s-2.101-0.035-1.994-0.035c0.102 0 0.172-1.445 0.172-1.445l2.542 0.071 0.28 0.687 1.752 0.103 0.207 1.031-1.031 0.175 0.344 0.928 0.79 0.239 2.755-0.135-1.519-1.378 0.245-1.065 1.584-0.242-0.105 1.926 1.515 0.793 2.686 0.31 3.097-1.372 0.789-0.35v-1.48l1.241-0.31-0.62-1.17h-1.756l-0.517-1.341-4.012 0.947 3.151 1.679-1.203 1.022-2.719-0.344-0.239-0.247-8e-3 4e-3 -0.045-0.057-0.78-0.814-1.294-0.109 0.104-0.645 0.451-0.187-0.018-0.213-1.052-0.15-0.077-0.611-1.007-0.052-0.183 1.213-1.806-0.55-3.691-2.161 0.415-1.521 1.031-0.673 2.065-0.284v-2.347l0.953 0.154 0.88 1.833 2.195 0.695v2.815l1.22 0.921 2.952-0.696-0.209-1.86h0.795l2.167 1.067 0.103-2.443 1.579-0.962-0.066-1.448-0.789-0.269v-1.008l1.202-0.547-0.036-0.998-0.527-0.044c-3e-3 0.016-6e-3 0.027-6e-3 0.027l-0.633 0.196-1.667 0.513-0.098 0.738h-3e-3l0.672 0.463v0.672l-0.723 0.181-0.179-0.621-1.268-0.196-0.126 0.043v-0.063l-0.44-0.068-0.359 0.724-0.414 0.181h-0.905l-0.41-0.335v-0.749l0.773-0.258 0.762-0.108-0.169-0.074-0.696-0.772-0.31 0.386-0.67 0.178-1.834-1.726 0.239-0.197-2.707-1.499-2.549-2.65-0.172-1.179-2.557-1.678-1.261-1.273 0.137-2.546-1.756 0.817 0.013 1.49-4.885-2e-3 -2.527-1.281-1.101-2.025-0.434-1.606 0.712-1.557 1.99-0.243 3.168 2.118 0.279-1.05-0.968-1.826 2.414-0.412 0.238-3.723 3.307-0.561 2.097 2.428 2.547-0.518 0.897-1.246 2.441 0.145 0.068 0.722 1.342-0.654 1.515-2.373 2.614-0.036 0.965-1.687 0.137-2.063 2.892-1.102 3.648-0.035 1.07-1.753 1.615-0.517-0.311-1.447-1.773-2.253-0.518-4.983-1.598-1.265-2.375 0.071-0.789-1.371v-0.012l0.585-2.576-0.585-0.75-1.998-2.554-0.824-1.515-2.461-1.183-1.621-0.246-0.066-0.686 1.135-0.327-0.138-0.739-1.017-0.98 0.618-0.777 1.225-0.035-0.068-0.945-0.326-0.93-0.105-0.756 1.811-1.526-0.241-0.792-2.464 0.047-2.452 2.141-1.912 3.357 0.267 3.242-1.445 1.928 0.585 3.268-0.86 0.242v7.088s-2.409 1.827-2.545 1.827c-0.137 0-1.275 0.308-1.275 0.308l-0.241 1.343-3.131 3.923 0.311 1.411 0.1 2.306 2.166 1.514-0.308 2.582-3.165 0.238-2.477 2.824-1.756 0.481-1.134 0.207 0.136 1.033-1.445 0.206v-0.585l-3.614 0.894-1.453 2.226 0.59 1.078-2.289 3.34-0.392 2.442h-0.93l0.31-2.373 1.583-2.443-0.173-0.966-1.341 0.207-1.652 2.815v3.276l-1.719 0.828v2.356c-2.128-4.98-3.308-10.46-3.308-16.21 0-22.84 18.58-41.42 41.42-41.42 0.032 0 0.063 1e-3 0.094 1e-3 12.91 0.03 24.45 5.997 32.03 15.31h-1.367v2.753l-1.578 2.128v3.311l-1.209 1.203-0.103 1.377 1.532 2.927-2.908 5.128 0.346 3.478-2.616 0.272-0.963 0.964h-1.757l-0.893-0.825h-3.097l-0.104-0.276h-1.722l-3.957 4.507 0.032 3.511 0.653 0.241 0.244 1.342h-0.929l-0.38 1.411 4.578 3.303v2.34l2.242 1.244 0.906-0.089h1.843l1.444 0.774 4.646 0.362v-2.375l3.666-0.93 0.722-0.517h0.673v1.293l2.115 0.206 2.016-1.499h3.301l0.233 0.213c-0.329 1.115-0.702 2.208-1.119 3.284" style="fill:#96dce0"/>
  <path transform="translate(546.7 703.3)" d="m0 0 0.103-0.479 0.621-0.282v1.008z" style="fill:#004346"/>
  <path transform="translate(584.2 700.1)" d="m0 0c1.357 0.854 2.102 1.4 2.132 1.423l-1.536 1.895c-7e-3 -5e-3 -0.709-0.52-1.979-1.318z" style="fill:#c1272d"/>
  <path transform="translate(575.7 695.6)" d="m0 0c1.466 0.663 2.92 1.377 4.322 2.124l-1.222 2.091c-1.356-0.72-2.761-1.41-4.177-2.051zm-9.046-3.405c1.532 0.464 3.074 0.988 4.584 1.557l-0.924 2.228c-1.456-0.549-2.943-1.055-4.42-1.502zm-9.48-2.146c1.58 0.236 3.19 0.539 4.786 0.902l-0.584 2.33c-1.53-0.348-3.076-0.639-4.592-0.866zm-14.62-0.375 0.269 2.382c-1.544 0.159-3.093 0.39-4.603 0.686l-0.506-2.347c1.589-0.311 3.216-0.553 4.84-0.721m5.758-0.295c1.325 0 2.675 0.047 4.013 0.139l-0.18 2.389c-1.558-0.107-3.11-0.148-4.667-0.127l-0.041-2.394c0.294-5e-3 0.585-7e-3 0.875-7e-3" style="fill:#c1272d"/>
  <path transform="translate(533 691.6)" d="m0 0 0.735 2.29c-0.772 0.226-1.547 0.472-2.324 0.739l-0.852-2.253c0.816-0.281 1.63-0.54 2.441-0.776" style="fill:#c1272d"/>
  <path transform="translate(507.8 711.8)" d="m0 0 4.674-3.179 0.017 0.028 5.131-3.441-0.013-0.022-0.023-0.034 10.58-6.979c0.417-0.259 0.785-0.526 1.058-0.814l0.071 0.036 2.59-2.433-0.996-1.459-3.39 1.486 3e-3 0.035c-0.355 0.125-0.727 0.32-1.105 0.553l-10.99 6.39-0.033-0.049-5.389 3.062 0.02 0.028-4.944 2.781c-1.161 0.72-1.49 2.199-0.735 3.307 0.754 1.106 2.307 1.423 3.468 0.704" style="fill:#f9bb14"/>
  <path transform="translate(516.8 710.9)" d="m0 0 3.304 1.686-5e-3 4e-3 1.503 0.761 4e-3 -2e-3 3.975 2.025 3.773-2.338-11.43-7.494-0.307-0.456-5.116 3.472 0.164 0.239 2.63 1.341-0.014 9e-3 1.503 0.762z" style="fill:#e2aa15"/>
  <path transform="translate(510 705)" d="m0 0 5.413-3.051-0.254-0.364-3.015-13.71-3.775 2.338 0.352 3.373-0.012 8e-3 0.145 1.607 0.031-0.019 5e-3 -4e-3 0.451 4.299-0.02 0.012 0.163 1.596 0.024-0.015 0.395 3.773z" style="fill:#e2aa15"/>
  <path transform="translate(533.5 699.5)" d="m0 0 2.158-0.729-3.69-3.796-0.011-0.016-2.661 2.413z" style="fill:#e2aa15"/>
  <path transform="translate(530.9 693.4)" d="m0 0-2.315-5.02-1.578 1.583 0.513 4.989 3.399-1.523z" style="fill:#e2aa15"/>
  <path transform="translate(506 695.3)" d="m0 0c-0.346 0.214-0.441 0.653-0.216 0.984 0.224 0.328 0.684 0.423 1.03 0.209l2.116-1.311-0.177-1.587z" style="fill:#f9bb14"/>
  <path transform="translate(507.3 702.4)" d="m0 0 2.217-1.374-0.162-1.601-2.867 1.783c-0.345 0.213-0.44 0.652-0.215 0.981 0.223 0.328 0.684 0.424 1.027 0.211" style="fill:#f9bb14"/>
  <path transform="translate(514.2 712.5)" d="m0 0 2.596-1.606-1.515-0.76-1.892 1.175c-0.345 0.212-0.44 0.652-0.213 0.982 0.224 0.33 0.68 0.422 1.024 0.209" style="fill:#f9bb14"/>
  <path transform="translate(518.1 713.9)" d="m0 0c-0.346 0.213-0.443 0.656-0.222 0.984 0.227 0.329 0.688 0.421 1.033 0.207l2.734-1.694-1.504-0.768z" style="fill:#f9bb14"/>
 </g>
</svg>
