<svg version="1.1" viewBox="0 0 75 75" xmlns="http://www.w3.org/2000/svg">
 <path d="m75 37.5c0 20.71-16.79 37.5-37.5 37.5s-37.5-16.79-37.5-37.5 16.79-37.5 37.5-37.5 37.5 16.79 37.5 37.5" style="fill:#25505b;stroke-width:.6219"/>
 <path d="m37.19 11.82c-0.03047 0-0.06281-0.001243-0.09266-0.001243-14.21 0-25.73 11.51-25.73 25.71s11.52 25.71 25.73 25.71c0.02985 0 0.06219-6.22e-4 0.09266-6.22e-4 14.17-0.05037 25.64-11.54 25.64-25.71 0-14.17-11.47-25.66-25.64-25.71" style="fill:#667d47;stroke-width:.6219"/>
 <path d="m37.19 50.62 0.001866 0.005597v-0.007463z" style="fill:#004346;stroke-width:.6219"/>
 <path d="m35.51 25-0.3675 0.03234-0.074 0.3545-0.2817 0.1754-0.4521 0.03731c-0.01492-0.1057-0.02674-0.1866-0.02674-0.1866h-0.1741v-0.3806h0.7376l0.1524-0.393 0.2923-0.005597 0.3364 0.06841zm-1.881 0.6586-0.5361 0.0454 0.02861-0.3731 0.24-0.2985 0.3215 0.2525zm13.99-3.167 0.5149-0.8234 0.6934-0.1617 0.4944 0.2146-0.0454 0.5566-1.058 0.7488h-0.5989zm1.391-1.606 0.2363-0.3632 0.8452-0.171 0.2133 1.028 0.4502 0.7276 0.2991 0.3427 0.5454 0.2133-0.5118 0.6107-0.9963 0.09577h-0.7488l0.08458-0.8874 0.6219-0.1294-0.05224-0.4173-0.5808-0.3638-0.4061-0.278zm12.16 7.332-1.343 0.02301-0.6735-0.7382-0.1281-1.188-0.6897 0.3762-0.3706 1.452-0.995-1.059-0.04104-1.002-0.9602-0.8271-0.3557-0.3532h-1.116l0.3532 0.9944 1.343 0.7481 0.2332 0.2469-0.291 0.1449 0.01057 0.7873-0.6511 0.2724-0.5591-0.1225-0.3476-0.4944 0.9067 0.04913 0.245-0.3302-2.012-1.356-0.1524-0.5784-0.8165 0.7388-0.8296-0.1698-1.261 1.638-0.2469 0.6424-0.806 0.07338-1.193 0.007463-0.7127-0.3333-0.2096-1.417 0.2562-0.6754 1.213-0.2649 1.325 0.2649 0.1604-0.732-0.5628-0.1337 0.1934-1.14 1.331-0.2083 0.931-1.316 0.9633-0.1617 0.8675 0.1287h0.319l-0.1741-1.236-1.056 0.426-0.3713-0.9235-0.6113-0.0852-0.1157-0.6331 0.5012-0.5442 1.188-0.4658 0.306-0.546c-4.527-3.988-10.46-6.418-16.95-6.437-0.01928 0-0.03856-6.21e-4 -0.05846-6.21e-4 -5.651 0-10.88 1.835-15.13 4.933l1.3-0.01057 0.5784 0.3203 1.091 0.2351 0.08396 0.4291 1.735 0.06406-0.2345-0.556-1.541-0.04353 0.3626-0.342-0.1269-0.4073h-1.392l1.519-1.134h1.456l0.6841 0.9428 1.137 0.06343 0.6828-0.6636 0.5149 0.2562-0.9422 0.921s-1.307 0.02177-1.24 0.02177c0.06343 0 0.107 0.8986 0.107 0.8986l1.581-0.04415 0.1741-0.4272 1.09-0.06406 0.1287-0.6412-0.6412-0.1088 0.2139-0.5771 0.4913-0.1486 1.713 0.08396-0.9447 0.857 0.1524 0.6623 0.9851 0.1505-0.0653-1.198 0.9422-0.4932 1.67-0.1928 1.926 0.8532 0.4907 0.2177v0.9204l0.7718 0.1928-0.3856 0.7276h-1.092l-0.3215 0.834-2.495-0.5889 1.96-1.044-0.7481-0.6356-1.691 0.2139-0.1486 0.1536-0.004974-0.002487-0.02798 0.03545-0.4851 0.5062-0.8047 0.06779 0.06468 0.4011 0.2805 0.1163-0.0112 0.1325-0.6542 0.09328-0.04788 0.38-0.6262 0.03234-0.1138-0.7544-1.123 0.342-2.295 1.344 0.2581 0.9459 0.6412 0.4185 1.284 0.1766v1.46l0.5927-0.09577 0.5473-1.14 1.365-0.4322v-1.751l0.7587-0.5728 1.836 0.4328-0.13 1.157h0.4944l1.348-0.6636 0.06406 1.519 0.982 0.5983-0.04104 0.9005-0.4907 0.1673v0.6269l0.7475 0.3402-0.02239 0.6206-0.3277 0.02736c-0.001865-0.00995-0.003731-0.01679-0.003731-0.01679l-0.3937-0.1219-1.037-0.319-0.06095-0.459h-0.001865l0.4179-0.2879v-0.4179l-0.4496-0.1126-0.1113 0.3862-0.7886 0.1219-0.07836-0.02674v0.03918l-0.2736 0.04229-0.2233-0.4502-0.2575-0.1126h-0.5628l-0.255 0.2083v0.4658l0.4807 0.1604 0.4739 0.06716-0.1051 0.04602-0.4328 0.4801-0.1928-0.24-0.4167-0.1107-1.141 1.073 0.1486 0.1225-1.683 0.9322-1.585 1.648-0.107 0.7332-1.59 1.044-0.7842 0.7917 0.0852 1.583-1.092-0.5081 0.008085-0.9266-3.038 0.001243-1.572 0.7966-0.6847 1.259-0.2699 0.9988 0.4428 0.9683 1.238 0.1511 1.97-1.317 0.1735 0.653-0.602 1.136 1.501 0.2562 0.148 2.315 2.057 0.3489 1.304-1.51 1.584 0.3221 0.5578 0.7749 1.518-0.09017 0.04229-0.449 0.8346 0.4067 0.9422 1.476 1.626 0.02239 0.6001 1.049 0.0852 1.283 1.799 0.6853 2.269 0.02177 0.6654 1.09 1.004 0.3215-0.1934 0.8999-1.103 1.401-0.3221 3.099-0.9938 0.7867-1.477-0.04415-0.4907 0.8526v0.007462l0.3638 1.602-0.3638 0.4664-1.243 1.588-0.5124 0.9422-1.53 0.7357-1.008 0.153-0.04104 0.4266 0.7058 0.2034-0.08582 0.4596-0.6325 0.6095 0.3843 0.4832 0.7618 0.02177-0.04229 0.5877-0.2027 0.5784-0.0653 0.4701 1.126 0.949-0.1499 0.4925-1.532-0.02923-1.525-1.331-1.189-2.088 0.166-2.016-0.8986-1.199 0.3638-2.032-0.5348-0.1505v-4.408s-1.498-1.136-1.583-1.136c-0.0852 0-0.7929-0.1915-0.7929-0.1915l-0.1499-0.8352-1.947-2.44 0.1934-0.8775 0.06219-1.434 1.347-0.9415-0.1915-1.606-1.968-0.148-1.54-1.756-1.092-0.2991-0.7052-0.1287 0.08458-0.6424-0.8986-0.1281v0.3638l-2.248-0.556-0.9036-1.384 0.3669-0.6704-1.424-2.077-0.2438-1.519h-0.5784l0.1928 1.476 0.9845 1.519-0.1076 0.6007-0.834-0.1287-1.027-1.751v-2.037l-1.069-0.5149v-1.465c-1.323 3.097-2.057 6.505-2.057 10.08 0 14.2 11.55 25.76 25.76 25.76 0.0199 0 0.03918-6.22e-4 0.05846-6.22e-4 8.029-0.01866 15.21-3.729 19.92-9.521h-0.8501v-1.712l-0.9813-1.323v-2.059l-0.7519-0.7481-0.06406-0.8563 0.9527-1.82-1.808-3.189 0.2152-2.163-1.627-0.1692-0.5989-0.5995h-1.093l-0.5553 0.5131h-1.926l-0.06468 0.1716h-1.071l-2.461-2.803 0.0199-2.183 0.4061-0.1499 0.1517-0.8346h-0.5777l-0.2363-0.8775 2.847-2.054v-1.455l1.394-0.7736 0.5634 0.05535h1.146l0.898-0.4813 2.889-0.2251v1.477l2.28 0.5784 0.449 0.3215h0.4185v-0.8041l1.315-0.1281 1.254 0.9322h2.053l0.1449-0.1325c-0.2046-0.6934-0.4366-1.373-0.6959-2.042" style="fill:#96dce0;stroke-width:.6219"/>
 <path d="m36.75 23.32 0.06406 0.2979 0.3862 0.1754v-0.6269z" style="fill:#004346;stroke-width:.6219"/>
 <path d="m60.07 25.31c0.8439-0.5311 1.307-0.8706 1.326-0.885l-0.9552-1.178c-0.004352 0.00311-0.4409 0.3234-1.231 0.8197z" style="fill:#c1272d;stroke-width:.6219"/>
 <path d="m54.79 28.11c0.9117-0.4123 1.816-0.8563 2.688-1.321l-0.76-1.3c-0.8433 0.4478-1.717 0.8769-2.598 1.275zm-5.626 2.118c0.9527-0.2886 1.912-0.6144 2.851-0.9683l-0.5746-1.386c-0.9055 0.3414-1.83 0.6561-2.749 0.9341zm-5.896 1.335c0.9826-0.1468 1.984-0.3352 2.976-0.5609l-0.3632-1.449c-0.9515 0.2164-1.913 0.3974-2.856 0.5386zm-9.092 0.2332 0.1673-1.481c-0.9602-0.09888-1.924-0.2425-2.863-0.4266l-0.3147 1.46c0.9882 0.1934 2 0.3439 3.01 0.4484m3.581 0.1835c0.824 0 1.664-0.02923 2.496-0.08644l-0.1119-1.486c-0.9689 0.06654-1.934 0.09204-2.902 0.07898l-0.0255 1.489c0.1828 0.003109 0.3638 0.004353 0.5442 0.004353" style="fill:#c1272d;stroke-width:.6219"/>
 <path d="m28.23 30.6 0.4571-1.424c-0.4801-0.1405-0.9621-0.2935-1.445-0.4596l-0.5299 1.401c0.5075 0.1748 1.014 0.3358 1.518 0.4826" style="fill:#c1272d;stroke-width:.6219"/>
 <path d="m12.56 18.03 2.907 1.977 0.01057-0.01741 3.191 2.14-0.008084 0.01368-0.0143 0.02114 6.58 4.34c0.2593 0.1611 0.4882 0.3271 0.658 0.5062l0.04415-0.02239 1.611 1.513-0.6194 0.9073-2.108-0.9241 0.001865-0.02177c-0.2208-0.07774-0.4521-0.199-0.6872-0.3439l-6.835-3.974-0.02052 0.03047-3.351-1.904 0.01244-0.01741-3.075-1.729c-0.722-0.4478-0.9266-1.368-0.4571-2.057 0.4689-0.6878 1.435-0.885 2.157-0.4378" style="fill:#f9bb14;stroke-width:.6219"/>
 <path d="m18.16 18.59 2.055-1.049-0.003109-0.002488 0.9347-0.4733 0.002488 0.001243 2.472-1.259 2.346 1.454-7.108 4.66-0.1909 0.2836-3.182-2.159 0.102-0.1486 1.636-0.834-0.008707-0.005597 0.9347-0.4739z" style="fill:#e2aa15;stroke-width:.6219"/>
 <path d="m13.93 22.26 3.366 1.897-0.158 0.2264-1.875 8.526-2.348-1.454 0.2189-2.098-0.007462-0.004975 0.09017-0.9994 0.01928 0.01182 0.00311 0.002487 0.2805-2.674-0.01244-0.007463 0.1014-0.9925 0.01492 0.009328 0.2456-2.346z" style="fill:#e2aa15;stroke-width:.6219"/>
 <path d="m28.54 25.68 1.342 0.4534-2.295 2.361-0.006841 0.00995-1.655-1.501z" style="fill:#e2aa15;stroke-width:.6219"/>
 <path d="m26.93 29.48-1.44 3.122-0.9813-0.9845 0.319-3.103 2.114 0.9471z" style="fill:#e2aa15;stroke-width:.6219"/>
 <path d="m11.44 28.3c-0.2152-0.1331-0.2743-0.4061-0.1343-0.6119 0.1393-0.204 0.4254-0.2631 0.6405-0.13l1.316 0.8153-0.1101 0.9869z" style="fill:#f9bb14;stroke-width:.6219"/>
 <path d="m12.25 23.88 1.379 0.8545-0.1007 0.9956-1.783-1.109c-0.2146-0.1325-0.2736-0.4055-0.1337-0.6101 0.1387-0.204 0.4254-0.2637 0.6387-0.1312" style="fill:#f9bb14;stroke-width:.6219"/>
 <path d="m16.54 17.6 1.614 0.9988-0.9422 0.4726-1.177-0.7307c-0.2146-0.1318-0.2736-0.4055-0.1325-0.6107 0.1393-0.2052 0.4229-0.2624 0.6368-0.13" style="fill:#f9bb14;stroke-width:.6219"/>
 <path d="m18.97 16.73c-0.2152-0.1325-0.2755-0.408-0.1381-0.6119 0.1412-0.2046 0.4279-0.2618 0.6424-0.1287l1.7 1.053-0.9353 0.4776z" style="fill:#f9bb14;stroke-width:.6219"/>
</svg>
