<?xml version="1.0" encoding="UTF-8" standalone="no"?>
<svg
   xmlns:dc="http://purl.org/dc/elements/1.1/"
   xmlns:cc="http://creativecommons.org/ns#"
   xmlns:rdf="http://www.w3.org/1999/02/22-rdf-syntax-ns#"
   xmlns:svg="http://www.w3.org/2000/svg"
   xmlns="http://www.w3.org/2000/svg"
   xmlns:xlink="http://www.w3.org/1999/xlink"
   xmlns:sodipodi="http://sodipodi.sourceforge.net/DTD/sodipodi-0.dtd"
   xmlns:inkscape="http://www.inkscape.org/namespaces/inkscape"
   version="1.1"
   viewBox="0 0 100 100.1"
   id="svg50"
   sodipodi:docname="i79.svg"
   inkscape:version="0.92.2 (5c3e80d, 2017-08-06)">
  <metadata
     id="metadata54">
    <rdf:RDF>
      <cc:Work
         rdf:about="">
        <dc:format>image/svg+xml</dc:format>
        <dc:type
           rdf:resource="http://purl.org/dc/dcmitype/StillImage" />
        <dc:title></dc:title>
      </cc:Work>
    </rdf:RDF>
  </metadata>
  <sodipodi:namedview
     pagecolor="#ffffff"
     bordercolor="#666666"
     borderopacity="1"
     objecttolerance="10"
     gridtolerance="10"
     guidetolerance="10"
     inkscape:pageopacity="0"
     inkscape:pageshadow="2"
     inkscape:window-width="1697"
     inkscape:window-height="888"
     id="namedview52"
     showgrid="false"
     inkscape:zoom="3.3342098"
     inkscape:cx="34.527959"
     inkscape:cy="-2.5986996"
     inkscape:window-x="0"
     inkscape:window-y="0"
     inkscape:window-maximized="0"
     inkscape:current-layer="svg50" />
  <defs
     id="defs31">
    <linearGradient
       id="linearGradientSlvr"
       x1="-1869"
       x2="-1869"
       y1="794.4"
       y2="828"
       gradientTransform="matrix(1.301,0,0,1.301,1365,-35.3)"
       gradientUnits="userSpaceOnUse">
      <stop
         style="stop-color:#696969"
         offset="0"
         id="stop2" />
      <stop
         style="stop-color:#c7c7c9"
         offset=".17"
         id="stop4" />
      <stop
         style="stop-color:#f9f9ff"
         offset=".36"
         id="stop6" />
      <stop
         style="stop-color:#ccccce"
         offset=".73"
         id="stop8" />
      <stop
         style="stop-color:#696969"
         offset="1"
         id="stop10" />
    </linearGradient>
    <linearGradient
       id="linearGradient19471-6-1"
       x1="0.99628341"
       x2="0.018562814"
       y1="-0.35305399"
       y2="0.33352223"
       gradientTransform="matrix(43.96875,-62.79,62.79,43.96875,28.4375,81.52)"
       gradientUnits="userSpaceOnUse"
       xlink:href="#linearGradientSlvr">
      <stop
         style="stop-color:#1c072d"
         offset="0"
         id="stop13" />
      <stop
         style="stop-color:#5700aa"
         offset=".29"
         id="stop15" />
      <stop
         style="stop-color:#4b127b"
         offset=".64"
         id="stop17" />
      <stop
         style="stop-color:#290a43"
         offset="1"
         id="stop19" />
    </linearGradient>
    <linearGradient
       id="linearGradient37077"
       x1="51.03"
       x2="51.03"
       y1="782.4"
       y2="708.2"
       gradientUnits="userSpaceOnUse"
       xlink:href="#linearGradientSlvr"
       gradientTransform="matrix(1.350825,0,0,-1.350825,-18.55,1057.075)" />
    <linearGradient
       id="linearGradient37079"
       x1="15.41"
       x2="86.64"
       y1="745.3"
       y2="745.3"
       gradientUnits="userSpaceOnUse"
       xlink:href="#linearGradientSlvr"
       gradientTransform="matrix(1.350825,0,0,-1.350825,-18.55,1057.075)" />
    <linearGradient
       id="linearGradient37081"
       x1="30.75"
       x2="70.94"
       y1="746.6"
       y2="746.6"
       gradientUnits="userSpaceOnUse"
       xlink:href="#linearGradientSlvr"
       gradientTransform="matrix(1.350825,0,0,-1.350825,-18.2875,1058.9125)" />
    <filter
       id="filter40890"
       x="-.024"
       y="-.024"
       width="1.048"
       height="1.048"
       style="color-interpolation-filters:sRGB">
      <feGaussianBlur
         stdDeviation="0.3538742"
         id="feGaussianBlur25" />
    </filter>
    <filter
       id="filter40898"
       x="-.02105"
       y="-.02791"
       width="1.042"
       height="1.056"
       style="color-interpolation-filters:sRGB">
      <feGaussianBlur
         stdDeviation="0.18141397"
         id="feGaussianBlur28" />
    </filter>
  </defs>
  <path
     inkscape:connector-curvature="0"
     id="path33"
     style="fill:url(#linearGradient19471-6-1);stroke-width:1.35082495;fill-opacity:1"
     d="m 12.1625,50.125 c 0,21.16275 17.154375,38.325 38.325,38.325 21.16275,0 38.325,-17.157 38.325,-38.325 0,-21.165375 -17.157,-38.325 -38.325,-38.325 -21.16275,0 -38.325,17.154375 -38.325,38.325" />
  <path
     inkscape:connector-curvature="0"
     id="path35"
     style="fill:#000000;stroke-width:0.49680001;filter:url(#filter40890)"
     d="m 497.5,68.02 c -3.342,3.342 -5.182,7.785 -5.182,12.51 0,9.756 7.938,17.69 17.69,17.69 9.757,0 17.69,-7.937 17.69,-17.69 0,-9.757 -7.938,-17.69 -17.69,-17.69 -4.726,0 -9.169,1.841 -12.51,5.182 m -1.578,12.51 c 0,-3.764 1.465,-7.302 4.127,-9.963 2.662,-2.661 6.199,-4.127 9.962,-4.127 7.77,0 14.09,6.32 14.09,14.09 0,7.768 -6.321,14.09 -14.09,14.09 -7.769,0 -14.09,-6.321 -14.09,-14.09"
     transform="matrix(2.625,0,0,2.625,-1288,-160.4)" />
  <path
     inkscape:connector-curvature="0"
     id="path37"
     style="fill:url(#linearGradient37077);stroke-width:1.35082495"
     d="M 15.679906,15.453843 C 6.0525757,25.140609 0.36155,37.377732 0.37505825,50.21057 0.58578695,76.322017 24.257644,100.11005 50.3826,100.28565 76.494047,100.1114 100.17401,76.322017 100.39014,50.21057 100.18076,24.099123 76.507555,0.31109425 50.3826,0.135487 h -0.05673 c -12.807172,0 -25.003771,5.6802191 -34.648661,15.318356 M 10.552174,50.21057 C 10.542718,39.833532 14.931548,29.98872 22.5475,22.34305 30.175609,14.710889 40.000159,10.315304 50.374495,10.326111 71.595956,10.422019 90.102258,28.981004 90.196816,50.215973 90.090101,71.450942 71.595956,90.011278 50.374495,90.105835 29.153034,90.011278 10.66024,71.450942 10.552174,50.215973 M 50.374495,0.1408903" />
  <path
     inkscape:connector-curvature="0"
     id="path39"
     style="fill:url(#linearGradient37079);stroke-width:1.35082495"
     d="M 16.355318,16.264338 C 7.2669674,25.352688 2.2662132,37.431765 2.2662132,50.291619 c 0,26.530203 21.5861838,48.116387 48.1163868,48.116387 26.530203,0 48.116386,-21.586184 48.116386,-48.116387 0,-26.530203 -21.586183,-48.1163862 -48.116386,-48.1163862 -12.850398,0 -24.93623,5.0048066 -34.013774,14.0891052 m -4.291571,34.027281 c 0,-10.23385 3.984934,-19.857127 11.221304,-27.097549 7.23772,-7.23637 16.858296,-11.221304 27.084041,-11.221304 21.126903,0 38.309397,17.182494 38.309397,38.309397 0,21.126903 -17.182494,38.309397 -38.309397,38.309397 -21.126903,0 -38.309397,-17.182494 -38.309397,-38.309397" />
  <path
     inkscape:connector-curvature="0"
     id="path41"
     style="fill:#000000;stroke-width:0.51459998;filter:url(#filter40898)"
     d="m 500,88.56 h 20.68 V 72.96 H 500 Z m 9.711,-6.798 c 0.002,0.0015 -5.039,-5.106 -7.264,-7.36 h 15.9 l -7.318,7.365 c -0.1544,0.1549 -0.3922,0.2439 -0.6531,0.2439 -0.2625,0 -0.5028,-0.09058 -0.6603,-0.2491 m -8.269,-6.325 5.227,5.297 -5.227,5.343 z m 12.61,5.33 c 1.629,-1.64 3.866,-3.891 5.186,-5.219 v 10.53 z m -6.368,0.9948 1.002,1.015 c 0.4277,0.4308 1.042,0.6783 1.685,0.6783 0.6428,0 1.254,-0.245 1.677,-0.6706 0,0 0.3844,-0.387 0.9866,-0.9943 l 5.203,5.328 h -15.79 z"
     transform="matrix(2.625,0,0,2.625,-1288,-160.4)" />
  <path
     inkscape:connector-curvature="0"
     id="path43"
     style="fill:#000000;stroke-width:2.625"
     d="m 24.5,72.07 -1.201988,-1.469213 2.438363,-1.621199 z" />
  <path
     inkscape:connector-curvature="0"
     id="path45"
     style="fill:#000000;stroke-width:2.625"
     d="m 78.8375,31.12 -1.201987,-1.469213 -1.279951,2.587725 z" />
  <path
     inkscape:connector-curvature="0"
     id="path47"
     style="fill:url(#linearGradient37081);stroke-width:1.35082495"
     d="M 23.250369,70.784012 H 77.540025 V 29.826998 H 23.250369 Z M 48.740437,52.939614 c 0.0041,0.0041 -13.227279,-13.401535 -19.060141,-19.316797 H 71.40728 L 52.198548,52.953122 c -0.405247,0.406599 -1.029328,0.640292 -1.714196,0.640292 -0.688921,0 -1.319756,-0.237746 -1.733109,-0.6538 M 27.043485,36.337975 40.767867,50.237964 27.043485,64.259528 Z M 60.138698,50.332522 C 64.41541,46.028794 70.286095,40.120285 73.755014,36.635156 v 27.63788 z m -16.709705,2.611145 2.630056,2.665177 c 1.122535,1.130641 2.73542,1.780388 4.423952,1.780388 1.68718,0 3.29196,-0.642993 4.400988,-1.760125 0,0 1.009066,-1.015821 2.589531,-2.609794 L 71.130361,67.000352 H 29.673542 Z" />
</svg>
