<svg version="1.1" viewBox="0 0 74.9 75" xmlns="http://www.w3.org/2000/svg" xmlns:xlink="http://www.w3.org/1999/xlink">
 <defs>
  <linearGradient id="linearGradientSlvr" x1="-1869" x2="-1869" y1="794.4" y2="828" gradientTransform="matrix(1.301,0,0,1.301,1365,-35.3)" gradientUnits="userSpaceOnUse">
   <stop style="stop-color:#696969" offset="0"/>
   <stop style="stop-color:#c7c7c9" offset=".17"/>
   <stop style="stop-color:#f9f9ff" offset=".36"/>
   <stop style="stop-color:#ccccce" offset=".73"/>
   <stop style="stop-color:#696969" offset="1"/>
  </linearGradient>
  <linearGradient id="linearGradient19471-6-1" x1=".9963" x2=".01856" y1="-.3531" y2=".3335" gradientTransform="matrix(32.93 -47.02 47.02 32.93 21.02 60.95)" gradientUnits="userSpaceOnUse" xlink:href="#linearGradientSlvr">
   <stop style="stop-color:#1c072d" offset="0"/>
   <stop style="stop-color:#5700aa" offset=".29"/>
   <stop style="stop-color:#4b127b" offset=".64"/>
   <stop style="stop-color:#290a43" offset="1"/>
  </linearGradient>
  <linearGradient id="linearGradient37077" x1="51.03" x2="51.03" y1="782.4" y2="708.2" gradientTransform="matrix(1.012 0 0 -1.012 -14.17 791.5)" gradientUnits="userSpaceOnUse" xlink:href="#linearGradientSlvr"/>
  <linearGradient id="linearGradient37079" x1="15.41" x2="86.64" y1="745.3" y2="745.3" gradientTransform="matrix(1.012 0 0 -1.012 -14.17 791.5)" gradientUnits="userSpaceOnUse" xlink:href="#linearGradientSlvr"/>
  <linearGradient id="linearGradient37081" x1="30.75" x2="70.94" y1="746.6" y2="746.6" gradientTransform="matrix(1.012 0 0 -1.012 -13.98 792.9)" gradientUnits="userSpaceOnUse" xlink:href="#linearGradientSlvr"/>
  <filter id="filter40890" x="-.024" y="-.024" width="1.048" height="1.048" style="color-interpolation-filters:sRGB">
   <feGaussianBlur stdDeviation="0.3538742"/>
  </filter>
  <filter id="filter40898" x="-.02105" y="-.02791" width="1.042" height="1.056" style="color-interpolation-filters:sRGB">
   <feGaussianBlur stdDeviation="0.18141397"/>
  </filter>
 </defs>
 <path d="m8.827 37.44c0 15.85 12.85 28.7 28.7 28.7 15.85 0 28.7-12.85 28.7-28.7 0-15.85-12.85-28.7-28.7-28.7-15.85 0-28.7 12.85-28.7 28.7" style="fill:url(#linearGradient19471-6-1);stroke-width:1.012"/>
 <path transform="matrix(1.966 0 0 1.966 -964.8 -120.2)" d="m497.5 68.02c-3.342 3.342-5.182 7.785-5.182 12.51 0 9.756 7.938 17.69 17.69 17.69 9.757 0 17.69-7.937 17.69-17.69 0-9.757-7.938-17.69-17.69-17.69-4.726 0-9.169 1.841-12.51 5.182m-1.578 12.51c0-3.764 1.465-7.302 4.127-9.963s6.199-4.127 9.962-4.127c7.77 0 14.09 6.32 14.09 14.09 0 7.768-6.321 14.09-14.09 14.09s-14.09-6.321-14.09-14.09" style="fill:#000000;filter:url(#filter40890);stroke-width:.4968"/>
 <path d="m11.46 11.47c-7.21 7.254-11.47 16.42-11.46 26.03 0.1578 19.55 17.89 37.37 37.45 37.5 19.55-0.1305 37.29-17.95 37.45-37.5-0.1568-19.55-17.89-37.37-37.45-37.5h-0.04248c-9.591 0-18.72 4.254-25.95 11.47m-3.838 26.03c-0.007081-7.771 3.28-15.14 8.983-20.87 5.713-5.716 13.07-9.007 20.84-8.999 15.89 0.07182 29.75 13.97 29.82 29.87-0.07992 15.9-13.93 29.8-29.82 29.87-15.89-0.07081-29.74-13.97-29.82-29.87m29.82-37.5" style="fill:url(#linearGradient37077);stroke-width:1.012"/>
 <path d="m11.97 12.08c-6.806 6.806-10.55 15.85-10.55 25.48 0 19.87 16.17 36.03 36.03 36.03 19.87 0 36.03-16.17 36.03-36.03s-16.17-36.03-36.03-36.03c-9.623 0-18.67 3.748-25.47 10.55m-3.214 25.48c0-7.664 2.984-14.87 8.403-20.29 5.42-5.419 12.62-8.403 20.28-8.403 15.82 0 28.69 12.87 28.69 28.69 0 15.82-12.87 28.69-28.69 28.69-15.82 0-28.69-12.87-28.69-28.69" style="fill:url(#linearGradient37079);stroke-width:1.012"/>
 <path transform="matrix(1.966 0 0 1.966 -964.8 -120.2)" d="m500 88.56h20.68v-15.6h-20.68zm9.711-6.798c2e-3 0.0015-5.039-5.106-7.264-7.36h15.9l-7.318 7.365c-0.1544 0.1549-0.3922 0.2439-0.6531 0.2439-0.2625 0-0.5028-0.09058-0.6603-0.2491m-8.269-6.325 5.227 5.297-5.227 5.343zm12.61 5.33c1.629-1.64 3.866-3.891 5.186-5.219v10.53zm-6.368 0.9948 1.002 1.015c0.4277 0.4308 1.042 0.6783 1.685 0.6783 0.6428 0 1.254-0.245 1.677-0.6706 0 0 0.3844-0.387 0.9866-0.9943l5.203 5.328h-15.79z" style="fill:#000000;filter:url(#filter40898);stroke-width:.5146"/>
 <path d="m18.07 53.87-0.9001-1.1 1.826-1.214z" style="fill:#000000;stroke-width:1.966"/>
 <path d="m58.76 23.2-0.9001-1.1-0.9585 1.938z" style="fill:#000000;stroke-width:1.966"/>
 <path d="m17.13 52.91h40.66v-30.67h-40.66zm19.09-13.36c0.00307 0.003071-9.906-10.04-14.27-14.47h31.25l-14.38 14.48c-0.3035 0.3045-0.7708 0.4795-1.284 0.4795-0.5159 0-0.9883-0.178-1.298-0.4896m-16.26-12.43 10.28 10.41-10.28 10.5zm24.78 10.48c3.203-3.223 7.599-7.648 10.2-10.26v20.7zm-12.51 1.955 1.97 1.996c0.8406 0.8467 2.048 1.333 3.313 1.333 1.263 0 2.465-0.4815 3.296-1.318 0 0 0.7557-0.7607 1.939-1.954l10.23 10.47h-31.05z" style="fill:url(#linearGradient37081);stroke-width:1.012"/>
</svg>
