<svg version="1.1" viewBox="0 0 74.9 75" xmlns="http://www.w3.org/2000/svg" xmlns:xlink="http://www.w3.org/1999/xlink">
 <defs>
  <linearGradient id="linearGradientSlvr" x1="-1869" x2="-1869" y1="794.4" y2="828" gradientTransform="matrix(1.301,0,0,1.301,1365,-35.3)" gradientUnits="userSpaceOnUse">
   <stop style="stop-color:#696969" offset="0"/>
   <stop style="stop-color:#c7c7c9" offset=".17"/>
   <stop style="stop-color:#f9f9ff" offset=".36"/>
   <stop style="stop-color:#ccccce" offset=".73"/>
   <stop style="stop-color:#696969" offset="1"/>
  </linearGradient>
  <linearGradient id="linearGradient36878" x1="30.75" x2="70.94" y1="746.6" y2="746.6" gradientTransform="matrix(1.012 0 0 -1.012 -13.98 792.9)" gradientUnits="userSpaceOnUse" xlink:href="#linearGradientSlvr"/>
  <linearGradient id="linearGradient36886" x1="11.64" x2="91.66" y1="745.3" y2="745" gradientTransform="matrix(1.012 0 0 -1.012 -14.17 791.5)" gradientUnits="userSpaceOnUse" xlink:href="#linearGradientSlvr"/>
  <linearGradient id="linearGradient36894" x1="51.02" x2="51.02" y1="707.3" y2="782.4" gradientTransform="matrix(1.012 0 0 -1.012 -14.17 791.5)" gradientUnits="userSpaceOnUse" xlink:href="#linearGradientSlvr"/>
  <linearGradient id="linearGradient851" x1=".607" x2=".443" y1="-.6173" y2=".5982" gradientTransform="matrix(32.93 -47.02 47.02 32.93 21.02 60.95)" gradientUnits="userSpaceOnUse">
   <stop style="stop-color:#1c072d" offset="0"/>
   <stop style="stop-color:#5700aa" offset=".29"/>
   <stop style="stop-color:#4b127b" offset=".64"/>
   <stop style="stop-color:#290a43" offset="1"/>
  </linearGradient>
 </defs>
 <path d="m11.46 11.47c-7.21 7.254-11.47 16.42-11.46 26.03 0.1578 19.55 17.89 37.37 37.45 37.5 19.55-0.1305 37.29-17.95 37.45-37.5-0.1568-19.55-17.89-37.37-37.45-37.5h-0.04249c-9.591 0-18.72 4.254-25.95 11.47m-3.838 26.03c-0.007081-7.771 3.28-15.14 8.983-20.87 5.713-5.716 13.07-9.007 20.84-8.999 15.89 0.07182 29.75 13.97 29.82 29.87-0.07992 15.9-13.93 29.8-29.82 29.87-15.89-0.07081-29.74-13.97-29.82-29.87m29.82-37.5" style="fill:url(#linearGradient36894);stroke-width:1.012"/>
 <path d="m11.97 12.08c-6.806 6.806-10.55 15.85-10.55 25.48 0 19.87 16.17 36.03 36.03 36.03 19.87 0 36.03-16.17 36.03-36.03s-16.17-36.03-36.03-36.03c-9.623 0-18.67 3.748-25.47 10.55m-3.214 25.48c0-7.664 2.984-14.87 8.403-20.29 5.42-5.419 12.62-8.403 20.28-8.403 15.82 0 28.69 12.87 28.69 28.69 0 15.82-12.87 28.69-28.69 28.69-15.82 0-28.69-12.87-28.69-28.69" style="fill:url(#linearGradient36886);stroke-width:1.012"/>
 <path d="m8.827 37.44c0 15.85 12.85 28.7 28.7 28.7 15.85 0 28.7-12.85 28.7-28.7 0-15.85-12.85-28.7-28.7-28.7-15.85 0-28.7 12.85-28.7 28.7" style="fill:url(#linearGradient851);stroke-width:1.012"/>
 <path d="m17.13 52.91h40.66v-30.67h-40.66zm19.09-13.36c0.003035 0.003036-9.906-10.04-14.27-14.47h31.25l-14.38 14.48c-0.3035 0.3045-0.7708 0.4795-1.284 0.4795-0.5159 0-0.9883-0.178-1.298-0.4896m-16.26-12.43 10.28 10.41-10.28 10.5zm24.78 10.48c3.203-3.223 7.599-7.648 10.2-10.26v20.7zm-12.51 1.955 1.97 1.996c0.8406 0.8467 2.048 1.333 3.313 1.333 1.263 0 2.465-0.4815 3.296-1.318 0 0 0.7557-0.7607 1.939-1.954l10.23 10.47h-31.05z" style="fill:url(#linearGradient36878);stroke-width:1.012"/>
</svg>
