<?xml version="1.0" encoding="UTF-8" standalone="no"?>
<svg
   xmlns:dc="http://purl.org/dc/elements/1.1/"
   xmlns:cc="http://creativecommons.org/ns#"
   xmlns:rdf="http://www.w3.org/1999/02/22-rdf-syntax-ns#"
   xmlns:svg="http://www.w3.org/2000/svg"
   xmlns="http://www.w3.org/2000/svg"
   xmlns:xlink="http://www.w3.org/1999/xlink"
   xmlns:sodipodi="http://sodipodi.sourceforge.net/DTD/sodipodi-0.dtd"
   xmlns:inkscape="http://www.inkscape.org/namespaces/inkscape"
   version="1.1"
   viewBox="0 0 100 100.1"
   id="svg46"
   sodipodi:docname="i81.svg"
   inkscape:version="0.92.2 (5c3e80d, 2017-08-06)">
  <metadata
     id="metadata50">
    <rdf:RDF>
      <cc:Work
         rdf:about="">
        <dc:format>image/svg+xml</dc:format>
        <dc:type
           rdf:resource="http://purl.org/dc/dcmitype/StillImage" />
        <dc:title></dc:title>
      </cc:Work>
    </rdf:RDF>
  </metadata>
  <sodipodi:namedview
     pagecolor="#ffffff"
     bordercolor="#666666"
     borderopacity="1"
     objecttolerance="10"
     gridtolerance="10"
     guidetolerance="10"
     inkscape:pageopacity="0"
     inkscape:pageshadow="2"
     inkscape:window-width="2337"
     inkscape:window-height="948"
     id="namedview48"
     showgrid="false"
     inkscape:zoom="10.24"
     inkscape:cx="55.529845"
     inkscape:cy="43.06039"
     inkscape:window-x="0"
     inkscape:window-y="0"
     inkscape:window-maximized="0"
     inkscape:current-layer="svg46" />
  <defs
     id="defs31">
    <linearGradient
       id="linearGradientSlvr"
       x1="-1869"
       x2="-1869"
       y1="794.4"
       y2="828"
       gradientTransform="matrix(1.301,0,0,1.301,1365,-35.3)"
       gradientUnits="userSpaceOnUse">
      <stop
         style="stop-color:#696969"
         offset="0"
         id="stop2" />
      <stop
         style="stop-color:#c7c7c9"
         offset=".17"
         id="stop4" />
      <stop
         style="stop-color:#f9f9ff"
         offset=".36"
         id="stop6" />
      <stop
         style="stop-color:#ccccce"
         offset=".73"
         id="stop8" />
      <stop
         style="stop-color:#696969"
         offset="1"
         id="stop10" />
    </linearGradient>
    <linearGradient
       id="linearGradient19457-2-4"
       x1="0.36278984"
       x2="0.61263716"
       y1="0.59571278"
       y2="-0.62971455"
       gradientTransform="matrix(43.3155,-61.85712,61.85712,43.3155,27.6146,80.22576)"
       gradientUnits="userSpaceOnUse">
      <stop
         style="stop-color:#1c072d"
         offset="0"
         id="stop13" />
      <stop
         style="stop-color:#5700aa"
         offset=".29"
         id="stop15" />
      <stop
         style="stop-color:#4b127b"
         offset=".64"
         id="stop17" />
      <stop
         style="stop-color:#290a43"
         offset="1"
         id="stop19" />
    </linearGradient>
    <linearGradient
       id="linearGradient41887"
       x1="436.2"
       x2="472.8"
       y1="80.2"
       y2="80.2"
       gradientUnits="userSpaceOnUse"
       xlink:href="#linearGradientSlvr"
       gradientTransform="matrix(2.586,0,0,2.586,-1126,-158.1)" />
    <linearGradient
       id="linearGradient41889"
       x1="444.7"
       x2="464.3"
       y1="80.2"
       y2="80.2"
       gradientUnits="userSpaceOnUse"
       xlink:href="#linearGradientSlvr"
       gradientTransform="matrix(2.586,0,0,2.586,-1126,-158.1)" />
    <filter
       id="filter41897"
       x="-.02402"
       y="-.02398"
       width="1.048"
       height="1.048"
       style="color-interpolation-filters:sRGB">
      <feGaussianBlur
         stdDeviation="0.19651618"
         id="feGaussianBlur24" />
    </filter>
    <filter
       id="filter41915"
       x="-.024"
       y="-.024"
       width="1.048"
       height="1.048"
       style="color-interpolation-filters:sRGB">
      <feGaussianBlur
         stdDeviation="0.36659284"
         id="feGaussianBlur27" />
    </filter>
    <linearGradient
       id="linearGradient41933"
       x1="434"
       x2="434"
       y1="99.38"
       y2="60.19"
       gradientUnits="userSpaceOnUse"
       xlink:href="#linearGradientSlvr"
       gradientTransform="matrix(2.586,0,0,2.586,-1126,-158.1)" />
  </defs>
  <path
     inkscape:connector-curvature="0"
     id="path33"
     style="fill:url(#linearGradient19457-2-4);stroke-width:1.33075559"
     d="m 11.5814,49.2972 c 0,20.848332 16.89951,37.7556 37.7556,37.7556 20.848332,0 37.7556,-16.902096 37.7556,-37.7556 0,-20.850918 -16.902096,-37.7556 -37.7556,-37.7556 -20.848332,0 -37.7556,16.89951 -37.7556,37.7556" />
  <path
     inkscape:connector-curvature="0"
     id="path35"
     style="fill:#000000;stroke-width:0.51459998;filter:url(#filter41915)"
     d="m 441.9,67.65 c -3.462,3.462 -5.369,8.065 -5.369,12.96 0,10.11 8.223,18.33 18.33,18.33 10.11,0 18.33,-8.222 18.33,-18.33 0,-10.11 -8.223,-18.33 -18.33,-18.33 -4.896,0 -9.499,1.907 -12.96,5.368 m -1.635,12.96 c 0,-3.899 1.518,-7.564 4.275,-10.32 2.757,-2.757 6.423,-4.275 10.32,-4.275 8.049,0 14.6,6.548 14.6,14.6 0,8.047 -6.547,14.6 -14.6,14.6 -8.048,0 -14.6,-6.549 -14.6,-14.6"
     transform="matrix(2.586,0,0,2.586,-1126,-158.1)" />
  <path
     inkscape:connector-curvature="0"
     id="path37"
     style="fill:url(#linearGradient41933);stroke-width:1.33075559"
     d="M 15.2018,15.05856 C 5.716352,24.6009 0.109904,36.66459 0.128006,49.2972 0.3343688,75.017556 23.663192,98.45706 49.391306,98.63808 75.11942,98.46774 98.447726,75.025314 98.654606,49.2972 98.449536,23.574258 75.11942,0.13734 49.391306,-0.04368 h -0.05715 c -12.617094,0 -24.634236,5.596104 -34.1352,15.097068 m -5.050458,34.23864 C 10.140739,39.06957 14.464531,29.366898 21.966517,21.828708 29.481433,14.30862 39.168589,9.979656 49.378117,9.99 70.288513,10.084492 88.504297,28.368702 88.607737,49.2972 88.501194,70.212768 70.278169,88.50096 49.378117,88.6044 28.467721,88.511226 10.251937,70.223112 10.148497,49.2972 m 39.22962,-49.34088" />
  <path
     inkscape:connector-curvature="0"
     id="path39"
     style="fill:url(#linearGradient41887);stroke-width:1.33075559"
     d="M 15.719,15.78264 C 6.766268,24.735372 1.834766,36.63873 1.834766,49.2972 c 0,26.14446 21.264678,47.40138 47.40138,47.40138 26.14446,0 47.40138,-21.262092 47.40138,-47.40138 0,-26.14446 -21.264678,-47.40138 -47.40138,-47.40138 -12.661056,0 -24.564414,4.931502 -33.51456,13.881648 m -4.22811,33.51456 c 0,-10.082814 3.925548,-19.560504 11.05515,-26.68752 7.129602,-7.129602 16.609878,-11.05515 26.68752,-11.05515 20.814714,0 37.7556,16.933128 37.7556,37.7556 0,20.809542 -16.930542,37.7556 -37.7556,37.7556 -20.812128,0 -37.7556,-16.935714 -37.7556,-37.7556" />
  <path
     inkscape:connector-curvature="0"
     id="path41"
     style="fill:#000000;stroke-width:0.51459998;filter:url(#filter41897)"
     d="m 447.1,71 -1.352,1.351 4.89,4.89 c 0,0 1.35,-1.346 1.35,-1.349 l 10e-4,-0.0026 c 0.3083,-0.3083 0.2779,-0.7802 -0.004,-1.062 l 5.1e-4,-0.0046 c 0,0 -3.828,-3.822 -3.829,-3.825 -0.1467,-0.1462 -0.3366,-0.2187 -0.5265,-0.2187 -0.1925,0 -0.3844,0.07462 -0.5306,0.2208 m 2.756,13.79 c 7.132,7.311 11.73,5.747 12.53,4.922 l -4.77,-4.77 c -0.6659,0.6649 -1.524,0.07411 -3.172,-1.269 -1.091,-0.8883 -2.344,-2.084 -3.432,-3.432 -0.7632,-0.9454 -1.438,-1.939 -0.7406,-2.636 l -4.895,-4.885 c -0.7102,0.8893 -2.29,5.128 4.481,12.07 m 9.47,-1.568 -1.351,1.351 4.782,4.783 c 0,0 1.35,-1.346 1.35,-1.348 l 5.1e-4,-0.0036 c 0.3088,-0.3088 0.2789,-0.7807 -0.003,-1.062 v -0.0041 c 0,0 -3.72,-3.716 -3.722,-3.718 -0.1462,-0.1467 -0.3361,-0.2187 -0.526,-0.2187 -0.1925,0 -0.3844,0.07411 -0.5306,0.2208"
     transform="matrix(2.586,0,0,2.586,-1126,-158.1)" />
  <path
     inkscape:connector-curvature="0"
     id="path43"
     style="fill:url(#linearGradient41889);stroke-width:1.33075559"
     d="m 30.2006,24.44574 -3.496272,3.493686 12.64554,12.64554 c 0,0 3.4911,-3.480756 3.4911,-3.488514 l 0.0026,-0.0067 c 0.797264,-0.797263 0.718649,-2.017597 -0.01034,-2.746332 l 0.0013,-0.01189 c 0,0 -9.899208,-9.883692 -9.901794,-9.89145 -0.379366,-0.378073 -0.870448,-0.565558 -1.361529,-0.565558 -0.497805,0 -0.994059,0.192967 -1.372132,0.570988 m 7.127016,35.66094 C 55.769442,79.012667 67.65987,74.968163 69.72867,72.834713 L 57.39345,60.499493 c -1.722017,1.719432 -3.941064,0.191649 -8.202792,-3.281634 -2.821326,-2.297143 -6.061584,-5.389224 -8.875152,-8.875152 -1.973635,-2.444804 -3.718668,-5.014254 -1.915191,-6.816696 l -12.65847,-12.63261 c -1.836578,2.29973 -5.92194,13.261008 11.587866,31.21302 m 24.48942,-4.054848 -3.493686,3.493686 12.366252,12.368838 c 0,0 3.4911,-3.480756 3.4911,-3.485928 l 0.0013,-0.0093 c 0.798556,-0.798557 0.721235,-2.01889 -0.0078,-2.746332 v -0.0106 c 0,0 -9.61992,-9.609576 -9.625092,-9.614748 -0.378074,-0.379366 -0.869155,-0.565558 -1.360236,-0.565558 -0.497805,0 -0.994059,0.191648 -1.372132,0.570989" />
</svg>
