<svg version="1.1" viewBox="0 0 74.81 75" xmlns="http://www.w3.org/2000/svg" xmlns:xlink="http://www.w3.org/1999/xlink">
 <defs>
  <linearGradient id="linearGradientSlvr" x1="-1869" x2="-1869" y1="794.4" y2="828" gradientTransform="matrix(1.301,0,0,1.301,1365,-35.3)" gradientUnits="userSpaceOnUse">
   <stop style="stop-color:#696969" offset="0"/>
   <stop style="stop-color:#c7c7c9" offset=".17"/>
   <stop style="stop-color:#f9f9ff" offset=".36"/>
   <stop style="stop-color:#ccccce" offset=".73"/>
   <stop style="stop-color:#696969" offset="1"/>
  </linearGradient>
  <linearGradient id="linearGradient19457-2-4" x1=".3628" x2=".6126" y1=".5957" y2="-.6297" gradientTransform="matrix(32.46 -46.36 46.36 32.46 20.6 60.16)" gradientUnits="userSpaceOnUse">
   <stop style="stop-color:#1c072d" offset="0"/>
   <stop style="stop-color:#5700aa" offset=".29"/>
   <stop style="stop-color:#4b127b" offset=".64"/>
   <stop style="stop-color:#290a43" offset="1"/>
  </linearGradient>
  <linearGradient id="linearGradient41887" x1="436.2" x2="472.8" y1="80.2" y2="80.2" gradientTransform="matrix(1.938 0 0 1.938 -843.9 -118.5)" gradientUnits="userSpaceOnUse" xlink:href="#linearGradientSlvr"/>
  <linearGradient id="linearGradient41889" x1="444.7" x2="464.3" y1="80.2" y2="80.2" gradientTransform="matrix(1.938 0 0 1.938 -843.9 -118.5)" gradientUnits="userSpaceOnUse" xlink:href="#linearGradientSlvr"/>
  <filter id="filter41897" x="-.02402" y="-.02398" width="1.048" height="1.048" style="color-interpolation-filters:sRGB">
   <feGaussianBlur stdDeviation="0.19651618"/>
  </filter>
  <filter id="filter41915" x="-.024" y="-.024" width="1.048" height="1.048" style="color-interpolation-filters:sRGB">
   <feGaussianBlur stdDeviation="0.36659284"/>
  </filter>
  <linearGradient id="linearGradient41933" x1="434" x2="434" y1="99.38" y2="60.19" gradientTransform="matrix(1.938 0 0 1.938 -843.9 -118.5)" gradientUnits="userSpaceOnUse" xlink:href="#linearGradientSlvr"/>
 </defs>
 <path d="m8.583 36.98c0 15.62 12.66 28.29 28.29 28.29 15.62 0 28.29-12.67 28.29-28.29 0-15.63-12.67-28.29-28.29-28.29-15.62 0-28.29 12.66-28.29 28.29" style="fill:url(#linearGradient19457-2-4);stroke-width:.9973"/>
 <path transform="matrix(1.938 0 0 1.938 -843.9 -118.5)" d="m441.9 67.65c-3.462 3.462-5.369 8.065-5.369 12.96 0 10.11 8.223 18.33 18.33 18.33 10.11 0 18.33-8.222 18.33-18.33 0-10.11-8.223-18.33-18.33-18.33-4.896 0-9.499 1.907-12.96 5.368m-1.635 12.96c0-3.899 1.518-7.564 4.275-10.32 2.757-2.757 6.423-4.275 10.32-4.275 8.049 0 14.6 6.548 14.6 14.6 0 8.047-6.547 14.6-14.6 14.6-8.048 0-14.6-6.549-14.6-14.6" style="fill:#000000;filter:url(#filter41915);stroke-width:.5146"/>
 <path d="m11.3 11.32c-7.109 7.151-11.31 16.19-11.3 25.66 0.1547 19.28 17.64 36.84 36.92 36.98 19.28-0.1277 36.76-17.7 36.92-36.98-0.1537-19.28-17.64-36.84-36.92-36.98h-0.04283c-9.455 0-18.46 4.194-25.58 11.31m-3.785 25.66c-0.005815-7.661 3.235-14.93 8.857-20.58 5.632-5.636 12.89-8.88 20.54-8.872 15.67 0.07081 29.32 13.77 29.4 29.46-0.07984 15.67-13.74 29.38-29.4 29.46-15.67-0.06983-29.32-13.78-29.4-29.46m29.4-36.98" style="fill:url(#linearGradient41933);stroke-width:.9973"/>
 <path d="m11.68 11.86c-6.709 6.709-10.41 15.63-10.41 25.12 0 19.59 15.94 35.52 35.52 35.52 19.59 0 35.52-15.93 35.52-35.52 0-19.59-15.94-35.52-35.52-35.52-9.488 0-18.41 3.696-25.12 10.4m-3.169 25.12c0-7.556 2.942-14.66 8.285-20 5.343-5.343 12.45-8.285 20-8.285 15.6 0 28.29 12.69 28.29 28.29 0 15.6-12.69 28.29-28.29 28.29-15.6 0-28.29-12.69-28.29-28.29" style="fill:url(#linearGradient41887);stroke-width:.9973"/>
 <path transform="matrix(1.938 0 0 1.938 -843.9 -118.5)" d="m447.1 71-1.352 1.351 4.89 4.89s1.35-1.346 1.35-1.349l1e-3 -0.0026c0.3083-0.3083 0.2779-0.7802-4e-3 -1.062l5.1e-4 -0.0046s-3.828-3.822-3.829-3.825c-0.1467-0.1462-0.3366-0.2187-0.5265-0.2187-0.1925 0-0.3844 0.07462-0.5306 0.2208m2.756 13.79c7.132 7.311 11.73 5.747 12.53 4.922l-4.77-4.77c-0.6659 0.6649-1.524 0.07411-3.172-1.269-1.091-0.8883-2.344-2.084-3.432-3.432-0.7632-0.9454-1.438-1.939-0.7406-2.636l-4.895-4.885c-0.7102 0.8893-2.29 5.128 4.481 12.07m9.47-1.568-1.351 1.351 4.782 4.783s1.35-1.346 1.35-1.348l5.1e-4 -0.0036c0.3088-0.3088 0.2789-0.7807-3e-3 -1.062v-0.0041s-3.72-3.716-3.722-3.718c-0.1462-0.1467-0.3361-0.2187-0.526-0.2187-0.1925 0-0.3844 0.07411-0.5306 0.2208" style="fill:#000000;filter:url(#filter41897);stroke-width:.5146"/>
 <path d="m22.54 18.35-2.62 2.618 9.477 9.477s2.616-2.609 2.616-2.614l0.001948-0.005021c0.5975-0.5975 0.5386-1.512-0.007749-2.058l9.75e-4 -0.008911s-7.419-7.407-7.421-7.413c-0.2843-0.2833-0.6523-0.4238-1.02-0.4238-0.3731 0-0.745 0.1446-1.028 0.4279m5.341 26.72c13.82 14.17 22.73 11.14 24.28 9.539l-9.244-9.244c-1.291 1.289-2.954 0.1436-6.147-2.459-2.114-1.722-4.543-4.039-6.651-6.651-1.479-1.832-2.787-3.758-1.435-5.109l-9.486-9.467c-1.376 1.723-4.438 9.938 8.684 23.39m18.35-3.039-2.618 2.618 9.267 9.269s2.616-2.609 2.616-2.612l9.74e-4 -0.00697c0.5985-0.5985 0.5405-1.513-0.005845-2.058v-0.007944s-7.209-7.202-7.213-7.205c-0.2833-0.2843-0.6514-0.4238-1.019-0.4238-0.3731 0-0.745 0.1436-1.028 0.4279" style="fill:url(#linearGradient41889);stroke-width:.9973"/>
</svg>
