<svg version="1.1" viewBox="0 0 74.88 75" xmlns="http://www.w3.org/2000/svg" xmlns:xlink="http://www.w3.org/1999/xlink">
 <defs>
  <linearGradient id="linearGradientSlvr" x1="-1869" x2="-1869" y1="794.4" y2="828" gradientTransform="matrix(1.301,0,0,1.301,1365,-35.3)" gradientUnits="userSpaceOnUse">
   <stop style="stop-color:#696969" offset="0"/>
   <stop style="stop-color:#c7c7c9" offset=".17"/>
   <stop style="stop-color:#f9f9ff" offset=".36"/>
   <stop style="stop-color:#ccccce" offset=".73"/>
   <stop style="stop-color:#696969" offset="1"/>
  </linearGradient>
  <linearGradient id="linearGradient19457-2" x1=".5843" x2=".3531" y1="-.5474" y2=".5698" gradientTransform="matrix(32.92 -47.01 47.01 32.92 20.89 61.01)" gradientUnits="userSpaceOnUse" xlink:href="#linearGradientSlvr">
   <stop style="stop-color:#1c072d" offset="0"/>
   <stop style="stop-color:#5700aa" offset=".29"/>
   <stop style="stop-color:#4b127b" offset=".64"/>
   <stop style="stop-color:#290a43" offset="1"/>
  </linearGradient>
  <linearGradient id="linearGradient33230" x1="444.7" x2="464.3" y1="80.2" y2="80.2" gradientTransform="matrix(1.965 0 0 1.965 -855.9 -120.1)" gradientUnits="userSpaceOnUse" xlink:href="#linearGradientSlvr"/>
  <linearGradient id="linearGradient33238" x1="454.5" x2="454.5" y1="61.12" y2="99.27" gradientTransform="matrix(1.965 0 0 1.965 -855.9 -120.1)" gradientUnits="userSpaceOnUse" xlink:href="#linearGradientSlvr"/>
  <linearGradient id="linearGradient33246" x1="436.2" x2="472.8" y1="80.2" y2="80.2" gradientTransform="matrix(1.965 0 0 1.965 -855.9 -120.1)" gradientUnits="userSpaceOnUse" xlink:href="#linearGradientSlvr"/>
 </defs>
 <path d="m11.46 11.48c-7.209 7.252-11.47 16.42-11.46 26.02 0.1568 19.55 17.89 37.36 37.44 37.5 19.55-0.1295 37.28-17.95 37.44-37.5-0.1559-19.55-17.89-37.36-37.44-37.5h-0.04344c-9.589 0-18.72 4.253-25.94 11.47m-3.838 26.02c-0.005896-7.769 3.28-15.14 8.982-20.87 5.711-5.715 13.07-9.006 20.83-8.998 15.89 0.07182 29.74 13.97 29.82 29.87-0.08098 15.9-13.93 29.8-29.82 29.87-15.89-0.07081-29.74-13.97-29.82-29.87m29.82-37.5" style="fill:url(#linearGradient33238);stroke-width:1.011"/>
 <path d="m8.705 37.5c0 15.85 12.84 28.69 28.69 28.69 15.85 0 28.69-12.85 28.69-28.69 0-15.85-12.85-28.69-28.69-28.69-15.85 0-28.69 12.84-28.69 28.69" style="fill:url(#linearGradient19457-2);stroke-width:1.011"/>
 <path d="m11.85 12.03c-6.804 6.804-10.55 15.85-10.55 25.47 0 19.87 16.16 36.03 36.03 36.03 19.87 0 36.03-16.16 36.03-36.03 0-19.87-16.16-36.03-36.03-36.03-9.623 0-18.67 3.748-25.47 10.55m-3.213 25.47c0-7.663 2.983-14.87 8.402-20.28 5.419-5.419 12.62-8.402 20.28-8.402 15.82 0 28.69 12.87 28.69 28.69 0 15.82-12.87 28.69-28.69 28.69-15.82 0-28.69-12.87-28.69-28.69" style="fill:url(#linearGradient33246);stroke-width:1.011"/>
 <path d="m22.86 18.61-2.657 2.655 9.611 9.611s2.653-2.645 2.653-2.651l0.001966-0.00511c0.6059-0.6059 0.5462-1.533-0.007862-2.087l0.001002-0.009041s-7.524-7.512-7.526-7.518c-0.2883-0.2873-0.6616-0.4298-1.035-0.4298-0.3783 0-0.7555 0.1467-1.043 0.434m5.417 27.1c14.02 14.37 23.05 11.3 24.63 9.674l-9.375-9.375c-1.309 1.307-2.995 0.1457-6.234-2.494-2.144-1.746-4.607-4.096-6.745-6.745-1.5-1.858-2.826-3.811-1.456-5.181l-9.621-9.601c-1.396 1.748-4.501 10.08 8.807 23.72m18.61-3.082-2.655 2.655 9.399 9.401s2.653-2.645 2.653-2.649l0.001003-0.007074c0.6069-0.6069 0.5482-1.534-0.005896-2.087v-0.008058s-7.311-7.303-7.315-7.307c-0.2873-0.2883-0.6606-0.4298-1.034-0.4298-0.3783 0-0.7555 0.1457-1.043 0.434" style="fill:url(#linearGradient33230);stroke-width:1.011"/>
</svg>
