<?xml version="1.0" encoding="UTF-8" standalone="no"?>
<svg xmlns:dc="http://purl.org/dc/elements/1.1/" xmlns:cc="http://creativecommons.org/ns#" xmlns:rdf="http://www.w3.org/1999/02/22-rdf-syntax-ns#" xmlns:svg="http://www.w3.org/2000/svg" xmlns="http://www.w3.org/2000/svg" xmlns:sodipodi="http://sodipodi.sourceforge.net/DTD/sodipodi-0.dtd" xmlns:inkscape="http://www.inkscape.org/namespaces/inkscape" version="1.1" viewBox="0 0 99.990799 100.5067" id="svg27" sodipodi:docname="i82.svg" inkscape:version="0.92.2 (5c3e80d, 2017-08-06)" width="99.990799" height="100.5067">
  <metadata id="metadata31">
    <rdf:RDF>
      <cc:Work rdf:about="">
        <dc:format>image/svg+xml</dc:format>
        <dc:type rdf:resource="http://purl.org/dc/dcmitype/StillImage" />
        <dc:title></dc:title>
      </cc:Work>
    </rdf:RDF>
  </metadata>
  <sodipodi:namedview pagecolor="#ffffff" bordercolor="#666666" borderopacity="1" objecttolerance="10" gridtolerance="10" guidetolerance="10" inkscape:pageopacity="0" inkscape:pageshadow="2" inkscape:window-width="1737" inkscape:window-height="882" id="namedview29" showgrid="false" inkscape:zoom="3.3209393" inkscape:cx="-4.424057" inkscape:cy="66.402443" inkscape:window-x="0" inkscape:window-y="0" inkscape:window-maximized="0" inkscape:current-layer="svg27" fit-margin-top="0" fit-margin-left="0" fit-margin-right="0" fit-margin-bottom="0" />
  <defs id="defs16">
    <linearGradient id="linearGradient42049" x1="-318.7153" x2="-317.35748" y1="484.04041" y2="547.98615" gradientTransform="matrix(0.610169,0,0,-0.610169,244.4428,366.5235)" gradientUnits="userSpaceOnUse">
      <stop style="stop-color:#696969" offset="0" id="stop2" />
      <stop style="stop-color:#c7c7c9" offset=".17" id="stop4" />
      <stop style="stop-color:#f9f9ff" offset=".36" id="stop6" />
      <stop style="stop-color:#ccccce" offset=".73" id="stop8" />
      <stop style="stop-color:#696969" offset="1" id="stop10" />
    </linearGradient>
    <filter id="filter42073" x="-0.0085939998" y="-0.019880001" width="1.017" height="1.04" style="color-interpolation-filters:sRGB">
      <feGaussianBlur stdDeviation="0.66611767" id="feGaussianBlur13" />
    </filter>
  </defs>
  <path inkscape:connector-curvature="0" id="path18" style="opacity:0.55400002;fill:#000000;fill-opacity:1;stroke-width:0.46900001" d="M 85.9208,100.5067 H 14.07 C 6.3315,100.5067 0,94.1752 0,86.4367 V 14.07 C 0,6.3315 6.3315,0 14.07,0 H 85.9208 C 93.6593,0 99.9908,6.3315 99.9908,14.07 V 86.4367 C 99.9908,94.1752 93.6593,100.5067 85.9208,100.5067" />
  <path inkscape:connector-curvature="0" id="path20" style="fill:#290a43;stroke-width:0.46900001" d="M 85.9208,100.5067 H 47.33148 C 47.30428,100.4617 47.27473,100.419 47.25222,100.37116 46.920637,100.21404 46.654245,99.947652 46.497599,99.616538 46.166484,99.459892 45.900092,99.1935 45.743446,98.862386 45.412332,98.70574 45.145471,98.438879 44.988825,98.107765 44.657711,97.951119 44.391319,97.684727 44.234673,97.353613 43.903559,97.196498 43.637167,96.930106 43.480052,96.598992 43.148938,96.442346 42.882546,96.175954 42.7259,95.84484 42.394786,95.687725 42.127925,95.421333 41.971279,95.090219 41.640165,94.933573 41.373773,94.667181 41.217127,94.336067 40.886013,94.179421 40.619621,93.91256 40.462506,93.581446 40.131392,93.4248 39.865,93.158408 39.708354,92.827294 39.37724,92.670648 39.110848,92.404256 38.954202,92.072673 38.622619,91.916027 38.356227,91.649635 38.199581,91.318521 37.868467,91.161875 37.602075,90.895014 37.445429,90.5639 37.113846,90.407254 36.847454,90.140862 36.690808,89.809748 36.359694,89.653102 36.093302,89.38671 35.936187,89.055127 35.605542,88.898481 35.338681,88.632089 35.182035,88.300975 34.850921,88.144329 34.584529,87.877937 34.427883,87.546354 34.0963,87.389708 33.830377,87.123316 33.673262,86.792202 33.342148,86.635556 33.075756,86.369164 32.91911,86.03805 32.587527,85.880935 32.321135,85.614543 32.164489,85.283429 31.833375,85.126783 31.566983,84.860391 31.410337,84.529277 31.079223,84.372631 30.812831,84.10577 30.655716,83.774656 30.324602,83.61801 30.05821,83.351618 29.901564,83.020504 29.57045,82.863389 29.304058,82.596997 29.147412,82.265883 28.815829,82.109237 28.549437,81.842845 28.392791,81.511731 28.061677,81.354616 27.795285,81.088224 27.63817,80.75711 27.307056,80.600464 27.040664,80.334072 26.884018,80.002958 26.552904,79.846312 26.286512,79.57992 26.129397,79.248337 25.798283,79.091691 25.531891,78.825299 25.375245,78.494185 25.044131,78.337539 24.777739,78.071147 24.621093,77.739564 24.28951,77.582918 24.023118,77.316526 23.866472,76.985412 23.535358,76.828766 23.268966,76.562374 23.11232,76.230791 22.780737,76.074145 22.514345,75.807753 22.357699,75.476639 22.026585,75.319993 21.760193,75.053601 21.603547,74.722487 21.272433,74.565372 21.005572,74.29898 20.848926,73.967866 20.517812,73.81122 20.25142,73.544828 20.094774,73.213245 19.76366,73.056599 19.497268,72.790207 19.340153,72.459093 19.009039,72.302447 18.742647,72.036055 18.586001,71.704941 18.254418,71.547826 17.988026,71.281434 17.83138,70.95032 17.500266,70.793674 17.233874,70.527282 17.077228,70.196168 16.746114,70.039522 16.479253,69.772661 16.322607,69.441547 15.991493,69.284901 15.725101,69.018509 15.568455,68.687395 15.237341,68.53028 14.970949,68.263888 14.814303,67.932774 14.48272,67.776128 14.216328,67.509736 14.059682,67.178622 13.728568,67.021507 13.462176,66.755115 13.305061,66.424001 12.973947,66.267355 12.707555,66.000963 12.550909,65.669849 12.219795,65.513203 11.953403,65.246342 11.796288,64.915228 11.465174,64.758582 11.198782,64.49219 11.042136,64.161076 10.711022,64.00443 10.44463,63.738038 10.287984,63.406455 9.956401,63.249809 9.690009,62.983417 9.533363,62.652303 9.202249,62.495657 8.935857,62.229265 8.779211,61.897682 8.447628,61.741036 8.181236,61.474644 8.02459,61.14353 7.693476,60.986884 7.427084,60.720492 7.270438,60.389378 6.733902,60.13518 6.360109,59.593485 6.360109,58.960335 V 58.930785 C 6.360109,58.145679 6.935103,57.478761 7.711298,57.363387 L 36.681428,52.396677 C 37.917712,47.012557 42.332878,42.852527 47.848318,41.984877 L 49.175588,32.098357 C 49.229528,31.698769 49.570486,31.400485 49.973826,31.400485 H 49.994926 C 50.397797,31.400485 50.739229,31.698769 50.792695,32.098357 L 50.801095,32.159327 C 51.180985,32.184187 51.495684,32.470743 51.547274,32.852978 L 51.555274,32.913948 C 51.935164,32.938338 52.250332,33.224895 52.301453,33.60713 L 52.309853,33.6681 C 52.689743,33.69296 53.004442,33.979516 53.055563,34.361282 L 53.063963,34.422722 C 53.443853,34.447112 53.759021,34.733669 53.810142,35.115904 L 53.818142,35.176874 C 54.198501,35.201734 54.5132,35.487821 54.56479,35.870056 L 54.57279,35.931496 C 54.95268,35.955886 55.267379,36.242443 55.318969,36.624678 L 55.327369,36.685648 C 55.707259,36.710508 56.021958,36.996595 56.073079,37.37883 L 56.081479,37.44027 C 56.461369,37.46466 56.776537,37.751217 56.827658,38.133452 L 56.835658,38.194422 C 57.216017,38.219282 57.530716,38.505369 57.581837,38.887604 L 57.590237,38.949044 C 57.970127,38.973434 58.285295,39.259991 58.336416,39.641757 L 58.344416,39.703197 C 58.724306,39.728057 59.039474,40.014144 59.090595,40.396379 L 59.098995,40.457349 C 59.478885,40.482209 59.793584,40.768765 59.845174,41.151 L 59.853174,41.21197 C 60.233533,41.23683 60.548232,41.522917 60.599353,41.905152 L 60.607753,41.966122 C 60.987643,41.990982 61.302342,42.277538 61.353932,42.659773 L 61.361932,42.720743 C 61.741822,42.745133 62.05699,43.03169 62.108111,43.413925 L 62.116511,43.475365 C 62.496401,43.499755 62.8111,43.786312 62.86269,44.168078 L 62.87069,44.229518 C 63.25058,44.254378 63.565748,44.540465 63.616869,44.9227 L 63.625269,44.98367 C 64.005159,45.00853 64.319858,45.294617 64.371448,45.676852 L 64.379448,45.738292 C 64.759338,45.762682 65.074506,46.049239 65.125627,46.431474 L 65.134027,46.492444 C 65.513917,46.517304 65.828616,46.803391 65.880206,47.185626 L 65.888206,47.247066 C 66.268096,47.271456 66.583264,47.558013 66.634385,47.940248 L 66.642385,48.001218 C 67.022744,48.026078 67.337443,48.312634 67.388564,48.6944 L 67.396964,48.75584 C 67.776854,48.78023 68.092022,49.066787 68.143143,49.449022 L 68.151143,49.509992 C 68.531502,49.534852 68.846201,49.820939 68.897322,50.203174 L 68.905722,50.264614 C 69.285612,50.289004 69.600311,50.575561 69.651901,50.957796 L 69.660301,51.018766 C 70.040191,51.043626 70.35489,51.329713 70.40648,51.711948 L 70.41448,51.773388 C 70.79437,51.797778 71.109069,52.084335 71.160659,52.46657 L 71.168659,52.52754 C 71.549018,52.5524 71.863717,52.838487 71.914838,53.220722 L 71.923238,53.282162 C 72.303128,53.306552 72.618296,53.593109 72.669417,53.974875 L 72.673217,54.004425 92.253967,57.362934 C 92.793317,57.443134 93.229487,57.791131 93.449917,58.256379 93.782907,58.413963 94.050237,58.681293 94.205007,59.011 94.537997,59.168584 94.800637,59.435445 94.960097,59.765152 95.293087,59.922736 95.555727,60.190066 95.710497,60.519773 96.048177,60.676888 96.310817,60.944218 96.465587,61.273925 96.803267,61.431509 97.065907,61.69837 97.220677,62.028546 97.553667,62.18613 97.820997,62.452991 97.975767,62.782698 98.308757,62.940282 98.576087,63.207143 98.730857,63.537319 99.063847,63.694903 99.326487,63.961764 99.485947,64.291471 99.678237,64.383391 99.847077,64.516122 99.98778,64.673706 V 86.435306 C 99.98778,94.173806 93.656277,100.5053 85.917777,100.5053" />
  <path inkscape:connector-curvature="0" id="path22" style="fill:#000000;filter:url(#filter42073)" d="M 937.2,631.8 940.814,639.29 H 964.264 L 967.878,631.8 Z M 1042.7,621.52 980.93,632.11 C 978.294,643.59 968.88,652.46 957.12,654.31 L 954.29,675.39 C 954.176,676.242 953.448,676.878 952.588,676.878 H 952.544 C 951.684,676.878 950.957,676.242 950.842,675.39 L 948.012,654.31 C 936.252,652.458 926.842,643.59 924.202,632.11 L 862.432,621.52 C 860.777,621.274 859.551,619.852 859.551,618.178 V 618.115 C 859.551,616.249 861.064,614.736 862.93,614.736 H 876.31 C 876.157,613.934 876.069,613.108 876.069,612.261 876.069,605.028 881.933,599.161 889.169,599.161 896.403,599.161 902.269,605.025 902.269,612.261 902.269,613.108 902.182,613.934 902.028,614.736 H 925.558 C 929.861,604.026 940.328,596.456 952.578,596.456 964.828,596.456 975.288,604.027 979.598,614.736 H 1003.128 C 1002.978,613.934 1002.888,613.108 1002.888,612.261 1002.888,605.028 1008.758,599.161 1015.988,599.161 1023.218,599.161 1029.088,605.025 1029.088,612.261 1029.088,613.108 1028.998,613.934 1028.848,614.736 H 1042.228 C 1044.088,614.736 1045.598,616.249 1045.598,618.115 V 618.178 C 1045.598,619.852 1044.378,621.274 1042.718,621.52" transform="matrix(0.469,0,0,-0.469,-395.7422,349.9678)" />
  <path inkscape:connector-curvature="0" id="path24" style="fill:url(#linearGradient42049);stroke-width:0.46900001" d="M 42.7728,52.5749 44.467766,49.06209 H 55.465816 L 57.160782,52.5749 Z M 92.2523,57.39622 63.28217,52.42951 C 62.045886,47.04539 57.63072,42.88536 52.11528,42.01771 L 50.78801,32.13119 C 50.73454,31.731602 50.393112,31.433318 49.989772,31.433318 H 49.969132 C 49.565792,31.433318 49.224829,31.731602 49.170894,32.13119 L 47.843624,42.01771 C 42.328184,42.886298 37.914894,47.04539 36.676734,52.42951 L 7.706604,57.39622 C 6.930409,57.511594 6.355415,58.178512 6.355415,58.963618 V 58.993168 C 6.355415,59.868322 7.065012,60.577919 7.940166,60.577919 H 14.215386 C 14.143626,60.954057 14.102357,61.341451 14.102357,61.738694 14.102357,65.130971 16.852573,67.882594 20.246257,67.882594 23.639003,67.882594 26.390157,65.132378 26.390157,61.738694 26.390157,61.341451 26.349357,60.954057 26.277128,60.577919 H 37.312698 C 39.330805,65.600909 44.239828,69.151239 49.985078,69.151239 55.730328,69.151239 60.636068,65.60044 62.657458,60.577919 H 73.688338 C 73.617988,60.954057 73.575778,61.341451 73.575778,61.738694 73.575778,65.130971 76.328808,67.882594 79.719678,67.882594 83.110548,67.882594 85.863578,65.132378 85.863578,61.738694 85.863578,61.341451 85.821368,60.954057 85.751018,60.577919 H 92.026238 C 92.898578,60.577919 93.606768,59.868322 93.606768,58.993168 V 58.963618 C 93.606768,58.178512 93.034588,57.511594 92.256048,57.39622" />
</svg>
