<?xml version="1.0" encoding="UTF-8" standalone="no"?>
<svg xmlns:dc="http://purl.org/dc/elements/1.1/" xmlns:cc="http://creativecommons.org/ns#" xmlns:rdf="http://www.w3.org/1999/02/22-rdf-syntax-ns#" xmlns:svg="http://www.w3.org/2000/svg" xmlns="http://www.w3.org/2000/svg" xmlns:sodipodi="http://sodipodi.sourceforge.net/DTD/sodipodi-0.dtd" xmlns:inkscape="http://www.inkscape.org/namespaces/inkscape" version="1.1" viewBox="0 0 99.990799 100.5067" id="svg27" sodipodi:docname="i82a.svg" inkscape:version="0.92.2 (5c3e80d, 2017-08-06)" width="99.990799" height="100.5067">
  <metadata id="metadata31">
    <rdf:RDF>
      <cc:Work rdf:about="">
        <dc:format>image/svg+xml</dc:format>
        <dc:type rdf:resource="http://purl.org/dc/dcmitype/StillImage" />
        <dc:title></dc:title>
      </cc:Work>
    </rdf:RDF>
  </metadata>
  <sodipodi:namedview pagecolor="#ffffff" bordercolor="#666666" borderopacity="1" objecttolerance="10" gridtolerance="10" guidetolerance="10" inkscape:pageopacity="0" inkscape:pageshadow="2" inkscape:window-width="2560" inkscape:window-height="1001" id="namedview29" showgrid="false" inkscape:zoom="4.6965174" inkscape:cx="83.519229" inkscape:cy="21.839694" inkscape:window-x="-9" inkscape:window-y="41" inkscape:window-maximized="1" inkscape:current-layer="svg27" fit-margin-top="0" fit-margin-left="0" fit-margin-right="0" fit-margin-bottom="0" />
  <defs id="defs16">
    <linearGradient id="linearGradient42049" x1="-317.35748" x2="-317.35748" y1="487.24817" y2="549.34326" gradientTransform="matrix(0.610169,0,0,-0.610169,244.4428,366.5235)" gradientUnits="userSpaceOnUse">
      <stop style="stop-color:#696969" offset="0" id="stop2" />
      <stop style="stop-color:#c7c7c9" offset="0.21371137" id="stop4" />
      <stop style="stop-color:#f9f9ff" offset="0.38781634" id="stop6" />
      <stop style="stop-color:#ccccce" offset="0.70417058" id="stop8" />
      <stop style="stop-color:#696969" offset="1" id="stop10" />
    </linearGradient>
    <filter id="filter42073" x="-0.0085939998" y="-0.019880001" width="1.017" height="1.04" style="color-interpolation-filters:sRGB">
      <feGaussianBlur stdDeviation="0.66611767" id="feGaussianBlur13" />
    </filter>
    <filter inkscape:collect="always" style="color-interpolation-filters:sRGB" id="filter17417" x="-0.017187205" width="1.0343744" y="-0.039760613" height="1.0795212">
      <feGaussianBlur inkscape:collect="always" stdDeviation="1.332345" id="feGaussianBlur17419" />
    </filter>
  </defs>
  <path inkscape:connector-curvature="0" id="path18" style="opacity:0.773;fill:#290a43;fill-opacity:1;stroke-width:0.46900001" d="M 85.9208,100.5067 H 14.07 C 6.3315,100.5067 0,94.1752 0,86.4367 V 14.07 C 0,6.3315 6.3315,0 14.07,0 H 85.9208 C 93.6593,0 99.9908,6.3315 99.9908,14.07 V 86.4367 C 99.9908,94.1752 93.6593,100.5067 85.9208,100.5067" />
  <path inkscape:connector-curvature="0" id="path20" style="fill:#290a43;stroke-width:0.46900001;opacity:1;fill-opacity:1" d="M 85.9208,100.5067 H 47.33148 C 47.30428,100.4617 47.27473,100.419 47.25222,100.37116 L 7.270438,60.389378 C 6.733902,60.13518 6.56,59.593485 6.56,58.960335 6.7560709,57.973252 7.1186993,57.886618 7.711298,57.563699 L 36.681428,52.596699 C 37.917712,47.212579 42.43256,42.952349 47.948,42.084699 L 49.276,32.098357 C 49.408902,31.807761 49.69572,31.71288 49.994926,31.600699 50.03715,32.001351 50.739229,31.698769 50.792695,32.098357 58.085982,39.531613 65.627276,46.726057 72.873,54.204699 L 92.253967,57.462699 C 92.793317,57.542899 93.229487,57.791131 93.449917,58.256379 L 99.98778,64.673706 V 86.435306 C 99.98778,94.173806 93.656277,100.5053 85.917777,100.5053" sodipodi:nodetypes="cccccccccccccccsc" />
  <path inkscape:connector-curvature="0" id="path22" style="fill:#000000;fill-opacity:1;filter:url(#filter17417)" d="M 937.2,631.8 940.814,639.29 H 964.264 L 967.878,631.8 Z M 1042.7,621.52 980.93,632.11 C 978.294,643.59 968.88,652.46 957.12,654.31 L 954.29,675.39 C 954.176,676.242 953.448,676.878 952.588,676.878 H 952.544 C 951.684,676.878 950.957,676.242 950.842,675.39 L 948.012,654.31 C 936.252,652.458 926.842,643.59 924.202,632.11 L 862.432,621.52 C 860.777,621.274 859.551,619.852 859.551,618.178 V 618.115 C 859.551,616.249 861.064,614.736 862.93,614.736 H 876.31 C 876.157,613.934 876.069,613.108 876.069,612.261 876.069,605.028 881.933,599.161 889.169,599.161 896.403,599.161 902.269,605.025 902.269,612.261 902.269,613.108 902.182,613.934 902.028,614.736 H 925.558 C 929.861,604.026 940.328,596.456 952.578,596.456 964.828,596.456 975.288,604.027 979.598,614.736 H 1003.128 C 1002.978,613.934 1002.888,613.108 1002.888,612.261 1002.888,605.028 1008.758,599.161 1015.988,599.161 1023.218,599.161 1029.088,605.025 1029.088,612.261 1029.088,613.108 1028.998,613.934 1028.848,614.736 H 1042.228 C 1044.088,614.736 1045.598,616.249 1045.598,618.115 V 618.178 C 1045.598,619.852 1044.378,621.274 1042.718,621.52" transform="matrix(0.469,0,0,-0.469,-395.7422,349.9678)" />
  <path inkscape:connector-curvature="0" id="path24" style="fill:url(#linearGradient42049);stroke-width:0.46900001" d="M 42.7728,52.5749 44.467766,49.06209 H 55.465816 L 57.160782,52.5749 Z M 92.2523,57.39622 63.28217,52.42951 C 62.045886,47.04539 57.63072,42.88536 52.11528,42.01771 L 50.78801,32.13119 C 50.73454,31.731602 50.393112,31.433318 49.989772,31.433318 H 49.969132 C 49.565792,31.433318 49.224829,31.731602 49.170894,32.13119 L 47.843624,42.01771 C 42.328184,42.886298 37.914894,47.04539 36.676734,52.42951 L 7.706604,57.39622 C 6.930409,57.511594 6.355415,58.178512 6.355415,58.963618 V 58.993168 C 6.355415,59.868322 7.065012,60.577919 7.940166,60.577919 H 14.215386 C 14.143626,60.954057 14.102357,61.341451 14.102357,61.738694 14.102357,65.130971 16.852573,67.882594 20.246257,67.882594 23.639003,67.882594 26.390157,65.132378 26.390157,61.738694 26.390157,61.341451 26.349357,60.954057 26.277128,60.577919 H 37.312698 C 39.330805,65.600909 44.239828,69.151239 49.985078,69.151239 55.730328,69.151239 60.636068,65.60044 62.657458,60.577919 H 73.688338 C 73.617988,60.954057 73.575778,61.341451 73.575778,61.738694 73.575778,65.130971 76.328808,67.882594 79.719678,67.882594 83.110548,67.882594 85.863578,65.132378 85.863578,61.738694 85.863578,61.341451 85.821368,60.954057 85.751018,60.577919 H 92.026238 C 92.898578,60.577919 93.606768,59.868322 93.606768,58.993168 V 58.963618 C 93.606768,58.178512 93.034588,57.511594 92.256048,57.39622" />
</svg>
