<svg version="1.1" viewBox="0 0 74.62 75" xmlns="http://www.w3.org/2000/svg">
 <defs>
  <linearGradient id="linearGradient42049" x1="-317.4" x2="-317.4" y1="487.2" y2="549.3" gradientTransform="matrix(.4553 0 0 -.4553 182.4 273.5)" gradientUnits="userSpaceOnUse">
   <stop style="stop-color:#696969" offset="0"/>
   <stop style="stop-color:#c7c7c9" offset=".2137"/>
   <stop style="stop-color:#f9f9ff" offset=".3878"/>
   <stop style="stop-color:#ccccce" offset=".7042"/>
   <stop style="stop-color:#696969" offset="1"/>
  </linearGradient>
  <filter id="filter17417" x="-.01719" y="-.03976" width="1.034" height="1.08" style="color-interpolation-filters:sRGB">
   <feGaussianBlur stdDeviation="1.332345"/>
  </filter>
 </defs>
 <path d="m64.12 75h-53.62c-5.775 0-10.5-4.725-10.5-10.5v-54c0-5.775 4.725-10.5 10.5-10.5h53.62c5.775 0 10.5 4.725 10.5 10.5v54c0 5.775-4.725 10.5-10.5 10.5" style="fill:#290a43;opacity:.773;stroke-width:.35"/>
 <path d="m64.12 75h-28.8c-0.0203-0.03358-0.04235-0.06544-0.05914-0.1011l-29.84-29.84c-0.4004-0.1897-0.5301-0.5939-0.5301-1.066 0.1463-0.7366 0.4169-0.8012 0.8591-1.042l21.62-3.706c0.9225-4.018 4.292-7.197 8.407-7.844l0.991-7.452c0.09917-0.2168 0.3132-0.2876 0.5365-0.3714 0.03151 0.299 0.5554 0.07318 0.5953 0.3714 5.442 5.547 11.07 10.92 16.48 16.5l14.46 2.431c0.4025 0.05985 0.728 0.2451 0.8924 0.5923l4.879 4.789v16.24c0 5.775-4.725 10.5-10.5 10.5" style="fill:#290a43;stroke-width:.35"/>
 <path transform="matrix(.35 0 0 -.35 -295.3 261.2)" d="m937.2 631.8 3.614 7.49h23.45l3.614-7.49zm105.5-10.28-61.77 10.59c-2.636 11.48-12.05 20.35-23.81 22.2l-2.83 21.08c-0.114 0.852-0.842 1.488-1.702 1.488h-0.044c-0.86 0-1.587-0.636-1.702-1.488l-2.83-21.08c-11.76-1.852-21.17-10.72-23.81-22.2l-61.77-10.59c-1.655-0.246-2.881-1.668-2.881-3.342v-0.063c0-1.866 1.513-3.379 3.379-3.379h13.38c-0.153-0.802-0.241-1.628-0.241-2.475 0-7.233 5.864-13.1 13.1-13.1 7.234 0 13.1 5.864 13.1 13.1 0 0.847-0.087 1.673-0.241 2.475h23.53c4.303-10.71 14.77-18.28 27.02-18.28s22.71 7.571 27.02 18.28h23.53c-0.15-0.802-0.24-1.628-0.24-2.475 0-7.233 5.87-13.1 13.1-13.1s13.1 5.864 13.1 13.1c0 0.847-0.09 1.673-0.24 2.475h13.38c1.86 0 3.37 1.513 3.37 3.379v0.063c0 1.674-1.22 3.096-2.88 3.342" style="fill:#000000;filter:url(#filter17417)"/>
 <path d="m31.92 39.23 1.265-2.621h8.207l1.265 2.621zm36.92 3.598-21.62-3.706c-0.9225-4.018-4.217-7.122-8.333-7.769l-0.9904-7.378c-0.0399-0.2982-0.2947-0.5208-0.5957-0.5208h-0.0154c-0.301 0-0.5554 0.2226-0.5957 0.5208l-0.9904 7.378c-4.116 0.6482-7.409 3.752-8.333 7.769l-21.62 3.706c-0.5792 0.08609-1.008 0.5838-1.008 1.17v0.02205c0 0.6531 0.5295 1.183 1.183 1.183h4.683c-0.05355 0.2807-0.08434 0.5698-0.08434 0.8662 0 2.531 2.052 4.585 4.585 4.585 2.532 0 4.585-2.052 4.585-4.585 0-0.2964-0.03045-0.5855-0.08434-0.8662h8.235c1.506 3.748 5.169 6.398 9.456 6.398 4.287 0 7.948-2.65 9.456-6.398h8.231c-0.0525 0.2807-0.08399 0.5698-0.08399 0.8662 0 2.531 2.054 4.585 4.585 4.585s4.585-2.052 4.585-4.585c0-0.2964-0.0315-0.5855-0.08399-0.8662h4.683c0.651 0 1.179-0.5295 1.179-1.183v-0.02205c0-0.5859-0.427-1.084-1.008-1.17" style="fill:url(#linearGradient42049);stroke-width:.35"/>
</svg>
