<svg version="1.1" viewBox="0 0 74.62 75" xmlns="http://www.w3.org/2000/svg">
 <path d="m64.12 75h-53.62c-5.775 0-10.5-4.725-10.5-10.5v-54c0-5.775 4.725-10.5 10.5-10.5h53.62c5.775 0 10.5 4.725 10.5 10.5v54c0 5.775-4.725 10.5-10.5 10.5" style="fill:#88a727;stroke-width:.35"/>
 <path d="m64.12 75h-28.8c-0.0203-0.03359-0.04235-0.06544-0.05915-0.1011-0.2474-0.1172-0.4462-0.316-0.5631-0.5631-0.2471-0.1169-0.4459-0.3157-0.5628-0.5628-0.2471-0.1169-0.4462-0.316-0.5631-0.5631-0.2471-0.1169-0.4459-0.3157-0.5628-0.5628-0.2471-0.1172-0.4459-0.316-0.5631-0.5631-0.2471-0.1169-0.4459-0.3157-0.5628-0.5628-0.2471-0.1172-0.4462-0.316-0.5631-0.5631-0.2471-0.1169-0.4459-0.3157-0.5628-0.5628-0.2471-0.1169-0.4459-0.316-0.5631-0.5631-0.2471-0.1169-0.4459-0.3157-0.5628-0.5628-0.2471-0.1169-0.4459-0.3157-0.5628-0.5631-0.2474-0.1169-0.4462-0.3157-0.5631-0.5628-0.2471-0.1169-0.4459-0.316-0.5628-0.5631-0.2474-0.1169-0.4462-0.3157-0.5631-0.5628-0.2471-0.1169-0.4459-0.3157-0.5631-0.5631-0.2467-0.1169-0.4459-0.3157-0.5628-0.5628-0.2471-0.1169-0.4459-0.3157-0.5628-0.5631-0.2474-0.1169-0.4459-0.3157-0.5631-0.5628-0.2471-0.1169-0.4459-0.3157-0.5628-0.5628-0.2474-0.1172-0.4462-0.316-0.5631-0.5631-0.2471-0.1169-0.4459-0.3157-0.5628-0.5628-0.2471-0.1169-0.4459-0.316-0.5631-0.5631-0.2471-0.1169-0.4459-0.3157-0.5628-0.5628-0.2471-0.1172-0.4459-0.316-0.5628-0.5631-0.2474-0.1169-0.4462-0.3157-0.5631-0.5628-0.2471-0.1172-0.4459-0.316-0.5631-0.5631-0.2471-0.1169-0.4459-0.3157-0.5628-0.5628-0.2471-0.1169-0.4459-0.3157-0.5631-0.5631-0.2471-0.1169-0.4459-0.3157-0.5628-0.5628-0.2471-0.1169-0.4459-0.3157-0.5628-0.5631-0.2474-0.1169-0.4462-0.3157-0.5631-0.5628-0.2471-0.1169-0.4459-0.3157-0.5628-0.5631-0.2474-0.1169-0.4462-0.3157-0.5631-0.5628-0.2471-0.1169-0.4459-0.3157-0.5628-0.5628-0.2471-0.1172-0.4462-0.316-0.5631-0.5631-0.2471-0.1169-0.4459-0.3157-0.5628-0.5631-0.2471-0.1169-0.4459-0.3157-0.5631-0.5628-0.2471-0.1169-0.4459-0.3157-0.5628-0.5628-0.2474-0.1172-0.4462-0.316-0.5631-0.5631-0.2471-0.1169-0.4459-0.3157-0.5628-0.5628-0.2471-0.1169-0.4462-0.316-0.5631-0.5631-0.2471-0.1169-0.4459-0.3157-0.5628-0.5628-0.2471-0.1172-0.4459-0.316-0.5628-0.5631-0.2474-0.1169-0.4462-0.3157-0.5631-0.5628-0.2471-0.1172-0.4459-0.316-0.5631-0.5631-0.2471-0.1169-0.4459-0.3157-0.5628-0.5628-0.2471-0.1169-0.4459-0.316-0.5631-0.5631-0.2471-0.1169-0.4459-0.3157-0.5628-0.5628-0.2471-0.1169-0.4459-0.3157-0.5628-0.5631-0.2474-0.1169-0.4462-0.3157-0.5631-0.5628-0.2471-0.1169-0.4459-0.3157-0.5628-0.5631-0.2474-0.1169-0.4462-0.3157-0.5631-0.5628-0.2471-0.1169-0.4459-0.3157-0.5628-0.5628-0.4004-0.1897-0.6793-0.5939-0.6793-1.066v-0.02205c0-0.5859 0.4291-1.084 1.008-1.17l21.62-3.706c0.9225-4.018 4.217-7.122 8.333-7.769l0.9904-7.378c0.04025-0.2982 0.2947-0.5208 0.5957-0.5208h0.01575c0.3006 0 0.5554 0.2226 0.5953 0.5208l0.0063 0.0455c0.2835 0.01855 0.5183 0.2324 0.5568 0.5176l0.005949 0.0455c0.2835 0.0182 0.5187 0.232 0.5568 0.5173l0.0063 0.0455c0.2835 0.01855 0.5183 0.2324 0.5565 0.5173l0.006299 0.04585c0.2835 0.0182 0.5187 0.232 0.5568 0.5173l0.00595 0.0455c0.2838 0.01855 0.5187 0.232 0.5572 0.5173l0.005949 0.04585c0.2835 0.0182 0.5183 0.232 0.5568 0.5173l0.0063 0.0455c0.2835 0.01855 0.5183 0.232 0.5565 0.5173l0.0063 0.04585c0.2835 0.0182 0.5187 0.232 0.5568 0.5173l0.00595 0.0455c0.2838 0.01855 0.5187 0.232 0.5568 0.5173l0.0063 0.04585c0.2835 0.0182 0.5187 0.232 0.5568 0.5169l0.005949 0.04585c0.2835 0.01855 0.5187 0.232 0.5568 0.5173l0.0063 0.0455c0.2835 0.01855 0.5183 0.2324 0.5568 0.5176l0.005949 0.0455c0.2838 0.01855 0.5187 0.232 0.5568 0.5173l0.0063 0.0455c0.2835 0.01855 0.5183 0.2324 0.5568 0.5176l0.005949 0.0455c0.2835 0.0182 0.5187 0.232 0.5568 0.5173l0.0063 0.04585c0.2835 0.0182 0.5183 0.232 0.5568 0.5169l0.005949 0.04585c0.2835 0.01855 0.5187 0.232 0.5568 0.5173l0.0063 0.0455c0.2835 0.01855 0.5183 0.232 0.5568 0.5173l0.005949 0.04585c0.2835 0.0182 0.5187 0.232 0.5568 0.5173l0.0063 0.0455c0.2835 0.01855 0.5183 0.232 0.5568 0.5173l0.005949 0.04585c0.2835 0.0182 0.5187 0.232 0.5568 0.5173l0.00595 0.0455c0.2838 0.01855 0.5187 0.2324 0.5568 0.5173l0.006299 0.04585c0.2835 0.0182 0.5187 0.232 0.5568 0.5173l0.00595 0.0455c0.2838 0.01855 0.5187 0.232 0.5568 0.5173l0.0063 0.04585c0.2835 0.0182 0.5183 0.232 0.5568 0.5173l0.0063 0.0455c0.2835 0.01855 0.5183 0.232 0.5568 0.5173l0.00595 0.04585c0.2835 0.0182 0.5183 0.232 0.5568 0.5173l0.005949 0.0455c0.2838 0.01855 0.5187 0.232 0.5568 0.5173l0.0063 0.04585c0.2835 0.0182 0.5187 0.232 0.5568 0.5169l0.0028 0.02205 14.61 2.506c0.4025 0.05985 0.728 0.3195 0.8924 0.6667 0.2485 0.1176 0.448 0.3171 0.5635 0.5631 0.2485 0.1176 0.4445 0.3167 0.5635 0.5628 0.2485 0.1176 0.4445 0.3171 0.56 0.5631 0.252 0.1172 0.448 0.3167 0.5635 0.5628 0.252 0.1176 0.448 0.3167 0.5635 0.5631 0.2485 0.1176 0.448 0.3167 0.5635 0.5628 0.2485 0.1176 0.448 0.3167 0.5635 0.5631 0.2485 0.1176 0.4445 0.3167 0.5635 0.5628 0.1435 0.0686 0.2695 0.1676 0.3745 0.2852v16.24c0 5.775-4.725 10.5-10.5 10.5" style="fill:#6a922e;stroke-width:.35"/>
 <path d="m31.92 39.23 1.265-2.621h8.207l1.265 2.621zm36.92 3.598-21.62-3.706c-0.9225-4.018-4.217-7.122-8.333-7.769l-0.9904-7.378c-0.0399-0.2982-0.2947-0.5208-0.5957-0.5208h-0.0154c-0.301 0-0.5554 0.2226-0.5957 0.5208l-0.9904 7.378c-4.116 0.6482-7.409 3.752-8.333 7.769l-21.62 3.706c-0.5792 0.08609-1.008 0.5838-1.008 1.17v0.02205c0 0.6531 0.5295 1.183 1.183 1.183h4.683c-0.05355 0.2807-0.08434 0.5698-0.08434 0.8662 0 2.531 2.052 4.585 4.585 4.585 2.532 0 4.585-2.052 4.585-4.585 0-0.2964-0.03045-0.5855-0.08434-0.8662h8.235c1.506 3.748 5.169 6.398 9.456 6.398 4.287 0 7.948-2.65 9.456-6.398h8.231c-0.0525 0.2807-0.08399 0.5698-0.08399 0.8662 0 2.531 2.054 4.585 4.585 4.585s4.585-2.052 4.585-4.585c0-0.2964-0.0315-0.5855-0.08399-0.8662h4.683c0.651 0 1.179-0.5295 1.179-1.183v-0.02205c0-0.5859-0.427-1.084-1.008-1.17" style="fill:#ffffff;stroke-width:.35"/>
</svg>
