<svg version="1.1" viewBox="0 0 75 75" xmlns="http://www.w3.org/2000/svg">
 <defs>
  <linearGradient id="linearGradient42211" x1="-1263" x2="-1263" y1="-194.5" y2="-171" gradientTransform="matrix(3.842 0 0 3.842 4888 737.6)" gradientUnits="userSpaceOnUse">
   <stop style="stop-color:#696969" offset="0"/>
   <stop style="stop-color:#c7c7c9" offset=".17"/>
   <stop style="stop-color:#f9f9ff" offset=".36"/>
   <stop style="stop-color:#ccccce" offset=".73"/>
   <stop style="stop-color:#696969" offset="1"/>
  </linearGradient>
 </defs>
 <path d="m0 37.5a37.5 37.5 0 1 0 75 0 37.5 37.5 0 1 0-75 0" style="fill:url(#linearGradient42211);stroke-width:.75"/>
 <path d="m63.78 10.93-53.03 53.03c14.65 14.65 38.39 14.65 53.03 0 14.65-14.64 14.65-38.39 0-53.03z" style="opacity:.1519;stroke-width:.75"/>
 <path d="m37.5 1e-6v75c20.71 0 37.5-16.79 37.5-37.5 0-20.71-16.79-37.5-37.5-37.5z" style="opacity:.2806;stroke-width:.75"/>
 <path d="m21.85 14.76c-3.015 0-5.463 2.432-5.463 5.445v34.1c0 3.015 2.45 5.445 5.463 5.445h25.92c3.015 0 5.477-2.431 5.477-5.445v-34.1h0.002025c0-3.015-2.466-5.445-5.48-5.445zm30.27 0c1.593 1.282 2.613 3.242 2.613 5.445v34.1c0 2.205-1.02 4.163-2.613 5.445h0.9582c3.015 0 5.439-2.431 5.439-5.445v-34.1c0-3.015-2.424-5.445-5.439-5.445zm-17.29 5.288c6.729 0 12.2 5.474 12.2 12.2 0 6.732-5.474 12.21-12.2 12.21-6.729 0-12.2-5.474-12.2-12.21-9.75e-4 -6.729 5.474-12.2 12.2-12.2zm0 1.117c-0.5274 0-1.147 0.8365-1.673 2.362 0.5469-0.05522 1.107-0.08445 1.673-0.08445s1.124 0.02953 1.671 0.08445c-0.5253-1.525-1.144-2.362-1.671-2.362zm-2.016 0.4004c-1.288 0.5055-2.443 1.473-3.369 2.784 0.7843-0.2799 1.616-0.5002 2.486-0.6537 0.2513-0.8288 0.5445-1.551 0.8835-2.13zm4.033 0c0.3378 0.5793 0.6322 1.302 0.8835 2.13 0.8672 0.1527 1.702 0.3729 2.486 0.6537-0.9254-1.311-2.082-2.278-3.369-2.784zm-7.332 0.9641c-1.856 1.018-3.39 2.552-4.408 4.408 0.7323-0.6957 1.604-1.312 2.586-1.824 0.5135-0.9815 1.129-1.852 1.824-2.584zm10.63 0c0.6957 0.7323 1.31 1.603 1.822 2.586 0.9815 0.5114 1.856 1.126 2.588 1.822-1.019-1.856-2.554-3.39-4.408-4.408zm-5.318 2.032c-0.6889-8.25e-4 -1.361 0.04784-2.016 0.1317-0.2652 1.029-0.4863 2.266-0.6322 3.688 0.8711-0.05817 1.761-0.08622 2.648-0.08622 0.8879 0 1.778 0.02953 2.649 0.08829-0.1459-1.421-0.3682-2.658-0.6322-3.688-0.6543-0.08386-1.328-0.1335-2.016-0.1335zm-3.219 0.3319c-1.119 0.2356-2.159 0.5932-3.097 1.046-0.4524 0.9381-0.8091 1.979-1.044 3.097 1.091-0.2513 2.305-0.4403 3.579-0.5634 0.1252-1.275 0.3142-2.49 0.5634-3.582zm6.434 0c0.2504 1.091 0.4394 2.307 0.5634 3.582 1.274 0.1231 2.489 0.3112 3.582 0.5616-0.2365-1.119-0.5932-2.159-1.046-3.097-0.9381-0.4532-1.979-0.8091-3.097-1.044zm-11.12 1.975c-1.31 0.9254-2.28 2.081-2.784 3.369 0.5784-0.3381 1.3-0.6343 2.13-0.8835 0.1527-0.8693 0.3738-1.7 0.6537-2.486zm15.81 0c0.2799 0.7843 0.5002 1.618 0.6537 2.486 0.8268 0.2504 1.55 0.5466 2.128 0.8835-0.5046-1.286-1.473-2.443-2.782-3.369zm-7.905 2.542c-0.9726 0-1.884 0.03602-2.745 0.09626-0.06023 0.8613-0.09626 1.772-0.09626 2.745 0 0.9735 0.03602 1.887 0.09626 2.749 0.861 0.06023 1.772 0.09626 2.745 0.09626 0.9718 0 1.884-0.03691 2.747-0.09626 0.05935-0.8622 0.09626-1.775 0.09626-2.749 0-0.9715-0.03691-1.883-0.09626-2.745-0.8622-0.06024-1.775-0.09626-2.747-0.09626zm-3.871 0.1925c-1.421 0.1468-2.659 0.3691-3.688 0.6343-0.08386 0.6543-0.1314 1.326-0.1314 2.014 0 0.6889 0.04784 1.362 0.1314 2.016 1.03 0.266 2.267 0.4884 3.688 0.6343-0.05817-0.8711-0.08829-1.764-0.08829-2.65 0-0.887 0.03012-1.776 0.08829-2.649zm7.742 0c0.05817 0.8722 0.08829 1.761 0.08829 2.649 0 0.8879-0.03012 1.779-0.08829 2.65 1.422-0.1459 2.657-0.3682 3.688-0.6343 0.08386-0.6543 0.1335-1.328 0.1335-2.016 0-0.6877-0.0496-1.36-0.1335-2.014-1.03-0.2652-2.266-0.4872-3.688-0.6343zm-12.6 0.9797c-1.525 0.5253-2.36 1.142-2.36 1.669s0.8353 1.147 2.36 1.673c-0.05315-0.5468-0.08445-1.105-0.08445-1.673 0-0.5666 0.0313-1.123 0.08445-1.669zm17.45 0c0.0561 0.546 0.08622 1.102 0.08622 1.669 0 0.5675-0.031 1.126-0.08622 1.673 1.527-0.5253 2.362-1.146 2.362-1.673s-0.8353-1.144-2.362-1.669zm-19.41 3.685c0.5055 1.289 1.473 2.443 2.784 3.369-0.2799-0.7843-0.499-1.615-0.6537-2.484-0.8285-0.2492-1.551-0.5466-2.13-0.8855zm21.38 0c-0.5776 0.339-1.302 0.636-2.128 0.8855-0.1538 0.8693-0.3738 1.699-0.6537 2.484 1.31-0.9254 2.277-2.08 2.782-3.369zm-18.05 1.201c0.2344 1.119 0.5929 2.16 1.046 3.1 0.9381 0.4524 1.978 0.8079 3.097 1.044-0.2492-1.092-0.4373-2.306-0.5613-3.582-1.274-0.1231-2.49-0.3121-3.582-0.5634zm14.72 0c-1.092 0.2513-2.306 0.4403-3.582 0.5634-0.1231 1.275-0.3121 2.489-0.5634 3.582 1.119-0.2365 2.16-0.5941 3.097-1.046 0.4524-0.939 0.8091-1.98 1.046-3.097zm-10.01 0.6558c0.1459 1.421 0.3679 2.657 0.6322 3.688 0.6552 0.08386 1.328 0.1335 2.016 0.1335 0.6889 0 1.362-0.0499 2.016-0.1335 0.2652-1.03 0.4863-2.266 0.6322-3.688-0.8711 0.05906-1.761 0.08829-2.649 0.08829-0.8879 0-1.778-0.03012-2.648-0.08829zm-7.078 1.443c1.019 1.857 2.554 3.393 4.408 4.408-0.6957-0.7323-1.31-1.604-1.824-2.586-0.9815-0.5135-1.853-1.128-2.586-1.824zm19.45 0.00195c-0.7323 0.6957-1.605 1.31-2.588 1.822-0.5114 0.9815-1.126 1.854-1.822 2.586 1.855-1.019 3.39-2.552 4.408-4.408zm-15.11 2.588c0.9254 1.311 2.081 2.277 3.369 2.782-0.339-0.5784-0.6322-1.3-0.8835-2.128-0.8693-0.1538-1.7-0.3729-2.486-0.6537zm10.77 0c-0.7843 0.2808-1.615 0.5002-2.484 0.6537-0.2513 0.8277-0.5457 1.55-0.8835 2.128 1.288-0.5046 2.442-1.471 3.366-2.782zm-7.057 0.8226c0.5262 1.525 1.145 2.36 1.673 2.36 0.5262 0 1.146-0.8353 1.671-2.36-0.5469 0.05315-1.104 0.08445-1.671 0.08445-0.5666 0-1.126-0.03012-1.673-0.08445zm-10.05 7.305h24.19c0.6602 0 1.225 0.515 1.225 1.174v2.737c0 0.6602-0.5649 1.217-1.225 1.217h-24.19c-0.6591 0-1.192-0.556-1.192-1.217v-2.737c0-0.6594 0.5324-1.174 1.192-1.174z" style="fill:#290a43;stroke-width:.9853"/>
</svg>
