<?xml version="1.0" encoding="UTF-8" standalone="no"?>
<svg
   xmlns:dc="http://purl.org/dc/elements/1.1/"
   xmlns:cc="http://creativecommons.org/ns#"
   xmlns:rdf="http://www.w3.org/1999/02/22-rdf-syntax-ns#"
   xmlns:svg="http://www.w3.org/2000/svg"
   xmlns="http://www.w3.org/2000/svg"
   xmlns:sodipodi="http://sodipodi.sourceforge.net/DTD/sodipodi-0.dtd"
   xmlns:inkscape="http://www.inkscape.org/namespaces/inkscape"
   version="1.1"
   viewBox="0 0 100 100"
   id="svg24"
   sodipodi:docname="i83.svg"
   inkscape:version="0.92.2 (5c3e80d, 2017-08-06)">
  <metadata
     id="metadata28">
    <rdf:RDF>
      <cc:Work
         rdf:about="">
        <dc:format>image/svg+xml</dc:format>
        <dc:type
           rdf:resource="http://purl.org/dc/dcmitype/StillImage" />
        <dc:title></dc:title>
      </cc:Work>
    </rdf:RDF>
  </metadata>
  <sodipodi:namedview
     pagecolor="#ffffff"
     bordercolor="#666666"
     borderopacity="1"
     objecttolerance="10"
     gridtolerance="10"
     guidetolerance="10"
     inkscape:pageopacity="0"
     inkscape:pageshadow="2"
     inkscape:window-width="2124"
     inkscape:window-height="1002"
     id="namedview26"
     showgrid="false"
     inkscape:zoom="3.6203867"
     inkscape:cx="49.988162"
     inkscape:cy="15.559362"
     inkscape:window-x="0"
     inkscape:window-y="0"
     inkscape:window-maximized="0"
     inkscape:current-layer="svg24" />
  <defs
     id="defs13">
    <linearGradient
       id="linearGradient42211"
       x1="-1262.7209"
       x2="-1262.7209"
       y1="-194.5407"
       y2="-171.01242"
       gradientTransform="matrix(5.122037,0,0,5.122037,6518.005,984.0239)"
       gradientUnits="userSpaceOnUse">
      <stop
         style="stop-color:#696969"
         offset="0"
         id="stop2" />
      <stop
         style="stop-color:#c7c7c9"
         offset=".17"
         id="stop4" />
      <stop
         style="stop-color:#f9f9ff"
         offset=".36"
         id="stop6" />
      <stop
         style="stop-color:#ccccce"
         offset=".73"
         id="stop8" />
      <stop
         style="stop-color:#696969"
         offset="1"
         id="stop10" />
    </linearGradient>
  </defs>
  <path
     inkscape:connector-curvature="0"
     id="path15"
     style="fill:url(#linearGradient42211);stroke-width:0.99999803"
     d="m 0.3015,50.5612 a 49.9999,49.9999 0 1 0 99.9998,0 49.9999,49.9999 0 1 0 -99.9998,0" />
  <path
     inkscape:connector-curvature="0"
     id="path17"
     style="opacity:0.15189873;stroke-width:0.99999803"
     d="M 85.3407,15.1282 14.63218,85.83672 c 19.52752,19.52752 51.181,19.52752 70.70852,0 19.52752,-19.523583 19.52752,-51.181 0,-70.70852 z" />
  <path
     inkscape:connector-curvature="0"
     id="path19"
     style="opacity:0.2805907;stroke-width:0.99999803"
     d="m 50.3014,0.5613 v 99.9998 c 27.614118,0 49.9999,-22.385782 49.9999,-49.9999 0,-27.614118 -22.385782,-49.9999 -49.9999,-49.9999 z" />
  <path
     inkscape:connector-curvature="0"
     id="path21"
     style="fill:#290a43;stroke-width:1.31377685"
     d="m 29.4353,20.2463 c -4.019677,0 -7.28345,3.242513 -7.28345,7.259828 v 45.47235 c 0,4.019677 3.267316,7.259828 7.28345,7.259828 h 34.555049 c 4.019677,0 7.303135,-3.240938 7.303135,-7.259828 v -45.47235 h 0.0027 c 0,-4.019677 -3.288182,-7.259828 -7.307072,-7.259828 z m 40.35425,0 c 2.124405,1.709445 3.484245,4.322826 3.484245,7.259828 v 45.47235 c 0,2.940545 -1.359446,5.55117 -3.484245,7.259828 h 1.277556 c 4.019677,0 7.251954,-3.240938 7.251954,-7.259828 v -45.47235 c 0,-4.019677 -3.231883,-7.259828 -7.251954,-7.259828 z m -23.051135,7.051167 c 8.972423,0 16.271621,7.299198 16.271621,16.271621 0,8.97636 -7.299198,16.275558 -16.271621,16.275558 -8.972423,0 -16.271621,-7.299198 -16.271621,-16.275558 -0.0013,-8.972423 7.299198,-16.271621 16.271621,-16.271621 z m 0,1.489367 c -0.703148,0 -1.529918,1.115352 -2.230311,3.149206 0.729133,-0.07362 1.475982,-0.112598 2.230311,-0.112598 0.754329,0 1.498422,0.03937 2.227555,0.112598 -0.700393,-2.033854 -1.525982,-3.149206 -2.227555,-3.149206 z m -2.688184,0.533857 c -1.717319,0.674015 -3.25708,1.964563 -4.492117,3.711804 1.045668,-0.373228 2.155114,-0.666928 3.314167,-0.871652 0.335039,-1.105116 0.725983,-2.067712 1.17795,-2.840152 z m 5.377942,0 c 0.450393,0.77244 0.842912,1.73543 1.177951,2.840152 1.156297,0.203543 2.269287,0.497243 3.314166,0.871652 -1.233855,-1.747634 -2.775978,-3.037789 -4.492117,-3.711804 z m -9.775571,1.285431 c -2.47401,1.357084 -4.519676,3.402749 -5.877941,5.877941 0.976376,-0.927557 2.138972,-1.748816 3.447631,-2.431885 0.684645,-1.308659 1.505509,-2.468893 2.431885,-3.444875 z m 14.177137,0 c 0.927558,0.976376 1.747241,2.137791 2.429129,3.447631 1.308659,0.681888 2.474011,1.501572 3.449994,2.429129 -1.358659,-2.474011 -3.405505,-4.519676 -5.877941,-5.877941 z m -7.090537,2.709443 c -0.918502,-0.0011 -1.814563,0.06378 -2.688183,0.17559 -0.353543,1.371651 -0.648424,3.021254 -0.842912,4.917313 1.161415,-0.07756 2.347633,-0.11496 3.531095,-0.11496 1.183856,0 2.370074,0.03937 3.531489,0.117716 -0.194487,-1.894484 -0.490944,-3.544481 -0.842911,-4.917313 -0.872439,-0.11181 -1.770075,-0.177952 -2.688578,-0.177952 z m -4.29133,0.442519 c -1.491335,0.314173 -2.87834,0.790943 -4.129913,1.395273 -0.603148,1.250785 -1.078738,2.638183 -1.392516,4.129913 1.454327,-0.335039 3.073222,-0.587007 4.771644,-0.75118 0.166928,-1.699996 0.418896,-3.320466 0.751179,-4.775581 z m 8.578723,0 c 0.333858,1.454328 0.585826,3.075978 0.75118,4.775581 1.698816,0.164173 3.318891,0.41496 4.775581,0.748817 C 56.238002,37.791147 55.762413,36.403748 55.158083,35.152569 53.907298,34.54824 52.5199,34.073831 51.02817,33.760053 Z m -14.826742,2.633459 c -1.74724,1.233856 -3.039364,2.774798 -3.711803,4.492117 0.771258,-0.450786 1.733855,-0.845667 2.840152,-1.17795 0.203542,-1.159053 0.498424,-2.266925 0.871651,-3.314167 z m 21.078698,0 c 0.373228,1.045667 0.666928,2.156689 0.871652,3.314167 1.10236,0.333857 2.066138,0.728739 2.83779,1.17795 -0.672834,-1.714563 -1.963382,-3.25708 -3.709442,-4.492117 z M 46.739202,39.7813 c -1.296847,0 -2.511412,0.04803 -3.659441,0.128347 -0.08031,1.148422 -0.128346,2.362593 -0.128346,3.659441 0,1.298029 0.04803,2.515349 0.128346,3.664953 1.148029,0.08031 2.362594,0.128347 3.659441,0.128347 1.295667,0 2.512594,-0.04921 3.662198,-0.128347 0.07913,-1.149604 0.128346,-2.366924 0.128346,-3.664953 0,-1.295273 -0.04921,-2.511019 -0.128346,-3.659441 C 49.251796,39.829332 48.034869,39.7813 46.739202,39.7813 Z m -5.161407,0.256693 c -1.894484,0.195669 -3.545662,0.492125 -4.917313,0.845667 -0.11181,0.87244 -0.175196,1.768501 -0.175196,2.685822 0,0.918502 0.06378,1.816138 0.175196,2.688577 1.373226,0.354724 3.022829,0.65118 4.917313,0.845668 -0.07756,-1.161415 -0.117716,-2.35157 -0.117716,-3.533852 0,-1.182674 0.04016,-2.368499 0.117716,-3.531489 z m 10.322814,0 c 0.07756,1.16299 0.117717,2.347633 0.117717,3.531489 0,1.183856 -0.04016,2.372436 -0.117717,3.533851 1.89606,-0.194488 3.542907,-0.490944 4.917313,-0.845668 0.111811,-0.872439 0.177953,-1.770075 0.177953,-2.688577 0,-0.916927 -0.06614,-1.813382 -0.177953,-2.685821 -1.373225,-0.353543 -3.021647,-0.649605 -4.917313,-0.845668 z M 35.10143,41.344289 c -2.032673,0.700393 -3.14645,1.522044 -3.14645,2.225193 0,0.703148 1.113777,1.529918 3.14645,2.23031 -0.07087,-0.729132 -0.112598,-1.473619 -0.112598,-2.23031 0,-0.755511 0.04173,-1.497241 0.112598,-2.225193 z m 23.26767,0 c 0.0748,0.727952 0.114961,1.469682 0.114961,2.225193 0,0.756691 -0.04134,1.501178 -0.114961,2.23031 2.035429,-0.700392 3.149207,-1.527556 3.149207,-2.23031 0,-0.702755 -1.113778,-1.5248 -3.149207,-2.225193 z m -25.885775,4.913376 c 0.674015,1.718501 1.964563,3.25708 3.711804,4.492117 -0.373228,-1.045667 -0.665353,-2.152751 -0.871652,-3.31141 -1.104722,-0.332283 -2.067712,-0.728739 -2.840152,-1.180707 z m 28.499943,0 c -0.770077,0.451968 -1.735429,0.84803 -2.837789,1.180707 -0.205118,1.159052 -0.498424,2.265743 -0.871652,3.31141 1.746059,-1.233856 3.036608,-2.773223 3.709441,-4.492117 z m -24.062944,1.601966 c 0.312598,1.491335 0.79055,2.879915 1.395273,4.13385 1.250785,0.603148 2.637003,1.077163 4.129913,1.392517 -0.332283,-1.455903 -0.58307,-3.074404 -0.748424,-4.775582 -1.698815,-0.164172 -3.320465,-0.41614 -4.775581,-0.751179 z m 19.625945,0 c -1.455902,0.335038 -3.074797,0.587006 -4.775581,0.751179 -0.164173,1.699997 -0.416141,3.318891 -0.751179,4.775581 1.492516,-0.315353 2.879915,-0.792124 4.129913,-1.395273 0.603148,-1.251966 1.078738,-2.639364 1.395273,-4.129913 z m -13.34643,0.874407 c 0.194488,1.894485 0.490551,3.542907 0.842912,4.917313 0.87362,0.111811 1.771256,0.177953 2.688184,0.177953 0.918502,0 1.816138,-0.06654 2.688577,-0.177953 0.353543,-1.372832 0.648424,-3.021253 0.842912,-4.917313 -1.161415,0.07874 -2.347633,0.117717 -3.531489,0.117717 -1.183856,0 -2.370074,-0.04016 -3.531096,-0.117717 z M 33.76285,50.65805 c 1.358659,2.475586 3.405505,4.523613 5.877941,5.877941 -0.927557,-0.976376 -1.74724,-2.138972 -2.431885,-3.447631 -1.308658,-0.684644 -2.471254,-1.504327 -3.44763,-2.431885 z m 25.936956,0.0026 c -0.976376,0.927557 -2.140153,1.746059 -3.449993,2.429129 -0.681888,1.308658 -1.501572,2.472436 -2.429129,3.447631 2.47283,-1.358659 4.519676,-3.40275 5.877941,-5.877941 z M 39.55024,54.111035 c 1.233856,1.747635 2.774798,3.036609 4.492117,3.709442 -0.451967,-0.771258 -0.842911,-1.733855 -1.17795,-2.83779 -1.159053,-0.205117 -2.266925,-0.497243 -3.314167,-0.871652 z m 14.358239,0 c -1.045667,0.374409 -2.153932,0.666928 -3.31141,0.871652 -0.335039,1.103541 -0.727558,2.066532 -1.177951,2.83779 1.71732,-0.672833 3.255506,-1.961807 4.48818,-3.709442 z m -9.40943,1.096849 c 0.701574,2.032673 1.527163,3.14645 2.230311,3.14645 0.701573,0 1.527556,-1.113777 2.227555,-3.14645 -0.729133,0.07087 -1.472045,0.112598 -2.227555,0.112598 -0.75551,0 -1.501178,-0.04016 -2.230311,-0.112598 z m -13.405485,9.740138 h 32.247967 c 0.880314,0 1.633462,0.686612 1.633462,1.565351 v 3.649205 c 0,0.880313 -0.753148,1.622832 -1.633462,1.622832 H 31.093564 c -0.878738,0 -1.588973,-0.741338 -1.588973,-1.622832 v -3.649205 c 0,-0.879132 0.709841,-1.565351 1.588973,-1.565351 z" />
</svg>
