<?xml version="1.0" encoding="UTF-8" standalone="no"?>
<svg
   xmlns:dc="http://purl.org/dc/elements/1.1/"
   xmlns:cc="http://creativecommons.org/ns#"
   xmlns:rdf="http://www.w3.org/1999/02/22-rdf-syntax-ns#"
   xmlns:svg="http://www.w3.org/2000/svg"
   xmlns="http://www.w3.org/2000/svg"
   xmlns:xlink="http://www.w3.org/1999/xlink"
   xmlns:sodipodi="http://sodipodi.sourceforge.net/DTD/sodipodi-0.dtd"
   xmlns:inkscape="http://www.inkscape.org/namespaces/inkscape"
   version="1.1"
   viewBox="0 0 108.8 75.08"
   id="svg67"
   sodipodi:docname="i84.svg"
   inkscape:version="0.92.2 (5c3e80d, 2017-08-06)">
  <metadata
     id="metadata71">
    <rdf:RDF>
      <cc:Work
         rdf:about="">
        <dc:format>image/svg+xml</dc:format>
        <dc:type
           rdf:resource="http://purl.org/dc/dcmitype/StillImage" />
        <dc:title></dc:title>
      </cc:Work>
    </rdf:RDF>
  </metadata>
  <sodipodi:namedview
     pagecolor="#ffffff"
     bordercolor="#666666"
     borderopacity="1"
     objecttolerance="10"
     gridtolerance="10"
     guidetolerance="10"
     inkscape:pageopacity="0"
     inkscape:pageshadow="2"
     inkscape:window-width="1666"
     inkscape:window-height="480"
     id="namedview69"
     showgrid="false"
     inkscape:zoom="2.610294"
     inkscape:cx="6.7042255"
     inkscape:cy="37.540001"
     inkscape:window-x="0"
     inkscape:window-y="0"
     inkscape:window-maximized="0"
     inkscape:current-layer="svg67" />
  <defs
     id="defs36">
    <linearGradient
       id="linearGradientSlvr"
       x1="-1869"
       x2="-1869"
       y1="794.4"
       y2="828"
       gradientTransform="matrix(1.301,0,0,1.301,1365,-35.3)"
       gradientUnits="userSpaceOnUse">
      <stop
         style="stop-color:#696969"
         offset="0"
         id="stop2" />
      <stop
         style="stop-color:#c7c7c9"
         offset=".17"
         id="stop4" />
      <stop
         style="stop-color:#f9f9ff"
         offset=".36"
         id="stop6" />
      <stop
         style="stop-color:#ccccce"
         offset=".73"
         id="stop8" />
      <stop
         style="stop-color:#696969"
         offset="1"
         id="stop10" />
    </linearGradient>
    <linearGradient
       id="linearGradient6212"
       x1="-193.1"
       x2="-160.2"
       y1="-244.3"
       y2="-244.3"
       gradientUnits="userSpaceOnUse"
       xlink:href="#linearGradientSlvr"
       gradientTransform="matrix(2.197,0,0,2.197,437,573)" />
    <linearGradient
       id="linearGradient6214"
       x1="-168.3"
       x2="-149.4"
       y1="-249.2"
       y2="-249.2"
       gradientUnits="userSpaceOnUse"
       xlink:href="#linearGradientSlvr"
       gradientTransform="matrix(2.197,0,0,2.197,437,573)" />
    <linearGradient
       id="linearGradient6216"
       x1="-197.7"
       x2="-167.1"
       y1="-242.7"
       y2="-242.7"
       gradientUnits="userSpaceOnUse"
       xlink:href="#linearGradientSlvr"
       gradientTransform="matrix(2.197,0,0,2.197,437,573)" />
    <linearGradient
       id="linearGradient6218"
       x1="-191.3"
       x2="-173.9"
       y1="-251.2"
       y2="-251.2"
       gradientUnits="userSpaceOnUse"
       xlink:href="#linearGradientSlvr"
       gradientTransform="matrix(2.197,0,0,2.197,437,573)" />
    <linearGradient
       id="linearGradient6220"
       x1="-178"
       x2="-161.5"
       y1="-234"
       y2="-234"
       gradientUnits="userSpaceOnUse"
       xlink:href="#linearGradientSlvr"
       gradientTransform="matrix(2.197,0,0,2.197,437,573)" />
    <filter
       id="filter6224"
       x="-.01244"
       y="-.01159"
       width="1.025"
       height="1.023"
       style="color-interpolation-filters:sRGB">
      <feGaussianBlur
         stdDeviation="0.08217879"
         id="feGaussianBlur18" />
    </filter>
    <filter
       id="filter6230"
       x="-.03613"
       y="-.03588"
       width="1.072"
       height="1.072"
       style="color-interpolation-filters:sRGB">
      <feGaussianBlur
         stdDeviation="0.47315632"
         id="feGaussianBlur21" />
    </filter>
    <filter
       id="filter6236"
       x="-.0543"
       y="-.1854"
       width="1.109"
       height="1.371"
       style="color-interpolation-filters:sRGB">
      <feGaussianBlur
         stdDeviation="0.65642228"
         id="feGaussianBlur24" />
    </filter>
    <filter
       id="filter6242"
       x="-.06251"
       y="-.08489"
       width="1.125"
       height="1.17"
       style="color-interpolation-filters:sRGB">
      <feGaussianBlur
         stdDeviation="0.39094156"
         id="feGaussianBlur27" />
    </filter>
    <filter
       id="filter6248"
       x="-.04696"
       y="-.04909"
       width="1.094"
       height="1.098"
       style="color-interpolation-filters:sRGB">
      <feGaussianBlur
         stdDeviation="0.3391464"
         id="feGaussianBlur30" />
    </filter>
    <filter
       id="filter6254"
       x="-.04975"
       y="-.04637"
       width="1.1"
       height="1.093"
       style="color-interpolation-filters:sRGB">
      <feGaussianBlur
         stdDeviation="0.32871516"
         id="feGaussianBlur33" />
    </filter>
  </defs>
  <path
     inkscape:connector-curvature="0"
     id="path38"
     style="fill:#290a43;stroke-width:0.8278296"
     d="m 90.5331,43.7427 4.633473,-2.669355 2.851706,-19.529133 5.903341,-3.403153 c 1.10773,-0.638229 3.77444,-4.618094 2.82973,-6.248268 -0.94471,-1.630833 -5.73197,-1.318859 -6.839257,-0.680631 L 94.008754,14.615313 75.639637,7.3168794 71.006164,9.9862344 85.48,19.530002 l -7.212751,4.156724 -5.171738,-1.731016 -4.229225,2.436473 6.867822,5.373862 1.228562,8.623225 4.229225,-2.436473 1.08444,-5.336513 7.212751,-4.156724 z" />
  <path
     inkscape:connector-curvature="0"
     id="path40"
     style="fill:#290a43;stroke-width:0.8278296"
     d="M 53.1841,15.6211 C 54.150341,12.033399 43.939124,7.894251 52.35627,2.375387 L 52.231261,1.7088172 c -1.051484,-0.096009 -2.111097,-0.1614795 -3.18565,-0.1614795 -13.51155,0 -25.22156,7.71147 -30.9777,18.9710953 l 0.338558,0.07118 c 4.690595,-4.000737 16.673033,3.649217 12.417444,9.934834 -6.070311,8.968154 1.409156,9.618466 8.278296,9.106565 3.726112,-0.413914 8.232159,-2.168219 6.623955,-10.763103 -1.397512,-7.463209 6.485544,-9.658012 7.450027,-13.245713 z" />
  <path
     inkscape:connector-curvature="0"
     id="path42"
     style="fill:#290a43;stroke:none;stroke-width:0.8278296"
     d="m 80.4269,51.2125 c -3.897478,4.224831 -7.283055,1.961262 -9.853545,-1.738486 -2.588066,-3.726112 -7.243509,-4.139148 -9.934834,1.655659 -2.691325,5.795686 -5.483712,0.413915 -10.763103,8.278296 -5.07507,7.564271 -0.389968,11.299171 -0.02483,11.571599 13.493974,-0.307141 25.08974,-8.295872 30.58224,-19.768606 z" />
  <path
     style="color:#000000;font-style:normal;font-variant:normal;font-weight:normal;font-stretch:normal;font-size:medium;line-height:normal;font-family:sans-serif;font-variant-ligatures:normal;font-variant-position:normal;font-variant-caps:normal;font-variant-numeric:normal;font-variant-alternates:normal;font-feature-settings:normal;text-indent:0;text-align:start;text-decoration:none;text-decoration-line:none;text-decoration-style:solid;text-decoration-color:#000000;letter-spacing:normal;word-spacing:normal;text-transform:none;writing-mode:lr-tb;direction:ltr;text-orientation:mixed;dominant-baseline:auto;baseline-shift:baseline;text-anchor:start;white-space:normal;shape-padding:0;clip-rule:nonzero;display:inline;overflow:visible;visibility:visible;opacity:0.95;isolation:auto;mix-blend-mode:normal;color-interpolation:sRGB;color-interpolation-filters:linearRGB;solid-color:#000000;solid-opacity:1;vector-effect:none;fill:#000000;fill-opacity:1;fill-rule:nonzero;stroke:none;stroke-width:1.50699997;stroke-linecap:round;stroke-linejoin:round;stroke-miterlimit:10;stroke-dasharray:none;stroke-dashoffset:0;stroke-opacity:1;filter:url(#filter6230);color-rendering:auto;image-rendering:auto;shape-rendering:auto;text-rendering:auto;enable-background:accumulate"
     d="m -176.91016,-260.22266 c -9.15108,0 -16.58398,7.43095 -16.58398,16.58204 0,9.15125 7.43576,16.58398 16.58398,16.58398 8.20929,0 15.03755,-5.97494 16.35352,-13.81836 a 0.75360415,0.75360415 0 1 0 -1.48633,-0.25 c -1.19603,7.12858 -7.38847,12.56055 -14.86719,12.56055 -8.33377,0 -15.07617,-6.73943 -15.07617,-15.07617 0,-8.33692 6.73926,-15.07618 15.07617,-15.07618 2.58561,0 5.01495,0.65056 7.14063,1.79492 a 0.7536768,0.7536768 0 1 0 0.71289,-1.32812 c -2.33832,-1.25884 -5.01512,-1.97266 -7.85352,-1.97266 z"
     id="path44"
     inkscape:connector-curvature="0"
     transform="matrix(2.197,0,0,2.197,437,573)" />
  <path
     style="color:#000000;font-style:normal;font-variant:normal;font-weight:normal;font-stretch:normal;font-size:medium;line-height:normal;font-family:sans-serif;font-variant-ligatures:normal;font-variant-position:normal;font-variant-caps:normal;font-variant-numeric:normal;font-variant-alternates:normal;font-feature-settings:normal;text-indent:0;text-align:start;text-decoration:none;text-decoration-line:none;text-decoration-style:solid;text-decoration-color:#000000;letter-spacing:normal;word-spacing:normal;text-transform:none;writing-mode:lr-tb;direction:ltr;text-orientation:mixed;dominant-baseline:auto;baseline-shift:baseline;text-anchor:start;white-space:normal;shape-padding:0;clip-rule:nonzero;display:inline;overflow:visible;visibility:visible;opacity:1;isolation:auto;mix-blend-mode:normal;color-interpolation:sRGB;color-interpolation-filters:linearRGB;solid-color:#000000;solid-opacity:1;vector-effect:none;fill:url(#linearGradient6212);fill-opacity:1;fill-rule:nonzero;stroke:none;stroke-width:3.31087899;stroke-linecap:round;stroke-linejoin:round;stroke-miterlimit:10;stroke-dasharray:none;stroke-dashoffset:0;stroke-opacity:1;color-rendering:auto;image-rendering:auto;shape-rendering:auto;text-rendering:auto;enable-background:accumulate"
     d="m 49.207031,-0.24804688 c -20.104929,0 -36.433594,16.32866388 -36.433593,36.43359388 -1e-6,20.105308 16.334948,36.433594 36.433593,36.433594 18.035803,0 33.036552,-13.127373 35.927735,-30.359375 a 1.6557112,1.6557112 0 1 0 -3.265625,-0.548828 c -2.627681,15.661481 -16.231377,27.597656 -32.66211,27.597656 -18.309308,0 -33.123047,-14.807219 -33.123047,-33.123047 0,-18.316207 14.806841,-33.123047 33.123047,-33.123047 5.680567,0 11.017382,1.4272421 15.6875,3.9414062 a 1.655605,1.655605 0 1 0 1.56836,-2.9160156 C 61.325601,1.3222243 55.442992,-0.24804688 49.207031,-0.24804688 Z"
     id="path46"
     inkscape:connector-curvature="0" />
  <path
     style="color:#000000;font-style:normal;font-variant:normal;font-weight:normal;font-stretch:normal;font-size:medium;line-height:normal;font-family:sans-serif;font-variant-ligatures:normal;font-variant-position:normal;font-variant-caps:normal;font-variant-numeric:normal;font-variant-alternates:normal;font-feature-settings:normal;text-indent:0;text-align:start;text-decoration:none;text-decoration-line:none;text-decoration-style:solid;text-decoration-color:#000000;letter-spacing:normal;word-spacing:normal;text-transform:none;writing-mode:lr-tb;direction:ltr;text-orientation:mixed;dominant-baseline:auto;baseline-shift:baseline;text-anchor:start;white-space:normal;shape-padding:0;clip-rule:nonzero;display:inline;overflow:visible;visibility:visible;opacity:1;isolation:auto;mix-blend-mode:normal;color-interpolation:sRGB;color-interpolation-filters:linearRGB;solid-color:#000000;solid-opacity:1;vector-effect:none;fill:#000000;fill-opacity:1;fill-rule:nonzero;stroke:none;stroke-width:1.50699997;stroke-linecap:round;stroke-linejoin:round;stroke-miterlimit:10;stroke-dasharray:none;stroke-dashoffset:0;stroke-opacity:1;filter:url(#filter6242);color-rendering:auto;image-rendering:auto;shape-rendering:auto;text-rendering:auto;enable-background:accumulate"
     d="m -169.48633,-239.89648 c -1.15409,0.0981 -2.21314,0.95978 -2.89844,2.43554 -0.2665,0.57391 -0.46985,0.76211 -0.64843,0.86914 -0.17859,0.10704 -0.42201,0.1542 -0.83399,0.24219 -0.82395,0.17598 -2.07978,0.64755 -3.35937,2.55469 -1.29642,1.93221 -1.36285,3.55166 -0.98633,4.64453 0.37652,1.09287 1.17773,1.66601 1.17773,1.66601 a 0.75357533,0.75357533 0 1 0 0.86914,-1.23046 c 0,0 -0.39906,-0.27565 -0.62304,-0.92578 -0.22399,-0.65014 -0.29113,-1.66863 0.81445,-3.31641 1.1224,-1.67286 1.70503,-1.7664 2.42383,-1.91992 0.3594,-0.0768 0.81346,-0.13448 1.29297,-0.42188 0.47951,-0.2874 0.89424,-0.78225 1.24023,-1.52734 0.53971,-1.16224 1.15204,-1.52533 1.6582,-1.56836 0.50583,-0.043 1.08505,0.2441 1.56055,0.92773 0.63655,0.91647 1.39671,1.74033 2.4375,2.04688 1.0408,0.30655 2.25199,-0.10059 3.26367,-1.21875 a 0.75360277,0.75360277 0 1 0 -1.11718,-1.01172 c -0.77832,0.86023 -1.2425,0.926 -1.72071,0.78516 -0.4782,-0.14085 -1.08355,-0.68336 -1.625,-1.46289 -0.70231,-1.01079 -1.77169,-1.66648 -2.92578,-1.56836 z"
     id="path48"
     inkscape:connector-curvature="0"
     transform="matrix(2.197,0,0,2.197,437,573)" />
  <path
     style="color:#000000;font-style:normal;font-variant:normal;font-weight:normal;font-stretch:normal;font-size:medium;line-height:normal;font-family:sans-serif;font-variant-ligatures:normal;font-variant-position:normal;font-variant-caps:normal;font-variant-numeric:normal;font-variant-alternates:normal;font-feature-settings:normal;text-indent:0;text-align:start;text-decoration:none;text-decoration-line:none;text-decoration-style:solid;text-decoration-color:#000000;letter-spacing:normal;word-spacing:normal;text-transform:none;writing-mode:lr-tb;direction:ltr;text-orientation:mixed;dominant-baseline:auto;baseline-shift:baseline;text-anchor:start;white-space:normal;shape-padding:0;clip-rule:nonzero;display:inline;overflow:visible;visibility:visible;opacity:1;isolation:auto;mix-blend-mode:normal;color-interpolation:sRGB;color-interpolation-filters:linearRGB;solid-color:#000000;solid-opacity:1;vector-effect:none;fill:#000000;fill-opacity:1;fill-rule:nonzero;stroke:none;stroke-width:1.50699997;stroke-linecap:round;stroke-linejoin:round;stroke-miterlimit:10;stroke-dasharray:none;stroke-dashoffset:0;stroke-opacity:1;filter:url(#filter6248);color-rendering:auto;image-rendering:auto;shape-rendering:auto;text-rendering:auto;enable-background:accumulate"
     d="m -164.89453,-257.93359 a 0.75357533,0.75357533 0 0 0 -0.36133,0.10156 l -2.10742,1.21484 a 0.75357533,0.75357533 0 0 0 -0.0391,1.28125 l 5.56836,3.67188 -1.93164,1.11328 -2.03126,-0.67969 a 0.75357533,0.75357533 0 0 0 -0.61718,0.0606 l -1.92383,1.10937 a 0.75357533,0.75357533 0 0 0 -0.0879,1.2461 l 2.88672,2.25976 0.51562,3.625 a 0.75357533,0.75357533 0 0 0 1.12305,0.54492 l 1.92383,-1.10742 a 0.75357533,0.75357533 0 0 0 0.36328,-0.5039 l 0.42578,-2.09571 1.93359,-1.11523 0.40235,6.65234 a 0.75357533,0.75357533 0 0 0 1.12695,0.60742 l 2.10938,-1.21484 a 0.75357533,0.75357533 0 0 0 0.36914,-0.54492 l 1.24609,-8.52735 2.37109,-1.36523 c 0.30626,-0.17645 0.47647,-0.38342 0.68555,-0.64453 0.20908,-0.26111 0.41602,-0.56993 0.5957,-0.9043 0.17969,-0.33436 0.33262,-0.69054 0.41602,-1.07031 0.0834,-0.37977 0.11653,-0.82222 -0.13477,-1.25586 -0.25108,-0.43343 -0.65075,-0.62451 -1.02148,-0.74219 -0.37073,-0.11767 -0.75496,-0.16374 -1.13477,-0.17578 -0.3798,-0.012 -0.75104,0.0125 -1.08203,0.0625 -0.33099,0.05 -0.59583,0.0929 -0.90234,0.26953 l -2.37109,1.36719 -8.02344,-3.1875 a 0.75357533,0.75357533 0 0 0 -0.29297,-0.0527 z m 0.0762,1.58789 8.02148,3.1875 a 0.75357533,0.75357533 0 0 0 0.6543,-0.0469 l 2.6875,-1.54883 c -0.0545,0.0314 0.14224,-0.0508 0.375,-0.0859 0.23276,-0.0351 0.5269,-0.0558 0.8086,-0.0469 0.28169,0.009 0.55399,0.0501 0.72851,0.10547 0.17452,0.0554 0.20991,0.12478 0.17383,0.0625 -0.0363,-0.0626 0.006,-0.002 -0.0332,0.17578 -0.039,0.17765 -0.1404,0.43211 -0.27344,0.67969 -0.13304,0.24757 -0.29648,0.49234 -0.44336,0.67578 -0.14688,0.18344 -0.31782,0.31245 -0.26367,0.28125 l -2.68555,1.54883 a 0.75357533,0.75357533 0 0 0 -0.37109,0.54492 l -1.24414,8.52734 -0.73829,0.42578 -0.40039,-6.65234 a 0.75357533,0.75357533 0 0 0 -1.1289,-0.60742 l -3.28321,1.89062 a 0.75357533,0.75357533 0 0 0 -0.36132,0.50391 l -0.42774,2.0957 -0.66406,0.38282 -0.40234,-2.82227 a 0.75357533,0.75357533 0 0 0 -0.28125,-0.48633 l -2.2461,-1.75781 0.66211,-0.38281 2.0332,0.68164 a 0.75357533,0.75357533 0 0 0 0.61524,-0.0625 l 3.2832,-1.89258 a 0.75357533,0.75357533 0 0 0 0.0391,-1.28125 l -5.56835,-3.67188 z"
     id="path50"
     inkscape:connector-curvature="0"
     transform="matrix(2.197,0,0,2.197,437,573)" />
  <path
     style="color:#000000;font-style:normal;font-variant:normal;font-weight:normal;font-stretch:normal;font-size:medium;line-height:normal;font-family:sans-serif;font-variant-ligatures:normal;font-variant-position:normal;font-variant-caps:normal;font-variant-numeric:normal;font-variant-alternates:normal;font-feature-settings:normal;text-indent:0;text-align:start;text-decoration:none;text-decoration-line:none;text-decoration-style:solid;text-decoration-color:#000000;letter-spacing:normal;word-spacing:normal;text-transform:none;writing-mode:lr-tb;direction:ltr;text-orientation:mixed;dominant-baseline:auto;baseline-shift:baseline;text-anchor:start;white-space:normal;shape-padding:0;clip-rule:nonzero;display:inline;overflow:visible;visibility:visible;opacity:0.98999999;isolation:auto;mix-blend-mode:normal;color-interpolation:sRGB;color-interpolation-filters:linearRGB;solid-color:#000000;solid-opacity:1;vector-effect:none;fill:url(#linearGradient6214);fill-opacity:1;fill-rule:nonzero;stroke:none;stroke-width:3.31087899;stroke-linecap:round;stroke-linejoin:round;stroke-miterlimit:10;stroke-dasharray:none;stroke-dashoffset:0;stroke-opacity:1;color-rendering:auto;image-rendering:auto;shape-rendering:auto;text-rendering:auto;enable-background:accumulate"
     d="M 75.603516,5.6621094 A 1.655605,1.655605 0 0 0 74.8125,5.8828125 l -4.632812,2.6699219 a 1.655605,1.655605 0 0 0 -0.08398,2.8164066 l 12.234375,8.066406 -4.24414,2.445312 -4.464844,-1.49414 a 1.655605,1.655605 0 0 0 -1.351563,0.134765 l -4.230469,2.435547 a 1.655605,1.655605 0 0 0 -0.193359,2.738281 l 6.34375,4.964844 1.134766,7.962891 a 1.655605,1.655605 0 0 0 2.464843,1.201172 l 4.228516,-2.4375 a 1.655605,1.655605 0 0 0 0.796875,-1.103516 L 83.75,31.677734 l 4.248047,-2.447265 0.882812,14.611328 a 1.655605,1.655605 0 0 0 2.478516,1.335937 l 4.632813,-2.669922 a 1.655605,1.655605 0 0 0 0.8125,-1.195312 l 2.736328,-18.734375 5.207034,-3.001953 c 0.67283,-0.387661 1.04847,-0.842355 1.50781,-1.416016 0.45934,-0.57366 0.91383,-1.253684 1.30859,-1.988281 0.39476,-0.734597 0.7328,-1.515253 0.91602,-2.349609 0.18322,-0.834357 0.25523,-1.807061 -0.29688,-2.759766 -0.55162,-0.952254 -1.4277,-1.3723313 -2.24218,-1.6308594 -0.81449,-0.2585281 -1.66166,-0.3583072 -2.4961,-0.3847656 -0.83443,-0.026458 -1.64977,0.026908 -2.37695,0.1367188 -0.72718,0.1098112 -1.30902,0.205608 -1.982422,0.59375 L 93.875,12.78125 76.25,5.7792969 A 1.655605,1.655605 0 0 0 75.603516,5.6621094 Z m 0.167968,3.4882812 17.626954,7.0039064 a 1.655605,1.655605 0 0 0 1.4375,-0.105469 l 5.902342,-3.402344 c -0.11976,0.06903 0.31285,-0.112231 0.82422,-0.189453 0.51137,-0.07722 1.15846,-0.121186 1.77734,-0.101562 0.61889,0.01962 1.21619,0.108765 1.59961,0.230469 0.38343,0.121703 0.45818,0.273556 0.37891,0.136718 -0.0798,-0.137617 0.0134,-0.0016 -0.0723,0.388672 -0.0857,0.3903 -0.30536,0.950221 -0.59765,1.494141 -0.2923,0.543919 -0.65387,1.081366 -0.97656,1.484375 -0.3227,0.403009 -0.69515,0.685733 -0.57618,0.617187 l -5.904294,3.402344 a 1.655605,1.655605 0 0 0 -0.810547,1.195313 l -2.736328,18.734374 -1.621093,0.933594 -0.882813,-14.613281 a 1.655605,1.655605 0 0 0 -2.478516,-1.333984 l -7.21289,4.15625 a 1.655605,1.655605 0 0 0 -0.794922,1.105468 l -0.935547,4.603516 -1.462891,0.84375 -0.882812,-6.201172 a 1.655605,1.655605 0 0 0 -0.619141,-1.070312 l -4.933594,-3.861329 1.457032,-0.839843 4.464844,1.49414 a 1.655605,1.655605 0 0 0 1.351562,-0.134765 l 7.212891,-4.15625 a 1.655605,1.655605 0 0 0 0.08398,-2.816406 l -12.232422,-8.06836 z"
     id="path52"
     inkscape:connector-curvature="0" />
  <path
     style="color:#000000;font-style:normal;font-variant:normal;font-weight:normal;font-stretch:normal;font-size:medium;line-height:normal;font-family:sans-serif;font-variant-ligatures:normal;font-variant-position:normal;font-variant-caps:normal;font-variant-numeric:normal;font-variant-alternates:normal;font-feature-settings:normal;text-indent:0;text-align:start;text-decoration:none;text-decoration-line:none;text-decoration-style:solid;text-decoration-color:#000000;letter-spacing:normal;word-spacing:normal;text-transform:none;writing-mode:lr-tb;direction:ltr;text-orientation:mixed;dominant-baseline:auto;baseline-shift:baseline;text-anchor:start;white-space:normal;shape-padding:0;clip-rule:nonzero;display:inline;overflow:visible;visibility:visible;opacity:1;isolation:auto;mix-blend-mode:normal;color-interpolation:sRGB;color-interpolation-filters:linearRGB;solid-color:#000000;solid-opacity:1;vector-effect:none;fill:#000000;fill-opacity:1;fill-rule:nonzero;stroke:none;stroke-width:1.50699997;stroke-linecap:round;stroke-linejoin:round;stroke-miterlimit:10;stroke-dasharray:none;stroke-dashoffset:0;stroke-opacity:1;filter:url(#filter6224);color-rendering:auto;image-rendering:auto;shape-rendering:auto;text-rendering:auto;enable-background:accumulate"
     d="m -175.20898,-260.35938 a 0.75357533,0.75357533 0 0 0 -0.4043,0.12891 c -1.05229,0.68999 -1.65977,1.43463 -1.82227,2.25586 -0.16249,0.82123 0.15372,1.55307 0.51563,2.12305 0.36191,0.56998 0.79375,1.04788 1.06836,1.4375 0.2746,0.38961 0.31461,0.59514 0.30078,0.64648 -0.0481,0.17852 -0.2475,0.46533 -0.60156,0.8086 -0.35406,0.34326 -0.8327,0.73558 -1.30469,1.21093 -0.94398,0.95071 -1.86566,2.38025 -1.49805,4.34375 0.34113,1.82181 0.0256,2.70607 -0.41992,3.20703 -0.44329,0.49846 -1.16672,0.7146 -1.92773,0.80079 -1.51282,0.11045 -3.07196,-5.8e-4 -3.62305,-0.3418 -0.27688,-0.17144 -0.34848,-0.25632 -0.33594,-0.6211 0.0125,-0.36477 0.24055,-1.0483 0.88867,-2.00585 0.61577,-0.90998 0.65606,-1.98176 0.3125,-2.86524 -0.34355,-0.88348 -1.00889,-1.61901 -1.79492,-2.18555 -0.78603,-0.56653 -1.70069,-0.96708 -2.62695,-1.10351 -0.92627,-0.13643 -1.9118,0.002 -2.65625,0.63672 a 0.75364086,0.75364086 0 1 0 0.97851,1.14648 c 0.32305,-0.27554 0.82089,-0.38666 1.45704,-0.29297 0.63614,0.0937 1.3647,0.40198 1.96679,0.83594 0.6021,0.43396 1.07039,0.99262 1.27149,1.50977 0.2011,0.51714 0.19598,0.95213 -0.15625,1.47265 -0.73338,1.0835 -1.1179,1.96733 -1.14649,2.79883 -0.0286,0.8315 0.42921,1.57142 1.04883,1.95508 1.23923,0.76731 2.93766,0.68611 4.54492,0.56641 a 0.75357533,0.75357533 0 0 0 0.0274,-0.004 c 0.93077,-0.10373 2.07733,-0.3775 2.89843,-1.30078 0.8211,-0.92329 1.16677,-2.39614 0.77539,-4.48633 -0.26732,-1.43195 0.28581,-2.20002 1.08594,-3.00586 0.40029,-0.40314 0.86084,-0.77997 1.2832,-1.18945 0.42236,-0.40949 0.83599,-0.86007 1.00782,-1.49805 0.20607,-0.76516 -0.17004,-1.40679 -0.52344,-1.9082 -0.35341,-0.50142 -0.76121,-0.95781 -1.02734,-1.37696 -0.26614,-0.41914 -0.36784,-0.73193 -0.31055,-1.02148 0.0573,-0.28955 0.30671,-0.72305 1.16992,-1.28906 a 0.75357533,0.75357533 0 0 0 -0.42187,-1.38868 z"
     id="path54"
     inkscape:connector-curvature="0"
     transform="matrix(2.197,0,0,2.197,437,573)" />
  <path
     style="color:#000000;font-style:normal;font-variant:normal;font-weight:normal;font-stretch:normal;font-size:medium;line-height:normal;font-family:sans-serif;font-variant-ligatures:normal;font-variant-position:normal;font-variant-caps:normal;font-variant-numeric:normal;font-variant-alternates:normal;font-feature-settings:normal;text-indent:0;text-align:start;text-decoration:none;text-decoration-line:none;text-decoration-style:solid;text-decoration-color:#000000;letter-spacing:normal;word-spacing:normal;text-transform:none;writing-mode:lr-tb;direction:ltr;text-orientation:mixed;dominant-baseline:auto;baseline-shift:baseline;text-anchor:start;white-space:normal;shape-padding:0;clip-rule:nonzero;display:inline;overflow:visible;visibility:visible;opacity:0.96269998;isolation:auto;mix-blend-mode:normal;color-interpolation:sRGB;color-interpolation-filters:linearRGB;solid-color:#000000;solid-opacity:1;vector-effect:none;fill:#000000;fill-opacity:1;fill-rule:nonzero;stroke:none;stroke-width:1.50699997;stroke-linecap:round;stroke-linejoin:round;stroke-miterlimit:10;stroke-dasharray:none;stroke-dashoffset:0;stroke-opacity:1;filter:url(#filter6236);color-rendering:auto;image-rendering:auto;shape-rendering:auto;text-rendering:auto;enable-background:accumulate"
     d="m -192.83203,-246.49219 a 0.75357533,0.75357533 0 0 0 -0.4043,0.125 c -1.53938,0.97727 -2.78653,1.97129 -3.64453,3.02344 -0.858,1.05215 -1.34687,2.22391 -1.14258,3.41602 0.2348,1.3663 1.45236,2.32317 3.11133,2.85742 1.65897,0.53424 3.86494,0.71571 6.5293,0.49804 5.32871,-0.43533 12.48881,-2.49693 20.45117,-6.9707 a 0.75379642,0.75379642 0 1 0 -0.73828,-1.31445 c -7.79764,4.38122 -14.78465,6.37053 -19.83594,6.7832 -2.52564,0.20634 -4.56928,0.0115 -5.94531,-0.43164 -1.37603,-0.44313 -1.98073,-1.06358 -2.08594,-1.67578 -0.11,-0.6419 0.12719,-1.35859 0.82227,-2.21094 0.69507,-0.85235 1.82853,-1.77839 3.28515,-2.70312 a 0.75357533,0.75357533 0 0 0 -0.40234,-1.39649 z"
     id="path56"
     inkscape:connector-curvature="0"
     transform="matrix(2.197,0,0,2.197,437,573)" />
  <path
     style="color:#000000;font-style:normal;font-variant:normal;font-weight:normal;font-stretch:normal;font-size:medium;line-height:normal;font-family:sans-serif;font-variant-ligatures:normal;font-variant-position:normal;font-variant-caps:normal;font-variant-numeric:normal;font-variant-alternates:normal;font-feature-settings:normal;text-indent:0;text-align:start;text-decoration:none;text-decoration-line:none;text-decoration-style:solid;text-decoration-color:#000000;letter-spacing:normal;word-spacing:normal;text-transform:none;writing-mode:lr-tb;direction:ltr;text-orientation:mixed;dominant-baseline:auto;baseline-shift:baseline;text-anchor:start;white-space:normal;shape-padding:0;clip-rule:nonzero;display:inline;overflow:visible;visibility:visible;opacity:1;isolation:auto;mix-blend-mode:normal;color-interpolation:sRGB;color-interpolation-filters:linearRGB;solid-color:#000000;solid-opacity:1;vector-effect:none;fill:url(#linearGradient6216);fill-opacity:1;fill-rule:nonzero;stroke:none;stroke-width:3.31087899;stroke-linecap:round;stroke-linejoin:round;stroke-miterlimit:10;stroke-dasharray:none;stroke-dashoffset:0;stroke-opacity:1;color-rendering:auto;image-rendering:auto;shape-rendering:auto;text-rendering:auto;enable-background:accumulate"
     d="M 14.228516,28.822266 A 1.655605,1.655605 0 0 0 13.337891,29.09375 C 9.9558717,31.240813 7.2151096,33.424758 5.3300781,35.736328 3.4450466,38.047899 2.3734276,40.623133 2.8222656,43.242188 3.3381104,46.243949 6.011491,48.345793 9.65625,49.519531 13.301009,50.69327 18.146411,51.093447 24,50.615234 35.707178,49.65881 51.442248,45.127709 68.935547,35.298828 A 1.6558554,1.6558554 0 1 0 67.3125,32.412109 C 50.181079,42.037664 34.828151,46.407822 23.730469,47.314453 18.181628,47.767769 13.695011,47.340742 10.671875,46.367188 7.6498064,45.393977 6.3177677,44.028137 6.0859375,42.683594 v -0.002 C 5.8450173,41.271863 6.368111,39.699939 7.8945312,37.828125 9.4216055,35.955509 11.911135,33.920303 15.111328,31.888672 a 1.655605,1.655605 0 0 0 -0.882812,-3.066406 z"
     id="path58"
     inkscape:connector-curvature="0" />
  <path
     style="color:#000000;font-style:normal;font-variant:normal;font-weight:normal;font-stretch:normal;font-size:medium;line-height:normal;font-family:sans-serif;font-variant-ligatures:normal;font-variant-position:normal;font-variant-caps:normal;font-variant-numeric:normal;font-variant-alternates:normal;font-feature-settings:normal;text-indent:0;text-align:start;text-decoration:none;text-decoration-line:none;text-decoration-style:solid;text-decoration-color:#000000;letter-spacing:normal;word-spacing:normal;text-transform:none;writing-mode:lr-tb;direction:ltr;text-orientation:mixed;dominant-baseline:auto;baseline-shift:baseline;text-anchor:start;white-space:normal;shape-padding:0;clip-rule:nonzero;display:inline;overflow:visible;visibility:visible;opacity:1;isolation:auto;mix-blend-mode:normal;color-interpolation:sRGB;color-interpolation-filters:linearRGB;solid-color:#000000;solid-opacity:1;vector-effect:none;fill:#000000;fill-opacity:1;fill-rule:nonzero;stroke:none;stroke-width:1.50699997;stroke-linecap:round;stroke-linejoin:round;stroke-miterlimit:10;stroke-dasharray:none;stroke-dashoffset:0;stroke-opacity:1;filter:url(#filter6254);color-rendering:auto;image-rendering:auto;shape-rendering:auto;text-rendering:auto;enable-background:accumulate"
     d="m -175.41016,-260.16016 a 0.75357533,0.75357533 0 0 0 -0.40234,0.13086 c -1.05229,0.68999 -1.65977,1.43464 -1.82227,2.25586 -0.16249,0.82123 0.15372,1.55112 0.51563,2.1211 0.36191,0.56998 0.79375,1.04788 1.06836,1.4375 0.27461,0.38961 0.31461,0.59709 0.30078,0.64843 -0.0481,0.17852 -0.2475,0.46533 -0.60156,0.8086 -0.35406,0.34326 -0.8327,0.73363 -1.30469,1.20898 -0.94397,0.95071 -1.86566,2.3822 -1.49805,4.34571 0.34113,1.82181 0.0256,2.70411 -0.41992,3.20507 -0.44275,0.49785 -1.16579,0.71438 -1.92578,0.80078 -1.51358,0.11076 -3.07362,0.002 -3.625,-0.33984 -0.27688,-0.17144 -0.34848,-0.25827 -0.33594,-0.62305 0.0125,-0.36477 0.24055,-1.0483 0.88867,-2.00586 0.61577,-0.90997 0.65411,-1.98175 0.31055,-2.86523 -0.34355,-0.88348 -1.00889,-1.61901 -1.79492,-2.18555 -0.78603,-0.56653 -1.70069,-0.96708 -2.62695,-1.10351 -0.92627,-0.13643 -1.90985,0.002 -2.6543,0.63672 a 0.75364086,0.75364086 0 1 0 0.97851,1.14648 c 0.32306,-0.27554 0.82089,-0.38471 1.45704,-0.29101 0.63614,0.0937 1.36275,0.40002 1.96484,0.83398 0.60209,0.43396 1.07038,0.99262 1.27148,1.50976 0.2011,0.51715 0.19794,0.95409 -0.15429,1.47461 -0.73338,1.0835 -1.1179,1.96733 -1.14649,2.79883 -0.0286,0.8315 0.42921,1.57142 1.04883,1.95508 1.23923,0.76732 2.93766,0.68416 4.54492,0.56445 a 0.75357533,0.75357533 0 0 0 0.0274,-0.002 c 0.93077,-0.10372 2.07733,-0.37945 2.89843,-1.30273 0.82111,-0.92329 1.16482,-2.39419 0.77344,-4.48438 -0.26838,-1.4335 0.28536,-2.19957 1.08594,-3.00586 0.40029,-0.40314 0.8628,-0.78192 1.28516,-1.1914 0.42236,-0.40949 0.83599,-0.86007 1.00781,-1.49805 0.20607,-0.76516 -0.17199,-1.40484 -0.52539,-1.90625 -0.35341,-0.50142 -0.76121,-0.95781 -1.02735,-1.37695 -0.26613,-0.41915 -0.36588,-0.73389 -0.30859,-1.02344 0.0573,-0.28956 0.30671,-0.7211 1.16992,-1.28711 a 0.75357533,0.75357533 0 0 0 -0.42383,-1.39063 z"
     id="path60"
     inkscape:connector-curvature="0"
     transform="matrix(2.197,0,0,2.197,437,573)" />
  <path
     style="color:#000000;font-style:normal;font-variant:normal;font-weight:normal;font-stretch:normal;font-size:medium;line-height:normal;font-family:sans-serif;font-variant-ligatures:normal;font-variant-position:normal;font-variant-caps:normal;font-variant-numeric:normal;font-variant-alternates:normal;font-feature-settings:normal;text-indent:0;text-align:start;text-decoration:none;text-decoration-line:none;text-decoration-style:solid;text-decoration-color:#000000;letter-spacing:normal;word-spacing:normal;text-transform:none;writing-mode:lr-tb;direction:ltr;text-orientation:mixed;dominant-baseline:auto;baseline-shift:baseline;text-anchor:start;white-space:normal;shape-padding:0;clip-rule:nonzero;display:inline;overflow:visible;visibility:visible;opacity:1;isolation:auto;mix-blend-mode:normal;color-interpolation:sRGB;color-interpolation-filters:linearRGB;solid-color:#000000;solid-opacity:1;vector-effect:none;fill:url(#linearGradient6218);fill-opacity:1;fill-rule:nonzero;stroke:none;stroke-width:3.31087899;stroke-linecap:round;stroke-linejoin:round;stroke-miterlimit:10;stroke-dasharray:none;stroke-dashoffset:0;stroke-opacity:1;color-rendering:auto;image-rendering:auto;shape-rendering:auto;text-rendering:auto;enable-background:accumulate"
     d="M 52.503906,0.77148438 A 1.655605,1.655605 0 0 0 51.617188,1.0546875 c -2.311881,1.5159081 -3.644954,3.1527957 -4.001954,4.9570313 -0.356999,1.8042355 0.337691,3.4098605 1.132813,4.6621092 0.795122,1.252249 1.742392,2.302218 2.345703,3.158203 0.603311,0.855985 0.690534,1.30908 0.660156,1.421875 -0.105627,0.3922 -0.544397,1.021236 -1.322265,1.775391 -0.777868,0.754155 -1.828279,1.613847 -2.865235,2.658203 -2.073911,2.088712 -4.098666,5.233058 -3.291015,9.546875 0.749448,4.002517 0.05889,5.944299 -0.919922,7.044922 -0.973617,1.094778 -2.562987,1.574203 -4.234375,1.763672 -3.327353,0.244124 -6.750726,-0.0053 -7.962891,-0.75586 -0.608312,-0.376658 -0.763878,-0.563829 -0.736328,-1.365234 0.02755,-0.801405 0.525287,-2.302511 1.949219,-4.40625 1.352846,-1.999222 1.440339,-4.353915 0.685547,-6.294922 -0.754793,-1.941007 -2.216452,-3.556101 -3.94336,-4.800781 -1.726908,-1.24468 -3.736482,-2.126048 -5.771484,-2.425781 -2.035002,-0.299733 -4.196475,0.0034 -5.832031,1.398437 a 1.655605,1.655605 0 1 0 2.148437,2.519531 c 0.709741,-0.605357 1.803568,-0.846476 3.201172,-0.640625 1.397604,0.205852 2.995557,0.880566 4.318359,1.833985 1.322803,0.953418 2.351152,2.178286 2.792969,3.314453 0.441817,1.136166 0.432053,2.096647 -0.341797,3.240234 -1.610511,2.37971 -2.452838,4.322041 -2.515625,6.148438 -0.0628,1.82681 0.941436,3.452025 2.302735,4.294922 2.722596,1.685792 6.45518,1.503235 9.986328,1.240234 a 1.655605,1.655605 0 0 0 0.06055,-0.0039 c 2.044913,-0.227883 4.561273,-0.832874 6.365234,-2.861328 1.803961,-2.028455 2.561025,-5.261369 1.701172,-9.853516 -0.589642,-3.149392 0.627854,-4.832099 2.386719,-6.603516 0.879432,-0.885708 1.892388,-1.715597 2.820312,-2.615234 0.927924,-0.899637 1.837351,-1.889365 2.214844,-3.291016 0.452742,-1.681055 -0.373959,-3.089795 -1.150391,-4.191406 C 53.024349,10.822218 52.127673,9.8192963 51.542969,8.8984375 50.958265,7.9775787 50.737408,7.2904478 50.863281,6.6542969 50.989155,6.018146 51.537121,5.0677427 53.433594,3.8242188 A 1.655605,1.655605 0 0 0 52.503906,0.77148438 Z"
     id="path62"
     inkscape:connector-curvature="0" />
  <path
     style="color:#000000;font-style:normal;font-variant:normal;font-weight:normal;font-stretch:normal;font-size:medium;line-height:normal;font-family:sans-serif;font-variant-ligatures:normal;font-variant-position:normal;font-variant-caps:normal;font-variant-numeric:normal;font-variant-alternates:normal;font-feature-settings:normal;text-indent:0;text-align:start;text-decoration:none;text-decoration-line:none;text-decoration-style:solid;text-decoration-color:#000000;letter-spacing:normal;word-spacing:normal;text-transform:none;writing-mode:lr-tb;direction:ltr;text-orientation:mixed;dominant-baseline:auto;baseline-shift:baseline;text-anchor:start;white-space:normal;shape-padding:0;clip-rule:nonzero;display:inline;overflow:visible;visibility:visible;opacity:1;isolation:auto;mix-blend-mode:normal;color-interpolation:sRGB;color-interpolation-filters:linearRGB;solid-color:#000000;solid-opacity:1;vector-effect:none;fill:url(#linearGradient6220);fill-opacity:1;fill-rule:nonzero;stroke:none;stroke-width:3.31087899;stroke-linecap:round;stroke-linejoin:round;stroke-miterlimit:10;stroke-dasharray:none;stroke-dashoffset:0;stroke-opacity:1;color-rendering:auto;image-rendering:auto;shape-rendering:auto;text-rendering:auto;enable-background:accumulate"
     d="m 65.517578,45.068359 c -2.535531,0.215564 -4.861595,2.107363 -6.367187,5.34961 -0.585513,1.260884 -1.031479,1.674996 -1.423829,1.910156 -0.392349,0.23516 -0.926917,0.337936 -1.832031,0.53125 -1.810227,0.386628 -4.569587,1.423291 -7.380859,5.613281 -2.848232,4.245075 -2.997129,7.804044 -2.169922,10.205078 0.827207,2.401035 2.589844,3.660157 2.589844,3.660157 a 1.6557588,1.6557588 0 1 0 1.910156,-2.705079 c 0,0 -0.877049,-0.604866 -1.369141,-2.033203 -0.492092,-1.428336 -0.639899,-3.663018 1.789063,-7.283203 2.465921,-3.67527 3.743071,-3.881466 5.322266,-4.21875 0.789597,-0.168642 1.788314,-0.298268 2.841796,-0.929687 1.053483,-0.631419 1.96446,-1.71851 2.72461,-3.355469 1.185733,-2.553439 2.534446,-3.35077 3.646484,-3.445312 1.112039,-0.09454 2.382659,0.533017 3.427734,2.037109 1.398507,2.01347 3.068839,3.824552 5.355469,4.498047 2.28663,0.673494 4.943347,-0.219173 7.166016,-2.675782 a 1.655605,1.655605 0 1 0 -2.455078,-2.220703 c -1.709961,1.889937 -2.724778,2.030147 -3.775391,1.720703 -1.050613,-0.309443 -2.382706,-1.498295 -3.572266,-3.210937 -1.54299,-2.220702 -3.892203,-3.66283 -6.427734,-3.447266 z"
     id="path64"
     inkscape:connector-curvature="0" />
</svg>
