<svg version="1.1" viewBox="0 0 75 52.55" xmlns="http://www.w3.org/2000/svg" xmlns:xlink="http://www.w3.org/1999/xlink">
 <defs>
  <linearGradient id="linearGradientSlvr" x1="-1869" x2="-1869" y1="794.4" y2="828" gradientTransform="matrix(1.301,0,0,1.301,1365,-35.3)" gradientUnits="userSpaceOnUse">
   <stop style="stop-color:#696969" offset="0"/>
   <stop style="stop-color:#c7c7c9" offset=".17"/>
   <stop style="stop-color:#f9f9ff" offset=".36"/>
   <stop style="stop-color:#ccccce" offset=".73"/>
   <stop style="stop-color:#696969" offset="1"/>
  </linearGradient>
  <linearGradient id="linearGradient6212" x1="-193.1" x2="-160.2" y1="-244.3" y2="-244.3" gradientTransform="matrix(1.478 0 0 1.478 295.2 386.4)" gradientUnits="userSpaceOnUse" xlink:href="#linearGradientSlvr"/>
  <linearGradient id="linearGradient6214" x1="-168.3" x2="-149.4" y1="-249.2" y2="-249.2" gradientTransform="matrix(1.478 0 0 1.478 295.2 386.4)" gradientUnits="userSpaceOnUse" xlink:href="#linearGradientSlvr"/>
  <linearGradient id="linearGradient6216" x1="-197.7" x2="-167.1" y1="-242.7" y2="-242.7" gradientTransform="matrix(1.478 0 0 1.478 295.2 386.4)" gradientUnits="userSpaceOnUse" xlink:href="#linearGradientSlvr"/>
  <linearGradient id="linearGradient6218" x1="-191.3" x2="-173.9" y1="-251.2" y2="-251.2" gradientTransform="matrix(1.478 0 0 1.478 295.2 386.4)" gradientUnits="userSpaceOnUse" xlink:href="#linearGradientSlvr"/>
  <linearGradient id="linearGradient6220" x1="-178" x2="-161.5" y1="-234" y2="-234" gradientTransform="matrix(1.478 0 0 1.478 295.2 386.4)" gradientUnits="userSpaceOnUse" xlink:href="#linearGradientSlvr"/>
  <filter id="filter6224" x="-.01244" y="-.01159" width="1.025" height="1.023" style="color-interpolation-filters:sRGB">
   <feGaussianBlur stdDeviation="0.08217879"/>
  </filter>
  <filter id="filter6230" x="-.03613" y="-.03588" width="1.072" height="1.072" style="color-interpolation-filters:sRGB">
   <feGaussianBlur stdDeviation="0.47315632"/>
  </filter>
  <filter id="filter6236" x="-.0543" y="-.1854" width="1.109" height="1.371" style="color-interpolation-filters:sRGB">
   <feGaussianBlur stdDeviation="0.65642228"/>
  </filter>
  <filter id="filter6242" x="-.06251" y="-.08489" width="1.125" height="1.17" style="color-interpolation-filters:sRGB">
   <feGaussianBlur stdDeviation="0.39094156"/>
  </filter>
  <filter id="filter6248" x="-.04696" y="-.04909" width="1.094" height="1.098" style="color-interpolation-filters:sRGB">
   <feGaussianBlur stdDeviation="0.3391464"/>
  </filter>
  <filter id="filter6254" x="-.04975" y="-.04637" width="1.1" height="1.093" style="color-interpolation-filters:sRGB">
   <feGaussianBlur stdDeviation="0.32871516"/>
  </filter>
 </defs>
 <path d="m62.12 30.32 3.117-1.796 1.918-13.14 3.971-2.289c0.7452-0.4294 2.539-3.107 1.904-4.204-0.6356-1.097-3.856-0.8873-4.601-0.4579l-3.971 2.289-12.36-4.91-3.117 1.796 9.737 6.421-4.852 2.796-3.479-1.165-2.845 1.639 4.62 3.615 0.8265 5.801 2.845-1.639 0.7296-3.59 4.852-2.796z" style="fill:#290a43;stroke-width:.5569"/>
 <path d="m36.99 11.4c0.65-2.414-6.22-5.198-0.5569-8.911l-0.0841-0.4484c-0.7074-0.06459-1.42-0.1086-2.143-0.1086-9.09 0-16.97 5.188-20.84 12.76l0.2278 0.04789c3.156-2.692 11.22 2.455 8.354 6.684-4.084 6.033 0.948 6.471 5.569 6.126 2.507-0.2785 5.538-1.459 4.456-7.241-0.9402-5.021 4.363-6.497 5.012-8.911z" style="fill:#290a43;stroke-width:.5569"/>
 <path d="m55.32 35.34c-2.622 2.842-4.9 1.319-6.629-1.17-1.741-2.507-4.873-2.785-6.684 1.114-1.811 3.899-3.689 0.2785-7.241 5.569-3.414 5.089-0.2624 7.602-0.0167 7.785 9.078-0.2066 16.88-5.581 20.57-13.3z" style="fill:#290a43"/>
 <path transform="matrix(1.478 0 0 1.478 295.2 386.4)" d="m-176.9-260.2c-9.151 0-16.58 7.431-16.58 16.58 0 9.151 7.436 16.58 16.58 16.58 8.209 0 15.04-5.975 16.35-13.82a0.7536 0.7536 0 1 0-1.486-0.25c-1.196 7.129-7.388 12.56-14.87 12.56-8.334 0-15.08-6.739-15.08-15.08 0-8.337 6.739-15.08 15.08-15.08 2.586 0 5.015 0.6506 7.141 1.795a0.7537 0.7537 0 1 0 0.7129-1.328c-2.338-1.259-5.015-1.973-7.854-1.973z" style="color-rendering:auto;color:#000000;fill:#000000;filter:url(#filter6230);isolation:auto;mix-blend-mode:normal;opacity:.95;shape-rendering:auto;solid-color:#000000"/>
 <path d="m34.32 0.7236c-13.53 0-24.51 10.99-24.51 24.51-7e-7 13.53 10.99 24.51 24.51 24.51 12.13 0 22.23-8.831 24.17-20.42a1.114 1.114 0 1 0-2.197-0.3692c-1.768 10.54-10.92 18.57-21.97 18.57-12.32 0-22.28-9.962-22.28-22.28 0-12.32 9.961-22.28 22.28-22.28 3.822 0 7.412 0.9602 10.55 2.652a1.114 1.114 0 1 0 1.055-1.962c-3.456-1.861-7.414-2.917-11.61-2.917z" style="color-rendering:auto;color:#000000;fill:url(#linearGradient6212);isolation:auto;mix-blend-mode:normal;shape-rendering:auto;solid-color:#000000"/>
 <path transform="matrix(1.478 0 0 1.478 295.2 386.4)" d="m-169.5-239.9c-1.154 0.0981-2.213 0.9598-2.898 2.436-0.2665 0.5739-0.4698 0.7621-0.6484 0.8691-0.1786 0.107-0.422 0.1542-0.834 0.2422-0.824 0.176-2.08 0.6476-3.359 2.555-1.296 1.932-1.363 3.552-0.9863 4.645s1.178 1.666 1.178 1.666a0.7536 0.7536 0 1 0 0.8691-1.23s-0.3991-0.2756-0.623-0.9258c-0.224-0.6501-0.2911-1.669 0.8144-3.316 1.122-1.673 1.705-1.766 2.424-1.92 0.3594-0.0768 0.8135-0.1345 1.293-0.4219s0.8942-0.7822 1.24-1.527c0.5397-1.162 1.152-1.525 1.658-1.568 0.5058-0.043 1.085 0.2441 1.561 0.9277 0.6366 0.9165 1.397 1.74 2.438 2.047 1.041 0.3066 2.252-0.1006 3.264-1.219a0.7536 0.7536 0 1 0-1.117-1.012c-0.7783 0.8602-1.242 0.926-1.721 0.7852-0.4782-0.1408-1.084-0.6834-1.625-1.463-0.7023-1.011-1.772-1.666-2.926-1.568z" style="color-rendering:auto;color:#000000;fill:#000000;filter:url(#filter6242);isolation:auto;mix-blend-mode:normal;shape-rendering:auto;solid-color:#000000"/>
 <path transform="matrix(1.478 0 0 1.478 295.2 386.4)" d="m-164.9-257.9a0.7536 0.7536 0 0 0-0.3613 0.1016l-2.107 1.215a0.7536 0.7536 0 0 0-0.0391 1.281l5.568 3.672-1.932 1.113-2.031-0.6797a0.7536 0.7536 0 0 0-0.6172 0.0606l-1.924 1.109a0.7536 0.7536 0 0 0-0.0879 1.246l2.887 2.26 0.5156 3.625a0.7536 0.7536 0 0 0 1.123 0.5449l1.924-1.107a0.7536 0.7536 0 0 0 0.3633-0.5039l0.4258-2.096 1.934-1.115 0.4024 6.652a0.7536 0.7536 0 0 0 1.127 0.6074l2.109-1.215a0.7536 0.7536 0 0 0 0.3691-0.5449l1.246-8.527 2.371-1.365c0.3063-0.1764 0.4765-0.3834 0.6856-0.6445s0.416-0.5699 0.5957-0.9043c0.1797-0.3344 0.3326-0.6905 0.416-1.07s0.1165-0.8222-0.1348-1.256c-0.2511-0.4334-0.6508-0.6245-1.021-0.7422-0.3707-0.1177-0.755-0.1637-1.135-0.1758-0.3798-0.012-0.751 0.0125-1.082 0.0625s-0.5958 0.0929-0.9023 0.2695l-2.371 1.367-8.023-3.188a0.7536 0.7536 0 0 0-0.293-0.0527zm0.0762 1.588 8.021 3.188a0.7536 0.7536 0 0 0 0.6543-0.0469l2.688-1.549c-0.0545 0.0314 0.1422-0.0508 0.375-0.0859s0.5269-0.0558 0.8086-0.0469c0.2817 9e-3 0.554 0.0501 0.7285 0.1055 0.1745 0.0554 0.2099 0.1248 0.1738 0.0625-0.0363-0.0626 6e-3 -2e-3 -0.0332 0.1758-0.039 0.1776-0.1404 0.4321-0.2734 0.6797-0.133 0.2476-0.2965 0.4923-0.4434 0.6758s-0.3178 0.3124-0.2637 0.2812l-2.686 1.549a0.7536 0.7536 0 0 0-0.3711 0.5449l-1.244 8.527-0.7383 0.4258-0.4004-6.652a0.7536 0.7536 0 0 0-1.129-0.6074l-3.283 1.891a0.7536 0.7536 0 0 0-0.3613 0.5039l-0.4277 2.096-0.6641 0.3828-0.4023-2.822a0.7536 0.7536 0 0 0-0.2812-0.4863l-2.246-1.758 0.6621-0.3828 2.033 0.6816a0.7536 0.7536 0 0 0 0.6152-0.0625l3.283-1.893a0.7536 0.7536 0 0 0 0.0391-1.281l-5.568-3.672z" style="color-rendering:auto;color:#000000;fill:#000000;filter:url(#filter6248);isolation:auto;mix-blend-mode:normal;shape-rendering:auto;solid-color:#000000"/>
 <path d="m52.07 4.7a1.114 1.114 0 0 0-0.5322 0.1485l-3.117 1.796a1.114 1.114 0 0 0-0.0565 1.895l8.231 5.427-2.855 1.645-3.004-1.005a1.114 1.114 0 0 0-0.9093 0.09066l-2.846 1.639a1.114 1.114 0 0 0-0.1301 1.842l4.268 3.34 0.7634 5.357a1.114 1.114 0 0 0 1.658 0.8081l2.845-1.64a1.114 1.114 0 0 0 0.5361-0.7424l0.6294-3.098 2.858-1.646 0.5939 9.83a1.114 1.114 0 0 0 1.667 0.8988l3.117-1.796a1.114 1.114 0 0 0 0.5466-0.8041l1.841-12.6 3.503-2.02c0.4526-0.2608 0.7054-0.5667 1.014-0.9526 0.309-0.3859 0.6148-0.8434 0.8804-1.338 0.2656-0.4942 0.493-1.019 0.6163-1.581 0.1233-0.5613 0.1717-1.216-0.1997-1.857-0.3711-0.6406-0.9605-0.9232-1.508-1.097-0.548-0.1739-1.118-0.2411-1.679-0.2589-0.5614-0.0178-1.11 0.0181-1.599 0.09198-0.4892 0.07388-0.8806 0.1383-1.334 0.3994l-3.506 2.021-11.86-4.711a1.114 1.114 0 0 0-0.4349-0.07884zm0.113 2.347 11.86 4.712a1.114 1.114 0 0 0 0.9671-0.07096l3.971-2.289c-0.08057 0.04644 0.2105-0.0755 0.5545-0.1275 0.344-0.05195 0.7794-0.08153 1.196-0.06833 0.4164 0.0132 0.8182 0.07317 1.076 0.155 0.258 0.08188 0.3082 0.184 0.2549 0.09198-0.05368-0.09258 0.009015-0.001076-0.04864 0.2615-0.05765 0.2626-0.2054 0.6393-0.4021 1.005-0.1966 0.3659-0.4399 0.7275-0.657 0.9986-0.2171 0.2711-0.4677 0.4613-0.3876 0.4152l-3.972 2.289a1.114 1.114 0 0 0-0.5453 0.8042l-1.841 12.6-1.091 0.6281-0.5939-9.831a1.114 1.114 0 0 0-1.667-0.8974l-4.852 2.796a1.114 1.114 0 0 0-0.5348 0.7437l-0.6294 3.097-0.9842 0.5676-0.5939-4.172a1.114 1.114 0 0 0-0.4165-0.7201l-3.319-2.598 0.9802-0.565 3.004 1.005a1.114 1.114 0 0 0 0.9093-0.09066l4.852-2.796a1.114 1.114 0 0 0 0.0565-1.895l-8.229-5.428z" style="color-rendering:auto;color:#000000;fill:url(#linearGradient6214);isolation:auto;mix-blend-mode:normal;opacity:.99;shape-rendering:auto;solid-color:#000000"/>
 <path transform="matrix(1.478 0 0 1.478 295.2 386.4)" d="m-175.2-260.4a0.7536 0.7536 0 0 0-0.4043 0.1289c-1.052 0.69-1.66 1.435-1.822 2.256-0.1625 0.8212 0.1537 1.553 0.5156 2.123s0.7938 1.048 1.068 1.438c0.2746 0.3896 0.3146 0.5951 0.3008 0.6465-0.0481 0.1785-0.2475 0.4653-0.6016 0.8086-0.3541 0.3433-0.8327 0.7356-1.305 1.211-0.944 0.9507-1.866 2.38-1.498 4.344 0.3411 1.822 0.0256 2.706-0.4199 3.207-0.4433 0.4985-1.167 0.7146-1.928 0.8008-1.513 0.1104-3.072-5.8e-4 -3.623-0.3418-0.2769-0.1714-0.3485-0.2563-0.3359-0.6211 0.0125-0.3648 0.2406-1.048 0.8887-2.006 0.6158-0.91 0.6561-1.982 0.3125-2.865-0.3436-0.8835-1.009-1.619-1.795-2.186-0.786-0.5665-1.701-0.9671-2.627-1.104-0.9263-0.1364-1.912 2e-3 -2.656 0.6367a0.7536 0.7536 0 1 0 0.9785 1.146c0.323-0.2755 0.8209-0.3867 1.457-0.293 0.6361 0.0937 1.365 0.402 1.967 0.8359 0.6021 0.434 1.07 0.9926 1.271 1.51 0.2011 0.5171 0.196 0.9521-0.1562 1.473-0.7334 1.084-1.118 1.967-1.146 2.799-0.0286 0.8315 0.4292 1.571 1.049 1.955 1.239 0.7673 2.938 0.6861 4.545 0.5664a0.7536 0.7536 0 0 0 0.0274-4e-3c0.9308-0.1037 2.077-0.3775 2.898-1.301 0.8211-0.9233 1.167-2.396 0.7754-4.486-0.2673-1.432 0.2858-2.2 1.086-3.006 0.4003-0.4031 0.8608-0.78 1.283-1.189 0.4224-0.4095 0.836-0.8601 1.008-1.498 0.2061-0.7652-0.17-1.407-0.5234-1.908-0.3534-0.5014-0.7612-0.9578-1.027-1.377-0.2661-0.4191-0.3678-0.7319-0.3106-1.021 0.0573-0.2896 0.3067-0.723 1.17-1.289a0.7536 0.7536 0 0 0-0.4219-1.389z" style="color-rendering:auto;color:#000000;fill:#000000;filter:url(#filter6224);isolation:auto;mix-blend-mode:normal;shape-rendering:auto;solid-color:#000000"/>
 <path transform="matrix(1.478 0 0 1.478 295.2 386.4)" d="m-192.8-246.5a0.7536 0.7536 0 0 0-0.4043 0.125c-1.539 0.9773-2.787 1.971-3.645 3.023s-1.347 2.224-1.143 3.416c0.2348 1.366 1.452 2.323 3.111 2.857 1.659 0.5342 3.865 0.7157 6.529 0.498 5.329-0.4353 12.49-2.497 20.45-6.971a0.7538 0.7538 0 1 0-0.7383-1.314c-7.798 4.381-14.78 6.371-19.84 6.783-2.526 0.2063-4.569 0.0115-5.945-0.4316-1.376-0.4431-1.981-1.064-2.086-1.676-0.11-0.6419 0.1272-1.359 0.8223-2.211 0.6951-0.8524 1.829-1.778 3.285-2.703a0.7536 0.7536 0 0 0-0.4023-1.396z" style="color-rendering:auto;color:#000000;fill:#000000;filter:url(#filter6236);isolation:auto;mix-blend-mode:normal;opacity:.9627;shape-rendering:auto;solid-color:#000000"/>
 <path d="m10.78 20.28a1.114 1.114 0 0 0-0.5992 0.1826c-2.275 1.444-4.119 2.914-5.387 4.469s-1.989 3.288-1.687 5.05c0.347 2.019 2.146 3.433 4.598 4.223 2.452 0.7896 5.712 1.059 9.65 0.7371 7.876-0.6434 18.46-3.692 30.23-10.3a1.114 1.114 0 1 0-1.092-1.942c-11.53 6.476-21.85 9.416-29.32 10.03-3.733 0.305-6.751 0.01769-8.785-0.6373-2.033-0.6547-2.929-1.574-3.085-2.478v-0.001346c-0.1621-0.9484 0.1898-2.006 1.217-3.265 1.027-1.26 2.702-2.629 4.855-3.996a1.114 1.114 0 0 0-0.5939-2.063z" style="color-rendering:auto;color:#000000;fill:url(#linearGradient6216);isolation:auto;mix-blend-mode:normal;shape-rendering:auto;solid-color:#000000"/>
 <path transform="matrix(1.478 0 0 1.478 295.2 386.4)" d="m-175.4-260.2a0.7536 0.7536 0 0 0-0.4023 0.1309c-1.052 0.69-1.66 1.435-1.822 2.256-0.1625 0.8212 0.1537 1.551 0.5156 2.121s0.7938 1.048 1.068 1.438c0.2746 0.3896 0.3146 0.5971 0.3008 0.6484-0.0481 0.1785-0.2475 0.4653-0.6016 0.8086-0.3541 0.3433-0.8327 0.7336-1.305 1.209-0.944 0.9507-1.866 2.382-1.498 4.346 0.3411 1.822 0.0256 2.704-0.4199 3.205-0.4428 0.4978-1.166 0.7144-1.926 0.8008-1.514 0.1108-3.074 2e-3 -3.625-0.3398-0.2769-0.1714-0.3485-0.2583-0.3359-0.623 0.0125-0.3648 0.2406-1.048 0.8887-2.006 0.6158-0.91 0.6541-1.982 0.3106-2.865-0.3436-0.8835-1.009-1.619-1.795-2.186-0.786-0.5665-1.701-0.9671-2.627-1.104-0.9263-0.1364-1.91 2e-3 -2.654 0.6367a0.7536 0.7536 0 1 0 0.9785 1.146c0.3231-0.2755 0.8209-0.3847 1.457-0.291 0.6361 0.0937 1.363 0.4 1.965 0.834s1.07 0.9926 1.271 1.51c0.2011 0.5172 0.1979 0.9541-0.1543 1.475-0.7334 1.084-1.118 1.967-1.146 2.799-0.0286 0.8315 0.4292 1.571 1.049 1.955 1.239 0.7673 2.938 0.6842 4.545 0.5644a0.7536 0.7536 0 0 0 0.0274-2e-3c0.9308-0.1037 2.077-0.3794 2.898-1.303 0.8211-0.9233 1.165-2.394 0.7734-4.484-0.2684-1.434 0.2854-2.2 1.086-3.006 0.4003-0.4031 0.8628-0.7819 1.285-1.191 0.4224-0.4095 0.836-0.8601 1.008-1.498 0.2061-0.7652-0.172-1.405-0.5254-1.906-0.3534-0.5014-0.7612-0.9578-1.027-1.377-0.2661-0.4192-0.3659-0.7339-0.3086-1.023 0.0573-0.2896 0.3067-0.7211 1.17-1.287a0.7536 0.7536 0 0 0-0.4238-1.391z" style="color-rendering:auto;color:#000000;fill:#000000;filter:url(#filter6254);isolation:auto;mix-blend-mode:normal;shape-rendering:auto;solid-color:#000000"/>
 <path d="m36.53 1.409a1.114 1.114 0 0 0-0.5965 0.1905c-1.555 1.02-2.452 2.121-2.692 3.335s0.2272 2.294 0.7621 3.136c0.5349 0.8425 1.172 1.549 1.578 2.125 0.4059 0.5759 0.4646 0.8807 0.4441 0.9566-0.07106 0.2639-0.3662 0.687-0.8896 1.194-0.5233 0.5074-1.23 1.086-1.928 1.788-1.395 1.405-2.757 3.521-2.214 6.423 0.5042 2.693 0.03962 3.999-0.6189 4.739-0.655 0.7365-1.724 1.059-2.849 1.187-2.238 0.1642-4.542-0.003566-5.357-0.5085-0.4092-0.2534-0.5139-0.3793-0.4954-0.9185s0.3534-1.549 1.311-2.964c0.9101-1.345 0.969-2.929 0.4612-4.235-0.5078-1.306-1.491-2.392-2.653-3.23-1.162-0.8374-2.514-1.43-3.883-1.632s-2.823 0.002287-3.924 0.9408a1.114 1.114 0 1 0 1.445 1.695c0.4775-0.4073 1.213-0.5695 2.154-0.431 0.9402 0.1385 2.015 0.5924 2.905 1.234 0.8899 0.6414 1.582 1.465 1.879 2.23 0.2972 0.7644 0.2907 1.411-0.2299 2.18-1.083 1.601-1.65 2.908-1.692 4.136-0.04225 1.229 0.6334 2.322 1.549 2.889 1.832 1.134 4.343 1.011 6.718 0.8344a1.114 1.114 0 0 0 0.04074-0.002624c1.376-0.1533 3.069-0.5603 4.282-1.925 1.214-1.365 1.723-3.54 1.144-6.629-0.3967-2.119 0.4224-3.251 1.606-4.443 0.5916-0.5959 1.273-1.154 1.897-1.759 0.6243-0.6052 1.236-1.271 1.49-2.214 0.3046-1.131-0.2516-2.079-0.7739-2.82-0.5223-0.7411-1.126-1.416-1.519-2.035s-0.5419-1.082-0.4573-1.51c0.08468-0.428 0.4533-1.067 1.729-1.904a1.114 1.114 0 0 0-0.6254-2.054z" style="color-rendering:auto;color:#000000;fill:url(#linearGradient6218);isolation:auto;mix-blend-mode:normal;shape-rendering:auto;solid-color:#000000"/>
 <path d="m45.29 31.21c-1.706 0.145-3.271 1.418-4.284 3.599-0.3939 0.8483-0.6939 1.127-0.9579 1.285-0.264 0.1582-0.6236 0.2273-1.233 0.3574-1.218 0.2601-3.074 0.9575-4.965 3.776-1.916 2.856-2.016 5.25-1.46 6.865 0.5565 1.615 1.742 2.462 1.742 2.462a1.114 1.114 0 1 0 1.285-1.82s-0.59-0.4069-0.9211-1.368-0.4305-2.464 1.204-4.9c1.659-2.473 2.518-2.611 3.581-2.838 0.5312-0.1135 1.203-0.2007 1.912-0.6254 0.7087-0.4248 1.322-1.156 1.833-2.257 0.7977-1.718 1.705-2.254 2.453-2.318 0.7481-0.0636 1.603 0.3586 2.306 1.37 0.9408 1.355 2.065 2.573 3.603 3.026 1.538 0.4531 3.326-0.1474 4.821-1.8a1.114 1.114 0 1 0-1.652-1.494c-1.15 1.271-1.833 1.366-2.54 1.158-0.7068-0.2082-1.603-1.008-2.403-2.16-1.038-1.494-2.618-2.464-4.324-2.319z" style="color-rendering:auto;color:#000000;fill:url(#linearGradient6220);isolation:auto;mix-blend-mode:normal;shape-rendering:auto;solid-color:#000000"/>
</svg>
