<?xml version="1.0" encoding="UTF-8" standalone="no"?>
<svg
   xmlns:dc="http://purl.org/dc/elements/1.1/"
   xmlns:cc="http://creativecommons.org/ns#"
   xmlns:rdf="http://www.w3.org/1999/02/22-rdf-syntax-ns#"
   xmlns:svg="http://www.w3.org/2000/svg"
   xmlns="http://www.w3.org/2000/svg"
   xmlns:xlink="http://www.w3.org/1999/xlink"
   xmlns:sodipodi="http://sodipodi.sourceforge.net/DTD/sodipodi-0.dtd"
   xmlns:inkscape="http://www.inkscape.org/namespaces/inkscape"
   version="1.1"
   viewBox="0 0 100.01255 100.17"
   id="svg51"
   sodipodi:docname="i85.svg"
   inkscape:version="0.92.2 (5c3e80d, 2017-08-06)"
   width="100.01255"
   height="100.17">
  <metadata
     id="metadata55">
    <rdf:RDF>
      <cc:Work
         rdf:about="">
        <dc:format>image/svg+xml</dc:format>
        <dc:type
           rdf:resource="http://purl.org/dc/dcmitype/StillImage" />
        <dc:title></dc:title>
      </cc:Work>
    </rdf:RDF>
  </metadata>
  <sodipodi:namedview
     pagecolor="#ffffff"
     bordercolor="#666666"
     borderopacity="1"
     objecttolerance="10"
     gridtolerance="10"
     guidetolerance="10"
     inkscape:pageopacity="0"
     inkscape:pageshadow="2"
     inkscape:window-width="2466"
     inkscape:window-height="1002"
     id="namedview53"
     showgrid="false"
     inkscape:snap-global="false"
     inkscape:zoom="4.7152848"
     inkscape:cx="70.914837"
     inkscape:cy="42.857165"
     inkscape:window-x="0"
     inkscape:window-y="0"
     inkscape:window-maximized="0"
     inkscape:current-layer="svg51"
     fit-margin-top="0"
     fit-margin-left="0"
     fit-margin-right="0"
     fit-margin-bottom="0" />
  <defs
     id="defs36">
    <linearGradient
       id="linearGradientSlvr"
       x1="-1869"
       x2="-1869"
       y1="794.40002"
       y2="828"
       gradientTransform="matrix(1.301,0,0,1.301,1365,-35.3)"
       gradientUnits="userSpaceOnUse">
      <stop
         style="stop-color:#696969"
         offset="0"
         id="stop2" />
      <stop
         style="stop-color:#c7c7c9"
         offset=".17"
         id="stop4" />
      <stop
         style="stop-color:#f9f9ff"
         offset=".36"
         id="stop6" />
      <stop
         style="stop-color:#ccccce"
         offset=".73"
         id="stop8" />
      <stop
         style="stop-color:#696969"
         offset="1"
         id="stop10" />
    </linearGradient>
    <linearGradient
       id="linearGradient7728"
       x1="-1405"
       x2="-1405"
       y1="704.40002"
       y2="781.40002"
       gradientTransform="scale(0.7835,1.276)"
       gradientUnits="userSpaceOnUse">
      <stop
         style="stop-color:#1c072d"
         offset="0"
         id="stop13" />
      <stop
         style="stop-color:#5700aa"
         offset=".29"
         id="stop15" />
      <stop
         style="stop-color:#4b127b"
         offset=".64"
         id="stop17" />
      <stop
         style="stop-color:#290a43"
         offset="1"
         id="stop19" />
    </linearGradient>
    <linearGradient
       id="linearGradient19443-2-3"
       x2="1.0060968"
       gradientTransform="matrix(43.96875,-62.79,62.79,43.96875,28.163669,81.48)"
       gradientUnits="userSpaceOnUse"
       xlink:href="#linearGradient7728"
       y2="-0.13599367"
       x1="0.00047940089"
       y1="0.15503152" />
    <linearGradient
       id="linearGradient19281-1-0"
       x2="0.92075026"
       gradientTransform="matrix(56.49,-80.6925,80.6925,56.49,21.863669,90.43125)"
       gradientUnits="userSpaceOnUse"
       xlink:href="#linearGradientSlvr"
       y2="-0.29584703"
       x1="0.079180136"
       y1="0.29330683" />
    <linearGradient
       id="linearGradient19279-7-1"
       x2="0.93378907"
       gradientTransform="matrix(80.6925,-52.395,52.395,80.6925,9.7886694,76.2825)"
       gradientUnits="userSpaceOnUse"
       xlink:href="#linearGradientSlvr"
       x1="0.053558361"
       y1="-0.27272341"
       y2="0.2881617" />
    <linearGradient
       id="linearGradient12686"
       x1="391.62314"
       x2="411.59604"
       y1="72.187233"
       y2="87.214355"
       gradientUnits="userSpaceOnUse"
       xlink:href="#linearGradientSlvr"
       gradientTransform="matrix(2.625,0,0,2.625,-1004.2488,-158.9175)" />
    <clipPath
       id="clipPath12714">
      <path
         d="m 1266,524.2 c 0,15.85 12.85,28.69 28.69,28.69 15.85,0 28.69,-12.85 28.69,-28.69 0,-15.85 -12.85,-28.69 -28.69,-28.69 -15.85,0 -28.69,12.85 -28.69,28.69"
         style="fill:url(#linearGradient12718);stroke-width:1.01199996"
         id="path26"
         inkscape:connector-curvature="0" />
    </clipPath>
    <linearGradient
       id="linearGradient12718"
       x2="1"
       gradientTransform="matrix(32.92,-47.01,47.01,32.92,1278,547.7)"
       gradientUnits="userSpaceOnUse"
       xlink:href="#linearGradient7728" />
    <filter
       id="filter12720"
       x="-0.01138"
       y="-0.01269"
       width="1.023"
       height="1.025"
       style="color-interpolation-filters:sRGB">
      <feGaussianBlur
         stdDeviation="0.34350575"
         id="feGaussianBlur30" />
    </filter>
    <filter
       id="filter12803"
       x="-0.01056"
       y="-0.01389"
       width="1.021"
       height="1.028"
       style="color-interpolation-filters:sRGB">
      <feGaussianBlur
         stdDeviation="0.090821446"
         id="feGaussianBlur33" />
    </filter>
  </defs>
  <path
     inkscape:connector-curvature="0"
     id="path38"
     style="fill:url(#linearGradient19443-2-3);stroke-width:1.35082495"
     d="m 11.888669,50.085 c 0,21.16275 17.154375,38.325 38.325,38.325 21.16275,0 38.325,-17.157 38.325,-38.325 0,-21.165375 -17.157,-38.325 -38.325,-38.325 -21.16275,0 -38.325,17.154375 -38.325,38.325" />
  <path
     inkscape:connector-curvature="0"
     id="path40"
     style="opacity:0.89367299;fill:#000000;stroke-width:0.64490002;filter:url(#filter12803)"
     d="m 394.62366,86.258023 c 0.4514,0.0639 0.9029,0.0639 1.354,0.1283 -0.0645,0.3225 -0.0645,0.6449 -0.3225,0.7094 -0.3218,0.129 -0.7088,-0.0645 -1.096,0 0,-0.258 0,-0.5159 0.0645,-0.8377 z m 13.54,-0.129 c 0,0.2573 0.0645,0.5798 0.0645,0.8378 -0.3863,-0.0645 -0.8378,0.129 -1.16,-0.0645 -0.2573,-0.129 -0.2573,-0.3869 -0.3218,-0.7088 0.5153,0.0645 0.9667,0 1.418,-0.0645 z m 2.965,-1.934 c -0.0645,0.9029 -0.0645,1.805 -0.129,2.772 0,0.3224 -0.0645,0.6443 -0.258,0.7088 -0.1935,0.0645 -0.7088,0 -0.9022,0 -0.258,0 -0.7088,0.0645 -0.9022,0 -0.1935,-0.0645 -0.1935,-0.4508 -0.258,-0.7088 0,-0.3225 -0.0645,-0.5804 -0.0645,-0.9022 1.16,-0.258 2.062,-0.8384 2.514,-1.87 z m -19.47,0 c 0.5153,0.9674 1.354,1.612 2.578,1.87 0,0.3218 -0.0645,0.5798 -0.0645,0.9022 0,0.258 0,0.6443 -0.258,0.7088 -0.1935,0.0645 -0.7088,0 -0.9667,0 -0.2579,0 -0.7094,0.0645 -0.9022,0 -0.3225,-0.129 -0.258,-1.16 -0.3225,-1.611 0,-0.3225 0,-0.6449 -0.0645,-0.9022 z m 16.24,-4.834 c -0.7094,0 -1.16,0.0645 -1.676,0.2573 -0.3863,0.129 -0.9667,0.3869 -1.031,0.9029 0,0.3218 0.1935,0.7732 0.4514,0.9667 0.2573,0.1935 0.7088,0.3218 1.16,0.3218 1.096,0 2.191,-0.3218 2.836,-0.9022 0.1935,-0.129 0.5159,-0.4508 0.4514,-0.8377 0,-0.1935 -0.1935,-0.3225 -0.3225,-0.387 -0.387,-0.2573 -1.031,-0.3218 -1.612,-0.3218 z m -13.21,0 c -0.4508,0 -0.8378,0 -1.225,0.1283 -0.3218,0.0645 -0.7088,0.258 -0.7733,0.5159 -0.0645,0.3225 0.258,0.6443 0.4514,0.8377 0.6443,0.5804 1.804,0.9022 2.9,0.9022 0.258,0 0.6449,-0.0639 0.8378,-0.1283 0.387,-0.129 0.8384,-0.7094 0.7739,-1.225 -0.0645,-0.1935 -0.258,-0.387 -0.4514,-0.5159 -0.5798,-0.387 -1.354,-0.5153 -2.191,-0.5153 z m 7.026,-6.381 c -0.5798,0 -1.16,0 -1.74,0.0645 -1.612,0.0645 -3.03,0.0645 -4.512,0.258 -0.7094,1.096 -1.16,2.449 -1.612,3.803 4.963,0.0639 10.06,0.0639 15.08,0 -0.3225,-1.096 -0.6449,-1.999 -1.096,-3.03 -0.129,-0.129 -0.387,-0.7732 -0.5804,-0.8377 -0.0645,-0.0645 -0.258,0 -0.4508,-0.0645 -1.547,-0.0645 -3.352,-0.1935 -5.092,-0.1935 z m 0.129,-0.9667 c 1.031,0 2.062,0.129 3.029,0.1935 1.096,0.129 2.256,0.258 2.901,0.9022 0.1935,0.1935 0.3863,0.5159 0.5153,0.8377 0.5159,0.8384 0.9029,1.805 1.289,2.836 0.0645,-0.9022 1.999,-0.9667 2.127,-0.0645 0.0645,0.3225 -0.2573,0.5153 -0.5153,0.6443 -0.258,0.0645 -0.6449,0.129 -0.9022,0.0645 -0.1935,-0.0645 -0.4514,-0.258 -0.5159,-0.129 -0.0645,0.0645 0.129,0.1935 0.1935,0.258 0.258,0.258 0.4514,0.4514 0.7088,0.7094 0.258,0.3218 0.6449,0.7088 0.7739,1.096 0.129,0.4508 0,1.225 -0.0645,1.676 -0.0645,0.5159 -0.0645,1.096 -0.129,1.612 -0.129,1.611 -0.9667,2.578 -2.32,2.965 -0.4514,0.129 -0.9667,0.129 -1.547,0.1935 -0.9667,0.0645 -1.934,0.129 -2.965,0.129 h -5.866 c -1.031,0 -2.127,-0.0645 -3.094,-0.129 -0.5804,-0.0645 -1.096,-0.0645 -1.547,-0.1935 -1.354,-0.387 -2.191,-1.289 -2.32,-2.965 0,-0.5159 -0.129,-1.096 -0.129,-1.612 -0.0645,-0.5153 -0.129,-1.16 0,-1.611 0.129,-0.4514 0.4514,-0.7739 0.7088,-1.096 0.3225,-0.3218 0.6449,-0.5798 0.9029,-0.9022 -0.1935,-0.129 -0.3225,0 -0.5159,0.0645 -0.6443,0 -1.547,-0.1935 -1.483,-0.8377 0.129,-0.7733 1.999,-0.7733 2.128,0.0645 0.3863,-0.9667 0.7088,-1.998 1.289,-2.836 0.129,-0.2573 0.3225,-0.5798 0.5159,-0.7732 0.6443,-0.6443 1.612,-0.7732 2.707,-0.8377 0.5798,-0.0645 1.096,-0.129 1.676,-0.129 0.5804,0 1.16,-0.0645 1.741,-0.0645 0.2573,-0.0645 0.4508,-0.0645 0.7088,-0.0645 z"
     transform="matrix(2.625,0,0,2.625,-1004.2488,-158.9175)" />
  <path
     inkscape:connector-curvature="0"
     id="path42"
     style="fill:url(#linearGradient12686);fill-opacity:1;stroke-width:1.69286251"
     d="m 32.363669,66.885 c 1.184925,0.167737 2.370112,0.167737 3.55425,0.336787 -0.169313,0.846563 -0.169313,1.692863 -0.846563,1.862175 -0.844724,0.338626 -1.8606,-0.169312 -2.876999,0 0,-0.67725 0,-1.354237 0.169312,-2.198962 z m 35.5425,-0.338625 c 0,0.675412 0.169312,1.521975 0.169312,2.199225 -1.014037,-0.169313 -2.199224,0.338625 -3.044999,-0.169313 -0.675413,-0.338625 -0.675413,-1.015612 -0.844726,-1.8606 1.352663,0.169313 2.537588,0 3.72225,-0.169312 z m 7.783125,-5.07675 c -0.169313,2.370112 -0.169313,4.738125 -0.338625,7.2765 0,0.8463 -0.169313,1.691288 -0.67725,1.8606 -0.507937,0.169312 -1.8606,0 -2.368275,0 -0.67725,0 -1.8606,0.169312 -2.368275,0 -0.507938,-0.169312 -0.507938,-1.18335 -0.67725,-1.8606 0,-0.846563 -0.169313,-1.52355 -0.169313,-2.368275 3.045,-0.67725 5.412751,-2.2008 6.599251,-4.90875 z m -51.10875,0 c 1.352662,2.539425 3.55425,4.2315 6.76725,4.90875 0,0.844725 -0.169313,1.521975 -0.169313,2.368275 0,0.67725 0,1.691287 -0.67725,1.8606 -0.507937,0.169312 -1.8606,0 -2.537587,0 -0.676988,0 -1.862175,0.169312 -2.368275,0 -0.846563,-0.338625 -0.67725,-3.045 -0.846563,-4.228875 0,-0.846563 0,-1.692863 -0.169312,-2.368275 z m 42.63,-12.68925 c -1.862175,0 -3.045,0.169312 -4.3995,0.675412 -1.014038,0.338625 -2.537588,1.015613 -2.706375,2.370113 0,0.844725 0.507937,2.02965 1.184925,2.537587 0.675412,0.507938 1.8606,0.844725 3.045,0.844725 2.877,0 5.751375,-0.844725 7.4445,-2.368274 0.507937,-0.338626 1.354237,-1.183351 1.184925,-2.198963 0,-0.507938 -0.507938,-0.846563 -0.846563,-1.015875 -1.015875,-0.675413 -2.706375,-0.844725 -4.2315,-0.844725 z m -34.67625,0 c -1.18335,0 -2.199225,0 -3.215625,0.336787 -0.844725,0.169313 -1.8606,0.67725 -2.029913,1.354238 -0.169312,0.846562 0.67725,1.691287 1.184925,2.198962 1.691288,1.52355 4.7355,2.368275 7.6125,2.368275 0.67725,0 1.692863,-0.167737 2.199225,-0.336787 1.015875,-0.338625 2.2008,-1.862175 2.031488,-3.215625 -0.169313,-0.507938 -0.67725,-1.015875 -1.184925,-1.354238 -1.521975,-1.015875 -3.55425,-1.352662 -5.751375,-1.352662 z M 50.977544,32.03025 c -1.521975,0 -3.045,0 -4.5675,0.169312 -4.2315,0.169313 -7.95375,0.169313 -11.844,0.67725 -1.862175,2.877 -3.045,6.428625 -4.2315,9.982875 13.027875,0.167738 26.4075,0.167738 39.585,0 -0.846563,-2.877 -1.692863,-5.247375 -2.877,-7.95375 -0.338625,-0.338625 -1.015875,-2.02965 -1.52355,-2.198962 -0.169313,-0.169313 -0.67725,0 -1.18335,-0.169313 -4.060875,-0.169312 -8.799,-0.507937 -13.3665,-0.507937 z m 0.338625,-2.537588 c 2.706375,0 5.41275,0.338625 7.951125,0.507938 2.877,0.338625 5.922,0.67725 7.615125,2.368275 0.507937,0.507937 1.014037,1.354237 1.352663,2.198962 1.354237,2.2008 2.370112,4.738125 3.383625,7.4445 0.169312,-2.368275 5.247375,-2.537587 5.583375,-0.169312 0.169312,0.846562 -0.675413,1.352662 -1.352663,1.691287 -0.67725,0.169313 -1.692863,0.338625 -2.368275,0.169313 -0.507937,-0.169313 -1.184925,-0.67725 -1.354237,-0.338625 -0.169313,0.169312 0.338625,0.507937 0.507937,0.67725 0.67725,0.67725 1.184925,1.184925 1.8606,1.862175 0.67725,0.844725 1.692863,1.8606 2.031488,2.877 0.338625,1.18335 0,3.215625 -0.169313,4.3995 -0.169312,1.354237 -0.169312,2.877 -0.338625,4.2315 -0.338625,4.228875 -2.537588,6.76725 -6.09,7.783125 -1.184925,0.338625 -2.537587,0.338625 -4.060875,0.507937 -2.537588,0.169313 -5.07675,0.338625 -7.783125,0.338625 h -15.39825 c -2.706375,0 -5.583375,-0.169312 -8.12175,-0.338625 -1.52355,-0.169312 -2.877,-0.169312 -4.060875,-0.507937 -3.55425,-1.015875 -5.751375,-3.383625 -6.09,-7.783125 0,-1.354238 -0.338625,-2.877 -0.338625,-4.2315 -0.169313,-1.352663 -0.338625,-3.045 0,-4.228875 0.338625,-1.184925 1.184925,-2.031488 1.8606,-2.877 0.846562,-0.844725 1.692863,-1.521975 2.370112,-2.368275 -0.507937,-0.338625 -0.846562,0 -1.354237,0.169312 -1.691287,0 -4.060875,-0.507937 -3.892875,-2.198962 0.338625,-2.029913 5.247375,-2.029913 5.586,0.169312 1.014037,-2.537587 1.8606,-5.24475 3.383625,-7.4445 0.338625,-0.675412 0.846562,-1.521975 1.354237,-2.02965 1.691288,-1.691287 4.2315,-2.02965 7.105875,-2.198962 1.521975,-0.169313 2.877,-0.338625 4.3995,-0.338625 1.52355,0 3.045,-0.169313 4.570125,-0.169313 0.675413,-0.169312 1.18335,-0.169312 1.8606,-0.169312 z" />
  <path
     inkscape:connector-curvature="0"
     id="path44"
     style="display:inline;fill:url(#linearGradient19281-1-0);fill-opacity:1;stroke:none;stroke-width:2.625"
     d="M 15.301169,15.33 C 5.6726694,25.018875 -0.01833064,37.261875 4.4360834e-5,50.085 0.21056936,76.195875 23.890169,99.98625 50.006294,100.17 76.122419,99.99767 99.802549,76.1985 100.01255,50.085 99.802019,23.974125 76.119794,0.18375 50.006294,0 h -0.06116 c -12.807375,0 -25.003124,5.6805 -34.65,15.322125 m -5.126624,34.755 c 0,-10.37925 4.381125,-20.223 11.998875,-27.8775 7.62825,-7.6335 17.4615,-12.02775 27.825,-12.019875 21.228375,0.09573 39.71625,18.6585 39.82125,39.9 -0.1071,21.233625 -18.603375,39.795 -39.82125,39.9 -21.22575,-0.09573 -39.71625,-18.655875 -39.82125,-39.9" />
  <path
     inkscape:connector-curvature="0"
     id="path46"
     style="display:inline;opacity:0.98999999;fill:url(#linearGradient19279-7-1);stroke-width:2.625"
     d="m 50.213669,1.96875 c -12.852,0 -24.934875,5.005875 -34.02,14.093625 -9.0877496,9.08775 -14.0936246,21.170625 -14.0936246,34.02 0,26.53875 21.5853746,48.11625 48.1162496,48.11625 26.53875,0 48.11625,-21.585375 48.11625,-48.11625 0,-26.53875 -21.585375,-48.11625 -48.11625,-48.11625 z m -38.325,48.11625 c 0,-10.234875 3.98475,-19.8555 11.221875,-27.09 7.237125,-7.237125 16.85775,-11.221875 27.09,-11.221875 21.128625,0 38.325,17.1885 38.325,38.325 0,21.126 -17.1885,38.325 -38.325,38.325 -21.126,0 -38.325,-17.1885 -38.325,-38.325" />
  <path
     transform="matrix(1.3356,0,0,1.3356,-1679.1363,-650.055)"
     inkscape:connector-curvature="0"
     id="path48"
     clip-path="url(#clipPath12714)"
     d="m 1258,490.64453 a 0.7550755,0.7550755 0 0 0 -0.7559,0.75586 v 64.93945 A 0.7550755,0.7550755 0 0 0 1258,557.0957 h 72.4609 a 0.7550755,0.7550755 0 0 0 0.7539,-0.75586 v -64.93945 a 0.7550755,0.7550755 0 0 0 -0.7539,-0.75586 z m 0.7559,1.50977 h 70.9492 v 63.43164 h -70.9492 z m 35.6347,2.63867 c -16.248,0 -29.4453,13.18725 -29.4453,29.44531 0,16.24801 13.1873,29.44531 29.4453,29.44531 16.248,0 29.4453,-13.18724 29.4453,-29.44531 0,-16.248 -13.1872,-29.44531 -29.4453,-29.44531 z m 0,1.50976 c 15.442,0 27.9336,12.50356 27.9336,27.93555 0,15.44194 -12.5016,27.93555 -27.9336,27.93555 -15.4419,0 -27.9355,-12.50355 -27.9355,-27.93555 0,-15.44193 12.5035,-27.93555 27.9355,-27.93555 z"
     style="color:#000000;font-style:normal;font-variant:normal;font-weight:normal;font-stretch:normal;font-size:medium;line-height:normal;font-family:sans-serif;font-variant-ligatures:normal;font-variant-position:normal;font-variant-caps:normal;font-variant-numeric:normal;font-variant-alternates:normal;font-feature-settings:normal;text-indent:0;text-align:start;text-decoration:none;text-decoration-line:none;text-decoration-style:solid;text-decoration-color:#000000;letter-spacing:normal;word-spacing:normal;text-transform:none;writing-mode:lr-tb;direction:ltr;text-orientation:mixed;dominant-baseline:auto;baseline-shift:baseline;text-anchor:start;white-space:normal;shape-padding:0;clip-rule:nonzero;display:inline;overflow:visible;visibility:visible;opacity:0.52073999;isolation:auto;mix-blend-mode:normal;color-interpolation:sRGB;color-interpolation-filters:linearRGB;solid-color:#000000;solid-opacity:1;vector-effect:none;fill:#000000;fill-opacity:1;fill-rule:nonzero;stroke:none;stroke-width:1.50999999;stroke-linecap:round;stroke-linejoin:round;stroke-miterlimit:4;stroke-dasharray:none;stroke-dashoffset:0;stroke-opacity:1;filter:url(#filter12720);color-rendering:auto;image-rendering:auto;shape-rendering:auto;text-rendering:auto;enable-background:accumulate" />
</svg>
