<svg version="1.1" viewBox="0 0 74.88 75" xmlns="http://www.w3.org/2000/svg" xmlns:xlink="http://www.w3.org/1999/xlink">
 <defs>
  <linearGradient id="linearGradientSlvr" x1="-1869" x2="-1869" y1="794.4" y2="828" gradientTransform="matrix(1.301,0,0,1.301,1365,-35.3)" gradientUnits="userSpaceOnUse">
   <stop style="stop-color:#696969" offset="0"/>
   <stop style="stop-color:#c7c7c9" offset=".17"/>
   <stop style="stop-color:#f9f9ff" offset=".36"/>
   <stop style="stop-color:#ccccce" offset=".73"/>
   <stop style="stop-color:#696969" offset="1"/>
  </linearGradient>
  <linearGradient id="linearGradient7728" x1="-1405" x2="-1405" y1="704.4" y2="781.4" gradientTransform="scale(.7835 1.276)" gradientUnits="userSpaceOnUse">
   <stop style="stop-color:#1c072d" offset="0"/>
   <stop style="stop-color:#5700aa" offset=".29"/>
   <stop style="stop-color:#4b127b" offset=".64"/>
   <stop style="stop-color:#290a43" offset="1"/>
  </linearGradient>
  <linearGradient id="linearGradient19443-2-3" x1=".0004794" x2="1.006" y1=".155" y2="-.136" gradientTransform="matrix(32.92 -47.01 47.01 32.92 21.09 61.01)" gradientUnits="userSpaceOnUse" xlink:href="#linearGradient7728"/>
  <linearGradient id="linearGradient19281-1-0" x1=".07918" x2=".9208" y1=".2933" y2="-.2958" gradientTransform="matrix(42.3 -60.42 60.42 42.3 16.37 67.71)" gradientUnits="userSpaceOnUse" xlink:href="#linearGradientSlvr"/>
  <linearGradient id="linearGradient19279-7-1" x1=".05356" x2=".9338" y1="-.2727" y2=".2882" gradientTransform="matrix(60.42 -39.23 39.23 60.42 7.329 57.11)" gradientUnits="userSpaceOnUse" xlink:href="#linearGradientSlvr"/>
  <linearGradient id="linearGradient12686" x1="391.6" x2="411.6" y1="72.19" y2="87.21" gradientTransform="matrix(1.965 0 0 1.965 -751.9 -119)" gradientUnits="userSpaceOnUse" xlink:href="#linearGradientSlvr"/>
  <clipPath id="clipPath12714">
   <path d="m1266 524.2c0 15.85 12.85 28.69 28.69 28.69 15.85 0 28.69-12.85 28.69-28.69 0-15.85-12.85-28.69-28.69-28.69-15.85 0-28.69 12.85-28.69 28.69" style="fill:url(#linearGradient12718);stroke-width:1.012"/>
  </clipPath>
  <linearGradient id="linearGradient12718" x2="1" gradientTransform="matrix(32.92,-47.01,47.01,32.92,1278,547.7)" gradientUnits="userSpaceOnUse" xlink:href="#linearGradient7728"/>
  <filter id="filter12720" x="-.01138" y="-.01269" width="1.023" height="1.025" style="color-interpolation-filters:sRGB">
   <feGaussianBlur stdDeviation="0.34350575"/>
  </filter>
  <filter id="filter12803" x="-.01056" y="-.01389" width="1.021" height="1.028" style="color-interpolation-filters:sRGB">
   <feGaussianBlur stdDeviation="0.090821446"/>
  </filter>
 </defs>
 <path d="m8.901 37.5c0 15.85 12.84 28.69 28.69 28.69 15.85 0 28.69-12.85 28.69-28.69 0-15.85-12.85-28.69-28.69-28.69-15.85 0-28.69 12.84-28.69 28.69" style="fill:url(#linearGradient19443-2-3);stroke-width:1.011"/>
 <path transform="matrix(1.965 0 0 1.965 -751.9 -119)" d="m394.6 86.26c0.4514 0.0639 0.9029 0.0639 1.354 0.1283-0.0645 0.3225-0.0645 0.6449-0.3225 0.7094-0.3218 0.129-0.7088-0.0645-1.096 0 0-0.258 0-0.5159 0.0645-0.8377zm13.54-0.129c0 0.2573 0.0645 0.5798 0.0645 0.8378-0.3863-0.0645-0.8378 0.129-1.16-0.0645-0.2573-0.129-0.2573-0.3869-0.3218-0.7088 0.5153 0.0645 0.9667 0 1.418-0.0645zm2.965-1.934c-0.0645 0.9029-0.0645 1.805-0.129 2.772 0 0.3224-0.0645 0.6443-0.258 0.7088s-0.7088 0-0.9022 0c-0.258 0-0.7088 0.0645-0.9022 0-0.1935-0.0645-0.1935-0.4508-0.258-0.7088 0-0.3225-0.0645-0.5804-0.0645-0.9022 1.16-0.258 2.062-0.8384 2.514-1.87zm-19.47 0c0.5153 0.9674 1.354 1.612 2.578 1.87 0 0.3218-0.0645 0.5798-0.0645 0.9022 0 0.258 0 0.6443-0.258 0.7088-0.1935 0.0645-0.7088 0-0.9667 0s-0.7094 0.0645-0.9022 0c-0.3225-0.129-0.258-1.16-0.3225-1.611 0-0.3225 0-0.6449-0.0645-0.9022zm16.24-4.834c-0.7094 0-1.16 0.0645-1.676 0.2573-0.3863 0.129-0.9667 0.3869-1.031 0.9029 0 0.3218 0.1935 0.7732 0.4514 0.9667 0.2573 0.1935 0.7088 0.3218 1.16 0.3218 1.096 0 2.191-0.3218 2.836-0.9022 0.1935-0.129 0.5159-0.4508 0.4514-0.8377 0-0.1935-0.1935-0.3225-0.3225-0.387-0.387-0.2573-1.031-0.3218-1.612-0.3218zm-13.21 0c-0.4508 0-0.8378 0-1.225 0.1283-0.3218 0.0645-0.7088 0.258-0.7733 0.5159-0.0645 0.3225 0.258 0.6443 0.4514 0.8377 0.6443 0.5804 1.804 0.9022 2.9 0.9022 0.258 0 0.6449-0.0639 0.8378-0.1283 0.387-0.129 0.8384-0.7094 0.7739-1.225-0.0645-0.1935-0.258-0.387-0.4514-0.5159-0.5798-0.387-1.354-0.5153-2.191-0.5153zm7.026-6.381c-0.5798 0-1.16 0-1.74 0.0645-1.612 0.0645-3.03 0.0645-4.512 0.258-0.7094 1.096-1.16 2.449-1.612 3.803 4.963 0.0639 10.06 0.0639 15.08 0-0.3225-1.096-0.6449-1.999-1.096-3.03-0.129-0.129-0.387-0.7732-0.5804-0.8377-0.0645-0.0645-0.258 0-0.4508-0.0645-1.547-0.0645-3.352-0.1935-5.092-0.1935zm0.129-0.9667c1.031 0 2.062 0.129 3.029 0.1935 1.096 0.129 2.256 0.258 2.901 0.9022 0.1935 0.1935 0.3863 0.5159 0.5153 0.8377 0.5159 0.8384 0.9029 1.805 1.289 2.836 0.0645-0.9022 1.999-0.9667 2.127-0.0645 0.0645 0.3225-0.2573 0.5153-0.5153 0.6443-0.258 0.0645-0.6449 0.129-0.9022 0.0645-0.1935-0.0645-0.4514-0.258-0.5159-0.129-0.0645 0.0645 0.129 0.1935 0.1935 0.258 0.258 0.258 0.4514 0.4514 0.7088 0.7094 0.258 0.3218 0.6449 0.7088 0.7739 1.096 0.129 0.4508 0 1.225-0.0645 1.676-0.0645 0.5159-0.0645 1.096-0.129 1.612-0.129 1.611-0.9667 2.578-2.32 2.965-0.4514 0.129-0.9667 0.129-1.547 0.1935-0.9667 0.0645-1.934 0.129-2.965 0.129h-5.866c-1.031 0-2.127-0.0645-3.094-0.129-0.5804-0.0645-1.096-0.0645-1.547-0.1935-1.354-0.387-2.191-1.289-2.32-2.965 0-0.5159-0.129-1.096-0.129-1.612-0.0645-0.5153-0.129-1.16 0-1.611 0.129-0.4514 0.4514-0.7739 0.7088-1.096 0.3225-0.3218 0.6449-0.5798 0.9029-0.9022-0.1935-0.129-0.3225 0-0.5159 0.0645-0.6443 0-1.547-0.1935-1.483-0.8377 0.129-0.7733 1.999-0.7733 2.128 0.0645 0.3863-0.9667 0.7088-1.998 1.289-2.836 0.129-0.2573 0.3225-0.5798 0.5159-0.7732 0.6443-0.6443 1.612-0.7732 2.707-0.8377 0.5798-0.0645 1.096-0.129 1.676-0.129 0.5804 0 1.16-0.0645 1.741-0.0645 0.2573-0.0645 0.4508-0.0645 0.7088-0.0645z" style="fill:#000000;filter:url(#filter12803);opacity:.8937;stroke-width:.6449"/>
 <path d="m24.23 50.08c0.8872 0.1256 1.775 0.1256 2.661 0.2522-0.1268 0.6338-0.1268 1.267-0.6338 1.394-0.6325 0.2535-1.393-0.1268-2.154 0 0-0.5071 0-1.014 0.1268-1.646zm26.61-0.2535c0 0.5057 0.1268 1.14 0.1268 1.647-0.7592-0.1268-1.647 0.2535-2.28-0.1268-0.5057-0.2535-0.5057-0.7604-0.6325-1.393 1.013 0.1268 1.9 0 2.787-0.1268zm5.827-3.801c-0.1268 1.775-0.1268 3.548-0.2535 5.448 0 0.6336-0.1268 1.266-0.5071 1.393-0.3803 0.1268-1.393 0-1.773 0-0.5071 0-1.393 0.1268-1.773 0-0.3803-0.1268-0.3803-0.886-0.5071-1.393 0-0.6338-0.1268-1.141-0.1268-1.773 2.28-0.5071 4.053-1.648 4.941-3.675zm-38.27 0c1.013 1.901 2.661 3.168 5.067 3.675 0 0.6325-0.1268 1.14-0.1268 1.773 0 0.5071 0 1.266-0.5071 1.393-0.3803 0.1268-1.393 0-1.9 0-0.5069 0-1.394 0.1268-1.773 0-0.6338-0.2535-0.5071-2.28-0.6338-3.166 0-0.6338 0-1.267-0.1268-1.773zm31.92-9.501c-1.394 0-2.28 0.1268-3.294 0.5057-0.7592 0.2535-1.9 0.7604-2.026 1.775 0 0.6325 0.3803 1.52 0.8872 1.9 0.5057 0.3803 1.393 0.6325 2.28 0.6325 2.154 0 4.306-0.6325 5.574-1.773 0.3803-0.2535 1.014-0.886 0.8872-1.646 0-0.3803-0.3803-0.6338-0.6338-0.7606-0.7606-0.5057-2.026-0.6325-3.168-0.6325zm-25.96 0c-0.886 0-1.647 0-2.408 0.2522-0.6325 0.1268-1.393 0.5071-1.52 1.014-0.1268 0.6338 0.5071 1.266 0.8872 1.646 1.266 1.141 3.546 1.773 5.7 1.773 0.5071 0 1.267-0.1256 1.647-0.2522 0.7606-0.2535 1.648-1.394 1.521-2.408-0.1268-0.3803-0.5071-0.7606-0.8872-1.014-1.14-0.7606-2.661-1.013-4.306-1.013zm13.81-12.54c-1.14 0-2.28 0-3.42 0.1268-3.168 0.1268-5.955 0.1268-8.868 0.5071-1.394 2.154-2.28 4.813-3.168 7.474 9.754 0.1256 19.77 0.1256 29.64 0-0.6338-2.154-1.267-3.929-2.154-5.955-0.2535-0.2535-0.7606-1.52-1.141-1.646-0.1268-0.1268-0.5071 0-0.886-0.1268-3.04-0.1268-6.588-0.3803-10.01-0.3803zm0.2535-1.9c2.026 0 4.053 0.2535 5.953 0.3803 2.154 0.2535 4.434 0.5071 5.702 1.773 0.3803 0.3803 0.7592 1.014 1.013 1.646 1.014 1.648 1.775 3.548 2.533 5.574 0.1268-1.773 3.929-1.9 4.18-0.1268 0.1268 0.6338-0.5057 1.013-1.013 1.266-0.5071 0.1268-1.267 0.2535-1.773 0.1268-0.3803-0.1268-0.8872-0.5071-1.014-0.2535-0.1268 0.1268 0.2535 0.3803 0.3803 0.5071 0.5071 0.5071 0.8872 0.8872 1.393 1.394 0.5071 0.6325 1.267 1.393 1.521 2.154 0.2535 0.886 0 2.408-0.1268 3.294-0.1268 1.014-0.1268 2.154-0.2535 3.168-0.2535 3.166-1.9 5.067-4.56 5.827-0.8872 0.2535-1.9 0.2535-3.04 0.3803-1.9 0.1268-3.801 0.2535-5.827 0.2535h-11.53c-2.026 0-4.18-0.1268-6.081-0.2535-1.141-0.1268-2.154-0.1268-3.04-0.3803-2.661-0.7606-4.306-2.533-4.56-5.827 0-1.014-0.2535-2.154-0.2535-3.168-0.1268-1.013-0.2535-2.28 0-3.166 0.2535-0.8872 0.8872-1.521 1.393-2.154 0.6338-0.6325 1.267-1.14 1.775-1.773-0.3803-0.2535-0.6338 0-1.014 0.1268-1.266 0-3.04-0.3803-2.915-1.646 0.2535-1.52 3.929-1.52 4.182 0.1268 0.7592-1.9 1.393-3.927 2.533-5.574 0.2535-0.5057 0.6338-1.14 1.014-1.52 1.266-1.266 3.168-1.52 5.32-1.646 1.14-0.1268 2.154-0.2535 3.294-0.2535 1.141 0 2.28-0.1268 3.422-0.1268 0.5057-0.1268 0.886-0.1268 1.393-0.1268z" style="fill:url(#linearGradient12686);stroke-width:1.267"/>
 <path d="m11.46 11.48c-7.209 7.254-11.47 16.42-11.46 26.02 0.1576 19.55 17.89 37.36 37.44 37.5 19.55-0.129 37.28-17.95 37.44-37.5-0.1576-19.55-17.89-37.36-37.44-37.5h-0.04579c-9.589 0-18.72 4.253-25.94 11.47m-3.838 26.02c0-7.771 3.28-15.14 8.984-20.87 5.711-5.715 13.07-9.006 20.83-9 15.89 0.07168 29.74 13.97 29.82 29.87-0.08019 15.9-13.93 29.8-29.82 29.87-15.89-0.07168-29.74-13.97-29.82-29.87" style="fill:url(#linearGradient19281-1-0)"/>
 <path d="m37.6 1.474c-9.623 0-18.67 3.748-25.47 10.55-6.804 6.804-10.55 15.85-10.55 25.47 0 19.87 16.16 36.03 36.03 36.03 19.87 0 36.03-16.16 36.03-36.03 0-19.87-16.16-36.03-36.03-36.03zm-28.69 36.03c0-7.663 2.983-14.87 8.402-20.28 5.419-5.419 12.62-8.402 20.28-8.402 15.82 0 28.69 12.87 28.69 28.69 0 15.82-12.87 28.69-28.69 28.69-15.82 0-28.69-12.87-28.69-28.69" style="fill:url(#linearGradient19279-7-1);opacity:.99;stroke-width:1.965"/>
 <path transform="translate(-1257 -486.7)" d="m1258 490.6a0.7551 0.7551 0 0 0-0.7559 0.7559v64.94a0.7551 0.7551 0 0 0 0.7559 0.7559h72.46a0.7551 0.7551 0 0 0 0.7539-0.7559v-64.94a0.7551 0.7551 0 0 0-0.7539-0.7559zm0.7559 1.51h70.95v63.43h-70.95zm35.63 2.639c-16.25 0-29.45 13.19-29.45 29.45 0 16.25 13.19 29.45 29.45 29.45 16.25 0 29.45-13.19 29.45-29.45 0-16.25-13.19-29.45-29.45-29.45zm0 1.51c15.44 0 27.93 12.5 27.93 27.94 0 15.44-12.5 27.94-27.93 27.94-15.44 0-27.94-12.5-27.94-27.94 0-15.44 12.5-27.94 27.94-27.94z" clip-path="url(#clipPath12714)" style="color-rendering:auto;color:#000000;fill:#000000;filter:url(#filter12720);isolation:auto;mix-blend-mode:normal;opacity:.5207;shape-rendering:auto;solid-color:#000000"/>
</svg>
