<svg version="1.1" viewBox="0 0 74.88 75" xmlns="http://www.w3.org/2000/svg" xmlns:xlink="http://www.w3.org/1999/xlink">
 <defs>
  <linearGradient id="linearGradientSlvr" x1="-1869" x2="-1869" y1="794.4" y2="828" gradientTransform="matrix(1.301,0,0,1.301,1365,-35.3)" gradientUnits="userSpaceOnUse">
   <stop style="stop-color:#696969" offset="0"/>
   <stop style="stop-color:#c7c7c9" offset=".17"/>
   <stop style="stop-color:#f9f9ff" offset=".36"/>
   <stop style="stop-color:#ccccce" offset=".73"/>
   <stop style="stop-color:#696969" offset="1"/>
  </linearGradient>
  <linearGradient id="linearGradient19443-2" x1=".6106" x2=".343" y1="-.6324" y2=".6043" gradientTransform="matrix(32.92 -47.01 47.01 32.92 21.09 61.01)" gradientUnits="userSpaceOnUse" xlink:href="#linearGradientSlvr">
   <stop style="stop-color:#1c072d" offset="0"/>
   <stop style="stop-color:#5700aa" offset=".29"/>
   <stop style="stop-color:#4b127b" offset=".64"/>
   <stop style="stop-color:#290a43" offset="1"/>
  </linearGradient>
  <linearGradient id="linearGradient19281-1" x1=".08394" x2=".9326" y1=".2926" y2="-.3015" gradientTransform="matrix(42.3 -60.42 60.42 42.3 16.37 67.71)" gradientUnits="userSpaceOnUse" xlink:href="#linearGradientSlvr"/>
  <linearGradient id="linearGradient19279-7" x1=".04827" x2=".9107" y1="-.2605" y2=".2994" gradientTransform="matrix(60.42 -39.23 39.23 60.42 7.329 57.11)" gradientUnits="userSpaceOnUse" xlink:href="#linearGradientSlvr"/>
  <linearGradient id="linearGradient33198" x1="391.1" x2="412.2" y1="87.21" y2="71.86" gradientTransform="matrix(1.965 0 0 1.965 -751.9 -119)" gradientUnits="userSpaceOnUse" xlink:href="#linearGradientSlvr"/>
 </defs>
 <path d="m8.901 37.5c0 15.85 12.84 28.69 28.69 28.69 15.85 0 28.69-12.85 28.69-28.69 0-15.85-12.85-28.69-28.69-28.69-15.85 0-28.69 12.84-28.69 28.69" style="fill:url(#linearGradient19443-2);stroke-width:1.011"/>
 <path d="m24.23 50.08c0.8872 0.1256 1.775 0.1256 2.661 0.2522-0.1268 0.6338-0.1268 1.267-0.6338 1.394-0.6325 0.2535-1.393-0.1268-2.154 0 0-0.5071 0-1.014 0.1268-1.646zm26.61-0.2535c0 0.5057 0.1268 1.14 0.1268 1.647-0.7592-0.1268-1.647 0.2535-2.28-0.1268-0.5057-0.2535-0.5057-0.7604-0.6325-1.393 1.013 0.1268 1.9 0 2.787-0.1268zm5.827-3.801c-0.1268 1.775-0.1268 3.548-0.2535 5.448 0 0.6336-0.1268 1.266-0.5071 1.393-0.3803 0.1268-1.393 0-1.773 0-0.5071 0-1.393 0.1268-1.773 0-0.3803-0.1268-0.3803-0.886-0.5071-1.393 0-0.6338-0.1268-1.141-0.1268-1.773 2.28-0.5071 4.053-1.648 4.941-3.675zm-38.27 0c1.013 1.901 2.661 3.168 5.067 3.675 0 0.6325-0.1268 1.14-0.1268 1.773 0 0.5071 0 1.266-0.5071 1.393-0.3803 0.1268-1.393 0-1.9 0s-1.394 0.1268-1.773 0c-0.6338-0.2535-0.5071-2.28-0.6338-3.166 0-0.6338 0-1.267-0.1268-1.773zm31.92-9.501c-1.394 0-2.28 0.1268-3.294 0.5057-0.7592 0.2535-1.9 0.7604-2.026 1.775 0 0.6325 0.3803 1.52 0.8872 1.9 0.5057 0.3803 1.393 0.6325 2.28 0.6325 2.154 0 4.306-0.6325 5.574-1.773 0.3803-0.2535 1.014-0.886 0.8872-1.646 0-0.3803-0.3803-0.6338-0.6338-0.7606-0.7606-0.5057-2.026-0.6325-3.168-0.6325zm-25.96 0c-0.886 0-1.647 0-2.408 0.2522-0.6325 0.1268-1.393 0.5071-1.52 1.014-0.1268 0.6338 0.5071 1.266 0.8872 1.646 1.266 1.141 3.546 1.773 5.7 1.773 0.5071 0 1.267-0.1256 1.647-0.2522 0.7606-0.2535 1.648-1.394 1.521-2.408-0.1268-0.3803-0.5071-0.7606-0.8872-1.014-1.14-0.7606-2.661-1.013-4.306-1.013zm13.81-12.54c-1.14 0-2.28 0-3.42 0.1268-3.168 0.1268-5.955 0.1268-8.868 0.5071-1.394 2.154-2.28 4.813-3.168 7.474 9.754 0.1256 19.77 0.1256 29.64 0-0.6338-2.154-1.267-3.929-2.154-5.955-0.2535-0.2535-0.7606-1.52-1.141-1.646-0.1268-0.1268-0.5071 0-0.886-0.1268-3.04-0.1268-6.588-0.3803-10.01-0.3803zm0.2535-1.9c2.026 0 4.053 0.2535 5.953 0.3803 2.154 0.2535 4.434 0.5071 5.702 1.773 0.3803 0.3803 0.7592 1.014 1.013 1.646 1.014 1.648 1.775 3.548 2.533 5.574 0.1268-1.773 3.929-1.9 4.18-0.1268 0.1268 0.6338-0.5057 1.013-1.013 1.266-0.5071 0.1268-1.267 0.2535-1.773 0.1268-0.3803-0.1268-0.8872-0.5071-1.014-0.2535-0.1268 0.1268 0.2535 0.3803 0.3803 0.5071 0.5071 0.5071 0.8872 0.8872 1.393 1.394 0.5071 0.6325 1.267 1.393 1.521 2.154 0.2535 0.886 0 2.408-0.1268 3.294-0.1268 1.014-0.1268 2.154-0.2535 3.168-0.2535 3.166-1.9 5.067-4.56 5.827-0.8872 0.2535-1.9 0.2535-3.04 0.3803-1.9 0.1268-3.801 0.2535-5.827 0.2535h-11.53c-2.026 0-4.18-0.1268-6.081-0.2535-1.141-0.1268-2.154-0.1268-3.04-0.3803-2.661-0.7606-4.306-2.533-4.56-5.827 0-1.014-0.2535-2.154-0.2535-3.168-0.1268-1.013-0.2535-2.28 0-3.166 0.2535-0.8872 0.8872-1.521 1.393-2.154 0.6338-0.6325 1.267-1.14 1.775-1.773-0.3803-0.2535-0.6338 0-1.014 0.1268-1.266 0-3.04-0.3803-2.915-1.646 0.2535-1.52 3.929-1.52 4.182 0.1268 0.7592-1.9 1.393-3.927 2.533-5.574 0.2535-0.5057 0.6338-1.14 1.014-1.52 1.266-1.266 3.168-1.52 5.32-1.646 1.14-0.1268 2.154-0.2535 3.294-0.2535 1.141 0 2.28-0.1268 3.422-0.1268 0.5057-0.1268 0.886-0.1268 1.393-0.1268z" style="fill:url(#linearGradient33198);stroke-width:1.267"/>
 <path d="m11.46 11.48c-7.209 7.254-11.47 16.42-11.46 26.02 0.1576 19.55 17.89 37.36 37.44 37.5 19.55-0.129 37.28-17.95 37.44-37.5-0.1576-19.55-17.89-37.36-37.44-37.5h-0.0458c-9.589 0-18.72 4.253-25.94 11.47m-3.838 26.02c0-7.771 3.28-15.14 8.984-20.87 5.711-5.715 13.07-9.006 20.83-9 15.89 0.07168 29.74 13.97 29.82 29.87-0.08019 15.9-13.93 29.8-29.82 29.87-15.89-0.07168-29.74-13.97-29.82-29.87" style="fill:url(#linearGradient19281-1);stroke-width:1.011"/>
 <path d="m37.6 1.474c-9.623 0-18.67 3.748-25.47 10.55-6.804 6.804-10.55 15.85-10.55 25.47 0 19.87 16.16 36.03 36.03 36.03 19.87 0 36.03-16.16 36.03-36.03 0-19.87-16.16-36.03-36.03-36.03zm-28.69 36.03c0-7.663 2.983-14.87 8.402-20.28 5.419-5.419 12.62-8.402 20.28-8.402 15.82 0 28.69 12.87 28.69 28.69 0 15.82-12.87 28.69-28.69 28.69-15.82 0-28.69-12.87-28.69-28.69" style="fill:url(#linearGradient19279-7);stroke-width:1.011"/>
</svg>
