<?xml version="1.0" encoding="UTF-8" standalone="no"?>
<svg xmlns:dc="http://purl.org/dc/elements/1.1/" xmlns:cc="http://creativecommons.org/ns#" xmlns:rdf="http://www.w3.org/1999/02/22-rdf-syntax-ns#" xmlns:svg="http://www.w3.org/2000/svg" xmlns="http://www.w3.org/2000/svg" xmlns:xlink="http://www.w3.org/1999/xlink" xmlns:sodipodi="http://sodipodi.sourceforge.net/DTD/sodipodi-0.dtd" xmlns:inkscape="http://www.inkscape.org/namespaces/inkscape" version="1.1" viewBox="0 0 100.01255 100.17" id="svg37" sodipodi:docname="i55.svg" width="100.01255" height="100.17" inkscape:version="0.92.2 (5c3e80d, 2017-08-06)">
  <metadata id="metadata41">
    <rdf:RDF>
      <cc:Work rdf:about="">
        <dc:format>image/svg+xml</dc:format>
        <dc:type rdf:resource="http://purl.org/dc/dcmitype/StillImage" />
        <dc:title></dc:title>
      </cc:Work>
    </rdf:RDF>
  </metadata>
  <sodipodi:namedview pagecolor="#ffffff" bordercolor="#666666" borderopacity="1" objecttolerance="10" gridtolerance="10" guidetolerance="10" inkscape:pageopacity="0" inkscape:pageshadow="2" inkscape:window-width="2560" inkscape:window-height="1001" id="namedview39" showgrid="false" fit-margin-top="0" fit-margin-left="0" fit-margin-right="0" fit-margin-bottom="0" inkscape:zoom="2.3576424" inkscape:cx="16.243119" inkscape:cy="50.137501" inkscape:window-x="-9" inkscape:window-y="41" inkscape:window-maximized="1" inkscape:current-layer="svg37" />
  <defs id="defs25">
    <linearGradient id="linearGradientSlvr" x1="-1869" x2="-1869" y1="794.40002" y2="828" gradientTransform="matrix(1.301,0,0,1.301,1365,-35.3)" gradientUnits="userSpaceOnUse">
      <stop style="stop-color:#696969" offset="0" id="stop2" />
      <stop style="stop-color:#c7c7c9" offset=".17" id="stop4" />
      <stop style="stop-color:#f9f9ff" offset=".36" id="stop6" />
      <stop style="stop-color:#ccccce" offset=".73" id="stop8" />
      <stop style="stop-color:#696969" offset="1" id="stop10" />
    </linearGradient>
    <linearGradient id="linearGradient19443-2" x1="0.61063838" x2="0.34303617" y1="-0.63244957" y2="0.60426682" gradientTransform="matrix(43.96875,-62.79,62.79,43.96875,28.163669,81.48)" gradientUnits="userSpaceOnUse" xlink:href="#linearGradientSlvr">
      <stop style="stop-color:#1c072d" offset="0" id="stop13" />
      <stop style="stop-color:#5700aa" offset=".29" id="stop15" />
      <stop style="stop-color:#4b127b" offset=".64" id="stop17" />
      <stop style="stop-color:#290a43" offset="1" id="stop19" />
    </linearGradient>
    <linearGradient id="linearGradient19281-1" x2="0.93256778" gradientTransform="matrix(56.49,-80.6925,80.6925,56.49,21.863669,90.43125)" gradientUnits="userSpaceOnUse" xlink:href="#linearGradientSlvr" y2="-0.3014918" x1="0.083942473" y1="0.29260111" />
    <linearGradient id="linearGradient19279-7" x2="0.91069233" gradientTransform="matrix(80.6925,-52.395,52.395,80.6925,9.7886694,76.2825)" gradientUnits="userSpaceOnUse" xlink:href="#linearGradientSlvr" y2="0.29944664" x1="0.048273403" y1="-0.26053649" />
    <linearGradient id="linearGradient33198" x1="391.1384" x2="412.16159" y1="87.214355" y2="71.864067" gradientUnits="userSpaceOnUse" xlink:href="#linearGradientSlvr" gradientTransform="matrix(2.625,0,0,2.625,-1004.2488,-158.9175)" />
  </defs>
  <path inkscape:connector-curvature="0" id="path27" style="fill:url(#linearGradient19443-2);fill-opacity:1;stroke-width:1.35082495" d="M 11.888669,50.085 C 11.888669,71.24775 29.043044,88.41 50.213669,88.41 71.376419,88.41 88.538669,71.253 88.538669,50.085 88.538669,28.919625 71.381669,11.76 50.213669,11.76 29.050919,11.76 11.888669,28.914375 11.888669,50.085" />
  <path inkscape:connector-curvature="0" id="path29" style="fill:url(#linearGradient33198);stroke-width:1.69286251" d="M 32.363669,66.885 C 33.548594,67.052737 34.733781,67.052737 35.917919,67.221788 35.748606,68.06835 35.748606,68.91465 35.071356,69.083962 34.226632,69.422588 33.210756,68.91465 32.194357,69.083962 32.194357,68.406712 32.194357,67.729725 32.363669,66.885 Z M 67.906169,66.546375 C 67.906169,67.221788 68.075481,68.06835 68.075481,68.7456 67.061444,68.576287 65.876257,69.084225 65.030482,68.576287 64.355069,68.237663 64.355069,67.560675 64.185756,66.715687 65.538419,66.885 66.723344,66.715687 67.908006,66.546375 Z M 75.689294,61.469625 C 75.519981,63.839737 75.519981,66.20775 75.350669,68.746125 75.350669,69.592425 75.181357,70.437413 74.673419,70.606725 74.165482,70.776038 72.812819,70.606725 72.305144,70.606725 71.627894,70.606725 70.444544,70.776038 69.936869,70.606725 69.428931,70.437413 69.428931,69.423375 69.259619,68.746125 69.259619,67.899562 69.090306,67.222575 69.090306,66.37785 72.135306,65.7006 74.503057,64.17705 75.689557,61.4691 Z M 24.580544,61.469625 C 25.933206,64.00905 28.134794,65.701125 31.347794,66.378375 31.347794,67.2231 31.178481,67.90035 31.178481,68.74665 31.178481,69.4239 31.178481,70.437938 30.501232,70.60725 29.993294,70.776562 28.640632,70.60725 27.963644,70.60725 27.286657,70.60725 26.101469,70.776562 25.595369,70.60725 24.748807,70.268625 24.918119,67.56225 24.748807,66.378375 24.748807,65.531812 24.748807,64.685512 24.579494,64.0101 Z M 67.210544,48.780375 C 65.348369,48.780375 64.165544,48.949687 62.811044,49.455787 61.797007,49.794412 60.273456,50.4714 60.104669,51.8259 60.104669,52.670625 60.612606,53.85555 61.289594,54.363487 61.965006,54.871425 63.150194,55.208213 64.334594,55.208213 67.211594,55.208213 70.085969,54.363487 71.779094,52.839938 72.287032,52.501312 73.133332,51.656587 72.964019,50.640975 72.964019,50.133037 72.456081,49.794412 72.117456,49.6251 71.101581,48.949687 69.411082,48.780375 67.885956,48.780375 Z M 32.534294,48.780375 C 31.350944,48.780375 30.335069,48.780375 29.318669,49.117162 28.473944,49.286475 27.458069,49.794412 27.288756,50.4714 27.119444,51.317962 27.966006,52.162688 28.473681,52.670362 30.164969,54.193912 33.209181,55.038637 36.086181,55.038637 36.763431,55.038637 37.779044,54.8709 38.285407,54.70185 39.301281,54.363225 40.486207,52.839675 40.316894,51.486225 40.147581,50.978288 39.639644,50.47035 39.131969,50.131987 37.609994,49.116112 35.577719,48.779325 33.380594,48.779325 Z M 50.977544,32.03025 C 49.455569,32.03025 47.932544,32.03025 46.410044,32.199562 42.178544,32.368875 38.456294,32.368875 34.566044,32.876812 32.703869,35.753812 31.521044,39.305437 30.334544,42.859688 43.362419,43.027425 56.742044,43.027425 69.919544,42.859688 69.072982,39.982688 68.226681,37.612312 67.042544,34.905938 66.703919,34.567312 66.026669,32.876288 65.518994,32.706975 65.349681,32.537662 64.841744,32.706975 64.335644,32.537662 60.274769,32.36835 55.536644,32.029725 50.969144,32.029725 Z M 51.316169,29.492663 C 54.022544,29.492663 56.728919,29.831288 59.267294,30.0006 62.144294,30.339225 65.189294,30.67785 66.882419,32.368875 67.390356,32.876812 67.896456,33.723112 68.235081,34.567837 69.589319,36.768637 70.605194,39.305963 71.618707,42.012338 71.788019,39.644063 76.866081,39.47475 77.202081,41.843025 77.371394,42.689587 76.526669,43.195688 75.849419,43.534312 75.172169,43.703625 74.156556,43.872937 73.481144,43.703625 72.973206,43.534312 72.296219,43.026375 72.126907,43.365 71.957594,43.534312 72.465531,43.872937 72.634844,44.04225 73.312094,44.7195 73.819769,45.227175 74.495444,45.904425 75.172694,46.74915 76.188307,47.765025 76.526932,48.781425 76.865557,49.964775 76.526932,51.99705 76.357619,53.180925 76.188307,54.535162 76.188307,56.057925 76.018994,57.412425 75.680369,61.6413 73.481406,64.179675 69.928994,65.19555 68.744069,65.534175 67.391407,65.534175 65.868119,65.703488 63.330532,65.8728 60.791369,66.042112 58.084994,66.042112 H 42.686744 C 39.980369,66.042112 37.103369,65.8728 34.564994,65.703488 33.041444,65.534175 31.687994,65.534175 30.504119,65.19555 26.949869,64.179675 24.752744,61.811925 24.414119,57.412425 24.414119,56.058187 24.075494,54.535425 24.075494,53.180925 23.906181,51.828262 23.736869,50.135925 24.075494,48.95205 24.414119,47.767125 25.260419,46.920562 25.936094,46.07505 26.782657,45.230325 27.628957,44.553075 28.306207,43.706775 27.798269,43.36815 27.459644,43.706775 26.951969,43.876087 25.260682,43.876087 22.891094,43.36815 23.059094,41.677125 23.397719,39.647212 28.306469,39.647212 28.645094,41.846437 29.659132,39.30885 30.505694,36.601688 32.028719,34.401937 32.367344,33.726525 32.875281,32.879963 33.382956,32.372287 35.074244,30.681 37.614457,30.342638 40.488831,30.173325 42.010807,30.004012 43.365831,29.8347 44.888331,29.8347 46.411882,29.8347 47.933332,29.665387 49.458457,29.665387 50.133869,29.496075 50.641806,29.496075 51.319057,29.496075 Z" />
  <path inkscape:connector-curvature="0" id="path31" style="display:inline;fill:url(#linearGradient19281-1);stroke-width:1.35082495" d="M 15.301169,15.33 C 5.6726694,25.018875 -0.01833064,37.261875 4.4360834e-5,50.085 0.21056936,76.195875 23.890169,99.98625 50.006294,100.17 76.122419,99.99767 99.802549,76.1985 100.01255,50.085 99.802019,23.974125 76.119794,0.18375 50.006294,0 H 49.945131 C 37.137757,0 24.942007,5.6805 15.295131,15.322125 M 10.168507,50.077125 C 10.168507,39.697875 14.549632,29.854125 22.167382,22.199625 29.795632,14.566125 39.628882,10.171875 49.992382,10.17975 71.220756,10.275484 89.708632,28.83825 89.813632,50.07975 89.706531,71.313375 71.210256,89.87475 49.992382,89.97975 28.766632,89.884016 10.276132,71.323875 10.171131,50.07975" />
  <path inkscape:connector-curvature="0" id="path33" style="fill:url(#linearGradient19279-7);stroke-width:1.35082495" d="M 50.213669,1.96875 C 37.361669,1.96875 25.278794,6.974625 16.193669,16.062375 7.1059194,25.150125 2.1000444,37.233 2.1000444,50.082375 2.1000444,76.621125 23.685419,98.198625 50.216294,98.198625 76.755044,98.198625 98.332544,76.61325 98.332544,50.082375 98.332544,23.543625 76.747169,1.966125 50.216294,1.966125 Z M 11.888669,50.085 C 11.888669,39.850125 15.873419,30.2295 23.110544,22.995 30.347669,15.757875 39.968294,11.773125 50.200544,11.773125 71.329169,11.773125 88.525544,28.961625 88.525544,50.098125 88.525544,71.224125 71.337044,88.423125 50.200544,88.423125 29.074544,88.423125 11.875544,71.234625 11.875544,50.098125" />
</svg>
