<svg version="1.1" viewBox="0 0 75 75" xmlns="http://www.w3.org/2000/svg">
 <path d="m2.762e-8 37.5a37.5 37.5 0 1 0 75 0 37.5 37.5 0 1 0-75 0" style="fill:#ff9311;stroke-width:.75"/>
 <path d="m64.02 10.99-53.03 53.03c14.64 14.64 38.39 14.64 53.03 0 14.65-14.64 14.65-38.39 0-53.03z" style="opacity:.1;stroke-width:.75"/>
 <path d="m37.5 0.001469v75c20.71 0 37.5-16.79 37.5-37.5 0-20.71-16.79-37.5-37.5-37.5z" style="opacity:.1;stroke-width:.75"/>
 <path d="m52.97 35.52c-1.688 0-3.094 1.125-3.094 2.531s1.406 2.531 3.094 2.531c1.688 0 3.094-1.125 3.094-2.531 0-1.266-1.406-2.531-3.094-2.531zm-30.8 0c-1.688 0-3.094 1.125-3.094 2.531s1.406 2.531 3.094 2.531c1.688 0 3.094-1.125 3.094-2.531 0-1.266-1.406-2.531-3.094-2.531zm5.625-10.27c-1.266 0-1.688 0.5625-2.109 1.406l-2.812 5.906h29.25l-2.813-5.906c-0.2814-0.8438-0.8438-1.406-2.109-1.406h-9.703zm0-2.812h19.41c2.813 0 4.359 1.266 5.063 2.672l3.656 7.594h4.078v13.92h-3.656v3.094c0 3.797-6.75 3.797-6.75 0v-3.094h-24.19v3.094c0 3.797-6.75 3.797-6.75 0v-3.094h-3.656v-13.92h4.219l3.656-7.594c0.5625-1.406 2.109-2.672 4.922-2.672z" style="fill:#681f03;stroke-width:1.406"/>
</svg>
