<svg width="26.46mm" height="26.46mm" version="1.1" viewBox="0 0 26.46 26.46" xmlns="http://www.w3.org/2000/svg">
 <defs>
  <clipPath id="clipPath4629">
   <path d="m1830 5389c-0.9 1.19-1.78 2.4-2.71 3.56-0.88 1.09-1.7 2.23-2.57 3.33-2.74 1.1-4.94 2.25-6.26 3.47-3.94 3.64-6.82 8.28-10.14 12.49-0.76 0.97-1.48 1.98-2.24 2.96-2.94 1.12-5.3 2.3-6.65 3.55-3.93 3.66-6.77 8.34-10.06 12.58-0.82 1.05-1.59 2.14-2.4 3.19-2.92 1.1-5.25 2.24-6.55 3.46-3.93 3.68-6.72 8.39-9.99 12.66-0.79 1.02-1.53 2.09-2.31 3.12-3.02 1.09-5.42 2.23-6.71 3.45-3.91 3.69-6.67 8.44-9.91 12.74-0.76 1-1.47 2.04-2.22 3.05-3.12 1.08-5.58 2.22-6.86 3.43-3.9 3.71-6.62 8.5-9.83 12.82-0.74 0.98-1.42 2-2.15 2.99-3.22 1.07-5.73 2.2-7 3.41-3.89 3.72-6.56 8.55-9.76 12.89-0.71 0.97-1.37 1.97-2.07 2.94-3.31 1.06-5.88 2.18-7.13 3.38-3.89 3.74-6.52 8.6-9.68 12.98-0.72 0.98-1.38 2.01-2.09 3-3.23 1.01-5.73 2.08-6.91 3.22-3.88 3.77-6.47 8.67-9.61 13.07-0.8 1.12-1.55 2.28-2.34 3.4-2.59 0.87-4.56 1.77-5.54 2.74-3.88 3.78-6.42 8.71-9.54 13.14-0.77 1.1-1.49 2.24-2.26 3.34-2.68 0.86-4.72 1.76-5.7 2.72-3.86 3.8-6.36 8.77-9.45 13.22-0.75 1.08-1.45 2.2-2.19 3.29-2.78 0.84-4.88 1.73-5.84 2.69-3.86 3.81-6.32 8.82-9.38 13.3-0.73 1.07-1.41 2.17-2.13 3.24-2.87 0.83-5.03 1.71-5.98 2.65-3.85 3.83-6.27 8.88-9.3 13.39-0.71 1.05-1.37 2.14-2.07 3.19-2.96 0.82-5.18 1.68-6.11 2.61-3.85 3.86-6.22 8.94-9.23 13.47-0.69 1.04-1.33 2.11-2.01 3.15-3.06 0.81-5.34 1.66-6.25 2.57-3.83 3.87-6.17 8.99-9.15 13.55-0.78 1.19-1.5 2.42-2.26 3.61-2.91 0.67-5.11 1.35-6.07 2.03-3.09 4.5-6.12 9.05-9.08 13.64-0.75 1.17-1.45 2.38-2.2 3.56-3 0.65-5.26 1.31-6.2 1.99-3.07 4.52-6.07 9.09-9.01 13.71-0.73 1.16-1.41 2.36-2.14 3.53-3.1 0.64-5.42 1.29-6.34 1.94-3.04 4.56-6.02 9.16-8.92 13.8-0.72 1.15-1.39 2.34-2.1 3.49-3.2 0.62-5.56 1.26-6.47 1.89-3.01 4.59-5.96 9.21-8.84 13.88-0.71 1.14-1.36 2.32-2.05 3.47-3.29 0.6-5.72 1.21-6.59 1.84-2.84 4.36-5.6 8.77-8.31 13.22l-2.17 0.83c-23.75 9.85-47.49 21.29-70.68 33.94-6.35 3.23-12.62 6.63-18.89 10.05-6.37 3.24-12.65 6.63-18.93 10.07-6.4 3.25-12.72 6.64-19.02 10.1-6.43 3.27-12.78 6.66-19.1 10.13-6.52 3.33-12.98 6.75-19.39 10.29-6.28 3.21-12.52 6.49-18.69 9.9-61.92 31.57-118.3 72.48-167 121.1-119.1 119-192.7 283.5-192.7 465.2 0 181.7 73.64 346.2 192.7 465.3s283.6 192.7 465.3 192.7c181.7 0 346.2-73.64 465.2-192.7 44.84-44.85 83.23-96.16 113.7-152.4 2.2-3.76 4.36-7.54 6.48-11.35 3.78-6.27 7.32-12.68 10.89-19.08 3.77-6.26 7.33-12.65 10.88-19.05 3.76-6.26 7.33-12.64 10.88-19.04 3.75-6.25 7.33-12.61 10.87-19.01 3.96-6.59 7.75-13.3 11.46-20.06 7.88-13.21 15.22-26.79 22.07-40.69 8.98-17.21 17.12-34.96 24.4-53.2l0.99-1.07c5.18-5.36 10.25-10.84 15.23-16.4 5.31-5.51 10.52-11.13 15.62-16.85 5.15-5.36 10.21-10.81 15.16-16.37 5.15-5.35 10.2-10.8 15.14-16.36 5.14-5.35 10.19-10.79 15.12-16.34 5.14-5.34 10.18-10.78 15.11-16.33 5.13-5.34 10.17-10.78 15.09-16.32 5.13-5.34 10.17-10.77 15.09-16.31 5.12-5.34 10.15-10.77 15.07-16.31 5.12-5.34 10.15-10.77 15.06-16.3 5.12-5.33 10.14-10.76 15.06-16.29 5.11-5.33 10.13-10.76 15.04-16.29 5.12-5.33 10.14-10.75 15.05-16.28 5.12-5.34 10.14-10.76 15.05-16.29 5.11-5.33 10.13-10.75 15.03-16.27 5.12-5.34 10.14-10.76 15.05-16.29 5.11-5.33 10.13-10.75 15.03-16.28l0.24-0.26c4.43-4.26 8.78-8.61 13.06-13.02 5.58-5.29 11.06-10.68 16.42-16.19 5.58-5.29 11.07-10.69 16.44-16.21 5.59-5.29 11.07-10.7 16.45-16.21 5.6-5.3 11.09-10.7 16.47-16.22 4.54-4.3 8.98-8.7 13.38-13.14 2.04-1.91 3.99-3.92 6.01-5.85-99.14-392.1-413.4-698.4-809.9-786"/>
  </clipPath>
 </defs>
 <g transform="translate(-86.08 -162.5)">
  <g id="red-white-line-globe-grid" transform="matrix(.01229 0 0 -.01229 79.69 254.9)">
   <path d="m2672 6440c0-594.3-481.8-1076-1076-1076-594.3 0-1076 481.8-1076 1076 0 594.3 481.8 1076 1076 1076 594.3 0 1076-481.8 1076-1076" style="fill:#ee3f56"/>
   <g clip-path="url(#clipPath4629)">
    <path d="m938.3 5389h1701v1709h-1701z" style="fill:#eb2037"/>
   </g>
   <path d="m2116 6193h-180.5c16.25 60.45 26.68 129.1 29.71 205.4h205c-5.4-73.04-24.31-142.3-54.23-205.4zm-335.5-298.1c44.36 50.99 91.96 122.2 128.1 215.8h159.9c-69.91-99.83-170.3-176.3-288-215.8zm-124.1-7.66c-7.04-6.01-13.26-10.64-18.45-14.65v238.2h182.5c-21.69-49.61-46.98-90.78-71.86-124.7-33.52-45.8-67.29-78.29-92.17-98.8zm-18.45 511.2h244.9c-3.4-78.08-15.48-146.3-33.11-205.4h-211.8zm0 288h212.4c17.68-59.01 29.35-127.7 32.74-205.6h-245.1zm0 82.14v238.1c38.55-28.9 122.8-102.8 182.3-238.1zm430.5 0h-159.9c-36.14 93.76-83.74 165.1-128.1 216.3 117.7-39.79 218.3-116.3 288-216.3zm101.8-287.8h-205c-3.03 76.49-13.46 145-29.71 205.6h180.5c29.92-63.07 48.99-132.3 54.23-205.6zm-614.6 287.8h-182.5c21.69 49.61 46.78 90.94 71.71 124.9 33.72 45.8 67.44 78.14 92.17 98.8 7.19 5.86 13.26 10.64 18.66 14.65zm0-287.8h-245.2c3.44 78.29 15.47 146.6 33.16 205.6h212zm0-287.8h-212.7c-17.48 59.07-29.3 127.5-32.69 205.4h245.4zm0-320.4c-38.76 28.89-123.1 102.8-182.3 238.2h182.3zm-430.5 238.2h159.8c36.19-93.61 83.54-164.9 128-215.8-117.7 39.53-218.1 116-287.8 215.8zm-102 287.7h205.2c2.83-76.28 13.47-145 29.5-205.6h-180.3c-30.12 63.28-48.99 132.4-54.39 205.6zm54.18 288h180.5c-16.03-60.66-26.67-129.1-29.5-205.6h-205.2c5.4 73.3 24.27 142.6 54.18 205.6zm335.8 298.4c-44.41-51.2-91.96-122.5-128.2-216.3h-160c69.86 99.98 170.3 176.5 288.2 216.3zm183.7 112.8c-363.5 0-658-294.6-658-658 0-363.4 294.5-657.8 658-658 363.4 0.2 657.8 294.6 658 658-0.2 363.5-294.6 658-658 658" style="fill:#fdfeff"/>
  </g>
 </g>
</svg>
