<?xml version="1.0" encoding="UTF-8" standalone="no"?>
<svg
   xmlns:dc="http://purl.org/dc/elements/1.1/"
   xmlns:cc="http://creativecommons.org/ns#"
   xmlns:rdf="http://www.w3.org/1999/02/22-rdf-syntax-ns#"
   xmlns:svg="http://www.w3.org/2000/svg"
   xmlns="http://www.w3.org/2000/svg"
   xmlns:sodipodi="http://sodipodi.sourceforge.net/DTD/sodipodi-0.dtd"
   xmlns:inkscape="http://www.inkscape.org/namespaces/inkscape"
   version="1.1"
   id="svg359"
   sodipodi:docname="i18.svg"
   width="100"
   height="100.0001"
   inkscape:version="0.92.2 (5c3e80d, 2017-08-06)">
  <metadata
     id="metadata363">
    <rdf:RDF>
      <cc:Work
         rdf:about="">
        <dc:format>image/svg+xml</dc:format>
        <dc:type
           rdf:resource="http://purl.org/dc/dcmitype/StillImage" />
        <dc:title></dc:title>
      </cc:Work>
    </rdf:RDF>
  </metadata>
  <sodipodi:namedview
     pagecolor="#ffffff"
     bordercolor="#666666"
     borderopacity="1"
     objecttolerance="10"
     gridtolerance="10"
     guidetolerance="10"
     inkscape:pageopacity="0"
     inkscape:pageshadow="2"
     inkscape:window-width="1034"
     inkscape:window-height="480"
     id="namedview361"
     showgrid="false"
     fit-margin-top="0"
     fit-margin-left="0"
     fit-margin-right="0"
     fit-margin-bottom="0"
     inkscape:zoom="3.1466668"
     inkscape:cx="43.220336"
     inkscape:cy="37.500041"
     inkscape:window-x="0"
     inkscape:window-y="0"
     inkscape:window-maximized="0"
     inkscape:current-layer="svg359" />
  <defs
     id="defs4543" />
  <g
     transform="matrix(0.5,0,0,-0.5,-84,119.9956)"
     id="globe_ol-plane"
     inkscape:label="globe_ol-plane">
    <path
       d="M 348,239.9912 H 188 c -11,0 -20,-9 -20,-20 v -160 c 0,-11 9,-20 20,-20 h 160 c 11,0 20,9 20,20 v 160 c 0,11 -9,20 -20,20"
       style="fill:#0071bc;fill-opacity:1;fill-rule:nonzero;stroke:none"
       id="path7338"
       inkscape:connector-curvature="0" />
    <path
       inkscape:connector-curvature="0"
       id="path7348"
       style="fill:#231f20;fill-opacity:1;fill-rule:nonzero;stroke:none"
       d="m 218.9678,90.959 50.968,-50.968 h 78.064 c 11,0 20,9 20,20 v 78.063 l -50.969,50.968 c 0,0 -51.068,41.769 -94.783,-1.946 -43.715,-43.715 -3.28,-96.117 -3.28,-96.117" />
    <path
       d="m 315.2334,101.3911 c -4.61,3.303 -9.704,6.064 -15.164,8.252 3.738,7.937 6.495,16.775 7.141,26.175 h 21.662 c -0.884,-13.008 -5.848,-24.911 -13.639,-34.427 m -35.748,-21.332 c 5.007,5.33 11.31,12.922 16.657,22.115 4.804,-1.849 9.282,-4.174 13.306,-6.926 -8.217,-7.618 -18.528,-13.002 -29.963,-15.189 m -7.314,27.114 c 5.393,-0.277 10.679,-1.084 15.732,-2.379 -5.198,-8.527 -11.214,-15.531 -15.733,-20.241 z m 0,28.645 26.661,0.001 c -0.673,-8.339 -3.279,-16.27 -6.773,-23.44 -6.313,1.782 -12.994,2.846 -19.889,3.155 z m -0.001,28.632 c 6.899,0.308 13.586,1.375 19.904,3.158 3.489,-7.166 6.087,-15.098 6.758,-23.446 l -26.661,-0.001 z m 0.001,30.994 c 4.522,-4.706 10.547,-11.712 15.749,-20.251 -5.059,-1.297 -10.35,-2.106 -15.749,-2.382 z m 37.276,-10.71 c -4.024,-2.751 -8.503,-5.076 -13.306,-6.926 -5.347,9.193 -11.65,16.786 -16.657,22.114 11.436,-2.187 21.746,-7.569 29.963,-15.188 m 19.425,-40.572 h -21.662 c -0.646,9.401 -3.403,18.239 -7.142,26.178 5.46,2.187 10.554,4.948 15.164,8.251 7.792,-9.515 12.756,-21.421 13.64,-34.429 m -65.044,28.649 c -5.393,0.275 -10.678,1.082 -15.731,2.378 5.198,8.527 11.214,15.531 15.731,20.241 z m 0,-28.649 h -26.66 c 0.674,8.362 3.292,16.313 6.801,23.498 6.343,-1.798 13.036,-2.886 19.859,-3.204 z m 0,-28.629 c -6.899,-0.309 -13.586,-1.374 -19.903,-3.159 -3.489,7.166 -6.088,15.097 -6.758,23.444 l 26.661,0.001 z m 0,-30.996 c -4.522,4.707 -10.548,11.713 -15.75,20.251 5.058,1.299 10.351,2.108 15.749,2.385 z m -37.275,10.708 c 4.024,2.752 8.502,5.078 13.305,6.927 5.347,-9.192 11.65,-16.784 16.656,-22.113 -11.434,2.187 -21.743,7.569 -29.961,15.186 m -19.425,40.573 h 21.662 c 0.645,-9.401 3.402,-18.238 7.14,-26.176 -5.459,-2.189 -10.552,-4.951 -15.162,-8.254 -7.791,9.516 -12.757,21.42 -13.64,34.43 m 13.644,42.779 c 4.575,-3.261 9.692,-6.011 15.185,-8.202 -3.752,-7.953 -6.521,-16.81 -7.168,-26.233 h -21.661 c 0.883,13.011 5.85,24.918 13.644,34.435 m 35.742,21.325 c -5.006,-5.328 -11.309,-12.921 -16.657,-22.114 -4.803,1.85 -9.282,4.175 -13.305,6.926 8.218,7.619 18.527,13.001 29.962,15.188 m 11.489,9.443 h -0.007 c -38.251,-0.002 -69.37,-31.123 -69.37,-69.375 0,-38.252 31.121,-69.373 69.374,-69.373 38.253,0 69.373,31.121 69.374,69.373 -10e-4,38.252 -31.12,69.373 -69.371,69.375"
       style="fill:#ace1fa;fill-opacity:1;fill-rule:nonzero;stroke:none"
       id="path7358"
       inkscape:connector-curvature="0" />
    <path
       d="m 295.4707,151.145 c 5.255,-5.223 9.807,-11.301 13.106,-17.941 3.308,-6.637 5.391,-13.908 5.727,-21.247 0.365,-7.329 -1.106,-14.652 -4.169,-21.042 -3.045,-6.414 -7.57,-11.855 -12.764,-16.254 4.416,5.187 7.841,11.14 9.647,17.447 1.828,6.3 1.997,12.877 0.662,19.033 -1.318,6.171 -4.067,11.915 -7.707,16.943 -3.656,5.046 -8.153,9.351 -13.223,12.954 z"
       style="fill:#dcddde;fill-opacity:1;fill-rule:nonzero;stroke:none"
       id="path7362"
       inkscape:connector-curvature="0" />
    <path
       d="m 296.8491,187.0195 -3.676,2.665 c -0.367,0.267 -1.006,0.331 -1.417,0.142 l -10.576,-4.835 c -0.82,0.725 -1.836,1.49 -2.07,1.469 -1.011,-0.086 -2.758,-2.16 -2.671,-3.169 0.006,-0.07 0.094,-0.199 0.236,-0.361 l -2.266,-1.036 c -0.829,0.742 -1.893,1.548 -2.135,1.527 -1.009,-0.085 -2.757,-2.159 -2.671,-3.169 0.007,-0.079 0.117,-0.231 0.29,-0.422 l -5.47,-2.502 c -1.678,1.478 -3.375,2.944 -5.08,4.379 -7.541,6.354 -13.867,7.722 -16.276,4.863 l 50.104,-42.216 c 0.456,0.543 0.186,1.667 -0.676,3.234 l 6.202,4.803 c 0.367,0.266 0.369,0.701 0.001,0.967 l -2.73,1.868 c -0.367,0.266 -1.004,0.33 -1.417,0.141 l -5.684,-2.621 c -3.622,4.503 -9.135,10.31 -15.482,16.366 l 23.463,16.941 c 0.367,0.264 0.368,0.7 0.001,0.966"
       style="fill:#bcbec0;fill-opacity:1;fill-rule:nonzero;stroke:none"
       id="path7366"
       inkscape:connector-curvature="0" />
    <path
       d="m 251.748,133.4927 -3.25,3.17 c -0.324,0.317 -0.495,0.935 -0.379,1.372 l 2.971,11.243 c -0.854,0.684 -1.78,1.557 -1.8,1.792 -0.087,1.01 1.661,3.085 2.67,3.17 0.07,0.005 0.212,-0.06 0.396,-0.172 l 0.636,2.409 c -0.871,0.692 -1.846,1.604 -1.868,1.846 -0.085,1.009 1.662,3.083 2.671,3.169 0.078,0.006 0.247,-0.076 0.467,-0.216 l 1.536,5.817 c -1.741,1.402 -3.472,2.827 -5.177,4.263 -7.54,6.353 -9.962,12.357 -7.554,15.215 l 50.104,-42.216 c -0.458,-0.543 -1.61,-0.466 -3.301,0.118 l -3.682,-6.928 c -0.199,-0.407 -0.627,-0.481 -0.952,-0.164 l -2.304,2.373 c -0.325,0.317 -0.496,0.934 -0.379,1.373 l 1.618,6.046 c -5.052,2.805 -11.711,7.255 -18.756,12.482 l -12.714,-25.996 c -0.199,-0.408 -0.628,-0.482 -0.953,-0.166"
       style="fill:#a7a9ac;fill-opacity:1;fill-rule:nonzero;stroke:none"
       id="path7370"
       inkscape:connector-curvature="0" />
  </g>
</svg>
