<?xml version="1.0" encoding="UTF-8" standalone="no"?>
<svg
   xmlns:dc="http://purl.org/dc/elements/1.1/"
   xmlns:cc="http://creativecommons.org/ns#"
   xmlns:rdf="http://www.w3.org/1999/02/22-rdf-syntax-ns#"
   xmlns:svg="http://www.w3.org/2000/svg"
   xmlns="http://www.w3.org/2000/svg"
   xmlns:sodipodi="http://sodipodi.sourceforge.net/DTD/sodipodi-0.dtd"
   xmlns:inkscape="http://www.inkscape.org/namespaces/inkscape"
   version="1.1"
   id="svg377"
   sodipodi:docname="i20.svg"
   width="100"
   height="99.999947"
   inkscape:version="0.92.2 (5c3e80d, 2017-08-06)">
  <metadata
     id="metadata381">
    <rdf:RDF>
      <cc:Work
         rdf:about="">
        <dc:format>image/svg+xml</dc:format>
        <dc:type
           rdf:resource="http://purl.org/dc/dcmitype/StillImage" />
        <dc:title></dc:title>
      </cc:Work>
    </rdf:RDF>
  </metadata>
  <sodipodi:namedview
     pagecolor="#ffffff"
     bordercolor="#666666"
     borderopacity="1"
     objecttolerance="10"
     gridtolerance="10"
     guidetolerance="10"
     inkscape:pageopacity="0"
     inkscape:pageshadow="2"
     inkscape:window-width="1034"
     inkscape:window-height="480"
     id="namedview379"
     showgrid="false"
     fit-margin-top="0"
     fit-margin-left="0"
     fit-margin-right="0"
     fit-margin-bottom="0"
     inkscape:zoom="3.1466652"
     inkscape:cx="43.220361"
     inkscape:cy="37.499994"
     inkscape:window-x="0"
     inkscape:window-y="0"
     inkscape:window-maximized="0"
     inkscape:current-layer="svg377" />
  <defs
     id="defs4543" />
  <g
     transform="matrix(0.49999975,0,0,-0.49999975,-363.99982,370.00421)"
     id="bag-scale"
     inkscape:label="bag-scale">
    <path
       d="M 908,740.0088 H 748 c -11,0 -20,-9 -20,-20 v -160 c 0,-11 9,-20 20,-20 h 160 c 11,0 20,9 20,20 v 160 c 0,11 -9,20 -20,20"
       style="fill:#ed0872;fill-opacity:1;fill-rule:nonzero;stroke:none"
       id="path7100"
       inkscape:connector-curvature="0" />
    <path
       inkscape:connector-curvature="0"
       id="path7110"
       style="fill:#231f20;fill-opacity:1;fill-rule:nonzero;stroke:none"
       d="m 876.6831,669.022 7.956,-7.957 -0.004,-21.683 -27.774,27.774 -11.063,-7.703 -16.258,16.258 -20.653,-0.335 -0.017,-8.93 -27.567,-51.904 12.271,-12.272 -33.023,-0.971 8.952,-8.952 -8.994,-0.106 52.233,-52.232 h 95.258 c 11,0 20,8.999 20,20 v 89.495 l -35.418,35.417 z" />
    <path
       d="m 855.7686,667.6172 h -73.394 c -0.84,0 -1.529,-0.688 -1.529,-1.529 v -50.458 c 0,-0.842 0.689,-1.53 1.529,-1.53 h 73.394 c 0.842,0 1.529,0.688 1.529,1.53 v 50.458 c 0,0.841 -0.687,1.529 -1.529,1.529"
       style="fill:#58595b;fill-opacity:1;fill-rule:nonzero;stroke:none"
       id="path7120"
       inkscape:connector-curvature="0" />
    <path
       d="m 837.6533,667.6172 v -53.517 h 4.714 v 53.517 z m -41.877,-53.517 h 4.714 v 53.517 h -4.714 z"
       style="fill:#4c4d4f;fill-opacity:1;fill-rule:nonzero;stroke:none"
       id="path7124"
       inkscape:connector-curvature="0" />
    <path
       d="m 827.3818,667.6172 0.004,5.925 h -16.628 v -5.925 h -3.059 v 5.925 c 0,1.685 1.372,3.057 3.059,3.057 h 16.628 c 1.686,0 3.059,-1.372 3.059,-3.057 v -5.925 z"
       style="fill:#58595b;fill-opacity:1;fill-rule:nonzero;stroke:none"
       id="path7128"
       inkscape:connector-curvature="0" />
    <path
       d="m 811.6641,668.5718 h -4.88 v -0.955 h 4.88 z"
       style="fill:#414142;fill-opacity:1;fill-rule:nonzero;stroke:none"
       id="path7132"
       inkscape:connector-curvature="0" />
    <path
       d="m 831.3594,668.5718 h -4.917 v -0.955 h 4.917 z"
       style="fill:#414142;fill-opacity:1;fill-rule:nonzero;stroke:none"
       id="path7136"
       inkscape:connector-curvature="0" />
    <path
       d="m 876.6191,611.4131 h -115.095 c -0.77,0 -1.4,-0.63 -1.4,-1.4 v -7.709 c 0,-0.77 0.63,-1.401 1.4,-1.401 h 115.095 c 0.771,0 1.4,0.631 1.4,1.401 v 7.709 c 0,0.77 -0.629,1.4 -1.4,1.4"
       style="fill:#58595b;fill-opacity:1;fill-rule:nonzero;stroke:none"
       id="path7140"
       inkscape:connector-curvature="0" />
    <path
       d="m 892.0195,598.1123 h -130.495 c -0.771,0 -1.401,-0.63 -1.401,-1.401 v -3.508 c 0,-0.77 0.63,-1.4 1.401,-1.4 h 130.495 c 0.771,0 1.399,0.63 1.399,1.4 v 3.509 c 0,0.77 -0.628,1.4 -1.399,1.4"
       style="fill:#58595b;fill-opacity:1;fill-rule:nonzero;stroke:none"
       id="path7144"
       inkscape:connector-curvature="0" />
    <path
       inkscape:connector-curvature="0"
       id="path7146"
       style="fill:#4c4d4f;fill-opacity:1;fill-rule:nonzero;stroke:none"
       d="m 874.981,598.112 h -111.82 v 2.791 h 111.82 z" />
    <path
       d="m 886.335,665.1152 h -3.404 v -67.003 h 3.404 z"
       style="fill:#58595b;fill-opacity:1;fill-rule:nonzero;stroke:none"
       id="path7150"
       inkscape:connector-curvature="0" />
    <path
       d="m 888.085,665.1152 h -6.906 l 10e-4,1.788 h 6.905 z"
       style="fill:#4c4d4f;fill-opacity:1;fill-rule:nonzero;stroke:none"
       id="path7154"
       inkscape:connector-curvature="0" />
    <path
       d="m 895.875,676.9712 c 0,-6.208 -5.033,-11.243 -11.242,-11.243 -6.209,0 -11.243,5.035 -11.243,11.243 0,6.209 5.034,11.244 11.243,11.244 6.209,-10e-4 11.242,-5.035 11.242,-11.244"
       style="fill:#58595b;fill-opacity:1;fill-rule:nonzero;stroke:none"
       id="path7158"
       inkscape:connector-curvature="0" />
    <path
       d="m 894.1621,676.9717 c 0,-5.263 -4.267,-9.53 -9.529,-9.53 -5.264,0 -9.531,4.267 -9.531,9.53 0,5.264 4.267,9.53 9.531,9.53 5.262,0 9.529,-4.266 9.529,-9.53"
       style="fill:#e7e8e9;fill-opacity:1;fill-rule:nonzero;stroke:none"
       id="path7162"
       inkscape:connector-curvature="0" />
    <path
       d="m 879.7832,672.6846 -2.157,-2.156 c 0.179,-0.197 0.367,-0.384 0.562,-0.564 l 2.158,2.157 z"
       style="fill:#bcbec0;fill-opacity:1;fill-rule:nonzero;stroke:none"
       id="path7166"
       inkscape:connector-curvature="0" />
    <path
       d="m 891.0938,676.5742 h 3.049 c 0.005,0.133 0.019,0.263 0.019,0.397 0,0.135 -0.014,0.266 -0.019,0.399 h -3.05 z"
       style="fill:#bcbec0;fill-opacity:1;fill-rule:nonzero;stroke:none"
       id="path7170"
       inkscape:connector-curvature="0" />
    <path
       d="m 889.4829,672.6855 -0.562,-0.563 2.156,-2.158 c 0.196,0.181 0.383,0.368 0.563,0.564 z"
       style="fill:#bcbec0;fill-opacity:1;fill-rule:nonzero;stroke:none"
       id="path7174"
       inkscape:connector-curvature="0" />
    <path
       d="m 878.1709,677.3691 h -3.048 c -0.006,-0.133 -0.02,-0.263 -0.02,-0.397 0,-0.135 0.014,-0.266 0.02,-0.399 h 3.049 z"
       style="fill:#bcbec0;fill-opacity:1;fill-rule:nonzero;stroke:none"
       id="path7178"
       inkscape:connector-curvature="0" />
    <path
       d="m 889.4824,681.2598 2.156,2.156 c -0.179,0.196 -0.367,0.383 -0.562,0.563 l -2.157,-2.157 z"
       style="fill:#bcbec0;fill-opacity:1;fill-rule:nonzero;stroke:none"
       id="path7182"
       inkscape:connector-curvature="0" />
    <path
       d="m 879.7822,681.2588 0.563,0.563 -2.157,2.157 c -0.195,-0.18 -0.383,-0.367 -0.562,-0.563 z"
       style="fill:#bcbec0;fill-opacity:1;fill-rule:nonzero;stroke:none"
       id="path7186"
       inkscape:connector-curvature="0" />
    <path
       d="m 885.0313,667.4614 v 3.05 l -0.796,-10e-4 v -3.049 c 0.132,-0.006 0.263,-0.02 0.398,-0.02 0.134,0 0.265,0.015 0.398,0.02"
       style="fill:#bcbec0;fill-opacity:1;fill-rule:nonzero;stroke:none"
       id="path7190"
       inkscape:connector-curvature="0" />
    <path
       d="m 885.0303,686.4814 c -0.133,0.006 -0.264,0.021 -0.397,0.021 -0.135,-10e-4 -0.266,-0.015 -0.399,-0.021 v -3.049 h 0.796 z"
       style="fill:#bcbec0;fill-opacity:1;fill-rule:nonzero;stroke:none"
       id="path7194"
       inkscape:connector-curvature="0" />
    <path
       d="m 884.0244,678.0273 7.432,2.883 -6.213,-4.994 z"
       style="fill:#d81920;fill-opacity:1;fill-rule:nonzero;stroke:none"
       id="path7198"
       inkscape:connector-curvature="0" />
    <path
       d="m 886.5527,676.9712 c 0,-1.06 -0.86,-1.919 -1.919,-1.919 -1.061,0 -1.921,0.859 -1.921,1.919 0,1.061 0.86,1.92 1.92,1.92 1.06,0 1.92,-0.859 1.92,-1.92"
       style="fill:#4c4d4f;fill-opacity:1;fill-rule:nonzero;stroke:none"
       id="path7202"
       inkscape:connector-curvature="0" />
  </g>
</svg>
