<?xml version="1.0" encoding="UTF-8" standalone="no"?>
<svg xmlns:dc="http://purl.org/dc/elements/1.1/" xmlns:cc="http://creativecommons.org/ns#" xmlns:rdf="http://www.w3.org/1999/02/22-rdf-syntax-ns#" xmlns:svg="http://www.w3.org/2000/svg" xmlns="http://www.w3.org/2000/svg" xmlns:xlink="http://www.w3.org/1999/xlink" xmlns:sodipodi="http://sodipodi.sourceforge.net/DTD/sodipodi-0.dtd" xmlns:inkscape="http://www.inkscape.org/namespaces/inkscape" version="1.1" viewBox="0 0 100 100.1" id="svg9094" sodipodi:docname="i24a.svg" inkscape:version="0.92.2 (5c3e80d, 2017-08-06)">
  <metadata id="metadata9098">
    <rdf:RDF>
      <cc:Work rdf:about="">
        <dc:format>image/svg+xml</dc:format>
        <dc:type rdf:resource="http://purl.org/dc/dcmitype/StillImage" />
        <dc:title></dc:title>
      </cc:Work>
    </rdf:RDF>
  </metadata>
  <sodipodi:namedview pagecolor="#ffffff" bordercolor="#666666" borderopacity="1" objecttolerance="10" gridtolerance="10" guidetolerance="10" inkscape:pageopacity="0" inkscape:pageshadow="2" inkscape:window-width="2560" inkscape:window-height="1001" id="namedview9096" showgrid="false" inkscape:zoom="2.3576424" inkscape:cx="16.49195" inkscape:cy="50.049999" inkscape:window-x="-9" inkscape:window-y="41" inkscape:window-maximized="1" inkscape:current-layer="g9092" />
  <defs id="defs9082">
    <linearGradient id="linearGradient19435-5-8" x1="0.77307844" x2="0.22702704" y1="-0.41900957" y2="0.42195335" gradientTransform="matrix(30.74 -19.96 19.96 30.74 326.8 90.8)" gradientUnits="userSpaceOnUse">
      <stop style="stop-color:#696969" offset="0" id="stop9053" />
      <stop style="stop-color:#c7c7c9" offset=".17" id="stop9055" />
      <stop style="stop-color:#f9f9ff" offset=".36" id="stop9057" />
      <stop style="stop-color:#ccccce" offset=".73" id="stop9059" />
      <stop style="stop-color:#696969" offset="1" id="stop9061" />
    </linearGradient>
    <linearGradient id="linearGradient19433-8" x1="-1405" x2="1" y1="704.4" y2="781.4" gradientTransform="matrix(16.75 -23.92 23.92 16.75 333.8 92.78)" gradientUnits="userSpaceOnUse">
      <stop style="stop-color:#1c072d" offset="0" id="stop9064" />
      <stop style="stop-color:#5700aa" offset="0.39643598" id="stop9066" />
      <stop style="stop-color:#4b127b" offset="0.66072667" id="stop9068" />
      <stop style="stop-color:#290a43" offset="1" id="stop9070" />
    </linearGradient>
    <radialGradient id="radialGradient7443-9" cx="344.3" cy="79.31" r="12.73" gradientTransform="matrix(1 0 0 1.021 0 -1.684)" gradientUnits="userSpaceOnUse">
      <stop style="stop-color:#fbfbfb" offset="0" id="stop9073" />
      <stop style="stop-color:#f9f9ff" offset=".2717" id="stop9075" />
      <stop style="stop-color:#ccccce" offset=".5976" id="stop9077" />
      <stop style="stop-color:#696969" offset="1" id="stop9079" />
    </radialGradient>
    <radialGradient inkscape:collect="always" xlink:href="#linearGradient19433-8" id="radialGradient9643" cx="344.57761" cy="76.851906" fx="344.57761" fy="76.851906" r="14.6" gradientUnits="userSpaceOnUse" gradientTransform="matrix(0.95540267,0,0,0.96705127,15.574946,2.6222946)" />
    <linearGradient inkscape:collect="always" xlink:href="#linearGradient19435-5-8" id="linearGradient9651" x1="323.17099" y1="80.82" x2="361.271" y2="80.82" gradientUnits="userSpaceOnUse" />
  </defs>
  <g transform="matrix(2.625,0,0,2.625,-848.2,-162.1)" id="g9092">
    <path d="M 329,67.58 C 325.332,71.271 323.164,75.935 323.171,80.82 323.2512,90.767 332.272,99.83 342.221,99.9 352.17,99.83435 361.191,90.768 361.271,80.82 361.1908,70.873 352.169,61.81 342.221,61.74 H 342.1977 C 337.3187,61.74 332.6727,63.904 328.9977,67.577 M 327.0447,80.817 C 327.0447,76.863 328.7137,73.113 331.6157,70.197 334.5217,67.289 338.2677,65.615 342.2157,65.618 350.3027,65.65447 357.3457,72.726 357.3857,80.818 357.3449,88.907 350.2987,95.978 342.2157,96.018 334.1297,95.98153 327.0857,88.911 327.0457,80.818" style="fill:url(#linearGradient9651);stroke-width:0.51459998;fill-opacity:1" id="path9084" inkscape:connector-curvature="0" />
    <path d="M 342.2,62.49 C 337.304,62.49 332.701,64.397 329.24,67.859 325.778,71.321 323.871,75.924 323.871,80.819 323.871,90.929 332.094,99.149 342.201,99.149 352.311,99.149 360.531,90.926 360.531,80.819 360.531,70.709 352.308,62.489 342.201,62.489 Z M 327.6,80.82 C 327.6,76.921 329.118,73.256 331.875,70.5 334.632,67.743 338.297,66.225 342.195,66.225 350.244,66.225 356.795,72.773 356.795,80.825 356.795,88.873 350.247,95.425 342.195,95.425 334.147,95.425 327.595,88.877 327.595,80.825" style="fill:url(#linearGradient19435-5-8);stroke-width:0.51459998;fill-opacity:1" id="path9086" inkscape:connector-curvature="0" />
    <path d="M 327.6,80.82 C 327.6,88.882 334.135,95.42 342.2,95.42 350.262,95.42 356.8,88.884 356.8,80.82 356.8,72.757 350.264,66.22 342.2,66.22 334.138,66.22 327.6,72.755 327.6,80.82" style="fill:url(#radialGradient9643);stroke-width:0.51459998;fill-opacity:1" id="path9088" inkscape:connector-curvature="0" />
    <path d="M 335.1,70.17 C 335.1656,70.15541 335.2371,70.17 335.3551,70.19188 335.6733,70.26482 335.9398,70.28816 336.1507,70.36128 336.3628,70.43276 336.2572,70.55308 336.7065,70.57688 337.1564,70.60168 337.2912,70.64836 337.4225,70.57688 337.5538,70.5054 337.8989,70.48206 337.5027,70.43248 337.1055,70.38434 337.0519,70.45728 336.9454,70.33766 336.8389,70.21806 336.7606,70.31286 336.8141,70.14466 336.8666,69.97646 336.9191,70.02356 336.8666,69.90386 336.8141,69.78426 337.1317,69.76086 336.8141,69.78426 336.4957,69.8076 336.5476,69.83094 336.389,69.85574 336.23,69.88054 335.9403,70.07074 336.0726,69.88054 336.2039,69.68754 336.0989,69.68754 336.3633,69.59064 336.6273,69.49582 336.6557,69.49582 336.9195,69.47104 337.1846,69.44624 337.5547,69.44624 337.3163,69.56732 337.0775,69.68842 336.8922,69.76032 337.0518,69.78452 337.2104,69.80786 336.8392,69.856 337.3425,69.80786 337.8453,69.75972 337.8726,69.75972 338.0841,69.75972 338.2967,69.75972 338.1629,69.75972 338.3759,69.73492 338.588,69.71158 338.905,69.59052 338.746,69.71158 338.588,69.83118 338.3496,69.73492 338.3759,69.90338 338.4022,70.07118 338.2694,70.09638 338.5072,70.14418 338.7456,70.19232 338.7985,70.28858 338.6122,70.28858 338.4275,70.28858 338.5072,70.2419 338.2685,70.28858 338.1766,70.30754 338.1018,70.30317 338.0415,70.287996 337.9452,70.273406 337.8882,70.257366 337.8717,70.362396 337.844,70.529096 337.7137,70.577996 338.0045,70.603196 338.2963,70.625076 338.2149,70.649876 338.4805,70.578396 338.5855,70.550676 338.6205,70.563806 338.6348,70.578396 338.6567,70.604656 338.63436,70.630916 338.7457,70.501076 338.931,70.283376 339.0647,70.139776 339.0375,70.259676 339.0112,70.379276 338.985,70.404076 338.931,70.476876 338.8785,70.548356 338.8522,70.692476 339.0112,70.597976 339.1682,70.501696 339.3549,70.573176 339.3549,70.357176 339.3549,70.140376 339.2484,70.115776 339.3812,70.067276 339.514,70.019136 339.6215,69.924276 339.4877,69.924276 339.3549,69.924276 339.2495,69.972416 339.1172,69.947616 338.9859,69.924276 338.8794,69.924276 338.9592,69.828016 339.038,69.731736 339.038,69.683616 339.2747,69.660816 339.5145,69.636016 339.3549,69.660816 339.5145,69.636016 339.6735,69.612676 339.621,69.466616 339.6735,69.612676 339.726,69.757076 339.567,69.757076 339.726,69.757076 339.8856,69.757076 339.9369,69.757076 340.0703,69.684136 340.2045,69.612656 340.2293,69.612656 340.3343,69.563036 340.3883,69.538236 340.4218,69.587836 340.4612,69.634516 340.5006,69.684116 340.5473,69.730796 340.6269,69.707456 340.7849,69.659316 341.1292,69.611176 341.3417,69.611176 341.5526,69.611176 341.4482,69.611176 341.7668,69.707456 342.0828,69.803736 342.2953,69.780396 342.427,69.923456 342.5598,70.066456 342.7177,70.066456 342.7177,70.213156 342.7177,70.357556 342.5057,70.428356 342.7454,70.477156 342.8344,70.494656 342.9003,70.491746 342.9533,70.491746 343.0423,70.491746 343.0919,70.477156 343.1412,70.573436 343.22,70.719336 343.3543,70.789436 343.22,70.838936 343.0887,70.885616 343.062,70.885616 342.9288,70.885616 342.7975,70.885616 342.4537,70.670416 342.5593,70.838936 342.6673,71.007236 342.8767,71.007236 342.8511,71.102936 342.8263,71.200676 342.8511,71.295336 342.6915,71.295336 342.5305,71.295336 342.4537,71.270536 342.3731,71.247196 342.2943,71.223856 342.3468,71.031996 342.2943,71.223856 342.2418,71.415856 342.5048,71.366856 342.2418,71.415856 341.9757,71.463996 341.9757,71.487336 341.8697,71.391056 341.7661,71.294776 341.7661,71.269956 341.6577,71.223256 341.5512,71.173656 341.6854,71.150316 341.4205,71.150316 341.1538,71.150316 341.0494,71.269916 341.0211,71.150316 340.9963,71.030716 341.0488,70.959316 341.2603,70.935116 341.3347,70.920526 341.3741,70.936116 341.4033,70.949706 341.4558,70.967206 341.4777,70.984716 341.6307,70.888436 341.8699,70.745436 342.1087,70.816956 342.0023,70.624436 341.8973,70.432436 341.8437,70.360936 341.658,70.312536 341.4727,70.264396 341.4208,70.264396 341.2083,70.264396 340.9968,70.264396 340.8901,70.217716 340.8901,70.337336 340.8901,70.456936 340.9178,70.552936 340.8376,70.601936 340.7588,70.648616 340.7836,70.721536 340.6513,70.744936 340.52,70.769736 340.5477,70.769736 340.3867,70.769736 340.2287,70.769736 340.043,70.938936 340.1222,70.769736 340.2039,70.601936 340.1222,70.623836 340.2828,70.527836 340.4412,70.433016 340.52,70.505956 340.5473,70.337336 340.5619,70.258556 340.5619,70.258556 340.5473,70.258556 340.5327,70.258556 340.5181,70.25914 340.4889,70.143356 340.4364,69.926756 340.4889,70.095216 340.4364,69.926756 340.3824,69.758956 340.6465,69.663256 340.3824,69.758956 340.1179,69.855236 340.1179,69.807096 339.9866,69.901956 339.8538,69.998236 339.8003,69.974896 339.8538,70.142756 339.9048,70.311056 339.88,70.335756 340.0112,70.335756 340.144,70.335756 340.3288,70.359096 340.1708,70.480156 340.0112,70.601256 339.9593,70.601256 339.986,70.720556 340.0108,70.840156 340.1708,70.840156 339.932,70.937656 339.6948,71.033936 339.5883,71.176056 339.244,71.297356 338.8997,71.418456 338.7937,71.368836 338.5296,71.537156 338.2641,71.706556 338.21,71.634896 338.1318,71.825856 338.0516,72.019856 337.9734,71.994656 338.0793,72.138356 338.1858,72.284256 338.2646,72.331356 338.4236,72.379156 338.5832,72.428756 338.6887,72.572156 338.9264,72.596856 338.9993,72.611446 339.0694,72.596856 339.1306,72.596856 339.2663,72.596856 339.3519,72.582266 339.2979,72.688756 339.2191,72.831756 339.0328,73.095956 339.1393,73.217256 339.2443,73.336856 339.4579,73.480256 339.5886,73.217256 339.7214,72.951156 339.6411,72.831856 339.8268,72.711956 339.8954,72.668196 339.9596,72.669656 340.0204,72.671106 340.1254,72.671106 340.22,72.671106 340.304,72.446206 340.4368,72.086506 340.2515,72.133906 340.4368,71.941906 340.6216,71.749306 340.6469,71.654206 340.7538,71.510106 340.8603,71.364206 340.9401,71.413826 341.2561,71.461966 341.5757,71.510106 341.8135,71.725966 341.7337,71.895366 341.6535,72.063566 341.4955,72.110366 341.6535,72.134166 341.8135,72.158966 341.8655,72.183766 342.0507,72.015966 342.2376,71.845766 342.3158,71.726266 342.3961,71.845766 342.4734,71.968266 342.5551,71.990166 342.5259,72.184366 342.4996,72.375366 342.3685,72.327366 342.4734,72.496266 342.5814,72.663466 342.8991,72.663466 342.9789,72.808566 343.0577,72.951566 343.2428,73.074666 343.0577,73.145666 342.8724,73.218606 342.9249,73.456966 342.9249,73.554666 342.9249,73.650946 343.0314,73.650946 343.1369,73.770866 343.2434,73.891966 343.3222,74.058566 343.1909,74.082766 343.0581,74.107566 343.1369,74.034626 342.8729,74.034626 342.6074,74.034626 342.2904,74.082766 342.3161,73.985026 342.3423,73.890206 342.3686,73.865426 342.5266,73.744726 342.6876,73.623626 342.7937,73.600326 342.7937,73.455426 342.7937,73.313926 342.7937,73.216626 342.6351,73.313926 342.4741,73.407286 342.5271,73.503826 342.3161,73.503826 342.1046,73.503826 342.0779,73.479026 341.8395,73.479026 341.6029,73.479026 341.5235,73.382746 341.3368,73.479026 341.1499,73.575306 340.9138,73.672426 340.8859,73.744126 340.8611,73.817066 341.0172,73.817066 341.1499,73.768926 341.2841,73.720786 341.6815,73.720786 341.5477,73.817066 341.4164,73.913346 341.2842,73.936666 341.3367,74.056866 341.3907,74.177966 341.7067,74.274066 341.8137,74.177966 341.9187,74.081686 342.2635,74.129826 342.1317,74.226106 341.9975,74.322386 341.9191,74.443306 341.7066,74.514806 341.5943,74.554196 341.5193,74.536686 341.4462,74.514806 341.3805,74.500216 341.3164,74.485626 341.2306,74.514806 341.0453,74.562946 340.8857,74.562946 340.7798,74.539606 340.6733,74.514806 340.701,74.466666 340.543,74.491466 340.3824,74.514806 340.3294,74.659266 340.0932,74.803766 339.8544,74.948166 339.8003,74.972566 339.616,75.115666 339.4283,75.260066 339.4024,75.357566 339.244,75.476866 339.084,75.597966 339.2192,75.622766 339.084,75.597966 338.9542,75.573166 338.8998,75.453566 338.8739,75.573166 338.8476,75.694266 338.8476,75.717566 338.8739,75.812566 338.9002,75.910306 338.9541,75.956966 338.9002,76.078066 338.8477,76.197666 338.7412,76.223966 338.5564,76.319466 338.3711,76.414286 338.3711,76.439066 338.1323,76.582966 337.8945,76.728866 337.8149,76.704066 337.7623,76.919066 337.7098,77.136166 337.736,77.235066 337.736,77.474266 337.736,77.714066 337.8688,77.881466 337.7097,77.954466 337.5497,78.025946 337.3648,77.904866 337.3648,77.617366 337.3648,77.330166 337.3371,77.185166 337.3371,77.185166 337.3371,77.185166 337.1514,77.135566 336.9934,77.112226 336.8338,77.088886 336.7273,77.065546 336.542,77.065546 336.3578,77.065546 336.2775,77.040746 336.2775,77.112226 V 77.306726 C 336.2775,77.306726 336.2775,77.401546 336.1462,77.376746 336.0134,77.354866 335.962,77.330066 335.8272,77.280466 335.6959,77.235246 335.9352,77.088966 335.5108,77.235246 335.0872,77.376746 334.954,77.376746 334.8756,77.617646 334.7954,77.858446 334.8479,77.905746 334.7428,78.073646 334.6363,78.243446 334.5036,78.363846 334.5565,78.627246 334.6105,78.893346 334.6645,79.205246 334.8216,79.252646 334.9806,79.302246 335.1386,79.302246 335.3794,79.275986 335.6162,79.252646 335.6687,79.156386 335.7766,79.013586 335.8816,78.867686 336.0134,78.771686 336.2249,78.771686 336.4385,78.771686 336.4905,78.796486 336.3329,79.013586 336.1739,79.228186 335.9074,79.422186 335.9872,79.613186 336.0674,79.806186 336.1466,79.734286 336.3844,79.710926 336.6228,79.684666 336.8095,79.734266 336.8347,79.830526 336.8624,79.925346 336.9675,80.069726 336.8872,80.165026 336.8084,80.261306 336.9149,80.599326 336.9149,80.599326 336.9149,80.599326 336.9149,80.648926 336.9937,80.815526 337.0725,80.983326 337.1002,81.031126 337.2052,81.006926 337.3117,80.983586 337.3646,80.768726 337.4974,80.768726 337.6302,80.768726 337.5762,80.768726 337.7095,80.862086 337.8408,80.958366 337.9473,80.958366 337.9473,80.958366 337.9473,80.958366 337.9473,80.972956 337.9327,80.980246 338.099,80.678146 338.4885,80.628846 338.4885,80.628846 338.4885,80.628846 338.6242,80.506346 338.8118,80.409546 339.0022,80.311806 338.8118,80.456226 338.8935,80.604546 338.9752,80.751746 338.8935,80.604546 339.1368,80.506806 339.3803,80.410526 339.1368,80.506806 339.4049,80.533066 339.6757,80.556406 339.4049,80.533066 339.5681,80.703466 339.6761,80.817266 339.6761,80.801206 339.7585,80.785156 339.8008,80.770566 339.8635,80.769106 339.9721,80.770566 340.2962,80.793906 340.3771,80.821626 340.7563,80.967666 341.1331,81.113566 340.8905,81.015806 341.24,81.357766 341.5144,81.627966 341.4916,81.625866 341.5849,81.624866 341.6112,81.624428 341.6462,81.623866 341.7001,81.624866 341.943,81.649666 342.3202,81.795666 342.4823,81.969166 342.645,82.137966 342.5903,82.187866 342.645,82.358266 342.6975,82.530666 342.8339,82.530666 343.0495,82.727766 343.2651,82.924366 343.3192,82.797786 343.5904,82.948666 343.859,83.094666 343.7777,83.021606 344.156,83.119466 344.5343,83.217206 344.3722,83.192406 344.6963,83.364366 345.0196,83.536766 344.9388,83.510266 345.2887,83.633066 345.6407,83.755566 345.3689,83.853766 345.3427,84.124566 345.315,84.393666 344.8305,84.810066 344.6957,85.080266 344.5615,85.349366 344.668,85.470766 344.668,85.692666 344.668,85.913966 344.668,85.938166 344.56,86.182566 344.4506,86.429066 344.4243,86.429066 344.344,86.551066 344.2623,86.673566 344.101,86.869066 343.9385,86.869066 343.7769,86.869066 343.7213,86.869066 343.4253,87.091366 343.1295,87.310666 343.1561,87.406866 343.182,87.627666 343.2097,87.847966 343.182,87.726866 343.1557,87.825366 343.1294,87.921646 343.1557,87.825366 343.02,87.947866 342.8843,88.068966 343.02,88.045606 342.9937,88.141866 342.9674,88.241066 342.9135,88.288666 342.8843,88.362766 342.858,88.437166 342.7515,88.533566 342.6965,88.609166 342.644,88.680646 342.507,88.903066 342.2924,88.950366 342.0774,89.001426 341.9141,88.927026 341.8596,89.051066 341.8071,89.173566 341.8596,89.051066 341.9413,89.173566 342.023,89.297566 341.9676,89.246506 341.9953,89.442666 342.023,89.639166 341.9953,89.540406 341.7793,89.737066 341.5646,89.933166 341.5646,89.737066 341.401,89.737066 341.2388,89.737066 341.2682,89.834806 341.2682,89.908866 341.2682,89.981806 341.2682,90.008066 341.1865,90.031366 341.1063,90.056166 341.0785,90.056166 340.9987,90.179166 340.9549,90.243356 340.9578,90.240436 340.9812,90.236056 341.0016,90.236056 341.041,90.236056 341.0789,90.276906 341.1591,90.376106 341.1591,90.323586 341.1591,90.473406 341.1591,90.619606 341.1328,90.572606 341.1051,90.717906 341.0774,90.866106 341.1051,90.717906 340.9424,90.891406 340.852,90.987686 340.8636,90.974556 340.8899,90.964346 340.9118,90.949756 340.9424,90.946836 340.9424,90.987686 340.9424,91.085426 340.9701,91.062086 341.0518,91.182686 341.132,91.305186 341.186,91.281886 341.2129,91.379186 341.2392,91.476926 341.2129,91.379186 341.1852,91.624686 341.1691,91.769086 341.1706,91.744286 341.1662,91.718046 341.1662,91.700536 341.1516,91.683036 341.1312,91.718046 341.0772,91.815786 341.051,91.790986 341.051,91.890046 341.051,91.987786 341.051,91.890046 341.105,92.060846 341.1356,92.161546 341.1313,92.143996 341.0904,92.127946 341.0641,92.113356 341.0218,92.104606 340.9664,92.127946 340.8336,92.202346 340.9664,92.227146 340.9664,92.227146 L 341.0744,92.275286 C 341.1824,92.324886 341.0744,92.275286 341.1824,92.227146 341.2918,92.177546 341.2641,92.324886 341.3719,92.373346 341.4784,92.422946 341.4521,92.446286 341.534,92.495846 341.6142,92.545446 341.6142,92.545446 341.6961,92.593586 341.7763,92.641726 341.7486,92.666526 341.6698,92.691326 341.5881,92.714666 341.5881,92.691326 341.3192,92.691326 H 341.1294 C 340.9399,92.691326 341.0754,92.666526 341.0754,92.666526 341.0754,92.666526 340.9674,92.618386 340.7527,92.520626 340.655,92.475406 340.6462,92.471026 340.6491,92.472486 340.6345,92.472486 340.6228,92.457896 340.5907,92.444766 340.428,92.371826 340.509,92.396626 340.4536,92.272966 340.4259,92.208776 340.4259,92.211696 340.4317,92.216076 340.4317,92.216076 340.4463,92.216076 340.4317,92.176686 340.404,92.078946 340.3763,92.102286 340.3763,92.102286 L 340.2148,92.007466 C 340.2148,92.007466 340.1608,91.981206 340.0249,91.833966 339.9549,91.756646 339.9578,91.761026 339.9695,91.763946 339.9841,91.763946 339.9972,91.763946 339.9695,91.711426 339.9155,91.588926 339.9432,91.637026 339.8353,91.417226 339.7711,91.284426 339.7842,91.310726 339.7988,91.338456 339.8134,91.355966 339.8178,91.373466 339.8134,91.338456 339.7871,91.265516 339.8951,91.240716 339.8951,91.141856 339.8951,91.086426 339.8951,91.095176 339.8703,91.102466 339.8513,91.102466 339.8192,91.117056 339.7623,91.087876 339.6281,91.038276 339.7623,91.087876 339.736,91.012016 339.7068,90.940536 339.628,90.647616 339.628,90.647616 339.628,90.647616 339.6003,90.571756 339.5448,90.401616 339.4908,90.228616 339.5448,90.401616 339.628,90.401616 339.7082,90.401616 339.736,90.620916 339.7622,90.497896 339.787,90.376796 339.7359,90.376796 339.6528,90.228796 339.5726,90.082796 339.5726,90.157316 339.5448,89.959696 339.5185,89.764696 339.4908,89.764696 339.4383,89.446196 339.3858,89.126596 339.4908,89.051896 339.5185,88.783796 339.5448,88.513196 339.3857,88.391696 339.3857,88.025196 339.3857,87.657296 339.3857,87.583796 339.4105,87.264596 339.4382,86.945596 339.3565,86.408296 339.3303,86.161596 339.3026,85.917296 339.1151,85.867796 338.7102,85.647496 338.3057,85.426196 338.2774,85.402596 338.1436,85.230596 338.0065,85.059296 337.6568,84.300196 337.4679,83.980596 337.278,83.661596 337.0638,83.488696 337.1452,83.294696 337.2254,83.098596 337.2517,83.000296 337.2254,82.828896 337.1991,82.656496 337.1991,82.633396 337.4142,82.533496 337.6294,82.434296 337.6027,82.363696 337.7631,82.019896 337.9274,81.678196 337.7923,81.628396 337.8667,81.143996 337.8142,81.312296 337.7879,81.384796 337.7879,81.384796 337.7879,81.384796 337.7091,81.263696 337.6022,81.168796 337.4972,81.072516 337.3896,80.951596 337.3366,81.072516 337.2855,81.192116 337.3643,81.312316 337.2578,81.263916 337.1498,81.217236 337.2315,81.217236 337.0709,81.120916 336.9129,81.024636 336.9659,81.047976 336.86,80.927516 336.7535,80.806416 337.0453,80.806416 336.7535,80.806416 336.4607,80.806416 336.4365,80.879356 336.4092,80.711596 336.3815,80.543296 336.4603,80.421896 336.3304,80.375496 336.275,80.355076 336.2429,80.360906 336.2122,80.375496 336.1699,80.390086 336.132,80.398836 336.0388,80.328816 335.8798,80.207716 335.9848,80.257336 335.7214,80.135816 335.4558,80.016216 335.4291,80.064336 335.164,79.847516 334.8995,79.632316 334.7656,79.583016 334.6874,79.632316 334.6086,79.681916 334.1316,79.801216 333.7081,79.463116 333.285,79.125516 333.2042,79.198016 333.2042,79.005016 333.2042,78.814616 333.442,78.910196 333.2567,78.596816 333.0714,78.284016 332.8595,77.995816 332.7005,77.730716 332.5409,77.466716 332.4082,77.444016 332.4082,77.225816 332.4082,77.009816 332.4622,76.938716 332.3294,76.888816 332.1966,76.840676 332.0912,76.649016 332.0643,76.840676 332.0395,77.034276 332.0103,77.081076 332.0906,77.225076 332.1694,77.370976 332.1694,77.443276 332.2486,77.586376 332.3288,77.729376 332.2763,77.778776 332.3551,77.899276 332.4339,78.020376 332.5929,78.114276 332.5393,78.261476 332.4868,78.404476 332.4605,78.381076 332.3809,78.283356 332.3021,78.187076 332.2481,78.211876 332.1961,78.091856 332.1421,77.972256 332.3026,78.091856 332.2486,77.972256 332.1961,77.851156 332.3026,77.875976 332.1436,77.779656 332.0765,77.738806 332.0517,77.750476 332.04,77.762146 332.024,77.778196 332.0254,77.794236 331.986,77.683366 331.9058,77.490366 332.0123,77.587086 332.0123,77.443566 332.0123,77.299166 331.9598,77.323966 331.881,77.204366 331.8008,77.081866 331.8533,77.009366 331.827,76.792066 331.8007,76.577866 331.8007,76.600066 331.6169,76.409166 331.4312,76.216166 331.3518,75.951666 331.4033,75.206166 331.4573,74.460566 331.8542,74.268566 331.987,74.123166 332.1183,73.980166 332.199,73.834866 332.0424,73.690766 331.8819,73.544866 331.7743,73.544866 331.8016,73.449466 331.8279,73.353186 332.0667,73.353186 332.1459,73.474266 332.2261,73.593866 332.1999,73.787666 332.3317,73.787666 332.4645,73.787666 332.5962,73.668066 332.4645,73.545766 332.3317,73.426166 332.1732,73.404266 332.1196,73.210266 332.1021,73.143166 332.0802,73.099366 332.0627,73.061466 330.4507,75.227466 329.4947,77.912466 329.4947,80.819466 329.4947,87.998466 335.3147,93.819466 342.4947,93.819466 347.5077,93.819466 351.8537,90.981466 354.0247,86.826466 V 86.655666 C 354.0247,86.366966 353.7875,86.511266 353.7071,85.885666 353.6298,85.259366 353.8399,84.997366 353.9994,84.802666 354.159,84.610666 353.9469,84.489766 353.8929,84.298366 353.8404,84.106966 353.7601,84.009066 353.7601,83.697766 353.7601,83.383866 353.2301,83.191466 353.1241,82.975666 353.0161,82.759066 353.0978,82.759066 353.1781,82.446166 353.2583,82.132766 353.4163,82.039166 353.1781,81.869366 353.041,81.773086 352.9289,81.794966 352.8137,81.818306 352.7291,81.835816 352.6429,81.851856 352.5425,81.818306 352.3037,81.746826 352.3562,81.410706 351.9857,81.433306 351.6152,81.456646 351.6687,81.600506 351.4036,81.721006 351.2472,81.792486 351.0913,81.754556 350.9235,81.721006 350.8068,81.694746 350.6857,81.668486 350.555,81.678706 350.2395,81.702046 350.3435,81.774986 350.0799,81.774986 349.8144,81.774986 349.7346,81.604986 349.6024,81.365186 349.4696,81.125386 349.0991,80.979786 348.9931,80.811386 348.8866,80.644686 348.5674,80.161886 348.5444,79.971086 348.5167,79.777486 348.5677,79.634386 348.6742,79.247986 348.7807,78.865086 348.6202,79.056586 348.5444,78.935686 348.4627,78.816086 348.5677,78.624186 348.7018,78.407586 348.8346,78.190386 348.939,77.997986 349.1784,77.709686 349.4152,77.421986 349.3621,77.516286 349.656,77.397986 349.9462,77.278386 349.7858,76.963586 349.8664,76.771586 349.9466,76.580586 349.9466,76.651986 350.1587,76.529686 350.3702,76.411486 350.3702,76.315086 350.5823,76.147886 350.7932,75.979586 350.8211,76.147886 351.0856,76.169766 351.3511,76.194566 351.3234,76.147886 351.5632,76.050166 351.7994,75.953886 351.9342,75.929066 352.2255,75.833066 352.4081,75.773256 352.5384,75.779086 352.7164,75.786386 352.82,75.786386 352.9409,75.800976 353.0983,75.786386 353.524,75.764506 353.3103,75.956186 353.2841,76.220686 353.2578,76.485786 353.2301,76.437486 353.3614,76.556386 353.4956,76.677486 353.8663,76.677486 354.0782,76.702286 354.2891,76.727086 354.2362,76.773766 354.4482,76.893286 354.6613,77.014386 354.6876,77.039486 354.9001,77.109886 354.9249,77.124476 354.9453,77.124476 354.9599,77.124476 354.7824,76.523876 354.5631,75.942476 354.3027,75.380476 354.3027,75.418406 354.3173,75.463626 354.3173,75.523476 354.3173,75.667876 354.1845,75.692876 354.0245,75.787476 353.8661,75.883756 353.8932,75.787476 353.7321,75.692656 353.5747,75.596376 353.7598,75.596376 353.9992,75.596376 354.236,75.596376 354.1588,75.498636 354.1845,75.355076 354.2108,75.210676 354.1043,75.188376 353.9463,75.115276 353.7883,75.042336 353.7604,75.042336 353.4949,74.923276 353.2304,74.803676 353.3369,74.753876 353.1511,74.633576 352.9664,74.513976 352.9921,74.489176 352.7791,74.585436 352.569,74.681716 352.6226,74.658376 352.3561,74.681716 352.0916,74.707976 352.2248,74.681716 352.0916,74.779456 351.9574,74.877196 352.0114,74.899056 351.9058,75.043456 351.7993,75.189656 351.7458,75.116396 351.5631,75.285356 351.3762,75.452556 351.5631,75.285356 351.5339,75.549256 351.5091,75.814856 351.4566,75.645536 351.1906,75.814856 351.0269,75.919856 350.9744,75.902386 350.9276,75.887796 350.8984,75.873206 350.8707,75.867376 350.8211,75.886296 350.6883,75.932976 350.6609,75.984036 350.5029,75.912556 350.3435,75.838156 350.3964,75.816276 350.2899,75.790056 350.1863,75.768176 350.1046,75.695236 350.0515,75.526056 349.999,75.357856 350.0792,75.357856 350.158,75.166356 350.2382,74.973956 350.1317,74.973956 350.1317,74.854056 350.1317,74.732956 350.1857,74.683656 350.263,74.683656 350.3432,74.683656 350.633,74.709916 350.7925,74.709916 H 351.1903 C 351.1903,74.709916 351.3503,74.636976 351.3503,74.460716 351.3503,74.284816 351.4393,74.204416 351.2613,74.108316 351.0843,74.012036 351.0843,74.045586 350.9783,73.963916 350.8733,73.883686 350.8018,73.835516 350.9608,73.772516 351.1204,73.708326 351.2078,73.722916 351.3499,73.644116 351.4885,73.562426 351.684,73.499716 351.5779,73.468616 351.4714,73.435066 351.4714,73.435066 351.3499,73.435066 351.2244,73.435066 351.2434,73.435066 351.0844,73.483206 350.9248,73.532806 350.8543,73.724006 350.8543,73.532806 350.8543,73.339806 350.8383,73.452576 350.8733,73.276106 350.9083,73.099006 350.7493,73.226506 350.9083,73.099006 351.0679,72.972106 351.1559,73.018776 351.1033,72.907606 351.0493,72.795306 351.2083,72.907606 351.0493,72.795306 350.8893,72.681506 351.0143,72.634206 350.8893,72.681506 350.8747,72.681506 350.8645,72.696096 350.8543,72.696096 350.8543,72.681506 350.8397,72.669836 350.8193,72.634826 350.7318,72.490426 350.6591,72.553136 350.6953,72.409426 350.7318,72.266426 350.5369,72.298526 350.8018,72.200926 351.0669,72.104646 351.1204,72.041926 351.1898,72.122146 351.2613,72.200926 351.3669,72.235946 351.2963,72.331046 351.2234,72.425866 351.1708,72.507746 351.2423,72.602346 351.3123,72.698626 351.3663,72.730746 351.4559,72.811246 351.5434,72.891476 351.4384,72.939646 351.577,72.987746 351.72,73.035886 351.8425,73.067976 351.8075,73.162646 351.7725,73.260386 351.6481,73.435446 351.79,73.372146 351.9315,73.307956 351.9476,73.226246 352.1245,73.099346 352.301,72.972446 352.3705,72.987046 352.5665,72.907946 352.6599,72.870016 352.7245,72.867096 352.7611,72.858346 351.7551,71.564346 350.5091,70.464346 349.0891,69.627346 349.0687,69.660896 349.038,69.703206 348.9362,69.852246 348.7226,70.170246 348.856,69.949986 348.6141,70.196546 348.3702,70.440446 348.477,70.342746 347.9394,70.391546 347.3995,70.441146 347.4799,70.537746 347.1839,70.684946 346.8865,70.834146 346.7789,70.834146 346.238,70.979346 345.6987,71.126546 345.832,71.346846 345.6179,71.592746 345.4023,71.838746 345.4563,71.787746 345.0507,71.665686 344.6468,71.544586 344.5659,71.225686 344.5659,70.735286 344.5659,70.397686 344.6695,70.397686 344.8212,70.398186 344.8898,70.398186 344.9674,70.398186 345.0507,70.367546 345.321,70.269806 345.0244,70.196746 344.9442,70.074746 344.8625,69.950746 344.7826,69.950746 344.8625,69.778946 344.9442,69.607946 344.8625,69.656446 344.7025,69.436746 344.5887,69.282846 344.4622,69.296746 344.1395,69.309846 343.9995,69.309846 343.824,69.324436 343.5965,69.309846 342.84,69.283586 343.3541,69.235446 343.4071,69.040246 343.4436,68.906046 343.6695,68.920646 343.9191,68.936646 344.0358,68.936646 344.1583,68.951236 344.2695,68.936646 344.6205,68.911846 344.4311,68.815546 344.2155,68.715346 344.0005,68.619066 343.8655,68.715346 343.5404,68.791206 343.2171,68.862686 343.0839,68.937106 342.8661,68.986206 342.6515,69.035806 342.543,69.085406 342.1924,69.230706 341.8404,69.379406 341.9753,69.353206 341.7335,69.452006 341.489,69.551206 341.5723,69.501606 341.3027,69.501606 341.0315,69.501606 341.0315,69.478266 340.7628,69.478266 340.4922,69.478266 340.6013,69.452006 340.5189,69.280166 340.4387,69.109366 340.6546,69.280166 340.8695,69.306426 341.0855,69.331226 341.0593,69.280166 341.3295,69.208686 341.5987,69.135746 341.6532,69.062086 341.9496,68.864386 342.246,68.669386 341.7871,68.743286 341.5986,68.743286 341.4088,68.743286 341.4365,68.792886 341.2203,68.864386 341.0053,68.937326 340.9774,68.913986 340.7897,68.839586 340.6014,68.766646 340.8977,68.669186 341.0053,68.571486 341.1133,68.473746 341.3557,68.571486 341.5173,68.594826 341.5173,68.594826 341.8404,68.546686 342.0855,68.521886 342.3268,68.497086 342.3809,68.447486 342.8924,68.397886 343.1843,68.371626 343.3721,68.374546 343.563,68.378926 H 344.0529 C 344.5126,68.355586 344.4317,68.378926 344.7555,68.403726 345.0802,68.429986 344.9721,68.502926 344.7292,68.527726 344.4859,68.552526 344.5935,68.600666 344.7029,68.674326 344.8094,68.748726 344.9993,68.599926 345.1877,68.599926 345.3761,68.599926 345.4579,68.551786 345.9169,68.429526 346.0146,68.403266 346.113,68.382846 346.2109,68.368256 345.0339,68.017256 343.7869,67.826756 342.4959,67.826756 339.7459,67.826756 337.1959,68.682656 335.0969,70.139756 M 338.7929,69.284856 C 338.9286,69.284856 339.0631,69.311116 339.0352,69.457256 339.0089,69.604856 338.7121,69.457256 338.5494,69.457256 338.3878,69.457256 338.3075,69.530196 338.0913,69.579756 337.8747,69.629356 337.7655,69.530156 337.7146,69.409356 337.6592,69.285356 338.1721,69.285356 338.1721,69.285356 338.1721,69.285356 338.3078,69.336416 338.4958,69.336416 338.6841,69.336416 338.6585,69.285356 338.7928,69.285356 M 339.8978,71.075356 C 340.032,70.976156 340.06,70.879856 340.2494,70.952856 340.4393,71.027256 340.7089,71.223656 340.5725,71.247256 340.4397,71.272056 340.4923,71.223916 340.3302,71.197656 340.1681,71.174316 340.1419,71.197656 340.0328,71.247256 339.9263,71.296856 339.9263,71.321656 339.8449,71.321656 339.8449,71.321656 339.7647,71.174456 339.8974,71.075556 M 350.0974,73.337556 C 350.0799,73.209156 350.166,73.209156 350.166,73.082456 350.166,72.954056 350.1135,72.954056 350.1499,72.871956 350.1849,72.793176 350.0974,72.809226 350.2389,72.745056 350.3775,72.680866 350.3965,72.666286 350.5024,72.666286 350.6074,72.666286 350.5724,72.729016 350.6964,72.680876 350.765,72.653156 350.8233,72.680876 350.8446,72.695466 350.7571,72.723186 350.7294,72.712976 350.7133,72.825266 350.6958,72.955066 350.7833,73.002266 350.6958,73.129866 350.6068,73.258266 350.6418,73.275766 350.4509,73.292566 350.3094,73.307156 350.1966,73.388846 350.1386,73.388846 350.1153,73.388846 350.1021,73.374256 350.0963,73.339246 M 336.9063,78.574246 C 336.9603,78.477966 337.2567,78.428346 337.2567,78.428346 337.2567,78.428346 337.5006,78.428346 337.6905,78.477946 337.8778,78.526086 337.8778,78.574226 338.0677,78.697246 338.2571,78.819746 338.2823,78.746846 338.4191,78.796446 338.5519,78.843126 338.5519,78.917546 338.4191,78.965846 338.282,79.015446 338.282,78.965846 338.0677,78.892906 337.8511,78.819966 337.8511,78.745106 337.7177,78.673606 337.5806,78.599206 337.4728,78.549606 337.1501,78.622546 337.0217,78.651726 336.9483,78.664846 336.9097,78.664846 336.8499,78.664846 336.8732,78.632756 336.9097,78.571486 M 338.7187,79.234986 C 338.7727,79.061986 338.583,79.135786 338.7727,79.061986 338.961,78.990506 339.1756,78.916086 339.3383,78.990506 339.4999,79.061986 339.8514,79.113006 339.6363,79.210306 339.4185,79.309506 339.2863,79.259906 339.1504,79.309506 339.0162,79.359106 338.9883,79.383906 338.7448,79.383906 338.5019,79.383906 338.4221,79.334306 338.4756,79.259906 338.4756,79.259906 338.5515,79.319716 338.62,79.319716 338.6609,79.319716 338.6988,79.299296 338.7177,79.236566 M 339.7707,79.359066 C 339.689,79.334266 339.7444,79.259866 339.7444,79.259866 339.7444,79.259866 339.8509,79.210266 339.9594,79.210266 340.0659,79.210266 340.0119,79.283206 339.9594,79.358466 339.9404,79.381806 339.9142,79.389096 339.8865,79.389096 339.8311,79.389096 339.7713,79.358466 339.7713,79.358466 M 337.8543,79.308866 C 337.6937,79.235926 338.0431,79.209666 338.0431,79.209666 338.1233,79.234466 338.2053,79.282606 338.1233,79.357866 338.0956,79.382666 338.0737,79.392876 338.0504,79.392876 338.0066,79.392876 337.9585,79.356406 337.8543,79.308266 M 340.6703,92.468266 V 92.468266 C 340.6849,92.468266 340.6703,92.468266 340.6703,92.468266" style="fill:url(#radialGradient7443-9);stroke-width:0.51459998" id="path9090" inkscape:connector-curvature="0" />
  </g>
</svg>
