<svg version="1.1" viewBox="0 0 46.59 100" xmlns="http://www.w3.org/2000/svg">
 <g id="b_w_key" transform="matrix(.3715 0 0 .3715 -42.91 -131.7)">
  <path d="m185.6 457.7v120.8c0 2.967-3.309 5.372-7.39 5.372s-7.39-2.405-7.39-5.372v-120.8h-21.98s0 6.222 0.086 16.24c2.674 0.619 9.042 7.08 9.268 15.08 0.238 8.441-2.807 12.71-4.732 15.7-1.344 2.084-1.342 6.62 0.181 8.623 2.11 2.782 5.425 6.625 5.665 15.13 0.238 8.466-2.841 12.68-4.757 15.7-1.999 3.153-1.583 9.665 0.524 12.58 2.001 2.767 5.222 6.809 5.456 15.11 0.206 7.285 0.821 11.26-0.366 14.49-3.919 10.64 3.08 19.47 6.466 29.31 1.099 3.191 9.77 8.055 9.77 8.055s11.05-4.81 11.78-8.055c1.492-6.604 11.31-18.22 7.39-28.86-1.19-3.224-1.539-7.649-1.333-14.94 0.234-8.298 3.455-12.34 5.456-15.11 2.11-2.919 2.523-9.431 0.524-12.58-1.914-3.018-4.995-7.235-4.757-15.7 0.239-8.503 3.553-12.35 5.667-15.13 1.52-2.003 1.521-6.539 0.18-8.623-1.925-2.982-4.973-7.255-4.734-15.7 0.225-8 8.245-14.46 10.92-15.08 0.085-10.02 0.086-16.24 0.086-16.24z" style="fill:#030302"/>
  <path d="m238.5 362.4c-5.943-10.5-114.6-10.5-120.5 0-5.479 9.684 0 33.66 0 33.66l7.576 39.85c2.782 10.65 7.908 14.29 21.64 15.49 15.81 1.384 46.28 1.384 62.09 0 13.73-1.202 18.86-4.842 21.64-15.49l7.576-39.85s5.479-23.98 0-33.66zm-84.25 41.08c-7.762 0-14.06-6.293-14.06-14.06 0-7.763 6.293-14.06 14.06-14.06s14.06 6.293 14.06 14.06c0 7.762-6.293 14.06-14.06 14.06z" style="fill:#030302"/>
 </g>
</svg>
