<svg version="1.1" viewBox="0 0 100 67.74" xmlns="http://www.w3.org/2000/svg">
 <g id="b_w_car_line" transform="matrix(.3714 0 0 .3714 -103.3 -45.3)">
  <path d="m413.9 231.5h-37.77l-7.045-0.349 11.17 27.18h65.2l11.17-27.18-7.045 0.349zm26.83 20.58h-55.74v-10.01h55.74z" style="fill:#030302"/>
  <path d="m522 177.6 25.54-3.395s-1.112-13.24-5.004-14.91c-3.892-1.668-20.85 0-20.85 0s-1.807 10.44-5.005 10.57c0 0 3.615 3.606 5.005 6.943 0.132 0.319 0.233 0.571 0.319 0.791z" style="fill:#030302"/>
  <path d="m522 177.6-0.319 0.042s1.128 2.031 0.319-0.042z" style="fill:#030302"/>
  <path d="m451.4 259.7 8.229 8.23h-93.47l8.229-8.23-13.56-32.87h-66.17v38.92l6.721 5.004h223l6.721-5.004v-38.92h-66.17zm-114.9 3.683h-32.11v-14.59h32.11zm152.8-14.59h32.11v14.59h-32.11z" style="fill:#030302"/>
  <rect x="491.3" y="275.5" width="29.57" height="28.91" style="fill:#030302"/>
  <path d="m301.5 219h4.309s-2.502-15.57 10.84-22.79c13.34-7.228 38.92 24.76 38.92 24.76h15.93l-6.433-14.47h95.69l-6.433 14.47h15.93s25.58-31.98 38.92-24.76c13.34 7.228 10.84 22.79 10.84 22.79h4.309c1.251-43.09-10.84-49.07-10.84-49.07s-16.68-43.79-21.27-46.29c-4.134-2.254-154.5-2.254-158.6 0-4.587 2.502-21.27 46.29-21.27 46.29s-12.09 5.974-10.84 49.07zm37.39-88.96c4.47-1.34 143.6-1.34 148 0 5.561 1.668 19.74 38.65 19.74 38.65l-92.72-2.396v-0.054l-1.042 0.028-1.042-0.028v0.054l-92.72 2.396c0-1e-3 14.18-36.98 19.74-38.65z" style="fill:#030302"/>
  <path d="m304.1 176.8c1.39-3.337 5.004-6.943 5.004-6.943-3.198-0.131-5.004-10.57-5.004-10.57s-16.96-1.668-20.85 0c-3.892 1.667-5.004 14.91-5.004 14.91l25.54 3.395c0.086-0.22 0.186-0.472 0.32-0.791z" style="fill:#030302"/>
  <path d="m304.1 177.6-0.32-0.042c-0.809 2.073 0.32 0.042 0.32 0.042z" style="fill:#030302"/>
  <rect x="304.9" y="275.5" width="29.57" height="28.91" style="fill:#030302"/>
 </g>
</svg>
