<svg version="1.1" viewBox="0 0 100 78.54" xmlns="http://www.w3.org/2000/svg">
 <defs>
  <linearGradient id="SVGID_6_" x1="537.5" x2="537.5" y1="370.2" y2="253.1" gradientUnits="userSpaceOnUse">
   <stop style="stop-color:#AB933D" offset="0"/>
   <stop style="stop-color:#D2B34B" offset="1"/>
  </linearGradient>
  <linearGradient id="SVGID_7_" x1="562.2" x2="562.2" y1="237.7" y2="176.9" gradientUnits="userSpaceOnUse">
   <stop style="stop-color:#AB933D" offset="0"/>
   <stop style="stop-color:#D2B34B" offset="1"/>
  </linearGradient>
  <linearGradient id="SVGID_8_" x1="555" x2="555" y1="248.2" y2="239.1" gradientUnits="userSpaceOnUse">
   <stop style="stop-color:#AB933D" offset="0"/>
   <stop style="stop-color:#D2B34B" offset="1"/>
  </linearGradient>
  <linearGradient id="SVGID_9_" x1="515.5" x2="515.5" y1="237.7" y2="176.9" gradientUnits="userSpaceOnUse">
   <stop style="stop-color:#BFA344" offset="0"/>
   <stop style="stop-color:#E8C453" offset="1"/>
  </linearGradient>
  <linearGradient id="SVGID_10_" x1="522.8" x2="522.8" y1="248.2" y2="239.1" gradientUnits="userSpaceOnUse">
   <stop style="stop-color:#BFA344" offset="0"/>
   <stop style="stop-color:#E8C453" offset="1"/>
  </linearGradient>
 </defs>
 <g id="green_globe_3d_line" transform="matrix(.2772 0 0 .2772 -99 -49.05)">
  <path d="m693.9 439.6c0 11.39-70.04 20.62-156.4 20.62s-156.4-9.237-156.4-20.62c0-11.39 70.04-20.62 156.4-20.62s156.4 9.235 156.4 20.62z" style="fill:#ffffff"/>
  <path d="m537.5 419.4c84.56 0 153.1 9.039 153.1 20.19 0 11.15-68.55 20.19-153.1 20.19-84.56 0-153.1-9.041-153.1-20.19 0-11.15 68.55-20.19 153.1-20.19z" style="fill:#fdfdfd"/>
  <path d="m537.5 419.9c82.73 0 149.8 8.842 149.8 19.75 0 10.9-67.06 19.75-149.8 19.75s-149.8-8.845-149.8-19.75c0-10.91 67.06-19.75 149.8-19.75z" style="fill:#fcfcfc"/>
  <path d="m537.5 420.3c80.89 0 146.5 8.646 146.5 19.31 0 10.66-65.57 19.31-146.5 19.31s-146.5-8.648-146.5-19.31c0-10.66 65.57-19.31 146.5-19.31z" style="fill:#fafbfb"/>
  <path d="m537.5 420.7c79.05 0 143.1 8.45 143.1 18.87 0 10.42-64.08 18.87-143.1 18.87s-143.1-8.453-143.1-18.87c0-10.42 64.09-18.87 143.1-18.87z" style="fill:#f9f9fa"/>
  <ellipse cx="537.5" cy="439.6" rx="139.8" ry="18.43" style="fill:#f8f8f9"/>
  <path d="m537.5 421.6c75.38 0 136.5 8.057 136.5 18 0 9.935-61.11 18-136.5 18s-136.5-8.06-136.5-18c0-9.938 61.11-18 136.5-18z" style="fill:#f7f7f8"/>
  <path d="m537.5 422c73.54 0 133.2 7.86 133.2 17.56 0 9.693-59.62 17.56-133.2 17.56s-133.2-7.864-133.2-17.56c0-9.695 59.62-17.56 133.2-17.56z" style="fill:#f6f7f7"/>
  <ellipse cx="537.5" cy="439.6" rx="129.8" ry="17.12" style="fill:#f5f6f6"/>
  <ellipse cx="537.5" cy="439.6" rx="126.5" ry="16.68" style="fill:#f4f5f5"/>
  <ellipse cx="537.5" cy="439.6" rx="123.2" ry="16.24" style="fill:#f4f4f4"/>
  <ellipse cx="537.5" cy="439.6" rx="119.9" ry="15.8" style="fill:#f3f3f4"/>
  <ellipse cx="537.5" cy="439.6" rx="116.5" ry="15.36" style="fill:#f2f2f3"/>
  <ellipse cx="537.5" cy="439.6" rx="113.2" ry="14.93" style="fill:#f1f2f2"/>
  <ellipse cx="537.5" cy="439.6" rx="109.9" ry="14.49" style="fill:#f0f1f1"/>
  <ellipse cx="537.5" cy="439.6" rx="106.6" ry="14.05" style="fill:#eff0f1"/>
  <ellipse cx="537.5" cy="439.6" rx="103.2" ry="13.61" style="fill:#efeff0"/>
  <ellipse cx="537.5" cy="439.6" rx="99.92" ry="13.17" style="fill:#eeeeef"/>
  <ellipse cx="537.5" cy="439.6" rx="96.59" ry="12.73" style="fill:#edeeee"/>
  <ellipse cx="537.5" cy="439.6" rx="93.27" ry="12.3" style="fill:#ecedee"/>
  <ellipse cx="537.5" cy="439.6" rx="89.94" ry="11.86" style="fill:#ebeced"/>
  <ellipse cx="537.5" cy="439.6" rx="86.62" ry="11.42" style="fill:#ebebec"/>
  <ellipse cx="537.5" cy="439.6" rx="83.29" ry="10.98" style="fill:#eaeaeb"/>
  <ellipse cx="537.5" cy="439.6" rx="79.97" ry="10.54" style="fill:#e9eaeb"/>
  <ellipse cx="537.5" cy="439.6" rx="76.65" ry="10.1" style="fill:#e8e9ea"/>
  <ellipse cx="537.5" cy="439.6" rx="73.32" ry="9.666" style="fill:#e7e8e9"/>
  <ellipse cx="537.5" cy="439.6" rx="70" ry="9.228" style="fill:#e6e7e8"/>
  <ellipse cx="537.5" cy="439.6" rx="66.67" ry="8.789" style="fill:#e5e6e7"/>
  <ellipse cx="537.5" cy="439.6" rx="63.35" ry="8.351" style="fill:#e5e6e7"/>
  <ellipse cx="537.5" cy="439.6" rx="60.02" ry="7.912" style="fill:#e4e5e6"/>
  <ellipse cx="537.5" cy="439.6" rx="56.7" ry="7.474" style="fill:#e3e4e5"/>
  <ellipse cx="537.5" cy="439.6" rx="53.37" ry="7.036" style="fill:#e2e3e4"/>
  <ellipse cx="537.5" cy="439.6" rx="50.05" ry="6.597" style="fill:#e1e2e4"/>
  <ellipse cx="537.5" cy="439.6" rx="46.72" ry="6.159" style="fill:#e1e2e3"/>
  <ellipse cx="537.5" cy="439.6" rx="43.4" ry="5.721" style="fill:#e0e1e2"/>
  <ellipse cx="537.5" cy="439.6" rx="40.08" ry="5.282" style="fill:#dfe0e1"/>
  <ellipse cx="537.5" cy="439.6" rx="36.75" ry="4.844" style="fill:#dedfe0"/>
  <ellipse cx="537.5" cy="439.6" rx="33.43" ry="4.406" style="fill:#dddee0"/>
  <ellipse cx="537.5" cy="439.6" rx="30.1" ry="3.967" style="fill:#dddedf"/>
  <ellipse cx="537.5" cy="439.6" rx="26.78" ry="3.532" style="fill:#dcddde"/>
  <path d="m461.2 257.6h4.057c3.55 0 12.17 2.535 6.592 15.89l-22.82 55.27-27.72-71.16h11.66v-4.564h-75.9v4.564h8.958l45.47 112.6h27.38l40.4-101.1c2.368-5.915 7.776-11.49 10.65-11.49h4.057v-4.564h-32.79zm38.71 0h12.85v108h-12.85v4.563h78.09v-4.563h-12.84v-108h12.84v-4.564h-78.09zm169.4-4.564h-86.88v4.564h12.85v108h-13.19v4.563h79.78v-4.563h-15.72v-43.44h23.16c36.34 0 48.51-18.26 48.51-34.82 1e-3 -16.23-12.17-34.32-48.51-34.32zm-4.564 45.81c0 13.52-4.733 18.76-12.17 18.76h-6.424v-60.01h5.409c10.48 0 13.18 9.128 13.18 16.9z" style="fill:url(#SVGID_6_)"/>
  <path d="m565.1 205.7c1.582 1.761 2.553 4.081 2.553 6.634 0 5.49-4.451 9.939-9.938 9.939-5.492 0-9.942-4.449-9.942-9.939 0-5.085 3.822-9.272 8.747-9.86-0.049-0.032-0.103-0.057-0.152-0.088-6.857-4.251-17.46-14.31-17.46-25.48v58.11c17.32 0 32.17 2.621 32.17 2.621 0-20.53 14.56-38.74 14.56-38.74-5.879 5.878-13.4 8.011-20.54 6.802z" style="fill:url(#SVGID_7_)"/>
  <path d="m538.9 248.2h32.17v-6.473s-14.85-2.621-32.17-2.621z" style="fill:url(#SVGID_8_)"/>
  <path d="m512.7 205.7c-1.58 1.761-2.553 4.081-2.553 6.634 0 5.49 4.452 9.939 9.94 9.939 5.489 0 9.942-4.449 9.942-9.939 0-5.085-3.824-9.272-8.75-9.86 0.052-0.032 0.105-0.057 0.155-0.088 6.857-4.251 17.46-14.31 17.46-25.48v58.11c-17.31 0-32.17 2.621-32.17 2.621 0-20.53-14.56-38.74-14.56-38.74 5.877 5.878 13.4 8.011 20.54 6.802z" style="fill:url(#SVGID_9_)"/>
  <path d="m538.9 248.2h-32.17v-6.473s14.86-2.621 32.17-2.621z" style="fill:url(#SVGID_10_)"/>
 </g>
</svg>
