<svg version="1.1" viewBox="0 0 99.99 99.99" xmlns="http://www.w3.org/2000/svg">
 <g id="b" transform="matrix(.4476 0 0 .4476 -149.3 -172.2)">
  <path d="m445.2 384.7c-61.69 0-111.7 50.01-111.7 111.7s50.01 111.7 111.7 111.7 111.7-50.01 111.7-111.7-50.01-111.7-111.7-111.7zm0 202.7c-50.26 0-91-40.74-91-91s40.74-91 91-91 91 40.74 91 91-40.74 91-91 91z" style="fill:#030302"/>
  <path d="m445.2 476.9c-19.21 0-32.6 7.436-32.6 14.11 0 6.673 13.39 14.11 32.6 14.11s32.6-7.434 32.6-14.11c0-6.671-13.39-14.11-32.6-14.11z" style="fill:#030302"/>
  <path d="m518.5 484.2s-39.58-22.14-73.23-22.14c-34.21 0-73.23 22.14-73.23 22.14l-29.8 0.853s0.852 31.5 11.07 28.95c10.22-2.556 38.96-8.39 51.09-4.259 8.153 2.775 26.4 22.14 26.4 22.14v55.35h28.95v-55.35s18.24-19.36 26.4-22.14c12.13-4.131 40.87 1.703 51.09 4.259 10.22 2.554 11.07-28.95 11.07-28.95zm-73.23 27.03c-21.7 0-38.7-8.876-38.7-20.21 0-11.33 17-20.21 38.7-20.21s38.7 8.876 38.7 20.21c-1e-3 11.33-17 20.21-38.7 20.21z" style="fill:#030302"/>
 </g>
</svg>
