<svg version="1.1" viewBox="0 0 100 130.5" xmlns="http://www.w3.org/2000/svg">
 <g id="b_w_stick_shift" transform="matrix(.5585 0 0 .5585 -393.4 -201.1)">
  <path d="m836.7 368.8c0.018-4.709-11.28-8.729-25.2-8.729-13.92 0-25.22 4.02-25.2 8.729-0.045 0.24 0 0.674 0.116 1.259 0.027 0.157 0.064 0.312 0.103 0.464 1.414 6.16 8.838 24.86 8.838 24.86 2.497 4.545 7.231 8.517 16.15 8.517 8.917 0 13.65-3.972 16.15-8.517 0 0 7.423-18.7 8.839-24.86 0.038-0.152 0.074-0.308 0.103-0.464 0.116-0.584 0.161-1.018 0.115-1.259zm-6.572 6.656c-0.569 0.232-1.269 0.512-2.085 0.816-0.82 0.254-1.743 0.578-2.773 0.831-1.029 0.251-2.146 0.546-3.348 0.734-1.196 0.235-2.466 0.411-3.784 0.559-0.658 0.093-1.331 0.122-2.011 0.187-0.681 0.049-1.368 0.13-2.065 0.131-0.842 0.024-1.704 0.045-2.564 0.058-0.86-0.013-1.724-0.034-2.564-0.058-0.697-1e-3 -1.386-0.082-2.065-0.131-0.681-0.065-1.353-0.093-2.012-0.187-1.318-0.148-2.589-0.324-3.784-0.559-1.201-0.188-2.316-0.482-3.348-0.734-1.029-0.252-1.953-0.577-2.773-0.831-0.814-0.304-1.516-0.584-2.085-0.816-1.104-0.539-1.728-0.863-1.728-0.863s0.684 0.168 1.868 0.496c0.593 0.127 1.313 0.281 2.14 0.457 0.84 0.127 1.774 0.306 2.803 0.449 1.032 0.127 2.143 0.284 3.328 0.384 1.18 0.138 2.435 0.186 3.726 0.286 1.292 0.077 2.633 0.1 3.99 0.141 0.834 9e-3 1.667 0.016 2.505 0.015 0.838 1e-3 1.67-5e-3 2.505-0.015 1.357-0.041 2.698-0.063 3.991-0.141 1.29-0.1 2.544-0.148 3.725-0.286 1.185-0.1 2.295-0.257 3.327-0.384 1.029-0.143 1.965-0.322 2.804-0.449 0.826-0.176 1.547-0.33 2.14-0.457 1.184-0.327 1.868-0.496 1.868-0.496s-0.628 0.324-1.731 0.863z" style="fill:#030302"/>
  <path d="m798.3 402.8 4.269 58.2s2.184 3.113 9.854 3.113c7.671 0 8.746-2.343 8.746-2.343l4.404-58.97c-1e-3 0-14.31 11.44-27.27 0z" style="fill:#030302"/>
  <path d="m871.8 429h-43.94l-1.801 24.11h3.006c4.258 0 7.71 3.452 7.71 7.71v24.77c0 4.258-3.452 7.711-7.71 7.711h-2.652v14.87c0 4.259-3.452 7.709-7.71 7.709h-8.642v17.06c0 4.259-3.451 7.712-7.71 7.712h-28.64v15.68c0 4.258-3.452 7.711-7.711 7.711-4.258 0-7.71-3.453-7.71-7.711v-49.62c0-4.259 3.452-7.712 7.71-7.712 4.259 0 7.711 3.453 7.711 7.712v18.52h20.93v-17.06c0-4.258 3.452-7.711 7.71-7.711h8.642v-14.87c0-4.257 3.451-7.709 7.71-7.709h2.652v-9.35h-45.72c-4.259 0-7.712-3.454-7.712-7.712s3.453-7.71 7.712-7.71h22.08l-1.769-24.11h-79.76l-11.72 164.7h179.1z" style="fill:#030302"/>
 </g>
</svg>
