<svg version="1.1" viewBox="0 0 100 118.2" xmlns="http://www.w3.org/2000/svg">
 <g id="b_w_traffic_light" transform="matrix(.6364 0 0 .6364 -584.9 -81.51)">
  <circle cx="996.1" cy="218.7" r="15.58" style="fill:#030302"/>
  <path d="m1026 128.1h-55.9c-2.624 0-4.752 2.128-4.752 4.751v176.3c0 2.625 2.128 4.753 4.752 4.753h55.9c2.625 0 4.753-2.128 4.753-4.753v-176.3c0-2.623-2.128-4.751-4.753-4.751zm-29.62 161.6c-10.35 0-18.75-8.393-18.75-18.75s8.393-18.75 18.75-18.75 18.74 8.394 18.74 18.75-8.392 18.75-18.74 18.75zm0-52.28c-10.35 0-18.75-8.393-18.75-18.75s8.393-18.75 18.75-18.75 18.74 8.393 18.74 18.75-8.392 18.75-18.74 18.75zm0-52.28c-10.35 0-18.75-8.392-18.75-18.75 0-10.35 8.393-18.75 18.75-18.75s18.74 8.394 18.74 18.75c0 10.35-8.392 18.75-18.74 18.75z" style="fill:#030302"/>
  <path d="m1036 143.7v42.77h6.45s24.88-13.61 33.64-42.77z" style="fill:#030302"/>
  <path d="m1036 143.7v42.77h6.45s24.88-13.61 33.64-42.77z" style="fill:#030302"/>
  <path d="m1036 197.3v42.78h6.45s24.88-13.61 33.64-42.78z" style="fill:#030302"/>
  <path d="m1036 249.5v42.78h6.45s24.88-13.61 33.64-42.78z" style="fill:#030302"/>
  <path d="m959.2 143.7v42.77h-6.451s-24.88-13.61-33.64-42.77z" style="fill:#030302"/>
  <path d="m959.2 143.7v42.77h-6.451s-24.88-13.61-33.64-42.77z" style="fill:#030302"/>
  <path d="m959.2 197.3v42.78h-6.451s-24.88-13.61-33.64-42.78z" style="fill:#030302"/>
  <path d="m959.2 249.5v42.78h-6.451s-24.88-13.61-33.64-42.78z" style="fill:#030302"/>
 </g>
</svg>
