<svg version="1.1" viewBox="0 0 100 99.13" xmlns="http://www.w3.org/2000/svg">
 <g id="metal-detectorbw" transform="matrix(1.322 0 0 1.322 2184 -1201)">
  <path d="m-1591 982h-5.263v-61.84h-36.84v61.84h-5.263v-68.42c0-2.171 1.776-3.947 3.947-3.947h39.47c2.171 0 3.947 1.776 3.947 3.947v68.42" style="fill:#e8e7e6"/>
  <path d="m-1594 909.6v-1.316h-39.47c-2.903 5e-3 -5.258 2.36-5.263 5.263v68.42c0 0.3467 0.1402 0.6855 0.3856 0.9302 0.2447 0.2454 0.5835 0.3855 0.9302 0.3855h5.263c0.3467 0 0.6855-0.1401 0.9302-0.3855 0.2455-0.2447 0.3856-0.5836 0.3856-0.9302v-60.53h34.21v60.53c0 0.3467 0.1401 0.6855 0.3855 0.9302 0.2447 0.2454 0.5836 0.3855 0.9303 0.3855h5.263c0.3468 0 0.6856-0.1401 0.9303-0.3855 0.2454-0.2447 0.3855-0.5836 0.3855-0.9302v-68.42c-0.01-2.903-2.36-5.258-5.263-5.263v2.632c0.723 0 1.374 0.2934 1.857 0.7743 0.4816 0.4829 0.7737 1.135 0.7744 1.857v67.11h-2.632v-60.53c0-0.346-0.1402-0.6855-0.3856-0.9302-0.2447-0.2447-0.5835-0.3855-0.9302-0.3855h-36.84c-0.3467 0-0.6855 0.1408-0.9303 0.3855-0.2454 0.2447-0.3855 0.5842-0.3855 0.9302v60.53h-2.632v-67.11c0-0.7224 0.2928-1.374 0.7743-1.857 0.4829-0.4809 1.134-0.7737 1.857-0.7743h39.47v-1.316" style="fill:#100f0d"/>
  <path d="m-1620 933.9h-1.316c0 3.997 3.24 7.236 7.237 7.237 3.997 0 7.236-3.239 7.237-7.237 0-3.997-3.24-7.236-7.237-7.237-3.997 0-7.236 3.239-7.237 7.237h2.632c0-1.276 0.5131-2.419 1.349-3.257 0.8376-0.8349 1.981-1.348 3.257-1.349 1.276 0 2.419 0.5138 3.257 1.349 0.8356 0.8382 1.348 1.981 1.349 3.257 0 1.276-0.5131 2.419-1.349 3.257-0.8375 0.8356-1.981 1.348-3.257 1.349-1.276 0-2.419-0.5132-3.257-1.349-0.8355-0.8375-1.348-1.98-1.349-3.257h-1.316" style="fill:#100f0d"/>
  <path d="m-1621 951.7v9.54c0 0.5447-0.4421 0.9862-0.9868 0.9868-0.5448-4.9e-4 -0.9862-0.4421-0.9869-0.9868v-12.83c0-0.1283 0.026-0.2494 0.093-0.3987 0.1158-0.2579 0.3954-0.6046 0.8829-0.9533 0.7263-0.5263 1.885-1.033 3.309-1.381 1.426-0.352 3.116-0.5566 4.925-0.5566 2.755-5e-3 5.242 0.4829 6.92 1.214 0.8395 0.3605 1.468 0.7836 1.83 1.164 0.1829 0.1895 0.2994 0.3638 0.3672 0.5125 0.068 0.1493 0.093 0.2704 0.093 0.3987v12.83c0 0.5447-0.4421 0.9862-0.9869 0.9868-0.3467 0-0.6855 0.1401-0.9302 0.3855-0.2455 0.2447-0.3856 0.5836-0.3856 0.9302h1.316v-1.316c-0.5447-4.9e-4 -0.9862-0.4421-0.9868-0.9868v-9.54c0-0.7263-0.5888-1.316-1.316-1.316s-1.316 0.5894-1.316 1.316v9.54c0 1.999 1.62 3.618 3.618 3.618 0.3467 0 0.6855-0.1401 0.9303-0.3855 0.2454-0.2447 0.3855-0.5836 0.3855-0.9303h-1.316v1.316c1.999-4.9e-4 3.618-1.619 3.618-3.618v-12.83c5e-4 -0.525-0.1217-1.039-0.3342-1.499-0.375-0.8092-0.9941-1.453-1.737-1.989-1.12-0.802-2.556-1.388-4.216-1.8-1.661-0.4092-3.548-0.6322-5.555-0.6329-3.058 5e-3 -5.835 0.5125-7.966 1.43-1.065 0.4632-1.978 1.028-2.682 1.756-0.35 0.3651-0.6474 0.775-0.8598 1.236-0.2126 0.4599-0.3349 0.9737-0.3343 1.499v12.83c0 1.999 1.62 3.618 3.618 3.618 1.999-4.9e-4 3.618-1.619 3.618-3.618v-9.54c0-0.7263-0.5888-1.316-1.316-1.316s-1.316 0.5894-1.316 1.316" style="fill:#100f0d"/>
  <path d="m-1616 967.5v11.51c0 0.4513-0.1823 0.8566-0.4843 1.161-0.3039 0.3026-0.7092 0.4842-1.16 0.4842s-0.8566-0.1816-1.16-0.4842c-0.302-0.3039-0.4842-0.7092-0.4842-1.161v-17.43c0-0.7263-0.5888-1.316-1.316-1.316s-1.316 0.5894-1.316 1.316v17.43c0.01 2.361 1.916 4.272 4.276 4.276 2.36-5e-3 4.271-1.916 4.276-4.276v-11.51c0-0.7263-0.5888-1.316-1.316-1.316-0.7269 0-1.316 0.5894-1.316 1.316" style="fill:#100f0d"/>
  <path d="m-1616 967.5v11.51c0.01 2.361 1.916 4.271 4.276 4.276 2.361-5e-3 4.271-1.916 4.276-4.276v-17.43c0-0.7263-0.5888-1.316-1.316-1.316s-1.316 0.5894-1.316 1.316v17.43c0 0.4513-0.1823 0.8566-0.4842 1.161-0.304 0.3026-0.7092 0.4842-1.161 0.4842-0.4512 0-0.8565-0.1822-1.16-0.4842-0.302-0.3039-0.4842-0.7092-0.4842-1.161v-11.51c0-0.7263-0.5888-1.316-1.316-1.316-0.7269 0-1.316 0.5894-1.316 1.316" style="fill:#100f0d"/>
  <path d="m-1644 944.5h-7.237c-0.727 0-1.316 0.5894-1.316 1.316 0 0.727 0.5888 1.316 1.316 1.316h7.237c0.727 0 1.316-0.5888 1.316-1.316 0-0.7263-0.5888-1.316-1.316-1.316" style="fill:#100f0d"/>
  <path d="m-1644 951.2-5.921 3.29c-0.6355 0.3526-0.8645 1.154-0.5112 1.789 0.3527 0.6355 1.154 0.8645 1.789 0.5118l5.921-3.289c0.6355-0.3533 0.8644-1.155 0.5111-1.789-0.3526-0.6355-1.154-0.8645-1.789-0.5112" style="fill:#100f0d"/>
  <path d="m-1643 938-5.921-3.289c-0.6348-0.3533-1.436-0.1243-1.789 0.5112-0.3533 0.6348-0.1243 1.436 0.5112 1.789l5.921 3.289c0.6349 0.3526 1.436 0.1237 1.789-0.5118 0.3533-0.6349 0.1244-1.436-0.5111-1.789" style="fill:#100f0d"/>
  <path d="m-1586 947.1h7.237c0.727 0 1.316-0.5888 1.316-1.316 0-0.7263-0.5888-1.316-1.316-1.316h-7.237c-0.7269 0-1.316 0.5894-1.316 1.316 0 0.727 0.5888 1.316 1.316 1.316" style="fill:#100f0d"/>
  <path d="m-1586 953.5 5.921 3.29c0.6349 0.3526 1.436 0.1237 1.789-0.5118 0.3533-0.6349 0.1243-1.436-0.5112-1.789l-5.921-3.29c-0.6349-0.3533-1.436-0.1243-1.789 0.5112-0.3533 0.6349-0.1244 1.436 0.5112 1.789" style="fill:#100f0d"/>
  <path d="m-1585 940.3 5.921-3.289c0.6355-0.3533 0.8645-1.155 0.5112-1.789-0.3527-0.6355-1.154-0.8645-1.789-0.5112l-5.921 3.289c-0.6356 0.3526-0.8645 1.154-0.5112 1.789 0.3526 0.6355 1.154 0.8645 1.789 0.5112" style="fill:#100f0d"/>
  <path d="m-1616 916.2h2.632c0.727 0 1.316-0.5888 1.316-1.316 0-0.7263-0.5888-1.316-1.316-1.316h-2.632c-0.727 0-1.316 0.5895-1.316 1.316 0 0.727 0.5888 1.316 1.316 1.316" style="fill:#100f0d"/>
  <path d="m-1625 916.2h2.632c0.7269 0 1.316-0.5888 1.316-1.316 0-0.7263-0.5888-1.316-1.316-1.316h-2.632c-0.727 0-1.316 0.5895-1.316 1.316 0 0.727 0.5888 1.316 1.316 1.316" style="fill:#100f0d"/>
  <path d="m-1607 916.2h2.632c0.727 0 1.316-0.5888 1.316-1.316 0-0.7263-0.5888-1.316-1.316-1.316h-2.632c-0.727 0-1.316 0.5895-1.316 1.316 0 0.727 0.5888 1.316 1.316 1.316" style="fill:#100f0d"/>
  <path d="m-1651 983.3h73.03c0.727 0 1.316-0.5888 1.316-1.316 0-0.7263-0.5888-1.316-1.316-1.316h-73.03c-0.727 0-1.316 0.5895-1.316 1.316 0 0.727 0.5888 1.316 1.316 1.316" style="fill:#100f0d"/>
 </g>
</svg>
