<svg version="1.1" viewBox="0 0 100 100" xmlns="http://www.w3.org/2000/svg">
 <g id="clapper" transform="matrix(.03356 0 0 -.03356 -342.1 277.2)">
  <path d="m13175 6772c0-822.9-667.1-1490-1490-1490s-1490 667.1-1490 1490 667.1 1490 1490 1490 1490-667.1 1490-1490" style="fill:#538fd3"/>
  <path d="m13175 6772c0 59.96-3.7 119.1-10.6 177.2-3.5 0.5-7 0.33-10.5-0.68l-1.8-0.52-6.6 22.92c-1.9 6.37-6.2 11.74-12 14.93-5.8 3.2-12.7 3.97-19 2.1l-1.8-0.52-6.7 22.92c-1.8 6.36-6.1 11.74-11.9 14.93-5.8 3.2-12.7 3.96-19 2.09l-1.8-0.51-6.7 22.91c-1.8 6.37-6.1 11.74-12 14.94-5.8 3.19-12.6 3.96-19 2.09l-1.8-0.52-6.6 22.92c-1.9 6.37-6.2 11.74-12 14.93-5.8 3.2-12.6 3.97-19 2.1l-1.8-0.52-6.6 22.92c-1.9 6.37-6.2 11.74-12 14.93-5.8 3.2-12.7 3.97-19 2.1l-1.8-0.52-6.7 22.92c-1.8 6.37-6.1 11.74-11.9 14.93-5.9 3.2-12.7 3.96-19.1 2.09l-1.7-0.51-6.7 22.92c-1.8 6.36-6.2 11.73-12 14.93s-12.6 3.96-19 2.09l-1.8-0.51-6.6 22.91c-1.9 6.37-6.2 11.74-12 14.94-5.8 3.19-12.6 3.96-19 2.09l-1.8-0.52-6.7 22.92c-1.8 6.37-6.1 11.74-11.9 14.93-5.8 3.2-12.7 3.97-19 2.1l-1.8-0.52-6.7 22.92c-1.8 6.37-6.1 11.74-11.9 14.93-5.9 3.2-12.7 3.97-19.1 2.1l-1.7-0.52-6.7 22.92c-1.9 6.37-6.2 11.74-12 14.93-5.8 3.2-12.6 3.96-19 2.09l-1.8-0.51-6.6 22.92c-1.9 6.36-6.2 11.73-12 14.93s-12.7 3.96-19 2.09l-1.8-0.51-6.7 22.91c-1.8 6.37-6.1 11.74-11.9 14.94-5.9 3.19-12.7 3.96-19.1 2.09l-1.7-0.52-6.7 22.92c-1.8 6.37-6.1 11.74-12 14.93-5.8 3.2-12.6 3.97-19 2.1l-1.8-0.52-6.6 22.92c-1.9 6.37-6.2 11.74-12 14.93-5.8 3.2-12.6 3.97-19 2.1l-1.8-0.52-6.7 22.92c-1.8 6.36-6.1 11.74-11.9 14.93-5.8 3.2-12.7 3.96-19 2.09l-1.8-0.51-6.7 22.92c-1.8 6.36-6.1 11.73-11.9 14.93-5.9 3.2-12.7 3.96-19.1 2.09l-1.7-0.52-6.7 22.92c-1.9 6.37-6.2 11.74-12 14.94-5.8 3.19-12.6 3.96-19 2.09l-1.8-0.52-6.6 22.92c-1.9 6.37-6.2 11.74-12 14.93-5.8 3.2-12.7 3.97-19 2.1l-1.8-0.52-6.7 22.92c-1.8 6.37-6.1 11.74-11.9 14.93-5.8 3.2-12.7 3.97-19.1 2.1l-1.7-0.52-6.7 22.92c-1.8 6.36-6.1 11.74-12 14.93-5.8 3.2-12.6 3.96-19 2.09l-311.1-90.46c-7.3 1.22-14.9-0.86-20.7-6.02l-1070-311c-6.4-1.85-11.7-6.15-14.9-11.96-3.2-5.82-4-12.66-2.1-19.03l48.8-167.9c-1.3-3.05-2.1-6.41-2.1-9.94v-1198c0-13.81 11.2-25 25-25h14.4v-14.43c0-13.81 11.2-25 25-25h14.5v-14.43c0-13.81 11.2-25 25-25h14.4v-14.43c0-13.81 11.2-25 25-25h14.4v-14.42c0-13.81 11.2-25 25-25h14.5v-14.43c0-13.81 11.1-25 25-25h14.4v-14.43c0-13.81 11.2-25 25-25h14.4v-14.43c0-13.81 11.2-25 25-25h14.4v-14.43c0-13.81 11.2-25 25-25h14.5v-14.42c0-13.81 11.2-25 25-25h14.4v-14.43c0-13.81 11.2-25 25-25h14.4v-14.43c0-13.81 11.2-25 25-25h14.5v-14.43c0-13.81 11.1-25 25-25h14.4v-14.43c0-13.8 11.2-25 25-25h14.4v-14.42c0-13.81 11.2-25 25-25h14.4v-14.43c0-13.81 11.2-25 25-25h14.5v-14.43c0-13.81 11.2-25 25-25h14.4v-14.43c0-3.03 0.6-5.9 1.6-8.59 19.6-0.77 39.3-1.27 59.1-1.27 822.9 0 1490 667.1 1490 1490" style="fill:#4475ad"/>
  <path d="m11131 7377 128.7-117-256.5-74.58-41.4 142.4zm1226 201.9-166-48.25-128.6 117 253.2 73.62zm-351 52.41 128.7-117-241.7-70.28-128.7 117zm-298-86.66 128.6-117-230.2-66.94-128.6 117zm-286.6-83.31 128.7-117-233.9-68.01-128.7 117zm-120.2-326.4-93.8-144.2h-203.7v142.6l5.5 1.6zm1112-144.2h-198.8l93.8 144.2h105zm-164.7 144.2-93.7-144.2h-256.3l93.8 144.2zm-315.8 0-93.8-144.2h-256.2l93.8 144.2zm-315.9 0-93.7-144.2h-256.3l93.8 144.2zm-613.3-1148v953.8h1410v-953.8zm-47.9 1183c-1.3-3.05-2.1-6.41-2.1-9.94v-1198c0-13.81 11.2-25 25-25h1460c13.8 0 25 11.19 25 25v1198c0 13.8-11.2 25-25 25h-1257l413 120.1c3.8-2.26 8.2-3.42 12.5-3.42 6.8 0 13.6 2.75 18.5 8.18 1.5 1.63 2.6 3.44 3.6 5.3l261.9 76.16c2.2 0.35 4.3 0.92 6.3 1.81l497.9 144.8c13.3 3.85 20.9 17.73 17.1 30.98l-55.4 190.4c-1.8 6.36-6.1 11.74-12 14.93-5.8 3.2-12.6 3.96-19 2.09l-311.1-90.46c-7.3 1.22-14.9-0.86-20.7-6.02l-1070-311c-6.4-1.85-11.7-6.15-14.9-11.96-3.2-5.82-4-12.66-2.1-19.03l48.8-167.9" style="fill:#ffffff"/>
  <path d="m12261 6797h-1092c-13.8 0-25-11.19-25-25s11.2-25 25-25h1092c13.8 0 25 11.19 25 25s-11.2 25-25 25" style="fill:#ffffff"/>
  <path d="m12261 6603c13.8 0 25 11.19 25 25s-11.2 25-25 25h-1092c-13.8 0-25-11.19-25-25s11.2-25 25-25h720.2v-207.6h-720.2c-13.8 0-25-11.19-25-25 0-13.8 11.2-25 25-25h1092c13.8 0 25 11.2 25 25 0 13.81-11.2 25-25 25h-321.5v207.6h321.5" style="fill:#ffffff"/>
  <path d="m12261 6251h-1092c-13.8 0-25-11.19-25-25s11.2-25 25-25h1092c13.8 0 25 11.19 25 25s-11.2 25-25 25" style="fill:#ffffff"/>
 </g>
</svg>
