<svg version="1.1" viewBox="0 0 100 100" xmlns="http://www.w3.org/2000/svg">
 <g id="rope" transform="matrix(.02802 0 0 -.02802 -267.2 247.5)">
  <path d="m12316 7989 16-308.1-41.5-159-463.2-275.4-449.2-130-286.5 52.88-652.5 1006-183.7-171.6 15.5-1812-88.2-141.3-174.2-70.65 463.1-714.4h2283c193.4 0 350.2 156.8 350.2 350.2v1592l-629.2 970.5-159.3-190.2" style="fill:#1b94c2"/>
  <path d="m9885 5266h585.8l-463.1 714.4 174.2 70.65 88.2 141.3-15.5 1812 183.7 171.6 652.5-1006 286.5-52.88 449.2 130 463.2 275.4 41.5 159-16 308.1 159.3 190.2 629.2-970.5v1276c0 193.4-156.8 350.2-350.2 350.2h-2869c-193.4 0-350.2-156.8-350.2-350.2v-2869c0-193.5 156.8-350.2 350.2-350.2" style="fill:#22b0e6"/>
  <g>
   <path d="m11338 7010c-164.3-0.48-313.2 38.39-439.5 88.29-391.8 164.4-645.9 404.2-656.6 408-31.7 28.42-33.3 77.54-3.4 112.6 29.8 34.99 79.8 42.68 111.5 14.13 4.5 0.21 243.8-219.3 600.5-358.5 472.4-191.4 920.2-0.63 1328 359.8 32.6 27.57 82.5 18.61 111.5-17.09s26.2-84.61-6.4-112.2c-369.7-324.9-735.4-503.9-1046-495" style="fill:#f25953"/>
   <path d="m10338 8004v-182.6c10.5 2.18 21.1 5.22 32.1 10.37v172.2h-32.1" style="fill:#c4bf6a"/>
   <path d="m10338 7821v182.6h-114.9v-158.1c25.7-16.75 66.9-34.51 114.9-24.48" style="fill:#dbd476"/>
   <path d="m10223 7846v-1583h114.9v1559c-48-10.03-89.2 7.73-114.9 24.48" style="fill:#fff78b"/>
   <path d="m10338 6263h32.1v1569c-11-5.15-21.6-8.19-32.1-10.37v-1559" style="fill:#f6ed8c"/>
   <path d="m10110 6263v-141.3h266.6l54.6 141.3h-321.2" style="fill:#252727"/>
   <path d="m10483 6263h-51.9l-54.6-141.3h106.5v141.3" style="fill:#000000"/>
   <path d="m10507 5980h77.6v141.3h-25.8l-51.8-141.3" style="fill:#000000"/>
   <path d="m10008 6121v-141.3h499l51.8 141.3h-550.8" style="fill:#252727"/>
   <path d="m10338 7563c0-22.9-18.5-41.45-41.4-41.45s-41.4 18.55-41.4 41.45 18.5 41.45 41.4 41.45 41.4-18.55 41.4-41.45" style="fill:#000000"/>
   <path d="m10393 8221c2.2-14.16 3.6-28.53 3.6-43.31 0-121-74.6-224.4-180.3-267.2 24.2-12.21 51.5-19.23 80.4-19.23 98.9 0 179 80.14 179 179 0 63.37-33 119-82.7 150.7" style="fill:#f0e882"/>
   <path d="m10396 8177c0 14.78-1.4 29.15-3.6 43.31-27.8 17.85-60.8 28.29-96.3 28.29-98.9 0-179-80.14-179-179 0-69.92 40.2-130.3 98.6-159.8 105.7 42.78 180.3 146.2 180.3 267.2" style="fill:#fff78b"/>
   <path d="m12373 8004v-182.6c10.5 2.18 21.1 5.22 32.1 10.37v172.2h-32.1" style="fill:#c4bf6a"/>
   <path d="m12373 7821v182.6h-114.9v-158.1c25.7-16.75 66.9-34.51 114.9-24.48" style="fill:#dbd476"/>
   <path d="m12258 7846v-1583h114.9v1559c-48-10.03-89.2 7.73-114.9 24.48" style="fill:#fff78b"/>
   <path d="m12373 6263h32.1v1569c-11-5.15-21.6-8.19-32.1-10.37v-1559" style="fill:#f6ed8c"/>
   <path d="m12145 6263v-141.3h266.6l54.7 141.3h-321.3" style="fill:#252727"/>
   <path d="m12518 6263h-51.8l-54.7-141.3h106.5v141.3" style="fill:#000000"/>
   <path d="m12542 5980h77.6v141.3h-25.9l-51.7-141.3" style="fill:#000000"/>
   <path d="m12043 6121v-141.3h499l51.7 141.3h-550.7" style="fill:#252727"/>
   <path d="m12373 7563c0-22.9-18.5-41.45-41.4-41.45s-41.5 18.55-41.5 41.45 18.6 41.45 41.5 41.45 41.4-18.55 41.4-41.45" style="fill:#000000"/>
   <path d="m12428 8221c2.1-14.16 3.6-28.53 3.6-43.31 0-121-74.7-224.4-180.3-267.2 24.2-12.21 51.4-19.23 80.4-19.23 98.8 0 179 80.14 179 179 0 63.37-33 119-82.7 150.7" style="fill:#f0e882"/>
   <path d="m12432 8177c0 14.78-1.5 29.15-3.6 43.31-27.8 17.85-60.8 28.29-96.3 28.29-98.9 0-179-80.14-179-179 0-69.92 40.1-130.3 98.6-159.8 105.6 42.78 180.3 146.2 180.3 267.2" style="fill:#fff78b"/>
  </g>
 </g>
</svg>
