<svg version="1.1" viewBox="0 0 100 100.5" xmlns="http://www.w3.org/2000/svg" xmlns:xlink="http://www.w3.org/1999/xlink">
 <defs>
  <linearGradient id="linearGradientSlvr" x1="-1869" x2="-1869" y1="794.4" y2="828" gradientTransform="matrix(1.301,0,0,1.301,1365,-35.3)" gradientUnits="userSpaceOnUse">
   <stop style="stop-color:#696969" offset="0"/>
   <stop style="stop-color:#c7c7c9" offset=".17"/>
   <stop style="stop-color:#f9f9ff" offset=".36"/>
   <stop style="stop-color:#ccccce" offset=".73"/>
   <stop style="stop-color:#696969" offset="1"/>
  </linearGradient>
  <linearGradient id="linearGradient12877" x1="1134" x2="1223" y1="174.9" y2="174.9" gradientUnits="userSpaceOnUse" xlink:href="#linearGradientSlvr"/>
  <linearGradient id="linearGradient12879" x1="1158" x2="1271" y1="129.9" y2="129.9" gradientUnits="userSpaceOnUse" xlink:href="#linearGradientSlvr"/>
  <linearGradient id="linearGradient12881" x1="1214" x2="1281" y1="201.1" y2="201.1" gradientUnits="userSpaceOnUse" xlink:href="#linearGradientSlvr"/>
  <linearGradient id="linearGradient12883" x1="1121" x2="1227" y1="142.2" y2="142.2" gradientUnits="userSpaceOnUse" xlink:href="#linearGradientSlvr"/>
 </defs>
 <g id="zoom" transform="matrix(.469 0 0 -.469 -513.3 125.8)">
  <path d="m1278 53.88h-153.2c-16.5 0-30 13.5-30 30v154.3c0 16.5 13.5 30 30 30h153.2c16.5 0 30-13.5 30-30v-154.3c0-16.5-13.5-30-30-30" style="fill:#290a43"/>
  <path d="m1278 53.88h-96.77c-0.41 0.3961-0.8 0.8063-1.17 1.243-0.73 0.6172-1.41 1.297-2.03 2.033-0.74 0.6168-1.42 1.296-2.04 2.033-0.73 0.6172-1.41 1.296-2.03 2.032-0.73 0.6172-1.41 1.297-2.03 2.033-0.74 0.6168-1.41 1.297-2.03 2.033-0.74 0.6168-1.42 1.297-2.04 2.033-0.73 0.6172-1.41 1.296-2.03 2.033-0.73 0.6161-1.41 1.296-2.03 2.033-0.74 0.616-1.41 1.296-2.03 2.032-0.74 0.6172-1.42 1.297-2.04 2.033-0.73 0.6168-1.41 1.296-2.03 2.033-0.74 0.616-1.41 1.296-2.03 2.033-0.74 0.616-1.42 1.296-2.04 2.033-0.73 0.616-1.41 1.296-2.03 2.032-0.73 0.6171-1.41 1.297-2.03 2.033-0.74 0.6168-1.41 1.297-2.03 2.033-0.74 0.6172-1.42 1.296-2.04 2.033-0.73 0.616-1.41 1.296-2.03 2.032-0.73 0.6168-1.41 1.297-2.03 2.033-0.74 0.6168-1.42 1.297-2.04 2.033-0.73 0.6172-1.41 1.297-2.03 2.033-0.73 0.616-1.41 1.296-2.03 2.033-0.74 0.6168-1.41 1.296-2.03 2.032-0.74 0.617-1.42 1.297-2.04 2.033-0.73 0.617-1.41 1.296-2.03 2.033-0.73 0.617-1.41 1.296-2.03 2.033-1.89 1.585-3.43 3.568-4.5 5.915-3.45 7.512 0.3 19.38 6.44 25.56l1.28-2.854c0.25 0.279 0.5 0.562 0.75 0.821l1.28-2.853c0.25 0.278 0.5 0.561 0.76 0.82l1.28-2.853c0.25 0.278 0.49 0.561 0.75 0.82l1.28-2.853c0.25 0.278 0.5 0.562 0.75 0.82l1.28-2.852c0.25 0.278 0.5 0.561 0.76 0.82l1.27-2.853 0.25 0.265c-4.16 7.856-7 18.59-7 30 0 37.97 30.88 68.86 68.83 68.86 4.3 0 8.48-0.455 12.56-1.217l1.62-1.963c0.13-0.025 0.27-0.044 0.41-0.069l1.62-1.964c0.14-0.025 0.28-0.044 0.41-0.069l1.62-1.964c0.14-0.025 0.28-0.043 0.42-0.069l1.61-1.964c0.14-0.025 0.28-0.043 0.42-0.069l1.62-1.964c0.13-0.025 0.27-0.043 0.41-0.069l1.62-1.963c0.14-0.026 0.28-0.044 0.41-0.07l1.62-1.963c0.14-0.025 0.28-0.044 0.42-0.069l1.61-1.964c0.14-0.025 0.28-0.043 0.42-0.069l1.62-1.964c0.14-0.025 0.27-0.043 0.41-0.069l1.62-1.964c0.14-0.024 0.28-0.043 0.42-0.069l1.61-1.964c0.14-0.024 0.28-0.043 0.42-0.068l1.62-1.964c0.13-0.025 0.27-0.043 0.41-0.069l0.29-0.35 4.61 5.445-25.52 25.73s2.55 3.402 6.41 3.402c0.17 0 0.34-6e-3 0.51-0.02 4.12-0.32 29.21-18.59 29.21-18.59s12.36 11.06 14.02 12.55c0.99 0.893 2.61 2.153 4.77 2.153 1.4 0 3.02-0.53 4.85-2.032 0.67-0.551 1.16-1.098 1.51-1.638 0.18-0.129 0.35-0.249 0.53-0.395 0.67-0.55 1.15-1.098 1.5-1.638 0.18-0.128 0.35-0.248 0.53-0.394 0.67-0.551 1.15-1.099 1.51-1.639 0.17-0.128 0.34-0.248 0.52-0.394 0.67-0.551 1.15-1.098 1.51-1.638 0.17-0.129 0.35-0.249 0.53-0.395 0.67-0.551 1.15-1.098 1.5-1.638 0.18-0.128 0.35-0.249 0.53-0.395 0.67-0.55 1.15-1.098 1.51-1.638 0.17-0.128 0.34-0.249 0.52-0.395 0.67-0.55 1.15-1.098 1.51-1.638 0.17-0.128 0.35-0.248 0.52-0.395 0.67-0.55 1.15-1.097 1.51-1.638 0.18-0.128 0.35-0.248 0.53-0.394 0.67-0.551 1.15-1.098 1.5-1.638 0.18-0.129 0.35-0.249 0.53-0.395 0.67-0.551 1.15-1.098 1.51-1.638 0.17-0.128 0.34-0.249 0.52-0.395 0.67-0.55 1.15-1.098 1.51-1.638 0.17-0.128 0.35-0.248 0.53-0.395 0.67-0.55 1.15-1.097 1.5-1.638 0.18-0.128 0.35-0.248 0.53-0.395 0.67-0.55 1.15-1.097 1.51-1.638 0.17-0.128 0.34-0.248 0.52-0.394 0.67-0.551 1.15-1.098 1.51-1.638 0.17-0.129 0.35-0.249 0.52-0.395 0.3-0.24 0.54-0.478 0.77-0.717v-115.2c0-16.5-13.5-30-30-30" style="fill:#000000;opacity:.3492"/>
  <path d="m1148 127.7c-4.29 6.95-7.44 17.61-7.44 28.99 0 34.15 27.78 61.92 61.9 61.92 7.04 0 13.77-1.234 20.07-3.399l-7.51 9.114c-4.08 0.762-8.26 1.217-12.56 1.217-37.95 0-68.83-30.88-68.83-68.86 0-12.67 3.5-24.52 8.42-32.51l5.95 3.52" style="fill:url(#linearGradient12877)"/>
  <path d="m1262 172c1.24-4.871 1.93-9.976 1.93-15.26 0-34.13-27.79-61.91-61.93-61.91-14.49 0-27.8 5.023-38.34 13.42l-6.14-3.91c12-10.23 27.52-16.44 44.48-16.44 37.96 0 68.85 30.88 68.85 68.84 0 2.52-0.17 4.971-0.44 7.409l-8.41 7.846" style="fill:url(#linearGradient12879)"/>
  <path d="m1281 175.5c-0.86 4.091-17.8 27.98-17.8 27.98s14.4 13.9 15.34 15.56c0.95 1.641 4.59 5.348-0.05 9.154-4.65 3.819-7.98 1.351-9.62-0.121-1.66-1.49-14.02-12.55-14.02-12.55s-25.09 18.27-29.21 18.59c-4.15 0.32-6.92-3.382-6.92-3.382l25.52-25.73-12.5-14.75-11.18 3.264-6.17-3.806s12.26-5.347 14.68-8.422c2.44-3.078 5.63-13.31 5.63-13.31l5.89 3.096-2.74 13.47 14.19 11.3 24.34-26.69c0 0.017 5.48 2.264 4.62 6.361" style="fill:url(#linearGradient12881)"/>
  <path d="m1224 177.3c-2.32 2.165-5.99 3.52-5.99 3.52-30.49-29.62-68.54-62.24-76.81-63.3-3.14-0.234-5.12 0.511-5.9 2.2-0.89 1.914-1.96 3.165 0.29 5.43l-6.43 14.33c-6.14-6.175-9.89-18.05-6.44-25.56 2.99-6.525 9.47-10.28 17.52-10.28 0.66 0 1.32 0.017 1.99 0.069 16.38 1.217 69.52 51.72 85.44 67.17 0 0-1.37 4.261-3.67 6.426" style="fill:url(#linearGradient12883)"/>
 </g>
</svg>
