<svg version="1.1" viewBox="0 0 100 100.5" xmlns="http://www.w3.org/2000/svg">
 <g id="pink-plane" transform="matrix(.469 0 0 -.469 -160.4 349.9)">
  <path d="m525.2 531.9h-153.2c-16.5 0-30 13.5-30 30v154.3c0 16.5 13.5 30 30 30h153.2c16.5 0 30-13.5 30-30v-154.3c0-16.5-13.5-30-30-30" style="fill:#f35aae"/>
  <path d="m360.8 531.9h194.4v154.7h-194.4z" style="fill:#ee2190"/>
  <path d="m462.6 618.4 22.36-25.41c1.362-1.548 3.582-2.014 5.452-1.145l2.996 1.392c5.462 2.539 8.679 8.295 7.979 14.28l-2.8 23.94c-0.173 1.481-1.676 2.419-3.083 1.923l-31.94-11.25c-1.555-0.547-2.062-2.493-0.973-3.731zm72.94 51.97c0-30.1-145.1-63.34-156.1-63.34-6.161 0-13.15 1.42-13.15 7.101 0 1.897 2.19 4.64 6.034 7.947l-4e-3 -2e-3 -10.19 18.1c-1.379 2.451-0.286 5.556 2.325 6.601l1.75 0.701c3.173 1.271 6.745 1.081 9.766-0.518l18.49-9.791c7.201 4.271 15.37 8.743 23.98 13.15l-36.04 23.38c-2.851 1.85-2.821 6.034 0.058 7.842l2.948 1.852c4.907 3.083 10.87 3.993 16.48 2.515l59.96-15.82c18.69 7.421 35.6 12.48 45.6 12.48 2.672 0 5.348-0.071 7.93-0.255l-18.11-8.174-0.433-6.091 27.95 12.85c6.7-1.598 10.78-4.58 10.78-10.54" style="fill:#ffffff"/>
 </g>
</svg>
