<svg version="1.1" viewBox="0 0 100 100.1" xmlns="http://www.w3.org/2000/svg" xmlns:xlink="http://www.w3.org/1999/xlink">
 <defs>
  <linearGradient id="linearGradientSlvr" x1="-1869" x2="-1869" y1="794.4" y2="828" gradientTransform="matrix(1.301,0,0,1.301,1365,-35.3)" gradientUnits="userSpaceOnUse">
   <stop style="stop-color:#696969" offset="0"/>
   <stop style="stop-color:#c7c7c9" offset=".17"/>
   <stop style="stop-color:#f9f9ff" offset=".36"/>
   <stop style="stop-color:#ccccce" offset=".73"/>
   <stop style="stop-color:#696969" offset="1"/>
  </linearGradient>
  <linearGradient id="linearGradient7597-8-5" x2="1" gradientTransform="matrix(21.52 -30.74 30.74 21.52 140.2 96.3)" gradientUnits="userSpaceOnUse">
   <stop stop-color="#d8d9dd" offset="0"/>
   <stop stop-color="#9a999e" offset=".5215"/>
   <stop stop-color="#c5c2c2" offset="1"/>
  </linearGradient>
  <linearGradient id="linearGradient19483-8" x1="-1405" x2="1" y1="704.4" y2="781.4" gradientTransform="matrix(16.75 -23.92 23.92 16.75 142.6 92.89)" gradientUnits="userSpaceOnUse">
   <stop style="stop-color:#1c072d" offset="0"/>
   <stop style="stop-color:#5700aa" offset=".29"/>
   <stop style="stop-color:#4b127b" offset=".64"/>
   <stop style="stop-color:#290a43" offset="1"/>
  </linearGradient>
  <radialGradient id="radialGradient48886-9-2-2" cx="0" cy="0" r="1" gradientTransform="matrix(11 0 0 11 150.8 79.77)" gradientUnits="userSpaceOnUse" xlink:href="#linearGradientSlvr">
   <stop stop-color="#f4f3f2" style="stop-color:#f9f9f9" offset="0"/>
   <stop stop-color="#f4f3f2" style="stop-color:#c7c7c7" offset=".6736"/>
   <stop stop-color="#dad8d6" style="stop-color:#696969;stop-opacity:.9412" offset="1"/>
  </radialGradient>
  <linearGradient id="linearGradient7439" x1="132.7" x2="169.3" y1="80.93" y2="80.93" gradientUnits="userSpaceOnUse" xlink:href="#linearGradientSlvr"/>
 </defs>
 <g transform="matrix(2.625 0 0 2.625 -346.4 -162.3)">
  <path d="m137.8 67.69c-3.668 3.69-5.836 8.355-5.829 13.24 0.0803 9.946 9.102 19.01 19.05 19.08 9.949-0.06588 18.97-9.131 19.05-19.08-0.0798-9.947-9.101-19.01-19.05-19.08 0 5.15e-4 0 5.15e-4 -5.2e-4 0h-0.0221c-4.879 0-9.526 2.164-13.2 5.838m-1.953 13.24c-3e-3 -3.953 1.669-7.705 4.57-10.62 2.907-2.908 6.652-4.582 10.6-4.578 8.086 0.03654 15.13 7.107 15.17 15.2-0.0401 8.088-7.088 15.16-15.17 15.2-8.086-0.03603-15.13-7.108-15.17-15.2" style="fill:url(#linearGradient7597-8-5);stroke-width:.5146"/>
  <path d="m151 62.6c-4.896 0-9.499 1.907-12.96 5.368-3.462 3.462-5.369 8.065-5.369 12.96 0 10.11 8.223 18.33 18.33 18.33 10.11 0 18.33-8.222 18.33-18.33 0-10.11-8.223-18.33-18.33-18.33zm-14.6 18.33c0-3.899 1.518-7.564 4.275-10.32 2.757-2.757 6.423-4.275 10.32-4.275 8.048 0 14.6 6.548 14.6 14.6 0 8.047-6.548 14.6-14.6 14.6-8.048 0-14.6-6.549-14.6-14.6" style="fill:url(#linearGradient7439);stroke-width:.5146"/>
  <path d="m136.4 80.93c0 8.062 6.535 14.6 14.6 14.6 8.062 0 14.6-6.536 14.6-14.6 0-8.063-6.536-14.6-14.6-14.6-8.062 0-14.6 6.535-14.6 14.6" style="fill:url(#linearGradient19483-8);stroke-width:.5146"/>
  <path d="m149.5 69.84v6.957l-9.538 5.815v2.555l9.63-3.17v5.166l-2.205 1.74v2.019l3.436-1.068 3.435 1.068v-2.019l-2.228-1.74v-5.166l9.629 3.17v-2.555l-9.676-5.815v-6.911c5.1e-4 -0.8528-0.6284-1.276-1.253-1.276-0.6165 0-1.229 0.4117-1.23 1.229" style="fill:url(#radialGradient48886-9-2-2);stroke-width:.5146"/>
 </g>
</svg>
