<svg version="1.1" viewBox="0 0 104.2 71.14" xmlns="http://www.w3.org/2000/svg" xmlns:xlink="http://www.w3.org/1999/xlink">
 <defs>
  <linearGradient id="linearGradientSlvr" x1="-1869" x2="-1869" y1="794.4" y2="828" gradientTransform="matrix(1.301,0,0,1.301,1365,-35.3)" gradientUnits="userSpaceOnUse">
   <stop style="stop-color:#696969" offset="0"/>
   <stop style="stop-color:#c7c7c9" offset=".17"/>
   <stop style="stop-color:#f9f9ff" offset=".36"/>
   <stop style="stop-color:#ccccce" offset=".73"/>
   <stop style="stop-color:#696969" offset="1"/>
  </linearGradient>
  <linearGradient id="linearGradient5251-6" x1="-166" x2="-151.9" y1="-246.4" y2="-255" gradientUnits="userSpaceOnUse" xlink:href="#linearGradientSlvr"/>
  <linearGradient id="linearGradient5243-6" x1="-190.7" x2="-174.6" y1="-251.4" y2="-251.4" gradientUnits="userSpaceOnUse" xlink:href="#linearGradientSlvr"/>
  <linearGradient id="linearGradient5235-6" x1="-177.2" x2="-162.3" y1="-234" y2="-234" gradientUnits="userSpaceOnUse" xlink:href="#linearGradientSlvr"/>
 </defs>
 <g transform="matrix(2.197 0 0 2.197 433.3 572.2)">
  <path d="m-160.9-241.7c-1.256 7.486-7.766 13.19-15.61 13.19-8.741 0-15.83-7.086-15.83-15.83s7.086-15.83 15.83-15.83c2.712 0 5.265 0.6824 7.497 1.884 3.371 1.585 9.324 7.12 8.111 16.58z" stroke-miterlimit="10" style="fill:#290a43;stroke-linecap:round;stroke-linejoin:round;stroke-miterlimit:10;stroke-width:.7284;stroke:#000000"/>
  <path d="m-157.7-240.9 2.109-1.215 1.298-8.889 2.687-1.549c0.5042-0.2905 1.718-2.102 1.288-2.844-0.43-0.7423-2.609-0.6003-3.113-0.3098l-2.687 1.549-8.361-3.322-2.109 1.215 6.588 4.344-3.283 1.892-2.354-0.7879-1.925 1.109 3.126 2.446 0.5592 3.925 1.925-1.109 0.4936-2.429 3.283-1.892z" style="fill:url(#linearGradient5251-6);stroke-width:.3768"/>
  <path d="m-174.7-253.7c0.4398-1.633-4.208-3.517-0.3768-6.029l-0.0569-0.3034c-0.4786-0.0437-0.9609-0.0735-1.45-0.0735-6.15 0-11.48 3.51-14.1 8.635l0.1541 0.0324c2.135-1.821 7.589 1.661 5.652 4.522-2.763 4.082 0.6414 4.378 3.768 4.145 1.696-0.1884 3.747-0.9869 3.015-4.899-0.6361-3.397 2.952-4.396 3.391-6.029z" style="fill:url(#linearGradient5243-6);stroke-width:.3768"/>
  <path d="m-162.3-237.5c-1.774 1.923-3.315 0.8927-4.485-0.7913-1.178-1.696-3.297-1.884-4.522 0.7536-1.225 2.638-2.496 0.1884-4.899 3.768-2.31 3.443-0.1775 5.143-0.0113 5.267 6.142-0.1398 11.42-3.776 13.92-8.998z" style="fill:url(#linearGradient5235-6);stroke-width:.3768"/>
  <path d="m-157.7-240.9 2.109-1.215 1.298-8.889 2.687-1.549c0.5042-0.2905 1.718-2.102 1.288-2.844-0.43-0.7423-2.609-0.6003-3.113-0.3098l-2.687 1.549-8.361-3.322-2.109 1.215 6.588 4.344-3.283 1.892-2.354-0.7879-1.925 1.109 3.126 2.446 0.5592 3.925 1.925-1.109 0.4936-2.429 3.283-1.892z" stroke-miterlimit="10" style="fill:none;opacity:.99;stroke-linecap:round;stroke-linejoin:round;stroke-miterlimit:10;stroke-width:.7284;stroke:#000000"/>
  <path d="m-167.9-245.4c-15.76 8.855-28.3 8.102-28.98 4.145-0.3143-1.834 1.451-3.775 4.447-5.677" stroke-miterlimit="10" style="fill:none;stroke-linecap:round;stroke-linejoin:round;stroke-miterlimit:10;stroke-width:.7284;stroke:#000000"/>
  <path d="m-175-259.7c-3.831 2.512 0.8166 4.396 0.3768 6.029-0.4398 1.633-4.027 2.632-3.391 6.029 0.7325 3.912-1.319 4.71-3.015 4.899-3.127 0.2329-6.531-0.0629-3.768-4.145 1.936-2.861-3.517-6.343-5.652-4.522" stroke-miterlimit="10" style="fill:none;stroke-linecap:round;stroke-linejoin:round;stroke-miterlimit:10;stroke-width:.7284;stroke:#000000"/>
  <path d="m-176.2-228.5s-2.402-1.696 0-5.276c2.402-3.58 3.674-1.13 4.899-3.768 1.225-2.638 3.344-2.449 4.522-0.7536 1.178 1.696 2.732 2.732 4.522 0.7536" stroke-miterlimit="10" style="fill:none;stroke-linecap:round;stroke-linejoin:round;stroke-miterlimit:10;stroke-width:.7284;stroke:#000000"/>
 </g>
</svg>
