<svg version="1.1" viewBox="0 0 100 100" xmlns="http://www.w3.org/2000/svg" xmlns:xlink="http://www.w3.org/1999/xlink">
 <defs>
  <linearGradient id="linearGradient5953-6" x1="911.6" x2="2667" y1="1587" y2="1587" gradientTransform="scale(.7835 1.276)" gradientUnits="userSpaceOnUse">
   <stop style="stop-color:#1c072d" offset="0"/>
   <stop style="stop-color:#5700aa" offset=".29"/>
   <stop style="stop-color:#4b127b" offset=".64"/>
   <stop style="stop-color:#290a43" offset="1"/>
  </linearGradient>
  <linearGradient id="linearGradient5945-2" x1="973" x2="1021" y1="818" y2="818" gradientTransform="matrix(1.301,0,0,1.301,1365,-35.3)" gradientUnits="userSpaceOnUse">
   <stop style="stop-color:#696969" offset="0"/>
   <stop style="stop-color:#c7c7c9" offset=".17"/>
   <stop style="stop-color:#f9f9ff" offset=".36"/>
   <stop style="stop-color:#ccccce" offset=".73"/>
   <stop style="stop-color:#696969" offset="1"/>
  </linearGradient>
 </defs>
 <g transform="matrix(.04646 0 0 -.04646 -24.17 132.7)">
  <path d="m2672 1780c0-594.3-481.8-1076-1076-1076-594.3 0-1076 481.8-1076 1076 0 594.3 481.8 1076 1076 1076 594.3 0 1076-481.8 1076-1076" style="fill:#8d198f"/>
  <path d="m1700 709.1c-3.36 3.352-6.77 6.653-10.07 10.07-6.03 5.82-11.95 11.73-17.76 17.76-6.03 5.821-11.95 11.74-17.77 17.77-6.03 5.809-11.95 11.74-17.77 17.77-6.03 5.809-11.94 11.73-17.76 17.76-6.03 5.813-11.94 11.73-17.76 17.76-6.03 5.809-11.95 11.73-17.76 17.76-6.03 5.82-11.95 11.74-17.77 17.76-6.02 5.82-11.94 11.74-17.75 17.76-6.03 5.821-11.96 11.74-17.77 17.78-6.03 5.812-11.95 11.73-17.76 17.76-6.04 5.809-11.95 11.73-17.77 17.76-6.03 5.809-11.94 11.73-17.76 17.76-6.03 5.808-11.95 11.73-17.76 17.76-6.03 5.82-11.95 11.73-17.76 17.76-6.03 5.821-11.96 11.74-17.77 17.78-6.03 5.808-11.95 11.73-17.76 17.76-6.03 5.81-11.95 11.73-17.77 17.76-6.03 5.81-11.94 11.73-17.76 17.76-6.03 5.81-11.95 11.73-17.76 17.76-6.03 5.82-11.95 11.73-17.76 17.76-6.03 5.82-11.95 11.74-17.77 17.77-6.03 5.81-11.95 11.73-17.77 17.77-6.03 5.81-11.94 11.73-17.75 17.76-6.04 5.81-11.95 11.73-17.77 17.76-6.03 5.81-11.95 11.73-17.76 17.76-6.03 5.82-11.95 11.74-17.77 17.77-6.02 5.81-11.94 11.73-17.75 17.75-6.03 5.82-11.96 11.74-17.77 17.78-6.04 5.81-11.95 11.73-17.76 17.76-6.04 5.81-11.95 11.73-17.77 17.76-6.03 5.81-11.94 11.73-17.76 17.76-6.03 5.81-11.95 11.73-17.76 17.76-129.2 124.6-209.9 299.3-209.9 492.6 0 157.2 53.38 302.2 142.9 418 23.62 30.52 49.78 59.15 78.23 85.41 122 112.5 285 181.4 463.6 181.4 177.1 0 338.9-67.67 460.6-178.5 10.88-9.79 21.2-20.11 31.37-30.53l0.33-0.35c5.92-5.71 11.74-11.51 17.44-17.41l0.33-0.35c5.91-5.71 11.73-11.51 17.43-17.41l0.33-0.36c5.91-5.71 11.74-11.5 17.43-17.41l0.33-0.34c5.91-5.72 11.74-11.51 17.44-17.42l0.32-0.35c5.91-5.71 11.74-11.5 17.44-17.41l0.33-0.35c5.91-5.72 11.74-11.51 17.43-17.41l0.33-0.35c5.91-5.72 11.74-11.51 17.43-17.42l0.34-0.35c5.91-5.71 11.73-11.51 17.43-17.41l0.33-0.35c5.91-5.72 11.73-11.51 17.43-17.42l0.33-0.34c5.91-5.72 11.74-11.51 17.44-17.42l0.32-0.34c5.91-5.72 11.74-11.51 17.44-17.42l0.33-0.35c5.91-5.72 11.73-11.51 17.43-17.41l0.33-0.35c5.91-5.72 11.74-11.51 17.43-17.42l0.34-0.35c5.91-5.71 11.73-11.51 17.43-17.41l0.33-0.35c5.91-5.72 11.73-11.51 17.43-17.41l0.34-0.36c5.9-5.71 11.73-11.5 17.42-17.41l0.33-0.34c5.91-5.72 11.74-11.51 17.44-17.42l0.32-0.34c5.91-5.72 11.74-11.52 17.44-17.42l0.33-0.35c5.91-5.72 11.73-11.51 17.43-17.42l0.33-0.35c5.92-5.71 11.74-11.51 17.44-17.41l0.33-0.35c5.91-5.71 11.73-11.51 17.43-17.41l0.34-0.36c5.9-5.71 11.73-11.5 17.42-17.41l0.33-0.34c5.91-5.72 11.74-11.51 17.44-17.42l0.32-0.34c5.91-5.72 11.74-11.52 17.44-17.42l0.33-0.35c5.91-5.72 11.73-11.51 17.43-17.42l0.33-0.35c5.91-5.71 11.74-11.5 17.43-17.41l0.34-0.35c5.91-5.71 11.73-11.51 17.43-17.41l0.33-0.35c5.91-5.72 11.73-11.51 17.43-17.42l0.33-0.34c5.91-5.72 11.74-11.51 17.43-17.42l0.33-0.34c5.91-5.72 11.74-11.51 17.44-17.42l0.33-0.35c5.91-5.71 11.73-11.51 17.43-17.41l0.33-0.35c5.91-5.72 11.74-11.51 17.43-17.42l0.34-0.35c3.54-3.42 6.97-6.94 10.44-10.43-48.83-511.7-455.9-918.8-967.5-967.7" style="fill:url(#linearGradient5953-6)"/>
  <path transform="matrix(28.7 0 0 -28.7 -27011 25255)" d="m996.9 794.2c-6.225 0-11.91 2.402-16.16 6.322-0.9914 0.9151-1.902 1.913-2.725 2.977-3.12 4.035-4.98 9.086-4.98 14.56 0 13.16 10.71 23.86 23.86 23.86 9.259 0 17.29-5.301 21.25-13.02 0.8426-1.649 1.503-3.407 1.943-5.252 0.1154-0.4701 0.2117-0.9395 0.2988-1.418 0.2391-1.352 0.3672-2.747 0.3672-4.17 0-0.08084-0.0039-0.1629-0.0039-0.2441-0.0049-0.699-0.0428-1.395-0.1094-2.074-0.2205-2.272-0.7614-4.453-1.576-6.5-0.0624-0.1484-0.1212-0.3066-0.1836-0.4551-1.083-2.564-2.613-4.899-4.477-6.916-0.1202-0.13-0.2451-0.2587-0.3691-0.3887-0.3544-0.3631-0.7127-0.7233-1.092-1.064-4.241-3.862-9.878-6.221-16.05-6.221zm0 1.967c5.541 0 10.6 2.07 14.46 5.469l-0.2598 0.4629-1.01 0.3984-0.4258 0.4609 0.0957 0.541 0.5215 0.07226 0.3164 0.7852 0.8965-0.3652 0.1484 1.051h-0.2695l-0.7364-0.1094-0.8203 0.1367-0.791 1.123-1.137 0.1777-0.1621 0.9668 0.4804 0.1152-0.1386 0.623-1.127-0.2246-1.031 0.2246-0.2149 0.5703 0.1778 1.209 0.6035 0.2812 1.016-0.00391 0.6855-0.0625 0.211-0.5469 1.074-1.391 0.7031 0.1445 0.6953-0.627 0.1309 0.4883 1.709 1.156-0.211 0.2754-0.7714-0.03711 0.2988 0.418 0.4726 0.1055 0.5567-0.2305-0.0098-0.6719 0.2442-0.123-0.1954-0.2129-1.141-0.6328-0.3027-0.8476h0.9492l0.3008 0.3027 0.8203 0.7031 0.0332 0.8496 0.8438 0.9004 0.3164-1.232 0.5859-0.3203 0.1094 1.012 0.5742 0.627 1.141-0.01758c0.2206 0.5656 0.4181 1.144 0.5899 1.734l-0.1192 0.1094h-1.744l-1.064-0.791-1.121 0.1055v0.6856h-0.3554l-0.3828-0.2734-1.936-0.4922v-1.256l-2.459 0.1914-0.7617 0.4121h-0.9785l-0.4805-0.05274-1.184 0.6621v1.234l-2.42 1.746 0.2012 0.748h0.4941l-0.1289 0.709-0.3457 0.1289-0.0195 1.855 2.09 2.387h0.916l0.0528-0.1504h1.639l0.4707-0.4356h0.9297l0.5078 0.5078 1.385 0.1484-0.1836 1.836 1.539 2.713-0.8086 1.549 0.0508 0.7266 0.6386 0.6348v1.754l0.834 1.121v1.457h0.7227c-4.016 4.937-10.14 8.1-16.98 8.1-12.08 0-21.9-9.825-21.9-21.9 0-3.038 0.6229-5.938 1.744-8.568 0.2408-0.5607 0.5029-1.104 0.7852-1.635 0.2736-0.513 0.5615-1.017 0.873-1.506l0.03906 0.3984-0.9121 1.107c-0.2823 0.5311-0.5457 1.074-0.7812 1.635v1.244l0.9062 0.4375v1.734l0.873 1.486 0.7148 0.1094 0.08985-0.5078-0.8379-1.293-0.1641-1.256h0.4902l0.2051 1.293 1.213 1.764-0.3164 0.5703 0.7715 1.18 1.912 0.4688v-0.3066l0.7617 0.1094-0.07226 0.543 0.6035 0.1094 0.9258 0.2539 1.309 1.496 1.678 0.125 0.1621 1.365-1.145 0.8008-0.05273 1.217-0.168 0.748 1.658 2.074 0.1289 0.7109s0.5988 0.1621 0.6699 0.1621c0.07248 0 1.348 0.9629 1.348 0.9629v3.752l0.4551 0.125-0.3105 1.73 0.7656 1.021-0.1387 1.711 1.006 1.777 1.301 1.131 1.303 0.02539 0.125-0.418-0.9531-0.8105 0.05273-0.3965 0.1719-0.4941 0.0332-0.498-0.6484-0.01953-0.3242-0.4062 0.5371-0.5234 0.07227-0.3887-0.6016-0.1719 0.03515-0.3652 0.8574-0.1289 1.303-0.623 0.4375-0.8008 1.365-1.75-0.3125-1.365 0.418-0.7285 1.256 0.03906 0.8477-0.666 0.2754-2.637 0.9336-1.191 0.168-0.7637-0.8594-0.2773-0.5645-0.9258-1.926-0.01953-1.529-0.5781-0.07227-1.094-0.5137-0.8906-1.379-0.01953-0.8008-1.256-0.7109-0.3496-0.03711 0.3828-1.289 0.07617-0.4746-0.6562-1.348-0.2715-1.111 1.277-1.744-0.291-0.1289-1.971-1.275-0.2188 0.5137-0.9648-0.1504-0.5547-1.672 1.121-1.053-0.1309-0.375-0.8242 0.2266-0.8476 0.584-1.074 1.336-0.6758h2.584l-0.00976 0.7871 0.9297 0.4355-0.07226-1.346 0.666-0.6758 1.352-0.8867 0.0957-0.623 1.348-1.404 1.428-0.791-0.125-0.1055 0.9688-0.9102 0.3555 0.09179 0.1621 0.2051 0.3691-0.4082 0.0918-0.04297-0.4043-0.05664-0.4102-0.1348v-0.3926l0.2188-0.1777h0.4746l0.2207 0.0957 0.1914 0.3848 0.2305-0.03906v-0.03321l0.06641 0.02344 0.6719-0.09961 0.0957-0.332 0.3848 0.0957v0.3594l-0.3574 0.2461 0.05273 0.3867 1.215 0.375 0.0039 0.01367 0.2774-0.02344 0.01953-0.5273-0.9629-0.4356-0.05274-0.2539 0.8008-0.2754 0.03321-0.7656-0.8379-0.5078-0.05274-1.289-1.146 0.5605h-0.418l0.1055-0.9824-1.557-0.3691-0.6484 0.4883v1.49l-1.158 0.3652-0.4648 0.9727-0.5078 0.08203v-1.242l-1.09-0.1543-0.5449-0.3535-0.2207-0.8047 1.951-1.143 0.959-0.291 0.0957 0.6426 0.5312-0.02344 0.03711-0.3281 0.5586-0.07421 0.00782-0.1152-0.2383-0.1016-0.05468-0.3398 0.6875-0.05664 0.4121-0.4336 0.02343-0.02734h0.00391l0.125-0.1309 1.438-0.1816 0.6367 0.541-1.666 0.8887 2.117 0.502 0.2773-0.709h0.9258l0.3301-0.6191-0.6562-0.168v-0.7793l-2.057-0.9102-1.418 0.1621-0.7988 0.4219 0.05273 1.016-0.8398-0.125-0.1289-0.5644 0.8047-0.7285-1.457-0.07227-0.416 0.1289-0.1836 0.4883 0.5469 0.0918-0.1094 0.5469-0.9297 0.05664-0.1445 0.3594-1.346 0.03906s-0.0343-0.7617-0.0918-0.7617c-0.05262 0 1.055-0.01953 1.055-0.01953l0.8047-0.7852-0.4414-0.2168-0.5801 0.5664-0.9688-0.0586-0.5781-0.7988h-1.236l-1.295 0.9629h1.184l0.1113 0.3496-0.3066 0.2812 1.307 0.03907 0.2012 0.4746-1.475-0.0586-0.07227-0.3613-0.9238-0.2031-0.4961-0.2734-1.102 0.00977c3.613-2.632 8.056-4.188 12.86-4.188zm-12.35 5.098h0.7852v0.3418l-0.2246 0.2969h-1.078v-0.4746h0.4785zm0.7676 1.186c0.03798 0 0 0.4785 0 0.4785l-1.08 0.0664-0.2051-0.2441 0.7656-0.2207s0.4767-0.08008 0.5195-0.08008zm27.5 0.5977c0.3728 0.3976 0.7363 0.8104 1.082 1.232l-0.4316 0.6406-1.5-0.01172-0.0957-0.3125 0.9394-0.4805zm-4.928 0.4219-0.7187 0.1445-0.2012 0.3106v0.3457l0.3438 0.2344 0.4961 0.3105 0.0468 0.3555-0.5332 0.1094-0.0703 0.7539h0.6367l0.8497-0.08203 0.4355-0.5176-0.4648-0.1816-0.254-0.291-0.3828-0.6191zm-1.074 0.9824-0.5879 0.1348-0.4375 0.7031v0.4512h0.5078l0.9024-0.6309 0.0371-0.4766zm-20.2 0.3164 0.5176 0.125-0.1758 0.6934-0.5606 0.1797-0.3516-0.7246zm1.424 1.654h0.8574v0.2578h0.1934v0.4512h-1.314l-0.4883-0.1348 0.125-0.3164zm1.279 0.1914 0.4512 0.4062-0.4512 0.1113zm6.006 0.498-0.25 0.00391-0.1289 0.332h-0.627v0.3242h0.1484s0.00782 0.06725 0.01758 0.1582l0.3887-0.0332 0.2402-0.1484 0.0625-0.3008 0.3105-0.02539 0.1191-0.2539zm-5.014 0.1289 0.3359 0.207-0.2676 0.2207-0.2695-0.2207zm-2.521 0.06835h0.7246l-0.9258 1.297-0.3828-0.2051 0.08203-0.5469zm1.162 0h0.7363v0.4356l-0.3262 0.2109-0.4102 0.07617zm4.709 0.1387-0.2051 0.2539-0.02343 0.3203 0.4551-0.03907 0.04688-0.3203zm-3.795 0.3398h0.05859l0.8281 0.2441v0.4258h-0.6953l-0.1914-0.2773zm26.53 0.3359c0.1815 0.3547 0.3505 0.7149 0.5136 1.074l-0.2265-0.00586-0.4258 0.05859v-0.9688zm-26.87 0.05664v0.4258l-0.3125 0.3125h-0.6992l0.1094-0.4746 0.332-0.0293 0.06641-0.1621zm28.68 4.852c0.0293 0.1192 0.0583 0.2441 0.0879 0.373l-0.1582-0.2969z" style="fill:url(#linearGradient5945-2)"/>
 </g>
</svg>
