<?xml version="1.0" encoding="UTF-8" standalone="no"?>
<svg xmlns:dc="http://purl.org/dc/elements/1.1/" xmlns:cc="http://creativecommons.org/ns#" xmlns:rdf="http://www.w3.org/1999/02/22-rdf-syntax-ns#" xmlns:svg="http://www.w3.org/2000/svg" xmlns="http://www.w3.org/2000/svg" xmlns:xlink="http://www.w3.org/1999/xlink" xmlns:sodipodi="http://sodipodi.sourceforge.net/DTD/sodipodi-0.dtd" xmlns:inkscape="http://www.inkscape.org/namespaces/inkscape" version="1.1" viewBox="0 0 100.00001 99.999908" id="svg32" sodipodi:docname="i65a.svg" width="100.00001" height="99.999908" inkscape:version="0.92.2 (5c3e80d, 2017-08-06)">
  <metadata id="metadata36">
    <rdf:RDF>
      <cc:Work rdf:about="">
        <dc:format>image/svg+xml</dc:format>
        <dc:type rdf:resource="http://purl.org/dc/dcmitype/StillImage" />
        <dc:title></dc:title>
      </cc:Work>
    </rdf:RDF>
  </metadata>
  <sodipodi:namedview pagecolor="#ffffff" bordercolor="#666666" borderopacity="1" objecttolerance="10" gridtolerance="10" guidetolerance="10" inkscape:pageopacity="0" inkscape:pageshadow="2" inkscape:window-width="2560" inkscape:window-height="1001" id="namedview34" showgrid="false" fit-margin-top="0" fit-margin-left="0" fit-margin-right="0" fit-margin-bottom="0" inkscape:zoom="2.36" inkscape:cx="15.466135" inkscape:cy="30.296615" inkscape:window-x="-9" inkscape:window-y="41" inkscape:window-maximized="1" inkscape:current-layer="svg32" />
  <defs id="defs22">
    <linearGradient inkscape:collect="always" xlink:href="#linearGradient7728" id="linearGradient5953-6" x1="911.57397" y1="1587.0496" x2="2667.47" y2="1587.0496" gradientUnits="userSpaceOnUse" gradientTransform="matrix(0.0464632,0,0,-0.0464632,-24.17011,132.71563)" />
    <linearGradient gradientUnits="userSpaceOnUse" gradientTransform="scale(0.7835,1.276)" y2="781.40002" y1="704.40002" x2="-1405" x1="-1405" id="linearGradient7728">
      <stop id="stop4435" offset="0" style="stop-color:#1c072d" />
      <stop id="stop4437" offset=".29" style="stop-color:#5700aa" />
      <stop id="stop4439" offset=".64" style="stop-color:#4b127b" />
      <stop id="stop4441" offset="1" style="stop-color:#290a43" />
    </linearGradient>
    <linearGradient inkscape:collect="always" xlink:href="#linearGradientSlvr" id="linearGradient5945-2" x1="973.01367" y1="818.01855" x2="1020.7363" y2="818.01855" gradientUnits="userSpaceOnUse" gradientTransform="matrix(1.3333322,0,0,1.3333322,-1279.1655,-1040.691)" />
    <linearGradient gradientUnits="userSpaceOnUse" gradientTransform="matrix(1.301,0,0,1.301,1365,-35.3)" y2="828" y1="794.40002" x2="-1869" x1="-1869" id="linearGradientSlvr">
      <stop id="stop4422" offset="0" style="stop-color:#696969" />
      <stop id="stop4424" offset=".17" style="stop-color:#c7c7c9" />
      <stop id="stop4426" offset=".36" style="stop-color:#f9f9ff" />
      <stop id="stop4428" offset=".73" style="stop-color:#ccccce" />
      <stop id="stop4430" offset="1" style="stop-color:#696969" />
    </linearGradient>
  </defs>
  <path d="M 100,49.999983 C 100,77.613992 77.614499,99.999915 50.000025,99.999915 22.386016,99.999915 1.768e-7,77.613992 1.768e-7,49.999983 1.768e-7,22.385509 22.386016,4.048e-6 50.000025,4.048e-6 77.614499,4.048e-6 100,22.385509 100,49.999983" style="fill:#8d198f;fill-opacity:1;fill-rule:nonzero;stroke:none;stroke-width:0.0464632" id="path4645-4" inkscape:connector-curvature="0" />
  <path d="M 54.814542,99.768157 C 54.658426,99.612412 54.499986,99.459037 54.346658,99.300226 54.066485,99.02981 53.791423,98.755212 53.521471,98.474993 53.241298,98.204531 52.966236,97.929561 52.69582,97.649342 52.415647,97.379437 52.140585,97.103957 51.870169,96.823737 51.589996,96.553833 51.315399,96.278677 51.044983,95.998644 50.76481,95.728553 50.490212,95.453584 50.219796,95.173364 49.939623,94.90346 49.664561,94.628351 49.39461,94.348085 49.114437,94.077669 48.839375,93.8027 48.568959,93.522992 48.28925,93.252576 48.014188,92.977421 47.744237,92.697759 47.464064,92.427296 47.188537,92.152327 46.918586,91.871736 46.638413,91.601692 46.363351,91.326723 46.0934,91.046503 45.812762,90.776598 45.538164,90.501443 45.267749,90.221224 44.987575,89.951319 44.712978,89.67635 44.442562,89.39613 44.162389,89.126272 43.887327,88.851117 43.617376,88.570851 43.337203,88.300435 43.06214,88.025837 42.792189,87.745804 42.512016,87.475341 42.236489,87.200186 41.966538,86.919595 41.686365,86.649737 41.411303,86.374582 41.141352,86.094455 40.861179,85.824504 40.586116,85.549442 40.315701,85.269269 40.035528,84.999317 39.76093,84.724255 39.490514,84.444082 39.210341,84.174131 38.935279,83.899069 38.665328,83.618896 38.385155,83.34848 38.110093,83.073882 37.840141,82.793709 37.559968,82.523294 37.284906,82.248231 37.01449,81.968058 36.734317,81.698107 36.459255,81.423045 36.188839,81.142407 35.908666,80.872456 35.634069,80.597394 35.364117,80.317221 35.08348,80.04727 34.808882,79.772207 34.538466,79.492034 34.258293,79.222083 33.983231,78.947021 33.71328,78.666848 33.433107,78.396432 33.158045,78.12137 32.887629,77.841197 32.60792,77.571246 32.332858,77.296184 32.062907,77.016475 31.782734,76.746059 31.507207,76.470997 31.237256,76.190359 30.956618,75.920408 30.682021,75.645346 30.41207,75.365173 30.131432,75.095222 29.856834,74.82016 29.586419,74.539987 29.306245,74.270035 29.031648,73.994973 28.761232,73.7148 28.481059,73.444849 28.205997,73.169787 27.936046,72.889614 21.931374,67.09937 18.184535,58.982713 18.184535,49.999983 18.184535,42.695968 20.664508,35.961127 24.824405,30.580688 25.921866,29.162632 27.137343,27.83239 28.459221,26.612266 34.127267,21.385621 41.699839,18.184307 50.000025,18.184307 58.230052,18.184307 65.74501,21.328471 71.400046,26.477988 71.905566,26.932863 72.385066,27.412363 72.857597,27.896509 L 72.87293,27.912771 C 73.147992,28.178076 73.418407,28.447563 73.683248,28.721696 L 73.698581,28.737958 C 73.973178,29.003263 74.243594,29.272749 74.508434,29.546882 L 74.523767,29.563609 C 74.798365,29.828914 75.069245,30.097936 75.333621,30.372533 L 75.348953,30.388331 C 75.623551,30.6541 75.894431,30.923122 76.159272,31.19772 L 76.17414,31.213982 C 76.448737,31.479287 76.719618,31.748309 76.984458,32.022906 L 76.999791,32.039168 C 77.274388,32.304938 77.545269,32.57396 77.809645,32.848093 L 77.824977,32.864355 C 78.099575,33.130124 78.370455,33.399146 78.634831,33.673744 L 78.650628,33.690006 C 78.925226,33.955311 79.195642,34.224797 79.460482,34.49893 L 79.475815,34.515192 C 79.750412,34.780962 80.020828,35.049984 80.285668,35.324581 L 80.301001,35.340379 C 80.575599,35.606148 80.846479,35.87517 81.11132,36.149768 L 81.126188,36.165565 C 81.400785,36.431335 81.671666,36.700356 81.936506,36.974954 L 81.951839,36.991216 C 82.226436,37.256986 82.496852,37.526008 82.761692,37.80014 L 82.777025,37.816403 C 83.051623,38.082172 83.322503,38.351194 83.586879,38.625791 L 83.602676,38.642054 C 83.877274,38.907358 84.14769,39.176845 84.41253,39.450978 L 84.427863,39.46724 C 84.70246,39.73301 84.972876,40.002031 85.237716,40.276164 L 85.253514,40.292891 C 85.527647,40.558196 85.798527,40.827218 86.062903,41.101815 L 86.078236,41.117613 C 86.352833,41.383382 86.623714,41.652404 86.888554,41.927002 L 86.903422,41.942799 C 87.17802,42.208569 87.4489,42.478055 87.71374,42.752188 L 87.729073,42.76845 C 88.003671,43.03422 88.274086,43.303242 88.538927,43.577839 L 88.55426,43.594101 C 88.829322,43.859406 89.099737,44.128893 89.364578,44.403026 L 89.379911,44.419288 C 89.654508,44.684593 89.924924,44.954079 90.189764,45.228212 L 90.205562,45.244939 C 90.479695,45.510244 90.750575,45.779266 91.014951,46.053863 L 91.030283,46.069661 C 91.304881,46.33543 91.575761,46.604452 91.840602,46.87905 L 91.85547,46.894847 C 92.130067,47.160617 92.400948,47.430103 92.665788,47.704236 L 92.681121,47.720498 C 92.955718,47.986268 93.226134,48.25529 93.490975,48.529887 L 93.506307,48.546149 C 93.780905,48.811454 94.051785,49.080476 94.316161,49.355074 L 94.331958,49.371336 C 94.606556,49.636641 94.876972,49.906127 95.141812,50.18026 L 95.157145,50.196522 C 95.431742,50.462292 95.702158,50.731314 95.966998,51.005911 L 95.982331,51.021709 C 96.256929,51.287478 96.527809,51.5565 96.792185,51.831098 L 96.807518,51.846895 C 97.082115,52.112665 97.352996,52.381686 97.617836,52.656284 L 97.633169,52.672546 C 97.907766,52.937851 98.178182,53.207338 98.443022,53.48147 L 98.458355,53.497733 C 98.732953,53.763502 99.003833,54.032524 99.268209,54.307121 L 99.284006,54.323384 C 99.448486,54.482288 99.607855,54.645838 99.769082,54.807995 97.500284,78.581356 78.586974,97.496524 54.814542,99.768157" style="fill:url(#linearGradient5953-6);fill-opacity:1;fill-rule:nonzero;stroke:none;stroke-width:0.0464632" id="path4647-6" inkscape:connector-curvature="0" />
  <path inkscape:connector-curvature="0" id="path4649-8" d="M 50.000037,18.1831 C 41.699857,18.1831 34.126437,21.386137 28.458389,26.612786 27.13651,27.832905 25.923044,29.163464 24.825578,30.581529 20.665502,35.961965 18.184957,42.696772 18.184957,50.00078 18.184957,67.548538 32.460638,81.815859 50.000037,81.815859 62.34576,81.815859 73.056817,74.748279 78.336013,64.453901 79.459479,62.255249 80.339744,59.911518 80.927077,57.451293 81.080944,56.824507 81.209344,56.198614 81.325477,55.560668 81.644277,53.757896 81.815076,51.898338 81.815076,50.00078 81.815076,49.892993 81.809877,49.783526 81.809877,49.67526 81.803343,48.743207 81.75281,47.815675 81.66401,46.909636 81.37001,43.879771 80.648811,40.971761 79.562545,38.242976 79.479345,38.045043 79.400945,37.834137 79.317745,37.636203 77.873213,34.217446 75.833882,31.104156 73.34895,28.414865 73.188684,28.241558 73.022151,28.069945 72.856817,27.896638 72.384285,27.412492 71.906552,26.932239 71.401085,26.47736 65.746023,21.327844 58.23003,18.1831 50.000037,18.1831 Z M 50.000037,20.805498 C 57.387631,20.805498 64.129092,23.566069 69.278687,28.097158 L 68.932287,28.714344 67.586022,29.245584 67.018289,29.86017 67.145889,30.581529 67.841222,30.677876 68.263088,31.724755 69.45842,31.237782 69.656287,32.638821 H 69.296954 L 68.315088,32.492981 67.221356,32.675274 66.16669,34.172673 64.651091,34.409646 64.434958,35.698712 65.075491,35.852352 64.890691,36.683084 63.388025,36.383604 62.013093,36.683084 61.72656,37.443497 61.963627,39.055482 62.768293,39.430482 64.122425,39.425269 65.036424,39.341935 65.317757,38.612776 66.750023,36.758604 67.687489,36.951311 68.614554,36.115378 68.789088,36.766417 71.067752,38.308083 70.786419,38.675269 69.757887,38.625789 70.156286,39.183082 70.786419,39.323709 71.528685,39.016416 71.515619,38.12059 71.841218,37.956523 71.580685,37.67267 70.059886,36.828911 69.656287,35.698712 H 70.921886 L 71.322952,36.102351 72.416684,37.039857 72.460951,38.17267 73.586017,39.373189 74.007883,37.729963 74.789082,37.30287 74.934949,38.651829 75.700548,39.487775 77.221347,39.464335 C 77.51548,40.218428 77.778813,40.990214 78.00788,41.776827 L 77.848947,41.922666 H 75.523482 L 74.10415,40.867974 72.609351,41.008601 V 41.922666 H 72.135485 L 71.625085,41.55808 69.044287,40.901827 V 39.227349 L 65.765623,39.482562 64.750024,40.032041 H 63.445359 L 62.804693,39.961721 61.226561,40.844534 V 42.490373 L 58.00003,44.818491 58.268297,45.81589 H 58.927096 L 58.755229,46.761196 58.294296,46.933076 58.268297,49.407033 61.054694,52.589324 H 62.276026 L 62.346426,52.388804 H 64.531225 L 65.158824,51.808071 H 66.398423 L 67.075489,52.485151 68.921887,52.683071 68.677088,55.130989 70.729219,58.748172 69.651087,60.813277 69.71882,61.782023 70.570286,62.628369 V 64.966914 L 71.682285,66.461699 V 68.404417 H 72.645884 C 67.291889,74.987318 59.131496,79.203888 50.000037,79.203888 33.896824,79.203888 20.804755,66.103993 20.804755,50.00078 20.804755,45.950583 21.635274,42.083813 23.130273,38.576309 23.451326,37.828723 23.800792,37.104724 24.177139,36.396631 24.541872,35.712685 24.925818,35.041152 25.341205,34.38882 L 25.393284,34.920059 24.177139,36.396631 C 23.800792,37.104724 23.449566,37.828723 23.135473,38.576309 V 40.235161 L 24.343805,40.818494 V 43.130999 L 25.507871,45.11277 26.46099,45.258597 26.58079,44.581518 25.463604,42.857559 25.244845,41.18308 H 25.898497 L 26.171937,42.907039 27.789122,45.258597 27.367243,46.01901 28.395895,47.591928 30.94536,48.216928 V 47.808075 L 31.960986,47.953915 31.864639,48.677861 32.669318,48.823701 33.903691,49.162234 35.648489,51.157032 37.885461,51.323698 38.101607,53.144004 36.575568,54.211709 36.505262,55.834108 36.281302,56.831507 38.492233,59.597131 38.664113,60.545037 C 38.664113,60.545037 39.462552,60.761184 39.557339,60.761184 39.653979,60.761184 41.354218,62.045036 41.354204,62.045036 V 67.047645 L 41.960977,67.214312 41.546924,69.521603 42.56775,70.883575 42.382857,73.164827 43.724002,75.534611 45.458374,77.042423 47.195346,77.076277 47.362012,76.518984 46.091187,75.438265 46.161493,74.909612 46.390667,74.250759 46.434933,73.586693 45.570347,73.560653 45.138068,73.018987 45.8542,72.321081 45.95056,71.802841 45.148481,71.573681 45.195348,71.086695 46.338587,70.914828 48.075559,70.084096 48.658891,69.01639 50.47921,66.683059 50.062543,64.862754 50.619823,63.891394 52.294302,63.943474 53.424514,63.055462 53.7917,59.539838 55.036433,57.951293 55.260432,56.933067 54.11462,56.563281 53.362007,55.328895 50.794303,55.302855 48.755251,54.532029 48.658891,53.073697 47.973999,51.886191 46.135453,51.860151 45.067748,50.185673 44.119829,49.719526 44.070349,50.229953 42.351603,50.331513 41.718791,49.456513 39.921925,49.094527 38.440153,50.797659 36.114635,50.409633 35.942755,47.782035 34.242237,47.490368 34.92713,46.203916 34.72661,45.46433 32.497452,46.959115 31.0938,46.784636 30.5938,45.685677 30.895893,44.555478 31.674532,43.123185 33.455784,42.222146 H 36.901088 L 36.888075,43.271625 38.127647,43.852345 38.0313,42.05808 38.919313,41.15704 40.721405,39.974748 40.849005,39.144015 42.645883,37.27163 44.549522,36.216938 44.382855,36.076311 45.674521,34.862779 46.14848,34.985166 46.364627,35.258605 46.856813,34.714339 46.979213,34.657046 46.440147,34.581526 45.893267,34.401833 V 33.878393 L 46.184933,33.64142 H 46.817746 L 47.112013,33.76902 47.367226,34.282046 47.674519,34.229966 V 34.185686 L 47.763065,34.21694 48.658891,34.084126 48.786491,33.64142 49.299517,33.76902 V 34.248193 L 48.822958,34.576313 48.893264,35.091939 50.513063,35.591938 50.518263,35.610165 50.888063,35.578912 50.914103,34.875792 49.630251,34.29506 49.559931,33.956527 50.627636,33.58934 50.671916,32.568501 49.554731,31.891422 49.484411,30.172676 47.955772,30.920062 H 47.398479 L 47.539106,29.61017 45.463587,29.117984 44.599001,29.769023 V 31.756008 L 43.054736,32.242981 42.434937,33.53986 41.757857,33.649233 V 31.992982 L 40.304738,31.787262 39.578166,31.315902 39.283899,30.242983 41.885457,28.719544 43.164109,28.331531 43.291709,29.188304 44.000042,29.157051 44.049522,28.719544 44.794308,28.620598 44.804735,28.466945 44.487015,28.331531 44.414108,27.878398 45.330774,27.802878 45.880254,27.224759 45.911494,27.188306 H 45.916707 L 46.083374,27.013826 48.000039,26.771639 48.848998,27.492985 46.62764,28.677878 49.450557,29.347157 49.820344,28.401838 H 51.054729 L 51.494822,27.576319 50.619823,27.352359 V 26.313306 L 47.877639,25.099761 45.987014,25.315907 44.921921,25.8784 44.992228,27.232572 43.872442,27.065906 43.700562,26.313306 44.773481,25.341947 42.830776,25.245587 42.276083,25.417467 42.031297,26.068507 42.760456,26.190906 42.61463,26.920066 41.375044,26.995586 41.182338,27.474759 39.388073,27.526839 C 39.388073,27.526839 39.342339,26.511213 39.265673,26.511213 39.195513,26.511213 40.671925,26.485173 40.671925,26.485173 L 41.744831,25.438307 41.156298,25.149241 40.382858,25.904453 39.091193,25.82632 38.320353,24.761214 H 36.671928 L 34.945356,26.045067 H 36.523488 L 36.671928,26.511213 36.263075,26.886213 38.00526,26.938306 38.273487,27.571119 36.307342,27.492985 36.210982,27.011212 34.979223,26.740386 34.317757,26.3758 32.849011,26.388826 C 37.666314,22.879923 43.590909,20.805498 50.000037,20.805498 Z M 33.533904,27.602359 H 34.580783 V 28.058092 L 34.281304,28.453931 H 32.843798 V 27.873198 27.821118 H 33.481824 Z M 34.557343,29.183091 C 34.607983,29.183091 34.557343,29.821117 34.557343,29.821117 L 33.117238,29.90965 32.843798,29.58413 33.864637,29.289864 C 33.864637,29.289864 34.500197,29.183091 34.557343,29.183091 Z M 71.229219,29.97997 C 71.726285,30.510116 72.210951,31.060529 72.671884,31.623195 L 72.096418,32.477354 70.09642,32.461728 69.96882,32.045062 71.221352,31.404449 Z M 64.658824,30.542463 63.700559,30.735169 63.432292,31.149236 V 31.610169 L 63.890692,31.922675 64.552158,32.336728 64.614558,32.810688 63.903625,32.956527 63.809892,33.961727 H 64.658824 L 65.791757,33.852353 66.372423,33.162247 65.75269,32.920061 65.414024,32.532048 64.903624,31.706528 Z M 63.226559,31.852355 62.442693,32.032048 61.85936,32.969541 V 33.571114 H 62.536426 L 63.739625,32.729968 63.789092,32.094541 Z M 36.299529,32.274235 36.989635,32.440901 36.755261,33.36538 36.007862,33.604967 35.539116,32.638821 Z M 38.197967,34.479966 H 39.341193 V 34.823712 H 39.599006 V 35.425272 H 37.846407 L 37.195354,35.245579 37.362021,34.823712 Z M 39.903685,34.735166 40.505258,35.276832 39.903685,35.425272 Z M 47.911492,35.399232 47.578159,35.404445 47.406292,35.847152 H 46.570346 V 36.279445 H 46.768266 C 46.768266,36.279445 46.778693,36.369111 46.791706,36.490378 L 47.309932,36.446111 47.630252,36.248191 47.713585,35.847152 48.127638,35.813298 48.286492,35.474752 Z M 41.226604,35.571112 41.674524,35.847152 41.317751,36.141418 40.958378,35.847152 Z M 37.864634,35.662245 H 38.83078 L 37.596407,37.391417 37.085981,37.117977 37.195354,36.388818 Z M 39.414113,35.662245 H 40.395885 V 36.242978 L 39.960979,36.524231 39.414113,36.625791 Z M 45.692747,35.847152 45.419307,36.185685 45.388067,36.612778 45.994827,36.560684 46.057334,36.133605 Z M 40.632858,36.300271 H 40.710978 L 41.81515,36.625791 V 37.193497 H 40.888071 L 40.632858,36.823711 Z M 76.007881,36.748191 C 76.249881,37.221177 76.475214,37.701443 76.692681,38.180483 L 76.390681,38.17267 75.822948,38.25079 V 36.959124 Z M 40.179739,36.823711 V 37.391417 L 39.763072,37.808083 H 38.83078 L 38.976606,37.17527 39.419313,37.136204 39.507859,36.920057 Z M 78.416679,43.292452 C 78.455746,43.451358 78.494413,43.617932 78.533879,43.789852 L 78.322946,43.394012 Z" style="fill:url(#linearGradient5945-2);fill-opacity:1;fill-rule:nonzero;stroke:none;stroke-width:0.0464632" />
</svg>
