<svg version="1.1" viewBox="0 0 100 78.12" xmlns="http://www.w3.org/2000/svg" xmlns:xlink="http://www.w3.org/1999/xlink">
 <defs>
  <linearGradient id="linearGradientSlvr" x1="-1869" x2="-1869" y1="794.4" y2="828" gradientTransform="matrix(1.301,0,0,1.301,1365,-35.3)" gradientUnits="userSpaceOnUse">
   <stop style="stop-color:#696969" offset="0"/>
   <stop style="stop-color:#c7c7c9" offset=".17"/>
   <stop style="stop-color:#f9f9ff" offset=".36"/>
   <stop style="stop-color:#ccccce" offset=".73"/>
   <stop style="stop-color:#696969" offset="1"/>
  </linearGradient>
  <linearGradient id="linearGradient41064" x1="63.99" x2="125.7" y1="379.8" y2="379.8" gradientUnits="userSpaceOnUse" xlink:href="#linearGradientSlvr"/>
  <linearGradient id="linearGradient41072" x1="72" x2="118" y1="362" y2="362" gradientUnits="userSpaceOnUse" xlink:href="#linearGradientSlvr"/>
 </defs>
 <g id="seats-purp" transform="matrix(.7812 0 0 -.7812 0 345.3)">
  <path d="m108 424h-26c-1.1 0-2 0.9-2 2v12c0 1.1 0.9 2 2 2h26c1.1 0 2-0.9 2-2v-12c0-1.1-0.9-2-2-2" style="fill:#e8e7e6"/>
  <path d="m46 424h-26c-1.1 0-2 0.9-2 2v12c0 1.1 0.9 2 2 2h26c1.1 0 2-0.9 2-2v-12c0-1.1-0.9-2-2-2" style="fill:#e8e7e6"/>
  <path d="m54 356h-42c-1.1 0-2 0.9-2 2v4c0 3.314 2.686 6 6 6h34c3.314 0 6-2.686 6-6v-4c0-1.1-0.8996-2-2-2" style="fill:#e8e7e6"/>
  <path d="m116 356h-42c-1.1 0-2 0.9-2 2v4c0 3.314 2.686 6 6 6h34c3.314 0 6-2.686 6-6v-4c0-1.1-0.9-2-2-2" style="fill:url(#linearGradient41072)"/>
  <path d="m54 356v2h-42v4c0.0012 1.111 0.4445 2.098 1.172 2.828 0.7301 0.727 1.718 1.171 2.828 1.172h34c1.111-1e-3 2.098-0.445 2.828-1.172 0.727-0.73 1.17-1.717 1.172-2.828v-8c2.213 7e-3 3.993 1.786 4 4v4c-0.0012 4.419-3.581 7.998-8 8h-34c-4.419-2e-3 -7.999-3.581-8-8v-4c0.00781-2.214 1.787-3.993 4-4h42v2" style="fill:#100f0d"/>
  <path d="m12 376v2h-8v4h8v-8c2.21 1e-3 3.999 1.79 4 4v4c-0.0012 2.21-1.79 3.999-4 4h-8c-2.21-1e-3 -3.999-1.79-4-4v-4c0.001172-2.21 1.79-3.999 4-4h8v2" style="fill:#100f0d"/>
  <path d="m62 376v2h-8v4h8v-8c2.21 1e-3 3.999 1.79 4 4v4c-0.0012 2.21-1.79 3.999-4 4h-8c-2.21-1e-3 -3.999-1.79-4-4v-4c0.0012-2.21 1.79-3.999 4-4h8v2" style="fill:#100f0d"/>
  <path d="m28 388h10c1.105 0 2 0.895 2 2 0 1.104-0.8953 2-2 2h-10c-1.105 0-2-0.896-2-2 0-1.105 0.8953-2 2-2" style="fill:#100f0d"/>
  <path d="m5.024 376.3c-0.01211-0.08-0.08008-0.539-0.08047-1.242 7.8e-4 -0.649 0.05781-1.508 0.2922-2.469 0.1766-0.72 0.4547-1.5 0.8961-2.273 0.6562-1.16 1.709-2.298 3.2-3.087 1.49-0.795 3.369-1.239 5.668-1.238 1.105 0 2 0.895 2 2 0 1.104-0.8953 2-2 2-1.596 0-2.715 0.27-3.504 0.629-0.5934 0.27-1.012 0.589-1.343 0.937-0.4906 0.52-0.7922 1.134-0.9762 1.772-0.1832 0.632-0.2344 1.273-0.2336 1.73 0 0.218 0.01094 0.394 0.0207 0.505l0.01211 0.116v2e-3c0.1703 1.091-0.5762 2.114-1.668 2.285-1.091 0.17-2.114-0.576-2.285-1.667" style="fill:#100f0d"/>
  <path d="m56.76 375.9 0.0488 2e-3h-0.0492l4e-4 -2e-3 0.0488 2e-3h-0.0492c4e-4 -0.083-0.0082-0.545-0.1325-1.154-0.1859-0.924-0.6281-2.125-1.567-3.043-0.4739-0.464-1.076-0.881-1.92-1.202-0.8433-0.32-1.939-0.54-3.381-0.54-1.105 0-2-0.896-2-2 0-1.105 0.8953-2 2-2 2.464-2e-3 4.482 0.512 6.068 1.382 1.189 0.649 2.12 1.49 2.811 2.375 1.041 1.332 1.558 2.739 1.828 3.865 0.2684 1.13 0.2926 1.995 0.2934 2.317l-2e-3 0.123c-0.0344 1.104-0.9574 1.971-2.061 1.937-1.104-0.035-1.971-0.958-1.936-2.062" style="fill:#100f0d"/>
  <path d="m18 356v-12c0-1.105 0.8953-2 2-2s2 0.895 2 2v12c0 1.104-0.8953 2-2 2s-2-0.896-2-2" style="fill:#100f0d"/>
  <path d="m24 346h-10c-1.105 0-2-0.896-2-2 0-1.105 0.8953-2 2-2h10c1.105 0 2 0.895 2 2 0 1.104-0.8953 2-2 2" style="fill:#100f0d"/>
  <path d="m44 356v-12c0-1.105 0.8953-2 2-2s2 0.895 2 2v12c0 1.104-0.8953 2-2 2s-2-0.896-2-2" style="fill:#100f0d"/>
  <path d="m42 342h10c1.105 0 2 0.895 2 2 0 1.104-0.8953 2-2 2h-10c-1.105 0-2-0.896-2-2 0-1.105 0.8953-2 2-2" style="fill:#100f0d"/>
  <path d="m58 384v22c-0.0074 4.413-3.587 7.992-8 8h-34c-4.413-8e-3 -7.993-3.587-8-8v-22c0-1.105 0.8953-2 2-2 1.105 0 2 0.895 2 2v22c4e-4 1.098 0.4453 2.089 1.177 2.823 0.7343 0.731 1.725 1.176 2.823 1.177h34c1.098-1e-3 2.089-0.446 2.823-1.177 0.7313-0.734 1.176-1.725 1.177-2.823v-22c0-1.105 0.8953-2 2-2s2 0.895 2 2" style="fill:#100f0d"/>
  <path d="m76.02 383.4-0.2604-6.901-7.161-0.1302 2.213-6.901 45.57-0.5208 4.037 6.25-5.99 0.651-0.7812 8.203h3.906l-0.6509 26.43-43.75-0.3906-1.042-25.78z" style="fill:#290a43"/>
  <path transform="matrix(1.333 0 0 -1.333 -1263 1686)" d="m1006 954.1c-3.31 6e-3 -5.994 2.69-6 6v15h-3c-1.657 7.5e-4 -2.999 1.342-3 3v3c9e-4 1.658 1.343 2.999 3 3h0.748c0.0322 0.3231 0.086 0.6744 0.1777 1.051 0.1324 0.54 0.3408 1.125 0.6719 1.705 0.4922 0.87 1.282 1.723 2.4 2.314 0.107 0.0571 0.2293 0.1001 0.3418 0.1524-0.8373 1.031-1.34 2.345-1.34 3.777v3c6e-3 1.66 1.34 2.995 3 3h31.5c1.66-5e-3 2.994-1.34 3-3v-3c-3e-4 -1.569-0.6083-2.992-1.594-4.061 0.8729-0.4837 1.561-1.104 2.072-1.758 0.7808-0.999 1.169-2.054 1.371-2.898 0.026-0.1096 0.028-0.1807 0.049-0.2832h1.102c1.658-7.5e-4 2.999-1.342 3-3v-3c-7e-4 -1.658-1.342-2.999-3-3h-3v-15c-0.01-3.31-2.69-5.994-6-6zm0 3h25.5c0.8243 7.5e-4 1.567 0.3346 2.117 0.8828 0.549 0.5505 0.8821 1.294 0.8828 2.117v15c-1.658 7.5e-4 -2.999 1.342-3 3v3c8e-4 1.658 1.342 2.999 3 3h1.812c-0.1866 0.5682-0.5004 1.188-1.018 1.693-0.3555 0.348-0.8084 0.6596-1.441 0.9004-0.633 0.24-1.454 0.4062-2.535 0.4062h-25.32c-0.1657 8e-5 -0.3299 0.0122-0.4922 0.0254-0.084-0.0148-0.169-0.0254-0.2578-0.0254-1.197 0-2.037-0.2034-2.629-0.4727-0.445-0.2025-0.7599-0.4421-1.008-0.7031-0.3683-0.39-0.5926-0.8496-0.7305-1.328-0.049-0.1686-0.073-0.3323-0.1-0.4961h2.217c1.657-7.5e-4 2.999-1.342 3-3v-3c-9e-4 -1.658-1.343-2.999-3-3v-15c3e-4 -0.8235 0.3324-1.567 0.8809-2.117 0.5507-0.5482 1.295-0.8821 2.119-0.8828zm-9 21h6v3h-6zm37.5 0h6v3h-6zm-28.5 12h25.5c0.8333 7.5e-4 1.574 0.3337 2.121 0.8789 0.5453 0.5475 0.8782 1.288 0.8789 2.121v3h-31.5v-3c9e-4 -0.8332 0.3317-1.574 0.877-2.121 0.5475-0.5452 1.29-0.8782 2.123-0.8789z" style="fill:#100f0d"/>
  <path d="m90 388h10c1.105 0 2 0.895 2 2 0 1.104-0.895 2-2 2h-10c-1.105 0-2-0.896-2-2 0-1.105 0.8953-2 2-2" style="fill:#100f0d"/>
  <path d="m80 356v-12c0-1.105 0.8953-2 2-2s2 0.895 2 2v12c0 1.104-0.8953 2-2 2s-2-0.896-2-2" style="fill:#100f0d"/>
  <path d="m86 346h-10c-1.105 0-2-0.896-2-2 0-1.105 0.8953-2 2-2h10c1.105 0 2 0.895 2 2 0 1.104-0.8953 2-2 2" style="fill:#100f0d"/>
  <path d="m106 356v-12c0-1.105 0.895-2 2-2s2 0.895 2 2v12c0 1.104-0.895 2-2 2s-2-0.896-2-2" style="fill:#100f0d"/>
  <path d="m104 342h10c1.105 0 2 0.895 2 2 0 1.104-0.895 2-2 2h-10c-1.105 0-2-0.896-2-2 0-1.105 0.895-2 2-2" style="fill:#100f0d"/>
  <path d="m46 424v2h-26v12h26v-16c2.213 7e-3 3.993 1.786 4 4v12c-0.0074 2.213-1.787 3.992-4 4h-26c-2.213-8e-3 -3.993-1.787-4-4v-12c0.0074-2.214 1.787-3.993 4-4h26v2" style="fill:#100f0d"/>
  <path d="m34.55 436.4c-0.3597 0-0.7281-0.0375-1.104-0.1094-0.3728-0.0687-0.7502-0.1703-1.133-0.3047v-1.536c0.3597 0.2375 0.6965 0.4151 1.01 0.5338 0.3172 0.1219 0.6075 0.1823 0.8724 0.1823 0.3434 0 0.6195-0.0995 0.8255-0.2995 0.2093-0.2 0.3125-0.4635 0.3125-0.7917 0-0.2125-0.05161-0.4177-0.1563-0.6146-0.1014-0.1969-0.2607-0.3979-0.4766-0.6042l-2.404-2.255v-1.326h4.789v1.326h-2.901l1.409 1.312c0.5951 0.5531 0.9835 0.9948 1.167 1.323 0.1864 0.3312 0.2813 0.6865 0.2813 1.068 0 0.6594-0.2207 1.173-0.6589 1.542-0.4349 0.3687-1.045 0.5547-1.833 0.5547zm5.159-0.1276-1.531-0.3386v-1.227l1.539 0.3359v-4.523h-1.5v-1.245h4.609v1.245h-1.5v5.753zm-12.06-0.2917-2.339-6.706h1.635l0.4037 1.221h2.547l0.3958-1.221h1.641l-2.341 6.706zm0.974-1.573 0.8594-2.667h-1.729z" style="fill:#100f0d"/>
  <path d="m108 424v2h-26v12h26v-16c2.213 7e-3 3.992 1.786 4 4v12c-8e-3 2.213-1.787 3.992-4 4h-26c-2.213-8e-3 -3.993-1.787-4-4v-12c0.0074-2.214 1.787-3.993 4-4h26v2" style="fill:#100f0d"/>
  <path d="m95.55 436.4c-0.3597 0-0.7281-0.0375-1.104-0.1094-0.3728-0.0687-0.7503-0.1703-1.133-0.3047v-1.536c0.3597 0.2375 0.6965 0.4151 1.01 0.5338 0.3172 0.1219 0.6075 0.1823 0.8724 0.1823 0.3433 0 0.6195-0.0995 0.8255-0.2995 0.2093-0.2 0.3125-0.4635 0.3125-0.7917 0-0.2125-0.0516-0.4177-0.1563-0.6146-0.1013-0.1969-0.2607-0.3979-0.4765-0.6042l-2.404-2.255v-1.326h4.789v1.326h-2.901l1.409 1.312c0.5952 0.5531 0.9836 0.9948 1.167 1.323 0.1864 0.3312 0.2813 0.6865 0.2813 1.068 0 0.6594-0.2207 1.173-0.6589 1.542-0.4349 0.3687-1.045 0.5547-1.833 0.5547zm5.576 0c-0.3597 0-0.7281-0.0375-1.104-0.1094-0.3728-0.0687-0.7501-0.1703-1.133-0.3047v-1.536c0.3597 0.2375 0.6965 0.4151 1.01 0.5338 0.3172 0.1219 0.6076 0.1823 0.8724 0.1823 0.3433 0 0.6169-0.0995 0.8229-0.2995 0.2093-0.2 0.3151-0.4635 0.3151-0.7917 1.4e-4 -0.2125-0.0516-0.4177-0.1561-0.6146-0.1015-0.1969-0.2608-0.3979-0.4767-0.6042l-2.404-2.255v-1.326h4.787v1.326h-2.899l1.409 1.312c0.5951 0.5531 0.9835 0.9948 1.167 1.323 0.1864 0.3312 0.2785 0.6865 0.2785 1.068 0 0.6594-0.218 1.173-0.6561 1.542-0.4349 0.3687-1.045 0.5547-1.833 0.5547zm-12.48-0.4193-2.339-6.706h1.635l0.4036 1.221h2.547l0.3959-1.221h1.641l-2.341 6.706zm0.974-1.573 0.8593-2.667h-1.729z" style="fill:#100f0d"/>
  <path d="m115 383.1 0.2604-6.38h9.635l0.1301 6.641zm-40.1-6.901-10.16 0.2604 0.3906 6.771h10.16z" style="fill:url(#linearGradient41064);stroke-width:1.333px;stroke:#000000"/>
 </g>
</svg>
