<svg version="1.1" viewBox="0 0 72.75 100" xmlns="http://www.w3.org/2000/svg" xmlns:xlink="http://www.w3.org/1999/xlink">
 <defs>
  <linearGradient id="linearGradientSlvr" x1="-1869" x2="-1869" y1="794.4" y2="828" gradientTransform="matrix(1.301,0,0,1.301,1365,-35.3)" gradientUnits="userSpaceOnUse">
   <stop style="stop-color:#696969" offset="0"/>
   <stop style="stop-color:#c7c7c9" offset=".17"/>
   <stop style="stop-color:#f9f9ff" offset=".36"/>
   <stop style="stop-color:#ccccce" offset=".73"/>
   <stop style="stop-color:#696969" offset="1"/>
  </linearGradient>
  <linearGradient id="linearGradient6730" x1="871.7" x2="876.6" y1="864.9" y2="864.9" gradientUnits="userSpaceOnUse" xlink:href="#linearGradientSlvr"/>
  <linearGradient id="linearGradient6738" x1="871.7" x2="876.6" y1="831.7" y2="831.7" gradientUnits="userSpaceOnUse" xlink:href="#linearGradientSlvr"/>
  <linearGradient id="linearGradient6746" x1="871.7" x2="876.6" y1="806.5" y2="806.5" gradientUnits="userSpaceOnUse" xlink:href="#linearGradientSlvr"/>
  <linearGradient id="linearGradient6754" x1="871.7" x2="876.6" y1="789.4" y2="789.4" gradientUnits="userSpaceOnUse" xlink:href="#linearGradientSlvr"/>
  <linearGradient id="linearGradient37127" x1="776.8" x2="971.4" y1="780" y2="780" gradientUnits="userSpaceOnUse" xlink:href="#linearGradientSlvr"/>
  <linearGradient id="linearGradient37135" x1="785" x2="971.4" y1="774.3" y2="774.3" gradientUnits="userSpaceOnUse" xlink:href="#linearGradientSlvr"/>
 </defs>
 <g id="landing" transform="matrix(.3738 0 0 .3738 -290.4 -241.6)">
  <path d="m809.6 646.2h129c18 0 32.8 14.7 32.8 32.8v201.9c0 18-14.7 32.8-32.8 32.8h-129c-18 0-32.8-14.7-32.8-32.8v-202c0-18 14.8-32.7 32.8-32.7" style="clip-rule:evenodd;fill-rule:evenodd;fill:url(#linearGradient37127)"/>
  <path d="m809.6 646.2h129c18 0 32.8 14.7 32.8 32.8v201.9c0 8.2-3.1 15.8-8.1 21.6l-178.3-245.1c6-6.9 14.8-11.2 24.6-11.2" style="clip-rule:evenodd;fill-rule:evenodd;fill:url(#linearGradient37135)"/>
  <path d="m877.5 715.6c8.6 1.3 15.4 7.8 17.3 16.1l45 7.9c1.8 1.4 2 3 0 4.6h-10.9c0.2 0.7 0.3 1.5 0.3 2.2 0 5-4.1 9.1-9.1 9.1s-9.1-4.1-9.1-9.1c0-0.8 0.1-1.5 0.3-2.2h-17.5c-3.1 7.7-10.7 13.1-19.5 13.1s-16.4-5.4-19.5-13.1h-17.6c0.2 0.7 0.3 1.5 0.3 2.2 0 5-4.1 9.1-9.1 9.1s-9.1-4.1-9.1-9.1c0-0.8 0.1-1.5 0.3-2.2h-11.1c-2-1.7-1.8-3.2 0-4.6l45.4-8c1.9-8.3 8.7-14.7 17.3-16.1l1.6-14.5c0.1-0.7 0.6-1.3 1.3-1.3s1.2 0.6 1.3 1.3z" style="clip-rule:evenodd;fill-rule:evenodd;fill:#ffffff"/>
  <path d="m806.9 742.2c-0.1-0.9 0.4-1.7 1.4-2.6l45.4-8v3.8z" style="clip-rule:evenodd;fill-rule:evenodd;fill:#290a43"/>
  <path d="m871 715.6 1.6-14.5c0.1-0.7 0.6-1.3 1.3-1.3s1.2 0.6 1.3 1.3l2.1 14.5z" style="clip-rule:evenodd;fill-rule:evenodd;fill:#290a43"/>
  <path d="m885 732-2.5-5.4h-16.9l-2.4 5.4z" style="clip-rule:evenodd;fill-rule:evenodd"/>
  <path d="m806.9 881.3 48.1-101.4h39.4l46.8 101.4z" style="clip-rule:evenodd;fill-rule:evenodd"/>
  <rect x="871.7" y="784.3" width="4.9" height="10.2" style="clip-rule:evenodd;fill-rule:evenodd;fill:url(#linearGradient6754)"/>
  <rect x="871.7" y="798" width="4.9" height="17" style="clip-rule:evenodd;fill-rule:evenodd;fill:url(#linearGradient6746)"/>
  <rect x="871.7" y="818.5" width="4.9" height="26.3" style="clip-rule:evenodd;fill-rule:evenodd;fill:url(#linearGradient6738)"/>
  <path d="m871.7 848.4h4.9v32.9h-4.9z" style="clip-rule:evenodd;fill-rule:evenodd;fill:url(#linearGradient6730)"/>
  <path d="m874.1 737.2c3.5 0 6.3 2.8 6.3 6.3s-2.8 6.3-6.3 6.3-6.3-2.8-6.3-6.3 2.8-6.3 6.3-6.3" style="clip-rule:evenodd;fill-rule:evenodd;fill:#290a43"/>
  <path d="m828.3 740.2c3.5 0 6.3 2.8 6.3 6.3s-2.8 6.3-6.3 6.3-6.3-2.8-6.3-6.3 2.9-6.3 6.3-6.3" style="clip-rule:evenodd;fill-rule:evenodd;fill:#414042"/>
  <path d="m919.8 740.2c3.5 0 6.3 2.8 6.3 6.3s-2.8 6.3-6.3 6.3-6.3-2.8-6.3-6.3 2.9-6.3 6.3-6.3" style="clip-rule:evenodd;fill-rule:evenodd;fill:#414042"/>
  <path d="m941.2 742.2c0.1-0.9-0.4-1.7-1.4-2.6l-45.4-8v3.8z" style="clip-rule:evenodd;fill-rule:evenodd;fill:#290a43"/>
 </g>
</svg>
