<svg version="1.1" viewBox="0 0 100 101.7" xmlns="http://www.w3.org/2000/svg" xmlns:xlink="http://www.w3.org/1999/xlink">
 <defs>
  <radialGradient id="radialGradient37107" cx="-327.3" cy="-274.8" r="11.08" gradientTransform="matrix(1.301,0,0,1.301,1365,-35.3)" gradientUnits="userSpaceOnUse">
   <stop style="stop-color:#d0d0d0" offset="0"/>
   <stop style="stop-color:#c7c7c9" offset=".17"/>
   <stop style="stop-color:#f9f9ff" offset=".36"/>
   <stop style="stop-color:#ccccce" offset=".73"/>
   <stop style="stop-color:#696969" offset="1"/>
  </radialGradient>
 </defs>
 <g transform="matrix(4.053 0 0 4.053 1377 1166)">
  <circle cx="-327.3" cy="-274.8" r="11.08" style="fill:url(#radialGradient37107)"/>
  <path d="m-324.4-277-0.8404-0.8317 0.9891-1.226 4.759-2.722z" style="fill:#ffffff"/>
  <path d="m-335.7-265.6 7.127-7.202 4.158-4.201 4.908-4.779 3.16 4.327 0.837 1.533-1.802-1.71-2.319-3.175-1.025 0.8471-4.378 4.535-3.225 3.259-6.825 6.896z" style="fill:#ffffff"/>
  <path d="m-335.9-268 7.597-7.676 4.455-4.858 2.225-2.337-3.889-3.645 0.9669 0.0764 3.937 3.578-3.053 3.121-1.639 1.996-4.751 4.801-6.533 6.601-0.3446-0.619z" style="fill:#ffffff"/>
  <path d="m-326.5-280.6c-0.0302 0.6103 2.118 2.228 2.118 2.228l0.1385-0.6317 0.462-1.564-1.711-0.6456s-0.9676-0.2129-1.008 0.6132z" style="fill:#ffffff"/>
  <path d="m-324.4-278.4s2.085 2.99 2.602 2.322c0.2709-0.35 0.191-2.535-0.1308-2.884-0.5729-0.621-2.472 0.562-2.472 0.562z" style="fill:#ffffff"/>
  <path d="m-335.7-265.6-0.8401-0.8317 1.782-1.8 0.8405 0.8321z" style="fill:#663399"/>
  <path d="m-338-263.2-0.8404-0.8317 1.782-1.8 0.8401 0.8317z" style="fill:#663399"/>
  <path d="m-333.3-268-0.8404-0.8317 1.782-1.8 0.8401 0.8317z" style="fill:#663399"/>
  <path d="m-331-270.4-0.8401-0.8314 1.782-1.8 0.8401 0.8314z" style="fill:#663399"/>
  <path d="m-328.6-272.8-0.8401-0.8314 1.782-1.8 0.8405 0.8314z" style="fill:#663399"/>
  <path d="m-326.2-275.2-0.8404-0.8318 1.782-1.8 0.8405 0.8318z" style="fill:#663399"/>
  <path d="m-317.8-270.3c-0.9353 0.3064-1.859 0.5546-2.766 0.7554 0.3179-1.558 0.4727-3.02 0.5131-4.367h3.154c-0.0868 1.278-0.3998 2.496-0.9004 3.611m-3.812 4.507c0.2646-0.7467 0.4884-1.477 0.6784-2.191 0.6846-0.1356 1.38-0.297 2.084-0.4873-0.7505 1.051-1.687 1.959-2.762 2.678m-1.957 1.032c-1.005 0.4019-2.085 0.655-3.213 0.732v-3.345c1.332-0.0202 2.765-0.1213 4.264-0.3395-0.2792 0.9541-0.6261 1.94-1.051 2.953m-4.666 0.732c-1.102-0.0753-2.159-0.3179-3.145-0.7052-0.4364-1.038-0.791-2.047-1.075-3.023 0.2803 0.0425 0.5682 0.0826 0.8652 0.1199 0.9837 0.1234 2.114 0.2193 3.355 0.2531zm12.75-11.83c-0.3584-0.0683-0.7362-0.3796-1.349-1.092l-0.0331-0.0418-0.4197-0.5752c0.2036 0.7087 0.3354 1.447 0.3869 2.208h-3.153c-0.0453-1.555-0.2346-2.924-0.4741-4.068-0.0335-0.1586-0.068-0.3137-0.1035-0.4668 0.6655 0.1454 1.34 0.3169 2.022 0.518l-0.9973-1.365c-0.6571 0.5337-1.533 1.233-2.302 1.816 0.2022 1.017 0.3601 2.214 0.4023 3.566h-3.503l-1.437 1.452h4.94c-0.0456 1.425-0.2276 2.989-0.6114 4.667-1.647 0.2733-3.218 0.395-4.664 0.4176v-4.745l-1.452 1.468v3.268c-1.108-0.031-2.122-0.115-3.014-0.2228l-2.385 2.409c0.0955 0.2998 0.1959 0.6006 0.3043 0.906-0.2412-0.1583-0.4751-0.3273-0.7024-0.5041l-1.028 1.039c2.07 1.661 4.696 2.657 7.551 2.657 6.664 0 12.09-5.421 12.09-12.09 0-0.4131-0.0219-0.8216-0.0628-1.224" style="fill:#663399"/>
  <path d="m-334.9-273.9c0.0401 1.332 0.1917 2.778 0.503 4.317-1.418-0.3134-2.416-0.6358-2.849-0.7868-0.4793-1.094-0.7802-2.283-0.8645-3.53zm-2.263-5.166c0.4765-0.1628 1.462-0.4727 2.828-0.7721-0.0313 0.1373-0.062 0.2757-0.0913 0.4173-0.2398 1.144-0.4288 2.514-0.4741 4.068h-3.21c0.0892-1.317 0.4194-2.57 0.9471-3.713m4.092-4.615c-0.2719 0.6132-0.5689 1.374-0.8446 2.272-0.8342 0.1624-1.559 0.336-2.157 0.4971 0.8119-1.105 1.832-2.047 3.002-2.769m2.127-1.006c0.8607-0.2949 1.772-0.4824 2.715-0.5466v3.199c-1.241 0.0335-2.37 0.1307-3.354 0.2541-0.243 0.0303-0.48 0.0627-0.7122 0.0965 0.663-1.897 1.364-2.973 1.374-2.987zm4.167-0.5466c0.9576 0.0652 1.881 0.2573 2.753 0.5598l-3e-3 2e-3c0.0101 0.0146 0.7007 1.074 1.359 2.944-1.443-0.2025-2.823-0.2963-4.108-0.3158zm-9.049 17.22c-0.1335-0.1673-0.2618-0.3388-0.3852-0.5142 0.2189 0.0596 0.4563 0.1224 0.7111 0.1848l2.369-2.393c-0.1848-1.114-0.2841-2.171-0.3155-3.159h3.442l1.437-1.453h-4.88c0.0439-1.412 0.2137-2.657 0.4284-3.702 0.0781-0.3793 0.1635-0.7408 0.2541-1.086 0.4458-0.0749 0.9158-0.1443 1.409-0.2057 0.9192-0.114 1.972-0.2039 3.127-0.2364v4.888l1.452-1.468v-3.43c0.0938 1e-3 0.1893 5e-3 0.2841 7e-3 8e-3 -0.0638 0.0251-0.1283 0.0537-0.1945 0.1185-0.2775 0.3904-0.4493 0.7094-0.4493 0.1091 0 0.2004 0.0195 0.2454 0.0307l0.0708 0.0226 1.64 0.6229c0.7453-0.7993 1.668-1.724 2.242-2.293-6e-3 -0.0146-0.0115-0.03-0.017-0.0446l-3.396-3.086-0.0188-0.0195c-0.182-0.1942-0.3409-0.3726-0.4741-0.5386-0.6714-0.1164-1.362-0.1774-2.066-0.1774-6.664 0-12.09 5.421-12.09 12.09 0 2.899 1.026 5.562 2.734 7.647z" style="fill:#663399"/>
  <path d="m-315.3-276.9-2.474-6.361 1.764-1.585c0.2287-0.205 1.177-1.683 1.028-1.972-0.2573-0.1945-1.872 0.5713-2.102 0.7767l-1.774 1.594-6.028-3.12s-1.101-0.4507 0.3653 1.112l3.937 3.578c-0.6529 0.6369-2.129 2.101-3.053 3.121l-2.067-0.785s-0.4319-0.1116 0.0823 0.4274l1.335 1.128c-0.1168 0.1586-0.1739 0.2663-0.1457 0.2987l0.1377 0.1527-0.1272 0.114c-0.0181 0.0171-0.0202 0.046-3e-3 0.0662 0.0167 0.0171 0.0464 0.0196 0.0655 3e-3l0.1269-0.1144 0.121 0.1325c0.0286 0.0335 0.145-0.0132 0.3176-0.114l1.003 1.485c0.4818 0.5689 0.4162 0.1272 0.4162 0.1272l-0.5717-2.184c1.116-0.8105 2.72-2.11 3.419-2.688l3.16 4.327c1.396 1.625 1.066 0.4811 1.066 0.4811" style="fill:#663399"/>
 </g>
</svg>
