<svg version="1.1" viewBox="0 0 100 99.13" xmlns="http://www.w3.org/2000/svg" xmlns:xlink="http://www.w3.org/1999/xlink">
 <defs>
  <linearGradient id="linearGradient6842" x1="-1638" x2="-1591" y1="945.8" y2="945.8" gradientTransform="matrix(1.301,0,0,1.301,1365,-35.3)" gradientUnits="userSpaceOnUse">
   <stop style="stop-color:#696969" offset="0"/>
   <stop style="stop-color:#c7c7c9" offset=".17"/>
   <stop style="stop-color:#f9f9ff" offset=".36"/>
   <stop style="stop-color:#ccccce" offset=".73"/>
   <stop style="stop-color:#696969" offset="1"/>
  </linearGradient>
 </defs>
 <g transform="matrix(1.322 0 0 1.322 2184 -1201)">
  <path d="m-1591 982h-5.263v-61.84h-36.84v61.84h-5.263v-68.42c0-2.171 1.776-3.947 3.947-3.947h39.47c2.171 0 3.947 1.776 3.947 3.947v68.42" style="fill:url(#linearGradient6842)"/>
  <path transform="translate(-2916 226)" d="m1282 682.3c-2.903 5e-3 -5.258 2.36-5.264 5.264v67.11h-11.51c-0.727 0-1.316 0.5881-1.316 1.314 0 0.727 0.5894 1.316 1.316 1.316h73.03c0.7271 0 1.316-0.5894 1.316-1.316 0-0.7263-0.5895-1.314-1.316-1.314h-11.51v-67.11c-0.01-2.903-2.358-5.258-5.262-5.264zm0 2.631h39.47c0.723 0 1.374 0.2945 1.857 0.7754 0.4816 0.4829 0.7727 1.135 0.7734 1.857v67.11h-2.631v-60.53c0-0.346-0.1414-0.6849-0.3868-0.9297-0.2447-0.2448-0.5829-0.3848-0.9296-0.3848h-36.84c-0.3467 0-0.6849 0.14-0.9297 0.3848-0.2454 0.2447-0.3868 0.5836-0.3868 0.9297v60.53h-2.631v-67.11c0-0.7224 0.2919-1.375 0.7734-1.857 0.4829-0.4809 1.134-0.7748 1.857-0.7754zm8.883 2.633c-0.727 0-1.316 0.5881-1.316 1.314 0 0.727 0.5894 1.316 1.316 1.316h2.631c0.7269 0 1.316-0.5894 1.316-1.316 0-0.7263-0.5895-1.314-1.316-1.314zm9.209 0c-0.727 0-1.314 0.5881-1.314 1.314 0 0.727 0.5874 1.316 1.314 1.316h2.633c0.727 0 1.314-0.5894 1.314-1.316 0-0.7263-0.5874-1.314-1.314-1.314zm9.211 0c-0.727 0-1.316 0.5881-1.316 1.314 0 0.727 0.5894 1.316 1.316 1.316h2.631c0.727 0 1.316-0.5894 1.316-1.316 0-0.7263-0.5894-1.314-1.316-1.314zm-24.67 7.895h34.21v59.21h-10.2c0.2122-0.5066 0.3326-1.061 0.334-1.645v-14.3c0.3157 0.0899 0.6417 0.1522 0.9863 0.1523 0.087 0 0.1735-8e-3 0.2578-0.0254 1.876-0.135 3.361-1.681 3.361-3.592v-12.83c5e-4 -0.525-0.1234-1.038-0.3359-1.498-0.375-0.8092-0.9936-1.454-1.736-1.99-1.12-0.802-2.556-1.387-4.217-1.799-1.661-0.4092-3.548-0.6322-5.555-0.6328-3.058 5e-3 -5.834 0.5119-7.965 1.43-1.065 0.4632-1.978 1.028-2.682 1.756-0.35 0.3651-0.6489 0.7752-0.8613 1.236-0.2126 0.4599-0.3346 0.973-0.334 1.498v12.83c0 1.999 1.62 3.617 3.619 3.617 0.3446-8e-5 0.6707-0.0624 0.9863-0.1523v14.3c0 0.5836 0.1198 1.138 0.3321 1.645h-10.2zm17.1 5.264c-3.997 0-7.236 3.239-7.236 7.236 0 3.997 3.239 7.236 7.236 7.236 3.997 0 7.238-3.239 7.238-7.236 0-3.997-3.241-7.235-7.238-7.236zm0 2.631c1.276 0 2.42 0.5147 3.258 1.35 0.8356 0.8382 1.347 1.98 1.348 3.256 0 1.276-0.512 2.418-1.348 3.256-0.8375 0.8356-1.982 1.349-3.258 1.35-1.276 0-2.418-0.514-3.256-1.35-0.8355-0.8375-1.347-1.98-1.348-3.256 0-1.276 0.5121-2.418 1.348-3.256 0.8376-0.8349 1.98-1.349 3.256-1.35zm-34.73 5.27c-0.5097-0.0549-1.026 0.1933-1.291 0.6699-0.3533 0.6348-0.1238 1.438 0.5117 1.791l5.92 3.289c0.6349 0.3526 1.436 0.1238 1.789-0.5117 0.3533-0.6349 0.1238-1.436-0.5117-1.789l-5.92-3.289c-0.1587-0.0883-0.3282-0.1419-0.4981-0.1602zm69.46 0c-0.1699 0.0183-0.3393 0.0718-0.4981 0.1602l-5.922 3.289c-0.6356 0.3526-0.8631 1.154-0.5098 1.789 0.3526 0.6355 1.154 0.8631 1.789 0.5098l5.92-3.287c0.6355-0.3533 0.865-1.156 0.5117-1.791-0.2645-0.4766-0.7813-0.7248-1.291-0.6699zm-71.24 9.861c-0.727 0-1.316 0.5901-1.316 1.316 0 0.727 0.5894 1.316 1.316 1.316h7.236c0.727 0 1.316-0.5894 1.316-1.316 0-0.7263-0.5894-1.316-1.316-1.316zm65.13 0c-0.7269 0-1.316 0.5901-1.316 1.316 0 0.727 0.5895 1.316 1.316 1.316h7.236c0.727 0 1.316-0.5894 1.316-1.316 0-0.7263-0.5895-1.316-1.316-1.316zm-28.62 0.6582c2.755-5e-3 5.244 0.4839 6.922 1.215 0.8395 0.3605 1.467 0.7831 1.828 1.164 0.1829 0.1895 0.2994 0.363 0.3672 0.5117 0.068 0.1493 0.093 0.2701 0.094 0.3984v12.83c0 0.5447-0.4415 0.9856-0.9863 0.9863-0.5447-4.9e-4 -0.9857-0.4416-0.9863-0.9863v-9.539c0-0.7263-0.5894-1.316-1.316-1.316s-1.316 0.5901-1.316 1.316v9.539c0 0.057 0.015 0.1097 0.018 0.166-0.01 0.054-0.018 0.1063-0.018 0.1621v17.44c0 0.4513-0.1824 0.8562-0.4843 1.16-0.304 0.3026-0.7088 0.4844-1.16 0.4844-0.4512 0-0.8561-0.1824-1.16-0.4844-0.302-0.3039-0.4844-0.7089-0.4844-1.16v-11.51c0-0.7263-0.5894-1.316-1.316-1.316-0.7269 0-1.314 0.5901-1.314 1.316v11.51c0 0.4513-0.1824 0.8562-0.4843 1.16-0.304 0.3026-0.7089 0.4844-1.16 0.4844s-0.8582-0.1818-1.162-0.4844c-0.302-0.3039-0.4824-0.7089-0.4824-1.16v-17.44c0-0.0558-0.011-0.1081-0.018-0.1621 0-0.0563 0.017-0.109 0.018-0.166v-9.539c0-0.7263-0.5894-1.316-1.316-1.316s-1.316 0.5901-1.316 1.316v9.539c0 0.5447-0.4416 0.9856-0.9863 0.9863-0.5448-4.9e-4 -0.9856-0.4416-0.9863-0.9863v-12.83c0-0.1283 0.024-0.2491 0.092-0.3984 0.1158-0.2579 0.3973-0.6045 0.8848-0.9531 0.7263-0.5263 1.884-1.033 3.309-1.381 1.426-0.352 3.115-0.5566 4.924-0.5566zm-29.09 5.93c-0.1699 0.0183-0.3393 0.0699-0.4981 0.1582l-5.92 3.289c-0.6355 0.3526-0.865 1.154-0.5117 1.789 0.3527 0.6355 1.154 0.8644 1.789 0.5117l5.92-3.289c0.6355-0.3533 0.865-1.156 0.5117-1.791-0.2644-0.4766-0.7813-0.7228-1.291-0.668zm58.18 0c-0.5097-0.0549-1.026 0.1913-1.291 0.668-0.3533 0.6349-0.1258 1.436 0.5098 1.789l5.922 3.291c0.6349 0.3526 1.436 0.1238 1.789-0.5117 0.3533-0.6349 0.1238-1.436-0.5117-1.789l-5.92-3.289c-0.1588-0.0883-0.3282-0.1399-0.4981-0.1582z" style="fill:#100f0d"/>
 </g>
</svg>
