<svg version="1.1" viewBox="0 0 100 100.7" xmlns="http://www.w3.org/2000/svg" xmlns:xlink="http://www.w3.org/1999/xlink">
 <defs>
  <linearGradient id="linearGradient6276" x1="-490.8" x2="-490.8" y1="-285.8" y2="-260.4" gradientTransform="matrix(1.301,0,0,1.301,1365,-35.3)" gradientUnits="userSpaceOnUse">
   <stop style="stop-color:#696969" offset="0"/>
   <stop style="stop-color:#c7c7c9" offset=".17"/>
   <stop style="stop-color:#f9f9ff" offset=".36"/>
   <stop style="stop-color:#ccccce" offset=".73"/>
   <stop style="stop-color:#696969" offset="1"/>
  </linearGradient>
 </defs>
 <g transform="matrix(3.911 0 0 3.911 1961 1119)">
  <path d="m-501.6-273.2a12.7 12.7 0 1 0 25.4 0 12.7 12.7 0 1 0-25.4 0" style="fill:url(#linearGradient6276)"/>
  <path d="m-479.9-282.2-17.96 17.96c4.96 4.96 13 4.96 17.96 0 4.96-4.959 4.96-13 0-17.96z" style="fill:#000000;opacity:.103;stroke-width:.3404;stroke:#000000"/>
  <path d="m-488.9-285.9v25.4c7.014 0 12.7-5.686 12.7-12.7s-5.686-12.7-12.7-12.7z" style="fill:#000000;opacity:.104;stroke-width:.3404;stroke:#000000"/>
  <path d="m-493.7-269.5h8.281c0.4905 0 0.9555-0.465 0.9555-0.9555v-4.459c0-0.4905-0.465-0.9555-0.9555-0.9555h-2.23v-0.637c0-0.4045-0.2326-0.637-0.637-0.637h-2.548c-0.4045 0-0.637 0.2326-0.637 0.637v0.637h-2.23c-0.4905 0-0.9555 0.465-0.9555 0.9555v4.459c0 0.4905 0.465 0.9555 0.9555 0.9555zm7.326-5.733h0.637v5.096h-0.637zm-1.274 0h0.637v5.096h-0.637zm-3.185-1.274h2.548v0.637h-2.548zm-1.274 1.274h0.637v5.096h-0.637zm-1.274 0h0.637v5.096h-0.637zm12.59-4.826-2.398 1.499v9.06c0 0.9351-0.7622 1.274-1.274 1.274h-10.19v-0.637h10.19c0.1479-3e-3 0.637-0.0554 0.637-0.637v-9.413l2.698-1.686zm-10.04 13.43c0 0.7026-0.5714 1.274-1.274 1.274-0.7026 0-1.274-0.5714-1.274-1.274 0-0.7026 0.5714-1.274 1.274-1.274 0.7026 0 1.274 0.5714 1.274 1.274zm5.096 0c0 0.7026-0.5714 1.274-1.274 1.274-0.7026 0-1.274-0.5714-1.274-1.274 0-0.7026 0.5714-1.274 1.274-1.274 0.7026 0 1.274 0.5714 1.274 1.274z" style="fill:#290a43;stroke-width:.3185"/>
 </g>
</svg>
