<svg version="1.1" viewBox="0 0 100 101.7" xmlns="http://www.w3.org/2000/svg" xmlns:xlink="http://www.w3.org/1999/xlink">
 <defs>
  <radialGradient id="radialGradient37146" cx="-327.3" cy="-274.8" r="11.08" gradientTransform="matrix(1.301,0,0,1.301,1365,-35.3)" gradientUnits="userSpaceOnUse">
   <stop style="stop-color:#696969" offset="0"/>
   <stop style="stop-color:#c7c7c9" offset=".17"/>
   <stop style="stop-color:#f9f9ff" offset=".36"/>
   <stop style="stop-color:#ccccce" offset=".73"/>
   <stop style="stop-color:#696969" offset="1"/>
  </radialGradient>
 </defs>
 <g transform="matrix(4.053 0 0 4.053 1377 1166)">
  <circle cx="-327.3" cy="-274.8" r="11.08" style="fill:url(#radialGradient37146)"/>
  <path d="m-328.3-285.3v3.198c-1.241 0.0335-2.371 0.1312-3.354 0.2547-0.243 0.0303-0.4796 0.0628-0.7117 0.0966 0.663-1.897 1.364-2.973 1.374-2.988l-0.0225-0.0152c0.8606-0.2949 1.771-0.4822 2.715-0.5464zm1.453 0c0.9576 0.0652 1.881 0.257 2.752 0.5596l-3e-3 2e-3c0.0101 0.0146 0.7011 1.074 1.359 2.944-1.443-0.2025-2.823-0.296-4.108-0.3155zm-6.294 1.552c-0.2719 0.6132-0.5683 1.375-0.844 2.273-0.8342 0.1624-1.559 0.3357-2.158 0.4968 0.8118-1.105 1.832-2.047 3.002-2.77zm-0.2526 17.95c-1.226-0.7909-2.198-1.652-2.887-2.8 0.6936 0.2037 1.375 0.3068 2.118 0.4438 0.2521 0.7737 0.5176 1.647 0.769 2.356zm-0.1244-9.62c0.0439-1.412 0.2139-2.658 0.4286-3.702 0.0781-0.3793 0.1634-0.7407 0.254-1.086 0.4458-0.0749 0.916-0.1444 1.41-0.2057 0.9192-0.114 1.972-0.2037 3.127-0.2361v5.211c-1.738 0.049-3.48 0.0195-5.219 0.0195zm11.95 0c-1.756 5e-3 -3.511-5e-5 -5.267-0.0116-0.0141-1.743-0.01-3.485-0.01-5.228 1.735-0.0298 3.108 0.3838 4.537 0.4511 0.493 1.587 0.6914 3.395 0.7395 4.788zm3.659-3.713c0.5148 1.184 0.8641 2.567 0.9465 3.713h-3.153c-0.0772-1.591-0.2583-3.12-0.5781-4.535 0.6654 0.1454 2.102 0.6204 2.784 0.8215m-1.091-1.846-2.158-0.4968c-3e-3 -7e-3 -0.6468-1.79-0.844-2.273 1.269 0.7082 2.168 1.713 3.002 2.77zm-6.505-5.622c-0.6714-0.1164-1.362-0.1779-2.066-0.1779-6.664 0-12.08 5.421-12.08 12.09 0 2.899 1.026 5.562 2.734 7.646l1.8 1.782c2.07 1.661 4.696 2.657 7.551 2.657 6.664 0 12.09-5.421 12.09-12.09 0-0.4131-0.022-0.8217-0.0628-1.224-0.5621-5.781-5.401-9.958-9.957-10.68zm3.936 12.63c-0.0457 1.425-0.2274 2.989-0.6112 4.667-1.647 0.2733-3.218 0.3947-4.664 0.4174v-5.1c1.757 0.0407 3.517 0.0162 5.275 0.0162zm-6.728 5.075c-1.634-0.0286-2.974-0.2157-4.561-0.4724-0.4148-1.507-0.6081-3.199-0.6562-4.602 1.744 3e-3 3.487-1.6e-4 5.231-6e-3 -0.0184 1.694-0.0132 3.387-0.0132 5.081zm-6.106-11.01c-0.0313 0.1374-0.062 0.2758-0.0913 0.4174-0.2398 1.144-0.429 2.514-0.4743 4.068h-3.209c0.0892-1.317 0.4188-2.57 0.9466-3.713 0.4765-0.1628 1.462-0.4725 2.828-0.7719zm-3.775 5.938h3.21c0.0401 1.332 0.1914 2.777 0.5027 4.317-1.418-0.3134-2.416-0.6355-2.849-0.7865-0.4793-1.094-0.7795-2.283-0.8639-3.53zm18.06 0h3.153c-0.0868 1.278-0.3997 2.495-0.9002 3.611-0.9353 0.3064-1.859 0.5552-2.766 0.756 0.3179-1.558 0.4729-3.02 0.5133-4.367zm1.203 5.44c-0.7505 1.051-1.687 1.959-2.762 2.678 0.2646-0.7467 0.488-1.477 0.678-2.191 0.6846-0.1356 1.38-0.2972 2.084-0.4875zm-13.6 0.7144c1.414 0.2081 2.975 0.3367 4.219 0.3731v3.355c-1.102-0.0753-2.159-0.3178-3.145-0.7051-0.4364-1.038-0.7908-2.047-1.075-3.023zm9.936 0.043c-0.2792 0.9541-0.6258 1.939-1.05 2.953-1.005 0.4019-2.085 0.6552-3.213 0.7322v-3.346c1.332-0.0202 2.764-0.1211 4.264-0.3393z" style="fill:#000000"/>
  <path d="m-325.3-277.8-1.782 1.8 0.8401 0.8314 1.782-1.8zm-2.376 2.4-1.781 1.8 0.8401 0.8314 1.782-1.8zm-2.375 2.4-1.782 1.8 0.8401 0.8315 1.782-1.8zm-2.376 2.4-1.782 1.8 0.8407 0.8315 1.781-1.8zm-2.376 2.4-1.781 1.8 0.8401 0.8321 1.782-1.8zm-2.279 2.365-1.782 1.8 0.8401 0.8321 1.782-1.8z" style="fill:#290a43"/>
  <path d="m-315.3-276.9-2.474-6.361 1.764-1.585c0.2287-0.205 1.177-1.683 1.028-1.972-0.2573-0.1945-1.872 0.5713-2.102 0.7767l-1.774 1.594-6.028-3.12s-1.101-0.4507 0.3653 1.112l3.937 3.578c-0.6529 0.6369-2.129 2.101-3.053 3.121l-2.067-0.785s-0.4319-0.1116 0.0823 0.4274l1.335 1.128c-0.1168 0.1586-0.1739 0.2663-0.1457 0.2987l0.1377 0.1527-0.1272 0.114c-0.0181 0.0171-0.0202 0.046-3e-3 0.0662 0.0167 0.0171 0.0464 0.0196 0.0655 3e-3l0.1269-0.1144 0.121 0.1325c0.0286 0.0335 0.145-0.0132 0.3176-0.114l1.003 1.485c0.4818 0.5689 0.4162 0.1272 0.4162 0.1272l-0.5717-2.184c1.116-0.8105 2.72-2.11 3.419-2.688l3.16 4.327c1.396 1.625 1.066 0.4811 1.066 0.4811" style="fill:#290a43"/>
 </g>
</svg>
