<svg version="1.1" viewBox="0 0 100 100.2" xmlns="http://www.w3.org/2000/svg" xmlns:xlink="http://www.w3.org/1999/xlink">
 <defs>
  <linearGradient id="linearGradientSlvr" x1="-1869" x2="-1869" y1="794.4" y2="828" gradientTransform="matrix(1.301,0,0,1.301,1365,-35.3)" gradientUnits="userSpaceOnUse">
   <stop style="stop-color:#696969" offset="0"/>
   <stop style="stop-color:#c7c7c9" offset=".17"/>
   <stop style="stop-color:#f9f9ff" offset=".36"/>
   <stop style="stop-color:#ccccce" offset=".73"/>
   <stop style="stop-color:#696969" offset="1"/>
  </linearGradient>
  <linearGradient id="linearGradient19262-3-8" x1=".1031" x2=".939" y1=".3273" y2="-.258" gradientTransform="matrix(21.52,-30.74,30.74,21.52,331.4,96.19)" gradientUnits="userSpaceOnUse" xlink:href="#linearGradientSlvr"/>
  <linearGradient id="linearGradient19435-5-7" x2="1" gradientTransform="matrix(30.74,-19.96,19.96,30.74,326.8,90.8)" gradientUnits="userSpaceOnUse" xlink:href="#linearGradientSlvr"/>
  <radialGradient id="radialGradient7443-7" cx="344.3" cy="79.31" r="12.73" gradientTransform="matrix(1,0,0,1.021,0,-1.684)" gradientUnits="userSpaceOnUse">
   <stop style="stop-color:#fbfbfb" offset="0"/>
   <stop style="stop-color:#f9f9ff" offset=".2717"/>
   <stop style="stop-color:#ccccce" offset=".5976"/>
   <stop style="stop-color:#696969" offset="1"/>
  </radialGradient>
  <radialGradient id="radialGradient40985" cx="340.8" cy="81.45" r="14.6" gradientTransform="matrix(1.447 -1.256e-5 3.331e-8 1.003 -152 -.7389)" gradientUnits="userSpaceOnUse">
   <stop style="stop-color:#5b1694" offset="0"/>
   <stop style="stop-color:#44116f" offset=".3592"/>
   <stop style="stop-color:#61179f" offset=".6174"/>
   <stop style="stop-color:#1d072f" offset="1"/>
  </radialGradient>
  <filter id="filter40999" x="-.01213" y="-.01188" width="1.024" height="1.024" style="color-interpolation-filters:sRGB">
   <feGaussianBlur stdDeviation="0.12864323"/>
  </filter>
  <filter id="filter41021" x="-.012" y="-.012" width="1.024" height="1.024" style="color-interpolation-filters:sRGB">
   <feGaussianBlur stdDeviation="0.18329785"/>
  </filter>
 </defs>
 <g transform="matrix(2.618 0 0 2.618 -846 -161.6)">
  <path d="m327.6 80.82c0 8.062 6.535 14.6 14.6 14.6 8.062 0 14.6-6.536 14.6-14.6 0-8.063-6.536-14.6-14.6-14.6-8.062 0-14.6 6.535-14.6 14.6" style="fill:url(#radialGradient40985);stroke-width:.5146"/>
  <path d="m329 67.58c-3.668 3.691-5.836 8.355-5.829 13.24 0.0802 9.947 9.101 19.01 19.05 19.08 9.949-0.06565 18.97-9.132 19.05-19.08-0.0802-9.947-9.102-19.01-19.05-19.08h-0.0233c-4.879 0-9.525 2.164-13.2 5.837m-1.953 13.24c0-3.954 1.669-7.704 4.571-10.62 2.906-2.908 6.652-4.582 10.6-4.579 8.087 0.03647 15.13 7.108 15.17 15.2-0.0408 8.089-7.087 15.16-15.17 15.2-8.086-0.03647-15.13-7.107-15.17-15.2" style="fill:url(#linearGradient19262-3-8);stroke-width:.5146"/>
  <path d="m342.6 62.9c-4.896 0-9.499 1.907-12.96 5.369-3.462 3.462-5.369 8.065-5.369 12.96 0 10.11 8.223 18.33 18.33 18.33 10.11 0 18.33-8.223 18.33-18.33 0-10.11-8.223-18.33-18.33-18.33zm-14.6 18.33c0-3.899 1.518-7.564 4.275-10.32 2.757-2.757 6.422-4.275 10.32-4.275 8.049 0 14.6 6.548 14.6 14.6 0 8.048-6.548 14.6-14.6 14.6-8.048 0-14.6-6.548-14.6-14.6" style="fill:#000000;filter:url(#filter41021);stroke-width:.5146"/>
  <path d="m342.2 62.49c-4.896 0-9.499 1.907-12.96 5.369-3.462 3.462-5.369 8.065-5.369 12.96 0 10.11 8.223 18.33 18.33 18.33 10.11 0 18.33-8.223 18.33-18.33 0-10.11-8.223-18.33-18.33-18.33zm-14.6 18.33c0-3.899 1.518-7.564 4.275-10.32 2.757-2.757 6.422-4.275 10.32-4.275 8.049 0 14.6 6.548 14.6 14.6 0 8.048-6.548 14.6-14.6 14.6-8.048 0-14.6-6.548-14.6-14.6" style="fill:url(#linearGradient19435-5-7);stroke-width:.5146"/>
  <path d="m335.4 70.48c0.0656-0.01459 0.1371 0 0.2551 0.02188 0.3182 0.07294 0.5847 0.09628 0.7956 0.1694 0.2121 0.07148 0.1065 0.1918 0.5558 0.2156 0.4499 0.0248 0.5847 0.07148 0.716 0s0.4764-0.09482 0.0802-0.1444c-0.3972-0.04814-0.4508 0.0248-0.5573-0.09482-0.1065-0.1196-0.1848-0.0248-0.1313-0.193 0.0525-0.1682 0.105-0.1211 0.0525-0.2408-0.0525-0.1196 0.2651-0.143-0.0525-0.1196-0.3184 0.02334-0.2665 0.04668-0.4251 0.07148-0.159 0.0248-0.4487 0.215-0.3164 0.0248 0.1313-0.193 0.0263-0.193 0.2907-0.2899 0.264-0.09482 0.2924-0.09482 0.5562-0.1196 0.2651-0.0248 0.6352-0.0248 0.3968 0.09628-0.2388 0.1211-0.4241 0.193-0.2645 0.2172 0.1586 0.02334-0.2126 0.07148 0.2907 0.02334 0.5028-0.04814 0.5301-0.04814 0.7416-0.04814 0.2126 0 0.0788 0 0.2918-0.0248 0.2121-0.02334 0.5291-0.1444 0.3701-0.02334-0.158 0.1196-0.3964 0.02334-0.3701 0.1918 0.0263 0.1678-0.1065 0.193 0.1313 0.2408 0.2384 0.04814 0.2913 0.1444 0.105 0.1444-0.1847 0-0.105-0.04668-0.3437 0-0.0919 0.01896-0.1667 0.01459-0.227-5.84e-4 -0.0963-0.01459-0.1533-0.03063-0.1698 0.0744-0.0277 0.1667-0.158 0.2156 0.1328 0.2408 0.2918 0.02188 0.2104 0.04668 0.476-0.0248 0.105-0.02772 0.14-0.01459 0.1543 0 0.0219 0.02626-4.4e-4 0.05252 0.1109-0.07732 0.1853-0.2177 0.319-0.3613 0.2918-0.2414-0.0263 0.1196-0.0525 0.1444-0.1065 0.2172-0.0525 0.07148-0.0788 0.2156 0.0802 0.1211 0.157-0.09628 0.3437-0.0248 0.3437-0.2408 0-0.2168-0.1065-0.2414 0.0263-0.2899 0.1328-0.04814 0.2403-0.143 0.1065-0.143-0.1328 0-0.2382 0.04814-0.3705 0.02334-0.1313-0.02334-0.2378-0.02334-0.158-0.1196 0.0788-0.09628 0.0788-0.1444 0.3155-0.1672 0.2398-0.0248 0.0802 0 0.2398-0.0248 0.159-0.02334 0.1065-0.1694 0.159-0.02334 0.0525 0.1444-0.1065 0.1444 0.0525 0.1444 0.1596 0 0.2109 0 0.3443-0.07294 0.1342-0.07148 0.159-0.07148 0.264-0.1211 0.054-0.0248 0.0875 0.0248 0.1269 0.07148 0.0394 0.0496 0.0861 0.09628 0.1657 0.07294 0.158-0.04814 0.5023-0.09628 0.7148-0.09628 0.2109 0 0.1065 0 0.4251 0.09628 0.316 0.09628 0.5285 0.07294 0.6602 0.216 0.1328 0.143 0.2907 0.143 0.2907 0.2897 0 0.1444-0.212 0.2152 0.0277 0.264 0.089 0.0175 0.1549 0.01459 0.2079 0.01459 0.089 0 0.1386-0.01459 0.1879 0.08169 0.0788 0.1459 0.2131 0.216 0.0788 0.2655-0.1313 0.04668-0.158 0.04668-0.2912 0.04668-0.1313 0-0.4751-0.2152-0.3695-0.04668 0.108 0.1683 0.3174 0.1683 0.2918 0.264-0.0248 0.09774 0 0.1924-0.1596 0.1924-0.161 0-0.2378-0.0248-0.3184-0.04814-0.0788-0.02334-0.0263-0.2152-0.0788-0.02334-0.0525 0.192 0.2105 0.143-0.0525 0.192-0.2661 0.04814-0.2661 0.07148-0.3721-0.0248-0.1036-0.09628-0.1036-0.1211-0.212-0.1678-0.1065-0.0496 0.0277-0.07294-0.2372-0.07294-0.2667 0-0.3711 0.1196-0.3994 0-0.0248-0.1196 0.0277-0.191 0.2392-0.2152 0.0744-0.01459 0.1138 1e-3 0.143 0.01459 0.0525 0.0175 0.0744 0.03501 0.2274-0.06127 0.2392-0.143 0.478-0.07148 0.3716-0.264-0.105-0.192-0.1586-0.2635-0.3443-0.3119-0.1853-0.04814-0.2372-0.04814-0.4497-0.04814-0.2115 0-0.3182-0.04668-0.3182 0.07294 0 0.1196 0.0277 0.2156-0.0525 0.2646-0.0788 0.04668-0.054 0.1196-0.1863 0.143-0.1313 0.0248-0.1036 0.0248-0.2646 0.0248-0.158 0-0.3437 0.1692-0.2645 0 0.0817-0.1678 0-0.1459 0.1606-0.2419 0.1584-0.09482 0.2372-0.02188 0.2645-0.1905 0.0146-0.07878 0.0146-0.07878 0-0.07878s-0.0292 5.84e-4 -0.0584-0.1152c-0.0525-0.2166 0-0.04814-0.0525-0.2166-0.054-0.1678 0.2101-0.2635-0.054-0.1678-0.2645 0.09628-0.2645 0.04814-0.3958 0.143-0.1328 0.09628-0.1863 0.07294-0.1328 0.2408 0.051 0.1683 0.0262 0.193 0.1574 0.193 0.1328 0 0.3176 0.02334 0.1596 0.1444-0.1596 0.1211-0.2115 0.1211-0.1848 0.2404 0.0248 0.1196 0.1848 0.1196-0.054 0.2171-0.2372 0.09628-0.3437 0.2384-0.688 0.3597-0.3443 0.1211-0.4503 0.07148-0.7144 0.2398-0.2655 0.1694-0.3196 0.09774-0.3978 0.2887-0.0802 0.194-0.1584 0.1688-0.0525 0.3125 0.1065 0.1459 0.1853 0.193 0.3443 0.2408 0.1596 0.0496 0.2651 0.193 0.5028 0.2177 0.0729 0.01459 0.143 0 0.2042 0 0.1357 0 0.2213-0.01459 0.1673 0.0919-0.0788 0.143-0.2651 0.4072-0.1586 0.5285 0.105 0.1196 0.3186 0.263 0.4493 0 0.1328-0.2661 0.0525-0.3854 0.2382-0.5053 0.0686-0.04376 0.1328-0.0423 0.1936-0.04085 0.105 0 0.1996 0 0.2836-0.2249 0.1328-0.3597-0.0525-0.3123 0.1328-0.5043 0.1848-0.1926 0.2101-0.2877 0.317-0.4318 0.1065-0.1459 0.1863-0.09628 0.5023-0.04814 0.3196 0.04814 0.5574 0.264 0.4776 0.4334-0.0802 0.1682-0.2382 0.215-0.0802 0.2388 0.16 0.0248 0.212 0.0496 0.3972-0.1182 0.1869-0.1702 0.2651-0.2897 0.3454-0.1702 0.0773 0.1225 0.159 0.1444 0.1298 0.3386-0.0263 0.191-0.1574 0.143-0.0525 0.3119 0.108 0.1672 0.4257 0.1672 0.5055 0.3123 0.0788 0.143 0.2639 0.2661 0.0788 0.3371-0.1853 0.07294-0.1328 0.3113-0.1328 0.409 0 0.09628 0.1065 0.09628 0.212 0.2162 0.1065 0.1211 0.1853 0.2877 0.054 0.3119-0.1328 0.0248-0.054-0.04814-0.318-0.04814-0.2655 0-0.5825 0.04814-0.5568-0.0496 0.0262-0.09482 0.0525-0.1196 0.2105-0.2403 0.161-0.1211 0.2671-0.1444 0.2671-0.2893 0-0.1415 0-0.2388-0.1586-0.1415-0.161 0.09336-0.108 0.1899-0.319 0.1899-0.2115 0-0.2382-0.0248-0.4766-0.0248-0.2366 0-0.316-0.09628-0.5027 0-0.1869 0.09628-0.423 0.1934-0.4509 0.2651-0.0248 0.07294 0.1313 0.07294 0.264 0.0248 0.1342-0.04814 0.5316-0.04814 0.3978 0.04814-0.1313 0.09628-0.2635 0.1196-0.211 0.2398 0.054 0.1211 0.37 0.2172 0.477 0.1211 0.105-0.09628 0.4498-0.04814 0.318 0.04814-0.1342 0.09628-0.2126 0.2172-0.4251 0.2887-0.1123 0.03939-0.1873 0.02188-0.2604 0-0.0657-0.01459-0.1298-0.02918-0.2156 0-0.1853 0.04814-0.3449 0.04814-0.4508 0.0248-0.1065-0.0248-0.0788-0.07294-0.2368-0.04814-0.1606 0.02334-0.2136 0.1678-0.4498 0.3123-0.2388 0.1444-0.2929 0.1688-0.4772 0.3119-0.1877 0.1444-0.2136 0.2419-0.372 0.3612-0.16 0.1211-0.0248 0.1459-0.16 0.1211-0.1298-0.0248-0.1842-0.1444-0.2101-0.0248-0.0263 0.1211-0.0263 0.1444 0 0.2394 0.0263 0.09774 0.0802 0.1444 0.0263 0.2655-0.0525 0.1196-0.159 0.1459-0.3438 0.2414-0.1853 0.09482-0.1853 0.1196-0.4241 0.2635-0.2378 0.1459-0.3174 0.1211-0.37 0.3361-0.0525 0.2171-0.0263 0.316-0.0263 0.5552 0 0.2398 0.1328 0.4072-0.0263 0.4802-0.16 0.07148-0.3449-0.0496-0.3449-0.3371 0-0.2872-0.0277-0.4322-0.0277-0.4322s-0.1857-0.0496-0.3437-0.07294c-0.1596-0.02334-0.2661-0.04668-0.4514-0.04668-0.1842 0-0.2645-0.0248-0.2645 0.04668v0.1945s0 0.09482-0.1313 0.07002c-0.1328-0.02188-0.1842-0.04668-0.319-0.09628-0.1313-0.04522 0.108-0.1915-0.3164-0.04522-0.4236 0.1415-0.5568 0.1415-0.6352 0.3824-0.0802 0.2408-0.0277 0.2881-0.1328 0.456-0.1065 0.1698-0.2392 0.2902-0.1863 0.5536 0.054 0.2661 0.108 0.578 0.2651 0.6254 0.159 0.0496 0.317 0.0496 0.5578 0.02334 0.2368-0.02334 0.2893-0.1196 0.3972-0.2624 0.105-0.1459 0.2368-0.2419 0.4483-0.2419 0.2136 0 0.2656 0.0248 0.108 0.2419-0.159 0.2146-0.4255 0.4086-0.3457 0.5996 0.0802 0.193 0.1594 0.1211 0.3972 0.09774 0.2384-0.02626 0.4251 0.02334 0.4503 0.1196 0.0277 0.09482 0.1328 0.2392 0.0525 0.3345-0.0788 0.09628 0.0277 0.4343 0.0277 0.4343s0 0.0496 0.0788 0.2162c0.0788 0.1678 0.1065 0.2156 0.2115 0.1914 0.1065-0.02334 0.1594-0.2382 0.2922-0.2382s0.0788 0 0.2121 0.09336c0.1313 0.09628 0.2378 0.09628 0.2378 0.09628s0 0.01459-0.0146 0.02188c0.1663-0.3021 0.5558-0.3514 0.5558-0.3514s0.1357-0.1225 0.3233-0.2193c0.1904-0.09774 0 0.04668 0.0817 0.195 0.0817 0.1472 0 0 0.2433-0.09774 0.2435-0.09628 0 0 0.2681 0.02626 0.2708 0.02334 0 0 0.1632 0.1704 0.108 0.1138 0.108 0.09774 0.1904 0.08169 0.0423-0.01459 0.105-0.01605 0.2136-0.01459 0.3241 0.02334 0.405 0.05106 0.7842 0.1971 0.3768 0.1459 0.1342 0.04814 0.4837 0.3901 0.2744 0.2702 0.2516 0.2681 0.3449 0.2671 0.0263-4.38e-4 0.0613-1e-3 0.1152 0 0.2429 0.0248 0.6201 0.1708 0.7822 0.3443 0.1627 0.1688 0.108 0.2187 0.1627 0.3891 0.0525 0.1724 0.1889 0.1724 0.4045 0.3695 0.2156 0.1966 0.2697 0.07002 0.5409 0.2209 0.2686 0.146 0.1873 0.07294 0.5656 0.1708 0.3783 0.09774 0.2162 0.07294 0.5403 0.2449 0.3233 0.1724 0.2425 0.1459 0.5924 0.2687 0.352 0.1225 0.0802 0.2207 0.054 0.4915-0.0277 0.2691-0.5122 0.6855-0.647 0.9557-0.1342 0.2691-0.0277 0.3905-0.0277 0.6124 0 0.2213 0 0.2455-0.108 0.4899-0.1094 0.2465-0.1357 0.2465-0.216 0.3685-0.0817 0.1225-0.243 0.318-0.4055 0.318-0.1616 0-0.2172 0-0.5132 0.2223-0.2958 0.2193-0.2692 0.3155-0.2433 0.5363 0.0277 0.2203 0 0.0992-0.0263 0.1977-0.0263 0.09628 0 0-0.1357 0.1225-0.1357 0.1211 0 0.09774-0.0263 0.194-0.0263 0.0992-0.0802 0.1468-0.1094 0.2209-0.0263 0.0744-0.1328 0.1708-0.1878 0.2464-0.0525 0.07148-0.1895 0.2939-0.4041 0.3412-0.215 0.05106-0.3783-0.02334-0.4328 0.1007-0.0525 0.1225 0 0 0.0817 0.1225 0.0817 0.124 0.0263 0.07294 0.054 0.2691 0.0277 0.1965 0 0.09774-0.216 0.2944-0.2147 0.1961-0.2147 0-0.3783 0-0.1622 0-0.1328 0.09774-0.1328 0.1718 0 0.07294 0 0.0992-0.0817 0.1225-0.0802 0.0248-0.108 0.0248-0.1878 0.1478-0.0438 0.06419-0.0409 0.06127-0.0175 0.05689 0.0204 0 0.0598 0 0.0977 0.04085 0.0802 0.0992 0.0802 0.04668 0.0802 0.1965 0 0.1462-0.0263 0.0992-0.054 0.2445-0.0277 0.1482 0 0-0.1627 0.1735-0.0904 0.09628-0.0788 0.08315-0.0525 0.07294 0.0219-0.01459 0.0525-0.01751 0.0525 0.02334 0 0.09774 0.0277 0.0744 0.1094 0.195 0.0802 0.1225 0.1342 0.0992 0.1611 0.1965 0.0263 0.09774 0 0-0.0277 0.2455-0.0161 0.1444-0.0146 0.1196-0.019 0.09336 0-0.01751-0.0146-0.03501-0.035 0-0.054 0.09774-0.0802 0.07294-0.0802 0.172 0 0.09774 0 0 0.054 0.1708 0.0306 0.1007 0.0263 0.08315-0.0146 0.0671-0.0263-0.01459-0.0686-0.02334-0.124 0-0.1328 0.0744 0 0.0992 0 0.0992l0.108 0.04814c0.108 0.0496 0 0 0.108-0.04814 0.1094-0.0496 0.0817 0.09774 0.1895 0.1462 0.1065 0.0496 0.0802 0.07294 0.1621 0.1225 0.0802 0.0496 0.0802 0.0496 0.1621 0.09774 0.0802 0.04814 0.0525 0.07294-0.0263 0.09774-0.0817 0.02334-0.0817 0-0.3506 0h-0.1898c-0.1895 0-0.054-0.0248-0.054-0.0248s-0.108-0.04814-0.3227-0.1459c-0.0977-0.04522-0.1065-0.0496-0.1036-0.04814-0.0146 0-0.0263-0.01459-0.0584-0.02772-0.1627-0.07294-0.0817-0.04814-0.1371-0.1718-0.0277-0.06419-0.0277-0.06127-0.0219-0.05689 0 0 0.0146 0 0-0.03939-0.0277-0.09774-0.0554-0.0744-0.0554-0.0744l-0.1615-0.09482s-0.054-0.02626-0.1899-0.1735c-0.07-0.07732-0.0671-0.07294-0.0554-0.07002 0.0146 0 0.0277 0 0-0.05252-0.054-0.1225-0.0263-0.0744-0.1342-0.2942-0.0642-0.1328-0.0511-0.1065-0.0365-0.07877 0.0146 0.01751 0.019 0.03501 0.0146 0-0.0263-0.07294 0.0817-0.09774 0.0817-0.1966 0-0.05543 0-0.04668-0.0248-0.03939-0.019 0-0.0511 0.01459-0.108-0.01459-0.1342-0.0496 0 0-0.0263-0.07586-0.0292-0.07148-0.108-0.3644-0.108-0.3644s-0.0277-0.07586-0.0832-0.246c-0.054-0.173 0 0 0.0832 0 0.0802 0 0.108 0.2193 0.1342 0.09628 0.0248-0.1211-0.0263-0.1211-0.1094-0.2691-0.0802-0.146-0.0802-0.07148-0.108-0.2691-0.0263-0.195-0.054-0.195-0.1065-0.5135-0.0525-0.3196 0.0525-0.3943 0.0802-0.6624 0.0263-0.2706-0.1328-0.3921-0.1328-0.7586 0-0.3679 0-0.4414 0.0248-0.7606 0.0277-0.319-0.054-0.8563-0.0802-1.103-0.0277-0.2443-0.2152-0.2938-0.6201-0.5141-0.4045-0.2213-0.4328-0.2449-0.5666-0.4169-0.1371-0.1713-0.4868-0.9304-0.6757-1.25-0.1899-0.319-0.4041-0.4919-0.3227-0.6859 0.0802-0.1961 0.1065-0.2944 0.0802-0.4658-0.0263-0.1724-0.0263-0.1955 0.1888-0.2954 0.2152-0.0992 0.1885-0.1698 0.3489-0.5136 0.1643-0.3417 0.0292-0.3915 0.1036-0.8759-0.0525 0.1683-0.0788 0.2408-0.0788 0.2408s-0.0788-0.1211-0.1857-0.216c-0.105-0.09628-0.2126-0.2172-0.2656-0.09628-0.0511 0.1196 0.0277 0.2398-0.0788 0.1914-0.108-0.04668-0.0263-0.04668-0.1869-0.143-0.158-0.09628-0.105-0.07294-0.2109-0.1934-0.1065-0.1211 0.1853-0.1211-0.1065-0.1211-0.2928 0-0.317 0.07294-0.3443-0.09482-0.0277-0.1683 0.0511-0.2897-0.0788-0.3361-0.0554-0.02042-0.0875-0.01459-0.1182 0-0.0423 0.01459-0.0802 0.02334-0.1734-0.04668-0.159-0.1211-0.054-0.07148-0.3174-0.193-0.2656-0.1196-0.2923-0.07148-0.5574-0.2883-0.2645-0.2152-0.3984-0.2645-0.4766-0.2152-0.0788 0.0496-0.5558 0.1689-0.9793-0.1692-0.4231-0.3376-0.5039-0.2651-0.5039-0.4581 0-0.1904 0.2378-0.09482 0.0525-0.4082-0.1853-0.3128-0.3972-0.601-0.5562-0.8661-0.1596-0.264-0.2923-0.2867-0.2923-0.5049 0-0.216 0.054-0.2871-0.0788-0.337-0.1328-0.04814-0.2382-0.2398-0.2651-0.04814-0.0248 0.1936-0.054 0.2404 0.0263 0.3844 0.0788 0.1459 0.0788 0.2182 0.158 0.3613 0.0802 0.143 0.0277 0.1924 0.1065 0.3129 0.0788 0.1211 0.2378 0.215 0.1842 0.3622-0.0525 0.143-0.0788 0.1196-0.1584 0.02188-0.0788-0.09628-0.1328-0.07148-0.1848-0.1915-0.054-0.1196 0.1065 0 0.0525-0.1196-0.0525-0.1211 0.054-0.09628-0.105-0.1926-0.0671-0.04085-0.0919-0.02918-0.1036-0.01751-0.016 0.01605-0.0146 0.03209-0.054-0.07878-0.0802-0.193 0.0263-0.09628 0.0263-0.2398 0-0.1444-0.0525-0.1196-0.1313-0.2392-0.0802-0.1225-0.0277-0.195-0.054-0.4123-0.0263-0.2142-0.0263-0.192-0.2101-0.3829-0.1857-0.193-0.2651-0.4575-0.2136-1.203 0.054-0.7456 0.4509-0.9376 0.5837-1.083 0.1313-0.143 0.212-0.2883 0.0554-0.4324-0.1605-0.1459-0.2681-0.1459-0.2408-0.2413 0.0263-0.09628 0.2651-0.09628 0.3443 0.0248 0.0802 0.1196 0.054 0.3134 0.1858 0.3134 0.1328 0 0.2645-0.1196 0.1328-0.2419-0.1328-0.1196-0.2913-0.1415-0.3449-0.3355-0.0175-0.0671-0.0394-0.1109-0.0569-0.1488-1.612 2.166-2.568 4.851-2.568 7.758 0 7.179 5.82 13 13 13 5.013 0 9.359-2.838 11.53-6.993v-0.1708c0-0.2887-0.2372-0.1444-0.3176-0.77-0.0773-0.6263 0.1328-0.8883 0.2923-1.083 0.1596-0.192-0.0525-0.3129-0.1065-0.5043-0.0525-0.1914-0.1328-0.2893-0.1328-0.6006 0-0.3139-0.53-0.5063-0.636-0.7221-0.108-0.2166-0.0263-0.2166 0.054-0.5295 0.0802-0.3134 0.2382-0.407 0-0.5768-0.1371-0.09628-0.2492-0.0744-0.3644-0.05106-0.0846 0.01751-0.1708 0.03355-0.2712 0-0.2388-0.07148-0.1863-0.4076-0.5568-0.385-0.3705 0.02334-0.317 0.1672-0.5821 0.2877-0.1564 0.07148-0.3123 0.03355-0.4801 0-0.1167-0.02626-0.2378-0.05252-0.3685-0.0423-0.3155 0.02334-0.2115 0.09628-0.4751 0.09628-0.2655 0-0.3453-0.17-0.4775-0.4098-0.1328-0.2398-0.5033-0.3854-0.6093-0.5538-0.1065-0.1667-0.4257-0.6495-0.4487-0.8403-0.0277-0.1936 0.0233-0.3367 0.1298-0.7231 0.1065-0.3829-0.054-0.1914-0.1298-0.3123-0.0817-0.1196 0.0233-0.3115 0.1574-0.5281 0.1328-0.2172 0.2372-0.4096 0.4766-0.6979 0.2368-0.2877 0.1837-0.1934 0.4776-0.3117 0.2902-0.1196 0.1298-0.4344 0.2104-0.6264 0.0802-0.191 0.0802-0.1196 0.2923-0.2419 0.2115-0.1182 0.2115-0.2146 0.4236-0.3818 0.2109-0.1683 0.2388 0 0.5033 0.02188 0.2655 0.0248 0.2378-0.02188 0.4776-0.1196 0.2362-0.09628 0.371-0.1211 0.6623-0.2171 0.1826-0.05981 0.3129-0.05398 0.4909-0.04668 0.1036 0 0.2245 0.01459 0.3819 0 0.4257-0.02188 0.212 0.1698 0.1858 0.4343-0.0263 0.2651-0.054 0.2168 0.0773 0.3357 0.1342 0.1211 0.5049 0.1211 0.7168 0.1459 0.2109 0.0248 0.158 0.07148 0.37 0.191 0.2131 0.1211 0.2394 0.1462 0.4519 0.2166 0.0248 0.01459 0.0452 0.01459 0.0598 0.01459-0.1775-0.6006-0.3968-1.182-0.6572-1.744 0 0.03793 0.0146 0.08315 0.0146 0.143 0 0.1444-0.1328 0.1694-0.2928 0.264-0.1584 0.09628-0.1313 0-0.2924-0.09482-0.1574-0.09628 0.0277-0.09628 0.2671-0.09628 0.2368 0 0.1596-0.09774 0.1853-0.2413 0.0263-0.1444-0.0802-0.1667-0.2382-0.2398-0.158-0.07294-0.1859-0.07294-0.4514-0.192-0.2645-0.1196-0.158-0.1694-0.3438-0.2897-0.1847-0.1196-0.159-0.1444-0.372-0.04814-0.2101 0.09628-0.1565 0.07294-0.423 0.09628-0.2645 0.02626-0.1313 0-0.2645 0.09774-0.1342 0.09774-0.0802 0.1196-0.1858 0.264-0.1065 0.1462-0.16 0.07294-0.3427 0.2419-0.1869 0.1672 0 0-0.0292 0.2639-0.0248 0.2656-0.0773 0.09628-0.3433 0.2656-0.1637 0.105-0.2162 0.08753-0.263 0.07294-0.0292-0.01459-0.0569-0.02042-0.1065-0.0015-0.1328 0.04668-0.1602 0.09774-0.3182 0.02626-0.1594-0.0744-0.1065-0.09628-0.213-0.1225-0.1036-0.02188-0.1853-0.09482-0.2384-0.264-0.0525-0.1682 0.0277-0.1682 0.1065-0.3597 0.0802-0.1924-0.0263-0.1924-0.0263-0.3123 0-0.1211 0.054-0.1704 0.1313-0.1704 0.0802 0 0.37 0.02626 0.5295 0.02626h0.3978s0.16-0.07294 0.16-0.2492c0-0.1759 0.089-0.2563-0.089-0.3524-0.177-0.09628-0.177-0.06273-0.283-0.1444-0.105-0.08023-0.1765-0.1284-0.0175-0.1914 0.1596-0.06419 0.247-0.0496 0.3891-0.1284 0.1386-0.08169 0.3341-0.1444 0.228-0.1755-0.1065-0.03355-0.1065-0.03355-0.228-0.03355-0.1255 0-0.1065 0-0.2655 0.04814-0.1596 0.0496-0.2301 0.2408-0.2301 0.0496 0-0.193-0.016-0.08023 0.019-0.2567 0.035-0.1771-0.124-0.0496 0.035-0.1771 0.1596-0.1269 0.2476-0.08023 0.195-0.1914-0.054-0.1123 0.105 0-0.054-0.1123-0.16-0.1138-0.035-0.1611-0.16-0.1138-0.0146 0-0.0248 0.01459-0.035 0.01459 0-0.01459-0.0146-0.02626-0.035-0.06127-0.0875-0.1444-0.1602-0.08169-0.124-0.2254 0.0365-0.143-0.1584-0.1109 0.1065-0.2085 0.2651-0.09628 0.3186-0.159 0.388-0.07878 0.0715 0.07878 0.1771 0.1138 0.1065 0.2089-0.0729 0.09482-0.1255 0.1767-0.054 0.2713 0.07 0.09628 0.124 0.1284 0.2136 0.2089 0.0875 0.08023-0.0175 0.1284 0.1211 0.1765 0.143 0.04814 0.2655 0.08023 0.2305 0.1749-0.035 0.09774-0.1594 0.2728-0.0175 0.2095 0.1415-0.06419 0.1576-0.1459 0.3345-0.2728 0.1765-0.1269 0.246-0.1123 0.442-0.1914 0.0934-0.03793 0.158-0.04085 0.1946-0.0496-1.006-1.294-2.252-2.394-3.672-3.231-0.0204 0.03355-0.0511 0.07586-0.1529 0.2249-0.2136 0.318-0.0802 0.09774-0.3221 0.3443-0.2439 0.2439-0.1371 0.1462-0.6747 0.195-0.5399 0.0496-0.4595 0.1462-0.7555 0.2934-0.2974 0.1492-0.405 0.1492-0.9459 0.2944-0.5393 0.1472-0.406 0.3675-0.6201 0.6134-0.2156 0.246-0.1616 0.195-0.5672 0.07294-0.4039-0.1211-0.4848-0.44-0.4848-0.9304 0-0.3376 0.1036-0.3376 0.2553-0.3371 0.0686 0 0.1462 0 0.2295-0.03064 0.2703-0.09774-0.0263-0.1708-0.1065-0.2928-0.0817-0.124-0.1616-0.124-0.0817-0.2958 0.0817-0.171 0-0.1225-0.16-0.3422-0.1138-0.1539-0.2403-0.14-0.563-0.1269-0.14 0-0.3155 0.01459-0.543 0-0.7565-0.02626-0.2424-0.0744-0.1894-0.2696 0.0365-0.1342 0.2624-0.1196 0.512-0.1036 0.1167 0 0.2392 0.01459 0.3504 0 0.351-0.0248 0.1616-0.1211-0.054-0.2213-0.215-0.09628-0.35 0-0.6751 0.07586-0.3233 0.07148-0.4565 0.1459-0.6743 0.195-0.2146 0.0496-0.3231 0.0992-0.6737 0.2445-0.352 0.1487-0.2171 0.1225-0.4589 0.2213-0.2445 0.0992-0.1612 0.0496-0.4308 0.0496-0.2712 0-0.2712-0.02334-0.5399-0.02334-0.2706 0-0.1615-0.02626-0.2439-0.1981-0.0802-0.1708 0.1357 0 0.3506 0.02626 0.216 0.0248 0.1898-0.02626 0.46-0.09774 0.2692-0.07294 0.3237-0.1466 0.6201-0.3443 0.2964-0.195-0.1625-0.1211-0.351-0.1211-0.1898 0-0.1621 0.0496-0.3783 0.1211-0.215 0.07294-0.2429 0.0496-0.4306-0.0248-0.1883-0.07294 0.108-0.1704 0.2156-0.2681 0.108-0.09774 0.3504 0 0.512 0.02334 0 0 0.3231-0.04814 0.5682-0.07294 0.2413-0.0248 0.2954-0.0744 0.8069-0.124 0.2919-0.02626 0.4797-0.02334 0.6706-0.01896h0.4899c0.4597-0.02334 0.3788 0 0.7026 0.0248 0.3247 0.02626 0.2166 0.0992-0.0263 0.124-0.2433 0.0248-0.1357 0.07294-0.0263 0.1466 0.1065 0.0744 0.2964-0.0744 0.4848-0.0744s0.2702-0.04814 0.7292-0.1704c0.0977-0.02626 0.1961-0.04668 0.294-0.06127-1.177-0.351-2.424-0.5415-3.715-0.5415-2.75 0-5.3 0.8559-7.399 2.313m3.696-0.8549c0.1357 0 0.2702 0.02626 0.2423 0.1724-0.0263 0.1476-0.3231 0-0.4858 0-0.1616 0-0.2419 0.07294-0.4581 0.1225-0.2166 0.0496-0.3258-0.0496-0.3767-0.1704-0.0554-0.124 0.4575-0.124 0.4575-0.124s0.1357 0.05106 0.3237 0.05106c0.1883 0 0.1627-0.05106 0.297-0.05106m1.105 1.79c0.1342-0.0992 0.1622-0.1955 0.3516-0.1225 0.1899 0.0744 0.4595 0.2708 0.3231 0.2944-0.1328 0.0248-0.0802-0.02334-0.2423-0.0496-0.1621-0.02334-0.1883 0-0.2974 0.0496-0.1065 0.0496-0.1065 0.0744-0.1879 0.0744 0 0-0.0802-0.1472 0.0525-0.2461m10.2 2.262c-0.0175-0.1284 0.0686-0.1284 0.0686-0.2551 0-0.1284-0.0525-0.1284-0.0161-0.2105 0.035-0.07878-0.0525-0.06273 0.089-0.1269 0.1386-0.06419 0.1576-0.07877 0.2635-0.07877 0.105 0 0.07 0.06273 0.194 0.01459 0.0686-0.02772 0.1269 0 0.1482 0.01459-0.0875 0.02772-0.1152 0.01751-0.1313 0.1298-0.0175 0.1298 0.07 0.177-0.0175 0.3046-0.089 0.1284-0.054 0.1459-0.2449 0.1627-0.1415 0.01459-0.2543 0.09628-0.3123 0.09628-0.0233 0-0.0365-0.01459-0.0423-0.0496m-13.19 5.235c0.054-0.09628 0.3504-0.1459 0.3504-0.1459s0.2439 0 0.4338 0.0496c0.1873 0.04814 0.1873 0.09628 0.3772 0.2193 0.1894 0.1225 0.2146 0.0496 0.3514 0.0992 0.1328 0.04668 0.1328 0.1211 0 0.1694-0.1371 0.0496-0.1371 0-0.3514-0.07294-0.2166-0.07294-0.2166-0.1478-0.35-0.2193-0.1371-0.0744-0.2449-0.124-0.5676-0.05106-0.1284 0.02918-0.2018 0.0423-0.2404 0.0423-0.0598 0-0.0365-0.03209 0-0.09336m1.809 0.6635c0.054-0.173-0.1357-0.0992 0.054-0.173 0.1883-0.07148 0.4029-0.1459 0.5656-0.07148 0.1616 0.07148 0.5131 0.1225 0.298 0.2198-0.2178 0.0992-0.35 0.0496-0.4859 0.0992-0.1342 0.0496-0.1621 0.0744-0.4056 0.0744-0.2429 0-0.3227-0.0496-0.2692-0.124 0 0 0.0759 0.05981 0.1444 0.05981 0.0409 0 0.0788-0.02042 0.0977-0.08315m1.053 0.1225c-0.0817-0.0248-0.0263-0.0992-0.0263-0.0992s0.1065-0.0496 0.215-0.0496c0.1065 0 0.0525 0.07294 0 0.1482-0.019 0.02334-0.0452 0.03063-0.0729 0.03063-0.0554 0-0.1152-0.03063-0.1152-0.03063m-1.917-0.0496c-0.1606-0.07294 0.1888-0.0992 0.1888-0.0992 0.0802 0.0248 0.1622 0.07294 0.0802 0.1482-0.0277 0.0248-0.0496 0.03501-0.0729 0.03501-0.0438 0-0.0919-0.03647-0.1961-0.08461m2.816 13.16c0.0146 0 0 0 0 0" style="fill:#000000;filter:url(#filter40999);stroke-width:.5146"/>
  <path d="m335.2 70.32c0.0656-0.01459 0.1371 0 0.2551 0.02188 0.3182 0.07294 0.5847 0.09628 0.7956 0.1694 0.2121 0.07148 0.1065 0.1918 0.5558 0.2156 0.4499 0.0248 0.5847 0.07148 0.716 0s0.4764-0.09482 0.0802-0.1444c-0.3972-0.04814-0.4508 0.0248-0.5573-0.09482-0.1065-0.1196-0.1848-0.0248-0.1313-0.193 0.0525-0.1682 0.105-0.1211 0.0525-0.2408-0.0525-0.1196 0.2651-0.143-0.0525-0.1196-0.3184 0.02334-0.2665 0.04668-0.4251 0.07148-0.159 0.0248-0.4487 0.215-0.3164 0.0248 0.1313-0.193 0.0263-0.193 0.2907-0.2899 0.264-0.09482 0.2924-0.09482 0.5562-0.1196 0.2651-0.0248 0.6352-0.0248 0.3968 0.09628-0.2388 0.1211-0.4241 0.193-0.2645 0.2172 0.1586 0.02334-0.2126 0.07148 0.2907 0.02334 0.5028-0.04814 0.5301-0.04814 0.7416-0.04814 0.2126 0 0.0788 0 0.2918-0.0248 0.2121-0.02334 0.5291-0.1444 0.3701-0.02334-0.158 0.1196-0.3964 0.02334-0.3701 0.1918 0.0263 0.1678-0.1065 0.193 0.1313 0.2408 0.2384 0.04814 0.2913 0.1444 0.105 0.1444-0.1847 0-0.105-0.04668-0.3437 0-0.0919 0.01896-0.1667 0.01459-0.227-5.84e-4 -0.0963-0.01459-0.1533-0.03063-0.1698 0.0744-0.0277 0.1667-0.158 0.2156 0.1328 0.2408 0.2918 0.02188 0.2104 0.04668 0.476-0.0248 0.105-0.02772 0.14-0.01459 0.1543 0 0.0219 0.02626-4.4e-4 0.05252 0.1109-0.07732 0.1853-0.2177 0.319-0.3613 0.2918-0.2414-0.0263 0.1196-0.0525 0.1444-0.1065 0.2172-0.0525 0.07148-0.0788 0.2156 0.0802 0.1211 0.157-0.09628 0.3437-0.0248 0.3437-0.2408 0-0.2168-0.1065-0.2414 0.0263-0.2899 0.1328-0.04814 0.2403-0.143 0.1065-0.143-0.1328 0-0.2382 0.04814-0.3705 0.02334-0.1313-0.02334-0.2378-0.02334-0.158-0.1196 0.0788-0.09628 0.0788-0.1444 0.3155-0.1672 0.2398-0.0248 0.0802 0 0.2398-0.0248 0.159-0.02334 0.1065-0.1694 0.159-0.02334 0.0525 0.1444-0.1065 0.1444 0.0525 0.1444 0.1596 0 0.2109 0 0.3443-0.07294 0.1342-0.07148 0.159-0.07148 0.264-0.1211 0.054-0.0248 0.0875 0.0248 0.1269 0.07148 0.0394 0.0496 0.0861 0.09628 0.1657 0.07294 0.158-0.04814 0.5023-0.09628 0.7148-0.09628 0.2109 0 0.1065 0 0.4251 0.09628 0.316 0.09628 0.5285 0.07294 0.6602 0.216 0.1328 0.143 0.2907 0.143 0.2907 0.2897 0 0.1444-0.212 0.2152 0.0277 0.264 0.089 0.0175 0.1549 0.01459 0.2079 0.01459 0.089 0 0.1386-0.01459 0.1879 0.08169 0.0788 0.1459 0.2131 0.216 0.0788 0.2655-0.1313 0.04668-0.158 0.04668-0.2912 0.04668-0.1313 0-0.4751-0.2152-0.3695-0.04668 0.108 0.1683 0.3174 0.1683 0.2918 0.264-0.0248 0.09774 0 0.1924-0.1596 0.1924-0.161 0-0.2378-0.0248-0.3184-0.04814-0.0788-0.02334-0.0263-0.2152-0.0788-0.02334-0.0525 0.192 0.2105 0.143-0.0525 0.192-0.2661 0.04814-0.2661 0.07148-0.3721-0.0248-0.1036-0.09628-0.1036-0.1211-0.212-0.1678-0.1065-0.0496 0.0277-0.07294-0.2372-0.07294-0.2667 0-0.3711 0.1196-0.3994 0-0.0248-0.1196 0.0277-0.191 0.2392-0.2152 0.0744-0.01459 0.1138 1e-3 0.143 0.01459 0.0525 0.0175 0.0744 0.03501 0.2274-0.06127 0.2392-0.143 0.478-0.07148 0.3716-0.264-0.105-0.192-0.1586-0.2635-0.3443-0.3119-0.1853-0.04814-0.2372-0.04814-0.4497-0.04814-0.2115 0-0.3182-0.04668-0.3182 0.07294 0 0.1196 0.0277 0.2156-0.0525 0.2646-0.0788 0.04668-0.054 0.1196-0.1863 0.143-0.1313 0.0248-0.1036 0.0248-0.2646 0.0248-0.158 0-0.3437 0.1692-0.2645 0 0.0817-0.1678 0-0.1459 0.1606-0.2419 0.1584-0.09482 0.2372-0.02188 0.2645-0.1905 0.0146-0.07878 0.0146-0.07878 0-0.07878s-0.0292 5.84e-4 -0.0584-0.1152c-0.0525-0.2166 0-0.04814-0.0525-0.2166-0.054-0.1678 0.2101-0.2635-0.054-0.1678-0.2645 0.09628-0.2645 0.04814-0.3958 0.143-0.1328 0.09628-0.1863 0.07294-0.1328 0.2408 0.051 0.1683 0.0262 0.193 0.1574 0.193 0.1328 0 0.3176 0.02334 0.1596 0.1444-0.1596 0.1211-0.2115 0.1211-0.1848 0.2404 0.0248 0.1196 0.1848 0.1196-0.054 0.2171-0.2372 0.09628-0.3437 0.2384-0.688 0.3597-0.3443 0.1211-0.4503 0.07148-0.7144 0.2398-0.2655 0.1694-0.3196 0.09774-0.3978 0.2887-0.0802 0.194-0.1584 0.1688-0.0525 0.3125 0.1065 0.1459 0.1853 0.193 0.3443 0.2408 0.1596 0.0496 0.2651 0.193 0.5028 0.2177 0.0729 0.01459 0.143 0 0.2042 0 0.1357 0 0.2213-0.01459 0.1673 0.0919-0.0788 0.143-0.2651 0.4072-0.1586 0.5285 0.105 0.1196 0.3186 0.263 0.4493 0 0.1328-0.2661 0.0525-0.3854 0.2382-0.5053 0.0686-0.04376 0.1328-0.0423 0.1936-0.04085 0.105 0 0.1996 0 0.2836-0.2249 0.1328-0.3597-0.0525-0.3123 0.1328-0.5043 0.1848-0.1926 0.2101-0.2877 0.317-0.4318 0.1065-0.1459 0.1863-0.09628 0.5023-0.04814 0.3196 0.04814 0.5574 0.264 0.4776 0.4334-0.0802 0.1682-0.2382 0.215-0.0802 0.2388 0.16 0.0248 0.212 0.0496 0.3972-0.1182 0.1869-0.1702 0.2651-0.2897 0.3454-0.1702 0.0773 0.1225 0.159 0.1444 0.1298 0.3386-0.0263 0.191-0.1574 0.143-0.0525 0.3119 0.108 0.1672 0.4257 0.1672 0.5055 0.3123 0.0788 0.143 0.2639 0.2661 0.0788 0.3371-0.1853 0.07294-0.1328 0.3113-0.1328 0.409 0 0.09628 0.1065 0.09628 0.212 0.2162 0.1065 0.1211 0.1853 0.2877 0.054 0.3119-0.1328 0.0248-0.054-0.04814-0.318-0.04814-0.2655 0-0.5825 0.04814-0.5568-0.0496 0.0262-0.09482 0.0525-0.1196 0.2105-0.2403 0.161-0.1211 0.2671-0.1444 0.2671-0.2893 0-0.1415 0-0.2388-0.1586-0.1415-0.161 0.09336-0.108 0.1899-0.319 0.1899-0.2115 0-0.2382-0.0248-0.4766-0.0248-0.2366 0-0.316-0.09628-0.5027 0-0.1869 0.09628-0.423 0.1934-0.4509 0.2651-0.0248 0.07294 0.1313 0.07294 0.264 0.0248 0.1342-0.04814 0.5316-0.04814 0.3978 0.04814-0.1313 0.09628-0.2635 0.1196-0.211 0.2398 0.054 0.1211 0.37 0.2172 0.477 0.1211 0.105-0.09628 0.4498-0.04814 0.318 0.04814-0.1342 0.09628-0.2126 0.2172-0.4251 0.2887-0.1123 0.03939-0.1873 0.02188-0.2604 0-0.0657-0.01459-0.1298-0.02918-0.2156 0-0.1853 0.04814-0.3449 0.04814-0.4508 0.0248-0.1065-0.0248-0.0788-0.07294-0.2368-0.04814-0.1606 0.02334-0.2136 0.1678-0.4498 0.3123-0.2388 0.1444-0.2929 0.1688-0.4772 0.3119-0.1877 0.1444-0.2136 0.2419-0.372 0.3612-0.16 0.1211-0.0248 0.1459-0.16 0.1211-0.1298-0.0248-0.1842-0.1444-0.2101-0.0248-0.0263 0.1211-0.0263 0.1444 0 0.2394 0.0263 0.09774 0.0802 0.1444 0.0263 0.2655-0.0525 0.1196-0.159 0.1459-0.3438 0.2414-0.1853 0.09482-0.1853 0.1196-0.4241 0.2635-0.2378 0.1459-0.3174 0.1211-0.37 0.3361-0.0525 0.2171-0.0263 0.316-0.0263 0.5552 0 0.2398 0.1328 0.4072-0.0263 0.4802-0.16 0.07148-0.3449-0.0496-0.3449-0.3371 0-0.2872-0.0277-0.4322-0.0277-0.4322s-0.1857-0.0496-0.3437-0.07294c-0.1596-0.02334-0.2661-0.04668-0.4514-0.04668-0.1842 0-0.2645-0.0248-0.2645 0.04668v0.1945s0 0.09482-0.1313 0.07002c-0.1328-0.02188-0.1842-0.04668-0.319-0.09628-0.1313-0.04522 0.108-0.1915-0.3164-0.04522-0.4236 0.1415-0.5568 0.1415-0.6352 0.3824-0.0802 0.2408-0.0277 0.2881-0.1328 0.456-0.1065 0.1698-0.2392 0.2902-0.1863 0.5536 0.054 0.2661 0.108 0.578 0.2651 0.6254 0.159 0.0496 0.317 0.0496 0.5578 0.02334 0.2368-0.02334 0.2893-0.1196 0.3972-0.2624 0.105-0.1459 0.2368-0.2419 0.4483-0.2419 0.2136 0 0.2656 0.0248 0.108 0.2419-0.159 0.2146-0.4255 0.4086-0.3457 0.5996 0.0802 0.193 0.1594 0.1211 0.3972 0.09774 0.2384-0.02626 0.4251 0.02334 0.4503 0.1196 0.0277 0.09482 0.1328 0.2392 0.0525 0.3345-0.0788 0.09628 0.0277 0.4343 0.0277 0.4343s0 0.0496 0.0788 0.2162c0.0788 0.1678 0.1065 0.2156 0.2115 0.1914 0.1065-0.02334 0.1594-0.2382 0.2922-0.2382s0.0788 0 0.2121 0.09336c0.1313 0.09628 0.2378 0.09628 0.2378 0.09628s0 0.01459-0.0146 0.02188c0.1663-0.3021 0.5558-0.3514 0.5558-0.3514s0.1357-0.1225 0.3233-0.2193c0.1904-0.09774 0 0.04668 0.0817 0.195 0.0817 0.1472 0 0 0.2433-0.09774 0.2435-0.09628 0 0 0.2681 0.02626 0.2708 0.02334 0 0 0.1632 0.1704 0.108 0.1138 0.108 0.09774 0.1904 0.08169 0.0423-0.01459 0.105-0.01605 0.2136-0.01459 0.3241 0.02334 0.405 0.05106 0.7842 0.1971 0.3768 0.1459 0.1342 0.04814 0.4837 0.3901 0.2744 0.2702 0.2516 0.2681 0.3449 0.2671 0.0263-4.38e-4 0.0613-1e-3 0.1152 0 0.2429 0.0248 0.6201 0.1708 0.7822 0.3443 0.1627 0.1688 0.108 0.2187 0.1627 0.3891 0.0525 0.1724 0.1889 0.1724 0.4045 0.3695 0.2156 0.1966 0.2697 0.07002 0.5409 0.2209 0.2686 0.146 0.1873 0.07294 0.5656 0.1708 0.3783 0.09774 0.2162 0.07294 0.5403 0.2449 0.3233 0.1724 0.2425 0.1459 0.5924 0.2687 0.352 0.1225 0.0802 0.2207 0.054 0.4915-0.0277 0.2691-0.5122 0.6855-0.647 0.9557-0.1342 0.2691-0.0277 0.3905-0.0277 0.6124 0 0.2213 0 0.2455-0.108 0.4899-0.1094 0.2465-0.1357 0.2465-0.216 0.3685-0.0817 0.1225-0.243 0.318-0.4055 0.318-0.1616 0-0.2172 0-0.5132 0.2223-0.2958 0.2193-0.2692 0.3155-0.2433 0.5363 0.0277 0.2203 0 0.0992-0.0263 0.1977-0.0263 0.09628 0 0-0.1357 0.1225-0.1357 0.1211 0 0.09774-0.0263 0.194-0.0263 0.0992-0.0802 0.1468-0.1094 0.2209-0.0263 0.0744-0.1328 0.1708-0.1878 0.2464-0.0525 0.07148-0.1895 0.2939-0.4041 0.3412-0.215 0.05106-0.3783-0.02334-0.4328 0.1007-0.0525 0.1225 0 0 0.0817 0.1225 0.0817 0.124 0.0263 0.07294 0.054 0.2691 0.0277 0.1965 0 0.09774-0.216 0.2944-0.2147 0.1961-0.2147 0-0.3783 0-0.1622 0-0.1328 0.09774-0.1328 0.1718 0 0.07294 0 0.0992-0.0817 0.1225-0.0802 0.0248-0.108 0.0248-0.1878 0.1478-0.0438 0.06419-0.0409 0.06127-0.0175 0.05689 0.0204 0 0.0598 0 0.0977 0.04085 0.0802 0.0992 0.0802 0.04668 0.0802 0.1965 0 0.1462-0.0263 0.0992-0.054 0.2445-0.0277 0.1482 0 0-0.1627 0.1735-0.0904 0.09628-0.0788 0.08315-0.0525 0.07294 0.0219-0.01459 0.0525-0.01751 0.0525 0.02334 0 0.09774 0.0277 0.0744 0.1094 0.195 0.0802 0.1225 0.1342 0.0992 0.1611 0.1965 0.0263 0.09774 0 0-0.0277 0.2455-0.0161 0.1444-0.0146 0.1196-0.019 0.09336 0-0.01751-0.0146-0.03501-0.035 0-0.054 0.09774-0.0802 0.07294-0.0802 0.172 0 0.09774 0 0 0.054 0.1708 0.0306 0.1007 0.0263 0.08315-0.0146 0.0671-0.0263-0.01459-0.0686-0.02334-0.124 0-0.1328 0.0744 0 0.0992 0 0.0992l0.108 0.04814c0.108 0.0496 0 0 0.108-0.04814 0.1094-0.0496 0.0817 0.09774 0.1895 0.1462 0.1065 0.0496 0.0802 0.07294 0.1621 0.1225 0.0802 0.0496 0.0802 0.0496 0.1621 0.09774 0.0802 0.04814 0.0525 0.07294-0.0263 0.09774-0.0817 0.02334-0.0817 0-0.3506 0h-0.1898c-0.1895 0-0.054-0.0248-0.054-0.0248s-0.108-0.04814-0.3227-0.1459c-0.0977-0.04522-0.1065-0.0496-0.1036-0.04814-0.0146 0-0.0263-0.01459-0.0584-0.02772-0.1627-0.07294-0.0817-0.04814-0.1371-0.1718-0.0277-0.06419-0.0277-0.06127-0.0219-0.05689 0 0 0.0146 0 0-0.03939-0.0277-0.09774-0.0554-0.0744-0.0554-0.0744l-0.1615-0.09482s-0.054-0.02626-0.1899-0.1735c-0.07-0.07732-0.0671-0.07294-0.0554-0.07002 0.0146 0 0.0277 0 0-0.05252-0.054-0.1225-0.0263-0.0744-0.1342-0.2942-0.0642-0.1328-0.0511-0.1065-0.0365-0.07877 0.0146 0.01751 0.019 0.03501 0.0146 0-0.0263-0.07294 0.0817-0.09774 0.0817-0.1966 0-0.05543 0-0.04668-0.0248-0.03939-0.019 0-0.0511 0.01459-0.108-0.01459-0.1342-0.0496 0 0-0.0263-0.07586-0.0292-0.07148-0.108-0.3644-0.108-0.3644s-0.0277-0.07586-0.0832-0.246c-0.054-0.173 0 0 0.0832 0 0.0802 0 0.108 0.2193 0.1342 0.09628 0.0248-0.1211-0.0263-0.1211-0.1094-0.2691-0.0802-0.146-0.0802-0.07148-0.108-0.2691-0.0263-0.195-0.054-0.195-0.1065-0.5135-0.0525-0.3196 0.0525-0.3943 0.0802-0.6624 0.0263-0.2706-0.1328-0.3921-0.1328-0.7586 0-0.3679 0-0.4414 0.0248-0.7606 0.0277-0.319-0.054-0.8563-0.0802-1.103-0.0277-0.2443-0.2152-0.2938-0.6201-0.5141-0.4045-0.2213-0.4328-0.2449-0.5666-0.4169-0.1371-0.1713-0.4868-0.9304-0.6757-1.25-0.1899-0.319-0.4041-0.4919-0.3227-0.6859 0.0802-0.1961 0.1065-0.2944 0.0802-0.4658-0.0263-0.1724-0.0263-0.1955 0.1888-0.2954 0.2152-0.0992 0.1885-0.1698 0.3489-0.5136 0.1643-0.3417 0.0292-0.3915 0.1036-0.8759-0.0525 0.1683-0.0788 0.2408-0.0788 0.2408s-0.0788-0.1211-0.1857-0.216c-0.105-0.09628-0.2126-0.2172-0.2656-0.09628-0.0511 0.1196 0.0277 0.2398-0.0788 0.1914-0.108-0.04668-0.0263-0.04668-0.1869-0.143-0.158-0.09628-0.105-0.07294-0.2109-0.1934-0.1065-0.1211 0.1853-0.1211-0.1065-0.1211-0.2928 0-0.317 0.07294-0.3443-0.09482-0.0277-0.1683 0.0511-0.2897-0.0788-0.3361-0.0554-0.02042-0.0875-0.01459-0.1182 0-0.0423 0.01459-0.0802 0.02334-0.1734-0.04668-0.159-0.1211-0.054-0.07148-0.3174-0.193-0.2656-0.1196-0.2923-0.07148-0.5574-0.2883-0.2645-0.2152-0.3984-0.2645-0.4766-0.2152-0.0788 0.0496-0.5558 0.1689-0.9793-0.1692-0.4231-0.3376-0.5039-0.2651-0.5039-0.4581 0-0.1904 0.2378-0.09482 0.0525-0.4082-0.1853-0.3128-0.3972-0.601-0.5562-0.8661-0.1596-0.264-0.2923-0.2867-0.2923-0.5049 0-0.216 0.054-0.2871-0.0788-0.337-0.1328-0.04814-0.2382-0.2398-0.2651-0.04814-0.0248 0.1936-0.054 0.2404 0.0263 0.3844 0.0788 0.1459 0.0788 0.2182 0.158 0.3613 0.0802 0.143 0.0277 0.1924 0.1065 0.3129 0.0788 0.1211 0.2378 0.215 0.1842 0.3622-0.0525 0.143-0.0788 0.1196-0.1584 0.02188-0.0788-0.09628-0.1328-0.07148-0.1848-0.1915-0.054-0.1196 0.1065 0 0.0525-0.1196-0.0525-0.1211 0.054-0.09628-0.105-0.1926-0.0671-0.04085-0.0919-0.02918-0.1036-0.01751-0.016 0.01605-0.0146 0.03209-0.054-0.07878-0.0802-0.193 0.0263-0.09628 0.0263-0.2398 0-0.1444-0.0525-0.1196-0.1313-0.2392-0.0802-0.1225-0.0277-0.195-0.054-0.4123-0.0263-0.2142-0.0263-0.192-0.2101-0.3829-0.1857-0.193-0.2651-0.4575-0.2136-1.203 0.054-0.7456 0.4509-0.9376 0.5837-1.083 0.1313-0.143 0.212-0.2883 0.0554-0.4324-0.1605-0.1459-0.2681-0.1459-0.2408-0.2413 0.0263-0.09628 0.2651-0.09628 0.3443 0.0248 0.0802 0.1196 0.054 0.3134 0.1858 0.3134 0.1328 0 0.2645-0.1196 0.1328-0.2419-0.1328-0.1196-0.2913-0.1415-0.3449-0.3355-0.0175-0.0671-0.0394-0.1109-0.0569-0.1488-1.612 2.166-2.568 4.851-2.568 7.758 0 7.179 5.82 13 13 13 5.013 0 9.359-2.838 11.53-6.993v-0.1708c0-0.2887-0.2372-0.1444-0.3176-0.77-0.0773-0.6263 0.1328-0.8883 0.2923-1.083 0.1596-0.192-0.0525-0.3129-0.1065-0.5043-0.0525-0.1914-0.1328-0.2893-0.1328-0.6006 0-0.3139-0.53-0.5063-0.636-0.7221-0.108-0.2166-0.0263-0.2166 0.054-0.5295 0.0802-0.3134 0.2382-0.407 0-0.5768-0.1371-0.09628-0.2492-0.0744-0.3644-0.05106-0.0846 0.01751-0.1708 0.03355-0.2712 0-0.2388-0.07148-0.1863-0.4076-0.5568-0.385-0.3705 0.02334-0.317 0.1672-0.5821 0.2877-0.1564 0.07148-0.3123 0.03355-0.4801 0-0.1167-0.02626-0.2378-0.05252-0.3685-0.0423-0.3155 0.02334-0.2115 0.09628-0.4751 0.09628-0.2655 0-0.3453-0.17-0.4775-0.4098-0.1328-0.2398-0.5033-0.3854-0.6093-0.5538-0.1065-0.1667-0.4257-0.6495-0.4487-0.8403-0.0277-0.1936 0.0233-0.3367 0.1298-0.7231 0.1065-0.3829-0.054-0.1914-0.1298-0.3123-0.0817-0.1196 0.0233-0.3115 0.1574-0.5281 0.1328-0.2172 0.2372-0.4096 0.4766-0.6979 0.2368-0.2877 0.1837-0.1934 0.4776-0.3117 0.2902-0.1196 0.1298-0.4344 0.2104-0.6264 0.0802-0.191 0.0802-0.1196 0.2923-0.2419 0.2115-0.1182 0.2115-0.2146 0.4236-0.3818 0.2109-0.1683 0.2388 0 0.5033 0.02188 0.2655 0.0248 0.2378-0.02188 0.4776-0.1196 0.2362-0.09628 0.371-0.1211 0.6623-0.2171 0.1826-0.05981 0.3129-0.05398 0.4909-0.04668 0.1036 0 0.2245 0.01459 0.3819 0 0.4257-0.02188 0.212 0.1698 0.1858 0.4343-0.0263 0.2651-0.054 0.2168 0.0773 0.3357 0.1342 0.1211 0.5049 0.1211 0.7168 0.1459 0.2109 0.0248 0.158 0.07148 0.37 0.191 0.2131 0.1211 0.2394 0.1462 0.4519 0.2166 0.0248 0.01459 0.0452 0.01459 0.0598 0.01459-0.1775-0.6006-0.3968-1.182-0.6572-1.744 0 0.03793 0.0146 0.08315 0.0146 0.143 0 0.1444-0.1328 0.1694-0.2928 0.264-0.1584 0.09628-0.1313 0-0.2924-0.09482-0.1574-0.09628 0.0277-0.09628 0.2671-0.09628 0.2368 0 0.1596-0.09774 0.1853-0.2413 0.0263-0.1444-0.0802-0.1667-0.2382-0.2398-0.158-0.07294-0.1859-0.07294-0.4514-0.192-0.2645-0.1196-0.158-0.1694-0.3438-0.2897-0.1847-0.1196-0.159-0.1444-0.372-0.04814-0.2101 0.09628-0.1565 0.07294-0.423 0.09628-0.2645 0.02626-0.1313 0-0.2645 0.09774-0.1342 0.09774-0.0802 0.1196-0.1858 0.264-0.1065 0.1462-0.16 0.07294-0.3427 0.2419-0.1869 0.1672 0 0-0.0292 0.2639-0.0248 0.2656-0.0773 0.09628-0.3433 0.2656-0.1637 0.105-0.2162 0.08753-0.263 0.07294-0.0292-0.01459-0.0569-0.02042-0.1065-0.0015-0.1328 0.04668-0.1602 0.09774-0.3182 0.02626-0.1594-0.0744-0.1065-0.09628-0.213-0.1225-0.1036-0.02188-0.1853-0.09482-0.2384-0.264-0.0525-0.1682 0.0277-0.1682 0.1065-0.3597 0.0802-0.1924-0.0263-0.1924-0.0263-0.3123 0-0.1211 0.054-0.1704 0.1313-0.1704 0.0802 0 0.37 0.02626 0.5295 0.02626h0.3978s0.16-0.07294 0.16-0.2492c0-0.1759 0.089-0.2563-0.089-0.3524-0.177-0.09628-0.177-0.06273-0.283-0.1444-0.105-0.08023-0.1765-0.1284-0.0175-0.1914 0.1596-0.06419 0.247-0.0496 0.3891-0.1284 0.1386-0.08169 0.3341-0.1444 0.228-0.1755-0.1065-0.03355-0.1065-0.03355-0.228-0.03355-0.1255 0-0.1065 0-0.2655 0.04814-0.1596 0.0496-0.2301 0.2408-0.2301 0.0496 0-0.193-0.016-0.08023 0.019-0.2567 0.035-0.1771-0.124-0.0496 0.035-0.1771 0.1596-0.1269 0.2476-0.08023 0.195-0.1914-0.054-0.1123 0.105 0-0.054-0.1123-0.16-0.1138-0.035-0.1611-0.16-0.1138-0.0146 0-0.0248 0.01459-0.035 0.01459 0-0.01459-0.0146-0.02626-0.035-0.06127-0.0875-0.1444-0.1602-0.08169-0.124-0.2254 0.0365-0.143-0.1584-0.1109 0.1065-0.2085 0.2651-0.09628 0.3186-0.159 0.388-0.07878 0.0715 0.07878 0.1771 0.1138 0.1065 0.2089-0.0729 0.09482-0.1255 0.1767-0.054 0.2713 0.07 0.09628 0.124 0.1284 0.2136 0.2089 0.0875 0.08023-0.0175 0.1284 0.1211 0.1765 0.143 0.04814 0.2655 0.08023 0.2305 0.1749-0.035 0.09774-0.1594 0.2728-0.0175 0.2095 0.1415-0.06419 0.1576-0.1459 0.3345-0.2728 0.1765-0.1269 0.246-0.1123 0.442-0.1914 0.0934-0.03793 0.158-0.04085 0.1946-0.0496-1.006-1.294-2.252-2.394-3.672-3.231-0.0204 0.03355-0.0511 0.07586-0.1529 0.2249-0.2136 0.318-0.0802 0.09774-0.3221 0.3443-0.2439 0.2439-0.1371 0.1462-0.6747 0.195-0.5399 0.0496-0.4595 0.1462-0.7555 0.2934-0.2974 0.1492-0.405 0.1492-0.9459 0.2944-0.5393 0.1472-0.406 0.3675-0.6201 0.6134-0.2156 0.246-0.1616 0.195-0.5672 0.07294-0.4039-0.1211-0.4848-0.44-0.4848-0.9304 0-0.3376 0.1036-0.3376 0.2553-0.3371 0.0686 0 0.1462 0 0.2295-0.03064 0.2703-0.09774-0.0263-0.1708-0.1065-0.2928-0.0817-0.124-0.1616-0.124-0.0817-0.2958 0.0817-0.171 0-0.1225-0.16-0.3422-0.1138-0.1539-0.2403-0.14-0.563-0.1269-0.14 0-0.3155 0.01459-0.543 0-0.7565-0.02626-0.2424-0.0744-0.1894-0.2696 0.0365-0.1342 0.2624-0.1196 0.512-0.1036 0.1167 0 0.2392 0.01459 0.3504 0 0.351-0.0248 0.1616-0.1211-0.054-0.2213-0.215-0.09628-0.35 0-0.6751 0.07586-0.3233 0.07148-0.4565 0.1459-0.6743 0.195-0.2146 0.0496-0.3231 0.0992-0.6737 0.2445-0.352 0.1487-0.2171 0.1225-0.4589 0.2213-0.2445 0.0992-0.1612 0.0496-0.4308 0.0496-0.2712 0-0.2712-0.02334-0.5399-0.02334-0.2706 0-0.1615-0.02626-0.2439-0.1981-0.0802-0.1708 0.1357 0 0.3506 0.02626 0.216 0.0248 0.1898-0.02626 0.46-0.09774 0.2692-0.07294 0.3237-0.1466 0.6201-0.3443 0.2964-0.195-0.1625-0.1211-0.351-0.1211-0.1898 0-0.1621 0.0496-0.3783 0.1211-0.215 0.07294-0.2429 0.0496-0.4306-0.0248-0.1883-0.07294 0.108-0.1704 0.2156-0.2681 0.108-0.09774 0.3504 0 0.512 0.02334 0 0 0.3231-0.04814 0.5682-0.07294 0.2413-0.0248 0.2954-0.0744 0.8069-0.124 0.2919-0.02626 0.4797-0.02334 0.6706-0.01896h0.4899c0.4597-0.02334 0.3788 0 0.7026 0.0248 0.3247 0.02626 0.2166 0.0992-0.0263 0.124-0.2433 0.0248-0.1357 0.07294-0.0263 0.1466 0.1065 0.0744 0.2964-0.0744 0.4848-0.0744s0.2702-0.04814 0.7292-0.1704c0.0977-0.02626 0.1961-0.04668 0.294-0.06127-1.177-0.351-2.424-0.5415-3.715-0.5415-2.75 0-5.3 0.8559-7.399 2.313m3.696-0.8549c0.1357 0 0.2702 0.02626 0.2423 0.1724-0.0263 0.1476-0.3231 0-0.4858 0-0.1616 0-0.2419 0.07294-0.4581 0.1225-0.2166 0.0496-0.3258-0.0496-0.3767-0.1704-0.0554-0.124 0.4575-0.124 0.4575-0.124s0.1357 0.05106 0.3237 0.05106c0.1883 0 0.1627-0.05106 0.297-0.05106m1.105 1.79c0.1342-0.0992 0.1622-0.1955 0.3516-0.1225 0.1899 0.0744 0.4595 0.2708 0.3231 0.2944-0.1328 0.0248-0.0802-0.02334-0.2423-0.0496-0.1621-0.02334-0.1883 0-0.2974 0.0496-0.1065 0.0496-0.1065 0.0744-0.1879 0.0744 0 0-0.0802-0.1472 0.0525-0.2461m10.2 2.262c-0.0175-0.1284 0.0686-0.1284 0.0686-0.2551 0-0.1284-0.0525-0.1284-0.0161-0.2105 0.035-0.07878-0.0525-0.06273 0.089-0.1269 0.1386-0.06419 0.1576-0.07877 0.2635-0.07877 0.105 0 0.07 0.06273 0.194 0.01459 0.0686-0.02772 0.1269 0 0.1482 0.01459-0.0875 0.02772-0.1152 0.01751-0.1313 0.1298-0.0175 0.1298 0.07 0.177-0.0175 0.3046-0.089 0.1284-0.054 0.1459-0.2449 0.1627-0.1415 0.01459-0.2543 0.09628-0.3123 0.09628-0.0233 0-0.0365-0.01459-0.0423-0.0496m-13.19 5.235c0.054-0.09628 0.3504-0.1459 0.3504-0.1459s0.2439 0 0.4338 0.0496c0.1873 0.04814 0.1873 0.09628 0.3772 0.2193 0.1894 0.1225 0.2146 0.0496 0.3514 0.0992 0.1328 0.04668 0.1328 0.1211 0 0.1694-0.1371 0.0496-0.1371 0-0.3514-0.07294-0.2166-0.07294-0.2166-0.1478-0.35-0.2193-0.1371-0.0744-0.2449-0.124-0.5676-0.05106-0.1284 0.02918-0.2018 0.0423-0.2404 0.0423-0.0598 0-0.0365-0.03209 0-0.09336m1.809 0.6635c0.054-0.173-0.1357-0.0992 0.054-0.173 0.1883-0.07148 0.4029-0.1459 0.5656-0.07148 0.1616 0.07148 0.5131 0.1225 0.298 0.2198-0.2178 0.0992-0.35 0.0496-0.4859 0.0992-0.1342 0.0496-0.1621 0.0744-0.4056 0.0744-0.2429 0-0.3227-0.0496-0.2692-0.124 0 0 0.0759 0.05981 0.1444 0.05981 0.0409 0 0.0788-0.02042 0.0977-0.08315m1.053 0.1225c-0.0817-0.0248-0.0263-0.0992-0.0263-0.0992s0.1065-0.0496 0.215-0.0496c0.1065 0 0.0525 0.07294 0 0.1482-0.019 0.02334-0.0452 0.03063-0.0729 0.03063-0.0554 0-0.1152-0.03063-0.1152-0.03063m-1.917-0.0496c-0.1606-0.07294 0.1888-0.0992 0.1888-0.0992 0.0802 0.0248 0.1622 0.07294 0.0802 0.1482-0.0277 0.0248-0.0496 0.03501-0.0729 0.03501-0.0438 0-0.0919-0.03647-0.1961-0.08461m2.816 13.16c0.0146 0 0 0 0 0" style="fill:#000000;stroke-width:.5146"/>
  <path transform="matrix(.382 0 0 .382 323.2 61.76)" d="m34.76 20.33-0.7246 0.1445-0.2129 0.4238s0.5071-0.1666 0.5645-0.1953zm1.324 0.6465s-0.8507 0.2356-0.9141 0.3047c-0.06335 0.06898 0.7539 0.5352 0.7539 0.5352l0.5566-0.4316zm-3.65 0.7891-1.326 0.2402 0.4004 0.4004zm8.633 0.5352-0.4648 0.5391 0.5918-0.1211zm1.174 0.498-0.2871 0.005859-0.8633 0.3203 0.1211 0.08789c0.1401 0.1362 0.2935 0.4748 0.4199 0.3906l0.3672-0.168 0.6328-0.2012zm-4.295 0.005859-1.227 0.3633 1.594 0.02344zm0.293 0.07031 0.01953 0.1602 0.3848 0.3906 0.1934-0.2344zm10.71 3.816-0.752 0.4121 0.3301 0.4336z" style="fill:#000000"/>
  <path d="m335.1 70.17c0.0656-0.01459 0.1371 0 0.2551 0.02188 0.3182 0.07294 0.5847 0.09628 0.7956 0.1694 0.2121 0.07148 0.1065 0.1918 0.5558 0.2156 0.4499 0.0248 0.5847 0.07148 0.716 0s0.4764-0.09482 0.0802-0.1444c-0.3972-0.04814-0.4508 0.0248-0.5573-0.09482-0.1065-0.1196-0.1848-0.0248-0.1313-0.193 0.0525-0.1682 0.105-0.1211 0.0525-0.2408-0.0525-0.1196 0.2651-0.143-0.0525-0.1196-0.3184 0.02334-0.2665 0.04668-0.4251 0.07148-0.159 0.0248-0.4487 0.215-0.3164 0.0248 0.1313-0.193 0.0263-0.193 0.2907-0.2899 0.264-0.09482 0.2924-0.09482 0.5562-0.1196 0.2651-0.0248 0.6352-0.0248 0.3968 0.09628-0.2388 0.1211-0.4241 0.193-0.2645 0.2172 0.1586 0.02334-0.2126 0.07148 0.2907 0.02334 0.5028-0.04814 0.5301-0.04814 0.7416-0.04814 0.2126 0 0.0788 0 0.2918-0.0248 0.2121-0.02334 0.5291-0.1444 0.3701-0.02334-0.158 0.1196-0.3964 0.02334-0.3701 0.1918 0.0263 0.1678-0.1065 0.193 0.1313 0.2408 0.2384 0.04814 0.2913 0.1444 0.105 0.1444-0.1847 0-0.105-0.04668-0.3437 0-0.0919 0.01896-0.1667 0.01459-0.227-5.84e-4 -0.0963-0.01459-0.1533-0.03063-0.1698 0.0744-0.0277 0.1667-0.158 0.2156 0.1328 0.2408 0.2918 0.02188 0.2104 0.04668 0.476-0.0248 0.105-0.02772 0.14-0.01459 0.1543 0 0.0219 0.02626-4.4e-4 0.05252 0.1109-0.07732 0.1853-0.2177 0.319-0.3613 0.2918-0.2414-0.0263 0.1196-0.0525 0.1444-0.1065 0.2172-0.0525 0.07148-0.0788 0.2156 0.0802 0.1211 0.157-0.09628 0.3437-0.0248 0.3437-0.2408 0-0.2168-0.1065-0.2414 0.0263-0.2899 0.1328-0.04814 0.2403-0.143 0.1065-0.143-0.1328 0-0.2382 0.04814-0.3705 0.02334-0.1313-0.02334-0.2378-0.02334-0.158-0.1196 0.0788-0.09628 0.0788-0.1444 0.3155-0.1672 0.2398-0.0248 0.0802 0 0.2398-0.0248 0.159-0.02334 0.1065-0.1694 0.159-0.02334 0.0525 0.1444-0.1065 0.1444 0.0525 0.1444 0.1596 0 0.2109 0 0.3443-0.07294 0.1342-0.07148 0.159-0.07148 0.264-0.1211 0.054-0.0248 0.0875 0.0248 0.1269 0.07148 0.0394 0.0496 0.0861 0.09628 0.1657 0.07294 0.158-0.04814 0.5023-0.09628 0.7148-0.09628 0.2109 0 0.1065 0 0.4251 0.09628 0.316 0.09628 0.5285 0.07294 0.6602 0.216 0.1328 0.143 0.2907 0.143 0.2907 0.2897 0 0.1444-0.212 0.2152 0.0277 0.264 0.089 0.0175 0.1549 0.01459 0.2079 0.01459 0.089 0 0.1386-0.01459 0.1879 0.08169 0.0788 0.1459 0.2131 0.216 0.0788 0.2655-0.1313 0.04668-0.158 0.04668-0.2912 0.04668-0.1313 0-0.4751-0.2152-0.3695-0.04668 0.108 0.1683 0.3174 0.1683 0.2918 0.264-0.0248 0.09774 0 0.1924-0.1596 0.1924-0.161 0-0.2378-0.0248-0.3184-0.04814-0.0788-0.02334-0.0263-0.2152-0.0788-0.02334-0.0525 0.192 0.2105 0.143-0.0525 0.192-0.2661 0.04814-0.2661 0.07148-0.3721-0.0248-0.1036-0.09628-0.1036-0.1211-0.212-0.1678-0.1065-0.0496 0.0277-0.07294-0.2372-0.07294-0.2667 0-0.3711 0.1196-0.3994 0-0.0248-0.1196 0.0277-0.191 0.2392-0.2152 0.0744-0.01459 0.1138 1e-3 0.143 0.01459 0.0525 0.0175 0.0744 0.03501 0.2274-0.06127 0.2392-0.143 0.478-0.07148 0.3716-0.264-0.105-0.192-0.1586-0.2635-0.3443-0.3119-0.1853-0.04814-0.2372-0.04814-0.4497-0.04814-0.2115 0-0.3182-0.04668-0.3182 0.07294 0 0.1196 0.0277 0.2156-0.0525 0.2646-0.0788 0.04668-0.054 0.1196-0.1863 0.143-0.1313 0.0248-0.1036 0.0248-0.2646 0.0248-0.158 0-0.3437 0.1692-0.2645 0 0.0817-0.1678 0-0.1459 0.1606-0.2419 0.1584-0.09482 0.2372-0.02188 0.2645-0.1905 0.0146-0.07878 0.0146-0.07878 0-0.07878s-0.0292 5.84e-4 -0.0584-0.1152c-0.0525-0.2166 0-0.04814-0.0525-0.2166-0.054-0.1678 0.2101-0.2635-0.054-0.1678-0.2645 0.09628-0.2645 0.04814-0.3958 0.143-0.1328 0.09628-0.1863 0.07294-0.1328 0.2408 0.051 0.1683 0.0262 0.193 0.1574 0.193 0.1328 0 0.3176 0.02334 0.1596 0.1444-0.1596 0.1211-0.2115 0.1211-0.1848 0.2404 0.0248 0.1196 0.1848 0.1196-0.054 0.2171-0.2372 0.09628-0.3437 0.2384-0.688 0.3597-0.3443 0.1211-0.4503 0.07148-0.7144 0.2398-0.2655 0.1694-0.3196 0.09774-0.3978 0.2887-0.0802 0.194-0.1584 0.1688-0.0525 0.3125 0.1065 0.1459 0.1853 0.193 0.3443 0.2408 0.1596 0.0496 0.2651 0.193 0.5028 0.2177 0.0729 0.01459 0.143 0 0.2042 0 0.1357 0 0.2213-0.01459 0.1673 0.0919-0.0788 0.143-0.2651 0.4072-0.1586 0.5285 0.105 0.1196 0.3186 0.263 0.4493 0 0.1328-0.2661 0.0525-0.3854 0.2382-0.5053 0.0686-0.04376 0.1328-0.0423 0.1936-0.04085 0.105 0 0.1996 0 0.2836-0.2249 0.1328-0.3597-0.0525-0.3123 0.1328-0.5043 0.1848-0.1926 0.2101-0.2877 0.317-0.4318 0.1065-0.1459 0.1863-0.09628 0.5023-0.04814 0.3196 0.04814 0.5574 0.264 0.4776 0.4334-0.0802 0.1682-0.2382 0.215-0.0802 0.2388 0.16 0.0248 0.212 0.0496 0.3972-0.1182 0.1869-0.1702 0.2651-0.2897 0.3454-0.1702 0.0773 0.1225 0.159 0.1444 0.1298 0.3386-0.0263 0.191-0.1574 0.143-0.0525 0.3119 0.108 0.1672 0.4257 0.1672 0.5055 0.3123 0.0788 0.143 0.2639 0.2661 0.0788 0.3371-0.1853 0.07294-0.1328 0.3113-0.1328 0.409 0 0.09628 0.1065 0.09628 0.212 0.2162 0.1065 0.1211 0.1853 0.2877 0.054 0.3119-0.1328 0.0248-0.054-0.04814-0.318-0.04814-0.2655 0-0.5825 0.04814-0.5568-0.0496 0.0262-0.09482 0.0525-0.1196 0.2105-0.2403 0.161-0.1211 0.2671-0.1444 0.2671-0.2893 0-0.1415 0-0.2388-0.1586-0.1415-0.161 0.09336-0.108 0.1899-0.319 0.1899-0.2115 0-0.2382-0.0248-0.4766-0.0248-0.2366 0-0.316-0.09628-0.5027 0-0.1869 0.09628-0.423 0.1934-0.4509 0.2651-0.0248 0.07294 0.1313 0.07294 0.264 0.0248 0.1342-0.04814 0.5316-0.04814 0.3978 0.04814-0.1313 0.09628-0.2635 0.1196-0.211 0.2398 0.054 0.1211 0.37 0.2172 0.477 0.1211 0.105-0.09628 0.4498-0.04814 0.318 0.04814-0.1342 0.09628-0.2126 0.2172-0.4251 0.2887-0.1123 0.03939-0.1873 0.02188-0.2604 0-0.0657-0.01459-0.1298-0.02918-0.2156 0-0.1853 0.04814-0.3449 0.04814-0.4508 0.0248-0.1065-0.0248-0.0788-0.07294-0.2368-0.04814-0.1606 0.02334-0.2136 0.1678-0.4498 0.3123-0.2388 0.1444-0.2929 0.1688-0.4772 0.3119-0.1877 0.1444-0.2136 0.2419-0.372 0.3612-0.16 0.1211-0.0248 0.1459-0.16 0.1211-0.1298-0.0248-0.1842-0.1444-0.2101-0.0248-0.0263 0.1211-0.0263 0.1444 0 0.2394 0.0263 0.09774 0.0802 0.1444 0.0263 0.2655-0.0525 0.1196-0.159 0.1459-0.3438 0.2414-0.1853 0.09482-0.1853 0.1196-0.4241 0.2635-0.2378 0.1459-0.3174 0.1211-0.37 0.3361-0.0525 0.2171-0.0263 0.316-0.0263 0.5552 0 0.2398 0.1328 0.4072-0.0263 0.4802-0.16 0.07148-0.3449-0.0496-0.3449-0.3371 0-0.2872-0.0277-0.4322-0.0277-0.4322s-0.1857-0.0496-0.3437-0.07294c-0.1596-0.02334-0.2661-0.04668-0.4514-0.04668-0.1842 0-0.2645-0.0248-0.2645 0.04668v0.1945s0 0.09482-0.1313 0.07002c-0.1328-0.02188-0.1842-0.04668-0.319-0.09628-0.1313-0.04522 0.108-0.1915-0.3164-0.04522-0.4236 0.1415-0.5568 0.1415-0.6352 0.3824-0.0802 0.2408-0.0277 0.2881-0.1328 0.456-0.1065 0.1698-0.2392 0.2902-0.1863 0.5536 0.054 0.2661 0.108 0.578 0.2651 0.6254 0.159 0.0496 0.317 0.0496 0.5578 0.02334 0.2368-0.02334 0.2893-0.1196 0.3972-0.2624 0.105-0.1459 0.2368-0.2419 0.4483-0.2419 0.2136 0 0.2656 0.0248 0.108 0.2419-0.159 0.2146-0.4255 0.4086-0.3457 0.5996 0.0802 0.193 0.1594 0.1211 0.3972 0.09774 0.2384-0.02626 0.4251 0.02334 0.4503 0.1196 0.0277 0.09482 0.1328 0.2392 0.0525 0.3345-0.0788 0.09628 0.0277 0.4343 0.0277 0.4343s0 0.0496 0.0788 0.2162c0.0788 0.1678 0.1065 0.2156 0.2115 0.1914 0.1065-0.02334 0.1594-0.2382 0.2922-0.2382s0.0788 0 0.2121 0.09336c0.1313 0.09628 0.2378 0.09628 0.2378 0.09628s0 0.01459-0.0146 0.02188c0.1663-0.3021 0.5558-0.3514 0.5558-0.3514s0.1357-0.1225 0.3233-0.2193c0.1904-0.09774 0 0.04668 0.0817 0.195 0.0817 0.1472 0 0 0.2433-0.09774 0.2435-0.09628 0 0 0.2681 0.02626 0.2708 0.02334 0 0 0.1632 0.1704 0.108 0.1138 0.108 0.09774 0.1904 0.08169 0.0423-0.01459 0.105-0.01605 0.2136-0.01459 0.3241 0.02334 0.405 0.05106 0.7842 0.1971 0.3768 0.1459 0.1342 0.04814 0.4837 0.3901 0.2744 0.2702 0.2516 0.2681 0.3449 0.2671 0.0263-4.38e-4 0.0613-1e-3 0.1152 0 0.2429 0.0248 0.6201 0.1708 0.7822 0.3443 0.1627 0.1688 0.108 0.2187 0.1627 0.3891 0.0525 0.1724 0.1889 0.1724 0.4045 0.3695 0.2156 0.1966 0.2697 0.07002 0.5409 0.2209 0.2686 0.146 0.1873 0.07294 0.5656 0.1708 0.3783 0.09774 0.2162 0.07294 0.5403 0.2449 0.3233 0.1724 0.2425 0.1459 0.5924 0.2687 0.352 0.1225 0.0802 0.2207 0.054 0.4915-0.0277 0.2691-0.5122 0.6855-0.647 0.9557-0.1342 0.2691-0.0277 0.3905-0.0277 0.6124 0 0.2213 0 0.2455-0.108 0.4899-0.1094 0.2465-0.1357 0.2465-0.216 0.3685-0.0817 0.1225-0.243 0.318-0.4055 0.318-0.1616 0-0.2172 0-0.5132 0.2223-0.2958 0.2193-0.2692 0.3155-0.2433 0.5363 0.0277 0.2203 0 0.0992-0.0263 0.1977-0.0263 0.09628 0 0-0.1357 0.1225-0.1357 0.1211 0 0.09774-0.0263 0.194-0.0263 0.0992-0.0802 0.1468-0.1094 0.2209-0.0263 0.0744-0.1328 0.1708-0.1878 0.2464-0.0525 0.07148-0.1895 0.2939-0.4041 0.3412-0.215 0.05106-0.3783-0.02334-0.4328 0.1007-0.0525 0.1225 0 0 0.0817 0.1225 0.0817 0.124 0.0263 0.07294 0.054 0.2691 0.0277 0.1965 0 0.09774-0.216 0.2944-0.2147 0.1961-0.2147 0-0.3783 0-0.1622 0-0.1328 0.09774-0.1328 0.1718 0 0.07294 0 0.0992-0.0817 0.1225-0.0802 0.0248-0.108 0.0248-0.1878 0.1478-0.0438 0.06419-0.0409 0.06127-0.0175 0.05689 0.0204 0 0.0598 0 0.0977 0.04085 0.0802 0.0992 0.0802 0.04668 0.0802 0.1965 0 0.1462-0.0263 0.0992-0.054 0.2445-0.0277 0.1482 0 0-0.1627 0.1735-0.0904 0.09628-0.0788 0.08315-0.0525 0.07294 0.0219-0.01459 0.0525-0.01751 0.0525 0.02334 0 0.09774 0.0277 0.0744 0.1094 0.195 0.0802 0.1225 0.1342 0.0992 0.1611 0.1965 0.0263 0.09774 0 0-0.0277 0.2455-0.0161 0.1444-0.0146 0.1196-0.019 0.09336 0-0.01751-0.0146-0.03501-0.035 0-0.054 0.09774-0.0802 0.07294-0.0802 0.172 0 0.09774 0 0 0.054 0.1708 0.0306 0.1007 0.0263 0.08315-0.0146 0.0671-0.0263-0.01459-0.0686-0.02334-0.124 0-0.1328 0.0744 0 0.0992 0 0.0992l0.108 0.04814c0.108 0.0496 0 0 0.108-0.04814 0.1094-0.0496 0.0817 0.09774 0.1895 0.1462 0.1065 0.0496 0.0802 0.07294 0.1621 0.1225 0.0802 0.0496 0.0802 0.0496 0.1621 0.09774 0.0802 0.04814 0.0525 0.07294-0.0263 0.09774-0.0817 0.02334-0.0817 0-0.3506 0h-0.1898c-0.1895 0-0.054-0.0248-0.054-0.0248s-0.108-0.04814-0.3227-0.1459c-0.0977-0.04522-0.1065-0.0496-0.1036-0.04814-0.0146 0-0.0263-0.01459-0.0584-0.02772-0.1627-0.07294-0.0817-0.04814-0.1371-0.1718-0.0277-0.06419-0.0277-0.06127-0.0219-0.05689 0 0 0.0146 0 0-0.03939-0.0277-0.09774-0.0554-0.0744-0.0554-0.0744l-0.1615-0.09482s-0.054-0.02626-0.1899-0.1735c-0.07-0.07732-0.0671-0.07294-0.0554-0.07002 0.0146 0 0.0277 0 0-0.05252-0.054-0.1225-0.0263-0.0744-0.1342-0.2942-0.0642-0.1328-0.0511-0.1065-0.0365-0.07877 0.0146 0.01751 0.019 0.03501 0.0146 0-0.0263-0.07294 0.0817-0.09774 0.0817-0.1966 0-0.05543 0-0.04668-0.0248-0.03939-0.019 0-0.0511 0.01459-0.108-0.01459-0.1342-0.0496 0 0-0.0263-0.07586-0.0292-0.07148-0.108-0.3644-0.108-0.3644s-0.0277-0.07586-0.0832-0.246c-0.054-0.173 0 0 0.0832 0 0.0802 0 0.108 0.2193 0.1342 0.09628 0.0248-0.1211-0.0263-0.1211-0.1094-0.2691-0.0802-0.146-0.0802-0.07148-0.108-0.2691-0.0263-0.195-0.054-0.195-0.1065-0.5135-0.0525-0.3196 0.0525-0.3943 0.0802-0.6624 0.0263-0.2706-0.1328-0.3921-0.1328-0.7586 0-0.3679 0-0.4414 0.0248-0.7606 0.0277-0.319-0.054-0.8563-0.0802-1.103-0.0277-0.2443-0.2152-0.2938-0.6201-0.5141-0.4045-0.2213-0.4328-0.2449-0.5666-0.4169-0.1371-0.1713-0.4868-0.9304-0.6757-1.25-0.1899-0.319-0.4041-0.4919-0.3227-0.6859 0.0802-0.1961 0.1065-0.2944 0.0802-0.4658-0.0263-0.1724-0.0263-0.1955 0.1888-0.2954 0.2152-0.0992 0.1885-0.1698 0.3489-0.5136 0.1643-0.3417 0.0292-0.3915 0.1036-0.8759-0.0525 0.1683-0.0788 0.2408-0.0788 0.2408s-0.0788-0.1211-0.1857-0.216c-0.105-0.09628-0.2126-0.2172-0.2656-0.09628-0.0511 0.1196 0.0277 0.2398-0.0788 0.1914-0.108-0.04668-0.0263-0.04668-0.1869-0.143-0.158-0.09628-0.105-0.07294-0.2109-0.1934-0.1065-0.1211 0.1853-0.1211-0.1065-0.1211-0.2928 0-0.317 0.07294-0.3443-0.09482-0.0277-0.1683 0.0511-0.2897-0.0788-0.3361-0.0554-0.02042-0.0875-0.01459-0.1182 0-0.0423 0.01459-0.0802 0.02334-0.1734-0.04668-0.159-0.1211-0.054-0.07148-0.3174-0.193-0.2656-0.1196-0.2923-0.07148-0.5574-0.2883-0.2645-0.2152-0.3984-0.2645-0.4766-0.2152-0.0788 0.0496-0.5558 0.1689-0.9793-0.1692-0.4231-0.3376-0.5039-0.2651-0.5039-0.4581 0-0.1904 0.2378-0.09482 0.0525-0.4082-0.1853-0.3128-0.3972-0.601-0.5562-0.8661-0.1596-0.264-0.2923-0.2867-0.2923-0.5049 0-0.216 0.054-0.2871-0.0788-0.337-0.1328-0.04814-0.2382-0.2398-0.2651-0.04814-0.0248 0.1936-0.054 0.2404 0.0263 0.3844 0.0788 0.1459 0.0788 0.2182 0.158 0.3613 0.0802 0.143 0.0277 0.1924 0.1065 0.3129 0.0788 0.1211 0.2378 0.215 0.1842 0.3622-0.0525 0.143-0.0788 0.1196-0.1584 0.02188-0.0788-0.09628-0.1328-0.07148-0.1848-0.1915-0.054-0.1196 0.1065 0 0.0525-0.1196-0.0525-0.1211 0.054-0.09628-0.105-0.1926-0.0671-0.04085-0.0919-0.02918-0.1036-0.01751-0.016 0.01605-0.0146 0.03209-0.054-0.07878-0.0802-0.193 0.0263-0.09628 0.0263-0.2398 0-0.1444-0.0525-0.1196-0.1313-0.2392-0.0802-0.1225-0.0277-0.195-0.054-0.4123-0.0263-0.2142-0.0263-0.192-0.2101-0.3829-0.1857-0.193-0.2651-0.4575-0.2136-1.203 0.054-0.7456 0.4509-0.9376 0.5837-1.083 0.1313-0.143 0.212-0.2883 0.0554-0.4324-0.1605-0.1459-0.2681-0.1459-0.2408-0.2413 0.0263-0.09628 0.2651-0.09628 0.3443 0.0248 0.0802 0.1196 0.054 0.3134 0.1858 0.3134 0.1328 0 0.2645-0.1196 0.1328-0.2419-0.1328-0.1196-0.2913-0.1415-0.3449-0.3355-0.0175-0.0671-0.0394-0.1109-0.0569-0.1488-1.612 2.166-2.568 4.851-2.568 7.758 0 7.179 5.82 13 13 13 5.013 0 9.359-2.838 11.53-6.993v-0.1708c0-0.2887-0.2372-0.1444-0.3176-0.77-0.0773-0.6263 0.1328-0.8883 0.2923-1.083 0.1596-0.192-0.0525-0.3129-0.1065-0.5043-0.0525-0.1914-0.1328-0.2893-0.1328-0.6006 0-0.3139-0.53-0.5063-0.636-0.7221-0.108-0.2166-0.0263-0.2166 0.054-0.5295 0.0802-0.3134 0.2382-0.407 0-0.5768-0.1371-0.09628-0.2492-0.0744-0.3644-0.05106-0.0846 0.01751-0.1708 0.03355-0.2712 0-0.2388-0.07148-0.1863-0.4076-0.5568-0.385-0.3705 0.02334-0.317 0.1672-0.5821 0.2877-0.1564 0.07148-0.3123 0.03355-0.4801 0-0.1167-0.02626-0.2378-0.05252-0.3685-0.0423-0.3155 0.02334-0.2115 0.09628-0.4751 0.09628-0.2655 0-0.3453-0.17-0.4775-0.4098-0.1328-0.2398-0.5033-0.3854-0.6093-0.5538-0.1065-0.1667-0.4257-0.6495-0.4487-0.8403-0.0277-0.1936 0.0233-0.3367 0.1298-0.7231 0.1065-0.3829-0.054-0.1914-0.1298-0.3123-0.0817-0.1196 0.0233-0.3115 0.1574-0.5281 0.1328-0.2172 0.2372-0.4096 0.4766-0.6979 0.2368-0.2877 0.1837-0.1934 0.4776-0.3117 0.2902-0.1196 0.1298-0.4344 0.2104-0.6264 0.0802-0.191 0.0802-0.1196 0.2923-0.2419 0.2115-0.1182 0.2115-0.2146 0.4236-0.3818 0.2109-0.1683 0.2388 0 0.5033 0.02188 0.2655 0.0248 0.2378-0.02188 0.4776-0.1196 0.2362-0.09628 0.371-0.1211 0.6623-0.2171 0.1826-0.05981 0.3129-0.05398 0.4909-0.04668 0.1036 0 0.2245 0.01459 0.3819 0 0.4257-0.02188 0.212 0.1698 0.1858 0.4343-0.0263 0.2651-0.054 0.2168 0.0773 0.3357 0.1342 0.1211 0.5049 0.1211 0.7168 0.1459 0.2109 0.0248 0.158 0.07148 0.37 0.191 0.2131 0.1211 0.2394 0.1462 0.4519 0.2166 0.0248 0.01459 0.0452 0.01459 0.0598 0.01459-0.1775-0.6006-0.3968-1.182-0.6572-1.744 0 0.03793 0.0146 0.08315 0.0146 0.143 0 0.1444-0.1328 0.1694-0.2928 0.264-0.1584 0.09628-0.1313 0-0.2924-0.09482-0.1574-0.09628 0.0277-0.09628 0.2671-0.09628 0.2368 0 0.1596-0.09774 0.1853-0.2413 0.0263-0.1444-0.0802-0.1667-0.2382-0.2398-0.158-0.07294-0.1859-0.07294-0.4514-0.192-0.2645-0.1196-0.158-0.1694-0.3438-0.2897-0.1847-0.1196-0.159-0.1444-0.372-0.04814-0.2101 0.09628-0.1565 0.07294-0.423 0.09628-0.2645 0.02626-0.1313 0-0.2645 0.09774-0.1342 0.09774-0.0802 0.1196-0.1858 0.264-0.1065 0.1462-0.16 0.07294-0.3427 0.2419-0.1869 0.1672 0 0-0.0292 0.2639-0.0248 0.2656-0.0773 0.09628-0.3433 0.2656-0.1637 0.105-0.2162 0.08753-0.263 0.07294-0.0292-0.01459-0.0569-0.02042-0.1065-0.0015-0.1328 0.04668-0.1602 0.09774-0.3182 0.02626-0.1594-0.0744-0.1065-0.09628-0.213-0.1225-0.1036-0.02188-0.1853-0.09482-0.2384-0.264-0.0525-0.1682 0.0277-0.1682 0.1065-0.3597 0.0802-0.1924-0.0263-0.1924-0.0263-0.3123 0-0.1211 0.054-0.1704 0.1313-0.1704 0.0802 0 0.37 0.02626 0.5295 0.02626h0.3978s0.16-0.07294 0.16-0.2492c0-0.1759 0.089-0.2563-0.089-0.3524-0.177-0.09628-0.177-0.06273-0.283-0.1444-0.105-0.08023-0.1765-0.1284-0.0175-0.1914 0.1596-0.06419 0.247-0.0496 0.3891-0.1284 0.1386-0.08169 0.3341-0.1444 0.228-0.1755-0.1065-0.03355-0.1065-0.03355-0.228-0.03355-0.1255 0-0.1065 0-0.2655 0.04814-0.1596 0.0496-0.2301 0.2408-0.2301 0.0496 0-0.193-0.016-0.08023 0.019-0.2567 0.035-0.1771-0.124-0.0496 0.035-0.1771 0.1596-0.1269 0.2476-0.08023 0.195-0.1914-0.054-0.1123 0.105 0-0.054-0.1123-0.16-0.1138-0.035-0.1611-0.16-0.1138-0.0146 0-0.0248 0.01459-0.035 0.01459 0-0.01459-0.0146-0.02626-0.035-0.06127-0.0875-0.1444-0.1602-0.08169-0.124-0.2254 0.0365-0.143-0.1584-0.1109 0.1065-0.2085 0.2651-0.09628 0.3186-0.159 0.388-0.07878 0.0715 0.07878 0.1771 0.1138 0.1065 0.2089-0.0729 0.09482-0.1255 0.1767-0.054 0.2713 0.07 0.09628 0.124 0.1284 0.2136 0.2089 0.0875 0.08023-0.0175 0.1284 0.1211 0.1765 0.143 0.04814 0.2655 0.08023 0.2305 0.1749-0.035 0.09774-0.1594 0.2728-0.0175 0.2095 0.1415-0.06419 0.1576-0.1459 0.3345-0.2728 0.1765-0.1269 0.246-0.1123 0.442-0.1914 0.0934-0.03793 0.158-0.04085 0.1946-0.0496-1.006-1.294-2.252-2.394-3.672-3.231-0.0204 0.03355-0.0511 0.07586-0.1529 0.2249-0.2136 0.318-0.0802 0.09774-0.3221 0.3443-0.2439 0.2439-0.1371 0.1462-0.6747 0.195-0.5399 0.0496-0.4595 0.1462-0.7555 0.2934-0.2974 0.1492-0.405 0.1492-0.9459 0.2944-0.5393 0.1472-0.406 0.3675-0.6201 0.6134-0.2156 0.246-0.1616 0.195-0.5672 0.07294-0.4039-0.1211-0.4848-0.44-0.4848-0.9304 0-0.3376 0.1036-0.3376 0.2553-0.3371 0.0686 0 0.1462 0 0.2295-0.03064 0.2703-0.09774-0.0263-0.1708-0.1065-0.2928-0.0817-0.124-0.1616-0.124-0.0817-0.2958 0.0817-0.171 0-0.1225-0.16-0.3422-0.1138-0.1539-0.2403-0.14-0.563-0.1269-0.14 0-0.3155 0.01459-0.543 0-0.7565-0.02626-0.2424-0.0744-0.1894-0.2696 0.0365-0.1342 0.2624-0.1196 0.512-0.1036 0.1167 0 0.2392 0.01459 0.3504 0 0.351-0.0248 0.1616-0.1211-0.054-0.2213-0.215-0.09628-0.35 0-0.6751 0.07586-0.3233 0.07148-0.4565 0.1459-0.6743 0.195-0.2146 0.0496-0.3231 0.0992-0.6737 0.2445-0.352 0.1487-0.2171 0.1225-0.4589 0.2213-0.2445 0.0992-0.1612 0.0496-0.4308 0.0496-0.2712 0-0.2712-0.02334-0.5399-0.02334-0.2706 0-0.1615-0.02626-0.2439-0.1981-0.0802-0.1708 0.1357 0 0.3506 0.02626 0.216 0.0248 0.1898-0.02626 0.46-0.09774 0.2692-0.07294 0.3237-0.1466 0.6201-0.3443 0.2964-0.195-0.1625-0.1211-0.351-0.1211-0.1898 0-0.1621 0.0496-0.3783 0.1211-0.215 0.07294-0.2429 0.0496-0.4306-0.0248-0.1883-0.07294 0.108-0.1704 0.2156-0.2681 0.108-0.09774 0.3504 0 0.512 0.02334 0 0 0.3231-0.04814 0.5682-0.07294 0.2413-0.0248 0.2954-0.0744 0.8069-0.124 0.2919-0.02626 0.4797-0.02334 0.6706-0.01896h0.4899c0.4597-0.02334 0.3788 0 0.7026 0.0248 0.3247 0.02626 0.2166 0.0992-0.0263 0.124-0.2433 0.0248-0.1357 0.07294-0.0263 0.1466 0.1065 0.0744 0.2964-0.0744 0.4848-0.0744s0.2702-0.04814 0.7292-0.1704c0.0977-0.02626 0.1961-0.04668 0.294-0.06127-1.177-0.351-2.424-0.5415-3.715-0.5415-2.75 0-5.3 0.8559-7.399 2.313m3.696-0.8549c0.1357 0 0.2702 0.02626 0.2423 0.1724-0.0263 0.1476-0.3231 0-0.4858 0-0.1616 0-0.2419 0.07294-0.4581 0.1225-0.2166 0.0496-0.3258-0.0496-0.3767-0.1704-0.0554-0.124 0.4575-0.124 0.4575-0.124s0.1357 0.05106 0.3237 0.05106c0.1883 0 0.1627-0.05106 0.297-0.05106m1.105 1.79c0.1342-0.0992 0.1622-0.1955 0.3516-0.1225 0.1899 0.0744 0.4595 0.2708 0.3231 0.2944-0.1328 0.0248-0.0802-0.02334-0.2423-0.0496-0.1621-0.02334-0.1883 0-0.2974 0.0496-0.1065 0.0496-0.1065 0.0744-0.1879 0.0744 0 0-0.0802-0.1472 0.0525-0.2461m10.2 2.262c-0.0175-0.1284 0.0686-0.1284 0.0686-0.2551 0-0.1284-0.0525-0.1284-0.0161-0.2105 0.035-0.07878-0.0525-0.06273 0.089-0.1269 0.1386-0.06419 0.1576-0.07877 0.2635-0.07877 0.105 0 0.07 0.06273 0.194 0.01459 0.0686-0.02772 0.1269 0 0.1482 0.01459-0.0875 0.02772-0.1152 0.01751-0.1313 0.1298-0.0175 0.1298 0.07 0.177-0.0175 0.3046-0.089 0.1284-0.054 0.1459-0.2449 0.1627-0.1415 0.01459-0.2543 0.09628-0.3123 0.09628-0.0233 0-0.0365-0.01459-0.0423-0.0496m-13.19 5.235c0.054-0.09628 0.3504-0.1459 0.3504-0.1459s0.2439 0 0.4338 0.0496c0.1873 0.04814 0.1873 0.09628 0.3772 0.2193 0.1894 0.1225 0.2146 0.0496 0.3514 0.0992 0.1328 0.04668 0.1328 0.1211 0 0.1694-0.1371 0.0496-0.1371 0-0.3514-0.07294-0.2166-0.07294-0.2166-0.1478-0.35-0.2193-0.1371-0.0744-0.2449-0.124-0.5676-0.05106-0.1284 0.02918-0.2018 0.0423-0.2404 0.0423-0.0598 0-0.0365-0.03209 0-0.09336m1.809 0.6635c0.054-0.173-0.1357-0.0992 0.054-0.173 0.1883-0.07148 0.4029-0.1459 0.5656-0.07148 0.1616 0.07148 0.5131 0.1225 0.298 0.2198-0.2178 0.0992-0.35 0.0496-0.4859 0.0992-0.1342 0.0496-0.1621 0.0744-0.4056 0.0744-0.2429 0-0.3227-0.0496-0.2692-0.124 0 0 0.0759 0.05981 0.1444 0.05981 0.0409 0 0.0788-0.02042 0.0977-0.08315m1.053 0.1225c-0.0817-0.0248-0.0263-0.0992-0.0263-0.0992s0.1065-0.0496 0.215-0.0496c0.1065 0 0.0525 0.07294 0 0.1482-0.019 0.02334-0.0452 0.03063-0.0729 0.03063-0.0554 0-0.1152-0.03063-0.1152-0.03063m-1.917-0.0496c-0.1606-0.07294 0.1888-0.0992 0.1888-0.0992 0.0802 0.0248 0.1622 0.07294 0.0802 0.1482-0.0277 0.0248-0.0496 0.03501-0.0729 0.03501-0.0438 0-0.0919-0.03647-0.1961-0.08461m2.816 13.16c0.0146 0 0 0 0 0" style="fill:url(#radialGradient7443-7);stroke-width:.5146"/>
 </g>
</svg>
