<svg version="1.1" viewBox="0 0 100 100.5" xmlns="http://www.w3.org/2000/svg" xmlns:xlink="http://www.w3.org/1999/xlink">
 <defs>
  <linearGradient id="linearGradient42049" x1="857.3" x2="1043" y1="639" y2="639" gradientTransform="matrix(1.301,0,0,1.301,1365,-35.3)" gradientUnits="userSpaceOnUse">
   <stop style="stop-color:#696969" offset="0"/>
   <stop style="stop-color:#c7c7c9" offset=".17"/>
   <stop style="stop-color:#f9f9ff" offset=".36"/>
   <stop style="stop-color:#ccccce" offset=".73"/>
   <stop style="stop-color:#696969" offset="1"/>
  </linearGradient>
  <filter id="filter42073" x="-.008594" y="-.01988" width="1.017" height="1.04" style="color-interpolation-filters:sRGB">
   <feGaussianBlur stdDeviation="0.66611767"/>
  </filter>
 </defs>
 <g id="plane-shadow" transform="matrix(.469 0 0 -.469 -395.6 349.9)">
  <path d="m1027 531.9h-153.2c-16.5 0-30 13.5-30 30v154.3c0 16.5 13.5 30 30 30h153.2c16.5 0 30-13.5 30-30v-154.3c0-16.5-13.5-30-30-30" style="fill:#545454"/>
  <path d="m1027 531.9h-82.28c-0.058 0.096-0.121 0.187-0.169 0.289-0.707 0.335-1.275 0.903-1.609 1.609-0.706 0.334-1.274 0.902-1.608 1.608-0.706 0.334-1.275 0.903-1.609 1.609-0.706 0.334-1.274 0.902-1.608 1.608-0.706 0.335-1.274 0.903-1.609 1.609-0.706 0.334-1.274 0.902-1.608 1.608-0.706 0.335-1.275 0.903-1.609 1.609-0.706 0.334-1.274 0.902-1.608 1.608-0.706 0.334-1.274 0.903-1.609 1.609-0.706 0.334-1.274 0.902-1.608 1.608-0.706 0.334-1.274 0.902-1.608 1.609-0.707 0.334-1.275 0.902-1.609 1.608-0.706 0.334-1.274 0.903-1.608 1.609-0.707 0.334-1.275 0.902-1.609 1.608-0.706 0.334-1.274 0.902-1.609 1.609-0.705 0.334-1.274 0.902-1.608 1.608-0.706 0.334-1.274 0.902-1.608 1.609-0.707 0.334-1.274 0.902-1.609 1.608-0.706 0.334-1.274 0.902-1.608 1.608-0.707 0.335-1.275 0.903-1.609 1.609-0.706 0.334-1.274 0.902-1.608 1.608-0.706 0.334-1.274 0.903-1.609 1.609-0.706 0.334-1.274 0.902-1.608 1.608-0.706 0.335-1.274 0.903-1.608 1.609-0.707 0.334-1.275 0.902-1.609 1.608-0.706 0.335-1.274 0.903-1.609 1.609-0.706 0.334-1.274 0.902-1.608 1.608-0.706 0.334-1.274 0.902-1.609 1.609-0.706 0.334-1.274 0.902-1.608 1.608-0.706 0.334-1.274 0.902-1.608 1.609-0.707 0.334-1.275 0.902-1.609 1.608-0.706 0.334-1.274 0.902-1.608 1.609-0.707 0.334-1.275 0.902-1.609 1.608-0.706 0.334-1.274 0.902-1.608 1.608-0.706 0.335-1.275 0.903-1.609 1.609-0.706 0.334-1.274 0.902-1.608 1.609-0.706 0.334-1.274 0.902-1.609 1.608-0.706 0.334-1.274 0.902-1.608 1.608-0.707 0.335-1.275 0.903-1.609 1.609-0.706 0.334-1.274 0.902-1.608 1.608-0.706 0.334-1.275 0.903-1.609 1.609-0.706 0.334-1.274 0.902-1.608 1.608-0.706 0.335-1.274 0.903-1.608 1.609-0.707 0.334-1.275 0.902-1.609 1.608-0.706 0.335-1.274 0.903-1.609 1.609-0.706 0.334-1.274 0.902-1.608 1.608-0.706 0.334-1.274 0.903-1.609 1.609-0.706 0.334-1.274 0.902-1.608 1.608-0.706 0.334-1.274 0.902-1.608 1.609-0.707 0.334-1.275 0.902-1.609 1.608-0.706 0.334-1.274 0.902-1.608 1.609-0.707 0.334-1.275 0.902-1.609 1.608-0.706 0.334-1.274 0.902-1.608 1.608-1.144 0.542-1.941 1.697-1.941 3.047v0.063c0 1.674 1.226 3.096 2.881 3.342l61.77 10.59c2.636 11.48 12.05 20.35 23.81 22.2l2.83 21.08c0.115 0.852 0.842 1.488 1.702 1.488h0.045c0.859 0 1.587-0.636 1.701-1.488l0.018-0.13c0.81-0.053 1.481-0.664 1.591-1.479l0.017-0.13c0.81-0.052 1.482-0.663 1.591-1.478l0.018-0.13c0.81-0.053 1.481-0.664 1.59-1.478l0.018-0.131c0.81-0.052 1.482-0.663 1.591-1.478l0.017-0.13c0.811-0.053 1.482-0.663 1.592-1.478l0.017-0.131c0.81-0.052 1.481-0.663 1.591-1.478l0.018-0.13c0.81-0.053 1.481-0.663 1.59-1.478l0.018-0.131c0.81-0.052 1.482-0.663 1.591-1.478l0.017-0.13c0.811-0.053 1.482-0.663 1.591-1.478l0.018-0.131c0.81-0.052 1.482-0.663 1.591-1.477l0.017-0.131c0.81-0.053 1.482-0.663 1.591-1.478l0.018-0.13c0.81-0.053 1.481-0.664 1.591-1.479l0.017-0.13c0.811-0.053 1.482-0.663 1.591-1.478l0.018-0.13c0.81-0.053 1.481-0.664 1.591-1.479l0.017-0.13c0.81-0.052 1.482-0.663 1.591-1.478l0.018-0.131c0.81-0.052 1.481-0.663 1.591-1.477l0.017-0.131c0.81-0.053 1.482-0.663 1.591-1.478l0.018-0.13c0.81-0.053 1.481-0.663 1.591-1.478l0.017-0.131c0.81-0.052 1.482-0.663 1.591-1.478l0.018-0.13c0.81-0.053 1.481-0.663 1.591-1.478l0.017-0.131c0.81-0.052 1.482-0.663 1.591-1.478l0.017-0.13c0.811-0.053 1.482-0.664 1.591-1.478l0.018-0.131c0.81-0.052 1.482-0.663 1.591-1.478l0.017-0.13c0.811-0.053 1.482-0.663 1.591-1.478l0.018-0.131c0.81-0.052 1.481-0.663 1.591-1.478l0.018-0.13c0.81-0.053 1.481-0.663 1.591-1.478l0.017-0.131c0.81-0.052 1.481-0.663 1.591-1.478l0.017-0.13c0.811-0.053 1.482-0.663 1.591-1.478l0.018-0.131c0.81-0.052 1.482-0.663 1.591-1.477l8e-3 -0.063 41.75-7.161c1.15-0.171 2.08-0.913 2.55-1.905 0.71-0.336 1.28-0.906 1.61-1.609 0.71-0.336 1.27-0.905 1.61-1.608 0.71-0.336 1.27-0.906 1.6-1.609 0.72-0.335 1.28-0.905 1.61-1.608 0.72-0.336 1.28-0.905 1.61-1.609 0.71-0.336 1.28-0.905 1.61-1.608 0.71-0.336 1.28-0.905 1.61-1.609 0.71-0.336 1.27-0.905 1.61-1.608 0.41-0.196 0.77-0.479 1.07-0.815v-46.4c0-16.5-13.5-30-30-30" style="fill:#290a43"/>
  <path d="m937.2 631.8 3.614 7.49h23.45l3.614-7.49zm105.5-10.28-61.77 10.59c-2.636 11.48-12.05 20.35-23.81 22.2l-2.83 21.08c-0.114 0.852-0.842 1.488-1.702 1.488h-0.044c-0.86 0-1.587-0.636-1.702-1.488l-2.83-21.08c-11.76-1.852-21.17-10.72-23.81-22.2l-61.77-10.59c-1.655-0.246-2.881-1.668-2.881-3.342v-0.063c0-1.866 1.513-3.379 3.379-3.379h13.38c-0.153-0.802-0.241-1.628-0.241-2.475 0-7.233 5.864-13.1 13.1-13.1 7.234 0 13.1 5.864 13.1 13.1 0 0.847-0.087 1.673-0.241 2.475h23.53c4.303-10.71 14.77-18.28 27.02-18.28s22.71 7.571 27.02 18.28h23.53c-0.15-0.802-0.24-1.628-0.24-2.475 0-7.233 5.87-13.1 13.1-13.1s13.1 5.864 13.1 13.1c0 0.847-0.09 1.673-0.24 2.475h13.38c1.86 0 3.37 1.513 3.37 3.379v0.063c0 1.674-1.22 3.096-2.88 3.342" style="fill:#000000;filter:url(#filter42073)"/>
  <path d="m935 634.1 3.614 7.49h23.45l3.614-7.49zm105.5-10.28-61.77 10.59c-2.636 11.48-12.05 20.35-23.81 22.2l-2.83 21.08c-0.114 0.852-0.842 1.488-1.702 1.488h-0.044c-0.86 0-1.587-0.636-1.702-1.488l-2.83-21.08c-11.76-1.852-21.17-10.72-23.81-22.2l-61.77-10.59c-1.655-0.246-2.881-1.668-2.881-3.342v-0.063c0-1.866 1.513-3.379 3.379-3.379h13.38c-0.153-0.802-0.241-1.628-0.241-2.475 0-7.233 5.864-13.1 13.1-13.1 7.234 0 13.1 5.864 13.1 13.1 0 0.847-0.087 1.673-0.241 2.475h23.53c4.303-10.71 14.77-18.28 27.02-18.28s22.71 7.571 27.02 18.28h23.52c-0.15-0.802-0.24-1.628-0.24-2.475 0-7.233 5.87-13.1 13.1-13.1s13.1 5.864 13.1 13.1c0 0.847-0.09 1.673-0.24 2.475h13.38c1.86 0 3.37 1.513 3.37 3.379v0.063c0 1.674-1.22 3.096-2.88 3.342" style="fill:url(#linearGradient42049)"/>
 </g>
</svg>
