<svg version="1.1" viewBox="0 0 100 100" xmlns="http://www.w3.org/2000/svg" xmlns:xlink="http://www.w3.org/1999/xlink">
 <defs>
  <linearGradient id="linearGradient42211" x1="-290.5" x2="-265.1" y1="-272.4" y2="-272.4" gradientTransform="matrix(1.301,0,0,1.301,1365,-35.3)" gradientUnits="userSpaceOnUse">
   <stop style="stop-color:#696969" offset="0"/>
   <stop style="stop-color:#c7c7c9" offset=".17"/>
   <stop style="stop-color:#f9f9ff" offset=".36"/>
   <stop style="stop-color:#ccccce" offset=".73"/>
   <stop style="stop-color:#696969" offset="1"/>
  </linearGradient>
 </defs>
 <g id="passport-btn-c" transform="matrix(3.937 0 0 3.937 1144 1123)">
  <path d="m-290.5-272.4a12.7 12.7 0 1 0 25.4 0 12.7 12.7 0 1 0-25.4 0" style="fill:url(#linearGradient42211);stroke-width:.254"/>
  <path d="m-268.9-281.4-17.96 17.96c4.96 4.96 13 4.96 17.96 0 4.96-4.959 4.96-13 0-17.96z" style="opacity:.197;stroke-width:.254"/>
  <path d="m-277.8-285.1v25.4c7.014 0 12.7-5.686 12.7-12.7s-5.686-12.7-12.7-12.7z" style="opacity:.169;stroke-width:.254"/>
  <path d="m-283.1-280.1c-1.021 0-1.85 0.8236-1.85 1.844v11.55c0 1.021 0.8299 1.844 1.85 1.844h8.777c1.021 0 1.855-0.8232 1.855-1.844v-11.55h6.8e-4c0-1.021-0.8352-1.844-1.856-1.844zm10.25 0c0.5396 0.4342 0.885 1.098 0.885 1.844v11.55c0 0.7469-0.3453 1.41-0.885 1.844h0.3245c1.021 0 1.842-0.8232 1.842-1.844v-11.55c0-1.021-0.8209-1.844-1.842-1.844zm-5.855 1.791c2.279 0 4.133 1.854 4.133 4.133 0 2.28-1.854 4.134-4.133 4.134-2.279 0-4.133-1.854-4.133-4.134-3.4e-4 -2.279 1.854-4.133 4.133-4.133zm0 0.3783c-0.1786 0-0.3886 0.2833-0.5665 0.7999 0.1852-0.0187 0.3749-0.0286 0.5665-0.0286s0.3806 0.01 0.5658 0.0286c-0.1779-0.5166-0.3876-0.7999-0.5658-0.7999zm-0.6828 0.1356c-0.4362 0.1712-0.8273 0.499-1.141 0.9428 0.2656-0.0948 0.5474-0.1694 0.8418-0.2214 0.0851-0.2807 0.1844-0.5252 0.2992-0.7214zm1.366 0c0.1144 0.1962 0.2141 0.4408 0.2992 0.7214 0.2937 0.0517 0.5764 0.1263 0.8418 0.2214-0.3134-0.4439-0.7051-0.7716-1.141-0.9428zm-2.483 0.3265c-0.6284 0.3447-1.148 0.8643-1.493 1.493 0.248-0.2356 0.5433-0.4442 0.8757-0.6177 0.1739-0.3324 0.3824-0.6271 0.6177-0.875zm3.601 0c0.2356 0.248 0.4438 0.543 0.617 0.8757 0.3324 0.1732 0.6284 0.3814 0.8763 0.617-0.3451-0.6284-0.865-1.148-1.493-1.493zm-1.801 0.6882c-0.2333-2.9e-4 -0.4609 0.0162-0.6828 0.0446-0.0898 0.3484-0.1647 0.7674-0.2141 1.249 0.295-0.0197 0.5963-0.0292 0.8969-0.0292 0.3007 0 0.602 0.01 0.897 0.0299-0.0494-0.4812-0.1247-0.9003-0.2141-1.249-0.2216-0.0284-0.4496-0.0452-0.6829-0.0452zm-1.09 0.1124c-0.3788 0.0798-0.7311 0.2009-1.049 0.3544-0.1532 0.3177-0.274 0.6701-0.3537 1.049 0.3694-0.0851 0.7806-0.1491 1.212-0.1908 0.0424-0.4318 0.1064-0.8434 0.1908-1.213zm2.179 0c0.0848 0.3694 0.1488 0.7813 0.1908 1.213 0.4315 0.0417 0.843 0.1054 1.213 0.1902-0.0801-0.3788-0.2009-0.7312-0.3544-1.049-0.3177-0.1535-0.6701-0.274-1.049-0.3537zm-3.766 0.6689c-0.4438 0.3134-0.772 0.7048-0.9428 1.141 0.1959-0.1145 0.4404-0.2148 0.7214-0.2992 0.0517-0.2944 0.1266-0.5758 0.2214-0.8418zm5.354 0c0.0948 0.2656 0.1694 0.5478 0.2214 0.8418 0.28 0.0848 0.5248 0.1851 0.7208 0.2992-0.1709-0.4355-0.4987-0.8273-0.9422-1.141zm-2.677 0.861c-0.3294 0-0.6379 0.0122-0.9295 0.0326-0.0204 0.2917-0.0326 0.6001-0.0326 0.9295 0 0.3297 0.0122 0.6389 0.0326 0.9309 0.2916 0.0204 0.6001 0.0326 0.9295 0.0326 0.3291 0 0.6382-0.0125 0.9302-0.0326 0.0201-0.292 0.0326-0.6012 0.0326-0.9309 0-0.329-0.0125-0.6378-0.0326-0.9295-0.292-0.0204-0.6011-0.0326-0.9302-0.0326zm-1.311 0.0652c-0.4812 0.0497-0.9006 0.125-1.249 0.2148-0.0284 0.2216-0.0445 0.4492-0.0445 0.6822 0 0.2333 0.0162 0.4613 0.0445 0.6829 0.3488 0.0901 0.7678 0.1654 1.249 0.2148-0.0197-0.295-0.0299-0.5973-0.0299-0.8976 0-0.3004 0.0102-0.6016 0.0299-0.897zm2.622 0c0.0197 0.2954 0.0299 0.5963 0.0299 0.897s-0.0102 0.6026-0.0299 0.8976c0.4816-0.0494 0.8999-0.1247 1.249-0.2148 0.0284-0.2216 0.0452-0.4496 0.0452-0.6829 0-0.2329-0.0168-0.4606-0.0452-0.6822-0.3488-0.0898-0.7675-0.165-1.249-0.2148zm-4.267 0.3318c-0.5163 0.1779-0.7992 0.3866-0.7992 0.5652 0 0.1786 0.2829 0.3886 0.7992 0.5665-0.018-0.1852-0.0286-0.3743-0.0286-0.5665 0-0.1919 0.0106-0.3803 0.0286-0.5652zm5.91 0c0.019 0.1849 0.0292 0.3733 0.0292 0.5652 0 0.1922-0.0105 0.3813-0.0292 0.5665 0.517-0.1779 0.7999-0.388 0.7999-0.5665 0-0.1785-0.2829-0.3873-0.7999-0.5652zm-6.575 1.248c0.1712 0.4365 0.499 0.8273 0.9428 1.141-0.0948-0.2656-0.169-0.5468-0.2214-0.8411-0.2806-0.0844-0.5252-0.1851-0.7214-0.2999zm7.239 0c-0.1956 0.1148-0.4408 0.2154-0.7208 0.2999-0.0521 0.2944-0.1266 0.5755-0.2214 0.8411 0.4435-0.3134 0.7713-0.7044 0.9422-1.141zm-6.112 0.4069c0.0794 0.3788 0.2008 0.7315 0.3544 1.05 0.3177 0.1532 0.6698 0.2736 1.049 0.3537-0.0844-0.3698-0.1481-0.7809-0.1901-1.213-0.4315-0.0417-0.8434-0.1057-1.213-0.1908zm4.985 0c-0.3698 0.0851-0.781 0.1491-1.213 0.1908-0.0417 0.4318-0.1057 0.843-0.1908 1.213 0.3791-0.0801 0.7315-0.2012 1.049-0.3544 0.1532-0.318 0.274-0.6704 0.3544-1.049zm-3.39 0.2221c0.0494 0.4812 0.1246 0.8999 0.2141 1.249 0.2219 0.0284 0.4499 0.0452 0.6828 0.0452 0.2333 0 0.4613-0.0169 0.6829-0.0452 0.0898-0.3487 0.1647-0.7674 0.2141-1.249-0.295 0.02-0.5963 0.0299-0.897 0.0299-0.3007 0-0.602-0.0102-0.8969-0.0299zm-2.397 0.4887c0.3451 0.6288 0.865 1.149 1.493 1.493-0.2356-0.248-0.4438-0.5433-0.6177-0.8757-0.3324-0.1739-0.6277-0.3821-0.8757-0.6177zm6.588 6.6e-4c-0.248 0.2356-0.5436 0.4435-0.8763 0.617-0.1732 0.3324-0.3814 0.628-0.617 0.8757 0.6281-0.3451 1.148-0.8643 1.493-1.493zm-5.118 0.8764c0.3134 0.4439 0.7048 0.7713 1.141 0.9422-0.1148-0.1959-0.2141-0.4404-0.2992-0.7208-0.2944-0.0521-0.5758-0.1263-0.8418-0.2214zm3.647 0c-0.2656 0.0951-0.5471 0.1694-0.8411 0.2214-0.0851 0.2803-0.1848 0.5249-0.2992 0.7208 0.4362-0.1709 0.8269-0.4983 1.14-0.9422zm-2.39 0.2786c0.1782 0.5163 0.3879 0.7992 0.5665 0.7992 0.1782 0 0.388-0.2829 0.5658-0.7992-0.1852 0.018-0.3739 0.0286-0.5658 0.0286s-0.3813-0.0102-0.5665-0.0286zm-3.405 2.474h8.191c0.2236 0 0.4149 0.1744 0.4149 0.3976v0.9269c0 0.2236-0.1913 0.4122-0.4149 0.4122h-8.191c-0.2232 0-0.4036-0.1883-0.4036-0.4122v-0.9269c0-0.2233 0.1803-0.3976 0.4036-0.3976z" style="fill:#290a43;stroke-width:.3337"/>
 </g>
</svg>
