<svg version="1.1" viewBox="0 0 100 100.1" xmlns="http://www.w3.org/2000/svg" xmlns:xlink="http://www.w3.org/1999/xlink">
 <defs>
  <linearGradient id="linearGradientSlvr" x1="-1869" x2="-1869" y1="794.4" y2="828" gradientTransform="matrix(1.301,0,0,1.301,1365,-35.3)" gradientUnits="userSpaceOnUse">
   <stop style="stop-color:#696969" offset="0"/>
   <stop style="stop-color:#c7c7c9" offset=".17"/>
   <stop style="stop-color:#f9f9ff" offset=".36"/>
   <stop style="stop-color:#ccccce" offset=".73"/>
   <stop style="stop-color:#696969" offset="1"/>
  </linearGradient>
  <linearGradient id="linearGradient7728" x1="-1405" x2="-1405" y1="704.4" y2="781.4" gradientTransform="scale(.7835 1.276)" gradientUnits="userSpaceOnUse">
   <stop style="stop-color:#1c072d" offset="0"/>
   <stop style="stop-color:#5700aa" offset=".29"/>
   <stop style="stop-color:#4b127b" offset=".64"/>
   <stop style="stop-color:#290a43" offset="1"/>
  </linearGradient>
  <linearGradient id="linearGradient19443-2-3" x2="1" gradientTransform="matrix(16.75 -23.92 23.92 16.75 393.3 91.58)" gradientUnits="userSpaceOnUse" xlink:href="#linearGradient7728"/>
  <linearGradient id="linearGradient19281-1-0" x2="1" gradientTransform="matrix(21.52 -30.74 30.74 21.52 390.9 94.99)" gradientUnits="userSpaceOnUse" xlink:href="#linearGradientSlvr"/>
  <linearGradient id="linearGradient19279-7-1" x2="1" gradientTransform="matrix(30.74 -19.96 19.96 30.74 386.3 89.6)" gradientUnits="userSpaceOnUse" xlink:href="#linearGradientSlvr"/>
  <linearGradient id="linearGradient12686" x1="391.3" x2="412" y1="79.62" y2="79.62" gradientUnits="userSpaceOnUse" xlink:href="#linearGradientSlvr"/>
  <clipPath id="clipPath12714">
   <path d="m1266 524.2c0 15.85 12.85 28.69 28.69 28.69 15.85 0 28.69-12.85 28.69-28.69 0-15.85-12.85-28.69-28.69-28.69-15.85 0-28.69 12.85-28.69 28.69" style="fill:url(#linearGradient12718);stroke-width:1.012"/>
  </clipPath>
  <linearGradient id="linearGradient12718" x2="1" gradientTransform="matrix(32.92 -47.01 47.01 32.92 1278 547.7)" gradientUnits="userSpaceOnUse" xlink:href="#linearGradient7728"/>
  <filter id="filter12720" x="-.01138" y="-.01269" width="1.023" height="1.025" style="color-interpolation-filters:sRGB">
   <feGaussianBlur stdDeviation="0.34350575"/>
  </filter>
  <filter id="filter12803" x="-.01056" y="-.01389" width="1.021" height="1.028" style="color-interpolation-filters:sRGB">
   <feGaussianBlur stdDeviation="0.090821446"/>
  </filter>
 </defs>
 <g id="car-btn-p" transform="matrix(2.625 0 0 2.625 -1004 -158.9)" style="opacity:.99">
  <path d="m387.1 79.62c0 8.062 6.535 14.6 14.6 14.6 8.062 0 14.6-6.536 14.6-14.6 0-8.063-6.536-14.6-14.6-14.6-8.062 0-14.6 6.535-14.6 14.6" style="fill:url(#linearGradient19443-2-3);stroke-width:.5146"/>
  <path d="m394.7 86.22c0.4514 0.0639 0.9029 0.0639 1.354 0.1283-0.0645 0.3225-0.0645 0.6449-0.3225 0.7094-0.3218 0.129-0.7088-0.0645-1.096 0 0-0.258 0-0.5159 0.0645-0.8377zm13.54-0.129c0 0.2573 0.0645 0.5798 0.0645 0.8378-0.3863-0.0645-0.8378 0.129-1.16-0.0645-0.2573-0.129-0.2573-0.3869-0.3218-0.7088 0.5153 0.0645 0.9667 0 1.418-0.0645zm2.965-1.934c-0.0645 0.9029-0.0645 1.805-0.129 2.772 0 0.3224-0.0645 0.6443-0.258 0.7088-0.1935 0.0645-0.7088 0-0.9022 0-0.258 0-0.7088 0.0645-0.9022 0-0.1935-0.0645-0.1935-0.4508-0.258-0.7088 0-0.3225-0.0645-0.5804-0.0645-0.9022 1.16-0.258 2.062-0.8384 2.514-1.87zm-19.47 0c0.5153 0.9674 1.354 1.612 2.578 1.87 0 0.3218-0.0645 0.5798-0.0645 0.9022 0 0.258 0 0.6443-0.258 0.7088-0.1935 0.0645-0.7088 0-0.9667 0s-0.7094 0.0645-0.9022 0c-0.3225-0.129-0.258-1.16-0.3225-1.611 0-0.3225 0-0.6449-0.0645-0.9022zm16.24-4.834c-0.7094 0-1.16 0.0645-1.676 0.2573-0.3863 0.129-0.9667 0.3869-1.031 0.9029 0 0.3218 0.1935 0.7732 0.4514 0.9667 0.2573 0.1935 0.7088 0.3218 1.16 0.3218 1.096 0 2.191-0.3218 2.836-0.9022 0.1935-0.129 0.5159-0.4508 0.4514-0.8377 0-0.1935-0.1935-0.3225-0.3225-0.387-0.387-0.2573-1.031-0.3218-1.612-0.3218zm-13.21 0c-0.4508 0-0.8378 0-1.225 0.1283-0.3218 0.0645-0.7088 0.258-0.7733 0.5159-0.0645 0.3225 0.258 0.6443 0.4514 0.8377 0.6443 0.5804 1.804 0.9022 2.9 0.9022 0.258 0 0.6449-0.0639 0.8378-0.1283 0.387-0.129 0.8384-0.7094 0.7739-1.225-0.0645-0.1935-0.258-0.387-0.4514-0.5159-0.5798-0.387-1.354-0.5153-2.191-0.5153zm7.026-6.381c-0.5798 0-1.16 0-1.74 0.0645-1.612 0.0645-3.03 0.0645-4.512 0.258-0.7094 1.096-1.16 2.449-1.612 3.803 4.963 0.0639 10.06 0.0639 15.08 0-0.3225-1.096-0.6449-1.999-1.096-3.03-0.129-0.129-0.387-0.7732-0.5804-0.8377-0.0645-0.0645-0.258 0-0.4508-0.0645-1.547-0.0645-3.352-0.1935-5.092-0.1935zm0.129-0.9667c1.031 0 2.062 0.129 3.029 0.1935 1.096 0.129 2.256 0.258 2.901 0.9022 0.1935 0.1935 0.3863 0.5159 0.5153 0.8377 0.5159 0.8384 0.9029 1.805 1.289 2.836 0.0645-0.9022 1.999-0.9667 2.127-0.0645 0.0645 0.3225-0.2573 0.5153-0.5153 0.6443-0.258 0.0645-0.6449 0.129-0.9022 0.0645-0.1935-0.0645-0.4514-0.258-0.5159-0.129-0.0645 0.0645 0.129 0.1935 0.1935 0.258 0.258 0.258 0.4514 0.4514 0.7088 0.7094 0.258 0.3218 0.6449 0.7088 0.7739 1.096 0.129 0.4508 0 1.225-0.0645 1.676-0.0645 0.5159-0.0645 1.096-0.129 1.612-0.129 1.611-0.9667 2.578-2.32 2.965-0.4514 0.129-0.9667 0.129-1.547 0.1935-0.9667 0.0645-1.934 0.129-2.965 0.129h-5.866c-1.031 0-2.127-0.0645-3.094-0.129-0.5804-0.0645-1.096-0.0645-1.547-0.1935-1.354-0.387-2.191-1.289-2.32-2.965 0-0.5159-0.129-1.096-0.129-1.612-0.0645-0.5153-0.129-1.16 0-1.611 0.129-0.4514 0.4514-0.7739 0.7088-1.096 0.3225-0.3218 0.6449-0.5798 0.9029-0.9022-0.1935-0.129-0.3225 0-0.5159 0.0645-0.6443 0-1.547-0.1935-1.483-0.8377 0.129-0.7733 1.999-0.7733 2.128 0.0645 0.3863-0.9667 0.7088-1.998 1.289-2.836 0.129-0.2573 0.3225-0.5798 0.5159-0.7732 0.6443-0.6443 1.612-0.7732 2.707-0.8377 0.5798-0.0645 1.096-0.129 1.676-0.129 0.5804 0 1.16-0.0645 1.741-0.0645 0.2573-0.0645 0.4508-0.0645 0.7088-0.0645z" style="fill:#000000;filter:url(#filter12803);opacity:.9027;stroke-width:.6449"/>
  <path d="m394.9 86.02c0.4514 0.0639 0.9029 0.0639 1.354 0.1283-0.0645 0.3225-0.0645 0.6449-0.3225 0.7094-0.3218 0.129-0.7088-0.0645-1.096 0 0-0.258 0-0.5159 0.0645-0.8377zm13.54-0.129c0 0.2573 0.0645 0.5798 0.0645 0.8378-0.3863-0.0645-0.8378 0.129-1.16-0.0645-0.2573-0.129-0.2573-0.3869-0.3218-0.7088 0.5153 0.0645 0.9667 0 1.418-0.0645zm2.965-1.934c-0.0645 0.9029-0.0645 1.805-0.129 2.772 0 0.3224-0.0645 0.6443-0.258 0.7088-0.1935 0.0645-0.7088 0-0.9022 0-0.258 0-0.7088 0.0645-0.9022 0-0.1935-0.0645-0.1935-0.4508-0.258-0.7088 0-0.3225-0.0645-0.5804-0.0645-0.9022 1.16-0.258 2.062-0.8384 2.514-1.87zm-19.47 0c0.5153 0.9674 1.354 1.612 2.578 1.87 0 0.3218-0.0645 0.5798-0.0645 0.9022 0 0.258 0 0.6443-0.258 0.7088-0.1935 0.0645-0.7088 0-0.9667 0s-0.7094 0.0645-0.9022 0c-0.3225-0.129-0.258-1.16-0.3225-1.611 0-0.3225 0-0.6449-0.0645-0.9022zm16.24-4.834c-0.7094 0-1.16 0.0645-1.676 0.2573-0.3863 0.129-0.9667 0.3869-1.031 0.9029 0 0.3218 0.1935 0.7732 0.4514 0.9667 0.2573 0.1935 0.7088 0.3218 1.16 0.3218 1.096 0 2.191-0.3218 2.836-0.9022 0.1935-0.129 0.5159-0.4508 0.4514-0.8377 0-0.1935-0.1935-0.3225-0.3225-0.387-0.387-0.2573-1.031-0.3218-1.612-0.3218zm-13.21 0c-0.4508 0-0.8378 0-1.225 0.1283-0.3218 0.0645-0.7088 0.258-0.7733 0.5159-0.0645 0.3225 0.258 0.6443 0.4514 0.8377 0.6443 0.5804 1.804 0.9022 2.9 0.9022 0.258 0 0.6449-0.0639 0.8378-0.1283 0.387-0.129 0.8384-0.7094 0.7739-1.225-0.0645-0.1935-0.258-0.387-0.4514-0.5159-0.5798-0.387-1.354-0.5153-2.191-0.5153zm7.026-6.381c-0.5798 0-1.16 0-1.74 0.0645-1.612 0.0645-3.03 0.0645-4.512 0.258-0.7094 1.096-1.16 2.449-1.612 3.803 4.963 0.0639 10.06 0.0639 15.08 0-0.3225-1.096-0.6449-1.999-1.096-3.03-0.129-0.129-0.387-0.7732-0.5804-0.8377-0.0645-0.0645-0.258 0-0.4508-0.0645-1.547-0.0645-3.352-0.1935-5.092-0.1935zm0.129-0.9667c1.031 0 2.062 0.129 3.029 0.1935 1.096 0.129 2.256 0.258 2.901 0.9022 0.1935 0.1935 0.3863 0.5159 0.5153 0.8377 0.5159 0.8384 0.9029 1.805 1.289 2.836 0.0645-0.9022 1.999-0.9667 2.127-0.0645 0.0645 0.3225-0.2573 0.5153-0.5153 0.6443-0.258 0.0645-0.6449 0.129-0.9022 0.0645-0.1935-0.0645-0.4514-0.258-0.5159-0.129-0.0645 0.0645 0.129 0.1935 0.1935 0.258 0.258 0.258 0.4514 0.4514 0.7088 0.7094 0.258 0.3218 0.6449 0.7088 0.7739 1.096 0.129 0.4508 0 1.225-0.0645 1.676-0.0645 0.5159-0.0645 1.096-0.129 1.612-0.129 1.611-0.9667 2.578-2.32 2.965-0.4514 0.129-0.9667 0.129-1.547 0.1935-0.9667 0.0645-1.934 0.129-2.965 0.129h-5.866c-1.031 0-2.127-0.0645-3.094-0.129-0.5804-0.0645-1.096-0.0645-1.547-0.1935-1.354-0.387-2.191-1.289-2.32-2.965 0-0.5159-0.129-1.096-0.129-1.612-0.0645-0.5153-0.129-1.16 0-1.611 0.129-0.4514 0.4514-0.7739 0.7088-1.096 0.3225-0.3218 0.6449-0.5798 0.9029-0.9022-0.1935-0.129-0.3225 0-0.5159 0.0645-0.6443 0-1.547-0.1935-1.483-0.8377 0.129-0.7733 1.999-0.7733 2.128 0.0645 0.3863-0.9667 0.7088-1.998 1.289-2.836 0.129-0.2573 0.3225-0.5798 0.5159-0.7732 0.6443-0.6443 1.612-0.7732 2.707-0.8377 0.5798-0.0645 1.096-0.129 1.676-0.129 0.5804 0 1.16-0.0645 1.741-0.0645 0.2573-0.0645 0.4508-0.0645 0.7088-0.0645z" style="fill:url(#linearGradient12686);stroke-width:.6449"/>
  <path d="m388.4 66.38c-3.668 3.691-5.836 8.355-5.829 13.24 0.0802 9.947 9.101 19.01 19.05 19.08 9.949-0.06565 18.97-9.132 19.05-19.08-0.0802-9.947-9.102-19.01-19.05-19.08h-0.0233c-4.879 0-9.525 2.164-13.2 5.837m-1.953 13.24c0-3.954 1.669-7.704 4.571-10.62 2.906-2.908 6.652-4.582 10.6-4.579 8.087 0.03647 15.13 7.108 15.17 15.2-0.0408 8.089-7.087 15.16-15.17 15.2-8.086-0.03647-15.13-7.107-15.17-15.2" style="fill:url(#linearGradient19281-1-0)"/>
  <path d="m401.7 61.29c-4.896 0-9.499 1.907-12.96 5.369-3.462 3.462-5.369 8.065-5.369 12.96 0 10.11 8.223 18.33 18.33 18.33 10.11 0 18.33-8.223 18.33-18.33 0-10.11-8.223-18.33-18.33-18.33zm-14.6 18.33c0-3.899 1.518-7.564 4.275-10.32 2.757-2.757 6.422-4.275 10.32-4.275 8.049 0 14.6 6.548 14.6 14.6 0 8.048-6.548 14.6-14.6 14.6-8.048 0-14.6-6.548-14.6-14.6" style="fill:url(#linearGradient19279-7-1);opacity:1"/>
  <path transform="matrix(.5088 0 0 .5088 -257.1 -187.1)" d="m1258 491.4v64.94h72.46v-64.94zm36.39 4.148c15.85 0 28.69 12.85 28.69 28.69 0 15.85-12.85 28.69-28.69 28.69-15.85 0-28.69-12.85-28.69-28.69 0-15.85 12.85-28.69 28.69-28.69z" clip-path="url(#clipPath12714)" style="fill:none;filter:url(#filter12720);opacity:.526;stroke-linecap:round;stroke-linejoin:round;stroke-width:1.51;stroke:#000000"/>
 </g>
</svg>
