<?xml version="1.0" encoding="UTF-8" standalone="no"?>
<svg
   xmlns:dc="http://purl.org/dc/elements/1.1/"
   xmlns:cc="http://creativecommons.org/ns#"
   xmlns:rdf="http://www.w3.org/1999/02/22-rdf-syntax-ns#"
   xmlns:svg="http://www.w3.org/2000/svg"
   xmlns="http://www.w3.org/2000/svg"
   xmlns:sodipodi="http://sodipodi.sourceforge.net/DTD/sodipodi-0.dtd"
   xmlns:inkscape="http://www.inkscape.org/namespaces/inkscape"
   version="1.1"
   id="svg357"
   sodipodi:docname="i9.svg"
   width="100"
   height="99.999786"
   inkscape:version="0.92.2 (5c3e80d, 2017-08-06)">
  <metadata
     id="metadata361">
    <rdf:RDF>
      <cc:Work
         rdf:about="">
        <dc:format>image/svg+xml</dc:format>
        <dc:type
           rdf:resource="http://purl.org/dc/dcmitype/StillImage" />
        <dc:title></dc:title>
      </cc:Work>
    </rdf:RDF>
  </metadata>
  <sodipodi:namedview
     pagecolor="#ffffff"
     bordercolor="#666666"
     borderopacity="1"
     objecttolerance="10"
     gridtolerance="10"
     guidetolerance="10"
     inkscape:pageopacity="0"
     inkscape:pageshadow="2"
     inkscape:window-width="1034"
     inkscape:window-height="480"
     id="namedview359"
     showgrid="false"
     fit-margin-top="0"
     fit-margin-left="0"
     fit-margin-right="0"
     fit-margin-bottom="0"
     inkscape:zoom="3.163056"
     inkscape:cx="42.996376"
     inkscape:cy="37.305664"
     inkscape:window-x="0"
     inkscape:window-y="0"
     inkscape:window-maximized="0"
     inkscape:current-layer="svg357" />
  <defs
     id="defs4543" />
  <g
     id="car-btn"
     transform="matrix(3.9370086,0,0,3.9370086,1414.5065,1122.6357)"
     inkscape:export-xdpi="96"
     inkscape:export-ydpi="96"
     inkscape:label="car-btn">
    <path
       style="fill:#ff9311;stroke-width:0.25399935"
       inkscape:connector-curvature="0"
       d="m -359.28458,-272.44944 a 12.69997,12.69997 0 1 0 25.39994,0 12.69997,12.69997 0 1 0 -25.39994,0"
       id="path7383" />
    <path
       style="opacity:0.1;stroke-width:0.25399935"
       inkscape:connector-curvature="0"
       d="m -337.60445,-281.42959 -17.96057,17.96031 c 4.9596,4.95957 13.00097,4.95957 17.96057,0 4.95982,-4.95934 4.95982,-13.00072 0,-17.96031 z"
       id="path7397" />
    <path
       style="opacity:0.1;stroke-width:0.25399935"
       inkscape:connector-curvature="0"
       d="m -346.58461,-285.1494 v 25.39993 c 7.01395,0 12.69997,-5.68602 12.69997,-12.69997 0,-7.01394 -5.68602,-12.69996 -12.69997,-12.69996 z"
       id="path7399" />
    <path
       d="m -341.34583,-273.12215 c -0.5715,0 -1.04775,0.381 -1.04775,0.85725 0,0.47625 0.47625,0.85725 1.04775,0.85725 0.5715,0 1.04775,-0.381 1.04775,-0.85725 0,-0.42862 -0.47625,-0.85725 -1.04775,-0.85725 z m -10.42987,0 c -0.5715,0 -1.04775,0.381 -1.04775,0.85725 0,0.47625 0.47625,0.85725 1.04775,0.85725 0.5715,0 1.04775,-0.381 1.04775,-0.85725 0,-0.42862 -0.47625,-0.85725 -1.04775,-0.85725 z m 1.905,-3.47662 c -0.42863,0 -0.5715,0.1905 -0.71438,0.47626 l -0.9525,2.00025 h 4.953 4.953 l -0.9525,-2.00025 c -0.0953,-0.28576 -0.28575,-0.47626 -0.71437,-0.47626 h -3.28613 z m 0,-0.95249 h 1.80975 3.00037 1.76213 c 0.9525,0 1.47637,0.42861 1.7145,0.90486 l 1.23825,2.57175 h 1.38112 v 1.42875 2.0955 1.19063 h -1.23825 v 1.04775 c 0,1.28587 -2.286,1.28587 -2.286,0 v -1.04775 h -4.09575 -4.09575 v 1.04775 c 0,1.28587 -2.286,1.28587 -2.286,0 v -1.04775 h -1.23825 v -1.19063 -3.52425 h 1.42877 l 1.23823,-2.57175 c 0.1905,-0.47625 0.71438,-0.90486 1.66688,-0.90486 z"
       id="path1-3-9"
       inkscape:connector-curvature="0"
       style="fill:#681f03;fill-opacity:1;stroke-width:0.47625005" />
  </g>
</svg>
